M48
INCH,TZ
T1C0.013
T2C0.016
T3C0.020
T4C0.032
T5C0.040
T6C0.087
%
T1
X25481Y-29756
X25538Y-28295
X25756Y-24123
X26022Y-29467
X26351Y-25580
X26771Y-24111
X26808Y-29756
X26913Y-31651
X27284Y-30214
X27657Y-30624
X27934Y-22479
X27964Y-30043
X28683Y-21483
X29354Y-32118
X29555Y-33497
X29695Y-29395
X30017Y-27602
X30173Y-21638
X30320Y-26505
X30630Y-29644
X30720Y-21919
X30826Y-33019
X31009Y-24559
X31137Y-34028
X31190Y-20445
X31298Y-23948
X31329Y-20914
X31380Y-24965
X31466Y-25370
X31603Y-31139
X31847Y-26539
X33642Y-21804
X34005Y-30763
X34005Y-31432
X34427Y-35436
X34445Y-20567
X34450Y-34154
X34674Y-21668
X34829Y-20570
X34955Y-34270
X35132Y-21742
X35633Y-33243
X35902Y-27875
X36188Y-29129
X36557Y-21277
X36726Y-34604
X36760Y-30133
X37055Y-21190
X37565Y-22517
X37650Y-29566
X38125Y-29592
X38132Y-30133
X38666Y-31102
X38672Y-31421
X38897Y-25858
X38987Y-29995
X39014Y-25410
X39146Y-31895
X39357Y-32417
X39450Y-31700
X39650Y-26198
X39956Y-27532
X39983Y-29884
X40382Y-29480
T2
X26400Y-21900
X26400Y-33800
X26600Y-21700
X26600Y-34000
X26800Y-21500
X26800Y-34200
X38700Y-21500
X38700Y-34200
X38900Y-21700
X38900Y-34000
X39100Y-21900
X39100Y-33800
T3
X26220Y-32265
X35755Y-22669
X36879Y-26154
X36939Y-24887
T4
X27239Y-25411
X27946Y-24704
X28654Y-23996
X29361Y-23289
X30250Y-22250
X31250Y-22250
X31750Y-23250
X32250Y-22250
X32750Y-23250
X33250Y-22250
X33750Y-23250
X34250Y-22250
X35250Y-22250
X36089Y-23289
X36796Y-23996
X37504Y-24704
X38211Y-25411
T5
X32250Y-26850
X32250Y-27850
X32250Y-28850
X33250Y-26850
X33250Y-27850
X33250Y-28850
T6
X30050Y-25150
X30050Y-30550
X35450Y-25150
X35450Y-30550
M30
