G04 (created by PCBNEW-RS274X (2010-04-21 BZR 23xx)-stable) date Sun 05 Sep 2010 11:36:07 PM CEST*
G01*
G70*
G90*
%MOIN*%
G04 Gerber Fmt 3.4, Leading zero omitted, Abs format*
%FSLAX34Y34*%
G04 APERTURE LIST*
%ADD10C,0.001000*%
%ADD11R,0.060000X0.060000*%
%ADD12C,0.060000*%
%ADD13R,0.055000X0.055000*%
%ADD14C,0.055000*%
%ADD15R,0.051100X0.059000*%
%ADD16R,0.062900X0.070800*%
%ADD17R,0.059000X0.051100*%
%ADD18R,0.070800X0.062900*%
%ADD19R,0.087900X0.047900*%
%ADD20R,0.086600X0.141700*%
%ADD21C,0.035000*%
%ADD22C,0.008000*%
%ADD23C,0.010000*%
%ADD24C,0.014000*%
G04 APERTURE END LIST*
G54D10*
G54D11*
X32300Y-33400D03*
G54D12*
X33300Y-33400D03*
X32300Y-32400D03*
X33300Y-32400D03*
X32300Y-31400D03*
X33300Y-31400D03*
G54D13*
X30300Y-24400D03*
G54D14*
X31300Y-24400D03*
X32300Y-24400D03*
X33300Y-24400D03*
X34300Y-24400D03*
X35300Y-24400D03*
G54D15*
X39881Y-25480D03*
X39133Y-25480D03*
G54D16*
X25914Y-25490D03*
X27016Y-25490D03*
G54D17*
X33350Y-27476D03*
X33350Y-28224D03*
G54D18*
X35650Y-21549D03*
X35650Y-22651D03*
X30150Y-22651D03*
X30150Y-21549D03*
G54D19*
X31680Y-22609D03*
X31680Y-21700D03*
X31680Y-20791D03*
G54D20*
X34120Y-21700D03*
G54D17*
X32100Y-27476D03*
X32100Y-28224D03*
G54D13*
X36300Y-25400D03*
G54D14*
X36300Y-26400D03*
X36300Y-27400D03*
X36300Y-28400D03*
X36300Y-29400D03*
X36300Y-30400D03*
X36300Y-31400D03*
X36300Y-32400D03*
G54D13*
X29300Y-25400D03*
G54D14*
X29300Y-26400D03*
X29300Y-27400D03*
X29300Y-28400D03*
X29300Y-29400D03*
X29300Y-30400D03*
X29300Y-31400D03*
X29300Y-32400D03*
G54D21*
X35577Y-26527D03*
X35393Y-33228D03*
X35482Y-31847D03*
X36949Y-30920D03*
X37209Y-28890D03*
X37168Y-27948D03*
X34276Y-26252D03*
X35223Y-30046D03*
X33439Y-26781D03*
X34999Y-29359D03*
X27359Y-22131D03*
X33244Y-20548D03*
X25429Y-27539D03*
X27262Y-33066D03*
X29899Y-35514D03*
X32726Y-28316D03*
X27959Y-32968D03*
X29941Y-33909D03*
X26011Y-27716D03*
X33110Y-34604D03*
X31806Y-32812D03*
X37770Y-33168D03*
X34037Y-30892D03*
X39879Y-27670D03*
X38879Y-28191D03*
X38537Y-22515D03*
X38861Y-29130D03*
X34395Y-30005D03*
X33300Y-22136D03*
X35560Y-30403D03*
X31141Y-30448D03*
X26902Y-24383D03*
X30340Y-30588D03*
X26777Y-27632D03*
X26912Y-29295D03*
X32533Y-26675D03*
X32792Y-25210D03*
X34763Y-25875D03*
X30419Y-25984D03*
X31758Y-28758D03*
X34775Y-25303D03*
X34426Y-34620D03*
X31654Y-26853D03*
X38276Y-30864D03*
X31029Y-32543D03*
X28820Y-29965D03*
X27117Y-26354D03*
X38516Y-28833D03*
X38562Y-29762D03*
G54D22*
X35393Y-34833D02*
X35393Y-33228D01*
X34873Y-35353D02*
X35393Y-34833D01*
X31996Y-35353D02*
X34873Y-35353D01*
X30623Y-33980D02*
X31996Y-35353D01*
X30623Y-32723D02*
X30623Y-33980D01*
X29300Y-31400D02*
X30623Y-32723D01*
X35853Y-31847D02*
X36300Y-31400D01*
X35482Y-31847D02*
X35853Y-31847D01*
X37209Y-30660D02*
X37209Y-28890D01*
X36949Y-30920D02*
X37209Y-30660D01*
X37168Y-27349D02*
X37168Y-27948D01*
X36719Y-26900D02*
X37168Y-27349D01*
X35950Y-26900D02*
X36719Y-26900D01*
X35577Y-26527D02*
X35950Y-26900D01*
X34198Y-26174D02*
X34276Y-26252D01*
X31476Y-26174D02*
X34198Y-26174D01*
X30056Y-27594D02*
X31476Y-26174D01*
X30056Y-28383D02*
X30056Y-27594D01*
X29473Y-28966D02*
X30056Y-28383D01*
X28897Y-28966D02*
X29473Y-28966D01*
X28875Y-28988D02*
X28897Y-28966D01*
X28875Y-29569D02*
X28875Y-28988D01*
X29300Y-29994D02*
X28875Y-29569D01*
X29300Y-30400D02*
X29300Y-29994D01*
X35318Y-29951D02*
X35223Y-30046D01*
X35318Y-28247D02*
X35318Y-29951D01*
X34276Y-27205D02*
X35318Y-28247D01*
X34276Y-26252D02*
X34276Y-27205D01*
X34999Y-28341D02*
X34999Y-29359D01*
X33439Y-26781D02*
X34999Y-28341D01*
X30312Y-28388D02*
X29300Y-29400D01*
X30312Y-27613D02*
X30312Y-28388D01*
X31568Y-26357D02*
X30312Y-27613D01*
X33015Y-26357D02*
X31568Y-26357D01*
X33439Y-26781D02*
X33015Y-26357D01*
G54D23*
X33094Y-20398D02*
X33244Y-20548D01*
X29968Y-20398D02*
X33094Y-20398D01*
X28235Y-22131D02*
X29968Y-20398D01*
X27359Y-22131D02*
X28235Y-22131D01*
X25429Y-24937D02*
X25429Y-27539D01*
X27359Y-23007D02*
X25429Y-24937D01*
X27359Y-22131D02*
X27359Y-23007D01*
X25429Y-31233D02*
X27262Y-33066D01*
X25429Y-27539D02*
X25429Y-31233D01*
X27451Y-33066D02*
X27262Y-33066D01*
X29899Y-35514D02*
X27451Y-33066D01*
G54D22*
X35300Y-26090D02*
X35300Y-24400D01*
X35259Y-26131D02*
X35300Y-26090D01*
X35259Y-26880D02*
X35259Y-26131D01*
X35878Y-27499D02*
X35259Y-26880D01*
X35878Y-30710D02*
X35878Y-27499D01*
X35856Y-30732D02*
X35878Y-30710D01*
X35416Y-30732D02*
X35856Y-30732D01*
X34896Y-30212D02*
X35416Y-30732D01*
X34896Y-30051D02*
X34896Y-30212D01*
X33467Y-28622D02*
X34896Y-30051D01*
X33350Y-28622D02*
X33467Y-28622D01*
X33350Y-28224D02*
X33350Y-28622D01*
G54D24*
X39133Y-25480D02*
X38705Y-25480D01*
X35650Y-22651D02*
X35650Y-23138D01*
X35851Y-23339D02*
X35650Y-23138D01*
X35851Y-25951D02*
X35851Y-23339D01*
X36300Y-26400D02*
X35851Y-25951D01*
X37785Y-26400D02*
X38705Y-25480D01*
X36300Y-26400D02*
X37785Y-26400D01*
X33300Y-29161D02*
X33300Y-31400D01*
X32726Y-28587D02*
X33300Y-29161D01*
X32726Y-28316D02*
X32726Y-28587D01*
X30300Y-25400D02*
X30300Y-24400D01*
X29300Y-26400D02*
X30300Y-25400D01*
X27016Y-25490D02*
X27503Y-25490D01*
X27503Y-25490D02*
X28847Y-25490D01*
X28847Y-22974D02*
X28847Y-25490D01*
X30150Y-21671D02*
X28847Y-22974D01*
X28847Y-25947D02*
X29300Y-26400D01*
X28847Y-25490D02*
X28847Y-25947D01*
X30150Y-21549D02*
X30150Y-21610D01*
X30150Y-21610D02*
X30150Y-21671D01*
X30978Y-21610D02*
X31068Y-21700D01*
X30150Y-21610D02*
X30978Y-21610D01*
X31680Y-21700D02*
X31068Y-21700D01*
G54D23*
X28900Y-33909D02*
X27959Y-32968D01*
X29941Y-33909D02*
X28900Y-33909D01*
X26011Y-31020D02*
X27959Y-32968D01*
X26011Y-27716D02*
X26011Y-31020D01*
X31806Y-33831D02*
X31806Y-32812D01*
X32579Y-34604D02*
X31806Y-33831D01*
X33110Y-34604D02*
X32579Y-34604D01*
X36313Y-33168D02*
X37770Y-33168D01*
X34037Y-30892D02*
X36313Y-33168D01*
X39358Y-28191D02*
X38879Y-28191D01*
X39879Y-27670D02*
X39358Y-28191D01*
X38860Y-29130D02*
X38861Y-29130D01*
X38860Y-28639D02*
X38860Y-29130D01*
X38418Y-28197D02*
X38860Y-28639D01*
X38418Y-28157D02*
X38418Y-28197D01*
X40291Y-26284D02*
X38418Y-28157D01*
X40291Y-24958D02*
X40291Y-26284D01*
X38537Y-23204D02*
X40291Y-24958D01*
X38537Y-22515D02*
X38537Y-23204D01*
X33300Y-22748D02*
X33300Y-22136D01*
X34729Y-24177D02*
X33300Y-22748D01*
X34729Y-24793D02*
X34729Y-24177D01*
X35104Y-25168D02*
X34729Y-24793D01*
X35104Y-26012D02*
X35104Y-25168D01*
X35066Y-26050D02*
X35104Y-26012D01*
X35066Y-27720D02*
X35066Y-26050D01*
X35560Y-28214D02*
X35066Y-27720D01*
X35560Y-30403D02*
X35560Y-28214D01*
X32753Y-33825D02*
X32753Y-33400D01*
X32781Y-33853D02*
X32753Y-33825D01*
X33743Y-33853D02*
X32781Y-33853D01*
X33769Y-33827D02*
X33743Y-33853D01*
X33769Y-31138D02*
X33769Y-33827D01*
X33676Y-31045D02*
X33769Y-31138D01*
X33676Y-30724D02*
X33676Y-31045D01*
X34395Y-30005D02*
X33676Y-30724D01*
X32300Y-33400D02*
X32753Y-33400D01*
X30099Y-30829D02*
X30340Y-30588D01*
X28464Y-30829D02*
X30099Y-30829D01*
X28436Y-30801D02*
X28464Y-30829D01*
X28436Y-28137D02*
X28436Y-30801D01*
X26547Y-26248D02*
X28436Y-28137D01*
X26547Y-24738D02*
X26547Y-26248D01*
X26902Y-24383D02*
X26547Y-24738D01*
X31141Y-31241D02*
X32300Y-32400D01*
X31141Y-30448D02*
X31141Y-31241D01*
X26777Y-29160D02*
X26912Y-29295D01*
X26777Y-27632D02*
X26777Y-29160D01*
G54D22*
X32100Y-27476D02*
X31662Y-27476D01*
X32100Y-27476D02*
X32319Y-27476D01*
X33350Y-27476D02*
X32912Y-27476D01*
X32300Y-29749D02*
X32300Y-31400D01*
X31440Y-28889D02*
X32300Y-29749D01*
X31440Y-27698D02*
X31440Y-28889D01*
X31662Y-27476D02*
X31440Y-27698D01*
X32533Y-27373D02*
X32533Y-26675D01*
X32422Y-27373D02*
X32533Y-27373D01*
X32319Y-27476D02*
X32422Y-27373D01*
X32809Y-27373D02*
X32912Y-27476D01*
X32533Y-27373D02*
X32809Y-27373D01*
X34164Y-25276D02*
X34763Y-25875D01*
X32792Y-25276D02*
X34164Y-25276D01*
X32792Y-25276D02*
X32792Y-25210D01*
X29573Y-27400D02*
X29300Y-27400D01*
X31697Y-25276D02*
X29573Y-27400D01*
X32792Y-25276D02*
X31697Y-25276D01*
X29422Y-26981D02*
X30419Y-25984D01*
X29067Y-26981D02*
X29422Y-26981D01*
X28881Y-27167D02*
X29067Y-26981D01*
X28881Y-27981D02*
X28881Y-27167D01*
X29300Y-28400D02*
X28881Y-27981D01*
G54D24*
X36905Y-22036D02*
X39881Y-25012D01*
X35650Y-22036D02*
X36905Y-22036D01*
X35650Y-21549D02*
X35650Y-22036D01*
X35650Y-21549D02*
X35650Y-21061D01*
X39881Y-25246D02*
X39881Y-25012D01*
X39881Y-25246D02*
X39881Y-25480D01*
X31680Y-20791D02*
X32293Y-20791D01*
X32643Y-21141D02*
X32293Y-20791D01*
X39881Y-25480D02*
X39881Y-25948D01*
X35407Y-20818D02*
X35650Y-21061D01*
X33467Y-20818D02*
X35407Y-20818D01*
X33389Y-20896D02*
X33467Y-20818D01*
X32888Y-20896D02*
X33389Y-20896D01*
X32643Y-21141D02*
X32888Y-20896D01*
X32643Y-24057D02*
X32300Y-24400D01*
X32643Y-21141D02*
X32643Y-24057D01*
X32800Y-29352D02*
X32100Y-28652D01*
X32800Y-32900D02*
X32800Y-29352D01*
X33300Y-33400D02*
X32800Y-32900D01*
X29892Y-20791D02*
X31680Y-20791D01*
X25914Y-24769D02*
X29892Y-20791D01*
X25914Y-25490D02*
X25914Y-24769D01*
X32100Y-28224D02*
X32100Y-28438D01*
X32100Y-28438D02*
X32100Y-28652D01*
X32078Y-28438D02*
X31758Y-28758D01*
X32100Y-28438D02*
X32078Y-28438D01*
X36751Y-31949D02*
X36300Y-32400D01*
X36751Y-31214D02*
X36751Y-31949D01*
X36601Y-31064D02*
X36751Y-31214D01*
X36601Y-30776D02*
X36601Y-31064D01*
X36751Y-30626D02*
X36601Y-30776D01*
X36751Y-28856D02*
X36751Y-30626D01*
X37065Y-28542D02*
X36751Y-28856D01*
X37287Y-28542D02*
X37065Y-28542D01*
X39881Y-25948D02*
X37287Y-28542D01*
X27265Y-27368D02*
X25914Y-26017D01*
X27265Y-30365D02*
X27265Y-27368D01*
X29300Y-32400D02*
X27265Y-30365D01*
X25914Y-25490D02*
X25914Y-26017D01*
X34321Y-24849D02*
X34775Y-25303D01*
X31880Y-24849D02*
X34321Y-24849D01*
X31840Y-24809D02*
X31880Y-24849D01*
X31840Y-23435D02*
X31840Y-24809D01*
X32293Y-22982D02*
X31840Y-23435D01*
X32293Y-22609D02*
X32293Y-22982D01*
X31026Y-22651D02*
X31068Y-22609D01*
X30150Y-22651D02*
X31026Y-22651D01*
X30150Y-22651D02*
X30150Y-23139D01*
X31653Y-22609D02*
X31068Y-22609D01*
X29300Y-23989D02*
X29300Y-25400D01*
X30150Y-23139D02*
X29300Y-23989D01*
X31653Y-22609D02*
X31680Y-22609D01*
X31680Y-22609D02*
X32293Y-22609D01*
G54D23*
X30775Y-27732D02*
X31654Y-26853D01*
X30775Y-31390D02*
X30775Y-27732D01*
X31400Y-32015D02*
X30775Y-31390D01*
X31400Y-33757D02*
X31400Y-32015D01*
X32576Y-34933D02*
X31400Y-33757D01*
X34113Y-34933D02*
X32576Y-34933D01*
X34426Y-34620D02*
X34113Y-34933D01*
X38276Y-33311D02*
X38276Y-30864D01*
X38087Y-33500D02*
X38276Y-33311D01*
X36358Y-33500D02*
X38087Y-33500D01*
X35757Y-32899D02*
X36358Y-33500D01*
X35080Y-32899D02*
X35757Y-32899D01*
X35052Y-32927D02*
X35080Y-32899D01*
X35052Y-34829D02*
X35052Y-32927D01*
X34744Y-35137D02*
X35052Y-34829D01*
X32447Y-35137D02*
X34744Y-35137D01*
X31029Y-33719D02*
X32447Y-35137D01*
X31029Y-32543D02*
X31029Y-33719D01*
X28640Y-27877D02*
X27117Y-26354D01*
X28640Y-29785D02*
X28640Y-27877D01*
X28820Y-29965D02*
X28640Y-29785D01*
X38516Y-29716D02*
X38562Y-29762D01*
X38516Y-28833D02*
X38516Y-29716D01*
M02*
