G04 (created by PCBNEW-RS274X (2011-07-08)-stable) date Fri 06 Jan 2012 05:22:34 PM CET*
G01*
G70*
G90*
%MOIN*%
G04 Gerber Fmt 3.4, Leading zero omitted, Abs format*
%FSLAX34Y34*%
G04 APERTURE LIST*
%ADD10C,0.006000*%
%ADD11C,0.008000*%
%ADD12C,0.015000*%
%ADD13C,0.002600*%
%ADD14C,0.002000*%
%ADD15C,0.004000*%
%ADD16C,0.012000*%
%ADD17R,0.068000X0.068000*%
%ADD18C,0.068000*%
%ADD19R,0.031600X0.094600*%
%ADD20R,0.094600X0.031600*%
%ADD21C,0.168000*%
%ADD22R,0.067000X0.059100*%
%ADD23R,0.078800X0.070900*%
%ADD24R,0.059100X0.067000*%
%ADD25R,0.055200X0.055200*%
%ADD26R,0.067100X0.071000*%
%ADD27R,0.071000X0.067100*%
%ADD28R,0.063000X0.063000*%
%ADD29C,0.063000*%
G04 APERTURE END LIST*
G54D10*
G54D11*
X29607Y-29052D02*
X29798Y-29052D01*
X29569Y-28938D02*
X29702Y-29338D01*
X29836Y-28938D01*
X29969Y-28938D02*
X29969Y-29338D01*
X30064Y-29338D01*
X30122Y-29319D01*
X30160Y-29281D01*
X30179Y-29243D01*
X30198Y-29167D01*
X30198Y-29110D01*
X30179Y-29033D01*
X30160Y-28995D01*
X30122Y-28957D01*
X30064Y-28938D01*
X29969Y-28938D01*
X30484Y-29338D02*
X30484Y-29052D01*
X30464Y-28995D01*
X30426Y-28957D01*
X30369Y-28938D01*
X30331Y-28938D01*
X30674Y-28976D02*
X30693Y-28957D01*
X30674Y-28938D01*
X30655Y-28957D01*
X30674Y-28976D01*
X30674Y-28938D01*
X31498Y-29907D02*
X31498Y-30098D01*
X31612Y-29869D02*
X31212Y-30002D01*
X31612Y-30136D01*
X31612Y-30269D02*
X31212Y-30269D01*
X31212Y-30364D01*
X31231Y-30422D01*
X31269Y-30460D01*
X31307Y-30479D01*
X31383Y-30498D01*
X31440Y-30498D01*
X31517Y-30479D01*
X31555Y-30460D01*
X31593Y-30422D01*
X31612Y-30364D01*
X31612Y-30269D01*
X31212Y-30784D02*
X31498Y-30784D01*
X31555Y-30764D01*
X31593Y-30726D01*
X31612Y-30669D01*
X31612Y-30631D01*
X31574Y-30974D02*
X31593Y-30993D01*
X31612Y-30974D01*
X31593Y-30955D01*
X31574Y-30974D01*
X31612Y-30974D01*
X35012Y-31969D02*
X34612Y-31969D01*
X34612Y-32122D01*
X34631Y-32160D01*
X34650Y-32179D01*
X34688Y-32198D01*
X34745Y-32198D01*
X34783Y-32179D01*
X34802Y-32160D01*
X34821Y-32122D01*
X34821Y-31969D01*
X35012Y-32560D02*
X35012Y-32369D01*
X34612Y-32369D01*
X34974Y-32922D02*
X34993Y-32903D01*
X35012Y-32846D01*
X35012Y-32808D01*
X34993Y-32750D01*
X34955Y-32712D01*
X34917Y-32693D01*
X34840Y-32674D01*
X34783Y-32674D01*
X34707Y-32693D01*
X34669Y-32712D01*
X34631Y-32750D01*
X34612Y-32808D01*
X34612Y-32846D01*
X34631Y-32903D01*
X34650Y-32922D01*
X34974Y-33322D02*
X34993Y-33303D01*
X35012Y-33246D01*
X35012Y-33208D01*
X34993Y-33150D01*
X34955Y-33112D01*
X34917Y-33093D01*
X34840Y-33074D01*
X34783Y-33074D01*
X34707Y-33093D01*
X34669Y-33112D01*
X34631Y-33150D01*
X34612Y-33208D01*
X34612Y-33246D01*
X34631Y-33303D01*
X34650Y-33322D01*
X34650Y-33474D02*
X34631Y-33493D01*
X34612Y-33531D01*
X34612Y-33627D01*
X34631Y-33665D01*
X34650Y-33684D01*
X34688Y-33703D01*
X34726Y-33703D01*
X34783Y-33684D01*
X35012Y-33455D01*
X35012Y-33703D01*
X35012Y-34179D02*
X34745Y-34179D01*
X34821Y-34179D02*
X34783Y-34198D01*
X34764Y-34217D01*
X34745Y-34255D01*
X34745Y-34294D01*
X34993Y-34580D02*
X35012Y-34542D01*
X35012Y-34465D01*
X34993Y-34427D01*
X34955Y-34408D01*
X34802Y-34408D01*
X34764Y-34427D01*
X34745Y-34465D01*
X34745Y-34542D01*
X34764Y-34580D01*
X34802Y-34599D01*
X34840Y-34599D01*
X34879Y-34408D01*
X34745Y-34942D02*
X35145Y-34942D01*
X34993Y-34942D02*
X35012Y-34904D01*
X35012Y-34827D01*
X34993Y-34789D01*
X34974Y-34770D01*
X34936Y-34751D01*
X34821Y-34751D01*
X34783Y-34770D01*
X34764Y-34789D01*
X34745Y-34827D01*
X34745Y-34904D01*
X34764Y-34942D01*
X34974Y-35132D02*
X34993Y-35151D01*
X35012Y-35132D01*
X34993Y-35113D01*
X34974Y-35132D01*
X35012Y-35132D01*
G54D12*
X33550Y-23350D02*
X33549Y-23359D01*
X33546Y-23369D01*
X33541Y-23377D01*
X33535Y-23385D01*
X33527Y-23391D01*
X33519Y-23396D01*
X33510Y-23398D01*
X33500Y-23399D01*
X33491Y-23399D01*
X33482Y-23396D01*
X33473Y-23391D01*
X33466Y-23385D01*
X33459Y-23378D01*
X33455Y-23369D01*
X33452Y-23360D01*
X33451Y-23350D01*
X33451Y-23341D01*
X33454Y-23332D01*
X33458Y-23323D01*
X33465Y-23316D01*
X33472Y-23309D01*
X33480Y-23305D01*
X33490Y-23302D01*
X33499Y-23301D01*
X33508Y-23301D01*
X33518Y-23304D01*
X33526Y-23308D01*
X33534Y-23314D01*
X33540Y-23322D01*
X33545Y-23330D01*
X33548Y-23339D01*
X33549Y-23349D01*
X33550Y-23350D01*
X32000Y-23550D02*
X31999Y-23559D01*
X31996Y-23569D01*
X31991Y-23577D01*
X31985Y-23585D01*
X31977Y-23591D01*
X31969Y-23596D01*
X31960Y-23598D01*
X31950Y-23599D01*
X31941Y-23599D01*
X31932Y-23596D01*
X31923Y-23591D01*
X31916Y-23585D01*
X31909Y-23578D01*
X31905Y-23569D01*
X31902Y-23560D01*
X31901Y-23550D01*
X31901Y-23541D01*
X31904Y-23532D01*
X31908Y-23523D01*
X31915Y-23516D01*
X31922Y-23509D01*
X31930Y-23505D01*
X31940Y-23502D01*
X31949Y-23501D01*
X31958Y-23501D01*
X31968Y-23504D01*
X31976Y-23508D01*
X31984Y-23514D01*
X31990Y-23522D01*
X31995Y-23530D01*
X31998Y-23539D01*
X31999Y-23549D01*
X32000Y-23550D01*
G54D11*
X36962Y-30241D02*
X36962Y-30050D01*
X36562Y-30100D01*
X36962Y-30431D02*
X36943Y-30395D01*
X36924Y-30379D01*
X36886Y-30364D01*
X36771Y-30379D01*
X36733Y-30402D01*
X36714Y-30424D01*
X36695Y-30464D01*
X36695Y-30522D01*
X36714Y-30558D01*
X36733Y-30574D01*
X36771Y-30589D01*
X36886Y-30574D01*
X36924Y-30551D01*
X36943Y-30529D01*
X36962Y-30489D01*
X36962Y-30431D01*
X36943Y-30719D02*
X36962Y-30755D01*
X36962Y-30831D01*
X36943Y-30872D01*
X36905Y-30896D01*
X36886Y-30898D01*
X36848Y-30884D01*
X36829Y-30847D01*
X36829Y-30790D01*
X36810Y-30755D01*
X36771Y-30741D01*
X36752Y-30743D01*
X36714Y-30767D01*
X36695Y-30807D01*
X36695Y-30864D01*
X36714Y-30901D01*
X36695Y-31036D02*
X36695Y-31188D01*
X36562Y-31110D02*
X36905Y-31067D01*
X36943Y-31081D01*
X36962Y-31117D01*
X36962Y-31155D01*
X36962Y-31594D02*
X36695Y-31627D01*
X36562Y-31644D02*
X36581Y-31622D01*
X36600Y-31639D01*
X36581Y-31660D01*
X36562Y-31644D01*
X36600Y-31639D01*
X36695Y-31817D02*
X36962Y-31784D01*
X36733Y-31812D02*
X36714Y-31834D01*
X36695Y-31874D01*
X36695Y-31932D01*
X36714Y-31968D01*
X36752Y-31982D01*
X36962Y-31956D01*
X36695Y-32427D02*
X36695Y-32579D01*
X36562Y-32501D02*
X36905Y-32458D01*
X36943Y-32472D01*
X36962Y-32508D01*
X36962Y-32546D01*
X36962Y-32680D02*
X36695Y-32713D01*
X36562Y-32730D02*
X36581Y-32708D01*
X36600Y-32725D01*
X36581Y-32746D01*
X36562Y-32730D01*
X36600Y-32725D01*
X36962Y-32870D02*
X36695Y-32903D01*
X36733Y-32898D02*
X36714Y-32920D01*
X36695Y-32960D01*
X36695Y-33018D01*
X36714Y-33054D01*
X36752Y-33068D01*
X36962Y-33042D01*
X36752Y-33068D02*
X36714Y-33092D01*
X36695Y-33132D01*
X36695Y-33189D01*
X36714Y-33225D01*
X36752Y-33239D01*
X36962Y-33213D01*
X36943Y-33558D02*
X36962Y-33518D01*
X36962Y-33441D01*
X36943Y-33405D01*
X36905Y-33391D01*
X36752Y-33410D01*
X36714Y-33434D01*
X36695Y-33474D01*
X36695Y-33551D01*
X36714Y-33587D01*
X36752Y-33601D01*
X36790Y-33596D01*
X36829Y-33400D01*
X36943Y-33767D02*
X36962Y-33765D01*
X37000Y-33741D01*
X37019Y-33720D01*
X37583Y-30033D02*
X37602Y-30069D01*
X37602Y-30145D01*
X37583Y-30186D01*
X37545Y-30210D01*
X37526Y-30212D01*
X37488Y-30198D01*
X37469Y-30161D01*
X37469Y-30104D01*
X37450Y-30069D01*
X37411Y-30055D01*
X37392Y-30057D01*
X37354Y-30081D01*
X37335Y-30121D01*
X37335Y-30178D01*
X37354Y-30215D01*
X37335Y-30579D02*
X37602Y-30546D01*
X37335Y-30407D02*
X37545Y-30381D01*
X37583Y-30395D01*
X37602Y-30431D01*
X37602Y-30489D01*
X37583Y-30529D01*
X37564Y-30551D01*
X37602Y-30736D02*
X37335Y-30769D01*
X37411Y-30760D02*
X37373Y-30783D01*
X37354Y-30805D01*
X37335Y-30845D01*
X37335Y-30884D01*
X37602Y-30984D02*
X37335Y-31017D01*
X37411Y-31008D02*
X37373Y-31031D01*
X37354Y-31053D01*
X37335Y-31093D01*
X37335Y-31132D01*
X37602Y-31289D02*
X37583Y-31253D01*
X37564Y-31237D01*
X37526Y-31222D01*
X37411Y-31237D01*
X37373Y-31260D01*
X37354Y-31282D01*
X37335Y-31322D01*
X37335Y-31380D01*
X37354Y-31416D01*
X37373Y-31432D01*
X37411Y-31447D01*
X37526Y-31432D01*
X37564Y-31409D01*
X37583Y-31387D01*
X37602Y-31347D01*
X37602Y-31289D01*
X37335Y-31799D02*
X37602Y-31766D01*
X37335Y-31627D02*
X37545Y-31601D01*
X37583Y-31615D01*
X37602Y-31651D01*
X37602Y-31709D01*
X37583Y-31749D01*
X37564Y-31771D01*
X37335Y-31989D02*
X37602Y-31956D01*
X37373Y-31984D02*
X37354Y-32006D01*
X37335Y-32046D01*
X37335Y-32104D01*
X37354Y-32140D01*
X37392Y-32154D01*
X37602Y-32128D01*
X37602Y-32490D02*
X37202Y-32540D01*
X37583Y-32492D02*
X37602Y-32452D01*
X37602Y-32375D01*
X37583Y-32339D01*
X37564Y-32323D01*
X37526Y-32308D01*
X37411Y-32323D01*
X37373Y-32346D01*
X37354Y-32368D01*
X37335Y-32408D01*
X37335Y-32485D01*
X37354Y-32521D01*
X37583Y-32835D02*
X37602Y-32795D01*
X37602Y-32718D01*
X37583Y-32682D01*
X37545Y-32668D01*
X37392Y-32687D01*
X37354Y-32711D01*
X37335Y-32751D01*
X37335Y-32828D01*
X37354Y-32864D01*
X37392Y-32878D01*
X37430Y-32873D01*
X37469Y-32677D01*
X37602Y-33195D02*
X37202Y-33245D01*
X37583Y-33197D02*
X37602Y-33157D01*
X37602Y-33080D01*
X37583Y-33044D01*
X37564Y-33028D01*
X37526Y-33013D01*
X37411Y-33028D01*
X37373Y-33051D01*
X37354Y-33073D01*
X37335Y-33113D01*
X37335Y-33190D01*
X37354Y-33226D01*
X38242Y-30050D02*
X37842Y-30100D01*
X37994Y-30081D02*
X37975Y-30121D01*
X37975Y-30198D01*
X37994Y-30234D01*
X38013Y-30250D01*
X38051Y-30265D01*
X38166Y-30250D01*
X38204Y-30227D01*
X38223Y-30205D01*
X38242Y-30165D01*
X38242Y-30088D01*
X38223Y-30052D01*
X37975Y-30407D02*
X38242Y-30469D01*
X37975Y-30598D02*
X38242Y-30469D01*
X38337Y-30419D01*
X38356Y-30397D01*
X38375Y-30357D01*
X38223Y-31482D02*
X38242Y-31442D01*
X38242Y-31365D01*
X38223Y-31329D01*
X38185Y-31315D01*
X38032Y-31334D01*
X37994Y-31358D01*
X37975Y-31398D01*
X37975Y-31475D01*
X37994Y-31511D01*
X38032Y-31525D01*
X38070Y-31520D01*
X38109Y-31324D01*
X37975Y-31665D02*
X38242Y-31727D01*
X37975Y-31856D01*
X38242Y-31975D02*
X37975Y-32008D01*
X37842Y-32025D02*
X37861Y-32003D01*
X37880Y-32020D01*
X37861Y-32041D01*
X37842Y-32025D01*
X37880Y-32020D01*
X38242Y-32222D02*
X38223Y-32186D01*
X38185Y-32172D01*
X37842Y-32215D01*
X38882Y-30222D02*
X38672Y-30248D01*
X38634Y-30234D01*
X38615Y-30198D01*
X38615Y-30121D01*
X38634Y-30081D01*
X38863Y-30224D02*
X38882Y-30184D01*
X38882Y-30088D01*
X38863Y-30052D01*
X38825Y-30038D01*
X38787Y-30043D01*
X38749Y-30066D01*
X38730Y-30107D01*
X38730Y-30203D01*
X38710Y-30243D01*
X38615Y-30445D02*
X38882Y-30412D01*
X38653Y-30440D02*
X38634Y-30462D01*
X38615Y-30502D01*
X38615Y-30560D01*
X38634Y-30596D01*
X38672Y-30610D01*
X38882Y-30584D01*
X38882Y-30946D02*
X38482Y-30996D01*
X38863Y-30948D02*
X38882Y-30908D01*
X38882Y-30831D01*
X38863Y-30795D01*
X38844Y-30779D01*
X38806Y-30764D01*
X38691Y-30779D01*
X38653Y-30802D01*
X38634Y-30824D01*
X38615Y-30864D01*
X38615Y-30941D01*
X38634Y-30977D01*
X38882Y-31498D02*
X38863Y-31462D01*
X38825Y-31448D01*
X38482Y-31491D01*
X38882Y-31708D02*
X38863Y-31672D01*
X38844Y-31656D01*
X38806Y-31641D01*
X38691Y-31656D01*
X38653Y-31679D01*
X38634Y-31701D01*
X38615Y-31741D01*
X38615Y-31799D01*
X38634Y-31835D01*
X38653Y-31851D01*
X38691Y-31866D01*
X38806Y-31851D01*
X38844Y-31828D01*
X38863Y-31806D01*
X38882Y-31766D01*
X38882Y-31708D01*
X38615Y-32008D02*
X38882Y-32051D01*
X38691Y-32152D01*
X38882Y-32204D01*
X38615Y-32313D01*
X38882Y-32794D02*
X38863Y-32758D01*
X38844Y-32742D01*
X38806Y-32727D01*
X38691Y-32742D01*
X38653Y-32765D01*
X38634Y-32787D01*
X38615Y-32827D01*
X38615Y-32885D01*
X38634Y-32921D01*
X38653Y-32937D01*
X38691Y-32952D01*
X38806Y-32937D01*
X38844Y-32914D01*
X38863Y-32892D01*
X38882Y-32852D01*
X38882Y-32794D01*
X38615Y-33132D02*
X38882Y-33099D01*
X38653Y-33127D02*
X38634Y-33149D01*
X38615Y-33189D01*
X38615Y-33247D01*
X38634Y-33283D01*
X38672Y-33297D01*
X38882Y-33271D01*
X39255Y-30255D02*
X39579Y-30215D01*
X39617Y-30191D01*
X39636Y-30169D01*
X39655Y-30128D01*
X39655Y-30071D01*
X39636Y-30035D01*
X39503Y-30224D02*
X39522Y-30184D01*
X39522Y-30107D01*
X39503Y-30071D01*
X39484Y-30055D01*
X39446Y-30040D01*
X39331Y-30055D01*
X39293Y-30078D01*
X39274Y-30100D01*
X39255Y-30140D01*
X39255Y-30217D01*
X39274Y-30253D01*
X39522Y-30584D02*
X39312Y-30610D01*
X39274Y-30596D01*
X39255Y-30560D01*
X39255Y-30483D01*
X39274Y-30443D01*
X39503Y-30586D02*
X39522Y-30546D01*
X39522Y-30450D01*
X39503Y-30414D01*
X39465Y-30400D01*
X39427Y-30405D01*
X39389Y-30428D01*
X39370Y-30469D01*
X39370Y-30565D01*
X39350Y-30605D01*
X39503Y-30757D02*
X39522Y-30793D01*
X39522Y-30869D01*
X39503Y-30910D01*
X39465Y-30934D01*
X39446Y-30936D01*
X39408Y-30922D01*
X39389Y-30885D01*
X39389Y-30828D01*
X39370Y-30793D01*
X39331Y-30779D01*
X39312Y-30781D01*
X39274Y-30805D01*
X39255Y-30845D01*
X39255Y-30902D01*
X39274Y-30939D01*
X39484Y-31103D02*
X39503Y-31119D01*
X39522Y-31098D01*
X39503Y-31081D01*
X39484Y-31103D01*
X39522Y-31098D01*
X39370Y-31117D02*
X39141Y-31126D01*
X39122Y-31148D01*
X39141Y-31164D01*
X39370Y-31117D01*
X39122Y-31148D01*
X25712Y-30041D02*
X25712Y-29850D01*
X25312Y-29900D01*
X25712Y-30346D02*
X25502Y-30372D01*
X25464Y-30358D01*
X25445Y-30322D01*
X25445Y-30245D01*
X25464Y-30205D01*
X25693Y-30348D02*
X25712Y-30308D01*
X25712Y-30212D01*
X25693Y-30176D01*
X25655Y-30162D01*
X25617Y-30167D01*
X25579Y-30190D01*
X25560Y-30231D01*
X25560Y-30327D01*
X25540Y-30367D01*
X25712Y-30708D02*
X25312Y-30758D01*
X25693Y-30710D02*
X25712Y-30670D01*
X25712Y-30593D01*
X25693Y-30557D01*
X25674Y-30541D01*
X25636Y-30526D01*
X25521Y-30541D01*
X25483Y-30564D01*
X25464Y-30586D01*
X25445Y-30626D01*
X25445Y-30703D01*
X25464Y-30739D01*
X25445Y-30893D02*
X25712Y-30955D01*
X25445Y-31084D02*
X25712Y-30955D01*
X25807Y-30905D01*
X25826Y-30883D01*
X25845Y-30843D01*
X25693Y-31224D02*
X25712Y-31222D01*
X25750Y-31198D01*
X25769Y-31177D01*
X26352Y-29850D02*
X25952Y-29900D01*
X25952Y-30109D02*
X26028Y-30061D01*
X26352Y-30230D02*
X26085Y-30263D01*
X26123Y-30258D02*
X26104Y-30280D01*
X26085Y-30320D01*
X26085Y-30378D01*
X26104Y-30414D01*
X26142Y-30428D01*
X26352Y-30402D01*
X26142Y-30428D02*
X26104Y-30452D01*
X26085Y-30492D01*
X26085Y-30549D01*
X26104Y-30585D01*
X26142Y-30599D01*
X26352Y-30573D01*
X26352Y-31240D02*
X26142Y-31266D01*
X26104Y-31252D01*
X26085Y-31216D01*
X26085Y-31139D01*
X26104Y-31099D01*
X26333Y-31242D02*
X26352Y-31202D01*
X26352Y-31106D01*
X26333Y-31070D01*
X26295Y-31056D01*
X26257Y-31061D01*
X26219Y-31084D01*
X26200Y-31125D01*
X26200Y-31221D01*
X26180Y-31261D01*
X26085Y-31406D02*
X26085Y-31558D01*
X26352Y-31430D02*
X26009Y-31473D01*
X25971Y-31496D01*
X25952Y-31537D01*
X25952Y-31575D01*
X26352Y-31659D02*
X26085Y-31692D01*
X26161Y-31683D02*
X26123Y-31706D01*
X26104Y-31728D01*
X26085Y-31768D01*
X26085Y-31807D01*
X26352Y-32079D02*
X26142Y-32105D01*
X26104Y-32091D01*
X26085Y-32055D01*
X26085Y-31978D01*
X26104Y-31938D01*
X26333Y-32081D02*
X26352Y-32041D01*
X26352Y-31945D01*
X26333Y-31909D01*
X26295Y-31895D01*
X26257Y-31900D01*
X26219Y-31923D01*
X26200Y-31964D01*
X26200Y-32060D01*
X26180Y-32100D01*
X26352Y-32269D02*
X26085Y-32302D01*
X25952Y-32319D02*
X25971Y-32297D01*
X25990Y-32314D01*
X25971Y-32335D01*
X25952Y-32319D01*
X25990Y-32314D01*
X26352Y-32631D02*
X25952Y-32681D01*
X26333Y-32633D02*
X26352Y-32593D01*
X26352Y-32516D01*
X26333Y-32480D01*
X26314Y-32464D01*
X26276Y-32449D01*
X26161Y-32464D01*
X26123Y-32487D01*
X26104Y-32509D01*
X26085Y-32549D01*
X26085Y-32626D01*
X26104Y-32662D01*
X26992Y-29850D02*
X26592Y-29900D01*
X26992Y-30345D02*
X26725Y-30378D01*
X26763Y-30373D02*
X26744Y-30395D01*
X26725Y-30435D01*
X26725Y-30493D01*
X26744Y-30529D01*
X26782Y-30543D01*
X26992Y-30517D01*
X26782Y-30543D02*
X26744Y-30567D01*
X26725Y-30607D01*
X26725Y-30664D01*
X26744Y-30700D01*
X26782Y-30714D01*
X26992Y-30688D01*
X26725Y-31083D02*
X26992Y-31050D01*
X26725Y-30911D02*
X26935Y-30885D01*
X26973Y-30899D01*
X26992Y-30935D01*
X26992Y-30993D01*
X26973Y-31033D01*
X26954Y-31055D01*
X26973Y-31223D02*
X26992Y-31259D01*
X26992Y-31335D01*
X26973Y-31376D01*
X26935Y-31400D01*
X26916Y-31402D01*
X26878Y-31388D01*
X26859Y-31351D01*
X26859Y-31294D01*
X26840Y-31259D01*
X26801Y-31245D01*
X26782Y-31247D01*
X26744Y-31271D01*
X26725Y-31311D01*
X26725Y-31368D01*
X26744Y-31405D01*
X26725Y-31540D02*
X26725Y-31692D01*
X26592Y-31614D02*
X26935Y-31571D01*
X26973Y-31585D01*
X26992Y-31621D01*
X26992Y-31659D01*
X27632Y-30022D02*
X27422Y-30048D01*
X27384Y-30034D01*
X27365Y-29998D01*
X27365Y-29921D01*
X27384Y-29881D01*
X27613Y-30024D02*
X27632Y-29984D01*
X27632Y-29888D01*
X27613Y-29852D01*
X27575Y-29838D01*
X27537Y-29843D01*
X27499Y-29866D01*
X27480Y-29907D01*
X27480Y-30003D01*
X27460Y-30043D01*
X27613Y-30195D02*
X27632Y-30231D01*
X27632Y-30307D01*
X27613Y-30348D01*
X27575Y-30372D01*
X27556Y-30374D01*
X27518Y-30360D01*
X27499Y-30323D01*
X27499Y-30266D01*
X27480Y-30231D01*
X27441Y-30217D01*
X27422Y-30219D01*
X27384Y-30243D01*
X27365Y-30283D01*
X27365Y-30340D01*
X27384Y-30377D01*
X27632Y-30536D02*
X27232Y-30586D01*
X27480Y-30593D02*
X27632Y-30689D01*
X27365Y-30722D02*
X27518Y-30550D01*
X27365Y-31160D02*
X27632Y-31222D01*
X27365Y-31351D02*
X27632Y-31222D01*
X27727Y-31172D01*
X27746Y-31150D01*
X27765Y-31110D01*
X27632Y-31527D02*
X27613Y-31491D01*
X27594Y-31475D01*
X27556Y-31460D01*
X27441Y-31475D01*
X27403Y-31498D01*
X27384Y-31520D01*
X27365Y-31560D01*
X27365Y-31618D01*
X27384Y-31654D01*
X27403Y-31670D01*
X27441Y-31685D01*
X27556Y-31670D01*
X27594Y-31647D01*
X27613Y-31625D01*
X27632Y-31585D01*
X27632Y-31527D01*
X27365Y-32037D02*
X27632Y-32004D01*
X27365Y-31865D02*
X27575Y-31839D01*
X27613Y-31853D01*
X27632Y-31889D01*
X27632Y-31947D01*
X27613Y-31987D01*
X27594Y-32009D01*
X28005Y-29826D02*
X28005Y-29978D01*
X27872Y-29900D02*
X28215Y-29857D01*
X28253Y-29871D01*
X28272Y-29907D01*
X28272Y-29945D01*
X28272Y-30136D02*
X28253Y-30100D01*
X28234Y-30084D01*
X28196Y-30069D01*
X28081Y-30084D01*
X28043Y-30107D01*
X28024Y-30129D01*
X28005Y-30169D01*
X28005Y-30227D01*
X28024Y-30263D01*
X28043Y-30279D01*
X28081Y-30294D01*
X28196Y-30279D01*
X28234Y-30256D01*
X28253Y-30234D01*
X28272Y-30194D01*
X28272Y-30136D01*
X28272Y-30803D02*
X28253Y-30767D01*
X28215Y-30753D01*
X27872Y-30796D01*
X28253Y-31111D02*
X28272Y-31071D01*
X28272Y-30994D01*
X28253Y-30958D01*
X28215Y-30944D01*
X28062Y-30963D01*
X28024Y-30987D01*
X28005Y-31027D01*
X28005Y-31104D01*
X28024Y-31140D01*
X28062Y-31154D01*
X28100Y-31149D01*
X28139Y-30953D01*
X28272Y-31471D02*
X28062Y-31497D01*
X28024Y-31483D01*
X28005Y-31447D01*
X28005Y-31370D01*
X28024Y-31330D01*
X28253Y-31473D02*
X28272Y-31433D01*
X28272Y-31337D01*
X28253Y-31301D01*
X28215Y-31287D01*
X28177Y-31292D01*
X28139Y-31315D01*
X28120Y-31356D01*
X28120Y-31452D01*
X28100Y-31492D01*
X28005Y-31656D02*
X28272Y-31718D01*
X28005Y-31847D01*
X28253Y-32121D02*
X28272Y-32081D01*
X28272Y-32004D01*
X28253Y-31968D01*
X28215Y-31954D01*
X28062Y-31973D01*
X28024Y-31997D01*
X28005Y-32037D01*
X28005Y-32114D01*
X28024Y-32150D01*
X28062Y-32164D01*
X28100Y-32159D01*
X28139Y-31963D01*
X28645Y-29826D02*
X28645Y-29978D01*
X28512Y-29900D02*
X28855Y-29857D01*
X28893Y-29871D01*
X28912Y-29907D01*
X28912Y-29945D01*
X28912Y-30079D02*
X28512Y-30129D01*
X28912Y-30251D02*
X28702Y-30277D01*
X28664Y-30263D01*
X28645Y-30227D01*
X28645Y-30169D01*
X28664Y-30129D01*
X28683Y-30107D01*
X28893Y-30596D02*
X28912Y-30556D01*
X28912Y-30479D01*
X28893Y-30443D01*
X28855Y-30429D01*
X28702Y-30448D01*
X28664Y-30472D01*
X28645Y-30512D01*
X28645Y-30589D01*
X28664Y-30625D01*
X28702Y-30639D01*
X28740Y-30634D01*
X28779Y-30438D01*
X28912Y-31089D02*
X28512Y-31139D01*
X28664Y-31120D02*
X28645Y-31160D01*
X28645Y-31237D01*
X28664Y-31273D01*
X28683Y-31289D01*
X28721Y-31304D01*
X28836Y-31289D01*
X28874Y-31266D01*
X28893Y-31244D01*
X28912Y-31204D01*
X28912Y-31127D01*
X28893Y-31091D01*
X28645Y-31656D02*
X28912Y-31623D01*
X28645Y-31484D02*
X28855Y-31458D01*
X28893Y-31472D01*
X28912Y-31508D01*
X28912Y-31566D01*
X28893Y-31606D01*
X28874Y-31628D01*
X28912Y-31813D02*
X28645Y-31846D01*
X28512Y-31863D02*
X28531Y-31841D01*
X28550Y-31858D01*
X28531Y-31879D01*
X28512Y-31863D01*
X28550Y-31858D01*
X28912Y-32060D02*
X28893Y-32024D01*
X28855Y-32010D01*
X28512Y-32053D01*
X28912Y-32385D02*
X28512Y-32435D01*
X28893Y-32387D02*
X28912Y-32347D01*
X28912Y-32270D01*
X28893Y-32234D01*
X28874Y-32218D01*
X28836Y-32203D01*
X28721Y-32218D01*
X28683Y-32241D01*
X28664Y-32263D01*
X28645Y-32303D01*
X28645Y-32380D01*
X28664Y-32416D01*
X28912Y-32575D02*
X28645Y-32608D01*
X28512Y-32625D02*
X28531Y-32603D01*
X28550Y-32620D01*
X28531Y-32641D01*
X28512Y-32625D01*
X28550Y-32620D01*
X28645Y-32798D02*
X28912Y-32765D01*
X28683Y-32793D02*
X28664Y-32815D01*
X28645Y-32855D01*
X28645Y-32913D01*
X28664Y-32949D01*
X28702Y-32963D01*
X28912Y-32937D01*
X28645Y-33332D02*
X28969Y-33292D01*
X29007Y-33268D01*
X29026Y-33246D01*
X29045Y-33205D01*
X29045Y-33148D01*
X29026Y-33112D01*
X28893Y-33301D02*
X28912Y-33261D01*
X28912Y-33184D01*
X28893Y-33148D01*
X28874Y-33132D01*
X28836Y-33117D01*
X28721Y-33132D01*
X28683Y-33155D01*
X28664Y-33177D01*
X28645Y-33217D01*
X28645Y-33294D01*
X28664Y-33330D01*
X28874Y-33494D02*
X28893Y-33510D01*
X28912Y-33489D01*
X28893Y-33472D01*
X28874Y-33494D01*
X28912Y-33489D01*
X28760Y-33508D02*
X28531Y-33517D01*
X28512Y-33539D01*
X28531Y-33555D01*
X28760Y-33508D01*
X28512Y-33539D01*
G54D12*
X33950Y-26150D02*
X33950Y-26650D01*
X33900Y-26150D02*
X33950Y-26150D01*
X33450Y-26150D02*
X33900Y-26150D01*
G54D11*
X34757Y-29052D02*
X34948Y-29052D01*
X34719Y-28938D02*
X34852Y-29338D01*
X34986Y-28938D01*
X35119Y-28938D02*
X35119Y-29338D01*
X35214Y-29338D01*
X35272Y-29319D01*
X35310Y-29281D01*
X35329Y-29243D01*
X35348Y-29167D01*
X35348Y-29110D01*
X35329Y-29033D01*
X35310Y-28995D01*
X35272Y-28957D01*
X35214Y-28938D01*
X35119Y-28938D01*
X35634Y-29338D02*
X35634Y-29052D01*
X35614Y-28995D01*
X35576Y-28957D01*
X35519Y-28938D01*
X35481Y-28938D01*
X35824Y-28976D02*
X35843Y-28957D01*
X35824Y-28938D01*
X35805Y-28957D01*
X35824Y-28976D01*
X35824Y-28938D01*
X39012Y-22905D02*
X38612Y-22905D01*
X38612Y-23058D01*
X38631Y-23096D01*
X38650Y-23115D01*
X38688Y-23134D01*
X38745Y-23134D01*
X38783Y-23115D01*
X38802Y-23096D01*
X38821Y-23058D01*
X38821Y-22905D01*
X38974Y-23534D02*
X38993Y-23515D01*
X39012Y-23458D01*
X39012Y-23420D01*
X38993Y-23362D01*
X38955Y-23324D01*
X38917Y-23305D01*
X38840Y-23286D01*
X38783Y-23286D01*
X38707Y-23305D01*
X38669Y-23324D01*
X38631Y-23362D01*
X38612Y-23420D01*
X38612Y-23458D01*
X38631Y-23515D01*
X38650Y-23534D01*
X38612Y-23781D02*
X38612Y-23820D01*
X38631Y-23858D01*
X38650Y-23877D01*
X38688Y-23896D01*
X38764Y-23915D01*
X38860Y-23915D01*
X38936Y-23896D01*
X38974Y-23877D01*
X38993Y-23858D01*
X39012Y-23820D01*
X39012Y-23781D01*
X38993Y-23743D01*
X38974Y-23724D01*
X38936Y-23705D01*
X38860Y-23686D01*
X38764Y-23686D01*
X38688Y-23705D01*
X38650Y-23724D01*
X38631Y-23743D01*
X38612Y-23781D01*
X38312Y-22355D02*
X37912Y-22355D01*
X37912Y-22508D01*
X37931Y-22546D01*
X37950Y-22565D01*
X37988Y-22584D01*
X38045Y-22584D01*
X38083Y-22565D01*
X38102Y-22546D01*
X38121Y-22508D01*
X38121Y-22355D01*
X38274Y-22984D02*
X38293Y-22965D01*
X38312Y-22908D01*
X38312Y-22870D01*
X38293Y-22812D01*
X38255Y-22774D01*
X38217Y-22755D01*
X38140Y-22736D01*
X38083Y-22736D01*
X38007Y-22755D01*
X37969Y-22774D01*
X37931Y-22812D01*
X37912Y-22870D01*
X37912Y-22908D01*
X37931Y-22965D01*
X37950Y-22984D01*
X38312Y-23365D02*
X38312Y-23136D01*
X38312Y-23250D02*
X37912Y-23250D01*
X37969Y-23212D01*
X38007Y-23174D01*
X38026Y-23136D01*
X37612Y-21555D02*
X37212Y-21555D01*
X37212Y-21708D01*
X37231Y-21746D01*
X37250Y-21765D01*
X37288Y-21784D01*
X37345Y-21784D01*
X37383Y-21765D01*
X37402Y-21746D01*
X37421Y-21708D01*
X37421Y-21555D01*
X37574Y-22184D02*
X37593Y-22165D01*
X37612Y-22108D01*
X37612Y-22070D01*
X37593Y-22012D01*
X37555Y-21974D01*
X37517Y-21955D01*
X37440Y-21936D01*
X37383Y-21936D01*
X37307Y-21955D01*
X37269Y-21974D01*
X37231Y-22012D01*
X37212Y-22070D01*
X37212Y-22108D01*
X37231Y-22165D01*
X37250Y-22184D01*
X37250Y-22336D02*
X37231Y-22355D01*
X37212Y-22393D01*
X37212Y-22489D01*
X37231Y-22527D01*
X37250Y-22546D01*
X37288Y-22565D01*
X37326Y-22565D01*
X37383Y-22546D01*
X37612Y-22317D01*
X37612Y-22565D01*
X36912Y-20855D02*
X36512Y-20855D01*
X36512Y-21008D01*
X36531Y-21046D01*
X36550Y-21065D01*
X36588Y-21084D01*
X36645Y-21084D01*
X36683Y-21065D01*
X36702Y-21046D01*
X36721Y-21008D01*
X36721Y-20855D01*
X36874Y-21484D02*
X36893Y-21465D01*
X36912Y-21408D01*
X36912Y-21370D01*
X36893Y-21312D01*
X36855Y-21274D01*
X36817Y-21255D01*
X36740Y-21236D01*
X36683Y-21236D01*
X36607Y-21255D01*
X36569Y-21274D01*
X36531Y-21312D01*
X36512Y-21370D01*
X36512Y-21408D01*
X36531Y-21465D01*
X36550Y-21484D01*
X36512Y-21617D02*
X36512Y-21865D01*
X36664Y-21731D01*
X36664Y-21789D01*
X36683Y-21827D01*
X36702Y-21846D01*
X36740Y-21865D01*
X36836Y-21865D01*
X36874Y-21846D01*
X36893Y-21827D01*
X36912Y-21789D01*
X36912Y-21674D01*
X36893Y-21636D01*
X36874Y-21617D01*
G54D12*
X38850Y-24700D02*
X38850Y-24200D01*
X38550Y-25000D02*
X38850Y-24700D01*
X38150Y-24000D02*
X38150Y-23500D01*
X37850Y-24300D02*
X38150Y-24000D01*
X37450Y-23300D02*
X37450Y-22800D01*
X37150Y-23600D02*
X37450Y-23300D01*
X36750Y-22600D02*
X36750Y-22100D01*
X36450Y-22900D02*
X36750Y-22600D01*
X28700Y-22600D02*
X28700Y-22100D01*
X28000Y-23300D02*
X28000Y-22800D01*
X27300Y-24000D02*
X27300Y-23500D01*
X26600Y-24700D02*
X26600Y-24200D01*
X26900Y-25000D02*
X26600Y-24700D01*
X27600Y-24300D02*
X27300Y-24000D01*
X28300Y-23600D02*
X28000Y-23300D01*
X29000Y-22900D02*
X28700Y-22600D01*
G54D11*
X26743Y-22964D02*
X26762Y-23021D01*
X26762Y-23117D01*
X26743Y-23155D01*
X26724Y-23174D01*
X26686Y-23193D01*
X26648Y-23193D01*
X26610Y-23174D01*
X26590Y-23155D01*
X26571Y-23117D01*
X26552Y-23040D01*
X26533Y-23002D01*
X26514Y-22983D01*
X26476Y-22964D01*
X26438Y-22964D01*
X26400Y-22983D01*
X26381Y-23002D01*
X26362Y-23040D01*
X26362Y-23136D01*
X26381Y-23193D01*
X26762Y-23364D02*
X26362Y-23364D01*
X26362Y-23459D01*
X26381Y-23517D01*
X26419Y-23555D01*
X26457Y-23574D01*
X26533Y-23593D01*
X26590Y-23593D01*
X26667Y-23574D01*
X26705Y-23555D01*
X26743Y-23517D01*
X26762Y-23459D01*
X26762Y-23364D01*
X26648Y-23745D02*
X26648Y-23936D01*
X26762Y-23707D02*
X26362Y-23840D01*
X26762Y-23974D01*
X27443Y-22274D02*
X27462Y-22331D01*
X27462Y-22427D01*
X27443Y-22465D01*
X27424Y-22484D01*
X27386Y-22503D01*
X27348Y-22503D01*
X27310Y-22484D01*
X27290Y-22465D01*
X27271Y-22427D01*
X27252Y-22350D01*
X27233Y-22312D01*
X27214Y-22293D01*
X27176Y-22274D01*
X27138Y-22274D01*
X27100Y-22293D01*
X27081Y-22312D01*
X27062Y-22350D01*
X27062Y-22446D01*
X27081Y-22503D01*
X27424Y-22903D02*
X27443Y-22884D01*
X27462Y-22827D01*
X27462Y-22789D01*
X27443Y-22731D01*
X27405Y-22693D01*
X27367Y-22674D01*
X27290Y-22655D01*
X27233Y-22655D01*
X27157Y-22674D01*
X27119Y-22693D01*
X27081Y-22731D01*
X27062Y-22789D01*
X27062Y-22827D01*
X27081Y-22884D01*
X27100Y-22903D01*
X27462Y-23265D02*
X27462Y-23074D01*
X27062Y-23074D01*
X27781Y-21696D02*
X27762Y-21658D01*
X27762Y-21601D01*
X27781Y-21543D01*
X27819Y-21505D01*
X27857Y-21486D01*
X27933Y-21467D01*
X27990Y-21467D01*
X28067Y-21486D01*
X28105Y-21505D01*
X28143Y-21543D01*
X28162Y-21601D01*
X28162Y-21639D01*
X28143Y-21696D01*
X28124Y-21715D01*
X27990Y-21715D01*
X27990Y-21639D01*
X28162Y-21886D02*
X27762Y-21886D01*
X28162Y-22115D01*
X27762Y-22115D01*
X28162Y-22305D02*
X27762Y-22305D01*
X27762Y-22400D01*
X27781Y-22458D01*
X27819Y-22496D01*
X27857Y-22515D01*
X27933Y-22534D01*
X27990Y-22534D01*
X28067Y-22515D01*
X28105Y-22496D01*
X28143Y-22458D01*
X28162Y-22400D01*
X28162Y-22305D01*
X28462Y-20817D02*
X28862Y-20950D01*
X28462Y-21084D01*
X28824Y-21446D02*
X28843Y-21427D01*
X28862Y-21370D01*
X28862Y-21332D01*
X28843Y-21274D01*
X28805Y-21236D01*
X28767Y-21217D01*
X28690Y-21198D01*
X28633Y-21198D01*
X28557Y-21217D01*
X28519Y-21236D01*
X28481Y-21274D01*
X28462Y-21332D01*
X28462Y-21370D01*
X28481Y-21427D01*
X28500Y-21446D01*
X28824Y-21846D02*
X28843Y-21827D01*
X28862Y-21770D01*
X28862Y-21732D01*
X28843Y-21674D01*
X28805Y-21636D01*
X28767Y-21617D01*
X28690Y-21598D01*
X28633Y-21598D01*
X28557Y-21617D01*
X28519Y-21636D01*
X28481Y-21674D01*
X28462Y-21732D01*
X28462Y-21770D01*
X28481Y-21827D01*
X28500Y-21846D01*
X35412Y-20543D02*
X35012Y-20543D01*
X35012Y-20638D01*
X35031Y-20696D01*
X35069Y-20734D01*
X35107Y-20753D01*
X35183Y-20772D01*
X35240Y-20772D01*
X35317Y-20753D01*
X35355Y-20734D01*
X35393Y-20696D01*
X35412Y-20638D01*
X35412Y-20543D01*
X35012Y-20886D02*
X35012Y-21115D01*
X35412Y-21000D02*
X35012Y-21000D01*
X35412Y-21477D02*
X35221Y-21343D01*
X35412Y-21248D02*
X35012Y-21248D01*
X35012Y-21401D01*
X35031Y-21439D01*
X35050Y-21458D01*
X35088Y-21477D01*
X35145Y-21477D01*
X35183Y-21458D01*
X35202Y-21439D01*
X35221Y-21401D01*
X35221Y-21248D01*
X34412Y-20686D02*
X34012Y-20686D01*
X34412Y-20915D01*
X34012Y-20915D01*
X34374Y-21334D02*
X34393Y-21315D01*
X34412Y-21258D01*
X34412Y-21220D01*
X34393Y-21162D01*
X34355Y-21124D01*
X34317Y-21105D01*
X34240Y-21086D01*
X34183Y-21086D01*
X34107Y-21105D01*
X34069Y-21124D01*
X34031Y-21162D01*
X34012Y-21220D01*
X34012Y-21258D01*
X34031Y-21315D01*
X34050Y-21334D01*
X33012Y-20467D02*
X33412Y-20600D01*
X33012Y-20734D01*
X33374Y-21096D02*
X33393Y-21077D01*
X33412Y-21020D01*
X33412Y-20982D01*
X33393Y-20924D01*
X33355Y-20886D01*
X33317Y-20867D01*
X33240Y-20848D01*
X33183Y-20848D01*
X33107Y-20867D01*
X33069Y-20886D01*
X33031Y-20924D01*
X33012Y-20982D01*
X33012Y-21020D01*
X33031Y-21077D01*
X33050Y-21096D01*
X33374Y-21496D02*
X33393Y-21477D01*
X33412Y-21420D01*
X33412Y-21382D01*
X33393Y-21324D01*
X33355Y-21286D01*
X33317Y-21267D01*
X33240Y-21248D01*
X33183Y-21248D01*
X33107Y-21267D01*
X33069Y-21286D01*
X33031Y-21324D01*
X33012Y-21382D01*
X33012Y-21420D01*
X33031Y-21477D01*
X33050Y-21496D01*
X32412Y-20839D02*
X32221Y-20705D01*
X32412Y-20610D02*
X32012Y-20610D01*
X32012Y-20763D01*
X32031Y-20801D01*
X32050Y-20820D01*
X32088Y-20839D01*
X32145Y-20839D01*
X32183Y-20820D01*
X32202Y-20801D01*
X32221Y-20763D01*
X32221Y-20610D01*
X32012Y-20972D02*
X32412Y-21239D01*
X32012Y-21239D02*
X32412Y-20972D01*
X32412Y-21391D02*
X32012Y-21391D01*
X31012Y-20486D02*
X31012Y-20715D01*
X31412Y-20600D02*
X31012Y-20600D01*
X31012Y-20810D02*
X31412Y-21077D01*
X31012Y-21077D02*
X31412Y-20810D01*
X31012Y-21305D02*
X31012Y-21382D01*
X31031Y-21420D01*
X31069Y-21458D01*
X31145Y-21477D01*
X31279Y-21477D01*
X31355Y-21458D01*
X31393Y-21420D01*
X31412Y-21382D01*
X31412Y-21305D01*
X31393Y-21267D01*
X31355Y-21229D01*
X31279Y-21210D01*
X31145Y-21210D01*
X31069Y-21229D01*
X31031Y-21267D01*
X31012Y-21305D01*
X30031Y-20696D02*
X30012Y-20658D01*
X30012Y-20601D01*
X30031Y-20543D01*
X30069Y-20505D01*
X30107Y-20486D01*
X30183Y-20467D01*
X30240Y-20467D01*
X30317Y-20486D01*
X30355Y-20505D01*
X30393Y-20543D01*
X30412Y-20601D01*
X30412Y-20639D01*
X30393Y-20696D01*
X30374Y-20715D01*
X30240Y-20715D01*
X30240Y-20639D01*
X30412Y-20886D02*
X30012Y-20886D01*
X30412Y-21115D01*
X30012Y-21115D01*
X30412Y-21305D02*
X30012Y-21305D01*
X30012Y-21400D01*
X30031Y-21458D01*
X30069Y-21496D01*
X30107Y-21515D01*
X30183Y-21534D01*
X30240Y-21534D01*
X30317Y-21515D01*
X30355Y-21496D01*
X30393Y-21458D01*
X30412Y-21400D01*
X30412Y-21305D01*
X32750Y-19300D02*
X32005Y-19333D01*
X31266Y-19430D01*
X30538Y-19592D01*
X29826Y-19816D01*
X29137Y-20102D01*
X28476Y-20446D01*
X27846Y-20847D01*
X27255Y-21301D01*
X26705Y-21805D01*
X26201Y-22355D01*
X25747Y-22946D01*
X25346Y-23576D01*
X25002Y-24237D01*
X24716Y-24926D01*
X24492Y-25638D01*
X24330Y-26366D01*
X24233Y-27105D01*
X24200Y-27850D01*
X24200Y-27850D02*
X24233Y-28595D01*
X24330Y-29334D01*
X24492Y-30062D01*
X24716Y-30774D01*
X25002Y-31463D01*
X25346Y-32124D01*
X25747Y-32754D01*
X26201Y-33345D01*
X26705Y-33895D01*
X27255Y-34399D01*
X27846Y-34853D01*
X28476Y-35254D01*
X29137Y-35598D01*
X29826Y-35884D01*
X30538Y-36108D01*
X31266Y-36270D01*
X32005Y-36367D01*
X32750Y-36400D01*
X32750Y-36400D02*
X33495Y-36367D01*
X34234Y-36270D01*
X34962Y-36108D01*
X35674Y-35884D01*
X36363Y-35598D01*
X37025Y-35254D01*
X37654Y-34853D01*
X38245Y-34399D01*
X38795Y-33895D01*
X39299Y-33345D01*
X39753Y-32754D01*
X40154Y-32124D01*
X40498Y-31463D01*
X40784Y-30774D01*
X41008Y-30062D01*
X41170Y-29334D01*
X41267Y-28595D01*
X41300Y-27850D01*
X41300Y-27850D02*
X41267Y-27105D01*
X41170Y-26366D01*
X41008Y-25638D01*
X40784Y-24926D01*
X40498Y-24237D01*
X40154Y-23576D01*
X39753Y-22946D01*
X39299Y-22355D01*
X38795Y-21805D01*
X38245Y-21301D01*
X37654Y-20847D01*
X37025Y-20446D01*
X36363Y-20102D01*
X35674Y-19816D01*
X34962Y-19592D01*
X34234Y-19430D01*
X33495Y-19333D01*
X32750Y-19300D01*
X33750Y-29350D02*
X33750Y-26350D01*
X31750Y-26350D02*
X31750Y-29350D01*
X31750Y-29350D02*
X33750Y-29350D01*
X33750Y-26350D02*
X31750Y-26350D01*
G54D12*
X36800Y-27500D02*
X36800Y-27850D01*
X36800Y-27500D02*
X36650Y-27850D01*
X36650Y-27850D02*
X36950Y-27850D01*
X36950Y-27850D02*
X36800Y-27500D01*
X36554Y-26630D02*
X36747Y-26630D01*
X36747Y-26630D02*
X36747Y-27063D01*
X36554Y-27063D02*
X36747Y-27063D01*
X36554Y-26630D02*
X36554Y-27063D01*
X37054Y-26630D02*
X37247Y-26630D01*
X37247Y-26630D02*
X37247Y-27063D01*
X37054Y-27063D02*
X37247Y-27063D01*
X37054Y-26630D02*
X37054Y-27063D01*
X37554Y-26630D02*
X37747Y-26630D01*
X37747Y-26630D02*
X37747Y-27063D01*
X37554Y-27063D02*
X37747Y-27063D01*
X37554Y-26630D02*
X37554Y-27063D01*
X38054Y-26630D02*
X38247Y-26630D01*
X38247Y-26630D02*
X38247Y-27063D01*
X38054Y-27063D02*
X38247Y-27063D01*
X38054Y-26630D02*
X38054Y-27063D01*
X39053Y-28637D02*
X39246Y-28637D01*
X39246Y-28637D02*
X39246Y-29070D01*
X39053Y-29070D02*
X39246Y-29070D01*
X39053Y-28637D02*
X39053Y-29070D01*
X38553Y-28637D02*
X38746Y-28637D01*
X38746Y-28637D02*
X38746Y-29070D01*
X38553Y-29070D02*
X38746Y-29070D01*
X38553Y-28637D02*
X38553Y-29070D01*
X38054Y-28637D02*
X38247Y-28637D01*
X38247Y-28637D02*
X38247Y-29070D01*
X38054Y-29070D02*
X38247Y-29070D01*
X38054Y-28637D02*
X38054Y-29070D01*
X37554Y-28637D02*
X37747Y-28637D01*
X37747Y-28637D02*
X37747Y-29070D01*
X37554Y-29070D02*
X37747Y-29070D01*
X37554Y-28637D02*
X37554Y-29070D01*
X38553Y-26630D02*
X38746Y-26630D01*
X38746Y-26630D02*
X38746Y-27063D01*
X38553Y-27063D02*
X38746Y-27063D01*
X38553Y-26630D02*
X38553Y-27063D01*
X39053Y-26630D02*
X39246Y-26630D01*
X39246Y-26630D02*
X39246Y-27063D01*
X39053Y-27063D02*
X39246Y-27063D01*
X39053Y-26630D02*
X39053Y-27063D01*
X39553Y-26630D02*
X39746Y-26630D01*
X39746Y-26630D02*
X39746Y-27063D01*
X39553Y-27063D02*
X39746Y-27063D01*
X39553Y-26630D02*
X39553Y-27063D01*
X40053Y-26630D02*
X40246Y-26630D01*
X40246Y-26630D02*
X40246Y-27063D01*
X40053Y-27063D02*
X40246Y-27063D01*
X40053Y-26630D02*
X40053Y-27063D01*
X40053Y-28637D02*
X40246Y-28637D01*
X40246Y-28637D02*
X40246Y-29070D01*
X40053Y-29070D02*
X40246Y-29070D01*
X40053Y-28637D02*
X40053Y-29070D01*
X39553Y-28637D02*
X39746Y-28637D01*
X39746Y-28637D02*
X39746Y-29070D01*
X39553Y-29070D02*
X39746Y-29070D01*
X39553Y-28637D02*
X39553Y-29070D01*
X37054Y-28637D02*
X37247Y-28637D01*
X37247Y-28637D02*
X37247Y-29070D01*
X37054Y-29070D02*
X37247Y-29070D01*
X37054Y-28637D02*
X37054Y-29070D01*
X36554Y-28637D02*
X36747Y-28637D01*
X36747Y-28637D02*
X36747Y-29070D01*
X36554Y-29070D02*
X36747Y-29070D01*
X36554Y-28637D02*
X36554Y-29070D01*
X36276Y-29385D02*
X40524Y-29385D01*
X40524Y-26315D02*
X36276Y-26315D01*
X36276Y-26315D02*
X36276Y-29385D01*
X40344Y-27102D02*
X36456Y-27102D01*
X36456Y-27102D02*
X36456Y-27299D01*
X36456Y-27299D02*
X36456Y-28598D01*
X36456Y-28598D02*
X40344Y-28598D01*
X40344Y-27299D02*
X36456Y-27299D01*
X40344Y-28598D02*
X40344Y-27299D01*
X40344Y-27299D02*
X40344Y-27102D01*
X40524Y-29385D02*
X40524Y-26315D01*
X28650Y-28200D02*
X28650Y-27850D01*
X28650Y-28200D02*
X28800Y-27850D01*
X28800Y-27850D02*
X28500Y-27850D01*
X28500Y-27850D02*
X28650Y-28200D01*
X28896Y-29070D02*
X28703Y-29070D01*
X28703Y-29070D02*
X28703Y-28637D01*
X28896Y-28637D02*
X28703Y-28637D01*
X28896Y-29070D02*
X28896Y-28637D01*
X28396Y-29070D02*
X28203Y-29070D01*
X28203Y-29070D02*
X28203Y-28637D01*
X28396Y-28637D02*
X28203Y-28637D01*
X28396Y-29070D02*
X28396Y-28637D01*
X27896Y-29070D02*
X27703Y-29070D01*
X27703Y-29070D02*
X27703Y-28637D01*
X27896Y-28637D02*
X27703Y-28637D01*
X27896Y-29070D02*
X27896Y-28637D01*
X27396Y-29070D02*
X27203Y-29070D01*
X27203Y-29070D02*
X27203Y-28637D01*
X27396Y-28637D02*
X27203Y-28637D01*
X27396Y-29070D02*
X27396Y-28637D01*
X26397Y-27063D02*
X26204Y-27063D01*
X26204Y-27063D02*
X26204Y-26630D01*
X26397Y-26630D02*
X26204Y-26630D01*
X26397Y-27063D02*
X26397Y-26630D01*
X26897Y-27063D02*
X26704Y-27063D01*
X26704Y-27063D02*
X26704Y-26630D01*
X26897Y-26630D02*
X26704Y-26630D01*
X26897Y-27063D02*
X26897Y-26630D01*
X27396Y-27063D02*
X27203Y-27063D01*
X27203Y-27063D02*
X27203Y-26630D01*
X27396Y-26630D02*
X27203Y-26630D01*
X27396Y-27063D02*
X27396Y-26630D01*
X27896Y-27063D02*
X27703Y-27063D01*
X27703Y-27063D02*
X27703Y-26630D01*
X27896Y-26630D02*
X27703Y-26630D01*
X27896Y-27063D02*
X27896Y-26630D01*
X26897Y-29070D02*
X26704Y-29070D01*
X26704Y-29070D02*
X26704Y-28637D01*
X26897Y-28637D02*
X26704Y-28637D01*
X26897Y-29070D02*
X26897Y-28637D01*
X26397Y-29070D02*
X26204Y-29070D01*
X26204Y-29070D02*
X26204Y-28637D01*
X26397Y-28637D02*
X26204Y-28637D01*
X26397Y-29070D02*
X26397Y-28637D01*
X25897Y-29070D02*
X25704Y-29070D01*
X25704Y-29070D02*
X25704Y-28637D01*
X25897Y-28637D02*
X25704Y-28637D01*
X25897Y-29070D02*
X25897Y-28637D01*
X25397Y-29070D02*
X25204Y-29070D01*
X25204Y-29070D02*
X25204Y-28637D01*
X25397Y-28637D02*
X25204Y-28637D01*
X25397Y-29070D02*
X25397Y-28637D01*
X25397Y-27063D02*
X25204Y-27063D01*
X25204Y-27063D02*
X25204Y-26630D01*
X25397Y-26630D02*
X25204Y-26630D01*
X25397Y-27063D02*
X25397Y-26630D01*
X25897Y-27063D02*
X25704Y-27063D01*
X25704Y-27063D02*
X25704Y-26630D01*
X25897Y-26630D02*
X25704Y-26630D01*
X25897Y-27063D02*
X25897Y-26630D01*
X28396Y-27063D02*
X28203Y-27063D01*
X28203Y-27063D02*
X28203Y-26630D01*
X28396Y-26630D02*
X28203Y-26630D01*
X28396Y-27063D02*
X28396Y-26630D01*
X28896Y-27063D02*
X28703Y-27063D01*
X28703Y-27063D02*
X28703Y-26630D01*
X28896Y-26630D02*
X28703Y-26630D01*
X28896Y-27063D02*
X28896Y-26630D01*
X29174Y-26315D02*
X24926Y-26315D01*
X24926Y-29385D02*
X29174Y-29385D01*
X29174Y-29385D02*
X29174Y-26315D01*
X25106Y-28598D02*
X28994Y-28598D01*
X28994Y-28598D02*
X28994Y-28401D01*
X28994Y-28401D02*
X28994Y-27102D01*
X28994Y-27102D02*
X25106Y-27102D01*
X25106Y-28401D02*
X28994Y-28401D01*
X25106Y-27102D02*
X25106Y-28401D01*
X25106Y-28401D02*
X25106Y-28598D01*
X24926Y-26315D02*
X24926Y-29385D01*
X33100Y-31950D02*
X32750Y-31950D01*
X33100Y-31950D02*
X32750Y-31800D01*
X32750Y-31800D02*
X32750Y-32100D01*
X32750Y-32100D02*
X33100Y-31950D01*
X33970Y-31704D02*
X33970Y-31897D01*
X33970Y-31897D02*
X33537Y-31897D01*
X33537Y-31704D02*
X33537Y-31897D01*
X33970Y-31704D02*
X33537Y-31704D01*
X33970Y-32204D02*
X33970Y-32397D01*
X33970Y-32397D02*
X33537Y-32397D01*
X33537Y-32204D02*
X33537Y-32397D01*
X33970Y-32204D02*
X33537Y-32204D01*
X33970Y-32704D02*
X33970Y-32897D01*
X33970Y-32897D02*
X33537Y-32897D01*
X33537Y-32704D02*
X33537Y-32897D01*
X33970Y-32704D02*
X33537Y-32704D01*
X33970Y-33204D02*
X33970Y-33397D01*
X33970Y-33397D02*
X33537Y-33397D01*
X33537Y-33204D02*
X33537Y-33397D01*
X33970Y-33204D02*
X33537Y-33204D01*
X31963Y-34203D02*
X31963Y-34396D01*
X31963Y-34396D02*
X31530Y-34396D01*
X31530Y-34203D02*
X31530Y-34396D01*
X31963Y-34203D02*
X31530Y-34203D01*
X31963Y-33703D02*
X31963Y-33896D01*
X31963Y-33896D02*
X31530Y-33896D01*
X31530Y-33703D02*
X31530Y-33896D01*
X31963Y-33703D02*
X31530Y-33703D01*
X31963Y-33204D02*
X31963Y-33397D01*
X31963Y-33397D02*
X31530Y-33397D01*
X31530Y-33204D02*
X31530Y-33397D01*
X31963Y-33204D02*
X31530Y-33204D01*
X31963Y-32704D02*
X31963Y-32897D01*
X31963Y-32897D02*
X31530Y-32897D01*
X31530Y-32704D02*
X31530Y-32897D01*
X31963Y-32704D02*
X31530Y-32704D01*
X33970Y-33703D02*
X33970Y-33896D01*
X33970Y-33896D02*
X33537Y-33896D01*
X33537Y-33703D02*
X33537Y-33896D01*
X33970Y-33703D02*
X33537Y-33703D01*
X33970Y-34203D02*
X33970Y-34396D01*
X33970Y-34396D02*
X33537Y-34396D01*
X33537Y-34203D02*
X33537Y-34396D01*
X33970Y-34203D02*
X33537Y-34203D01*
X33970Y-34703D02*
X33970Y-34896D01*
X33970Y-34896D02*
X33537Y-34896D01*
X33537Y-34703D02*
X33537Y-34896D01*
X33970Y-34703D02*
X33537Y-34703D01*
X33970Y-35203D02*
X33970Y-35396D01*
X33970Y-35396D02*
X33537Y-35396D01*
X33537Y-35203D02*
X33537Y-35396D01*
X33970Y-35203D02*
X33537Y-35203D01*
X31963Y-35203D02*
X31963Y-35396D01*
X31963Y-35396D02*
X31530Y-35396D01*
X31530Y-35203D02*
X31530Y-35396D01*
X31963Y-35203D02*
X31530Y-35203D01*
X31963Y-34703D02*
X31963Y-34896D01*
X31963Y-34896D02*
X31530Y-34896D01*
X31530Y-34703D02*
X31530Y-34896D01*
X31963Y-34703D02*
X31530Y-34703D01*
X31963Y-32204D02*
X31963Y-32397D01*
X31963Y-32397D02*
X31530Y-32397D01*
X31530Y-32204D02*
X31530Y-32397D01*
X31963Y-32204D02*
X31530Y-32204D01*
X31963Y-31704D02*
X31963Y-31897D01*
X31963Y-31897D02*
X31530Y-31897D01*
X31530Y-31704D02*
X31530Y-31897D01*
X31963Y-31704D02*
X31530Y-31704D01*
X31215Y-31426D02*
X31215Y-35674D01*
X34285Y-35674D02*
X34285Y-31426D01*
X34285Y-31426D02*
X31215Y-31426D01*
X33498Y-35494D02*
X33498Y-31606D01*
X33498Y-31606D02*
X33301Y-31606D01*
X33301Y-31606D02*
X32002Y-31606D01*
X32002Y-31606D02*
X32002Y-35494D01*
X33301Y-35494D02*
X33301Y-31606D01*
X32002Y-35494D02*
X33301Y-35494D01*
X33301Y-35494D02*
X33498Y-35494D01*
X31215Y-35674D02*
X34285Y-35674D01*
G54D13*
X27569Y-32742D02*
X27749Y-32562D01*
X27749Y-32562D02*
X28139Y-32952D01*
X27958Y-33132D02*
X28139Y-32952D01*
X27569Y-32742D02*
X27958Y-33132D01*
X27159Y-33153D02*
X27340Y-32972D01*
X27340Y-32972D02*
X27729Y-33361D01*
X27548Y-33542D02*
X27729Y-33361D01*
X27159Y-33153D02*
X27548Y-33542D01*
X27456Y-32967D02*
X27567Y-32856D01*
X27567Y-32856D02*
X27844Y-33133D01*
X27733Y-33244D02*
X27844Y-33133D01*
X27456Y-32967D02*
X27733Y-33244D01*
G54D10*
X27713Y-33341D02*
X27941Y-33113D01*
X27359Y-32987D02*
X27587Y-32759D01*
G54D14*
X27375Y-33872D02*
X28472Y-32775D01*
X28472Y-32775D02*
X27925Y-32228D01*
X27925Y-32228D02*
X26828Y-33325D01*
X26828Y-33325D02*
X27375Y-33872D01*
G54D13*
X32235Y-24121D02*
X32235Y-24416D01*
X32235Y-24416D02*
X31665Y-24416D01*
X31665Y-24121D02*
X31665Y-24416D01*
X32235Y-24121D02*
X31665Y-24121D01*
X32235Y-24690D02*
X32235Y-24985D01*
X32235Y-24985D02*
X31665Y-24985D01*
X31665Y-24690D02*
X31665Y-24985D01*
X32235Y-24690D02*
X31665Y-24690D01*
X32107Y-24511D02*
X32107Y-24589D01*
X32107Y-24589D02*
X31793Y-24589D01*
X31793Y-24511D02*
X31793Y-24589D01*
X32107Y-24511D02*
X31793Y-24511D01*
G54D14*
X31563Y-23774D02*
X31563Y-25326D01*
X32337Y-25326D02*
X32337Y-23774D01*
X32337Y-23774D02*
X31563Y-23774D01*
G54D15*
X31691Y-24400D02*
X31691Y-24700D01*
X32209Y-24410D02*
X32209Y-24700D01*
G54D14*
X31563Y-25326D02*
X32337Y-25326D01*
G54D13*
X33835Y-23880D02*
X33835Y-24176D01*
X33835Y-24176D02*
X33166Y-24176D01*
X33166Y-23880D02*
X33166Y-24176D01*
X33835Y-23880D02*
X33166Y-23880D01*
X33834Y-24924D02*
X33834Y-25220D01*
X33834Y-25220D02*
X33165Y-25220D01*
X33165Y-24924D02*
X33165Y-25220D01*
X33834Y-24924D02*
X33165Y-24924D01*
X33657Y-24472D02*
X33657Y-24628D01*
X33657Y-24628D02*
X33343Y-24628D01*
X33343Y-24472D02*
X33343Y-24628D01*
X33657Y-24472D02*
X33343Y-24472D01*
G54D14*
X33113Y-23577D02*
X33113Y-25523D01*
X33887Y-25523D02*
X33887Y-23577D01*
X33887Y-23577D02*
X33113Y-23577D01*
X33113Y-25523D02*
X33887Y-25523D01*
G54D15*
X33191Y-24171D02*
X33191Y-24929D01*
X33809Y-24171D02*
X33809Y-24929D01*
G54D13*
X32321Y-19715D02*
X32616Y-19715D01*
X32616Y-19715D02*
X32616Y-20285D01*
X32321Y-20285D02*
X32616Y-20285D01*
X32321Y-19715D02*
X32321Y-20285D01*
X32890Y-19715D02*
X33185Y-19715D01*
X33185Y-19715D02*
X33185Y-20285D01*
X32890Y-20285D02*
X33185Y-20285D01*
X32890Y-19715D02*
X32890Y-20285D01*
X32711Y-19843D02*
X32789Y-19843D01*
X32789Y-19843D02*
X32789Y-20157D01*
X32711Y-20157D02*
X32789Y-20157D01*
X32711Y-19843D02*
X32711Y-20157D01*
G54D14*
X31974Y-20387D02*
X33526Y-20387D01*
X33526Y-19613D02*
X31974Y-19613D01*
X31974Y-19613D02*
X31974Y-20387D01*
G54D15*
X32600Y-20259D02*
X32900Y-20259D01*
X32610Y-19741D02*
X32900Y-19741D01*
G54D14*
X33526Y-20387D02*
X33526Y-19613D01*
G54D16*
X32750Y-30765D02*
X32750Y-30135D01*
X33065Y-30450D02*
X32435Y-30450D01*
X33260Y-30450D02*
X33250Y-30549D01*
X33221Y-30644D01*
X33174Y-30732D01*
X33111Y-30809D01*
X33035Y-30872D01*
X32947Y-30920D01*
X32852Y-30949D01*
X32753Y-30959D01*
X32655Y-30950D01*
X32559Y-30922D01*
X32471Y-30876D01*
X32394Y-30814D01*
X32330Y-30738D01*
X32282Y-30650D01*
X32252Y-30556D01*
X32241Y-30457D01*
X32249Y-30358D01*
X32276Y-30263D01*
X32322Y-30174D01*
X32384Y-30096D01*
X32459Y-30032D01*
X32546Y-29983D01*
X32641Y-29952D01*
X32740Y-29941D01*
X32838Y-29948D01*
X32934Y-29975D01*
X33023Y-30020D01*
X33101Y-30081D01*
X33166Y-30157D01*
X33215Y-30243D01*
X33247Y-30338D01*
X33259Y-30436D01*
X33260Y-30450D01*
X33439Y-30450D02*
X33439Y-29741D01*
X33439Y-29741D02*
X31963Y-29741D01*
X31963Y-29741D02*
X31963Y-31159D01*
X31963Y-31159D02*
X33439Y-31159D01*
X33439Y-31159D02*
X33439Y-30450D01*
X34985Y-27850D02*
X35615Y-27850D01*
X35300Y-28165D02*
X35300Y-27535D01*
X35810Y-27850D02*
X35800Y-27949D01*
X35771Y-28044D01*
X35724Y-28132D01*
X35661Y-28209D01*
X35585Y-28272D01*
X35497Y-28320D01*
X35402Y-28349D01*
X35303Y-28359D01*
X35205Y-28350D01*
X35109Y-28322D01*
X35021Y-28276D01*
X34944Y-28214D01*
X34880Y-28138D01*
X34832Y-28050D01*
X34802Y-27956D01*
X34791Y-27857D01*
X34799Y-27758D01*
X34826Y-27663D01*
X34872Y-27574D01*
X34934Y-27496D01*
X35009Y-27432D01*
X35096Y-27383D01*
X35191Y-27352D01*
X35290Y-27341D01*
X35388Y-27348D01*
X35484Y-27375D01*
X35573Y-27420D01*
X35651Y-27481D01*
X35716Y-27557D01*
X35765Y-27643D01*
X35797Y-27738D01*
X35809Y-27836D01*
X35810Y-27850D01*
X35300Y-28539D02*
X36009Y-28539D01*
X36009Y-28539D02*
X36009Y-27063D01*
X36009Y-27063D02*
X34591Y-27063D01*
X34591Y-27063D02*
X34591Y-28539D01*
X34591Y-28539D02*
X35300Y-28539D01*
X29835Y-27850D02*
X30465Y-27850D01*
X30150Y-28165D02*
X30150Y-27535D01*
X30660Y-27850D02*
X30650Y-27949D01*
X30621Y-28044D01*
X30574Y-28132D01*
X30511Y-28209D01*
X30435Y-28272D01*
X30347Y-28320D01*
X30252Y-28349D01*
X30153Y-28359D01*
X30055Y-28350D01*
X29959Y-28322D01*
X29871Y-28276D01*
X29794Y-28214D01*
X29730Y-28138D01*
X29682Y-28050D01*
X29652Y-27956D01*
X29641Y-27857D01*
X29649Y-27758D01*
X29676Y-27663D01*
X29722Y-27574D01*
X29784Y-27496D01*
X29859Y-27432D01*
X29946Y-27383D01*
X30041Y-27352D01*
X30140Y-27341D01*
X30238Y-27348D01*
X30334Y-27375D01*
X30423Y-27420D01*
X30501Y-27481D01*
X30566Y-27557D01*
X30615Y-27643D01*
X30647Y-27738D01*
X30659Y-27836D01*
X30660Y-27850D01*
X30150Y-28539D02*
X30859Y-28539D01*
X30859Y-28539D02*
X30859Y-27063D01*
X30859Y-27063D02*
X29441Y-27063D01*
X29441Y-27063D02*
X29441Y-28539D01*
X29441Y-28539D02*
X30150Y-28539D01*
X29750Y-21750D02*
X29750Y-22750D01*
X29750Y-22750D02*
X35750Y-22750D01*
X35750Y-22750D02*
X35750Y-21750D01*
X35750Y-21750D02*
X29750Y-21750D01*
X30750Y-21750D02*
X30750Y-22750D01*
X27239Y-26118D02*
X27239Y-26118D01*
X26532Y-25411D02*
X27239Y-26118D01*
X27239Y-26118D02*
X27239Y-26118D01*
X27239Y-26118D02*
X30068Y-23289D01*
X30068Y-23289D02*
X29361Y-22582D01*
X29361Y-22582D02*
X26532Y-25411D01*
X27239Y-24704D02*
X27946Y-25411D01*
X38918Y-25411D02*
X38918Y-25411D01*
X38211Y-26118D02*
X38918Y-25411D01*
X38918Y-25411D02*
X38918Y-25411D01*
X38918Y-25411D02*
X36089Y-22582D01*
X36089Y-22582D02*
X35382Y-23289D01*
X35382Y-23289D02*
X38211Y-26118D01*
X37504Y-25411D02*
X38211Y-24704D01*
G54D11*
X33140Y-26162D02*
X33140Y-25762D01*
X32969Y-26143D02*
X32912Y-26162D01*
X32816Y-26162D01*
X32778Y-26143D01*
X32759Y-26124D01*
X32740Y-26086D01*
X32740Y-26048D01*
X32759Y-26010D01*
X32778Y-25990D01*
X32816Y-25971D01*
X32893Y-25952D01*
X32931Y-25933D01*
X32950Y-25914D01*
X32969Y-25876D01*
X32969Y-25838D01*
X32950Y-25800D01*
X32931Y-25781D01*
X32893Y-25762D01*
X32797Y-25762D01*
X32740Y-25781D01*
X32569Y-26162D02*
X32569Y-25762D01*
X32416Y-25762D01*
X32378Y-25781D01*
X32359Y-25800D01*
X32340Y-25838D01*
X32340Y-25895D01*
X32359Y-25933D01*
X32378Y-25952D01*
X32416Y-25971D01*
X32569Y-25971D01*
X28061Y-34018D02*
X28021Y-33788D01*
X28223Y-33856D02*
X27940Y-33573D01*
X27832Y-33681D01*
X27819Y-33722D01*
X27819Y-33748D01*
X27832Y-33789D01*
X27872Y-33829D01*
X27913Y-33843D01*
X27940Y-33843D01*
X27980Y-33829D01*
X28088Y-33721D01*
X27698Y-33869D02*
X27671Y-33869D01*
X27631Y-33883D01*
X27563Y-33951D01*
X27549Y-33991D01*
X27549Y-34018D01*
X27563Y-34058D01*
X27590Y-34085D01*
X27643Y-34112D01*
X27967Y-34112D01*
X27792Y-34287D01*
X31166Y-24274D02*
X31185Y-24293D01*
X31242Y-24312D01*
X31280Y-24312D01*
X31338Y-24293D01*
X31376Y-24255D01*
X31395Y-24217D01*
X31414Y-24140D01*
X31414Y-24083D01*
X31395Y-24007D01*
X31376Y-23969D01*
X31338Y-23931D01*
X31280Y-23912D01*
X31242Y-23912D01*
X31185Y-23931D01*
X31166Y-23950D01*
X30785Y-24312D02*
X31014Y-24312D01*
X30900Y-24312D02*
X30900Y-23912D01*
X30938Y-23969D01*
X30976Y-24007D01*
X31014Y-24026D01*
X34416Y-24124D02*
X34435Y-24143D01*
X34492Y-24162D01*
X34530Y-24162D01*
X34588Y-24143D01*
X34626Y-24105D01*
X34645Y-24067D01*
X34664Y-23990D01*
X34664Y-23933D01*
X34645Y-23857D01*
X34626Y-23819D01*
X34588Y-23781D01*
X34530Y-23762D01*
X34492Y-23762D01*
X34435Y-23781D01*
X34416Y-23800D01*
X34264Y-23800D02*
X34245Y-23781D01*
X34207Y-23762D01*
X34111Y-23762D01*
X34073Y-23781D01*
X34054Y-23800D01*
X34035Y-23838D01*
X34035Y-23876D01*
X34054Y-23933D01*
X34283Y-24162D01*
X34035Y-24162D01*
X31566Y-20124D02*
X31585Y-20143D01*
X31642Y-20162D01*
X31680Y-20162D01*
X31738Y-20143D01*
X31776Y-20105D01*
X31795Y-20067D01*
X31814Y-19990D01*
X31814Y-19933D01*
X31795Y-19857D01*
X31776Y-19819D01*
X31738Y-19781D01*
X31680Y-19762D01*
X31642Y-19762D01*
X31585Y-19781D01*
X31566Y-19800D01*
X31433Y-19762D02*
X31185Y-19762D01*
X31319Y-19914D01*
X31261Y-19914D01*
X31223Y-19933D01*
X31204Y-19952D01*
X31185Y-19990D01*
X31185Y-20086D01*
X31204Y-20124D01*
X31223Y-20143D01*
X31261Y-20162D01*
X31376Y-20162D01*
X31414Y-20143D01*
X31433Y-20124D01*
%LPC*%
G54D17*
X33250Y-26850D03*
G54D18*
X32250Y-26850D03*
X33250Y-27850D03*
X32250Y-27850D03*
X33250Y-28850D03*
X32250Y-28850D03*
G54D19*
X36650Y-26827D03*
X37150Y-26827D03*
X37650Y-26827D03*
X38150Y-26827D03*
X38650Y-26827D03*
X39150Y-26827D03*
X39650Y-26827D03*
X40150Y-26827D03*
X40150Y-28873D03*
X39650Y-28873D03*
X39150Y-28873D03*
X38650Y-28873D03*
X38150Y-28873D03*
X37650Y-28873D03*
X37150Y-28873D03*
X36650Y-28873D03*
X28800Y-28873D03*
X28300Y-28873D03*
X27800Y-28873D03*
X27300Y-28873D03*
X26800Y-28873D03*
X26300Y-28873D03*
X25800Y-28873D03*
X25300Y-28873D03*
X25300Y-26827D03*
X25800Y-26827D03*
X26300Y-26827D03*
X26800Y-26827D03*
X27300Y-26827D03*
X27800Y-26827D03*
X28300Y-26827D03*
X28800Y-26827D03*
G54D20*
X33773Y-31800D03*
X33773Y-32300D03*
X33773Y-32800D03*
X33773Y-33300D03*
X33773Y-33800D03*
X33773Y-34300D03*
X33773Y-34800D03*
X33773Y-35300D03*
X31727Y-35300D03*
X31727Y-34800D03*
X31727Y-34300D03*
X31727Y-33800D03*
X31727Y-33300D03*
X31727Y-32800D03*
X31727Y-32300D03*
X31727Y-31800D03*
G54D10*
G36*
X27414Y-33759D02*
X26941Y-33286D01*
X27358Y-32869D01*
X27831Y-33342D01*
X27414Y-33759D01*
X27414Y-33759D01*
G37*
G36*
X27942Y-33231D02*
X27469Y-32758D01*
X27886Y-32341D01*
X28359Y-32814D01*
X27942Y-33231D01*
X27942Y-33231D01*
G37*
G54D21*
X30050Y-25150D03*
X35450Y-25150D03*
X30050Y-30550D03*
X35450Y-30550D03*
G54D22*
X31950Y-24176D03*
X31950Y-24924D03*
G54D23*
X33500Y-23999D03*
X33500Y-25101D03*
G54D24*
X32376Y-20000D03*
X33124Y-20000D03*
G54D25*
X32041Y-30844D03*
X32041Y-30056D03*
G54D26*
X33321Y-30450D03*
G54D25*
X34906Y-27141D03*
X35694Y-27141D03*
G54D27*
X35300Y-28421D03*
G54D25*
X29756Y-27141D03*
X30544Y-27141D03*
G54D27*
X30150Y-28421D03*
G54D28*
X30250Y-22250D03*
G54D29*
X31250Y-22250D03*
X32250Y-22250D03*
X33250Y-22250D03*
X34250Y-22250D03*
X35250Y-22250D03*
G54D10*
G36*
X27239Y-25856D02*
X26794Y-25411D01*
X27239Y-24966D01*
X27684Y-25411D01*
X27239Y-25856D01*
X27239Y-25856D01*
G37*
G54D29*
X27946Y-24704D03*
X28654Y-23996D03*
X29361Y-23289D03*
G54D10*
G36*
X38656Y-25411D02*
X38211Y-25856D01*
X37766Y-25411D01*
X38211Y-24966D01*
X38656Y-25411D01*
X38656Y-25411D01*
G37*
G54D29*
X37504Y-24704D03*
X36796Y-23996D03*
X36089Y-23289D03*
M02*
