G04 (created by PCBNEW (2012-jan-04)-stable) date Thu 24 May 2012 09:19:13 PM CEST*
G01*
G70*
G90*
%MOIN*%
G04 Gerber Fmt 3.4, Leading zero omitted, Abs format*
%FSLAX34Y34*%
G04 APERTURE LIST*
%ADD10C,0.001000*%
%ADD11C,0.008000*%
G04 APERTURE END LIST*
G54D10*
G54D11*
X32750Y-19300D02*
X32005Y-19333D01*
X31266Y-19430D01*
X30538Y-19592D01*
X29826Y-19816D01*
X29137Y-20102D01*
X28476Y-20446D01*
X27846Y-20847D01*
X27255Y-21301D01*
X26705Y-21805D01*
X26201Y-22355D01*
X25747Y-22946D01*
X25346Y-23576D01*
X25002Y-24237D01*
X24716Y-24926D01*
X24492Y-25638D01*
X24330Y-26366D01*
X24233Y-27105D01*
X24200Y-27850D01*
X24200Y-27850D02*
X24233Y-28595D01*
X24330Y-29334D01*
X24492Y-30062D01*
X24716Y-30774D01*
X25002Y-31463D01*
X25346Y-32124D01*
X25747Y-32754D01*
X26201Y-33345D01*
X26705Y-33895D01*
X27255Y-34399D01*
X27846Y-34853D01*
X28476Y-35254D01*
X29137Y-35598D01*
X29826Y-35884D01*
X30538Y-36108D01*
X31266Y-36270D01*
X32005Y-36367D01*
X32750Y-36400D01*
X32750Y-36400D02*
X33495Y-36367D01*
X34234Y-36270D01*
X34962Y-36108D01*
X35674Y-35884D01*
X36363Y-35598D01*
X37025Y-35254D01*
X37654Y-34853D01*
X38245Y-34399D01*
X38795Y-33895D01*
X39299Y-33345D01*
X39753Y-32754D01*
X40154Y-32124D01*
X40498Y-31463D01*
X40784Y-30774D01*
X41008Y-30062D01*
X41170Y-29334D01*
X41267Y-28595D01*
X41300Y-27850D01*
X41300Y-27850D02*
X41267Y-27105D01*
X41170Y-26366D01*
X41008Y-25638D01*
X40784Y-24926D01*
X40498Y-24237D01*
X40154Y-23576D01*
X39753Y-22946D01*
X39299Y-22355D01*
X38795Y-21805D01*
X38245Y-21301D01*
X37654Y-20847D01*
X37025Y-20446D01*
X36363Y-20102D01*
X35674Y-19816D01*
X34962Y-19592D01*
X34234Y-19430D01*
X33495Y-19333D01*
X32750Y-19300D01*
G54D10*
X25416Y-29691D02*
X25546Y-29821D01*
X25546Y-29691D02*
X25416Y-29821D01*
X25473Y-28230D02*
X25603Y-28360D01*
X25603Y-28230D02*
X25473Y-28360D01*
X25691Y-24058D02*
X25821Y-24188D01*
X25821Y-24058D02*
X25691Y-24188D01*
X25957Y-29402D02*
X26087Y-29532D01*
X26087Y-29402D02*
X25957Y-29532D01*
X26286Y-25515D02*
X26416Y-25645D01*
X26416Y-25515D02*
X26286Y-25645D01*
X26706Y-24046D02*
X26836Y-24176D01*
X26836Y-24046D02*
X26706Y-24176D01*
X26743Y-29691D02*
X26873Y-29821D01*
X26873Y-29691D02*
X26743Y-29821D01*
X26848Y-31586D02*
X26978Y-31716D01*
X26978Y-31586D02*
X26848Y-31716D01*
X27219Y-30149D02*
X27349Y-30279D01*
X27349Y-30149D02*
X27219Y-30279D01*
X27592Y-30559D02*
X27722Y-30689D01*
X27722Y-30559D02*
X27592Y-30689D01*
X27869Y-22414D02*
X27999Y-22544D01*
X27999Y-22414D02*
X27869Y-22544D01*
X27899Y-29978D02*
X28029Y-30108D01*
X28029Y-29978D02*
X27899Y-30108D01*
X28618Y-21418D02*
X28748Y-21548D01*
X28748Y-21418D02*
X28618Y-21548D01*
X29289Y-32053D02*
X29419Y-32183D01*
X29419Y-32053D02*
X29289Y-32183D01*
X29490Y-33432D02*
X29620Y-33562D01*
X29620Y-33432D02*
X29490Y-33562D01*
X29630Y-29330D02*
X29760Y-29460D01*
X29760Y-29330D02*
X29630Y-29460D01*
X29952Y-27537D02*
X30082Y-27667D01*
X30082Y-27537D02*
X29952Y-27667D01*
X30108Y-21573D02*
X30238Y-21703D01*
X30238Y-21573D02*
X30108Y-21703D01*
X30255Y-26440D02*
X30385Y-26570D01*
X30385Y-26440D02*
X30255Y-26570D01*
X30565Y-29579D02*
X30695Y-29709D01*
X30695Y-29579D02*
X30565Y-29709D01*
X30655Y-21854D02*
X30785Y-21984D01*
X30785Y-21854D02*
X30655Y-21984D01*
X30761Y-32954D02*
X30891Y-33084D01*
X30891Y-32954D02*
X30761Y-33084D01*
X30944Y-24494D02*
X31074Y-24624D01*
X31074Y-24494D02*
X30944Y-24624D01*
X31072Y-33963D02*
X31202Y-34093D01*
X31202Y-33963D02*
X31072Y-34093D01*
X31125Y-20380D02*
X31255Y-20510D01*
X31255Y-20380D02*
X31125Y-20510D01*
X31233Y-23883D02*
X31363Y-24013D01*
X31363Y-23883D02*
X31233Y-24013D01*
X31264Y-20849D02*
X31394Y-20979D01*
X31394Y-20849D02*
X31264Y-20979D01*
X31315Y-24900D02*
X31445Y-25030D01*
X31445Y-24900D02*
X31315Y-25030D01*
X31401Y-25305D02*
X31531Y-25435D01*
X31531Y-25305D02*
X31401Y-25435D01*
X31538Y-31074D02*
X31668Y-31204D01*
X31668Y-31074D02*
X31538Y-31204D01*
X31782Y-26474D02*
X31912Y-26604D01*
X31912Y-26474D02*
X31782Y-26604D01*
X33577Y-21739D02*
X33707Y-21869D01*
X33707Y-21739D02*
X33577Y-21869D01*
X33940Y-30698D02*
X34070Y-30828D01*
X34070Y-30698D02*
X33940Y-30828D01*
X33940Y-31367D02*
X34070Y-31497D01*
X34070Y-31367D02*
X33940Y-31497D01*
X34362Y-35371D02*
X34492Y-35501D01*
X34492Y-35371D02*
X34362Y-35501D01*
X34380Y-20502D02*
X34510Y-20632D01*
X34510Y-20502D02*
X34380Y-20632D01*
X34385Y-34089D02*
X34515Y-34219D01*
X34515Y-34089D02*
X34385Y-34219D01*
X34609Y-21603D02*
X34739Y-21733D01*
X34739Y-21603D02*
X34609Y-21733D01*
X34764Y-20505D02*
X34894Y-20635D01*
X34894Y-20505D02*
X34764Y-20635D01*
X34890Y-34205D02*
X35020Y-34335D01*
X35020Y-34205D02*
X34890Y-34335D01*
X35067Y-21677D02*
X35197Y-21807D01*
X35197Y-21677D02*
X35067Y-21807D01*
X35568Y-33178D02*
X35698Y-33308D01*
X35698Y-33178D02*
X35568Y-33308D01*
X35837Y-27810D02*
X35967Y-27940D01*
X35967Y-27810D02*
X35837Y-27940D01*
X36123Y-29064D02*
X36253Y-29194D01*
X36253Y-29064D02*
X36123Y-29194D01*
X36492Y-21212D02*
X36622Y-21342D01*
X36622Y-21212D02*
X36492Y-21342D01*
X36661Y-34539D02*
X36791Y-34669D01*
X36791Y-34539D02*
X36661Y-34669D01*
X36695Y-30068D02*
X36825Y-30198D01*
X36825Y-30068D02*
X36695Y-30198D01*
X36990Y-21125D02*
X37120Y-21255D01*
X37120Y-21125D02*
X36990Y-21255D01*
X37500Y-22452D02*
X37630Y-22582D01*
X37630Y-22452D02*
X37500Y-22582D01*
X37585Y-29501D02*
X37715Y-29631D01*
X37715Y-29501D02*
X37585Y-29631D01*
X38060Y-29527D02*
X38190Y-29657D01*
X38190Y-29527D02*
X38060Y-29657D01*
X38067Y-30068D02*
X38197Y-30198D01*
X38197Y-30068D02*
X38067Y-30198D01*
X38601Y-31037D02*
X38731Y-31167D01*
X38731Y-31037D02*
X38601Y-31167D01*
X38607Y-31356D02*
X38737Y-31486D01*
X38737Y-31356D02*
X38607Y-31486D01*
X38832Y-25793D02*
X38962Y-25923D01*
X38962Y-25793D02*
X38832Y-25923D01*
X38922Y-29930D02*
X39052Y-30060D01*
X39052Y-29930D02*
X38922Y-30060D01*
X38949Y-25345D02*
X39079Y-25475D01*
X39079Y-25345D02*
X38949Y-25475D01*
X39081Y-31830D02*
X39211Y-31960D01*
X39211Y-31830D02*
X39081Y-31960D01*
X39292Y-32352D02*
X39422Y-32482D01*
X39422Y-32352D02*
X39292Y-32482D01*
X39385Y-31635D02*
X39515Y-31765D01*
X39515Y-31635D02*
X39385Y-31765D01*
X39585Y-26133D02*
X39715Y-26263D01*
X39715Y-26133D02*
X39585Y-26263D01*
X39891Y-27467D02*
X40021Y-27597D01*
X40021Y-27467D02*
X39891Y-27597D01*
X39918Y-29819D02*
X40048Y-29949D01*
X40048Y-29819D02*
X39918Y-29949D01*
X40317Y-29415D02*
X40447Y-29545D01*
X40447Y-29415D02*
X40317Y-29545D01*
X26480Y-21900D02*
X26478Y-21915D01*
X26473Y-21930D01*
X26466Y-21944D01*
X26456Y-21956D01*
X26444Y-21966D01*
X26431Y-21973D01*
X26416Y-21978D01*
X26400Y-21979D01*
X26386Y-21978D01*
X26371Y-21974D01*
X26357Y-21966D01*
X26345Y-21957D01*
X26334Y-21945D01*
X26327Y-21931D01*
X26322Y-21916D01*
X26321Y-21901D01*
X26322Y-21886D01*
X26326Y-21871D01*
X26333Y-21857D01*
X26343Y-21845D01*
X26355Y-21835D01*
X26368Y-21827D01*
X26383Y-21822D01*
X26399Y-21821D01*
X26413Y-21822D01*
X26428Y-21826D01*
X26442Y-21833D01*
X26455Y-21843D01*
X26465Y-21854D01*
X26473Y-21868D01*
X26478Y-21883D01*
X26479Y-21898D01*
X26480Y-21900D01*
X26480Y-33800D02*
X26478Y-33815D01*
X26473Y-33830D01*
X26466Y-33844D01*
X26456Y-33856D01*
X26444Y-33866D01*
X26431Y-33873D01*
X26416Y-33878D01*
X26400Y-33879D01*
X26386Y-33878D01*
X26371Y-33874D01*
X26357Y-33866D01*
X26345Y-33857D01*
X26334Y-33845D01*
X26327Y-33831D01*
X26322Y-33816D01*
X26321Y-33801D01*
X26322Y-33786D01*
X26326Y-33771D01*
X26333Y-33757D01*
X26343Y-33745D01*
X26355Y-33735D01*
X26368Y-33727D01*
X26383Y-33722D01*
X26399Y-33721D01*
X26413Y-33722D01*
X26428Y-33726D01*
X26442Y-33733D01*
X26455Y-33743D01*
X26465Y-33754D01*
X26473Y-33768D01*
X26478Y-33783D01*
X26479Y-33798D01*
X26480Y-33800D01*
X26680Y-21700D02*
X26678Y-21715D01*
X26673Y-21730D01*
X26666Y-21744D01*
X26656Y-21756D01*
X26644Y-21766D01*
X26631Y-21773D01*
X26616Y-21778D01*
X26600Y-21779D01*
X26586Y-21778D01*
X26571Y-21774D01*
X26557Y-21766D01*
X26545Y-21757D01*
X26534Y-21745D01*
X26527Y-21731D01*
X26522Y-21716D01*
X26521Y-21701D01*
X26522Y-21686D01*
X26526Y-21671D01*
X26533Y-21657D01*
X26543Y-21645D01*
X26555Y-21635D01*
X26568Y-21627D01*
X26583Y-21622D01*
X26599Y-21621D01*
X26613Y-21622D01*
X26628Y-21626D01*
X26642Y-21633D01*
X26655Y-21643D01*
X26665Y-21654D01*
X26673Y-21668D01*
X26678Y-21683D01*
X26679Y-21698D01*
X26680Y-21700D01*
X26680Y-34000D02*
X26678Y-34015D01*
X26673Y-34030D01*
X26666Y-34044D01*
X26656Y-34056D01*
X26644Y-34066D01*
X26631Y-34073D01*
X26616Y-34078D01*
X26600Y-34079D01*
X26586Y-34078D01*
X26571Y-34074D01*
X26557Y-34066D01*
X26545Y-34057D01*
X26534Y-34045D01*
X26527Y-34031D01*
X26522Y-34016D01*
X26521Y-34001D01*
X26522Y-33986D01*
X26526Y-33971D01*
X26533Y-33957D01*
X26543Y-33945D01*
X26555Y-33935D01*
X26568Y-33927D01*
X26583Y-33922D01*
X26599Y-33921D01*
X26613Y-33922D01*
X26628Y-33926D01*
X26642Y-33933D01*
X26655Y-33943D01*
X26665Y-33954D01*
X26673Y-33968D01*
X26678Y-33983D01*
X26679Y-33998D01*
X26680Y-34000D01*
X26880Y-21500D02*
X26878Y-21515D01*
X26873Y-21530D01*
X26866Y-21544D01*
X26856Y-21556D01*
X26844Y-21566D01*
X26831Y-21573D01*
X26816Y-21578D01*
X26800Y-21579D01*
X26786Y-21578D01*
X26771Y-21574D01*
X26757Y-21566D01*
X26745Y-21557D01*
X26734Y-21545D01*
X26727Y-21531D01*
X26722Y-21516D01*
X26721Y-21501D01*
X26722Y-21486D01*
X26726Y-21471D01*
X26733Y-21457D01*
X26743Y-21445D01*
X26755Y-21435D01*
X26768Y-21427D01*
X26783Y-21422D01*
X26799Y-21421D01*
X26813Y-21422D01*
X26828Y-21426D01*
X26842Y-21433D01*
X26855Y-21443D01*
X26865Y-21454D01*
X26873Y-21468D01*
X26878Y-21483D01*
X26879Y-21498D01*
X26880Y-21500D01*
X26880Y-34200D02*
X26878Y-34215D01*
X26873Y-34230D01*
X26866Y-34244D01*
X26856Y-34256D01*
X26844Y-34266D01*
X26831Y-34273D01*
X26816Y-34278D01*
X26800Y-34279D01*
X26786Y-34278D01*
X26771Y-34274D01*
X26757Y-34266D01*
X26745Y-34257D01*
X26734Y-34245D01*
X26727Y-34231D01*
X26722Y-34216D01*
X26721Y-34201D01*
X26722Y-34186D01*
X26726Y-34171D01*
X26733Y-34157D01*
X26743Y-34145D01*
X26755Y-34135D01*
X26768Y-34127D01*
X26783Y-34122D01*
X26799Y-34121D01*
X26813Y-34122D01*
X26828Y-34126D01*
X26842Y-34133D01*
X26855Y-34143D01*
X26865Y-34154D01*
X26873Y-34168D01*
X26878Y-34183D01*
X26879Y-34198D01*
X26880Y-34200D01*
X38780Y-21500D02*
X38778Y-21515D01*
X38773Y-21530D01*
X38766Y-21544D01*
X38756Y-21556D01*
X38744Y-21566D01*
X38731Y-21573D01*
X38716Y-21578D01*
X38700Y-21579D01*
X38686Y-21578D01*
X38671Y-21574D01*
X38657Y-21566D01*
X38645Y-21557D01*
X38634Y-21545D01*
X38627Y-21531D01*
X38622Y-21516D01*
X38621Y-21501D01*
X38622Y-21486D01*
X38626Y-21471D01*
X38633Y-21457D01*
X38643Y-21445D01*
X38655Y-21435D01*
X38668Y-21427D01*
X38683Y-21422D01*
X38699Y-21421D01*
X38713Y-21422D01*
X38728Y-21426D01*
X38742Y-21433D01*
X38755Y-21443D01*
X38765Y-21454D01*
X38773Y-21468D01*
X38778Y-21483D01*
X38779Y-21498D01*
X38780Y-21500D01*
X38780Y-34200D02*
X38778Y-34215D01*
X38773Y-34230D01*
X38766Y-34244D01*
X38756Y-34256D01*
X38744Y-34266D01*
X38731Y-34273D01*
X38716Y-34278D01*
X38700Y-34279D01*
X38686Y-34278D01*
X38671Y-34274D01*
X38657Y-34266D01*
X38645Y-34257D01*
X38634Y-34245D01*
X38627Y-34231D01*
X38622Y-34216D01*
X38621Y-34201D01*
X38622Y-34186D01*
X38626Y-34171D01*
X38633Y-34157D01*
X38643Y-34145D01*
X38655Y-34135D01*
X38668Y-34127D01*
X38683Y-34122D01*
X38699Y-34121D01*
X38713Y-34122D01*
X38728Y-34126D01*
X38742Y-34133D01*
X38755Y-34143D01*
X38765Y-34154D01*
X38773Y-34168D01*
X38778Y-34183D01*
X38779Y-34198D01*
X38780Y-34200D01*
X38980Y-21700D02*
X38978Y-21715D01*
X38973Y-21730D01*
X38966Y-21744D01*
X38956Y-21756D01*
X38944Y-21766D01*
X38931Y-21773D01*
X38916Y-21778D01*
X38900Y-21779D01*
X38886Y-21778D01*
X38871Y-21774D01*
X38857Y-21766D01*
X38845Y-21757D01*
X38834Y-21745D01*
X38827Y-21731D01*
X38822Y-21716D01*
X38821Y-21701D01*
X38822Y-21686D01*
X38826Y-21671D01*
X38833Y-21657D01*
X38843Y-21645D01*
X38855Y-21635D01*
X38868Y-21627D01*
X38883Y-21622D01*
X38899Y-21621D01*
X38913Y-21622D01*
X38928Y-21626D01*
X38942Y-21633D01*
X38955Y-21643D01*
X38965Y-21654D01*
X38973Y-21668D01*
X38978Y-21683D01*
X38979Y-21698D01*
X38980Y-21700D01*
X38980Y-34000D02*
X38978Y-34015D01*
X38973Y-34030D01*
X38966Y-34044D01*
X38956Y-34056D01*
X38944Y-34066D01*
X38931Y-34073D01*
X38916Y-34078D01*
X38900Y-34079D01*
X38886Y-34078D01*
X38871Y-34074D01*
X38857Y-34066D01*
X38845Y-34057D01*
X38834Y-34045D01*
X38827Y-34031D01*
X38822Y-34016D01*
X38821Y-34001D01*
X38822Y-33986D01*
X38826Y-33971D01*
X38833Y-33957D01*
X38843Y-33945D01*
X38855Y-33935D01*
X38868Y-33927D01*
X38883Y-33922D01*
X38899Y-33921D01*
X38913Y-33922D01*
X38928Y-33926D01*
X38942Y-33933D01*
X38955Y-33943D01*
X38965Y-33954D01*
X38973Y-33968D01*
X38978Y-33983D01*
X38979Y-33998D01*
X38980Y-34000D01*
X39180Y-21900D02*
X39178Y-21915D01*
X39173Y-21930D01*
X39166Y-21944D01*
X39156Y-21956D01*
X39144Y-21966D01*
X39131Y-21973D01*
X39116Y-21978D01*
X39100Y-21979D01*
X39086Y-21978D01*
X39071Y-21974D01*
X39057Y-21966D01*
X39045Y-21957D01*
X39034Y-21945D01*
X39027Y-21931D01*
X39022Y-21916D01*
X39021Y-21901D01*
X39022Y-21886D01*
X39026Y-21871D01*
X39033Y-21857D01*
X39043Y-21845D01*
X39055Y-21835D01*
X39068Y-21827D01*
X39083Y-21822D01*
X39099Y-21821D01*
X39113Y-21822D01*
X39128Y-21826D01*
X39142Y-21833D01*
X39155Y-21843D01*
X39165Y-21854D01*
X39173Y-21868D01*
X39178Y-21883D01*
X39179Y-21898D01*
X39180Y-21900D01*
X39180Y-33800D02*
X39178Y-33815D01*
X39173Y-33830D01*
X39166Y-33844D01*
X39156Y-33856D01*
X39144Y-33866D01*
X39131Y-33873D01*
X39116Y-33878D01*
X39100Y-33879D01*
X39086Y-33878D01*
X39071Y-33874D01*
X39057Y-33866D01*
X39045Y-33857D01*
X39034Y-33845D01*
X39027Y-33831D01*
X39022Y-33816D01*
X39021Y-33801D01*
X39022Y-33786D01*
X39026Y-33771D01*
X39033Y-33757D01*
X39043Y-33745D01*
X39055Y-33735D01*
X39068Y-33727D01*
X39083Y-33722D01*
X39099Y-33721D01*
X39113Y-33722D01*
X39128Y-33726D01*
X39142Y-33733D01*
X39155Y-33743D01*
X39165Y-33754D01*
X39173Y-33768D01*
X39178Y-33783D01*
X39179Y-33798D01*
X39180Y-33800D01*
X26220Y-32165D02*
X26220Y-32365D01*
X26320Y-32265D02*
X26120Y-32265D01*
X35755Y-22569D02*
X35755Y-22769D01*
X35855Y-22669D02*
X35655Y-22669D01*
X36879Y-26054D02*
X36879Y-26254D01*
X36979Y-26154D02*
X36779Y-26154D01*
X36939Y-24787D02*
X36939Y-24987D01*
X37039Y-24887D02*
X36839Y-24887D01*
X27399Y-25411D02*
X27395Y-25442D01*
X27386Y-25471D01*
X27372Y-25499D01*
X27352Y-25523D01*
X27328Y-25543D01*
X27301Y-25558D01*
X27271Y-25567D01*
X27240Y-25570D01*
X27210Y-25568D01*
X27180Y-25559D01*
X27152Y-25544D01*
X27128Y-25525D01*
X27107Y-25501D01*
X27092Y-25474D01*
X27083Y-25444D01*
X27080Y-25413D01*
X27082Y-25383D01*
X27091Y-25353D01*
X27105Y-25325D01*
X27124Y-25300D01*
X27148Y-25280D01*
X27175Y-25265D01*
X27205Y-25255D01*
X27236Y-25252D01*
X27266Y-25254D01*
X27296Y-25262D01*
X27324Y-25276D01*
X27349Y-25296D01*
X27369Y-25319D01*
X27385Y-25346D01*
X27395Y-25376D01*
X27398Y-25407D01*
X27399Y-25411D01*
X27079Y-25251D02*
X27399Y-25571D01*
X27399Y-25251D02*
X27079Y-25571D01*
X28106Y-24704D02*
X28102Y-24735D01*
X28093Y-24764D01*
X28079Y-24792D01*
X28059Y-24816D01*
X28035Y-24836D01*
X28008Y-24851D01*
X27978Y-24860D01*
X27947Y-24863D01*
X27917Y-24861D01*
X27887Y-24852D01*
X27859Y-24837D01*
X27835Y-24818D01*
X27814Y-24794D01*
X27799Y-24767D01*
X27790Y-24737D01*
X27787Y-24706D01*
X27789Y-24676D01*
X27798Y-24646D01*
X27812Y-24618D01*
X27831Y-24593D01*
X27855Y-24573D01*
X27882Y-24558D01*
X27912Y-24548D01*
X27943Y-24545D01*
X27973Y-24547D01*
X28003Y-24555D01*
X28031Y-24569D01*
X28056Y-24589D01*
X28076Y-24612D01*
X28092Y-24639D01*
X28102Y-24669D01*
X28105Y-24700D01*
X28106Y-24704D01*
X27786Y-24544D02*
X28106Y-24864D01*
X28106Y-24544D02*
X27786Y-24864D01*
X28814Y-23996D02*
X28810Y-24027D01*
X28801Y-24056D01*
X28787Y-24084D01*
X28767Y-24108D01*
X28743Y-24128D01*
X28716Y-24143D01*
X28686Y-24152D01*
X28655Y-24155D01*
X28625Y-24153D01*
X28595Y-24144D01*
X28567Y-24129D01*
X28543Y-24110D01*
X28522Y-24086D01*
X28507Y-24059D01*
X28498Y-24029D01*
X28495Y-23998D01*
X28497Y-23968D01*
X28506Y-23938D01*
X28520Y-23910D01*
X28539Y-23885D01*
X28563Y-23865D01*
X28590Y-23850D01*
X28620Y-23840D01*
X28651Y-23837D01*
X28681Y-23839D01*
X28711Y-23847D01*
X28739Y-23861D01*
X28764Y-23881D01*
X28784Y-23904D01*
X28800Y-23931D01*
X28810Y-23961D01*
X28813Y-23992D01*
X28814Y-23996D01*
X28494Y-23836D02*
X28814Y-24156D01*
X28814Y-23836D02*
X28494Y-24156D01*
X29521Y-23289D02*
X29517Y-23320D01*
X29508Y-23349D01*
X29494Y-23377D01*
X29474Y-23401D01*
X29450Y-23421D01*
X29423Y-23436D01*
X29393Y-23445D01*
X29362Y-23448D01*
X29332Y-23446D01*
X29302Y-23437D01*
X29274Y-23422D01*
X29250Y-23403D01*
X29229Y-23379D01*
X29214Y-23352D01*
X29205Y-23322D01*
X29202Y-23291D01*
X29204Y-23261D01*
X29213Y-23231D01*
X29227Y-23203D01*
X29246Y-23178D01*
X29270Y-23158D01*
X29297Y-23143D01*
X29327Y-23133D01*
X29358Y-23130D01*
X29388Y-23132D01*
X29418Y-23140D01*
X29446Y-23154D01*
X29471Y-23174D01*
X29491Y-23197D01*
X29507Y-23224D01*
X29517Y-23254D01*
X29520Y-23285D01*
X29521Y-23289D01*
X29201Y-23129D02*
X29521Y-23449D01*
X29521Y-23129D02*
X29201Y-23449D01*
X30410Y-22250D02*
X30406Y-22281D01*
X30397Y-22310D01*
X30383Y-22338D01*
X30363Y-22362D01*
X30339Y-22382D01*
X30312Y-22397D01*
X30282Y-22406D01*
X30251Y-22409D01*
X30221Y-22407D01*
X30191Y-22398D01*
X30163Y-22383D01*
X30139Y-22364D01*
X30118Y-22340D01*
X30103Y-22313D01*
X30094Y-22283D01*
X30091Y-22252D01*
X30093Y-22222D01*
X30102Y-22192D01*
X30116Y-22164D01*
X30135Y-22139D01*
X30159Y-22119D01*
X30186Y-22104D01*
X30216Y-22094D01*
X30247Y-22091D01*
X30277Y-22093D01*
X30307Y-22101D01*
X30335Y-22115D01*
X30360Y-22135D01*
X30380Y-22158D01*
X30396Y-22185D01*
X30406Y-22215D01*
X30409Y-22246D01*
X30410Y-22250D01*
X30090Y-22090D02*
X30410Y-22410D01*
X30410Y-22090D02*
X30090Y-22410D01*
X31410Y-22250D02*
X31406Y-22281D01*
X31397Y-22310D01*
X31383Y-22338D01*
X31363Y-22362D01*
X31339Y-22382D01*
X31312Y-22397D01*
X31282Y-22406D01*
X31251Y-22409D01*
X31221Y-22407D01*
X31191Y-22398D01*
X31163Y-22383D01*
X31139Y-22364D01*
X31118Y-22340D01*
X31103Y-22313D01*
X31094Y-22283D01*
X31091Y-22252D01*
X31093Y-22222D01*
X31102Y-22192D01*
X31116Y-22164D01*
X31135Y-22139D01*
X31159Y-22119D01*
X31186Y-22104D01*
X31216Y-22094D01*
X31247Y-22091D01*
X31277Y-22093D01*
X31307Y-22101D01*
X31335Y-22115D01*
X31360Y-22135D01*
X31380Y-22158D01*
X31396Y-22185D01*
X31406Y-22215D01*
X31409Y-22246D01*
X31410Y-22250D01*
X31090Y-22090D02*
X31410Y-22410D01*
X31410Y-22090D02*
X31090Y-22410D01*
X31910Y-23250D02*
X31906Y-23281D01*
X31897Y-23310D01*
X31883Y-23338D01*
X31863Y-23362D01*
X31839Y-23382D01*
X31812Y-23397D01*
X31782Y-23406D01*
X31751Y-23409D01*
X31721Y-23407D01*
X31691Y-23398D01*
X31663Y-23383D01*
X31639Y-23364D01*
X31618Y-23340D01*
X31603Y-23313D01*
X31594Y-23283D01*
X31591Y-23252D01*
X31593Y-23222D01*
X31602Y-23192D01*
X31616Y-23164D01*
X31635Y-23139D01*
X31659Y-23119D01*
X31686Y-23104D01*
X31716Y-23094D01*
X31747Y-23091D01*
X31777Y-23093D01*
X31807Y-23101D01*
X31835Y-23115D01*
X31860Y-23135D01*
X31880Y-23158D01*
X31896Y-23185D01*
X31906Y-23215D01*
X31909Y-23246D01*
X31910Y-23250D01*
X31590Y-23090D02*
X31910Y-23410D01*
X31910Y-23090D02*
X31590Y-23410D01*
X32410Y-22250D02*
X32406Y-22281D01*
X32397Y-22310D01*
X32383Y-22338D01*
X32363Y-22362D01*
X32339Y-22382D01*
X32312Y-22397D01*
X32282Y-22406D01*
X32251Y-22409D01*
X32221Y-22407D01*
X32191Y-22398D01*
X32163Y-22383D01*
X32139Y-22364D01*
X32118Y-22340D01*
X32103Y-22313D01*
X32094Y-22283D01*
X32091Y-22252D01*
X32093Y-22222D01*
X32102Y-22192D01*
X32116Y-22164D01*
X32135Y-22139D01*
X32159Y-22119D01*
X32186Y-22104D01*
X32216Y-22094D01*
X32247Y-22091D01*
X32277Y-22093D01*
X32307Y-22101D01*
X32335Y-22115D01*
X32360Y-22135D01*
X32380Y-22158D01*
X32396Y-22185D01*
X32406Y-22215D01*
X32409Y-22246D01*
X32410Y-22250D01*
X32090Y-22090D02*
X32410Y-22410D01*
X32410Y-22090D02*
X32090Y-22410D01*
X32910Y-23250D02*
X32906Y-23281D01*
X32897Y-23310D01*
X32883Y-23338D01*
X32863Y-23362D01*
X32839Y-23382D01*
X32812Y-23397D01*
X32782Y-23406D01*
X32751Y-23409D01*
X32721Y-23407D01*
X32691Y-23398D01*
X32663Y-23383D01*
X32639Y-23364D01*
X32618Y-23340D01*
X32603Y-23313D01*
X32594Y-23283D01*
X32591Y-23252D01*
X32593Y-23222D01*
X32602Y-23192D01*
X32616Y-23164D01*
X32635Y-23139D01*
X32659Y-23119D01*
X32686Y-23104D01*
X32716Y-23094D01*
X32747Y-23091D01*
X32777Y-23093D01*
X32807Y-23101D01*
X32835Y-23115D01*
X32860Y-23135D01*
X32880Y-23158D01*
X32896Y-23185D01*
X32906Y-23215D01*
X32909Y-23246D01*
X32910Y-23250D01*
X32590Y-23090D02*
X32910Y-23410D01*
X32910Y-23090D02*
X32590Y-23410D01*
X33410Y-22250D02*
X33406Y-22281D01*
X33397Y-22310D01*
X33383Y-22338D01*
X33363Y-22362D01*
X33339Y-22382D01*
X33312Y-22397D01*
X33282Y-22406D01*
X33251Y-22409D01*
X33221Y-22407D01*
X33191Y-22398D01*
X33163Y-22383D01*
X33139Y-22364D01*
X33118Y-22340D01*
X33103Y-22313D01*
X33094Y-22283D01*
X33091Y-22252D01*
X33093Y-22222D01*
X33102Y-22192D01*
X33116Y-22164D01*
X33135Y-22139D01*
X33159Y-22119D01*
X33186Y-22104D01*
X33216Y-22094D01*
X33247Y-22091D01*
X33277Y-22093D01*
X33307Y-22101D01*
X33335Y-22115D01*
X33360Y-22135D01*
X33380Y-22158D01*
X33396Y-22185D01*
X33406Y-22215D01*
X33409Y-22246D01*
X33410Y-22250D01*
X33090Y-22090D02*
X33410Y-22410D01*
X33410Y-22090D02*
X33090Y-22410D01*
X33910Y-23250D02*
X33906Y-23281D01*
X33897Y-23310D01*
X33883Y-23338D01*
X33863Y-23362D01*
X33839Y-23382D01*
X33812Y-23397D01*
X33782Y-23406D01*
X33751Y-23409D01*
X33721Y-23407D01*
X33691Y-23398D01*
X33663Y-23383D01*
X33639Y-23364D01*
X33618Y-23340D01*
X33603Y-23313D01*
X33594Y-23283D01*
X33591Y-23252D01*
X33593Y-23222D01*
X33602Y-23192D01*
X33616Y-23164D01*
X33635Y-23139D01*
X33659Y-23119D01*
X33686Y-23104D01*
X33716Y-23094D01*
X33747Y-23091D01*
X33777Y-23093D01*
X33807Y-23101D01*
X33835Y-23115D01*
X33860Y-23135D01*
X33880Y-23158D01*
X33896Y-23185D01*
X33906Y-23215D01*
X33909Y-23246D01*
X33910Y-23250D01*
X33590Y-23090D02*
X33910Y-23410D01*
X33910Y-23090D02*
X33590Y-23410D01*
X34410Y-22250D02*
X34406Y-22281D01*
X34397Y-22310D01*
X34383Y-22338D01*
X34363Y-22362D01*
X34339Y-22382D01*
X34312Y-22397D01*
X34282Y-22406D01*
X34251Y-22409D01*
X34221Y-22407D01*
X34191Y-22398D01*
X34163Y-22383D01*
X34139Y-22364D01*
X34118Y-22340D01*
X34103Y-22313D01*
X34094Y-22283D01*
X34091Y-22252D01*
X34093Y-22222D01*
X34102Y-22192D01*
X34116Y-22164D01*
X34135Y-22139D01*
X34159Y-22119D01*
X34186Y-22104D01*
X34216Y-22094D01*
X34247Y-22091D01*
X34277Y-22093D01*
X34307Y-22101D01*
X34335Y-22115D01*
X34360Y-22135D01*
X34380Y-22158D01*
X34396Y-22185D01*
X34406Y-22215D01*
X34409Y-22246D01*
X34410Y-22250D01*
X34090Y-22090D02*
X34410Y-22410D01*
X34410Y-22090D02*
X34090Y-22410D01*
X35410Y-22250D02*
X35406Y-22281D01*
X35397Y-22310D01*
X35383Y-22338D01*
X35363Y-22362D01*
X35339Y-22382D01*
X35312Y-22397D01*
X35282Y-22406D01*
X35251Y-22409D01*
X35221Y-22407D01*
X35191Y-22398D01*
X35163Y-22383D01*
X35139Y-22364D01*
X35118Y-22340D01*
X35103Y-22313D01*
X35094Y-22283D01*
X35091Y-22252D01*
X35093Y-22222D01*
X35102Y-22192D01*
X35116Y-22164D01*
X35135Y-22139D01*
X35159Y-22119D01*
X35186Y-22104D01*
X35216Y-22094D01*
X35247Y-22091D01*
X35277Y-22093D01*
X35307Y-22101D01*
X35335Y-22115D01*
X35360Y-22135D01*
X35380Y-22158D01*
X35396Y-22185D01*
X35406Y-22215D01*
X35409Y-22246D01*
X35410Y-22250D01*
X35090Y-22090D02*
X35410Y-22410D01*
X35410Y-22090D02*
X35090Y-22410D01*
X36249Y-23289D02*
X36245Y-23320D01*
X36236Y-23349D01*
X36222Y-23377D01*
X36202Y-23401D01*
X36178Y-23421D01*
X36151Y-23436D01*
X36121Y-23445D01*
X36090Y-23448D01*
X36060Y-23446D01*
X36030Y-23437D01*
X36002Y-23422D01*
X35978Y-23403D01*
X35957Y-23379D01*
X35942Y-23352D01*
X35933Y-23322D01*
X35930Y-23291D01*
X35932Y-23261D01*
X35941Y-23231D01*
X35955Y-23203D01*
X35974Y-23178D01*
X35998Y-23158D01*
X36025Y-23143D01*
X36055Y-23133D01*
X36086Y-23130D01*
X36116Y-23132D01*
X36146Y-23140D01*
X36174Y-23154D01*
X36199Y-23174D01*
X36219Y-23197D01*
X36235Y-23224D01*
X36245Y-23254D01*
X36248Y-23285D01*
X36249Y-23289D01*
X35929Y-23129D02*
X36249Y-23449D01*
X36249Y-23129D02*
X35929Y-23449D01*
X36956Y-23996D02*
X36952Y-24027D01*
X36943Y-24056D01*
X36929Y-24084D01*
X36909Y-24108D01*
X36885Y-24128D01*
X36858Y-24143D01*
X36828Y-24152D01*
X36797Y-24155D01*
X36767Y-24153D01*
X36737Y-24144D01*
X36709Y-24129D01*
X36685Y-24110D01*
X36664Y-24086D01*
X36649Y-24059D01*
X36640Y-24029D01*
X36637Y-23998D01*
X36639Y-23968D01*
X36648Y-23938D01*
X36662Y-23910D01*
X36681Y-23885D01*
X36705Y-23865D01*
X36732Y-23850D01*
X36762Y-23840D01*
X36793Y-23837D01*
X36823Y-23839D01*
X36853Y-23847D01*
X36881Y-23861D01*
X36906Y-23881D01*
X36926Y-23904D01*
X36942Y-23931D01*
X36952Y-23961D01*
X36955Y-23992D01*
X36956Y-23996D01*
X36636Y-23836D02*
X36956Y-24156D01*
X36956Y-23836D02*
X36636Y-24156D01*
X37664Y-24704D02*
X37660Y-24735D01*
X37651Y-24764D01*
X37637Y-24792D01*
X37617Y-24816D01*
X37593Y-24836D01*
X37566Y-24851D01*
X37536Y-24860D01*
X37505Y-24863D01*
X37475Y-24861D01*
X37445Y-24852D01*
X37417Y-24837D01*
X37393Y-24818D01*
X37372Y-24794D01*
X37357Y-24767D01*
X37348Y-24737D01*
X37345Y-24706D01*
X37347Y-24676D01*
X37356Y-24646D01*
X37370Y-24618D01*
X37389Y-24593D01*
X37413Y-24573D01*
X37440Y-24558D01*
X37470Y-24548D01*
X37501Y-24545D01*
X37531Y-24547D01*
X37561Y-24555D01*
X37589Y-24569D01*
X37614Y-24589D01*
X37634Y-24612D01*
X37650Y-24639D01*
X37660Y-24669D01*
X37663Y-24700D01*
X37664Y-24704D01*
X37344Y-24544D02*
X37664Y-24864D01*
X37664Y-24544D02*
X37344Y-24864D01*
X38371Y-25411D02*
X38367Y-25442D01*
X38358Y-25471D01*
X38344Y-25499D01*
X38324Y-25523D01*
X38300Y-25543D01*
X38273Y-25558D01*
X38243Y-25567D01*
X38212Y-25570D01*
X38182Y-25568D01*
X38152Y-25559D01*
X38124Y-25544D01*
X38100Y-25525D01*
X38079Y-25501D01*
X38064Y-25474D01*
X38055Y-25444D01*
X38052Y-25413D01*
X38054Y-25383D01*
X38063Y-25353D01*
X38077Y-25325D01*
X38096Y-25300D01*
X38120Y-25280D01*
X38147Y-25265D01*
X38177Y-25255D01*
X38208Y-25252D01*
X38238Y-25254D01*
X38268Y-25262D01*
X38296Y-25276D01*
X38321Y-25296D01*
X38341Y-25319D01*
X38357Y-25346D01*
X38367Y-25376D01*
X38370Y-25407D01*
X38371Y-25411D01*
X38051Y-25251D02*
X38371Y-25571D01*
X38371Y-25251D02*
X38051Y-25571D01*
X32450Y-26850D02*
X32446Y-26888D01*
X32434Y-26926D01*
X32416Y-26960D01*
X32391Y-26990D01*
X32361Y-27015D01*
X32327Y-27034D01*
X32290Y-27045D01*
X32251Y-27049D01*
X32213Y-27046D01*
X32176Y-27035D01*
X32141Y-27017D01*
X32111Y-26992D01*
X32085Y-26962D01*
X32067Y-26928D01*
X32055Y-26891D01*
X32051Y-26852D01*
X32054Y-26814D01*
X32065Y-26777D01*
X32082Y-26742D01*
X32107Y-26712D01*
X32136Y-26686D01*
X32170Y-26667D01*
X32208Y-26655D01*
X32246Y-26651D01*
X32284Y-26654D01*
X32322Y-26664D01*
X32357Y-26682D01*
X32387Y-26706D01*
X32413Y-26735D01*
X32432Y-26769D01*
X32445Y-26806D01*
X32449Y-26845D01*
X32450Y-26850D01*
X32050Y-26850D02*
X32450Y-26850D01*
X32450Y-27850D02*
X32446Y-27888D01*
X32434Y-27926D01*
X32416Y-27960D01*
X32391Y-27990D01*
X32361Y-28015D01*
X32327Y-28034D01*
X32290Y-28045D01*
X32251Y-28049D01*
X32213Y-28046D01*
X32176Y-28035D01*
X32141Y-28017D01*
X32111Y-27992D01*
X32085Y-27962D01*
X32067Y-27928D01*
X32055Y-27891D01*
X32051Y-27852D01*
X32054Y-27814D01*
X32065Y-27777D01*
X32082Y-27742D01*
X32107Y-27712D01*
X32136Y-27686D01*
X32170Y-27667D01*
X32208Y-27655D01*
X32246Y-27651D01*
X32284Y-27654D01*
X32322Y-27664D01*
X32357Y-27682D01*
X32387Y-27706D01*
X32413Y-27735D01*
X32432Y-27769D01*
X32445Y-27806D01*
X32449Y-27845D01*
X32450Y-27850D01*
X32050Y-27850D02*
X32450Y-27850D01*
X32450Y-28850D02*
X32446Y-28888D01*
X32434Y-28926D01*
X32416Y-28960D01*
X32391Y-28990D01*
X32361Y-29015D01*
X32327Y-29034D01*
X32290Y-29045D01*
X32251Y-29049D01*
X32213Y-29046D01*
X32176Y-29035D01*
X32141Y-29017D01*
X32111Y-28992D01*
X32085Y-28962D01*
X32067Y-28928D01*
X32055Y-28891D01*
X32051Y-28852D01*
X32054Y-28814D01*
X32065Y-28777D01*
X32082Y-28742D01*
X32107Y-28712D01*
X32136Y-28686D01*
X32170Y-28667D01*
X32208Y-28655D01*
X32246Y-28651D01*
X32284Y-28654D01*
X32322Y-28664D01*
X32357Y-28682D01*
X32387Y-28706D01*
X32413Y-28735D01*
X32432Y-28769D01*
X32445Y-28806D01*
X32449Y-28845D01*
X32450Y-28850D01*
X32050Y-28850D02*
X32450Y-28850D01*
X33450Y-26850D02*
X33446Y-26888D01*
X33434Y-26926D01*
X33416Y-26960D01*
X33391Y-26990D01*
X33361Y-27015D01*
X33327Y-27034D01*
X33290Y-27045D01*
X33251Y-27049D01*
X33213Y-27046D01*
X33176Y-27035D01*
X33141Y-27017D01*
X33111Y-26992D01*
X33085Y-26962D01*
X33067Y-26928D01*
X33055Y-26891D01*
X33051Y-26852D01*
X33054Y-26814D01*
X33065Y-26777D01*
X33082Y-26742D01*
X33107Y-26712D01*
X33136Y-26686D01*
X33170Y-26667D01*
X33208Y-26655D01*
X33246Y-26651D01*
X33284Y-26654D01*
X33322Y-26664D01*
X33357Y-26682D01*
X33387Y-26706D01*
X33413Y-26735D01*
X33432Y-26769D01*
X33445Y-26806D01*
X33449Y-26845D01*
X33450Y-26850D01*
X33050Y-26850D02*
X33450Y-26850D01*
X33450Y-27850D02*
X33446Y-27888D01*
X33434Y-27926D01*
X33416Y-27960D01*
X33391Y-27990D01*
X33361Y-28015D01*
X33327Y-28034D01*
X33290Y-28045D01*
X33251Y-28049D01*
X33213Y-28046D01*
X33176Y-28035D01*
X33141Y-28017D01*
X33111Y-27992D01*
X33085Y-27962D01*
X33067Y-27928D01*
X33055Y-27891D01*
X33051Y-27852D01*
X33054Y-27814D01*
X33065Y-27777D01*
X33082Y-27742D01*
X33107Y-27712D01*
X33136Y-27686D01*
X33170Y-27667D01*
X33208Y-27655D01*
X33246Y-27651D01*
X33284Y-27654D01*
X33322Y-27664D01*
X33357Y-27682D01*
X33387Y-27706D01*
X33413Y-27735D01*
X33432Y-27769D01*
X33445Y-27806D01*
X33449Y-27845D01*
X33450Y-27850D01*
X33050Y-27850D02*
X33450Y-27850D01*
X33450Y-28850D02*
X33446Y-28888D01*
X33434Y-28926D01*
X33416Y-28960D01*
X33391Y-28990D01*
X33361Y-29015D01*
X33327Y-29034D01*
X33290Y-29045D01*
X33251Y-29049D01*
X33213Y-29046D01*
X33176Y-29035D01*
X33141Y-29017D01*
X33111Y-28992D01*
X33085Y-28962D01*
X33067Y-28928D01*
X33055Y-28891D01*
X33051Y-28852D01*
X33054Y-28814D01*
X33065Y-28777D01*
X33082Y-28742D01*
X33107Y-28712D01*
X33136Y-28686D01*
X33170Y-28667D01*
X33208Y-28655D01*
X33246Y-28651D01*
X33284Y-28654D01*
X33322Y-28664D01*
X33357Y-28682D01*
X33387Y-28706D01*
X33413Y-28735D01*
X33432Y-28769D01*
X33445Y-28806D01*
X33449Y-28845D01*
X33450Y-28850D01*
X33050Y-28850D02*
X33450Y-28850D01*
X30483Y-25150D02*
X30474Y-25234D01*
X30450Y-25315D01*
X30410Y-25389D01*
X30357Y-25455D01*
X30292Y-25508D01*
X30217Y-25549D01*
X30137Y-25574D01*
X30053Y-25582D01*
X29969Y-25575D01*
X29888Y-25551D01*
X29813Y-25512D01*
X29748Y-25459D01*
X29693Y-25394D01*
X29653Y-25320D01*
X29627Y-25240D01*
X29618Y-25156D01*
X29625Y-25072D01*
X29648Y-24991D01*
X29687Y-24916D01*
X29739Y-24850D01*
X29803Y-24795D01*
X29877Y-24754D01*
X29958Y-24728D01*
X30041Y-24718D01*
X30125Y-24724D01*
X30206Y-24747D01*
X30282Y-24785D01*
X30348Y-24837D01*
X30403Y-24901D01*
X30445Y-24974D01*
X30472Y-25055D01*
X30482Y-25138D01*
X30483Y-25150D01*
X30050Y-24717D02*
X30050Y-25583D01*
X30483Y-30550D02*
X30474Y-30634D01*
X30450Y-30715D01*
X30410Y-30789D01*
X30357Y-30855D01*
X30292Y-30908D01*
X30217Y-30949D01*
X30137Y-30974D01*
X30053Y-30982D01*
X29969Y-30975D01*
X29888Y-30951D01*
X29813Y-30912D01*
X29748Y-30859D01*
X29693Y-30794D01*
X29653Y-30720D01*
X29627Y-30640D01*
X29618Y-30556D01*
X29625Y-30472D01*
X29648Y-30391D01*
X29687Y-30316D01*
X29739Y-30250D01*
X29803Y-30195D01*
X29877Y-30154D01*
X29958Y-30128D01*
X30041Y-30118D01*
X30125Y-30124D01*
X30206Y-30147D01*
X30282Y-30185D01*
X30348Y-30237D01*
X30403Y-30301D01*
X30445Y-30374D01*
X30472Y-30455D01*
X30482Y-30538D01*
X30483Y-30550D01*
X30050Y-30117D02*
X30050Y-30983D01*
X35883Y-25150D02*
X35874Y-25234D01*
X35850Y-25315D01*
X35810Y-25389D01*
X35757Y-25455D01*
X35692Y-25508D01*
X35617Y-25549D01*
X35537Y-25574D01*
X35453Y-25582D01*
X35369Y-25575D01*
X35288Y-25551D01*
X35213Y-25512D01*
X35148Y-25459D01*
X35093Y-25394D01*
X35053Y-25320D01*
X35027Y-25240D01*
X35018Y-25156D01*
X35025Y-25072D01*
X35048Y-24991D01*
X35087Y-24916D01*
X35139Y-24850D01*
X35203Y-24795D01*
X35277Y-24754D01*
X35358Y-24728D01*
X35441Y-24718D01*
X35525Y-24724D01*
X35606Y-24747D01*
X35682Y-24785D01*
X35748Y-24837D01*
X35803Y-24901D01*
X35845Y-24974D01*
X35872Y-25055D01*
X35882Y-25138D01*
X35883Y-25150D01*
X35450Y-24717D02*
X35450Y-25583D01*
X35883Y-30550D02*
X35874Y-30634D01*
X35850Y-30715D01*
X35810Y-30789D01*
X35757Y-30855D01*
X35692Y-30908D01*
X35617Y-30949D01*
X35537Y-30974D01*
X35453Y-30982D01*
X35369Y-30975D01*
X35288Y-30951D01*
X35213Y-30912D01*
X35148Y-30859D01*
X35093Y-30794D01*
X35053Y-30720D01*
X35027Y-30640D01*
X35018Y-30556D01*
X35025Y-30472D01*
X35048Y-30391D01*
X35087Y-30316D01*
X35139Y-30250D01*
X35203Y-30195D01*
X35277Y-30154D01*
X35358Y-30128D01*
X35441Y-30118D01*
X35525Y-30124D01*
X35606Y-30147D01*
X35682Y-30185D01*
X35748Y-30237D01*
X35803Y-30301D01*
X35845Y-30374D01*
X35872Y-30455D01*
X35882Y-30538D01*
X35883Y-30550D01*
X35450Y-30117D02*
X35450Y-30983D01*
G54D11*
X21375Y-40769D02*
X21375Y-39969D01*
X21566Y-39969D01*
X21680Y-40007D01*
X21756Y-40083D01*
X21795Y-40159D01*
X21833Y-40312D01*
X21833Y-40426D01*
X21795Y-40578D01*
X21756Y-40655D01*
X21680Y-40731D01*
X21566Y-40769D01*
X21375Y-40769D01*
X22175Y-40769D02*
X22175Y-40235D01*
X22175Y-40388D02*
X22214Y-40312D01*
X22252Y-40274D01*
X22328Y-40235D01*
X22404Y-40235D01*
X22670Y-40769D02*
X22670Y-40235D01*
X22670Y-39969D02*
X22632Y-40007D01*
X22670Y-40045D01*
X22709Y-40007D01*
X22670Y-39969D01*
X22670Y-40045D01*
X23166Y-40769D02*
X23090Y-40731D01*
X23051Y-40655D01*
X23051Y-39969D01*
X23585Y-40769D02*
X23509Y-40731D01*
X23470Y-40655D01*
X23470Y-39969D01*
X24499Y-40769D02*
X24499Y-39969D01*
X24766Y-40540D01*
X25033Y-39969D01*
X25033Y-40769D01*
X25756Y-40769D02*
X25756Y-40350D01*
X25718Y-40274D01*
X25642Y-40235D01*
X25490Y-40235D01*
X25413Y-40274D01*
X25756Y-40731D02*
X25680Y-40769D01*
X25490Y-40769D01*
X25413Y-40731D01*
X25375Y-40655D01*
X25375Y-40578D01*
X25413Y-40502D01*
X25490Y-40464D01*
X25680Y-40464D01*
X25756Y-40426D01*
X26137Y-40235D02*
X26137Y-41035D01*
X26137Y-40274D02*
X26214Y-40235D01*
X26366Y-40235D01*
X26442Y-40274D01*
X26480Y-40312D01*
X26518Y-40388D01*
X26518Y-40616D01*
X26480Y-40693D01*
X26442Y-40731D01*
X26366Y-40769D01*
X26214Y-40769D01*
X26137Y-40731D01*
X26861Y-40693D02*
X26900Y-40731D01*
X26861Y-40769D01*
X26823Y-40731D01*
X26861Y-40693D01*
X26861Y-40769D01*
X26861Y-40274D02*
X26900Y-40312D01*
X26861Y-40350D01*
X26823Y-40312D01*
X26861Y-40274D01*
X26861Y-40350D01*
X20855Y-42060D02*
X20985Y-42190D01*
X20985Y-42060D02*
X20855Y-42190D01*
X21528Y-41649D02*
X21604Y-41649D01*
X21680Y-41687D01*
X21718Y-41725D01*
X21756Y-41801D01*
X21795Y-41954D01*
X21795Y-42144D01*
X21756Y-42296D01*
X21718Y-42373D01*
X21680Y-42411D01*
X21604Y-42449D01*
X21528Y-42449D01*
X21452Y-42411D01*
X21414Y-42373D01*
X21375Y-42296D01*
X21337Y-42144D01*
X21337Y-41954D01*
X21375Y-41801D01*
X21414Y-41725D01*
X21452Y-41687D01*
X21528Y-41649D01*
X22137Y-42373D02*
X22176Y-42411D01*
X22137Y-42449D01*
X22099Y-42411D01*
X22137Y-42373D01*
X22137Y-42449D01*
X22671Y-41649D02*
X22747Y-41649D01*
X22823Y-41687D01*
X22861Y-41725D01*
X22899Y-41801D01*
X22938Y-41954D01*
X22938Y-42144D01*
X22899Y-42296D01*
X22861Y-42373D01*
X22823Y-42411D01*
X22747Y-42449D01*
X22671Y-42449D01*
X22595Y-42411D01*
X22557Y-42373D01*
X22518Y-42296D01*
X22480Y-42144D01*
X22480Y-41954D01*
X22518Y-41801D01*
X22557Y-41725D01*
X22595Y-41687D01*
X22671Y-41649D01*
X23700Y-42449D02*
X23242Y-42449D01*
X23471Y-42449D02*
X23471Y-41649D01*
X23395Y-41763D01*
X23319Y-41839D01*
X23242Y-41877D01*
X23966Y-41649D02*
X24462Y-41649D01*
X24195Y-41954D01*
X24309Y-41954D01*
X24385Y-41992D01*
X24423Y-42030D01*
X24462Y-42106D01*
X24462Y-42296D01*
X24423Y-42373D01*
X24385Y-42411D01*
X24309Y-42449D01*
X24081Y-42449D01*
X24004Y-42411D01*
X23966Y-42373D01*
X24766Y-41649D02*
X24766Y-41801D01*
X25071Y-41649D02*
X25071Y-41801D01*
X26596Y-41611D02*
X25910Y-42639D01*
X27625Y-41649D02*
X27701Y-41649D01*
X27777Y-41687D01*
X27815Y-41725D01*
X27853Y-41801D01*
X27892Y-41954D01*
X27892Y-42144D01*
X27853Y-42296D01*
X27815Y-42373D01*
X27777Y-42411D01*
X27701Y-42449D01*
X27625Y-42449D01*
X27549Y-42411D01*
X27511Y-42373D01*
X27472Y-42296D01*
X27434Y-42144D01*
X27434Y-41954D01*
X27472Y-41801D01*
X27511Y-41725D01*
X27549Y-41687D01*
X27625Y-41649D01*
X28234Y-42373D02*
X28273Y-42411D01*
X28234Y-42449D01*
X28196Y-42411D01*
X28234Y-42373D01*
X28234Y-42449D01*
X28539Y-41649D02*
X29035Y-41649D01*
X28768Y-41954D01*
X28882Y-41954D01*
X28958Y-41992D01*
X28996Y-42030D01*
X29035Y-42106D01*
X29035Y-42296D01*
X28996Y-42373D01*
X28958Y-42411D01*
X28882Y-42449D01*
X28654Y-42449D01*
X28577Y-42411D01*
X28539Y-42373D01*
X29301Y-41649D02*
X29797Y-41649D01*
X29530Y-41954D01*
X29644Y-41954D01*
X29720Y-41992D01*
X29758Y-42030D01*
X29797Y-42106D01*
X29797Y-42296D01*
X29758Y-42373D01*
X29720Y-42411D01*
X29644Y-42449D01*
X29416Y-42449D01*
X29339Y-42411D01*
X29301Y-42373D01*
X30139Y-42449D02*
X30139Y-41915D01*
X30139Y-41992D02*
X30178Y-41954D01*
X30254Y-41915D01*
X30368Y-41915D01*
X30444Y-41954D01*
X30482Y-42030D01*
X30482Y-42449D01*
X30482Y-42030D02*
X30520Y-41954D01*
X30597Y-41915D01*
X30711Y-41915D01*
X30787Y-41954D01*
X30825Y-42030D01*
X30825Y-42449D01*
X31206Y-42449D02*
X31206Y-41915D01*
X31206Y-41992D02*
X31245Y-41954D01*
X31321Y-41915D01*
X31435Y-41915D01*
X31511Y-41954D01*
X31549Y-42030D01*
X31549Y-42449D01*
X31549Y-42030D02*
X31587Y-41954D01*
X31664Y-41915D01*
X31778Y-41915D01*
X31854Y-41954D01*
X31892Y-42030D01*
X31892Y-42449D01*
X33112Y-42754D02*
X33074Y-42715D01*
X32998Y-42601D01*
X32960Y-42525D01*
X32922Y-42411D01*
X32883Y-42220D01*
X32883Y-42068D01*
X32922Y-41877D01*
X32960Y-41763D01*
X32998Y-41687D01*
X33074Y-41573D01*
X33112Y-41535D01*
X33759Y-41649D02*
X33607Y-41649D01*
X33531Y-41687D01*
X33493Y-41725D01*
X33416Y-41839D01*
X33378Y-41992D01*
X33378Y-42296D01*
X33416Y-42373D01*
X33455Y-42411D01*
X33531Y-42449D01*
X33683Y-42449D01*
X33759Y-42411D01*
X33797Y-42373D01*
X33836Y-42296D01*
X33836Y-42106D01*
X33797Y-42030D01*
X33759Y-41992D01*
X33683Y-41954D01*
X33531Y-41954D01*
X33455Y-41992D01*
X33416Y-42030D01*
X33378Y-42106D01*
X34521Y-41915D02*
X34521Y-42449D01*
X34331Y-41611D02*
X34140Y-42182D01*
X34636Y-42182D01*
X35550Y-42449D02*
X35550Y-41649D01*
X35893Y-42449D02*
X35893Y-42030D01*
X35855Y-41954D01*
X35779Y-41915D01*
X35665Y-41915D01*
X35589Y-41954D01*
X35550Y-41992D01*
X36389Y-42449D02*
X36313Y-42411D01*
X36274Y-42373D01*
X36236Y-42296D01*
X36236Y-42068D01*
X36274Y-41992D01*
X36313Y-41954D01*
X36389Y-41915D01*
X36503Y-41915D01*
X36579Y-41954D01*
X36617Y-41992D01*
X36655Y-42068D01*
X36655Y-42296D01*
X36617Y-42373D01*
X36579Y-42411D01*
X36503Y-42449D01*
X36389Y-42449D01*
X37113Y-42449D02*
X37037Y-42411D01*
X36998Y-42335D01*
X36998Y-41649D01*
X37722Y-42411D02*
X37646Y-42449D01*
X37494Y-42449D01*
X37417Y-42411D01*
X37379Y-42335D01*
X37379Y-42030D01*
X37417Y-41954D01*
X37494Y-41915D01*
X37646Y-41915D01*
X37722Y-41954D01*
X37760Y-42030D01*
X37760Y-42106D01*
X37379Y-42182D01*
X38065Y-42411D02*
X38142Y-42449D01*
X38294Y-42449D01*
X38370Y-42411D01*
X38408Y-42335D01*
X38408Y-42296D01*
X38370Y-42220D01*
X38294Y-42182D01*
X38180Y-42182D01*
X38103Y-42144D01*
X38065Y-42068D01*
X38065Y-42030D01*
X38103Y-41954D01*
X38180Y-41915D01*
X38294Y-41915D01*
X38370Y-41954D01*
X38675Y-42754D02*
X38713Y-42715D01*
X38790Y-42601D01*
X38828Y-42525D01*
X38866Y-42411D01*
X38904Y-42220D01*
X38904Y-42068D01*
X38866Y-41877D01*
X38828Y-41763D01*
X38790Y-41687D01*
X38713Y-41573D01*
X38675Y-41535D01*
G54D10*
X20985Y-43180D02*
X20983Y-43195D01*
X20978Y-43210D01*
X20971Y-43224D01*
X20961Y-43236D01*
X20949Y-43246D01*
X20936Y-43253D01*
X20921Y-43258D01*
X20905Y-43259D01*
X20891Y-43258D01*
X20876Y-43254D01*
X20862Y-43246D01*
X20850Y-43237D01*
X20839Y-43225D01*
X20832Y-43211D01*
X20827Y-43196D01*
X20826Y-43181D01*
X20827Y-43166D01*
X20831Y-43151D01*
X20838Y-43137D01*
X20848Y-43125D01*
X20860Y-43115D01*
X20873Y-43107D01*
X20888Y-43102D01*
X20904Y-43101D01*
X20918Y-43102D01*
X20933Y-43106D01*
X20947Y-43113D01*
X20960Y-43123D01*
X20970Y-43134D01*
X20978Y-43148D01*
X20983Y-43163D01*
X20984Y-43178D01*
X20985Y-43180D01*
G54D11*
X21528Y-42704D02*
X21604Y-42704D01*
X21680Y-42742D01*
X21718Y-42780D01*
X21756Y-42856D01*
X21795Y-43009D01*
X21795Y-43199D01*
X21756Y-43351D01*
X21718Y-43428D01*
X21680Y-43466D01*
X21604Y-43504D01*
X21528Y-43504D01*
X21452Y-43466D01*
X21414Y-43428D01*
X21375Y-43351D01*
X21337Y-43199D01*
X21337Y-43009D01*
X21375Y-42856D01*
X21414Y-42780D01*
X21452Y-42742D01*
X21528Y-42704D01*
X22137Y-43428D02*
X22176Y-43466D01*
X22137Y-43504D01*
X22099Y-43466D01*
X22137Y-43428D01*
X22137Y-43504D01*
X22671Y-42704D02*
X22747Y-42704D01*
X22823Y-42742D01*
X22861Y-42780D01*
X22899Y-42856D01*
X22938Y-43009D01*
X22938Y-43199D01*
X22899Y-43351D01*
X22861Y-43428D01*
X22823Y-43466D01*
X22747Y-43504D01*
X22671Y-43504D01*
X22595Y-43466D01*
X22557Y-43428D01*
X22518Y-43351D01*
X22480Y-43199D01*
X22480Y-43009D01*
X22518Y-42856D01*
X22557Y-42780D01*
X22595Y-42742D01*
X22671Y-42704D01*
X23700Y-43504D02*
X23242Y-43504D01*
X23471Y-43504D02*
X23471Y-42704D01*
X23395Y-42818D01*
X23319Y-42894D01*
X23242Y-42932D01*
X24385Y-42704D02*
X24233Y-42704D01*
X24157Y-42742D01*
X24119Y-42780D01*
X24042Y-42894D01*
X24004Y-43047D01*
X24004Y-43351D01*
X24042Y-43428D01*
X24081Y-43466D01*
X24157Y-43504D01*
X24309Y-43504D01*
X24385Y-43466D01*
X24423Y-43428D01*
X24462Y-43351D01*
X24462Y-43161D01*
X24423Y-43085D01*
X24385Y-43047D01*
X24309Y-43009D01*
X24157Y-43009D01*
X24081Y-43047D01*
X24042Y-43085D01*
X24004Y-43161D01*
X24766Y-42704D02*
X24766Y-42856D01*
X25071Y-42704D02*
X25071Y-42856D01*
X26596Y-42666D02*
X25910Y-43694D01*
X27625Y-42704D02*
X27701Y-42704D01*
X27777Y-42742D01*
X27815Y-42780D01*
X27853Y-42856D01*
X27892Y-43009D01*
X27892Y-43199D01*
X27853Y-43351D01*
X27815Y-43428D01*
X27777Y-43466D01*
X27701Y-43504D01*
X27625Y-43504D01*
X27549Y-43466D01*
X27511Y-43428D01*
X27472Y-43351D01*
X27434Y-43199D01*
X27434Y-43009D01*
X27472Y-42856D01*
X27511Y-42780D01*
X27549Y-42742D01*
X27625Y-42704D01*
X28234Y-43428D02*
X28273Y-43466D01*
X28234Y-43504D01*
X28196Y-43466D01*
X28234Y-43428D01*
X28234Y-43504D01*
X28958Y-42970D02*
X28958Y-43504D01*
X28768Y-42666D02*
X28577Y-43237D01*
X29073Y-43237D01*
X29797Y-43504D02*
X29339Y-43504D01*
X29568Y-43504D02*
X29568Y-42704D01*
X29492Y-42818D01*
X29416Y-42894D01*
X29339Y-42932D01*
X30139Y-43504D02*
X30139Y-42970D01*
X30139Y-43047D02*
X30178Y-43009D01*
X30254Y-42970D01*
X30368Y-42970D01*
X30444Y-43009D01*
X30482Y-43085D01*
X30482Y-43504D01*
X30482Y-43085D02*
X30520Y-43009D01*
X30597Y-42970D01*
X30711Y-42970D01*
X30787Y-43009D01*
X30825Y-43085D01*
X30825Y-43504D01*
X31206Y-43504D02*
X31206Y-42970D01*
X31206Y-43047D02*
X31245Y-43009D01*
X31321Y-42970D01*
X31435Y-42970D01*
X31511Y-43009D01*
X31549Y-43085D01*
X31549Y-43504D01*
X31549Y-43085D02*
X31587Y-43009D01*
X31664Y-42970D01*
X31778Y-42970D01*
X31854Y-43009D01*
X31892Y-43085D01*
X31892Y-43504D01*
X33112Y-43809D02*
X33074Y-43770D01*
X32998Y-43656D01*
X32960Y-43580D01*
X32922Y-43466D01*
X32883Y-43275D01*
X32883Y-43123D01*
X32922Y-42932D01*
X32960Y-42818D01*
X32998Y-42742D01*
X33074Y-42628D01*
X33112Y-42590D01*
X33836Y-43504D02*
X33378Y-43504D01*
X33607Y-43504D02*
X33607Y-42704D01*
X33531Y-42818D01*
X33455Y-42894D01*
X33378Y-42932D01*
X34140Y-42780D02*
X34178Y-42742D01*
X34255Y-42704D01*
X34445Y-42704D01*
X34521Y-42742D01*
X34559Y-42780D01*
X34598Y-42856D01*
X34598Y-42932D01*
X34559Y-43047D01*
X34102Y-43504D01*
X34598Y-43504D01*
X35550Y-43504D02*
X35550Y-42704D01*
X35893Y-43504D02*
X35893Y-43085D01*
X35855Y-43009D01*
X35779Y-42970D01*
X35665Y-42970D01*
X35589Y-43009D01*
X35550Y-43047D01*
X36389Y-43504D02*
X36313Y-43466D01*
X36274Y-43428D01*
X36236Y-43351D01*
X36236Y-43123D01*
X36274Y-43047D01*
X36313Y-43009D01*
X36389Y-42970D01*
X36503Y-42970D01*
X36579Y-43009D01*
X36617Y-43047D01*
X36655Y-43123D01*
X36655Y-43351D01*
X36617Y-43428D01*
X36579Y-43466D01*
X36503Y-43504D01*
X36389Y-43504D01*
X37113Y-43504D02*
X37037Y-43466D01*
X36998Y-43390D01*
X36998Y-42704D01*
X37722Y-43466D02*
X37646Y-43504D01*
X37494Y-43504D01*
X37417Y-43466D01*
X37379Y-43390D01*
X37379Y-43085D01*
X37417Y-43009D01*
X37494Y-42970D01*
X37646Y-42970D01*
X37722Y-43009D01*
X37760Y-43085D01*
X37760Y-43161D01*
X37379Y-43237D01*
X38065Y-43466D02*
X38142Y-43504D01*
X38294Y-43504D01*
X38370Y-43466D01*
X38408Y-43390D01*
X38408Y-43351D01*
X38370Y-43275D01*
X38294Y-43237D01*
X38180Y-43237D01*
X38103Y-43199D01*
X38065Y-43123D01*
X38065Y-43085D01*
X38103Y-43009D01*
X38180Y-42970D01*
X38294Y-42970D01*
X38370Y-43009D01*
X38675Y-43809D02*
X38713Y-43770D01*
X38790Y-43656D01*
X38828Y-43580D01*
X38866Y-43466D01*
X38904Y-43275D01*
X38904Y-43123D01*
X38866Y-42932D01*
X38828Y-42818D01*
X38790Y-42742D01*
X38713Y-42628D01*
X38675Y-42590D01*
X20885Y-44135D02*
X20885Y-44335D01*
X20985Y-44235D02*
X20785Y-44235D01*
X21528Y-43759D02*
X21604Y-43759D01*
X21680Y-43797D01*
X21718Y-43835D01*
X21756Y-43911D01*
X21795Y-44064D01*
X21795Y-44254D01*
X21756Y-44406D01*
X21718Y-44483D01*
X21680Y-44521D01*
X21604Y-44559D01*
X21528Y-44559D01*
X21452Y-44521D01*
X21414Y-44483D01*
X21375Y-44406D01*
X21337Y-44254D01*
X21337Y-44064D01*
X21375Y-43911D01*
X21414Y-43835D01*
X21452Y-43797D01*
X21528Y-43759D01*
X22137Y-44483D02*
X22176Y-44521D01*
X22137Y-44559D01*
X22099Y-44521D01*
X22137Y-44483D01*
X22137Y-44559D01*
X22671Y-43759D02*
X22747Y-43759D01*
X22823Y-43797D01*
X22861Y-43835D01*
X22899Y-43911D01*
X22938Y-44064D01*
X22938Y-44254D01*
X22899Y-44406D01*
X22861Y-44483D01*
X22823Y-44521D01*
X22747Y-44559D01*
X22671Y-44559D01*
X22595Y-44521D01*
X22557Y-44483D01*
X22518Y-44406D01*
X22480Y-44254D01*
X22480Y-44064D01*
X22518Y-43911D01*
X22557Y-43835D01*
X22595Y-43797D01*
X22671Y-43759D01*
X23242Y-43835D02*
X23280Y-43797D01*
X23357Y-43759D01*
X23547Y-43759D01*
X23623Y-43797D01*
X23661Y-43835D01*
X23700Y-43911D01*
X23700Y-43987D01*
X23661Y-44102D01*
X23204Y-44559D01*
X23700Y-44559D01*
X24195Y-43759D02*
X24271Y-43759D01*
X24347Y-43797D01*
X24385Y-43835D01*
X24423Y-43911D01*
X24462Y-44064D01*
X24462Y-44254D01*
X24423Y-44406D01*
X24385Y-44483D01*
X24347Y-44521D01*
X24271Y-44559D01*
X24195Y-44559D01*
X24119Y-44521D01*
X24081Y-44483D01*
X24042Y-44406D01*
X24004Y-44254D01*
X24004Y-44064D01*
X24042Y-43911D01*
X24081Y-43835D01*
X24119Y-43797D01*
X24195Y-43759D01*
X24766Y-43759D02*
X24766Y-43911D01*
X25071Y-43759D02*
X25071Y-43911D01*
X26596Y-43721D02*
X25910Y-44749D01*
X27625Y-43759D02*
X27701Y-43759D01*
X27777Y-43797D01*
X27815Y-43835D01*
X27853Y-43911D01*
X27892Y-44064D01*
X27892Y-44254D01*
X27853Y-44406D01*
X27815Y-44483D01*
X27777Y-44521D01*
X27701Y-44559D01*
X27625Y-44559D01*
X27549Y-44521D01*
X27511Y-44483D01*
X27472Y-44406D01*
X27434Y-44254D01*
X27434Y-44064D01*
X27472Y-43911D01*
X27511Y-43835D01*
X27549Y-43797D01*
X27625Y-43759D01*
X28234Y-44483D02*
X28273Y-44521D01*
X28234Y-44559D01*
X28196Y-44521D01*
X28234Y-44483D01*
X28234Y-44559D01*
X28996Y-43759D02*
X28615Y-43759D01*
X28577Y-44140D01*
X28615Y-44102D01*
X28692Y-44064D01*
X28882Y-44064D01*
X28958Y-44102D01*
X28996Y-44140D01*
X29035Y-44216D01*
X29035Y-44406D01*
X28996Y-44483D01*
X28958Y-44521D01*
X28882Y-44559D01*
X28692Y-44559D01*
X28615Y-44521D01*
X28577Y-44483D01*
X29797Y-44559D02*
X29339Y-44559D01*
X29568Y-44559D02*
X29568Y-43759D01*
X29492Y-43873D01*
X29416Y-43949D01*
X29339Y-43987D01*
X30139Y-44559D02*
X30139Y-44025D01*
X30139Y-44102D02*
X30178Y-44064D01*
X30254Y-44025D01*
X30368Y-44025D01*
X30444Y-44064D01*
X30482Y-44140D01*
X30482Y-44559D01*
X30482Y-44140D02*
X30520Y-44064D01*
X30597Y-44025D01*
X30711Y-44025D01*
X30787Y-44064D01*
X30825Y-44140D01*
X30825Y-44559D01*
X31206Y-44559D02*
X31206Y-44025D01*
X31206Y-44102D02*
X31245Y-44064D01*
X31321Y-44025D01*
X31435Y-44025D01*
X31511Y-44064D01*
X31549Y-44140D01*
X31549Y-44559D01*
X31549Y-44140D02*
X31587Y-44064D01*
X31664Y-44025D01*
X31778Y-44025D01*
X31854Y-44064D01*
X31892Y-44140D01*
X31892Y-44559D01*
X33112Y-44864D02*
X33074Y-44825D01*
X32998Y-44711D01*
X32960Y-44635D01*
X32922Y-44521D01*
X32883Y-44330D01*
X32883Y-44178D01*
X32922Y-43987D01*
X32960Y-43873D01*
X32998Y-43797D01*
X33074Y-43683D01*
X33112Y-43645D01*
X33759Y-44025D02*
X33759Y-44559D01*
X33569Y-43721D02*
X33378Y-44292D01*
X33874Y-44292D01*
X34788Y-44559D02*
X34788Y-43759D01*
X35131Y-44559D02*
X35131Y-44140D01*
X35093Y-44064D01*
X35017Y-44025D01*
X34903Y-44025D01*
X34827Y-44064D01*
X34788Y-44102D01*
X35627Y-44559D02*
X35551Y-44521D01*
X35512Y-44483D01*
X35474Y-44406D01*
X35474Y-44178D01*
X35512Y-44102D01*
X35551Y-44064D01*
X35627Y-44025D01*
X35741Y-44025D01*
X35817Y-44064D01*
X35855Y-44102D01*
X35893Y-44178D01*
X35893Y-44406D01*
X35855Y-44483D01*
X35817Y-44521D01*
X35741Y-44559D01*
X35627Y-44559D01*
X36351Y-44559D02*
X36275Y-44521D01*
X36236Y-44445D01*
X36236Y-43759D01*
X36960Y-44521D02*
X36884Y-44559D01*
X36732Y-44559D01*
X36655Y-44521D01*
X36617Y-44445D01*
X36617Y-44140D01*
X36655Y-44064D01*
X36732Y-44025D01*
X36884Y-44025D01*
X36960Y-44064D01*
X36998Y-44140D01*
X36998Y-44216D01*
X36617Y-44292D01*
X37303Y-44521D02*
X37380Y-44559D01*
X37532Y-44559D01*
X37608Y-44521D01*
X37646Y-44445D01*
X37646Y-44406D01*
X37608Y-44330D01*
X37532Y-44292D01*
X37418Y-44292D01*
X37341Y-44254D01*
X37303Y-44178D01*
X37303Y-44140D01*
X37341Y-44064D01*
X37418Y-44025D01*
X37532Y-44025D01*
X37608Y-44064D01*
X37913Y-44864D02*
X37951Y-44825D01*
X38028Y-44711D01*
X38066Y-44635D01*
X38104Y-44521D01*
X38142Y-44330D01*
X38142Y-44178D01*
X38104Y-43987D01*
X38066Y-43873D01*
X38028Y-43797D01*
X37951Y-43683D01*
X37913Y-43645D01*
G54D10*
X20985Y-45290D02*
X20981Y-45321D01*
X20972Y-45350D01*
X20958Y-45378D01*
X20938Y-45402D01*
X20914Y-45422D01*
X20887Y-45437D01*
X20857Y-45446D01*
X20826Y-45449D01*
X20796Y-45447D01*
X20766Y-45438D01*
X20738Y-45423D01*
X20714Y-45404D01*
X20693Y-45380D01*
X20678Y-45353D01*
X20669Y-45323D01*
X20666Y-45292D01*
X20668Y-45262D01*
X20677Y-45232D01*
X20691Y-45204D01*
X20710Y-45179D01*
X20734Y-45159D01*
X20761Y-45144D01*
X20791Y-45134D01*
X20822Y-45131D01*
X20852Y-45133D01*
X20882Y-45141D01*
X20910Y-45155D01*
X20935Y-45175D01*
X20955Y-45198D01*
X20971Y-45225D01*
X20981Y-45255D01*
X20984Y-45286D01*
X20985Y-45290D01*
X20665Y-45130D02*
X20985Y-45450D01*
X20985Y-45130D02*
X20665Y-45450D01*
G54D11*
X21528Y-44814D02*
X21604Y-44814D01*
X21680Y-44852D01*
X21718Y-44890D01*
X21756Y-44966D01*
X21795Y-45119D01*
X21795Y-45309D01*
X21756Y-45461D01*
X21718Y-45538D01*
X21680Y-45576D01*
X21604Y-45614D01*
X21528Y-45614D01*
X21452Y-45576D01*
X21414Y-45538D01*
X21375Y-45461D01*
X21337Y-45309D01*
X21337Y-45119D01*
X21375Y-44966D01*
X21414Y-44890D01*
X21452Y-44852D01*
X21528Y-44814D01*
X22137Y-45538D02*
X22176Y-45576D01*
X22137Y-45614D01*
X22099Y-45576D01*
X22137Y-45538D01*
X22137Y-45614D01*
X22671Y-44814D02*
X22747Y-44814D01*
X22823Y-44852D01*
X22861Y-44890D01*
X22899Y-44966D01*
X22938Y-45119D01*
X22938Y-45309D01*
X22899Y-45461D01*
X22861Y-45538D01*
X22823Y-45576D01*
X22747Y-45614D01*
X22671Y-45614D01*
X22595Y-45576D01*
X22557Y-45538D01*
X22518Y-45461D01*
X22480Y-45309D01*
X22480Y-45119D01*
X22518Y-44966D01*
X22557Y-44890D01*
X22595Y-44852D01*
X22671Y-44814D01*
X23204Y-44814D02*
X23700Y-44814D01*
X23433Y-45119D01*
X23547Y-45119D01*
X23623Y-45157D01*
X23661Y-45195D01*
X23700Y-45271D01*
X23700Y-45461D01*
X23661Y-45538D01*
X23623Y-45576D01*
X23547Y-45614D01*
X23319Y-45614D01*
X23242Y-45576D01*
X23204Y-45538D01*
X24004Y-44890D02*
X24042Y-44852D01*
X24119Y-44814D01*
X24309Y-44814D01*
X24385Y-44852D01*
X24423Y-44890D01*
X24462Y-44966D01*
X24462Y-45042D01*
X24423Y-45157D01*
X23966Y-45614D01*
X24462Y-45614D01*
X24766Y-44814D02*
X24766Y-44966D01*
X25071Y-44814D02*
X25071Y-44966D01*
X26596Y-44776D02*
X25910Y-45804D01*
X27625Y-44814D02*
X27701Y-44814D01*
X27777Y-44852D01*
X27815Y-44890D01*
X27853Y-44966D01*
X27892Y-45119D01*
X27892Y-45309D01*
X27853Y-45461D01*
X27815Y-45538D01*
X27777Y-45576D01*
X27701Y-45614D01*
X27625Y-45614D01*
X27549Y-45576D01*
X27511Y-45538D01*
X27472Y-45461D01*
X27434Y-45309D01*
X27434Y-45119D01*
X27472Y-44966D01*
X27511Y-44890D01*
X27549Y-44852D01*
X27625Y-44814D01*
X28234Y-45538D02*
X28273Y-45576D01*
X28234Y-45614D01*
X28196Y-45576D01*
X28234Y-45538D01*
X28234Y-45614D01*
X28730Y-45157D02*
X28654Y-45119D01*
X28615Y-45080D01*
X28577Y-45004D01*
X28577Y-44966D01*
X28615Y-44890D01*
X28654Y-44852D01*
X28730Y-44814D01*
X28882Y-44814D01*
X28958Y-44852D01*
X28996Y-44890D01*
X29035Y-44966D01*
X29035Y-45004D01*
X28996Y-45080D01*
X28958Y-45119D01*
X28882Y-45157D01*
X28730Y-45157D01*
X28654Y-45195D01*
X28615Y-45233D01*
X28577Y-45309D01*
X28577Y-45461D01*
X28615Y-45538D01*
X28654Y-45576D01*
X28730Y-45614D01*
X28882Y-45614D01*
X28958Y-45576D01*
X28996Y-45538D01*
X29035Y-45461D01*
X29035Y-45309D01*
X28996Y-45233D01*
X28958Y-45195D01*
X28882Y-45157D01*
X29797Y-45614D02*
X29339Y-45614D01*
X29568Y-45614D02*
X29568Y-44814D01*
X29492Y-44928D01*
X29416Y-45004D01*
X29339Y-45042D01*
X30139Y-45614D02*
X30139Y-45080D01*
X30139Y-45157D02*
X30178Y-45119D01*
X30254Y-45080D01*
X30368Y-45080D01*
X30444Y-45119D01*
X30482Y-45195D01*
X30482Y-45614D01*
X30482Y-45195D02*
X30520Y-45119D01*
X30597Y-45080D01*
X30711Y-45080D01*
X30787Y-45119D01*
X30825Y-45195D01*
X30825Y-45614D01*
X31206Y-45614D02*
X31206Y-45080D01*
X31206Y-45157D02*
X31245Y-45119D01*
X31321Y-45080D01*
X31435Y-45080D01*
X31511Y-45119D01*
X31549Y-45195D01*
X31549Y-45614D01*
X31549Y-45195D02*
X31587Y-45119D01*
X31664Y-45080D01*
X31778Y-45080D01*
X31854Y-45119D01*
X31892Y-45195D01*
X31892Y-45614D01*
X33112Y-45919D02*
X33074Y-45880D01*
X32998Y-45766D01*
X32960Y-45690D01*
X32922Y-45576D01*
X32883Y-45385D01*
X32883Y-45233D01*
X32922Y-45042D01*
X32960Y-44928D01*
X32998Y-44852D01*
X33074Y-44738D01*
X33112Y-44700D01*
X33836Y-45614D02*
X33378Y-45614D01*
X33607Y-45614D02*
X33607Y-44814D01*
X33531Y-44928D01*
X33455Y-45004D01*
X33378Y-45042D01*
X34102Y-44814D02*
X34636Y-44814D01*
X34293Y-45614D01*
X35550Y-45614D02*
X35550Y-44814D01*
X35893Y-45614D02*
X35893Y-45195D01*
X35855Y-45119D01*
X35779Y-45080D01*
X35665Y-45080D01*
X35589Y-45119D01*
X35550Y-45157D01*
X36389Y-45614D02*
X36313Y-45576D01*
X36274Y-45538D01*
X36236Y-45461D01*
X36236Y-45233D01*
X36274Y-45157D01*
X36313Y-45119D01*
X36389Y-45080D01*
X36503Y-45080D01*
X36579Y-45119D01*
X36617Y-45157D01*
X36655Y-45233D01*
X36655Y-45461D01*
X36617Y-45538D01*
X36579Y-45576D01*
X36503Y-45614D01*
X36389Y-45614D01*
X37113Y-45614D02*
X37037Y-45576D01*
X36998Y-45500D01*
X36998Y-44814D01*
X37722Y-45576D02*
X37646Y-45614D01*
X37494Y-45614D01*
X37417Y-45576D01*
X37379Y-45500D01*
X37379Y-45195D01*
X37417Y-45119D01*
X37494Y-45080D01*
X37646Y-45080D01*
X37722Y-45119D01*
X37760Y-45195D01*
X37760Y-45271D01*
X37379Y-45347D01*
X38065Y-45576D02*
X38142Y-45614D01*
X38294Y-45614D01*
X38370Y-45576D01*
X38408Y-45500D01*
X38408Y-45461D01*
X38370Y-45385D01*
X38294Y-45347D01*
X38180Y-45347D01*
X38103Y-45309D01*
X38065Y-45233D01*
X38065Y-45195D01*
X38103Y-45119D01*
X38180Y-45080D01*
X38294Y-45080D01*
X38370Y-45119D01*
X38675Y-45919D02*
X38713Y-45880D01*
X38790Y-45766D01*
X38828Y-45690D01*
X38866Y-45576D01*
X38904Y-45385D01*
X38904Y-45233D01*
X38866Y-45042D01*
X38828Y-44928D01*
X38790Y-44852D01*
X38713Y-44738D01*
X38675Y-44700D01*
G54D10*
X20985Y-46345D02*
X20981Y-46383D01*
X20969Y-46421D01*
X20951Y-46455D01*
X20926Y-46485D01*
X20896Y-46510D01*
X20862Y-46529D01*
X20825Y-46540D01*
X20786Y-46544D01*
X20748Y-46541D01*
X20711Y-46530D01*
X20676Y-46512D01*
X20646Y-46487D01*
X20620Y-46457D01*
X20602Y-46423D01*
X20590Y-46386D01*
X20586Y-46347D01*
X20589Y-46309D01*
X20600Y-46272D01*
X20617Y-46237D01*
X20642Y-46207D01*
X20671Y-46181D01*
X20705Y-46162D01*
X20743Y-46150D01*
X20781Y-46146D01*
X20819Y-46149D01*
X20857Y-46159D01*
X20892Y-46177D01*
X20922Y-46201D01*
X20948Y-46230D01*
X20967Y-46264D01*
X20980Y-46301D01*
X20984Y-46340D01*
X20985Y-46345D01*
X20585Y-46345D02*
X20985Y-46345D01*
G54D11*
X21528Y-45869D02*
X21604Y-45869D01*
X21680Y-45907D01*
X21718Y-45945D01*
X21756Y-46021D01*
X21795Y-46174D01*
X21795Y-46364D01*
X21756Y-46516D01*
X21718Y-46593D01*
X21680Y-46631D01*
X21604Y-46669D01*
X21528Y-46669D01*
X21452Y-46631D01*
X21414Y-46593D01*
X21375Y-46516D01*
X21337Y-46364D01*
X21337Y-46174D01*
X21375Y-46021D01*
X21414Y-45945D01*
X21452Y-45907D01*
X21528Y-45869D01*
X22137Y-46593D02*
X22176Y-46631D01*
X22137Y-46669D01*
X22099Y-46631D01*
X22137Y-46593D01*
X22137Y-46669D01*
X22671Y-45869D02*
X22747Y-45869D01*
X22823Y-45907D01*
X22861Y-45945D01*
X22899Y-46021D01*
X22938Y-46174D01*
X22938Y-46364D01*
X22899Y-46516D01*
X22861Y-46593D01*
X22823Y-46631D01*
X22747Y-46669D01*
X22671Y-46669D01*
X22595Y-46631D01*
X22557Y-46593D01*
X22518Y-46516D01*
X22480Y-46364D01*
X22480Y-46174D01*
X22518Y-46021D01*
X22557Y-45945D01*
X22595Y-45907D01*
X22671Y-45869D01*
X23623Y-46135D02*
X23623Y-46669D01*
X23433Y-45831D02*
X23242Y-46402D01*
X23738Y-46402D01*
X24195Y-45869D02*
X24271Y-45869D01*
X24347Y-45907D01*
X24385Y-45945D01*
X24423Y-46021D01*
X24462Y-46174D01*
X24462Y-46364D01*
X24423Y-46516D01*
X24385Y-46593D01*
X24347Y-46631D01*
X24271Y-46669D01*
X24195Y-46669D01*
X24119Y-46631D01*
X24081Y-46593D01*
X24042Y-46516D01*
X24004Y-46364D01*
X24004Y-46174D01*
X24042Y-46021D01*
X24081Y-45945D01*
X24119Y-45907D01*
X24195Y-45869D01*
X24766Y-45869D02*
X24766Y-46021D01*
X25071Y-45869D02*
X25071Y-46021D01*
X26596Y-45831D02*
X25910Y-46859D01*
X27892Y-46669D02*
X27434Y-46669D01*
X27663Y-46669D02*
X27663Y-45869D01*
X27587Y-45983D01*
X27511Y-46059D01*
X27434Y-46097D01*
X28234Y-46593D02*
X28273Y-46631D01*
X28234Y-46669D01*
X28196Y-46631D01*
X28234Y-46593D01*
X28234Y-46669D01*
X28768Y-45869D02*
X28844Y-45869D01*
X28920Y-45907D01*
X28958Y-45945D01*
X28996Y-46021D01*
X29035Y-46174D01*
X29035Y-46364D01*
X28996Y-46516D01*
X28958Y-46593D01*
X28920Y-46631D01*
X28844Y-46669D01*
X28768Y-46669D01*
X28692Y-46631D01*
X28654Y-46593D01*
X28615Y-46516D01*
X28577Y-46364D01*
X28577Y-46174D01*
X28615Y-46021D01*
X28654Y-45945D01*
X28692Y-45907D01*
X28768Y-45869D01*
X29339Y-45945D02*
X29377Y-45907D01*
X29454Y-45869D01*
X29644Y-45869D01*
X29720Y-45907D01*
X29758Y-45945D01*
X29797Y-46021D01*
X29797Y-46097D01*
X29758Y-46212D01*
X29301Y-46669D01*
X29797Y-46669D01*
X30139Y-46669D02*
X30139Y-46135D01*
X30139Y-46212D02*
X30178Y-46174D01*
X30254Y-46135D01*
X30368Y-46135D01*
X30444Y-46174D01*
X30482Y-46250D01*
X30482Y-46669D01*
X30482Y-46250D02*
X30520Y-46174D01*
X30597Y-46135D01*
X30711Y-46135D01*
X30787Y-46174D01*
X30825Y-46250D01*
X30825Y-46669D01*
X31206Y-46669D02*
X31206Y-46135D01*
X31206Y-46212D02*
X31245Y-46174D01*
X31321Y-46135D01*
X31435Y-46135D01*
X31511Y-46174D01*
X31549Y-46250D01*
X31549Y-46669D01*
X31549Y-46250D02*
X31587Y-46174D01*
X31664Y-46135D01*
X31778Y-46135D01*
X31854Y-46174D01*
X31892Y-46250D01*
X31892Y-46669D01*
X33112Y-46974D02*
X33074Y-46935D01*
X32998Y-46821D01*
X32960Y-46745D01*
X32922Y-46631D01*
X32883Y-46440D01*
X32883Y-46288D01*
X32922Y-46097D01*
X32960Y-45983D01*
X32998Y-45907D01*
X33074Y-45793D01*
X33112Y-45755D01*
X33759Y-45869D02*
X33607Y-45869D01*
X33531Y-45907D01*
X33493Y-45945D01*
X33416Y-46059D01*
X33378Y-46212D01*
X33378Y-46516D01*
X33416Y-46593D01*
X33455Y-46631D01*
X33531Y-46669D01*
X33683Y-46669D01*
X33759Y-46631D01*
X33797Y-46593D01*
X33836Y-46516D01*
X33836Y-46326D01*
X33797Y-46250D01*
X33759Y-46212D01*
X33683Y-46174D01*
X33531Y-46174D01*
X33455Y-46212D01*
X33416Y-46250D01*
X33378Y-46326D01*
X34788Y-46669D02*
X34788Y-45869D01*
X35131Y-46669D02*
X35131Y-46250D01*
X35093Y-46174D01*
X35017Y-46135D01*
X34903Y-46135D01*
X34827Y-46174D01*
X34788Y-46212D01*
X35627Y-46669D02*
X35551Y-46631D01*
X35512Y-46593D01*
X35474Y-46516D01*
X35474Y-46288D01*
X35512Y-46212D01*
X35551Y-46174D01*
X35627Y-46135D01*
X35741Y-46135D01*
X35817Y-46174D01*
X35855Y-46212D01*
X35893Y-46288D01*
X35893Y-46516D01*
X35855Y-46593D01*
X35817Y-46631D01*
X35741Y-46669D01*
X35627Y-46669D01*
X36351Y-46669D02*
X36275Y-46631D01*
X36236Y-46555D01*
X36236Y-45869D01*
X36960Y-46631D02*
X36884Y-46669D01*
X36732Y-46669D01*
X36655Y-46631D01*
X36617Y-46555D01*
X36617Y-46250D01*
X36655Y-46174D01*
X36732Y-46135D01*
X36884Y-46135D01*
X36960Y-46174D01*
X36998Y-46250D01*
X36998Y-46326D01*
X36617Y-46402D01*
X37303Y-46631D02*
X37380Y-46669D01*
X37532Y-46669D01*
X37608Y-46631D01*
X37646Y-46555D01*
X37646Y-46516D01*
X37608Y-46440D01*
X37532Y-46402D01*
X37418Y-46402D01*
X37341Y-46364D01*
X37303Y-46288D01*
X37303Y-46250D01*
X37341Y-46174D01*
X37418Y-46135D01*
X37532Y-46135D01*
X37608Y-46174D01*
X37913Y-46974D02*
X37951Y-46935D01*
X38028Y-46821D01*
X38066Y-46745D01*
X38104Y-46631D01*
X38142Y-46440D01*
X38142Y-46288D01*
X38104Y-46097D01*
X38066Y-45983D01*
X38028Y-45907D01*
X37951Y-45793D01*
X37913Y-45755D01*
G54D10*
X20985Y-47400D02*
X20976Y-47484D01*
X20952Y-47565D01*
X20912Y-47639D01*
X20859Y-47705D01*
X20794Y-47758D01*
X20719Y-47799D01*
X20639Y-47824D01*
X20555Y-47832D01*
X20471Y-47825D01*
X20390Y-47801D01*
X20315Y-47762D01*
X20250Y-47709D01*
X20195Y-47644D01*
X20155Y-47570D01*
X20129Y-47490D01*
X20120Y-47406D01*
X20127Y-47322D01*
X20150Y-47241D01*
X20189Y-47166D01*
X20241Y-47100D01*
X20305Y-47045D01*
X20379Y-47004D01*
X20460Y-46978D01*
X20543Y-46968D01*
X20627Y-46974D01*
X20708Y-46997D01*
X20784Y-47035D01*
X20850Y-47087D01*
X20905Y-47151D01*
X20947Y-47224D01*
X20974Y-47305D01*
X20984Y-47388D01*
X20985Y-47400D01*
X20552Y-46967D02*
X20552Y-47833D01*
G54D11*
X21528Y-46924D02*
X21604Y-46924D01*
X21680Y-46962D01*
X21718Y-47000D01*
X21756Y-47076D01*
X21795Y-47229D01*
X21795Y-47419D01*
X21756Y-47571D01*
X21718Y-47648D01*
X21680Y-47686D01*
X21604Y-47724D01*
X21528Y-47724D01*
X21452Y-47686D01*
X21414Y-47648D01*
X21375Y-47571D01*
X21337Y-47419D01*
X21337Y-47229D01*
X21375Y-47076D01*
X21414Y-47000D01*
X21452Y-46962D01*
X21528Y-46924D01*
X22137Y-47648D02*
X22176Y-47686D01*
X22137Y-47724D01*
X22099Y-47686D01*
X22137Y-47648D01*
X22137Y-47724D01*
X22671Y-46924D02*
X22747Y-46924D01*
X22823Y-46962D01*
X22861Y-47000D01*
X22899Y-47076D01*
X22938Y-47229D01*
X22938Y-47419D01*
X22899Y-47571D01*
X22861Y-47648D01*
X22823Y-47686D01*
X22747Y-47724D01*
X22671Y-47724D01*
X22595Y-47686D01*
X22557Y-47648D01*
X22518Y-47571D01*
X22480Y-47419D01*
X22480Y-47229D01*
X22518Y-47076D01*
X22557Y-47000D01*
X22595Y-46962D01*
X22671Y-46924D01*
X23395Y-47267D02*
X23319Y-47229D01*
X23280Y-47190D01*
X23242Y-47114D01*
X23242Y-47076D01*
X23280Y-47000D01*
X23319Y-46962D01*
X23395Y-46924D01*
X23547Y-46924D01*
X23623Y-46962D01*
X23661Y-47000D01*
X23700Y-47076D01*
X23700Y-47114D01*
X23661Y-47190D01*
X23623Y-47229D01*
X23547Y-47267D01*
X23395Y-47267D01*
X23319Y-47305D01*
X23280Y-47343D01*
X23242Y-47419D01*
X23242Y-47571D01*
X23280Y-47648D01*
X23319Y-47686D01*
X23395Y-47724D01*
X23547Y-47724D01*
X23623Y-47686D01*
X23661Y-47648D01*
X23700Y-47571D01*
X23700Y-47419D01*
X23661Y-47343D01*
X23623Y-47305D01*
X23547Y-47267D01*
X23966Y-46924D02*
X24500Y-46924D01*
X24157Y-47724D01*
X24766Y-46924D02*
X24766Y-47076D01*
X25071Y-46924D02*
X25071Y-47076D01*
X26596Y-46886D02*
X25910Y-47914D01*
X27434Y-47000D02*
X27472Y-46962D01*
X27549Y-46924D01*
X27739Y-46924D01*
X27815Y-46962D01*
X27853Y-47000D01*
X27892Y-47076D01*
X27892Y-47152D01*
X27853Y-47267D01*
X27396Y-47724D01*
X27892Y-47724D01*
X28234Y-47648D02*
X28273Y-47686D01*
X28234Y-47724D01*
X28196Y-47686D01*
X28234Y-47648D01*
X28234Y-47724D01*
X28577Y-47000D02*
X28615Y-46962D01*
X28692Y-46924D01*
X28882Y-46924D01*
X28958Y-46962D01*
X28996Y-47000D01*
X29035Y-47076D01*
X29035Y-47152D01*
X28996Y-47267D01*
X28539Y-47724D01*
X29035Y-47724D01*
X29530Y-46924D02*
X29606Y-46924D01*
X29682Y-46962D01*
X29720Y-47000D01*
X29758Y-47076D01*
X29797Y-47229D01*
X29797Y-47419D01*
X29758Y-47571D01*
X29720Y-47648D01*
X29682Y-47686D01*
X29606Y-47724D01*
X29530Y-47724D01*
X29454Y-47686D01*
X29416Y-47648D01*
X29377Y-47571D01*
X29339Y-47419D01*
X29339Y-47229D01*
X29377Y-47076D01*
X29416Y-47000D01*
X29454Y-46962D01*
X29530Y-46924D01*
X30139Y-47724D02*
X30139Y-47190D01*
X30139Y-47267D02*
X30178Y-47229D01*
X30254Y-47190D01*
X30368Y-47190D01*
X30444Y-47229D01*
X30482Y-47305D01*
X30482Y-47724D01*
X30482Y-47305D02*
X30520Y-47229D01*
X30597Y-47190D01*
X30711Y-47190D01*
X30787Y-47229D01*
X30825Y-47305D01*
X30825Y-47724D01*
X31206Y-47724D02*
X31206Y-47190D01*
X31206Y-47267D02*
X31245Y-47229D01*
X31321Y-47190D01*
X31435Y-47190D01*
X31511Y-47229D01*
X31549Y-47305D01*
X31549Y-47724D01*
X31549Y-47305D02*
X31587Y-47229D01*
X31664Y-47190D01*
X31778Y-47190D01*
X31854Y-47229D01*
X31892Y-47305D01*
X31892Y-47724D01*
X33112Y-48029D02*
X33074Y-47990D01*
X32998Y-47876D01*
X32960Y-47800D01*
X32922Y-47686D01*
X32883Y-47495D01*
X32883Y-47343D01*
X32922Y-47152D01*
X32960Y-47038D01*
X32998Y-46962D01*
X33074Y-46848D01*
X33112Y-46810D01*
X33759Y-47190D02*
X33759Y-47724D01*
X33569Y-46886D02*
X33378Y-47457D01*
X33874Y-47457D01*
X34788Y-47724D02*
X34788Y-46924D01*
X35131Y-47724D02*
X35131Y-47305D01*
X35093Y-47229D01*
X35017Y-47190D01*
X34903Y-47190D01*
X34827Y-47229D01*
X34788Y-47267D01*
X35627Y-47724D02*
X35551Y-47686D01*
X35512Y-47648D01*
X35474Y-47571D01*
X35474Y-47343D01*
X35512Y-47267D01*
X35551Y-47229D01*
X35627Y-47190D01*
X35741Y-47190D01*
X35817Y-47229D01*
X35855Y-47267D01*
X35893Y-47343D01*
X35893Y-47571D01*
X35855Y-47648D01*
X35817Y-47686D01*
X35741Y-47724D01*
X35627Y-47724D01*
X36351Y-47724D02*
X36275Y-47686D01*
X36236Y-47610D01*
X36236Y-46924D01*
X36960Y-47686D02*
X36884Y-47724D01*
X36732Y-47724D01*
X36655Y-47686D01*
X36617Y-47610D01*
X36617Y-47305D01*
X36655Y-47229D01*
X36732Y-47190D01*
X36884Y-47190D01*
X36960Y-47229D01*
X36998Y-47305D01*
X36998Y-47381D01*
X36617Y-47457D01*
X37303Y-47686D02*
X37380Y-47724D01*
X37532Y-47724D01*
X37608Y-47686D01*
X37646Y-47610D01*
X37646Y-47571D01*
X37608Y-47495D01*
X37532Y-47457D01*
X37418Y-47457D01*
X37341Y-47419D01*
X37303Y-47343D01*
X37303Y-47305D01*
X37341Y-47229D01*
X37418Y-47190D01*
X37532Y-47190D01*
X37608Y-47229D01*
X37913Y-48029D02*
X37951Y-47990D01*
X38028Y-47876D01*
X38066Y-47800D01*
X38104Y-47686D01*
X38142Y-47495D01*
X38142Y-47343D01*
X38104Y-47152D01*
X38066Y-47038D01*
X38028Y-46962D01*
X37951Y-46848D01*
X37913Y-46810D01*
M02*
