G04 (created by PCBNEW (2010-04-21 BZR 23xx)-stable) date Thu 02 Sep 2010 05:43:09 AM CEST*
G01*
G70*
G90*
%MOIN*%
G04 Gerber Fmt 3.4, Leading zero omitted, Abs format*
%FSLAX34Y34*%
G04 APERTURE LIST*
%ADD10C,0.001000*%
%ADD11C,0.015000*%
%ADD12C,0.008000*%
G04 APERTURE END LIST*
G54D10*
G54D11*
X32850Y-19550D02*
X32110Y-19583D01*
X31374Y-19680D01*
X30651Y-19840D01*
X29943Y-20063D01*
X29258Y-20347D01*
X28601Y-20689D01*
X27975Y-21088D01*
X27387Y-21539D01*
X26840Y-22040D01*
X26339Y-22587D01*
X25888Y-23175D01*
X25489Y-23801D01*
X25147Y-24458D01*
X24863Y-25143D01*
X24640Y-25851D01*
X24480Y-26574D01*
X24383Y-27310D01*
X24350Y-28050D01*
X24350Y-28050D02*
X24383Y-28790D01*
X24480Y-29526D01*
X24640Y-30249D01*
X24863Y-30957D01*
X25147Y-31642D01*
X25489Y-32299D01*
X25888Y-32925D01*
X26339Y-33513D01*
X26840Y-34060D01*
X27387Y-34561D01*
X27975Y-35012D01*
X28601Y-35411D01*
X29258Y-35753D01*
X29943Y-36037D01*
X30651Y-36260D01*
X31374Y-36420D01*
X32110Y-36517D01*
X32850Y-36550D01*
X32850Y-36550D02*
X33590Y-36517D01*
X34326Y-36420D01*
X35049Y-36260D01*
X35757Y-36037D01*
X36442Y-35753D01*
X37100Y-35411D01*
X37725Y-35012D01*
X38313Y-34561D01*
X38860Y-34060D01*
X39361Y-33513D01*
X39812Y-32925D01*
X40211Y-32299D01*
X40553Y-31642D01*
X40837Y-30957D01*
X41060Y-30249D01*
X41220Y-29526D01*
X41317Y-28790D01*
X41350Y-28050D01*
X41350Y-28050D02*
X41317Y-27310D01*
X41220Y-26574D01*
X41060Y-25851D01*
X40837Y-25143D01*
X40553Y-24458D01*
X40211Y-23801D01*
X39812Y-23175D01*
X39361Y-22587D01*
X38860Y-22040D01*
X38313Y-21539D01*
X37725Y-21088D01*
X37100Y-20689D01*
X36442Y-20347D01*
X35757Y-20063D01*
X35049Y-19840D01*
X34326Y-19680D01*
X33590Y-19583D01*
X32850Y-19550D01*
G54D10*
X26335Y-24849D02*
X26585Y-25099D01*
X26585Y-24849D02*
X26335Y-25099D01*
X26562Y-26201D02*
X26812Y-26451D01*
X26812Y-26201D02*
X26562Y-26451D01*
X27042Y-27681D02*
X27292Y-27931D01*
X27292Y-27681D02*
X27042Y-27931D01*
X27280Y-28360D02*
X27530Y-28610D01*
X27530Y-28360D02*
X27280Y-28610D01*
X27753Y-27574D02*
X28003Y-27824D01*
X28003Y-27574D02*
X27753Y-27824D01*
X28106Y-30014D02*
X28356Y-30264D01*
X28356Y-30014D02*
X28106Y-30264D01*
X28352Y-31902D02*
X28602Y-32152D01*
X28602Y-31902D02*
X28352Y-32152D01*
X28405Y-31054D02*
X28655Y-31304D01*
X28655Y-31054D02*
X28405Y-31304D01*
X28535Y-23032D02*
X28785Y-23282D01*
X28785Y-23032D02*
X28535Y-23282D01*
X28642Y-24747D02*
X28892Y-24997D01*
X28892Y-24747D02*
X28642Y-24997D01*
X28690Y-32516D02*
X28940Y-32766D01*
X28940Y-32516D02*
X28690Y-32766D01*
X29519Y-24016D02*
X29769Y-24266D01*
X29769Y-24016D02*
X29519Y-24266D01*
X29734Y-27153D02*
X29984Y-27403D01*
X29984Y-27153D02*
X29734Y-27403D01*
X29844Y-30030D02*
X30094Y-30280D01*
X30094Y-30030D02*
X29844Y-30280D01*
X29893Y-32055D02*
X30143Y-32305D01*
X30143Y-32055D02*
X29893Y-32305D01*
X29980Y-23477D02*
X30230Y-23727D01*
X30230Y-23477D02*
X29980Y-23727D01*
X30327Y-24998D02*
X30577Y-25248D01*
X30577Y-24998D02*
X30327Y-25248D01*
X30909Y-26245D02*
X31159Y-26495D01*
X31159Y-26245D02*
X30909Y-26495D01*
X30949Y-34345D02*
X31199Y-34595D01*
X31199Y-34345D02*
X30949Y-34595D01*
X31203Y-30449D02*
X31453Y-30699D01*
X31453Y-30449D02*
X31203Y-30699D01*
X31693Y-28678D02*
X31943Y-28928D01*
X31943Y-28678D02*
X31693Y-28928D01*
X31813Y-26802D02*
X32063Y-27052D01*
X32063Y-26802D02*
X31813Y-27052D01*
X31890Y-30356D02*
X32140Y-30606D01*
X32140Y-30356D02*
X31890Y-30606D01*
X32438Y-27651D02*
X32688Y-27901D01*
X32688Y-27651D02*
X32438Y-27901D01*
X32792Y-28854D02*
X33042Y-29104D01*
X33042Y-28854D02*
X32792Y-29104D01*
X34101Y-29687D02*
X34351Y-29937D01*
X34351Y-29687D02*
X34101Y-29937D01*
X34284Y-35092D02*
X34534Y-35342D01*
X34534Y-35092D02*
X34284Y-35342D01*
X34413Y-32458D02*
X34663Y-32708D01*
X34663Y-32458D02*
X34413Y-32708D01*
X35295Y-29889D02*
X35545Y-30139D01*
X35545Y-29889D02*
X35295Y-30139D01*
X35492Y-32708D02*
X35742Y-32958D01*
X35742Y-32708D02*
X35492Y-32958D01*
X36130Y-33662D02*
X36380Y-33912D01*
X36380Y-33662D02*
X36130Y-33912D01*
X37707Y-29727D02*
X37957Y-29977D01*
X37957Y-29727D02*
X37707Y-29977D01*
X38322Y-27250D02*
X38572Y-27500D01*
X38572Y-27250D02*
X38322Y-27500D01*
X38322Y-28760D02*
X38572Y-29010D01*
X38572Y-28760D02*
X38322Y-29010D01*
X39925Y-25954D02*
X40175Y-26204D01*
X40175Y-25954D02*
X39925Y-26204D01*
X29455Y-25400D02*
X29451Y-25431D01*
X29442Y-25460D01*
X29428Y-25488D01*
X29408Y-25512D01*
X29384Y-25532D01*
X29357Y-25547D01*
X29327Y-25556D01*
X29296Y-25559D01*
X29266Y-25557D01*
X29236Y-25548D01*
X29208Y-25533D01*
X29184Y-25514D01*
X29163Y-25490D01*
X29148Y-25463D01*
X29139Y-25433D01*
X29136Y-25402D01*
X29138Y-25372D01*
X29147Y-25342D01*
X29161Y-25314D01*
X29180Y-25289D01*
X29204Y-25269D01*
X29231Y-25254D01*
X29261Y-25244D01*
X29292Y-25241D01*
X29322Y-25243D01*
X29352Y-25251D01*
X29380Y-25265D01*
X29405Y-25285D01*
X29425Y-25308D01*
X29441Y-25335D01*
X29451Y-25365D01*
X29454Y-25396D01*
X29455Y-25400D01*
X29455Y-26400D02*
X29451Y-26431D01*
X29442Y-26460D01*
X29428Y-26488D01*
X29408Y-26512D01*
X29384Y-26532D01*
X29357Y-26547D01*
X29327Y-26556D01*
X29296Y-26559D01*
X29266Y-26557D01*
X29236Y-26548D01*
X29208Y-26533D01*
X29184Y-26514D01*
X29163Y-26490D01*
X29148Y-26463D01*
X29139Y-26433D01*
X29136Y-26402D01*
X29138Y-26372D01*
X29147Y-26342D01*
X29161Y-26314D01*
X29180Y-26289D01*
X29204Y-26269D01*
X29231Y-26254D01*
X29261Y-26244D01*
X29292Y-26241D01*
X29322Y-26243D01*
X29352Y-26251D01*
X29380Y-26265D01*
X29405Y-26285D01*
X29425Y-26308D01*
X29441Y-26335D01*
X29451Y-26365D01*
X29454Y-26396D01*
X29455Y-26400D01*
X29455Y-27400D02*
X29451Y-27431D01*
X29442Y-27460D01*
X29428Y-27488D01*
X29408Y-27512D01*
X29384Y-27532D01*
X29357Y-27547D01*
X29327Y-27556D01*
X29296Y-27559D01*
X29266Y-27557D01*
X29236Y-27548D01*
X29208Y-27533D01*
X29184Y-27514D01*
X29163Y-27490D01*
X29148Y-27463D01*
X29139Y-27433D01*
X29136Y-27402D01*
X29138Y-27372D01*
X29147Y-27342D01*
X29161Y-27314D01*
X29180Y-27289D01*
X29204Y-27269D01*
X29231Y-27254D01*
X29261Y-27244D01*
X29292Y-27241D01*
X29322Y-27243D01*
X29352Y-27251D01*
X29380Y-27265D01*
X29405Y-27285D01*
X29425Y-27308D01*
X29441Y-27335D01*
X29451Y-27365D01*
X29454Y-27396D01*
X29455Y-27400D01*
X29455Y-28400D02*
X29451Y-28431D01*
X29442Y-28460D01*
X29428Y-28488D01*
X29408Y-28512D01*
X29384Y-28532D01*
X29357Y-28547D01*
X29327Y-28556D01*
X29296Y-28559D01*
X29266Y-28557D01*
X29236Y-28548D01*
X29208Y-28533D01*
X29184Y-28514D01*
X29163Y-28490D01*
X29148Y-28463D01*
X29139Y-28433D01*
X29136Y-28402D01*
X29138Y-28372D01*
X29147Y-28342D01*
X29161Y-28314D01*
X29180Y-28289D01*
X29204Y-28269D01*
X29231Y-28254D01*
X29261Y-28244D01*
X29292Y-28241D01*
X29322Y-28243D01*
X29352Y-28251D01*
X29380Y-28265D01*
X29405Y-28285D01*
X29425Y-28308D01*
X29441Y-28335D01*
X29451Y-28365D01*
X29454Y-28396D01*
X29455Y-28400D01*
X29455Y-29400D02*
X29451Y-29431D01*
X29442Y-29460D01*
X29428Y-29488D01*
X29408Y-29512D01*
X29384Y-29532D01*
X29357Y-29547D01*
X29327Y-29556D01*
X29296Y-29559D01*
X29266Y-29557D01*
X29236Y-29548D01*
X29208Y-29533D01*
X29184Y-29514D01*
X29163Y-29490D01*
X29148Y-29463D01*
X29139Y-29433D01*
X29136Y-29402D01*
X29138Y-29372D01*
X29147Y-29342D01*
X29161Y-29314D01*
X29180Y-29289D01*
X29204Y-29269D01*
X29231Y-29254D01*
X29261Y-29244D01*
X29292Y-29241D01*
X29322Y-29243D01*
X29352Y-29251D01*
X29380Y-29265D01*
X29405Y-29285D01*
X29425Y-29308D01*
X29441Y-29335D01*
X29451Y-29365D01*
X29454Y-29396D01*
X29455Y-29400D01*
X29455Y-30400D02*
X29451Y-30431D01*
X29442Y-30460D01*
X29428Y-30488D01*
X29408Y-30512D01*
X29384Y-30532D01*
X29357Y-30547D01*
X29327Y-30556D01*
X29296Y-30559D01*
X29266Y-30557D01*
X29236Y-30548D01*
X29208Y-30533D01*
X29184Y-30514D01*
X29163Y-30490D01*
X29148Y-30463D01*
X29139Y-30433D01*
X29136Y-30402D01*
X29138Y-30372D01*
X29147Y-30342D01*
X29161Y-30314D01*
X29180Y-30289D01*
X29204Y-30269D01*
X29231Y-30254D01*
X29261Y-30244D01*
X29292Y-30241D01*
X29322Y-30243D01*
X29352Y-30251D01*
X29380Y-30265D01*
X29405Y-30285D01*
X29425Y-30308D01*
X29441Y-30335D01*
X29451Y-30365D01*
X29454Y-30396D01*
X29455Y-30400D01*
X30460Y-24400D02*
X30456Y-24431D01*
X30447Y-24460D01*
X30433Y-24488D01*
X30413Y-24512D01*
X30389Y-24532D01*
X30362Y-24547D01*
X30332Y-24556D01*
X30301Y-24559D01*
X30271Y-24557D01*
X30241Y-24548D01*
X30213Y-24533D01*
X30189Y-24514D01*
X30168Y-24490D01*
X30153Y-24463D01*
X30144Y-24433D01*
X30141Y-24402D01*
X30143Y-24372D01*
X30152Y-24342D01*
X30166Y-24314D01*
X30185Y-24289D01*
X30209Y-24269D01*
X30236Y-24254D01*
X30266Y-24244D01*
X30297Y-24241D01*
X30327Y-24243D01*
X30357Y-24251D01*
X30385Y-24265D01*
X30410Y-24285D01*
X30430Y-24308D01*
X30446Y-24335D01*
X30456Y-24365D01*
X30459Y-24396D01*
X30460Y-24400D01*
X31460Y-24400D02*
X31456Y-24431D01*
X31447Y-24460D01*
X31433Y-24488D01*
X31413Y-24512D01*
X31389Y-24532D01*
X31362Y-24547D01*
X31332Y-24556D01*
X31301Y-24559D01*
X31271Y-24557D01*
X31241Y-24548D01*
X31213Y-24533D01*
X31189Y-24514D01*
X31168Y-24490D01*
X31153Y-24463D01*
X31144Y-24433D01*
X31141Y-24402D01*
X31143Y-24372D01*
X31152Y-24342D01*
X31166Y-24314D01*
X31185Y-24289D01*
X31209Y-24269D01*
X31236Y-24254D01*
X31266Y-24244D01*
X31297Y-24241D01*
X31327Y-24243D01*
X31357Y-24251D01*
X31385Y-24265D01*
X31410Y-24285D01*
X31430Y-24308D01*
X31446Y-24335D01*
X31456Y-24365D01*
X31459Y-24396D01*
X31460Y-24400D01*
X31960Y-33400D02*
X31956Y-33431D01*
X31947Y-33460D01*
X31933Y-33488D01*
X31913Y-33512D01*
X31889Y-33532D01*
X31862Y-33547D01*
X31832Y-33556D01*
X31801Y-33559D01*
X31771Y-33557D01*
X31741Y-33548D01*
X31713Y-33533D01*
X31689Y-33514D01*
X31668Y-33490D01*
X31653Y-33463D01*
X31644Y-33433D01*
X31641Y-33402D01*
X31643Y-33372D01*
X31652Y-33342D01*
X31666Y-33314D01*
X31685Y-33289D01*
X31709Y-33269D01*
X31736Y-33254D01*
X31766Y-33244D01*
X31797Y-33241D01*
X31827Y-33243D01*
X31857Y-33251D01*
X31885Y-33265D01*
X31910Y-33285D01*
X31930Y-33308D01*
X31946Y-33335D01*
X31956Y-33365D01*
X31959Y-33396D01*
X31960Y-33400D01*
X32460Y-24400D02*
X32456Y-24431D01*
X32447Y-24460D01*
X32433Y-24488D01*
X32413Y-24512D01*
X32389Y-24532D01*
X32362Y-24547D01*
X32332Y-24556D01*
X32301Y-24559D01*
X32271Y-24557D01*
X32241Y-24548D01*
X32213Y-24533D01*
X32189Y-24514D01*
X32168Y-24490D01*
X32153Y-24463D01*
X32144Y-24433D01*
X32141Y-24402D01*
X32143Y-24372D01*
X32152Y-24342D01*
X32166Y-24314D01*
X32185Y-24289D01*
X32209Y-24269D01*
X32236Y-24254D01*
X32266Y-24244D01*
X32297Y-24241D01*
X32327Y-24243D01*
X32357Y-24251D01*
X32385Y-24265D01*
X32410Y-24285D01*
X32430Y-24308D01*
X32446Y-24335D01*
X32456Y-24365D01*
X32459Y-24396D01*
X32460Y-24400D01*
X32960Y-33400D02*
X32956Y-33431D01*
X32947Y-33460D01*
X32933Y-33488D01*
X32913Y-33512D01*
X32889Y-33532D01*
X32862Y-33547D01*
X32832Y-33556D01*
X32801Y-33559D01*
X32771Y-33557D01*
X32741Y-33548D01*
X32713Y-33533D01*
X32689Y-33514D01*
X32668Y-33490D01*
X32653Y-33463D01*
X32644Y-33433D01*
X32641Y-33402D01*
X32643Y-33372D01*
X32652Y-33342D01*
X32666Y-33314D01*
X32685Y-33289D01*
X32709Y-33269D01*
X32736Y-33254D01*
X32766Y-33244D01*
X32797Y-33241D01*
X32827Y-33243D01*
X32857Y-33251D01*
X32885Y-33265D01*
X32910Y-33285D01*
X32930Y-33308D01*
X32946Y-33335D01*
X32956Y-33365D01*
X32959Y-33396D01*
X32960Y-33400D01*
X33460Y-24400D02*
X33456Y-24431D01*
X33447Y-24460D01*
X33433Y-24488D01*
X33413Y-24512D01*
X33389Y-24532D01*
X33362Y-24547D01*
X33332Y-24556D01*
X33301Y-24559D01*
X33271Y-24557D01*
X33241Y-24548D01*
X33213Y-24533D01*
X33189Y-24514D01*
X33168Y-24490D01*
X33153Y-24463D01*
X33144Y-24433D01*
X33141Y-24402D01*
X33143Y-24372D01*
X33152Y-24342D01*
X33166Y-24314D01*
X33185Y-24289D01*
X33209Y-24269D01*
X33236Y-24254D01*
X33266Y-24244D01*
X33297Y-24241D01*
X33327Y-24243D01*
X33357Y-24251D01*
X33385Y-24265D01*
X33410Y-24285D01*
X33430Y-24308D01*
X33446Y-24335D01*
X33456Y-24365D01*
X33459Y-24396D01*
X33460Y-24400D01*
X33960Y-33400D02*
X33956Y-33431D01*
X33947Y-33460D01*
X33933Y-33488D01*
X33913Y-33512D01*
X33889Y-33532D01*
X33862Y-33547D01*
X33832Y-33556D01*
X33801Y-33559D01*
X33771Y-33557D01*
X33741Y-33548D01*
X33713Y-33533D01*
X33689Y-33514D01*
X33668Y-33490D01*
X33653Y-33463D01*
X33644Y-33433D01*
X33641Y-33402D01*
X33643Y-33372D01*
X33652Y-33342D01*
X33666Y-33314D01*
X33685Y-33289D01*
X33709Y-33269D01*
X33736Y-33254D01*
X33766Y-33244D01*
X33797Y-33241D01*
X33827Y-33243D01*
X33857Y-33251D01*
X33885Y-33265D01*
X33910Y-33285D01*
X33930Y-33308D01*
X33946Y-33335D01*
X33956Y-33365D01*
X33959Y-33396D01*
X33960Y-33400D01*
X34460Y-24400D02*
X34456Y-24431D01*
X34447Y-24460D01*
X34433Y-24488D01*
X34413Y-24512D01*
X34389Y-24532D01*
X34362Y-24547D01*
X34332Y-24556D01*
X34301Y-24559D01*
X34271Y-24557D01*
X34241Y-24548D01*
X34213Y-24533D01*
X34189Y-24514D01*
X34168Y-24490D01*
X34153Y-24463D01*
X34144Y-24433D01*
X34141Y-24402D01*
X34143Y-24372D01*
X34152Y-24342D01*
X34166Y-24314D01*
X34185Y-24289D01*
X34209Y-24269D01*
X34236Y-24254D01*
X34266Y-24244D01*
X34297Y-24241D01*
X34327Y-24243D01*
X34357Y-24251D01*
X34385Y-24265D01*
X34410Y-24285D01*
X34430Y-24308D01*
X34446Y-24335D01*
X34456Y-24365D01*
X34459Y-24396D01*
X34460Y-24400D01*
X35460Y-24400D02*
X35456Y-24431D01*
X35447Y-24460D01*
X35433Y-24488D01*
X35413Y-24512D01*
X35389Y-24532D01*
X35362Y-24547D01*
X35332Y-24556D01*
X35301Y-24559D01*
X35271Y-24557D01*
X35241Y-24548D01*
X35213Y-24533D01*
X35189Y-24514D01*
X35168Y-24490D01*
X35153Y-24463D01*
X35144Y-24433D01*
X35141Y-24402D01*
X35143Y-24372D01*
X35152Y-24342D01*
X35166Y-24314D01*
X35185Y-24289D01*
X35209Y-24269D01*
X35236Y-24254D01*
X35266Y-24244D01*
X35297Y-24241D01*
X35327Y-24243D01*
X35357Y-24251D01*
X35385Y-24265D01*
X35410Y-24285D01*
X35430Y-24308D01*
X35446Y-24335D01*
X35456Y-24365D01*
X35459Y-24396D01*
X35460Y-24400D01*
X36460Y-25400D02*
X36456Y-25431D01*
X36447Y-25460D01*
X36433Y-25488D01*
X36413Y-25512D01*
X36389Y-25532D01*
X36362Y-25547D01*
X36332Y-25556D01*
X36301Y-25559D01*
X36271Y-25557D01*
X36241Y-25548D01*
X36213Y-25533D01*
X36189Y-25514D01*
X36168Y-25490D01*
X36153Y-25463D01*
X36144Y-25433D01*
X36141Y-25402D01*
X36143Y-25372D01*
X36152Y-25342D01*
X36166Y-25314D01*
X36185Y-25289D01*
X36209Y-25269D01*
X36236Y-25254D01*
X36266Y-25244D01*
X36297Y-25241D01*
X36327Y-25243D01*
X36357Y-25251D01*
X36385Y-25265D01*
X36410Y-25285D01*
X36430Y-25308D01*
X36446Y-25335D01*
X36456Y-25365D01*
X36459Y-25396D01*
X36460Y-25400D01*
X36460Y-26400D02*
X36456Y-26431D01*
X36447Y-26460D01*
X36433Y-26488D01*
X36413Y-26512D01*
X36389Y-26532D01*
X36362Y-26547D01*
X36332Y-26556D01*
X36301Y-26559D01*
X36271Y-26557D01*
X36241Y-26548D01*
X36213Y-26533D01*
X36189Y-26514D01*
X36168Y-26490D01*
X36153Y-26463D01*
X36144Y-26433D01*
X36141Y-26402D01*
X36143Y-26372D01*
X36152Y-26342D01*
X36166Y-26314D01*
X36185Y-26289D01*
X36209Y-26269D01*
X36236Y-26254D01*
X36266Y-26244D01*
X36297Y-26241D01*
X36327Y-26243D01*
X36357Y-26251D01*
X36385Y-26265D01*
X36410Y-26285D01*
X36430Y-26308D01*
X36446Y-26335D01*
X36456Y-26365D01*
X36459Y-26396D01*
X36460Y-26400D01*
X36460Y-27400D02*
X36456Y-27431D01*
X36447Y-27460D01*
X36433Y-27488D01*
X36413Y-27512D01*
X36389Y-27532D01*
X36362Y-27547D01*
X36332Y-27556D01*
X36301Y-27559D01*
X36271Y-27557D01*
X36241Y-27548D01*
X36213Y-27533D01*
X36189Y-27514D01*
X36168Y-27490D01*
X36153Y-27463D01*
X36144Y-27433D01*
X36141Y-27402D01*
X36143Y-27372D01*
X36152Y-27342D01*
X36166Y-27314D01*
X36185Y-27289D01*
X36209Y-27269D01*
X36236Y-27254D01*
X36266Y-27244D01*
X36297Y-27241D01*
X36327Y-27243D01*
X36357Y-27251D01*
X36385Y-27265D01*
X36410Y-27285D01*
X36430Y-27308D01*
X36446Y-27335D01*
X36456Y-27365D01*
X36459Y-27396D01*
X36460Y-27400D01*
X36460Y-28400D02*
X36456Y-28431D01*
X36447Y-28460D01*
X36433Y-28488D01*
X36413Y-28512D01*
X36389Y-28532D01*
X36362Y-28547D01*
X36332Y-28556D01*
X36301Y-28559D01*
X36271Y-28557D01*
X36241Y-28548D01*
X36213Y-28533D01*
X36189Y-28514D01*
X36168Y-28490D01*
X36153Y-28463D01*
X36144Y-28433D01*
X36141Y-28402D01*
X36143Y-28372D01*
X36152Y-28342D01*
X36166Y-28314D01*
X36185Y-28289D01*
X36209Y-28269D01*
X36236Y-28254D01*
X36266Y-28244D01*
X36297Y-28241D01*
X36327Y-28243D01*
X36357Y-28251D01*
X36385Y-28265D01*
X36410Y-28285D01*
X36430Y-28308D01*
X36446Y-28335D01*
X36456Y-28365D01*
X36459Y-28396D01*
X36460Y-28400D01*
X36460Y-29400D02*
X36456Y-29431D01*
X36447Y-29460D01*
X36433Y-29488D01*
X36413Y-29512D01*
X36389Y-29532D01*
X36362Y-29547D01*
X36332Y-29556D01*
X36301Y-29559D01*
X36271Y-29557D01*
X36241Y-29548D01*
X36213Y-29533D01*
X36189Y-29514D01*
X36168Y-29490D01*
X36153Y-29463D01*
X36144Y-29433D01*
X36141Y-29402D01*
X36143Y-29372D01*
X36152Y-29342D01*
X36166Y-29314D01*
X36185Y-29289D01*
X36209Y-29269D01*
X36236Y-29254D01*
X36266Y-29244D01*
X36297Y-29241D01*
X36327Y-29243D01*
X36357Y-29251D01*
X36385Y-29265D01*
X36410Y-29285D01*
X36430Y-29308D01*
X36446Y-29335D01*
X36456Y-29365D01*
X36459Y-29396D01*
X36460Y-29400D01*
X36460Y-30400D02*
X36456Y-30431D01*
X36447Y-30460D01*
X36433Y-30488D01*
X36413Y-30512D01*
X36389Y-30532D01*
X36362Y-30547D01*
X36332Y-30556D01*
X36301Y-30559D01*
X36271Y-30557D01*
X36241Y-30548D01*
X36213Y-30533D01*
X36189Y-30514D01*
X36168Y-30490D01*
X36153Y-30463D01*
X36144Y-30433D01*
X36141Y-30402D01*
X36143Y-30372D01*
X36152Y-30342D01*
X36166Y-30314D01*
X36185Y-30289D01*
X36209Y-30269D01*
X36236Y-30254D01*
X36266Y-30244D01*
X36297Y-30241D01*
X36327Y-30243D01*
X36357Y-30251D01*
X36385Y-30265D01*
X36410Y-30285D01*
X36430Y-30308D01*
X36446Y-30335D01*
X36456Y-30365D01*
X36459Y-30396D01*
X36460Y-30400D01*
X31800Y-30900D02*
X31800Y-31300D01*
X32000Y-31100D02*
X31600Y-31100D01*
X31800Y-31900D02*
X31800Y-32300D01*
X32000Y-32100D02*
X31600Y-32100D01*
X32800Y-30900D02*
X32800Y-31300D01*
X33000Y-31100D02*
X32600Y-31100D01*
X32800Y-31900D02*
X32800Y-32300D01*
X33000Y-32100D02*
X32600Y-32100D01*
X33800Y-30900D02*
X33800Y-31300D01*
X34000Y-31100D02*
X33600Y-31100D01*
X33800Y-31900D02*
X33800Y-32300D01*
X34000Y-32100D02*
X33600Y-32100D01*
G54D12*
X24040Y-37830D02*
X24040Y-37030D01*
X24231Y-37030D01*
X24345Y-37068D01*
X24421Y-37144D01*
X24460Y-37220D01*
X24498Y-37373D01*
X24498Y-37487D01*
X24460Y-37639D01*
X24421Y-37716D01*
X24345Y-37792D01*
X24231Y-37830D01*
X24040Y-37830D01*
X24840Y-37830D02*
X24840Y-37296D01*
X24840Y-37449D02*
X24879Y-37373D01*
X24917Y-37335D01*
X24993Y-37296D01*
X25069Y-37296D01*
X25335Y-37830D02*
X25335Y-37296D01*
X25335Y-37030D02*
X25297Y-37068D01*
X25335Y-37106D01*
X25374Y-37068D01*
X25335Y-37030D01*
X25335Y-37106D01*
X25831Y-37830D02*
X25755Y-37792D01*
X25716Y-37716D01*
X25716Y-37030D01*
X26250Y-37830D02*
X26174Y-37792D01*
X26135Y-37716D01*
X26135Y-37030D01*
X27164Y-37830D02*
X27164Y-37030D01*
X27431Y-37601D01*
X27698Y-37030D01*
X27698Y-37830D01*
X28421Y-37830D02*
X28421Y-37411D01*
X28383Y-37335D01*
X28307Y-37296D01*
X28155Y-37296D01*
X28078Y-37335D01*
X28421Y-37792D02*
X28345Y-37830D01*
X28155Y-37830D01*
X28078Y-37792D01*
X28040Y-37716D01*
X28040Y-37639D01*
X28078Y-37563D01*
X28155Y-37525D01*
X28345Y-37525D01*
X28421Y-37487D01*
X28802Y-37296D02*
X28802Y-38096D01*
X28802Y-37335D02*
X28879Y-37296D01*
X29031Y-37296D01*
X29107Y-37335D01*
X29145Y-37373D01*
X29183Y-37449D01*
X29183Y-37677D01*
X29145Y-37754D01*
X29107Y-37792D01*
X29031Y-37830D01*
X28879Y-37830D01*
X28802Y-37792D01*
X29526Y-37754D02*
X29565Y-37792D01*
X29526Y-37830D01*
X29488Y-37792D01*
X29526Y-37754D01*
X29526Y-37830D01*
X29526Y-37335D02*
X29565Y-37373D01*
X29526Y-37411D01*
X29488Y-37373D01*
X29526Y-37335D01*
X29526Y-37411D01*
X23400Y-39061D02*
X23650Y-39311D01*
X23650Y-39061D02*
X23400Y-39311D01*
X24193Y-38710D02*
X24269Y-38710D01*
X24345Y-38748D01*
X24383Y-38786D01*
X24421Y-38862D01*
X24460Y-39015D01*
X24460Y-39205D01*
X24421Y-39357D01*
X24383Y-39434D01*
X24345Y-39472D01*
X24269Y-39510D01*
X24193Y-39510D01*
X24117Y-39472D01*
X24079Y-39434D01*
X24040Y-39357D01*
X24002Y-39205D01*
X24002Y-39015D01*
X24040Y-38862D01*
X24079Y-38786D01*
X24117Y-38748D01*
X24193Y-38710D01*
X24802Y-39434D02*
X24841Y-39472D01*
X24802Y-39510D01*
X24764Y-39472D01*
X24802Y-39434D01*
X24802Y-39510D01*
X25336Y-38710D02*
X25412Y-38710D01*
X25488Y-38748D01*
X25526Y-38786D01*
X25564Y-38862D01*
X25603Y-39015D01*
X25603Y-39205D01*
X25564Y-39357D01*
X25526Y-39434D01*
X25488Y-39472D01*
X25412Y-39510D01*
X25336Y-39510D01*
X25260Y-39472D01*
X25222Y-39434D01*
X25183Y-39357D01*
X25145Y-39205D01*
X25145Y-39015D01*
X25183Y-38862D01*
X25222Y-38786D01*
X25260Y-38748D01*
X25336Y-38710D01*
X25907Y-38786D02*
X25945Y-38748D01*
X26022Y-38710D01*
X26212Y-38710D01*
X26288Y-38748D01*
X26326Y-38786D01*
X26365Y-38862D01*
X26365Y-38938D01*
X26326Y-39053D01*
X25869Y-39510D01*
X26365Y-39510D01*
X27088Y-38710D02*
X26707Y-38710D01*
X26669Y-39091D01*
X26707Y-39053D01*
X26784Y-39015D01*
X26974Y-39015D01*
X27050Y-39053D01*
X27088Y-39091D01*
X27127Y-39167D01*
X27127Y-39357D01*
X27088Y-39434D01*
X27050Y-39472D01*
X26974Y-39510D01*
X26784Y-39510D01*
X26707Y-39472D01*
X26669Y-39434D01*
X27431Y-38710D02*
X27431Y-38862D01*
X27736Y-38710D02*
X27736Y-38862D01*
X29261Y-38672D02*
X28575Y-39700D01*
X30290Y-38710D02*
X30366Y-38710D01*
X30442Y-38748D01*
X30480Y-38786D01*
X30518Y-38862D01*
X30557Y-39015D01*
X30557Y-39205D01*
X30518Y-39357D01*
X30480Y-39434D01*
X30442Y-39472D01*
X30366Y-39510D01*
X30290Y-39510D01*
X30214Y-39472D01*
X30176Y-39434D01*
X30137Y-39357D01*
X30099Y-39205D01*
X30099Y-39015D01*
X30137Y-38862D01*
X30176Y-38786D01*
X30214Y-38748D01*
X30290Y-38710D01*
X30899Y-39434D02*
X30938Y-39472D01*
X30899Y-39510D01*
X30861Y-39472D01*
X30899Y-39434D01*
X30899Y-39510D01*
X31623Y-38710D02*
X31471Y-38710D01*
X31395Y-38748D01*
X31357Y-38786D01*
X31280Y-38900D01*
X31242Y-39053D01*
X31242Y-39357D01*
X31280Y-39434D01*
X31319Y-39472D01*
X31395Y-39510D01*
X31547Y-39510D01*
X31623Y-39472D01*
X31661Y-39434D01*
X31700Y-39357D01*
X31700Y-39167D01*
X31661Y-39091D01*
X31623Y-39053D01*
X31547Y-39015D01*
X31395Y-39015D01*
X31319Y-39053D01*
X31280Y-39091D01*
X31242Y-39167D01*
X32385Y-38976D02*
X32385Y-39510D01*
X32195Y-38672D02*
X32004Y-39243D01*
X32500Y-39243D01*
X32804Y-39510D02*
X32804Y-38976D01*
X32804Y-39053D02*
X32843Y-39015D01*
X32919Y-38976D01*
X33033Y-38976D01*
X33109Y-39015D01*
X33147Y-39091D01*
X33147Y-39510D01*
X33147Y-39091D02*
X33185Y-39015D01*
X33262Y-38976D01*
X33376Y-38976D01*
X33452Y-39015D01*
X33490Y-39091D01*
X33490Y-39510D01*
X33871Y-39510D02*
X33871Y-38976D01*
X33871Y-39053D02*
X33910Y-39015D01*
X33986Y-38976D01*
X34100Y-38976D01*
X34176Y-39015D01*
X34214Y-39091D01*
X34214Y-39510D01*
X34214Y-39091D02*
X34252Y-39015D01*
X34329Y-38976D01*
X34443Y-38976D01*
X34519Y-39015D01*
X34557Y-39091D01*
X34557Y-39510D01*
X35777Y-39815D02*
X35739Y-39776D01*
X35663Y-39662D01*
X35625Y-39586D01*
X35587Y-39472D01*
X35548Y-39281D01*
X35548Y-39129D01*
X35587Y-38938D01*
X35625Y-38824D01*
X35663Y-38748D01*
X35739Y-38634D01*
X35777Y-38596D01*
X36005Y-38710D02*
X36501Y-38710D01*
X36234Y-39015D01*
X36348Y-39015D01*
X36424Y-39053D01*
X36462Y-39091D01*
X36501Y-39167D01*
X36501Y-39357D01*
X36462Y-39434D01*
X36424Y-39472D01*
X36348Y-39510D01*
X36120Y-39510D01*
X36043Y-39472D01*
X36005Y-39434D01*
X37224Y-38710D02*
X36843Y-38710D01*
X36805Y-39091D01*
X36843Y-39053D01*
X36920Y-39015D01*
X37110Y-39015D01*
X37186Y-39053D01*
X37224Y-39091D01*
X37263Y-39167D01*
X37263Y-39357D01*
X37224Y-39434D01*
X37186Y-39472D01*
X37110Y-39510D01*
X36920Y-39510D01*
X36843Y-39472D01*
X36805Y-39434D01*
X38215Y-39510D02*
X38215Y-38710D01*
X38558Y-39510D02*
X38558Y-39091D01*
X38520Y-39015D01*
X38444Y-38976D01*
X38330Y-38976D01*
X38254Y-39015D01*
X38215Y-39053D01*
X39054Y-39510D02*
X38978Y-39472D01*
X38939Y-39434D01*
X38901Y-39357D01*
X38901Y-39129D01*
X38939Y-39053D01*
X38978Y-39015D01*
X39054Y-38976D01*
X39168Y-38976D01*
X39244Y-39015D01*
X39282Y-39053D01*
X39320Y-39129D01*
X39320Y-39357D01*
X39282Y-39434D01*
X39244Y-39472D01*
X39168Y-39510D01*
X39054Y-39510D01*
X39778Y-39510D02*
X39702Y-39472D01*
X39663Y-39396D01*
X39663Y-38710D01*
X40387Y-39472D02*
X40311Y-39510D01*
X40159Y-39510D01*
X40082Y-39472D01*
X40044Y-39396D01*
X40044Y-39091D01*
X40082Y-39015D01*
X40159Y-38976D01*
X40311Y-38976D01*
X40387Y-39015D01*
X40425Y-39091D01*
X40425Y-39167D01*
X40044Y-39243D01*
X40730Y-39472D02*
X40807Y-39510D01*
X40959Y-39510D01*
X41035Y-39472D01*
X41073Y-39396D01*
X41073Y-39357D01*
X41035Y-39281D01*
X40959Y-39243D01*
X40845Y-39243D01*
X40768Y-39205D01*
X40730Y-39129D01*
X40730Y-39091D01*
X40768Y-39015D01*
X40845Y-38976D01*
X40959Y-38976D01*
X41035Y-39015D01*
X41340Y-39815D02*
X41378Y-39776D01*
X41455Y-39662D01*
X41493Y-39586D01*
X41531Y-39472D01*
X41569Y-39281D01*
X41569Y-39129D01*
X41531Y-38938D01*
X41493Y-38824D01*
X41455Y-38748D01*
X41378Y-38634D01*
X41340Y-38596D01*
G54D10*
X23650Y-40241D02*
X23646Y-40272D01*
X23637Y-40301D01*
X23623Y-40329D01*
X23603Y-40353D01*
X23579Y-40373D01*
X23552Y-40388D01*
X23522Y-40397D01*
X23491Y-40400D01*
X23461Y-40398D01*
X23431Y-40389D01*
X23403Y-40374D01*
X23379Y-40355D01*
X23358Y-40331D01*
X23343Y-40304D01*
X23334Y-40274D01*
X23331Y-40243D01*
X23333Y-40213D01*
X23342Y-40183D01*
X23356Y-40155D01*
X23375Y-40130D01*
X23399Y-40110D01*
X23426Y-40095D01*
X23456Y-40085D01*
X23487Y-40082D01*
X23517Y-40084D01*
X23547Y-40092D01*
X23575Y-40106D01*
X23600Y-40126D01*
X23620Y-40149D01*
X23636Y-40176D01*
X23646Y-40206D01*
X23649Y-40237D01*
X23650Y-40241D01*
G54D12*
X24193Y-39765D02*
X24269Y-39765D01*
X24345Y-39803D01*
X24383Y-39841D01*
X24421Y-39917D01*
X24460Y-40070D01*
X24460Y-40260D01*
X24421Y-40412D01*
X24383Y-40489D01*
X24345Y-40527D01*
X24269Y-40565D01*
X24193Y-40565D01*
X24117Y-40527D01*
X24079Y-40489D01*
X24040Y-40412D01*
X24002Y-40260D01*
X24002Y-40070D01*
X24040Y-39917D01*
X24079Y-39841D01*
X24117Y-39803D01*
X24193Y-39765D01*
X24802Y-40489D02*
X24841Y-40527D01*
X24802Y-40565D01*
X24764Y-40527D01*
X24802Y-40489D01*
X24802Y-40565D01*
X25336Y-39765D02*
X25412Y-39765D01*
X25488Y-39803D01*
X25526Y-39841D01*
X25564Y-39917D01*
X25603Y-40070D01*
X25603Y-40260D01*
X25564Y-40412D01*
X25526Y-40489D01*
X25488Y-40527D01*
X25412Y-40565D01*
X25336Y-40565D01*
X25260Y-40527D01*
X25222Y-40489D01*
X25183Y-40412D01*
X25145Y-40260D01*
X25145Y-40070D01*
X25183Y-39917D01*
X25222Y-39841D01*
X25260Y-39803D01*
X25336Y-39765D01*
X25869Y-39765D02*
X26365Y-39765D01*
X26098Y-40070D01*
X26212Y-40070D01*
X26288Y-40108D01*
X26326Y-40146D01*
X26365Y-40222D01*
X26365Y-40412D01*
X26326Y-40489D01*
X26288Y-40527D01*
X26212Y-40565D01*
X25984Y-40565D01*
X25907Y-40527D01*
X25869Y-40489D01*
X26669Y-39841D02*
X26707Y-39803D01*
X26784Y-39765D01*
X26974Y-39765D01*
X27050Y-39803D01*
X27088Y-39841D01*
X27127Y-39917D01*
X27127Y-39993D01*
X27088Y-40108D01*
X26631Y-40565D01*
X27127Y-40565D01*
X27431Y-39765D02*
X27431Y-39917D01*
X27736Y-39765D02*
X27736Y-39917D01*
X29261Y-39727D02*
X28575Y-40755D01*
X30290Y-39765D02*
X30366Y-39765D01*
X30442Y-39803D01*
X30480Y-39841D01*
X30518Y-39917D01*
X30557Y-40070D01*
X30557Y-40260D01*
X30518Y-40412D01*
X30480Y-40489D01*
X30442Y-40527D01*
X30366Y-40565D01*
X30290Y-40565D01*
X30214Y-40527D01*
X30176Y-40489D01*
X30137Y-40412D01*
X30099Y-40260D01*
X30099Y-40070D01*
X30137Y-39917D01*
X30176Y-39841D01*
X30214Y-39803D01*
X30290Y-39765D01*
X30899Y-40489D02*
X30938Y-40527D01*
X30899Y-40565D01*
X30861Y-40527D01*
X30899Y-40489D01*
X30899Y-40565D01*
X31395Y-40108D02*
X31319Y-40070D01*
X31280Y-40031D01*
X31242Y-39955D01*
X31242Y-39917D01*
X31280Y-39841D01*
X31319Y-39803D01*
X31395Y-39765D01*
X31547Y-39765D01*
X31623Y-39803D01*
X31661Y-39841D01*
X31700Y-39917D01*
X31700Y-39955D01*
X31661Y-40031D01*
X31623Y-40070D01*
X31547Y-40108D01*
X31395Y-40108D01*
X31319Y-40146D01*
X31280Y-40184D01*
X31242Y-40260D01*
X31242Y-40412D01*
X31280Y-40489D01*
X31319Y-40527D01*
X31395Y-40565D01*
X31547Y-40565D01*
X31623Y-40527D01*
X31661Y-40489D01*
X31700Y-40412D01*
X31700Y-40260D01*
X31661Y-40184D01*
X31623Y-40146D01*
X31547Y-40108D01*
X32462Y-40565D02*
X32004Y-40565D01*
X32233Y-40565D02*
X32233Y-39765D01*
X32157Y-39879D01*
X32081Y-39955D01*
X32004Y-39993D01*
X32804Y-40565D02*
X32804Y-40031D01*
X32804Y-40108D02*
X32843Y-40070D01*
X32919Y-40031D01*
X33033Y-40031D01*
X33109Y-40070D01*
X33147Y-40146D01*
X33147Y-40565D01*
X33147Y-40146D02*
X33185Y-40070D01*
X33262Y-40031D01*
X33376Y-40031D01*
X33452Y-40070D01*
X33490Y-40146D01*
X33490Y-40565D01*
X33871Y-40565D02*
X33871Y-40031D01*
X33871Y-40108D02*
X33910Y-40070D01*
X33986Y-40031D01*
X34100Y-40031D01*
X34176Y-40070D01*
X34214Y-40146D01*
X34214Y-40565D01*
X34214Y-40146D02*
X34252Y-40070D01*
X34329Y-40031D01*
X34443Y-40031D01*
X34519Y-40070D01*
X34557Y-40146D01*
X34557Y-40565D01*
X35777Y-40870D02*
X35739Y-40831D01*
X35663Y-40717D01*
X35625Y-40641D01*
X35587Y-40527D01*
X35548Y-40336D01*
X35548Y-40184D01*
X35587Y-39993D01*
X35625Y-39879D01*
X35663Y-39803D01*
X35739Y-39689D01*
X35777Y-39651D01*
X36043Y-39841D02*
X36081Y-39803D01*
X36158Y-39765D01*
X36348Y-39765D01*
X36424Y-39803D01*
X36462Y-39841D01*
X36501Y-39917D01*
X36501Y-39993D01*
X36462Y-40108D01*
X36005Y-40565D01*
X36501Y-40565D01*
X37263Y-40565D02*
X36805Y-40565D01*
X37034Y-40565D02*
X37034Y-39765D01*
X36958Y-39879D01*
X36882Y-39955D01*
X36805Y-39993D01*
X38215Y-40565D02*
X38215Y-39765D01*
X38558Y-40565D02*
X38558Y-40146D01*
X38520Y-40070D01*
X38444Y-40031D01*
X38330Y-40031D01*
X38254Y-40070D01*
X38215Y-40108D01*
X39054Y-40565D02*
X38978Y-40527D01*
X38939Y-40489D01*
X38901Y-40412D01*
X38901Y-40184D01*
X38939Y-40108D01*
X38978Y-40070D01*
X39054Y-40031D01*
X39168Y-40031D01*
X39244Y-40070D01*
X39282Y-40108D01*
X39320Y-40184D01*
X39320Y-40412D01*
X39282Y-40489D01*
X39244Y-40527D01*
X39168Y-40565D01*
X39054Y-40565D01*
X39778Y-40565D02*
X39702Y-40527D01*
X39663Y-40451D01*
X39663Y-39765D01*
X40387Y-40527D02*
X40311Y-40565D01*
X40159Y-40565D01*
X40082Y-40527D01*
X40044Y-40451D01*
X40044Y-40146D01*
X40082Y-40070D01*
X40159Y-40031D01*
X40311Y-40031D01*
X40387Y-40070D01*
X40425Y-40146D01*
X40425Y-40222D01*
X40044Y-40298D01*
X40730Y-40527D02*
X40807Y-40565D01*
X40959Y-40565D01*
X41035Y-40527D01*
X41073Y-40451D01*
X41073Y-40412D01*
X41035Y-40336D01*
X40959Y-40298D01*
X40845Y-40298D01*
X40768Y-40260D01*
X40730Y-40184D01*
X40730Y-40146D01*
X40768Y-40070D01*
X40845Y-40031D01*
X40959Y-40031D01*
X41035Y-40070D01*
X41340Y-40870D02*
X41378Y-40831D01*
X41455Y-40717D01*
X41493Y-40641D01*
X41531Y-40527D01*
X41569Y-40336D01*
X41569Y-40184D01*
X41531Y-39993D01*
X41493Y-39879D01*
X41455Y-39803D01*
X41378Y-39689D01*
X41340Y-39651D01*
X23450Y-41096D02*
X23450Y-41496D01*
X23650Y-41296D02*
X23250Y-41296D01*
X24193Y-40820D02*
X24269Y-40820D01*
X24345Y-40858D01*
X24383Y-40896D01*
X24421Y-40972D01*
X24460Y-41125D01*
X24460Y-41315D01*
X24421Y-41467D01*
X24383Y-41544D01*
X24345Y-41582D01*
X24269Y-41620D01*
X24193Y-41620D01*
X24117Y-41582D01*
X24079Y-41544D01*
X24040Y-41467D01*
X24002Y-41315D01*
X24002Y-41125D01*
X24040Y-40972D01*
X24079Y-40896D01*
X24117Y-40858D01*
X24193Y-40820D01*
X24802Y-41544D02*
X24841Y-41582D01*
X24802Y-41620D01*
X24764Y-41582D01*
X24802Y-41544D01*
X24802Y-41620D01*
X25336Y-40820D02*
X25412Y-40820D01*
X25488Y-40858D01*
X25526Y-40896D01*
X25564Y-40972D01*
X25603Y-41125D01*
X25603Y-41315D01*
X25564Y-41467D01*
X25526Y-41544D01*
X25488Y-41582D01*
X25412Y-41620D01*
X25336Y-41620D01*
X25260Y-41582D01*
X25222Y-41544D01*
X25183Y-41467D01*
X25145Y-41315D01*
X25145Y-41125D01*
X25183Y-40972D01*
X25222Y-40896D01*
X25260Y-40858D01*
X25336Y-40820D01*
X26288Y-41086D02*
X26288Y-41620D01*
X26098Y-40782D02*
X25907Y-41353D01*
X26403Y-41353D01*
X26860Y-40820D02*
X26936Y-40820D01*
X27012Y-40858D01*
X27050Y-40896D01*
X27088Y-40972D01*
X27127Y-41125D01*
X27127Y-41315D01*
X27088Y-41467D01*
X27050Y-41544D01*
X27012Y-41582D01*
X26936Y-41620D01*
X26860Y-41620D01*
X26784Y-41582D01*
X26746Y-41544D01*
X26707Y-41467D01*
X26669Y-41315D01*
X26669Y-41125D01*
X26707Y-40972D01*
X26746Y-40896D01*
X26784Y-40858D01*
X26860Y-40820D01*
X27431Y-40820D02*
X27431Y-40972D01*
X27736Y-40820D02*
X27736Y-40972D01*
X29261Y-40782D02*
X28575Y-41810D01*
X30557Y-41620D02*
X30099Y-41620D01*
X30328Y-41620D02*
X30328Y-40820D01*
X30252Y-40934D01*
X30176Y-41010D01*
X30099Y-41048D01*
X30899Y-41544D02*
X30938Y-41582D01*
X30899Y-41620D01*
X30861Y-41582D01*
X30899Y-41544D01*
X30899Y-41620D01*
X31433Y-40820D02*
X31509Y-40820D01*
X31585Y-40858D01*
X31623Y-40896D01*
X31661Y-40972D01*
X31700Y-41125D01*
X31700Y-41315D01*
X31661Y-41467D01*
X31623Y-41544D01*
X31585Y-41582D01*
X31509Y-41620D01*
X31433Y-41620D01*
X31357Y-41582D01*
X31319Y-41544D01*
X31280Y-41467D01*
X31242Y-41315D01*
X31242Y-41125D01*
X31280Y-40972D01*
X31319Y-40896D01*
X31357Y-40858D01*
X31433Y-40820D01*
X32004Y-40896D02*
X32042Y-40858D01*
X32119Y-40820D01*
X32309Y-40820D01*
X32385Y-40858D01*
X32423Y-40896D01*
X32462Y-40972D01*
X32462Y-41048D01*
X32423Y-41163D01*
X31966Y-41620D01*
X32462Y-41620D01*
X32804Y-41620D02*
X32804Y-41086D01*
X32804Y-41163D02*
X32843Y-41125D01*
X32919Y-41086D01*
X33033Y-41086D01*
X33109Y-41125D01*
X33147Y-41201D01*
X33147Y-41620D01*
X33147Y-41201D02*
X33185Y-41125D01*
X33262Y-41086D01*
X33376Y-41086D01*
X33452Y-41125D01*
X33490Y-41201D01*
X33490Y-41620D01*
X33871Y-41620D02*
X33871Y-41086D01*
X33871Y-41163D02*
X33910Y-41125D01*
X33986Y-41086D01*
X34100Y-41086D01*
X34176Y-41125D01*
X34214Y-41201D01*
X34214Y-41620D01*
X34214Y-41201D02*
X34252Y-41125D01*
X34329Y-41086D01*
X34443Y-41086D01*
X34519Y-41125D01*
X34557Y-41201D01*
X34557Y-41620D01*
X35777Y-41925D02*
X35739Y-41886D01*
X35663Y-41772D01*
X35625Y-41696D01*
X35587Y-41582D01*
X35548Y-41391D01*
X35548Y-41239D01*
X35587Y-41048D01*
X35625Y-40934D01*
X35663Y-40858D01*
X35739Y-40744D01*
X35777Y-40706D01*
X36424Y-40820D02*
X36272Y-40820D01*
X36196Y-40858D01*
X36158Y-40896D01*
X36081Y-41010D01*
X36043Y-41163D01*
X36043Y-41467D01*
X36081Y-41544D01*
X36120Y-41582D01*
X36196Y-41620D01*
X36348Y-41620D01*
X36424Y-41582D01*
X36462Y-41544D01*
X36501Y-41467D01*
X36501Y-41277D01*
X36462Y-41201D01*
X36424Y-41163D01*
X36348Y-41125D01*
X36196Y-41125D01*
X36120Y-41163D01*
X36081Y-41201D01*
X36043Y-41277D01*
X37453Y-41620D02*
X37453Y-40820D01*
X37796Y-41620D02*
X37796Y-41201D01*
X37758Y-41125D01*
X37682Y-41086D01*
X37568Y-41086D01*
X37492Y-41125D01*
X37453Y-41163D01*
X38292Y-41620D02*
X38216Y-41582D01*
X38177Y-41544D01*
X38139Y-41467D01*
X38139Y-41239D01*
X38177Y-41163D01*
X38216Y-41125D01*
X38292Y-41086D01*
X38406Y-41086D01*
X38482Y-41125D01*
X38520Y-41163D01*
X38558Y-41239D01*
X38558Y-41467D01*
X38520Y-41544D01*
X38482Y-41582D01*
X38406Y-41620D01*
X38292Y-41620D01*
X39016Y-41620D02*
X38940Y-41582D01*
X38901Y-41506D01*
X38901Y-40820D01*
X39625Y-41582D02*
X39549Y-41620D01*
X39397Y-41620D01*
X39320Y-41582D01*
X39282Y-41506D01*
X39282Y-41201D01*
X39320Y-41125D01*
X39397Y-41086D01*
X39549Y-41086D01*
X39625Y-41125D01*
X39663Y-41201D01*
X39663Y-41277D01*
X39282Y-41353D01*
X39968Y-41582D02*
X40045Y-41620D01*
X40197Y-41620D01*
X40273Y-41582D01*
X40311Y-41506D01*
X40311Y-41467D01*
X40273Y-41391D01*
X40197Y-41353D01*
X40083Y-41353D01*
X40006Y-41315D01*
X39968Y-41239D01*
X39968Y-41201D01*
X40006Y-41125D01*
X40083Y-41086D01*
X40197Y-41086D01*
X40273Y-41125D01*
X40578Y-41925D02*
X40616Y-41886D01*
X40693Y-41772D01*
X40731Y-41696D01*
X40769Y-41582D01*
X40807Y-41391D01*
X40807Y-41239D01*
X40769Y-41048D01*
X40731Y-40934D01*
X40693Y-40858D01*
X40616Y-40744D01*
X40578Y-40706D01*
M02*
