G04 (created by PCBNEW-RS274X (2011-07-08)-stable) date Tue 10 Jan 2012 12:11:56 PM CET*
G01*
G70*
G90*
%MOIN*%
G04 Gerber Fmt 3.4, Leading zero omitted, Abs format*
%FSLAX34Y34*%
G04 APERTURE LIST*
%ADD10C,0.006000*%
%ADD11C,0.008000*%
%ADD12R,0.078700X0.017700*%
%ADD13R,0.017700X0.078700*%
%ADD14R,0.060000X0.060000*%
%ADD15C,0.060000*%
%ADD16R,0.059000X0.051100*%
%ADD17R,0.051100X0.059000*%
%ADD18C,0.160000*%
%ADD19R,0.055000X0.055000*%
%ADD20C,0.055000*%
%ADD21R,0.070800X0.062900*%
%ADD22R,0.062900X0.070800*%
%ADD23R,0.059100X0.035400*%
%ADD24R,0.106300X0.063000*%
%ADD25R,0.035400X0.059100*%
%ADD26R,0.063000X0.106300*%
%ADD27C,0.025000*%
%ADD28C,0.035000*%
%ADD29C,0.016000*%
G04 APERTURE END LIST*
G54D10*
G54D11*
X32750Y-19300D02*
X32005Y-19333D01*
X31266Y-19430D01*
X30538Y-19592D01*
X29826Y-19816D01*
X29137Y-20102D01*
X28476Y-20446D01*
X27846Y-20847D01*
X27255Y-21301D01*
X26705Y-21805D01*
X26201Y-22355D01*
X25747Y-22946D01*
X25346Y-23576D01*
X25002Y-24237D01*
X24716Y-24926D01*
X24492Y-25638D01*
X24330Y-26366D01*
X24233Y-27105D01*
X24200Y-27850D01*
X24200Y-27850D02*
X24233Y-28595D01*
X24330Y-29334D01*
X24492Y-30062D01*
X24716Y-30774D01*
X25002Y-31463D01*
X25346Y-32124D01*
X25747Y-32754D01*
X26201Y-33345D01*
X26705Y-33895D01*
X27255Y-34399D01*
X27846Y-34853D01*
X28476Y-35254D01*
X29137Y-35598D01*
X29826Y-35884D01*
X30538Y-36108D01*
X31266Y-36270D01*
X32005Y-36367D01*
X32750Y-36400D01*
X32750Y-36400D02*
X33495Y-36367D01*
X34234Y-36270D01*
X34962Y-36108D01*
X35674Y-35884D01*
X36363Y-35598D01*
X37025Y-35254D01*
X37654Y-34853D01*
X38245Y-34399D01*
X38795Y-33895D01*
X39299Y-33345D01*
X39753Y-32754D01*
X40154Y-32124D01*
X40498Y-31463D01*
X40784Y-30774D01*
X41008Y-30062D01*
X41170Y-29334D01*
X41267Y-28595D01*
X41300Y-27850D01*
X41300Y-27850D02*
X41267Y-27105D01*
X41170Y-26366D01*
X41008Y-25638D01*
X40784Y-24926D01*
X40498Y-24237D01*
X40154Y-23576D01*
X39753Y-22946D01*
X39299Y-22355D01*
X38795Y-21805D01*
X38245Y-21301D01*
X37654Y-20847D01*
X37025Y-20446D01*
X36363Y-20102D01*
X35674Y-19816D01*
X34962Y-19592D01*
X34234Y-19430D01*
X33495Y-19333D01*
X32750Y-19300D01*
G54D10*
G36*
X29398Y-34184D02*
X29850Y-34322D01*
X29712Y-34774D01*
X29260Y-34636D01*
X29398Y-34184D01*
X29398Y-34184D01*
G37*
G36*
X30188Y-34426D02*
X30640Y-34564D01*
X30502Y-35016D01*
X30050Y-34878D01*
X30188Y-34426D01*
X30188Y-34426D01*
G37*
G54D12*
X30854Y-28943D03*
X30854Y-28628D03*
X30854Y-28313D03*
X30854Y-27998D03*
X30854Y-27683D03*
X30854Y-27368D03*
X30854Y-27053D03*
X30854Y-26738D03*
X34620Y-26740D03*
X34620Y-28950D03*
X34620Y-28630D03*
X34620Y-28310D03*
X34620Y-28000D03*
X34620Y-27680D03*
X34620Y-27370D03*
X34620Y-27050D03*
G54D13*
X31638Y-25950D03*
X31952Y-25950D03*
X32268Y-25950D03*
X32582Y-25950D03*
X32898Y-25950D03*
X33212Y-25950D03*
X33528Y-25950D03*
X33842Y-25950D03*
X31640Y-29730D03*
X31950Y-29730D03*
X32270Y-29730D03*
X32580Y-29730D03*
X32890Y-29730D03*
X33210Y-29730D03*
X33530Y-29730D03*
X33850Y-29730D03*
G54D14*
X33250Y-26850D03*
G54D15*
X32250Y-26850D03*
X33250Y-27850D03*
X32250Y-27850D03*
X33250Y-28850D03*
X32250Y-28850D03*
G54D16*
X27100Y-27426D03*
X27100Y-28174D03*
G54D17*
X32476Y-24500D03*
X33224Y-24500D03*
X32376Y-33500D03*
X33124Y-33500D03*
G54D16*
X38400Y-28224D03*
X38400Y-27476D03*
G54D18*
X30050Y-25150D03*
X35450Y-25150D03*
X30050Y-30550D03*
X35450Y-30550D03*
G54D17*
X32326Y-32550D03*
X33074Y-32550D03*
G54D19*
X30250Y-22250D03*
G54D20*
X31250Y-22250D03*
X32250Y-22250D03*
X33250Y-22250D03*
X34250Y-22250D03*
X35250Y-22250D03*
G54D10*
G36*
X27239Y-25800D02*
X26850Y-25411D01*
X27239Y-25022D01*
X27628Y-25411D01*
X27239Y-25800D01*
X27239Y-25800D01*
G37*
G54D20*
X27946Y-24704D03*
X28654Y-23996D03*
X29361Y-23289D03*
G54D10*
G36*
X38600Y-25411D02*
X38211Y-25800D01*
X37822Y-25411D01*
X38211Y-25022D01*
X38600Y-25411D01*
X38600Y-25411D01*
G37*
G54D20*
X37504Y-24704D03*
X36796Y-23996D03*
X36089Y-23289D03*
G54D21*
X29000Y-27249D03*
X29000Y-28351D03*
X36500Y-28401D03*
X36500Y-27299D03*
G54D16*
X28050Y-27426D03*
X28050Y-28174D03*
X37450Y-28224D03*
X37450Y-27476D03*
G54D22*
X32199Y-31600D03*
X33301Y-31600D03*
G54D23*
X33734Y-35730D03*
X33734Y-35100D03*
X33734Y-34470D03*
X31766Y-34470D03*
X31766Y-35100D03*
X31766Y-35730D03*
G54D24*
X32750Y-34549D03*
X32750Y-35651D03*
G54D10*
G36*
X38657Y-32833D02*
X39074Y-32416D01*
X39325Y-32667D01*
X38908Y-33084D01*
X38657Y-32833D01*
X38657Y-32833D01*
G37*
G36*
X38212Y-32387D02*
X38629Y-31970D01*
X38880Y-32221D01*
X38463Y-32638D01*
X38212Y-32387D01*
X38212Y-32387D01*
G37*
G36*
X37766Y-31942D02*
X38183Y-31525D01*
X38434Y-31776D01*
X38017Y-32193D01*
X37766Y-31942D01*
X37766Y-31942D01*
G37*
G36*
X36375Y-33333D02*
X36792Y-32916D01*
X37043Y-33167D01*
X36626Y-33584D01*
X36375Y-33333D01*
X36375Y-33333D01*
G37*
G36*
X36820Y-33779D02*
X37237Y-33362D01*
X37488Y-33613D01*
X37071Y-34030D01*
X36820Y-33779D01*
X36820Y-33779D01*
G37*
G36*
X37266Y-34224D02*
X37683Y-33807D01*
X37934Y-34058D01*
X37517Y-34475D01*
X37266Y-34224D01*
X37266Y-34224D01*
G37*
G36*
X36862Y-32763D02*
X37613Y-32012D01*
X38058Y-32457D01*
X37307Y-33208D01*
X36862Y-32763D01*
X36862Y-32763D01*
G37*
G36*
X37642Y-33543D02*
X38393Y-32792D01*
X38838Y-33237D01*
X38087Y-33988D01*
X37642Y-33543D01*
X37642Y-33543D01*
G37*
G54D25*
X40630Y-26866D03*
X40000Y-26866D03*
X39370Y-26866D03*
X39370Y-28834D03*
X40000Y-28834D03*
X40630Y-28834D03*
G54D26*
X39449Y-27850D03*
X40551Y-27850D03*
G54D10*
G36*
X37683Y-21943D02*
X37266Y-21526D01*
X37517Y-21275D01*
X37934Y-21692D01*
X37683Y-21943D01*
X37683Y-21943D01*
G37*
G36*
X37237Y-22388D02*
X36820Y-21971D01*
X37071Y-21720D01*
X37488Y-22137D01*
X37237Y-22388D01*
X37237Y-22388D01*
G37*
G36*
X36792Y-22834D02*
X36375Y-22417D01*
X36626Y-22166D01*
X37043Y-22583D01*
X36792Y-22834D01*
X36792Y-22834D01*
G37*
G36*
X38183Y-24225D02*
X37766Y-23808D01*
X38017Y-23557D01*
X38434Y-23974D01*
X38183Y-24225D01*
X38183Y-24225D01*
G37*
G36*
X38629Y-23780D02*
X38212Y-23363D01*
X38463Y-23112D01*
X38880Y-23529D01*
X38629Y-23780D01*
X38629Y-23780D01*
G37*
G36*
X39074Y-23334D02*
X38657Y-22917D01*
X38908Y-22666D01*
X39325Y-23083D01*
X39074Y-23334D01*
X39074Y-23334D01*
G37*
G36*
X37613Y-23738D02*
X36862Y-22987D01*
X37307Y-22542D01*
X38058Y-23293D01*
X37613Y-23738D01*
X37613Y-23738D01*
G37*
G36*
X38393Y-22958D02*
X37642Y-22207D01*
X38087Y-21762D01*
X38838Y-22513D01*
X38393Y-22958D01*
X38393Y-22958D01*
G37*
G54D23*
X31766Y-19970D03*
X31766Y-20600D03*
X31766Y-21230D03*
X33734Y-21230D03*
X33734Y-20600D03*
X33734Y-19970D03*
G54D24*
X32750Y-21151D03*
X32750Y-20049D03*
G54D10*
G36*
X26793Y-22917D02*
X26376Y-23334D01*
X26125Y-23083D01*
X26542Y-22666D01*
X26793Y-22917D01*
X26793Y-22917D01*
G37*
G36*
X27238Y-23363D02*
X26821Y-23780D01*
X26570Y-23529D01*
X26987Y-23112D01*
X27238Y-23363D01*
X27238Y-23363D01*
G37*
G36*
X27684Y-23808D02*
X27267Y-24225D01*
X27016Y-23974D01*
X27433Y-23557D01*
X27684Y-23808D01*
X27684Y-23808D01*
G37*
G36*
X29075Y-22417D02*
X28658Y-22834D01*
X28407Y-22583D01*
X28824Y-22166D01*
X29075Y-22417D01*
X29075Y-22417D01*
G37*
G36*
X28630Y-21971D02*
X28213Y-22388D01*
X27962Y-22137D01*
X28379Y-21720D01*
X28630Y-21971D01*
X28630Y-21971D01*
G37*
G36*
X28184Y-21526D02*
X27767Y-21943D01*
X27516Y-21692D01*
X27933Y-21275D01*
X28184Y-21526D01*
X28184Y-21526D01*
G37*
G36*
X28588Y-22987D02*
X27837Y-23738D01*
X27392Y-23293D01*
X28143Y-22542D01*
X28588Y-22987D01*
X28588Y-22987D01*
G37*
G36*
X27808Y-22207D02*
X27057Y-22958D01*
X26612Y-22513D01*
X27363Y-21762D01*
X27808Y-22207D01*
X27808Y-22207D01*
G37*
G54D25*
X24870Y-28834D03*
X25500Y-28834D03*
X26130Y-28834D03*
X26130Y-26866D03*
X25500Y-26866D03*
X24870Y-26866D03*
G54D26*
X26051Y-27850D03*
X24949Y-27850D03*
G54D10*
G36*
X27817Y-33807D02*
X28234Y-34224D01*
X27983Y-34475D01*
X27566Y-34058D01*
X27817Y-33807D01*
X27817Y-33807D01*
G37*
G36*
X28263Y-33362D02*
X28680Y-33779D01*
X28429Y-34030D01*
X28012Y-33613D01*
X28263Y-33362D01*
X28263Y-33362D01*
G37*
G36*
X28708Y-32916D02*
X29125Y-33333D01*
X28874Y-33584D01*
X28457Y-33167D01*
X28708Y-32916D01*
X28708Y-32916D01*
G37*
G36*
X27317Y-31525D02*
X27734Y-31942D01*
X27483Y-32193D01*
X27066Y-31776D01*
X27317Y-31525D01*
X27317Y-31525D01*
G37*
G36*
X26871Y-31970D02*
X27288Y-32387D01*
X27037Y-32638D01*
X26620Y-32221D01*
X26871Y-31970D01*
X26871Y-31970D01*
G37*
G36*
X26426Y-32416D02*
X26843Y-32833D01*
X26592Y-33084D01*
X26175Y-32667D01*
X26426Y-32416D01*
X26426Y-32416D01*
G37*
G36*
X27887Y-32012D02*
X28638Y-32763D01*
X28193Y-33208D01*
X27442Y-32457D01*
X27887Y-32012D01*
X27887Y-32012D01*
G37*
G36*
X27107Y-32792D02*
X27858Y-33543D01*
X27413Y-33988D01*
X26662Y-33237D01*
X27107Y-32792D01*
X27107Y-32792D01*
G37*
G36*
X35447Y-35656D02*
X35278Y-35259D01*
X35639Y-35106D01*
X35808Y-35503D01*
X35447Y-35656D01*
X35447Y-35656D01*
G37*
G36*
X36061Y-35394D02*
X35892Y-34997D01*
X36253Y-34844D01*
X36422Y-35241D01*
X36061Y-35394D01*
X36061Y-35394D01*
G37*
G36*
X40202Y-31473D02*
X39801Y-31311D01*
X39948Y-30947D01*
X40349Y-31109D01*
X40202Y-31473D01*
X40202Y-31473D01*
G37*
G36*
X40452Y-30853D02*
X40051Y-30691D01*
X40198Y-30327D01*
X40599Y-30489D01*
X40452Y-30853D01*
X40452Y-30853D01*
G37*
G36*
X40556Y-25153D02*
X40159Y-25322D01*
X40006Y-24961D01*
X40403Y-24792D01*
X40556Y-25153D01*
X40556Y-25153D01*
G37*
G36*
X40294Y-24539D02*
X39897Y-24708D01*
X39744Y-24347D01*
X40141Y-24178D01*
X40294Y-24539D01*
X40294Y-24539D01*
G37*
G36*
X36423Y-20448D02*
X36261Y-20849D01*
X35897Y-20702D01*
X36059Y-20301D01*
X36423Y-20448D01*
X36423Y-20448D01*
G37*
G36*
X35803Y-20198D02*
X35641Y-20599D01*
X35277Y-20452D01*
X35439Y-20051D01*
X35803Y-20198D01*
X35803Y-20198D01*
G37*
G36*
X30103Y-19994D02*
X30272Y-20391D01*
X29911Y-20544D01*
X29742Y-20147D01*
X30103Y-19994D01*
X30103Y-19994D01*
G37*
G36*
X29489Y-20256D02*
X29658Y-20653D01*
X29297Y-20806D01*
X29128Y-20409D01*
X29489Y-20256D01*
X29489Y-20256D01*
G37*
G36*
X25298Y-24227D02*
X25699Y-24389D01*
X25552Y-24753D01*
X25151Y-24591D01*
X25298Y-24227D01*
X25298Y-24227D01*
G37*
G36*
X25048Y-24847D02*
X25449Y-25009D01*
X25302Y-25373D01*
X24901Y-25211D01*
X25048Y-24847D01*
X25048Y-24847D01*
G37*
G36*
X24944Y-30547D02*
X25341Y-30378D01*
X25494Y-30739D01*
X25097Y-30908D01*
X24944Y-30547D01*
X24944Y-30547D01*
G37*
G36*
X25206Y-31161D02*
X25603Y-30992D01*
X25756Y-31353D01*
X25359Y-31522D01*
X25206Y-31161D01*
X25206Y-31161D01*
G37*
G36*
X29130Y-35351D02*
X29257Y-34938D01*
X29632Y-35053D01*
X29505Y-35466D01*
X29130Y-35351D01*
X29130Y-35351D01*
G37*
G36*
X29768Y-35547D02*
X29895Y-35134D01*
X30270Y-35249D01*
X30143Y-35662D01*
X29768Y-35547D01*
X29768Y-35547D01*
G37*
G36*
X34861Y-34636D02*
X35295Y-34452D01*
X35479Y-34886D01*
X35045Y-35070D01*
X34861Y-34636D01*
X34861Y-34636D01*
G37*
G36*
X35621Y-34314D02*
X36055Y-34130D01*
X36239Y-34564D01*
X35805Y-34748D01*
X35621Y-34314D01*
X35621Y-34314D01*
G37*
G36*
X39038Y-31163D02*
X39215Y-30726D01*
X39652Y-30903D01*
X39475Y-31340D01*
X39038Y-31163D01*
X39038Y-31163D01*
G37*
G36*
X39348Y-30397D02*
X39525Y-29960D01*
X39962Y-30137D01*
X39785Y-30574D01*
X39348Y-30397D01*
X39348Y-30397D01*
G37*
G36*
X39536Y-25739D02*
X39352Y-25305D01*
X39786Y-25121D01*
X39970Y-25555D01*
X39536Y-25739D01*
X39536Y-25739D01*
G37*
G36*
X39214Y-24979D02*
X39030Y-24545D01*
X39464Y-24361D01*
X39648Y-24795D01*
X39214Y-24979D01*
X39214Y-24979D01*
G37*
G36*
X36063Y-21562D02*
X35626Y-21385D01*
X35803Y-20948D01*
X36240Y-21125D01*
X36063Y-21562D01*
X36063Y-21562D01*
G37*
G36*
X35297Y-21252D02*
X34860Y-21075D01*
X35037Y-20638D01*
X35474Y-20815D01*
X35297Y-21252D01*
X35297Y-21252D01*
G37*
G36*
X30639Y-21064D02*
X30205Y-21248D01*
X30021Y-20814D01*
X30455Y-20630D01*
X30639Y-21064D01*
X30639Y-21064D01*
G37*
G36*
X29879Y-21386D02*
X29445Y-21570D01*
X29261Y-21136D01*
X29695Y-20952D01*
X29879Y-21386D01*
X29879Y-21386D01*
G37*
G36*
X26462Y-24537D02*
X26285Y-24974D01*
X25848Y-24797D01*
X26025Y-24360D01*
X26462Y-24537D01*
X26462Y-24537D01*
G37*
G36*
X26152Y-25303D02*
X25975Y-25740D01*
X25538Y-25563D01*
X25715Y-25126D01*
X26152Y-25303D01*
X26152Y-25303D01*
G37*
G36*
X25964Y-29961D02*
X26148Y-30395D01*
X25714Y-30579D01*
X25530Y-30145D01*
X25964Y-29961D01*
X25964Y-29961D01*
G37*
G36*
X26286Y-30721D02*
X26470Y-31155D01*
X26036Y-31339D01*
X25852Y-30905D01*
X26286Y-30721D01*
X26286Y-30721D01*
G37*
G54D27*
X34445Y-20567D03*
X37946Y-30098D03*
X34250Y-29600D03*
X34407Y-33664D03*
X36424Y-33768D03*
X33191Y-35052D03*
X35633Y-33243D03*
X39956Y-27532D03*
X38728Y-31040D03*
X37055Y-21190D03*
X39450Y-31700D03*
X34829Y-20570D03*
X34753Y-21668D03*
X32984Y-21680D03*
X26545Y-25048D03*
X27851Y-30524D03*
X30783Y-33469D03*
X34929Y-34270D03*
X38921Y-29995D03*
X39650Y-26198D03*
X37565Y-22517D03*
X31329Y-20914D03*
X27679Y-22728D03*
X25538Y-28291D03*
X31142Y-34064D03*
X34371Y-34566D03*
X39373Y-32401D03*
X38826Y-25858D03*
X36443Y-21089D03*
X28724Y-21483D03*
X26654Y-24496D03*
X26037Y-29474D03*
X26800Y-26137D03*
X29640Y-26137D03*
X30908Y-32586D03*
X29191Y-33770D03*
X28702Y-34788D03*
X29958Y-29014D03*
X30620Y-35166D03*
X30224Y-32484D03*
X31220Y-20418D03*
X32383Y-23722D03*
X37881Y-29459D03*
X31420Y-24523D03*
X32896Y-24989D03*
X29036Y-25151D03*
X29504Y-24146D03*
X31419Y-25254D03*
X33738Y-26606D03*
X32440Y-23291D03*
X31292Y-30035D03*
X30778Y-26355D03*
X39014Y-25410D03*
X35132Y-21742D03*
X38672Y-31421D03*
X39146Y-31895D03*
X36726Y-34604D03*
X39983Y-29884D03*
X40382Y-29480D03*
X27055Y-30383D03*
X30439Y-34048D03*
X30343Y-21634D03*
X27666Y-24258D03*
G54D28*
X36939Y-24887D03*
X36879Y-26154D03*
X33869Y-27680D03*
G54D27*
X30021Y-27598D03*
X35902Y-27875D03*
X31686Y-31239D03*
X37172Y-29860D03*
X29565Y-29437D03*
G54D28*
X26219Y-32148D03*
X35755Y-22669D03*
G54D10*
X34445Y-21792D02*
X34445Y-20567D01*
X34903Y-22250D02*
X34445Y-21792D01*
X35250Y-22250D02*
X34903Y-22250D01*
X37382Y-29534D02*
X37946Y-30098D01*
X34932Y-29534D02*
X37382Y-29534D01*
X34127Y-30339D02*
X34932Y-29534D01*
X33333Y-30339D02*
X34127Y-30339D01*
X33210Y-30216D02*
X33333Y-30339D01*
X33210Y-29730D02*
X33210Y-30216D01*
X33850Y-28893D02*
X33850Y-29730D01*
X33849Y-28893D02*
X33850Y-28893D01*
X33305Y-28349D02*
X33849Y-28893D01*
X33192Y-28349D02*
X33305Y-28349D01*
X32856Y-28013D02*
X33192Y-28349D01*
X32856Y-27637D02*
X32856Y-28013D01*
X33250Y-27243D02*
X32856Y-27637D01*
X33250Y-26850D02*
X33250Y-27243D01*
X34155Y-29695D02*
X34155Y-30104D01*
X34250Y-29600D02*
X34155Y-29695D01*
X32700Y-28300D02*
X32250Y-27850D01*
X32700Y-28962D02*
X32700Y-28300D01*
X32981Y-29243D02*
X32700Y-28962D01*
X33530Y-29243D02*
X32981Y-29243D01*
X33530Y-29730D02*
X33530Y-29243D01*
X34043Y-30216D02*
X34155Y-30104D01*
X33530Y-30216D02*
X34043Y-30216D01*
X33530Y-29730D02*
X33530Y-30216D01*
X34155Y-30104D02*
X34158Y-30101D01*
G54D11*
X34511Y-33768D02*
X34407Y-33664D01*
X36424Y-33768D02*
X34511Y-33768D01*
X33257Y-34549D02*
X33191Y-34549D01*
X33336Y-34470D02*
X33257Y-34549D01*
X33734Y-34470D02*
X33336Y-34470D01*
X32750Y-34549D02*
X33191Y-34549D01*
X33191Y-34549D02*
X33191Y-35052D01*
X36266Y-32610D02*
X35633Y-33243D01*
X37460Y-32610D02*
X36266Y-32610D01*
X37460Y-32499D02*
X37460Y-32610D01*
X38100Y-31859D02*
X37460Y-32499D01*
X39449Y-27532D02*
X39956Y-27532D01*
X39449Y-27850D02*
X39449Y-27532D01*
X39370Y-27136D02*
X39370Y-26866D01*
X39449Y-27215D02*
X39370Y-27136D01*
X39449Y-27532D02*
X39449Y-27215D01*
X36709Y-21536D02*
X37055Y-21190D01*
X36709Y-21935D02*
X36709Y-21536D01*
X36427Y-22217D02*
X36709Y-21935D01*
X36709Y-22500D02*
X36427Y-22217D01*
X39300Y-31700D02*
X39450Y-31700D01*
X38728Y-31128D02*
X39300Y-31700D01*
X38728Y-31040D02*
X38728Y-31128D01*
X36990Y-22781D02*
X36709Y-22500D01*
X37044Y-22727D02*
X36990Y-22781D01*
X37046Y-22727D02*
X37044Y-22727D01*
X37047Y-22726D02*
X37046Y-22727D01*
X37460Y-23140D02*
X37047Y-22726D01*
X34753Y-20646D02*
X34753Y-21668D01*
X34829Y-20570D02*
X34753Y-20646D01*
X32243Y-21151D02*
X32750Y-21151D01*
X32164Y-21230D02*
X32243Y-21151D01*
X31766Y-21230D02*
X32164Y-21230D01*
X32750Y-21446D02*
X32984Y-21680D01*
X32750Y-21151D02*
X32750Y-21446D01*
X27631Y-23610D02*
X27350Y-23891D01*
X27631Y-23499D02*
X27631Y-23610D01*
X27990Y-23140D02*
X27631Y-23499D01*
X27068Y-24525D02*
X26545Y-25048D01*
X27068Y-24173D02*
X27068Y-24525D01*
X27350Y-23891D02*
X27068Y-24173D01*
X26560Y-29233D02*
X27851Y-30524D01*
X26130Y-29233D02*
X26560Y-29233D01*
X26130Y-28834D02*
X26130Y-29233D01*
X26130Y-28564D02*
X26130Y-28834D01*
X26051Y-28485D02*
X26130Y-28564D01*
X26051Y-27850D02*
X26051Y-28485D01*
X28601Y-33060D02*
X28791Y-33250D01*
X28490Y-33060D02*
X28601Y-33060D01*
X28040Y-32610D02*
X28490Y-33060D01*
X29137Y-33469D02*
X30783Y-33469D01*
X29074Y-33532D02*
X29137Y-33469D01*
X28791Y-33250D02*
X29074Y-33532D01*
X34333Y-34270D02*
X34929Y-34270D01*
X34133Y-34470D02*
X34333Y-34270D01*
X34133Y-35100D02*
X34133Y-34470D01*
X33734Y-35100D02*
X34133Y-35100D01*
X38387Y-30529D02*
X38921Y-29995D01*
X38387Y-31581D02*
X38387Y-30529D01*
X38828Y-32022D02*
X38387Y-31581D01*
X38546Y-32304D02*
X38828Y-32022D01*
X39919Y-26467D02*
X39650Y-26198D01*
X40000Y-26467D02*
X39919Y-26467D01*
X40000Y-26866D02*
X40000Y-26467D01*
X37565Y-22465D02*
X37565Y-22517D01*
X37154Y-22054D02*
X37565Y-22465D01*
X31367Y-20600D02*
X31766Y-20600D01*
X31367Y-20876D02*
X31367Y-20600D01*
X31329Y-20914D02*
X31367Y-20876D01*
X27622Y-22728D02*
X27679Y-22728D01*
X26904Y-23446D02*
X27622Y-22728D01*
X25538Y-28398D02*
X25538Y-28291D01*
X25500Y-28436D02*
X25538Y-28398D01*
X25500Y-28834D02*
X25500Y-28436D01*
X30853Y-34064D02*
X31142Y-34064D01*
X30609Y-33820D02*
X30853Y-34064D01*
X30345Y-33820D02*
X30609Y-33820D01*
X30157Y-34008D02*
X30345Y-33820D01*
X28658Y-34008D02*
X30157Y-34008D01*
X28346Y-33696D02*
X28658Y-34008D01*
X34371Y-35492D02*
X34371Y-34566D01*
X34133Y-35730D02*
X34371Y-35492D01*
X33734Y-35730D02*
X34133Y-35730D01*
X39307Y-32467D02*
X39373Y-32401D01*
X39274Y-32467D02*
X39307Y-32467D01*
X38991Y-32750D02*
X39274Y-32467D01*
X38937Y-25969D02*
X38826Y-25858D01*
X40132Y-25969D02*
X38937Y-25969D01*
X40630Y-26467D02*
X40132Y-25969D01*
X40630Y-26866D02*
X40630Y-26467D01*
X36457Y-21089D02*
X36443Y-21089D01*
X36585Y-20961D02*
X36457Y-21089D01*
X37211Y-20961D02*
X36585Y-20961D01*
X37318Y-21068D02*
X37211Y-20961D01*
X37318Y-21326D02*
X37318Y-21068D01*
X37600Y-21609D02*
X37318Y-21326D01*
X31323Y-19970D02*
X31766Y-19970D01*
X30871Y-20422D02*
X31323Y-19970D01*
X30871Y-21676D02*
X30871Y-20422D01*
X30676Y-21871D02*
X30871Y-21676D01*
X29112Y-21871D02*
X30676Y-21871D01*
X28724Y-21483D02*
X29112Y-21871D01*
X26487Y-24329D02*
X26654Y-24496D01*
X26487Y-23857D02*
X26487Y-24329D01*
X26353Y-23723D02*
X26487Y-23857D01*
X26353Y-23459D02*
X26353Y-23723D01*
X26177Y-23282D02*
X26353Y-23459D01*
X26459Y-23000D02*
X26177Y-23282D01*
X25796Y-29233D02*
X26037Y-29474D01*
X24870Y-29233D02*
X25796Y-29233D01*
X24870Y-28834D02*
X24870Y-29233D01*
X26800Y-26137D02*
X29640Y-26137D01*
X28547Y-34788D02*
X28702Y-34788D01*
X27900Y-34141D02*
X28547Y-34788D01*
X31018Y-32696D02*
X30908Y-32586D01*
X31018Y-33675D02*
X31018Y-32696D01*
X30996Y-33697D02*
X31018Y-33675D01*
X30689Y-33697D02*
X30996Y-33697D01*
X30669Y-33677D02*
X30689Y-33697D01*
X29284Y-33677D02*
X30669Y-33677D01*
X29191Y-33770D02*
X29284Y-33677D01*
G54D10*
X29982Y-29014D02*
X29958Y-29014D01*
X30368Y-28628D02*
X29982Y-29014D01*
X30854Y-28628D02*
X30368Y-28628D01*
X31144Y-34642D02*
X30620Y-35166D01*
X31144Y-34400D02*
X31144Y-34642D01*
X31361Y-34183D02*
X31144Y-34400D01*
X31361Y-32731D02*
X31361Y-34183D01*
X30991Y-32361D02*
X31361Y-32731D01*
X30347Y-32361D02*
X30991Y-32361D01*
X30224Y-32484D02*
X30347Y-32361D01*
X35464Y-27050D02*
X34620Y-27050D01*
X36843Y-25671D02*
X35464Y-27050D01*
X37951Y-25671D02*
X36843Y-25671D01*
X38211Y-25411D02*
X37951Y-25671D01*
X35468Y-26740D02*
X34620Y-26740D01*
X37504Y-24704D02*
X35468Y-26740D01*
X33842Y-25166D02*
X33842Y-25950D01*
X35012Y-23996D02*
X33842Y-25166D01*
X36796Y-23996D02*
X35012Y-23996D01*
X35492Y-23289D02*
X36089Y-23289D01*
X33528Y-25253D02*
X35492Y-23289D01*
X33528Y-25950D02*
X33528Y-25253D01*
X33250Y-28582D02*
X33250Y-28850D01*
X32644Y-27976D02*
X33250Y-28582D01*
X32644Y-26498D02*
X32644Y-27976D01*
X32582Y-26436D02*
X32644Y-26498D01*
X32582Y-25950D02*
X32582Y-26436D01*
X32582Y-24994D02*
X32582Y-25950D01*
X32476Y-24888D02*
X32582Y-24994D01*
X32476Y-24500D02*
X32476Y-24888D01*
X31098Y-20540D02*
X31220Y-20418D01*
X31098Y-21485D02*
X31098Y-20540D01*
X31423Y-21810D02*
X31098Y-21485D01*
X32532Y-21810D02*
X31423Y-21810D01*
X32658Y-21936D02*
X32532Y-21810D01*
X32658Y-23930D02*
X32658Y-21936D01*
X32476Y-24112D02*
X32658Y-23930D01*
X32476Y-24500D02*
X32476Y-24112D01*
X32268Y-25293D02*
X32268Y-25950D01*
X32117Y-25142D02*
X32268Y-25293D01*
X32117Y-23988D02*
X32117Y-25142D01*
X32383Y-23722D02*
X32117Y-23988D01*
X37372Y-28950D02*
X37881Y-29459D01*
X34620Y-28950D02*
X37372Y-28950D01*
X33250Y-28121D02*
X33250Y-27850D01*
X33871Y-28742D02*
X33250Y-28121D01*
X33926Y-28742D02*
X33871Y-28742D01*
X34134Y-28950D02*
X33926Y-28742D01*
X34620Y-28950D02*
X34134Y-28950D01*
X32898Y-24991D02*
X32898Y-25950D01*
X32896Y-24989D02*
X32898Y-24991D01*
X30825Y-23928D02*
X31420Y-24523D01*
X29215Y-23928D02*
X30825Y-23928D01*
X28847Y-23560D02*
X29215Y-23928D01*
X28554Y-23560D02*
X28847Y-23560D01*
X27946Y-24168D02*
X28554Y-23560D01*
X27946Y-24704D02*
X27946Y-24168D01*
X33212Y-26436D02*
X33212Y-25950D01*
X33568Y-26436D02*
X33212Y-26436D01*
X33738Y-26606D02*
X33568Y-26436D01*
X27500Y-25151D02*
X29036Y-25151D01*
X27500Y-25150D02*
X27500Y-25151D01*
X27239Y-25411D02*
X27500Y-25150D01*
X30311Y-24146D02*
X31419Y-25254D01*
X29504Y-24146D02*
X30311Y-24146D01*
X31952Y-23779D02*
X32440Y-23291D01*
X31952Y-25950D02*
X31952Y-23779D01*
X26692Y-26355D02*
X30778Y-26355D01*
X26393Y-26056D02*
X26692Y-26355D01*
X26393Y-25487D02*
X26393Y-26056D01*
X31292Y-30142D02*
X31292Y-30035D01*
X31450Y-30300D02*
X31292Y-30142D01*
X32750Y-30300D02*
X31450Y-30300D01*
X32890Y-30160D02*
X32750Y-30300D01*
X32890Y-29730D02*
X32890Y-30160D01*
X39146Y-31895D02*
X38672Y-31421D01*
X40615Y-29480D02*
X40382Y-29480D01*
X40960Y-29135D02*
X40615Y-29480D01*
X40960Y-26492D02*
X40960Y-29135D01*
X40302Y-25834D02*
X40960Y-26492D01*
X39483Y-25834D02*
X40302Y-25834D01*
X39143Y-25494D02*
X39483Y-25834D01*
X39143Y-25410D02*
X39143Y-25494D01*
X39014Y-25410D02*
X39143Y-25410D01*
X35132Y-21514D02*
X35132Y-21742D01*
X34990Y-21372D02*
X35132Y-21514D01*
X35167Y-20945D02*
X34990Y-21372D01*
X39143Y-24866D02*
X39143Y-25410D01*
X39339Y-24670D02*
X39143Y-24866D01*
X36713Y-34604D02*
X36726Y-34604D01*
X36551Y-34442D02*
X36713Y-34604D01*
X36540Y-34442D02*
X36551Y-34442D01*
X36362Y-34264D02*
X36540Y-34442D01*
X35964Y-34429D02*
X36362Y-34264D01*
X35940Y-34429D02*
X35964Y-34429D01*
X35930Y-34439D02*
X35940Y-34429D01*
X26588Y-30850D02*
X27055Y-30383D01*
X26586Y-30850D02*
X26588Y-30850D01*
X26161Y-31030D02*
X26586Y-30850D01*
X30439Y-34279D02*
X30439Y-34048D01*
X30470Y-34310D02*
X30439Y-34279D01*
X30471Y-34310D02*
X30470Y-34310D01*
X30345Y-34721D02*
X30471Y-34310D01*
X29802Y-21634D02*
X30343Y-21634D01*
X29750Y-21686D02*
X29802Y-21634D01*
X29570Y-21261D02*
X29750Y-21686D01*
X26447Y-25433D02*
X26393Y-25487D01*
X26491Y-25433D02*
X26447Y-25433D01*
X27666Y-24258D02*
X26491Y-25433D01*
X26274Y-25606D02*
X25845Y-25433D01*
X26393Y-25487D02*
X26274Y-25606D01*
X39655Y-30267D02*
X39828Y-29839D01*
X39994Y-29884D02*
X39983Y-29884D01*
X39983Y-29873D02*
X39994Y-29884D01*
X39871Y-29873D02*
X39983Y-29873D01*
X39836Y-29838D02*
X39871Y-29873D01*
X39836Y-29839D02*
X39836Y-29838D01*
X39828Y-29839D02*
X39836Y-29839D01*
G54D29*
X29808Y-25150D02*
X30050Y-25150D01*
X28654Y-23996D02*
X29808Y-25150D01*
X33286Y-32112D02*
X33074Y-32112D01*
X33301Y-32097D02*
X33286Y-32112D01*
X33301Y-31600D02*
X33301Y-32097D01*
X36997Y-27461D02*
X37012Y-27476D01*
X36997Y-27299D02*
X36997Y-27461D01*
X37231Y-27476D02*
X37012Y-27476D01*
X37231Y-27476D02*
X37450Y-27476D01*
X37450Y-27476D02*
X38400Y-27476D01*
X28050Y-28174D02*
X27100Y-28174D01*
X33074Y-32544D02*
X33074Y-32112D01*
X33074Y-32544D02*
X33074Y-32550D01*
X33074Y-33012D02*
X33124Y-33062D01*
X33074Y-32550D02*
X33074Y-33012D01*
X33124Y-33500D02*
X33124Y-33062D01*
X36676Y-25150D02*
X36939Y-24887D01*
X35450Y-25150D02*
X36676Y-25150D01*
X36749Y-27299D02*
X36997Y-27299D01*
X36749Y-27299D02*
X36500Y-27299D01*
X36500Y-27299D02*
X36003Y-27299D01*
X33301Y-31600D02*
X33301Y-31103D01*
X33301Y-31103D02*
X33301Y-30837D01*
X35163Y-30837D02*
X33301Y-30837D01*
X35450Y-30550D02*
X35163Y-30837D01*
X30337Y-30837D02*
X30050Y-30550D01*
X33301Y-30837D02*
X30337Y-30837D01*
X36500Y-26533D02*
X36879Y-26154D01*
X36500Y-27299D02*
X36500Y-26533D01*
X31391Y-26491D02*
X30050Y-25150D01*
X31391Y-27368D02*
X31391Y-26491D01*
X30854Y-27368D02*
X31391Y-27368D01*
X28503Y-28189D02*
X28488Y-28174D01*
X28503Y-28351D02*
X28503Y-28189D01*
X28050Y-28174D02*
X28488Y-28174D01*
X29000Y-28351D02*
X28503Y-28351D01*
X31398Y-27998D02*
X30854Y-27998D01*
X32250Y-28850D02*
X31398Y-27998D01*
X29850Y-27998D02*
X29497Y-28351D01*
X30854Y-27998D02*
X29850Y-27998D01*
X29000Y-28351D02*
X29497Y-28351D01*
X35622Y-27680D02*
X34620Y-27680D01*
X36003Y-27299D02*
X35622Y-27680D01*
X34620Y-27680D02*
X34084Y-27680D01*
X34084Y-27680D02*
X33869Y-27680D01*
G54D10*
X29844Y-27775D02*
X30021Y-27598D01*
X27100Y-27775D02*
X29844Y-27775D01*
X27100Y-27426D02*
X27100Y-27775D01*
X38400Y-27875D02*
X35902Y-27875D01*
X38400Y-28224D02*
X38400Y-27875D01*
X31772Y-31153D02*
X31686Y-31239D01*
X32592Y-31153D02*
X31772Y-31153D01*
X32643Y-31204D02*
X32592Y-31153D01*
X32643Y-31842D02*
X32643Y-31204D01*
X32725Y-31924D02*
X32643Y-31842D01*
X32725Y-33500D02*
X32725Y-31924D01*
X32376Y-33500D02*
X32725Y-33500D01*
X30354Y-29437D02*
X29565Y-29437D01*
X31355Y-30438D02*
X30354Y-29437D01*
X32459Y-30438D02*
X31355Y-30438D01*
X32542Y-30521D02*
X32459Y-30438D01*
X34145Y-30521D02*
X32542Y-30521D01*
X35009Y-29657D02*
X34145Y-30521D01*
X36969Y-29657D02*
X35009Y-29657D01*
X37172Y-29860D02*
X36969Y-29657D01*
X25836Y-24667D02*
X26155Y-24667D01*
X25825Y-24656D02*
X25836Y-24667D01*
X25825Y-24655D02*
X25825Y-24656D01*
X25428Y-24491D02*
X25825Y-24655D01*
X25425Y-24491D02*
X25428Y-24491D01*
X25425Y-24490D02*
X25425Y-24491D01*
X35995Y-21193D02*
X35933Y-21255D01*
X35995Y-20975D02*
X35995Y-21193D01*
X36159Y-20578D02*
X35995Y-20975D01*
X36160Y-20578D02*
X36159Y-20578D01*
X36160Y-20575D02*
X36160Y-20578D01*
X39357Y-31045D02*
X39345Y-31033D01*
X39675Y-31045D02*
X39357Y-31045D01*
X40072Y-31209D02*
X39675Y-31045D01*
X40075Y-31209D02*
X40072Y-31209D01*
X40075Y-31210D02*
X40075Y-31209D01*
X25220Y-30643D02*
X25219Y-30643D01*
X25222Y-30641D02*
X25220Y-30643D01*
X25620Y-30476D02*
X25222Y-30641D01*
X25826Y-30270D02*
X25620Y-30476D01*
X25839Y-30270D02*
X25826Y-30270D01*
X30009Y-20271D02*
X30007Y-20269D01*
X30009Y-20272D02*
X30009Y-20271D01*
X30174Y-20670D02*
X30009Y-20272D01*
X30330Y-20826D02*
X30174Y-20670D01*
X30330Y-20939D02*
X30330Y-20826D01*
X40280Y-25057D02*
X40281Y-25057D01*
X40278Y-25059D02*
X40280Y-25057D01*
X39880Y-25224D02*
X40278Y-25059D01*
X39674Y-25430D02*
X39880Y-25224D01*
X39661Y-25430D02*
X39674Y-25430D01*
X35541Y-35379D02*
X35543Y-35381D01*
X35541Y-35378D02*
X35541Y-35379D01*
X35376Y-34980D02*
X35541Y-35378D01*
X35170Y-34774D02*
X35376Y-34980D01*
X35170Y-34761D02*
X35170Y-34774D01*
X29555Y-34765D02*
X29555Y-34479D01*
X29498Y-34822D02*
X29555Y-34765D01*
X29497Y-34822D02*
X29498Y-34822D01*
X29381Y-35202D02*
X29497Y-34822D01*
G54D29*
X30019Y-35398D02*
X30450Y-35530D01*
X25481Y-31257D02*
X25671Y-31703D01*
X35540Y-20325D02*
X35090Y-20143D01*
X40019Y-24443D02*
X39829Y-23997D01*
X36157Y-35119D02*
X36603Y-34929D01*
X27260Y-33390D02*
X26784Y-32913D01*
X26673Y-32914D02*
X26509Y-32750D01*
X26783Y-32914D02*
X26673Y-32914D01*
X26784Y-32913D02*
X26783Y-32914D01*
X26509Y-32750D02*
X26199Y-32440D01*
X25927Y-31703D02*
X26219Y-31995D01*
X25671Y-31703D02*
X25927Y-31703D01*
X26954Y-32304D02*
X26645Y-31995D01*
X26219Y-31995D02*
X26645Y-31995D01*
X27400Y-31859D02*
X27149Y-31607D01*
X24870Y-26866D02*
X24870Y-27085D01*
X27981Y-22360D02*
X27986Y-22364D01*
X27210Y-22360D02*
X27981Y-22360D01*
X28296Y-22054D02*
X28606Y-21744D01*
X28296Y-22054D02*
X28141Y-22209D01*
X28141Y-22209D02*
X27986Y-22364D01*
X28450Y-22209D02*
X28741Y-22500D01*
X28141Y-22209D02*
X28450Y-22209D01*
X38827Y-22836D02*
X38991Y-23000D01*
X38717Y-22836D02*
X38827Y-22836D01*
X38240Y-22360D02*
X38717Y-22836D01*
X39301Y-23310D02*
X38856Y-23755D01*
X38991Y-23000D02*
X39301Y-23310D01*
X38546Y-23446D02*
X38856Y-23755D01*
X38856Y-23756D02*
X38856Y-23755D01*
X38856Y-23796D02*
X38856Y-23756D01*
X38896Y-23796D02*
X38856Y-23796D01*
X38937Y-23837D02*
X38896Y-23796D01*
X39413Y-23837D02*
X38937Y-23837D01*
X39573Y-23997D02*
X39413Y-23837D01*
X39829Y-23997D02*
X39573Y-23997D01*
X38577Y-24034D02*
X38410Y-24201D01*
X38577Y-23916D02*
X38577Y-24034D01*
X38489Y-23828D02*
X38577Y-23916D01*
X38489Y-23827D02*
X38489Y-23828D01*
X38520Y-23796D02*
X38489Y-23827D01*
X38856Y-23796D02*
X38520Y-23796D01*
X38100Y-23891D02*
X38255Y-24046D01*
X38255Y-24046D02*
X38410Y-24201D01*
X40551Y-27850D02*
X40551Y-28524D01*
X40630Y-28603D02*
X40630Y-28834D01*
X40551Y-28524D02*
X40630Y-28603D01*
X40630Y-28834D02*
X40000Y-28834D01*
X40000Y-29272D02*
X39370Y-29272D01*
X37469Y-33390D02*
X37465Y-33385D01*
X38240Y-33390D02*
X37469Y-33390D01*
X37600Y-34141D02*
X37290Y-34451D01*
X36811Y-34930D02*
X37290Y-34451D01*
X36604Y-34930D02*
X36811Y-34930D01*
X36603Y-34929D02*
X36604Y-34930D01*
X37154Y-33696D02*
X37309Y-33541D01*
X37309Y-33541D02*
X37465Y-33385D01*
X37018Y-33250D02*
X36709Y-33250D01*
X37309Y-33541D02*
X37018Y-33250D01*
X37154Y-33696D02*
X36885Y-33965D01*
X31328Y-35730D02*
X31328Y-35100D01*
X30650Y-35730D02*
X31328Y-35730D01*
X30450Y-35530D02*
X30650Y-35730D01*
X31766Y-35100D02*
X31547Y-35100D01*
X31547Y-35100D02*
X31328Y-35100D01*
X31328Y-34881D02*
X31328Y-34470D01*
X31547Y-35100D02*
X31328Y-34881D01*
X27850Y-21609D02*
X28146Y-21313D01*
X29393Y-20531D02*
X28947Y-20721D01*
X28265Y-21403D02*
X28947Y-20721D01*
X28174Y-21313D02*
X28265Y-21403D01*
X28146Y-21313D02*
X28174Y-21313D01*
X28265Y-21403D02*
X28606Y-21744D01*
X37450Y-28224D02*
X37450Y-28401D01*
X37450Y-28401D02*
X37450Y-28622D01*
X37450Y-28401D02*
X36500Y-28401D01*
X35774Y-28630D02*
X34620Y-28630D01*
X36003Y-28401D02*
X35774Y-28630D01*
X36500Y-28401D02*
X36003Y-28401D01*
X30854Y-27683D02*
X30318Y-27683D01*
X26219Y-32420D02*
X26219Y-32148D01*
X26199Y-32440D02*
X26219Y-32420D01*
X26219Y-32148D02*
X26219Y-31995D01*
X31417Y-27683D02*
X30854Y-27683D01*
X32250Y-26850D02*
X31417Y-27683D01*
X40000Y-28834D02*
X40000Y-29053D01*
X40000Y-29053D02*
X40000Y-29272D01*
X40506Y-30140D02*
X40507Y-30140D01*
X40325Y-29959D02*
X40506Y-30140D01*
X40325Y-29821D02*
X40325Y-29959D01*
X40000Y-29496D02*
X40325Y-29821D01*
X40000Y-29272D02*
X40000Y-29496D01*
X40325Y-30590D02*
X40507Y-30140D01*
X24949Y-27850D02*
X24949Y-27176D01*
X25803Y-26428D02*
X25500Y-26428D01*
X26130Y-26755D02*
X25803Y-26428D01*
X25500Y-26866D02*
X25500Y-26428D01*
X24949Y-27085D02*
X24949Y-27176D01*
X24870Y-27085D02*
X24949Y-27085D01*
X25281Y-27085D02*
X25500Y-26866D01*
X24949Y-27085D02*
X25281Y-27085D01*
X25175Y-26103D02*
X25500Y-26428D01*
X25175Y-25741D02*
X25175Y-26103D01*
X24994Y-25560D02*
X25175Y-25741D01*
X24993Y-25560D02*
X24994Y-25560D01*
X25175Y-25110D02*
X24993Y-25560D01*
X26130Y-26866D02*
X26130Y-26810D01*
X26130Y-26810D02*
X26130Y-26755D01*
X28050Y-27426D02*
X28050Y-27253D01*
X28050Y-27253D02*
X28050Y-27028D01*
X30318Y-27514D02*
X30318Y-27683D01*
X30053Y-27249D02*
X30318Y-27514D01*
X29000Y-27249D02*
X30053Y-27249D01*
X28499Y-27253D02*
X28050Y-27253D01*
X28503Y-27249D02*
X28499Y-27253D01*
X29000Y-27249D02*
X28503Y-27249D01*
X26933Y-31823D02*
X27149Y-31607D01*
X26817Y-31823D02*
X26933Y-31823D01*
X26645Y-31995D02*
X26817Y-31823D01*
X30854Y-28313D02*
X30318Y-28313D01*
X28050Y-27028D02*
X26661Y-27028D01*
X26348Y-27028D02*
X26130Y-26810D01*
X26661Y-27028D02*
X26348Y-27028D01*
X28279Y-30477D02*
X28279Y-29220D01*
X27149Y-31607D02*
X28279Y-30477D01*
X29314Y-29220D02*
X28279Y-29220D01*
X30221Y-28313D02*
X29314Y-29220D01*
X30318Y-28313D02*
X30221Y-28313D01*
X26661Y-28835D02*
X26661Y-27028D01*
X27046Y-29220D02*
X26661Y-28835D01*
X28279Y-29220D02*
X27046Y-29220D01*
X31547Y-35730D02*
X31328Y-35730D01*
X31547Y-35730D02*
X31766Y-35730D01*
X31997Y-35730D02*
X32076Y-35651D01*
X31766Y-35730D02*
X31997Y-35730D01*
X32750Y-35651D02*
X32076Y-35651D01*
X32199Y-31600D02*
X32199Y-32033D01*
X32199Y-32033D02*
X32199Y-32034D01*
X32278Y-32112D02*
X32326Y-32112D01*
X32199Y-32033D02*
X32278Y-32112D01*
X32024Y-31859D02*
X27400Y-31859D01*
X32199Y-32034D02*
X32024Y-31859D01*
X32326Y-32550D02*
X32326Y-32112D01*
X29361Y-23214D02*
X29361Y-23289D01*
X31286Y-23214D02*
X29361Y-23214D01*
X32250Y-22250D02*
X31286Y-23214D01*
X28741Y-22594D02*
X28741Y-22500D01*
X29361Y-23214D02*
X28741Y-22594D01*
X36117Y-22669D02*
X35755Y-22669D01*
X37494Y-24046D02*
X36117Y-22669D01*
X38255Y-24046D02*
X37494Y-24046D01*
X33224Y-24500D02*
X33623Y-24500D01*
X33795Y-24328D02*
X33623Y-24500D01*
X33795Y-22669D02*
X33795Y-24328D01*
X33795Y-22669D02*
X35755Y-22669D01*
X31766Y-34470D02*
X31594Y-34470D01*
X31594Y-34470D02*
X31328Y-34470D01*
X32326Y-32550D02*
X31928Y-32550D01*
X31594Y-34470D02*
X31594Y-33968D01*
X31594Y-32884D02*
X31928Y-32550D01*
X31594Y-33968D02*
X31594Y-32884D01*
X39370Y-28834D02*
X39370Y-28943D01*
X39370Y-28943D02*
X39370Y-29272D01*
X38915Y-28622D02*
X37450Y-28622D01*
X39236Y-28943D02*
X38915Y-28622D01*
X39370Y-28943D02*
X39236Y-28943D01*
X38744Y-24535D02*
X38410Y-24201D01*
X38744Y-25535D02*
X38744Y-24535D01*
X38437Y-25842D02*
X38744Y-25535D01*
X38437Y-25887D02*
X38437Y-25842D01*
X38915Y-26365D02*
X38437Y-25887D01*
X38915Y-28622D02*
X38915Y-26365D01*
X36876Y-34037D02*
X37290Y-34451D01*
X36885Y-34028D02*
X36876Y-34037D01*
X36885Y-33965D02*
X36885Y-34028D01*
X36215Y-33968D02*
X31594Y-33968D01*
X36284Y-34037D02*
X36215Y-33968D01*
X36876Y-34037D02*
X36284Y-34037D01*
X34345Y-20143D02*
X35090Y-20143D01*
X34172Y-19970D02*
X34345Y-20143D01*
X33734Y-19970D02*
X34172Y-19970D01*
X33734Y-21230D02*
X33750Y-21230D01*
X33734Y-20600D02*
X34172Y-20600D01*
X33795Y-21230D02*
X33795Y-22669D01*
X33750Y-21230D02*
X33795Y-21230D01*
X34172Y-20853D02*
X34172Y-20600D01*
X33795Y-21230D02*
X34172Y-20853D01*
X32750Y-20049D02*
X33368Y-20049D01*
X33734Y-19970D02*
X33540Y-20164D01*
X33424Y-20049D02*
X33540Y-20164D01*
X33368Y-20049D02*
X33424Y-20049D01*
X33734Y-20359D02*
X33734Y-20600D01*
X33540Y-20164D02*
X33734Y-20359D01*
M02*
