G04 (created by PCBNEW-RS274X (2010-04-21 BZR 23xx)-stable) date Thu 02 Sep 2010 05:41:50 AM CEST*
G01*
G70*
G90*
%MOIN*%
G04 Gerber Fmt 3.4, Leading zero omitted, Abs format*
%FSLAX34Y34*%
G04 APERTURE LIST*
%ADD10C,0.001000*%
%ADD11C,0.015000*%
%ADD12C,0.002600*%
%ADD13C,0.006000*%
%ADD14C,0.002000*%
%ADD15C,0.007500*%
%ADD16C,0.010000*%
G04 APERTURE END LIST*
G54D10*
G54D11*
X31150Y-26250D02*
X30950Y-25950D01*
X30950Y-25950D02*
X30850Y-26050D01*
X30850Y-26050D02*
X31150Y-26250D01*
X34730Y-28940D02*
X34280Y-28940D01*
X34730Y-26760D02*
X34290Y-26760D01*
X34730Y-28940D02*
X34730Y-26760D01*
X33850Y-29410D02*
X33850Y-29840D01*
X31640Y-29420D02*
X31640Y-29840D01*
X31630Y-29840D02*
X33850Y-29850D01*
X31650Y-25870D02*
X33820Y-25860D01*
X31220Y-26560D02*
X31220Y-29390D01*
X33830Y-25870D02*
X33830Y-26280D01*
X31470Y-26320D02*
X34250Y-26320D01*
X34270Y-29400D02*
X34270Y-26360D01*
X31220Y-29400D02*
X34220Y-29400D01*
X30770Y-26730D02*
X30770Y-28950D01*
X30770Y-28950D02*
X31220Y-28950D01*
X31224Y-26550D02*
X31454Y-26320D01*
X30772Y-26730D02*
X31224Y-26730D01*
X31650Y-26320D02*
X31650Y-25868D01*
X31820Y-26724D02*
X31816Y-26760D01*
X31805Y-26795D01*
X31788Y-26828D01*
X31765Y-26856D01*
X31737Y-26879D01*
X31704Y-26897D01*
X31669Y-26908D01*
X31633Y-26911D01*
X31597Y-26908D01*
X31562Y-26898D01*
X31530Y-26881D01*
X31501Y-26858D01*
X31477Y-26830D01*
X31460Y-26798D01*
X31449Y-26763D01*
X31445Y-26726D01*
X31448Y-26691D01*
X31458Y-26655D01*
X31474Y-26623D01*
X31497Y-26594D01*
X31525Y-26570D01*
X31557Y-26552D01*
X31592Y-26541D01*
X31629Y-26537D01*
X31664Y-26539D01*
X31699Y-26549D01*
X31732Y-26566D01*
X31761Y-26588D01*
X31785Y-26616D01*
X31803Y-26648D01*
X31815Y-26683D01*
X31819Y-26719D01*
X31820Y-26724D01*
G54D12*
X39710Y-30225D02*
X39965Y-30225D01*
X39965Y-30225D02*
X39965Y-29674D01*
X39710Y-29674D02*
X39965Y-29674D01*
X39710Y-30225D02*
X39710Y-29674D01*
X39130Y-30225D02*
X39386Y-30225D01*
X39386Y-30225D02*
X39386Y-29674D01*
X39130Y-29674D02*
X39386Y-29674D01*
X39130Y-30225D02*
X39130Y-29674D01*
X39472Y-30146D02*
X39628Y-30146D01*
X39628Y-30146D02*
X39628Y-29754D01*
X39472Y-29754D02*
X39628Y-29754D01*
X39472Y-30146D02*
X39472Y-29754D01*
G54D13*
X39389Y-29700D02*
X39711Y-29700D01*
X39389Y-30200D02*
X39711Y-30200D01*
G54D14*
X38774Y-29563D02*
X40326Y-29563D01*
X40326Y-29563D02*
X40326Y-30337D01*
X40326Y-30337D02*
X38774Y-30337D01*
X38774Y-30337D02*
X38774Y-29563D01*
G54D12*
X26610Y-31125D02*
X26865Y-31125D01*
X26865Y-31125D02*
X26865Y-30574D01*
X26610Y-30574D02*
X26865Y-30574D01*
X26610Y-31125D02*
X26610Y-30574D01*
X26030Y-31125D02*
X26286Y-31125D01*
X26286Y-31125D02*
X26286Y-30574D01*
X26030Y-30574D02*
X26286Y-30574D01*
X26030Y-31125D02*
X26030Y-30574D01*
X26372Y-31046D02*
X26528Y-31046D01*
X26528Y-31046D02*
X26528Y-30654D01*
X26372Y-30654D02*
X26528Y-30654D01*
X26372Y-31046D02*
X26372Y-30654D01*
G54D13*
X26289Y-30600D02*
X26611Y-30600D01*
X26289Y-31100D02*
X26611Y-31100D01*
G54D14*
X25674Y-30463D02*
X27226Y-30463D01*
X27226Y-30463D02*
X27226Y-31237D01*
X27226Y-31237D02*
X25674Y-31237D01*
X25674Y-31237D02*
X25674Y-30463D01*
G54D12*
X39510Y-31125D02*
X39765Y-31125D01*
X39765Y-31125D02*
X39765Y-30574D01*
X39510Y-30574D02*
X39765Y-30574D01*
X39510Y-31125D02*
X39510Y-30574D01*
X38930Y-31125D02*
X39186Y-31125D01*
X39186Y-31125D02*
X39186Y-30574D01*
X38930Y-30574D02*
X39186Y-30574D01*
X38930Y-31125D02*
X38930Y-30574D01*
X39272Y-31046D02*
X39428Y-31046D01*
X39428Y-31046D02*
X39428Y-30654D01*
X39272Y-30654D02*
X39428Y-30654D01*
X39272Y-31046D02*
X39272Y-30654D01*
G54D13*
X39189Y-30600D02*
X39511Y-30600D01*
X39189Y-31100D02*
X39511Y-31100D01*
G54D14*
X38574Y-30463D02*
X40126Y-30463D01*
X40126Y-30463D02*
X40126Y-31237D01*
X40126Y-31237D02*
X38574Y-31237D01*
X38574Y-31237D02*
X38574Y-30463D01*
G54D11*
X28669Y-32515D02*
X28527Y-32656D01*
X28527Y-32656D02*
X28209Y-32338D01*
X28209Y-32338D02*
X28174Y-32303D01*
X28174Y-32303D02*
X28315Y-32161D01*
X26428Y-33010D02*
X27820Y-31618D01*
X27820Y-31618D02*
X29212Y-33010D01*
X29212Y-33010D02*
X27820Y-34402D01*
X27820Y-34402D02*
X26428Y-33010D01*
X26780Y-28140D02*
X26580Y-28140D01*
X26580Y-28140D02*
X26580Y-27690D01*
X26580Y-27690D02*
X26580Y-27640D01*
X26580Y-27640D02*
X26780Y-27640D01*
X24846Y-26906D02*
X26814Y-26906D01*
X26814Y-26906D02*
X26814Y-28874D01*
X26814Y-28874D02*
X24846Y-28874D01*
X24846Y-28874D02*
X24846Y-26906D01*
X28485Y-23809D02*
X28344Y-23667D01*
X28344Y-23667D02*
X28662Y-23349D01*
X28662Y-23349D02*
X28697Y-23314D01*
X28697Y-23314D02*
X28839Y-23455D01*
X27990Y-21568D02*
X29382Y-22960D01*
X29382Y-22960D02*
X27990Y-24352D01*
X27990Y-24352D02*
X26598Y-22960D01*
X26598Y-22960D02*
X27990Y-21568D01*
X32600Y-21940D02*
X32600Y-21740D01*
X32600Y-21740D02*
X33050Y-21740D01*
X33050Y-21740D02*
X33100Y-21740D01*
X33100Y-21740D02*
X33100Y-21940D01*
X33834Y-20006D02*
X33834Y-21974D01*
X33834Y-21974D02*
X31866Y-21974D01*
X31866Y-21974D02*
X31866Y-20006D01*
X31866Y-20006D02*
X33834Y-20006D01*
X36991Y-23465D02*
X37133Y-23324D01*
X37133Y-23324D02*
X37451Y-23642D01*
X37451Y-23642D02*
X37486Y-23677D01*
X37486Y-23677D02*
X37345Y-23819D01*
X39232Y-22970D02*
X37840Y-24362D01*
X37840Y-24362D02*
X36448Y-22970D01*
X36448Y-22970D02*
X37840Y-21578D01*
X37840Y-21578D02*
X39232Y-22970D01*
X39000Y-27650D02*
X39200Y-27650D01*
X39200Y-27650D02*
X39200Y-28100D01*
X39200Y-28100D02*
X39200Y-28150D01*
X39200Y-28150D02*
X39000Y-28150D01*
X40934Y-28884D02*
X38966Y-28884D01*
X38966Y-28884D02*
X38966Y-26916D01*
X38966Y-26916D02*
X40934Y-26916D01*
X40934Y-26916D02*
X40934Y-28884D01*
X37405Y-32231D02*
X37546Y-32373D01*
X37546Y-32373D02*
X37228Y-32691D01*
X37228Y-32691D02*
X37193Y-32726D01*
X37193Y-32726D02*
X37051Y-32585D01*
X37900Y-34472D02*
X36508Y-33080D01*
X36508Y-33080D02*
X37900Y-31688D01*
X37900Y-31688D02*
X39292Y-33080D01*
X39292Y-33080D02*
X37900Y-34472D01*
X33100Y-34150D02*
X33100Y-34350D01*
X33100Y-34350D02*
X32650Y-34350D01*
X32650Y-34350D02*
X32600Y-34350D01*
X32600Y-34350D02*
X32600Y-34150D01*
X31866Y-36084D02*
X31866Y-34116D01*
X31866Y-34116D02*
X33834Y-34116D01*
X33834Y-34116D02*
X33834Y-36084D01*
X33834Y-36084D02*
X31866Y-36084D01*
G54D12*
X26410Y-30225D02*
X26665Y-30225D01*
X26665Y-30225D02*
X26665Y-29674D01*
X26410Y-29674D02*
X26665Y-29674D01*
X26410Y-30225D02*
X26410Y-29674D01*
X25830Y-30225D02*
X26086Y-30225D01*
X26086Y-30225D02*
X26086Y-29674D01*
X25830Y-29674D02*
X26086Y-29674D01*
X25830Y-30225D02*
X25830Y-29674D01*
X26172Y-30146D02*
X26328Y-30146D01*
X26328Y-30146D02*
X26328Y-29754D01*
X26172Y-29754D02*
X26328Y-29754D01*
X26172Y-30146D02*
X26172Y-29754D01*
G54D13*
X26089Y-29700D02*
X26411Y-29700D01*
X26089Y-30200D02*
X26411Y-30200D01*
G54D14*
X25474Y-29563D02*
X27026Y-29563D01*
X27026Y-29563D02*
X27026Y-30337D01*
X27026Y-30337D02*
X25474Y-30337D01*
X25474Y-30337D02*
X25474Y-29563D01*
G54D15*
X38200Y-30071D02*
X38100Y-29929D01*
X38028Y-30071D02*
X38028Y-29771D01*
X38143Y-29771D01*
X38171Y-29786D01*
X38186Y-29800D01*
X38200Y-29829D01*
X38200Y-29871D01*
X38186Y-29900D01*
X38171Y-29914D01*
X38143Y-29929D01*
X38028Y-29929D01*
X38486Y-30071D02*
X38314Y-30071D01*
X38400Y-30071D02*
X38400Y-29771D01*
X38371Y-29814D01*
X38343Y-29843D01*
X38314Y-29857D01*
X27600Y-30971D02*
X27500Y-30829D01*
X27428Y-30971D02*
X27428Y-30671D01*
X27543Y-30671D01*
X27571Y-30686D01*
X27586Y-30700D01*
X27600Y-30729D01*
X27600Y-30771D01*
X27586Y-30800D01*
X27571Y-30814D01*
X27543Y-30829D01*
X27428Y-30829D01*
X27714Y-30700D02*
X27728Y-30686D01*
X27757Y-30671D01*
X27828Y-30671D01*
X27857Y-30686D01*
X27871Y-30700D01*
X27886Y-30729D01*
X27886Y-30757D01*
X27871Y-30800D01*
X27700Y-30971D01*
X27886Y-30971D01*
X38000Y-30971D02*
X37900Y-30829D01*
X37828Y-30971D02*
X37828Y-30671D01*
X37943Y-30671D01*
X37971Y-30686D01*
X37986Y-30700D01*
X38000Y-30729D01*
X38000Y-30771D01*
X37986Y-30800D01*
X37971Y-30814D01*
X37943Y-30829D01*
X37828Y-30829D01*
X38257Y-30771D02*
X38257Y-30971D01*
X38186Y-30657D02*
X38114Y-30871D01*
X38300Y-30871D01*
G54D16*
X27746Y-33343D02*
X27463Y-33060D01*
X27530Y-32993D01*
X27585Y-32966D01*
X27638Y-32966D01*
X27679Y-32979D01*
X27746Y-33019D01*
X27786Y-33060D01*
X27827Y-33127D01*
X27841Y-33168D01*
X27841Y-33222D01*
X27813Y-33276D01*
X27746Y-33343D01*
X27907Y-32858D02*
X27867Y-32872D01*
X27840Y-32872D01*
X27800Y-32858D01*
X27786Y-32845D01*
X27773Y-32804D01*
X27773Y-32777D01*
X27786Y-32737D01*
X27841Y-32683D01*
X27881Y-32669D01*
X27908Y-32669D01*
X27948Y-32683D01*
X27962Y-32696D01*
X27975Y-32736D01*
X27975Y-32763D01*
X27962Y-32804D01*
X27907Y-32858D01*
X27894Y-32898D01*
X27894Y-32925D01*
X27908Y-32966D01*
X27962Y-33020D01*
X28002Y-33033D01*
X28029Y-33033D01*
X28069Y-33020D01*
X28124Y-32966D01*
X28137Y-32925D01*
X28137Y-32898D01*
X28124Y-32858D01*
X28070Y-32804D01*
X28029Y-32790D01*
X28002Y-32790D01*
X27962Y-32804D01*
X25565Y-28042D02*
X25565Y-27642D01*
X25660Y-27642D01*
X25718Y-27661D01*
X25756Y-27699D01*
X25775Y-27737D01*
X25794Y-27813D01*
X25794Y-27870D01*
X25775Y-27947D01*
X25756Y-27985D01*
X25718Y-28023D01*
X25660Y-28042D01*
X25565Y-28042D01*
X25927Y-27642D02*
X26194Y-27642D01*
X26022Y-28042D01*
X27657Y-22826D02*
X27940Y-22543D01*
X28007Y-22610D01*
X28034Y-22665D01*
X28034Y-22718D01*
X28021Y-22759D01*
X27981Y-22826D01*
X27940Y-22866D01*
X27873Y-22907D01*
X27832Y-22921D01*
X27778Y-22921D01*
X27724Y-22893D01*
X27657Y-22826D01*
X28344Y-22948D02*
X28290Y-22893D01*
X28249Y-22880D01*
X28223Y-22880D01*
X28155Y-22893D01*
X28088Y-22933D01*
X27980Y-23042D01*
X27967Y-23082D01*
X27967Y-23109D01*
X27980Y-23149D01*
X28034Y-23204D01*
X28075Y-23217D01*
X28102Y-23217D01*
X28142Y-23204D01*
X28210Y-23136D01*
X28223Y-23095D01*
X28223Y-23068D01*
X28210Y-23028D01*
X28155Y-22974D01*
X28115Y-22960D01*
X28088Y-22960D01*
X28048Y-22974D01*
X32962Y-21275D02*
X32562Y-21275D01*
X32562Y-21180D01*
X32581Y-21122D01*
X32619Y-21084D01*
X32657Y-21065D01*
X32733Y-21046D01*
X32790Y-21046D01*
X32867Y-21065D01*
X32905Y-21084D01*
X32943Y-21122D01*
X32962Y-21180D01*
X32962Y-21275D01*
X32562Y-20684D02*
X32562Y-20875D01*
X32752Y-20894D01*
X32733Y-20875D01*
X32714Y-20837D01*
X32714Y-20741D01*
X32733Y-20703D01*
X32752Y-20684D01*
X32790Y-20665D01*
X32886Y-20665D01*
X32924Y-20684D01*
X32943Y-20703D01*
X32962Y-20741D01*
X32962Y-20837D01*
X32943Y-20875D01*
X32924Y-20894D01*
X37686Y-23263D02*
X37403Y-22980D01*
X37470Y-22913D01*
X37525Y-22886D01*
X37578Y-22886D01*
X37619Y-22899D01*
X37686Y-22939D01*
X37726Y-22980D01*
X37767Y-23047D01*
X37781Y-23088D01*
X37781Y-23142D01*
X37753Y-23196D01*
X37686Y-23263D01*
X37902Y-22670D02*
X38090Y-22859D01*
X37726Y-22630D02*
X37861Y-22900D01*
X38037Y-22724D01*
X39655Y-28022D02*
X39655Y-27622D01*
X39750Y-27622D01*
X39808Y-27641D01*
X39846Y-27679D01*
X39865Y-27717D01*
X39884Y-27793D01*
X39884Y-27850D01*
X39865Y-27927D01*
X39846Y-27965D01*
X39808Y-28003D01*
X39750Y-28022D01*
X39655Y-28022D01*
X40017Y-27622D02*
X40265Y-27622D01*
X40131Y-27774D01*
X40189Y-27774D01*
X40227Y-27793D01*
X40246Y-27812D01*
X40265Y-27850D01*
X40265Y-27946D01*
X40246Y-27984D01*
X40227Y-28003D01*
X40189Y-28022D01*
X40074Y-28022D01*
X40036Y-28003D01*
X40017Y-27984D01*
X37577Y-32966D02*
X37860Y-32683D01*
X37927Y-32750D01*
X37954Y-32805D01*
X37954Y-32858D01*
X37941Y-32899D01*
X37901Y-32966D01*
X37860Y-33006D01*
X37793Y-33047D01*
X37752Y-33061D01*
X37698Y-33061D01*
X37644Y-33033D01*
X37577Y-32966D01*
X38102Y-32979D02*
X38129Y-32979D01*
X38169Y-32993D01*
X38237Y-33061D01*
X38251Y-33101D01*
X38251Y-33128D01*
X38237Y-33168D01*
X38210Y-33195D01*
X38157Y-33222D01*
X37833Y-33222D01*
X38008Y-33397D01*
X33042Y-35405D02*
X32642Y-35405D01*
X32642Y-35310D01*
X32661Y-35252D01*
X32699Y-35214D01*
X32737Y-35195D01*
X32813Y-35176D01*
X32870Y-35176D01*
X32947Y-35195D01*
X32985Y-35214D01*
X33023Y-35252D01*
X33042Y-35310D01*
X33042Y-35405D01*
X33042Y-34795D02*
X33042Y-35024D01*
X33042Y-34910D02*
X32642Y-34910D01*
X32699Y-34948D01*
X32737Y-34986D01*
X32756Y-35024D01*
G54D15*
X27400Y-30071D02*
X27300Y-29929D01*
X27228Y-30071D02*
X27228Y-29771D01*
X27343Y-29771D01*
X27371Y-29786D01*
X27386Y-29800D01*
X27400Y-29829D01*
X27400Y-29871D01*
X27386Y-29900D01*
X27371Y-29914D01*
X27343Y-29929D01*
X27228Y-29929D01*
X27671Y-29771D02*
X27528Y-29771D01*
X27514Y-29914D01*
X27528Y-29900D01*
X27557Y-29886D01*
X27628Y-29886D01*
X27657Y-29900D01*
X27671Y-29914D01*
X27686Y-29943D01*
X27686Y-30014D01*
X27671Y-30043D01*
X27657Y-30057D01*
X27628Y-30071D01*
X27557Y-30071D01*
X27528Y-30057D01*
X27514Y-30043D01*
M02*
