M48
METRIC,TZ
T1C0.330
T2C0.508
T3C0.750
T4C1.016
T5C2.100
%
G90
G05
T1
X063400Y-066400
X064850Y-064950
X066100Y-077100
X066100Y-079200
X066100Y-081600
X066450Y-063350
X067000Y-075300
X068500Y-062500
X072500Y-053400
X074600Y-053400
X074727Y-086097
X075427Y-087697
X077050Y-053400
X077227Y-088997
X078700Y-054400
X078827Y-090397
X081827Y-083897
X081900Y-062000
X082200Y-063300
X083100Y-062000
X083327Y-085497
X087000Y-074600
X087600Y-051000
X088400Y-053400
X089850Y-054850
X091200Y-056200
X097600Y-078800
X099300Y-066200
X099350Y-076950
X099950Y-061450
X100000Y-059400
X100000Y-063550
X101450Y-074900
X103000Y-074900
T2
X063120Y-073139
X063750Y-070800
X067227Y-058297
X069428Y-057128
X069628Y-084572
X070761Y-086684
X080785Y-050674
X083200Y-051350
X083200Y-090150
X085585Y-090804
X087100Y-066500
X095609Y-054921
X096872Y-057028
X096972Y-084472
X099003Y-083290
X102550Y-070800
X103250Y-068339
T3
X073017Y-066302
X073017Y-067572
X073017Y-068842
X073017Y-070112
X073017Y-071382
X073017Y-072652
X073017Y-073922
X073017Y-075192
X078732Y-060587
X078732Y-080907
X080002Y-060587
X080002Y-080907
X081272Y-060587
X081272Y-080907
X082542Y-060587
X082542Y-080907
X083812Y-060587
X083812Y-080907
X085082Y-060587
X085082Y-080907
X086352Y-060587
X086352Y-080907
X087622Y-060587
X087622Y-080907
X093337Y-066302
X093337Y-067572
X093337Y-068842
X093337Y-070112
X093337Y-071382
X093337Y-072652
X093337Y-073922
X093337Y-075192
T4
X076750Y-057900
X079290Y-057900
X081830Y-057900
X081915Y-068199
X081915Y-070739
X081915Y-073279
X084370Y-057900
X084455Y-068199
X084455Y-070739
X084455Y-073279
X086910Y-057900
X089450Y-057900
T5
X076327Y-063897
X076327Y-077597
X090027Y-063897
X090027Y-077597
T0
M30
