G04 (created by PCBNEW-RS274X (2011-07-08)-stable) date Wed 21 Dec 2011 04:38:23 PM CET*
G01*
G70*
G90*
%MOIN*%
G04 Gerber Fmt 3.4, Leading zero omitted, Abs format*
%FSLAX34Y34*%
G04 APERTURE LIST*
%ADD10C,0.006000*%
%ADD11C,0.015000*%
%ADD12R,0.068000X0.068000*%
%ADD13C,0.068000*%
%ADD14R,0.031600X0.094600*%
%ADD15R,0.094600X0.031600*%
%ADD16C,0.168000*%
%ADD17R,0.067000X0.059100*%
%ADD18R,0.078800X0.070900*%
%ADD19R,0.059100X0.067000*%
%ADD20R,0.055200X0.055200*%
%ADD21R,0.067100X0.071000*%
%ADD22R,0.071000X0.067100*%
%ADD23R,0.063000X0.063000*%
%ADD24C,0.063000*%
G04 APERTURE END LIST*
G54D10*
G54D11*
X32750Y-19300D02*
X32005Y-19333D01*
X31266Y-19430D01*
X30538Y-19592D01*
X29826Y-19816D01*
X29137Y-20102D01*
X28476Y-20446D01*
X27846Y-20847D01*
X27255Y-21301D01*
X26705Y-21805D01*
X26201Y-22355D01*
X25747Y-22946D01*
X25346Y-23576D01*
X25002Y-24237D01*
X24716Y-24926D01*
X24492Y-25638D01*
X24330Y-26366D01*
X24233Y-27105D01*
X24200Y-27850D01*
X24200Y-27850D02*
X24233Y-28595D01*
X24330Y-29334D01*
X24492Y-30062D01*
X24716Y-30774D01*
X25002Y-31463D01*
X25346Y-32124D01*
X25747Y-32754D01*
X26201Y-33345D01*
X26705Y-33895D01*
X27255Y-34399D01*
X27846Y-34853D01*
X28476Y-35254D01*
X29137Y-35598D01*
X29826Y-35884D01*
X30538Y-36108D01*
X31266Y-36270D01*
X32005Y-36367D01*
X32750Y-36400D01*
X32750Y-36400D02*
X33495Y-36367D01*
X34234Y-36270D01*
X34962Y-36108D01*
X35674Y-35884D01*
X36363Y-35598D01*
X37025Y-35254D01*
X37654Y-34853D01*
X38245Y-34399D01*
X38795Y-33895D01*
X39299Y-33345D01*
X39753Y-32754D01*
X40154Y-32124D01*
X40498Y-31463D01*
X40784Y-30774D01*
X41008Y-30062D01*
X41170Y-29334D01*
X41267Y-28595D01*
X41300Y-27850D01*
X41300Y-27850D02*
X41267Y-27105D01*
X41170Y-26366D01*
X41008Y-25638D01*
X40784Y-24926D01*
X40498Y-24237D01*
X40154Y-23576D01*
X39753Y-22946D01*
X39299Y-22355D01*
X38795Y-21805D01*
X38245Y-21301D01*
X37654Y-20847D01*
X37025Y-20446D01*
X36363Y-20102D01*
X35674Y-19816D01*
X34962Y-19592D01*
X34234Y-19430D01*
X33495Y-19333D01*
X32750Y-19300D01*
G54D12*
X33250Y-26850D03*
G54D13*
X32250Y-26850D03*
X33250Y-27850D03*
X32250Y-27850D03*
X33250Y-28850D03*
X32250Y-28850D03*
G54D14*
X36650Y-26827D03*
X37150Y-26827D03*
X37650Y-26827D03*
X38150Y-26827D03*
X38650Y-26827D03*
X39150Y-26827D03*
X39650Y-26827D03*
X40150Y-26827D03*
X40150Y-28873D03*
X39650Y-28873D03*
X39150Y-28873D03*
X38650Y-28873D03*
X38150Y-28873D03*
X37650Y-28873D03*
X37150Y-28873D03*
X36650Y-28873D03*
X28800Y-28873D03*
X28300Y-28873D03*
X27800Y-28873D03*
X27300Y-28873D03*
X26800Y-28873D03*
X26300Y-28873D03*
X25800Y-28873D03*
X25300Y-28873D03*
X25300Y-26827D03*
X25800Y-26827D03*
X26300Y-26827D03*
X26800Y-26827D03*
X27300Y-26827D03*
X27800Y-26827D03*
X28300Y-26827D03*
X28800Y-26827D03*
G54D15*
X33773Y-31800D03*
X33773Y-32300D03*
X33773Y-32800D03*
X33773Y-33300D03*
X33773Y-33800D03*
X33773Y-34300D03*
X33773Y-34800D03*
X33773Y-35300D03*
X31727Y-35300D03*
X31727Y-34800D03*
X31727Y-34300D03*
X31727Y-33800D03*
X31727Y-33300D03*
X31727Y-32800D03*
X31727Y-32300D03*
X31727Y-31800D03*
G54D10*
G36*
X27414Y-33759D02*
X26941Y-33286D01*
X27358Y-32869D01*
X27831Y-33342D01*
X27414Y-33759D01*
X27414Y-33759D01*
G37*
G36*
X27942Y-33231D02*
X27469Y-32758D01*
X27886Y-32341D01*
X28359Y-32814D01*
X27942Y-33231D01*
X27942Y-33231D01*
G37*
G54D16*
X30050Y-25150D03*
X35450Y-25150D03*
X30050Y-30550D03*
X35450Y-30550D03*
G54D17*
X31950Y-24176D03*
X31950Y-24924D03*
G54D18*
X33500Y-23999D03*
X33500Y-25101D03*
G54D19*
X32376Y-20000D03*
X33124Y-20000D03*
G54D20*
X32041Y-30844D03*
X32041Y-30056D03*
G54D21*
X33321Y-30450D03*
G54D20*
X34906Y-27141D03*
X35694Y-27141D03*
G54D22*
X35300Y-28421D03*
G54D20*
X29756Y-27141D03*
X30544Y-27141D03*
G54D22*
X30150Y-28421D03*
G54D23*
X30250Y-22250D03*
G54D24*
X31250Y-22250D03*
X32250Y-22250D03*
X33250Y-22250D03*
X34250Y-22250D03*
X35250Y-22250D03*
G54D10*
G36*
X27239Y-25856D02*
X26794Y-25411D01*
X27239Y-24966D01*
X27684Y-25411D01*
X27239Y-25856D01*
X27239Y-25856D01*
G37*
G54D24*
X27946Y-24704D03*
X28654Y-23996D03*
X29361Y-23289D03*
G54D10*
G36*
X38656Y-25411D02*
X38211Y-25856D01*
X37766Y-25411D01*
X38211Y-24966D01*
X38656Y-25411D01*
X38656Y-25411D01*
G37*
G54D24*
X37504Y-24704D03*
X36796Y-23996D03*
X36089Y-23289D03*
M02*
