G04 (created by PCBNEW (2013-01-21 BZR 3918)-testing) date Wed 23 Jan 2013 08:24:13 PM CET*
%MOIN*%
G04 Gerber Fmt 3.4, Leading zero omitted, Abs format*
%FSLAX34Y34*%
G01*
G70*
G90*
G04 APERTURE LIST*
%ADD10C,2.3622e-06*%
%ADD11C,0.1654*%
%ADD12C,0.016*%
%ADD13R,0.055X0.055*%
%ADD14C,0.055*%
%ADD15R,0.06X0.06*%
%ADD16C,0.06*%
%ADD17R,0.0236X0.0866*%
%ADD18R,0.0866X0.0236*%
%ADD19R,0.0511X0.059*%
%ADD20R,0.0629X0.0708*%
%ADD21R,0.0472X0.0472*%
%ADD22R,0.0591X0.063*%
%ADD23R,0.063X0.0591*%
G04 APERTURE END LIST*
G54D10*
G54D11*
X35450Y-25150D03*
G54D12*
X38900Y-34000D03*
X39100Y-33800D03*
X38700Y-34200D03*
X26800Y-21500D03*
X26400Y-21900D03*
X26600Y-21700D03*
X26400Y-33800D03*
X26800Y-34200D03*
X26600Y-34000D03*
X39100Y-21900D03*
X38900Y-21700D03*
X38700Y-21500D03*
G54D13*
X33750Y-23250D03*
G54D14*
X32750Y-23250D03*
X31750Y-23250D03*
G54D11*
X35450Y-30550D03*
X30050Y-25150D03*
X30050Y-30550D03*
G54D15*
X33250Y-26850D03*
G54D16*
X32250Y-26850D03*
X33250Y-27850D03*
X32250Y-27850D03*
X33250Y-28850D03*
X32250Y-28850D03*
G54D17*
X36650Y-26827D03*
X37150Y-26827D03*
X37650Y-26827D03*
X38150Y-26827D03*
X38650Y-26827D03*
X39150Y-26827D03*
X39650Y-26827D03*
X40150Y-26827D03*
X40150Y-28873D03*
X39650Y-28873D03*
X39150Y-28873D03*
X38650Y-28873D03*
X38150Y-28873D03*
X37650Y-28873D03*
X37150Y-28873D03*
X36650Y-28873D03*
X28800Y-28873D03*
X28300Y-28873D03*
X27800Y-28873D03*
X27300Y-28873D03*
X26800Y-28873D03*
X26300Y-28873D03*
X25800Y-28873D03*
X25300Y-28873D03*
X25300Y-26827D03*
X25800Y-26827D03*
X26300Y-26827D03*
X26800Y-26827D03*
X27300Y-26827D03*
X27800Y-26827D03*
X28300Y-26827D03*
X28800Y-26827D03*
G54D18*
X33773Y-31800D03*
X33773Y-32300D03*
X33773Y-32800D03*
X33773Y-33300D03*
X33773Y-33800D03*
X33773Y-34300D03*
X33773Y-34800D03*
X33773Y-35300D03*
X31727Y-35300D03*
X31727Y-34800D03*
X31727Y-34300D03*
X31727Y-33800D03*
X31727Y-33300D03*
X31727Y-32800D03*
X31727Y-32300D03*
X31727Y-31800D03*
G54D10*
G36*
X27413Y-33703D02*
X26996Y-33286D01*
X27357Y-32925D01*
X27774Y-33342D01*
X27413Y-33703D01*
X27413Y-33703D01*
G37*
G36*
X27942Y-33174D02*
X27525Y-32757D01*
X27886Y-32396D01*
X28303Y-32813D01*
X27942Y-33174D01*
X27942Y-33174D01*
G37*
G54D19*
X32376Y-25100D03*
X33124Y-25100D03*
G54D20*
X32199Y-24150D03*
X33301Y-24150D03*
G54D19*
X32376Y-20000D03*
X33124Y-20000D03*
G54D21*
X32041Y-30844D03*
X32041Y-30056D03*
G54D22*
X33321Y-30450D03*
G54D21*
X34906Y-27141D03*
X35694Y-27141D03*
G54D23*
X35300Y-28421D03*
G54D21*
X29756Y-27141D03*
X30544Y-27141D03*
G54D23*
X30150Y-28421D03*
G54D10*
G36*
X38634Y-25410D02*
X38210Y-25834D01*
X37786Y-25410D01*
X38210Y-24986D01*
X38634Y-25410D01*
X38634Y-25410D01*
G37*
G54D16*
X37503Y-24703D03*
X36796Y-23996D03*
X36089Y-23289D03*
G54D10*
G36*
X27239Y-25834D02*
X26815Y-25410D01*
X27239Y-24986D01*
X27663Y-25410D01*
X27239Y-25834D01*
X27239Y-25834D01*
G37*
G54D16*
X27946Y-24703D03*
X28653Y-23996D03*
X29360Y-23289D03*
G54D15*
X30250Y-22250D03*
G54D16*
X31250Y-22250D03*
X32250Y-22250D03*
X33250Y-22250D03*
X34250Y-22250D03*
X35250Y-22250D03*
M02*
