G04 (created by PCBNEW-RS274X (2010-04-21 BZR 23xx)-stable) date Sun 05 Sep 2010 11:36:07 PM CEST*
G01*
G70*
G90*
%MOIN*%
G04 Gerber Fmt 3.4, Leading zero omitted, Abs format*
%FSLAX34Y34*%
G04 APERTURE LIST*
%ADD10C,0.001000*%
%ADD11C,0.010000*%
%ADD12C,0.008000*%
%ADD13C,0.007500*%
%ADD14C,0.015000*%
%ADD15C,0.012000*%
%ADD16C,0.002600*%
%ADD17C,0.002000*%
%ADD18C,0.004000*%
%ADD19C,0.006000*%
G04 APERTURE END LIST*
G54D10*
G54D11*
X28133Y-32162D02*
X28000Y-32562D01*
X27866Y-32162D01*
X27504Y-32524D02*
X27523Y-32543D01*
X27580Y-32562D01*
X27618Y-32562D01*
X27676Y-32543D01*
X27714Y-32505D01*
X27733Y-32467D01*
X27752Y-32390D01*
X27752Y-32333D01*
X27733Y-32257D01*
X27714Y-32219D01*
X27676Y-32181D01*
X27618Y-32162D01*
X27580Y-32162D01*
X27523Y-32181D01*
X27504Y-32200D01*
X27104Y-32524D02*
X27123Y-32543D01*
X27180Y-32562D01*
X27218Y-32562D01*
X27276Y-32543D01*
X27314Y-32505D01*
X27333Y-32467D01*
X27352Y-32390D01*
X27352Y-32333D01*
X27333Y-32257D01*
X27314Y-32219D01*
X27276Y-32181D01*
X27218Y-32162D01*
X27180Y-32162D01*
X27123Y-32181D01*
X27104Y-32200D01*
X28145Y-31562D02*
X28145Y-31162D01*
X27992Y-31162D01*
X27954Y-31181D01*
X27935Y-31200D01*
X27916Y-31238D01*
X27916Y-31295D01*
X27935Y-31333D01*
X27954Y-31352D01*
X27992Y-31371D01*
X28145Y-31371D01*
X27516Y-31524D02*
X27535Y-31543D01*
X27592Y-31562D01*
X27630Y-31562D01*
X27688Y-31543D01*
X27726Y-31505D01*
X27745Y-31467D01*
X27764Y-31390D01*
X27764Y-31333D01*
X27745Y-31257D01*
X27726Y-31219D01*
X27688Y-31181D01*
X27630Y-31162D01*
X27592Y-31162D01*
X27535Y-31181D01*
X27516Y-31200D01*
X27135Y-31562D02*
X27364Y-31562D01*
X27250Y-31562D02*
X27250Y-31162D01*
X27288Y-31219D01*
X27326Y-31257D01*
X27364Y-31276D01*
X38233Y-32162D02*
X38100Y-32562D01*
X37966Y-32162D01*
X37604Y-32524D02*
X37623Y-32543D01*
X37680Y-32562D01*
X37718Y-32562D01*
X37776Y-32543D01*
X37814Y-32505D01*
X37833Y-32467D01*
X37852Y-32390D01*
X37852Y-32333D01*
X37833Y-32257D01*
X37814Y-32219D01*
X37776Y-32181D01*
X37718Y-32162D01*
X37680Y-32162D01*
X37623Y-32181D01*
X37604Y-32200D01*
X37204Y-32524D02*
X37223Y-32543D01*
X37280Y-32562D01*
X37318Y-32562D01*
X37376Y-32543D01*
X37414Y-32505D01*
X37433Y-32467D01*
X37452Y-32390D01*
X37452Y-32333D01*
X37433Y-32257D01*
X37414Y-32219D01*
X37376Y-32181D01*
X37318Y-32162D01*
X37280Y-32162D01*
X37223Y-32181D01*
X37204Y-32200D01*
X38245Y-31562D02*
X38245Y-31162D01*
X38092Y-31162D01*
X38054Y-31181D01*
X38035Y-31200D01*
X38016Y-31238D01*
X38016Y-31295D01*
X38035Y-31333D01*
X38054Y-31352D01*
X38092Y-31371D01*
X38245Y-31371D01*
X37616Y-31524D02*
X37635Y-31543D01*
X37692Y-31562D01*
X37730Y-31562D01*
X37788Y-31543D01*
X37826Y-31505D01*
X37845Y-31467D01*
X37864Y-31390D01*
X37864Y-31333D01*
X37845Y-31257D01*
X37826Y-31219D01*
X37788Y-31181D01*
X37730Y-31162D01*
X37692Y-31162D01*
X37635Y-31181D01*
X37616Y-31200D01*
X37235Y-31562D02*
X37464Y-31562D01*
X37350Y-31562D02*
X37350Y-31162D01*
X37388Y-31219D01*
X37426Y-31257D01*
X37464Y-31276D01*
X38245Y-30562D02*
X38245Y-30162D01*
X38092Y-30162D01*
X38054Y-30181D01*
X38035Y-30200D01*
X38016Y-30238D01*
X38016Y-30295D01*
X38035Y-30333D01*
X38054Y-30352D01*
X38092Y-30371D01*
X38245Y-30371D01*
X37616Y-30524D02*
X37635Y-30543D01*
X37692Y-30562D01*
X37730Y-30562D01*
X37788Y-30543D01*
X37826Y-30505D01*
X37845Y-30467D01*
X37864Y-30390D01*
X37864Y-30333D01*
X37845Y-30257D01*
X37826Y-30219D01*
X37788Y-30181D01*
X37730Y-30162D01*
X37692Y-30162D01*
X37635Y-30181D01*
X37616Y-30200D01*
X37464Y-30200D02*
X37445Y-30181D01*
X37407Y-30162D01*
X37311Y-30162D01*
X37273Y-30181D01*
X37254Y-30200D01*
X37235Y-30238D01*
X37235Y-30276D01*
X37254Y-30333D01*
X37483Y-30562D01*
X37235Y-30562D01*
X38245Y-29562D02*
X38245Y-29162D01*
X38092Y-29162D01*
X38054Y-29181D01*
X38035Y-29200D01*
X38016Y-29238D01*
X38016Y-29295D01*
X38035Y-29333D01*
X38054Y-29352D01*
X38092Y-29371D01*
X38245Y-29371D01*
X37616Y-29524D02*
X37635Y-29543D01*
X37692Y-29562D01*
X37730Y-29562D01*
X37788Y-29543D01*
X37826Y-29505D01*
X37845Y-29467D01*
X37864Y-29390D01*
X37864Y-29333D01*
X37845Y-29257D01*
X37826Y-29219D01*
X37788Y-29181D01*
X37730Y-29162D01*
X37692Y-29162D01*
X37635Y-29181D01*
X37616Y-29200D01*
X37483Y-29162D02*
X37235Y-29162D01*
X37369Y-29314D01*
X37311Y-29314D01*
X37273Y-29333D01*
X37254Y-29352D01*
X37235Y-29390D01*
X37235Y-29486D01*
X37254Y-29524D01*
X37273Y-29543D01*
X37311Y-29562D01*
X37426Y-29562D01*
X37464Y-29543D01*
X37483Y-29524D01*
G54D12*
X33140Y-30662D02*
X33140Y-30262D01*
X32969Y-30643D02*
X32912Y-30662D01*
X32816Y-30662D01*
X32778Y-30643D01*
X32759Y-30624D01*
X32740Y-30586D01*
X32740Y-30548D01*
X32759Y-30510D01*
X32778Y-30490D01*
X32816Y-30471D01*
X32893Y-30452D01*
X32931Y-30433D01*
X32950Y-30414D01*
X32969Y-30376D01*
X32969Y-30338D01*
X32950Y-30300D01*
X32931Y-30281D01*
X32893Y-30262D01*
X32797Y-30262D01*
X32740Y-30281D01*
X32569Y-30662D02*
X32569Y-30262D01*
X32416Y-30262D01*
X32378Y-30281D01*
X32359Y-30300D01*
X32340Y-30338D01*
X32340Y-30395D01*
X32359Y-30433D01*
X32378Y-30452D01*
X32416Y-30471D01*
X32569Y-30471D01*
X30698Y-22660D02*
X31003Y-22660D01*
X30851Y-22812D02*
X30851Y-22507D01*
X36248Y-21560D02*
X36553Y-21560D01*
X36401Y-21712D02*
X36401Y-21407D01*
G54D11*
X28128Y-25162D02*
X27995Y-25562D01*
X27861Y-25162D01*
X27728Y-25562D02*
X27728Y-25295D01*
X27728Y-25162D02*
X27747Y-25181D01*
X27728Y-25200D01*
X27709Y-25181D01*
X27728Y-25162D01*
X27728Y-25200D01*
X38209Y-25162D02*
X38076Y-25562D01*
X37942Y-25162D01*
X37809Y-25562D02*
X37809Y-25295D01*
X37809Y-25162D02*
X37828Y-25181D01*
X37809Y-25200D01*
X37790Y-25181D01*
X37809Y-25162D01*
X37809Y-25200D01*
X37619Y-25295D02*
X37619Y-25562D01*
X37619Y-25333D02*
X37600Y-25314D01*
X37562Y-25295D01*
X37504Y-25295D01*
X37466Y-25314D01*
X37447Y-25352D01*
X37447Y-25562D01*
X35138Y-26107D02*
X35538Y-26107D01*
X35538Y-26012D01*
X35519Y-25954D01*
X35481Y-25916D01*
X35443Y-25897D01*
X35367Y-25878D01*
X35310Y-25878D01*
X35233Y-25897D01*
X35195Y-25916D01*
X35157Y-25954D01*
X35138Y-26012D01*
X35138Y-26107D01*
X35538Y-25764D02*
X35538Y-25535D01*
X35138Y-25650D02*
X35538Y-25650D01*
X35138Y-25173D02*
X35329Y-25307D01*
X35138Y-25402D02*
X35538Y-25402D01*
X35538Y-25249D01*
X35519Y-25211D01*
X35500Y-25192D01*
X35462Y-25173D01*
X35405Y-25173D01*
X35367Y-25192D01*
X35348Y-25211D01*
X35329Y-25249D01*
X35329Y-25402D01*
G54D13*
X36835Y-23300D02*
X36821Y-23286D01*
X36792Y-23271D01*
X36721Y-23271D01*
X36692Y-23286D01*
X36678Y-23300D01*
X36663Y-23329D01*
X36663Y-23357D01*
X36678Y-23400D01*
X36849Y-23571D01*
X36663Y-23571D01*
X36477Y-23271D02*
X36449Y-23271D01*
X36420Y-23286D01*
X36406Y-23300D01*
X36392Y-23329D01*
X36377Y-23386D01*
X36377Y-23457D01*
X36392Y-23514D01*
X36406Y-23543D01*
X36420Y-23557D01*
X36449Y-23571D01*
X36477Y-23571D01*
X36506Y-23557D01*
X36520Y-23543D01*
X36535Y-23514D01*
X36549Y-23457D01*
X36549Y-23386D01*
X36535Y-23329D01*
X36520Y-23300D01*
X36506Y-23286D01*
X36477Y-23271D01*
X36091Y-23571D02*
X36263Y-23571D01*
X36177Y-23571D02*
X36177Y-23271D01*
X36206Y-23314D01*
X36234Y-23343D01*
X36263Y-23357D01*
X35905Y-23271D02*
X35877Y-23271D01*
X35848Y-23286D01*
X35834Y-23300D01*
X35820Y-23329D01*
X35805Y-23386D01*
X35805Y-23457D01*
X35820Y-23514D01*
X35834Y-23543D01*
X35848Y-23557D01*
X35877Y-23571D01*
X35905Y-23571D01*
X35934Y-23557D01*
X35948Y-23543D01*
X35963Y-23514D01*
X35977Y-23457D01*
X35977Y-23386D01*
X35963Y-23329D01*
X35948Y-23300D01*
X35934Y-23286D01*
X35905Y-23271D01*
X35448Y-23457D02*
X35219Y-23457D01*
X34848Y-23571D02*
X34848Y-23271D01*
X34848Y-23386D02*
X34819Y-23371D01*
X34762Y-23371D01*
X34733Y-23386D01*
X34719Y-23400D01*
X34705Y-23429D01*
X34705Y-23514D01*
X34719Y-23543D01*
X34733Y-23557D01*
X34762Y-23571D01*
X34819Y-23571D01*
X34848Y-23557D01*
X34534Y-23571D02*
X34562Y-23557D01*
X34577Y-23529D01*
X34577Y-23271D01*
X34377Y-23571D02*
X34405Y-23557D01*
X34420Y-23543D01*
X34434Y-23514D01*
X34434Y-23429D01*
X34420Y-23400D01*
X34405Y-23386D01*
X34377Y-23371D01*
X34334Y-23371D01*
X34305Y-23386D01*
X34291Y-23400D01*
X34277Y-23429D01*
X34277Y-23514D01*
X34291Y-23543D01*
X34305Y-23557D01*
X34334Y-23571D01*
X34377Y-23571D01*
X34020Y-23371D02*
X34020Y-23614D01*
X34034Y-23643D01*
X34049Y-23657D01*
X34077Y-23671D01*
X34120Y-23671D01*
X34149Y-23657D01*
X34020Y-23557D02*
X34049Y-23571D01*
X34106Y-23571D01*
X34134Y-23557D01*
X34149Y-23543D01*
X34163Y-23514D01*
X34163Y-23429D01*
X34149Y-23400D01*
X34134Y-23386D01*
X34106Y-23371D01*
X34049Y-23371D01*
X34020Y-23386D01*
X33878Y-23543D02*
X33863Y-23557D01*
X33878Y-23571D01*
X33892Y-23557D01*
X33878Y-23543D01*
X33878Y-23571D01*
X33749Y-23557D02*
X33720Y-23571D01*
X33663Y-23571D01*
X33635Y-23557D01*
X33620Y-23529D01*
X33620Y-23514D01*
X33635Y-23486D01*
X33663Y-23471D01*
X33706Y-23471D01*
X33735Y-23457D01*
X33749Y-23429D01*
X33749Y-23414D01*
X33735Y-23386D01*
X33706Y-23371D01*
X33663Y-23371D01*
X33635Y-23386D01*
X33492Y-23371D02*
X33492Y-23671D01*
X33492Y-23386D02*
X33463Y-23371D01*
X33406Y-23371D01*
X33377Y-23386D01*
X33363Y-23400D01*
X33349Y-23429D01*
X33349Y-23514D01*
X33363Y-23543D01*
X33377Y-23557D01*
X33406Y-23571D01*
X33463Y-23571D01*
X33492Y-23557D01*
X33221Y-23571D02*
X33221Y-23371D01*
X33221Y-23271D02*
X33235Y-23286D01*
X33221Y-23300D01*
X33206Y-23286D01*
X33221Y-23271D01*
X33221Y-23300D01*
X33120Y-23371D02*
X33006Y-23371D01*
X33078Y-23271D02*
X33078Y-23529D01*
X33063Y-23557D01*
X33035Y-23571D01*
X33006Y-23571D01*
X32935Y-23371D02*
X32778Y-23371D01*
X32935Y-23571D01*
X32778Y-23571D01*
X32549Y-23557D02*
X32578Y-23571D01*
X32635Y-23571D01*
X32664Y-23557D01*
X32678Y-23529D01*
X32678Y-23414D01*
X32664Y-23386D01*
X32635Y-23371D01*
X32578Y-23371D01*
X32549Y-23386D01*
X32535Y-23414D01*
X32535Y-23443D01*
X32678Y-23471D01*
X32407Y-23371D02*
X32407Y-23571D01*
X32407Y-23400D02*
X32392Y-23386D01*
X32364Y-23371D01*
X32321Y-23371D01*
X32292Y-23386D01*
X32278Y-23414D01*
X32278Y-23571D01*
X32136Y-23371D02*
X32136Y-23671D01*
X32136Y-23386D02*
X32107Y-23371D01*
X32050Y-23371D01*
X32021Y-23386D01*
X32007Y-23400D01*
X31993Y-23429D01*
X31993Y-23514D01*
X32007Y-23543D01*
X32021Y-23557D01*
X32050Y-23571D01*
X32107Y-23571D01*
X32136Y-23557D01*
X31907Y-23371D02*
X31793Y-23371D01*
X31865Y-23571D02*
X31865Y-23314D01*
X31850Y-23286D01*
X31822Y-23271D01*
X31793Y-23271D01*
X31579Y-23557D02*
X31608Y-23571D01*
X31665Y-23571D01*
X31694Y-23557D01*
X31708Y-23529D01*
X31708Y-23414D01*
X31694Y-23386D01*
X31665Y-23371D01*
X31608Y-23371D01*
X31579Y-23386D01*
X31565Y-23414D01*
X31565Y-23443D01*
X31708Y-23471D01*
X31437Y-23571D02*
X31437Y-23371D01*
X31437Y-23271D02*
X31451Y-23286D01*
X31437Y-23300D01*
X31422Y-23286D01*
X31437Y-23271D01*
X31437Y-23300D01*
X31251Y-23571D02*
X31279Y-23557D01*
X31294Y-23529D01*
X31294Y-23271D01*
X31137Y-23543D02*
X31122Y-23557D01*
X31137Y-23571D01*
X31151Y-23557D01*
X31137Y-23543D01*
X31137Y-23571D01*
X30951Y-23571D02*
X30979Y-23557D01*
X30994Y-23543D01*
X31008Y-23514D01*
X31008Y-23429D01*
X30994Y-23400D01*
X30979Y-23386D01*
X30951Y-23371D01*
X30908Y-23371D01*
X30879Y-23386D01*
X30865Y-23400D01*
X30851Y-23429D01*
X30851Y-23514D01*
X30865Y-23543D01*
X30879Y-23557D01*
X30908Y-23571D01*
X30951Y-23571D01*
X30723Y-23571D02*
X30723Y-23371D01*
X30723Y-23429D02*
X30708Y-23400D01*
X30694Y-23386D01*
X30665Y-23371D01*
X30637Y-23371D01*
X30408Y-23371D02*
X30408Y-23614D01*
X30422Y-23643D01*
X30437Y-23657D01*
X30465Y-23671D01*
X30508Y-23671D01*
X30537Y-23657D01*
X30408Y-23557D02*
X30437Y-23571D01*
X30494Y-23571D01*
X30522Y-23557D01*
X30537Y-23543D01*
X30551Y-23514D01*
X30551Y-23429D01*
X30537Y-23400D01*
X30522Y-23386D01*
X30494Y-23371D01*
X30437Y-23371D01*
X30408Y-23386D01*
X30037Y-23457D02*
X29808Y-23457D01*
X29279Y-23571D02*
X29451Y-23571D01*
X29365Y-23571D02*
X29365Y-23271D01*
X29394Y-23314D01*
X29422Y-23343D01*
X29451Y-23357D01*
X29151Y-23543D02*
X29136Y-23557D01*
X29151Y-23571D01*
X29165Y-23557D01*
X29151Y-23543D01*
X29151Y-23571D01*
X29022Y-23300D02*
X29008Y-23286D01*
X28979Y-23271D01*
X28908Y-23271D01*
X28879Y-23286D01*
X28865Y-23300D01*
X28850Y-23329D01*
X28850Y-23357D01*
X28865Y-23400D01*
X29036Y-23571D01*
X28850Y-23571D01*
X28750Y-23271D02*
X28564Y-23271D01*
X28664Y-23386D01*
X28622Y-23386D01*
X28593Y-23400D01*
X28579Y-23414D01*
X28564Y-23443D01*
X28564Y-23514D01*
X28579Y-23543D01*
X28593Y-23557D01*
X28622Y-23571D01*
X28707Y-23571D01*
X28736Y-23557D01*
X28750Y-23543D01*
G54D14*
X25400Y-29820D02*
X25399Y-29821D01*
X25399Y-29823D01*
X25398Y-29825D01*
X25397Y-29827D01*
X25395Y-29828D01*
X25393Y-29829D01*
X25392Y-29829D01*
X25390Y-29829D01*
X25389Y-29829D01*
X25387Y-29829D01*
X25385Y-29828D01*
X25384Y-29827D01*
X25382Y-29825D01*
X25381Y-29823D01*
X25381Y-29822D01*
X25381Y-29820D01*
X25381Y-29819D01*
X25381Y-29817D01*
X25382Y-29815D01*
X25383Y-29814D01*
X25385Y-29812D01*
X25386Y-29811D01*
X25388Y-29811D01*
X25390Y-29811D01*
X25391Y-29811D01*
X25393Y-29811D01*
X25395Y-29812D01*
X25396Y-29813D01*
X25398Y-29815D01*
X25399Y-29816D01*
X25399Y-29818D01*
X25399Y-29820D01*
X25400Y-29820D01*
X25580Y-29820D02*
X25579Y-29821D01*
X25579Y-29823D01*
X25578Y-29825D01*
X25577Y-29827D01*
X25575Y-29828D01*
X25573Y-29829D01*
X25572Y-29829D01*
X25570Y-29829D01*
X25569Y-29829D01*
X25567Y-29829D01*
X25565Y-29828D01*
X25564Y-29827D01*
X25562Y-29825D01*
X25561Y-29823D01*
X25561Y-29822D01*
X25561Y-29820D01*
X25561Y-29819D01*
X25561Y-29817D01*
X25562Y-29815D01*
X25563Y-29814D01*
X25565Y-29812D01*
X25566Y-29811D01*
X25568Y-29811D01*
X25570Y-29811D01*
X25571Y-29811D01*
X25573Y-29811D01*
X25575Y-29812D01*
X25576Y-29813D01*
X25578Y-29815D01*
X25579Y-29816D01*
X25579Y-29818D01*
X25579Y-29820D01*
X25580Y-29820D01*
X26300Y-29820D02*
X26299Y-29821D01*
X26299Y-29823D01*
X26298Y-29825D01*
X26297Y-29827D01*
X26295Y-29828D01*
X26293Y-29829D01*
X26292Y-29829D01*
X26290Y-29829D01*
X26289Y-29829D01*
X26287Y-29829D01*
X26285Y-29828D01*
X26284Y-29827D01*
X26282Y-29825D01*
X26281Y-29823D01*
X26281Y-29822D01*
X26281Y-29820D01*
X26281Y-29819D01*
X26281Y-29817D01*
X26282Y-29815D01*
X26283Y-29814D01*
X26285Y-29812D01*
X26286Y-29811D01*
X26288Y-29811D01*
X26290Y-29811D01*
X26291Y-29811D01*
X26293Y-29811D01*
X26295Y-29812D01*
X26296Y-29813D01*
X26298Y-29815D01*
X26299Y-29816D01*
X26299Y-29818D01*
X26299Y-29820D01*
X26300Y-29820D01*
X26120Y-29820D02*
X26119Y-29821D01*
X26119Y-29823D01*
X26118Y-29825D01*
X26117Y-29827D01*
X26115Y-29828D01*
X26113Y-29829D01*
X26112Y-29829D01*
X26110Y-29829D01*
X26109Y-29829D01*
X26107Y-29829D01*
X26105Y-29828D01*
X26104Y-29827D01*
X26102Y-29825D01*
X26101Y-29823D01*
X26101Y-29822D01*
X26101Y-29820D01*
X26101Y-29819D01*
X26101Y-29817D01*
X26102Y-29815D01*
X26103Y-29814D01*
X26105Y-29812D01*
X26106Y-29811D01*
X26108Y-29811D01*
X26110Y-29811D01*
X26111Y-29811D01*
X26113Y-29811D01*
X26115Y-29812D01*
X26116Y-29813D01*
X26118Y-29815D01*
X26119Y-29816D01*
X26119Y-29818D01*
X26119Y-29820D01*
X26120Y-29820D01*
X25400Y-29640D02*
X25399Y-29641D01*
X25399Y-29643D01*
X25398Y-29645D01*
X25397Y-29647D01*
X25395Y-29648D01*
X25393Y-29649D01*
X25392Y-29649D01*
X25390Y-29649D01*
X25389Y-29649D01*
X25387Y-29649D01*
X25385Y-29648D01*
X25384Y-29647D01*
X25382Y-29645D01*
X25381Y-29643D01*
X25381Y-29642D01*
X25381Y-29640D01*
X25381Y-29639D01*
X25381Y-29637D01*
X25382Y-29635D01*
X25383Y-29634D01*
X25385Y-29632D01*
X25386Y-29631D01*
X25388Y-29631D01*
X25390Y-29631D01*
X25391Y-29631D01*
X25393Y-29631D01*
X25395Y-29632D01*
X25396Y-29633D01*
X25398Y-29635D01*
X25399Y-29636D01*
X25399Y-29638D01*
X25399Y-29640D01*
X25400Y-29640D01*
X25580Y-29640D02*
X25579Y-29641D01*
X25579Y-29643D01*
X25578Y-29645D01*
X25577Y-29647D01*
X25575Y-29648D01*
X25573Y-29649D01*
X25572Y-29649D01*
X25570Y-29649D01*
X25569Y-29649D01*
X25567Y-29649D01*
X25565Y-29648D01*
X25564Y-29647D01*
X25562Y-29645D01*
X25561Y-29643D01*
X25561Y-29642D01*
X25561Y-29640D01*
X25561Y-29639D01*
X25561Y-29637D01*
X25562Y-29635D01*
X25563Y-29634D01*
X25565Y-29632D01*
X25566Y-29631D01*
X25568Y-29631D01*
X25570Y-29631D01*
X25571Y-29631D01*
X25573Y-29631D01*
X25575Y-29632D01*
X25576Y-29633D01*
X25578Y-29635D01*
X25579Y-29636D01*
X25579Y-29638D01*
X25579Y-29640D01*
X25580Y-29640D01*
X26300Y-29640D02*
X26299Y-29641D01*
X26299Y-29643D01*
X26298Y-29645D01*
X26297Y-29647D01*
X26295Y-29648D01*
X26293Y-29649D01*
X26292Y-29649D01*
X26290Y-29649D01*
X26289Y-29649D01*
X26287Y-29649D01*
X26285Y-29648D01*
X26284Y-29647D01*
X26282Y-29645D01*
X26281Y-29643D01*
X26281Y-29642D01*
X26281Y-29640D01*
X26281Y-29639D01*
X26281Y-29637D01*
X26282Y-29635D01*
X26283Y-29634D01*
X26285Y-29632D01*
X26286Y-29631D01*
X26288Y-29631D01*
X26290Y-29631D01*
X26291Y-29631D01*
X26293Y-29631D01*
X26295Y-29632D01*
X26296Y-29633D01*
X26298Y-29635D01*
X26299Y-29636D01*
X26299Y-29638D01*
X26299Y-29640D01*
X26300Y-29640D01*
X26120Y-29640D02*
X26119Y-29641D01*
X26119Y-29643D01*
X26118Y-29645D01*
X26117Y-29647D01*
X26115Y-29648D01*
X26113Y-29649D01*
X26112Y-29649D01*
X26110Y-29649D01*
X26109Y-29649D01*
X26107Y-29649D01*
X26105Y-29648D01*
X26104Y-29647D01*
X26102Y-29645D01*
X26101Y-29643D01*
X26101Y-29642D01*
X26101Y-29640D01*
X26101Y-29639D01*
X26101Y-29637D01*
X26102Y-29635D01*
X26103Y-29634D01*
X26105Y-29632D01*
X26106Y-29631D01*
X26108Y-29631D01*
X26110Y-29631D01*
X26111Y-29631D01*
X26113Y-29631D01*
X26115Y-29632D01*
X26116Y-29633D01*
X26118Y-29635D01*
X26119Y-29636D01*
X26119Y-29638D01*
X26119Y-29640D01*
X26120Y-29640D01*
X25760Y-30180D02*
X25759Y-30181D01*
X25759Y-30183D01*
X25758Y-30185D01*
X25757Y-30187D01*
X25755Y-30188D01*
X25753Y-30189D01*
X25752Y-30189D01*
X25750Y-30189D01*
X25749Y-30189D01*
X25747Y-30189D01*
X25745Y-30188D01*
X25744Y-30187D01*
X25742Y-30185D01*
X25741Y-30183D01*
X25741Y-30182D01*
X25741Y-30180D01*
X25741Y-30179D01*
X25741Y-30177D01*
X25742Y-30175D01*
X25743Y-30174D01*
X25745Y-30172D01*
X25746Y-30171D01*
X25748Y-30171D01*
X25750Y-30171D01*
X25751Y-30171D01*
X25753Y-30171D01*
X25755Y-30172D01*
X25756Y-30173D01*
X25758Y-30175D01*
X25759Y-30176D01*
X25759Y-30178D01*
X25759Y-30180D01*
X25760Y-30180D01*
X25940Y-30180D02*
X25939Y-30181D01*
X25939Y-30183D01*
X25938Y-30185D01*
X25937Y-30187D01*
X25935Y-30188D01*
X25933Y-30189D01*
X25932Y-30189D01*
X25930Y-30189D01*
X25929Y-30189D01*
X25927Y-30189D01*
X25925Y-30188D01*
X25924Y-30187D01*
X25922Y-30185D01*
X25921Y-30183D01*
X25921Y-30182D01*
X25921Y-30180D01*
X25921Y-30179D01*
X25921Y-30177D01*
X25922Y-30175D01*
X25923Y-30174D01*
X25925Y-30172D01*
X25926Y-30171D01*
X25928Y-30171D01*
X25930Y-30171D01*
X25931Y-30171D01*
X25933Y-30171D01*
X25935Y-30172D01*
X25936Y-30173D01*
X25938Y-30175D01*
X25939Y-30176D01*
X25939Y-30178D01*
X25939Y-30180D01*
X25940Y-30180D01*
X25940Y-30360D02*
X25939Y-30361D01*
X25939Y-30363D01*
X25938Y-30365D01*
X25937Y-30367D01*
X25935Y-30368D01*
X25933Y-30369D01*
X25932Y-30369D01*
X25930Y-30369D01*
X25929Y-30369D01*
X25927Y-30369D01*
X25925Y-30368D01*
X25924Y-30367D01*
X25922Y-30365D01*
X25921Y-30363D01*
X25921Y-30362D01*
X25921Y-30360D01*
X25921Y-30359D01*
X25921Y-30357D01*
X25922Y-30355D01*
X25923Y-30354D01*
X25925Y-30352D01*
X25926Y-30351D01*
X25928Y-30351D01*
X25930Y-30351D01*
X25931Y-30351D01*
X25933Y-30351D01*
X25935Y-30352D01*
X25936Y-30353D01*
X25938Y-30355D01*
X25939Y-30356D01*
X25939Y-30358D01*
X25939Y-30360D01*
X25940Y-30360D01*
X26480Y-30360D02*
X26479Y-30361D01*
X26479Y-30363D01*
X26478Y-30365D01*
X26477Y-30367D01*
X26475Y-30368D01*
X26473Y-30369D01*
X26472Y-30369D01*
X26470Y-30369D01*
X26469Y-30369D01*
X26467Y-30369D01*
X26465Y-30368D01*
X26464Y-30367D01*
X26462Y-30365D01*
X26461Y-30363D01*
X26461Y-30362D01*
X26461Y-30360D01*
X26461Y-30359D01*
X26461Y-30357D01*
X26462Y-30355D01*
X26463Y-30354D01*
X26465Y-30352D01*
X26466Y-30351D01*
X26468Y-30351D01*
X26470Y-30351D01*
X26471Y-30351D01*
X26473Y-30351D01*
X26475Y-30352D01*
X26476Y-30353D01*
X26478Y-30355D01*
X26479Y-30356D01*
X26479Y-30358D01*
X26479Y-30360D01*
X26480Y-30360D01*
X25760Y-30360D02*
X25759Y-30361D01*
X25759Y-30363D01*
X25758Y-30365D01*
X25757Y-30367D01*
X25755Y-30368D01*
X25753Y-30369D01*
X25752Y-30369D01*
X25750Y-30369D01*
X25749Y-30369D01*
X25747Y-30369D01*
X25745Y-30368D01*
X25744Y-30367D01*
X25742Y-30365D01*
X25741Y-30363D01*
X25741Y-30362D01*
X25741Y-30360D01*
X25741Y-30359D01*
X25741Y-30357D01*
X25742Y-30355D01*
X25743Y-30354D01*
X25745Y-30352D01*
X25746Y-30351D01*
X25748Y-30351D01*
X25750Y-30351D01*
X25751Y-30351D01*
X25753Y-30351D01*
X25755Y-30352D01*
X25756Y-30353D01*
X25758Y-30355D01*
X25759Y-30356D01*
X25759Y-30358D01*
X25759Y-30360D01*
X25760Y-30360D01*
X25220Y-30360D02*
X25219Y-30361D01*
X25219Y-30363D01*
X25218Y-30365D01*
X25217Y-30367D01*
X25215Y-30368D01*
X25213Y-30369D01*
X25212Y-30369D01*
X25210Y-30369D01*
X25209Y-30369D01*
X25207Y-30369D01*
X25205Y-30368D01*
X25204Y-30367D01*
X25202Y-30365D01*
X25201Y-30363D01*
X25201Y-30362D01*
X25201Y-30360D01*
X25201Y-30359D01*
X25201Y-30357D01*
X25202Y-30355D01*
X25203Y-30354D01*
X25205Y-30352D01*
X25206Y-30351D01*
X25208Y-30351D01*
X25210Y-30351D01*
X25211Y-30351D01*
X25213Y-30351D01*
X25215Y-30352D01*
X25216Y-30353D01*
X25218Y-30355D01*
X25219Y-30356D01*
X25219Y-30358D01*
X25219Y-30360D01*
X25220Y-30360D01*
X25760Y-30720D02*
X25759Y-30721D01*
X25759Y-30723D01*
X25758Y-30725D01*
X25757Y-30727D01*
X25755Y-30728D01*
X25753Y-30729D01*
X25752Y-30729D01*
X25750Y-30729D01*
X25749Y-30729D01*
X25747Y-30729D01*
X25745Y-30728D01*
X25744Y-30727D01*
X25742Y-30725D01*
X25741Y-30723D01*
X25741Y-30722D01*
X25741Y-30720D01*
X25741Y-30719D01*
X25741Y-30717D01*
X25742Y-30715D01*
X25743Y-30714D01*
X25745Y-30712D01*
X25746Y-30711D01*
X25748Y-30711D01*
X25750Y-30711D01*
X25751Y-30711D01*
X25753Y-30711D01*
X25755Y-30712D01*
X25756Y-30713D01*
X25758Y-30715D01*
X25759Y-30716D01*
X25759Y-30718D01*
X25759Y-30720D01*
X25760Y-30720D01*
X25580Y-30720D02*
X25579Y-30721D01*
X25579Y-30723D01*
X25578Y-30725D01*
X25577Y-30727D01*
X25575Y-30728D01*
X25573Y-30729D01*
X25572Y-30729D01*
X25570Y-30729D01*
X25569Y-30729D01*
X25567Y-30729D01*
X25565Y-30728D01*
X25564Y-30727D01*
X25562Y-30725D01*
X25561Y-30723D01*
X25561Y-30722D01*
X25561Y-30720D01*
X25561Y-30719D01*
X25561Y-30717D01*
X25562Y-30715D01*
X25563Y-30714D01*
X25565Y-30712D01*
X25566Y-30711D01*
X25568Y-30711D01*
X25570Y-30711D01*
X25571Y-30711D01*
X25573Y-30711D01*
X25575Y-30712D01*
X25576Y-30713D01*
X25578Y-30715D01*
X25579Y-30716D01*
X25579Y-30718D01*
X25579Y-30720D01*
X25580Y-30720D01*
X26120Y-30720D02*
X26119Y-30721D01*
X26119Y-30723D01*
X26118Y-30725D01*
X26117Y-30727D01*
X26115Y-30728D01*
X26113Y-30729D01*
X26112Y-30729D01*
X26110Y-30729D01*
X26109Y-30729D01*
X26107Y-30729D01*
X26105Y-30728D01*
X26104Y-30727D01*
X26102Y-30725D01*
X26101Y-30723D01*
X26101Y-30722D01*
X26101Y-30720D01*
X26101Y-30719D01*
X26101Y-30717D01*
X26102Y-30715D01*
X26103Y-30714D01*
X26105Y-30712D01*
X26106Y-30711D01*
X26108Y-30711D01*
X26110Y-30711D01*
X26111Y-30711D01*
X26113Y-30711D01*
X26115Y-30712D01*
X26116Y-30713D01*
X26118Y-30715D01*
X26119Y-30716D01*
X26119Y-30718D01*
X26119Y-30720D01*
X26120Y-30720D01*
X25940Y-30720D02*
X25939Y-30721D01*
X25939Y-30723D01*
X25938Y-30725D01*
X25937Y-30727D01*
X25935Y-30728D01*
X25933Y-30729D01*
X25932Y-30729D01*
X25930Y-30729D01*
X25929Y-30729D01*
X25927Y-30729D01*
X25925Y-30728D01*
X25924Y-30727D01*
X25922Y-30725D01*
X25921Y-30723D01*
X25921Y-30722D01*
X25921Y-30720D01*
X25921Y-30719D01*
X25921Y-30717D01*
X25922Y-30715D01*
X25923Y-30714D01*
X25925Y-30712D01*
X25926Y-30711D01*
X25928Y-30711D01*
X25930Y-30711D01*
X25931Y-30711D01*
X25933Y-30711D01*
X25935Y-30712D01*
X25936Y-30713D01*
X25938Y-30715D01*
X25939Y-30716D01*
X25939Y-30718D01*
X25939Y-30720D01*
X25940Y-30720D01*
X26300Y-30540D02*
X26299Y-30541D01*
X26299Y-30543D01*
X26298Y-30545D01*
X26297Y-30547D01*
X26295Y-30548D01*
X26293Y-30549D01*
X26292Y-30549D01*
X26290Y-30549D01*
X26289Y-30549D01*
X26287Y-30549D01*
X26285Y-30548D01*
X26284Y-30547D01*
X26282Y-30545D01*
X26281Y-30543D01*
X26281Y-30542D01*
X26281Y-30540D01*
X26281Y-30539D01*
X26281Y-30537D01*
X26282Y-30535D01*
X26283Y-30534D01*
X26285Y-30532D01*
X26286Y-30531D01*
X26288Y-30531D01*
X26290Y-30531D01*
X26291Y-30531D01*
X26293Y-30531D01*
X26295Y-30532D01*
X26296Y-30533D01*
X26298Y-30535D01*
X26299Y-30536D01*
X26299Y-30538D01*
X26299Y-30540D01*
X26300Y-30540D01*
X25400Y-30540D02*
X25399Y-30541D01*
X25399Y-30543D01*
X25398Y-30545D01*
X25397Y-30547D01*
X25395Y-30548D01*
X25393Y-30549D01*
X25392Y-30549D01*
X25390Y-30549D01*
X25389Y-30549D01*
X25387Y-30549D01*
X25385Y-30548D01*
X25384Y-30547D01*
X25382Y-30545D01*
X25381Y-30543D01*
X25381Y-30542D01*
X25381Y-30540D01*
X25381Y-30539D01*
X25381Y-30537D01*
X25382Y-30535D01*
X25383Y-30534D01*
X25385Y-30532D01*
X25386Y-30531D01*
X25388Y-30531D01*
X25390Y-30531D01*
X25391Y-30531D01*
X25393Y-30531D01*
X25395Y-30532D01*
X25396Y-30533D01*
X25398Y-30535D01*
X25399Y-30536D01*
X25399Y-30538D01*
X25399Y-30540D01*
X25400Y-30540D01*
X39320Y-30590D02*
X39319Y-30591D01*
X39319Y-30593D01*
X39318Y-30595D01*
X39317Y-30597D01*
X39315Y-30598D01*
X39313Y-30599D01*
X39312Y-30599D01*
X39310Y-30599D01*
X39309Y-30599D01*
X39307Y-30599D01*
X39305Y-30598D01*
X39304Y-30597D01*
X39302Y-30595D01*
X39301Y-30593D01*
X39301Y-30592D01*
X39301Y-30590D01*
X39301Y-30589D01*
X39301Y-30587D01*
X39302Y-30585D01*
X39303Y-30584D01*
X39305Y-30582D01*
X39306Y-30581D01*
X39308Y-30581D01*
X39310Y-30581D01*
X39311Y-30581D01*
X39313Y-30581D01*
X39315Y-30582D01*
X39316Y-30583D01*
X39318Y-30585D01*
X39319Y-30586D01*
X39319Y-30588D01*
X39319Y-30590D01*
X39320Y-30590D01*
X40220Y-30590D02*
X40219Y-30591D01*
X40219Y-30593D01*
X40218Y-30595D01*
X40217Y-30597D01*
X40215Y-30598D01*
X40213Y-30599D01*
X40212Y-30599D01*
X40210Y-30599D01*
X40209Y-30599D01*
X40207Y-30599D01*
X40205Y-30598D01*
X40204Y-30597D01*
X40202Y-30595D01*
X40201Y-30593D01*
X40201Y-30592D01*
X40201Y-30590D01*
X40201Y-30589D01*
X40201Y-30587D01*
X40202Y-30585D01*
X40203Y-30584D01*
X40205Y-30582D01*
X40206Y-30581D01*
X40208Y-30581D01*
X40210Y-30581D01*
X40211Y-30581D01*
X40213Y-30581D01*
X40215Y-30582D01*
X40216Y-30583D01*
X40218Y-30585D01*
X40219Y-30586D01*
X40219Y-30588D01*
X40219Y-30590D01*
X40220Y-30590D01*
X39860Y-30770D02*
X39859Y-30771D01*
X39859Y-30773D01*
X39858Y-30775D01*
X39857Y-30777D01*
X39855Y-30778D01*
X39853Y-30779D01*
X39852Y-30779D01*
X39850Y-30779D01*
X39849Y-30779D01*
X39847Y-30779D01*
X39845Y-30778D01*
X39844Y-30777D01*
X39842Y-30775D01*
X39841Y-30773D01*
X39841Y-30772D01*
X39841Y-30770D01*
X39841Y-30769D01*
X39841Y-30767D01*
X39842Y-30765D01*
X39843Y-30764D01*
X39845Y-30762D01*
X39846Y-30761D01*
X39848Y-30761D01*
X39850Y-30761D01*
X39851Y-30761D01*
X39853Y-30761D01*
X39855Y-30762D01*
X39856Y-30763D01*
X39858Y-30765D01*
X39859Y-30766D01*
X39859Y-30768D01*
X39859Y-30770D01*
X39860Y-30770D01*
X40040Y-30770D02*
X40039Y-30771D01*
X40039Y-30773D01*
X40038Y-30775D01*
X40037Y-30777D01*
X40035Y-30778D01*
X40033Y-30779D01*
X40032Y-30779D01*
X40030Y-30779D01*
X40029Y-30779D01*
X40027Y-30779D01*
X40025Y-30778D01*
X40024Y-30777D01*
X40022Y-30775D01*
X40021Y-30773D01*
X40021Y-30772D01*
X40021Y-30770D01*
X40021Y-30769D01*
X40021Y-30767D01*
X40022Y-30765D01*
X40023Y-30764D01*
X40025Y-30762D01*
X40026Y-30761D01*
X40028Y-30761D01*
X40030Y-30761D01*
X40031Y-30761D01*
X40033Y-30761D01*
X40035Y-30762D01*
X40036Y-30763D01*
X40038Y-30765D01*
X40039Y-30766D01*
X40039Y-30768D01*
X40039Y-30770D01*
X40040Y-30770D01*
X39500Y-30770D02*
X39499Y-30771D01*
X39499Y-30773D01*
X39498Y-30775D01*
X39497Y-30777D01*
X39495Y-30778D01*
X39493Y-30779D01*
X39492Y-30779D01*
X39490Y-30779D01*
X39489Y-30779D01*
X39487Y-30779D01*
X39485Y-30778D01*
X39484Y-30777D01*
X39482Y-30775D01*
X39481Y-30773D01*
X39481Y-30772D01*
X39481Y-30770D01*
X39481Y-30769D01*
X39481Y-30767D01*
X39482Y-30765D01*
X39483Y-30764D01*
X39485Y-30762D01*
X39486Y-30761D01*
X39488Y-30761D01*
X39490Y-30761D01*
X39491Y-30761D01*
X39493Y-30761D01*
X39495Y-30762D01*
X39496Y-30763D01*
X39498Y-30765D01*
X39499Y-30766D01*
X39499Y-30768D01*
X39499Y-30770D01*
X39500Y-30770D01*
X39680Y-30770D02*
X39679Y-30771D01*
X39679Y-30773D01*
X39678Y-30775D01*
X39677Y-30777D01*
X39675Y-30778D01*
X39673Y-30779D01*
X39672Y-30779D01*
X39670Y-30779D01*
X39669Y-30779D01*
X39667Y-30779D01*
X39665Y-30778D01*
X39664Y-30777D01*
X39662Y-30775D01*
X39661Y-30773D01*
X39661Y-30772D01*
X39661Y-30770D01*
X39661Y-30769D01*
X39661Y-30767D01*
X39662Y-30765D01*
X39663Y-30764D01*
X39665Y-30762D01*
X39666Y-30761D01*
X39668Y-30761D01*
X39670Y-30761D01*
X39671Y-30761D01*
X39673Y-30761D01*
X39675Y-30762D01*
X39676Y-30763D01*
X39678Y-30765D01*
X39679Y-30766D01*
X39679Y-30768D01*
X39679Y-30770D01*
X39680Y-30770D01*
X39140Y-30410D02*
X39139Y-30411D01*
X39139Y-30413D01*
X39138Y-30415D01*
X39137Y-30417D01*
X39135Y-30418D01*
X39133Y-30419D01*
X39132Y-30419D01*
X39130Y-30419D01*
X39129Y-30419D01*
X39127Y-30419D01*
X39125Y-30418D01*
X39124Y-30417D01*
X39122Y-30415D01*
X39121Y-30413D01*
X39121Y-30412D01*
X39121Y-30410D01*
X39121Y-30409D01*
X39121Y-30407D01*
X39122Y-30405D01*
X39123Y-30404D01*
X39125Y-30402D01*
X39126Y-30401D01*
X39128Y-30401D01*
X39130Y-30401D01*
X39131Y-30401D01*
X39133Y-30401D01*
X39135Y-30402D01*
X39136Y-30403D01*
X39138Y-30405D01*
X39139Y-30406D01*
X39139Y-30408D01*
X39139Y-30410D01*
X39140Y-30410D01*
X39680Y-30410D02*
X39679Y-30411D01*
X39679Y-30413D01*
X39678Y-30415D01*
X39677Y-30417D01*
X39675Y-30418D01*
X39673Y-30419D01*
X39672Y-30419D01*
X39670Y-30419D01*
X39669Y-30419D01*
X39667Y-30419D01*
X39665Y-30418D01*
X39664Y-30417D01*
X39662Y-30415D01*
X39661Y-30413D01*
X39661Y-30412D01*
X39661Y-30410D01*
X39661Y-30409D01*
X39661Y-30407D01*
X39662Y-30405D01*
X39663Y-30404D01*
X39665Y-30402D01*
X39666Y-30401D01*
X39668Y-30401D01*
X39670Y-30401D01*
X39671Y-30401D01*
X39673Y-30401D01*
X39675Y-30402D01*
X39676Y-30403D01*
X39678Y-30405D01*
X39679Y-30406D01*
X39679Y-30408D01*
X39679Y-30410D01*
X39680Y-30410D01*
X40400Y-30410D02*
X40399Y-30411D01*
X40399Y-30413D01*
X40398Y-30415D01*
X40397Y-30417D01*
X40395Y-30418D01*
X40393Y-30419D01*
X40392Y-30419D01*
X40390Y-30419D01*
X40389Y-30419D01*
X40387Y-30419D01*
X40385Y-30418D01*
X40384Y-30417D01*
X40382Y-30415D01*
X40381Y-30413D01*
X40381Y-30412D01*
X40381Y-30410D01*
X40381Y-30409D01*
X40381Y-30407D01*
X40382Y-30405D01*
X40383Y-30404D01*
X40385Y-30402D01*
X40386Y-30401D01*
X40388Y-30401D01*
X40390Y-30401D01*
X40391Y-30401D01*
X40393Y-30401D01*
X40395Y-30402D01*
X40396Y-30403D01*
X40398Y-30405D01*
X40399Y-30406D01*
X40399Y-30408D01*
X40399Y-30410D01*
X40400Y-30410D01*
X39860Y-30410D02*
X39859Y-30411D01*
X39859Y-30413D01*
X39858Y-30415D01*
X39857Y-30417D01*
X39855Y-30418D01*
X39853Y-30419D01*
X39852Y-30419D01*
X39850Y-30419D01*
X39849Y-30419D01*
X39847Y-30419D01*
X39845Y-30418D01*
X39844Y-30417D01*
X39842Y-30415D01*
X39841Y-30413D01*
X39841Y-30412D01*
X39841Y-30410D01*
X39841Y-30409D01*
X39841Y-30407D01*
X39842Y-30405D01*
X39843Y-30404D01*
X39845Y-30402D01*
X39846Y-30401D01*
X39848Y-30401D01*
X39850Y-30401D01*
X39851Y-30401D01*
X39853Y-30401D01*
X39855Y-30402D01*
X39856Y-30403D01*
X39858Y-30405D01*
X39859Y-30406D01*
X39859Y-30408D01*
X39859Y-30410D01*
X39860Y-30410D01*
X39860Y-30230D02*
X39859Y-30231D01*
X39859Y-30233D01*
X39858Y-30235D01*
X39857Y-30237D01*
X39855Y-30238D01*
X39853Y-30239D01*
X39852Y-30239D01*
X39850Y-30239D01*
X39849Y-30239D01*
X39847Y-30239D01*
X39845Y-30238D01*
X39844Y-30237D01*
X39842Y-30235D01*
X39841Y-30233D01*
X39841Y-30232D01*
X39841Y-30230D01*
X39841Y-30229D01*
X39841Y-30227D01*
X39842Y-30225D01*
X39843Y-30224D01*
X39845Y-30222D01*
X39846Y-30221D01*
X39848Y-30221D01*
X39850Y-30221D01*
X39851Y-30221D01*
X39853Y-30221D01*
X39855Y-30222D01*
X39856Y-30223D01*
X39858Y-30225D01*
X39859Y-30226D01*
X39859Y-30228D01*
X39859Y-30230D01*
X39860Y-30230D01*
X39680Y-30230D02*
X39679Y-30231D01*
X39679Y-30233D01*
X39678Y-30235D01*
X39677Y-30237D01*
X39675Y-30238D01*
X39673Y-30239D01*
X39672Y-30239D01*
X39670Y-30239D01*
X39669Y-30239D01*
X39667Y-30239D01*
X39665Y-30238D01*
X39664Y-30237D01*
X39662Y-30235D01*
X39661Y-30233D01*
X39661Y-30232D01*
X39661Y-30230D01*
X39661Y-30229D01*
X39661Y-30227D01*
X39662Y-30225D01*
X39663Y-30224D01*
X39665Y-30222D01*
X39666Y-30221D01*
X39668Y-30221D01*
X39670Y-30221D01*
X39671Y-30221D01*
X39673Y-30221D01*
X39675Y-30222D01*
X39676Y-30223D01*
X39678Y-30225D01*
X39679Y-30226D01*
X39679Y-30228D01*
X39679Y-30230D01*
X39680Y-30230D01*
X40040Y-29690D02*
X40039Y-29691D01*
X40039Y-29693D01*
X40038Y-29695D01*
X40037Y-29697D01*
X40035Y-29698D01*
X40033Y-29699D01*
X40032Y-29699D01*
X40030Y-29699D01*
X40029Y-29699D01*
X40027Y-29699D01*
X40025Y-29698D01*
X40024Y-29697D01*
X40022Y-29695D01*
X40021Y-29693D01*
X40021Y-29692D01*
X40021Y-29690D01*
X40021Y-29689D01*
X40021Y-29687D01*
X40022Y-29685D01*
X40023Y-29684D01*
X40025Y-29682D01*
X40026Y-29681D01*
X40028Y-29681D01*
X40030Y-29681D01*
X40031Y-29681D01*
X40033Y-29681D01*
X40035Y-29682D01*
X40036Y-29683D01*
X40038Y-29685D01*
X40039Y-29686D01*
X40039Y-29688D01*
X40039Y-29690D01*
X40040Y-29690D01*
X40220Y-29690D02*
X40219Y-29691D01*
X40219Y-29693D01*
X40218Y-29695D01*
X40217Y-29697D01*
X40215Y-29698D01*
X40213Y-29699D01*
X40212Y-29699D01*
X40210Y-29699D01*
X40209Y-29699D01*
X40207Y-29699D01*
X40205Y-29698D01*
X40204Y-29697D01*
X40202Y-29695D01*
X40201Y-29693D01*
X40201Y-29692D01*
X40201Y-29690D01*
X40201Y-29689D01*
X40201Y-29687D01*
X40202Y-29685D01*
X40203Y-29684D01*
X40205Y-29682D01*
X40206Y-29681D01*
X40208Y-29681D01*
X40210Y-29681D01*
X40211Y-29681D01*
X40213Y-29681D01*
X40215Y-29682D01*
X40216Y-29683D01*
X40218Y-29685D01*
X40219Y-29686D01*
X40219Y-29688D01*
X40219Y-29690D01*
X40220Y-29690D01*
X39500Y-29690D02*
X39499Y-29691D01*
X39499Y-29693D01*
X39498Y-29695D01*
X39497Y-29697D01*
X39495Y-29698D01*
X39493Y-29699D01*
X39492Y-29699D01*
X39490Y-29699D01*
X39489Y-29699D01*
X39487Y-29699D01*
X39485Y-29698D01*
X39484Y-29697D01*
X39482Y-29695D01*
X39481Y-29693D01*
X39481Y-29692D01*
X39481Y-29690D01*
X39481Y-29689D01*
X39481Y-29687D01*
X39482Y-29685D01*
X39483Y-29684D01*
X39485Y-29682D01*
X39486Y-29681D01*
X39488Y-29681D01*
X39490Y-29681D01*
X39491Y-29681D01*
X39493Y-29681D01*
X39495Y-29682D01*
X39496Y-29683D01*
X39498Y-29685D01*
X39499Y-29686D01*
X39499Y-29688D01*
X39499Y-29690D01*
X39500Y-29690D01*
X39320Y-29690D02*
X39319Y-29691D01*
X39319Y-29693D01*
X39318Y-29695D01*
X39317Y-29697D01*
X39315Y-29698D01*
X39313Y-29699D01*
X39312Y-29699D01*
X39310Y-29699D01*
X39309Y-29699D01*
X39307Y-29699D01*
X39305Y-29698D01*
X39304Y-29697D01*
X39302Y-29695D01*
X39301Y-29693D01*
X39301Y-29692D01*
X39301Y-29690D01*
X39301Y-29689D01*
X39301Y-29687D01*
X39302Y-29685D01*
X39303Y-29684D01*
X39305Y-29682D01*
X39306Y-29681D01*
X39308Y-29681D01*
X39310Y-29681D01*
X39311Y-29681D01*
X39313Y-29681D01*
X39315Y-29682D01*
X39316Y-29683D01*
X39318Y-29685D01*
X39319Y-29686D01*
X39319Y-29688D01*
X39319Y-29690D01*
X39320Y-29690D01*
X40040Y-29870D02*
X40039Y-29871D01*
X40039Y-29873D01*
X40038Y-29875D01*
X40037Y-29877D01*
X40035Y-29878D01*
X40033Y-29879D01*
X40032Y-29879D01*
X40030Y-29879D01*
X40029Y-29879D01*
X40027Y-29879D01*
X40025Y-29878D01*
X40024Y-29877D01*
X40022Y-29875D01*
X40021Y-29873D01*
X40021Y-29872D01*
X40021Y-29870D01*
X40021Y-29869D01*
X40021Y-29867D01*
X40022Y-29865D01*
X40023Y-29864D01*
X40025Y-29862D01*
X40026Y-29861D01*
X40028Y-29861D01*
X40030Y-29861D01*
X40031Y-29861D01*
X40033Y-29861D01*
X40035Y-29862D01*
X40036Y-29863D01*
X40038Y-29865D01*
X40039Y-29866D01*
X40039Y-29868D01*
X40039Y-29870D01*
X40040Y-29870D01*
X40220Y-29870D02*
X40219Y-29871D01*
X40219Y-29873D01*
X40218Y-29875D01*
X40217Y-29877D01*
X40215Y-29878D01*
X40213Y-29879D01*
X40212Y-29879D01*
X40210Y-29879D01*
X40209Y-29879D01*
X40207Y-29879D01*
X40205Y-29878D01*
X40204Y-29877D01*
X40202Y-29875D01*
X40201Y-29873D01*
X40201Y-29872D01*
X40201Y-29870D01*
X40201Y-29869D01*
X40201Y-29867D01*
X40202Y-29865D01*
X40203Y-29864D01*
X40205Y-29862D01*
X40206Y-29861D01*
X40208Y-29861D01*
X40210Y-29861D01*
X40211Y-29861D01*
X40213Y-29861D01*
X40215Y-29862D01*
X40216Y-29863D01*
X40218Y-29865D01*
X40219Y-29866D01*
X40219Y-29868D01*
X40219Y-29870D01*
X40220Y-29870D01*
X39500Y-29870D02*
X39499Y-29871D01*
X39499Y-29873D01*
X39498Y-29875D01*
X39497Y-29877D01*
X39495Y-29878D01*
X39493Y-29879D01*
X39492Y-29879D01*
X39490Y-29879D01*
X39489Y-29879D01*
X39487Y-29879D01*
X39485Y-29878D01*
X39484Y-29877D01*
X39482Y-29875D01*
X39481Y-29873D01*
X39481Y-29872D01*
X39481Y-29870D01*
X39481Y-29869D01*
X39481Y-29867D01*
X39482Y-29865D01*
X39483Y-29864D01*
X39485Y-29862D01*
X39486Y-29861D01*
X39488Y-29861D01*
X39490Y-29861D01*
X39491Y-29861D01*
X39493Y-29861D01*
X39495Y-29862D01*
X39496Y-29863D01*
X39498Y-29865D01*
X39499Y-29866D01*
X39499Y-29868D01*
X39499Y-29870D01*
X39500Y-29870D01*
X39320Y-29870D02*
X39319Y-29871D01*
X39319Y-29873D01*
X39318Y-29875D01*
X39317Y-29877D01*
X39315Y-29878D01*
X39313Y-29879D01*
X39312Y-29879D01*
X39310Y-29879D01*
X39309Y-29879D01*
X39307Y-29879D01*
X39305Y-29878D01*
X39304Y-29877D01*
X39302Y-29875D01*
X39301Y-29873D01*
X39301Y-29872D01*
X39301Y-29870D01*
X39301Y-29869D01*
X39301Y-29867D01*
X39302Y-29865D01*
X39303Y-29864D01*
X39305Y-29862D01*
X39306Y-29861D01*
X39308Y-29861D01*
X39310Y-29861D01*
X39311Y-29861D01*
X39313Y-29861D01*
X39315Y-29862D01*
X39316Y-29863D01*
X39318Y-29865D01*
X39319Y-29866D01*
X39319Y-29868D01*
X39319Y-29870D01*
X39320Y-29870D01*
G54D11*
X31138Y-25814D02*
X31538Y-25814D01*
X31138Y-25585D01*
X31538Y-25585D01*
X31176Y-25166D02*
X31157Y-25185D01*
X31138Y-25242D01*
X31138Y-25280D01*
X31157Y-25338D01*
X31195Y-25376D01*
X31233Y-25395D01*
X31310Y-25414D01*
X31367Y-25414D01*
X31443Y-25395D01*
X31481Y-25376D01*
X31519Y-25338D01*
X31538Y-25280D01*
X31538Y-25242D01*
X31519Y-25185D01*
X31500Y-25166D01*
X34538Y-25755D02*
X34538Y-25526D01*
X34138Y-25641D02*
X34538Y-25641D01*
X34538Y-25431D02*
X34138Y-25164D01*
X34538Y-25164D02*
X34138Y-25431D01*
X33138Y-25566D02*
X33329Y-25700D01*
X33138Y-25795D02*
X33538Y-25795D01*
X33538Y-25642D01*
X33519Y-25604D01*
X33500Y-25585D01*
X33462Y-25566D01*
X33405Y-25566D01*
X33367Y-25585D01*
X33348Y-25604D01*
X33329Y-25642D01*
X33329Y-25795D01*
X33538Y-25433D02*
X33138Y-25166D01*
X33538Y-25166D02*
X33138Y-25433D01*
X31995Y-25469D02*
X32605Y-25469D01*
X32300Y-25774D02*
X32300Y-25164D01*
X30519Y-26004D02*
X30538Y-26042D01*
X30538Y-26099D01*
X30519Y-26157D01*
X30481Y-26195D01*
X30443Y-26214D01*
X30367Y-26233D01*
X30310Y-26233D01*
X30233Y-26214D01*
X30195Y-26195D01*
X30157Y-26157D01*
X30138Y-26099D01*
X30138Y-26061D01*
X30157Y-26004D01*
X30176Y-25985D01*
X30310Y-25985D01*
X30310Y-26061D01*
X30138Y-25814D02*
X30538Y-25814D01*
X30138Y-25585D01*
X30538Y-25585D01*
X30138Y-25395D02*
X30538Y-25395D01*
X30538Y-25300D01*
X30519Y-25242D01*
X30481Y-25204D01*
X30443Y-25185D01*
X30367Y-25166D01*
X30310Y-25166D01*
X30233Y-25185D01*
X30195Y-25204D01*
X30157Y-25242D01*
X30138Y-25300D01*
X30138Y-25395D01*
X27904Y-26231D02*
X27942Y-26212D01*
X27999Y-26212D01*
X28057Y-26231D01*
X28095Y-26269D01*
X28114Y-26307D01*
X28133Y-26383D01*
X28133Y-26440D01*
X28114Y-26517D01*
X28095Y-26555D01*
X28057Y-26593D01*
X27999Y-26612D01*
X27961Y-26612D01*
X27904Y-26593D01*
X27885Y-26574D01*
X27885Y-26440D01*
X27961Y-26440D01*
X27714Y-26612D02*
X27714Y-26212D01*
X27485Y-26612D01*
X27485Y-26212D01*
X27295Y-26612D02*
X27295Y-26212D01*
X27200Y-26212D01*
X27142Y-26231D01*
X27104Y-26269D01*
X27085Y-26307D01*
X27066Y-26383D01*
X27066Y-26440D01*
X27085Y-26517D01*
X27104Y-26555D01*
X27142Y-26593D01*
X27200Y-26612D01*
X27295Y-26612D01*
X28126Y-27543D02*
X28069Y-27562D01*
X27973Y-27562D01*
X27935Y-27543D01*
X27916Y-27524D01*
X27897Y-27486D01*
X27897Y-27448D01*
X27916Y-27410D01*
X27935Y-27390D01*
X27973Y-27371D01*
X28050Y-27352D01*
X28088Y-27333D01*
X28107Y-27314D01*
X28126Y-27276D01*
X28126Y-27238D01*
X28107Y-27200D01*
X28088Y-27181D01*
X28050Y-27162D01*
X27954Y-27162D01*
X27897Y-27181D01*
X27497Y-27524D02*
X27516Y-27543D01*
X27573Y-27562D01*
X27611Y-27562D01*
X27669Y-27543D01*
X27707Y-27505D01*
X27726Y-27467D01*
X27745Y-27390D01*
X27745Y-27333D01*
X27726Y-27257D01*
X27707Y-27219D01*
X27669Y-27181D01*
X27611Y-27162D01*
X27573Y-27162D01*
X27516Y-27181D01*
X27497Y-27200D01*
X27135Y-27562D02*
X27326Y-27562D01*
X27326Y-27162D01*
X28136Y-28543D02*
X28079Y-28562D01*
X27983Y-28562D01*
X27945Y-28543D01*
X27926Y-28524D01*
X27907Y-28486D01*
X27907Y-28448D01*
X27926Y-28410D01*
X27945Y-28390D01*
X27983Y-28371D01*
X28060Y-28352D01*
X28098Y-28333D01*
X28117Y-28314D01*
X28136Y-28276D01*
X28136Y-28238D01*
X28117Y-28200D01*
X28098Y-28181D01*
X28060Y-28162D01*
X27964Y-28162D01*
X27907Y-28181D01*
X27736Y-28562D02*
X27736Y-28162D01*
X27641Y-28162D01*
X27583Y-28181D01*
X27545Y-28219D01*
X27526Y-28257D01*
X27507Y-28333D01*
X27507Y-28390D01*
X27526Y-28467D01*
X27545Y-28505D01*
X27583Y-28543D01*
X27641Y-28562D01*
X27736Y-28562D01*
X27355Y-28448D02*
X27164Y-28448D01*
X27393Y-28562D02*
X27260Y-28162D01*
X27126Y-28562D01*
X28145Y-30562D02*
X28145Y-30162D01*
X27992Y-30162D01*
X27954Y-30181D01*
X27935Y-30200D01*
X27916Y-30238D01*
X27916Y-30295D01*
X27935Y-30333D01*
X27954Y-30352D01*
X27992Y-30371D01*
X28145Y-30371D01*
X27516Y-30524D02*
X27535Y-30543D01*
X27592Y-30562D01*
X27630Y-30562D01*
X27688Y-30543D01*
X27726Y-30505D01*
X27745Y-30467D01*
X27764Y-30390D01*
X27764Y-30333D01*
X27745Y-30257D01*
X27726Y-30219D01*
X27688Y-30181D01*
X27630Y-30162D01*
X27592Y-30162D01*
X27535Y-30181D01*
X27516Y-30200D01*
X27364Y-30200D02*
X27345Y-30181D01*
X27307Y-30162D01*
X27211Y-30162D01*
X27173Y-30181D01*
X27154Y-30200D01*
X27135Y-30238D01*
X27135Y-30276D01*
X27154Y-30333D01*
X27383Y-30562D01*
X27135Y-30562D01*
X28145Y-29562D02*
X28145Y-29162D01*
X27992Y-29162D01*
X27954Y-29181D01*
X27935Y-29200D01*
X27916Y-29238D01*
X27916Y-29295D01*
X27935Y-29333D01*
X27954Y-29352D01*
X27992Y-29371D01*
X28145Y-29371D01*
X27516Y-29524D02*
X27535Y-29543D01*
X27592Y-29562D01*
X27630Y-29562D01*
X27688Y-29543D01*
X27726Y-29505D01*
X27745Y-29467D01*
X27764Y-29390D01*
X27764Y-29333D01*
X27745Y-29257D01*
X27726Y-29219D01*
X27688Y-29181D01*
X27630Y-29162D01*
X27592Y-29162D01*
X27535Y-29181D01*
X27516Y-29200D01*
X27383Y-29162D02*
X27135Y-29162D01*
X27269Y-29314D01*
X27211Y-29314D01*
X27173Y-29333D01*
X27154Y-29352D01*
X27135Y-29390D01*
X27135Y-29486D01*
X27154Y-29524D01*
X27173Y-29543D01*
X27211Y-29562D01*
X27326Y-29562D01*
X27364Y-29543D01*
X27383Y-29524D01*
X38245Y-29562D02*
X38245Y-29162D01*
X38092Y-29162D01*
X38054Y-29181D01*
X38035Y-29200D01*
X38016Y-29238D01*
X38016Y-29295D01*
X38035Y-29333D01*
X38054Y-29352D01*
X38092Y-29371D01*
X38245Y-29371D01*
X37616Y-29524D02*
X37635Y-29543D01*
X37692Y-29562D01*
X37730Y-29562D01*
X37788Y-29543D01*
X37826Y-29505D01*
X37845Y-29467D01*
X37864Y-29390D01*
X37864Y-29333D01*
X37845Y-29257D01*
X37826Y-29219D01*
X37788Y-29181D01*
X37730Y-29162D01*
X37692Y-29162D01*
X37635Y-29181D01*
X37616Y-29200D01*
X37483Y-29162D02*
X37235Y-29162D01*
X37369Y-29314D01*
X37311Y-29314D01*
X37273Y-29333D01*
X37254Y-29352D01*
X37235Y-29390D01*
X37235Y-29486D01*
X37254Y-29524D01*
X37273Y-29543D01*
X37311Y-29562D01*
X37426Y-29562D01*
X37464Y-29543D01*
X37483Y-29524D01*
X38245Y-30562D02*
X38245Y-30162D01*
X38092Y-30162D01*
X38054Y-30181D01*
X38035Y-30200D01*
X38016Y-30238D01*
X38016Y-30295D01*
X38035Y-30333D01*
X38054Y-30352D01*
X38092Y-30371D01*
X38245Y-30371D01*
X37616Y-30524D02*
X37635Y-30543D01*
X37692Y-30562D01*
X37730Y-30562D01*
X37788Y-30543D01*
X37826Y-30505D01*
X37845Y-30467D01*
X37864Y-30390D01*
X37864Y-30333D01*
X37845Y-30257D01*
X37826Y-30219D01*
X37788Y-30181D01*
X37730Y-30162D01*
X37692Y-30162D01*
X37635Y-30181D01*
X37616Y-30200D01*
X37464Y-30200D02*
X37445Y-30181D01*
X37407Y-30162D01*
X37311Y-30162D01*
X37273Y-30181D01*
X37254Y-30200D01*
X37235Y-30238D01*
X37235Y-30276D01*
X37254Y-30333D01*
X37483Y-30562D01*
X37235Y-30562D01*
X38236Y-28543D02*
X38179Y-28562D01*
X38083Y-28562D01*
X38045Y-28543D01*
X38026Y-28524D01*
X38007Y-28486D01*
X38007Y-28448D01*
X38026Y-28410D01*
X38045Y-28390D01*
X38083Y-28371D01*
X38160Y-28352D01*
X38198Y-28333D01*
X38217Y-28314D01*
X38236Y-28276D01*
X38236Y-28238D01*
X38217Y-28200D01*
X38198Y-28181D01*
X38160Y-28162D01*
X38064Y-28162D01*
X38007Y-28181D01*
X37836Y-28562D02*
X37836Y-28162D01*
X37741Y-28162D01*
X37683Y-28181D01*
X37645Y-28219D01*
X37626Y-28257D01*
X37607Y-28333D01*
X37607Y-28390D01*
X37626Y-28467D01*
X37645Y-28505D01*
X37683Y-28543D01*
X37741Y-28562D01*
X37836Y-28562D01*
X37455Y-28448D02*
X37264Y-28448D01*
X37493Y-28562D02*
X37360Y-28162D01*
X37226Y-28562D01*
X38226Y-27543D02*
X38169Y-27562D01*
X38073Y-27562D01*
X38035Y-27543D01*
X38016Y-27524D01*
X37997Y-27486D01*
X37997Y-27448D01*
X38016Y-27410D01*
X38035Y-27390D01*
X38073Y-27371D01*
X38150Y-27352D01*
X38188Y-27333D01*
X38207Y-27314D01*
X38226Y-27276D01*
X38226Y-27238D01*
X38207Y-27200D01*
X38188Y-27181D01*
X38150Y-27162D01*
X38054Y-27162D01*
X37997Y-27181D01*
X37597Y-27524D02*
X37616Y-27543D01*
X37673Y-27562D01*
X37711Y-27562D01*
X37769Y-27543D01*
X37807Y-27505D01*
X37826Y-27467D01*
X37845Y-27390D01*
X37845Y-27333D01*
X37826Y-27257D01*
X37807Y-27219D01*
X37769Y-27181D01*
X37711Y-27162D01*
X37673Y-27162D01*
X37616Y-27181D01*
X37597Y-27200D01*
X37235Y-27562D02*
X37426Y-27562D01*
X37426Y-27162D01*
X38004Y-26181D02*
X38042Y-26162D01*
X38099Y-26162D01*
X38157Y-26181D01*
X38195Y-26219D01*
X38214Y-26257D01*
X38233Y-26333D01*
X38233Y-26390D01*
X38214Y-26467D01*
X38195Y-26505D01*
X38157Y-26543D01*
X38099Y-26562D01*
X38061Y-26562D01*
X38004Y-26543D01*
X37985Y-26524D01*
X37985Y-26390D01*
X38061Y-26390D01*
X37814Y-26562D02*
X37814Y-26162D01*
X37585Y-26562D01*
X37585Y-26162D01*
X37395Y-26562D02*
X37395Y-26162D01*
X37300Y-26162D01*
X37242Y-26181D01*
X37204Y-26219D01*
X37185Y-26257D01*
X37166Y-26333D01*
X37166Y-26390D01*
X37185Y-26467D01*
X37204Y-26505D01*
X37242Y-26543D01*
X37300Y-26562D01*
X37395Y-26562D01*
G54D15*
X32300Y-34100D02*
X32500Y-34500D01*
X32500Y-34500D02*
X32100Y-34500D01*
X32100Y-34500D02*
X32300Y-34100D01*
X31800Y-30900D02*
X31800Y-33900D01*
X33800Y-33900D02*
X33800Y-30900D01*
X33800Y-30900D02*
X31800Y-30900D01*
X31800Y-33900D02*
X33800Y-33900D01*
X29550Y-24400D02*
X29150Y-24600D01*
X29150Y-24600D02*
X29150Y-24200D01*
X29150Y-24200D02*
X29550Y-24400D01*
X29800Y-23900D02*
X29800Y-24900D01*
X29800Y-24900D02*
X35800Y-24900D01*
X35800Y-24900D02*
X35800Y-23900D01*
X35800Y-23900D02*
X29800Y-23900D01*
X30800Y-23900D02*
X30800Y-24900D01*
G54D16*
X39936Y-25765D02*
X39641Y-25765D01*
X39641Y-25765D02*
X39641Y-25195D01*
X39936Y-25195D02*
X39641Y-25195D01*
X39936Y-25765D02*
X39936Y-25195D01*
X39367Y-25765D02*
X39072Y-25765D01*
X39072Y-25765D02*
X39072Y-25195D01*
X39367Y-25195D02*
X39072Y-25195D01*
X39367Y-25765D02*
X39367Y-25195D01*
X39546Y-25637D02*
X39468Y-25637D01*
X39468Y-25637D02*
X39468Y-25323D01*
X39546Y-25323D02*
X39468Y-25323D01*
X39546Y-25637D02*
X39546Y-25323D01*
G54D17*
X40283Y-25093D02*
X38731Y-25093D01*
X38731Y-25867D02*
X40283Y-25867D01*
X40283Y-25867D02*
X40283Y-25093D01*
G54D18*
X39657Y-25221D02*
X39357Y-25221D01*
X39647Y-25739D02*
X39357Y-25739D01*
G54D17*
X38731Y-25093D02*
X38731Y-25867D01*
G54D16*
X25795Y-25155D02*
X26091Y-25155D01*
X26091Y-25155D02*
X26091Y-25824D01*
X25795Y-25824D02*
X26091Y-25824D01*
X25795Y-25155D02*
X25795Y-25824D01*
X26839Y-25156D02*
X27135Y-25156D01*
X27135Y-25156D02*
X27135Y-25825D01*
X26839Y-25825D02*
X27135Y-25825D01*
X26839Y-25156D02*
X26839Y-25825D01*
X26387Y-25333D02*
X26543Y-25333D01*
X26543Y-25333D02*
X26543Y-25647D01*
X26387Y-25647D02*
X26543Y-25647D01*
X26387Y-25333D02*
X26387Y-25647D01*
G54D17*
X25492Y-25877D02*
X27438Y-25877D01*
X27438Y-25103D02*
X25492Y-25103D01*
X25492Y-25103D02*
X25492Y-25877D01*
X27438Y-25877D02*
X27438Y-25103D01*
G54D18*
X26086Y-25799D02*
X26844Y-25799D01*
X26086Y-25181D02*
X26844Y-25181D01*
G54D16*
X33635Y-27421D02*
X33635Y-27716D01*
X33635Y-27716D02*
X33065Y-27716D01*
X33065Y-27421D02*
X33065Y-27716D01*
X33635Y-27421D02*
X33065Y-27421D01*
X33635Y-27990D02*
X33635Y-28285D01*
X33635Y-28285D02*
X33065Y-28285D01*
X33065Y-27990D02*
X33065Y-28285D01*
X33635Y-27990D02*
X33065Y-27990D01*
X33507Y-27811D02*
X33507Y-27889D01*
X33507Y-27889D02*
X33193Y-27889D01*
X33193Y-27811D02*
X33193Y-27889D01*
X33507Y-27811D02*
X33193Y-27811D01*
G54D17*
X32963Y-27074D02*
X32963Y-28626D01*
X33737Y-28626D02*
X33737Y-27074D01*
X33737Y-27074D02*
X32963Y-27074D01*
G54D18*
X33091Y-27700D02*
X33091Y-28000D01*
X33609Y-27710D02*
X33609Y-28000D01*
G54D17*
X32963Y-28626D02*
X33737Y-28626D01*
G54D16*
X35985Y-21430D02*
X35985Y-21726D01*
X35985Y-21726D02*
X35316Y-21726D01*
X35316Y-21430D02*
X35316Y-21726D01*
X35985Y-21430D02*
X35316Y-21430D01*
X35984Y-22474D02*
X35984Y-22770D01*
X35984Y-22770D02*
X35315Y-22770D01*
X35315Y-22474D02*
X35315Y-22770D01*
X35984Y-22474D02*
X35315Y-22474D01*
X35846Y-21982D02*
X35846Y-22218D01*
X35846Y-22218D02*
X35454Y-22218D01*
X35454Y-21982D02*
X35454Y-22218D01*
X35846Y-21982D02*
X35454Y-21982D01*
G54D17*
X35263Y-21127D02*
X35263Y-23073D01*
X36037Y-23073D02*
X36037Y-21127D01*
X36037Y-21127D02*
X35263Y-21127D01*
X35263Y-23073D02*
X36037Y-23073D01*
G54D18*
X35341Y-21721D02*
X35341Y-22479D01*
X35959Y-21721D02*
X35959Y-22479D01*
G54D16*
X29815Y-22770D02*
X29815Y-22474D01*
X29815Y-22474D02*
X30484Y-22474D01*
X30484Y-22770D02*
X30484Y-22474D01*
X29815Y-22770D02*
X30484Y-22770D01*
X29816Y-21726D02*
X29816Y-21430D01*
X29816Y-21430D02*
X30485Y-21430D01*
X30485Y-21726D02*
X30485Y-21430D01*
X29816Y-21726D02*
X30485Y-21726D01*
X29954Y-22218D02*
X29954Y-21982D01*
X29954Y-21982D02*
X30346Y-21982D01*
X30346Y-22218D02*
X30346Y-21982D01*
X29954Y-22218D02*
X30346Y-22218D01*
G54D17*
X30537Y-23073D02*
X30537Y-21127D01*
X29763Y-21127D02*
X29763Y-23073D01*
X29763Y-23073D02*
X30537Y-23073D01*
X30537Y-21127D02*
X29763Y-21127D01*
G54D18*
X30459Y-22479D02*
X30459Y-21721D01*
X29841Y-22479D02*
X29841Y-21721D01*
G54D16*
X33609Y-22330D02*
X33609Y-21070D01*
X33609Y-21070D02*
X34340Y-21070D01*
X34340Y-22330D02*
X34340Y-21070D01*
X33609Y-22330D02*
X34340Y-22330D01*
X31460Y-21870D02*
X31460Y-21530D01*
X31460Y-21530D02*
X32191Y-21530D01*
X32191Y-21870D02*
X32191Y-21530D01*
X31460Y-21870D02*
X32191Y-21870D01*
X31460Y-22780D02*
X31460Y-22440D01*
X31460Y-22440D02*
X32191Y-22440D01*
X32191Y-22780D02*
X32191Y-22440D01*
X31460Y-22780D02*
X32191Y-22780D01*
X31460Y-20960D02*
X31460Y-20620D01*
X31460Y-20620D02*
X32191Y-20620D01*
X32191Y-20960D02*
X32191Y-20620D01*
X31460Y-20960D02*
X32191Y-20960D01*
X33609Y-22330D02*
X33609Y-21070D01*
X33609Y-21070D02*
X34340Y-21070D01*
X34340Y-22330D02*
X34340Y-21070D01*
X33609Y-22330D02*
X34340Y-22330D01*
X31460Y-21870D02*
X31460Y-21530D01*
X31460Y-21530D02*
X32191Y-21530D01*
X32191Y-21870D02*
X32191Y-21530D01*
X31460Y-21870D02*
X32191Y-21870D01*
X31460Y-22780D02*
X31460Y-22440D01*
X31460Y-22440D02*
X32191Y-22440D01*
X32191Y-22780D02*
X32191Y-22440D01*
X31460Y-22780D02*
X32191Y-22780D01*
X31460Y-20960D02*
X31460Y-20620D01*
X31460Y-20620D02*
X32191Y-20620D01*
X32191Y-20960D02*
X32191Y-20620D01*
X31460Y-20960D02*
X32191Y-20960D01*
X32507Y-22093D02*
X32507Y-21307D01*
X32507Y-21307D02*
X33293Y-21307D01*
X33293Y-22093D02*
X33293Y-21307D01*
X32507Y-22093D02*
X33293Y-22093D01*
G54D12*
X33600Y-20410D02*
X32200Y-20410D01*
X32200Y-20410D02*
X32200Y-22990D01*
X32200Y-22990D02*
X33600Y-22990D01*
X33600Y-22990D02*
X33600Y-20410D01*
G54D17*
X34664Y-23067D02*
X34664Y-20333D01*
X31136Y-20333D02*
X31136Y-23067D01*
X31136Y-23067D02*
X34664Y-23067D01*
X34664Y-20333D02*
X31136Y-20333D01*
G54D16*
X32375Y-28010D02*
X32375Y-28265D01*
X32375Y-28265D02*
X31824Y-28265D01*
X31824Y-28010D02*
X31824Y-28265D01*
X32375Y-28010D02*
X31824Y-28010D01*
X32375Y-27430D02*
X32375Y-27686D01*
X32375Y-27686D02*
X31824Y-27686D01*
X31824Y-27430D02*
X31824Y-27686D01*
X32375Y-27430D02*
X31824Y-27430D01*
X32296Y-27772D02*
X32296Y-27928D01*
X32296Y-27928D02*
X31904Y-27928D01*
X31904Y-27772D02*
X31904Y-27928D01*
X32296Y-27772D02*
X31904Y-27772D01*
G54D19*
X31850Y-27689D02*
X31850Y-28011D01*
X32350Y-27689D02*
X32350Y-28011D01*
G54D17*
X31713Y-27074D02*
X31713Y-28626D01*
X31713Y-28626D02*
X32487Y-28626D01*
X32487Y-28626D02*
X32487Y-27074D01*
X32487Y-27074D02*
X31713Y-27074D01*
G54D15*
X35800Y-24900D02*
X35800Y-32900D01*
X35800Y-32900D02*
X36800Y-32900D01*
X36800Y-32900D02*
X36800Y-24900D01*
X36800Y-24900D02*
X35800Y-24900D01*
X36800Y-25900D02*
X35800Y-25900D01*
X28800Y-24900D02*
X28800Y-32900D01*
X28800Y-32900D02*
X29800Y-32900D01*
X29800Y-32900D02*
X29800Y-24900D01*
X29800Y-24900D02*
X28800Y-24900D01*
X29800Y-25900D02*
X28800Y-25900D01*
G54D10*
X32005Y-33105D02*
X32005Y-33695D01*
X32595Y-33695D01*
X32595Y-33105D01*
X32005Y-33105D01*
X33595Y-33400D02*
X33589Y-33457D01*
X33572Y-33512D01*
X33545Y-33563D01*
X33509Y-33607D01*
X33464Y-33644D01*
X33414Y-33671D01*
X33359Y-33688D01*
X33302Y-33694D01*
X33245Y-33689D01*
X33190Y-33673D01*
X33139Y-33646D01*
X33094Y-33610D01*
X33057Y-33566D01*
X33029Y-33516D01*
X33012Y-33461D01*
X33006Y-33404D01*
X33010Y-33347D01*
X33026Y-33292D01*
X33053Y-33241D01*
X33088Y-33196D01*
X33132Y-33158D01*
X33182Y-33130D01*
X33237Y-33112D01*
X33294Y-33106D01*
X33351Y-33110D01*
X33406Y-33125D01*
X33458Y-33151D01*
X33503Y-33187D01*
X33541Y-33230D01*
X33569Y-33281D01*
X33587Y-33335D01*
X33594Y-33392D01*
X33595Y-33400D01*
X32595Y-32400D02*
X32589Y-32457D01*
X32572Y-32512D01*
X32545Y-32563D01*
X32509Y-32607D01*
X32464Y-32644D01*
X32414Y-32671D01*
X32359Y-32688D01*
X32302Y-32694D01*
X32245Y-32689D01*
X32190Y-32673D01*
X32139Y-32646D01*
X32094Y-32610D01*
X32057Y-32566D01*
X32029Y-32516D01*
X32012Y-32461D01*
X32006Y-32404D01*
X32010Y-32347D01*
X32026Y-32292D01*
X32053Y-32241D01*
X32088Y-32196D01*
X32132Y-32158D01*
X32182Y-32130D01*
X32237Y-32112D01*
X32294Y-32106D01*
X32351Y-32110D01*
X32406Y-32125D01*
X32458Y-32151D01*
X32503Y-32187D01*
X32541Y-32230D01*
X32569Y-32281D01*
X32587Y-32335D01*
X32594Y-32392D01*
X32595Y-32400D01*
X33595Y-32400D02*
X33589Y-32457D01*
X33572Y-32512D01*
X33545Y-32563D01*
X33509Y-32607D01*
X33464Y-32644D01*
X33414Y-32671D01*
X33359Y-32688D01*
X33302Y-32694D01*
X33245Y-32689D01*
X33190Y-32673D01*
X33139Y-32646D01*
X33094Y-32610D01*
X33057Y-32566D01*
X33029Y-32516D01*
X33012Y-32461D01*
X33006Y-32404D01*
X33010Y-32347D01*
X33026Y-32292D01*
X33053Y-32241D01*
X33088Y-32196D01*
X33132Y-32158D01*
X33182Y-32130D01*
X33237Y-32112D01*
X33294Y-32106D01*
X33351Y-32110D01*
X33406Y-32125D01*
X33458Y-32151D01*
X33503Y-32187D01*
X33541Y-32230D01*
X33569Y-32281D01*
X33587Y-32335D01*
X33594Y-32392D01*
X33595Y-32400D01*
X32595Y-31400D02*
X32589Y-31457D01*
X32572Y-31512D01*
X32545Y-31563D01*
X32509Y-31607D01*
X32464Y-31644D01*
X32414Y-31671D01*
X32359Y-31688D01*
X32302Y-31694D01*
X32245Y-31689D01*
X32190Y-31673D01*
X32139Y-31646D01*
X32094Y-31610D01*
X32057Y-31566D01*
X32029Y-31516D01*
X32012Y-31461D01*
X32006Y-31404D01*
X32010Y-31347D01*
X32026Y-31292D01*
X32053Y-31241D01*
X32088Y-31196D01*
X32132Y-31158D01*
X32182Y-31130D01*
X32237Y-31112D01*
X32294Y-31106D01*
X32351Y-31110D01*
X32406Y-31125D01*
X32458Y-31151D01*
X32503Y-31187D01*
X32541Y-31230D01*
X32569Y-31281D01*
X32587Y-31335D01*
X32594Y-31392D01*
X32595Y-31400D01*
X33595Y-31400D02*
X33589Y-31457D01*
X33572Y-31512D01*
X33545Y-31563D01*
X33509Y-31607D01*
X33464Y-31644D01*
X33414Y-31671D01*
X33359Y-31688D01*
X33302Y-31694D01*
X33245Y-31689D01*
X33190Y-31673D01*
X33139Y-31646D01*
X33094Y-31610D01*
X33057Y-31566D01*
X33029Y-31516D01*
X33012Y-31461D01*
X33006Y-31404D01*
X33010Y-31347D01*
X33026Y-31292D01*
X33053Y-31241D01*
X33088Y-31196D01*
X33132Y-31158D01*
X33182Y-31130D01*
X33237Y-31112D01*
X33294Y-31106D01*
X33351Y-31110D01*
X33406Y-31125D01*
X33458Y-31151D01*
X33503Y-31187D01*
X33541Y-31230D01*
X33569Y-31281D01*
X33587Y-31335D01*
X33594Y-31392D01*
X33595Y-31400D01*
X30030Y-24130D02*
X30030Y-24670D01*
X30570Y-24670D01*
X30570Y-24130D01*
X30030Y-24130D01*
X31570Y-24400D02*
X31564Y-24452D01*
X31549Y-24502D01*
X31524Y-24549D01*
X31491Y-24590D01*
X31450Y-24623D01*
X31404Y-24648D01*
X31354Y-24664D01*
X31301Y-24669D01*
X31250Y-24665D01*
X31199Y-24650D01*
X31153Y-24625D01*
X31112Y-24592D01*
X31078Y-24552D01*
X31052Y-24506D01*
X31036Y-24456D01*
X31031Y-24403D01*
X31035Y-24352D01*
X31049Y-24301D01*
X31074Y-24254D01*
X31106Y-24213D01*
X31146Y-24179D01*
X31192Y-24153D01*
X31243Y-24137D01*
X31295Y-24131D01*
X31346Y-24135D01*
X31397Y-24149D01*
X31444Y-24173D01*
X31486Y-24205D01*
X31520Y-24245D01*
X31546Y-24291D01*
X31563Y-24341D01*
X31569Y-24393D01*
X31570Y-24400D01*
X32570Y-24400D02*
X32564Y-24452D01*
X32549Y-24502D01*
X32524Y-24549D01*
X32491Y-24590D01*
X32450Y-24623D01*
X32404Y-24648D01*
X32354Y-24664D01*
X32301Y-24669D01*
X32250Y-24665D01*
X32199Y-24650D01*
X32153Y-24625D01*
X32112Y-24592D01*
X32078Y-24552D01*
X32052Y-24506D01*
X32036Y-24456D01*
X32031Y-24403D01*
X32035Y-24352D01*
X32049Y-24301D01*
X32074Y-24254D01*
X32106Y-24213D01*
X32146Y-24179D01*
X32192Y-24153D01*
X32243Y-24137D01*
X32295Y-24131D01*
X32346Y-24135D01*
X32397Y-24149D01*
X32444Y-24173D01*
X32486Y-24205D01*
X32520Y-24245D01*
X32546Y-24291D01*
X32563Y-24341D01*
X32569Y-24393D01*
X32570Y-24400D01*
X33570Y-24400D02*
X33564Y-24452D01*
X33549Y-24502D01*
X33524Y-24549D01*
X33491Y-24590D01*
X33450Y-24623D01*
X33404Y-24648D01*
X33354Y-24664D01*
X33301Y-24669D01*
X33250Y-24665D01*
X33199Y-24650D01*
X33153Y-24625D01*
X33112Y-24592D01*
X33078Y-24552D01*
X33052Y-24506D01*
X33036Y-24456D01*
X33031Y-24403D01*
X33035Y-24352D01*
X33049Y-24301D01*
X33074Y-24254D01*
X33106Y-24213D01*
X33146Y-24179D01*
X33192Y-24153D01*
X33243Y-24137D01*
X33295Y-24131D01*
X33346Y-24135D01*
X33397Y-24149D01*
X33444Y-24173D01*
X33486Y-24205D01*
X33520Y-24245D01*
X33546Y-24291D01*
X33563Y-24341D01*
X33569Y-24393D01*
X33570Y-24400D01*
X34570Y-24400D02*
X34564Y-24452D01*
X34549Y-24502D01*
X34524Y-24549D01*
X34491Y-24590D01*
X34450Y-24623D01*
X34404Y-24648D01*
X34354Y-24664D01*
X34301Y-24669D01*
X34250Y-24665D01*
X34199Y-24650D01*
X34153Y-24625D01*
X34112Y-24592D01*
X34078Y-24552D01*
X34052Y-24506D01*
X34036Y-24456D01*
X34031Y-24403D01*
X34035Y-24352D01*
X34049Y-24301D01*
X34074Y-24254D01*
X34106Y-24213D01*
X34146Y-24179D01*
X34192Y-24153D01*
X34243Y-24137D01*
X34295Y-24131D01*
X34346Y-24135D01*
X34397Y-24149D01*
X34444Y-24173D01*
X34486Y-24205D01*
X34520Y-24245D01*
X34546Y-24291D01*
X34563Y-24341D01*
X34569Y-24393D01*
X34570Y-24400D01*
X35570Y-24400D02*
X35564Y-24452D01*
X35549Y-24502D01*
X35524Y-24549D01*
X35491Y-24590D01*
X35450Y-24623D01*
X35404Y-24648D01*
X35354Y-24664D01*
X35301Y-24669D01*
X35250Y-24665D01*
X35199Y-24650D01*
X35153Y-24625D01*
X35112Y-24592D01*
X35078Y-24552D01*
X35052Y-24506D01*
X35036Y-24456D01*
X35031Y-24403D01*
X35035Y-24352D01*
X35049Y-24301D01*
X35074Y-24254D01*
X35106Y-24213D01*
X35146Y-24179D01*
X35192Y-24153D01*
X35243Y-24137D01*
X35295Y-24131D01*
X35346Y-24135D01*
X35397Y-24149D01*
X35444Y-24173D01*
X35486Y-24205D01*
X35520Y-24245D01*
X35546Y-24291D01*
X35563Y-24341D01*
X35569Y-24393D01*
X35570Y-24400D01*
X36030Y-25130D02*
X36030Y-25670D01*
X36570Y-25670D01*
X36570Y-25130D01*
X36030Y-25130D01*
X36570Y-26400D02*
X36564Y-26452D01*
X36549Y-26502D01*
X36524Y-26549D01*
X36491Y-26590D01*
X36450Y-26623D01*
X36404Y-26648D01*
X36354Y-26664D01*
X36301Y-26669D01*
X36250Y-26665D01*
X36199Y-26650D01*
X36153Y-26625D01*
X36112Y-26592D01*
X36078Y-26552D01*
X36052Y-26506D01*
X36036Y-26456D01*
X36031Y-26403D01*
X36035Y-26352D01*
X36049Y-26301D01*
X36074Y-26254D01*
X36106Y-26213D01*
X36146Y-26179D01*
X36192Y-26153D01*
X36243Y-26137D01*
X36295Y-26131D01*
X36346Y-26135D01*
X36397Y-26149D01*
X36444Y-26173D01*
X36486Y-26205D01*
X36520Y-26245D01*
X36546Y-26291D01*
X36563Y-26341D01*
X36569Y-26393D01*
X36570Y-26400D01*
X36570Y-27400D02*
X36564Y-27452D01*
X36549Y-27502D01*
X36524Y-27549D01*
X36491Y-27590D01*
X36450Y-27623D01*
X36404Y-27648D01*
X36354Y-27664D01*
X36301Y-27669D01*
X36250Y-27665D01*
X36199Y-27650D01*
X36153Y-27625D01*
X36112Y-27592D01*
X36078Y-27552D01*
X36052Y-27506D01*
X36036Y-27456D01*
X36031Y-27403D01*
X36035Y-27352D01*
X36049Y-27301D01*
X36074Y-27254D01*
X36106Y-27213D01*
X36146Y-27179D01*
X36192Y-27153D01*
X36243Y-27137D01*
X36295Y-27131D01*
X36346Y-27135D01*
X36397Y-27149D01*
X36444Y-27173D01*
X36486Y-27205D01*
X36520Y-27245D01*
X36546Y-27291D01*
X36563Y-27341D01*
X36569Y-27393D01*
X36570Y-27400D01*
X36570Y-28400D02*
X36564Y-28452D01*
X36549Y-28502D01*
X36524Y-28549D01*
X36491Y-28590D01*
X36450Y-28623D01*
X36404Y-28648D01*
X36354Y-28664D01*
X36301Y-28669D01*
X36250Y-28665D01*
X36199Y-28650D01*
X36153Y-28625D01*
X36112Y-28592D01*
X36078Y-28552D01*
X36052Y-28506D01*
X36036Y-28456D01*
X36031Y-28403D01*
X36035Y-28352D01*
X36049Y-28301D01*
X36074Y-28254D01*
X36106Y-28213D01*
X36146Y-28179D01*
X36192Y-28153D01*
X36243Y-28137D01*
X36295Y-28131D01*
X36346Y-28135D01*
X36397Y-28149D01*
X36444Y-28173D01*
X36486Y-28205D01*
X36520Y-28245D01*
X36546Y-28291D01*
X36563Y-28341D01*
X36569Y-28393D01*
X36570Y-28400D01*
X36570Y-29400D02*
X36564Y-29452D01*
X36549Y-29502D01*
X36524Y-29549D01*
X36491Y-29590D01*
X36450Y-29623D01*
X36404Y-29648D01*
X36354Y-29664D01*
X36301Y-29669D01*
X36250Y-29665D01*
X36199Y-29650D01*
X36153Y-29625D01*
X36112Y-29592D01*
X36078Y-29552D01*
X36052Y-29506D01*
X36036Y-29456D01*
X36031Y-29403D01*
X36035Y-29352D01*
X36049Y-29301D01*
X36074Y-29254D01*
X36106Y-29213D01*
X36146Y-29179D01*
X36192Y-29153D01*
X36243Y-29137D01*
X36295Y-29131D01*
X36346Y-29135D01*
X36397Y-29149D01*
X36444Y-29173D01*
X36486Y-29205D01*
X36520Y-29245D01*
X36546Y-29291D01*
X36563Y-29341D01*
X36569Y-29393D01*
X36570Y-29400D01*
X36570Y-30400D02*
X36564Y-30452D01*
X36549Y-30502D01*
X36524Y-30549D01*
X36491Y-30590D01*
X36450Y-30623D01*
X36404Y-30648D01*
X36354Y-30664D01*
X36301Y-30669D01*
X36250Y-30665D01*
X36199Y-30650D01*
X36153Y-30625D01*
X36112Y-30592D01*
X36078Y-30552D01*
X36052Y-30506D01*
X36036Y-30456D01*
X36031Y-30403D01*
X36035Y-30352D01*
X36049Y-30301D01*
X36074Y-30254D01*
X36106Y-30213D01*
X36146Y-30179D01*
X36192Y-30153D01*
X36243Y-30137D01*
X36295Y-30131D01*
X36346Y-30135D01*
X36397Y-30149D01*
X36444Y-30173D01*
X36486Y-30205D01*
X36520Y-30245D01*
X36546Y-30291D01*
X36563Y-30341D01*
X36569Y-30393D01*
X36570Y-30400D01*
X36570Y-31400D02*
X36564Y-31452D01*
X36549Y-31502D01*
X36524Y-31549D01*
X36491Y-31590D01*
X36450Y-31623D01*
X36404Y-31648D01*
X36354Y-31664D01*
X36301Y-31669D01*
X36250Y-31665D01*
X36199Y-31650D01*
X36153Y-31625D01*
X36112Y-31592D01*
X36078Y-31552D01*
X36052Y-31506D01*
X36036Y-31456D01*
X36031Y-31403D01*
X36035Y-31352D01*
X36049Y-31301D01*
X36074Y-31254D01*
X36106Y-31213D01*
X36146Y-31179D01*
X36192Y-31153D01*
X36243Y-31137D01*
X36295Y-31131D01*
X36346Y-31135D01*
X36397Y-31149D01*
X36444Y-31173D01*
X36486Y-31205D01*
X36520Y-31245D01*
X36546Y-31291D01*
X36563Y-31341D01*
X36569Y-31393D01*
X36570Y-31400D01*
X36570Y-32400D02*
X36564Y-32452D01*
X36549Y-32502D01*
X36524Y-32549D01*
X36491Y-32590D01*
X36450Y-32623D01*
X36404Y-32648D01*
X36354Y-32664D01*
X36301Y-32669D01*
X36250Y-32665D01*
X36199Y-32650D01*
X36153Y-32625D01*
X36112Y-32592D01*
X36078Y-32552D01*
X36052Y-32506D01*
X36036Y-32456D01*
X36031Y-32403D01*
X36035Y-32352D01*
X36049Y-32301D01*
X36074Y-32254D01*
X36106Y-32213D01*
X36146Y-32179D01*
X36192Y-32153D01*
X36243Y-32137D01*
X36295Y-32131D01*
X36346Y-32135D01*
X36397Y-32149D01*
X36444Y-32173D01*
X36486Y-32205D01*
X36520Y-32245D01*
X36546Y-32291D01*
X36563Y-32341D01*
X36569Y-32393D01*
X36570Y-32400D01*
X29030Y-25130D02*
X29030Y-25670D01*
X29570Y-25670D01*
X29570Y-25130D01*
X29030Y-25130D01*
X29570Y-26400D02*
X29564Y-26452D01*
X29549Y-26502D01*
X29524Y-26549D01*
X29491Y-26590D01*
X29450Y-26623D01*
X29404Y-26648D01*
X29354Y-26664D01*
X29301Y-26669D01*
X29250Y-26665D01*
X29199Y-26650D01*
X29153Y-26625D01*
X29112Y-26592D01*
X29078Y-26552D01*
X29052Y-26506D01*
X29036Y-26456D01*
X29031Y-26403D01*
X29035Y-26352D01*
X29049Y-26301D01*
X29074Y-26254D01*
X29106Y-26213D01*
X29146Y-26179D01*
X29192Y-26153D01*
X29243Y-26137D01*
X29295Y-26131D01*
X29346Y-26135D01*
X29397Y-26149D01*
X29444Y-26173D01*
X29486Y-26205D01*
X29520Y-26245D01*
X29546Y-26291D01*
X29563Y-26341D01*
X29569Y-26393D01*
X29570Y-26400D01*
X29570Y-27400D02*
X29564Y-27452D01*
X29549Y-27502D01*
X29524Y-27549D01*
X29491Y-27590D01*
X29450Y-27623D01*
X29404Y-27648D01*
X29354Y-27664D01*
X29301Y-27669D01*
X29250Y-27665D01*
X29199Y-27650D01*
X29153Y-27625D01*
X29112Y-27592D01*
X29078Y-27552D01*
X29052Y-27506D01*
X29036Y-27456D01*
X29031Y-27403D01*
X29035Y-27352D01*
X29049Y-27301D01*
X29074Y-27254D01*
X29106Y-27213D01*
X29146Y-27179D01*
X29192Y-27153D01*
X29243Y-27137D01*
X29295Y-27131D01*
X29346Y-27135D01*
X29397Y-27149D01*
X29444Y-27173D01*
X29486Y-27205D01*
X29520Y-27245D01*
X29546Y-27291D01*
X29563Y-27341D01*
X29569Y-27393D01*
X29570Y-27400D01*
X29570Y-28400D02*
X29564Y-28452D01*
X29549Y-28502D01*
X29524Y-28549D01*
X29491Y-28590D01*
X29450Y-28623D01*
X29404Y-28648D01*
X29354Y-28664D01*
X29301Y-28669D01*
X29250Y-28665D01*
X29199Y-28650D01*
X29153Y-28625D01*
X29112Y-28592D01*
X29078Y-28552D01*
X29052Y-28506D01*
X29036Y-28456D01*
X29031Y-28403D01*
X29035Y-28352D01*
X29049Y-28301D01*
X29074Y-28254D01*
X29106Y-28213D01*
X29146Y-28179D01*
X29192Y-28153D01*
X29243Y-28137D01*
X29295Y-28131D01*
X29346Y-28135D01*
X29397Y-28149D01*
X29444Y-28173D01*
X29486Y-28205D01*
X29520Y-28245D01*
X29546Y-28291D01*
X29563Y-28341D01*
X29569Y-28393D01*
X29570Y-28400D01*
X29570Y-29400D02*
X29564Y-29452D01*
X29549Y-29502D01*
X29524Y-29549D01*
X29491Y-29590D01*
X29450Y-29623D01*
X29404Y-29648D01*
X29354Y-29664D01*
X29301Y-29669D01*
X29250Y-29665D01*
X29199Y-29650D01*
X29153Y-29625D01*
X29112Y-29592D01*
X29078Y-29552D01*
X29052Y-29506D01*
X29036Y-29456D01*
X29031Y-29403D01*
X29035Y-29352D01*
X29049Y-29301D01*
X29074Y-29254D01*
X29106Y-29213D01*
X29146Y-29179D01*
X29192Y-29153D01*
X29243Y-29137D01*
X29295Y-29131D01*
X29346Y-29135D01*
X29397Y-29149D01*
X29444Y-29173D01*
X29486Y-29205D01*
X29520Y-29245D01*
X29546Y-29291D01*
X29563Y-29341D01*
X29569Y-29393D01*
X29570Y-29400D01*
X29570Y-30400D02*
X29564Y-30452D01*
X29549Y-30502D01*
X29524Y-30549D01*
X29491Y-30590D01*
X29450Y-30623D01*
X29404Y-30648D01*
X29354Y-30664D01*
X29301Y-30669D01*
X29250Y-30665D01*
X29199Y-30650D01*
X29153Y-30625D01*
X29112Y-30592D01*
X29078Y-30552D01*
X29052Y-30506D01*
X29036Y-30456D01*
X29031Y-30403D01*
X29035Y-30352D01*
X29049Y-30301D01*
X29074Y-30254D01*
X29106Y-30213D01*
X29146Y-30179D01*
X29192Y-30153D01*
X29243Y-30137D01*
X29295Y-30131D01*
X29346Y-30135D01*
X29397Y-30149D01*
X29444Y-30173D01*
X29486Y-30205D01*
X29520Y-30245D01*
X29546Y-30291D01*
X29563Y-30341D01*
X29569Y-30393D01*
X29570Y-30400D01*
X29570Y-31400D02*
X29564Y-31452D01*
X29549Y-31502D01*
X29524Y-31549D01*
X29491Y-31590D01*
X29450Y-31623D01*
X29404Y-31648D01*
X29354Y-31664D01*
X29301Y-31669D01*
X29250Y-31665D01*
X29199Y-31650D01*
X29153Y-31625D01*
X29112Y-31592D01*
X29078Y-31552D01*
X29052Y-31506D01*
X29036Y-31456D01*
X29031Y-31403D01*
X29035Y-31352D01*
X29049Y-31301D01*
X29074Y-31254D01*
X29106Y-31213D01*
X29146Y-31179D01*
X29192Y-31153D01*
X29243Y-31137D01*
X29295Y-31131D01*
X29346Y-31135D01*
X29397Y-31149D01*
X29444Y-31173D01*
X29486Y-31205D01*
X29520Y-31245D01*
X29546Y-31291D01*
X29563Y-31341D01*
X29569Y-31393D01*
X29570Y-31400D01*
X29570Y-32400D02*
X29564Y-32452D01*
X29549Y-32502D01*
X29524Y-32549D01*
X29491Y-32590D01*
X29450Y-32623D01*
X29404Y-32648D01*
X29354Y-32664D01*
X29301Y-32669D01*
X29250Y-32665D01*
X29199Y-32650D01*
X29153Y-32625D01*
X29112Y-32592D01*
X29078Y-32552D01*
X29052Y-32506D01*
X29036Y-32456D01*
X29031Y-32403D01*
X29035Y-32352D01*
X29049Y-32301D01*
X29074Y-32254D01*
X29106Y-32213D01*
X29146Y-32179D01*
X29192Y-32153D01*
X29243Y-32137D01*
X29295Y-32131D01*
X29346Y-32135D01*
X29397Y-32149D01*
X29444Y-32173D01*
X29486Y-32205D01*
X29520Y-32245D01*
X29546Y-32291D01*
X29563Y-32341D01*
X29569Y-32393D01*
X29570Y-32400D01*
G54D13*
X39550Y-24793D02*
X39564Y-24807D01*
X39607Y-24821D01*
X39636Y-24821D01*
X39679Y-24807D01*
X39707Y-24779D01*
X39722Y-24750D01*
X39736Y-24693D01*
X39736Y-24650D01*
X39722Y-24593D01*
X39707Y-24564D01*
X39679Y-24536D01*
X39636Y-24521D01*
X39607Y-24521D01*
X39564Y-24536D01*
X39550Y-24550D01*
X39264Y-24821D02*
X39436Y-24821D01*
X39350Y-24821D02*
X39350Y-24521D01*
X39379Y-24564D01*
X39407Y-24593D01*
X39436Y-24607D01*
X26495Y-24773D02*
X26509Y-24787D01*
X26552Y-24801D01*
X26581Y-24801D01*
X26624Y-24787D01*
X26652Y-24759D01*
X26667Y-24730D01*
X26681Y-24673D01*
X26681Y-24630D01*
X26667Y-24573D01*
X26652Y-24544D01*
X26624Y-24516D01*
X26581Y-24501D01*
X26552Y-24501D01*
X26509Y-24516D01*
X26495Y-24530D01*
X26381Y-24530D02*
X26367Y-24516D01*
X26338Y-24501D01*
X26267Y-24501D01*
X26238Y-24516D01*
X26224Y-24530D01*
X26209Y-24559D01*
X26209Y-24587D01*
X26224Y-24630D01*
X26395Y-24801D01*
X26209Y-24801D01*
X33443Y-29100D02*
X33457Y-29086D01*
X33471Y-29043D01*
X33471Y-29014D01*
X33457Y-28971D01*
X33429Y-28943D01*
X33400Y-28928D01*
X33343Y-28914D01*
X33300Y-28914D01*
X33243Y-28928D01*
X33214Y-28943D01*
X33186Y-28971D01*
X33171Y-29014D01*
X33171Y-29043D01*
X33186Y-29086D01*
X33200Y-29100D01*
X33171Y-29200D02*
X33171Y-29386D01*
X33286Y-29286D01*
X33286Y-29328D01*
X33300Y-29357D01*
X33314Y-29371D01*
X33343Y-29386D01*
X33414Y-29386D01*
X33443Y-29371D01*
X33457Y-29357D01*
X33471Y-29328D01*
X33471Y-29243D01*
X33457Y-29214D01*
X33443Y-29200D01*
X35650Y-20893D02*
X35664Y-20907D01*
X35707Y-20921D01*
X35736Y-20921D01*
X35779Y-20907D01*
X35807Y-20879D01*
X35822Y-20850D01*
X35836Y-20793D01*
X35836Y-20750D01*
X35822Y-20693D01*
X35807Y-20664D01*
X35779Y-20636D01*
X35736Y-20621D01*
X35707Y-20621D01*
X35664Y-20636D01*
X35650Y-20650D01*
X35379Y-20621D02*
X35522Y-20621D01*
X35536Y-20764D01*
X35522Y-20750D01*
X35493Y-20736D01*
X35422Y-20736D01*
X35393Y-20750D01*
X35379Y-20764D01*
X35364Y-20793D01*
X35364Y-20864D01*
X35379Y-20893D01*
X35393Y-20907D01*
X35422Y-20921D01*
X35493Y-20921D01*
X35522Y-20907D01*
X35536Y-20893D01*
X30150Y-20893D02*
X30164Y-20907D01*
X30207Y-20921D01*
X30236Y-20921D01*
X30279Y-20907D01*
X30307Y-20879D01*
X30322Y-20850D01*
X30336Y-20793D01*
X30336Y-20750D01*
X30322Y-20693D01*
X30307Y-20664D01*
X30279Y-20636D01*
X30236Y-20621D01*
X30207Y-20621D01*
X30164Y-20636D01*
X30150Y-20650D01*
X29893Y-20721D02*
X29893Y-20921D01*
X29964Y-20607D02*
X30036Y-20821D01*
X29850Y-20821D01*
X32221Y-29100D02*
X32079Y-29000D01*
X32221Y-28928D02*
X31921Y-28928D01*
X31921Y-29043D01*
X31936Y-29071D01*
X31950Y-29086D01*
X31979Y-29100D01*
X32021Y-29100D01*
X32050Y-29086D01*
X32064Y-29071D01*
X32079Y-29043D01*
X32079Y-28928D01*
X31921Y-29200D02*
X31921Y-29400D01*
X32221Y-29271D01*
M02*
