G04 (created by PCBNEW (2013-09-20 BZR 4325)-product) date Sun 22 Sep 2013 01:26:36 AM CEST*
%MOIN*%
G04 Gerber Fmt 3.4, Leading zero omitted, Abs format*
%FSLAX34Y34*%
G01*
G70*
G90*
G04 APERTURE LIST*
%ADD10C,0.005906*%
%ADD11R,0.055118X0.070866*%
%ADD12R,0.070866X0.055118*%
%ADD13R,0.078700X0.017700*%
%ADD14R,0.017700X0.078700*%
%ADD15R,0.060000X0.060000*%
%ADD16C,0.060000*%
%ADD17R,0.059055X0.039370*%
%ADD18O,0.059055X0.039370*%
%ADD19R,0.039370X0.059055*%
%ADD20O,0.039370X0.059055*%
%ADD21C,0.098425*%
G04 APERTURE END LIST*
G54D10*
G36*
X38003Y-23432D02*
X38504Y-23933D01*
X38114Y-24322D01*
X37613Y-23821D01*
X38003Y-23432D01*
X38003Y-23432D01*
G37*
G36*
X38921Y-22513D02*
X39422Y-23014D01*
X39033Y-23404D01*
X38532Y-22903D01*
X38921Y-22513D01*
X38921Y-22513D01*
G37*
G36*
X37585Y-21177D02*
X38086Y-21678D01*
X37696Y-22067D01*
X37195Y-21566D01*
X37585Y-21177D01*
X37585Y-21177D01*
G37*
G36*
X36666Y-22095D02*
X37167Y-22596D01*
X36778Y-22986D01*
X36277Y-22485D01*
X36666Y-22095D01*
X36666Y-22095D01*
G37*
G54D11*
X26149Y-26905D03*
X24850Y-26905D03*
X24850Y-28794D03*
X26149Y-28794D03*
G54D10*
G36*
X27496Y-32317D02*
X26995Y-31816D01*
X27385Y-31427D01*
X27886Y-31928D01*
X27496Y-32317D01*
X27496Y-32317D01*
G37*
G36*
X26578Y-33236D02*
X26077Y-32735D01*
X26466Y-32345D01*
X26967Y-32846D01*
X26578Y-33236D01*
X26578Y-33236D01*
G37*
G36*
X27914Y-34572D02*
X27413Y-34071D01*
X27803Y-33682D01*
X28304Y-34183D01*
X27914Y-34572D01*
X27914Y-34572D01*
G37*
G36*
X28833Y-33654D02*
X28332Y-33153D01*
X28721Y-32763D01*
X29222Y-33264D01*
X28833Y-33654D01*
X28833Y-33654D01*
G37*
G54D12*
X31805Y-34450D03*
X31805Y-35749D03*
X33694Y-35749D03*
X33694Y-34450D03*
G54D10*
G36*
X37167Y-33153D02*
X36666Y-33654D01*
X36277Y-33264D01*
X36778Y-32763D01*
X37167Y-33153D01*
X37167Y-33153D01*
G37*
G36*
X38086Y-34071D02*
X37585Y-34572D01*
X37195Y-34183D01*
X37696Y-33682D01*
X38086Y-34071D01*
X38086Y-34071D01*
G37*
G36*
X39422Y-32735D02*
X38921Y-33236D01*
X38532Y-32846D01*
X39033Y-32345D01*
X39422Y-32735D01*
X39422Y-32735D01*
G37*
G36*
X38504Y-31816D02*
X38003Y-32317D01*
X37613Y-31928D01*
X38114Y-31427D01*
X38504Y-31816D01*
X38504Y-31816D01*
G37*
G54D11*
X39350Y-28794D03*
X40649Y-28794D03*
X40649Y-26905D03*
X39350Y-26905D03*
G54D12*
X33694Y-21249D03*
X33694Y-19950D03*
X31805Y-19950D03*
X31805Y-21249D03*
G54D10*
G36*
X28282Y-22596D02*
X28783Y-22095D01*
X29172Y-22485D01*
X28671Y-22986D01*
X28282Y-22596D01*
X28282Y-22596D01*
G37*
G36*
X27363Y-21678D02*
X27864Y-21177D01*
X28254Y-21566D01*
X27753Y-22067D01*
X27363Y-21678D01*
X27363Y-21678D01*
G37*
G36*
X26027Y-23014D02*
X26528Y-22513D01*
X26917Y-22903D01*
X26416Y-23404D01*
X26027Y-23014D01*
X26027Y-23014D01*
G37*
G36*
X26945Y-23933D02*
X27446Y-23432D01*
X27836Y-23821D01*
X27335Y-24322D01*
X26945Y-23933D01*
X26945Y-23933D01*
G37*
G54D13*
X30854Y-28943D03*
X30854Y-28628D03*
X30854Y-28313D03*
X30854Y-27998D03*
X30854Y-27683D03*
X30854Y-27368D03*
X30854Y-27053D03*
X30854Y-26738D03*
X34620Y-26740D03*
X34620Y-28950D03*
X34620Y-28630D03*
X34620Y-28310D03*
X34620Y-28000D03*
X34620Y-27680D03*
X34620Y-27370D03*
X34620Y-27050D03*
G54D14*
X31638Y-25950D03*
X31952Y-25950D03*
X32268Y-25950D03*
X32582Y-25950D03*
X32898Y-25950D03*
X33212Y-25950D03*
X33528Y-25950D03*
X33842Y-25950D03*
X31640Y-29730D03*
X31950Y-29730D03*
X32270Y-29730D03*
X32580Y-29730D03*
X32890Y-29730D03*
X33210Y-29730D03*
X33530Y-29730D03*
X33850Y-29730D03*
G54D15*
X33250Y-26850D03*
G54D16*
X32250Y-26850D03*
X33250Y-27850D03*
X32250Y-27850D03*
X33250Y-28850D03*
X32250Y-28850D03*
G54D15*
X35216Y-22795D03*
G54D16*
X34216Y-22795D03*
X33216Y-22795D03*
X32216Y-22795D03*
X31216Y-22795D03*
X30216Y-22795D03*
G54D17*
X36746Y-29603D03*
G54D18*
X36746Y-29103D03*
X36746Y-28603D03*
X36746Y-28103D03*
X36746Y-27603D03*
X36746Y-27103D03*
X36746Y-26603D03*
X36746Y-26103D03*
G54D19*
X30996Y-31853D03*
G54D20*
X31496Y-31853D03*
X31996Y-31853D03*
X32496Y-31853D03*
X32996Y-31853D03*
X33496Y-31853D03*
X33996Y-31853D03*
X34496Y-31853D03*
G54D19*
X34496Y-23853D03*
G54D20*
X33996Y-23853D03*
X33496Y-23853D03*
X32996Y-23853D03*
X32496Y-23853D03*
X31996Y-23853D03*
X31496Y-23853D03*
X30996Y-23853D03*
G54D17*
X28746Y-26103D03*
G54D18*
X28746Y-26603D03*
X28746Y-27103D03*
X28746Y-27603D03*
X28746Y-28103D03*
X28746Y-28603D03*
X28746Y-29103D03*
X28746Y-29603D03*
G54D21*
X30050Y-25156D03*
X35443Y-25156D03*
X35443Y-30550D03*
X30050Y-30550D03*
M02*
