M48
INCH,TZ
T1C0.013
T2C0.025
T3C0.032
T4C0.040
T5C0.087
%
G90
G05
T1
X025538Y-028294
X025906Y-024136
X026022Y-029467
X026651Y-025386
X026771Y-024111
X026850Y-024826
X026856Y-031268
X027018Y-025868
X027216Y-030214
X027570Y-030624
X027934Y-022479
X028213Y-034522
X028487Y-030652
X028683Y-021483
X028995Y-031159
X029695Y-029501
X030017Y-027602
X030173Y-021638
X030630Y-033679
X030720Y-021919
X030927Y-033521
X030957Y-033960
X031009Y-024559
X031190Y-020445
X031298Y-023948
X031329Y-020914
X031380Y-024965
X031466Y-025370
X031603Y-031139
X031847Y-026539
X033642Y-021804
X034414Y-033609
X034427Y-035436
X034445Y-020567
X034450Y-034154
X034674Y-021668
X034829Y-020570
X034955Y-034270
X035132Y-021742
X035633Y-033243
X035902Y-027875
X036188Y-029129
X036557Y-021277
X036726Y-034604
X036760Y-030133
X037055Y-021190
X037311Y-031770
X037565Y-022517
X037644Y-029706
X038132Y-030133
X038150Y-029692
X038666Y-031102
X038672Y-031421
X038897Y-025858
X038987Y-029995
X039014Y-025410
X039146Y-031895
X039357Y-032417
X039450Y-031700
X039650Y-026198
X039956Y-027532
X039983Y-029884
X040382Y-029480
T2
X026220Y-032265
X035755Y-022669
X036879Y-026154
X036939Y-024887
T3
X027239Y-025411
X027946Y-024704
X028654Y-023996
X029361Y-023289
X030250Y-022250
X031250Y-022250
X031750Y-023250
X032250Y-022250
X032750Y-023250
X033250Y-022250
X033750Y-023250
X034250Y-022250
X035250Y-022250
X036089Y-023289
X036796Y-023996
X037504Y-024704
X038211Y-025411
T4
X032250Y-026850
X032250Y-027850
X032250Y-028850
X033250Y-026850
X033250Y-027850
X033250Y-028850
T5
X030050Y-025150
X030050Y-030550
X035450Y-025150
X035450Y-030550
T0
M30
