G04 (created by PCBNEW-RS274X (2010-04-21 BZR 23xx)-stable) date Sun 05 Sep 2010 11:36:07 PM CEST*
G01*
G70*
G90*
%MOIN*%
G04 Gerber Fmt 3.4, Leading zero omitted, Abs format*
%FSLAX34Y34*%
G04 APERTURE LIST*
%ADD10C,0.001000*%
%ADD11R,0.060000X0.060000*%
%ADD12C,0.060000*%
%ADD13R,0.055000X0.055000*%
%ADD14C,0.055000*%
%ADD15R,0.078700X0.017700*%
%ADD16R,0.017700X0.078700*%
%ADD17R,0.051100X0.059000*%
%ADD18R,0.035400X0.059100*%
%ADD19R,0.059100X0.035400*%
%ADD20C,0.035000*%
%ADD21C,0.008000*%
%ADD22C,0.010000*%
%ADD23C,0.014000*%
G04 APERTURE END LIST*
G54D10*
G54D11*
X32300Y-33400D03*
G54D12*
X33300Y-33400D03*
X32300Y-32400D03*
X33300Y-32400D03*
X32300Y-31400D03*
X33300Y-31400D03*
G54D13*
X30300Y-24400D03*
G54D14*
X31300Y-24400D03*
X32300Y-24400D03*
X33300Y-24400D03*
X34300Y-24400D03*
X35300Y-24400D03*
G54D15*
X30854Y-28943D03*
X30854Y-28628D03*
X30854Y-28313D03*
X30854Y-27998D03*
X30854Y-27683D03*
X30854Y-27368D03*
X30854Y-27053D03*
X30854Y-26738D03*
X34620Y-26740D03*
X34620Y-28950D03*
X34620Y-28630D03*
X34620Y-28310D03*
X34620Y-28000D03*
X34620Y-27680D03*
X34620Y-27370D03*
X34620Y-27050D03*
G54D16*
X31638Y-25950D03*
X31952Y-25950D03*
X32268Y-25950D03*
X32582Y-25950D03*
X32898Y-25950D03*
X33212Y-25950D03*
X33528Y-25950D03*
X33842Y-25950D03*
X31640Y-29730D03*
X31950Y-29730D03*
X32270Y-29730D03*
X32580Y-29730D03*
X32890Y-29730D03*
X33210Y-29730D03*
X33530Y-29730D03*
X33850Y-29730D03*
G54D17*
X39176Y-29950D03*
X39924Y-29950D03*
X38876Y-30900D03*
X39624Y-30900D03*
X29776Y-34750D03*
X30524Y-34750D03*
X35026Y-34750D03*
X35774Y-34750D03*
G54D10*
G36*
X27653Y-32203D02*
X27236Y-31786D01*
X27487Y-31535D01*
X27904Y-31952D01*
X27653Y-32203D01*
X27653Y-32203D01*
G37*
G36*
X27207Y-32648D02*
X26790Y-32231D01*
X27041Y-31980D01*
X27458Y-32397D01*
X27207Y-32648D01*
X27207Y-32648D01*
G37*
G36*
X26762Y-33094D02*
X26345Y-32677D01*
X26596Y-32426D01*
X27013Y-32843D01*
X26762Y-33094D01*
X26762Y-33094D01*
G37*
G36*
X28153Y-34485D02*
X27736Y-34068D01*
X27987Y-33817D01*
X28404Y-34234D01*
X28153Y-34485D01*
X28153Y-34485D01*
G37*
G36*
X28599Y-34040D02*
X28182Y-33623D01*
X28433Y-33372D01*
X28850Y-33789D01*
X28599Y-34040D01*
X28599Y-34040D01*
G37*
G36*
X29044Y-33594D02*
X28627Y-33177D01*
X28878Y-32926D01*
X29295Y-33343D01*
X29044Y-33594D01*
X29044Y-33594D01*
G37*
G54D18*
X26460Y-26906D03*
X25830Y-26906D03*
X25200Y-26906D03*
X25200Y-28874D03*
X25830Y-28874D03*
X26460Y-28874D03*
G54D10*
G36*
X28797Y-22793D02*
X29214Y-22376D01*
X29465Y-22627D01*
X29048Y-23044D01*
X28797Y-22793D01*
X28797Y-22793D01*
G37*
G36*
X28352Y-22347D02*
X28769Y-21930D01*
X29020Y-22181D01*
X28603Y-22598D01*
X28352Y-22347D01*
X28352Y-22347D01*
G37*
G36*
X27906Y-21902D02*
X28323Y-21485D01*
X28574Y-21736D01*
X28157Y-22153D01*
X27906Y-21902D01*
X27906Y-21902D01*
G37*
G36*
X26515Y-23293D02*
X26932Y-22876D01*
X27183Y-23127D01*
X26766Y-23544D01*
X26515Y-23293D01*
X26515Y-23293D01*
G37*
G36*
X26960Y-23739D02*
X27377Y-23322D01*
X27628Y-23573D01*
X27211Y-23990D01*
X26960Y-23739D01*
X26960Y-23739D01*
G37*
G36*
X27406Y-24184D02*
X27823Y-23767D01*
X28074Y-24018D01*
X27657Y-24435D01*
X27406Y-24184D01*
X27406Y-24184D01*
G37*
G54D19*
X33834Y-21620D03*
X33834Y-20990D03*
X33834Y-20360D03*
X31866Y-20360D03*
X31866Y-20990D03*
X31866Y-21620D03*
G54D10*
G36*
X38007Y-23777D02*
X38424Y-24194D01*
X38173Y-24445D01*
X37756Y-24028D01*
X38007Y-23777D01*
X38007Y-23777D01*
G37*
G36*
X38453Y-23332D02*
X38870Y-23749D01*
X38619Y-24000D01*
X38202Y-23583D01*
X38453Y-23332D01*
X38453Y-23332D01*
G37*
G36*
X38898Y-22886D02*
X39315Y-23303D01*
X39064Y-23554D01*
X38647Y-23137D01*
X38898Y-22886D01*
X38898Y-22886D01*
G37*
G36*
X37507Y-21495D02*
X37924Y-21912D01*
X37673Y-22163D01*
X37256Y-21746D01*
X37507Y-21495D01*
X37507Y-21495D01*
G37*
G36*
X37061Y-21940D02*
X37478Y-22357D01*
X37227Y-22608D01*
X36810Y-22191D01*
X37061Y-21940D01*
X37061Y-21940D01*
G37*
G36*
X36616Y-22386D02*
X37033Y-22803D01*
X36782Y-23054D01*
X36365Y-22637D01*
X36616Y-22386D01*
X36616Y-22386D01*
G37*
G54D18*
X39320Y-28884D03*
X39950Y-28884D03*
X40580Y-28884D03*
X40580Y-26916D03*
X39950Y-26916D03*
X39320Y-26916D03*
G54D10*
G36*
X37093Y-33247D02*
X36676Y-33664D01*
X36425Y-33413D01*
X36842Y-32996D01*
X37093Y-33247D01*
X37093Y-33247D01*
G37*
G36*
X37538Y-33693D02*
X37121Y-34110D01*
X36870Y-33859D01*
X37287Y-33442D01*
X37538Y-33693D01*
X37538Y-33693D01*
G37*
G36*
X37984Y-34138D02*
X37567Y-34555D01*
X37316Y-34304D01*
X37733Y-33887D01*
X37984Y-34138D01*
X37984Y-34138D01*
G37*
G36*
X39375Y-32747D02*
X38958Y-33164D01*
X38707Y-32913D01*
X39124Y-32496D01*
X39375Y-32747D01*
X39375Y-32747D01*
G37*
G36*
X38930Y-32301D02*
X38513Y-32718D01*
X38262Y-32467D01*
X38679Y-32050D01*
X38930Y-32301D01*
X38930Y-32301D01*
G37*
G36*
X38484Y-31856D02*
X38067Y-32273D01*
X37816Y-32022D01*
X38233Y-31605D01*
X38484Y-31856D01*
X38484Y-31856D01*
G37*
G54D19*
X31866Y-34470D03*
X31866Y-35100D03*
X31866Y-35730D03*
X33834Y-35730D03*
X33834Y-35100D03*
X33834Y-34470D03*
G54D17*
X26226Y-30900D03*
X26974Y-30900D03*
X25876Y-29950D03*
X26624Y-29950D03*
G54D13*
X36300Y-25400D03*
G54D14*
X36300Y-26400D03*
X36300Y-27400D03*
X36300Y-28400D03*
X36300Y-29400D03*
X36300Y-30400D03*
X36300Y-31400D03*
X36300Y-32400D03*
G54D13*
X29300Y-25400D03*
G54D14*
X29300Y-26400D03*
X29300Y-27400D03*
X29300Y-28400D03*
X29300Y-29400D03*
X29300Y-30400D03*
X29300Y-31400D03*
X29300Y-32400D03*
G54D20*
X35577Y-26527D03*
X35393Y-33228D03*
X35482Y-31847D03*
X36949Y-30920D03*
X37209Y-28890D03*
X37168Y-27948D03*
X34276Y-26252D03*
X35223Y-30046D03*
X33439Y-26781D03*
X34999Y-29359D03*
X27359Y-22131D03*
X33244Y-20548D03*
X25429Y-27539D03*
X27262Y-33066D03*
X29899Y-35514D03*
X32726Y-28316D03*
X27959Y-32968D03*
X29941Y-33909D03*
X26011Y-27716D03*
X33110Y-34604D03*
X31806Y-32812D03*
X37770Y-33168D03*
X34037Y-30892D03*
X39879Y-27670D03*
X38879Y-28191D03*
X38537Y-22515D03*
X38861Y-29130D03*
X34395Y-30005D03*
X33300Y-22136D03*
X35560Y-30403D03*
X31141Y-30448D03*
X26902Y-24383D03*
X30340Y-30588D03*
X26777Y-27632D03*
X26912Y-29295D03*
X32533Y-26675D03*
X32792Y-25210D03*
X34763Y-25875D03*
X30419Y-25984D03*
X31758Y-28758D03*
X34775Y-25303D03*
X34426Y-34620D03*
X31654Y-26853D03*
X38276Y-30864D03*
X31029Y-32543D03*
X28820Y-29965D03*
X27117Y-26354D03*
X38516Y-28833D03*
X38562Y-29762D03*
G54D21*
X35370Y-26527D02*
X35157Y-26740D01*
X35577Y-26527D02*
X35370Y-26527D01*
X34620Y-26740D02*
X35157Y-26740D01*
X35393Y-31936D02*
X35482Y-31847D01*
X35393Y-33228D02*
X35393Y-31936D01*
X36780Y-30920D02*
X36949Y-30920D01*
X36300Y-31400D02*
X36780Y-30920D01*
X37168Y-28849D02*
X37209Y-28890D01*
X37168Y-27948D02*
X37168Y-28849D01*
X33842Y-25950D02*
X33842Y-26486D01*
X34042Y-26486D02*
X33842Y-26486D01*
X34276Y-26252D02*
X34042Y-26486D01*
X35946Y-30046D02*
X36300Y-30400D01*
X35223Y-30046D02*
X35946Y-30046D01*
X33528Y-26692D02*
X33528Y-25950D01*
X33439Y-26781D02*
X33528Y-26692D01*
X36259Y-29359D02*
X36300Y-29400D01*
X34999Y-29359D02*
X36259Y-29359D01*
G54D22*
X39049Y-23787D02*
X39299Y-23537D01*
X39049Y-23789D02*
X39049Y-23787D01*
X38989Y-23849D02*
X39049Y-23789D01*
X38989Y-27310D02*
X38989Y-23849D01*
X39136Y-27457D02*
X38989Y-27310D01*
X39186Y-27457D02*
X39136Y-27457D01*
X39880Y-28151D02*
X39186Y-27457D01*
X40281Y-28151D02*
X39880Y-28151D01*
X40566Y-28436D02*
X40281Y-28151D01*
X40580Y-28436D02*
X40566Y-28436D01*
X38265Y-31348D02*
X39624Y-31348D01*
X37311Y-32302D02*
X38265Y-31348D01*
X37311Y-33195D02*
X37311Y-32302D01*
X37966Y-33850D02*
X37311Y-33195D01*
X37966Y-33905D02*
X37966Y-33850D01*
X40333Y-29580D02*
X40580Y-29333D01*
X40333Y-29950D02*
X40333Y-29580D01*
X40580Y-28884D02*
X40580Y-29333D01*
X27920Y-22131D02*
X27924Y-22135D01*
X27359Y-22131D02*
X27920Y-22131D01*
X28240Y-21819D02*
X27924Y-22135D01*
X33244Y-20502D02*
X33244Y-20548D01*
X33386Y-20360D02*
X33244Y-20502D01*
X25244Y-27354D02*
X25200Y-27354D01*
X25429Y-27539D02*
X25244Y-27354D01*
X25200Y-26906D02*
X25200Y-27354D01*
X27005Y-33066D02*
X26995Y-33076D01*
X27262Y-33066D02*
X27005Y-33066D01*
X26679Y-32760D02*
X26995Y-33076D01*
X33815Y-20360D02*
X33386Y-20360D01*
X33815Y-20360D02*
X33834Y-20360D01*
X34487Y-20564D02*
X34283Y-20360D01*
X34487Y-21012D02*
X34487Y-20564D01*
X36745Y-23270D02*
X34487Y-21012D01*
X36785Y-23270D02*
X36745Y-23270D01*
X37151Y-22904D02*
X36785Y-23270D01*
X38665Y-22904D02*
X37151Y-22904D01*
X33834Y-20360D02*
X34283Y-20360D01*
X38951Y-23190D02*
X38665Y-22904D01*
X31201Y-35514D02*
X29899Y-35514D01*
X31417Y-35730D02*
X31201Y-35514D01*
X31866Y-35730D02*
X31417Y-35730D01*
X39924Y-29950D02*
X40129Y-29950D01*
X40129Y-29950D02*
X40333Y-29950D01*
X39627Y-30452D02*
X39624Y-30452D01*
X40129Y-29950D02*
X39627Y-30452D01*
X39624Y-30900D02*
X39624Y-30452D01*
X37650Y-34221D02*
X37966Y-33905D01*
X39624Y-30900D02*
X39624Y-31348D01*
X38951Y-23190D02*
X38981Y-23220D01*
X38981Y-23220D02*
X39299Y-23537D01*
X40580Y-28884D02*
X40580Y-28436D01*
G54D23*
X30854Y-27368D02*
X30288Y-27368D01*
X30854Y-27998D02*
X30288Y-27998D01*
X34904Y-27680D02*
X35187Y-27680D01*
X34904Y-27680D02*
X34620Y-27680D01*
X35187Y-27513D02*
X35187Y-27680D01*
X36300Y-26400D02*
X35187Y-27513D01*
X34620Y-27680D02*
X34054Y-27680D01*
X30288Y-27368D02*
X30288Y-27998D01*
X30268Y-27368D02*
X29300Y-26400D01*
X30288Y-27368D02*
X30268Y-27368D01*
X32211Y-27368D02*
X30854Y-27368D01*
X32726Y-27883D02*
X32211Y-27368D01*
X32929Y-27680D02*
X32726Y-27883D01*
X34054Y-27680D02*
X32929Y-27680D01*
X32726Y-27883D02*
X32726Y-28316D01*
G54D22*
X38740Y-23870D02*
X38536Y-23666D01*
X38740Y-27350D02*
X38740Y-23870D01*
X39050Y-27660D02*
X38740Y-27350D01*
X39101Y-27660D02*
X39050Y-27660D01*
X39877Y-28436D02*
X39101Y-27660D01*
X39950Y-28436D02*
X39877Y-28436D01*
X35774Y-34750D02*
X35774Y-35198D01*
X28700Y-22250D02*
X29003Y-21947D01*
X28700Y-22250D02*
X28686Y-22264D01*
X25830Y-26906D02*
X25830Y-26457D01*
X29343Y-21947D02*
X29003Y-21947D01*
X31260Y-20030D02*
X29343Y-21947D01*
X32262Y-20030D02*
X31260Y-20030D01*
X33222Y-20990D02*
X32262Y-20030D01*
X33386Y-20990D02*
X33222Y-20990D01*
X27778Y-32968D02*
X27959Y-32968D01*
X27124Y-32314D02*
X27778Y-32968D01*
X35774Y-34750D02*
X36183Y-34750D01*
X37204Y-33776D02*
X36887Y-34093D01*
X36840Y-34093D02*
X36183Y-34750D01*
X36887Y-34093D02*
X36840Y-34093D01*
X28241Y-22709D02*
X28686Y-22264D01*
X28241Y-24075D02*
X28241Y-22709D01*
X25859Y-26457D02*
X28241Y-24075D01*
X25830Y-26457D02*
X25859Y-26457D01*
X30334Y-34302D02*
X29941Y-33909D01*
X30524Y-34302D02*
X30334Y-34302D01*
X30524Y-34750D02*
X30524Y-34302D01*
X31894Y-35100D02*
X32314Y-35100D01*
X33807Y-20990D02*
X33386Y-20990D01*
X33807Y-20990D02*
X33834Y-20990D01*
X38049Y-23519D02*
X38219Y-23349D01*
X36681Y-23519D02*
X38049Y-23519D01*
X34283Y-21121D02*
X36681Y-23519D01*
X34283Y-20990D02*
X34283Y-21121D01*
X33834Y-20990D02*
X34283Y-20990D01*
X38536Y-23666D02*
X38219Y-23349D01*
X39950Y-28884D02*
X39950Y-28436D01*
X26011Y-27535D02*
X25830Y-27354D01*
X26011Y-27716D02*
X26011Y-27535D01*
X25830Y-26906D02*
X25830Y-27354D01*
X33274Y-36060D02*
X32314Y-35100D01*
X34346Y-36060D02*
X33274Y-36060D01*
X35208Y-35198D02*
X34346Y-36060D01*
X35774Y-35198D02*
X35208Y-35198D01*
X31894Y-35100D02*
X31866Y-35100D01*
X31283Y-35100D02*
X30933Y-34750D01*
X31866Y-35100D02*
X31283Y-35100D01*
X30524Y-34750D02*
X30933Y-34750D01*
X33834Y-35100D02*
X34058Y-35100D01*
X33834Y-35730D02*
X34282Y-35730D01*
X34282Y-35324D02*
X34282Y-35730D01*
X34058Y-35100D02*
X34282Y-35324D01*
X33834Y-35100D02*
X33385Y-35100D01*
X33834Y-34470D02*
X33610Y-34470D01*
X32580Y-30341D02*
X32580Y-29730D01*
X31806Y-31115D02*
X32580Y-30341D01*
X31806Y-32812D02*
X31806Y-31115D01*
X33385Y-34604D02*
X33110Y-34604D01*
X33519Y-34470D02*
X33385Y-34604D01*
X33610Y-34470D02*
X33519Y-34470D01*
X33385Y-34604D02*
X33385Y-35100D01*
X32890Y-30654D02*
X32890Y-29730D01*
X33128Y-30892D02*
X32890Y-30654D01*
X34037Y-30892D02*
X33128Y-30892D01*
X38741Y-31896D02*
X38741Y-32239D01*
X38467Y-31622D02*
X38741Y-31896D01*
X38150Y-31939D02*
X38467Y-31622D01*
X38669Y-32311D02*
X38669Y-32745D01*
X38596Y-32384D02*
X38669Y-32311D01*
X38669Y-32311D02*
X38741Y-32239D01*
X38956Y-32745D02*
X38669Y-32745D01*
X39041Y-32830D02*
X38956Y-32745D01*
X38193Y-32745D02*
X37770Y-33168D01*
X38669Y-32745D02*
X38193Y-32745D01*
X39950Y-26916D02*
X39950Y-27140D01*
X40580Y-26916D02*
X40580Y-27365D01*
X39320Y-26468D02*
X39950Y-26468D01*
X39320Y-26916D02*
X39320Y-26468D01*
X39950Y-26916D02*
X39950Y-26468D01*
X39950Y-27140D02*
X40175Y-27365D01*
X40580Y-27365D02*
X40175Y-27365D01*
X40175Y-27374D02*
X39879Y-27670D01*
X40175Y-27365D02*
X40175Y-27374D01*
X33210Y-29730D02*
X33210Y-29183D01*
X34074Y-29183D02*
X33210Y-29183D01*
X34609Y-29718D02*
X34074Y-29183D01*
X35360Y-29718D02*
X34609Y-29718D01*
X35490Y-29848D02*
X35360Y-29718D01*
X36478Y-29848D02*
X35490Y-29848D01*
X36840Y-29486D02*
X36478Y-29848D01*
X36840Y-27812D02*
X36840Y-29486D01*
X37032Y-27620D02*
X36840Y-27812D01*
X38308Y-27620D02*
X37032Y-27620D01*
X38879Y-28191D02*
X38308Y-27620D01*
X38860Y-29130D02*
X38861Y-29130D01*
X38860Y-28678D02*
X38860Y-29130D01*
X38550Y-28368D02*
X38860Y-28678D01*
X38510Y-28368D02*
X38550Y-28368D01*
X37636Y-29242D02*
X38510Y-28368D01*
X37636Y-29689D02*
X37636Y-29242D01*
X36496Y-30829D02*
X37636Y-29689D01*
X34397Y-30829D02*
X36496Y-30829D01*
X37144Y-22274D02*
X37462Y-22591D01*
X37462Y-22591D02*
X37907Y-22146D01*
X36382Y-22403D02*
X36828Y-21957D01*
X36699Y-22720D02*
X36382Y-22403D01*
X37144Y-22274D02*
X36828Y-21957D01*
X37590Y-21829D02*
X37907Y-22146D01*
X38276Y-22515D02*
X37907Y-22146D01*
X38537Y-22515D02*
X38276Y-22515D01*
X33530Y-29730D02*
X33530Y-30276D01*
X34397Y-30780D02*
X34397Y-30829D01*
X33893Y-30276D02*
X34397Y-30780D01*
X33530Y-30276D02*
X33893Y-30276D01*
X34397Y-31303D02*
X33300Y-32400D01*
X34397Y-30829D02*
X34397Y-31303D01*
X31866Y-20990D02*
X31642Y-20990D01*
X31418Y-20766D02*
X31418Y-20360D01*
X31642Y-20990D02*
X31418Y-20766D01*
X31866Y-20360D02*
X31418Y-20360D01*
X33850Y-29730D02*
X33850Y-29952D01*
X31866Y-20990D02*
X32315Y-20990D01*
X32315Y-21620D02*
X32315Y-20990D01*
X34342Y-29952D02*
X34395Y-30005D01*
X33850Y-29952D02*
X34342Y-29952D01*
X31866Y-21620D02*
X32315Y-21620D01*
X32784Y-21620D02*
X33300Y-22136D01*
X32315Y-21620D02*
X32784Y-21620D01*
X34793Y-30403D02*
X34395Y-30005D01*
X35560Y-30403D02*
X34793Y-30403D01*
X27294Y-23656D02*
X27136Y-23814D01*
X26819Y-23814D02*
X26532Y-23527D01*
X27136Y-23814D02*
X26819Y-23814D01*
X26849Y-23210D02*
X26532Y-23527D01*
X27740Y-24101D02*
X27423Y-24418D01*
X31001Y-30588D02*
X31141Y-30448D01*
X30340Y-30588D02*
X31001Y-30588D01*
X27136Y-24274D02*
X27136Y-23814D01*
X27279Y-24274D02*
X27136Y-24274D01*
X27423Y-24418D02*
X27279Y-24274D01*
X27011Y-24274D02*
X26902Y-24383D01*
X27136Y-24274D02*
X27011Y-24274D01*
X32031Y-28950D02*
X34620Y-28950D01*
X31895Y-29086D02*
X32031Y-28950D01*
X31586Y-29086D02*
X31895Y-29086D01*
X31141Y-29531D02*
X31586Y-29086D01*
X31141Y-30448D02*
X31141Y-29531D01*
X26460Y-28874D02*
X26460Y-28922D01*
X25830Y-28874D02*
X25830Y-29098D01*
X25830Y-29098D02*
X25830Y-29322D01*
X25606Y-29322D02*
X25200Y-29322D01*
X25830Y-29098D02*
X25606Y-29322D01*
X26109Y-29322D02*
X25830Y-29322D01*
X26460Y-28971D02*
X26109Y-29322D01*
X26460Y-28922D02*
X26460Y-28971D01*
X25200Y-28874D02*
X25200Y-29322D01*
X29864Y-28628D02*
X30854Y-28628D01*
X29570Y-28922D02*
X29864Y-28628D01*
X26460Y-28922D02*
X29570Y-28922D01*
X30854Y-28943D02*
X30308Y-28943D01*
X28961Y-33260D02*
X29182Y-33481D01*
X29925Y-32738D02*
X29182Y-33481D01*
X29925Y-29326D02*
X29925Y-32738D01*
X30308Y-28943D02*
X29925Y-29326D01*
X28516Y-33706D02*
X28747Y-33937D01*
X28747Y-33916D02*
X28747Y-33937D01*
X29182Y-33481D02*
X28747Y-33916D01*
X28747Y-34108D02*
X28387Y-34468D01*
X28747Y-33937D02*
X28747Y-34108D01*
X28070Y-34151D02*
X28387Y-34468D01*
X38407Y-24429D02*
X38408Y-24428D01*
X38407Y-27304D02*
X38407Y-24429D01*
X38966Y-27863D02*
X38407Y-27304D01*
X39016Y-27863D02*
X38966Y-27863D01*
X39207Y-28054D02*
X39016Y-27863D01*
X39207Y-28323D02*
X39207Y-28054D01*
X39320Y-28436D02*
X39207Y-28323D01*
X36759Y-33330D02*
X37075Y-33014D01*
X27033Y-29416D02*
X26912Y-29295D01*
X27033Y-29950D02*
X27033Y-29416D01*
X26226Y-30900D02*
X26226Y-31348D01*
X39320Y-28884D02*
X39320Y-28436D01*
X26570Y-30452D02*
X26226Y-30452D01*
X26624Y-30398D02*
X26570Y-30452D01*
X26624Y-29950D02*
X26624Y-30398D01*
X26226Y-30900D02*
X26226Y-30452D01*
X39320Y-28884D02*
X39320Y-29333D01*
X27049Y-31348D02*
X27570Y-31869D01*
X26226Y-31348D02*
X27049Y-31348D01*
X38189Y-24210D02*
X38408Y-24428D01*
X28815Y-24102D02*
X28815Y-23026D01*
X26460Y-26457D02*
X28815Y-24102D01*
X29131Y-22710D02*
X28815Y-23026D01*
X35949Y-34140D02*
X36759Y-33330D01*
X32644Y-34140D02*
X35949Y-34140D01*
X32314Y-34470D02*
X32644Y-34140D01*
X31866Y-34470D02*
X32314Y-34470D01*
X26460Y-26906D02*
X26460Y-26681D01*
X26460Y-26681D02*
X26460Y-26457D01*
X26777Y-26998D02*
X26777Y-27632D01*
X26460Y-26681D02*
X26777Y-26998D01*
X26624Y-29950D02*
X27033Y-29950D01*
X38189Y-24210D02*
X38090Y-24111D01*
X29131Y-22710D02*
X29449Y-22392D01*
X38090Y-24111D02*
X37774Y-23795D01*
X33437Y-22464D02*
X33865Y-22036D01*
X33164Y-22464D02*
X33437Y-22464D01*
X33093Y-22393D02*
X33164Y-22464D01*
X29449Y-22393D02*
X33093Y-22393D01*
X29449Y-22392D02*
X29449Y-22393D01*
X33834Y-22006D02*
X33865Y-22036D01*
X33834Y-21620D02*
X33834Y-22006D01*
X35623Y-23795D02*
X37774Y-23795D01*
X33865Y-22036D02*
X35623Y-23795D01*
X39158Y-29495D02*
X39320Y-29333D01*
X38760Y-29495D02*
X39158Y-29495D01*
X38630Y-29365D02*
X38760Y-29495D01*
X38271Y-29365D02*
X38630Y-29365D01*
X38079Y-29557D02*
X38271Y-29365D01*
X38079Y-30543D02*
X38079Y-29557D01*
X37075Y-31547D02*
X38079Y-30543D01*
X37075Y-33014D02*
X37075Y-31547D01*
G54D21*
X32582Y-26626D02*
X32582Y-25950D01*
X32533Y-26675D02*
X32582Y-26626D01*
X32268Y-25284D02*
X32268Y-25413D01*
X33152Y-24400D02*
X32268Y-25284D01*
X33300Y-24400D02*
X33152Y-24400D01*
X32268Y-25950D02*
X32268Y-25413D01*
X36591Y-25875D02*
X34763Y-25875D01*
X36719Y-26003D02*
X36591Y-25875D01*
X36719Y-26981D02*
X36719Y-26003D01*
X36300Y-27400D02*
X36719Y-26981D01*
X32898Y-25316D02*
X32792Y-25210D01*
X32898Y-25950D02*
X32898Y-25316D01*
X32692Y-27006D02*
X33212Y-26486D01*
X32291Y-27006D02*
X32692Y-27006D01*
X31771Y-26486D02*
X32291Y-27006D01*
X30921Y-26486D02*
X31771Y-26486D01*
X30419Y-25984D02*
X30921Y-26486D01*
X33212Y-25950D02*
X33212Y-26486D01*
X33212Y-25950D02*
X33212Y-25413D01*
X36300Y-28077D02*
X36300Y-28400D01*
X36950Y-27427D02*
X36300Y-28077D01*
X36950Y-25207D02*
X36950Y-27427D01*
X36705Y-24962D02*
X36950Y-25207D01*
X33663Y-24962D02*
X36705Y-24962D01*
X33212Y-25413D02*
X33663Y-24962D01*
X31952Y-25340D02*
X31952Y-25413D01*
X32719Y-24573D02*
X31952Y-25340D01*
X32719Y-24150D02*
X32719Y-24573D01*
X32888Y-23981D02*
X32719Y-24150D01*
X33881Y-23981D02*
X32888Y-23981D01*
X34300Y-24400D02*
X33881Y-23981D01*
X31952Y-25950D02*
X31952Y-25413D01*
G54D23*
X30854Y-27683D02*
X31421Y-27683D01*
X31421Y-28313D02*
X31421Y-27683D01*
X30854Y-28313D02*
X31421Y-28313D01*
X34620Y-28630D02*
X34054Y-28630D01*
X35201Y-31499D02*
X33300Y-33400D01*
X35748Y-31499D02*
X35201Y-31499D01*
X36300Y-32051D02*
X35748Y-31499D01*
X36300Y-32400D02*
X36300Y-32051D01*
X31758Y-28678D02*
X31772Y-28664D01*
X31758Y-28758D02*
X31758Y-28678D01*
X31421Y-28313D02*
X31772Y-28664D01*
X34020Y-28664D02*
X34054Y-28630D01*
X31772Y-28664D02*
X34020Y-28664D01*
X34775Y-25304D02*
X34775Y-25303D01*
X35756Y-25304D02*
X34775Y-25304D01*
X35852Y-25400D02*
X35756Y-25304D01*
X36300Y-25400D02*
X35852Y-25400D01*
G54D22*
X31640Y-29730D02*
X31640Y-30276D01*
X29776Y-34750D02*
X29776Y-34302D01*
X29613Y-34139D02*
X29776Y-34302D01*
X29613Y-33568D02*
X29613Y-34139D01*
X30208Y-32973D02*
X29613Y-33568D01*
X30208Y-31846D02*
X30208Y-32973D01*
X31640Y-30414D02*
X30208Y-31846D01*
X31640Y-30276D02*
X31640Y-30414D01*
X34556Y-34750D02*
X34426Y-34620D01*
X35026Y-34750D02*
X34556Y-34750D01*
X31454Y-27053D02*
X31654Y-26853D01*
X30854Y-27053D02*
X31454Y-27053D01*
X29522Y-25952D02*
X30308Y-26738D01*
X29107Y-25952D02*
X29522Y-25952D01*
X26935Y-28124D02*
X29107Y-25952D01*
X25197Y-28124D02*
X26935Y-28124D01*
X24869Y-28452D02*
X25197Y-28124D01*
X24869Y-29556D02*
X24869Y-28452D01*
X25263Y-29950D02*
X24869Y-29556D01*
X25876Y-29950D02*
X25263Y-29950D01*
X30854Y-26738D02*
X30308Y-26738D01*
X38276Y-30727D02*
X38276Y-30864D01*
X38551Y-30452D02*
X38276Y-30727D01*
X38876Y-30452D02*
X38551Y-30452D01*
X38876Y-30900D02*
X38876Y-30452D01*
X31950Y-30392D02*
X31950Y-29730D01*
X31029Y-31313D02*
X31950Y-30392D01*
X31029Y-32543D02*
X31029Y-31313D01*
X28839Y-24632D02*
X27117Y-26354D01*
X29729Y-24632D02*
X28839Y-24632D01*
X30500Y-25403D02*
X29729Y-24632D01*
X31638Y-25403D02*
X30500Y-25403D01*
X28318Y-29965D02*
X28820Y-29965D01*
X27383Y-30900D02*
X28318Y-29965D01*
X31638Y-25950D02*
X31638Y-25403D01*
X26974Y-30900D02*
X27383Y-30900D01*
X38580Y-29762D02*
X38562Y-29762D01*
X38768Y-29950D02*
X38580Y-29762D01*
X39176Y-29950D02*
X38768Y-29950D01*
X32270Y-29730D02*
X32270Y-30276D01*
X37876Y-29473D02*
X38516Y-28833D01*
X37876Y-30458D02*
X37876Y-29473D01*
X36821Y-31513D02*
X37876Y-30458D01*
X36821Y-32494D02*
X36821Y-31513D01*
X35446Y-33869D02*
X36821Y-32494D01*
X31941Y-33869D02*
X35446Y-33869D01*
X31357Y-33285D02*
X31941Y-33869D01*
X31357Y-31275D02*
X31357Y-33285D01*
X32270Y-30362D02*
X31357Y-31275D01*
X32270Y-30276D02*
X32270Y-30362D01*
M02*
