G04 (created by PCBnew (20090216-final)) date Tue 05 Jan 2010 07:43:12 PM CET*
G01*
G70*
G90*
%MOIN*%
G04 Gerber Fmt 3.4, Leading zero omitted, Abs format*
%FSLAX34Y34*%
G04 APERTURE LIST*
%ADD10C,0.010000*%
%ADD11R,0.055000X0.055000*%
%ADD12C,0.055000*%
%ADD13R,0.060000X0.060000*%
%ADD14C,0.060000*%
%ADD15R,0.051100X0.059000*%
%ADD16R,0.062900X0.070800*%
%ADD17R,0.040000X0.040000*%
%ADD18C,0.045000*%
%ADD19C,0.012000*%
%ADD20R,0.078700X0.017700*%
%ADD21R,0.017700X0.078700*%
%ADD22R,0.035400X0.059100*%
%ADD23R,0.059100X0.035400*%
%ADD24C,0.007500*%
%ADD25C,0.015000*%
%ADD26C,0.008000*%
%ADD27C,0.002600*%
%ADD28C,0.002000*%
%ADD29C,0.004000*%
%ADD30C,0.006000*%
%ADD31C,0.001000*%
G04 APERTURE END LIST*
G54D10*
X29816Y-22400D02*
X29638Y-22800D01*
X29638Y-22800D02*
X29460Y-22400D01*
X29139Y-22800D02*
X29139Y-22756D01*
X28639Y-22800D02*
X28461Y-22800D01*
X28550Y-22800D02*
X28550Y-22400D01*
X28550Y-22445D02*
X28639Y-22534D01*
X28051Y-22800D02*
X28051Y-22756D01*
X27551Y-22800D02*
X27373Y-22800D01*
X27462Y-22800D02*
X27462Y-22400D01*
X27462Y-22445D02*
X27551Y-22534D01*
G54D24*
X37270Y-33900D02*
X37503Y-33900D01*
X37503Y-33900D02*
X37503Y-33800D01*
X37503Y-33800D02*
X37470Y-33767D01*
X37470Y-33767D02*
X37303Y-33767D01*
X37303Y-33767D02*
X37270Y-33734D01*
X37270Y-33734D02*
X37270Y-33634D01*
X37270Y-33634D02*
X37303Y-33600D01*
X37303Y-33600D02*
X37470Y-33600D01*
X37470Y-33600D02*
X37503Y-33634D01*
X36995Y-33900D02*
X36995Y-33867D01*
X36687Y-33900D02*
X36687Y-33600D01*
X36687Y-33600D02*
X36487Y-33600D01*
X36487Y-33600D02*
X36454Y-33634D01*
X36454Y-33634D02*
X36454Y-33700D01*
X36454Y-33700D02*
X36487Y-33734D01*
X36487Y-33734D02*
X36687Y-33734D01*
X36487Y-33734D02*
X36454Y-33800D01*
X36454Y-33800D02*
X36454Y-33867D01*
X36454Y-33867D02*
X36487Y-33900D01*
X36487Y-33900D02*
X36687Y-33900D01*
X36279Y-33900D02*
X36279Y-33700D01*
X36279Y-33767D02*
X36212Y-33700D01*
X36212Y-33700D02*
X36112Y-33700D01*
X36112Y-33700D02*
X36046Y-33767D01*
X35771Y-33600D02*
X35771Y-33634D01*
X35771Y-33734D02*
X35771Y-33867D01*
X35771Y-33867D02*
X35738Y-33900D01*
X35738Y-33900D02*
X35704Y-33900D01*
X35230Y-33600D02*
X35230Y-33900D01*
X35230Y-33900D02*
X35430Y-33900D01*
X35430Y-33900D02*
X35463Y-33867D01*
X35463Y-33867D02*
X35463Y-33734D01*
X35463Y-33734D02*
X35430Y-33700D01*
X35430Y-33700D02*
X35230Y-33700D01*
X35055Y-33966D02*
X35022Y-34000D01*
X35022Y-34000D02*
X34855Y-34000D01*
X34855Y-34000D02*
X34822Y-33966D01*
X34822Y-33966D02*
X34822Y-33734D01*
X34822Y-33734D02*
X34855Y-33700D01*
X34855Y-33700D02*
X35022Y-33700D01*
X35022Y-33700D02*
X35055Y-33734D01*
X35055Y-33734D02*
X35055Y-33867D01*
X35055Y-33867D02*
X35022Y-33900D01*
X35022Y-33900D02*
X34855Y-33900D01*
X34855Y-33900D02*
X34822Y-33867D01*
X34647Y-33800D02*
X34414Y-33800D01*
X34414Y-33800D02*
X34414Y-33734D01*
X34414Y-33734D02*
X34447Y-33700D01*
X34447Y-33700D02*
X34614Y-33700D01*
X34614Y-33700D02*
X34647Y-33734D01*
X34647Y-33734D02*
X34647Y-33867D01*
X34647Y-33867D02*
X34614Y-33900D01*
X34614Y-33900D02*
X34447Y-33900D01*
X34447Y-33900D02*
X34414Y-33867D01*
X34139Y-33900D02*
X34139Y-33867D01*
X34139Y-33767D02*
X34139Y-33600D01*
X34740Y-29850D02*
X34607Y-29850D01*
X34674Y-29850D02*
X34674Y-29550D01*
X34674Y-29584D02*
X34740Y-29650D01*
X34299Y-29850D02*
X34299Y-29817D01*
X33991Y-29850D02*
X33991Y-29550D01*
X33991Y-29550D02*
X33791Y-29550D01*
X33791Y-29550D02*
X33758Y-29584D01*
X33758Y-29584D02*
X33758Y-29650D01*
X33758Y-29650D02*
X33791Y-29684D01*
X33791Y-29684D02*
X33991Y-29684D01*
X33791Y-29684D02*
X33758Y-29750D01*
X33758Y-29750D02*
X33758Y-29817D01*
X33758Y-29817D02*
X33791Y-29850D01*
X33791Y-29850D02*
X33991Y-29850D01*
X33550Y-29850D02*
X33583Y-29817D01*
X33583Y-29817D02*
X33583Y-29684D01*
X33583Y-29684D02*
X33550Y-29650D01*
X33550Y-29650D02*
X33383Y-29650D01*
X33383Y-29650D02*
X33350Y-29684D01*
X33350Y-29684D02*
X33350Y-29817D01*
X33350Y-29817D02*
X33383Y-29850D01*
X33383Y-29850D02*
X33550Y-29850D01*
X33142Y-29850D02*
X33175Y-29817D01*
X33175Y-29817D02*
X33175Y-29684D01*
X33175Y-29684D02*
X33142Y-29650D01*
X33142Y-29650D02*
X32975Y-29650D01*
X32975Y-29650D02*
X32942Y-29684D01*
X32942Y-29684D02*
X32942Y-29817D01*
X32942Y-29817D02*
X32975Y-29850D01*
X32975Y-29850D02*
X33142Y-29850D01*
X32567Y-29817D02*
X32600Y-29850D01*
X32600Y-29850D02*
X32700Y-29850D01*
X32700Y-29850D02*
X32734Y-29817D01*
X32734Y-29817D02*
X32734Y-29550D01*
X32734Y-29650D02*
X32634Y-29650D01*
X32326Y-29717D02*
X32159Y-29717D01*
X31951Y-29550D02*
X31951Y-29850D01*
X31951Y-29850D02*
X31684Y-29850D01*
X31510Y-29850D02*
X31510Y-29550D01*
X31543Y-29550D02*
X31343Y-29550D01*
X31343Y-29550D02*
X31310Y-29584D01*
X31310Y-29584D02*
X31310Y-29817D01*
X31310Y-29817D02*
X31343Y-29850D01*
X31343Y-29850D02*
X31543Y-29850D01*
X31135Y-29850D02*
X31135Y-29550D01*
X31135Y-29550D02*
X30935Y-29550D01*
X30935Y-29550D02*
X30902Y-29584D01*
X30902Y-29584D02*
X30902Y-29684D01*
X30902Y-29684D02*
X30935Y-29717D01*
X30935Y-29717D02*
X31135Y-29717D01*
X31035Y-29717D02*
X30902Y-29850D01*
G54D10*
X35100Y-26518D02*
X35500Y-26518D01*
X35500Y-26562D02*
X35500Y-26295D01*
X35500Y-26295D02*
X35455Y-26251D01*
X35455Y-26251D02*
X35144Y-26251D01*
X35144Y-26251D02*
X35100Y-26295D01*
X35100Y-26295D02*
X35100Y-26562D01*
X35500Y-26018D02*
X35500Y-25662D01*
X35500Y-25840D02*
X35100Y-25840D01*
X35100Y-25474D02*
X35500Y-25474D01*
X35500Y-25474D02*
X35500Y-25207D01*
X35500Y-25207D02*
X35455Y-25163D01*
X35455Y-25163D02*
X35322Y-25163D01*
X35322Y-25163D02*
X35277Y-25207D01*
X35277Y-25207D02*
X35277Y-25474D01*
X35277Y-25341D02*
X35100Y-25163D01*
G54D24*
X38346Y-23650D02*
X38579Y-23650D01*
X38579Y-23650D02*
X38579Y-23550D01*
X38579Y-23550D02*
X38546Y-23517D01*
X38546Y-23517D02*
X38379Y-23517D01*
X38379Y-23517D02*
X38346Y-23484D01*
X38346Y-23484D02*
X38346Y-23384D01*
X38346Y-23384D02*
X38379Y-23350D01*
X38379Y-23350D02*
X38546Y-23350D01*
X38546Y-23350D02*
X38579Y-23384D01*
X38171Y-23650D02*
X37938Y-23350D01*
X38171Y-23617D02*
X38171Y-23384D01*
X38171Y-23384D02*
X38138Y-23350D01*
X38138Y-23350D02*
X37971Y-23350D01*
X37971Y-23350D02*
X37938Y-23384D01*
X37938Y-23384D02*
X37938Y-23617D01*
X37938Y-23617D02*
X37971Y-23650D01*
X37971Y-23650D02*
X38138Y-23650D01*
X38138Y-23650D02*
X38171Y-23617D01*
X37763Y-23650D02*
X37530Y-23350D01*
X37763Y-23617D02*
X37763Y-23384D01*
X37763Y-23384D02*
X37730Y-23350D01*
X37730Y-23350D02*
X37563Y-23350D01*
X37563Y-23350D02*
X37530Y-23384D01*
X37530Y-23384D02*
X37530Y-23617D01*
X37530Y-23617D02*
X37563Y-23650D01*
X37563Y-23650D02*
X37730Y-23650D01*
X37730Y-23650D02*
X37763Y-23617D01*
X37322Y-23650D02*
X37155Y-23650D01*
X37155Y-23650D02*
X37122Y-23617D01*
X37122Y-23617D02*
X37122Y-23384D01*
X37122Y-23384D02*
X37155Y-23350D01*
X37155Y-23350D02*
X37322Y-23350D01*
X37322Y-23350D02*
X37355Y-23384D01*
X37355Y-23384D02*
X37355Y-23484D01*
X37355Y-23484D02*
X37322Y-23517D01*
X37322Y-23517D02*
X37155Y-23517D01*
X37155Y-23517D02*
X37122Y-23484D01*
X36506Y-23517D02*
X36339Y-23517D01*
X35723Y-23350D02*
X35723Y-23650D01*
X35723Y-23650D02*
X35490Y-23650D01*
X35490Y-23650D02*
X35490Y-23517D01*
X35490Y-23517D02*
X35523Y-23484D01*
X35523Y-23484D02*
X35723Y-23484D01*
X35248Y-23350D02*
X35215Y-23350D01*
X35215Y-23350D02*
X35215Y-23650D01*
X35248Y-23650D02*
X35182Y-23650D01*
X34874Y-23650D02*
X34907Y-23617D01*
X34907Y-23617D02*
X34907Y-23484D01*
X34907Y-23484D02*
X34874Y-23450D01*
X34874Y-23450D02*
X34707Y-23450D01*
X34707Y-23450D02*
X34674Y-23484D01*
X34674Y-23484D02*
X34674Y-23617D01*
X34674Y-23617D02*
X34707Y-23650D01*
X34707Y-23650D02*
X34874Y-23650D01*
X34499Y-23716D02*
X34466Y-23750D01*
X34466Y-23750D02*
X34299Y-23750D01*
X34299Y-23750D02*
X34266Y-23716D01*
X34266Y-23716D02*
X34266Y-23484D01*
X34266Y-23484D02*
X34299Y-23450D01*
X34299Y-23450D02*
X34466Y-23450D01*
X34466Y-23450D02*
X34499Y-23484D01*
X34499Y-23484D02*
X34499Y-23617D01*
X34499Y-23617D02*
X34466Y-23650D01*
X34466Y-23650D02*
X34299Y-23650D01*
X34299Y-23650D02*
X34266Y-23617D01*
X33991Y-23650D02*
X33991Y-23617D01*
X33683Y-23617D02*
X33650Y-23650D01*
X33650Y-23650D02*
X33483Y-23650D01*
X33483Y-23650D02*
X33450Y-23617D01*
X33450Y-23617D02*
X33450Y-23584D01*
X33450Y-23584D02*
X33483Y-23550D01*
X33483Y-23550D02*
X33650Y-23550D01*
X33650Y-23550D02*
X33683Y-23517D01*
X33683Y-23517D02*
X33683Y-23484D01*
X33683Y-23484D02*
X33650Y-23450D01*
X33650Y-23450D02*
X33483Y-23450D01*
X33483Y-23450D02*
X33450Y-23484D01*
X33275Y-23750D02*
X33275Y-23450D01*
X33275Y-23484D02*
X33242Y-23450D01*
X33242Y-23450D02*
X33075Y-23450D01*
X33075Y-23450D02*
X33042Y-23484D01*
X33042Y-23484D02*
X33042Y-23617D01*
X33042Y-23617D02*
X33075Y-23650D01*
X33075Y-23650D02*
X33242Y-23650D01*
X33242Y-23650D02*
X33275Y-23617D01*
X32767Y-23350D02*
X32767Y-23384D01*
X32767Y-23484D02*
X32767Y-23617D01*
X32767Y-23617D02*
X32734Y-23650D01*
X32734Y-23650D02*
X32700Y-23650D01*
X32259Y-23617D02*
X32292Y-23650D01*
X32292Y-23650D02*
X32392Y-23650D01*
X32392Y-23650D02*
X32426Y-23617D01*
X32426Y-23617D02*
X32426Y-23350D01*
X32426Y-23450D02*
X32326Y-23450D01*
X32051Y-23450D02*
X31818Y-23450D01*
X31818Y-23450D02*
X32051Y-23650D01*
X32051Y-23650D02*
X31818Y-23650D01*
X31643Y-23550D02*
X31410Y-23550D01*
X31410Y-23550D02*
X31410Y-23484D01*
X31410Y-23484D02*
X31443Y-23450D01*
X31443Y-23450D02*
X31610Y-23450D01*
X31610Y-23450D02*
X31643Y-23484D01*
X31643Y-23484D02*
X31643Y-23617D01*
X31643Y-23617D02*
X31610Y-23650D01*
X31610Y-23650D02*
X31443Y-23650D01*
X31443Y-23650D02*
X31410Y-23617D01*
X31235Y-23650D02*
X31235Y-23450D01*
X31235Y-23484D02*
X31202Y-23450D01*
X31202Y-23450D02*
X31068Y-23450D01*
X31068Y-23450D02*
X31035Y-23484D01*
X31035Y-23484D02*
X31035Y-23650D01*
X30827Y-23750D02*
X30827Y-23450D01*
X30827Y-23484D02*
X30794Y-23450D01*
X30794Y-23450D02*
X30627Y-23450D01*
X30627Y-23450D02*
X30594Y-23484D01*
X30594Y-23484D02*
X30594Y-23617D01*
X30594Y-23617D02*
X30627Y-23650D01*
X30627Y-23650D02*
X30794Y-23650D01*
X30794Y-23650D02*
X30827Y-23617D01*
X30386Y-23650D02*
X30386Y-23384D01*
X30386Y-23384D02*
X30352Y-23350D01*
X30352Y-23350D02*
X30219Y-23350D01*
X30219Y-23350D02*
X30186Y-23384D01*
X30419Y-23484D02*
X30319Y-23484D01*
X30011Y-23550D02*
X29778Y-23550D01*
X29778Y-23550D02*
X29778Y-23484D01*
X29778Y-23484D02*
X29811Y-23450D01*
X29811Y-23450D02*
X29978Y-23450D01*
X29978Y-23450D02*
X30011Y-23484D01*
X30011Y-23484D02*
X30011Y-23617D01*
X30011Y-23617D02*
X29978Y-23650D01*
X29978Y-23650D02*
X29811Y-23650D01*
X29811Y-23650D02*
X29778Y-23617D01*
X29503Y-23350D02*
X29503Y-23384D01*
X29503Y-23484D02*
X29503Y-23617D01*
X29503Y-23617D02*
X29470Y-23650D01*
X29470Y-23650D02*
X29436Y-23650D01*
X29128Y-23350D02*
X29095Y-23350D01*
X29095Y-23350D02*
X29095Y-23650D01*
X29128Y-23650D02*
X29062Y-23650D01*
X28687Y-23650D02*
X28687Y-23617D01*
X28346Y-23650D02*
X28379Y-23617D01*
X28379Y-23617D02*
X28379Y-23484D01*
X28379Y-23484D02*
X28346Y-23450D01*
X28346Y-23450D02*
X28179Y-23450D01*
X28179Y-23450D02*
X28146Y-23484D01*
X28146Y-23484D02*
X28146Y-23617D01*
X28146Y-23617D02*
X28179Y-23650D01*
X28179Y-23650D02*
X28346Y-23650D01*
X27971Y-23650D02*
X27971Y-23450D01*
X27971Y-23517D02*
X27904Y-23450D01*
X27904Y-23450D02*
X27804Y-23450D01*
X27804Y-23450D02*
X27738Y-23517D01*
X27563Y-23716D02*
X27530Y-23750D01*
X27530Y-23750D02*
X27363Y-23750D01*
X27363Y-23750D02*
X27330Y-23716D01*
X27330Y-23716D02*
X27330Y-23484D01*
X27330Y-23484D02*
X27363Y-23450D01*
X27363Y-23450D02*
X27530Y-23450D01*
X27530Y-23450D02*
X27563Y-23484D01*
X27563Y-23484D02*
X27563Y-23617D01*
X27563Y-23617D02*
X27530Y-23650D01*
X27530Y-23650D02*
X27363Y-23650D01*
X27363Y-23650D02*
X27330Y-23617D01*
G54D25*
X28850Y-31420D02*
X28849Y-31421D01*
X28849Y-31421D02*
X28849Y-31423D01*
X28849Y-31423D02*
X28848Y-31425D01*
X28848Y-31425D02*
X28847Y-31427D01*
X28847Y-31427D02*
X28845Y-31428D01*
X28845Y-31428D02*
X28843Y-31429D01*
X28843Y-31429D02*
X28842Y-31429D01*
X28842Y-31429D02*
X28840Y-31429D01*
X28840Y-31429D02*
X28839Y-31429D01*
X28839Y-31429D02*
X28837Y-31429D01*
X28837Y-31429D02*
X28835Y-31428D01*
X28835Y-31428D02*
X28834Y-31427D01*
X28834Y-31427D02*
X28832Y-31425D01*
X28832Y-31425D02*
X28831Y-31423D01*
X28831Y-31423D02*
X28831Y-31422D01*
X28831Y-31422D02*
X28831Y-31420D01*
X28831Y-31420D02*
X28831Y-31419D01*
X28831Y-31419D02*
X28831Y-31417D01*
X28831Y-31417D02*
X28832Y-31415D01*
X28832Y-31415D02*
X28833Y-31414D01*
X28833Y-31414D02*
X28835Y-31412D01*
X28835Y-31412D02*
X28836Y-31411D01*
X28836Y-31411D02*
X28838Y-31411D01*
X28838Y-31411D02*
X28840Y-31411D01*
X28840Y-31411D02*
X28841Y-31411D01*
X28841Y-31411D02*
X28843Y-31411D01*
X28843Y-31411D02*
X28845Y-31412D01*
X28845Y-31412D02*
X28846Y-31413D01*
X28846Y-31413D02*
X28848Y-31415D01*
X28848Y-31415D02*
X28849Y-31416D01*
X28849Y-31416D02*
X28849Y-31418D01*
X28849Y-31418D02*
X28849Y-31420D01*
X28849Y-31420D02*
X28850Y-31420D01*
X29030Y-31420D02*
X29029Y-31421D01*
X29029Y-31421D02*
X29029Y-31423D01*
X29029Y-31423D02*
X29028Y-31425D01*
X29028Y-31425D02*
X29027Y-31427D01*
X29027Y-31427D02*
X29025Y-31428D01*
X29025Y-31428D02*
X29023Y-31429D01*
X29023Y-31429D02*
X29022Y-31429D01*
X29022Y-31429D02*
X29020Y-31429D01*
X29020Y-31429D02*
X29019Y-31429D01*
X29019Y-31429D02*
X29017Y-31429D01*
X29017Y-31429D02*
X29015Y-31428D01*
X29015Y-31428D02*
X29014Y-31427D01*
X29014Y-31427D02*
X29012Y-31425D01*
X29012Y-31425D02*
X29011Y-31423D01*
X29011Y-31423D02*
X29011Y-31422D01*
X29011Y-31422D02*
X29011Y-31420D01*
X29011Y-31420D02*
X29011Y-31419D01*
X29011Y-31419D02*
X29011Y-31417D01*
X29011Y-31417D02*
X29012Y-31415D01*
X29012Y-31415D02*
X29013Y-31414D01*
X29013Y-31414D02*
X29015Y-31412D01*
X29015Y-31412D02*
X29016Y-31411D01*
X29016Y-31411D02*
X29018Y-31411D01*
X29018Y-31411D02*
X29020Y-31411D01*
X29020Y-31411D02*
X29021Y-31411D01*
X29021Y-31411D02*
X29023Y-31411D01*
X29023Y-31411D02*
X29025Y-31412D01*
X29025Y-31412D02*
X29026Y-31413D01*
X29026Y-31413D02*
X29028Y-31415D01*
X29028Y-31415D02*
X29029Y-31416D01*
X29029Y-31416D02*
X29029Y-31418D01*
X29029Y-31418D02*
X29029Y-31420D01*
X29029Y-31420D02*
X29030Y-31420D01*
X29750Y-31420D02*
X29749Y-31421D01*
X29749Y-31421D02*
X29749Y-31423D01*
X29749Y-31423D02*
X29748Y-31425D01*
X29748Y-31425D02*
X29747Y-31427D01*
X29747Y-31427D02*
X29745Y-31428D01*
X29745Y-31428D02*
X29743Y-31429D01*
X29743Y-31429D02*
X29742Y-31429D01*
X29742Y-31429D02*
X29740Y-31429D01*
X29740Y-31429D02*
X29739Y-31429D01*
X29739Y-31429D02*
X29737Y-31429D01*
X29737Y-31429D02*
X29735Y-31428D01*
X29735Y-31428D02*
X29734Y-31427D01*
X29734Y-31427D02*
X29732Y-31425D01*
X29732Y-31425D02*
X29731Y-31423D01*
X29731Y-31423D02*
X29731Y-31422D01*
X29731Y-31422D02*
X29731Y-31420D01*
X29731Y-31420D02*
X29731Y-31419D01*
X29731Y-31419D02*
X29731Y-31417D01*
X29731Y-31417D02*
X29732Y-31415D01*
X29732Y-31415D02*
X29733Y-31414D01*
X29733Y-31414D02*
X29735Y-31412D01*
X29735Y-31412D02*
X29736Y-31411D01*
X29736Y-31411D02*
X29738Y-31411D01*
X29738Y-31411D02*
X29740Y-31411D01*
X29740Y-31411D02*
X29741Y-31411D01*
X29741Y-31411D02*
X29743Y-31411D01*
X29743Y-31411D02*
X29745Y-31412D01*
X29745Y-31412D02*
X29746Y-31413D01*
X29746Y-31413D02*
X29748Y-31415D01*
X29748Y-31415D02*
X29749Y-31416D01*
X29749Y-31416D02*
X29749Y-31418D01*
X29749Y-31418D02*
X29749Y-31420D01*
X29749Y-31420D02*
X29750Y-31420D01*
X29570Y-31420D02*
X29569Y-31421D01*
X29569Y-31421D02*
X29569Y-31423D01*
X29569Y-31423D02*
X29568Y-31425D01*
X29568Y-31425D02*
X29567Y-31427D01*
X29567Y-31427D02*
X29565Y-31428D01*
X29565Y-31428D02*
X29563Y-31429D01*
X29563Y-31429D02*
X29562Y-31429D01*
X29562Y-31429D02*
X29560Y-31429D01*
X29560Y-31429D02*
X29559Y-31429D01*
X29559Y-31429D02*
X29557Y-31429D01*
X29557Y-31429D02*
X29555Y-31428D01*
X29555Y-31428D02*
X29554Y-31427D01*
X29554Y-31427D02*
X29552Y-31425D01*
X29552Y-31425D02*
X29551Y-31423D01*
X29551Y-31423D02*
X29551Y-31422D01*
X29551Y-31422D02*
X29551Y-31420D01*
X29551Y-31420D02*
X29551Y-31419D01*
X29551Y-31419D02*
X29551Y-31417D01*
X29551Y-31417D02*
X29552Y-31415D01*
X29552Y-31415D02*
X29553Y-31414D01*
X29553Y-31414D02*
X29555Y-31412D01*
X29555Y-31412D02*
X29556Y-31411D01*
X29556Y-31411D02*
X29558Y-31411D01*
X29558Y-31411D02*
X29560Y-31411D01*
X29560Y-31411D02*
X29561Y-31411D01*
X29561Y-31411D02*
X29563Y-31411D01*
X29563Y-31411D02*
X29565Y-31412D01*
X29565Y-31412D02*
X29566Y-31413D01*
X29566Y-31413D02*
X29568Y-31415D01*
X29568Y-31415D02*
X29569Y-31416D01*
X29569Y-31416D02*
X29569Y-31418D01*
X29569Y-31418D02*
X29569Y-31420D01*
X29569Y-31420D02*
X29570Y-31420D01*
X28850Y-31240D02*
X28849Y-31241D01*
X28849Y-31241D02*
X28849Y-31243D01*
X28849Y-31243D02*
X28848Y-31245D01*
X28848Y-31245D02*
X28847Y-31247D01*
X28847Y-31247D02*
X28845Y-31248D01*
X28845Y-31248D02*
X28843Y-31249D01*
X28843Y-31249D02*
X28842Y-31249D01*
X28842Y-31249D02*
X28840Y-31249D01*
X28840Y-31249D02*
X28839Y-31249D01*
X28839Y-31249D02*
X28837Y-31249D01*
X28837Y-31249D02*
X28835Y-31248D01*
X28835Y-31248D02*
X28834Y-31247D01*
X28834Y-31247D02*
X28832Y-31245D01*
X28832Y-31245D02*
X28831Y-31243D01*
X28831Y-31243D02*
X28831Y-31242D01*
X28831Y-31242D02*
X28831Y-31240D01*
X28831Y-31240D02*
X28831Y-31239D01*
X28831Y-31239D02*
X28831Y-31237D01*
X28831Y-31237D02*
X28832Y-31235D01*
X28832Y-31235D02*
X28833Y-31234D01*
X28833Y-31234D02*
X28835Y-31232D01*
X28835Y-31232D02*
X28836Y-31231D01*
X28836Y-31231D02*
X28838Y-31231D01*
X28838Y-31231D02*
X28840Y-31231D01*
X28840Y-31231D02*
X28841Y-31231D01*
X28841Y-31231D02*
X28843Y-31231D01*
X28843Y-31231D02*
X28845Y-31232D01*
X28845Y-31232D02*
X28846Y-31233D01*
X28846Y-31233D02*
X28848Y-31235D01*
X28848Y-31235D02*
X28849Y-31236D01*
X28849Y-31236D02*
X28849Y-31238D01*
X28849Y-31238D02*
X28849Y-31240D01*
X28849Y-31240D02*
X28850Y-31240D01*
X29030Y-31240D02*
X29029Y-31241D01*
X29029Y-31241D02*
X29029Y-31243D01*
X29029Y-31243D02*
X29028Y-31245D01*
X29028Y-31245D02*
X29027Y-31247D01*
X29027Y-31247D02*
X29025Y-31248D01*
X29025Y-31248D02*
X29023Y-31249D01*
X29023Y-31249D02*
X29022Y-31249D01*
X29022Y-31249D02*
X29020Y-31249D01*
X29020Y-31249D02*
X29019Y-31249D01*
X29019Y-31249D02*
X29017Y-31249D01*
X29017Y-31249D02*
X29015Y-31248D01*
X29015Y-31248D02*
X29014Y-31247D01*
X29014Y-31247D02*
X29012Y-31245D01*
X29012Y-31245D02*
X29011Y-31243D01*
X29011Y-31243D02*
X29011Y-31242D01*
X29011Y-31242D02*
X29011Y-31240D01*
X29011Y-31240D02*
X29011Y-31239D01*
X29011Y-31239D02*
X29011Y-31237D01*
X29011Y-31237D02*
X29012Y-31235D01*
X29012Y-31235D02*
X29013Y-31234D01*
X29013Y-31234D02*
X29015Y-31232D01*
X29015Y-31232D02*
X29016Y-31231D01*
X29016Y-31231D02*
X29018Y-31231D01*
X29018Y-31231D02*
X29020Y-31231D01*
X29020Y-31231D02*
X29021Y-31231D01*
X29021Y-31231D02*
X29023Y-31231D01*
X29023Y-31231D02*
X29025Y-31232D01*
X29025Y-31232D02*
X29026Y-31233D01*
X29026Y-31233D02*
X29028Y-31235D01*
X29028Y-31235D02*
X29029Y-31236D01*
X29029Y-31236D02*
X29029Y-31238D01*
X29029Y-31238D02*
X29029Y-31240D01*
X29029Y-31240D02*
X29030Y-31240D01*
X29750Y-31240D02*
X29749Y-31241D01*
X29749Y-31241D02*
X29749Y-31243D01*
X29749Y-31243D02*
X29748Y-31245D01*
X29748Y-31245D02*
X29747Y-31247D01*
X29747Y-31247D02*
X29745Y-31248D01*
X29745Y-31248D02*
X29743Y-31249D01*
X29743Y-31249D02*
X29742Y-31249D01*
X29742Y-31249D02*
X29740Y-31249D01*
X29740Y-31249D02*
X29739Y-31249D01*
X29739Y-31249D02*
X29737Y-31249D01*
X29737Y-31249D02*
X29735Y-31248D01*
X29735Y-31248D02*
X29734Y-31247D01*
X29734Y-31247D02*
X29732Y-31245D01*
X29732Y-31245D02*
X29731Y-31243D01*
X29731Y-31243D02*
X29731Y-31242D01*
X29731Y-31242D02*
X29731Y-31240D01*
X29731Y-31240D02*
X29731Y-31239D01*
X29731Y-31239D02*
X29731Y-31237D01*
X29731Y-31237D02*
X29732Y-31235D01*
X29732Y-31235D02*
X29733Y-31234D01*
X29733Y-31234D02*
X29735Y-31232D01*
X29735Y-31232D02*
X29736Y-31231D01*
X29736Y-31231D02*
X29738Y-31231D01*
X29738Y-31231D02*
X29740Y-31231D01*
X29740Y-31231D02*
X29741Y-31231D01*
X29741Y-31231D02*
X29743Y-31231D01*
X29743Y-31231D02*
X29745Y-31232D01*
X29745Y-31232D02*
X29746Y-31233D01*
X29746Y-31233D02*
X29748Y-31235D01*
X29748Y-31235D02*
X29749Y-31236D01*
X29749Y-31236D02*
X29749Y-31238D01*
X29749Y-31238D02*
X29749Y-31240D01*
X29749Y-31240D02*
X29750Y-31240D01*
X29570Y-31240D02*
X29569Y-31241D01*
X29569Y-31241D02*
X29569Y-31243D01*
X29569Y-31243D02*
X29568Y-31245D01*
X29568Y-31245D02*
X29567Y-31247D01*
X29567Y-31247D02*
X29565Y-31248D01*
X29565Y-31248D02*
X29563Y-31249D01*
X29563Y-31249D02*
X29562Y-31249D01*
X29562Y-31249D02*
X29560Y-31249D01*
X29560Y-31249D02*
X29559Y-31249D01*
X29559Y-31249D02*
X29557Y-31249D01*
X29557Y-31249D02*
X29555Y-31248D01*
X29555Y-31248D02*
X29554Y-31247D01*
X29554Y-31247D02*
X29552Y-31245D01*
X29552Y-31245D02*
X29551Y-31243D01*
X29551Y-31243D02*
X29551Y-31242D01*
X29551Y-31242D02*
X29551Y-31240D01*
X29551Y-31240D02*
X29551Y-31239D01*
X29551Y-31239D02*
X29551Y-31237D01*
X29551Y-31237D02*
X29552Y-31235D01*
X29552Y-31235D02*
X29553Y-31234D01*
X29553Y-31234D02*
X29555Y-31232D01*
X29555Y-31232D02*
X29556Y-31231D01*
X29556Y-31231D02*
X29558Y-31231D01*
X29558Y-31231D02*
X29560Y-31231D01*
X29560Y-31231D02*
X29561Y-31231D01*
X29561Y-31231D02*
X29563Y-31231D01*
X29563Y-31231D02*
X29565Y-31232D01*
X29565Y-31232D02*
X29566Y-31233D01*
X29566Y-31233D02*
X29568Y-31235D01*
X29568Y-31235D02*
X29569Y-31236D01*
X29569Y-31236D02*
X29569Y-31238D01*
X29569Y-31238D02*
X29569Y-31240D01*
X29569Y-31240D02*
X29570Y-31240D01*
X29210Y-31780D02*
X29209Y-31781D01*
X29209Y-31781D02*
X29209Y-31783D01*
X29209Y-31783D02*
X29208Y-31785D01*
X29208Y-31785D02*
X29207Y-31787D01*
X29207Y-31787D02*
X29205Y-31788D01*
X29205Y-31788D02*
X29203Y-31789D01*
X29203Y-31789D02*
X29202Y-31789D01*
X29202Y-31789D02*
X29200Y-31789D01*
X29200Y-31789D02*
X29199Y-31789D01*
X29199Y-31789D02*
X29197Y-31789D01*
X29197Y-31789D02*
X29195Y-31788D01*
X29195Y-31788D02*
X29194Y-31787D01*
X29194Y-31787D02*
X29192Y-31785D01*
X29192Y-31785D02*
X29191Y-31783D01*
X29191Y-31783D02*
X29191Y-31782D01*
X29191Y-31782D02*
X29191Y-31780D01*
X29191Y-31780D02*
X29191Y-31779D01*
X29191Y-31779D02*
X29191Y-31777D01*
X29191Y-31777D02*
X29192Y-31775D01*
X29192Y-31775D02*
X29193Y-31774D01*
X29193Y-31774D02*
X29195Y-31772D01*
X29195Y-31772D02*
X29196Y-31771D01*
X29196Y-31771D02*
X29198Y-31771D01*
X29198Y-31771D02*
X29200Y-31771D01*
X29200Y-31771D02*
X29201Y-31771D01*
X29201Y-31771D02*
X29203Y-31771D01*
X29203Y-31771D02*
X29205Y-31772D01*
X29205Y-31772D02*
X29206Y-31773D01*
X29206Y-31773D02*
X29208Y-31775D01*
X29208Y-31775D02*
X29209Y-31776D01*
X29209Y-31776D02*
X29209Y-31778D01*
X29209Y-31778D02*
X29209Y-31780D01*
X29209Y-31780D02*
X29210Y-31780D01*
X29390Y-31780D02*
X29389Y-31781D01*
X29389Y-31781D02*
X29389Y-31783D01*
X29389Y-31783D02*
X29388Y-31785D01*
X29388Y-31785D02*
X29387Y-31787D01*
X29387Y-31787D02*
X29385Y-31788D01*
X29385Y-31788D02*
X29383Y-31789D01*
X29383Y-31789D02*
X29382Y-31789D01*
X29382Y-31789D02*
X29380Y-31789D01*
X29380Y-31789D02*
X29379Y-31789D01*
X29379Y-31789D02*
X29377Y-31789D01*
X29377Y-31789D02*
X29375Y-31788D01*
X29375Y-31788D02*
X29374Y-31787D01*
X29374Y-31787D02*
X29372Y-31785D01*
X29372Y-31785D02*
X29371Y-31783D01*
X29371Y-31783D02*
X29371Y-31782D01*
X29371Y-31782D02*
X29371Y-31780D01*
X29371Y-31780D02*
X29371Y-31779D01*
X29371Y-31779D02*
X29371Y-31777D01*
X29371Y-31777D02*
X29372Y-31775D01*
X29372Y-31775D02*
X29373Y-31774D01*
X29373Y-31774D02*
X29375Y-31772D01*
X29375Y-31772D02*
X29376Y-31771D01*
X29376Y-31771D02*
X29378Y-31771D01*
X29378Y-31771D02*
X29380Y-31771D01*
X29380Y-31771D02*
X29381Y-31771D01*
X29381Y-31771D02*
X29383Y-31771D01*
X29383Y-31771D02*
X29385Y-31772D01*
X29385Y-31772D02*
X29386Y-31773D01*
X29386Y-31773D02*
X29388Y-31775D01*
X29388Y-31775D02*
X29389Y-31776D01*
X29389Y-31776D02*
X29389Y-31778D01*
X29389Y-31778D02*
X29389Y-31780D01*
X29389Y-31780D02*
X29390Y-31780D01*
X29390Y-31960D02*
X29389Y-31961D01*
X29389Y-31961D02*
X29389Y-31963D01*
X29389Y-31963D02*
X29388Y-31965D01*
X29388Y-31965D02*
X29387Y-31967D01*
X29387Y-31967D02*
X29385Y-31968D01*
X29385Y-31968D02*
X29383Y-31969D01*
X29383Y-31969D02*
X29382Y-31969D01*
X29382Y-31969D02*
X29380Y-31969D01*
X29380Y-31969D02*
X29379Y-31969D01*
X29379Y-31969D02*
X29377Y-31969D01*
X29377Y-31969D02*
X29375Y-31968D01*
X29375Y-31968D02*
X29374Y-31967D01*
X29374Y-31967D02*
X29372Y-31965D01*
X29372Y-31965D02*
X29371Y-31963D01*
X29371Y-31963D02*
X29371Y-31962D01*
X29371Y-31962D02*
X29371Y-31960D01*
X29371Y-31960D02*
X29371Y-31959D01*
X29371Y-31959D02*
X29371Y-31957D01*
X29371Y-31957D02*
X29372Y-31955D01*
X29372Y-31955D02*
X29373Y-31954D01*
X29373Y-31954D02*
X29375Y-31952D01*
X29375Y-31952D02*
X29376Y-31951D01*
X29376Y-31951D02*
X29378Y-31951D01*
X29378Y-31951D02*
X29380Y-31951D01*
X29380Y-31951D02*
X29381Y-31951D01*
X29381Y-31951D02*
X29383Y-31951D01*
X29383Y-31951D02*
X29385Y-31952D01*
X29385Y-31952D02*
X29386Y-31953D01*
X29386Y-31953D02*
X29388Y-31955D01*
X29388Y-31955D02*
X29389Y-31956D01*
X29389Y-31956D02*
X29389Y-31958D01*
X29389Y-31958D02*
X29389Y-31960D01*
X29389Y-31960D02*
X29390Y-31960D01*
X29930Y-31960D02*
X29929Y-31961D01*
X29929Y-31961D02*
X29929Y-31963D01*
X29929Y-31963D02*
X29928Y-31965D01*
X29928Y-31965D02*
X29927Y-31967D01*
X29927Y-31967D02*
X29925Y-31968D01*
X29925Y-31968D02*
X29923Y-31969D01*
X29923Y-31969D02*
X29922Y-31969D01*
X29922Y-31969D02*
X29920Y-31969D01*
X29920Y-31969D02*
X29919Y-31969D01*
X29919Y-31969D02*
X29917Y-31969D01*
X29917Y-31969D02*
X29915Y-31968D01*
X29915Y-31968D02*
X29914Y-31967D01*
X29914Y-31967D02*
X29912Y-31965D01*
X29912Y-31965D02*
X29911Y-31963D01*
X29911Y-31963D02*
X29911Y-31962D01*
X29911Y-31962D02*
X29911Y-31960D01*
X29911Y-31960D02*
X29911Y-31959D01*
X29911Y-31959D02*
X29911Y-31957D01*
X29911Y-31957D02*
X29912Y-31955D01*
X29912Y-31955D02*
X29913Y-31954D01*
X29913Y-31954D02*
X29915Y-31952D01*
X29915Y-31952D02*
X29916Y-31951D01*
X29916Y-31951D02*
X29918Y-31951D01*
X29918Y-31951D02*
X29920Y-31951D01*
X29920Y-31951D02*
X29921Y-31951D01*
X29921Y-31951D02*
X29923Y-31951D01*
X29923Y-31951D02*
X29925Y-31952D01*
X29925Y-31952D02*
X29926Y-31953D01*
X29926Y-31953D02*
X29928Y-31955D01*
X29928Y-31955D02*
X29929Y-31956D01*
X29929Y-31956D02*
X29929Y-31958D01*
X29929Y-31958D02*
X29929Y-31960D01*
X29929Y-31960D02*
X29930Y-31960D01*
X29210Y-31960D02*
X29209Y-31961D01*
X29209Y-31961D02*
X29209Y-31963D01*
X29209Y-31963D02*
X29208Y-31965D01*
X29208Y-31965D02*
X29207Y-31967D01*
X29207Y-31967D02*
X29205Y-31968D01*
X29205Y-31968D02*
X29203Y-31969D01*
X29203Y-31969D02*
X29202Y-31969D01*
X29202Y-31969D02*
X29200Y-31969D01*
X29200Y-31969D02*
X29199Y-31969D01*
X29199Y-31969D02*
X29197Y-31969D01*
X29197Y-31969D02*
X29195Y-31968D01*
X29195Y-31968D02*
X29194Y-31967D01*
X29194Y-31967D02*
X29192Y-31965D01*
X29192Y-31965D02*
X29191Y-31963D01*
X29191Y-31963D02*
X29191Y-31962D01*
X29191Y-31962D02*
X29191Y-31960D01*
X29191Y-31960D02*
X29191Y-31959D01*
X29191Y-31959D02*
X29191Y-31957D01*
X29191Y-31957D02*
X29192Y-31955D01*
X29192Y-31955D02*
X29193Y-31954D01*
X29193Y-31954D02*
X29195Y-31952D01*
X29195Y-31952D02*
X29196Y-31951D01*
X29196Y-31951D02*
X29198Y-31951D01*
X29198Y-31951D02*
X29200Y-31951D01*
X29200Y-31951D02*
X29201Y-31951D01*
X29201Y-31951D02*
X29203Y-31951D01*
X29203Y-31951D02*
X29205Y-31952D01*
X29205Y-31952D02*
X29206Y-31953D01*
X29206Y-31953D02*
X29208Y-31955D01*
X29208Y-31955D02*
X29209Y-31956D01*
X29209Y-31956D02*
X29209Y-31958D01*
X29209Y-31958D02*
X29209Y-31960D01*
X29209Y-31960D02*
X29210Y-31960D01*
X28670Y-31960D02*
X28669Y-31961D01*
X28669Y-31961D02*
X28669Y-31963D01*
X28669Y-31963D02*
X28668Y-31965D01*
X28668Y-31965D02*
X28667Y-31967D01*
X28667Y-31967D02*
X28665Y-31968D01*
X28665Y-31968D02*
X28663Y-31969D01*
X28663Y-31969D02*
X28662Y-31969D01*
X28662Y-31969D02*
X28660Y-31969D01*
X28660Y-31969D02*
X28659Y-31969D01*
X28659Y-31969D02*
X28657Y-31969D01*
X28657Y-31969D02*
X28655Y-31968D01*
X28655Y-31968D02*
X28654Y-31967D01*
X28654Y-31967D02*
X28652Y-31965D01*
X28652Y-31965D02*
X28651Y-31963D01*
X28651Y-31963D02*
X28651Y-31962D01*
X28651Y-31962D02*
X28651Y-31960D01*
X28651Y-31960D02*
X28651Y-31959D01*
X28651Y-31959D02*
X28651Y-31957D01*
X28651Y-31957D02*
X28652Y-31955D01*
X28652Y-31955D02*
X28653Y-31954D01*
X28653Y-31954D02*
X28655Y-31952D01*
X28655Y-31952D02*
X28656Y-31951D01*
X28656Y-31951D02*
X28658Y-31951D01*
X28658Y-31951D02*
X28660Y-31951D01*
X28660Y-31951D02*
X28661Y-31951D01*
X28661Y-31951D02*
X28663Y-31951D01*
X28663Y-31951D02*
X28665Y-31952D01*
X28665Y-31952D02*
X28666Y-31953D01*
X28666Y-31953D02*
X28668Y-31955D01*
X28668Y-31955D02*
X28669Y-31956D01*
X28669Y-31956D02*
X28669Y-31958D01*
X28669Y-31958D02*
X28669Y-31960D01*
X28669Y-31960D02*
X28670Y-31960D01*
X29210Y-32320D02*
X29209Y-32321D01*
X29209Y-32321D02*
X29209Y-32323D01*
X29209Y-32323D02*
X29208Y-32325D01*
X29208Y-32325D02*
X29207Y-32327D01*
X29207Y-32327D02*
X29205Y-32328D01*
X29205Y-32328D02*
X29203Y-32329D01*
X29203Y-32329D02*
X29202Y-32329D01*
X29202Y-32329D02*
X29200Y-32329D01*
X29200Y-32329D02*
X29199Y-32329D01*
X29199Y-32329D02*
X29197Y-32329D01*
X29197Y-32329D02*
X29195Y-32328D01*
X29195Y-32328D02*
X29194Y-32327D01*
X29194Y-32327D02*
X29192Y-32325D01*
X29192Y-32325D02*
X29191Y-32323D01*
X29191Y-32323D02*
X29191Y-32322D01*
X29191Y-32322D02*
X29191Y-32320D01*
X29191Y-32320D02*
X29191Y-32319D01*
X29191Y-32319D02*
X29191Y-32317D01*
X29191Y-32317D02*
X29192Y-32315D01*
X29192Y-32315D02*
X29193Y-32314D01*
X29193Y-32314D02*
X29195Y-32312D01*
X29195Y-32312D02*
X29196Y-32311D01*
X29196Y-32311D02*
X29198Y-32311D01*
X29198Y-32311D02*
X29200Y-32311D01*
X29200Y-32311D02*
X29201Y-32311D01*
X29201Y-32311D02*
X29203Y-32311D01*
X29203Y-32311D02*
X29205Y-32312D01*
X29205Y-32312D02*
X29206Y-32313D01*
X29206Y-32313D02*
X29208Y-32315D01*
X29208Y-32315D02*
X29209Y-32316D01*
X29209Y-32316D02*
X29209Y-32318D01*
X29209Y-32318D02*
X29209Y-32320D01*
X29209Y-32320D02*
X29210Y-32320D01*
X29030Y-32320D02*
X29029Y-32321D01*
X29029Y-32321D02*
X29029Y-32323D01*
X29029Y-32323D02*
X29028Y-32325D01*
X29028Y-32325D02*
X29027Y-32327D01*
X29027Y-32327D02*
X29025Y-32328D01*
X29025Y-32328D02*
X29023Y-32329D01*
X29023Y-32329D02*
X29022Y-32329D01*
X29022Y-32329D02*
X29020Y-32329D01*
X29020Y-32329D02*
X29019Y-32329D01*
X29019Y-32329D02*
X29017Y-32329D01*
X29017Y-32329D02*
X29015Y-32328D01*
X29015Y-32328D02*
X29014Y-32327D01*
X29014Y-32327D02*
X29012Y-32325D01*
X29012Y-32325D02*
X29011Y-32323D01*
X29011Y-32323D02*
X29011Y-32322D01*
X29011Y-32322D02*
X29011Y-32320D01*
X29011Y-32320D02*
X29011Y-32319D01*
X29011Y-32319D02*
X29011Y-32317D01*
X29011Y-32317D02*
X29012Y-32315D01*
X29012Y-32315D02*
X29013Y-32314D01*
X29013Y-32314D02*
X29015Y-32312D01*
X29015Y-32312D02*
X29016Y-32311D01*
X29016Y-32311D02*
X29018Y-32311D01*
X29018Y-32311D02*
X29020Y-32311D01*
X29020Y-32311D02*
X29021Y-32311D01*
X29021Y-32311D02*
X29023Y-32311D01*
X29023Y-32311D02*
X29025Y-32312D01*
X29025Y-32312D02*
X29026Y-32313D01*
X29026Y-32313D02*
X29028Y-32315D01*
X29028Y-32315D02*
X29029Y-32316D01*
X29029Y-32316D02*
X29029Y-32318D01*
X29029Y-32318D02*
X29029Y-32320D01*
X29029Y-32320D02*
X29030Y-32320D01*
X29570Y-32320D02*
X29569Y-32321D01*
X29569Y-32321D02*
X29569Y-32323D01*
X29569Y-32323D02*
X29568Y-32325D01*
X29568Y-32325D02*
X29567Y-32327D01*
X29567Y-32327D02*
X29565Y-32328D01*
X29565Y-32328D02*
X29563Y-32329D01*
X29563Y-32329D02*
X29562Y-32329D01*
X29562Y-32329D02*
X29560Y-32329D01*
X29560Y-32329D02*
X29559Y-32329D01*
X29559Y-32329D02*
X29557Y-32329D01*
X29557Y-32329D02*
X29555Y-32328D01*
X29555Y-32328D02*
X29554Y-32327D01*
X29554Y-32327D02*
X29552Y-32325D01*
X29552Y-32325D02*
X29551Y-32323D01*
X29551Y-32323D02*
X29551Y-32322D01*
X29551Y-32322D02*
X29551Y-32320D01*
X29551Y-32320D02*
X29551Y-32319D01*
X29551Y-32319D02*
X29551Y-32317D01*
X29551Y-32317D02*
X29552Y-32315D01*
X29552Y-32315D02*
X29553Y-32314D01*
X29553Y-32314D02*
X29555Y-32312D01*
X29555Y-32312D02*
X29556Y-32311D01*
X29556Y-32311D02*
X29558Y-32311D01*
X29558Y-32311D02*
X29560Y-32311D01*
X29560Y-32311D02*
X29561Y-32311D01*
X29561Y-32311D02*
X29563Y-32311D01*
X29563Y-32311D02*
X29565Y-32312D01*
X29565Y-32312D02*
X29566Y-32313D01*
X29566Y-32313D02*
X29568Y-32315D01*
X29568Y-32315D02*
X29569Y-32316D01*
X29569Y-32316D02*
X29569Y-32318D01*
X29569Y-32318D02*
X29569Y-32320D01*
X29569Y-32320D02*
X29570Y-32320D01*
X29390Y-32320D02*
X29389Y-32321D01*
X29389Y-32321D02*
X29389Y-32323D01*
X29389Y-32323D02*
X29388Y-32325D01*
X29388Y-32325D02*
X29387Y-32327D01*
X29387Y-32327D02*
X29385Y-32328D01*
X29385Y-32328D02*
X29383Y-32329D01*
X29383Y-32329D02*
X29382Y-32329D01*
X29382Y-32329D02*
X29380Y-32329D01*
X29380Y-32329D02*
X29379Y-32329D01*
X29379Y-32329D02*
X29377Y-32329D01*
X29377Y-32329D02*
X29375Y-32328D01*
X29375Y-32328D02*
X29374Y-32327D01*
X29374Y-32327D02*
X29372Y-32325D01*
X29372Y-32325D02*
X29371Y-32323D01*
X29371Y-32323D02*
X29371Y-32322D01*
X29371Y-32322D02*
X29371Y-32320D01*
X29371Y-32320D02*
X29371Y-32319D01*
X29371Y-32319D02*
X29371Y-32317D01*
X29371Y-32317D02*
X29372Y-32315D01*
X29372Y-32315D02*
X29373Y-32314D01*
X29373Y-32314D02*
X29375Y-32312D01*
X29375Y-32312D02*
X29376Y-32311D01*
X29376Y-32311D02*
X29378Y-32311D01*
X29378Y-32311D02*
X29380Y-32311D01*
X29380Y-32311D02*
X29381Y-32311D01*
X29381Y-32311D02*
X29383Y-32311D01*
X29383Y-32311D02*
X29385Y-32312D01*
X29385Y-32312D02*
X29386Y-32313D01*
X29386Y-32313D02*
X29388Y-32315D01*
X29388Y-32315D02*
X29389Y-32316D01*
X29389Y-32316D02*
X29389Y-32318D01*
X29389Y-32318D02*
X29389Y-32320D01*
X29389Y-32320D02*
X29390Y-32320D01*
X29750Y-32140D02*
X29749Y-32141D01*
X29749Y-32141D02*
X29749Y-32143D01*
X29749Y-32143D02*
X29748Y-32145D01*
X29748Y-32145D02*
X29747Y-32147D01*
X29747Y-32147D02*
X29745Y-32148D01*
X29745Y-32148D02*
X29743Y-32149D01*
X29743Y-32149D02*
X29742Y-32149D01*
X29742Y-32149D02*
X29740Y-32149D01*
X29740Y-32149D02*
X29739Y-32149D01*
X29739Y-32149D02*
X29737Y-32149D01*
X29737Y-32149D02*
X29735Y-32148D01*
X29735Y-32148D02*
X29734Y-32147D01*
X29734Y-32147D02*
X29732Y-32145D01*
X29732Y-32145D02*
X29731Y-32143D01*
X29731Y-32143D02*
X29731Y-32142D01*
X29731Y-32142D02*
X29731Y-32140D01*
X29731Y-32140D02*
X29731Y-32139D01*
X29731Y-32139D02*
X29731Y-32137D01*
X29731Y-32137D02*
X29732Y-32135D01*
X29732Y-32135D02*
X29733Y-32134D01*
X29733Y-32134D02*
X29735Y-32132D01*
X29735Y-32132D02*
X29736Y-32131D01*
X29736Y-32131D02*
X29738Y-32131D01*
X29738Y-32131D02*
X29740Y-32131D01*
X29740Y-32131D02*
X29741Y-32131D01*
X29741Y-32131D02*
X29743Y-32131D01*
X29743Y-32131D02*
X29745Y-32132D01*
X29745Y-32132D02*
X29746Y-32133D01*
X29746Y-32133D02*
X29748Y-32135D01*
X29748Y-32135D02*
X29749Y-32136D01*
X29749Y-32136D02*
X29749Y-32138D01*
X29749Y-32138D02*
X29749Y-32140D01*
X29749Y-32140D02*
X29750Y-32140D01*
X28850Y-32140D02*
X28849Y-32141D01*
X28849Y-32141D02*
X28849Y-32143D01*
X28849Y-32143D02*
X28848Y-32145D01*
X28848Y-32145D02*
X28847Y-32147D01*
X28847Y-32147D02*
X28845Y-32148D01*
X28845Y-32148D02*
X28843Y-32149D01*
X28843Y-32149D02*
X28842Y-32149D01*
X28842Y-32149D02*
X28840Y-32149D01*
X28840Y-32149D02*
X28839Y-32149D01*
X28839Y-32149D02*
X28837Y-32149D01*
X28837Y-32149D02*
X28835Y-32148D01*
X28835Y-32148D02*
X28834Y-32147D01*
X28834Y-32147D02*
X28832Y-32145D01*
X28832Y-32145D02*
X28831Y-32143D01*
X28831Y-32143D02*
X28831Y-32142D01*
X28831Y-32142D02*
X28831Y-32140D01*
X28831Y-32140D02*
X28831Y-32139D01*
X28831Y-32139D02*
X28831Y-32137D01*
X28831Y-32137D02*
X28832Y-32135D01*
X28832Y-32135D02*
X28833Y-32134D01*
X28833Y-32134D02*
X28835Y-32132D01*
X28835Y-32132D02*
X28836Y-32131D01*
X28836Y-32131D02*
X28838Y-32131D01*
X28838Y-32131D02*
X28840Y-32131D01*
X28840Y-32131D02*
X28841Y-32131D01*
X28841Y-32131D02*
X28843Y-32131D01*
X28843Y-32131D02*
X28845Y-32132D01*
X28845Y-32132D02*
X28846Y-32133D01*
X28846Y-32133D02*
X28848Y-32135D01*
X28848Y-32135D02*
X28849Y-32136D01*
X28849Y-32136D02*
X28849Y-32138D01*
X28849Y-32138D02*
X28849Y-32140D01*
X28849Y-32140D02*
X28850Y-32140D01*
X35870Y-32140D02*
X35869Y-32141D01*
X35869Y-32141D02*
X35869Y-32143D01*
X35869Y-32143D02*
X35868Y-32145D01*
X35868Y-32145D02*
X35867Y-32147D01*
X35867Y-32147D02*
X35865Y-32148D01*
X35865Y-32148D02*
X35863Y-32149D01*
X35863Y-32149D02*
X35862Y-32149D01*
X35862Y-32149D02*
X35860Y-32149D01*
X35860Y-32149D02*
X35859Y-32149D01*
X35859Y-32149D02*
X35857Y-32149D01*
X35857Y-32149D02*
X35855Y-32148D01*
X35855Y-32148D02*
X35854Y-32147D01*
X35854Y-32147D02*
X35852Y-32145D01*
X35852Y-32145D02*
X35851Y-32143D01*
X35851Y-32143D02*
X35851Y-32142D01*
X35851Y-32142D02*
X35851Y-32140D01*
X35851Y-32140D02*
X35851Y-32139D01*
X35851Y-32139D02*
X35851Y-32137D01*
X35851Y-32137D02*
X35852Y-32135D01*
X35852Y-32135D02*
X35853Y-32134D01*
X35853Y-32134D02*
X35855Y-32132D01*
X35855Y-32132D02*
X35856Y-32131D01*
X35856Y-32131D02*
X35858Y-32131D01*
X35858Y-32131D02*
X35860Y-32131D01*
X35860Y-32131D02*
X35861Y-32131D01*
X35861Y-32131D02*
X35863Y-32131D01*
X35863Y-32131D02*
X35865Y-32132D01*
X35865Y-32132D02*
X35866Y-32133D01*
X35866Y-32133D02*
X35868Y-32135D01*
X35868Y-32135D02*
X35869Y-32136D01*
X35869Y-32136D02*
X35869Y-32138D01*
X35869Y-32138D02*
X35869Y-32140D01*
X35869Y-32140D02*
X35870Y-32140D01*
X36770Y-32140D02*
X36769Y-32141D01*
X36769Y-32141D02*
X36769Y-32143D01*
X36769Y-32143D02*
X36768Y-32145D01*
X36768Y-32145D02*
X36767Y-32147D01*
X36767Y-32147D02*
X36765Y-32148D01*
X36765Y-32148D02*
X36763Y-32149D01*
X36763Y-32149D02*
X36762Y-32149D01*
X36762Y-32149D02*
X36760Y-32149D01*
X36760Y-32149D02*
X36759Y-32149D01*
X36759Y-32149D02*
X36757Y-32149D01*
X36757Y-32149D02*
X36755Y-32148D01*
X36755Y-32148D02*
X36754Y-32147D01*
X36754Y-32147D02*
X36752Y-32145D01*
X36752Y-32145D02*
X36751Y-32143D01*
X36751Y-32143D02*
X36751Y-32142D01*
X36751Y-32142D02*
X36751Y-32140D01*
X36751Y-32140D02*
X36751Y-32139D01*
X36751Y-32139D02*
X36751Y-32137D01*
X36751Y-32137D02*
X36752Y-32135D01*
X36752Y-32135D02*
X36753Y-32134D01*
X36753Y-32134D02*
X36755Y-32132D01*
X36755Y-32132D02*
X36756Y-32131D01*
X36756Y-32131D02*
X36758Y-32131D01*
X36758Y-32131D02*
X36760Y-32131D01*
X36760Y-32131D02*
X36761Y-32131D01*
X36761Y-32131D02*
X36763Y-32131D01*
X36763Y-32131D02*
X36765Y-32132D01*
X36765Y-32132D02*
X36766Y-32133D01*
X36766Y-32133D02*
X36768Y-32135D01*
X36768Y-32135D02*
X36769Y-32136D01*
X36769Y-32136D02*
X36769Y-32138D01*
X36769Y-32138D02*
X36769Y-32140D01*
X36769Y-32140D02*
X36770Y-32140D01*
X36410Y-32320D02*
X36409Y-32321D01*
X36409Y-32321D02*
X36409Y-32323D01*
X36409Y-32323D02*
X36408Y-32325D01*
X36408Y-32325D02*
X36407Y-32327D01*
X36407Y-32327D02*
X36405Y-32328D01*
X36405Y-32328D02*
X36403Y-32329D01*
X36403Y-32329D02*
X36402Y-32329D01*
X36402Y-32329D02*
X36400Y-32329D01*
X36400Y-32329D02*
X36399Y-32329D01*
X36399Y-32329D02*
X36397Y-32329D01*
X36397Y-32329D02*
X36395Y-32328D01*
X36395Y-32328D02*
X36394Y-32327D01*
X36394Y-32327D02*
X36392Y-32325D01*
X36392Y-32325D02*
X36391Y-32323D01*
X36391Y-32323D02*
X36391Y-32322D01*
X36391Y-32322D02*
X36391Y-32320D01*
X36391Y-32320D02*
X36391Y-32319D01*
X36391Y-32319D02*
X36391Y-32317D01*
X36391Y-32317D02*
X36392Y-32315D01*
X36392Y-32315D02*
X36393Y-32314D01*
X36393Y-32314D02*
X36395Y-32312D01*
X36395Y-32312D02*
X36396Y-32311D01*
X36396Y-32311D02*
X36398Y-32311D01*
X36398Y-32311D02*
X36400Y-32311D01*
X36400Y-32311D02*
X36401Y-32311D01*
X36401Y-32311D02*
X36403Y-32311D01*
X36403Y-32311D02*
X36405Y-32312D01*
X36405Y-32312D02*
X36406Y-32313D01*
X36406Y-32313D02*
X36408Y-32315D01*
X36408Y-32315D02*
X36409Y-32316D01*
X36409Y-32316D02*
X36409Y-32318D01*
X36409Y-32318D02*
X36409Y-32320D01*
X36409Y-32320D02*
X36410Y-32320D01*
X36590Y-32320D02*
X36589Y-32321D01*
X36589Y-32321D02*
X36589Y-32323D01*
X36589Y-32323D02*
X36588Y-32325D01*
X36588Y-32325D02*
X36587Y-32327D01*
X36587Y-32327D02*
X36585Y-32328D01*
X36585Y-32328D02*
X36583Y-32329D01*
X36583Y-32329D02*
X36582Y-32329D01*
X36582Y-32329D02*
X36580Y-32329D01*
X36580Y-32329D02*
X36579Y-32329D01*
X36579Y-32329D02*
X36577Y-32329D01*
X36577Y-32329D02*
X36575Y-32328D01*
X36575Y-32328D02*
X36574Y-32327D01*
X36574Y-32327D02*
X36572Y-32325D01*
X36572Y-32325D02*
X36571Y-32323D01*
X36571Y-32323D02*
X36571Y-32322D01*
X36571Y-32322D02*
X36571Y-32320D01*
X36571Y-32320D02*
X36571Y-32319D01*
X36571Y-32319D02*
X36571Y-32317D01*
X36571Y-32317D02*
X36572Y-32315D01*
X36572Y-32315D02*
X36573Y-32314D01*
X36573Y-32314D02*
X36575Y-32312D01*
X36575Y-32312D02*
X36576Y-32311D01*
X36576Y-32311D02*
X36578Y-32311D01*
X36578Y-32311D02*
X36580Y-32311D01*
X36580Y-32311D02*
X36581Y-32311D01*
X36581Y-32311D02*
X36583Y-32311D01*
X36583Y-32311D02*
X36585Y-32312D01*
X36585Y-32312D02*
X36586Y-32313D01*
X36586Y-32313D02*
X36588Y-32315D01*
X36588Y-32315D02*
X36589Y-32316D01*
X36589Y-32316D02*
X36589Y-32318D01*
X36589Y-32318D02*
X36589Y-32320D01*
X36589Y-32320D02*
X36590Y-32320D01*
X36050Y-32320D02*
X36049Y-32321D01*
X36049Y-32321D02*
X36049Y-32323D01*
X36049Y-32323D02*
X36048Y-32325D01*
X36048Y-32325D02*
X36047Y-32327D01*
X36047Y-32327D02*
X36045Y-32328D01*
X36045Y-32328D02*
X36043Y-32329D01*
X36043Y-32329D02*
X36042Y-32329D01*
X36042Y-32329D02*
X36040Y-32329D01*
X36040Y-32329D02*
X36039Y-32329D01*
X36039Y-32329D02*
X36037Y-32329D01*
X36037Y-32329D02*
X36035Y-32328D01*
X36035Y-32328D02*
X36034Y-32327D01*
X36034Y-32327D02*
X36032Y-32325D01*
X36032Y-32325D02*
X36031Y-32323D01*
X36031Y-32323D02*
X36031Y-32322D01*
X36031Y-32322D02*
X36031Y-32320D01*
X36031Y-32320D02*
X36031Y-32319D01*
X36031Y-32319D02*
X36031Y-32317D01*
X36031Y-32317D02*
X36032Y-32315D01*
X36032Y-32315D02*
X36033Y-32314D01*
X36033Y-32314D02*
X36035Y-32312D01*
X36035Y-32312D02*
X36036Y-32311D01*
X36036Y-32311D02*
X36038Y-32311D01*
X36038Y-32311D02*
X36040Y-32311D01*
X36040Y-32311D02*
X36041Y-32311D01*
X36041Y-32311D02*
X36043Y-32311D01*
X36043Y-32311D02*
X36045Y-32312D01*
X36045Y-32312D02*
X36046Y-32313D01*
X36046Y-32313D02*
X36048Y-32315D01*
X36048Y-32315D02*
X36049Y-32316D01*
X36049Y-32316D02*
X36049Y-32318D01*
X36049Y-32318D02*
X36049Y-32320D01*
X36049Y-32320D02*
X36050Y-32320D01*
X36230Y-32320D02*
X36229Y-32321D01*
X36229Y-32321D02*
X36229Y-32323D01*
X36229Y-32323D02*
X36228Y-32325D01*
X36228Y-32325D02*
X36227Y-32327D01*
X36227Y-32327D02*
X36225Y-32328D01*
X36225Y-32328D02*
X36223Y-32329D01*
X36223Y-32329D02*
X36222Y-32329D01*
X36222Y-32329D02*
X36220Y-32329D01*
X36220Y-32329D02*
X36219Y-32329D01*
X36219Y-32329D02*
X36217Y-32329D01*
X36217Y-32329D02*
X36215Y-32328D01*
X36215Y-32328D02*
X36214Y-32327D01*
X36214Y-32327D02*
X36212Y-32325D01*
X36212Y-32325D02*
X36211Y-32323D01*
X36211Y-32323D02*
X36211Y-32322D01*
X36211Y-32322D02*
X36211Y-32320D01*
X36211Y-32320D02*
X36211Y-32319D01*
X36211Y-32319D02*
X36211Y-32317D01*
X36211Y-32317D02*
X36212Y-32315D01*
X36212Y-32315D02*
X36213Y-32314D01*
X36213Y-32314D02*
X36215Y-32312D01*
X36215Y-32312D02*
X36216Y-32311D01*
X36216Y-32311D02*
X36218Y-32311D01*
X36218Y-32311D02*
X36220Y-32311D01*
X36220Y-32311D02*
X36221Y-32311D01*
X36221Y-32311D02*
X36223Y-32311D01*
X36223Y-32311D02*
X36225Y-32312D01*
X36225Y-32312D02*
X36226Y-32313D01*
X36226Y-32313D02*
X36228Y-32315D01*
X36228Y-32315D02*
X36229Y-32316D01*
X36229Y-32316D02*
X36229Y-32318D01*
X36229Y-32318D02*
X36229Y-32320D01*
X36229Y-32320D02*
X36230Y-32320D01*
X35690Y-31960D02*
X35689Y-31961D01*
X35689Y-31961D02*
X35689Y-31963D01*
X35689Y-31963D02*
X35688Y-31965D01*
X35688Y-31965D02*
X35687Y-31967D01*
X35687Y-31967D02*
X35685Y-31968D01*
X35685Y-31968D02*
X35683Y-31969D01*
X35683Y-31969D02*
X35682Y-31969D01*
X35682Y-31969D02*
X35680Y-31969D01*
X35680Y-31969D02*
X35679Y-31969D01*
X35679Y-31969D02*
X35677Y-31969D01*
X35677Y-31969D02*
X35675Y-31968D01*
X35675Y-31968D02*
X35674Y-31967D01*
X35674Y-31967D02*
X35672Y-31965D01*
X35672Y-31965D02*
X35671Y-31963D01*
X35671Y-31963D02*
X35671Y-31962D01*
X35671Y-31962D02*
X35671Y-31960D01*
X35671Y-31960D02*
X35671Y-31959D01*
X35671Y-31959D02*
X35671Y-31957D01*
X35671Y-31957D02*
X35672Y-31955D01*
X35672Y-31955D02*
X35673Y-31954D01*
X35673Y-31954D02*
X35675Y-31952D01*
X35675Y-31952D02*
X35676Y-31951D01*
X35676Y-31951D02*
X35678Y-31951D01*
X35678Y-31951D02*
X35680Y-31951D01*
X35680Y-31951D02*
X35681Y-31951D01*
X35681Y-31951D02*
X35683Y-31951D01*
X35683Y-31951D02*
X35685Y-31952D01*
X35685Y-31952D02*
X35686Y-31953D01*
X35686Y-31953D02*
X35688Y-31955D01*
X35688Y-31955D02*
X35689Y-31956D01*
X35689Y-31956D02*
X35689Y-31958D01*
X35689Y-31958D02*
X35689Y-31960D01*
X35689Y-31960D02*
X35690Y-31960D01*
X36230Y-31960D02*
X36229Y-31961D01*
X36229Y-31961D02*
X36229Y-31963D01*
X36229Y-31963D02*
X36228Y-31965D01*
X36228Y-31965D02*
X36227Y-31967D01*
X36227Y-31967D02*
X36225Y-31968D01*
X36225Y-31968D02*
X36223Y-31969D01*
X36223Y-31969D02*
X36222Y-31969D01*
X36222Y-31969D02*
X36220Y-31969D01*
X36220Y-31969D02*
X36219Y-31969D01*
X36219Y-31969D02*
X36217Y-31969D01*
X36217Y-31969D02*
X36215Y-31968D01*
X36215Y-31968D02*
X36214Y-31967D01*
X36214Y-31967D02*
X36212Y-31965D01*
X36212Y-31965D02*
X36211Y-31963D01*
X36211Y-31963D02*
X36211Y-31962D01*
X36211Y-31962D02*
X36211Y-31960D01*
X36211Y-31960D02*
X36211Y-31959D01*
X36211Y-31959D02*
X36211Y-31957D01*
X36211Y-31957D02*
X36212Y-31955D01*
X36212Y-31955D02*
X36213Y-31954D01*
X36213Y-31954D02*
X36215Y-31952D01*
X36215Y-31952D02*
X36216Y-31951D01*
X36216Y-31951D02*
X36218Y-31951D01*
X36218Y-31951D02*
X36220Y-31951D01*
X36220Y-31951D02*
X36221Y-31951D01*
X36221Y-31951D02*
X36223Y-31951D01*
X36223Y-31951D02*
X36225Y-31952D01*
X36225Y-31952D02*
X36226Y-31953D01*
X36226Y-31953D02*
X36228Y-31955D01*
X36228Y-31955D02*
X36229Y-31956D01*
X36229Y-31956D02*
X36229Y-31958D01*
X36229Y-31958D02*
X36229Y-31960D01*
X36229Y-31960D02*
X36230Y-31960D01*
X36950Y-31960D02*
X36949Y-31961D01*
X36949Y-31961D02*
X36949Y-31963D01*
X36949Y-31963D02*
X36948Y-31965D01*
X36948Y-31965D02*
X36947Y-31967D01*
X36947Y-31967D02*
X36945Y-31968D01*
X36945Y-31968D02*
X36943Y-31969D01*
X36943Y-31969D02*
X36942Y-31969D01*
X36942Y-31969D02*
X36940Y-31969D01*
X36940Y-31969D02*
X36939Y-31969D01*
X36939Y-31969D02*
X36937Y-31969D01*
X36937Y-31969D02*
X36935Y-31968D01*
X36935Y-31968D02*
X36934Y-31967D01*
X36934Y-31967D02*
X36932Y-31965D01*
X36932Y-31965D02*
X36931Y-31963D01*
X36931Y-31963D02*
X36931Y-31962D01*
X36931Y-31962D02*
X36931Y-31960D01*
X36931Y-31960D02*
X36931Y-31959D01*
X36931Y-31959D02*
X36931Y-31957D01*
X36931Y-31957D02*
X36932Y-31955D01*
X36932Y-31955D02*
X36933Y-31954D01*
X36933Y-31954D02*
X36935Y-31952D01*
X36935Y-31952D02*
X36936Y-31951D01*
X36936Y-31951D02*
X36938Y-31951D01*
X36938Y-31951D02*
X36940Y-31951D01*
X36940Y-31951D02*
X36941Y-31951D01*
X36941Y-31951D02*
X36943Y-31951D01*
X36943Y-31951D02*
X36945Y-31952D01*
X36945Y-31952D02*
X36946Y-31953D01*
X36946Y-31953D02*
X36948Y-31955D01*
X36948Y-31955D02*
X36949Y-31956D01*
X36949Y-31956D02*
X36949Y-31958D01*
X36949Y-31958D02*
X36949Y-31960D01*
X36949Y-31960D02*
X36950Y-31960D01*
X36410Y-31960D02*
X36409Y-31961D01*
X36409Y-31961D02*
X36409Y-31963D01*
X36409Y-31963D02*
X36408Y-31965D01*
X36408Y-31965D02*
X36407Y-31967D01*
X36407Y-31967D02*
X36405Y-31968D01*
X36405Y-31968D02*
X36403Y-31969D01*
X36403Y-31969D02*
X36402Y-31969D01*
X36402Y-31969D02*
X36400Y-31969D01*
X36400Y-31969D02*
X36399Y-31969D01*
X36399Y-31969D02*
X36397Y-31969D01*
X36397Y-31969D02*
X36395Y-31968D01*
X36395Y-31968D02*
X36394Y-31967D01*
X36394Y-31967D02*
X36392Y-31965D01*
X36392Y-31965D02*
X36391Y-31963D01*
X36391Y-31963D02*
X36391Y-31962D01*
X36391Y-31962D02*
X36391Y-31960D01*
X36391Y-31960D02*
X36391Y-31959D01*
X36391Y-31959D02*
X36391Y-31957D01*
X36391Y-31957D02*
X36392Y-31955D01*
X36392Y-31955D02*
X36393Y-31954D01*
X36393Y-31954D02*
X36395Y-31952D01*
X36395Y-31952D02*
X36396Y-31951D01*
X36396Y-31951D02*
X36398Y-31951D01*
X36398Y-31951D02*
X36400Y-31951D01*
X36400Y-31951D02*
X36401Y-31951D01*
X36401Y-31951D02*
X36403Y-31951D01*
X36403Y-31951D02*
X36405Y-31952D01*
X36405Y-31952D02*
X36406Y-31953D01*
X36406Y-31953D02*
X36408Y-31955D01*
X36408Y-31955D02*
X36409Y-31956D01*
X36409Y-31956D02*
X36409Y-31958D01*
X36409Y-31958D02*
X36409Y-31960D01*
X36409Y-31960D02*
X36410Y-31960D01*
X36410Y-31780D02*
X36409Y-31781D01*
X36409Y-31781D02*
X36409Y-31783D01*
X36409Y-31783D02*
X36408Y-31785D01*
X36408Y-31785D02*
X36407Y-31787D01*
X36407Y-31787D02*
X36405Y-31788D01*
X36405Y-31788D02*
X36403Y-31789D01*
X36403Y-31789D02*
X36402Y-31789D01*
X36402Y-31789D02*
X36400Y-31789D01*
X36400Y-31789D02*
X36399Y-31789D01*
X36399Y-31789D02*
X36397Y-31789D01*
X36397Y-31789D02*
X36395Y-31788D01*
X36395Y-31788D02*
X36394Y-31787D01*
X36394Y-31787D02*
X36392Y-31785D01*
X36392Y-31785D02*
X36391Y-31783D01*
X36391Y-31783D02*
X36391Y-31782D01*
X36391Y-31782D02*
X36391Y-31780D01*
X36391Y-31780D02*
X36391Y-31779D01*
X36391Y-31779D02*
X36391Y-31777D01*
X36391Y-31777D02*
X36392Y-31775D01*
X36392Y-31775D02*
X36393Y-31774D01*
X36393Y-31774D02*
X36395Y-31772D01*
X36395Y-31772D02*
X36396Y-31771D01*
X36396Y-31771D02*
X36398Y-31771D01*
X36398Y-31771D02*
X36400Y-31771D01*
X36400Y-31771D02*
X36401Y-31771D01*
X36401Y-31771D02*
X36403Y-31771D01*
X36403Y-31771D02*
X36405Y-31772D01*
X36405Y-31772D02*
X36406Y-31773D01*
X36406Y-31773D02*
X36408Y-31775D01*
X36408Y-31775D02*
X36409Y-31776D01*
X36409Y-31776D02*
X36409Y-31778D01*
X36409Y-31778D02*
X36409Y-31780D01*
X36409Y-31780D02*
X36410Y-31780D01*
X36230Y-31780D02*
X36229Y-31781D01*
X36229Y-31781D02*
X36229Y-31783D01*
X36229Y-31783D02*
X36228Y-31785D01*
X36228Y-31785D02*
X36227Y-31787D01*
X36227Y-31787D02*
X36225Y-31788D01*
X36225Y-31788D02*
X36223Y-31789D01*
X36223Y-31789D02*
X36222Y-31789D01*
X36222Y-31789D02*
X36220Y-31789D01*
X36220Y-31789D02*
X36219Y-31789D01*
X36219Y-31789D02*
X36217Y-31789D01*
X36217Y-31789D02*
X36215Y-31788D01*
X36215Y-31788D02*
X36214Y-31787D01*
X36214Y-31787D02*
X36212Y-31785D01*
X36212Y-31785D02*
X36211Y-31783D01*
X36211Y-31783D02*
X36211Y-31782D01*
X36211Y-31782D02*
X36211Y-31780D01*
X36211Y-31780D02*
X36211Y-31779D01*
X36211Y-31779D02*
X36211Y-31777D01*
X36211Y-31777D02*
X36212Y-31775D01*
X36212Y-31775D02*
X36213Y-31774D01*
X36213Y-31774D02*
X36215Y-31772D01*
X36215Y-31772D02*
X36216Y-31771D01*
X36216Y-31771D02*
X36218Y-31771D01*
X36218Y-31771D02*
X36220Y-31771D01*
X36220Y-31771D02*
X36221Y-31771D01*
X36221Y-31771D02*
X36223Y-31771D01*
X36223Y-31771D02*
X36225Y-31772D01*
X36225Y-31772D02*
X36226Y-31773D01*
X36226Y-31773D02*
X36228Y-31775D01*
X36228Y-31775D02*
X36229Y-31776D01*
X36229Y-31776D02*
X36229Y-31778D01*
X36229Y-31778D02*
X36229Y-31780D01*
X36229Y-31780D02*
X36230Y-31780D01*
X36590Y-31240D02*
X36589Y-31241D01*
X36589Y-31241D02*
X36589Y-31243D01*
X36589Y-31243D02*
X36588Y-31245D01*
X36588Y-31245D02*
X36587Y-31247D01*
X36587Y-31247D02*
X36585Y-31248D01*
X36585Y-31248D02*
X36583Y-31249D01*
X36583Y-31249D02*
X36582Y-31249D01*
X36582Y-31249D02*
X36580Y-31249D01*
X36580Y-31249D02*
X36579Y-31249D01*
X36579Y-31249D02*
X36577Y-31249D01*
X36577Y-31249D02*
X36575Y-31248D01*
X36575Y-31248D02*
X36574Y-31247D01*
X36574Y-31247D02*
X36572Y-31245D01*
X36572Y-31245D02*
X36571Y-31243D01*
X36571Y-31243D02*
X36571Y-31242D01*
X36571Y-31242D02*
X36571Y-31240D01*
X36571Y-31240D02*
X36571Y-31239D01*
X36571Y-31239D02*
X36571Y-31237D01*
X36571Y-31237D02*
X36572Y-31235D01*
X36572Y-31235D02*
X36573Y-31234D01*
X36573Y-31234D02*
X36575Y-31232D01*
X36575Y-31232D02*
X36576Y-31231D01*
X36576Y-31231D02*
X36578Y-31231D01*
X36578Y-31231D02*
X36580Y-31231D01*
X36580Y-31231D02*
X36581Y-31231D01*
X36581Y-31231D02*
X36583Y-31231D01*
X36583Y-31231D02*
X36585Y-31232D01*
X36585Y-31232D02*
X36586Y-31233D01*
X36586Y-31233D02*
X36588Y-31235D01*
X36588Y-31235D02*
X36589Y-31236D01*
X36589Y-31236D02*
X36589Y-31238D01*
X36589Y-31238D02*
X36589Y-31240D01*
X36589Y-31240D02*
X36590Y-31240D01*
X36770Y-31240D02*
X36769Y-31241D01*
X36769Y-31241D02*
X36769Y-31243D01*
X36769Y-31243D02*
X36768Y-31245D01*
X36768Y-31245D02*
X36767Y-31247D01*
X36767Y-31247D02*
X36765Y-31248D01*
X36765Y-31248D02*
X36763Y-31249D01*
X36763Y-31249D02*
X36762Y-31249D01*
X36762Y-31249D02*
X36760Y-31249D01*
X36760Y-31249D02*
X36759Y-31249D01*
X36759Y-31249D02*
X36757Y-31249D01*
X36757Y-31249D02*
X36755Y-31248D01*
X36755Y-31248D02*
X36754Y-31247D01*
X36754Y-31247D02*
X36752Y-31245D01*
X36752Y-31245D02*
X36751Y-31243D01*
X36751Y-31243D02*
X36751Y-31242D01*
X36751Y-31242D02*
X36751Y-31240D01*
X36751Y-31240D02*
X36751Y-31239D01*
X36751Y-31239D02*
X36751Y-31237D01*
X36751Y-31237D02*
X36752Y-31235D01*
X36752Y-31235D02*
X36753Y-31234D01*
X36753Y-31234D02*
X36755Y-31232D01*
X36755Y-31232D02*
X36756Y-31231D01*
X36756Y-31231D02*
X36758Y-31231D01*
X36758Y-31231D02*
X36760Y-31231D01*
X36760Y-31231D02*
X36761Y-31231D01*
X36761Y-31231D02*
X36763Y-31231D01*
X36763Y-31231D02*
X36765Y-31232D01*
X36765Y-31232D02*
X36766Y-31233D01*
X36766Y-31233D02*
X36768Y-31235D01*
X36768Y-31235D02*
X36769Y-31236D01*
X36769Y-31236D02*
X36769Y-31238D01*
X36769Y-31238D02*
X36769Y-31240D01*
X36769Y-31240D02*
X36770Y-31240D01*
X36050Y-31240D02*
X36049Y-31241D01*
X36049Y-31241D02*
X36049Y-31243D01*
X36049Y-31243D02*
X36048Y-31245D01*
X36048Y-31245D02*
X36047Y-31247D01*
X36047Y-31247D02*
X36045Y-31248D01*
X36045Y-31248D02*
X36043Y-31249D01*
X36043Y-31249D02*
X36042Y-31249D01*
X36042Y-31249D02*
X36040Y-31249D01*
X36040Y-31249D02*
X36039Y-31249D01*
X36039Y-31249D02*
X36037Y-31249D01*
X36037Y-31249D02*
X36035Y-31248D01*
X36035Y-31248D02*
X36034Y-31247D01*
X36034Y-31247D02*
X36032Y-31245D01*
X36032Y-31245D02*
X36031Y-31243D01*
X36031Y-31243D02*
X36031Y-31242D01*
X36031Y-31242D02*
X36031Y-31240D01*
X36031Y-31240D02*
X36031Y-31239D01*
X36031Y-31239D02*
X36031Y-31237D01*
X36031Y-31237D02*
X36032Y-31235D01*
X36032Y-31235D02*
X36033Y-31234D01*
X36033Y-31234D02*
X36035Y-31232D01*
X36035Y-31232D02*
X36036Y-31231D01*
X36036Y-31231D02*
X36038Y-31231D01*
X36038Y-31231D02*
X36040Y-31231D01*
X36040Y-31231D02*
X36041Y-31231D01*
X36041Y-31231D02*
X36043Y-31231D01*
X36043Y-31231D02*
X36045Y-31232D01*
X36045Y-31232D02*
X36046Y-31233D01*
X36046Y-31233D02*
X36048Y-31235D01*
X36048Y-31235D02*
X36049Y-31236D01*
X36049Y-31236D02*
X36049Y-31238D01*
X36049Y-31238D02*
X36049Y-31240D01*
X36049Y-31240D02*
X36050Y-31240D01*
X35870Y-31240D02*
X35869Y-31241D01*
X35869Y-31241D02*
X35869Y-31243D01*
X35869Y-31243D02*
X35868Y-31245D01*
X35868Y-31245D02*
X35867Y-31247D01*
X35867Y-31247D02*
X35865Y-31248D01*
X35865Y-31248D02*
X35863Y-31249D01*
X35863Y-31249D02*
X35862Y-31249D01*
X35862Y-31249D02*
X35860Y-31249D01*
X35860Y-31249D02*
X35859Y-31249D01*
X35859Y-31249D02*
X35857Y-31249D01*
X35857Y-31249D02*
X35855Y-31248D01*
X35855Y-31248D02*
X35854Y-31247D01*
X35854Y-31247D02*
X35852Y-31245D01*
X35852Y-31245D02*
X35851Y-31243D01*
X35851Y-31243D02*
X35851Y-31242D01*
X35851Y-31242D02*
X35851Y-31240D01*
X35851Y-31240D02*
X35851Y-31239D01*
X35851Y-31239D02*
X35851Y-31237D01*
X35851Y-31237D02*
X35852Y-31235D01*
X35852Y-31235D02*
X35853Y-31234D01*
X35853Y-31234D02*
X35855Y-31232D01*
X35855Y-31232D02*
X35856Y-31231D01*
X35856Y-31231D02*
X35858Y-31231D01*
X35858Y-31231D02*
X35860Y-31231D01*
X35860Y-31231D02*
X35861Y-31231D01*
X35861Y-31231D02*
X35863Y-31231D01*
X35863Y-31231D02*
X35865Y-31232D01*
X35865Y-31232D02*
X35866Y-31233D01*
X35866Y-31233D02*
X35868Y-31235D01*
X35868Y-31235D02*
X35869Y-31236D01*
X35869Y-31236D02*
X35869Y-31238D01*
X35869Y-31238D02*
X35869Y-31240D01*
X35869Y-31240D02*
X35870Y-31240D01*
X36590Y-31420D02*
X36589Y-31421D01*
X36589Y-31421D02*
X36589Y-31423D01*
X36589Y-31423D02*
X36588Y-31425D01*
X36588Y-31425D02*
X36587Y-31427D01*
X36587Y-31427D02*
X36585Y-31428D01*
X36585Y-31428D02*
X36583Y-31429D01*
X36583Y-31429D02*
X36582Y-31429D01*
X36582Y-31429D02*
X36580Y-31429D01*
X36580Y-31429D02*
X36579Y-31429D01*
X36579Y-31429D02*
X36577Y-31429D01*
X36577Y-31429D02*
X36575Y-31428D01*
X36575Y-31428D02*
X36574Y-31427D01*
X36574Y-31427D02*
X36572Y-31425D01*
X36572Y-31425D02*
X36571Y-31423D01*
X36571Y-31423D02*
X36571Y-31422D01*
X36571Y-31422D02*
X36571Y-31420D01*
X36571Y-31420D02*
X36571Y-31419D01*
X36571Y-31419D02*
X36571Y-31417D01*
X36571Y-31417D02*
X36572Y-31415D01*
X36572Y-31415D02*
X36573Y-31414D01*
X36573Y-31414D02*
X36575Y-31412D01*
X36575Y-31412D02*
X36576Y-31411D01*
X36576Y-31411D02*
X36578Y-31411D01*
X36578Y-31411D02*
X36580Y-31411D01*
X36580Y-31411D02*
X36581Y-31411D01*
X36581Y-31411D02*
X36583Y-31411D01*
X36583Y-31411D02*
X36585Y-31412D01*
X36585Y-31412D02*
X36586Y-31413D01*
X36586Y-31413D02*
X36588Y-31415D01*
X36588Y-31415D02*
X36589Y-31416D01*
X36589Y-31416D02*
X36589Y-31418D01*
X36589Y-31418D02*
X36589Y-31420D01*
X36589Y-31420D02*
X36590Y-31420D01*
X36770Y-31420D02*
X36769Y-31421D01*
X36769Y-31421D02*
X36769Y-31423D01*
X36769Y-31423D02*
X36768Y-31425D01*
X36768Y-31425D02*
X36767Y-31427D01*
X36767Y-31427D02*
X36765Y-31428D01*
X36765Y-31428D02*
X36763Y-31429D01*
X36763Y-31429D02*
X36762Y-31429D01*
X36762Y-31429D02*
X36760Y-31429D01*
X36760Y-31429D02*
X36759Y-31429D01*
X36759Y-31429D02*
X36757Y-31429D01*
X36757Y-31429D02*
X36755Y-31428D01*
X36755Y-31428D02*
X36754Y-31427D01*
X36754Y-31427D02*
X36752Y-31425D01*
X36752Y-31425D02*
X36751Y-31423D01*
X36751Y-31423D02*
X36751Y-31422D01*
X36751Y-31422D02*
X36751Y-31420D01*
X36751Y-31420D02*
X36751Y-31419D01*
X36751Y-31419D02*
X36751Y-31417D01*
X36751Y-31417D02*
X36752Y-31415D01*
X36752Y-31415D02*
X36753Y-31414D01*
X36753Y-31414D02*
X36755Y-31412D01*
X36755Y-31412D02*
X36756Y-31411D01*
X36756Y-31411D02*
X36758Y-31411D01*
X36758Y-31411D02*
X36760Y-31411D01*
X36760Y-31411D02*
X36761Y-31411D01*
X36761Y-31411D02*
X36763Y-31411D01*
X36763Y-31411D02*
X36765Y-31412D01*
X36765Y-31412D02*
X36766Y-31413D01*
X36766Y-31413D02*
X36768Y-31415D01*
X36768Y-31415D02*
X36769Y-31416D01*
X36769Y-31416D02*
X36769Y-31418D01*
X36769Y-31418D02*
X36769Y-31420D01*
X36769Y-31420D02*
X36770Y-31420D01*
X36050Y-31420D02*
X36049Y-31421D01*
X36049Y-31421D02*
X36049Y-31423D01*
X36049Y-31423D02*
X36048Y-31425D01*
X36048Y-31425D02*
X36047Y-31427D01*
X36047Y-31427D02*
X36045Y-31428D01*
X36045Y-31428D02*
X36043Y-31429D01*
X36043Y-31429D02*
X36042Y-31429D01*
X36042Y-31429D02*
X36040Y-31429D01*
X36040Y-31429D02*
X36039Y-31429D01*
X36039Y-31429D02*
X36037Y-31429D01*
X36037Y-31429D02*
X36035Y-31428D01*
X36035Y-31428D02*
X36034Y-31427D01*
X36034Y-31427D02*
X36032Y-31425D01*
X36032Y-31425D02*
X36031Y-31423D01*
X36031Y-31423D02*
X36031Y-31422D01*
X36031Y-31422D02*
X36031Y-31420D01*
X36031Y-31420D02*
X36031Y-31419D01*
X36031Y-31419D02*
X36031Y-31417D01*
X36031Y-31417D02*
X36032Y-31415D01*
X36032Y-31415D02*
X36033Y-31414D01*
X36033Y-31414D02*
X36035Y-31412D01*
X36035Y-31412D02*
X36036Y-31411D01*
X36036Y-31411D02*
X36038Y-31411D01*
X36038Y-31411D02*
X36040Y-31411D01*
X36040Y-31411D02*
X36041Y-31411D01*
X36041Y-31411D02*
X36043Y-31411D01*
X36043Y-31411D02*
X36045Y-31412D01*
X36045Y-31412D02*
X36046Y-31413D01*
X36046Y-31413D02*
X36048Y-31415D01*
X36048Y-31415D02*
X36049Y-31416D01*
X36049Y-31416D02*
X36049Y-31418D01*
X36049Y-31418D02*
X36049Y-31420D01*
X36049Y-31420D02*
X36050Y-31420D01*
X35870Y-31420D02*
X35869Y-31421D01*
X35869Y-31421D02*
X35869Y-31423D01*
X35869Y-31423D02*
X35868Y-31425D01*
X35868Y-31425D02*
X35867Y-31427D01*
X35867Y-31427D02*
X35865Y-31428D01*
X35865Y-31428D02*
X35863Y-31429D01*
X35863Y-31429D02*
X35862Y-31429D01*
X35862Y-31429D02*
X35860Y-31429D01*
X35860Y-31429D02*
X35859Y-31429D01*
X35859Y-31429D02*
X35857Y-31429D01*
X35857Y-31429D02*
X35855Y-31428D01*
X35855Y-31428D02*
X35854Y-31427D01*
X35854Y-31427D02*
X35852Y-31425D01*
X35852Y-31425D02*
X35851Y-31423D01*
X35851Y-31423D02*
X35851Y-31422D01*
X35851Y-31422D02*
X35851Y-31420D01*
X35851Y-31420D02*
X35851Y-31419D01*
X35851Y-31419D02*
X35851Y-31417D01*
X35851Y-31417D02*
X35852Y-31415D01*
X35852Y-31415D02*
X35853Y-31414D01*
X35853Y-31414D02*
X35855Y-31412D01*
X35855Y-31412D02*
X35856Y-31411D01*
X35856Y-31411D02*
X35858Y-31411D01*
X35858Y-31411D02*
X35860Y-31411D01*
X35860Y-31411D02*
X35861Y-31411D01*
X35861Y-31411D02*
X35863Y-31411D01*
X35863Y-31411D02*
X35865Y-31412D01*
X35865Y-31412D02*
X35866Y-31413D01*
X35866Y-31413D02*
X35868Y-31415D01*
X35868Y-31415D02*
X35869Y-31416D01*
X35869Y-31416D02*
X35869Y-31418D01*
X35869Y-31418D02*
X35869Y-31420D01*
X35869Y-31420D02*
X35870Y-31420D01*
G54D10*
X31120Y-26020D02*
X31520Y-26020D01*
X31520Y-26020D02*
X31120Y-25709D01*
X31120Y-25709D02*
X31520Y-25709D01*
X31164Y-25165D02*
X31120Y-25209D01*
X31120Y-25209D02*
X31120Y-25432D01*
X31120Y-25432D02*
X31164Y-25476D01*
X31164Y-25476D02*
X31475Y-25476D01*
X31475Y-25476D02*
X31520Y-25432D01*
X31520Y-25432D02*
X31520Y-25209D01*
X31520Y-25209D02*
X31475Y-25165D01*
X34470Y-26000D02*
X34470Y-25644D01*
X34470Y-25822D02*
X34070Y-25822D01*
X34070Y-25456D02*
X34470Y-25145D01*
X34470Y-25456D02*
X34070Y-25145D01*
X33080Y-25970D02*
X33480Y-25970D01*
X33480Y-25970D02*
X33480Y-25703D01*
X33480Y-25703D02*
X33435Y-25659D01*
X33435Y-25659D02*
X33302Y-25659D01*
X33302Y-25659D02*
X33257Y-25703D01*
X33257Y-25703D02*
X33257Y-25970D01*
X33257Y-25837D02*
X33080Y-25659D01*
X33080Y-25426D02*
X33480Y-25115D01*
X33480Y-25426D02*
X33080Y-25115D01*
G54D19*
X32004Y-25475D02*
X32538Y-25475D01*
X32271Y-25742D02*
X32271Y-25208D01*
X30305Y-25637D02*
X30305Y-25192D01*
X28527Y-26405D02*
X28082Y-26405D01*
X28596Y-25475D02*
X28062Y-25475D01*
X28329Y-25742D02*
X28329Y-25208D01*
G54D10*
X28592Y-27516D02*
X28548Y-27560D01*
X28548Y-27560D02*
X28325Y-27560D01*
X28325Y-27560D02*
X28281Y-27516D01*
X28281Y-27516D02*
X28281Y-27383D01*
X28281Y-27383D02*
X28325Y-27338D01*
X28325Y-27338D02*
X28548Y-27338D01*
X28548Y-27338D02*
X28592Y-27294D01*
X28592Y-27294D02*
X28592Y-27205D01*
X28592Y-27205D02*
X28548Y-27160D01*
X28548Y-27160D02*
X28325Y-27160D01*
X28325Y-27160D02*
X28281Y-27205D01*
X27737Y-27516D02*
X27781Y-27560D01*
X27781Y-27560D02*
X28004Y-27560D01*
X28004Y-27560D02*
X28048Y-27516D01*
X28048Y-27516D02*
X28048Y-27205D01*
X28048Y-27205D02*
X28004Y-27160D01*
X28004Y-27160D02*
X27781Y-27160D01*
X27781Y-27160D02*
X27737Y-27205D01*
X27504Y-27160D02*
X27504Y-27560D01*
X27504Y-27560D02*
X27148Y-27560D01*
X28602Y-28566D02*
X28558Y-28610D01*
X28558Y-28610D02*
X28335Y-28610D01*
X28335Y-28610D02*
X28291Y-28566D01*
X28291Y-28566D02*
X28291Y-28433D01*
X28291Y-28433D02*
X28335Y-28388D01*
X28335Y-28388D02*
X28558Y-28388D01*
X28558Y-28388D02*
X28602Y-28344D01*
X28602Y-28344D02*
X28602Y-28255D01*
X28602Y-28255D02*
X28558Y-28210D01*
X28558Y-28210D02*
X28335Y-28210D01*
X28335Y-28210D02*
X28291Y-28255D01*
X28014Y-28610D02*
X28014Y-28210D01*
X28058Y-28210D02*
X27791Y-28210D01*
X27791Y-28210D02*
X27747Y-28255D01*
X27747Y-28255D02*
X27747Y-28566D01*
X27747Y-28566D02*
X27791Y-28610D01*
X27791Y-28610D02*
X28058Y-28610D01*
X27514Y-28610D02*
X27514Y-28299D01*
X27514Y-28299D02*
X27425Y-28210D01*
X27425Y-28210D02*
X27292Y-28210D01*
X27292Y-28210D02*
X27203Y-28299D01*
X27203Y-28299D02*
X27203Y-28610D01*
X27514Y-28388D02*
X27203Y-28388D01*
X28612Y-30600D02*
X28612Y-30200D01*
X28612Y-30200D02*
X28345Y-30200D01*
X28345Y-30200D02*
X28301Y-30245D01*
X28301Y-30245D02*
X28301Y-30378D01*
X28301Y-30378D02*
X28345Y-30423D01*
X28345Y-30423D02*
X28612Y-30423D01*
X27757Y-30556D02*
X27801Y-30600D01*
X27801Y-30600D02*
X28024Y-30600D01*
X28024Y-30600D02*
X28068Y-30556D01*
X28068Y-30556D02*
X28068Y-30245D01*
X28068Y-30245D02*
X28024Y-30200D01*
X28024Y-30200D02*
X27801Y-30200D01*
X27801Y-30200D02*
X27757Y-30245D01*
X27213Y-30600D02*
X27524Y-30600D01*
X27524Y-30600D02*
X27524Y-30467D01*
X27524Y-30467D02*
X27480Y-30423D01*
X27480Y-30423D02*
X27257Y-30423D01*
X27257Y-30423D02*
X27213Y-30378D01*
X27213Y-30378D02*
X27213Y-30245D01*
X27213Y-30245D02*
X27257Y-30200D01*
X27257Y-30200D02*
X27480Y-30200D01*
X27480Y-30200D02*
X27524Y-30245D01*
X28602Y-29550D02*
X28602Y-29150D01*
X28602Y-29150D02*
X28335Y-29150D01*
X28335Y-29150D02*
X28291Y-29195D01*
X28291Y-29195D02*
X28291Y-29328D01*
X28291Y-29328D02*
X28335Y-29373D01*
X28335Y-29373D02*
X28602Y-29373D01*
X27747Y-29506D02*
X27791Y-29550D01*
X27791Y-29550D02*
X28014Y-29550D01*
X28014Y-29550D02*
X28058Y-29506D01*
X28058Y-29506D02*
X28058Y-29195D01*
X28058Y-29195D02*
X28014Y-29150D01*
X28014Y-29150D02*
X27791Y-29150D01*
X27791Y-29150D02*
X27747Y-29195D01*
X27514Y-29150D02*
X27203Y-29150D01*
X27203Y-29150D02*
X27203Y-29195D01*
X27203Y-29195D02*
X27381Y-29328D01*
X27381Y-29328D02*
X27247Y-29328D01*
X27247Y-29328D02*
X27203Y-29373D01*
X27203Y-29373D02*
X27203Y-29506D01*
X27203Y-29506D02*
X27247Y-29550D01*
X27247Y-29550D02*
X27470Y-29550D01*
X27470Y-29550D02*
X27514Y-29506D01*
X38572Y-29570D02*
X38572Y-29170D01*
X38572Y-29170D02*
X38305Y-29170D01*
X38305Y-29170D02*
X38261Y-29215D01*
X38261Y-29215D02*
X38261Y-29348D01*
X38261Y-29348D02*
X38305Y-29393D01*
X38305Y-29393D02*
X38572Y-29393D01*
X37717Y-29526D02*
X37761Y-29570D01*
X37761Y-29570D02*
X37984Y-29570D01*
X37984Y-29570D02*
X38028Y-29526D01*
X38028Y-29526D02*
X38028Y-29215D01*
X38028Y-29215D02*
X37984Y-29170D01*
X37984Y-29170D02*
X37761Y-29170D01*
X37761Y-29170D02*
X37717Y-29215D01*
X37484Y-29170D02*
X37173Y-29170D01*
X37173Y-29170D02*
X37173Y-29215D01*
X37173Y-29215D02*
X37351Y-29348D01*
X37351Y-29348D02*
X37217Y-29348D01*
X37217Y-29348D02*
X37173Y-29393D01*
X37173Y-29393D02*
X37173Y-29526D01*
X37173Y-29526D02*
X37217Y-29570D01*
X37217Y-29570D02*
X37440Y-29570D01*
X37440Y-29570D02*
X37484Y-29526D01*
X38582Y-30620D02*
X38582Y-30220D01*
X38582Y-30220D02*
X38315Y-30220D01*
X38315Y-30220D02*
X38271Y-30265D01*
X38271Y-30265D02*
X38271Y-30398D01*
X38271Y-30398D02*
X38315Y-30443D01*
X38315Y-30443D02*
X38582Y-30443D01*
X37727Y-30576D02*
X37771Y-30620D01*
X37771Y-30620D02*
X37994Y-30620D01*
X37994Y-30620D02*
X38038Y-30576D01*
X38038Y-30576D02*
X38038Y-30265D01*
X38038Y-30265D02*
X37994Y-30220D01*
X37994Y-30220D02*
X37771Y-30220D01*
X37771Y-30220D02*
X37727Y-30265D01*
X37183Y-30620D02*
X37494Y-30620D01*
X37494Y-30620D02*
X37494Y-30487D01*
X37494Y-30487D02*
X37450Y-30443D01*
X37450Y-30443D02*
X37227Y-30443D01*
X37227Y-30443D02*
X37183Y-30398D01*
X37183Y-30398D02*
X37183Y-30265D01*
X37183Y-30265D02*
X37227Y-30220D01*
X37227Y-30220D02*
X37450Y-30220D01*
X37450Y-30220D02*
X37494Y-30265D01*
X38572Y-28586D02*
X38528Y-28630D01*
X38528Y-28630D02*
X38305Y-28630D01*
X38305Y-28630D02*
X38261Y-28586D01*
X38261Y-28586D02*
X38261Y-28453D01*
X38261Y-28453D02*
X38305Y-28408D01*
X38305Y-28408D02*
X38528Y-28408D01*
X38528Y-28408D02*
X38572Y-28364D01*
X38572Y-28364D02*
X38572Y-28275D01*
X38572Y-28275D02*
X38528Y-28230D01*
X38528Y-28230D02*
X38305Y-28230D01*
X38305Y-28230D02*
X38261Y-28275D01*
X37984Y-28630D02*
X37984Y-28230D01*
X38028Y-28230D02*
X37761Y-28230D01*
X37761Y-28230D02*
X37717Y-28275D01*
X37717Y-28275D02*
X37717Y-28586D01*
X37717Y-28586D02*
X37761Y-28630D01*
X37761Y-28630D02*
X38028Y-28630D01*
X37484Y-28630D02*
X37484Y-28319D01*
X37484Y-28319D02*
X37395Y-28230D01*
X37395Y-28230D02*
X37262Y-28230D01*
X37262Y-28230D02*
X37173Y-28319D01*
X37173Y-28319D02*
X37173Y-28630D01*
X37484Y-28408D02*
X37173Y-28408D01*
X38562Y-27536D02*
X38518Y-27580D01*
X38518Y-27580D02*
X38295Y-27580D01*
X38295Y-27580D02*
X38251Y-27536D01*
X38251Y-27536D02*
X38251Y-27403D01*
X38251Y-27403D02*
X38295Y-27358D01*
X38295Y-27358D02*
X38518Y-27358D01*
X38518Y-27358D02*
X38562Y-27314D01*
X38562Y-27314D02*
X38562Y-27225D01*
X38562Y-27225D02*
X38518Y-27180D01*
X38518Y-27180D02*
X38295Y-27180D01*
X38295Y-27180D02*
X38251Y-27225D01*
X37707Y-27536D02*
X37751Y-27580D01*
X37751Y-27580D02*
X37974Y-27580D01*
X37974Y-27580D02*
X38018Y-27536D01*
X38018Y-27536D02*
X38018Y-27225D01*
X38018Y-27225D02*
X37974Y-27180D01*
X37974Y-27180D02*
X37751Y-27180D01*
X37751Y-27180D02*
X37707Y-27225D01*
X37474Y-27180D02*
X37474Y-27580D01*
X37474Y-27580D02*
X37118Y-27580D01*
G54D19*
X37816Y-25455D02*
X37282Y-25455D01*
X37549Y-25722D02*
X37549Y-25188D01*
X37647Y-26435D02*
X37202Y-26435D01*
G54D25*
X41220Y-28070D02*
X41038Y-26340D01*
X41038Y-26340D02*
X40501Y-24686D01*
X40501Y-24686D02*
X39631Y-23180D01*
X39631Y-23180D02*
X38467Y-21887D01*
X38467Y-21887D02*
X37060Y-20865D01*
X37060Y-20865D02*
X35471Y-20157D01*
X35471Y-20157D02*
X33770Y-19796D01*
X33770Y-19796D02*
X32900Y-19750D01*
X32900Y-19750D02*
X31170Y-19932D01*
X31170Y-19932D02*
X29516Y-20469D01*
X29516Y-20469D02*
X28010Y-21339D01*
X28010Y-21339D02*
X26717Y-22503D01*
X26717Y-22503D02*
X25695Y-23910D01*
X25695Y-23910D02*
X24987Y-25499D01*
X24987Y-25499D02*
X24626Y-27200D01*
X24626Y-27200D02*
X24580Y-28070D01*
X24580Y-28070D02*
X24762Y-29800D01*
X24762Y-29800D02*
X25299Y-31454D01*
X25299Y-31454D02*
X26169Y-32960D01*
X26169Y-32960D02*
X27333Y-34253D01*
X27333Y-34253D02*
X28740Y-35275D01*
X28740Y-35275D02*
X30329Y-35983D01*
X30329Y-35983D02*
X32030Y-36344D01*
X32030Y-36344D02*
X32900Y-36390D01*
X32900Y-36390D02*
X34630Y-36208D01*
X34630Y-36208D02*
X36284Y-35671D01*
X36284Y-35671D02*
X37790Y-34801D01*
X37790Y-34801D02*
X39083Y-33637D01*
X39083Y-33637D02*
X40105Y-32230D01*
X40105Y-32230D02*
X40813Y-30641D01*
X40813Y-30641D02*
X41174Y-28940D01*
X41174Y-28940D02*
X41220Y-28070D01*
X29200Y-24250D02*
X29200Y-24550D01*
X29550Y-24400D02*
X29150Y-24600D01*
X29150Y-24600D02*
X29150Y-24200D01*
X29150Y-24200D02*
X29550Y-24400D01*
X29550Y-24400D02*
X29150Y-24400D01*
G54D19*
X29800Y-23900D02*
X29800Y-24900D01*
X29800Y-24900D02*
X35800Y-24900D01*
X35800Y-24900D02*
X35800Y-23900D01*
X35800Y-23900D02*
X29800Y-23900D01*
X30800Y-23900D02*
X30800Y-24900D01*
G54D25*
X31150Y-31340D02*
X30600Y-31640D01*
X30600Y-31640D02*
X30600Y-31040D01*
X30600Y-31040D02*
X31150Y-31340D01*
X31150Y-31340D02*
X30600Y-31340D01*
X30600Y-31340D02*
X30700Y-31490D01*
X30700Y-31490D02*
X30950Y-31340D01*
X30950Y-31340D02*
X30650Y-31190D01*
G54D26*
X34400Y-30840D02*
X31400Y-30840D01*
X31400Y-32840D02*
X34400Y-32840D01*
X34400Y-32840D02*
X34400Y-30840D01*
X31400Y-30840D02*
X31400Y-32840D01*
G54D19*
X36800Y-24900D02*
X35800Y-24900D01*
X35800Y-24900D02*
X35800Y-30900D01*
X35800Y-30900D02*
X36800Y-30900D01*
X36800Y-30900D02*
X36800Y-24900D01*
X36800Y-25900D02*
X35800Y-25900D01*
X29795Y-24900D02*
X28795Y-24900D01*
X28795Y-24900D02*
X28795Y-30900D01*
X28795Y-30900D02*
X29795Y-30900D01*
X29795Y-30900D02*
X29795Y-24900D01*
X29795Y-25900D02*
X28795Y-25900D01*
G54D27*
X39469Y-25765D02*
X39174Y-25765D01*
X39174Y-25765D02*
X39174Y-25195D01*
X39469Y-25195D02*
X39174Y-25195D01*
X39469Y-25765D02*
X39469Y-25195D01*
X38900Y-25765D02*
X38605Y-25765D01*
X38605Y-25765D02*
X38605Y-25195D01*
X38900Y-25195D02*
X38605Y-25195D01*
X38900Y-25765D02*
X38900Y-25195D01*
X39079Y-25637D02*
X39001Y-25637D01*
X39001Y-25637D02*
X39001Y-25323D01*
X39079Y-25323D02*
X39001Y-25323D01*
X39079Y-25637D02*
X39079Y-25323D01*
G54D28*
X39816Y-25093D02*
X38264Y-25093D01*
X38264Y-25867D02*
X39816Y-25867D01*
X39816Y-25867D02*
X39816Y-25093D01*
G54D29*
X39190Y-25221D02*
X38890Y-25221D01*
X39180Y-25739D02*
X38890Y-25739D01*
G54D28*
X38264Y-25093D02*
X38264Y-25867D01*
G54D27*
X33000Y-20255D02*
X33255Y-20255D01*
X33255Y-20255D02*
X33255Y-20806D01*
X33000Y-20806D02*
X33255Y-20806D01*
X33000Y-20255D02*
X33000Y-20806D01*
X32420Y-20255D02*
X32676Y-20255D01*
X32676Y-20255D02*
X32676Y-20806D01*
X32420Y-20806D02*
X32676Y-20806D01*
X32420Y-20255D02*
X32420Y-20806D01*
X32762Y-20334D02*
X32918Y-20334D01*
X32918Y-20334D02*
X32918Y-20726D01*
X32762Y-20726D02*
X32918Y-20726D01*
X32762Y-20334D02*
X32762Y-20726D01*
G54D30*
X32679Y-20780D02*
X33001Y-20780D01*
X32679Y-20280D02*
X33001Y-20280D01*
G54D28*
X32064Y-20917D02*
X33616Y-20917D01*
X33616Y-20917D02*
X33616Y-20143D01*
X33616Y-20143D02*
X32064Y-20143D01*
X32064Y-20143D02*
X32064Y-20917D01*
G54D27*
X33020Y-21435D02*
X33275Y-21435D01*
X33275Y-21435D02*
X33275Y-21986D01*
X33020Y-21986D02*
X33275Y-21986D01*
X33020Y-21435D02*
X33020Y-21986D01*
X32440Y-21435D02*
X32696Y-21435D01*
X32696Y-21435D02*
X32696Y-21986D01*
X32440Y-21986D02*
X32696Y-21986D01*
X32440Y-21435D02*
X32440Y-21986D01*
X32782Y-21514D02*
X32938Y-21514D01*
X32938Y-21514D02*
X32938Y-21906D01*
X32782Y-21906D02*
X32938Y-21906D01*
X32782Y-21514D02*
X32782Y-21906D01*
G54D30*
X32699Y-21960D02*
X33021Y-21960D01*
X32699Y-21460D02*
X33021Y-21460D01*
G54D28*
X32084Y-22097D02*
X33636Y-22097D01*
X33636Y-22097D02*
X33636Y-21323D01*
X33636Y-21323D02*
X32084Y-21323D01*
X32084Y-21323D02*
X32084Y-22097D01*
G54D27*
X33040Y-22525D02*
X33295Y-22525D01*
X33295Y-22525D02*
X33295Y-23076D01*
X33040Y-23076D02*
X33295Y-23076D01*
X33040Y-22525D02*
X33040Y-23076D01*
X32460Y-22525D02*
X32716Y-22525D01*
X32716Y-22525D02*
X32716Y-23076D01*
X32460Y-23076D02*
X32716Y-23076D01*
X32460Y-22525D02*
X32460Y-23076D01*
X32802Y-22604D02*
X32958Y-22604D01*
X32958Y-22604D02*
X32958Y-22996D01*
X32802Y-22996D02*
X32958Y-22996D01*
X32802Y-22604D02*
X32802Y-22996D01*
G54D30*
X32719Y-23050D02*
X33041Y-23050D01*
X32719Y-22550D02*
X33041Y-22550D01*
G54D28*
X32104Y-23187D02*
X33656Y-23187D01*
X33656Y-23187D02*
X33656Y-22413D01*
X33656Y-22413D02*
X32104Y-22413D01*
X32104Y-22413D02*
X32104Y-23187D01*
G54D27*
X25660Y-28195D02*
X25405Y-28195D01*
X25405Y-28195D02*
X25405Y-27644D01*
X25660Y-27644D02*
X25405Y-27644D01*
X25660Y-28195D02*
X25660Y-27644D01*
X26240Y-28195D02*
X25984Y-28195D01*
X25984Y-28195D02*
X25984Y-27644D01*
X26240Y-27644D02*
X25984Y-27644D01*
X26240Y-28195D02*
X26240Y-27644D01*
X25898Y-28116D02*
X25742Y-28116D01*
X25742Y-28116D02*
X25742Y-27724D01*
X25898Y-27724D02*
X25742Y-27724D01*
X25898Y-28116D02*
X25898Y-27724D01*
G54D30*
X25981Y-27670D02*
X25659Y-27670D01*
X25981Y-28170D02*
X25659Y-28170D01*
G54D28*
X26596Y-27533D02*
X25044Y-27533D01*
X25044Y-27533D02*
X25044Y-28307D01*
X25044Y-28307D02*
X26596Y-28307D01*
X26596Y-28307D02*
X26596Y-27533D01*
G54D27*
X26230Y-25145D02*
X26526Y-25145D01*
X26526Y-25145D02*
X26526Y-25814D01*
X26230Y-25814D02*
X26526Y-25814D01*
X26230Y-25145D02*
X26230Y-25814D01*
X27274Y-25146D02*
X27570Y-25146D01*
X27570Y-25146D02*
X27570Y-25815D01*
X27274Y-25815D02*
X27570Y-25815D01*
X27274Y-25146D02*
X27274Y-25815D01*
X26822Y-25323D02*
X26978Y-25323D01*
X26978Y-25323D02*
X26978Y-25637D01*
X26822Y-25637D02*
X26978Y-25637D01*
X26822Y-25323D02*
X26822Y-25637D01*
G54D28*
X25927Y-25867D02*
X27873Y-25867D01*
X27873Y-25093D02*
X25927Y-25093D01*
X25927Y-25093D02*
X25927Y-25867D01*
X27873Y-25867D02*
X27873Y-25093D01*
G54D29*
X26521Y-25789D02*
X27279Y-25789D01*
X26521Y-25171D02*
X27279Y-25171D01*
G54D27*
X39601Y-27765D02*
X39896Y-27765D01*
X39896Y-27765D02*
X39896Y-28335D01*
X39601Y-28335D02*
X39896Y-28335D01*
X39601Y-27765D02*
X39601Y-28335D01*
X40170Y-27765D02*
X40465Y-27765D01*
X40465Y-27765D02*
X40465Y-28335D01*
X40170Y-28335D02*
X40465Y-28335D01*
X40170Y-27765D02*
X40170Y-28335D01*
X39991Y-27893D02*
X40069Y-27893D01*
X40069Y-27893D02*
X40069Y-28207D01*
X39991Y-28207D02*
X40069Y-28207D01*
X39991Y-27893D02*
X39991Y-28207D01*
G54D28*
X39254Y-28437D02*
X40806Y-28437D01*
X40806Y-27663D02*
X39254Y-27663D01*
X39254Y-27663D02*
X39254Y-28437D01*
G54D29*
X39880Y-28309D02*
X40180Y-28309D01*
X39890Y-27791D02*
X40180Y-27791D01*
G54D28*
X40806Y-28437D02*
X40806Y-27663D01*
G54D26*
X33600Y-35000D02*
X32250Y-35000D01*
X32250Y-35000D02*
X32200Y-35000D01*
X32200Y-35000D02*
X32200Y-34200D01*
X32200Y-34200D02*
X33600Y-34200D01*
X33600Y-34200D02*
X33600Y-35000D01*
X33600Y-36000D02*
X32250Y-36000D01*
X32250Y-36000D02*
X32200Y-36000D01*
X32200Y-36000D02*
X32200Y-35200D01*
X32200Y-35200D02*
X33600Y-35200D01*
X33600Y-35200D02*
X33600Y-36000D01*
X32200Y-33200D02*
X33550Y-33200D01*
X33550Y-33200D02*
X33600Y-33200D01*
X33600Y-33200D02*
X33600Y-34000D01*
X33600Y-34000D02*
X32200Y-34000D01*
X32200Y-34000D02*
X32200Y-33200D01*
G54D31*
X30025Y-24675D02*
X30025Y-24125D01*
X30025Y-24125D02*
X30575Y-24125D01*
X30575Y-24125D02*
X30575Y-24675D01*
X30575Y-24675D02*
X30025Y-24675D01*
X31575Y-24400D02*
X31569Y-24453D01*
X31569Y-24453D02*
X31554Y-24504D01*
X31554Y-24504D02*
X31529Y-24552D01*
X31529Y-24552D02*
X31495Y-24593D01*
X31495Y-24593D02*
X31453Y-24627D01*
X31453Y-24627D02*
X31406Y-24653D01*
X31406Y-24653D02*
X31355Y-24669D01*
X31355Y-24669D02*
X31301Y-24674D01*
X31301Y-24674D02*
X31249Y-24670D01*
X31249Y-24670D02*
X31197Y-24654D01*
X31197Y-24654D02*
X31150Y-24630D01*
X31150Y-24630D02*
X31108Y-24596D01*
X31108Y-24596D02*
X31074Y-24555D01*
X31074Y-24555D02*
X31048Y-24508D01*
X31048Y-24508D02*
X31032Y-24457D01*
X31032Y-24457D02*
X31026Y-24403D01*
X31026Y-24403D02*
X31030Y-24351D01*
X31030Y-24351D02*
X31045Y-24299D01*
X31045Y-24299D02*
X31069Y-24252D01*
X31069Y-24252D02*
X31103Y-24209D01*
X31103Y-24209D02*
X31144Y-24175D01*
X31144Y-24175D02*
X31190Y-24149D01*
X31190Y-24149D02*
X31241Y-24132D01*
X31241Y-24132D02*
X31295Y-24126D01*
X31295Y-24126D02*
X31347Y-24130D01*
X31347Y-24130D02*
X31399Y-24144D01*
X31399Y-24144D02*
X31447Y-24168D01*
X31447Y-24168D02*
X31489Y-24201D01*
X31489Y-24201D02*
X31524Y-24242D01*
X31524Y-24242D02*
X31551Y-24289D01*
X31551Y-24289D02*
X31568Y-24340D01*
X31568Y-24340D02*
X31574Y-24393D01*
X31574Y-24393D02*
X31575Y-24400D01*
X32575Y-24400D02*
X32569Y-24453D01*
X32569Y-24453D02*
X32554Y-24504D01*
X32554Y-24504D02*
X32529Y-24552D01*
X32529Y-24552D02*
X32495Y-24593D01*
X32495Y-24593D02*
X32453Y-24627D01*
X32453Y-24627D02*
X32406Y-24653D01*
X32406Y-24653D02*
X32355Y-24669D01*
X32355Y-24669D02*
X32301Y-24674D01*
X32301Y-24674D02*
X32249Y-24670D01*
X32249Y-24670D02*
X32197Y-24654D01*
X32197Y-24654D02*
X32150Y-24630D01*
X32150Y-24630D02*
X32108Y-24596D01*
X32108Y-24596D02*
X32074Y-24555D01*
X32074Y-24555D02*
X32048Y-24508D01*
X32048Y-24508D02*
X32032Y-24457D01*
X32032Y-24457D02*
X32026Y-24403D01*
X32026Y-24403D02*
X32030Y-24351D01*
X32030Y-24351D02*
X32045Y-24299D01*
X32045Y-24299D02*
X32069Y-24252D01*
X32069Y-24252D02*
X32103Y-24209D01*
X32103Y-24209D02*
X32144Y-24175D01*
X32144Y-24175D02*
X32190Y-24149D01*
X32190Y-24149D02*
X32241Y-24132D01*
X32241Y-24132D02*
X32295Y-24126D01*
X32295Y-24126D02*
X32347Y-24130D01*
X32347Y-24130D02*
X32399Y-24144D01*
X32399Y-24144D02*
X32447Y-24168D01*
X32447Y-24168D02*
X32489Y-24201D01*
X32489Y-24201D02*
X32524Y-24242D01*
X32524Y-24242D02*
X32551Y-24289D01*
X32551Y-24289D02*
X32568Y-24340D01*
X32568Y-24340D02*
X32574Y-24393D01*
X32574Y-24393D02*
X32575Y-24400D01*
X33575Y-24400D02*
X33569Y-24453D01*
X33569Y-24453D02*
X33554Y-24504D01*
X33554Y-24504D02*
X33529Y-24552D01*
X33529Y-24552D02*
X33495Y-24593D01*
X33495Y-24593D02*
X33453Y-24627D01*
X33453Y-24627D02*
X33406Y-24653D01*
X33406Y-24653D02*
X33355Y-24669D01*
X33355Y-24669D02*
X33301Y-24674D01*
X33301Y-24674D02*
X33249Y-24670D01*
X33249Y-24670D02*
X33197Y-24654D01*
X33197Y-24654D02*
X33150Y-24630D01*
X33150Y-24630D02*
X33108Y-24596D01*
X33108Y-24596D02*
X33074Y-24555D01*
X33074Y-24555D02*
X33048Y-24508D01*
X33048Y-24508D02*
X33032Y-24457D01*
X33032Y-24457D02*
X33026Y-24403D01*
X33026Y-24403D02*
X33030Y-24351D01*
X33030Y-24351D02*
X33045Y-24299D01*
X33045Y-24299D02*
X33069Y-24252D01*
X33069Y-24252D02*
X33103Y-24209D01*
X33103Y-24209D02*
X33144Y-24175D01*
X33144Y-24175D02*
X33190Y-24149D01*
X33190Y-24149D02*
X33241Y-24132D01*
X33241Y-24132D02*
X33295Y-24126D01*
X33295Y-24126D02*
X33347Y-24130D01*
X33347Y-24130D02*
X33399Y-24144D01*
X33399Y-24144D02*
X33447Y-24168D01*
X33447Y-24168D02*
X33489Y-24201D01*
X33489Y-24201D02*
X33524Y-24242D01*
X33524Y-24242D02*
X33551Y-24289D01*
X33551Y-24289D02*
X33568Y-24340D01*
X33568Y-24340D02*
X33574Y-24393D01*
X33574Y-24393D02*
X33575Y-24400D01*
X34575Y-24400D02*
X34569Y-24453D01*
X34569Y-24453D02*
X34554Y-24504D01*
X34554Y-24504D02*
X34529Y-24552D01*
X34529Y-24552D02*
X34495Y-24593D01*
X34495Y-24593D02*
X34453Y-24627D01*
X34453Y-24627D02*
X34406Y-24653D01*
X34406Y-24653D02*
X34355Y-24669D01*
X34355Y-24669D02*
X34301Y-24674D01*
X34301Y-24674D02*
X34249Y-24670D01*
X34249Y-24670D02*
X34197Y-24654D01*
X34197Y-24654D02*
X34150Y-24630D01*
X34150Y-24630D02*
X34108Y-24596D01*
X34108Y-24596D02*
X34074Y-24555D01*
X34074Y-24555D02*
X34048Y-24508D01*
X34048Y-24508D02*
X34032Y-24457D01*
X34032Y-24457D02*
X34026Y-24403D01*
X34026Y-24403D02*
X34030Y-24351D01*
X34030Y-24351D02*
X34045Y-24299D01*
X34045Y-24299D02*
X34069Y-24252D01*
X34069Y-24252D02*
X34103Y-24209D01*
X34103Y-24209D02*
X34144Y-24175D01*
X34144Y-24175D02*
X34190Y-24149D01*
X34190Y-24149D02*
X34241Y-24132D01*
X34241Y-24132D02*
X34295Y-24126D01*
X34295Y-24126D02*
X34347Y-24130D01*
X34347Y-24130D02*
X34399Y-24144D01*
X34399Y-24144D02*
X34447Y-24168D01*
X34447Y-24168D02*
X34489Y-24201D01*
X34489Y-24201D02*
X34524Y-24242D01*
X34524Y-24242D02*
X34551Y-24289D01*
X34551Y-24289D02*
X34568Y-24340D01*
X34568Y-24340D02*
X34574Y-24393D01*
X34574Y-24393D02*
X34575Y-24400D01*
X35575Y-24400D02*
X35569Y-24453D01*
X35569Y-24453D02*
X35554Y-24504D01*
X35554Y-24504D02*
X35529Y-24552D01*
X35529Y-24552D02*
X35495Y-24593D01*
X35495Y-24593D02*
X35453Y-24627D01*
X35453Y-24627D02*
X35406Y-24653D01*
X35406Y-24653D02*
X35355Y-24669D01*
X35355Y-24669D02*
X35301Y-24674D01*
X35301Y-24674D02*
X35249Y-24670D01*
X35249Y-24670D02*
X35197Y-24654D01*
X35197Y-24654D02*
X35150Y-24630D01*
X35150Y-24630D02*
X35108Y-24596D01*
X35108Y-24596D02*
X35074Y-24555D01*
X35074Y-24555D02*
X35048Y-24508D01*
X35048Y-24508D02*
X35032Y-24457D01*
X35032Y-24457D02*
X35026Y-24403D01*
X35026Y-24403D02*
X35030Y-24351D01*
X35030Y-24351D02*
X35045Y-24299D01*
X35045Y-24299D02*
X35069Y-24252D01*
X35069Y-24252D02*
X35103Y-24209D01*
X35103Y-24209D02*
X35144Y-24175D01*
X35144Y-24175D02*
X35190Y-24149D01*
X35190Y-24149D02*
X35241Y-24132D01*
X35241Y-24132D02*
X35295Y-24126D01*
X35295Y-24126D02*
X35347Y-24130D01*
X35347Y-24130D02*
X35399Y-24144D01*
X35399Y-24144D02*
X35447Y-24168D01*
X35447Y-24168D02*
X35489Y-24201D01*
X35489Y-24201D02*
X35524Y-24242D01*
X35524Y-24242D02*
X35551Y-24289D01*
X35551Y-24289D02*
X35568Y-24340D01*
X35568Y-24340D02*
X35574Y-24393D01*
X35574Y-24393D02*
X35575Y-24400D01*
X31600Y-31640D02*
X31600Y-31040D01*
X31600Y-31040D02*
X32200Y-31040D01*
X32200Y-31040D02*
X32200Y-31640D01*
X32200Y-31640D02*
X31600Y-31640D01*
X32200Y-32340D02*
X32194Y-32398D01*
X32194Y-32398D02*
X32177Y-32454D01*
X32177Y-32454D02*
X32149Y-32506D01*
X32149Y-32506D02*
X32112Y-32551D01*
X32112Y-32551D02*
X32067Y-32588D01*
X32067Y-32588D02*
X32016Y-32616D01*
X32016Y-32616D02*
X31960Y-32633D01*
X31960Y-32633D02*
X31902Y-32639D01*
X31902Y-32639D02*
X31844Y-32634D01*
X31844Y-32634D02*
X31788Y-32618D01*
X31788Y-32618D02*
X31736Y-32591D01*
X31736Y-32591D02*
X31691Y-32554D01*
X31691Y-32554D02*
X31653Y-32509D01*
X31653Y-32509D02*
X31625Y-32458D01*
X31625Y-32458D02*
X31607Y-32402D01*
X31607Y-32402D02*
X31601Y-32344D01*
X31601Y-32344D02*
X31605Y-32286D01*
X31605Y-32286D02*
X31622Y-32230D01*
X31622Y-32230D02*
X31648Y-32178D01*
X31648Y-32178D02*
X31685Y-32132D01*
X31685Y-32132D02*
X31729Y-32094D01*
X31729Y-32094D02*
X31780Y-32066D01*
X31780Y-32066D02*
X31836Y-32047D01*
X31836Y-32047D02*
X31894Y-32041D01*
X31894Y-32041D02*
X31952Y-32045D01*
X31952Y-32045D02*
X32008Y-32061D01*
X32008Y-32061D02*
X32060Y-32087D01*
X32060Y-32087D02*
X32106Y-32123D01*
X32106Y-32123D02*
X32145Y-32168D01*
X32145Y-32168D02*
X32174Y-32218D01*
X32174Y-32218D02*
X32192Y-32274D01*
X32192Y-32274D02*
X32199Y-32332D01*
X32199Y-32332D02*
X32200Y-32340D01*
X33200Y-31340D02*
X33194Y-31398D01*
X33194Y-31398D02*
X33177Y-31454D01*
X33177Y-31454D02*
X33149Y-31506D01*
X33149Y-31506D02*
X33112Y-31551D01*
X33112Y-31551D02*
X33067Y-31588D01*
X33067Y-31588D02*
X33016Y-31616D01*
X33016Y-31616D02*
X32960Y-31633D01*
X32960Y-31633D02*
X32902Y-31639D01*
X32902Y-31639D02*
X32844Y-31634D01*
X32844Y-31634D02*
X32788Y-31618D01*
X32788Y-31618D02*
X32736Y-31591D01*
X32736Y-31591D02*
X32691Y-31554D01*
X32691Y-31554D02*
X32653Y-31509D01*
X32653Y-31509D02*
X32625Y-31458D01*
X32625Y-31458D02*
X32607Y-31402D01*
X32607Y-31402D02*
X32601Y-31344D01*
X32601Y-31344D02*
X32605Y-31286D01*
X32605Y-31286D02*
X32622Y-31230D01*
X32622Y-31230D02*
X32648Y-31178D01*
X32648Y-31178D02*
X32685Y-31132D01*
X32685Y-31132D02*
X32729Y-31094D01*
X32729Y-31094D02*
X32780Y-31066D01*
X32780Y-31066D02*
X32836Y-31047D01*
X32836Y-31047D02*
X32894Y-31041D01*
X32894Y-31041D02*
X32952Y-31045D01*
X32952Y-31045D02*
X33008Y-31061D01*
X33008Y-31061D02*
X33060Y-31087D01*
X33060Y-31087D02*
X33106Y-31123D01*
X33106Y-31123D02*
X33145Y-31168D01*
X33145Y-31168D02*
X33174Y-31218D01*
X33174Y-31218D02*
X33192Y-31274D01*
X33192Y-31274D02*
X33199Y-31332D01*
X33199Y-31332D02*
X33200Y-31340D01*
X33200Y-32340D02*
X33194Y-32398D01*
X33194Y-32398D02*
X33177Y-32454D01*
X33177Y-32454D02*
X33149Y-32506D01*
X33149Y-32506D02*
X33112Y-32551D01*
X33112Y-32551D02*
X33067Y-32588D01*
X33067Y-32588D02*
X33016Y-32616D01*
X33016Y-32616D02*
X32960Y-32633D01*
X32960Y-32633D02*
X32902Y-32639D01*
X32902Y-32639D02*
X32844Y-32634D01*
X32844Y-32634D02*
X32788Y-32618D01*
X32788Y-32618D02*
X32736Y-32591D01*
X32736Y-32591D02*
X32691Y-32554D01*
X32691Y-32554D02*
X32653Y-32509D01*
X32653Y-32509D02*
X32625Y-32458D01*
X32625Y-32458D02*
X32607Y-32402D01*
X32607Y-32402D02*
X32601Y-32344D01*
X32601Y-32344D02*
X32605Y-32286D01*
X32605Y-32286D02*
X32622Y-32230D01*
X32622Y-32230D02*
X32648Y-32178D01*
X32648Y-32178D02*
X32685Y-32132D01*
X32685Y-32132D02*
X32729Y-32094D01*
X32729Y-32094D02*
X32780Y-32066D01*
X32780Y-32066D02*
X32836Y-32047D01*
X32836Y-32047D02*
X32894Y-32041D01*
X32894Y-32041D02*
X32952Y-32045D01*
X32952Y-32045D02*
X33008Y-32061D01*
X33008Y-32061D02*
X33060Y-32087D01*
X33060Y-32087D02*
X33106Y-32123D01*
X33106Y-32123D02*
X33145Y-32168D01*
X33145Y-32168D02*
X33174Y-32218D01*
X33174Y-32218D02*
X33192Y-32274D01*
X33192Y-32274D02*
X33199Y-32332D01*
X33199Y-32332D02*
X33200Y-32340D01*
X34200Y-31340D02*
X34194Y-31398D01*
X34194Y-31398D02*
X34177Y-31454D01*
X34177Y-31454D02*
X34149Y-31506D01*
X34149Y-31506D02*
X34112Y-31551D01*
X34112Y-31551D02*
X34067Y-31588D01*
X34067Y-31588D02*
X34016Y-31616D01*
X34016Y-31616D02*
X33960Y-31633D01*
X33960Y-31633D02*
X33902Y-31639D01*
X33902Y-31639D02*
X33844Y-31634D01*
X33844Y-31634D02*
X33788Y-31618D01*
X33788Y-31618D02*
X33736Y-31591D01*
X33736Y-31591D02*
X33691Y-31554D01*
X33691Y-31554D02*
X33653Y-31509D01*
X33653Y-31509D02*
X33625Y-31458D01*
X33625Y-31458D02*
X33607Y-31402D01*
X33607Y-31402D02*
X33601Y-31344D01*
X33601Y-31344D02*
X33605Y-31286D01*
X33605Y-31286D02*
X33622Y-31230D01*
X33622Y-31230D02*
X33648Y-31178D01*
X33648Y-31178D02*
X33685Y-31132D01*
X33685Y-31132D02*
X33729Y-31094D01*
X33729Y-31094D02*
X33780Y-31066D01*
X33780Y-31066D02*
X33836Y-31047D01*
X33836Y-31047D02*
X33894Y-31041D01*
X33894Y-31041D02*
X33952Y-31045D01*
X33952Y-31045D02*
X34008Y-31061D01*
X34008Y-31061D02*
X34060Y-31087D01*
X34060Y-31087D02*
X34106Y-31123D01*
X34106Y-31123D02*
X34145Y-31168D01*
X34145Y-31168D02*
X34174Y-31218D01*
X34174Y-31218D02*
X34192Y-31274D01*
X34192Y-31274D02*
X34199Y-31332D01*
X34199Y-31332D02*
X34200Y-31340D01*
X34200Y-32340D02*
X34194Y-32398D01*
X34194Y-32398D02*
X34177Y-32454D01*
X34177Y-32454D02*
X34149Y-32506D01*
X34149Y-32506D02*
X34112Y-32551D01*
X34112Y-32551D02*
X34067Y-32588D01*
X34067Y-32588D02*
X34016Y-32616D01*
X34016Y-32616D02*
X33960Y-32633D01*
X33960Y-32633D02*
X33902Y-32639D01*
X33902Y-32639D02*
X33844Y-32634D01*
X33844Y-32634D02*
X33788Y-32618D01*
X33788Y-32618D02*
X33736Y-32591D01*
X33736Y-32591D02*
X33691Y-32554D01*
X33691Y-32554D02*
X33653Y-32509D01*
X33653Y-32509D02*
X33625Y-32458D01*
X33625Y-32458D02*
X33607Y-32402D01*
X33607Y-32402D02*
X33601Y-32344D01*
X33601Y-32344D02*
X33605Y-32286D01*
X33605Y-32286D02*
X33622Y-32230D01*
X33622Y-32230D02*
X33648Y-32178D01*
X33648Y-32178D02*
X33685Y-32132D01*
X33685Y-32132D02*
X33729Y-32094D01*
X33729Y-32094D02*
X33780Y-32066D01*
X33780Y-32066D02*
X33836Y-32047D01*
X33836Y-32047D02*
X33894Y-32041D01*
X33894Y-32041D02*
X33952Y-32045D01*
X33952Y-32045D02*
X34008Y-32061D01*
X34008Y-32061D02*
X34060Y-32087D01*
X34060Y-32087D02*
X34106Y-32123D01*
X34106Y-32123D02*
X34145Y-32168D01*
X34145Y-32168D02*
X34174Y-32218D01*
X34174Y-32218D02*
X34192Y-32274D01*
X34192Y-32274D02*
X34199Y-32332D01*
X34199Y-32332D02*
X34200Y-32340D01*
X36025Y-25125D02*
X36575Y-25125D01*
X36575Y-25125D02*
X36575Y-25675D01*
X36575Y-25675D02*
X36025Y-25675D01*
X36025Y-25675D02*
X36025Y-25125D01*
X36575Y-26400D02*
X36569Y-26453D01*
X36569Y-26453D02*
X36554Y-26504D01*
X36554Y-26504D02*
X36529Y-26552D01*
X36529Y-26552D02*
X36495Y-26593D01*
X36495Y-26593D02*
X36453Y-26627D01*
X36453Y-26627D02*
X36406Y-26653D01*
X36406Y-26653D02*
X36355Y-26669D01*
X36355Y-26669D02*
X36301Y-26674D01*
X36301Y-26674D02*
X36249Y-26670D01*
X36249Y-26670D02*
X36197Y-26654D01*
X36197Y-26654D02*
X36150Y-26630D01*
X36150Y-26630D02*
X36108Y-26596D01*
X36108Y-26596D02*
X36074Y-26555D01*
X36074Y-26555D02*
X36048Y-26508D01*
X36048Y-26508D02*
X36032Y-26457D01*
X36032Y-26457D02*
X36026Y-26403D01*
X36026Y-26403D02*
X36030Y-26351D01*
X36030Y-26351D02*
X36045Y-26299D01*
X36045Y-26299D02*
X36069Y-26252D01*
X36069Y-26252D02*
X36103Y-26209D01*
X36103Y-26209D02*
X36144Y-26175D01*
X36144Y-26175D02*
X36190Y-26149D01*
X36190Y-26149D02*
X36241Y-26132D01*
X36241Y-26132D02*
X36295Y-26126D01*
X36295Y-26126D02*
X36347Y-26130D01*
X36347Y-26130D02*
X36399Y-26144D01*
X36399Y-26144D02*
X36447Y-26168D01*
X36447Y-26168D02*
X36489Y-26201D01*
X36489Y-26201D02*
X36524Y-26242D01*
X36524Y-26242D02*
X36551Y-26289D01*
X36551Y-26289D02*
X36568Y-26340D01*
X36568Y-26340D02*
X36574Y-26393D01*
X36574Y-26393D02*
X36575Y-26400D01*
X36575Y-27400D02*
X36569Y-27453D01*
X36569Y-27453D02*
X36554Y-27504D01*
X36554Y-27504D02*
X36529Y-27552D01*
X36529Y-27552D02*
X36495Y-27593D01*
X36495Y-27593D02*
X36453Y-27627D01*
X36453Y-27627D02*
X36406Y-27653D01*
X36406Y-27653D02*
X36355Y-27669D01*
X36355Y-27669D02*
X36301Y-27674D01*
X36301Y-27674D02*
X36249Y-27670D01*
X36249Y-27670D02*
X36197Y-27654D01*
X36197Y-27654D02*
X36150Y-27630D01*
X36150Y-27630D02*
X36108Y-27596D01*
X36108Y-27596D02*
X36074Y-27555D01*
X36074Y-27555D02*
X36048Y-27508D01*
X36048Y-27508D02*
X36032Y-27457D01*
X36032Y-27457D02*
X36026Y-27403D01*
X36026Y-27403D02*
X36030Y-27351D01*
X36030Y-27351D02*
X36045Y-27299D01*
X36045Y-27299D02*
X36069Y-27252D01*
X36069Y-27252D02*
X36103Y-27209D01*
X36103Y-27209D02*
X36144Y-27175D01*
X36144Y-27175D02*
X36190Y-27149D01*
X36190Y-27149D02*
X36241Y-27132D01*
X36241Y-27132D02*
X36295Y-27126D01*
X36295Y-27126D02*
X36347Y-27130D01*
X36347Y-27130D02*
X36399Y-27144D01*
X36399Y-27144D02*
X36447Y-27168D01*
X36447Y-27168D02*
X36489Y-27201D01*
X36489Y-27201D02*
X36524Y-27242D01*
X36524Y-27242D02*
X36551Y-27289D01*
X36551Y-27289D02*
X36568Y-27340D01*
X36568Y-27340D02*
X36574Y-27393D01*
X36574Y-27393D02*
X36575Y-27400D01*
X36575Y-28400D02*
X36569Y-28453D01*
X36569Y-28453D02*
X36554Y-28504D01*
X36554Y-28504D02*
X36529Y-28552D01*
X36529Y-28552D02*
X36495Y-28593D01*
X36495Y-28593D02*
X36453Y-28627D01*
X36453Y-28627D02*
X36406Y-28653D01*
X36406Y-28653D02*
X36355Y-28669D01*
X36355Y-28669D02*
X36301Y-28674D01*
X36301Y-28674D02*
X36249Y-28670D01*
X36249Y-28670D02*
X36197Y-28654D01*
X36197Y-28654D02*
X36150Y-28630D01*
X36150Y-28630D02*
X36108Y-28596D01*
X36108Y-28596D02*
X36074Y-28555D01*
X36074Y-28555D02*
X36048Y-28508D01*
X36048Y-28508D02*
X36032Y-28457D01*
X36032Y-28457D02*
X36026Y-28403D01*
X36026Y-28403D02*
X36030Y-28351D01*
X36030Y-28351D02*
X36045Y-28299D01*
X36045Y-28299D02*
X36069Y-28252D01*
X36069Y-28252D02*
X36103Y-28209D01*
X36103Y-28209D02*
X36144Y-28175D01*
X36144Y-28175D02*
X36190Y-28149D01*
X36190Y-28149D02*
X36241Y-28132D01*
X36241Y-28132D02*
X36295Y-28126D01*
X36295Y-28126D02*
X36347Y-28130D01*
X36347Y-28130D02*
X36399Y-28144D01*
X36399Y-28144D02*
X36447Y-28168D01*
X36447Y-28168D02*
X36489Y-28201D01*
X36489Y-28201D02*
X36524Y-28242D01*
X36524Y-28242D02*
X36551Y-28289D01*
X36551Y-28289D02*
X36568Y-28340D01*
X36568Y-28340D02*
X36574Y-28393D01*
X36574Y-28393D02*
X36575Y-28400D01*
X36575Y-29400D02*
X36569Y-29453D01*
X36569Y-29453D02*
X36554Y-29504D01*
X36554Y-29504D02*
X36529Y-29552D01*
X36529Y-29552D02*
X36495Y-29593D01*
X36495Y-29593D02*
X36453Y-29627D01*
X36453Y-29627D02*
X36406Y-29653D01*
X36406Y-29653D02*
X36355Y-29669D01*
X36355Y-29669D02*
X36301Y-29674D01*
X36301Y-29674D02*
X36249Y-29670D01*
X36249Y-29670D02*
X36197Y-29654D01*
X36197Y-29654D02*
X36150Y-29630D01*
X36150Y-29630D02*
X36108Y-29596D01*
X36108Y-29596D02*
X36074Y-29555D01*
X36074Y-29555D02*
X36048Y-29508D01*
X36048Y-29508D02*
X36032Y-29457D01*
X36032Y-29457D02*
X36026Y-29403D01*
X36026Y-29403D02*
X36030Y-29351D01*
X36030Y-29351D02*
X36045Y-29299D01*
X36045Y-29299D02*
X36069Y-29252D01*
X36069Y-29252D02*
X36103Y-29209D01*
X36103Y-29209D02*
X36144Y-29175D01*
X36144Y-29175D02*
X36190Y-29149D01*
X36190Y-29149D02*
X36241Y-29132D01*
X36241Y-29132D02*
X36295Y-29126D01*
X36295Y-29126D02*
X36347Y-29130D01*
X36347Y-29130D02*
X36399Y-29144D01*
X36399Y-29144D02*
X36447Y-29168D01*
X36447Y-29168D02*
X36489Y-29201D01*
X36489Y-29201D02*
X36524Y-29242D01*
X36524Y-29242D02*
X36551Y-29289D01*
X36551Y-29289D02*
X36568Y-29340D01*
X36568Y-29340D02*
X36574Y-29393D01*
X36574Y-29393D02*
X36575Y-29400D01*
X36575Y-30400D02*
X36569Y-30453D01*
X36569Y-30453D02*
X36554Y-30504D01*
X36554Y-30504D02*
X36529Y-30552D01*
X36529Y-30552D02*
X36495Y-30593D01*
X36495Y-30593D02*
X36453Y-30627D01*
X36453Y-30627D02*
X36406Y-30653D01*
X36406Y-30653D02*
X36355Y-30669D01*
X36355Y-30669D02*
X36301Y-30674D01*
X36301Y-30674D02*
X36249Y-30670D01*
X36249Y-30670D02*
X36197Y-30654D01*
X36197Y-30654D02*
X36150Y-30630D01*
X36150Y-30630D02*
X36108Y-30596D01*
X36108Y-30596D02*
X36074Y-30555D01*
X36074Y-30555D02*
X36048Y-30508D01*
X36048Y-30508D02*
X36032Y-30457D01*
X36032Y-30457D02*
X36026Y-30403D01*
X36026Y-30403D02*
X36030Y-30351D01*
X36030Y-30351D02*
X36045Y-30299D01*
X36045Y-30299D02*
X36069Y-30252D01*
X36069Y-30252D02*
X36103Y-30209D01*
X36103Y-30209D02*
X36144Y-30175D01*
X36144Y-30175D02*
X36190Y-30149D01*
X36190Y-30149D02*
X36241Y-30132D01*
X36241Y-30132D02*
X36295Y-30126D01*
X36295Y-30126D02*
X36347Y-30130D01*
X36347Y-30130D02*
X36399Y-30144D01*
X36399Y-30144D02*
X36447Y-30168D01*
X36447Y-30168D02*
X36489Y-30201D01*
X36489Y-30201D02*
X36524Y-30242D01*
X36524Y-30242D02*
X36551Y-30289D01*
X36551Y-30289D02*
X36568Y-30340D01*
X36568Y-30340D02*
X36574Y-30393D01*
X36574Y-30393D02*
X36575Y-30400D01*
X29020Y-25125D02*
X29570Y-25125D01*
X29570Y-25125D02*
X29570Y-25675D01*
X29570Y-25675D02*
X29020Y-25675D01*
X29020Y-25675D02*
X29020Y-25125D01*
X29570Y-26400D02*
X29564Y-26453D01*
X29564Y-26453D02*
X29549Y-26504D01*
X29549Y-26504D02*
X29524Y-26552D01*
X29524Y-26552D02*
X29490Y-26593D01*
X29490Y-26593D02*
X29448Y-26627D01*
X29448Y-26627D02*
X29401Y-26653D01*
X29401Y-26653D02*
X29350Y-26669D01*
X29350Y-26669D02*
X29296Y-26674D01*
X29296Y-26674D02*
X29244Y-26670D01*
X29244Y-26670D02*
X29192Y-26654D01*
X29192Y-26654D02*
X29145Y-26630D01*
X29145Y-26630D02*
X29103Y-26596D01*
X29103Y-26596D02*
X29069Y-26555D01*
X29069Y-26555D02*
X29043Y-26508D01*
X29043Y-26508D02*
X29027Y-26457D01*
X29027Y-26457D02*
X29021Y-26403D01*
X29021Y-26403D02*
X29025Y-26351D01*
X29025Y-26351D02*
X29040Y-26299D01*
X29040Y-26299D02*
X29064Y-26252D01*
X29064Y-26252D02*
X29098Y-26209D01*
X29098Y-26209D02*
X29139Y-26175D01*
X29139Y-26175D02*
X29185Y-26149D01*
X29185Y-26149D02*
X29236Y-26132D01*
X29236Y-26132D02*
X29290Y-26126D01*
X29290Y-26126D02*
X29342Y-26130D01*
X29342Y-26130D02*
X29394Y-26144D01*
X29394Y-26144D02*
X29442Y-26168D01*
X29442Y-26168D02*
X29484Y-26201D01*
X29484Y-26201D02*
X29519Y-26242D01*
X29519Y-26242D02*
X29546Y-26289D01*
X29546Y-26289D02*
X29563Y-26340D01*
X29563Y-26340D02*
X29569Y-26393D01*
X29569Y-26393D02*
X29570Y-26400D01*
X29570Y-27400D02*
X29564Y-27453D01*
X29564Y-27453D02*
X29549Y-27504D01*
X29549Y-27504D02*
X29524Y-27552D01*
X29524Y-27552D02*
X29490Y-27593D01*
X29490Y-27593D02*
X29448Y-27627D01*
X29448Y-27627D02*
X29401Y-27653D01*
X29401Y-27653D02*
X29350Y-27669D01*
X29350Y-27669D02*
X29296Y-27674D01*
X29296Y-27674D02*
X29244Y-27670D01*
X29244Y-27670D02*
X29192Y-27654D01*
X29192Y-27654D02*
X29145Y-27630D01*
X29145Y-27630D02*
X29103Y-27596D01*
X29103Y-27596D02*
X29069Y-27555D01*
X29069Y-27555D02*
X29043Y-27508D01*
X29043Y-27508D02*
X29027Y-27457D01*
X29027Y-27457D02*
X29021Y-27403D01*
X29021Y-27403D02*
X29025Y-27351D01*
X29025Y-27351D02*
X29040Y-27299D01*
X29040Y-27299D02*
X29064Y-27252D01*
X29064Y-27252D02*
X29098Y-27209D01*
X29098Y-27209D02*
X29139Y-27175D01*
X29139Y-27175D02*
X29185Y-27149D01*
X29185Y-27149D02*
X29236Y-27132D01*
X29236Y-27132D02*
X29290Y-27126D01*
X29290Y-27126D02*
X29342Y-27130D01*
X29342Y-27130D02*
X29394Y-27144D01*
X29394Y-27144D02*
X29442Y-27168D01*
X29442Y-27168D02*
X29484Y-27201D01*
X29484Y-27201D02*
X29519Y-27242D01*
X29519Y-27242D02*
X29546Y-27289D01*
X29546Y-27289D02*
X29563Y-27340D01*
X29563Y-27340D02*
X29569Y-27393D01*
X29569Y-27393D02*
X29570Y-27400D01*
X29570Y-28400D02*
X29564Y-28453D01*
X29564Y-28453D02*
X29549Y-28504D01*
X29549Y-28504D02*
X29524Y-28552D01*
X29524Y-28552D02*
X29490Y-28593D01*
X29490Y-28593D02*
X29448Y-28627D01*
X29448Y-28627D02*
X29401Y-28653D01*
X29401Y-28653D02*
X29350Y-28669D01*
X29350Y-28669D02*
X29296Y-28674D01*
X29296Y-28674D02*
X29244Y-28670D01*
X29244Y-28670D02*
X29192Y-28654D01*
X29192Y-28654D02*
X29145Y-28630D01*
X29145Y-28630D02*
X29103Y-28596D01*
X29103Y-28596D02*
X29069Y-28555D01*
X29069Y-28555D02*
X29043Y-28508D01*
X29043Y-28508D02*
X29027Y-28457D01*
X29027Y-28457D02*
X29021Y-28403D01*
X29021Y-28403D02*
X29025Y-28351D01*
X29025Y-28351D02*
X29040Y-28299D01*
X29040Y-28299D02*
X29064Y-28252D01*
X29064Y-28252D02*
X29098Y-28209D01*
X29098Y-28209D02*
X29139Y-28175D01*
X29139Y-28175D02*
X29185Y-28149D01*
X29185Y-28149D02*
X29236Y-28132D01*
X29236Y-28132D02*
X29290Y-28126D01*
X29290Y-28126D02*
X29342Y-28130D01*
X29342Y-28130D02*
X29394Y-28144D01*
X29394Y-28144D02*
X29442Y-28168D01*
X29442Y-28168D02*
X29484Y-28201D01*
X29484Y-28201D02*
X29519Y-28242D01*
X29519Y-28242D02*
X29546Y-28289D01*
X29546Y-28289D02*
X29563Y-28340D01*
X29563Y-28340D02*
X29569Y-28393D01*
X29569Y-28393D02*
X29570Y-28400D01*
X29570Y-29400D02*
X29564Y-29453D01*
X29564Y-29453D02*
X29549Y-29504D01*
X29549Y-29504D02*
X29524Y-29552D01*
X29524Y-29552D02*
X29490Y-29593D01*
X29490Y-29593D02*
X29448Y-29627D01*
X29448Y-29627D02*
X29401Y-29653D01*
X29401Y-29653D02*
X29350Y-29669D01*
X29350Y-29669D02*
X29296Y-29674D01*
X29296Y-29674D02*
X29244Y-29670D01*
X29244Y-29670D02*
X29192Y-29654D01*
X29192Y-29654D02*
X29145Y-29630D01*
X29145Y-29630D02*
X29103Y-29596D01*
X29103Y-29596D02*
X29069Y-29555D01*
X29069Y-29555D02*
X29043Y-29508D01*
X29043Y-29508D02*
X29027Y-29457D01*
X29027Y-29457D02*
X29021Y-29403D01*
X29021Y-29403D02*
X29025Y-29351D01*
X29025Y-29351D02*
X29040Y-29299D01*
X29040Y-29299D02*
X29064Y-29252D01*
X29064Y-29252D02*
X29098Y-29209D01*
X29098Y-29209D02*
X29139Y-29175D01*
X29139Y-29175D02*
X29185Y-29149D01*
X29185Y-29149D02*
X29236Y-29132D01*
X29236Y-29132D02*
X29290Y-29126D01*
X29290Y-29126D02*
X29342Y-29130D01*
X29342Y-29130D02*
X29394Y-29144D01*
X29394Y-29144D02*
X29442Y-29168D01*
X29442Y-29168D02*
X29484Y-29201D01*
X29484Y-29201D02*
X29519Y-29242D01*
X29519Y-29242D02*
X29546Y-29289D01*
X29546Y-29289D02*
X29563Y-29340D01*
X29563Y-29340D02*
X29569Y-29393D01*
X29569Y-29393D02*
X29570Y-29400D01*
X29570Y-30400D02*
X29564Y-30453D01*
X29564Y-30453D02*
X29549Y-30504D01*
X29549Y-30504D02*
X29524Y-30552D01*
X29524Y-30552D02*
X29490Y-30593D01*
X29490Y-30593D02*
X29448Y-30627D01*
X29448Y-30627D02*
X29401Y-30653D01*
X29401Y-30653D02*
X29350Y-30669D01*
X29350Y-30669D02*
X29296Y-30674D01*
X29296Y-30674D02*
X29244Y-30670D01*
X29244Y-30670D02*
X29192Y-30654D01*
X29192Y-30654D02*
X29145Y-30630D01*
X29145Y-30630D02*
X29103Y-30596D01*
X29103Y-30596D02*
X29069Y-30555D01*
X29069Y-30555D02*
X29043Y-30508D01*
X29043Y-30508D02*
X29027Y-30457D01*
X29027Y-30457D02*
X29021Y-30403D01*
X29021Y-30403D02*
X29025Y-30351D01*
X29025Y-30351D02*
X29040Y-30299D01*
X29040Y-30299D02*
X29064Y-30252D01*
X29064Y-30252D02*
X29098Y-30209D01*
X29098Y-30209D02*
X29139Y-30175D01*
X29139Y-30175D02*
X29185Y-30149D01*
X29185Y-30149D02*
X29236Y-30132D01*
X29236Y-30132D02*
X29290Y-30126D01*
X29290Y-30126D02*
X29342Y-30130D01*
X29342Y-30130D02*
X29394Y-30144D01*
X29394Y-30144D02*
X29442Y-30168D01*
X29442Y-30168D02*
X29484Y-30201D01*
X29484Y-30201D02*
X29519Y-30242D01*
X29519Y-30242D02*
X29546Y-30289D01*
X29546Y-30289D02*
X29563Y-30340D01*
X29563Y-30340D02*
X29569Y-30393D01*
X29569Y-30393D02*
X29570Y-30400D01*
G54D26*
X33900Y-30540D02*
X33722Y-30540D01*
X33811Y-30540D02*
X33811Y-30140D01*
X33900Y-30140D02*
X33722Y-30140D01*
X33109Y-30496D02*
X33153Y-30540D01*
X33153Y-30540D02*
X33376Y-30540D01*
X33376Y-30540D02*
X33420Y-30496D01*
X33420Y-30496D02*
X33420Y-30185D01*
X33420Y-30185D02*
X33376Y-30140D01*
X33376Y-30140D02*
X33153Y-30140D01*
X33153Y-30140D02*
X33109Y-30185D01*
X32896Y-30496D02*
X32852Y-30540D01*
X32852Y-30540D02*
X32629Y-30540D01*
X32629Y-30540D02*
X32585Y-30496D01*
X32585Y-30496D02*
X32585Y-30363D01*
X32585Y-30363D02*
X32629Y-30318D01*
X32629Y-30318D02*
X32852Y-30318D01*
X32852Y-30318D02*
X32896Y-30274D01*
X32896Y-30274D02*
X32896Y-30185D01*
X32896Y-30185D02*
X32852Y-30140D01*
X32852Y-30140D02*
X32629Y-30140D01*
X32629Y-30140D02*
X32585Y-30185D01*
X32372Y-30540D02*
X32372Y-30140D01*
X32372Y-30140D02*
X32105Y-30140D01*
X32105Y-30140D02*
X32061Y-30185D01*
X32061Y-30185D02*
X32061Y-30318D01*
X32061Y-30318D02*
X32105Y-30363D01*
X32105Y-30363D02*
X32372Y-30363D01*
G54D24*
X39162Y-24817D02*
X39195Y-24850D01*
X39195Y-24850D02*
X39362Y-24850D01*
X39362Y-24850D02*
X39395Y-24817D01*
X39395Y-24817D02*
X39395Y-24584D01*
X39395Y-24584D02*
X39362Y-24550D01*
X39362Y-24550D02*
X39195Y-24550D01*
X39195Y-24550D02*
X39162Y-24584D01*
X38920Y-24850D02*
X38787Y-24850D01*
X38854Y-24850D02*
X38854Y-24550D01*
X38854Y-24584D02*
X38920Y-24650D01*
X34475Y-20650D02*
X34475Y-20350D01*
X34475Y-20350D02*
X34275Y-20350D01*
X34275Y-20350D02*
X34242Y-20384D01*
X34242Y-20384D02*
X34242Y-20484D01*
X34242Y-20484D02*
X34275Y-20517D01*
X34275Y-20517D02*
X34475Y-20517D01*
X34375Y-20517D02*
X34242Y-20650D01*
X34000Y-20650D02*
X33867Y-20650D01*
X33934Y-20650D02*
X33934Y-20350D01*
X33934Y-20384D02*
X34000Y-20450D01*
X34495Y-21850D02*
X34495Y-21550D01*
X34495Y-21550D02*
X34295Y-21550D01*
X34295Y-21550D02*
X34262Y-21584D01*
X34262Y-21584D02*
X34262Y-21684D01*
X34262Y-21684D02*
X34295Y-21717D01*
X34295Y-21717D02*
X34495Y-21717D01*
X34395Y-21717D02*
X34262Y-21850D01*
X33854Y-21850D02*
X34087Y-21850D01*
X34087Y-21850D02*
X34087Y-21750D01*
X34087Y-21750D02*
X34054Y-21717D01*
X34054Y-21717D02*
X33887Y-21717D01*
X33887Y-21717D02*
X33854Y-21684D01*
X33854Y-21684D02*
X33854Y-21584D01*
X33854Y-21584D02*
X33887Y-21550D01*
X33887Y-21550D02*
X34054Y-21550D01*
X34054Y-21550D02*
X34087Y-21584D01*
X34505Y-22940D02*
X34505Y-22640D01*
X34505Y-22640D02*
X34305Y-22640D01*
X34305Y-22640D02*
X34272Y-22674D01*
X34272Y-22674D02*
X34272Y-22774D01*
X34272Y-22774D02*
X34305Y-22807D01*
X34305Y-22807D02*
X34505Y-22807D01*
X34405Y-22807D02*
X34272Y-22940D01*
X34097Y-22640D02*
X33864Y-22640D01*
X33864Y-22640D02*
X33864Y-22674D01*
X33864Y-22674D02*
X33997Y-22774D01*
X33997Y-22774D02*
X33897Y-22774D01*
X33897Y-22774D02*
X33864Y-22807D01*
X33864Y-22807D02*
X33864Y-22907D01*
X33864Y-22907D02*
X33897Y-22940D01*
X33897Y-22940D02*
X34064Y-22940D01*
X34064Y-22940D02*
X34097Y-22907D01*
X26475Y-27350D02*
X26475Y-27050D01*
X26475Y-27050D02*
X26275Y-27050D01*
X26275Y-27050D02*
X26242Y-27084D01*
X26242Y-27084D02*
X26242Y-27184D01*
X26242Y-27184D02*
X26275Y-27217D01*
X26275Y-27217D02*
X26475Y-27217D01*
X26375Y-27217D02*
X26242Y-27350D01*
X25900Y-27350D02*
X25900Y-27050D01*
X25900Y-27050D02*
X26067Y-27284D01*
X26067Y-27284D02*
X25834Y-27284D01*
X27022Y-24787D02*
X27055Y-24820D01*
X27055Y-24820D02*
X27222Y-24820D01*
X27222Y-24820D02*
X27255Y-24787D01*
X27255Y-24787D02*
X27255Y-24554D01*
X27255Y-24554D02*
X27222Y-24520D01*
X27222Y-24520D02*
X27055Y-24520D01*
X27055Y-24520D02*
X27022Y-24554D01*
X26614Y-24820D02*
X26847Y-24820D01*
X26847Y-24820D02*
X26847Y-24720D01*
X26847Y-24720D02*
X26814Y-24687D01*
X26814Y-24687D02*
X26647Y-24687D01*
X26647Y-24687D02*
X26614Y-24654D01*
X26614Y-24654D02*
X26614Y-24554D01*
X26614Y-24554D02*
X26647Y-24520D01*
X26647Y-24520D02*
X26814Y-24520D01*
X26814Y-24520D02*
X26847Y-24554D01*
X39742Y-27417D02*
X39775Y-27450D01*
X39775Y-27450D02*
X39942Y-27450D01*
X39942Y-27450D02*
X39975Y-27417D01*
X39975Y-27417D02*
X39975Y-27184D01*
X39975Y-27184D02*
X39942Y-27150D01*
X39942Y-27150D02*
X39775Y-27150D01*
X39775Y-27150D02*
X39742Y-27184D01*
X39567Y-27150D02*
X39334Y-27150D01*
X39334Y-27150D02*
X39334Y-27184D01*
X39334Y-27184D02*
X39467Y-27284D01*
X39467Y-27284D02*
X39367Y-27284D01*
X39367Y-27284D02*
X39334Y-27317D01*
X39334Y-27317D02*
X39334Y-27417D01*
X39334Y-27417D02*
X39367Y-27450D01*
X39367Y-27450D02*
X39534Y-27450D01*
X39534Y-27450D02*
X39567Y-27417D01*
X31767Y-33867D02*
X31800Y-33900D01*
X31800Y-33900D02*
X31800Y-34067D01*
X31800Y-34067D02*
X31767Y-34100D01*
X31767Y-34100D02*
X31667Y-34100D01*
X31667Y-34100D02*
X31634Y-34067D01*
X31634Y-34067D02*
X31634Y-33900D01*
X31634Y-33900D02*
X31600Y-33867D01*
X31600Y-33867D02*
X31534Y-33867D01*
X31534Y-33867D02*
X31500Y-33900D01*
X31500Y-33900D02*
X31500Y-34067D01*
X31500Y-34067D02*
X31534Y-34100D01*
X31800Y-34275D02*
X31500Y-34275D01*
X31500Y-34275D02*
X31500Y-34475D01*
X31500Y-34475D02*
X31534Y-34508D01*
X31534Y-34508D02*
X31600Y-34508D01*
X31600Y-34508D02*
X31634Y-34475D01*
X31634Y-34475D02*
X31634Y-34275D01*
X31634Y-34475D02*
X31700Y-34508D01*
X31700Y-34508D02*
X31767Y-34508D01*
X31767Y-34508D02*
X31800Y-34475D01*
X31800Y-34475D02*
X31800Y-34275D01*
X31800Y-34683D02*
X31500Y-34683D01*
X31500Y-34683D02*
X31500Y-34883D01*
X31500Y-34883D02*
X31534Y-34916D01*
X31534Y-34916D02*
X31634Y-34916D01*
X31634Y-34916D02*
X31667Y-34883D01*
X31667Y-34883D02*
X31667Y-34683D01*
X31667Y-34783D02*
X31800Y-34916D01*
X31800Y-35158D02*
X31800Y-35291D01*
X31800Y-35224D02*
X31500Y-35224D01*
X31534Y-35224D02*
X31600Y-35158D01*
M02*
