G04 (created by PCBNEW (2013-09-20 BZR 4325)-product) date Sat 21 Sep 2013 09:12:31 AM CEST*
%MOIN*%
G04 Gerber Fmt 3.4, Leading zero omitted, Abs format*
%FSLAX34Y34*%
G01*
G70*
G90*
G04 APERTURE LIST*
%ADD10C,0.005906*%
%ADD11C,0.015000*%
%ADD12C,0.008000*%
%ADD13C,0.012000*%
%ADD14C,0.007874*%
%ADD15R,0.055000X0.055000*%
%ADD16C,0.055000*%
%ADD17C,0.086614*%
%ADD18R,0.060000X0.060000*%
%ADD19C,0.060000*%
%ADD20R,0.051100X0.059000*%
%ADD21R,0.059000X0.051100*%
G04 APERTURE END LIST*
G54D10*
G54D11*
X28385Y-25196D02*
X28287Y-25098D01*
X28385Y-25748D02*
X28385Y-25196D01*
X29153Y-24488D02*
X29015Y-24370D01*
X29153Y-24488D02*
X29153Y-25236D01*
X36318Y-24488D02*
X36437Y-24370D01*
X36318Y-25334D02*
X36318Y-24488D01*
X37027Y-25157D02*
X37125Y-25059D01*
X37027Y-25157D02*
X37027Y-25669D01*
G54D12*
X29715Y-33283D02*
X29715Y-33683D01*
X29715Y-33531D02*
X29753Y-33550D01*
X29829Y-33550D01*
X29867Y-33531D01*
X29886Y-33512D01*
X29905Y-33474D01*
X29905Y-33359D01*
X29886Y-33321D01*
X29867Y-33302D01*
X29829Y-33283D01*
X29753Y-33283D01*
X29715Y-33302D01*
X30134Y-33283D02*
X30096Y-33302D01*
X30077Y-33340D01*
X30077Y-33683D01*
X30343Y-33283D02*
X30305Y-33302D01*
X30286Y-33321D01*
X30267Y-33359D01*
X30267Y-33474D01*
X30286Y-33512D01*
X30305Y-33531D01*
X30343Y-33550D01*
X30400Y-33550D01*
X30439Y-33531D01*
X30458Y-33512D01*
X30477Y-33474D01*
X30477Y-33359D01*
X30458Y-33321D01*
X30439Y-33302D01*
X30400Y-33283D01*
X30343Y-33283D01*
X30820Y-33550D02*
X30820Y-33226D01*
X30800Y-33188D01*
X30781Y-33169D01*
X30743Y-33150D01*
X30686Y-33150D01*
X30648Y-33169D01*
X30820Y-33302D02*
X30781Y-33283D01*
X30705Y-33283D01*
X30667Y-33302D01*
X30648Y-33321D01*
X30629Y-33359D01*
X30629Y-33474D01*
X30648Y-33512D01*
X30667Y-33531D01*
X30705Y-33550D01*
X30781Y-33550D01*
X30820Y-33531D01*
X31010Y-33321D02*
X31029Y-33302D01*
X31010Y-33283D01*
X30991Y-33302D01*
X31010Y-33321D01*
X31010Y-33283D01*
X31181Y-33302D02*
X31220Y-33283D01*
X31296Y-33283D01*
X31334Y-33302D01*
X31353Y-33340D01*
X31353Y-33359D01*
X31334Y-33397D01*
X31296Y-33416D01*
X31239Y-33416D01*
X31200Y-33435D01*
X31181Y-33474D01*
X31181Y-33493D01*
X31200Y-33531D01*
X31239Y-33550D01*
X31296Y-33550D01*
X31334Y-33531D01*
X31524Y-33550D02*
X31524Y-33150D01*
X31524Y-33531D02*
X31562Y-33550D01*
X31639Y-33550D01*
X31677Y-33531D01*
X31696Y-33512D01*
X31715Y-33474D01*
X31715Y-33359D01*
X31696Y-33321D01*
X31677Y-33302D01*
X31639Y-33283D01*
X31562Y-33283D01*
X31524Y-33302D01*
X31886Y-33283D02*
X31886Y-33550D01*
X31886Y-33683D02*
X31867Y-33664D01*
X31886Y-33645D01*
X31905Y-33664D01*
X31886Y-33683D01*
X31886Y-33645D01*
X32020Y-33550D02*
X32172Y-33550D01*
X32077Y-33683D02*
X32077Y-33340D01*
X32096Y-33302D01*
X32134Y-33283D01*
X32172Y-33283D01*
X32267Y-33550D02*
X32477Y-33550D01*
X32267Y-33283D01*
X32477Y-33283D01*
X32781Y-33302D02*
X32743Y-33283D01*
X32667Y-33283D01*
X32629Y-33302D01*
X32610Y-33340D01*
X32610Y-33493D01*
X32629Y-33531D01*
X32667Y-33550D01*
X32743Y-33550D01*
X32781Y-33531D01*
X32800Y-33493D01*
X32800Y-33455D01*
X32610Y-33416D01*
X32972Y-33550D02*
X32972Y-33283D01*
X32972Y-33512D02*
X32991Y-33531D01*
X33029Y-33550D01*
X33086Y-33550D01*
X33124Y-33531D01*
X33143Y-33493D01*
X33143Y-33283D01*
X33334Y-33550D02*
X33334Y-33150D01*
X33334Y-33531D02*
X33372Y-33550D01*
X33448Y-33550D01*
X33486Y-33531D01*
X33505Y-33512D01*
X33524Y-33474D01*
X33524Y-33359D01*
X33505Y-33321D01*
X33486Y-33302D01*
X33448Y-33283D01*
X33372Y-33283D01*
X33334Y-33302D01*
X33639Y-33550D02*
X33791Y-33550D01*
X33696Y-33283D02*
X33696Y-33626D01*
X33715Y-33664D01*
X33753Y-33683D01*
X33791Y-33683D01*
X34077Y-33302D02*
X34039Y-33283D01*
X33962Y-33283D01*
X33924Y-33302D01*
X33905Y-33340D01*
X33905Y-33493D01*
X33924Y-33531D01*
X33962Y-33550D01*
X34039Y-33550D01*
X34077Y-33531D01*
X34096Y-33493D01*
X34096Y-33455D01*
X33905Y-33416D01*
X34267Y-33283D02*
X34267Y-33550D01*
X34267Y-33683D02*
X34248Y-33664D01*
X34267Y-33645D01*
X34286Y-33664D01*
X34267Y-33683D01*
X34267Y-33645D01*
X34515Y-33283D02*
X34477Y-33302D01*
X34458Y-33340D01*
X34458Y-33683D01*
X34667Y-33321D02*
X34686Y-33302D01*
X34667Y-33283D01*
X34648Y-33302D01*
X34667Y-33321D01*
X34667Y-33283D01*
X34915Y-33283D02*
X34877Y-33302D01*
X34858Y-33321D01*
X34839Y-33359D01*
X34839Y-33474D01*
X34858Y-33512D01*
X34877Y-33531D01*
X34915Y-33550D01*
X34972Y-33550D01*
X35010Y-33531D01*
X35029Y-33512D01*
X35048Y-33474D01*
X35048Y-33359D01*
X35029Y-33321D01*
X35010Y-33302D01*
X34972Y-33283D01*
X34915Y-33283D01*
X35220Y-33283D02*
X35220Y-33550D01*
X35220Y-33474D02*
X35239Y-33512D01*
X35258Y-33531D01*
X35296Y-33550D01*
X35334Y-33550D01*
X35639Y-33550D02*
X35639Y-33226D01*
X35620Y-33188D01*
X35600Y-33169D01*
X35562Y-33150D01*
X35505Y-33150D01*
X35467Y-33169D01*
X35639Y-33302D02*
X35600Y-33283D01*
X35524Y-33283D01*
X35486Y-33302D01*
X35467Y-33321D01*
X35448Y-33359D01*
X35448Y-33474D01*
X35467Y-33512D01*
X35486Y-33531D01*
X35524Y-33550D01*
X35600Y-33550D01*
X35639Y-33531D01*
X32188Y-32858D02*
X32207Y-32877D01*
X32245Y-32896D01*
X32340Y-32896D01*
X32378Y-32877D01*
X32397Y-32858D01*
X32416Y-32820D01*
X32416Y-32781D01*
X32397Y-32724D01*
X32169Y-32496D01*
X32416Y-32496D01*
X32664Y-32896D02*
X32702Y-32896D01*
X32740Y-32877D01*
X32759Y-32858D01*
X32778Y-32820D01*
X32797Y-32743D01*
X32797Y-32648D01*
X32778Y-32572D01*
X32759Y-32534D01*
X32740Y-32515D01*
X32702Y-32496D01*
X32664Y-32496D01*
X32626Y-32515D01*
X32607Y-32534D01*
X32588Y-32572D01*
X32569Y-32648D01*
X32569Y-32743D01*
X32588Y-32820D01*
X32607Y-32858D01*
X32626Y-32877D01*
X32664Y-32896D01*
X33178Y-32496D02*
X32950Y-32496D01*
X33064Y-32496D02*
X33064Y-32896D01*
X33026Y-32839D01*
X32988Y-32800D01*
X32950Y-32781D01*
X33312Y-32896D02*
X33559Y-32896D01*
X33426Y-32743D01*
X33483Y-32743D01*
X33521Y-32724D01*
X33540Y-32705D01*
X33559Y-32667D01*
X33559Y-32572D01*
X33540Y-32534D01*
X33521Y-32515D01*
X33483Y-32496D01*
X33369Y-32496D01*
X33331Y-32515D01*
X33312Y-32534D01*
X31988Y-32256D02*
X32121Y-31856D01*
X32254Y-32256D01*
X32350Y-32256D02*
X32597Y-32256D01*
X32464Y-32103D01*
X32521Y-32103D01*
X32559Y-32084D01*
X32578Y-32065D01*
X32597Y-32027D01*
X32597Y-31932D01*
X32578Y-31894D01*
X32559Y-31875D01*
X32521Y-31856D01*
X32407Y-31856D01*
X32369Y-31875D01*
X32350Y-31894D01*
X32769Y-31894D02*
X32788Y-31875D01*
X32769Y-31856D01*
X32750Y-31875D01*
X32769Y-31894D01*
X32769Y-31856D01*
X33035Y-32256D02*
X33074Y-32256D01*
X33112Y-32237D01*
X33131Y-32218D01*
X33150Y-32180D01*
X33169Y-32103D01*
X33169Y-32008D01*
X33150Y-31932D01*
X33131Y-31894D01*
X33112Y-31875D01*
X33074Y-31856D01*
X33035Y-31856D01*
X32997Y-31875D01*
X32978Y-31894D01*
X32959Y-31932D01*
X32940Y-32008D01*
X32940Y-32103D01*
X32959Y-32180D01*
X32978Y-32218D01*
X32997Y-32237D01*
X33035Y-32256D01*
X33340Y-31894D02*
X33359Y-31875D01*
X33340Y-31856D01*
X33321Y-31875D01*
X33340Y-31894D01*
X33340Y-31856D01*
X33702Y-31856D02*
X33702Y-32065D01*
X33683Y-32103D01*
X33645Y-32122D01*
X33569Y-32122D01*
X33531Y-32103D01*
X33702Y-31875D02*
X33664Y-31856D01*
X33569Y-31856D01*
X33531Y-31875D01*
X33512Y-31913D01*
X33512Y-31951D01*
X33531Y-31989D01*
X33569Y-32008D01*
X33664Y-32008D01*
X33702Y-32027D01*
X39030Y-22904D02*
X38630Y-22904D01*
X38630Y-23057D01*
X38650Y-23095D01*
X38669Y-23114D01*
X38707Y-23133D01*
X38764Y-23133D01*
X38802Y-23114D01*
X38821Y-23095D01*
X38840Y-23057D01*
X38840Y-22904D01*
X38992Y-23533D02*
X39011Y-23514D01*
X39030Y-23457D01*
X39030Y-23419D01*
X39011Y-23361D01*
X38973Y-23323D01*
X38935Y-23304D01*
X38859Y-23285D01*
X38802Y-23285D01*
X38726Y-23304D01*
X38688Y-23323D01*
X38650Y-23361D01*
X38630Y-23419D01*
X38630Y-23457D01*
X38650Y-23514D01*
X38669Y-23533D01*
X38630Y-23780D02*
X38630Y-23819D01*
X38650Y-23857D01*
X38669Y-23876D01*
X38707Y-23895D01*
X38783Y-23914D01*
X38878Y-23914D01*
X38954Y-23895D01*
X38992Y-23876D01*
X39011Y-23857D01*
X39030Y-23819D01*
X39030Y-23780D01*
X39011Y-23742D01*
X38992Y-23723D01*
X38954Y-23704D01*
X38878Y-23685D01*
X38783Y-23685D01*
X38707Y-23704D01*
X38669Y-23723D01*
X38650Y-23742D01*
X38630Y-23780D01*
X37267Y-25882D02*
X36867Y-25882D01*
X36867Y-26035D01*
X36886Y-26073D01*
X36905Y-26092D01*
X36943Y-26111D01*
X37000Y-26111D01*
X37038Y-26092D01*
X37058Y-26073D01*
X37077Y-26035D01*
X37077Y-25882D01*
X37229Y-26511D02*
X37248Y-26492D01*
X37267Y-26435D01*
X37267Y-26397D01*
X37248Y-26339D01*
X37210Y-26301D01*
X37172Y-26282D01*
X37096Y-26263D01*
X37038Y-26263D01*
X36962Y-26282D01*
X36924Y-26301D01*
X36886Y-26339D01*
X36867Y-26397D01*
X36867Y-26435D01*
X36886Y-26492D01*
X36905Y-26511D01*
X37267Y-26892D02*
X37267Y-26663D01*
X37267Y-26777D02*
X36867Y-26777D01*
X36924Y-26739D01*
X36962Y-26701D01*
X36981Y-26663D01*
X36539Y-25489D02*
X36139Y-25489D01*
X36139Y-25641D01*
X36158Y-25679D01*
X36177Y-25698D01*
X36215Y-25717D01*
X36272Y-25717D01*
X36310Y-25698D01*
X36329Y-25679D01*
X36348Y-25641D01*
X36348Y-25489D01*
X36501Y-26117D02*
X36520Y-26098D01*
X36539Y-26041D01*
X36539Y-26003D01*
X36520Y-25946D01*
X36482Y-25908D01*
X36443Y-25889D01*
X36367Y-25869D01*
X36310Y-25869D01*
X36234Y-25889D01*
X36196Y-25908D01*
X36158Y-25946D01*
X36139Y-26003D01*
X36139Y-26041D01*
X36158Y-26098D01*
X36177Y-26117D01*
X36177Y-26269D02*
X36158Y-26289D01*
X36139Y-26327D01*
X36139Y-26422D01*
X36158Y-26460D01*
X36177Y-26479D01*
X36215Y-26498D01*
X36253Y-26498D01*
X36310Y-26479D01*
X36539Y-26250D01*
X36539Y-26498D01*
X36930Y-20854D02*
X36530Y-20854D01*
X36530Y-21007D01*
X36550Y-21045D01*
X36569Y-21064D01*
X36607Y-21083D01*
X36664Y-21083D01*
X36702Y-21064D01*
X36721Y-21045D01*
X36740Y-21007D01*
X36740Y-20854D01*
X36892Y-21483D02*
X36911Y-21464D01*
X36930Y-21407D01*
X36930Y-21369D01*
X36911Y-21311D01*
X36873Y-21273D01*
X36835Y-21254D01*
X36759Y-21235D01*
X36702Y-21235D01*
X36626Y-21254D01*
X36588Y-21273D01*
X36550Y-21311D01*
X36530Y-21369D01*
X36530Y-21407D01*
X36550Y-21464D01*
X36569Y-21483D01*
X36530Y-21616D02*
X36530Y-21864D01*
X36683Y-21730D01*
X36683Y-21788D01*
X36702Y-21826D01*
X36721Y-21845D01*
X36759Y-21864D01*
X36854Y-21864D01*
X36892Y-21845D01*
X36911Y-21826D01*
X36930Y-21788D01*
X36930Y-21673D01*
X36911Y-21635D01*
X36892Y-21616D01*
G54D11*
X38850Y-24700D02*
X38850Y-24200D01*
X38550Y-25000D02*
X38850Y-24700D01*
X36750Y-22600D02*
X36750Y-22100D01*
X36450Y-22900D02*
X36750Y-22600D01*
X28700Y-22600D02*
X28700Y-22100D01*
X26600Y-24700D02*
X26600Y-24200D01*
X26900Y-25000D02*
X26600Y-24700D01*
X29000Y-22900D02*
X28700Y-22600D01*
G54D12*
X26761Y-22964D02*
X26780Y-23021D01*
X26780Y-23116D01*
X26761Y-23154D01*
X26742Y-23173D01*
X26704Y-23192D01*
X26666Y-23192D01*
X26628Y-23173D01*
X26609Y-23154D01*
X26590Y-23116D01*
X26571Y-23040D01*
X26552Y-23002D01*
X26533Y-22983D01*
X26495Y-22964D01*
X26457Y-22964D01*
X26419Y-22983D01*
X26400Y-23002D01*
X26380Y-23040D01*
X26380Y-23135D01*
X26400Y-23192D01*
X26780Y-23364D02*
X26380Y-23364D01*
X26380Y-23459D01*
X26400Y-23516D01*
X26438Y-23554D01*
X26476Y-23573D01*
X26552Y-23592D01*
X26609Y-23592D01*
X26685Y-23573D01*
X26723Y-23554D01*
X26761Y-23516D01*
X26780Y-23459D01*
X26780Y-23364D01*
X26666Y-23745D02*
X26666Y-23935D01*
X26780Y-23707D02*
X26380Y-23840D01*
X26780Y-23973D01*
X28547Y-25901D02*
X28566Y-25958D01*
X28566Y-26054D01*
X28547Y-26092D01*
X28528Y-26111D01*
X28490Y-26130D01*
X28452Y-26130D01*
X28414Y-26111D01*
X28395Y-26092D01*
X28376Y-26054D01*
X28357Y-25977D01*
X28338Y-25939D01*
X28319Y-25920D01*
X28281Y-25901D01*
X28242Y-25901D01*
X28204Y-25920D01*
X28185Y-25939D01*
X28166Y-25977D01*
X28166Y-26073D01*
X28185Y-26130D01*
X28528Y-26530D02*
X28547Y-26511D01*
X28566Y-26454D01*
X28566Y-26416D01*
X28547Y-26358D01*
X28509Y-26320D01*
X28471Y-26301D01*
X28395Y-26282D01*
X28338Y-26282D01*
X28262Y-26301D01*
X28223Y-26320D01*
X28185Y-26358D01*
X28166Y-26416D01*
X28166Y-26454D01*
X28185Y-26511D01*
X28204Y-26530D01*
X28566Y-26892D02*
X28566Y-26701D01*
X28166Y-26701D01*
X28973Y-25679D02*
X28954Y-25641D01*
X28954Y-25584D01*
X28973Y-25527D01*
X29011Y-25489D01*
X29049Y-25469D01*
X29125Y-25450D01*
X29182Y-25450D01*
X29258Y-25469D01*
X29297Y-25489D01*
X29335Y-25527D01*
X29354Y-25584D01*
X29354Y-25622D01*
X29335Y-25679D01*
X29316Y-25698D01*
X29182Y-25698D01*
X29182Y-25622D01*
X29354Y-25869D02*
X28954Y-25869D01*
X29354Y-26098D01*
X28954Y-26098D01*
X29354Y-26289D02*
X28954Y-26289D01*
X28954Y-26384D01*
X28973Y-26441D01*
X29011Y-26479D01*
X29049Y-26498D01*
X29125Y-26517D01*
X29182Y-26517D01*
X29258Y-26498D01*
X29297Y-26479D01*
X29335Y-26441D01*
X29354Y-26384D01*
X29354Y-26289D01*
X28480Y-20816D02*
X28880Y-20950D01*
X28480Y-21083D01*
X28842Y-21445D02*
X28861Y-21426D01*
X28880Y-21369D01*
X28880Y-21330D01*
X28861Y-21273D01*
X28823Y-21235D01*
X28785Y-21216D01*
X28709Y-21197D01*
X28652Y-21197D01*
X28576Y-21216D01*
X28538Y-21235D01*
X28500Y-21273D01*
X28480Y-21330D01*
X28480Y-21369D01*
X28500Y-21426D01*
X28519Y-21445D01*
X28842Y-21845D02*
X28861Y-21826D01*
X28880Y-21769D01*
X28880Y-21730D01*
X28861Y-21673D01*
X28823Y-21635D01*
X28785Y-21616D01*
X28709Y-21597D01*
X28652Y-21597D01*
X28576Y-21616D01*
X28538Y-21635D01*
X28500Y-21673D01*
X28480Y-21730D01*
X28480Y-21769D01*
X28500Y-21826D01*
X28519Y-21845D01*
X35430Y-20546D02*
X35030Y-20546D01*
X35030Y-20642D01*
X35050Y-20699D01*
X35088Y-20737D01*
X35126Y-20756D01*
X35202Y-20775D01*
X35259Y-20775D01*
X35335Y-20756D01*
X35373Y-20737D01*
X35411Y-20699D01*
X35430Y-20642D01*
X35430Y-20546D01*
X35030Y-20889D02*
X35030Y-21118D01*
X35430Y-21003D02*
X35030Y-21003D01*
X35430Y-21480D02*
X35240Y-21346D01*
X35430Y-21251D02*
X35030Y-21251D01*
X35030Y-21403D01*
X35050Y-21442D01*
X35069Y-21461D01*
X35107Y-21480D01*
X35164Y-21480D01*
X35202Y-21461D01*
X35221Y-21442D01*
X35240Y-21403D01*
X35240Y-21251D01*
X31430Y-20689D02*
X31030Y-20689D01*
X31430Y-20918D01*
X31030Y-20918D01*
X31392Y-21337D02*
X31411Y-21318D01*
X31430Y-21261D01*
X31430Y-21222D01*
X31411Y-21165D01*
X31373Y-21127D01*
X31335Y-21108D01*
X31259Y-21089D01*
X31202Y-21089D01*
X31126Y-21108D01*
X31088Y-21127D01*
X31050Y-21165D01*
X31030Y-21222D01*
X31030Y-21261D01*
X31050Y-21318D01*
X31069Y-21337D01*
X31729Y-20470D02*
X32129Y-20603D01*
X31729Y-20737D01*
X32091Y-21099D02*
X32110Y-21080D01*
X32129Y-21022D01*
X32129Y-20984D01*
X32110Y-20927D01*
X32072Y-20889D01*
X32034Y-20870D01*
X31958Y-20851D01*
X31901Y-20851D01*
X31825Y-20870D01*
X31786Y-20889D01*
X31748Y-20927D01*
X31729Y-20984D01*
X31729Y-21022D01*
X31748Y-21080D01*
X31767Y-21099D01*
X32091Y-21499D02*
X32110Y-21480D01*
X32129Y-21422D01*
X32129Y-21384D01*
X32110Y-21327D01*
X32072Y-21289D01*
X32034Y-21270D01*
X31958Y-21251D01*
X31901Y-21251D01*
X31825Y-21270D01*
X31786Y-21289D01*
X31748Y-21327D01*
X31729Y-21384D01*
X31729Y-21422D01*
X31748Y-21480D01*
X31767Y-21499D01*
X33822Y-20842D02*
X33632Y-20708D01*
X33822Y-20613D02*
X33422Y-20613D01*
X33422Y-20765D01*
X33441Y-20803D01*
X33460Y-20822D01*
X33498Y-20842D01*
X33556Y-20842D01*
X33594Y-20822D01*
X33613Y-20803D01*
X33632Y-20765D01*
X33632Y-20613D01*
X33422Y-20975D02*
X33822Y-21242D01*
X33422Y-21242D02*
X33822Y-20975D01*
X33822Y-21394D02*
X33422Y-21394D01*
X34030Y-20489D02*
X34030Y-20718D01*
X34430Y-20603D02*
X34030Y-20603D01*
X34030Y-20813D02*
X34430Y-21080D01*
X34030Y-21080D02*
X34430Y-20813D01*
X34030Y-21308D02*
X34030Y-21384D01*
X34050Y-21422D01*
X34088Y-21461D01*
X34164Y-21480D01*
X34297Y-21480D01*
X34373Y-21461D01*
X34411Y-21422D01*
X34430Y-21384D01*
X34430Y-21308D01*
X34411Y-21270D01*
X34373Y-21232D01*
X34297Y-21213D01*
X34164Y-21213D01*
X34088Y-21232D01*
X34050Y-21270D01*
X34030Y-21308D01*
X30050Y-20699D02*
X30030Y-20661D01*
X30030Y-20603D01*
X30050Y-20546D01*
X30088Y-20508D01*
X30126Y-20489D01*
X30202Y-20470D01*
X30259Y-20470D01*
X30335Y-20489D01*
X30373Y-20508D01*
X30411Y-20546D01*
X30430Y-20603D01*
X30430Y-20642D01*
X30411Y-20699D01*
X30392Y-20718D01*
X30259Y-20718D01*
X30259Y-20642D01*
X30430Y-20889D02*
X30030Y-20889D01*
X30430Y-21118D01*
X30030Y-21118D01*
X30430Y-21308D02*
X30030Y-21308D01*
X30030Y-21403D01*
X30050Y-21461D01*
X30088Y-21499D01*
X30126Y-21518D01*
X30202Y-21537D01*
X30259Y-21537D01*
X30335Y-21518D01*
X30373Y-21499D01*
X30411Y-21461D01*
X30430Y-21403D01*
X30430Y-21308D01*
X33750Y-29350D02*
X33750Y-26350D01*
X31750Y-26350D02*
X31750Y-29350D01*
X31750Y-29350D02*
X33750Y-29350D01*
X33750Y-26350D02*
X31750Y-26350D01*
G54D13*
X38917Y-25410D02*
X38917Y-25410D01*
X38210Y-26117D02*
X38917Y-25410D01*
X38917Y-25410D02*
X38917Y-25410D01*
X38917Y-25410D02*
X36089Y-22582D01*
X36089Y-22582D02*
X35382Y-23289D01*
X35382Y-23289D02*
X38210Y-26117D01*
X37503Y-25410D02*
X38210Y-24703D01*
X27239Y-26117D02*
X27239Y-26117D01*
X26532Y-25410D02*
X27239Y-26117D01*
X27239Y-26117D02*
X27239Y-26117D01*
X27239Y-26117D02*
X30067Y-23289D01*
X30067Y-23289D02*
X29360Y-22582D01*
X29360Y-22582D02*
X26532Y-25410D01*
X27239Y-24703D02*
X27946Y-25410D01*
X29750Y-21750D02*
X29750Y-22750D01*
X29750Y-22750D02*
X35750Y-22750D01*
X35750Y-22750D02*
X35750Y-21750D01*
X35750Y-21750D02*
X29750Y-21750D01*
X30750Y-21750D02*
X30750Y-22750D01*
G54D14*
X26259Y-28307D02*
X24685Y-28307D01*
X26259Y-28307D02*
X26259Y-27440D01*
X26259Y-27440D02*
X24685Y-27440D01*
X24685Y-27440D02*
X24685Y-28307D01*
X28540Y-32780D02*
X27426Y-33894D01*
X28540Y-32780D02*
X27927Y-32168D01*
X27927Y-32168D02*
X26814Y-33282D01*
X26814Y-33282D02*
X27426Y-33894D01*
X37662Y-32129D02*
X38776Y-33242D01*
X37662Y-32129D02*
X37050Y-32741D01*
X37050Y-32741D02*
X38163Y-33855D01*
X38163Y-33855D02*
X38776Y-33242D01*
X33582Y-24881D02*
X32007Y-24881D01*
X33582Y-24881D02*
X33582Y-24015D01*
X33582Y-24015D02*
X32007Y-24015D01*
X32007Y-24015D02*
X32007Y-24881D01*
X33188Y-34330D02*
X33188Y-35905D01*
X33188Y-34330D02*
X32322Y-34330D01*
X32322Y-34330D02*
X32322Y-35905D01*
X32322Y-35905D02*
X33188Y-35905D01*
X39212Y-27440D02*
X40787Y-27440D01*
X39212Y-27440D02*
X39212Y-28307D01*
X39212Y-28307D02*
X40787Y-28307D01*
X40787Y-28307D02*
X40787Y-27440D01*
X37011Y-22967D02*
X38124Y-21853D01*
X37011Y-22967D02*
X37623Y-23579D01*
X37623Y-23579D02*
X38737Y-22465D01*
X38737Y-22465D02*
X38124Y-21853D01*
X32322Y-21377D02*
X32322Y-19803D01*
X32322Y-21377D02*
X33188Y-21377D01*
X33188Y-21377D02*
X33188Y-19803D01*
X33188Y-19803D02*
X32322Y-19803D01*
X27848Y-23618D02*
X26735Y-22505D01*
X27848Y-23618D02*
X28461Y-23006D01*
X28461Y-23006D02*
X27347Y-21892D01*
X27347Y-21892D02*
X26735Y-22505D01*
X34160Y-24589D02*
X34178Y-24608D01*
X34235Y-24626D01*
X34272Y-24626D01*
X34328Y-24608D01*
X34366Y-24570D01*
X34385Y-24533D01*
X34403Y-24458D01*
X34403Y-24401D01*
X34385Y-24326D01*
X34366Y-24289D01*
X34328Y-24251D01*
X34272Y-24233D01*
X34235Y-24233D01*
X34178Y-24251D01*
X34160Y-24270D01*
X34028Y-24233D02*
X33785Y-24233D01*
X33916Y-24383D01*
X33860Y-24383D01*
X33822Y-24401D01*
X33803Y-24420D01*
X33785Y-24458D01*
X33785Y-24551D01*
X33803Y-24589D01*
X33822Y-24608D01*
X33860Y-24626D01*
X33972Y-24626D01*
X34010Y-24608D01*
X34028Y-24589D01*
%LPC*%
G54D15*
X33750Y-23250D03*
G54D16*
X32750Y-23250D03*
X31750Y-23250D03*
G54D17*
X30050Y-30550D03*
X35450Y-30550D03*
X35450Y-25150D03*
X30050Y-25150D03*
G54D18*
X33250Y-26850D03*
G54D19*
X32250Y-26850D03*
X33250Y-27850D03*
X32250Y-27850D03*
X33250Y-28850D03*
X32250Y-28850D03*
G54D10*
G36*
X38634Y-25410D02*
X38210Y-25834D01*
X37786Y-25410D01*
X38210Y-24986D01*
X38634Y-25410D01*
X38634Y-25410D01*
G37*
G54D19*
X37503Y-24703D03*
X36796Y-23996D03*
X36089Y-23289D03*
G54D10*
G36*
X27239Y-25834D02*
X26815Y-25410D01*
X27239Y-24986D01*
X27663Y-25410D01*
X27239Y-25834D01*
X27239Y-25834D01*
G37*
G54D19*
X27946Y-24703D03*
X28653Y-23996D03*
X29360Y-23289D03*
G54D18*
X30250Y-22250D03*
G54D19*
X31250Y-22250D03*
X32250Y-22250D03*
X33250Y-22250D03*
X34250Y-22250D03*
X35250Y-22250D03*
G54D20*
X25098Y-27874D03*
X25846Y-27874D03*
G54D10*
G36*
X27440Y-33685D02*
X27023Y-33268D01*
X27384Y-32906D01*
X27801Y-33323D01*
X27440Y-33685D01*
X27440Y-33685D01*
G37*
G36*
X27969Y-33156D02*
X27552Y-32739D01*
X27913Y-32377D01*
X28330Y-32794D01*
X27969Y-33156D01*
X27969Y-33156D01*
G37*
G36*
X38567Y-33228D02*
X38149Y-33645D01*
X37788Y-33284D01*
X38205Y-32867D01*
X38567Y-33228D01*
X38567Y-33228D01*
G37*
G36*
X38038Y-32699D02*
X37620Y-33116D01*
X37259Y-32755D01*
X37676Y-32338D01*
X38038Y-32699D01*
X38038Y-32699D01*
G37*
G54D20*
X32421Y-24448D03*
X33169Y-24448D03*
G54D21*
X32755Y-35492D03*
X32755Y-34744D03*
G54D20*
X40374Y-27874D03*
X39626Y-27874D03*
G54D10*
G36*
X38110Y-22062D02*
X38527Y-22480D01*
X38166Y-22841D01*
X37749Y-22424D01*
X38110Y-22062D01*
X38110Y-22062D01*
G37*
G36*
X37581Y-22591D02*
X37998Y-23008D01*
X37637Y-23370D01*
X37220Y-22953D01*
X37581Y-22591D01*
X37581Y-22591D01*
G37*
G54D21*
X32755Y-20216D03*
X32755Y-20964D03*
G54D10*
G36*
X26944Y-22519D02*
X27361Y-22102D01*
X27723Y-22463D01*
X27306Y-22880D01*
X26944Y-22519D01*
X26944Y-22519D01*
G37*
G36*
X27473Y-23048D02*
X27890Y-22631D01*
X28252Y-22992D01*
X27834Y-23409D01*
X27473Y-23048D01*
X27473Y-23048D01*
G37*
M02*
