G04 (created by PCBnew (20090216-final)) date Wed 06 Jan 2010 05:44:50 PM CET*
G01*
G70*
G90*
%MOIN*%
G04 Gerber Fmt 3.4, Leading zero omitted, Abs format*
%FSLAX34Y34*%
G04 APERTURE LIST*
%ADD10C,0.008000*%
%ADD11R,0.055000X0.055000*%
%ADD12C,0.055000*%
%ADD13R,0.060000X0.060000*%
%ADD14C,0.060000*%
%ADD15R,0.051100X0.059000*%
%ADD16R,0.062900X0.070800*%
%ADD17R,0.070800X0.062900*%
%ADD18R,0.087900X0.047900*%
%ADD19R,0.086600X0.141700*%
%ADD20C,0.045000*%
%ADD21C,0.012000*%
%ADD22R,0.078700X0.017700*%
%ADD23R,0.017700X0.078700*%
%ADD24R,0.035400X0.059100*%
%ADD25R,0.059100X0.035400*%
%ADD26C,0.010000*%
%ADD27C,0.007500*%
%ADD28C,0.015000*%
%ADD29C,0.002600*%
%ADD30C,0.002000*%
%ADD31C,0.004000*%
%ADD32C,0.006000*%
%ADD33C,0.001000*%
G04 APERTURE END LIST*
G54D10*
X33000Y-29854D02*
X32600Y-29676D01*
X32600Y-29676D02*
X33000Y-29498D01*
X32644Y-29330D02*
X32600Y-29286D01*
X32600Y-29286D02*
X32600Y-29063D01*
X32600Y-29063D02*
X32644Y-29019D01*
X32644Y-29019D02*
X32777Y-29019D01*
X32777Y-29019D02*
X32822Y-29063D01*
X32822Y-29063D02*
X32822Y-29286D01*
X32822Y-29286D02*
X32866Y-29330D01*
X32866Y-29330D02*
X32955Y-29330D01*
X32955Y-29330D02*
X33000Y-29286D01*
X33000Y-29286D02*
X33000Y-29063D01*
X33000Y-29063D02*
X32955Y-29019D01*
X32600Y-28495D02*
X32600Y-28806D01*
X32600Y-28806D02*
X33000Y-28806D01*
X33000Y-28806D02*
X33000Y-28495D01*
X32822Y-28806D02*
X32822Y-28628D01*
X33000Y-28282D02*
X32600Y-28282D01*
X32600Y-28282D02*
X32600Y-27926D01*
X29450Y-33422D02*
X29450Y-33244D01*
X29450Y-33333D02*
X29850Y-33333D01*
X29850Y-33422D02*
X29850Y-33244D01*
X29494Y-32942D02*
X29450Y-32898D01*
X29450Y-32898D02*
X29450Y-32675D01*
X29450Y-32675D02*
X29494Y-32631D01*
X29494Y-32631D02*
X29627Y-32631D01*
X29627Y-32631D02*
X29672Y-32675D01*
X29672Y-32675D02*
X29672Y-32898D01*
X29672Y-32898D02*
X29716Y-32942D01*
X29716Y-32942D02*
X29805Y-32942D01*
X29805Y-32942D02*
X29850Y-32898D01*
X29850Y-32898D02*
X29850Y-32675D01*
X29850Y-32675D02*
X29805Y-32631D01*
X29450Y-32418D02*
X29850Y-32418D01*
X29850Y-32418D02*
X29850Y-32151D01*
X29850Y-32151D02*
X29805Y-32107D01*
X29805Y-32107D02*
X29672Y-32107D01*
X29672Y-32107D02*
X29627Y-32151D01*
X29627Y-32151D02*
X29627Y-32418D01*
X29450Y-31894D02*
X29450Y-31583D01*
X29450Y-31059D02*
X29450Y-31370D01*
X29450Y-31370D02*
X29850Y-31370D01*
X29850Y-31370D02*
X29850Y-31059D01*
X29672Y-31370D02*
X29672Y-31192D01*
X35750Y-32898D02*
X35750Y-32720D01*
X35750Y-32809D02*
X36150Y-32809D01*
X36150Y-32898D02*
X36150Y-32720D01*
X35794Y-32418D02*
X35750Y-32374D01*
X35750Y-32374D02*
X35750Y-32151D01*
X35750Y-32151D02*
X35794Y-32107D01*
X35794Y-32107D02*
X35927Y-32107D01*
X35927Y-32107D02*
X35972Y-32151D01*
X35972Y-32151D02*
X35972Y-32374D01*
X35972Y-32374D02*
X36016Y-32418D01*
X36016Y-32418D02*
X36105Y-32418D01*
X36105Y-32418D02*
X36150Y-32374D01*
X36150Y-32374D02*
X36150Y-32151D01*
X36150Y-32151D02*
X36105Y-32107D01*
X35750Y-31894D02*
X36150Y-31894D01*
X36150Y-31894D02*
X36150Y-31627D01*
X36150Y-31627D02*
X36105Y-31583D01*
X36105Y-31583D02*
X35972Y-31583D01*
X35972Y-31583D02*
X35927Y-31627D01*
X35927Y-31627D02*
X35927Y-31894D01*
X30732Y-22673D02*
X30999Y-22673D01*
X30865Y-22806D02*
X30865Y-22539D01*
X36182Y-21573D02*
X36449Y-21573D01*
X36315Y-21706D02*
X36315Y-21439D01*
G54D26*
X28450Y-25200D02*
X28272Y-25600D01*
X28272Y-25600D02*
X28094Y-25200D01*
X27773Y-25200D02*
X27773Y-25245D01*
X27773Y-25378D02*
X27773Y-25556D01*
X27773Y-25556D02*
X27728Y-25600D01*
X27728Y-25600D02*
X27684Y-25600D01*
X38522Y-25200D02*
X38344Y-25600D01*
X38344Y-25600D02*
X38166Y-25200D01*
X37845Y-25200D02*
X37845Y-25245D01*
X37845Y-25378D02*
X37845Y-25556D01*
X37845Y-25556D02*
X37800Y-25600D01*
X37800Y-25600D02*
X37756Y-25600D01*
X37434Y-25600D02*
X37434Y-25334D01*
X37434Y-25378D02*
X37390Y-25334D01*
X37390Y-25334D02*
X37212Y-25334D01*
X37212Y-25334D02*
X37167Y-25378D01*
X37167Y-25378D02*
X37167Y-25600D01*
X33655Y-27600D02*
X33477Y-27600D01*
X33566Y-27600D02*
X33566Y-27200D01*
X33566Y-27245D02*
X33655Y-27334D01*
X33067Y-27600D02*
X33067Y-27556D01*
X32345Y-27600D02*
X32656Y-27600D01*
X32656Y-27600D02*
X32656Y-27467D01*
X32656Y-27467D02*
X32612Y-27423D01*
X32612Y-27423D02*
X32389Y-27423D01*
X32389Y-27423D02*
X32345Y-27378D01*
X32345Y-27378D02*
X32345Y-27245D01*
X32345Y-27245D02*
X32389Y-27200D01*
X32389Y-27200D02*
X32612Y-27200D01*
X32612Y-27200D02*
X32656Y-27245D01*
X32023Y-27600D02*
X31845Y-27600D01*
X31934Y-27600D02*
X31934Y-27200D01*
X31934Y-27245D02*
X32023Y-27334D01*
X35100Y-26518D02*
X35500Y-26518D01*
X35500Y-26562D02*
X35500Y-26295D01*
X35500Y-26295D02*
X35455Y-26251D01*
X35455Y-26251D02*
X35144Y-26251D01*
X35144Y-26251D02*
X35100Y-26295D01*
X35100Y-26295D02*
X35100Y-26562D01*
X35500Y-26018D02*
X35500Y-25662D01*
X35500Y-25840D02*
X35100Y-25840D01*
X35100Y-25474D02*
X35500Y-25474D01*
X35500Y-25474D02*
X35500Y-25207D01*
X35500Y-25207D02*
X35455Y-25163D01*
X35455Y-25163D02*
X35322Y-25163D01*
X35322Y-25163D02*
X35277Y-25207D01*
X35277Y-25207D02*
X35277Y-25474D01*
X35277Y-25341D02*
X35100Y-25163D01*
G54D27*
X38346Y-23650D02*
X38579Y-23650D01*
X38579Y-23650D02*
X38579Y-23550D01*
X38579Y-23550D02*
X38546Y-23517D01*
X38546Y-23517D02*
X38379Y-23517D01*
X38379Y-23517D02*
X38346Y-23484D01*
X38346Y-23484D02*
X38346Y-23384D01*
X38346Y-23384D02*
X38379Y-23350D01*
X38379Y-23350D02*
X38546Y-23350D01*
X38546Y-23350D02*
X38579Y-23384D01*
X38171Y-23650D02*
X37938Y-23350D01*
X38171Y-23617D02*
X38171Y-23384D01*
X38171Y-23384D02*
X38138Y-23350D01*
X38138Y-23350D02*
X37971Y-23350D01*
X37971Y-23350D02*
X37938Y-23384D01*
X37938Y-23384D02*
X37938Y-23617D01*
X37938Y-23617D02*
X37971Y-23650D01*
X37971Y-23650D02*
X38138Y-23650D01*
X38138Y-23650D02*
X38171Y-23617D01*
X37763Y-23650D02*
X37530Y-23350D01*
X37763Y-23617D02*
X37763Y-23384D01*
X37763Y-23384D02*
X37730Y-23350D01*
X37730Y-23350D02*
X37563Y-23350D01*
X37563Y-23350D02*
X37530Y-23384D01*
X37530Y-23384D02*
X37530Y-23617D01*
X37530Y-23617D02*
X37563Y-23650D01*
X37563Y-23650D02*
X37730Y-23650D01*
X37730Y-23650D02*
X37763Y-23617D01*
X37322Y-23650D02*
X37155Y-23650D01*
X37155Y-23650D02*
X37122Y-23617D01*
X37122Y-23617D02*
X37122Y-23384D01*
X37122Y-23384D02*
X37155Y-23350D01*
X37155Y-23350D02*
X37322Y-23350D01*
X37322Y-23350D02*
X37355Y-23384D01*
X37355Y-23384D02*
X37355Y-23484D01*
X37355Y-23484D02*
X37322Y-23517D01*
X37322Y-23517D02*
X37155Y-23517D01*
X37155Y-23517D02*
X37122Y-23484D01*
X36506Y-23517D02*
X36339Y-23517D01*
X35723Y-23350D02*
X35723Y-23650D01*
X35723Y-23650D02*
X35490Y-23650D01*
X35490Y-23650D02*
X35490Y-23517D01*
X35490Y-23517D02*
X35523Y-23484D01*
X35523Y-23484D02*
X35723Y-23484D01*
X35248Y-23350D02*
X35215Y-23350D01*
X35215Y-23350D02*
X35215Y-23650D01*
X35248Y-23650D02*
X35182Y-23650D01*
X34874Y-23650D02*
X34907Y-23617D01*
X34907Y-23617D02*
X34907Y-23484D01*
X34907Y-23484D02*
X34874Y-23450D01*
X34874Y-23450D02*
X34707Y-23450D01*
X34707Y-23450D02*
X34674Y-23484D01*
X34674Y-23484D02*
X34674Y-23617D01*
X34674Y-23617D02*
X34707Y-23650D01*
X34707Y-23650D02*
X34874Y-23650D01*
X34499Y-23716D02*
X34466Y-23750D01*
X34466Y-23750D02*
X34299Y-23750D01*
X34299Y-23750D02*
X34266Y-23716D01*
X34266Y-23716D02*
X34266Y-23484D01*
X34266Y-23484D02*
X34299Y-23450D01*
X34299Y-23450D02*
X34466Y-23450D01*
X34466Y-23450D02*
X34499Y-23484D01*
X34499Y-23484D02*
X34499Y-23617D01*
X34499Y-23617D02*
X34466Y-23650D01*
X34466Y-23650D02*
X34299Y-23650D01*
X34299Y-23650D02*
X34266Y-23617D01*
X33991Y-23650D02*
X33991Y-23617D01*
X33683Y-23617D02*
X33650Y-23650D01*
X33650Y-23650D02*
X33483Y-23650D01*
X33483Y-23650D02*
X33450Y-23617D01*
X33450Y-23617D02*
X33450Y-23584D01*
X33450Y-23584D02*
X33483Y-23550D01*
X33483Y-23550D02*
X33650Y-23550D01*
X33650Y-23550D02*
X33683Y-23517D01*
X33683Y-23517D02*
X33683Y-23484D01*
X33683Y-23484D02*
X33650Y-23450D01*
X33650Y-23450D02*
X33483Y-23450D01*
X33483Y-23450D02*
X33450Y-23484D01*
X33275Y-23750D02*
X33275Y-23450D01*
X33275Y-23484D02*
X33242Y-23450D01*
X33242Y-23450D02*
X33075Y-23450D01*
X33075Y-23450D02*
X33042Y-23484D01*
X33042Y-23484D02*
X33042Y-23617D01*
X33042Y-23617D02*
X33075Y-23650D01*
X33075Y-23650D02*
X33242Y-23650D01*
X33242Y-23650D02*
X33275Y-23617D01*
X32767Y-23350D02*
X32767Y-23384D01*
X32767Y-23484D02*
X32767Y-23617D01*
X32767Y-23617D02*
X32734Y-23650D01*
X32734Y-23650D02*
X32700Y-23650D01*
X32259Y-23617D02*
X32292Y-23650D01*
X32292Y-23650D02*
X32392Y-23650D01*
X32392Y-23650D02*
X32426Y-23617D01*
X32426Y-23617D02*
X32426Y-23350D01*
X32426Y-23450D02*
X32326Y-23450D01*
X32051Y-23450D02*
X31818Y-23450D01*
X31818Y-23450D02*
X32051Y-23650D01*
X32051Y-23650D02*
X31818Y-23650D01*
X31643Y-23550D02*
X31410Y-23550D01*
X31410Y-23550D02*
X31410Y-23484D01*
X31410Y-23484D02*
X31443Y-23450D01*
X31443Y-23450D02*
X31610Y-23450D01*
X31610Y-23450D02*
X31643Y-23484D01*
X31643Y-23484D02*
X31643Y-23617D01*
X31643Y-23617D02*
X31610Y-23650D01*
X31610Y-23650D02*
X31443Y-23650D01*
X31443Y-23650D02*
X31410Y-23617D01*
X31235Y-23650D02*
X31235Y-23450D01*
X31235Y-23484D02*
X31202Y-23450D01*
X31202Y-23450D02*
X31068Y-23450D01*
X31068Y-23450D02*
X31035Y-23484D01*
X31035Y-23484D02*
X31035Y-23650D01*
X30827Y-23750D02*
X30827Y-23450D01*
X30827Y-23484D02*
X30794Y-23450D01*
X30794Y-23450D02*
X30627Y-23450D01*
X30627Y-23450D02*
X30594Y-23484D01*
X30594Y-23484D02*
X30594Y-23617D01*
X30594Y-23617D02*
X30627Y-23650D01*
X30627Y-23650D02*
X30794Y-23650D01*
X30794Y-23650D02*
X30827Y-23617D01*
X30386Y-23650D02*
X30386Y-23384D01*
X30386Y-23384D02*
X30352Y-23350D01*
X30352Y-23350D02*
X30219Y-23350D01*
X30219Y-23350D02*
X30186Y-23384D01*
X30419Y-23484D02*
X30319Y-23484D01*
X30011Y-23550D02*
X29778Y-23550D01*
X29778Y-23550D02*
X29778Y-23484D01*
X29778Y-23484D02*
X29811Y-23450D01*
X29811Y-23450D02*
X29978Y-23450D01*
X29978Y-23450D02*
X30011Y-23484D01*
X30011Y-23484D02*
X30011Y-23617D01*
X30011Y-23617D02*
X29978Y-23650D01*
X29978Y-23650D02*
X29811Y-23650D01*
X29811Y-23650D02*
X29778Y-23617D01*
X29503Y-23350D02*
X29503Y-23384D01*
X29503Y-23484D02*
X29503Y-23617D01*
X29503Y-23617D02*
X29470Y-23650D01*
X29470Y-23650D02*
X29436Y-23650D01*
X29128Y-23350D02*
X29095Y-23350D01*
X29095Y-23350D02*
X29095Y-23650D01*
X29128Y-23650D02*
X29062Y-23650D01*
X28687Y-23650D02*
X28687Y-23617D01*
X28346Y-23650D02*
X28379Y-23617D01*
X28379Y-23617D02*
X28379Y-23484D01*
X28379Y-23484D02*
X28346Y-23450D01*
X28346Y-23450D02*
X28179Y-23450D01*
X28179Y-23450D02*
X28146Y-23484D01*
X28146Y-23484D02*
X28146Y-23617D01*
X28146Y-23617D02*
X28179Y-23650D01*
X28179Y-23650D02*
X28346Y-23650D01*
X27971Y-23650D02*
X27971Y-23450D01*
X27971Y-23517D02*
X27904Y-23450D01*
X27904Y-23450D02*
X27804Y-23450D01*
X27804Y-23450D02*
X27738Y-23517D01*
X27563Y-23716D02*
X27530Y-23750D01*
X27530Y-23750D02*
X27363Y-23750D01*
X27363Y-23750D02*
X27330Y-23716D01*
X27330Y-23716D02*
X27330Y-23484D01*
X27330Y-23484D02*
X27363Y-23450D01*
X27363Y-23450D02*
X27530Y-23450D01*
X27530Y-23450D02*
X27563Y-23484D01*
X27563Y-23484D02*
X27563Y-23617D01*
X27563Y-23617D02*
X27530Y-23650D01*
X27530Y-23650D02*
X27363Y-23650D01*
X27363Y-23650D02*
X27330Y-23617D01*
G54D28*
X26550Y-31470D02*
X26549Y-31471D01*
X26549Y-31471D02*
X26549Y-31473D01*
X26549Y-31473D02*
X26548Y-31475D01*
X26548Y-31475D02*
X26547Y-31477D01*
X26547Y-31477D02*
X26545Y-31478D01*
X26545Y-31478D02*
X26543Y-31479D01*
X26543Y-31479D02*
X26542Y-31479D01*
X26542Y-31479D02*
X26540Y-31479D01*
X26540Y-31479D02*
X26539Y-31479D01*
X26539Y-31479D02*
X26537Y-31479D01*
X26537Y-31479D02*
X26535Y-31478D01*
X26535Y-31478D02*
X26534Y-31477D01*
X26534Y-31477D02*
X26532Y-31475D01*
X26532Y-31475D02*
X26531Y-31473D01*
X26531Y-31473D02*
X26531Y-31472D01*
X26531Y-31472D02*
X26531Y-31470D01*
X26531Y-31470D02*
X26531Y-31469D01*
X26531Y-31469D02*
X26531Y-31467D01*
X26531Y-31467D02*
X26532Y-31465D01*
X26532Y-31465D02*
X26533Y-31464D01*
X26533Y-31464D02*
X26535Y-31462D01*
X26535Y-31462D02*
X26536Y-31461D01*
X26536Y-31461D02*
X26538Y-31461D01*
X26538Y-31461D02*
X26540Y-31461D01*
X26540Y-31461D02*
X26541Y-31461D01*
X26541Y-31461D02*
X26543Y-31461D01*
X26543Y-31461D02*
X26545Y-31462D01*
X26545Y-31462D02*
X26546Y-31463D01*
X26546Y-31463D02*
X26548Y-31465D01*
X26548Y-31465D02*
X26549Y-31466D01*
X26549Y-31466D02*
X26549Y-31468D01*
X26549Y-31468D02*
X26549Y-31470D01*
X26549Y-31470D02*
X26550Y-31470D01*
X26730Y-31470D02*
X26729Y-31471D01*
X26729Y-31471D02*
X26729Y-31473D01*
X26729Y-31473D02*
X26728Y-31475D01*
X26728Y-31475D02*
X26727Y-31477D01*
X26727Y-31477D02*
X26725Y-31478D01*
X26725Y-31478D02*
X26723Y-31479D01*
X26723Y-31479D02*
X26722Y-31479D01*
X26722Y-31479D02*
X26720Y-31479D01*
X26720Y-31479D02*
X26719Y-31479D01*
X26719Y-31479D02*
X26717Y-31479D01*
X26717Y-31479D02*
X26715Y-31478D01*
X26715Y-31478D02*
X26714Y-31477D01*
X26714Y-31477D02*
X26712Y-31475D01*
X26712Y-31475D02*
X26711Y-31473D01*
X26711Y-31473D02*
X26711Y-31472D01*
X26711Y-31472D02*
X26711Y-31470D01*
X26711Y-31470D02*
X26711Y-31469D01*
X26711Y-31469D02*
X26711Y-31467D01*
X26711Y-31467D02*
X26712Y-31465D01*
X26712Y-31465D02*
X26713Y-31464D01*
X26713Y-31464D02*
X26715Y-31462D01*
X26715Y-31462D02*
X26716Y-31461D01*
X26716Y-31461D02*
X26718Y-31461D01*
X26718Y-31461D02*
X26720Y-31461D01*
X26720Y-31461D02*
X26721Y-31461D01*
X26721Y-31461D02*
X26723Y-31461D01*
X26723Y-31461D02*
X26725Y-31462D01*
X26725Y-31462D02*
X26726Y-31463D01*
X26726Y-31463D02*
X26728Y-31465D01*
X26728Y-31465D02*
X26729Y-31466D01*
X26729Y-31466D02*
X26729Y-31468D01*
X26729Y-31468D02*
X26729Y-31470D01*
X26729Y-31470D02*
X26730Y-31470D01*
X27450Y-31470D02*
X27449Y-31471D01*
X27449Y-31471D02*
X27449Y-31473D01*
X27449Y-31473D02*
X27448Y-31475D01*
X27448Y-31475D02*
X27447Y-31477D01*
X27447Y-31477D02*
X27445Y-31478D01*
X27445Y-31478D02*
X27443Y-31479D01*
X27443Y-31479D02*
X27442Y-31479D01*
X27442Y-31479D02*
X27440Y-31479D01*
X27440Y-31479D02*
X27439Y-31479D01*
X27439Y-31479D02*
X27437Y-31479D01*
X27437Y-31479D02*
X27435Y-31478D01*
X27435Y-31478D02*
X27434Y-31477D01*
X27434Y-31477D02*
X27432Y-31475D01*
X27432Y-31475D02*
X27431Y-31473D01*
X27431Y-31473D02*
X27431Y-31472D01*
X27431Y-31472D02*
X27431Y-31470D01*
X27431Y-31470D02*
X27431Y-31469D01*
X27431Y-31469D02*
X27431Y-31467D01*
X27431Y-31467D02*
X27432Y-31465D01*
X27432Y-31465D02*
X27433Y-31464D01*
X27433Y-31464D02*
X27435Y-31462D01*
X27435Y-31462D02*
X27436Y-31461D01*
X27436Y-31461D02*
X27438Y-31461D01*
X27438Y-31461D02*
X27440Y-31461D01*
X27440Y-31461D02*
X27441Y-31461D01*
X27441Y-31461D02*
X27443Y-31461D01*
X27443Y-31461D02*
X27445Y-31462D01*
X27445Y-31462D02*
X27446Y-31463D01*
X27446Y-31463D02*
X27448Y-31465D01*
X27448Y-31465D02*
X27449Y-31466D01*
X27449Y-31466D02*
X27449Y-31468D01*
X27449Y-31468D02*
X27449Y-31470D01*
X27449Y-31470D02*
X27450Y-31470D01*
X27270Y-31470D02*
X27269Y-31471D01*
X27269Y-31471D02*
X27269Y-31473D01*
X27269Y-31473D02*
X27268Y-31475D01*
X27268Y-31475D02*
X27267Y-31477D01*
X27267Y-31477D02*
X27265Y-31478D01*
X27265Y-31478D02*
X27263Y-31479D01*
X27263Y-31479D02*
X27262Y-31479D01*
X27262Y-31479D02*
X27260Y-31479D01*
X27260Y-31479D02*
X27259Y-31479D01*
X27259Y-31479D02*
X27257Y-31479D01*
X27257Y-31479D02*
X27255Y-31478D01*
X27255Y-31478D02*
X27254Y-31477D01*
X27254Y-31477D02*
X27252Y-31475D01*
X27252Y-31475D02*
X27251Y-31473D01*
X27251Y-31473D02*
X27251Y-31472D01*
X27251Y-31472D02*
X27251Y-31470D01*
X27251Y-31470D02*
X27251Y-31469D01*
X27251Y-31469D02*
X27251Y-31467D01*
X27251Y-31467D02*
X27252Y-31465D01*
X27252Y-31465D02*
X27253Y-31464D01*
X27253Y-31464D02*
X27255Y-31462D01*
X27255Y-31462D02*
X27256Y-31461D01*
X27256Y-31461D02*
X27258Y-31461D01*
X27258Y-31461D02*
X27260Y-31461D01*
X27260Y-31461D02*
X27261Y-31461D01*
X27261Y-31461D02*
X27263Y-31461D01*
X27263Y-31461D02*
X27265Y-31462D01*
X27265Y-31462D02*
X27266Y-31463D01*
X27266Y-31463D02*
X27268Y-31465D01*
X27268Y-31465D02*
X27269Y-31466D01*
X27269Y-31466D02*
X27269Y-31468D01*
X27269Y-31468D02*
X27269Y-31470D01*
X27269Y-31470D02*
X27270Y-31470D01*
X26550Y-31290D02*
X26549Y-31291D01*
X26549Y-31291D02*
X26549Y-31293D01*
X26549Y-31293D02*
X26548Y-31295D01*
X26548Y-31295D02*
X26547Y-31297D01*
X26547Y-31297D02*
X26545Y-31298D01*
X26545Y-31298D02*
X26543Y-31299D01*
X26543Y-31299D02*
X26542Y-31299D01*
X26542Y-31299D02*
X26540Y-31299D01*
X26540Y-31299D02*
X26539Y-31299D01*
X26539Y-31299D02*
X26537Y-31299D01*
X26537Y-31299D02*
X26535Y-31298D01*
X26535Y-31298D02*
X26534Y-31297D01*
X26534Y-31297D02*
X26532Y-31295D01*
X26532Y-31295D02*
X26531Y-31293D01*
X26531Y-31293D02*
X26531Y-31292D01*
X26531Y-31292D02*
X26531Y-31290D01*
X26531Y-31290D02*
X26531Y-31289D01*
X26531Y-31289D02*
X26531Y-31287D01*
X26531Y-31287D02*
X26532Y-31285D01*
X26532Y-31285D02*
X26533Y-31284D01*
X26533Y-31284D02*
X26535Y-31282D01*
X26535Y-31282D02*
X26536Y-31281D01*
X26536Y-31281D02*
X26538Y-31281D01*
X26538Y-31281D02*
X26540Y-31281D01*
X26540Y-31281D02*
X26541Y-31281D01*
X26541Y-31281D02*
X26543Y-31281D01*
X26543Y-31281D02*
X26545Y-31282D01*
X26545Y-31282D02*
X26546Y-31283D01*
X26546Y-31283D02*
X26548Y-31285D01*
X26548Y-31285D02*
X26549Y-31286D01*
X26549Y-31286D02*
X26549Y-31288D01*
X26549Y-31288D02*
X26549Y-31290D01*
X26549Y-31290D02*
X26550Y-31290D01*
X26730Y-31290D02*
X26729Y-31291D01*
X26729Y-31291D02*
X26729Y-31293D01*
X26729Y-31293D02*
X26728Y-31295D01*
X26728Y-31295D02*
X26727Y-31297D01*
X26727Y-31297D02*
X26725Y-31298D01*
X26725Y-31298D02*
X26723Y-31299D01*
X26723Y-31299D02*
X26722Y-31299D01*
X26722Y-31299D02*
X26720Y-31299D01*
X26720Y-31299D02*
X26719Y-31299D01*
X26719Y-31299D02*
X26717Y-31299D01*
X26717Y-31299D02*
X26715Y-31298D01*
X26715Y-31298D02*
X26714Y-31297D01*
X26714Y-31297D02*
X26712Y-31295D01*
X26712Y-31295D02*
X26711Y-31293D01*
X26711Y-31293D02*
X26711Y-31292D01*
X26711Y-31292D02*
X26711Y-31290D01*
X26711Y-31290D02*
X26711Y-31289D01*
X26711Y-31289D02*
X26711Y-31287D01*
X26711Y-31287D02*
X26712Y-31285D01*
X26712Y-31285D02*
X26713Y-31284D01*
X26713Y-31284D02*
X26715Y-31282D01*
X26715Y-31282D02*
X26716Y-31281D01*
X26716Y-31281D02*
X26718Y-31281D01*
X26718Y-31281D02*
X26720Y-31281D01*
X26720Y-31281D02*
X26721Y-31281D01*
X26721Y-31281D02*
X26723Y-31281D01*
X26723Y-31281D02*
X26725Y-31282D01*
X26725Y-31282D02*
X26726Y-31283D01*
X26726Y-31283D02*
X26728Y-31285D01*
X26728Y-31285D02*
X26729Y-31286D01*
X26729Y-31286D02*
X26729Y-31288D01*
X26729Y-31288D02*
X26729Y-31290D01*
X26729Y-31290D02*
X26730Y-31290D01*
X27450Y-31290D02*
X27449Y-31291D01*
X27449Y-31291D02*
X27449Y-31293D01*
X27449Y-31293D02*
X27448Y-31295D01*
X27448Y-31295D02*
X27447Y-31297D01*
X27447Y-31297D02*
X27445Y-31298D01*
X27445Y-31298D02*
X27443Y-31299D01*
X27443Y-31299D02*
X27442Y-31299D01*
X27442Y-31299D02*
X27440Y-31299D01*
X27440Y-31299D02*
X27439Y-31299D01*
X27439Y-31299D02*
X27437Y-31299D01*
X27437Y-31299D02*
X27435Y-31298D01*
X27435Y-31298D02*
X27434Y-31297D01*
X27434Y-31297D02*
X27432Y-31295D01*
X27432Y-31295D02*
X27431Y-31293D01*
X27431Y-31293D02*
X27431Y-31292D01*
X27431Y-31292D02*
X27431Y-31290D01*
X27431Y-31290D02*
X27431Y-31289D01*
X27431Y-31289D02*
X27431Y-31287D01*
X27431Y-31287D02*
X27432Y-31285D01*
X27432Y-31285D02*
X27433Y-31284D01*
X27433Y-31284D02*
X27435Y-31282D01*
X27435Y-31282D02*
X27436Y-31281D01*
X27436Y-31281D02*
X27438Y-31281D01*
X27438Y-31281D02*
X27440Y-31281D01*
X27440Y-31281D02*
X27441Y-31281D01*
X27441Y-31281D02*
X27443Y-31281D01*
X27443Y-31281D02*
X27445Y-31282D01*
X27445Y-31282D02*
X27446Y-31283D01*
X27446Y-31283D02*
X27448Y-31285D01*
X27448Y-31285D02*
X27449Y-31286D01*
X27449Y-31286D02*
X27449Y-31288D01*
X27449Y-31288D02*
X27449Y-31290D01*
X27449Y-31290D02*
X27450Y-31290D01*
X27270Y-31290D02*
X27269Y-31291D01*
X27269Y-31291D02*
X27269Y-31293D01*
X27269Y-31293D02*
X27268Y-31295D01*
X27268Y-31295D02*
X27267Y-31297D01*
X27267Y-31297D02*
X27265Y-31298D01*
X27265Y-31298D02*
X27263Y-31299D01*
X27263Y-31299D02*
X27262Y-31299D01*
X27262Y-31299D02*
X27260Y-31299D01*
X27260Y-31299D02*
X27259Y-31299D01*
X27259Y-31299D02*
X27257Y-31299D01*
X27257Y-31299D02*
X27255Y-31298D01*
X27255Y-31298D02*
X27254Y-31297D01*
X27254Y-31297D02*
X27252Y-31295D01*
X27252Y-31295D02*
X27251Y-31293D01*
X27251Y-31293D02*
X27251Y-31292D01*
X27251Y-31292D02*
X27251Y-31290D01*
X27251Y-31290D02*
X27251Y-31289D01*
X27251Y-31289D02*
X27251Y-31287D01*
X27251Y-31287D02*
X27252Y-31285D01*
X27252Y-31285D02*
X27253Y-31284D01*
X27253Y-31284D02*
X27255Y-31282D01*
X27255Y-31282D02*
X27256Y-31281D01*
X27256Y-31281D02*
X27258Y-31281D01*
X27258Y-31281D02*
X27260Y-31281D01*
X27260Y-31281D02*
X27261Y-31281D01*
X27261Y-31281D02*
X27263Y-31281D01*
X27263Y-31281D02*
X27265Y-31282D01*
X27265Y-31282D02*
X27266Y-31283D01*
X27266Y-31283D02*
X27268Y-31285D01*
X27268Y-31285D02*
X27269Y-31286D01*
X27269Y-31286D02*
X27269Y-31288D01*
X27269Y-31288D02*
X27269Y-31290D01*
X27269Y-31290D02*
X27270Y-31290D01*
X26910Y-31830D02*
X26909Y-31831D01*
X26909Y-31831D02*
X26909Y-31833D01*
X26909Y-31833D02*
X26908Y-31835D01*
X26908Y-31835D02*
X26907Y-31837D01*
X26907Y-31837D02*
X26905Y-31838D01*
X26905Y-31838D02*
X26903Y-31839D01*
X26903Y-31839D02*
X26902Y-31839D01*
X26902Y-31839D02*
X26900Y-31839D01*
X26900Y-31839D02*
X26899Y-31839D01*
X26899Y-31839D02*
X26897Y-31839D01*
X26897Y-31839D02*
X26895Y-31838D01*
X26895Y-31838D02*
X26894Y-31837D01*
X26894Y-31837D02*
X26892Y-31835D01*
X26892Y-31835D02*
X26891Y-31833D01*
X26891Y-31833D02*
X26891Y-31832D01*
X26891Y-31832D02*
X26891Y-31830D01*
X26891Y-31830D02*
X26891Y-31829D01*
X26891Y-31829D02*
X26891Y-31827D01*
X26891Y-31827D02*
X26892Y-31825D01*
X26892Y-31825D02*
X26893Y-31824D01*
X26893Y-31824D02*
X26895Y-31822D01*
X26895Y-31822D02*
X26896Y-31821D01*
X26896Y-31821D02*
X26898Y-31821D01*
X26898Y-31821D02*
X26900Y-31821D01*
X26900Y-31821D02*
X26901Y-31821D01*
X26901Y-31821D02*
X26903Y-31821D01*
X26903Y-31821D02*
X26905Y-31822D01*
X26905Y-31822D02*
X26906Y-31823D01*
X26906Y-31823D02*
X26908Y-31825D01*
X26908Y-31825D02*
X26909Y-31826D01*
X26909Y-31826D02*
X26909Y-31828D01*
X26909Y-31828D02*
X26909Y-31830D01*
X26909Y-31830D02*
X26910Y-31830D01*
X27090Y-31830D02*
X27089Y-31831D01*
X27089Y-31831D02*
X27089Y-31833D01*
X27089Y-31833D02*
X27088Y-31835D01*
X27088Y-31835D02*
X27087Y-31837D01*
X27087Y-31837D02*
X27085Y-31838D01*
X27085Y-31838D02*
X27083Y-31839D01*
X27083Y-31839D02*
X27082Y-31839D01*
X27082Y-31839D02*
X27080Y-31839D01*
X27080Y-31839D02*
X27079Y-31839D01*
X27079Y-31839D02*
X27077Y-31839D01*
X27077Y-31839D02*
X27075Y-31838D01*
X27075Y-31838D02*
X27074Y-31837D01*
X27074Y-31837D02*
X27072Y-31835D01*
X27072Y-31835D02*
X27071Y-31833D01*
X27071Y-31833D02*
X27071Y-31832D01*
X27071Y-31832D02*
X27071Y-31830D01*
X27071Y-31830D02*
X27071Y-31829D01*
X27071Y-31829D02*
X27071Y-31827D01*
X27071Y-31827D02*
X27072Y-31825D01*
X27072Y-31825D02*
X27073Y-31824D01*
X27073Y-31824D02*
X27075Y-31822D01*
X27075Y-31822D02*
X27076Y-31821D01*
X27076Y-31821D02*
X27078Y-31821D01*
X27078Y-31821D02*
X27080Y-31821D01*
X27080Y-31821D02*
X27081Y-31821D01*
X27081Y-31821D02*
X27083Y-31821D01*
X27083Y-31821D02*
X27085Y-31822D01*
X27085Y-31822D02*
X27086Y-31823D01*
X27086Y-31823D02*
X27088Y-31825D01*
X27088Y-31825D02*
X27089Y-31826D01*
X27089Y-31826D02*
X27089Y-31828D01*
X27089Y-31828D02*
X27089Y-31830D01*
X27089Y-31830D02*
X27090Y-31830D01*
X27090Y-32010D02*
X27089Y-32011D01*
X27089Y-32011D02*
X27089Y-32013D01*
X27089Y-32013D02*
X27088Y-32015D01*
X27088Y-32015D02*
X27087Y-32017D01*
X27087Y-32017D02*
X27085Y-32018D01*
X27085Y-32018D02*
X27083Y-32019D01*
X27083Y-32019D02*
X27082Y-32019D01*
X27082Y-32019D02*
X27080Y-32019D01*
X27080Y-32019D02*
X27079Y-32019D01*
X27079Y-32019D02*
X27077Y-32019D01*
X27077Y-32019D02*
X27075Y-32018D01*
X27075Y-32018D02*
X27074Y-32017D01*
X27074Y-32017D02*
X27072Y-32015D01*
X27072Y-32015D02*
X27071Y-32013D01*
X27071Y-32013D02*
X27071Y-32012D01*
X27071Y-32012D02*
X27071Y-32010D01*
X27071Y-32010D02*
X27071Y-32009D01*
X27071Y-32009D02*
X27071Y-32007D01*
X27071Y-32007D02*
X27072Y-32005D01*
X27072Y-32005D02*
X27073Y-32004D01*
X27073Y-32004D02*
X27075Y-32002D01*
X27075Y-32002D02*
X27076Y-32001D01*
X27076Y-32001D02*
X27078Y-32001D01*
X27078Y-32001D02*
X27080Y-32001D01*
X27080Y-32001D02*
X27081Y-32001D01*
X27081Y-32001D02*
X27083Y-32001D01*
X27083Y-32001D02*
X27085Y-32002D01*
X27085Y-32002D02*
X27086Y-32003D01*
X27086Y-32003D02*
X27088Y-32005D01*
X27088Y-32005D02*
X27089Y-32006D01*
X27089Y-32006D02*
X27089Y-32008D01*
X27089Y-32008D02*
X27089Y-32010D01*
X27089Y-32010D02*
X27090Y-32010D01*
X27630Y-32010D02*
X27629Y-32011D01*
X27629Y-32011D02*
X27629Y-32013D01*
X27629Y-32013D02*
X27628Y-32015D01*
X27628Y-32015D02*
X27627Y-32017D01*
X27627Y-32017D02*
X27625Y-32018D01*
X27625Y-32018D02*
X27623Y-32019D01*
X27623Y-32019D02*
X27622Y-32019D01*
X27622Y-32019D02*
X27620Y-32019D01*
X27620Y-32019D02*
X27619Y-32019D01*
X27619Y-32019D02*
X27617Y-32019D01*
X27617Y-32019D02*
X27615Y-32018D01*
X27615Y-32018D02*
X27614Y-32017D01*
X27614Y-32017D02*
X27612Y-32015D01*
X27612Y-32015D02*
X27611Y-32013D01*
X27611Y-32013D02*
X27611Y-32012D01*
X27611Y-32012D02*
X27611Y-32010D01*
X27611Y-32010D02*
X27611Y-32009D01*
X27611Y-32009D02*
X27611Y-32007D01*
X27611Y-32007D02*
X27612Y-32005D01*
X27612Y-32005D02*
X27613Y-32004D01*
X27613Y-32004D02*
X27615Y-32002D01*
X27615Y-32002D02*
X27616Y-32001D01*
X27616Y-32001D02*
X27618Y-32001D01*
X27618Y-32001D02*
X27620Y-32001D01*
X27620Y-32001D02*
X27621Y-32001D01*
X27621Y-32001D02*
X27623Y-32001D01*
X27623Y-32001D02*
X27625Y-32002D01*
X27625Y-32002D02*
X27626Y-32003D01*
X27626Y-32003D02*
X27628Y-32005D01*
X27628Y-32005D02*
X27629Y-32006D01*
X27629Y-32006D02*
X27629Y-32008D01*
X27629Y-32008D02*
X27629Y-32010D01*
X27629Y-32010D02*
X27630Y-32010D01*
X26910Y-32010D02*
X26909Y-32011D01*
X26909Y-32011D02*
X26909Y-32013D01*
X26909Y-32013D02*
X26908Y-32015D01*
X26908Y-32015D02*
X26907Y-32017D01*
X26907Y-32017D02*
X26905Y-32018D01*
X26905Y-32018D02*
X26903Y-32019D01*
X26903Y-32019D02*
X26902Y-32019D01*
X26902Y-32019D02*
X26900Y-32019D01*
X26900Y-32019D02*
X26899Y-32019D01*
X26899Y-32019D02*
X26897Y-32019D01*
X26897Y-32019D02*
X26895Y-32018D01*
X26895Y-32018D02*
X26894Y-32017D01*
X26894Y-32017D02*
X26892Y-32015D01*
X26892Y-32015D02*
X26891Y-32013D01*
X26891Y-32013D02*
X26891Y-32012D01*
X26891Y-32012D02*
X26891Y-32010D01*
X26891Y-32010D02*
X26891Y-32009D01*
X26891Y-32009D02*
X26891Y-32007D01*
X26891Y-32007D02*
X26892Y-32005D01*
X26892Y-32005D02*
X26893Y-32004D01*
X26893Y-32004D02*
X26895Y-32002D01*
X26895Y-32002D02*
X26896Y-32001D01*
X26896Y-32001D02*
X26898Y-32001D01*
X26898Y-32001D02*
X26900Y-32001D01*
X26900Y-32001D02*
X26901Y-32001D01*
X26901Y-32001D02*
X26903Y-32001D01*
X26903Y-32001D02*
X26905Y-32002D01*
X26905Y-32002D02*
X26906Y-32003D01*
X26906Y-32003D02*
X26908Y-32005D01*
X26908Y-32005D02*
X26909Y-32006D01*
X26909Y-32006D02*
X26909Y-32008D01*
X26909Y-32008D02*
X26909Y-32010D01*
X26909Y-32010D02*
X26910Y-32010D01*
X26370Y-32010D02*
X26369Y-32011D01*
X26369Y-32011D02*
X26369Y-32013D01*
X26369Y-32013D02*
X26368Y-32015D01*
X26368Y-32015D02*
X26367Y-32017D01*
X26367Y-32017D02*
X26365Y-32018D01*
X26365Y-32018D02*
X26363Y-32019D01*
X26363Y-32019D02*
X26362Y-32019D01*
X26362Y-32019D02*
X26360Y-32019D01*
X26360Y-32019D02*
X26359Y-32019D01*
X26359Y-32019D02*
X26357Y-32019D01*
X26357Y-32019D02*
X26355Y-32018D01*
X26355Y-32018D02*
X26354Y-32017D01*
X26354Y-32017D02*
X26352Y-32015D01*
X26352Y-32015D02*
X26351Y-32013D01*
X26351Y-32013D02*
X26351Y-32012D01*
X26351Y-32012D02*
X26351Y-32010D01*
X26351Y-32010D02*
X26351Y-32009D01*
X26351Y-32009D02*
X26351Y-32007D01*
X26351Y-32007D02*
X26352Y-32005D01*
X26352Y-32005D02*
X26353Y-32004D01*
X26353Y-32004D02*
X26355Y-32002D01*
X26355Y-32002D02*
X26356Y-32001D01*
X26356Y-32001D02*
X26358Y-32001D01*
X26358Y-32001D02*
X26360Y-32001D01*
X26360Y-32001D02*
X26361Y-32001D01*
X26361Y-32001D02*
X26363Y-32001D01*
X26363Y-32001D02*
X26365Y-32002D01*
X26365Y-32002D02*
X26366Y-32003D01*
X26366Y-32003D02*
X26368Y-32005D01*
X26368Y-32005D02*
X26369Y-32006D01*
X26369Y-32006D02*
X26369Y-32008D01*
X26369Y-32008D02*
X26369Y-32010D01*
X26369Y-32010D02*
X26370Y-32010D01*
X26910Y-32370D02*
X26909Y-32371D01*
X26909Y-32371D02*
X26909Y-32373D01*
X26909Y-32373D02*
X26908Y-32375D01*
X26908Y-32375D02*
X26907Y-32377D01*
X26907Y-32377D02*
X26905Y-32378D01*
X26905Y-32378D02*
X26903Y-32379D01*
X26903Y-32379D02*
X26902Y-32379D01*
X26902Y-32379D02*
X26900Y-32379D01*
X26900Y-32379D02*
X26899Y-32379D01*
X26899Y-32379D02*
X26897Y-32379D01*
X26897Y-32379D02*
X26895Y-32378D01*
X26895Y-32378D02*
X26894Y-32377D01*
X26894Y-32377D02*
X26892Y-32375D01*
X26892Y-32375D02*
X26891Y-32373D01*
X26891Y-32373D02*
X26891Y-32372D01*
X26891Y-32372D02*
X26891Y-32370D01*
X26891Y-32370D02*
X26891Y-32369D01*
X26891Y-32369D02*
X26891Y-32367D01*
X26891Y-32367D02*
X26892Y-32365D01*
X26892Y-32365D02*
X26893Y-32364D01*
X26893Y-32364D02*
X26895Y-32362D01*
X26895Y-32362D02*
X26896Y-32361D01*
X26896Y-32361D02*
X26898Y-32361D01*
X26898Y-32361D02*
X26900Y-32361D01*
X26900Y-32361D02*
X26901Y-32361D01*
X26901Y-32361D02*
X26903Y-32361D01*
X26903Y-32361D02*
X26905Y-32362D01*
X26905Y-32362D02*
X26906Y-32363D01*
X26906Y-32363D02*
X26908Y-32365D01*
X26908Y-32365D02*
X26909Y-32366D01*
X26909Y-32366D02*
X26909Y-32368D01*
X26909Y-32368D02*
X26909Y-32370D01*
X26909Y-32370D02*
X26910Y-32370D01*
X26730Y-32370D02*
X26729Y-32371D01*
X26729Y-32371D02*
X26729Y-32373D01*
X26729Y-32373D02*
X26728Y-32375D01*
X26728Y-32375D02*
X26727Y-32377D01*
X26727Y-32377D02*
X26725Y-32378D01*
X26725Y-32378D02*
X26723Y-32379D01*
X26723Y-32379D02*
X26722Y-32379D01*
X26722Y-32379D02*
X26720Y-32379D01*
X26720Y-32379D02*
X26719Y-32379D01*
X26719Y-32379D02*
X26717Y-32379D01*
X26717Y-32379D02*
X26715Y-32378D01*
X26715Y-32378D02*
X26714Y-32377D01*
X26714Y-32377D02*
X26712Y-32375D01*
X26712Y-32375D02*
X26711Y-32373D01*
X26711Y-32373D02*
X26711Y-32372D01*
X26711Y-32372D02*
X26711Y-32370D01*
X26711Y-32370D02*
X26711Y-32369D01*
X26711Y-32369D02*
X26711Y-32367D01*
X26711Y-32367D02*
X26712Y-32365D01*
X26712Y-32365D02*
X26713Y-32364D01*
X26713Y-32364D02*
X26715Y-32362D01*
X26715Y-32362D02*
X26716Y-32361D01*
X26716Y-32361D02*
X26718Y-32361D01*
X26718Y-32361D02*
X26720Y-32361D01*
X26720Y-32361D02*
X26721Y-32361D01*
X26721Y-32361D02*
X26723Y-32361D01*
X26723Y-32361D02*
X26725Y-32362D01*
X26725Y-32362D02*
X26726Y-32363D01*
X26726Y-32363D02*
X26728Y-32365D01*
X26728Y-32365D02*
X26729Y-32366D01*
X26729Y-32366D02*
X26729Y-32368D01*
X26729Y-32368D02*
X26729Y-32370D01*
X26729Y-32370D02*
X26730Y-32370D01*
X27270Y-32370D02*
X27269Y-32371D01*
X27269Y-32371D02*
X27269Y-32373D01*
X27269Y-32373D02*
X27268Y-32375D01*
X27268Y-32375D02*
X27267Y-32377D01*
X27267Y-32377D02*
X27265Y-32378D01*
X27265Y-32378D02*
X27263Y-32379D01*
X27263Y-32379D02*
X27262Y-32379D01*
X27262Y-32379D02*
X27260Y-32379D01*
X27260Y-32379D02*
X27259Y-32379D01*
X27259Y-32379D02*
X27257Y-32379D01*
X27257Y-32379D02*
X27255Y-32378D01*
X27255Y-32378D02*
X27254Y-32377D01*
X27254Y-32377D02*
X27252Y-32375D01*
X27252Y-32375D02*
X27251Y-32373D01*
X27251Y-32373D02*
X27251Y-32372D01*
X27251Y-32372D02*
X27251Y-32370D01*
X27251Y-32370D02*
X27251Y-32369D01*
X27251Y-32369D02*
X27251Y-32367D01*
X27251Y-32367D02*
X27252Y-32365D01*
X27252Y-32365D02*
X27253Y-32364D01*
X27253Y-32364D02*
X27255Y-32362D01*
X27255Y-32362D02*
X27256Y-32361D01*
X27256Y-32361D02*
X27258Y-32361D01*
X27258Y-32361D02*
X27260Y-32361D01*
X27260Y-32361D02*
X27261Y-32361D01*
X27261Y-32361D02*
X27263Y-32361D01*
X27263Y-32361D02*
X27265Y-32362D01*
X27265Y-32362D02*
X27266Y-32363D01*
X27266Y-32363D02*
X27268Y-32365D01*
X27268Y-32365D02*
X27269Y-32366D01*
X27269Y-32366D02*
X27269Y-32368D01*
X27269Y-32368D02*
X27269Y-32370D01*
X27269Y-32370D02*
X27270Y-32370D01*
X27090Y-32370D02*
X27089Y-32371D01*
X27089Y-32371D02*
X27089Y-32373D01*
X27089Y-32373D02*
X27088Y-32375D01*
X27088Y-32375D02*
X27087Y-32377D01*
X27087Y-32377D02*
X27085Y-32378D01*
X27085Y-32378D02*
X27083Y-32379D01*
X27083Y-32379D02*
X27082Y-32379D01*
X27082Y-32379D02*
X27080Y-32379D01*
X27080Y-32379D02*
X27079Y-32379D01*
X27079Y-32379D02*
X27077Y-32379D01*
X27077Y-32379D02*
X27075Y-32378D01*
X27075Y-32378D02*
X27074Y-32377D01*
X27074Y-32377D02*
X27072Y-32375D01*
X27072Y-32375D02*
X27071Y-32373D01*
X27071Y-32373D02*
X27071Y-32372D01*
X27071Y-32372D02*
X27071Y-32370D01*
X27071Y-32370D02*
X27071Y-32369D01*
X27071Y-32369D02*
X27071Y-32367D01*
X27071Y-32367D02*
X27072Y-32365D01*
X27072Y-32365D02*
X27073Y-32364D01*
X27073Y-32364D02*
X27075Y-32362D01*
X27075Y-32362D02*
X27076Y-32361D01*
X27076Y-32361D02*
X27078Y-32361D01*
X27078Y-32361D02*
X27080Y-32361D01*
X27080Y-32361D02*
X27081Y-32361D01*
X27081Y-32361D02*
X27083Y-32361D01*
X27083Y-32361D02*
X27085Y-32362D01*
X27085Y-32362D02*
X27086Y-32363D01*
X27086Y-32363D02*
X27088Y-32365D01*
X27088Y-32365D02*
X27089Y-32366D01*
X27089Y-32366D02*
X27089Y-32368D01*
X27089Y-32368D02*
X27089Y-32370D01*
X27089Y-32370D02*
X27090Y-32370D01*
X27450Y-32190D02*
X27449Y-32191D01*
X27449Y-32191D02*
X27449Y-32193D01*
X27449Y-32193D02*
X27448Y-32195D01*
X27448Y-32195D02*
X27447Y-32197D01*
X27447Y-32197D02*
X27445Y-32198D01*
X27445Y-32198D02*
X27443Y-32199D01*
X27443Y-32199D02*
X27442Y-32199D01*
X27442Y-32199D02*
X27440Y-32199D01*
X27440Y-32199D02*
X27439Y-32199D01*
X27439Y-32199D02*
X27437Y-32199D01*
X27437Y-32199D02*
X27435Y-32198D01*
X27435Y-32198D02*
X27434Y-32197D01*
X27434Y-32197D02*
X27432Y-32195D01*
X27432Y-32195D02*
X27431Y-32193D01*
X27431Y-32193D02*
X27431Y-32192D01*
X27431Y-32192D02*
X27431Y-32190D01*
X27431Y-32190D02*
X27431Y-32189D01*
X27431Y-32189D02*
X27431Y-32187D01*
X27431Y-32187D02*
X27432Y-32185D01*
X27432Y-32185D02*
X27433Y-32184D01*
X27433Y-32184D02*
X27435Y-32182D01*
X27435Y-32182D02*
X27436Y-32181D01*
X27436Y-32181D02*
X27438Y-32181D01*
X27438Y-32181D02*
X27440Y-32181D01*
X27440Y-32181D02*
X27441Y-32181D01*
X27441Y-32181D02*
X27443Y-32181D01*
X27443Y-32181D02*
X27445Y-32182D01*
X27445Y-32182D02*
X27446Y-32183D01*
X27446Y-32183D02*
X27448Y-32185D01*
X27448Y-32185D02*
X27449Y-32186D01*
X27449Y-32186D02*
X27449Y-32188D01*
X27449Y-32188D02*
X27449Y-32190D01*
X27449Y-32190D02*
X27450Y-32190D01*
X26550Y-32190D02*
X26549Y-32191D01*
X26549Y-32191D02*
X26549Y-32193D01*
X26549Y-32193D02*
X26548Y-32195D01*
X26548Y-32195D02*
X26547Y-32197D01*
X26547Y-32197D02*
X26545Y-32198D01*
X26545Y-32198D02*
X26543Y-32199D01*
X26543Y-32199D02*
X26542Y-32199D01*
X26542Y-32199D02*
X26540Y-32199D01*
X26540Y-32199D02*
X26539Y-32199D01*
X26539Y-32199D02*
X26537Y-32199D01*
X26537Y-32199D02*
X26535Y-32198D01*
X26535Y-32198D02*
X26534Y-32197D01*
X26534Y-32197D02*
X26532Y-32195D01*
X26532Y-32195D02*
X26531Y-32193D01*
X26531Y-32193D02*
X26531Y-32192D01*
X26531Y-32192D02*
X26531Y-32190D01*
X26531Y-32190D02*
X26531Y-32189D01*
X26531Y-32189D02*
X26531Y-32187D01*
X26531Y-32187D02*
X26532Y-32185D01*
X26532Y-32185D02*
X26533Y-32184D01*
X26533Y-32184D02*
X26535Y-32182D01*
X26535Y-32182D02*
X26536Y-32181D01*
X26536Y-32181D02*
X26538Y-32181D01*
X26538Y-32181D02*
X26540Y-32181D01*
X26540Y-32181D02*
X26541Y-32181D01*
X26541Y-32181D02*
X26543Y-32181D01*
X26543Y-32181D02*
X26545Y-32182D01*
X26545Y-32182D02*
X26546Y-32183D01*
X26546Y-32183D02*
X26548Y-32185D01*
X26548Y-32185D02*
X26549Y-32186D01*
X26549Y-32186D02*
X26549Y-32188D01*
X26549Y-32188D02*
X26549Y-32190D01*
X26549Y-32190D02*
X26550Y-32190D01*
X38320Y-32190D02*
X38319Y-32191D01*
X38319Y-32191D02*
X38319Y-32193D01*
X38319Y-32193D02*
X38318Y-32195D01*
X38318Y-32195D02*
X38317Y-32197D01*
X38317Y-32197D02*
X38315Y-32198D01*
X38315Y-32198D02*
X38313Y-32199D01*
X38313Y-32199D02*
X38312Y-32199D01*
X38312Y-32199D02*
X38310Y-32199D01*
X38310Y-32199D02*
X38309Y-32199D01*
X38309Y-32199D02*
X38307Y-32199D01*
X38307Y-32199D02*
X38305Y-32198D01*
X38305Y-32198D02*
X38304Y-32197D01*
X38304Y-32197D02*
X38302Y-32195D01*
X38302Y-32195D02*
X38301Y-32193D01*
X38301Y-32193D02*
X38301Y-32192D01*
X38301Y-32192D02*
X38301Y-32190D01*
X38301Y-32190D02*
X38301Y-32189D01*
X38301Y-32189D02*
X38301Y-32187D01*
X38301Y-32187D02*
X38302Y-32185D01*
X38302Y-32185D02*
X38303Y-32184D01*
X38303Y-32184D02*
X38305Y-32182D01*
X38305Y-32182D02*
X38306Y-32181D01*
X38306Y-32181D02*
X38308Y-32181D01*
X38308Y-32181D02*
X38310Y-32181D01*
X38310Y-32181D02*
X38311Y-32181D01*
X38311Y-32181D02*
X38313Y-32181D01*
X38313Y-32181D02*
X38315Y-32182D01*
X38315Y-32182D02*
X38316Y-32183D01*
X38316Y-32183D02*
X38318Y-32185D01*
X38318Y-32185D02*
X38319Y-32186D01*
X38319Y-32186D02*
X38319Y-32188D01*
X38319Y-32188D02*
X38319Y-32190D01*
X38319Y-32190D02*
X38320Y-32190D01*
X39220Y-32190D02*
X39219Y-32191D01*
X39219Y-32191D02*
X39219Y-32193D01*
X39219Y-32193D02*
X39218Y-32195D01*
X39218Y-32195D02*
X39217Y-32197D01*
X39217Y-32197D02*
X39215Y-32198D01*
X39215Y-32198D02*
X39213Y-32199D01*
X39213Y-32199D02*
X39212Y-32199D01*
X39212Y-32199D02*
X39210Y-32199D01*
X39210Y-32199D02*
X39209Y-32199D01*
X39209Y-32199D02*
X39207Y-32199D01*
X39207Y-32199D02*
X39205Y-32198D01*
X39205Y-32198D02*
X39204Y-32197D01*
X39204Y-32197D02*
X39202Y-32195D01*
X39202Y-32195D02*
X39201Y-32193D01*
X39201Y-32193D02*
X39201Y-32192D01*
X39201Y-32192D02*
X39201Y-32190D01*
X39201Y-32190D02*
X39201Y-32189D01*
X39201Y-32189D02*
X39201Y-32187D01*
X39201Y-32187D02*
X39202Y-32185D01*
X39202Y-32185D02*
X39203Y-32184D01*
X39203Y-32184D02*
X39205Y-32182D01*
X39205Y-32182D02*
X39206Y-32181D01*
X39206Y-32181D02*
X39208Y-32181D01*
X39208Y-32181D02*
X39210Y-32181D01*
X39210Y-32181D02*
X39211Y-32181D01*
X39211Y-32181D02*
X39213Y-32181D01*
X39213Y-32181D02*
X39215Y-32182D01*
X39215Y-32182D02*
X39216Y-32183D01*
X39216Y-32183D02*
X39218Y-32185D01*
X39218Y-32185D02*
X39219Y-32186D01*
X39219Y-32186D02*
X39219Y-32188D01*
X39219Y-32188D02*
X39219Y-32190D01*
X39219Y-32190D02*
X39220Y-32190D01*
X38860Y-32370D02*
X38859Y-32371D01*
X38859Y-32371D02*
X38859Y-32373D01*
X38859Y-32373D02*
X38858Y-32375D01*
X38858Y-32375D02*
X38857Y-32377D01*
X38857Y-32377D02*
X38855Y-32378D01*
X38855Y-32378D02*
X38853Y-32379D01*
X38853Y-32379D02*
X38852Y-32379D01*
X38852Y-32379D02*
X38850Y-32379D01*
X38850Y-32379D02*
X38849Y-32379D01*
X38849Y-32379D02*
X38847Y-32379D01*
X38847Y-32379D02*
X38845Y-32378D01*
X38845Y-32378D02*
X38844Y-32377D01*
X38844Y-32377D02*
X38842Y-32375D01*
X38842Y-32375D02*
X38841Y-32373D01*
X38841Y-32373D02*
X38841Y-32372D01*
X38841Y-32372D02*
X38841Y-32370D01*
X38841Y-32370D02*
X38841Y-32369D01*
X38841Y-32369D02*
X38841Y-32367D01*
X38841Y-32367D02*
X38842Y-32365D01*
X38842Y-32365D02*
X38843Y-32364D01*
X38843Y-32364D02*
X38845Y-32362D01*
X38845Y-32362D02*
X38846Y-32361D01*
X38846Y-32361D02*
X38848Y-32361D01*
X38848Y-32361D02*
X38850Y-32361D01*
X38850Y-32361D02*
X38851Y-32361D01*
X38851Y-32361D02*
X38853Y-32361D01*
X38853Y-32361D02*
X38855Y-32362D01*
X38855Y-32362D02*
X38856Y-32363D01*
X38856Y-32363D02*
X38858Y-32365D01*
X38858Y-32365D02*
X38859Y-32366D01*
X38859Y-32366D02*
X38859Y-32368D01*
X38859Y-32368D02*
X38859Y-32370D01*
X38859Y-32370D02*
X38860Y-32370D01*
X39040Y-32370D02*
X39039Y-32371D01*
X39039Y-32371D02*
X39039Y-32373D01*
X39039Y-32373D02*
X39038Y-32375D01*
X39038Y-32375D02*
X39037Y-32377D01*
X39037Y-32377D02*
X39035Y-32378D01*
X39035Y-32378D02*
X39033Y-32379D01*
X39033Y-32379D02*
X39032Y-32379D01*
X39032Y-32379D02*
X39030Y-32379D01*
X39030Y-32379D02*
X39029Y-32379D01*
X39029Y-32379D02*
X39027Y-32379D01*
X39027Y-32379D02*
X39025Y-32378D01*
X39025Y-32378D02*
X39024Y-32377D01*
X39024Y-32377D02*
X39022Y-32375D01*
X39022Y-32375D02*
X39021Y-32373D01*
X39021Y-32373D02*
X39021Y-32372D01*
X39021Y-32372D02*
X39021Y-32370D01*
X39021Y-32370D02*
X39021Y-32369D01*
X39021Y-32369D02*
X39021Y-32367D01*
X39021Y-32367D02*
X39022Y-32365D01*
X39022Y-32365D02*
X39023Y-32364D01*
X39023Y-32364D02*
X39025Y-32362D01*
X39025Y-32362D02*
X39026Y-32361D01*
X39026Y-32361D02*
X39028Y-32361D01*
X39028Y-32361D02*
X39030Y-32361D01*
X39030Y-32361D02*
X39031Y-32361D01*
X39031Y-32361D02*
X39033Y-32361D01*
X39033Y-32361D02*
X39035Y-32362D01*
X39035Y-32362D02*
X39036Y-32363D01*
X39036Y-32363D02*
X39038Y-32365D01*
X39038Y-32365D02*
X39039Y-32366D01*
X39039Y-32366D02*
X39039Y-32368D01*
X39039Y-32368D02*
X39039Y-32370D01*
X39039Y-32370D02*
X39040Y-32370D01*
X38500Y-32370D02*
X38499Y-32371D01*
X38499Y-32371D02*
X38499Y-32373D01*
X38499Y-32373D02*
X38498Y-32375D01*
X38498Y-32375D02*
X38497Y-32377D01*
X38497Y-32377D02*
X38495Y-32378D01*
X38495Y-32378D02*
X38493Y-32379D01*
X38493Y-32379D02*
X38492Y-32379D01*
X38492Y-32379D02*
X38490Y-32379D01*
X38490Y-32379D02*
X38489Y-32379D01*
X38489Y-32379D02*
X38487Y-32379D01*
X38487Y-32379D02*
X38485Y-32378D01*
X38485Y-32378D02*
X38484Y-32377D01*
X38484Y-32377D02*
X38482Y-32375D01*
X38482Y-32375D02*
X38481Y-32373D01*
X38481Y-32373D02*
X38481Y-32372D01*
X38481Y-32372D02*
X38481Y-32370D01*
X38481Y-32370D02*
X38481Y-32369D01*
X38481Y-32369D02*
X38481Y-32367D01*
X38481Y-32367D02*
X38482Y-32365D01*
X38482Y-32365D02*
X38483Y-32364D01*
X38483Y-32364D02*
X38485Y-32362D01*
X38485Y-32362D02*
X38486Y-32361D01*
X38486Y-32361D02*
X38488Y-32361D01*
X38488Y-32361D02*
X38490Y-32361D01*
X38490Y-32361D02*
X38491Y-32361D01*
X38491Y-32361D02*
X38493Y-32361D01*
X38493Y-32361D02*
X38495Y-32362D01*
X38495Y-32362D02*
X38496Y-32363D01*
X38496Y-32363D02*
X38498Y-32365D01*
X38498Y-32365D02*
X38499Y-32366D01*
X38499Y-32366D02*
X38499Y-32368D01*
X38499Y-32368D02*
X38499Y-32370D01*
X38499Y-32370D02*
X38500Y-32370D01*
X38680Y-32370D02*
X38679Y-32371D01*
X38679Y-32371D02*
X38679Y-32373D01*
X38679Y-32373D02*
X38678Y-32375D01*
X38678Y-32375D02*
X38677Y-32377D01*
X38677Y-32377D02*
X38675Y-32378D01*
X38675Y-32378D02*
X38673Y-32379D01*
X38673Y-32379D02*
X38672Y-32379D01*
X38672Y-32379D02*
X38670Y-32379D01*
X38670Y-32379D02*
X38669Y-32379D01*
X38669Y-32379D02*
X38667Y-32379D01*
X38667Y-32379D02*
X38665Y-32378D01*
X38665Y-32378D02*
X38664Y-32377D01*
X38664Y-32377D02*
X38662Y-32375D01*
X38662Y-32375D02*
X38661Y-32373D01*
X38661Y-32373D02*
X38661Y-32372D01*
X38661Y-32372D02*
X38661Y-32370D01*
X38661Y-32370D02*
X38661Y-32369D01*
X38661Y-32369D02*
X38661Y-32367D01*
X38661Y-32367D02*
X38662Y-32365D01*
X38662Y-32365D02*
X38663Y-32364D01*
X38663Y-32364D02*
X38665Y-32362D01*
X38665Y-32362D02*
X38666Y-32361D01*
X38666Y-32361D02*
X38668Y-32361D01*
X38668Y-32361D02*
X38670Y-32361D01*
X38670Y-32361D02*
X38671Y-32361D01*
X38671Y-32361D02*
X38673Y-32361D01*
X38673Y-32361D02*
X38675Y-32362D01*
X38675Y-32362D02*
X38676Y-32363D01*
X38676Y-32363D02*
X38678Y-32365D01*
X38678Y-32365D02*
X38679Y-32366D01*
X38679Y-32366D02*
X38679Y-32368D01*
X38679Y-32368D02*
X38679Y-32370D01*
X38679Y-32370D02*
X38680Y-32370D01*
X38140Y-32010D02*
X38139Y-32011D01*
X38139Y-32011D02*
X38139Y-32013D01*
X38139Y-32013D02*
X38138Y-32015D01*
X38138Y-32015D02*
X38137Y-32017D01*
X38137Y-32017D02*
X38135Y-32018D01*
X38135Y-32018D02*
X38133Y-32019D01*
X38133Y-32019D02*
X38132Y-32019D01*
X38132Y-32019D02*
X38130Y-32019D01*
X38130Y-32019D02*
X38129Y-32019D01*
X38129Y-32019D02*
X38127Y-32019D01*
X38127Y-32019D02*
X38125Y-32018D01*
X38125Y-32018D02*
X38124Y-32017D01*
X38124Y-32017D02*
X38122Y-32015D01*
X38122Y-32015D02*
X38121Y-32013D01*
X38121Y-32013D02*
X38121Y-32012D01*
X38121Y-32012D02*
X38121Y-32010D01*
X38121Y-32010D02*
X38121Y-32009D01*
X38121Y-32009D02*
X38121Y-32007D01*
X38121Y-32007D02*
X38122Y-32005D01*
X38122Y-32005D02*
X38123Y-32004D01*
X38123Y-32004D02*
X38125Y-32002D01*
X38125Y-32002D02*
X38126Y-32001D01*
X38126Y-32001D02*
X38128Y-32001D01*
X38128Y-32001D02*
X38130Y-32001D01*
X38130Y-32001D02*
X38131Y-32001D01*
X38131Y-32001D02*
X38133Y-32001D01*
X38133Y-32001D02*
X38135Y-32002D01*
X38135Y-32002D02*
X38136Y-32003D01*
X38136Y-32003D02*
X38138Y-32005D01*
X38138Y-32005D02*
X38139Y-32006D01*
X38139Y-32006D02*
X38139Y-32008D01*
X38139Y-32008D02*
X38139Y-32010D01*
X38139Y-32010D02*
X38140Y-32010D01*
X38680Y-32010D02*
X38679Y-32011D01*
X38679Y-32011D02*
X38679Y-32013D01*
X38679Y-32013D02*
X38678Y-32015D01*
X38678Y-32015D02*
X38677Y-32017D01*
X38677Y-32017D02*
X38675Y-32018D01*
X38675Y-32018D02*
X38673Y-32019D01*
X38673Y-32019D02*
X38672Y-32019D01*
X38672Y-32019D02*
X38670Y-32019D01*
X38670Y-32019D02*
X38669Y-32019D01*
X38669Y-32019D02*
X38667Y-32019D01*
X38667Y-32019D02*
X38665Y-32018D01*
X38665Y-32018D02*
X38664Y-32017D01*
X38664Y-32017D02*
X38662Y-32015D01*
X38662Y-32015D02*
X38661Y-32013D01*
X38661Y-32013D02*
X38661Y-32012D01*
X38661Y-32012D02*
X38661Y-32010D01*
X38661Y-32010D02*
X38661Y-32009D01*
X38661Y-32009D02*
X38661Y-32007D01*
X38661Y-32007D02*
X38662Y-32005D01*
X38662Y-32005D02*
X38663Y-32004D01*
X38663Y-32004D02*
X38665Y-32002D01*
X38665Y-32002D02*
X38666Y-32001D01*
X38666Y-32001D02*
X38668Y-32001D01*
X38668Y-32001D02*
X38670Y-32001D01*
X38670Y-32001D02*
X38671Y-32001D01*
X38671Y-32001D02*
X38673Y-32001D01*
X38673Y-32001D02*
X38675Y-32002D01*
X38675Y-32002D02*
X38676Y-32003D01*
X38676Y-32003D02*
X38678Y-32005D01*
X38678Y-32005D02*
X38679Y-32006D01*
X38679Y-32006D02*
X38679Y-32008D01*
X38679Y-32008D02*
X38679Y-32010D01*
X38679Y-32010D02*
X38680Y-32010D01*
X39400Y-32010D02*
X39399Y-32011D01*
X39399Y-32011D02*
X39399Y-32013D01*
X39399Y-32013D02*
X39398Y-32015D01*
X39398Y-32015D02*
X39397Y-32017D01*
X39397Y-32017D02*
X39395Y-32018D01*
X39395Y-32018D02*
X39393Y-32019D01*
X39393Y-32019D02*
X39392Y-32019D01*
X39392Y-32019D02*
X39390Y-32019D01*
X39390Y-32019D02*
X39389Y-32019D01*
X39389Y-32019D02*
X39387Y-32019D01*
X39387Y-32019D02*
X39385Y-32018D01*
X39385Y-32018D02*
X39384Y-32017D01*
X39384Y-32017D02*
X39382Y-32015D01*
X39382Y-32015D02*
X39381Y-32013D01*
X39381Y-32013D02*
X39381Y-32012D01*
X39381Y-32012D02*
X39381Y-32010D01*
X39381Y-32010D02*
X39381Y-32009D01*
X39381Y-32009D02*
X39381Y-32007D01*
X39381Y-32007D02*
X39382Y-32005D01*
X39382Y-32005D02*
X39383Y-32004D01*
X39383Y-32004D02*
X39385Y-32002D01*
X39385Y-32002D02*
X39386Y-32001D01*
X39386Y-32001D02*
X39388Y-32001D01*
X39388Y-32001D02*
X39390Y-32001D01*
X39390Y-32001D02*
X39391Y-32001D01*
X39391Y-32001D02*
X39393Y-32001D01*
X39393Y-32001D02*
X39395Y-32002D01*
X39395Y-32002D02*
X39396Y-32003D01*
X39396Y-32003D02*
X39398Y-32005D01*
X39398Y-32005D02*
X39399Y-32006D01*
X39399Y-32006D02*
X39399Y-32008D01*
X39399Y-32008D02*
X39399Y-32010D01*
X39399Y-32010D02*
X39400Y-32010D01*
X38860Y-32010D02*
X38859Y-32011D01*
X38859Y-32011D02*
X38859Y-32013D01*
X38859Y-32013D02*
X38858Y-32015D01*
X38858Y-32015D02*
X38857Y-32017D01*
X38857Y-32017D02*
X38855Y-32018D01*
X38855Y-32018D02*
X38853Y-32019D01*
X38853Y-32019D02*
X38852Y-32019D01*
X38852Y-32019D02*
X38850Y-32019D01*
X38850Y-32019D02*
X38849Y-32019D01*
X38849Y-32019D02*
X38847Y-32019D01*
X38847Y-32019D02*
X38845Y-32018D01*
X38845Y-32018D02*
X38844Y-32017D01*
X38844Y-32017D02*
X38842Y-32015D01*
X38842Y-32015D02*
X38841Y-32013D01*
X38841Y-32013D02*
X38841Y-32012D01*
X38841Y-32012D02*
X38841Y-32010D01*
X38841Y-32010D02*
X38841Y-32009D01*
X38841Y-32009D02*
X38841Y-32007D01*
X38841Y-32007D02*
X38842Y-32005D01*
X38842Y-32005D02*
X38843Y-32004D01*
X38843Y-32004D02*
X38845Y-32002D01*
X38845Y-32002D02*
X38846Y-32001D01*
X38846Y-32001D02*
X38848Y-32001D01*
X38848Y-32001D02*
X38850Y-32001D01*
X38850Y-32001D02*
X38851Y-32001D01*
X38851Y-32001D02*
X38853Y-32001D01*
X38853Y-32001D02*
X38855Y-32002D01*
X38855Y-32002D02*
X38856Y-32003D01*
X38856Y-32003D02*
X38858Y-32005D01*
X38858Y-32005D02*
X38859Y-32006D01*
X38859Y-32006D02*
X38859Y-32008D01*
X38859Y-32008D02*
X38859Y-32010D01*
X38859Y-32010D02*
X38860Y-32010D01*
X38860Y-31830D02*
X38859Y-31831D01*
X38859Y-31831D02*
X38859Y-31833D01*
X38859Y-31833D02*
X38858Y-31835D01*
X38858Y-31835D02*
X38857Y-31837D01*
X38857Y-31837D02*
X38855Y-31838D01*
X38855Y-31838D02*
X38853Y-31839D01*
X38853Y-31839D02*
X38852Y-31839D01*
X38852Y-31839D02*
X38850Y-31839D01*
X38850Y-31839D02*
X38849Y-31839D01*
X38849Y-31839D02*
X38847Y-31839D01*
X38847Y-31839D02*
X38845Y-31838D01*
X38845Y-31838D02*
X38844Y-31837D01*
X38844Y-31837D02*
X38842Y-31835D01*
X38842Y-31835D02*
X38841Y-31833D01*
X38841Y-31833D02*
X38841Y-31832D01*
X38841Y-31832D02*
X38841Y-31830D01*
X38841Y-31830D02*
X38841Y-31829D01*
X38841Y-31829D02*
X38841Y-31827D01*
X38841Y-31827D02*
X38842Y-31825D01*
X38842Y-31825D02*
X38843Y-31824D01*
X38843Y-31824D02*
X38845Y-31822D01*
X38845Y-31822D02*
X38846Y-31821D01*
X38846Y-31821D02*
X38848Y-31821D01*
X38848Y-31821D02*
X38850Y-31821D01*
X38850Y-31821D02*
X38851Y-31821D01*
X38851Y-31821D02*
X38853Y-31821D01*
X38853Y-31821D02*
X38855Y-31822D01*
X38855Y-31822D02*
X38856Y-31823D01*
X38856Y-31823D02*
X38858Y-31825D01*
X38858Y-31825D02*
X38859Y-31826D01*
X38859Y-31826D02*
X38859Y-31828D01*
X38859Y-31828D02*
X38859Y-31830D01*
X38859Y-31830D02*
X38860Y-31830D01*
X38680Y-31830D02*
X38679Y-31831D01*
X38679Y-31831D02*
X38679Y-31833D01*
X38679Y-31833D02*
X38678Y-31835D01*
X38678Y-31835D02*
X38677Y-31837D01*
X38677Y-31837D02*
X38675Y-31838D01*
X38675Y-31838D02*
X38673Y-31839D01*
X38673Y-31839D02*
X38672Y-31839D01*
X38672Y-31839D02*
X38670Y-31839D01*
X38670Y-31839D02*
X38669Y-31839D01*
X38669Y-31839D02*
X38667Y-31839D01*
X38667Y-31839D02*
X38665Y-31838D01*
X38665Y-31838D02*
X38664Y-31837D01*
X38664Y-31837D02*
X38662Y-31835D01*
X38662Y-31835D02*
X38661Y-31833D01*
X38661Y-31833D02*
X38661Y-31832D01*
X38661Y-31832D02*
X38661Y-31830D01*
X38661Y-31830D02*
X38661Y-31829D01*
X38661Y-31829D02*
X38661Y-31827D01*
X38661Y-31827D02*
X38662Y-31825D01*
X38662Y-31825D02*
X38663Y-31824D01*
X38663Y-31824D02*
X38665Y-31822D01*
X38665Y-31822D02*
X38666Y-31821D01*
X38666Y-31821D02*
X38668Y-31821D01*
X38668Y-31821D02*
X38670Y-31821D01*
X38670Y-31821D02*
X38671Y-31821D01*
X38671Y-31821D02*
X38673Y-31821D01*
X38673Y-31821D02*
X38675Y-31822D01*
X38675Y-31822D02*
X38676Y-31823D01*
X38676Y-31823D02*
X38678Y-31825D01*
X38678Y-31825D02*
X38679Y-31826D01*
X38679Y-31826D02*
X38679Y-31828D01*
X38679Y-31828D02*
X38679Y-31830D01*
X38679Y-31830D02*
X38680Y-31830D01*
X39040Y-31290D02*
X39039Y-31291D01*
X39039Y-31291D02*
X39039Y-31293D01*
X39039Y-31293D02*
X39038Y-31295D01*
X39038Y-31295D02*
X39037Y-31297D01*
X39037Y-31297D02*
X39035Y-31298D01*
X39035Y-31298D02*
X39033Y-31299D01*
X39033Y-31299D02*
X39032Y-31299D01*
X39032Y-31299D02*
X39030Y-31299D01*
X39030Y-31299D02*
X39029Y-31299D01*
X39029Y-31299D02*
X39027Y-31299D01*
X39027Y-31299D02*
X39025Y-31298D01*
X39025Y-31298D02*
X39024Y-31297D01*
X39024Y-31297D02*
X39022Y-31295D01*
X39022Y-31295D02*
X39021Y-31293D01*
X39021Y-31293D02*
X39021Y-31292D01*
X39021Y-31292D02*
X39021Y-31290D01*
X39021Y-31290D02*
X39021Y-31289D01*
X39021Y-31289D02*
X39021Y-31287D01*
X39021Y-31287D02*
X39022Y-31285D01*
X39022Y-31285D02*
X39023Y-31284D01*
X39023Y-31284D02*
X39025Y-31282D01*
X39025Y-31282D02*
X39026Y-31281D01*
X39026Y-31281D02*
X39028Y-31281D01*
X39028Y-31281D02*
X39030Y-31281D01*
X39030Y-31281D02*
X39031Y-31281D01*
X39031Y-31281D02*
X39033Y-31281D01*
X39033Y-31281D02*
X39035Y-31282D01*
X39035Y-31282D02*
X39036Y-31283D01*
X39036Y-31283D02*
X39038Y-31285D01*
X39038Y-31285D02*
X39039Y-31286D01*
X39039Y-31286D02*
X39039Y-31288D01*
X39039Y-31288D02*
X39039Y-31290D01*
X39039Y-31290D02*
X39040Y-31290D01*
X39220Y-31290D02*
X39219Y-31291D01*
X39219Y-31291D02*
X39219Y-31293D01*
X39219Y-31293D02*
X39218Y-31295D01*
X39218Y-31295D02*
X39217Y-31297D01*
X39217Y-31297D02*
X39215Y-31298D01*
X39215Y-31298D02*
X39213Y-31299D01*
X39213Y-31299D02*
X39212Y-31299D01*
X39212Y-31299D02*
X39210Y-31299D01*
X39210Y-31299D02*
X39209Y-31299D01*
X39209Y-31299D02*
X39207Y-31299D01*
X39207Y-31299D02*
X39205Y-31298D01*
X39205Y-31298D02*
X39204Y-31297D01*
X39204Y-31297D02*
X39202Y-31295D01*
X39202Y-31295D02*
X39201Y-31293D01*
X39201Y-31293D02*
X39201Y-31292D01*
X39201Y-31292D02*
X39201Y-31290D01*
X39201Y-31290D02*
X39201Y-31289D01*
X39201Y-31289D02*
X39201Y-31287D01*
X39201Y-31287D02*
X39202Y-31285D01*
X39202Y-31285D02*
X39203Y-31284D01*
X39203Y-31284D02*
X39205Y-31282D01*
X39205Y-31282D02*
X39206Y-31281D01*
X39206Y-31281D02*
X39208Y-31281D01*
X39208Y-31281D02*
X39210Y-31281D01*
X39210Y-31281D02*
X39211Y-31281D01*
X39211Y-31281D02*
X39213Y-31281D01*
X39213Y-31281D02*
X39215Y-31282D01*
X39215Y-31282D02*
X39216Y-31283D01*
X39216Y-31283D02*
X39218Y-31285D01*
X39218Y-31285D02*
X39219Y-31286D01*
X39219Y-31286D02*
X39219Y-31288D01*
X39219Y-31288D02*
X39219Y-31290D01*
X39219Y-31290D02*
X39220Y-31290D01*
X38500Y-31290D02*
X38499Y-31291D01*
X38499Y-31291D02*
X38499Y-31293D01*
X38499Y-31293D02*
X38498Y-31295D01*
X38498Y-31295D02*
X38497Y-31297D01*
X38497Y-31297D02*
X38495Y-31298D01*
X38495Y-31298D02*
X38493Y-31299D01*
X38493Y-31299D02*
X38492Y-31299D01*
X38492Y-31299D02*
X38490Y-31299D01*
X38490Y-31299D02*
X38489Y-31299D01*
X38489Y-31299D02*
X38487Y-31299D01*
X38487Y-31299D02*
X38485Y-31298D01*
X38485Y-31298D02*
X38484Y-31297D01*
X38484Y-31297D02*
X38482Y-31295D01*
X38482Y-31295D02*
X38481Y-31293D01*
X38481Y-31293D02*
X38481Y-31292D01*
X38481Y-31292D02*
X38481Y-31290D01*
X38481Y-31290D02*
X38481Y-31289D01*
X38481Y-31289D02*
X38481Y-31287D01*
X38481Y-31287D02*
X38482Y-31285D01*
X38482Y-31285D02*
X38483Y-31284D01*
X38483Y-31284D02*
X38485Y-31282D01*
X38485Y-31282D02*
X38486Y-31281D01*
X38486Y-31281D02*
X38488Y-31281D01*
X38488Y-31281D02*
X38490Y-31281D01*
X38490Y-31281D02*
X38491Y-31281D01*
X38491Y-31281D02*
X38493Y-31281D01*
X38493Y-31281D02*
X38495Y-31282D01*
X38495Y-31282D02*
X38496Y-31283D01*
X38496Y-31283D02*
X38498Y-31285D01*
X38498Y-31285D02*
X38499Y-31286D01*
X38499Y-31286D02*
X38499Y-31288D01*
X38499Y-31288D02*
X38499Y-31290D01*
X38499Y-31290D02*
X38500Y-31290D01*
X38320Y-31290D02*
X38319Y-31291D01*
X38319Y-31291D02*
X38319Y-31293D01*
X38319Y-31293D02*
X38318Y-31295D01*
X38318Y-31295D02*
X38317Y-31297D01*
X38317Y-31297D02*
X38315Y-31298D01*
X38315Y-31298D02*
X38313Y-31299D01*
X38313Y-31299D02*
X38312Y-31299D01*
X38312Y-31299D02*
X38310Y-31299D01*
X38310Y-31299D02*
X38309Y-31299D01*
X38309Y-31299D02*
X38307Y-31299D01*
X38307Y-31299D02*
X38305Y-31298D01*
X38305Y-31298D02*
X38304Y-31297D01*
X38304Y-31297D02*
X38302Y-31295D01*
X38302Y-31295D02*
X38301Y-31293D01*
X38301Y-31293D02*
X38301Y-31292D01*
X38301Y-31292D02*
X38301Y-31290D01*
X38301Y-31290D02*
X38301Y-31289D01*
X38301Y-31289D02*
X38301Y-31287D01*
X38301Y-31287D02*
X38302Y-31285D01*
X38302Y-31285D02*
X38303Y-31284D01*
X38303Y-31284D02*
X38305Y-31282D01*
X38305Y-31282D02*
X38306Y-31281D01*
X38306Y-31281D02*
X38308Y-31281D01*
X38308Y-31281D02*
X38310Y-31281D01*
X38310Y-31281D02*
X38311Y-31281D01*
X38311Y-31281D02*
X38313Y-31281D01*
X38313Y-31281D02*
X38315Y-31282D01*
X38315Y-31282D02*
X38316Y-31283D01*
X38316Y-31283D02*
X38318Y-31285D01*
X38318Y-31285D02*
X38319Y-31286D01*
X38319Y-31286D02*
X38319Y-31288D01*
X38319Y-31288D02*
X38319Y-31290D01*
X38319Y-31290D02*
X38320Y-31290D01*
X39040Y-31470D02*
X39039Y-31471D01*
X39039Y-31471D02*
X39039Y-31473D01*
X39039Y-31473D02*
X39038Y-31475D01*
X39038Y-31475D02*
X39037Y-31477D01*
X39037Y-31477D02*
X39035Y-31478D01*
X39035Y-31478D02*
X39033Y-31479D01*
X39033Y-31479D02*
X39032Y-31479D01*
X39032Y-31479D02*
X39030Y-31479D01*
X39030Y-31479D02*
X39029Y-31479D01*
X39029Y-31479D02*
X39027Y-31479D01*
X39027Y-31479D02*
X39025Y-31478D01*
X39025Y-31478D02*
X39024Y-31477D01*
X39024Y-31477D02*
X39022Y-31475D01*
X39022Y-31475D02*
X39021Y-31473D01*
X39021Y-31473D02*
X39021Y-31472D01*
X39021Y-31472D02*
X39021Y-31470D01*
X39021Y-31470D02*
X39021Y-31469D01*
X39021Y-31469D02*
X39021Y-31467D01*
X39021Y-31467D02*
X39022Y-31465D01*
X39022Y-31465D02*
X39023Y-31464D01*
X39023Y-31464D02*
X39025Y-31462D01*
X39025Y-31462D02*
X39026Y-31461D01*
X39026Y-31461D02*
X39028Y-31461D01*
X39028Y-31461D02*
X39030Y-31461D01*
X39030Y-31461D02*
X39031Y-31461D01*
X39031Y-31461D02*
X39033Y-31461D01*
X39033Y-31461D02*
X39035Y-31462D01*
X39035Y-31462D02*
X39036Y-31463D01*
X39036Y-31463D02*
X39038Y-31465D01*
X39038Y-31465D02*
X39039Y-31466D01*
X39039Y-31466D02*
X39039Y-31468D01*
X39039Y-31468D02*
X39039Y-31470D01*
X39039Y-31470D02*
X39040Y-31470D01*
X39220Y-31470D02*
X39219Y-31471D01*
X39219Y-31471D02*
X39219Y-31473D01*
X39219Y-31473D02*
X39218Y-31475D01*
X39218Y-31475D02*
X39217Y-31477D01*
X39217Y-31477D02*
X39215Y-31478D01*
X39215Y-31478D02*
X39213Y-31479D01*
X39213Y-31479D02*
X39212Y-31479D01*
X39212Y-31479D02*
X39210Y-31479D01*
X39210Y-31479D02*
X39209Y-31479D01*
X39209Y-31479D02*
X39207Y-31479D01*
X39207Y-31479D02*
X39205Y-31478D01*
X39205Y-31478D02*
X39204Y-31477D01*
X39204Y-31477D02*
X39202Y-31475D01*
X39202Y-31475D02*
X39201Y-31473D01*
X39201Y-31473D02*
X39201Y-31472D01*
X39201Y-31472D02*
X39201Y-31470D01*
X39201Y-31470D02*
X39201Y-31469D01*
X39201Y-31469D02*
X39201Y-31467D01*
X39201Y-31467D02*
X39202Y-31465D01*
X39202Y-31465D02*
X39203Y-31464D01*
X39203Y-31464D02*
X39205Y-31462D01*
X39205Y-31462D02*
X39206Y-31461D01*
X39206Y-31461D02*
X39208Y-31461D01*
X39208Y-31461D02*
X39210Y-31461D01*
X39210Y-31461D02*
X39211Y-31461D01*
X39211Y-31461D02*
X39213Y-31461D01*
X39213Y-31461D02*
X39215Y-31462D01*
X39215Y-31462D02*
X39216Y-31463D01*
X39216Y-31463D02*
X39218Y-31465D01*
X39218Y-31465D02*
X39219Y-31466D01*
X39219Y-31466D02*
X39219Y-31468D01*
X39219Y-31468D02*
X39219Y-31470D01*
X39219Y-31470D02*
X39220Y-31470D01*
X38500Y-31470D02*
X38499Y-31471D01*
X38499Y-31471D02*
X38499Y-31473D01*
X38499Y-31473D02*
X38498Y-31475D01*
X38498Y-31475D02*
X38497Y-31477D01*
X38497Y-31477D02*
X38495Y-31478D01*
X38495Y-31478D02*
X38493Y-31479D01*
X38493Y-31479D02*
X38492Y-31479D01*
X38492Y-31479D02*
X38490Y-31479D01*
X38490Y-31479D02*
X38489Y-31479D01*
X38489Y-31479D02*
X38487Y-31479D01*
X38487Y-31479D02*
X38485Y-31478D01*
X38485Y-31478D02*
X38484Y-31477D01*
X38484Y-31477D02*
X38482Y-31475D01*
X38482Y-31475D02*
X38481Y-31473D01*
X38481Y-31473D02*
X38481Y-31472D01*
X38481Y-31472D02*
X38481Y-31470D01*
X38481Y-31470D02*
X38481Y-31469D01*
X38481Y-31469D02*
X38481Y-31467D01*
X38481Y-31467D02*
X38482Y-31465D01*
X38482Y-31465D02*
X38483Y-31464D01*
X38483Y-31464D02*
X38485Y-31462D01*
X38485Y-31462D02*
X38486Y-31461D01*
X38486Y-31461D02*
X38488Y-31461D01*
X38488Y-31461D02*
X38490Y-31461D01*
X38490Y-31461D02*
X38491Y-31461D01*
X38491Y-31461D02*
X38493Y-31461D01*
X38493Y-31461D02*
X38495Y-31462D01*
X38495Y-31462D02*
X38496Y-31463D01*
X38496Y-31463D02*
X38498Y-31465D01*
X38498Y-31465D02*
X38499Y-31466D01*
X38499Y-31466D02*
X38499Y-31468D01*
X38499Y-31468D02*
X38499Y-31470D01*
X38499Y-31470D02*
X38500Y-31470D01*
X38320Y-31470D02*
X38319Y-31471D01*
X38319Y-31471D02*
X38319Y-31473D01*
X38319Y-31473D02*
X38318Y-31475D01*
X38318Y-31475D02*
X38317Y-31477D01*
X38317Y-31477D02*
X38315Y-31478D01*
X38315Y-31478D02*
X38313Y-31479D01*
X38313Y-31479D02*
X38312Y-31479D01*
X38312Y-31479D02*
X38310Y-31479D01*
X38310Y-31479D02*
X38309Y-31479D01*
X38309Y-31479D02*
X38307Y-31479D01*
X38307Y-31479D02*
X38305Y-31478D01*
X38305Y-31478D02*
X38304Y-31477D01*
X38304Y-31477D02*
X38302Y-31475D01*
X38302Y-31475D02*
X38301Y-31473D01*
X38301Y-31473D02*
X38301Y-31472D01*
X38301Y-31472D02*
X38301Y-31470D01*
X38301Y-31470D02*
X38301Y-31469D01*
X38301Y-31469D02*
X38301Y-31467D01*
X38301Y-31467D02*
X38302Y-31465D01*
X38302Y-31465D02*
X38303Y-31464D01*
X38303Y-31464D02*
X38305Y-31462D01*
X38305Y-31462D02*
X38306Y-31461D01*
X38306Y-31461D02*
X38308Y-31461D01*
X38308Y-31461D02*
X38310Y-31461D01*
X38310Y-31461D02*
X38311Y-31461D01*
X38311Y-31461D02*
X38313Y-31461D01*
X38313Y-31461D02*
X38315Y-31462D01*
X38315Y-31462D02*
X38316Y-31463D01*
X38316Y-31463D02*
X38318Y-31465D01*
X38318Y-31465D02*
X38319Y-31466D01*
X38319Y-31466D02*
X38319Y-31468D01*
X38319Y-31468D02*
X38319Y-31470D01*
X38319Y-31470D02*
X38320Y-31470D01*
G54D26*
X31120Y-26020D02*
X31520Y-26020D01*
X31520Y-26020D02*
X31120Y-25709D01*
X31120Y-25709D02*
X31520Y-25709D01*
X31164Y-25165D02*
X31120Y-25209D01*
X31120Y-25209D02*
X31120Y-25432D01*
X31120Y-25432D02*
X31164Y-25476D01*
X31164Y-25476D02*
X31475Y-25476D01*
X31475Y-25476D02*
X31520Y-25432D01*
X31520Y-25432D02*
X31520Y-25209D01*
X31520Y-25209D02*
X31475Y-25165D01*
X34470Y-26000D02*
X34470Y-25644D01*
X34470Y-25822D02*
X34070Y-25822D01*
X34070Y-25456D02*
X34470Y-25145D01*
X34470Y-25456D02*
X34070Y-25145D01*
X33080Y-25970D02*
X33480Y-25970D01*
X33480Y-25970D02*
X33480Y-25703D01*
X33480Y-25703D02*
X33435Y-25659D01*
X33435Y-25659D02*
X33302Y-25659D01*
X33302Y-25659D02*
X33257Y-25703D01*
X33257Y-25703D02*
X33257Y-25970D01*
X33257Y-25837D02*
X33080Y-25659D01*
X33080Y-25426D02*
X33480Y-25115D01*
X33480Y-25426D02*
X33080Y-25115D01*
X32014Y-25475D02*
X32548Y-25475D01*
X32281Y-25742D02*
X32281Y-25208D01*
X30305Y-25627D02*
X30305Y-25182D01*
X28467Y-26395D02*
X28022Y-26395D01*
X28472Y-27556D02*
X28428Y-27600D01*
X28428Y-27600D02*
X28205Y-27600D01*
X28205Y-27600D02*
X28161Y-27556D01*
X28161Y-27556D02*
X28161Y-27423D01*
X28161Y-27423D02*
X28205Y-27378D01*
X28205Y-27378D02*
X28428Y-27378D01*
X28428Y-27378D02*
X28472Y-27334D01*
X28472Y-27334D02*
X28472Y-27245D01*
X28472Y-27245D02*
X28428Y-27200D01*
X28428Y-27200D02*
X28205Y-27200D01*
X28205Y-27200D02*
X28161Y-27245D01*
X27617Y-27556D02*
X27661Y-27600D01*
X27661Y-27600D02*
X27884Y-27600D01*
X27884Y-27600D02*
X27928Y-27556D01*
X27928Y-27556D02*
X27928Y-27245D01*
X27928Y-27245D02*
X27884Y-27200D01*
X27884Y-27200D02*
X27661Y-27200D01*
X27661Y-27200D02*
X27617Y-27245D01*
X27384Y-27200D02*
X27384Y-27600D01*
X27384Y-27600D02*
X27028Y-27600D01*
X28472Y-28556D02*
X28428Y-28600D01*
X28428Y-28600D02*
X28205Y-28600D01*
X28205Y-28600D02*
X28161Y-28556D01*
X28161Y-28556D02*
X28161Y-28423D01*
X28161Y-28423D02*
X28205Y-28378D01*
X28205Y-28378D02*
X28428Y-28378D01*
X28428Y-28378D02*
X28472Y-28334D01*
X28472Y-28334D02*
X28472Y-28245D01*
X28472Y-28245D02*
X28428Y-28200D01*
X28428Y-28200D02*
X28205Y-28200D01*
X28205Y-28200D02*
X28161Y-28245D01*
X27884Y-28600D02*
X27884Y-28200D01*
X27928Y-28200D02*
X27661Y-28200D01*
X27661Y-28200D02*
X27617Y-28245D01*
X27617Y-28245D02*
X27617Y-28556D01*
X27617Y-28556D02*
X27661Y-28600D01*
X27661Y-28600D02*
X27928Y-28600D01*
X27384Y-28600D02*
X27384Y-28289D01*
X27384Y-28289D02*
X27295Y-28200D01*
X27295Y-28200D02*
X27162Y-28200D01*
X27162Y-28200D02*
X27073Y-28289D01*
X27073Y-28289D02*
X27073Y-28600D01*
X27384Y-28378D02*
X27073Y-28378D01*
X28472Y-30600D02*
X28472Y-30200D01*
X28472Y-30200D02*
X28205Y-30200D01*
X28205Y-30200D02*
X28161Y-30245D01*
X28161Y-30245D02*
X28161Y-30378D01*
X28161Y-30378D02*
X28205Y-30423D01*
X28205Y-30423D02*
X28472Y-30423D01*
X27617Y-30556D02*
X27661Y-30600D01*
X27661Y-30600D02*
X27884Y-30600D01*
X27884Y-30600D02*
X27928Y-30556D01*
X27928Y-30556D02*
X27928Y-30245D01*
X27928Y-30245D02*
X27884Y-30200D01*
X27884Y-30200D02*
X27661Y-30200D01*
X27661Y-30200D02*
X27617Y-30245D01*
X27073Y-30600D02*
X27384Y-30600D01*
X27384Y-30600D02*
X27384Y-30467D01*
X27384Y-30467D02*
X27340Y-30423D01*
X27340Y-30423D02*
X27117Y-30423D01*
X27117Y-30423D02*
X27073Y-30378D01*
X27073Y-30378D02*
X27073Y-30245D01*
X27073Y-30245D02*
X27117Y-30200D01*
X27117Y-30200D02*
X27340Y-30200D01*
X27340Y-30200D02*
X27384Y-30245D01*
X28472Y-29600D02*
X28472Y-29200D01*
X28472Y-29200D02*
X28205Y-29200D01*
X28205Y-29200D02*
X28161Y-29245D01*
X28161Y-29245D02*
X28161Y-29378D01*
X28161Y-29378D02*
X28205Y-29423D01*
X28205Y-29423D02*
X28472Y-29423D01*
X27617Y-29556D02*
X27661Y-29600D01*
X27661Y-29600D02*
X27884Y-29600D01*
X27884Y-29600D02*
X27928Y-29556D01*
X27928Y-29556D02*
X27928Y-29245D01*
X27928Y-29245D02*
X27884Y-29200D01*
X27884Y-29200D02*
X27661Y-29200D01*
X27661Y-29200D02*
X27617Y-29245D01*
X27384Y-29200D02*
X27073Y-29200D01*
X27073Y-29200D02*
X27073Y-29245D01*
X27073Y-29245D02*
X27251Y-29378D01*
X27251Y-29378D02*
X27117Y-29378D01*
X27117Y-29378D02*
X27073Y-29423D01*
X27073Y-29423D02*
X27073Y-29556D01*
X27073Y-29556D02*
X27117Y-29600D01*
X27117Y-29600D02*
X27340Y-29600D01*
X27340Y-29600D02*
X27384Y-29556D01*
X38522Y-29600D02*
X38522Y-29200D01*
X38522Y-29200D02*
X38255Y-29200D01*
X38255Y-29200D02*
X38211Y-29245D01*
X38211Y-29245D02*
X38211Y-29378D01*
X38211Y-29378D02*
X38255Y-29423D01*
X38255Y-29423D02*
X38522Y-29423D01*
X37667Y-29556D02*
X37711Y-29600D01*
X37711Y-29600D02*
X37934Y-29600D01*
X37934Y-29600D02*
X37978Y-29556D01*
X37978Y-29556D02*
X37978Y-29245D01*
X37978Y-29245D02*
X37934Y-29200D01*
X37934Y-29200D02*
X37711Y-29200D01*
X37711Y-29200D02*
X37667Y-29245D01*
X37434Y-29200D02*
X37123Y-29200D01*
X37123Y-29200D02*
X37123Y-29245D01*
X37123Y-29245D02*
X37301Y-29378D01*
X37301Y-29378D02*
X37167Y-29378D01*
X37167Y-29378D02*
X37123Y-29423D01*
X37123Y-29423D02*
X37123Y-29556D01*
X37123Y-29556D02*
X37167Y-29600D01*
X37167Y-29600D02*
X37390Y-29600D01*
X37390Y-29600D02*
X37434Y-29556D01*
X38522Y-30600D02*
X38522Y-30200D01*
X38522Y-30200D02*
X38255Y-30200D01*
X38255Y-30200D02*
X38211Y-30245D01*
X38211Y-30245D02*
X38211Y-30378D01*
X38211Y-30378D02*
X38255Y-30423D01*
X38255Y-30423D02*
X38522Y-30423D01*
X37667Y-30556D02*
X37711Y-30600D01*
X37711Y-30600D02*
X37934Y-30600D01*
X37934Y-30600D02*
X37978Y-30556D01*
X37978Y-30556D02*
X37978Y-30245D01*
X37978Y-30245D02*
X37934Y-30200D01*
X37934Y-30200D02*
X37711Y-30200D01*
X37711Y-30200D02*
X37667Y-30245D01*
X37123Y-30600D02*
X37434Y-30600D01*
X37434Y-30600D02*
X37434Y-30467D01*
X37434Y-30467D02*
X37390Y-30423D01*
X37390Y-30423D02*
X37167Y-30423D01*
X37167Y-30423D02*
X37123Y-30378D01*
X37123Y-30378D02*
X37123Y-30245D01*
X37123Y-30245D02*
X37167Y-30200D01*
X37167Y-30200D02*
X37390Y-30200D01*
X37390Y-30200D02*
X37434Y-30245D01*
X38522Y-28556D02*
X38478Y-28600D01*
X38478Y-28600D02*
X38255Y-28600D01*
X38255Y-28600D02*
X38211Y-28556D01*
X38211Y-28556D02*
X38211Y-28423D01*
X38211Y-28423D02*
X38255Y-28378D01*
X38255Y-28378D02*
X38478Y-28378D01*
X38478Y-28378D02*
X38522Y-28334D01*
X38522Y-28334D02*
X38522Y-28245D01*
X38522Y-28245D02*
X38478Y-28200D01*
X38478Y-28200D02*
X38255Y-28200D01*
X38255Y-28200D02*
X38211Y-28245D01*
X37934Y-28600D02*
X37934Y-28200D01*
X37978Y-28200D02*
X37711Y-28200D01*
X37711Y-28200D02*
X37667Y-28245D01*
X37667Y-28245D02*
X37667Y-28556D01*
X37667Y-28556D02*
X37711Y-28600D01*
X37711Y-28600D02*
X37978Y-28600D01*
X37434Y-28600D02*
X37434Y-28289D01*
X37434Y-28289D02*
X37345Y-28200D01*
X37345Y-28200D02*
X37212Y-28200D01*
X37212Y-28200D02*
X37123Y-28289D01*
X37123Y-28289D02*
X37123Y-28600D01*
X37434Y-28378D02*
X37123Y-28378D01*
X38522Y-27556D02*
X38478Y-27600D01*
X38478Y-27600D02*
X38255Y-27600D01*
X38255Y-27600D02*
X38211Y-27556D01*
X38211Y-27556D02*
X38211Y-27423D01*
X38211Y-27423D02*
X38255Y-27378D01*
X38255Y-27378D02*
X38478Y-27378D01*
X38478Y-27378D02*
X38522Y-27334D01*
X38522Y-27334D02*
X38522Y-27245D01*
X38522Y-27245D02*
X38478Y-27200D01*
X38478Y-27200D02*
X38255Y-27200D01*
X38255Y-27200D02*
X38211Y-27245D01*
X37667Y-27556D02*
X37711Y-27600D01*
X37711Y-27600D02*
X37934Y-27600D01*
X37934Y-27600D02*
X37978Y-27556D01*
X37978Y-27556D02*
X37978Y-27245D01*
X37978Y-27245D02*
X37934Y-27200D01*
X37934Y-27200D02*
X37711Y-27200D01*
X37711Y-27200D02*
X37667Y-27245D01*
X37434Y-27200D02*
X37434Y-27600D01*
X37434Y-27600D02*
X37078Y-27600D01*
X37517Y-26395D02*
X37072Y-26395D01*
G54D28*
X41220Y-28070D02*
X41038Y-26340D01*
X41038Y-26340D02*
X40501Y-24686D01*
X40501Y-24686D02*
X39631Y-23180D01*
X39631Y-23180D02*
X38467Y-21887D01*
X38467Y-21887D02*
X37060Y-20865D01*
X37060Y-20865D02*
X35471Y-20157D01*
X35471Y-20157D02*
X33770Y-19796D01*
X33770Y-19796D02*
X32900Y-19750D01*
X32900Y-19750D02*
X31170Y-19932D01*
X31170Y-19932D02*
X29516Y-20469D01*
X29516Y-20469D02*
X28010Y-21339D01*
X28010Y-21339D02*
X26717Y-22503D01*
X26717Y-22503D02*
X25695Y-23910D01*
X25695Y-23910D02*
X24987Y-25499D01*
X24987Y-25499D02*
X24626Y-27200D01*
X24626Y-27200D02*
X24580Y-28070D01*
X24580Y-28070D02*
X24762Y-29800D01*
X24762Y-29800D02*
X25299Y-31454D01*
X25299Y-31454D02*
X26169Y-32960D01*
X26169Y-32960D02*
X27333Y-34253D01*
X27333Y-34253D02*
X28740Y-35275D01*
X28740Y-35275D02*
X30329Y-35983D01*
X30329Y-35983D02*
X32030Y-36344D01*
X32030Y-36344D02*
X32900Y-36390D01*
X32900Y-36390D02*
X34630Y-36208D01*
X34630Y-36208D02*
X36284Y-35671D01*
X36284Y-35671D02*
X37790Y-34801D01*
X37790Y-34801D02*
X39083Y-33637D01*
X39083Y-33637D02*
X40105Y-32230D01*
X40105Y-32230D02*
X40813Y-30641D01*
X40813Y-30641D02*
X41174Y-28940D01*
X41174Y-28940D02*
X41220Y-28070D01*
G54D21*
X32800Y-30500D02*
X32600Y-30100D01*
X32600Y-30100D02*
X33000Y-30100D01*
X33000Y-30100D02*
X32800Y-30500D01*
X33300Y-30700D02*
X32300Y-30700D01*
X32300Y-30700D02*
X32300Y-33700D01*
X32300Y-33700D02*
X33300Y-33700D01*
X33300Y-33700D02*
X33300Y-30700D01*
X32300Y-31700D02*
X33300Y-31700D01*
X32100Y-33700D02*
X32100Y-30700D01*
X30100Y-30700D02*
X30100Y-33700D01*
X30100Y-33700D02*
X32100Y-33700D01*
X32100Y-30700D02*
X30100Y-30700D01*
X35000Y-30500D02*
X34800Y-30100D01*
X34800Y-30100D02*
X35200Y-30100D01*
X35200Y-30100D02*
X35000Y-30500D01*
X35500Y-33700D02*
X35500Y-30700D01*
X33500Y-30700D02*
X33500Y-33700D01*
X33500Y-33700D02*
X35500Y-33700D01*
X35500Y-30700D02*
X33500Y-30700D01*
X29550Y-24400D02*
X29150Y-24600D01*
X29150Y-24600D02*
X29150Y-24200D01*
X29150Y-24200D02*
X29550Y-24400D01*
X29800Y-23900D02*
X29800Y-24900D01*
X29800Y-24900D02*
X35800Y-24900D01*
X35800Y-24900D02*
X35800Y-23900D01*
X35800Y-23900D02*
X29800Y-23900D01*
X30800Y-23900D02*
X30800Y-24900D01*
X36800Y-24900D02*
X35800Y-24900D01*
X35800Y-24900D02*
X35800Y-30900D01*
X35800Y-30900D02*
X36800Y-30900D01*
X36800Y-30900D02*
X36800Y-24900D01*
X36800Y-25900D02*
X35800Y-25900D01*
X29795Y-24900D02*
X28795Y-24900D01*
X28795Y-24900D02*
X28795Y-30900D01*
X28795Y-30900D02*
X29795Y-30900D01*
X29795Y-30900D02*
X29795Y-24900D01*
X29795Y-25900D02*
X28795Y-25900D01*
G54D29*
X39936Y-25765D02*
X39641Y-25765D01*
X39641Y-25765D02*
X39641Y-25195D01*
X39936Y-25195D02*
X39641Y-25195D01*
X39936Y-25765D02*
X39936Y-25195D01*
X39367Y-25765D02*
X39072Y-25765D01*
X39072Y-25765D02*
X39072Y-25195D01*
X39367Y-25195D02*
X39072Y-25195D01*
X39367Y-25765D02*
X39367Y-25195D01*
X39546Y-25637D02*
X39468Y-25637D01*
X39468Y-25637D02*
X39468Y-25323D01*
X39546Y-25323D02*
X39468Y-25323D01*
X39546Y-25637D02*
X39546Y-25323D01*
G54D30*
X40283Y-25093D02*
X38731Y-25093D01*
X38731Y-25867D02*
X40283Y-25867D01*
X40283Y-25867D02*
X40283Y-25093D01*
G54D31*
X39657Y-25221D02*
X39357Y-25221D01*
X39647Y-25739D02*
X39357Y-25739D01*
G54D30*
X38731Y-25093D02*
X38731Y-25867D01*
G54D29*
X30160Y-34325D02*
X30415Y-34325D01*
X30415Y-34325D02*
X30415Y-34876D01*
X30160Y-34876D02*
X30415Y-34876D01*
X30160Y-34325D02*
X30160Y-34876D01*
X29580Y-34325D02*
X29836Y-34325D01*
X29836Y-34325D02*
X29836Y-34876D01*
X29580Y-34876D02*
X29836Y-34876D01*
X29580Y-34325D02*
X29580Y-34876D01*
X29922Y-34404D02*
X30078Y-34404D01*
X30078Y-34404D02*
X30078Y-34796D01*
X29922Y-34796D02*
X30078Y-34796D01*
X29922Y-34404D02*
X29922Y-34796D01*
G54D32*
X29839Y-34850D02*
X30161Y-34850D01*
X29839Y-34350D02*
X30161Y-34350D01*
G54D30*
X29224Y-34987D02*
X30776Y-34987D01*
X30776Y-34987D02*
X30776Y-34213D01*
X30776Y-34213D02*
X29224Y-34213D01*
X29224Y-34213D02*
X29224Y-34987D01*
G54D29*
X32960Y-34325D02*
X33215Y-34325D01*
X33215Y-34325D02*
X33215Y-34876D01*
X32960Y-34876D02*
X33215Y-34876D01*
X32960Y-34325D02*
X32960Y-34876D01*
X32380Y-34325D02*
X32636Y-34325D01*
X32636Y-34325D02*
X32636Y-34876D01*
X32380Y-34876D02*
X32636Y-34876D01*
X32380Y-34325D02*
X32380Y-34876D01*
X32722Y-34404D02*
X32878Y-34404D01*
X32878Y-34404D02*
X32878Y-34796D01*
X32722Y-34796D02*
X32878Y-34796D01*
X32722Y-34404D02*
X32722Y-34796D01*
G54D32*
X32639Y-34850D02*
X32961Y-34850D01*
X32639Y-34350D02*
X32961Y-34350D01*
G54D30*
X32024Y-34987D02*
X33576Y-34987D01*
X33576Y-34987D02*
X33576Y-34213D01*
X33576Y-34213D02*
X32024Y-34213D01*
X32024Y-34213D02*
X32024Y-34987D01*
G54D29*
X35760Y-34325D02*
X36015Y-34325D01*
X36015Y-34325D02*
X36015Y-34876D01*
X35760Y-34876D02*
X36015Y-34876D01*
X35760Y-34325D02*
X35760Y-34876D01*
X35180Y-34325D02*
X35436Y-34325D01*
X35436Y-34325D02*
X35436Y-34876D01*
X35180Y-34876D02*
X35436Y-34876D01*
X35180Y-34325D02*
X35180Y-34876D01*
X35522Y-34404D02*
X35678Y-34404D01*
X35678Y-34404D02*
X35678Y-34796D01*
X35522Y-34796D02*
X35678Y-34796D01*
X35522Y-34404D02*
X35522Y-34796D01*
G54D32*
X35439Y-34850D02*
X35761Y-34850D01*
X35439Y-34350D02*
X35761Y-34350D01*
G54D30*
X34824Y-34987D02*
X36376Y-34987D01*
X36376Y-34987D02*
X36376Y-34213D01*
X36376Y-34213D02*
X34824Y-34213D01*
X34824Y-34213D02*
X34824Y-34987D01*
G54D29*
X25660Y-28195D02*
X25405Y-28195D01*
X25405Y-28195D02*
X25405Y-27644D01*
X25660Y-27644D02*
X25405Y-27644D01*
X25660Y-28195D02*
X25660Y-27644D01*
X26240Y-28195D02*
X25984Y-28195D01*
X25984Y-28195D02*
X25984Y-27644D01*
X26240Y-27644D02*
X25984Y-27644D01*
X26240Y-28195D02*
X26240Y-27644D01*
X25898Y-28116D02*
X25742Y-28116D01*
X25742Y-28116D02*
X25742Y-27724D01*
X25898Y-27724D02*
X25742Y-27724D01*
X25898Y-28116D02*
X25898Y-27724D01*
G54D32*
X25981Y-27670D02*
X25659Y-27670D01*
X25981Y-28170D02*
X25659Y-28170D01*
G54D30*
X26596Y-27533D02*
X25044Y-27533D01*
X25044Y-27533D02*
X25044Y-28307D01*
X25044Y-28307D02*
X26596Y-28307D01*
X26596Y-28307D02*
X26596Y-27533D01*
G54D29*
X25795Y-25155D02*
X26091Y-25155D01*
X26091Y-25155D02*
X26091Y-25824D01*
X25795Y-25824D02*
X26091Y-25824D01*
X25795Y-25155D02*
X25795Y-25824D01*
X26839Y-25156D02*
X27135Y-25156D01*
X27135Y-25156D02*
X27135Y-25825D01*
X26839Y-25825D02*
X27135Y-25825D01*
X26839Y-25156D02*
X26839Y-25825D01*
X26387Y-25333D02*
X26543Y-25333D01*
X26543Y-25333D02*
X26543Y-25647D01*
X26387Y-25647D02*
X26543Y-25647D01*
X26387Y-25333D02*
X26387Y-25647D01*
G54D30*
X25492Y-25877D02*
X27438Y-25877D01*
X27438Y-25103D02*
X25492Y-25103D01*
X25492Y-25103D02*
X25492Y-25877D01*
X27438Y-25877D02*
X27438Y-25103D01*
G54D31*
X26086Y-25799D02*
X26844Y-25799D01*
X26086Y-25181D02*
X26844Y-25181D01*
G54D29*
X39601Y-27765D02*
X39896Y-27765D01*
X39896Y-27765D02*
X39896Y-28335D01*
X39601Y-28335D02*
X39896Y-28335D01*
X39601Y-27765D02*
X39601Y-28335D01*
X40170Y-27765D02*
X40465Y-27765D01*
X40465Y-27765D02*
X40465Y-28335D01*
X40170Y-28335D02*
X40465Y-28335D01*
X40170Y-27765D02*
X40170Y-28335D01*
X39991Y-27893D02*
X40069Y-27893D01*
X40069Y-27893D02*
X40069Y-28207D01*
X39991Y-28207D02*
X40069Y-28207D01*
X39991Y-27893D02*
X39991Y-28207D01*
G54D30*
X39254Y-28437D02*
X40806Y-28437D01*
X40806Y-27663D02*
X39254Y-27663D01*
X39254Y-27663D02*
X39254Y-28437D01*
G54D31*
X39880Y-28309D02*
X40180Y-28309D01*
X39890Y-27791D02*
X40180Y-27791D01*
G54D30*
X40806Y-28437D02*
X40806Y-27663D01*
G54D29*
X35985Y-21430D02*
X35985Y-21726D01*
X35985Y-21726D02*
X35316Y-21726D01*
X35316Y-21430D02*
X35316Y-21726D01*
X35985Y-21430D02*
X35316Y-21430D01*
X35984Y-22474D02*
X35984Y-22770D01*
X35984Y-22770D02*
X35315Y-22770D01*
X35315Y-22474D02*
X35315Y-22770D01*
X35984Y-22474D02*
X35315Y-22474D01*
X35846Y-21982D02*
X35846Y-22218D01*
X35846Y-22218D02*
X35454Y-22218D01*
X35454Y-21982D02*
X35454Y-22218D01*
X35846Y-21982D02*
X35454Y-21982D01*
G54D30*
X35263Y-21127D02*
X35263Y-23073D01*
X36037Y-23073D02*
X36037Y-21127D01*
X36037Y-21127D02*
X35263Y-21127D01*
X35263Y-23073D02*
X36037Y-23073D01*
G54D31*
X35341Y-21721D02*
X35341Y-22479D01*
X35959Y-21721D02*
X35959Y-22479D01*
G54D29*
X29815Y-22770D02*
X29815Y-22474D01*
X29815Y-22474D02*
X30484Y-22474D01*
X30484Y-22770D02*
X30484Y-22474D01*
X29815Y-22770D02*
X30484Y-22770D01*
X29816Y-21726D02*
X29816Y-21430D01*
X29816Y-21430D02*
X30485Y-21430D01*
X30485Y-21726D02*
X30485Y-21430D01*
X29816Y-21726D02*
X30485Y-21726D01*
X29954Y-22218D02*
X29954Y-21982D01*
X29954Y-21982D02*
X30346Y-21982D01*
X30346Y-22218D02*
X30346Y-21982D01*
X29954Y-22218D02*
X30346Y-22218D01*
G54D30*
X30537Y-23073D02*
X30537Y-21127D01*
X29763Y-21127D02*
X29763Y-23073D01*
X29763Y-23073D02*
X30537Y-23073D01*
X30537Y-21127D02*
X29763Y-21127D01*
G54D31*
X30459Y-22479D02*
X30459Y-21721D01*
X29841Y-22479D02*
X29841Y-21721D01*
G54D29*
X33609Y-22330D02*
X33609Y-21070D01*
X33609Y-21070D02*
X34340Y-21070D01*
X34340Y-22330D02*
X34340Y-21070D01*
X33609Y-22330D02*
X34340Y-22330D01*
X31460Y-21870D02*
X31460Y-21530D01*
X31460Y-21530D02*
X32191Y-21530D01*
X32191Y-21870D02*
X32191Y-21530D01*
X31460Y-21870D02*
X32191Y-21870D01*
X31460Y-22780D02*
X31460Y-22440D01*
X31460Y-22440D02*
X32191Y-22440D01*
X32191Y-22780D02*
X32191Y-22440D01*
X31460Y-22780D02*
X32191Y-22780D01*
X31460Y-20960D02*
X31460Y-20620D01*
X31460Y-20620D02*
X32191Y-20620D01*
X32191Y-20960D02*
X32191Y-20620D01*
X31460Y-20960D02*
X32191Y-20960D01*
X33609Y-22330D02*
X33609Y-21070D01*
X33609Y-21070D02*
X34340Y-21070D01*
X34340Y-22330D02*
X34340Y-21070D01*
X33609Y-22330D02*
X34340Y-22330D01*
X31460Y-21870D02*
X31460Y-21530D01*
X31460Y-21530D02*
X32191Y-21530D01*
X32191Y-21870D02*
X32191Y-21530D01*
X31460Y-21870D02*
X32191Y-21870D01*
X31460Y-22780D02*
X31460Y-22440D01*
X31460Y-22440D02*
X32191Y-22440D01*
X32191Y-22780D02*
X32191Y-22440D01*
X31460Y-22780D02*
X32191Y-22780D01*
X31460Y-20960D02*
X31460Y-20620D01*
X31460Y-20620D02*
X32191Y-20620D01*
X32191Y-20960D02*
X32191Y-20620D01*
X31460Y-20960D02*
X32191Y-20960D01*
X32507Y-22093D02*
X32507Y-21307D01*
X32507Y-21307D02*
X33293Y-21307D01*
X33293Y-22093D02*
X33293Y-21307D01*
X32507Y-22093D02*
X33293Y-22093D01*
G54D10*
X33600Y-20410D02*
X32200Y-20410D01*
X32200Y-20410D02*
X32200Y-22990D01*
X32200Y-22990D02*
X33600Y-22990D01*
X33600Y-22990D02*
X33600Y-20410D01*
G54D30*
X34664Y-23067D02*
X34664Y-20333D01*
X31136Y-20333D02*
X31136Y-23067D01*
X31136Y-23067D02*
X34664Y-23067D01*
X34664Y-20333D02*
X31136Y-20333D01*
G54D33*
X32525Y-30925D02*
X33075Y-30925D01*
X33075Y-30925D02*
X33075Y-31475D01*
X33075Y-31475D02*
X32525Y-31475D01*
X32525Y-31475D02*
X32525Y-30925D01*
X33075Y-32200D02*
X33069Y-32253D01*
X33069Y-32253D02*
X33054Y-32304D01*
X33054Y-32304D02*
X33029Y-32352D01*
X33029Y-32352D02*
X32995Y-32393D01*
X32995Y-32393D02*
X32953Y-32427D01*
X32953Y-32427D02*
X32906Y-32453D01*
X32906Y-32453D02*
X32855Y-32469D01*
X32855Y-32469D02*
X32801Y-32474D01*
X32801Y-32474D02*
X32749Y-32470D01*
X32749Y-32470D02*
X32697Y-32454D01*
X32697Y-32454D02*
X32650Y-32430D01*
X32650Y-32430D02*
X32608Y-32396D01*
X32608Y-32396D02*
X32574Y-32355D01*
X32574Y-32355D02*
X32548Y-32308D01*
X32548Y-32308D02*
X32532Y-32257D01*
X32532Y-32257D02*
X32526Y-32203D01*
X32526Y-32203D02*
X32530Y-32151D01*
X32530Y-32151D02*
X32545Y-32099D01*
X32545Y-32099D02*
X32569Y-32052D01*
X32569Y-32052D02*
X32603Y-32009D01*
X32603Y-32009D02*
X32644Y-31975D01*
X32644Y-31975D02*
X32690Y-31949D01*
X32690Y-31949D02*
X32741Y-31932D01*
X32741Y-31932D02*
X32795Y-31926D01*
X32795Y-31926D02*
X32847Y-31930D01*
X32847Y-31930D02*
X32899Y-31944D01*
X32899Y-31944D02*
X32947Y-31968D01*
X32947Y-31968D02*
X32989Y-32001D01*
X32989Y-32001D02*
X33024Y-32042D01*
X33024Y-32042D02*
X33051Y-32089D01*
X33051Y-32089D02*
X33068Y-32140D01*
X33068Y-32140D02*
X33074Y-32193D01*
X33074Y-32193D02*
X33075Y-32200D01*
X33075Y-33200D02*
X33069Y-33253D01*
X33069Y-33253D02*
X33054Y-33304D01*
X33054Y-33304D02*
X33029Y-33352D01*
X33029Y-33352D02*
X32995Y-33393D01*
X32995Y-33393D02*
X32953Y-33427D01*
X32953Y-33427D02*
X32906Y-33453D01*
X32906Y-33453D02*
X32855Y-33469D01*
X32855Y-33469D02*
X32801Y-33474D01*
X32801Y-33474D02*
X32749Y-33470D01*
X32749Y-33470D02*
X32697Y-33454D01*
X32697Y-33454D02*
X32650Y-33430D01*
X32650Y-33430D02*
X32608Y-33396D01*
X32608Y-33396D02*
X32574Y-33355D01*
X32574Y-33355D02*
X32548Y-33308D01*
X32548Y-33308D02*
X32532Y-33257D01*
X32532Y-33257D02*
X32526Y-33203D01*
X32526Y-33203D02*
X32530Y-33151D01*
X32530Y-33151D02*
X32545Y-33099D01*
X32545Y-33099D02*
X32569Y-33052D01*
X32569Y-33052D02*
X32603Y-33009D01*
X32603Y-33009D02*
X32644Y-32975D01*
X32644Y-32975D02*
X32690Y-32949D01*
X32690Y-32949D02*
X32741Y-32932D01*
X32741Y-32932D02*
X32795Y-32926D01*
X32795Y-32926D02*
X32847Y-32930D01*
X32847Y-32930D02*
X32899Y-32944D01*
X32899Y-32944D02*
X32947Y-32968D01*
X32947Y-32968D02*
X32989Y-33001D01*
X32989Y-33001D02*
X33024Y-33042D01*
X33024Y-33042D02*
X33051Y-33089D01*
X33051Y-33089D02*
X33068Y-33140D01*
X33068Y-33140D02*
X33074Y-33193D01*
X33074Y-33193D02*
X33075Y-33200D01*
X31300Y-30900D02*
X31900Y-30900D01*
X31900Y-30900D02*
X31900Y-31500D01*
X31900Y-31500D02*
X31300Y-31500D01*
X31300Y-31500D02*
X31300Y-30900D01*
X30900Y-31200D02*
X30894Y-31258D01*
X30894Y-31258D02*
X30877Y-31314D01*
X30877Y-31314D02*
X30849Y-31366D01*
X30849Y-31366D02*
X30812Y-31411D01*
X30812Y-31411D02*
X30767Y-31448D01*
X30767Y-31448D02*
X30716Y-31476D01*
X30716Y-31476D02*
X30660Y-31493D01*
X30660Y-31493D02*
X30602Y-31499D01*
X30602Y-31499D02*
X30544Y-31494D01*
X30544Y-31494D02*
X30488Y-31478D01*
X30488Y-31478D02*
X30436Y-31451D01*
X30436Y-31451D02*
X30391Y-31414D01*
X30391Y-31414D02*
X30353Y-31369D01*
X30353Y-31369D02*
X30325Y-31318D01*
X30325Y-31318D02*
X30307Y-31262D01*
X30307Y-31262D02*
X30301Y-31204D01*
X30301Y-31204D02*
X30305Y-31146D01*
X30305Y-31146D02*
X30322Y-31090D01*
X30322Y-31090D02*
X30348Y-31038D01*
X30348Y-31038D02*
X30385Y-30992D01*
X30385Y-30992D02*
X30429Y-30954D01*
X30429Y-30954D02*
X30480Y-30926D01*
X30480Y-30926D02*
X30536Y-30907D01*
X30536Y-30907D02*
X30594Y-30901D01*
X30594Y-30901D02*
X30652Y-30905D01*
X30652Y-30905D02*
X30708Y-30921D01*
X30708Y-30921D02*
X30760Y-30947D01*
X30760Y-30947D02*
X30806Y-30983D01*
X30806Y-30983D02*
X30845Y-31028D01*
X30845Y-31028D02*
X30874Y-31078D01*
X30874Y-31078D02*
X30892Y-31134D01*
X30892Y-31134D02*
X30899Y-31192D01*
X30899Y-31192D02*
X30900Y-31200D01*
X31900Y-32200D02*
X31894Y-32258D01*
X31894Y-32258D02*
X31877Y-32314D01*
X31877Y-32314D02*
X31849Y-32366D01*
X31849Y-32366D02*
X31812Y-32411D01*
X31812Y-32411D02*
X31767Y-32448D01*
X31767Y-32448D02*
X31716Y-32476D01*
X31716Y-32476D02*
X31660Y-32493D01*
X31660Y-32493D02*
X31602Y-32499D01*
X31602Y-32499D02*
X31544Y-32494D01*
X31544Y-32494D02*
X31488Y-32478D01*
X31488Y-32478D02*
X31436Y-32451D01*
X31436Y-32451D02*
X31391Y-32414D01*
X31391Y-32414D02*
X31353Y-32369D01*
X31353Y-32369D02*
X31325Y-32318D01*
X31325Y-32318D02*
X31307Y-32262D01*
X31307Y-32262D02*
X31301Y-32204D01*
X31301Y-32204D02*
X31305Y-32146D01*
X31305Y-32146D02*
X31322Y-32090D01*
X31322Y-32090D02*
X31348Y-32038D01*
X31348Y-32038D02*
X31385Y-31992D01*
X31385Y-31992D02*
X31429Y-31954D01*
X31429Y-31954D02*
X31480Y-31926D01*
X31480Y-31926D02*
X31536Y-31907D01*
X31536Y-31907D02*
X31594Y-31901D01*
X31594Y-31901D02*
X31652Y-31905D01*
X31652Y-31905D02*
X31708Y-31921D01*
X31708Y-31921D02*
X31760Y-31947D01*
X31760Y-31947D02*
X31806Y-31983D01*
X31806Y-31983D02*
X31845Y-32028D01*
X31845Y-32028D02*
X31874Y-32078D01*
X31874Y-32078D02*
X31892Y-32134D01*
X31892Y-32134D02*
X31899Y-32192D01*
X31899Y-32192D02*
X31900Y-32200D01*
X30900Y-32200D02*
X30894Y-32258D01*
X30894Y-32258D02*
X30877Y-32314D01*
X30877Y-32314D02*
X30849Y-32366D01*
X30849Y-32366D02*
X30812Y-32411D01*
X30812Y-32411D02*
X30767Y-32448D01*
X30767Y-32448D02*
X30716Y-32476D01*
X30716Y-32476D02*
X30660Y-32493D01*
X30660Y-32493D02*
X30602Y-32499D01*
X30602Y-32499D02*
X30544Y-32494D01*
X30544Y-32494D02*
X30488Y-32478D01*
X30488Y-32478D02*
X30436Y-32451D01*
X30436Y-32451D02*
X30391Y-32414D01*
X30391Y-32414D02*
X30353Y-32369D01*
X30353Y-32369D02*
X30325Y-32318D01*
X30325Y-32318D02*
X30307Y-32262D01*
X30307Y-32262D02*
X30301Y-32204D01*
X30301Y-32204D02*
X30305Y-32146D01*
X30305Y-32146D02*
X30322Y-32090D01*
X30322Y-32090D02*
X30348Y-32038D01*
X30348Y-32038D02*
X30385Y-31992D01*
X30385Y-31992D02*
X30429Y-31954D01*
X30429Y-31954D02*
X30480Y-31926D01*
X30480Y-31926D02*
X30536Y-31907D01*
X30536Y-31907D02*
X30594Y-31901D01*
X30594Y-31901D02*
X30652Y-31905D01*
X30652Y-31905D02*
X30708Y-31921D01*
X30708Y-31921D02*
X30760Y-31947D01*
X30760Y-31947D02*
X30806Y-31983D01*
X30806Y-31983D02*
X30845Y-32028D01*
X30845Y-32028D02*
X30874Y-32078D01*
X30874Y-32078D02*
X30892Y-32134D01*
X30892Y-32134D02*
X30899Y-32192D01*
X30899Y-32192D02*
X30900Y-32200D01*
X31900Y-33200D02*
X31894Y-33258D01*
X31894Y-33258D02*
X31877Y-33314D01*
X31877Y-33314D02*
X31849Y-33366D01*
X31849Y-33366D02*
X31812Y-33411D01*
X31812Y-33411D02*
X31767Y-33448D01*
X31767Y-33448D02*
X31716Y-33476D01*
X31716Y-33476D02*
X31660Y-33493D01*
X31660Y-33493D02*
X31602Y-33499D01*
X31602Y-33499D02*
X31544Y-33494D01*
X31544Y-33494D02*
X31488Y-33478D01*
X31488Y-33478D02*
X31436Y-33451D01*
X31436Y-33451D02*
X31391Y-33414D01*
X31391Y-33414D02*
X31353Y-33369D01*
X31353Y-33369D02*
X31325Y-33318D01*
X31325Y-33318D02*
X31307Y-33262D01*
X31307Y-33262D02*
X31301Y-33204D01*
X31301Y-33204D02*
X31305Y-33146D01*
X31305Y-33146D02*
X31322Y-33090D01*
X31322Y-33090D02*
X31348Y-33038D01*
X31348Y-33038D02*
X31385Y-32992D01*
X31385Y-32992D02*
X31429Y-32954D01*
X31429Y-32954D02*
X31480Y-32926D01*
X31480Y-32926D02*
X31536Y-32907D01*
X31536Y-32907D02*
X31594Y-32901D01*
X31594Y-32901D02*
X31652Y-32905D01*
X31652Y-32905D02*
X31708Y-32921D01*
X31708Y-32921D02*
X31760Y-32947D01*
X31760Y-32947D02*
X31806Y-32983D01*
X31806Y-32983D02*
X31845Y-33028D01*
X31845Y-33028D02*
X31874Y-33078D01*
X31874Y-33078D02*
X31892Y-33134D01*
X31892Y-33134D02*
X31899Y-33192D01*
X31899Y-33192D02*
X31900Y-33200D01*
X30900Y-33200D02*
X30894Y-33258D01*
X30894Y-33258D02*
X30877Y-33314D01*
X30877Y-33314D02*
X30849Y-33366D01*
X30849Y-33366D02*
X30812Y-33411D01*
X30812Y-33411D02*
X30767Y-33448D01*
X30767Y-33448D02*
X30716Y-33476D01*
X30716Y-33476D02*
X30660Y-33493D01*
X30660Y-33493D02*
X30602Y-33499D01*
X30602Y-33499D02*
X30544Y-33494D01*
X30544Y-33494D02*
X30488Y-33478D01*
X30488Y-33478D02*
X30436Y-33451D01*
X30436Y-33451D02*
X30391Y-33414D01*
X30391Y-33414D02*
X30353Y-33369D01*
X30353Y-33369D02*
X30325Y-33318D01*
X30325Y-33318D02*
X30307Y-33262D01*
X30307Y-33262D02*
X30301Y-33204D01*
X30301Y-33204D02*
X30305Y-33146D01*
X30305Y-33146D02*
X30322Y-33090D01*
X30322Y-33090D02*
X30348Y-33038D01*
X30348Y-33038D02*
X30385Y-32992D01*
X30385Y-32992D02*
X30429Y-32954D01*
X30429Y-32954D02*
X30480Y-32926D01*
X30480Y-32926D02*
X30536Y-32907D01*
X30536Y-32907D02*
X30594Y-32901D01*
X30594Y-32901D02*
X30652Y-32905D01*
X30652Y-32905D02*
X30708Y-32921D01*
X30708Y-32921D02*
X30760Y-32947D01*
X30760Y-32947D02*
X30806Y-32983D01*
X30806Y-32983D02*
X30845Y-33028D01*
X30845Y-33028D02*
X30874Y-33078D01*
X30874Y-33078D02*
X30892Y-33134D01*
X30892Y-33134D02*
X30899Y-33192D01*
X30899Y-33192D02*
X30900Y-33200D01*
X34700Y-30900D02*
X35300Y-30900D01*
X35300Y-30900D02*
X35300Y-31500D01*
X35300Y-31500D02*
X34700Y-31500D01*
X34700Y-31500D02*
X34700Y-30900D01*
X34300Y-31200D02*
X34294Y-31258D01*
X34294Y-31258D02*
X34277Y-31314D01*
X34277Y-31314D02*
X34249Y-31366D01*
X34249Y-31366D02*
X34212Y-31411D01*
X34212Y-31411D02*
X34167Y-31448D01*
X34167Y-31448D02*
X34116Y-31476D01*
X34116Y-31476D02*
X34060Y-31493D01*
X34060Y-31493D02*
X34002Y-31499D01*
X34002Y-31499D02*
X33944Y-31494D01*
X33944Y-31494D02*
X33888Y-31478D01*
X33888Y-31478D02*
X33836Y-31451D01*
X33836Y-31451D02*
X33791Y-31414D01*
X33791Y-31414D02*
X33753Y-31369D01*
X33753Y-31369D02*
X33725Y-31318D01*
X33725Y-31318D02*
X33707Y-31262D01*
X33707Y-31262D02*
X33701Y-31204D01*
X33701Y-31204D02*
X33705Y-31146D01*
X33705Y-31146D02*
X33722Y-31090D01*
X33722Y-31090D02*
X33748Y-31038D01*
X33748Y-31038D02*
X33785Y-30992D01*
X33785Y-30992D02*
X33829Y-30954D01*
X33829Y-30954D02*
X33880Y-30926D01*
X33880Y-30926D02*
X33936Y-30907D01*
X33936Y-30907D02*
X33994Y-30901D01*
X33994Y-30901D02*
X34052Y-30905D01*
X34052Y-30905D02*
X34108Y-30921D01*
X34108Y-30921D02*
X34160Y-30947D01*
X34160Y-30947D02*
X34206Y-30983D01*
X34206Y-30983D02*
X34245Y-31028D01*
X34245Y-31028D02*
X34274Y-31078D01*
X34274Y-31078D02*
X34292Y-31134D01*
X34292Y-31134D02*
X34299Y-31192D01*
X34299Y-31192D02*
X34300Y-31200D01*
X35300Y-32200D02*
X35294Y-32258D01*
X35294Y-32258D02*
X35277Y-32314D01*
X35277Y-32314D02*
X35249Y-32366D01*
X35249Y-32366D02*
X35212Y-32411D01*
X35212Y-32411D02*
X35167Y-32448D01*
X35167Y-32448D02*
X35116Y-32476D01*
X35116Y-32476D02*
X35060Y-32493D01*
X35060Y-32493D02*
X35002Y-32499D01*
X35002Y-32499D02*
X34944Y-32494D01*
X34944Y-32494D02*
X34888Y-32478D01*
X34888Y-32478D02*
X34836Y-32451D01*
X34836Y-32451D02*
X34791Y-32414D01*
X34791Y-32414D02*
X34753Y-32369D01*
X34753Y-32369D02*
X34725Y-32318D01*
X34725Y-32318D02*
X34707Y-32262D01*
X34707Y-32262D02*
X34701Y-32204D01*
X34701Y-32204D02*
X34705Y-32146D01*
X34705Y-32146D02*
X34722Y-32090D01*
X34722Y-32090D02*
X34748Y-32038D01*
X34748Y-32038D02*
X34785Y-31992D01*
X34785Y-31992D02*
X34829Y-31954D01*
X34829Y-31954D02*
X34880Y-31926D01*
X34880Y-31926D02*
X34936Y-31907D01*
X34936Y-31907D02*
X34994Y-31901D01*
X34994Y-31901D02*
X35052Y-31905D01*
X35052Y-31905D02*
X35108Y-31921D01*
X35108Y-31921D02*
X35160Y-31947D01*
X35160Y-31947D02*
X35206Y-31983D01*
X35206Y-31983D02*
X35245Y-32028D01*
X35245Y-32028D02*
X35274Y-32078D01*
X35274Y-32078D02*
X35292Y-32134D01*
X35292Y-32134D02*
X35299Y-32192D01*
X35299Y-32192D02*
X35300Y-32200D01*
X34300Y-32200D02*
X34294Y-32258D01*
X34294Y-32258D02*
X34277Y-32314D01*
X34277Y-32314D02*
X34249Y-32366D01*
X34249Y-32366D02*
X34212Y-32411D01*
X34212Y-32411D02*
X34167Y-32448D01*
X34167Y-32448D02*
X34116Y-32476D01*
X34116Y-32476D02*
X34060Y-32493D01*
X34060Y-32493D02*
X34002Y-32499D01*
X34002Y-32499D02*
X33944Y-32494D01*
X33944Y-32494D02*
X33888Y-32478D01*
X33888Y-32478D02*
X33836Y-32451D01*
X33836Y-32451D02*
X33791Y-32414D01*
X33791Y-32414D02*
X33753Y-32369D01*
X33753Y-32369D02*
X33725Y-32318D01*
X33725Y-32318D02*
X33707Y-32262D01*
X33707Y-32262D02*
X33701Y-32204D01*
X33701Y-32204D02*
X33705Y-32146D01*
X33705Y-32146D02*
X33722Y-32090D01*
X33722Y-32090D02*
X33748Y-32038D01*
X33748Y-32038D02*
X33785Y-31992D01*
X33785Y-31992D02*
X33829Y-31954D01*
X33829Y-31954D02*
X33880Y-31926D01*
X33880Y-31926D02*
X33936Y-31907D01*
X33936Y-31907D02*
X33994Y-31901D01*
X33994Y-31901D02*
X34052Y-31905D01*
X34052Y-31905D02*
X34108Y-31921D01*
X34108Y-31921D02*
X34160Y-31947D01*
X34160Y-31947D02*
X34206Y-31983D01*
X34206Y-31983D02*
X34245Y-32028D01*
X34245Y-32028D02*
X34274Y-32078D01*
X34274Y-32078D02*
X34292Y-32134D01*
X34292Y-32134D02*
X34299Y-32192D01*
X34299Y-32192D02*
X34300Y-32200D01*
X35300Y-33200D02*
X35294Y-33258D01*
X35294Y-33258D02*
X35277Y-33314D01*
X35277Y-33314D02*
X35249Y-33366D01*
X35249Y-33366D02*
X35212Y-33411D01*
X35212Y-33411D02*
X35167Y-33448D01*
X35167Y-33448D02*
X35116Y-33476D01*
X35116Y-33476D02*
X35060Y-33493D01*
X35060Y-33493D02*
X35002Y-33499D01*
X35002Y-33499D02*
X34944Y-33494D01*
X34944Y-33494D02*
X34888Y-33478D01*
X34888Y-33478D02*
X34836Y-33451D01*
X34836Y-33451D02*
X34791Y-33414D01*
X34791Y-33414D02*
X34753Y-33369D01*
X34753Y-33369D02*
X34725Y-33318D01*
X34725Y-33318D02*
X34707Y-33262D01*
X34707Y-33262D02*
X34701Y-33204D01*
X34701Y-33204D02*
X34705Y-33146D01*
X34705Y-33146D02*
X34722Y-33090D01*
X34722Y-33090D02*
X34748Y-33038D01*
X34748Y-33038D02*
X34785Y-32992D01*
X34785Y-32992D02*
X34829Y-32954D01*
X34829Y-32954D02*
X34880Y-32926D01*
X34880Y-32926D02*
X34936Y-32907D01*
X34936Y-32907D02*
X34994Y-32901D01*
X34994Y-32901D02*
X35052Y-32905D01*
X35052Y-32905D02*
X35108Y-32921D01*
X35108Y-32921D02*
X35160Y-32947D01*
X35160Y-32947D02*
X35206Y-32983D01*
X35206Y-32983D02*
X35245Y-33028D01*
X35245Y-33028D02*
X35274Y-33078D01*
X35274Y-33078D02*
X35292Y-33134D01*
X35292Y-33134D02*
X35299Y-33192D01*
X35299Y-33192D02*
X35300Y-33200D01*
X34300Y-33200D02*
X34294Y-33258D01*
X34294Y-33258D02*
X34277Y-33314D01*
X34277Y-33314D02*
X34249Y-33366D01*
X34249Y-33366D02*
X34212Y-33411D01*
X34212Y-33411D02*
X34167Y-33448D01*
X34167Y-33448D02*
X34116Y-33476D01*
X34116Y-33476D02*
X34060Y-33493D01*
X34060Y-33493D02*
X34002Y-33499D01*
X34002Y-33499D02*
X33944Y-33494D01*
X33944Y-33494D02*
X33888Y-33478D01*
X33888Y-33478D02*
X33836Y-33451D01*
X33836Y-33451D02*
X33791Y-33414D01*
X33791Y-33414D02*
X33753Y-33369D01*
X33753Y-33369D02*
X33725Y-33318D01*
X33725Y-33318D02*
X33707Y-33262D01*
X33707Y-33262D02*
X33701Y-33204D01*
X33701Y-33204D02*
X33705Y-33146D01*
X33705Y-33146D02*
X33722Y-33090D01*
X33722Y-33090D02*
X33748Y-33038D01*
X33748Y-33038D02*
X33785Y-32992D01*
X33785Y-32992D02*
X33829Y-32954D01*
X33829Y-32954D02*
X33880Y-32926D01*
X33880Y-32926D02*
X33936Y-32907D01*
X33936Y-32907D02*
X33994Y-32901D01*
X33994Y-32901D02*
X34052Y-32905D01*
X34052Y-32905D02*
X34108Y-32921D01*
X34108Y-32921D02*
X34160Y-32947D01*
X34160Y-32947D02*
X34206Y-32983D01*
X34206Y-32983D02*
X34245Y-33028D01*
X34245Y-33028D02*
X34274Y-33078D01*
X34274Y-33078D02*
X34292Y-33134D01*
X34292Y-33134D02*
X34299Y-33192D01*
X34299Y-33192D02*
X34300Y-33200D01*
X30025Y-24675D02*
X30025Y-24125D01*
X30025Y-24125D02*
X30575Y-24125D01*
X30575Y-24125D02*
X30575Y-24675D01*
X30575Y-24675D02*
X30025Y-24675D01*
X31575Y-24400D02*
X31569Y-24453D01*
X31569Y-24453D02*
X31554Y-24504D01*
X31554Y-24504D02*
X31529Y-24552D01*
X31529Y-24552D02*
X31495Y-24593D01*
X31495Y-24593D02*
X31453Y-24627D01*
X31453Y-24627D02*
X31406Y-24653D01*
X31406Y-24653D02*
X31355Y-24669D01*
X31355Y-24669D02*
X31301Y-24674D01*
X31301Y-24674D02*
X31249Y-24670D01*
X31249Y-24670D02*
X31197Y-24654D01*
X31197Y-24654D02*
X31150Y-24630D01*
X31150Y-24630D02*
X31108Y-24596D01*
X31108Y-24596D02*
X31074Y-24555D01*
X31074Y-24555D02*
X31048Y-24508D01*
X31048Y-24508D02*
X31032Y-24457D01*
X31032Y-24457D02*
X31026Y-24403D01*
X31026Y-24403D02*
X31030Y-24351D01*
X31030Y-24351D02*
X31045Y-24299D01*
X31045Y-24299D02*
X31069Y-24252D01*
X31069Y-24252D02*
X31103Y-24209D01*
X31103Y-24209D02*
X31144Y-24175D01*
X31144Y-24175D02*
X31190Y-24149D01*
X31190Y-24149D02*
X31241Y-24132D01*
X31241Y-24132D02*
X31295Y-24126D01*
X31295Y-24126D02*
X31347Y-24130D01*
X31347Y-24130D02*
X31399Y-24144D01*
X31399Y-24144D02*
X31447Y-24168D01*
X31447Y-24168D02*
X31489Y-24201D01*
X31489Y-24201D02*
X31524Y-24242D01*
X31524Y-24242D02*
X31551Y-24289D01*
X31551Y-24289D02*
X31568Y-24340D01*
X31568Y-24340D02*
X31574Y-24393D01*
X31574Y-24393D02*
X31575Y-24400D01*
X32575Y-24400D02*
X32569Y-24453D01*
X32569Y-24453D02*
X32554Y-24504D01*
X32554Y-24504D02*
X32529Y-24552D01*
X32529Y-24552D02*
X32495Y-24593D01*
X32495Y-24593D02*
X32453Y-24627D01*
X32453Y-24627D02*
X32406Y-24653D01*
X32406Y-24653D02*
X32355Y-24669D01*
X32355Y-24669D02*
X32301Y-24674D01*
X32301Y-24674D02*
X32249Y-24670D01*
X32249Y-24670D02*
X32197Y-24654D01*
X32197Y-24654D02*
X32150Y-24630D01*
X32150Y-24630D02*
X32108Y-24596D01*
X32108Y-24596D02*
X32074Y-24555D01*
X32074Y-24555D02*
X32048Y-24508D01*
X32048Y-24508D02*
X32032Y-24457D01*
X32032Y-24457D02*
X32026Y-24403D01*
X32026Y-24403D02*
X32030Y-24351D01*
X32030Y-24351D02*
X32045Y-24299D01*
X32045Y-24299D02*
X32069Y-24252D01*
X32069Y-24252D02*
X32103Y-24209D01*
X32103Y-24209D02*
X32144Y-24175D01*
X32144Y-24175D02*
X32190Y-24149D01*
X32190Y-24149D02*
X32241Y-24132D01*
X32241Y-24132D02*
X32295Y-24126D01*
X32295Y-24126D02*
X32347Y-24130D01*
X32347Y-24130D02*
X32399Y-24144D01*
X32399Y-24144D02*
X32447Y-24168D01*
X32447Y-24168D02*
X32489Y-24201D01*
X32489Y-24201D02*
X32524Y-24242D01*
X32524Y-24242D02*
X32551Y-24289D01*
X32551Y-24289D02*
X32568Y-24340D01*
X32568Y-24340D02*
X32574Y-24393D01*
X32574Y-24393D02*
X32575Y-24400D01*
X33575Y-24400D02*
X33569Y-24453D01*
X33569Y-24453D02*
X33554Y-24504D01*
X33554Y-24504D02*
X33529Y-24552D01*
X33529Y-24552D02*
X33495Y-24593D01*
X33495Y-24593D02*
X33453Y-24627D01*
X33453Y-24627D02*
X33406Y-24653D01*
X33406Y-24653D02*
X33355Y-24669D01*
X33355Y-24669D02*
X33301Y-24674D01*
X33301Y-24674D02*
X33249Y-24670D01*
X33249Y-24670D02*
X33197Y-24654D01*
X33197Y-24654D02*
X33150Y-24630D01*
X33150Y-24630D02*
X33108Y-24596D01*
X33108Y-24596D02*
X33074Y-24555D01*
X33074Y-24555D02*
X33048Y-24508D01*
X33048Y-24508D02*
X33032Y-24457D01*
X33032Y-24457D02*
X33026Y-24403D01*
X33026Y-24403D02*
X33030Y-24351D01*
X33030Y-24351D02*
X33045Y-24299D01*
X33045Y-24299D02*
X33069Y-24252D01*
X33069Y-24252D02*
X33103Y-24209D01*
X33103Y-24209D02*
X33144Y-24175D01*
X33144Y-24175D02*
X33190Y-24149D01*
X33190Y-24149D02*
X33241Y-24132D01*
X33241Y-24132D02*
X33295Y-24126D01*
X33295Y-24126D02*
X33347Y-24130D01*
X33347Y-24130D02*
X33399Y-24144D01*
X33399Y-24144D02*
X33447Y-24168D01*
X33447Y-24168D02*
X33489Y-24201D01*
X33489Y-24201D02*
X33524Y-24242D01*
X33524Y-24242D02*
X33551Y-24289D01*
X33551Y-24289D02*
X33568Y-24340D01*
X33568Y-24340D02*
X33574Y-24393D01*
X33574Y-24393D02*
X33575Y-24400D01*
X34575Y-24400D02*
X34569Y-24453D01*
X34569Y-24453D02*
X34554Y-24504D01*
X34554Y-24504D02*
X34529Y-24552D01*
X34529Y-24552D02*
X34495Y-24593D01*
X34495Y-24593D02*
X34453Y-24627D01*
X34453Y-24627D02*
X34406Y-24653D01*
X34406Y-24653D02*
X34355Y-24669D01*
X34355Y-24669D02*
X34301Y-24674D01*
X34301Y-24674D02*
X34249Y-24670D01*
X34249Y-24670D02*
X34197Y-24654D01*
X34197Y-24654D02*
X34150Y-24630D01*
X34150Y-24630D02*
X34108Y-24596D01*
X34108Y-24596D02*
X34074Y-24555D01*
X34074Y-24555D02*
X34048Y-24508D01*
X34048Y-24508D02*
X34032Y-24457D01*
X34032Y-24457D02*
X34026Y-24403D01*
X34026Y-24403D02*
X34030Y-24351D01*
X34030Y-24351D02*
X34045Y-24299D01*
X34045Y-24299D02*
X34069Y-24252D01*
X34069Y-24252D02*
X34103Y-24209D01*
X34103Y-24209D02*
X34144Y-24175D01*
X34144Y-24175D02*
X34190Y-24149D01*
X34190Y-24149D02*
X34241Y-24132D01*
X34241Y-24132D02*
X34295Y-24126D01*
X34295Y-24126D02*
X34347Y-24130D01*
X34347Y-24130D02*
X34399Y-24144D01*
X34399Y-24144D02*
X34447Y-24168D01*
X34447Y-24168D02*
X34489Y-24201D01*
X34489Y-24201D02*
X34524Y-24242D01*
X34524Y-24242D02*
X34551Y-24289D01*
X34551Y-24289D02*
X34568Y-24340D01*
X34568Y-24340D02*
X34574Y-24393D01*
X34574Y-24393D02*
X34575Y-24400D01*
X35575Y-24400D02*
X35569Y-24453D01*
X35569Y-24453D02*
X35554Y-24504D01*
X35554Y-24504D02*
X35529Y-24552D01*
X35529Y-24552D02*
X35495Y-24593D01*
X35495Y-24593D02*
X35453Y-24627D01*
X35453Y-24627D02*
X35406Y-24653D01*
X35406Y-24653D02*
X35355Y-24669D01*
X35355Y-24669D02*
X35301Y-24674D01*
X35301Y-24674D02*
X35249Y-24670D01*
X35249Y-24670D02*
X35197Y-24654D01*
X35197Y-24654D02*
X35150Y-24630D01*
X35150Y-24630D02*
X35108Y-24596D01*
X35108Y-24596D02*
X35074Y-24555D01*
X35074Y-24555D02*
X35048Y-24508D01*
X35048Y-24508D02*
X35032Y-24457D01*
X35032Y-24457D02*
X35026Y-24403D01*
X35026Y-24403D02*
X35030Y-24351D01*
X35030Y-24351D02*
X35045Y-24299D01*
X35045Y-24299D02*
X35069Y-24252D01*
X35069Y-24252D02*
X35103Y-24209D01*
X35103Y-24209D02*
X35144Y-24175D01*
X35144Y-24175D02*
X35190Y-24149D01*
X35190Y-24149D02*
X35241Y-24132D01*
X35241Y-24132D02*
X35295Y-24126D01*
X35295Y-24126D02*
X35347Y-24130D01*
X35347Y-24130D02*
X35399Y-24144D01*
X35399Y-24144D02*
X35447Y-24168D01*
X35447Y-24168D02*
X35489Y-24201D01*
X35489Y-24201D02*
X35524Y-24242D01*
X35524Y-24242D02*
X35551Y-24289D01*
X35551Y-24289D02*
X35568Y-24340D01*
X35568Y-24340D02*
X35574Y-24393D01*
X35574Y-24393D02*
X35575Y-24400D01*
X36025Y-25125D02*
X36575Y-25125D01*
X36575Y-25125D02*
X36575Y-25675D01*
X36575Y-25675D02*
X36025Y-25675D01*
X36025Y-25675D02*
X36025Y-25125D01*
X36575Y-26400D02*
X36569Y-26453D01*
X36569Y-26453D02*
X36554Y-26504D01*
X36554Y-26504D02*
X36529Y-26552D01*
X36529Y-26552D02*
X36495Y-26593D01*
X36495Y-26593D02*
X36453Y-26627D01*
X36453Y-26627D02*
X36406Y-26653D01*
X36406Y-26653D02*
X36355Y-26669D01*
X36355Y-26669D02*
X36301Y-26674D01*
X36301Y-26674D02*
X36249Y-26670D01*
X36249Y-26670D02*
X36197Y-26654D01*
X36197Y-26654D02*
X36150Y-26630D01*
X36150Y-26630D02*
X36108Y-26596D01*
X36108Y-26596D02*
X36074Y-26555D01*
X36074Y-26555D02*
X36048Y-26508D01*
X36048Y-26508D02*
X36032Y-26457D01*
X36032Y-26457D02*
X36026Y-26403D01*
X36026Y-26403D02*
X36030Y-26351D01*
X36030Y-26351D02*
X36045Y-26299D01*
X36045Y-26299D02*
X36069Y-26252D01*
X36069Y-26252D02*
X36103Y-26209D01*
X36103Y-26209D02*
X36144Y-26175D01*
X36144Y-26175D02*
X36190Y-26149D01*
X36190Y-26149D02*
X36241Y-26132D01*
X36241Y-26132D02*
X36295Y-26126D01*
X36295Y-26126D02*
X36347Y-26130D01*
X36347Y-26130D02*
X36399Y-26144D01*
X36399Y-26144D02*
X36447Y-26168D01*
X36447Y-26168D02*
X36489Y-26201D01*
X36489Y-26201D02*
X36524Y-26242D01*
X36524Y-26242D02*
X36551Y-26289D01*
X36551Y-26289D02*
X36568Y-26340D01*
X36568Y-26340D02*
X36574Y-26393D01*
X36574Y-26393D02*
X36575Y-26400D01*
X36575Y-27400D02*
X36569Y-27453D01*
X36569Y-27453D02*
X36554Y-27504D01*
X36554Y-27504D02*
X36529Y-27552D01*
X36529Y-27552D02*
X36495Y-27593D01*
X36495Y-27593D02*
X36453Y-27627D01*
X36453Y-27627D02*
X36406Y-27653D01*
X36406Y-27653D02*
X36355Y-27669D01*
X36355Y-27669D02*
X36301Y-27674D01*
X36301Y-27674D02*
X36249Y-27670D01*
X36249Y-27670D02*
X36197Y-27654D01*
X36197Y-27654D02*
X36150Y-27630D01*
X36150Y-27630D02*
X36108Y-27596D01*
X36108Y-27596D02*
X36074Y-27555D01*
X36074Y-27555D02*
X36048Y-27508D01*
X36048Y-27508D02*
X36032Y-27457D01*
X36032Y-27457D02*
X36026Y-27403D01*
X36026Y-27403D02*
X36030Y-27351D01*
X36030Y-27351D02*
X36045Y-27299D01*
X36045Y-27299D02*
X36069Y-27252D01*
X36069Y-27252D02*
X36103Y-27209D01*
X36103Y-27209D02*
X36144Y-27175D01*
X36144Y-27175D02*
X36190Y-27149D01*
X36190Y-27149D02*
X36241Y-27132D01*
X36241Y-27132D02*
X36295Y-27126D01*
X36295Y-27126D02*
X36347Y-27130D01*
X36347Y-27130D02*
X36399Y-27144D01*
X36399Y-27144D02*
X36447Y-27168D01*
X36447Y-27168D02*
X36489Y-27201D01*
X36489Y-27201D02*
X36524Y-27242D01*
X36524Y-27242D02*
X36551Y-27289D01*
X36551Y-27289D02*
X36568Y-27340D01*
X36568Y-27340D02*
X36574Y-27393D01*
X36574Y-27393D02*
X36575Y-27400D01*
X36575Y-28400D02*
X36569Y-28453D01*
X36569Y-28453D02*
X36554Y-28504D01*
X36554Y-28504D02*
X36529Y-28552D01*
X36529Y-28552D02*
X36495Y-28593D01*
X36495Y-28593D02*
X36453Y-28627D01*
X36453Y-28627D02*
X36406Y-28653D01*
X36406Y-28653D02*
X36355Y-28669D01*
X36355Y-28669D02*
X36301Y-28674D01*
X36301Y-28674D02*
X36249Y-28670D01*
X36249Y-28670D02*
X36197Y-28654D01*
X36197Y-28654D02*
X36150Y-28630D01*
X36150Y-28630D02*
X36108Y-28596D01*
X36108Y-28596D02*
X36074Y-28555D01*
X36074Y-28555D02*
X36048Y-28508D01*
X36048Y-28508D02*
X36032Y-28457D01*
X36032Y-28457D02*
X36026Y-28403D01*
X36026Y-28403D02*
X36030Y-28351D01*
X36030Y-28351D02*
X36045Y-28299D01*
X36045Y-28299D02*
X36069Y-28252D01*
X36069Y-28252D02*
X36103Y-28209D01*
X36103Y-28209D02*
X36144Y-28175D01*
X36144Y-28175D02*
X36190Y-28149D01*
X36190Y-28149D02*
X36241Y-28132D01*
X36241Y-28132D02*
X36295Y-28126D01*
X36295Y-28126D02*
X36347Y-28130D01*
X36347Y-28130D02*
X36399Y-28144D01*
X36399Y-28144D02*
X36447Y-28168D01*
X36447Y-28168D02*
X36489Y-28201D01*
X36489Y-28201D02*
X36524Y-28242D01*
X36524Y-28242D02*
X36551Y-28289D01*
X36551Y-28289D02*
X36568Y-28340D01*
X36568Y-28340D02*
X36574Y-28393D01*
X36574Y-28393D02*
X36575Y-28400D01*
X36575Y-29400D02*
X36569Y-29453D01*
X36569Y-29453D02*
X36554Y-29504D01*
X36554Y-29504D02*
X36529Y-29552D01*
X36529Y-29552D02*
X36495Y-29593D01*
X36495Y-29593D02*
X36453Y-29627D01*
X36453Y-29627D02*
X36406Y-29653D01*
X36406Y-29653D02*
X36355Y-29669D01*
X36355Y-29669D02*
X36301Y-29674D01*
X36301Y-29674D02*
X36249Y-29670D01*
X36249Y-29670D02*
X36197Y-29654D01*
X36197Y-29654D02*
X36150Y-29630D01*
X36150Y-29630D02*
X36108Y-29596D01*
X36108Y-29596D02*
X36074Y-29555D01*
X36074Y-29555D02*
X36048Y-29508D01*
X36048Y-29508D02*
X36032Y-29457D01*
X36032Y-29457D02*
X36026Y-29403D01*
X36026Y-29403D02*
X36030Y-29351D01*
X36030Y-29351D02*
X36045Y-29299D01*
X36045Y-29299D02*
X36069Y-29252D01*
X36069Y-29252D02*
X36103Y-29209D01*
X36103Y-29209D02*
X36144Y-29175D01*
X36144Y-29175D02*
X36190Y-29149D01*
X36190Y-29149D02*
X36241Y-29132D01*
X36241Y-29132D02*
X36295Y-29126D01*
X36295Y-29126D02*
X36347Y-29130D01*
X36347Y-29130D02*
X36399Y-29144D01*
X36399Y-29144D02*
X36447Y-29168D01*
X36447Y-29168D02*
X36489Y-29201D01*
X36489Y-29201D02*
X36524Y-29242D01*
X36524Y-29242D02*
X36551Y-29289D01*
X36551Y-29289D02*
X36568Y-29340D01*
X36568Y-29340D02*
X36574Y-29393D01*
X36574Y-29393D02*
X36575Y-29400D01*
X36575Y-30400D02*
X36569Y-30453D01*
X36569Y-30453D02*
X36554Y-30504D01*
X36554Y-30504D02*
X36529Y-30552D01*
X36529Y-30552D02*
X36495Y-30593D01*
X36495Y-30593D02*
X36453Y-30627D01*
X36453Y-30627D02*
X36406Y-30653D01*
X36406Y-30653D02*
X36355Y-30669D01*
X36355Y-30669D02*
X36301Y-30674D01*
X36301Y-30674D02*
X36249Y-30670D01*
X36249Y-30670D02*
X36197Y-30654D01*
X36197Y-30654D02*
X36150Y-30630D01*
X36150Y-30630D02*
X36108Y-30596D01*
X36108Y-30596D02*
X36074Y-30555D01*
X36074Y-30555D02*
X36048Y-30508D01*
X36048Y-30508D02*
X36032Y-30457D01*
X36032Y-30457D02*
X36026Y-30403D01*
X36026Y-30403D02*
X36030Y-30351D01*
X36030Y-30351D02*
X36045Y-30299D01*
X36045Y-30299D02*
X36069Y-30252D01*
X36069Y-30252D02*
X36103Y-30209D01*
X36103Y-30209D02*
X36144Y-30175D01*
X36144Y-30175D02*
X36190Y-30149D01*
X36190Y-30149D02*
X36241Y-30132D01*
X36241Y-30132D02*
X36295Y-30126D01*
X36295Y-30126D02*
X36347Y-30130D01*
X36347Y-30130D02*
X36399Y-30144D01*
X36399Y-30144D02*
X36447Y-30168D01*
X36447Y-30168D02*
X36489Y-30201D01*
X36489Y-30201D02*
X36524Y-30242D01*
X36524Y-30242D02*
X36551Y-30289D01*
X36551Y-30289D02*
X36568Y-30340D01*
X36568Y-30340D02*
X36574Y-30393D01*
X36574Y-30393D02*
X36575Y-30400D01*
X29020Y-25125D02*
X29570Y-25125D01*
X29570Y-25125D02*
X29570Y-25675D01*
X29570Y-25675D02*
X29020Y-25675D01*
X29020Y-25675D02*
X29020Y-25125D01*
X29570Y-26400D02*
X29564Y-26453D01*
X29564Y-26453D02*
X29549Y-26504D01*
X29549Y-26504D02*
X29524Y-26552D01*
X29524Y-26552D02*
X29490Y-26593D01*
X29490Y-26593D02*
X29448Y-26627D01*
X29448Y-26627D02*
X29401Y-26653D01*
X29401Y-26653D02*
X29350Y-26669D01*
X29350Y-26669D02*
X29296Y-26674D01*
X29296Y-26674D02*
X29244Y-26670D01*
X29244Y-26670D02*
X29192Y-26654D01*
X29192Y-26654D02*
X29145Y-26630D01*
X29145Y-26630D02*
X29103Y-26596D01*
X29103Y-26596D02*
X29069Y-26555D01*
X29069Y-26555D02*
X29043Y-26508D01*
X29043Y-26508D02*
X29027Y-26457D01*
X29027Y-26457D02*
X29021Y-26403D01*
X29021Y-26403D02*
X29025Y-26351D01*
X29025Y-26351D02*
X29040Y-26299D01*
X29040Y-26299D02*
X29064Y-26252D01*
X29064Y-26252D02*
X29098Y-26209D01*
X29098Y-26209D02*
X29139Y-26175D01*
X29139Y-26175D02*
X29185Y-26149D01*
X29185Y-26149D02*
X29236Y-26132D01*
X29236Y-26132D02*
X29290Y-26126D01*
X29290Y-26126D02*
X29342Y-26130D01*
X29342Y-26130D02*
X29394Y-26144D01*
X29394Y-26144D02*
X29442Y-26168D01*
X29442Y-26168D02*
X29484Y-26201D01*
X29484Y-26201D02*
X29519Y-26242D01*
X29519Y-26242D02*
X29546Y-26289D01*
X29546Y-26289D02*
X29563Y-26340D01*
X29563Y-26340D02*
X29569Y-26393D01*
X29569Y-26393D02*
X29570Y-26400D01*
X29570Y-27400D02*
X29564Y-27453D01*
X29564Y-27453D02*
X29549Y-27504D01*
X29549Y-27504D02*
X29524Y-27552D01*
X29524Y-27552D02*
X29490Y-27593D01*
X29490Y-27593D02*
X29448Y-27627D01*
X29448Y-27627D02*
X29401Y-27653D01*
X29401Y-27653D02*
X29350Y-27669D01*
X29350Y-27669D02*
X29296Y-27674D01*
X29296Y-27674D02*
X29244Y-27670D01*
X29244Y-27670D02*
X29192Y-27654D01*
X29192Y-27654D02*
X29145Y-27630D01*
X29145Y-27630D02*
X29103Y-27596D01*
X29103Y-27596D02*
X29069Y-27555D01*
X29069Y-27555D02*
X29043Y-27508D01*
X29043Y-27508D02*
X29027Y-27457D01*
X29027Y-27457D02*
X29021Y-27403D01*
X29021Y-27403D02*
X29025Y-27351D01*
X29025Y-27351D02*
X29040Y-27299D01*
X29040Y-27299D02*
X29064Y-27252D01*
X29064Y-27252D02*
X29098Y-27209D01*
X29098Y-27209D02*
X29139Y-27175D01*
X29139Y-27175D02*
X29185Y-27149D01*
X29185Y-27149D02*
X29236Y-27132D01*
X29236Y-27132D02*
X29290Y-27126D01*
X29290Y-27126D02*
X29342Y-27130D01*
X29342Y-27130D02*
X29394Y-27144D01*
X29394Y-27144D02*
X29442Y-27168D01*
X29442Y-27168D02*
X29484Y-27201D01*
X29484Y-27201D02*
X29519Y-27242D01*
X29519Y-27242D02*
X29546Y-27289D01*
X29546Y-27289D02*
X29563Y-27340D01*
X29563Y-27340D02*
X29569Y-27393D01*
X29569Y-27393D02*
X29570Y-27400D01*
X29570Y-28400D02*
X29564Y-28453D01*
X29564Y-28453D02*
X29549Y-28504D01*
X29549Y-28504D02*
X29524Y-28552D01*
X29524Y-28552D02*
X29490Y-28593D01*
X29490Y-28593D02*
X29448Y-28627D01*
X29448Y-28627D02*
X29401Y-28653D01*
X29401Y-28653D02*
X29350Y-28669D01*
X29350Y-28669D02*
X29296Y-28674D01*
X29296Y-28674D02*
X29244Y-28670D01*
X29244Y-28670D02*
X29192Y-28654D01*
X29192Y-28654D02*
X29145Y-28630D01*
X29145Y-28630D02*
X29103Y-28596D01*
X29103Y-28596D02*
X29069Y-28555D01*
X29069Y-28555D02*
X29043Y-28508D01*
X29043Y-28508D02*
X29027Y-28457D01*
X29027Y-28457D02*
X29021Y-28403D01*
X29021Y-28403D02*
X29025Y-28351D01*
X29025Y-28351D02*
X29040Y-28299D01*
X29040Y-28299D02*
X29064Y-28252D01*
X29064Y-28252D02*
X29098Y-28209D01*
X29098Y-28209D02*
X29139Y-28175D01*
X29139Y-28175D02*
X29185Y-28149D01*
X29185Y-28149D02*
X29236Y-28132D01*
X29236Y-28132D02*
X29290Y-28126D01*
X29290Y-28126D02*
X29342Y-28130D01*
X29342Y-28130D02*
X29394Y-28144D01*
X29394Y-28144D02*
X29442Y-28168D01*
X29442Y-28168D02*
X29484Y-28201D01*
X29484Y-28201D02*
X29519Y-28242D01*
X29519Y-28242D02*
X29546Y-28289D01*
X29546Y-28289D02*
X29563Y-28340D01*
X29563Y-28340D02*
X29569Y-28393D01*
X29569Y-28393D02*
X29570Y-28400D01*
X29570Y-29400D02*
X29564Y-29453D01*
X29564Y-29453D02*
X29549Y-29504D01*
X29549Y-29504D02*
X29524Y-29552D01*
X29524Y-29552D02*
X29490Y-29593D01*
X29490Y-29593D02*
X29448Y-29627D01*
X29448Y-29627D02*
X29401Y-29653D01*
X29401Y-29653D02*
X29350Y-29669D01*
X29350Y-29669D02*
X29296Y-29674D01*
X29296Y-29674D02*
X29244Y-29670D01*
X29244Y-29670D02*
X29192Y-29654D01*
X29192Y-29654D02*
X29145Y-29630D01*
X29145Y-29630D02*
X29103Y-29596D01*
X29103Y-29596D02*
X29069Y-29555D01*
X29069Y-29555D02*
X29043Y-29508D01*
X29043Y-29508D02*
X29027Y-29457D01*
X29027Y-29457D02*
X29021Y-29403D01*
X29021Y-29403D02*
X29025Y-29351D01*
X29025Y-29351D02*
X29040Y-29299D01*
X29040Y-29299D02*
X29064Y-29252D01*
X29064Y-29252D02*
X29098Y-29209D01*
X29098Y-29209D02*
X29139Y-29175D01*
X29139Y-29175D02*
X29185Y-29149D01*
X29185Y-29149D02*
X29236Y-29132D01*
X29236Y-29132D02*
X29290Y-29126D01*
X29290Y-29126D02*
X29342Y-29130D01*
X29342Y-29130D02*
X29394Y-29144D01*
X29394Y-29144D02*
X29442Y-29168D01*
X29442Y-29168D02*
X29484Y-29201D01*
X29484Y-29201D02*
X29519Y-29242D01*
X29519Y-29242D02*
X29546Y-29289D01*
X29546Y-29289D02*
X29563Y-29340D01*
X29563Y-29340D02*
X29569Y-29393D01*
X29569Y-29393D02*
X29570Y-29400D01*
X29570Y-30400D02*
X29564Y-30453D01*
X29564Y-30453D02*
X29549Y-30504D01*
X29549Y-30504D02*
X29524Y-30552D01*
X29524Y-30552D02*
X29490Y-30593D01*
X29490Y-30593D02*
X29448Y-30627D01*
X29448Y-30627D02*
X29401Y-30653D01*
X29401Y-30653D02*
X29350Y-30669D01*
X29350Y-30669D02*
X29296Y-30674D01*
X29296Y-30674D02*
X29244Y-30670D01*
X29244Y-30670D02*
X29192Y-30654D01*
X29192Y-30654D02*
X29145Y-30630D01*
X29145Y-30630D02*
X29103Y-30596D01*
X29103Y-30596D02*
X29069Y-30555D01*
X29069Y-30555D02*
X29043Y-30508D01*
X29043Y-30508D02*
X29027Y-30457D01*
X29027Y-30457D02*
X29021Y-30403D01*
X29021Y-30403D02*
X29025Y-30351D01*
X29025Y-30351D02*
X29040Y-30299D01*
X29040Y-30299D02*
X29064Y-30252D01*
X29064Y-30252D02*
X29098Y-30209D01*
X29098Y-30209D02*
X29139Y-30175D01*
X29139Y-30175D02*
X29185Y-30149D01*
X29185Y-30149D02*
X29236Y-30132D01*
X29236Y-30132D02*
X29290Y-30126D01*
X29290Y-30126D02*
X29342Y-30130D01*
X29342Y-30130D02*
X29394Y-30144D01*
X29394Y-30144D02*
X29442Y-30168D01*
X29442Y-30168D02*
X29484Y-30201D01*
X29484Y-30201D02*
X29519Y-30242D01*
X29519Y-30242D02*
X29546Y-30289D01*
X29546Y-30289D02*
X29563Y-30340D01*
X29563Y-30340D02*
X29569Y-30393D01*
X29569Y-30393D02*
X29570Y-30400D01*
G54D27*
X39629Y-24817D02*
X39662Y-24850D01*
X39662Y-24850D02*
X39829Y-24850D01*
X39829Y-24850D02*
X39862Y-24817D01*
X39862Y-24817D02*
X39862Y-24584D01*
X39862Y-24584D02*
X39829Y-24550D01*
X39829Y-24550D02*
X39662Y-24550D01*
X39662Y-24550D02*
X39629Y-24584D01*
X39387Y-24850D02*
X39254Y-24850D01*
X39321Y-24850D02*
X39321Y-24550D01*
X39321Y-24584D02*
X39387Y-24650D01*
X30275Y-35400D02*
X30275Y-35100D01*
X30275Y-35100D02*
X30075Y-35100D01*
X30075Y-35100D02*
X30042Y-35134D01*
X30042Y-35134D02*
X30042Y-35234D01*
X30042Y-35234D02*
X30075Y-35267D01*
X30075Y-35267D02*
X30275Y-35267D01*
X30175Y-35267D02*
X30042Y-35400D01*
X29800Y-35400D02*
X29667Y-35400D01*
X29734Y-35400D02*
X29734Y-35100D01*
X29734Y-35134D02*
X29800Y-35200D01*
X33175Y-35400D02*
X33175Y-35100D01*
X33175Y-35100D02*
X32975Y-35100D01*
X32975Y-35100D02*
X32942Y-35134D01*
X32942Y-35134D02*
X32942Y-35234D01*
X32942Y-35234D02*
X32975Y-35267D01*
X32975Y-35267D02*
X33175Y-35267D01*
X33075Y-35267D02*
X32942Y-35400D01*
X32534Y-35400D02*
X32767Y-35400D01*
X32767Y-35400D02*
X32767Y-35300D01*
X32767Y-35300D02*
X32734Y-35267D01*
X32734Y-35267D02*
X32567Y-35267D01*
X32567Y-35267D02*
X32534Y-35234D01*
X32534Y-35234D02*
X32534Y-35134D01*
X32534Y-35134D02*
X32567Y-35100D01*
X32567Y-35100D02*
X32734Y-35100D01*
X32734Y-35100D02*
X32767Y-35134D01*
X36025Y-35400D02*
X36025Y-35100D01*
X36025Y-35100D02*
X35825Y-35100D01*
X35825Y-35100D02*
X35792Y-35134D01*
X35792Y-35134D02*
X35792Y-35234D01*
X35792Y-35234D02*
X35825Y-35267D01*
X35825Y-35267D02*
X36025Y-35267D01*
X35925Y-35267D02*
X35792Y-35400D01*
X35617Y-35100D02*
X35384Y-35100D01*
X35384Y-35100D02*
X35384Y-35134D01*
X35384Y-35134D02*
X35517Y-35234D01*
X35517Y-35234D02*
X35417Y-35234D01*
X35417Y-35234D02*
X35384Y-35267D01*
X35384Y-35267D02*
X35384Y-35367D01*
X35384Y-35367D02*
X35417Y-35400D01*
X35417Y-35400D02*
X35584Y-35400D01*
X35584Y-35400D02*
X35617Y-35367D01*
X26175Y-27300D02*
X26175Y-27000D01*
X26175Y-27000D02*
X25975Y-27000D01*
X25975Y-27000D02*
X25942Y-27034D01*
X25942Y-27034D02*
X25942Y-27134D01*
X25942Y-27134D02*
X25975Y-27167D01*
X25975Y-27167D02*
X26175Y-27167D01*
X26075Y-27167D02*
X25942Y-27300D01*
X25600Y-27300D02*
X25600Y-27000D01*
X25600Y-27000D02*
X25767Y-27234D01*
X25767Y-27234D02*
X25534Y-27234D01*
X26587Y-24797D02*
X26620Y-24830D01*
X26620Y-24830D02*
X26787Y-24830D01*
X26787Y-24830D02*
X26820Y-24797D01*
X26820Y-24797D02*
X26820Y-24564D01*
X26820Y-24564D02*
X26787Y-24530D01*
X26787Y-24530D02*
X26620Y-24530D01*
X26620Y-24530D02*
X26587Y-24564D01*
X26179Y-24830D02*
X26412Y-24830D01*
X26412Y-24830D02*
X26412Y-24730D01*
X26412Y-24730D02*
X26379Y-24697D01*
X26379Y-24697D02*
X26212Y-24697D01*
X26212Y-24697D02*
X26179Y-24664D01*
X26179Y-24664D02*
X26179Y-24564D01*
X26179Y-24564D02*
X26212Y-24530D01*
X26212Y-24530D02*
X26379Y-24530D01*
X26379Y-24530D02*
X26412Y-24564D01*
X40142Y-27417D02*
X40175Y-27450D01*
X40175Y-27450D02*
X40342Y-27450D01*
X40342Y-27450D02*
X40375Y-27417D01*
X40375Y-27417D02*
X40375Y-27184D01*
X40375Y-27184D02*
X40342Y-27150D01*
X40342Y-27150D02*
X40175Y-27150D01*
X40175Y-27150D02*
X40142Y-27184D01*
X39967Y-27150D02*
X39734Y-27150D01*
X39734Y-27150D02*
X39734Y-27184D01*
X39734Y-27184D02*
X39867Y-27284D01*
X39867Y-27284D02*
X39767Y-27284D01*
X39767Y-27284D02*
X39734Y-27317D01*
X39734Y-27317D02*
X39734Y-27417D01*
X39734Y-27417D02*
X39767Y-27450D01*
X39767Y-27450D02*
X39934Y-27450D01*
X39934Y-27450D02*
X39967Y-27417D01*
X35742Y-20917D02*
X35775Y-20950D01*
X35775Y-20950D02*
X35942Y-20950D01*
X35942Y-20950D02*
X35975Y-20917D01*
X35975Y-20917D02*
X35975Y-20684D01*
X35975Y-20684D02*
X35942Y-20650D01*
X35942Y-20650D02*
X35775Y-20650D01*
X35775Y-20650D02*
X35742Y-20684D01*
X35567Y-20884D02*
X35567Y-20917D01*
X35567Y-20917D02*
X35534Y-20950D01*
X35534Y-20950D02*
X35367Y-20950D01*
X35367Y-20950D02*
X35334Y-20917D01*
X35334Y-20917D02*
X35334Y-20817D01*
X35334Y-20817D02*
X35400Y-20750D01*
X35400Y-20750D02*
X35567Y-20750D01*
X35567Y-20750D02*
X35567Y-20650D01*
X35567Y-20650D02*
X35334Y-20650D01*
X30242Y-20917D02*
X30275Y-20950D01*
X30275Y-20950D02*
X30442Y-20950D01*
X30442Y-20950D02*
X30475Y-20917D01*
X30475Y-20917D02*
X30475Y-20684D01*
X30475Y-20684D02*
X30442Y-20650D01*
X30442Y-20650D02*
X30275Y-20650D01*
X30275Y-20650D02*
X30242Y-20684D01*
X29900Y-20950D02*
X29900Y-20650D01*
X29900Y-20650D02*
X30067Y-20884D01*
X30067Y-20884D02*
X29834Y-20884D01*
M02*
