G04 (created by PCBNEW-RS274X (2010-04-21 BZR 23xx)-stable) date Thu 02 Sep 2010 05:41:50 AM CEST*
G01*
G70*
G90*
%MOIN*%
G04 Gerber Fmt 3.4, Leading zero omitted, Abs format*
%FSLAX34Y34*%
G04 APERTURE LIST*
%ADD10C,0.001000*%
%ADD11R,0.055000X0.055000*%
%ADD12C,0.055000*%
%ADD13R,0.060000X0.060000*%
%ADD14C,0.060000*%
%ADD15R,0.078700X0.017700*%
%ADD16R,0.017700X0.078700*%
%ADD17R,0.051100X0.059000*%
%ADD18R,0.035400X0.059100*%
%ADD19R,0.059100X0.035400*%
%ADD20C,0.035000*%
%ADD21C,0.012000*%
%ADD22C,0.018000*%
G04 APERTURE END LIST*
G54D10*
G54D11*
X31800Y-33400D03*
G54D12*
X32800Y-33400D03*
X33800Y-33400D03*
G54D13*
X31800Y-31100D03*
G54D14*
X31800Y-32100D03*
X32800Y-31100D03*
X32800Y-32100D03*
X33800Y-31100D03*
X33800Y-32100D03*
G54D11*
X30300Y-24400D03*
G54D12*
X31300Y-24400D03*
X32300Y-24400D03*
X33300Y-24400D03*
X34300Y-24400D03*
X35300Y-24400D03*
G54D11*
X36300Y-25400D03*
G54D12*
X36300Y-26400D03*
X36300Y-27400D03*
X36300Y-28400D03*
X36300Y-29400D03*
X36300Y-30400D03*
G54D15*
X30854Y-28943D03*
X30854Y-28628D03*
X30854Y-28313D03*
X30854Y-27998D03*
X30854Y-27683D03*
X30854Y-27368D03*
X30854Y-27053D03*
X30854Y-26738D03*
X34620Y-26740D03*
X34620Y-28950D03*
X34620Y-28630D03*
X34620Y-28310D03*
X34620Y-28000D03*
X34620Y-27680D03*
X34620Y-27370D03*
X34620Y-27050D03*
G54D16*
X31638Y-25950D03*
X31952Y-25950D03*
X32268Y-25950D03*
X32582Y-25950D03*
X32898Y-25950D03*
X33212Y-25950D03*
X33528Y-25950D03*
X33842Y-25950D03*
X31640Y-29730D03*
X31950Y-29730D03*
X32270Y-29730D03*
X32580Y-29730D03*
X32890Y-29730D03*
X33210Y-29730D03*
X33530Y-29730D03*
X33850Y-29730D03*
G54D11*
X29295Y-25400D03*
G54D12*
X29295Y-26400D03*
X29295Y-27400D03*
X29295Y-28400D03*
X29295Y-29400D03*
X29295Y-30400D03*
G54D17*
X39176Y-29950D03*
X39924Y-29950D03*
X26076Y-30850D03*
X26824Y-30850D03*
X38976Y-30850D03*
X39724Y-30850D03*
G54D10*
G36*
X27653Y-32203D02*
X27236Y-31786D01*
X27487Y-31535D01*
X27904Y-31952D01*
X27653Y-32203D01*
X27653Y-32203D01*
G37*
G36*
X27207Y-32648D02*
X26790Y-32231D01*
X27041Y-31980D01*
X27458Y-32397D01*
X27207Y-32648D01*
X27207Y-32648D01*
G37*
G36*
X26762Y-33094D02*
X26345Y-32677D01*
X26596Y-32426D01*
X27013Y-32843D01*
X26762Y-33094D01*
X26762Y-33094D01*
G37*
G36*
X28153Y-34485D02*
X27736Y-34068D01*
X27987Y-33817D01*
X28404Y-34234D01*
X28153Y-34485D01*
X28153Y-34485D01*
G37*
G36*
X28599Y-34040D02*
X28182Y-33623D01*
X28433Y-33372D01*
X28850Y-33789D01*
X28599Y-34040D01*
X28599Y-34040D01*
G37*
G36*
X29044Y-33594D02*
X28627Y-33177D01*
X28878Y-32926D01*
X29295Y-33343D01*
X29044Y-33594D01*
X29044Y-33594D01*
G37*
G54D18*
X26460Y-26906D03*
X25830Y-26906D03*
X25200Y-26906D03*
X25200Y-28874D03*
X25830Y-28874D03*
X26460Y-28874D03*
G54D10*
G36*
X28797Y-22793D02*
X29214Y-22376D01*
X29465Y-22627D01*
X29048Y-23044D01*
X28797Y-22793D01*
X28797Y-22793D01*
G37*
G36*
X28352Y-22347D02*
X28769Y-21930D01*
X29020Y-22181D01*
X28603Y-22598D01*
X28352Y-22347D01*
X28352Y-22347D01*
G37*
G36*
X27906Y-21902D02*
X28323Y-21485D01*
X28574Y-21736D01*
X28157Y-22153D01*
X27906Y-21902D01*
X27906Y-21902D01*
G37*
G36*
X26515Y-23293D02*
X26932Y-22876D01*
X27183Y-23127D01*
X26766Y-23544D01*
X26515Y-23293D01*
X26515Y-23293D01*
G37*
G36*
X26960Y-23739D02*
X27377Y-23322D01*
X27628Y-23573D01*
X27211Y-23990D01*
X26960Y-23739D01*
X26960Y-23739D01*
G37*
G36*
X27406Y-24184D02*
X27823Y-23767D01*
X28074Y-24018D01*
X27657Y-24435D01*
X27406Y-24184D01*
X27406Y-24184D01*
G37*
G54D19*
X33834Y-21620D03*
X33834Y-20990D03*
X33834Y-20360D03*
X31866Y-20360D03*
X31866Y-20990D03*
X31866Y-21620D03*
G54D10*
G36*
X38007Y-23777D02*
X38424Y-24194D01*
X38173Y-24445D01*
X37756Y-24028D01*
X38007Y-23777D01*
X38007Y-23777D01*
G37*
G36*
X38453Y-23332D02*
X38870Y-23749D01*
X38619Y-24000D01*
X38202Y-23583D01*
X38453Y-23332D01*
X38453Y-23332D01*
G37*
G36*
X38898Y-22886D02*
X39315Y-23303D01*
X39064Y-23554D01*
X38647Y-23137D01*
X38898Y-22886D01*
X38898Y-22886D01*
G37*
G36*
X37507Y-21495D02*
X37924Y-21912D01*
X37673Y-22163D01*
X37256Y-21746D01*
X37507Y-21495D01*
X37507Y-21495D01*
G37*
G36*
X37061Y-21940D02*
X37478Y-22357D01*
X37227Y-22608D01*
X36810Y-22191D01*
X37061Y-21940D01*
X37061Y-21940D01*
G37*
G36*
X36616Y-22386D02*
X37033Y-22803D01*
X36782Y-23054D01*
X36365Y-22637D01*
X36616Y-22386D01*
X36616Y-22386D01*
G37*
G54D18*
X39320Y-28884D03*
X39950Y-28884D03*
X40580Y-28884D03*
X40580Y-26916D03*
X39950Y-26916D03*
X39320Y-26916D03*
G54D10*
G36*
X37093Y-33247D02*
X36676Y-33664D01*
X36425Y-33413D01*
X36842Y-32996D01*
X37093Y-33247D01*
X37093Y-33247D01*
G37*
G36*
X37538Y-33693D02*
X37121Y-34110D01*
X36870Y-33859D01*
X37287Y-33442D01*
X37538Y-33693D01*
X37538Y-33693D01*
G37*
G36*
X37984Y-34138D02*
X37567Y-34555D01*
X37316Y-34304D01*
X37733Y-33887D01*
X37984Y-34138D01*
X37984Y-34138D01*
G37*
G36*
X39375Y-32747D02*
X38958Y-33164D01*
X38707Y-32913D01*
X39124Y-32496D01*
X39375Y-32747D01*
X39375Y-32747D01*
G37*
G36*
X38930Y-32301D02*
X38513Y-32718D01*
X38262Y-32467D01*
X38679Y-32050D01*
X38930Y-32301D01*
X38930Y-32301D01*
G37*
G36*
X38484Y-31856D02*
X38067Y-32273D01*
X37816Y-32022D01*
X38233Y-31605D01*
X38484Y-31856D01*
X38484Y-31856D01*
G37*
G54D19*
X31866Y-34470D03*
X31866Y-35100D03*
X31866Y-35730D03*
X33834Y-35730D03*
X33834Y-35100D03*
X33834Y-34470D03*
G54D17*
X25876Y-29950D03*
X26624Y-29950D03*
G54D20*
X38447Y-28885D03*
X38447Y-27375D03*
X31938Y-26927D03*
X31074Y-34470D03*
X32015Y-30481D03*
X36255Y-33787D03*
X35617Y-32833D03*
X40050Y-26079D03*
X34538Y-32583D03*
X35420Y-30014D03*
X28660Y-23157D03*
X29644Y-24141D03*
X29859Y-27278D03*
X26687Y-26326D03*
X34409Y-35217D03*
X28815Y-32641D03*
X27167Y-27806D03*
X32563Y-27776D03*
X28477Y-32027D03*
X27405Y-28485D03*
X30018Y-32180D03*
X30105Y-23602D03*
X27878Y-27699D03*
X31328Y-30574D03*
X28231Y-30139D03*
X31818Y-28803D03*
X28530Y-31179D03*
X37832Y-29852D03*
X32917Y-28979D03*
X26460Y-24974D03*
X28767Y-24872D03*
X30452Y-25123D03*
X31034Y-26370D03*
X34226Y-29812D03*
X29969Y-30155D03*
G54D21*
X34060Y-26506D02*
X33842Y-26506D01*
X34094Y-26472D02*
X34060Y-26506D01*
X35133Y-26472D02*
X34094Y-26472D01*
X35177Y-26516D02*
X35133Y-26472D01*
X35177Y-29277D02*
X35177Y-26516D01*
X36300Y-30400D02*
X35177Y-29277D01*
X33842Y-25950D02*
X33842Y-26506D01*
X33528Y-25950D02*
X33528Y-25393D01*
X34404Y-25393D02*
X33528Y-25393D01*
X35400Y-26389D02*
X34404Y-25393D01*
X35400Y-28500D02*
X35400Y-26389D01*
X36300Y-29400D02*
X35400Y-28500D01*
X31866Y-21620D02*
X32325Y-21620D01*
X36699Y-22720D02*
X36669Y-22690D01*
X36669Y-22690D02*
X36375Y-22395D01*
X36669Y-23807D02*
X39320Y-26458D01*
X36669Y-22690D02*
X36669Y-23807D01*
X39724Y-30850D02*
X39724Y-31079D01*
X39724Y-31079D02*
X39724Y-31308D01*
X38150Y-31939D02*
X37826Y-32263D01*
X33101Y-22396D02*
X32325Y-21620D01*
X36374Y-22396D02*
X33101Y-22396D01*
X36375Y-22395D02*
X36374Y-22396D01*
X27740Y-24101D02*
X27416Y-24425D01*
X34063Y-34470D02*
X34292Y-34470D01*
X38150Y-31939D02*
X38475Y-31614D01*
X38781Y-31308D02*
X38475Y-31614D01*
X39724Y-31308D02*
X38781Y-31308D01*
X34063Y-34470D02*
X33834Y-34470D01*
X33834Y-34470D02*
X33375Y-34470D01*
X39320Y-26916D02*
X39320Y-26458D01*
X28961Y-33260D02*
X29286Y-33584D01*
X27740Y-24101D02*
X28065Y-23776D01*
X32812Y-33907D02*
X33375Y-34470D01*
X31161Y-33907D02*
X32812Y-33907D01*
X31058Y-33804D02*
X31161Y-33907D01*
X29534Y-33804D02*
X31058Y-33804D01*
X29517Y-33787D02*
X29534Y-33804D01*
X29490Y-33787D02*
X29517Y-33787D01*
X29287Y-33584D02*
X29490Y-33787D01*
X29286Y-33584D02*
X29287Y-33584D01*
X39924Y-30879D02*
X39924Y-29950D01*
X39724Y-31079D02*
X39924Y-30879D01*
X39054Y-29492D02*
X38447Y-28885D01*
X39924Y-29492D02*
X39054Y-29492D01*
X39320Y-26916D02*
X39320Y-27375D01*
X39924Y-29950D02*
X39924Y-29492D01*
X37825Y-32263D02*
X37826Y-32263D01*
X37791Y-32263D02*
X37825Y-32263D01*
X37568Y-32040D02*
X37791Y-32263D01*
X36889Y-32040D02*
X37568Y-32040D01*
X35758Y-33171D02*
X36889Y-32040D01*
X35591Y-33171D02*
X35758Y-33171D01*
X34292Y-34470D02*
X35591Y-33171D01*
X27416Y-24426D02*
X27416Y-24425D01*
X27416Y-25588D02*
X27416Y-24426D01*
X27677Y-25849D02*
X27416Y-25588D01*
X27677Y-25889D02*
X27677Y-25849D01*
X27694Y-25906D02*
X27677Y-25889D01*
X27694Y-26746D02*
X27694Y-25906D01*
X27505Y-26935D02*
X27694Y-26746D01*
X27505Y-27947D02*
X27505Y-26935D01*
X27308Y-28144D02*
X27505Y-27947D01*
X27190Y-28144D02*
X27308Y-28144D01*
X26460Y-28874D02*
X27190Y-28144D01*
X31175Y-22770D02*
X32325Y-21620D01*
X30260Y-22770D02*
X31175Y-22770D01*
X30095Y-22935D02*
X30260Y-22770D01*
X30030Y-22935D02*
X30095Y-22935D01*
X29188Y-23777D02*
X30030Y-22935D01*
X29169Y-23777D02*
X29188Y-23777D01*
X28987Y-23959D02*
X29169Y-23777D01*
X28334Y-23959D02*
X28987Y-23959D01*
X28152Y-23777D02*
X28334Y-23959D01*
X28065Y-23777D02*
X28152Y-23777D01*
X28065Y-23776D02*
X28065Y-23777D01*
X39320Y-27375D02*
X38447Y-27375D01*
X30854Y-27368D02*
X31411Y-27368D01*
X31852Y-26927D02*
X31411Y-27368D01*
X31938Y-26927D02*
X31852Y-26927D01*
X30854Y-27998D02*
X31411Y-27998D01*
X34620Y-27680D02*
X34064Y-27680D01*
X31411Y-27368D02*
X31411Y-27998D01*
X33630Y-28114D02*
X34064Y-27680D01*
X31527Y-28114D02*
X33630Y-28114D01*
X31411Y-27998D02*
X31527Y-28114D01*
X37643Y-22425D02*
X37915Y-22153D01*
X37643Y-23501D02*
X37643Y-22425D01*
X37441Y-23703D02*
X37643Y-23501D01*
X37441Y-23947D02*
X37441Y-23703D01*
X39938Y-26444D02*
X37441Y-23947D01*
X40546Y-26444D02*
X39938Y-26444D01*
X40560Y-26458D02*
X40546Y-26444D01*
X40580Y-26458D02*
X40560Y-26458D01*
X26624Y-29950D02*
X26624Y-30408D01*
X26849Y-23210D02*
X26525Y-23534D01*
X26824Y-30608D02*
X26824Y-30850D01*
X26624Y-30408D02*
X26824Y-30608D01*
X39041Y-32830D02*
X38717Y-33154D01*
X40580Y-26687D02*
X40580Y-26458D01*
X40580Y-26687D02*
X40580Y-26916D01*
X39365Y-32505D02*
X39366Y-32505D01*
X39365Y-32098D02*
X39365Y-32505D01*
X40441Y-31022D02*
X39365Y-32098D01*
X40441Y-30008D02*
X40441Y-31022D01*
X40920Y-29529D02*
X40441Y-30008D01*
X40920Y-27715D02*
X40920Y-29529D01*
X40580Y-27375D02*
X40920Y-27715D01*
X40580Y-26916D02*
X40580Y-27375D01*
X39041Y-32830D02*
X39366Y-32505D01*
X26464Y-29332D02*
X26624Y-29492D01*
X25200Y-29332D02*
X26464Y-29332D01*
X25200Y-28874D02*
X25200Y-29332D01*
X26624Y-29950D02*
X26624Y-29492D01*
X31866Y-20360D02*
X31408Y-20360D01*
X26849Y-23210D02*
X27174Y-22885D01*
X25200Y-28874D02*
X25200Y-28415D01*
X26796Y-23806D02*
X26525Y-23534D01*
X26796Y-24136D02*
X26796Y-23806D01*
X26805Y-24145D02*
X26796Y-24136D01*
X26805Y-25609D02*
X26805Y-24145D01*
X27231Y-26035D02*
X26805Y-25609D01*
X27231Y-26075D02*
X27231Y-26035D01*
X27248Y-26092D02*
X27231Y-26075D01*
X27248Y-26560D02*
X27248Y-26092D01*
X27028Y-26780D02*
X27248Y-26560D01*
X27028Y-27464D02*
X27028Y-26780D01*
X26611Y-27881D02*
X27028Y-27464D01*
X26049Y-27881D02*
X26611Y-27881D01*
X25515Y-28415D02*
X26049Y-27881D01*
X25200Y-28415D02*
X25515Y-28415D01*
X29904Y-21864D02*
X31408Y-20360D01*
X29904Y-22429D02*
X29904Y-21864D01*
X29002Y-23331D02*
X29904Y-22429D01*
X28983Y-23331D02*
X29002Y-23331D01*
X28801Y-23513D02*
X28983Y-23331D01*
X28520Y-23513D02*
X28801Y-23513D01*
X28112Y-23105D02*
X28520Y-23513D01*
X27393Y-23105D02*
X28112Y-23105D01*
X27174Y-22885D02*
X27393Y-23105D01*
X37595Y-21834D02*
X37915Y-22153D01*
X37595Y-21834D02*
X37590Y-21829D01*
X32665Y-20020D02*
X32325Y-20360D01*
X34293Y-20020D02*
X32665Y-20020D01*
X35138Y-20865D02*
X34293Y-20020D01*
X36626Y-20865D02*
X35138Y-20865D01*
X37590Y-21829D02*
X36626Y-20865D01*
X31866Y-20360D02*
X32325Y-20360D01*
X34618Y-35730D02*
X33834Y-35730D01*
X35229Y-35119D02*
X34618Y-35730D01*
X35229Y-34333D02*
X35229Y-35119D01*
X36954Y-32608D02*
X35229Y-34333D01*
X37002Y-32608D02*
X36954Y-32608D01*
X37542Y-33148D02*
X37002Y-32608D01*
X38710Y-33148D02*
X37542Y-33148D01*
X38717Y-33154D02*
X38710Y-33148D01*
X29066Y-35147D02*
X28070Y-34151D01*
X30222Y-35147D02*
X29066Y-35147D01*
X31145Y-36070D02*
X30222Y-35147D01*
X33035Y-36070D02*
X31145Y-36070D01*
X33375Y-35730D02*
X33035Y-36070D01*
X33834Y-35730D02*
X33375Y-35730D01*
X32580Y-30334D02*
X32580Y-29730D01*
X32433Y-30481D02*
X32580Y-30334D01*
X32015Y-30481D02*
X32433Y-30481D01*
X31866Y-34470D02*
X31074Y-34470D01*
X31866Y-35100D02*
X32095Y-35100D01*
X32324Y-34871D02*
X32324Y-34470D01*
X32095Y-35100D02*
X32324Y-34871D01*
X31866Y-34470D02*
X32324Y-34470D01*
X31866Y-35730D02*
X32324Y-35730D01*
X32324Y-35329D02*
X32095Y-35100D01*
X32324Y-35730D02*
X32324Y-35329D01*
X36387Y-33655D02*
X36434Y-33655D01*
X36255Y-33787D02*
X36387Y-33655D01*
X36759Y-33330D02*
X36434Y-33655D01*
X35529Y-32921D02*
X35617Y-32833D01*
X32917Y-32921D02*
X35529Y-32921D01*
X32264Y-32268D02*
X32917Y-32921D01*
X32264Y-30967D02*
X32264Y-32268D01*
X32890Y-30341D02*
X32264Y-30967D01*
X32890Y-29730D02*
X32890Y-30341D01*
X37650Y-34221D02*
X37974Y-33897D01*
X37204Y-33776D02*
X37442Y-33538D01*
X37614Y-33538D02*
X37442Y-33538D01*
X37974Y-33897D02*
X37614Y-33538D01*
X37442Y-33365D02*
X37083Y-33006D01*
X37442Y-33538D02*
X37442Y-33365D01*
X36759Y-33330D02*
X37083Y-33006D01*
X40580Y-28426D02*
X39950Y-28426D01*
X40580Y-28884D02*
X40580Y-28426D01*
X39950Y-28884D02*
X39950Y-28655D01*
X39950Y-28655D02*
X39950Y-28426D01*
X39721Y-28426D02*
X39320Y-28426D01*
X39950Y-28655D02*
X39721Y-28426D01*
X39320Y-28655D02*
X39320Y-28426D01*
X39320Y-28655D02*
X39320Y-28884D01*
X33210Y-29730D02*
X33210Y-29173D01*
X39320Y-28884D02*
X39320Y-28426D01*
X34102Y-29173D02*
X33210Y-29173D01*
X36051Y-31122D02*
X34102Y-29173D01*
X36529Y-31122D02*
X36051Y-31122D01*
X37493Y-30158D02*
X36529Y-31122D01*
X37493Y-29299D02*
X37493Y-30158D01*
X38366Y-28426D02*
X37493Y-29299D01*
X39320Y-28426D02*
X38366Y-28426D01*
X38384Y-23169D02*
X38212Y-23341D01*
X38385Y-23169D02*
X38384Y-23169D01*
X38658Y-22896D02*
X38385Y-23169D01*
X38981Y-23220D02*
X38658Y-22896D01*
X38536Y-23666D02*
X38212Y-23341D01*
X38039Y-23515D02*
X37767Y-23787D01*
X38039Y-23514D02*
X38039Y-23515D01*
X38212Y-23341D02*
X38039Y-23514D01*
X38090Y-24111D02*
X37928Y-23949D01*
X37928Y-23949D02*
X37767Y-23787D01*
X37928Y-23957D02*
X40050Y-26079D01*
X37928Y-23949D02*
X37928Y-23957D01*
X33296Y-31604D02*
X32800Y-32100D01*
X33296Y-30859D02*
X33296Y-31604D01*
X33530Y-30625D02*
X33296Y-30859D01*
X33530Y-29730D02*
X33530Y-30625D01*
X34538Y-30974D02*
X34538Y-32583D01*
X33850Y-30286D02*
X34538Y-30974D01*
X33850Y-29730D02*
X33850Y-30286D01*
X33834Y-20990D02*
X33605Y-20990D01*
X33376Y-21219D02*
X33376Y-21620D01*
X33605Y-20990D02*
X33376Y-21219D01*
X33834Y-20360D02*
X33376Y-20360D01*
X33376Y-20761D02*
X33605Y-20990D01*
X33376Y-20360D02*
X33376Y-20761D01*
X33834Y-21620D02*
X33376Y-21620D01*
X28240Y-21819D02*
X27917Y-22142D01*
X28276Y-22502D02*
X28448Y-22502D01*
X27917Y-22142D02*
X28276Y-22502D01*
X28686Y-22264D02*
X28448Y-22502D01*
X34620Y-29214D02*
X34620Y-28950D01*
X35420Y-30014D02*
X34620Y-29214D01*
X29131Y-22710D02*
X28969Y-22872D01*
X28882Y-22935D02*
X28448Y-22502D01*
X28945Y-22872D02*
X28882Y-22935D01*
X28969Y-22872D02*
X28945Y-22872D01*
X28882Y-22935D02*
X28660Y-23157D01*
X29834Y-23951D02*
X29644Y-24141D01*
X30311Y-23951D02*
X29834Y-23951D01*
X31277Y-22985D02*
X30311Y-23951D01*
X35227Y-22985D02*
X31277Y-22985D01*
X37084Y-24842D02*
X35227Y-22985D01*
X37084Y-30250D02*
X37084Y-24842D01*
X36436Y-30898D02*
X37084Y-30250D01*
X36144Y-30898D02*
X36436Y-30898D01*
X35420Y-30174D02*
X36144Y-30898D01*
X35420Y-30014D02*
X35420Y-30174D01*
X25200Y-27364D02*
X25830Y-27364D01*
X25830Y-26906D02*
X25830Y-27135D01*
X25830Y-27135D02*
X25830Y-27364D01*
X26059Y-27364D02*
X26460Y-27364D01*
X25830Y-27135D02*
X26059Y-27364D01*
X26460Y-26906D02*
X26460Y-27364D01*
X25200Y-26906D02*
X25200Y-27364D01*
X29859Y-28343D02*
X29859Y-27278D01*
X30144Y-28628D02*
X29859Y-28343D01*
X30854Y-28628D02*
X30144Y-28628D01*
X26566Y-26447D02*
X26460Y-26447D01*
X26687Y-26326D02*
X26566Y-26447D01*
X26460Y-26906D02*
X26460Y-26447D01*
X27276Y-32811D02*
X27449Y-32638D01*
X27275Y-32811D02*
X27276Y-32811D01*
X27003Y-33083D02*
X27275Y-32811D01*
X26679Y-32760D02*
X27003Y-33083D01*
X27124Y-32314D02*
X27449Y-32638D01*
X27456Y-32631D02*
X27449Y-32638D01*
X27456Y-32630D02*
X27456Y-32631D01*
X27894Y-32192D02*
X27456Y-32630D01*
X27570Y-31869D02*
X27894Y-32192D01*
X30854Y-28943D02*
X30298Y-28943D01*
X28139Y-31947D02*
X27894Y-32192D01*
X28139Y-31887D02*
X28139Y-31947D01*
X28337Y-31689D02*
X28139Y-31887D01*
X28635Y-31689D02*
X28337Y-31689D01*
X28930Y-31394D02*
X28635Y-31689D01*
X28932Y-31394D02*
X28930Y-31394D01*
X29156Y-31170D02*
X28932Y-31394D01*
X29472Y-31170D02*
X29156Y-31170D01*
X30294Y-30348D02*
X29472Y-31170D01*
X30294Y-30309D02*
X30294Y-30348D01*
X30307Y-30296D02*
X30294Y-30309D01*
X30307Y-30014D02*
X30307Y-30296D01*
X30298Y-30005D02*
X30307Y-30014D01*
X30298Y-28943D02*
X30298Y-30005D01*
X25830Y-28874D02*
X25830Y-28415D01*
X39950Y-26773D02*
X39950Y-26916D01*
X37217Y-24040D02*
X39950Y-26773D01*
X37217Y-22347D02*
X37217Y-24040D01*
X37144Y-22274D02*
X37217Y-22347D01*
X34409Y-35217D02*
X34292Y-35100D01*
X33841Y-35100D02*
X34292Y-35100D01*
X33841Y-35100D02*
X33834Y-35100D01*
X33834Y-35100D02*
X33375Y-35100D01*
X38596Y-32384D02*
X38271Y-32709D01*
X27294Y-23656D02*
X27619Y-23331D01*
X28940Y-34130D02*
X28840Y-34030D01*
X32405Y-34130D02*
X28940Y-34130D01*
X33375Y-35100D02*
X32405Y-34130D01*
X37810Y-32709D02*
X38271Y-32709D01*
X37475Y-32374D02*
X37810Y-32709D01*
X36871Y-32374D02*
X37475Y-32374D01*
X34292Y-34953D02*
X36871Y-32374D01*
X34292Y-35100D02*
X34292Y-34953D01*
X28678Y-33868D02*
X28840Y-34030D01*
X28678Y-33868D02*
X28516Y-33706D01*
X28516Y-33706D02*
X28191Y-33381D01*
X27085Y-27723D02*
X27167Y-27806D01*
X26704Y-28104D02*
X27085Y-27723D01*
X26607Y-28104D02*
X26704Y-28104D01*
X26296Y-28415D02*
X26607Y-28104D01*
X25830Y-28415D02*
X26296Y-28415D01*
X27090Y-23860D02*
X27294Y-23656D01*
X27090Y-25577D02*
X27090Y-23860D01*
X27454Y-25941D02*
X27090Y-25577D01*
X27454Y-25982D02*
X27454Y-25941D01*
X27471Y-25999D02*
X27454Y-25982D01*
X27471Y-26653D02*
X27471Y-25999D01*
X27251Y-26873D02*
X27471Y-26653D01*
X27251Y-27557D02*
X27251Y-26873D01*
X27085Y-27723D02*
X27251Y-27557D01*
X28815Y-32757D02*
X28815Y-32641D01*
X28191Y-33381D02*
X28815Y-32757D01*
X31408Y-21241D02*
X31408Y-20990D01*
X29095Y-23554D02*
X31408Y-21241D01*
X29076Y-23554D02*
X29095Y-23554D01*
X28894Y-23736D02*
X29076Y-23554D01*
X28427Y-23736D02*
X28894Y-23736D01*
X28022Y-23331D02*
X28427Y-23736D01*
X27619Y-23331D02*
X28022Y-23331D01*
X31859Y-20990D02*
X31408Y-20990D01*
X31859Y-20990D02*
X31866Y-20990D01*
X36809Y-21961D02*
X36820Y-21950D01*
X33296Y-21961D02*
X36809Y-21961D01*
X32325Y-20990D02*
X33296Y-21961D01*
X31866Y-20990D02*
X32325Y-20990D01*
X37144Y-22274D02*
X36820Y-21950D01*
X32563Y-26525D02*
X32582Y-26506D01*
X32563Y-27776D02*
X32563Y-26525D01*
X32582Y-25950D02*
X32582Y-26506D01*
X32307Y-25393D02*
X33300Y-24400D01*
X32268Y-25393D02*
X32307Y-25393D01*
X32268Y-25950D02*
X32268Y-25393D01*
X32898Y-25203D02*
X32898Y-25950D01*
X33155Y-24946D02*
X32898Y-25203D01*
X34589Y-24946D02*
X33155Y-24946D01*
X35846Y-26203D02*
X34589Y-24946D01*
X35846Y-26946D02*
X35846Y-26203D01*
X36300Y-27400D02*
X35846Y-26946D01*
X33212Y-25950D02*
X33212Y-25393D01*
X33435Y-25170D02*
X33212Y-25393D01*
X34497Y-25170D02*
X33435Y-25170D01*
X35623Y-26296D02*
X34497Y-25170D01*
X35623Y-27723D02*
X35623Y-26296D01*
X36300Y-28400D02*
X35623Y-27723D01*
X33857Y-23957D02*
X34300Y-24400D01*
X32085Y-23957D02*
X33857Y-23957D01*
X31861Y-24181D02*
X32085Y-23957D01*
X31861Y-24891D02*
X31861Y-24181D01*
X31952Y-24982D02*
X31861Y-24891D01*
X31952Y-25950D02*
X31952Y-24982D01*
X30298Y-27683D02*
X30298Y-28313D01*
X30354Y-28313D02*
X30299Y-28313D01*
X30299Y-28313D02*
X30298Y-28313D01*
X30854Y-28313D02*
X30354Y-28313D01*
X30854Y-27683D02*
X30298Y-27683D01*
X30854Y-28313D02*
X31411Y-28313D01*
X31411Y-29215D02*
X31411Y-28313D01*
X30961Y-29665D02*
X31411Y-29215D01*
X30961Y-31261D02*
X30961Y-29665D01*
X30162Y-31261D02*
X30961Y-31261D01*
X29396Y-32027D02*
X30162Y-31261D01*
X28477Y-32027D02*
X29396Y-32027D01*
X30961Y-31261D02*
X31800Y-32100D01*
X31436Y-28338D02*
X31411Y-28313D01*
X31899Y-28338D02*
X31436Y-28338D01*
X32191Y-28630D02*
X31899Y-28338D01*
X34620Y-28630D02*
X32191Y-28630D01*
X29295Y-25400D02*
X29391Y-25400D01*
X27880Y-28485D02*
X27405Y-28485D01*
X28300Y-28065D02*
X27880Y-28485D01*
X28300Y-26426D02*
X28300Y-28065D01*
X29326Y-25400D02*
X28300Y-26426D01*
X29391Y-25400D02*
X29326Y-25400D01*
X30402Y-32564D02*
X30018Y-32180D01*
X31964Y-32564D02*
X30402Y-32564D01*
X32800Y-33400D02*
X31964Y-32564D01*
X35361Y-25400D02*
X36300Y-25400D01*
X34766Y-24805D02*
X35361Y-25400D01*
X34766Y-23991D02*
X34766Y-24805D01*
X34509Y-23734D02*
X34766Y-23991D01*
X31328Y-23734D02*
X34509Y-23734D01*
X30790Y-24272D02*
X31328Y-23734D01*
X30790Y-25264D02*
X30790Y-24272D01*
X30593Y-25461D02*
X30790Y-25264D01*
X29452Y-25461D02*
X30593Y-25461D01*
X29391Y-25400D02*
X29452Y-25461D01*
X29698Y-23602D02*
X30105Y-23602D01*
X28766Y-24534D02*
X29698Y-23602D01*
X28627Y-24534D02*
X28766Y-24534D01*
X27917Y-25244D02*
X28627Y-24534D01*
X27917Y-27660D02*
X27917Y-25244D01*
X27878Y-27699D02*
X27917Y-27660D01*
X31640Y-29730D02*
X31640Y-30286D01*
X31616Y-30286D02*
X31328Y-30574D01*
X31640Y-30286D02*
X31616Y-30286D01*
X28231Y-30336D02*
X28231Y-30139D01*
X27259Y-31308D02*
X28231Y-30336D01*
X26076Y-31308D02*
X27259Y-31308D01*
X26076Y-30850D02*
X26076Y-31308D01*
X31950Y-28935D02*
X31818Y-28803D01*
X31950Y-29730D02*
X31950Y-28935D01*
X31638Y-25950D02*
X31638Y-26506D01*
X31421Y-26506D02*
X31638Y-26506D01*
X31372Y-26457D02*
X31421Y-26506D01*
X31372Y-26229D02*
X31372Y-26457D01*
X31093Y-25950D02*
X31372Y-26229D01*
X29094Y-25950D02*
X31093Y-25950D01*
X28569Y-26475D02*
X29094Y-25950D01*
X28569Y-31140D02*
X28569Y-26475D01*
X28530Y-31179D02*
X28569Y-31140D01*
X39176Y-29950D02*
X38758Y-29950D01*
X32270Y-29730D02*
X32270Y-29173D01*
X32723Y-29173D02*
X32917Y-28979D01*
X32270Y-29173D02*
X32723Y-29173D01*
X38660Y-29852D02*
X38758Y-29950D01*
X37832Y-29852D02*
X38660Y-29852D01*
X30201Y-24872D02*
X30452Y-25123D01*
X28767Y-24872D02*
X30201Y-24872D01*
X31034Y-26558D02*
X30854Y-26738D01*
X31034Y-26370D02*
X31034Y-26558D01*
X26460Y-25620D02*
X26460Y-24974D01*
X27025Y-26185D02*
X26460Y-25620D01*
X27025Y-26467D02*
X27025Y-26185D01*
X26805Y-26687D02*
X27025Y-26467D01*
X26805Y-27371D02*
X26805Y-26687D01*
X26518Y-27658D02*
X26805Y-27371D01*
X25489Y-27658D02*
X26518Y-27658D01*
X24859Y-28288D02*
X25489Y-27658D01*
X24859Y-29512D02*
X24859Y-28288D01*
X25297Y-29950D02*
X24859Y-29512D01*
X25876Y-29950D02*
X25297Y-29950D01*
X35760Y-31346D02*
X34226Y-29812D01*
X38062Y-31346D02*
X35760Y-31346D01*
X38558Y-30850D02*
X38062Y-31346D01*
X30285Y-27053D02*
X30854Y-27053D01*
X30172Y-26940D02*
X30285Y-27053D01*
X28901Y-26940D02*
X30172Y-26940D01*
X28792Y-27049D02*
X28901Y-26940D01*
X28792Y-30695D02*
X28792Y-27049D01*
X28964Y-30867D02*
X28792Y-30695D01*
X29459Y-30867D02*
X28964Y-30867D01*
X29969Y-30357D02*
X29459Y-30867D01*
X29969Y-30155D02*
X29969Y-30357D01*
X38976Y-30850D02*
X38558Y-30850D01*
G54D10*
G36*
X41910Y-37010D02*
X41910Y-19040D01*
X23790Y-19040D01*
X23790Y-37010D01*
X32846Y-37010D01*
X32846Y-36805D01*
X32835Y-36803D01*
X32824Y-36804D01*
X31174Y-36642D01*
X31125Y-36632D01*
X29537Y-36153D01*
X29533Y-36152D01*
X29507Y-36140D01*
X29491Y-36134D01*
X28026Y-35355D01*
X28023Y-35353D01*
X27982Y-35325D01*
X27979Y-35322D01*
X26700Y-34279D01*
X26664Y-34244D01*
X25607Y-32966D01*
X25606Y-32965D01*
X25578Y-32924D01*
X24790Y-31465D01*
X24788Y-31462D01*
X24772Y-31422D01*
X24771Y-31419D01*
X24770Y-31416D01*
X24770Y-31416D01*
X24769Y-31415D01*
X24281Y-29837D01*
X24280Y-29835D01*
X24279Y-29832D01*
X24279Y-29831D01*
X24277Y-29822D01*
X24270Y-29786D01*
X24096Y-28136D01*
X24096Y-28132D01*
X24096Y-28121D01*
X24095Y-28109D01*
X24095Y-28046D01*
X24096Y-28037D01*
X24096Y-28025D01*
X24258Y-26375D01*
X24258Y-26371D01*
X24264Y-26343D01*
X24268Y-26325D01*
X24747Y-24738D01*
X24748Y-24734D01*
X24754Y-24718D01*
X24766Y-24691D01*
X25545Y-23226D01*
X25547Y-23223D01*
X25556Y-23208D01*
X25572Y-23185D01*
X26620Y-21900D01*
X26623Y-21897D01*
X26658Y-21863D01*
X26659Y-21861D01*
X27929Y-20811D01*
X27934Y-20807D01*
X27937Y-20804D01*
X27938Y-20804D01*
X27948Y-20797D01*
X27976Y-20779D01*
X29434Y-19990D01*
X29438Y-19988D01*
X29446Y-19984D01*
X29481Y-19970D01*
X31065Y-19480D01*
X31069Y-19479D01*
X31095Y-19474D01*
X31114Y-19470D01*
X32764Y-19297D01*
X32771Y-19297D01*
X32791Y-19295D01*
X32854Y-19295D01*
X32862Y-19296D01*
X32875Y-19296D01*
X34525Y-19458D01*
X34529Y-19458D01*
X34556Y-19464D01*
X34575Y-19468D01*
X36162Y-19947D01*
X36166Y-19948D01*
X36181Y-19954D01*
X36209Y-19966D01*
X37674Y-20745D01*
X37677Y-20747D01*
X37691Y-20756D01*
X37715Y-20772D01*
X39000Y-21820D01*
X39003Y-21823D01*
X39037Y-21858D01*
X39038Y-21859D01*
X40088Y-23129D01*
X40093Y-23134D01*
X40095Y-23137D01*
X40096Y-23138D01*
X40102Y-23148D01*
X40121Y-23176D01*
X40910Y-24634D01*
X40912Y-24638D01*
X40915Y-24646D01*
X40930Y-24681D01*
X41420Y-26265D01*
X41421Y-26269D01*
X41425Y-26296D01*
X41430Y-26314D01*
X41603Y-27964D01*
X41603Y-27971D01*
X41605Y-27991D01*
X41605Y-28054D01*
X41603Y-28064D01*
X41604Y-28076D01*
X41442Y-29726D01*
X41432Y-29775D01*
X40953Y-31363D01*
X40952Y-31367D01*
X40940Y-31392D01*
X40934Y-31409D01*
X40155Y-32874D01*
X40153Y-32877D01*
X40125Y-32918D01*
X40122Y-32920D01*
X39079Y-34200D01*
X39044Y-34236D01*
X37765Y-35293D01*
X37765Y-35294D01*
X37724Y-35322D01*
X36265Y-36110D01*
X36262Y-36112D01*
X36223Y-36127D01*
X36219Y-36129D01*
X36216Y-36129D01*
X36216Y-36130D01*
X36215Y-36130D01*
X34637Y-36618D01*
X34635Y-36620D01*
X34632Y-36620D01*
X34631Y-36621D01*
X34622Y-36622D01*
X34586Y-36630D01*
X32936Y-36804D01*
X32932Y-36804D01*
X32921Y-36803D01*
X32909Y-36805D01*
X32846Y-36805D01*
X32846Y-37010D01*
X41910Y-37010D01*
X41910Y-37010D01*
G37*
G54D22*
X41910Y-37010D02*
X41910Y-19040D01*
X23790Y-19040D01*
X23790Y-37010D01*
X32846Y-37010D01*
X32846Y-36805D01*
X32835Y-36803D01*
X32824Y-36804D01*
X31174Y-36642D01*
X31125Y-36632D01*
X29537Y-36153D01*
X29533Y-36152D01*
X29507Y-36140D01*
X29491Y-36134D01*
X28026Y-35355D01*
X28023Y-35353D01*
X27982Y-35325D01*
X27979Y-35322D01*
X26700Y-34279D01*
X26664Y-34244D01*
X25607Y-32966D01*
X25606Y-32965D01*
X25578Y-32924D01*
X24790Y-31465D01*
X24788Y-31462D01*
X24772Y-31422D01*
X24771Y-31419D01*
X24770Y-31416D01*
X24770Y-31416D01*
X24769Y-31415D01*
X24281Y-29837D01*
X24280Y-29835D01*
X24279Y-29832D01*
X24279Y-29831D01*
X24277Y-29822D01*
X24270Y-29786D01*
X24096Y-28136D01*
X24096Y-28132D01*
X24096Y-28121D01*
X24095Y-28109D01*
X24095Y-28046D01*
X24096Y-28037D01*
X24096Y-28025D01*
X24258Y-26375D01*
X24258Y-26371D01*
X24264Y-26343D01*
X24268Y-26325D01*
X24747Y-24738D01*
X24748Y-24734D01*
X24754Y-24718D01*
X24766Y-24691D01*
X25545Y-23226D01*
X25547Y-23223D01*
X25556Y-23208D01*
X25572Y-23185D01*
X26620Y-21900D01*
X26623Y-21897D01*
X26658Y-21863D01*
X26659Y-21861D01*
X27929Y-20811D01*
X27934Y-20807D01*
X27937Y-20804D01*
X27938Y-20804D01*
X27948Y-20797D01*
X27976Y-20779D01*
X29434Y-19990D01*
X29438Y-19988D01*
X29446Y-19984D01*
X29481Y-19970D01*
X31065Y-19480D01*
X31069Y-19479D01*
X31095Y-19474D01*
X31114Y-19470D01*
X32764Y-19297D01*
X32771Y-19297D01*
X32791Y-19295D01*
X32854Y-19295D01*
X32862Y-19296D01*
X32875Y-19296D01*
X34525Y-19458D01*
X34529Y-19458D01*
X34556Y-19464D01*
X34575Y-19468D01*
X36162Y-19947D01*
X36166Y-19948D01*
X36181Y-19954D01*
X36209Y-19966D01*
X37674Y-20745D01*
X37677Y-20747D01*
X37691Y-20756D01*
X37715Y-20772D01*
X39000Y-21820D01*
X39003Y-21823D01*
X39037Y-21858D01*
X39038Y-21859D01*
X40088Y-23129D01*
X40093Y-23134D01*
X40095Y-23137D01*
X40096Y-23138D01*
X40102Y-23148D01*
X40121Y-23176D01*
X40910Y-24634D01*
X40912Y-24638D01*
X40915Y-24646D01*
X40930Y-24681D01*
X41420Y-26265D01*
X41421Y-26269D01*
X41425Y-26296D01*
X41430Y-26314D01*
X41603Y-27964D01*
X41603Y-27971D01*
X41605Y-27991D01*
X41605Y-28054D01*
X41603Y-28064D01*
X41604Y-28076D01*
X41442Y-29726D01*
X41432Y-29775D01*
X40953Y-31363D01*
X40952Y-31367D01*
X40940Y-31392D01*
X40934Y-31409D01*
X40155Y-32874D01*
X40153Y-32877D01*
X40125Y-32918D01*
X40122Y-32920D01*
X39079Y-34200D01*
X39044Y-34236D01*
X37765Y-35293D01*
X37765Y-35294D01*
X37724Y-35322D01*
X36265Y-36110D01*
X36262Y-36112D01*
X36223Y-36127D01*
X36219Y-36129D01*
X36216Y-36129D01*
X36216Y-36130D01*
X36215Y-36130D01*
X34637Y-36618D01*
X34635Y-36620D01*
X34632Y-36620D01*
X34631Y-36621D01*
X34622Y-36622D01*
X34586Y-36630D01*
X32936Y-36804D01*
X32932Y-36804D01*
X32921Y-36803D01*
X32909Y-36805D01*
X32846Y-36805D01*
X32846Y-37010D01*
X41910Y-37010D01*
G54D10*
G36*
X33321Y-36249D02*
X34016Y-36177D01*
X33510Y-36177D01*
X33458Y-36166D01*
X33421Y-36150D01*
X33321Y-36249D01*
X33321Y-36249D01*
G37*
G54D22*
X33321Y-36249D02*
X34016Y-36177D01*
X33510Y-36177D01*
X33458Y-36166D01*
X33421Y-36150D01*
X33321Y-36249D01*
G54D10*
G36*
X34239Y-36153D02*
X34503Y-36125D01*
X36049Y-35647D01*
X37460Y-34884D01*
X37533Y-34823D01*
X37487Y-34814D01*
X37438Y-34794D01*
X37394Y-34764D01*
X37105Y-34475D01*
X37076Y-34430D01*
X37057Y-34382D01*
X37054Y-34371D01*
X37041Y-34369D01*
X36992Y-34349D01*
X36948Y-34319D01*
X36659Y-34030D01*
X36644Y-34007D01*
X36644Y-34008D01*
X36594Y-34079D01*
X36531Y-34139D01*
X36457Y-34186D01*
X36376Y-34218D01*
X36290Y-34233D01*
X36202Y-34231D01*
X36117Y-34212D01*
X36037Y-34178D01*
X35965Y-34128D01*
X35933Y-34094D01*
X35559Y-34469D01*
X35559Y-35120D01*
X35559Y-35124D01*
X35556Y-35147D01*
X35553Y-35184D01*
X35552Y-35186D01*
X35552Y-35188D01*
X35548Y-35198D01*
X35534Y-35246D01*
X35503Y-35303D01*
X35485Y-35324D01*
X35460Y-35355D01*
X35454Y-35359D01*
X34856Y-35957D01*
X34851Y-35964D01*
X34849Y-35965D01*
X34848Y-35967D01*
X34821Y-35988D01*
X34801Y-36005D01*
X34799Y-36005D01*
X34798Y-36007D01*
X34781Y-36015D01*
X34744Y-36035D01*
X34682Y-36054D01*
X34618Y-36060D01*
X34614Y-36060D01*
X34351Y-36060D01*
X34338Y-36080D01*
X34300Y-36118D01*
X34256Y-36147D01*
X34239Y-36153D01*
X34239Y-36153D01*
G37*
G54D22*
X34239Y-36153D02*
X34503Y-36125D01*
X36049Y-35647D01*
X37460Y-34884D01*
X37533Y-34823D01*
X37487Y-34814D01*
X37438Y-34794D01*
X37394Y-34764D01*
X37105Y-34475D01*
X37076Y-34430D01*
X37057Y-34382D01*
X37054Y-34371D01*
X37041Y-34369D01*
X36992Y-34349D01*
X36948Y-34319D01*
X36659Y-34030D01*
X36644Y-34007D01*
X36644Y-34008D01*
X36594Y-34079D01*
X36531Y-34139D01*
X36457Y-34186D01*
X36376Y-34218D01*
X36290Y-34233D01*
X36202Y-34231D01*
X36117Y-34212D01*
X36037Y-34178D01*
X35965Y-34128D01*
X35933Y-34094D01*
X35559Y-34469D01*
X35559Y-35120D01*
X35559Y-35124D01*
X35556Y-35147D01*
X35553Y-35184D01*
X35552Y-35186D01*
X35552Y-35188D01*
X35548Y-35198D01*
X35534Y-35246D01*
X35503Y-35303D01*
X35485Y-35324D01*
X35460Y-35355D01*
X35454Y-35359D01*
X34856Y-35957D01*
X34851Y-35964D01*
X34849Y-35965D01*
X34848Y-35967D01*
X34821Y-35988D01*
X34801Y-36005D01*
X34799Y-36005D01*
X34798Y-36007D01*
X34781Y-36015D01*
X34744Y-36035D01*
X34682Y-36054D01*
X34618Y-36060D01*
X34614Y-36060D01*
X34351Y-36060D01*
X34338Y-36080D01*
X34300Y-36118D01*
X34256Y-36147D01*
X34239Y-36153D01*
G54D10*
G36*
X30527Y-35919D02*
X30085Y-35477D01*
X29341Y-35477D01*
X29708Y-35672D01*
X30527Y-35919D01*
X30527Y-35919D01*
G37*
G54D22*
X30527Y-35919D02*
X30085Y-35477D01*
X29341Y-35477D01*
X29708Y-35672D01*
X30527Y-35919D01*
G54D10*
G36*
X32898Y-35740D02*
X33141Y-35497D01*
X33141Y-35496D01*
X33142Y-35496D01*
X33192Y-35455D01*
X33193Y-35454D01*
X33195Y-35453D01*
X33218Y-35440D01*
X33249Y-35425D01*
X33251Y-35424D01*
X33252Y-35424D01*
X33254Y-35423D01*
X33281Y-35415D01*
X33249Y-35404D01*
X33248Y-35404D01*
X33247Y-35403D01*
X33245Y-35403D01*
X33223Y-35391D01*
X33191Y-35374D01*
X33141Y-35333D01*
X33139Y-35331D01*
X33139Y-35331D01*
X33138Y-35330D01*
X32654Y-34845D01*
X32654Y-34872D01*
X32654Y-34876D01*
X32647Y-34940D01*
X32628Y-34996D01*
X32628Y-34998D01*
X32627Y-34998D01*
X32627Y-35001D01*
X32615Y-35022D01*
X32598Y-35055D01*
X32561Y-35099D01*
X32599Y-35146D01*
X32599Y-35147D01*
X32601Y-35149D01*
X32613Y-35172D01*
X32629Y-35203D01*
X32629Y-35205D01*
X32630Y-35206D01*
X32630Y-35208D01*
X32648Y-35265D01*
X32654Y-35329D01*
X32654Y-35332D01*
X32654Y-35732D01*
X32654Y-35735D01*
X32653Y-35740D01*
X32898Y-35740D01*
X32898Y-35740D01*
G37*
G54D22*
X32898Y-35740D02*
X33141Y-35497D01*
X33141Y-35496D01*
X33142Y-35496D01*
X33192Y-35455D01*
X33193Y-35454D01*
X33195Y-35453D01*
X33218Y-35440D01*
X33249Y-35425D01*
X33251Y-35424D01*
X33252Y-35424D01*
X33254Y-35423D01*
X33281Y-35415D01*
X33249Y-35404D01*
X33248Y-35404D01*
X33247Y-35403D01*
X33245Y-35403D01*
X33223Y-35391D01*
X33191Y-35374D01*
X33141Y-35333D01*
X33139Y-35331D01*
X33139Y-35331D01*
X33138Y-35330D01*
X32654Y-34845D01*
X32654Y-34872D01*
X32654Y-34876D01*
X32647Y-34940D01*
X32628Y-34996D01*
X32628Y-34998D01*
X32627Y-34998D01*
X32627Y-35001D01*
X32615Y-35022D01*
X32598Y-35055D01*
X32561Y-35099D01*
X32599Y-35146D01*
X32599Y-35147D01*
X32601Y-35149D01*
X32613Y-35172D01*
X32629Y-35203D01*
X32629Y-35205D01*
X32630Y-35206D01*
X32630Y-35208D01*
X32648Y-35265D01*
X32654Y-35329D01*
X32654Y-35332D01*
X32654Y-35732D01*
X32654Y-35735D01*
X32653Y-35740D01*
X32898Y-35740D01*
G54D10*
G36*
X31301Y-35740D02*
X31301Y-35524D01*
X31312Y-35472D01*
X31333Y-35424D01*
X31338Y-35415D01*
X31331Y-35404D01*
X31311Y-35355D01*
X31301Y-35303D01*
X31301Y-34894D01*
X31310Y-34846D01*
X31276Y-34869D01*
X31195Y-34901D01*
X31109Y-34916D01*
X31021Y-34914D01*
X30936Y-34895D01*
X30856Y-34861D01*
X30784Y-34811D01*
X30724Y-34748D01*
X30676Y-34675D01*
X30644Y-34594D01*
X30628Y-34508D01*
X30629Y-34460D01*
X28939Y-34460D01*
X28935Y-34460D01*
X28910Y-34457D01*
X28875Y-34454D01*
X28872Y-34453D01*
X28871Y-34453D01*
X28822Y-34437D01*
X29202Y-34817D01*
X30223Y-34817D01*
X30227Y-34817D01*
X30251Y-34819D01*
X30287Y-34823D01*
X30289Y-34823D01*
X30291Y-34824D01*
X30301Y-34827D01*
X30349Y-34842D01*
X30406Y-34873D01*
X30427Y-34891D01*
X30458Y-34916D01*
X30461Y-34920D01*
X31281Y-35740D01*
X31301Y-35740D01*
X31301Y-35740D01*
G37*
G54D22*
X31301Y-35740D02*
X31301Y-35524D01*
X31312Y-35472D01*
X31333Y-35424D01*
X31338Y-35415D01*
X31331Y-35404D01*
X31311Y-35355D01*
X31301Y-35303D01*
X31301Y-34894D01*
X31310Y-34846D01*
X31276Y-34869D01*
X31195Y-34901D01*
X31109Y-34916D01*
X31021Y-34914D01*
X30936Y-34895D01*
X30856Y-34861D01*
X30784Y-34811D01*
X30724Y-34748D01*
X30676Y-34675D01*
X30644Y-34594D01*
X30628Y-34508D01*
X30629Y-34460D01*
X28939Y-34460D01*
X28935Y-34460D01*
X28910Y-34457D01*
X28875Y-34454D01*
X28872Y-34453D01*
X28871Y-34453D01*
X28822Y-34437D01*
X29202Y-34817D01*
X30223Y-34817D01*
X30227Y-34817D01*
X30251Y-34819D01*
X30287Y-34823D01*
X30289Y-34823D01*
X30291Y-34824D01*
X30301Y-34827D01*
X30349Y-34842D01*
X30406Y-34873D01*
X30427Y-34891D01*
X30458Y-34916D01*
X30461Y-34920D01*
X31281Y-35740D01*
X31301Y-35740D01*
G54D10*
G36*
X34824Y-35057D02*
X34899Y-34983D01*
X34899Y-34812D01*
X34763Y-34947D01*
X34804Y-35007D01*
X34824Y-35057D01*
X34824Y-35057D01*
G37*
G54D22*
X34824Y-35057D02*
X34899Y-34983D01*
X34899Y-34812D01*
X34763Y-34947D01*
X34804Y-35007D01*
X34824Y-35057D01*
G54D10*
G36*
X28292Y-34918D02*
X28461Y-35008D01*
X28202Y-34750D01*
X28179Y-34755D01*
X28125Y-34755D01*
X28079Y-34745D01*
X28292Y-34918D01*
X28292Y-34918D01*
G37*
G54D22*
X28292Y-34918D02*
X28461Y-35008D01*
X28202Y-34750D01*
X28179Y-34755D01*
X28125Y-34755D01*
X28079Y-34745D01*
X28292Y-34918D01*
G54D10*
G36*
X27824Y-34537D02*
X27525Y-34238D01*
X27496Y-34193D01*
X27477Y-34145D01*
X27466Y-34093D01*
X27466Y-34039D01*
X27477Y-33988D01*
X27497Y-33939D01*
X27527Y-33895D01*
X27816Y-33606D01*
X27861Y-33577D01*
X27909Y-33558D01*
X27912Y-33557D01*
X27886Y-33505D01*
X27885Y-33503D01*
X27881Y-33492D01*
X27866Y-33444D01*
X27861Y-33380D01*
X27861Y-33378D01*
X27861Y-33377D01*
X27862Y-33360D01*
X27867Y-33316D01*
X27886Y-33254D01*
X27886Y-33252D01*
X27887Y-33252D01*
X27891Y-33242D01*
X27917Y-33197D01*
X27926Y-33186D01*
X27959Y-33146D01*
X27963Y-33142D01*
X28377Y-32727D01*
X28369Y-32679D01*
X28371Y-32592D01*
X28389Y-32506D01*
X28405Y-32466D01*
X28339Y-32452D01*
X28259Y-32418D01*
X28187Y-32368D01*
X28185Y-32366D01*
X28131Y-32420D01*
X28127Y-32426D01*
X28124Y-32428D01*
X28124Y-32429D01*
X28123Y-32429D01*
X27698Y-32854D01*
X27689Y-32865D01*
X27687Y-32866D01*
X27687Y-32867D01*
X27684Y-32869D01*
X27682Y-32872D01*
X27679Y-32874D01*
X27679Y-32875D01*
X27678Y-32875D01*
X27513Y-33039D01*
X27509Y-33045D01*
X27507Y-33046D01*
X27506Y-33048D01*
X27500Y-33052D01*
X27236Y-33316D01*
X27233Y-33320D01*
X27183Y-33360D01*
X27139Y-33381D01*
X27128Y-33388D01*
X27125Y-33388D01*
X27125Y-33389D01*
X27117Y-33391D01*
X27066Y-33407D01*
X27003Y-33413D01*
X27000Y-33412D01*
X26999Y-33413D01*
X26979Y-33410D01*
X26938Y-33407D01*
X26877Y-33388D01*
X26876Y-33387D01*
X26874Y-33387D01*
X26842Y-33369D01*
X26819Y-33357D01*
X26788Y-33364D01*
X26734Y-33364D01*
X26683Y-33353D01*
X26634Y-33333D01*
X26590Y-33303D01*
X26343Y-33056D01*
X27038Y-33896D01*
X27824Y-34537D01*
X27824Y-34537D01*
G37*
G54D22*
X27824Y-34537D02*
X27525Y-34238D01*
X27496Y-34193D01*
X27477Y-34145D01*
X27466Y-34093D01*
X27466Y-34039D01*
X27477Y-33988D01*
X27497Y-33939D01*
X27527Y-33895D01*
X27816Y-33606D01*
X27861Y-33577D01*
X27909Y-33558D01*
X27912Y-33557D01*
X27886Y-33505D01*
X27885Y-33503D01*
X27881Y-33492D01*
X27866Y-33444D01*
X27861Y-33380D01*
X27861Y-33378D01*
X27861Y-33377D01*
X27862Y-33360D01*
X27867Y-33316D01*
X27886Y-33254D01*
X27886Y-33252D01*
X27887Y-33252D01*
X27891Y-33242D01*
X27917Y-33197D01*
X27926Y-33186D01*
X27959Y-33146D01*
X27963Y-33142D01*
X28377Y-32727D01*
X28369Y-32679D01*
X28371Y-32592D01*
X28389Y-32506D01*
X28405Y-32466D01*
X28339Y-32452D01*
X28259Y-32418D01*
X28187Y-32368D01*
X28185Y-32366D01*
X28131Y-32420D01*
X28127Y-32426D01*
X28124Y-32428D01*
X28124Y-32429D01*
X28123Y-32429D01*
X27698Y-32854D01*
X27689Y-32865D01*
X27687Y-32866D01*
X27687Y-32867D01*
X27684Y-32869D01*
X27682Y-32872D01*
X27679Y-32874D01*
X27679Y-32875D01*
X27678Y-32875D01*
X27513Y-33039D01*
X27509Y-33045D01*
X27507Y-33046D01*
X27506Y-33048D01*
X27500Y-33052D01*
X27236Y-33316D01*
X27233Y-33320D01*
X27183Y-33360D01*
X27139Y-33381D01*
X27128Y-33388D01*
X27125Y-33388D01*
X27125Y-33389D01*
X27117Y-33391D01*
X27066Y-33407D01*
X27003Y-33413D01*
X27000Y-33412D01*
X26999Y-33413D01*
X26979Y-33410D01*
X26938Y-33407D01*
X26877Y-33388D01*
X26876Y-33387D01*
X26874Y-33387D01*
X26842Y-33369D01*
X26819Y-33357D01*
X26788Y-33364D01*
X26734Y-33364D01*
X26683Y-33353D01*
X26634Y-33333D01*
X26590Y-33303D01*
X26343Y-33056D01*
X27038Y-33896D01*
X27824Y-34537D01*
G54D10*
G36*
X38230Y-34246D02*
X38696Y-33861D01*
X39063Y-33411D01*
X39035Y-33423D01*
X38983Y-33434D01*
X38929Y-33434D01*
X38900Y-33427D01*
X38897Y-33431D01*
X38875Y-33441D01*
X38864Y-33449D01*
X38848Y-33455D01*
X38839Y-33460D01*
X38829Y-33462D01*
X38804Y-33473D01*
X38784Y-33476D01*
X38778Y-33478D01*
X38764Y-33479D01*
X38741Y-33483D01*
X38726Y-33482D01*
X38713Y-33484D01*
X38697Y-33482D01*
X38677Y-33482D01*
X38661Y-33478D01*
X38658Y-33478D01*
X38021Y-33478D01*
X38207Y-33663D01*
X38209Y-33665D01*
X38210Y-33666D01*
X38251Y-33716D01*
X38280Y-33774D01*
X38292Y-33816D01*
X38298Y-33834D01*
X38304Y-33898D01*
X38303Y-33898D01*
X38304Y-33900D01*
X38302Y-33910D01*
X38298Y-33962D01*
X38279Y-34024D01*
X38248Y-34081D01*
X38247Y-34081D01*
X38254Y-34112D01*
X38254Y-34166D01*
X38243Y-34217D01*
X38230Y-34246D01*
X38230Y-34246D01*
G37*
G54D22*
X38230Y-34246D02*
X38696Y-33861D01*
X39063Y-33411D01*
X39035Y-33423D01*
X38983Y-33434D01*
X38929Y-33434D01*
X38900Y-33427D01*
X38897Y-33431D01*
X38875Y-33441D01*
X38864Y-33449D01*
X38848Y-33455D01*
X38839Y-33460D01*
X38829Y-33462D01*
X38804Y-33473D01*
X38784Y-33476D01*
X38778Y-33478D01*
X38764Y-33479D01*
X38741Y-33483D01*
X38726Y-33482D01*
X38713Y-33484D01*
X38697Y-33482D01*
X38677Y-33482D01*
X38661Y-33478D01*
X38658Y-33478D01*
X38021Y-33478D01*
X38207Y-33663D01*
X38209Y-33665D01*
X38210Y-33666D01*
X38251Y-33716D01*
X38280Y-33774D01*
X38292Y-33816D01*
X38298Y-33834D01*
X38304Y-33898D01*
X38303Y-33898D01*
X38304Y-33900D01*
X38302Y-33910D01*
X38298Y-33962D01*
X38279Y-34024D01*
X38248Y-34081D01*
X38247Y-34081D01*
X38254Y-34112D01*
X38254Y-34166D01*
X38243Y-34217D01*
X38230Y-34246D01*
G54D10*
G36*
X34246Y-34049D02*
X35045Y-33251D01*
X34324Y-33251D01*
X34344Y-33347D01*
X34342Y-33469D01*
X34319Y-33573D01*
X34275Y-33670D01*
X34214Y-33757D01*
X34136Y-33831D01*
X34046Y-33888D01*
X33947Y-33927D01*
X33842Y-33945D01*
X33735Y-33943D01*
X33631Y-33920D01*
X33533Y-33877D01*
X33445Y-33816D01*
X33371Y-33739D01*
X33314Y-33650D01*
X33300Y-33614D01*
X33275Y-33670D01*
X33214Y-33757D01*
X33169Y-33798D01*
X33420Y-34049D01*
X33461Y-34033D01*
X33513Y-34023D01*
X34158Y-34023D01*
X34210Y-34034D01*
X34246Y-34049D01*
X34246Y-34049D01*
G37*
G54D22*
X34246Y-34049D02*
X35045Y-33251D01*
X34324Y-33251D01*
X34344Y-33347D01*
X34342Y-33469D01*
X34319Y-33573D01*
X34275Y-33670D01*
X34214Y-33757D01*
X34136Y-33831D01*
X34046Y-33888D01*
X33947Y-33927D01*
X33842Y-33945D01*
X33735Y-33943D01*
X33631Y-33920D01*
X33533Y-33877D01*
X33445Y-33816D01*
X33371Y-33739D01*
X33314Y-33650D01*
X33300Y-33614D01*
X33275Y-33670D01*
X33214Y-33757D01*
X33169Y-33798D01*
X33420Y-34049D01*
X33461Y-34033D01*
X33513Y-34023D01*
X34158Y-34023D01*
X34210Y-34034D01*
X34246Y-34049D01*
G54D10*
G36*
X31255Y-33540D02*
X31255Y-33096D01*
X31266Y-33044D01*
X31287Y-32996D01*
X31316Y-32952D01*
X31354Y-32914D01*
X31384Y-32894D01*
X30401Y-32894D01*
X30397Y-32894D01*
X30373Y-32891D01*
X30337Y-32888D01*
X30334Y-32887D01*
X30333Y-32887D01*
X30322Y-32883D01*
X30275Y-32869D01*
X30218Y-32838D01*
X30196Y-32820D01*
X30166Y-32795D01*
X30161Y-32789D01*
X29996Y-32624D01*
X29965Y-32624D01*
X29880Y-32605D01*
X29800Y-32571D01*
X29728Y-32521D01*
X29668Y-32458D01*
X29620Y-32385D01*
X29588Y-32304D01*
X29586Y-32295D01*
X29579Y-32302D01*
X29577Y-32302D01*
X29576Y-32304D01*
X29560Y-32311D01*
X29522Y-32332D01*
X29460Y-32351D01*
X29396Y-32357D01*
X29392Y-32357D01*
X29160Y-32357D01*
X29161Y-32358D01*
X29210Y-32431D01*
X29243Y-32511D01*
X29260Y-32597D01*
X29259Y-32697D01*
X29239Y-32782D01*
X29204Y-32862D01*
X29200Y-32867D01*
X29506Y-33173D01*
X29535Y-33218D01*
X29554Y-33266D01*
X29565Y-33318D01*
X29565Y-33372D01*
X29560Y-33391D01*
X29643Y-33474D01*
X31059Y-33474D01*
X31063Y-33474D01*
X31086Y-33476D01*
X31123Y-33480D01*
X31125Y-33480D01*
X31127Y-33481D01*
X31137Y-33484D01*
X31185Y-33499D01*
X31242Y-33530D01*
X31255Y-33540D01*
X31255Y-33540D01*
G37*
G54D22*
X31255Y-33540D02*
X31255Y-33096D01*
X31266Y-33044D01*
X31287Y-32996D01*
X31316Y-32952D01*
X31354Y-32914D01*
X31384Y-32894D01*
X30401Y-32894D01*
X30397Y-32894D01*
X30373Y-32891D01*
X30337Y-32888D01*
X30334Y-32887D01*
X30333Y-32887D01*
X30322Y-32883D01*
X30275Y-32869D01*
X30218Y-32838D01*
X30196Y-32820D01*
X30166Y-32795D01*
X30161Y-32789D01*
X29996Y-32624D01*
X29965Y-32624D01*
X29880Y-32605D01*
X29800Y-32571D01*
X29728Y-32521D01*
X29668Y-32458D01*
X29620Y-32385D01*
X29588Y-32304D01*
X29586Y-32295D01*
X29579Y-32302D01*
X29577Y-32302D01*
X29576Y-32304D01*
X29560Y-32311D01*
X29522Y-32332D01*
X29460Y-32351D01*
X29396Y-32357D01*
X29392Y-32357D01*
X29160Y-32357D01*
X29161Y-32358D01*
X29210Y-32431D01*
X29243Y-32511D01*
X29260Y-32597D01*
X29259Y-32697D01*
X29239Y-32782D01*
X29204Y-32862D01*
X29200Y-32867D01*
X29506Y-33173D01*
X29535Y-33218D01*
X29554Y-33266D01*
X29565Y-33318D01*
X29565Y-33372D01*
X29560Y-33391D01*
X29643Y-33474D01*
X31059Y-33474D01*
X31063Y-33474D01*
X31086Y-33476D01*
X31123Y-33480D01*
X31125Y-33480D01*
X31127Y-33481D01*
X31137Y-33484D01*
X31185Y-33499D01*
X31242Y-33530D01*
X31255Y-33540D01*
G54D10*
G36*
X26083Y-32742D02*
X26075Y-32702D01*
X26075Y-32648D01*
X26086Y-32597D01*
X26106Y-32548D01*
X26136Y-32504D01*
X26425Y-32215D01*
X26470Y-32186D01*
X26518Y-32167D01*
X26528Y-32164D01*
X26531Y-32151D01*
X26551Y-32102D01*
X26581Y-32058D01*
X26870Y-31769D01*
X26915Y-31740D01*
X26963Y-31721D01*
X26974Y-31718D01*
X26977Y-31706D01*
X26997Y-31657D01*
X27009Y-31638D01*
X26074Y-31638D01*
X26071Y-31638D01*
X26007Y-31631D01*
X25964Y-31616D01*
X25948Y-31612D01*
X25946Y-31611D01*
X25946Y-31611D01*
X25944Y-31609D01*
X25891Y-31582D01*
X25842Y-31541D01*
X25841Y-31539D01*
X25840Y-31539D01*
X25825Y-31520D01*
X25801Y-31491D01*
X25771Y-31434D01*
X25770Y-31433D01*
X25770Y-31432D01*
X25763Y-31408D01*
X25740Y-31404D01*
X25692Y-31383D01*
X25648Y-31354D01*
X25610Y-31316D01*
X25581Y-31272D01*
X25561Y-31223D01*
X25551Y-31171D01*
X25551Y-30526D01*
X25554Y-30507D01*
X25540Y-30504D01*
X25492Y-30483D01*
X25448Y-30454D01*
X25410Y-30416D01*
X25381Y-30372D01*
X25361Y-30323D01*
X25352Y-30280D01*
X25296Y-30280D01*
X25292Y-30280D01*
X25267Y-30277D01*
X25232Y-30274D01*
X25229Y-30273D01*
X25228Y-30273D01*
X25173Y-30255D01*
X25170Y-30254D01*
X25169Y-30253D01*
X25167Y-30253D01*
X25145Y-30241D01*
X25113Y-30224D01*
X25063Y-30183D01*
X25061Y-30181D01*
X25061Y-30181D01*
X25060Y-30180D01*
X24859Y-29978D01*
X25252Y-31249D01*
X26015Y-32660D01*
X26083Y-32742D01*
X26083Y-32742D01*
G37*
G54D22*
X26083Y-32742D02*
X26075Y-32702D01*
X26075Y-32648D01*
X26086Y-32597D01*
X26106Y-32548D01*
X26136Y-32504D01*
X26425Y-32215D01*
X26470Y-32186D01*
X26518Y-32167D01*
X26528Y-32164D01*
X26531Y-32151D01*
X26551Y-32102D01*
X26581Y-32058D01*
X26870Y-31769D01*
X26915Y-31740D01*
X26963Y-31721D01*
X26974Y-31718D01*
X26977Y-31706D01*
X26997Y-31657D01*
X27009Y-31638D01*
X26074Y-31638D01*
X26071Y-31638D01*
X26007Y-31631D01*
X25964Y-31616D01*
X25948Y-31612D01*
X25946Y-31611D01*
X25946Y-31611D01*
X25944Y-31609D01*
X25891Y-31582D01*
X25842Y-31541D01*
X25841Y-31539D01*
X25840Y-31539D01*
X25825Y-31520D01*
X25801Y-31491D01*
X25771Y-31434D01*
X25770Y-31433D01*
X25770Y-31432D01*
X25763Y-31408D01*
X25740Y-31404D01*
X25692Y-31383D01*
X25648Y-31354D01*
X25610Y-31316D01*
X25581Y-31272D01*
X25561Y-31223D01*
X25551Y-31171D01*
X25551Y-30526D01*
X25554Y-30507D01*
X25540Y-30504D01*
X25492Y-30483D01*
X25448Y-30454D01*
X25410Y-30416D01*
X25381Y-30372D01*
X25361Y-30323D01*
X25352Y-30280D01*
X25296Y-30280D01*
X25292Y-30280D01*
X25267Y-30277D01*
X25232Y-30274D01*
X25229Y-30273D01*
X25228Y-30273D01*
X25173Y-30255D01*
X25170Y-30254D01*
X25169Y-30253D01*
X25167Y-30253D01*
X25145Y-30241D01*
X25113Y-30224D01*
X25063Y-30183D01*
X25061Y-30181D01*
X25061Y-30181D01*
X25060Y-30180D01*
X24859Y-29978D01*
X25252Y-31249D01*
X26015Y-32660D01*
X26083Y-32742D01*
G54D10*
G36*
X39641Y-32703D02*
X39718Y-32607D01*
X40169Y-31759D01*
X39695Y-32234D01*
X39695Y-32495D01*
X39696Y-32506D01*
X39695Y-32506D01*
X39696Y-32507D01*
X39689Y-32571D01*
X39670Y-32633D01*
X39640Y-32690D01*
X39638Y-32691D01*
X39641Y-32703D01*
X39641Y-32703D01*
G37*
G54D22*
X39641Y-32703D02*
X39718Y-32607D01*
X40169Y-31759D01*
X39695Y-32234D01*
X39695Y-32495D01*
X39696Y-32506D01*
X39695Y-32506D01*
X39696Y-32507D01*
X39689Y-32571D01*
X39670Y-32633D01*
X39640Y-32690D01*
X39638Y-32691D01*
X39641Y-32703D01*
G54D10*
G36*
X35243Y-32591D02*
X35274Y-32546D01*
X35337Y-32485D01*
X35410Y-32437D01*
X35490Y-32404D01*
X35576Y-32388D01*
X35663Y-32388D01*
X35749Y-32406D01*
X35829Y-32439D01*
X35902Y-32488D01*
X35938Y-32524D01*
X36655Y-31807D01*
X36656Y-31806D01*
X36659Y-31803D01*
X36685Y-31781D01*
X36706Y-31765D01*
X36707Y-31764D01*
X36709Y-31763D01*
X36732Y-31750D01*
X36763Y-31735D01*
X36765Y-31734D01*
X36766Y-31734D01*
X36771Y-31732D01*
X36825Y-31716D01*
X36889Y-31710D01*
X36892Y-31710D01*
X37569Y-31710D01*
X37573Y-31710D01*
X37597Y-31712D01*
X37633Y-31716D01*
X37635Y-31716D01*
X37637Y-31717D01*
X37647Y-31720D01*
X37695Y-31735D01*
X37712Y-31744D01*
X37781Y-31676D01*
X35759Y-31676D01*
X35755Y-31676D01*
X35731Y-31673D01*
X35695Y-31670D01*
X35692Y-31669D01*
X35691Y-31669D01*
X35636Y-31650D01*
X35633Y-31650D01*
X35632Y-31649D01*
X35630Y-31649D01*
X35608Y-31637D01*
X35576Y-31620D01*
X35526Y-31579D01*
X35524Y-31577D01*
X35524Y-31577D01*
X35523Y-31576D01*
X34862Y-30915D01*
X34868Y-30974D01*
X34868Y-30977D01*
X34868Y-32283D01*
X34884Y-32300D01*
X34933Y-32373D01*
X34966Y-32453D01*
X34983Y-32539D01*
X34982Y-32591D01*
X35243Y-32591D01*
X35243Y-32591D01*
G37*
G54D22*
X35243Y-32591D02*
X35274Y-32546D01*
X35337Y-32485D01*
X35410Y-32437D01*
X35490Y-32404D01*
X35576Y-32388D01*
X35663Y-32388D01*
X35749Y-32406D01*
X35829Y-32439D01*
X35902Y-32488D01*
X35938Y-32524D01*
X36655Y-31807D01*
X36656Y-31806D01*
X36659Y-31803D01*
X36685Y-31781D01*
X36706Y-31765D01*
X36707Y-31764D01*
X36709Y-31763D01*
X36732Y-31750D01*
X36763Y-31735D01*
X36765Y-31734D01*
X36766Y-31734D01*
X36771Y-31732D01*
X36825Y-31716D01*
X36889Y-31710D01*
X36892Y-31710D01*
X37569Y-31710D01*
X37573Y-31710D01*
X37597Y-31712D01*
X37633Y-31716D01*
X37635Y-31716D01*
X37637Y-31717D01*
X37647Y-31720D01*
X37695Y-31735D01*
X37712Y-31744D01*
X37781Y-31676D01*
X35759Y-31676D01*
X35755Y-31676D01*
X35731Y-31673D01*
X35695Y-31670D01*
X35692Y-31669D01*
X35691Y-31669D01*
X35636Y-31650D01*
X35633Y-31650D01*
X35632Y-31649D01*
X35630Y-31649D01*
X35608Y-31637D01*
X35576Y-31620D01*
X35526Y-31579D01*
X35524Y-31577D01*
X35524Y-31577D01*
X35523Y-31576D01*
X34862Y-30915D01*
X34868Y-30974D01*
X34868Y-30977D01*
X34868Y-32283D01*
X34884Y-32300D01*
X34933Y-32373D01*
X34966Y-32453D01*
X34983Y-32539D01*
X34982Y-32591D01*
X35243Y-32591D01*
G54D10*
G36*
X34092Y-32591D02*
X34092Y-32587D01*
X34087Y-32591D01*
X34092Y-32591D01*
X34092Y-32591D01*
G37*
G54D22*
X34092Y-32591D02*
X34092Y-32587D01*
X34087Y-32591D01*
X34092Y-32591D01*
G54D10*
G36*
X33509Y-32591D02*
X33430Y-32536D01*
X33352Y-32455D01*
X33300Y-32374D01*
X33297Y-32382D01*
X33233Y-32473D01*
X33152Y-32550D01*
X33087Y-32591D01*
X33509Y-32591D01*
X33509Y-32591D01*
G37*
G54D22*
X33509Y-32591D02*
X33430Y-32536D01*
X33352Y-32455D01*
X33300Y-32374D01*
X33297Y-32382D01*
X33233Y-32473D01*
X33152Y-32550D01*
X33087Y-32591D01*
X33509Y-32591D01*
G54D10*
G36*
X31245Y-32234D02*
X31230Y-32148D01*
X31232Y-32036D01*
X31238Y-32005D01*
X30824Y-31591D01*
X30298Y-31591D01*
X30138Y-31750D01*
X30150Y-31753D01*
X30230Y-31786D01*
X30303Y-31835D01*
X30364Y-31897D01*
X30413Y-31970D01*
X30446Y-32050D01*
X30463Y-32136D01*
X30462Y-32158D01*
X30538Y-32234D01*
X31245Y-32234D01*
X31245Y-32234D01*
G37*
G54D22*
X31245Y-32234D02*
X31230Y-32148D01*
X31232Y-32036D01*
X31238Y-32005D01*
X30824Y-31591D01*
X30298Y-31591D01*
X30138Y-31750D01*
X30150Y-31753D01*
X30230Y-31786D01*
X30303Y-31835D01*
X30364Y-31897D01*
X30413Y-31970D01*
X30446Y-32050D01*
X30463Y-32136D01*
X30462Y-32158D01*
X30538Y-32234D01*
X31245Y-32234D01*
G54D10*
G36*
X39041Y-32030D02*
X39041Y-32030D01*
X39042Y-32029D01*
X39045Y-32018D01*
X39060Y-31971D01*
X39091Y-31914D01*
X39109Y-31892D01*
X39134Y-31862D01*
X39138Y-31858D01*
X39358Y-31638D01*
X38917Y-31638D01*
X38762Y-31792D01*
X38808Y-31811D01*
X38852Y-31841D01*
X39041Y-32030D01*
X39041Y-32030D01*
G37*
G54D22*
X39041Y-32030D02*
X39041Y-32030D01*
X39042Y-32029D01*
X39045Y-32018D01*
X39060Y-31971D01*
X39091Y-31914D01*
X39109Y-31892D01*
X39134Y-31862D01*
X39138Y-31858D01*
X39358Y-31638D01*
X38917Y-31638D01*
X38762Y-31792D01*
X38808Y-31811D01*
X38852Y-31841D01*
X39041Y-32030D01*
G54D10*
G36*
X34208Y-31703D02*
X34208Y-31496D01*
X34152Y-31550D01*
X34075Y-31599D01*
X34164Y-31659D01*
X34208Y-31703D01*
X34208Y-31703D01*
G37*
G54D22*
X34208Y-31703D02*
X34208Y-31496D01*
X34152Y-31550D01*
X34075Y-31599D01*
X34164Y-31659D01*
X34208Y-31703D01*
G54D10*
G36*
X29259Y-31697D02*
X29456Y-31500D01*
X29292Y-31500D01*
X29170Y-31622D01*
X29165Y-31628D01*
X29163Y-31629D01*
X29162Y-31631D01*
X29147Y-31643D01*
X29093Y-31697D01*
X29259Y-31697D01*
X29259Y-31697D01*
G37*
G54D22*
X29259Y-31697D02*
X29456Y-31500D01*
X29292Y-31500D01*
X29170Y-31622D01*
X29165Y-31628D01*
X29163Y-31629D01*
X29162Y-31631D01*
X29147Y-31643D01*
X29093Y-31697D01*
X29259Y-31697D01*
G54D10*
G36*
X27946Y-31613D02*
X28098Y-31461D01*
X28104Y-31455D01*
X28105Y-31453D01*
X28107Y-31452D01*
X28133Y-31430D01*
X28152Y-31415D01*
X28132Y-31384D01*
X28100Y-31303D01*
X28084Y-31217D01*
X28086Y-31130D01*
X28104Y-31044D01*
X28138Y-30964D01*
X28187Y-30892D01*
X28239Y-30841D01*
X28239Y-30794D01*
X27683Y-31350D01*
X27946Y-31613D01*
X27946Y-31613D01*
G37*
G54D22*
X27946Y-31613D02*
X28098Y-31461D01*
X28104Y-31455D01*
X28105Y-31453D01*
X28107Y-31452D01*
X28133Y-31430D01*
X28152Y-31415D01*
X28132Y-31384D01*
X28100Y-31303D01*
X28084Y-31217D01*
X28086Y-31130D01*
X28104Y-31044D01*
X28138Y-30964D01*
X28187Y-30892D01*
X28239Y-30841D01*
X28239Y-30794D01*
X27683Y-31350D01*
X27946Y-31613D01*
G54D10*
G36*
X37925Y-31016D02*
X38324Y-30617D01*
X38325Y-30616D01*
X38328Y-30613D01*
X38354Y-30591D01*
X38375Y-30575D01*
X38376Y-30574D01*
X38378Y-30573D01*
X38401Y-30560D01*
X38432Y-30545D01*
X38434Y-30544D01*
X38435Y-30544D01*
X38439Y-30542D01*
X38451Y-30539D01*
X38451Y-30526D01*
X38462Y-30474D01*
X38483Y-30426D01*
X38512Y-30382D01*
X38550Y-30344D01*
X38594Y-30315D01*
X38643Y-30295D01*
X38655Y-30292D01*
X38651Y-30271D01*
X38651Y-30260D01*
X38631Y-30254D01*
X38631Y-30254D01*
X38630Y-30253D01*
X38628Y-30253D01*
X38606Y-30241D01*
X38574Y-30224D01*
X38524Y-30183D01*
X38523Y-30182D01*
X38131Y-30182D01*
X38108Y-30204D01*
X38034Y-30251D01*
X37953Y-30283D01*
X37867Y-30298D01*
X37791Y-30296D01*
X37767Y-30342D01*
X37726Y-30392D01*
X37724Y-30393D01*
X37724Y-30394D01*
X37723Y-30394D01*
X37101Y-31016D01*
X37925Y-31016D01*
X37925Y-31016D01*
G37*
G54D22*
X37925Y-31016D02*
X38324Y-30617D01*
X38325Y-30616D01*
X38328Y-30613D01*
X38354Y-30591D01*
X38375Y-30575D01*
X38376Y-30574D01*
X38378Y-30573D01*
X38401Y-30560D01*
X38432Y-30545D01*
X38434Y-30544D01*
X38435Y-30544D01*
X38439Y-30542D01*
X38451Y-30539D01*
X38451Y-30526D01*
X38462Y-30474D01*
X38483Y-30426D01*
X38512Y-30382D01*
X38550Y-30344D01*
X38594Y-30315D01*
X38643Y-30295D01*
X38655Y-30292D01*
X38651Y-30271D01*
X38651Y-30260D01*
X38631Y-30254D01*
X38631Y-30254D01*
X38630Y-30253D01*
X38628Y-30253D01*
X38606Y-30241D01*
X38574Y-30224D01*
X38524Y-30183D01*
X38523Y-30182D01*
X38131Y-30182D01*
X38108Y-30204D01*
X38034Y-30251D01*
X37953Y-30283D01*
X37867Y-30298D01*
X37791Y-30296D01*
X37767Y-30342D01*
X37726Y-30392D01*
X37724Y-30393D01*
X37724Y-30394D01*
X37723Y-30394D01*
X37101Y-31016D01*
X37925Y-31016D01*
G54D10*
G36*
X30631Y-30931D02*
X30631Y-30361D01*
X30630Y-30363D01*
X30630Y-30365D01*
X30619Y-30397D01*
X30618Y-30413D01*
X30617Y-30415D01*
X30617Y-30417D01*
X30598Y-30471D01*
X30598Y-30475D01*
X30597Y-30475D01*
X30597Y-30478D01*
X30585Y-30499D01*
X30568Y-30532D01*
X30527Y-30582D01*
X30525Y-30583D01*
X30525Y-30584D01*
X30524Y-30584D01*
X30177Y-30931D01*
X30631Y-30931D01*
X30631Y-30931D01*
G37*
G54D22*
X30631Y-30931D02*
X30631Y-30361D01*
X30630Y-30363D01*
X30630Y-30365D01*
X30619Y-30397D01*
X30618Y-30413D01*
X30617Y-30415D01*
X30617Y-30417D01*
X30598Y-30471D01*
X30598Y-30475D01*
X30597Y-30475D01*
X30597Y-30478D01*
X30585Y-30499D01*
X30568Y-30532D01*
X30527Y-30582D01*
X30525Y-30583D01*
X30525Y-30584D01*
X30524Y-30584D01*
X30177Y-30931D01*
X30631Y-30931D01*
G54D10*
G36*
X27349Y-30751D02*
X27811Y-30288D01*
X27801Y-30263D01*
X27785Y-30177D01*
X27787Y-30090D01*
X27805Y-30004D01*
X27839Y-29924D01*
X27888Y-29852D01*
X27951Y-29791D01*
X28024Y-29743D01*
X28104Y-29710D01*
X28190Y-29694D01*
X28239Y-29694D01*
X28239Y-28592D01*
X28118Y-28712D01*
X28113Y-28719D01*
X28111Y-28720D01*
X28110Y-28722D01*
X28083Y-28743D01*
X28063Y-28760D01*
X28061Y-28760D01*
X28060Y-28762D01*
X28044Y-28769D01*
X28006Y-28790D01*
X27944Y-28809D01*
X27880Y-28815D01*
X27876Y-28815D01*
X27704Y-28815D01*
X27681Y-28837D01*
X27607Y-28884D01*
X27526Y-28916D01*
X27440Y-28931D01*
X27352Y-28929D01*
X27267Y-28910D01*
X27187Y-28876D01*
X27115Y-28826D01*
X27055Y-28763D01*
X27048Y-28752D01*
X26907Y-28893D01*
X26907Y-29198D01*
X26896Y-29250D01*
X26880Y-29286D01*
X26882Y-29288D01*
X26899Y-29309D01*
X26899Y-29310D01*
X26901Y-29312D01*
X26913Y-29335D01*
X26929Y-29366D01*
X26929Y-29368D01*
X26930Y-29369D01*
X26931Y-29374D01*
X26936Y-29391D01*
X26960Y-29396D01*
X27008Y-29417D01*
X27052Y-29446D01*
X27090Y-29484D01*
X27119Y-29528D01*
X27139Y-29577D01*
X27149Y-29629D01*
X27149Y-30274D01*
X27145Y-30292D01*
X27160Y-30296D01*
X27208Y-30317D01*
X27252Y-30346D01*
X27290Y-30384D01*
X27319Y-30428D01*
X27339Y-30477D01*
X27349Y-30529D01*
X27349Y-30751D01*
X27349Y-30751D01*
G37*
G54D22*
X27349Y-30751D02*
X27811Y-30288D01*
X27801Y-30263D01*
X27785Y-30177D01*
X27787Y-30090D01*
X27805Y-30004D01*
X27839Y-29924D01*
X27888Y-29852D01*
X27951Y-29791D01*
X28024Y-29743D01*
X28104Y-29710D01*
X28190Y-29694D01*
X28239Y-29694D01*
X28239Y-28592D01*
X28118Y-28712D01*
X28113Y-28719D01*
X28111Y-28720D01*
X28110Y-28722D01*
X28083Y-28743D01*
X28063Y-28760D01*
X28061Y-28760D01*
X28060Y-28762D01*
X28044Y-28769D01*
X28006Y-28790D01*
X27944Y-28809D01*
X27880Y-28815D01*
X27876Y-28815D01*
X27704Y-28815D01*
X27681Y-28837D01*
X27607Y-28884D01*
X27526Y-28916D01*
X27440Y-28931D01*
X27352Y-28929D01*
X27267Y-28910D01*
X27187Y-28876D01*
X27115Y-28826D01*
X27055Y-28763D01*
X27048Y-28752D01*
X26907Y-28893D01*
X26907Y-29198D01*
X26896Y-29250D01*
X26880Y-29286D01*
X26882Y-29288D01*
X26899Y-29309D01*
X26899Y-29310D01*
X26901Y-29312D01*
X26913Y-29335D01*
X26929Y-29366D01*
X26929Y-29368D01*
X26930Y-29369D01*
X26931Y-29374D01*
X26936Y-29391D01*
X26960Y-29396D01*
X27008Y-29417D01*
X27052Y-29446D01*
X27090Y-29484D01*
X27119Y-29528D01*
X27139Y-29577D01*
X27149Y-29629D01*
X27149Y-30274D01*
X27145Y-30292D01*
X27160Y-30296D01*
X27208Y-30317D01*
X27252Y-30346D01*
X27290Y-30384D01*
X27319Y-30428D01*
X27339Y-30477D01*
X27349Y-30529D01*
X27349Y-30751D01*
G54D10*
G36*
X33164Y-30524D02*
X33200Y-30488D01*
X33200Y-30451D01*
X33195Y-30468D01*
X33164Y-30524D01*
X33164Y-30524D01*
G37*
G54D22*
X33164Y-30524D02*
X33200Y-30488D01*
X33200Y-30451D01*
X33195Y-30468D01*
X33164Y-30524D01*
G54D10*
G36*
X40771Y-30201D02*
X40795Y-30119D01*
X40771Y-30144D01*
X40771Y-30201D01*
X40771Y-30201D01*
G37*
G54D22*
X40771Y-30201D02*
X40795Y-30119D01*
X40771Y-30144D01*
X40771Y-30201D01*
G54D10*
G36*
X36754Y-30100D02*
X36754Y-29699D01*
X36714Y-29757D01*
X36636Y-29831D01*
X36546Y-29888D01*
X36515Y-29900D01*
X36560Y-29919D01*
X36649Y-29979D01*
X36724Y-30055D01*
X36754Y-30100D01*
X36754Y-30100D01*
G37*
G54D22*
X36754Y-30100D02*
X36754Y-29699D01*
X36714Y-29757D01*
X36636Y-29831D01*
X36546Y-29888D01*
X36515Y-29900D01*
X36560Y-29919D01*
X36649Y-29979D01*
X36724Y-30055D01*
X36754Y-30100D01*
G54D10*
G36*
X30631Y-29950D02*
X30631Y-29664D01*
X30631Y-29660D01*
X30633Y-29635D01*
X30637Y-29600D01*
X30637Y-29597D01*
X30638Y-29596D01*
X30641Y-29585D01*
X30656Y-29538D01*
X30687Y-29481D01*
X30705Y-29459D01*
X30730Y-29429D01*
X30734Y-29425D01*
X30858Y-29301D01*
X30628Y-29301D01*
X30628Y-29940D01*
X30631Y-29950D01*
X30631Y-29950D01*
G37*
G54D22*
X30631Y-29950D02*
X30631Y-29664D01*
X30631Y-29660D01*
X30633Y-29635D01*
X30637Y-29600D01*
X30637Y-29597D01*
X30638Y-29596D01*
X30641Y-29585D01*
X30656Y-29538D01*
X30687Y-29481D01*
X30705Y-29459D01*
X30730Y-29429D01*
X30734Y-29425D01*
X30858Y-29301D01*
X30628Y-29301D01*
X30628Y-29940D01*
X30631Y-29950D01*
G54D10*
G36*
X29579Y-29935D02*
X29626Y-29868D01*
X29689Y-29807D01*
X29762Y-29759D01*
X29842Y-29726D01*
X29928Y-29710D01*
X29968Y-29710D01*
X29968Y-28941D01*
X29968Y-28938D01*
X29971Y-28908D01*
X29960Y-28902D01*
X29938Y-28884D01*
X29908Y-28859D01*
X29903Y-28853D01*
X29749Y-28699D01*
X29709Y-28757D01*
X29631Y-28831D01*
X29541Y-28888D01*
X29510Y-28900D01*
X29555Y-28919D01*
X29644Y-28979D01*
X29719Y-29055D01*
X29778Y-29144D01*
X29818Y-29242D01*
X29839Y-29347D01*
X29837Y-29469D01*
X29814Y-29573D01*
X29770Y-29670D01*
X29709Y-29757D01*
X29631Y-29831D01*
X29541Y-29888D01*
X29510Y-29900D01*
X29555Y-29919D01*
X29579Y-29935D01*
X29579Y-29935D01*
G37*
G54D22*
X29579Y-29935D02*
X29626Y-29868D01*
X29689Y-29807D01*
X29762Y-29759D01*
X29842Y-29726D01*
X29928Y-29710D01*
X29968Y-29710D01*
X29968Y-28941D01*
X29968Y-28938D01*
X29971Y-28908D01*
X29960Y-28902D01*
X29938Y-28884D01*
X29908Y-28859D01*
X29903Y-28853D01*
X29749Y-28699D01*
X29709Y-28757D01*
X29631Y-28831D01*
X29541Y-28888D01*
X29510Y-28900D01*
X29555Y-28919D01*
X29644Y-28979D01*
X29719Y-29055D01*
X29778Y-29144D01*
X29818Y-29242D01*
X29839Y-29347D01*
X29837Y-29469D01*
X29814Y-29573D01*
X29770Y-29670D01*
X29709Y-29757D01*
X29631Y-29831D01*
X29541Y-29888D01*
X29510Y-29900D01*
X29555Y-29919D01*
X29579Y-29935D01*
G54D10*
G36*
X40429Y-29553D02*
X40533Y-29449D01*
X40374Y-29449D01*
X40348Y-29443D01*
X40352Y-29446D01*
X40390Y-29484D01*
X40419Y-29528D01*
X40429Y-29553D01*
X40429Y-29553D01*
G37*
G54D22*
X40429Y-29553D02*
X40533Y-29449D01*
X40374Y-29449D01*
X40348Y-29443D01*
X40352Y-29446D01*
X40390Y-29484D01*
X40419Y-29528D01*
X40429Y-29553D01*
G54D10*
G36*
X38617Y-29522D02*
X38425Y-29329D01*
X38394Y-29329D01*
X38309Y-29310D01*
X38229Y-29276D01*
X38157Y-29226D01*
X38097Y-29163D01*
X38096Y-29162D01*
X37851Y-29407D01*
X37878Y-29407D01*
X37964Y-29425D01*
X38044Y-29458D01*
X38117Y-29507D01*
X38131Y-29522D01*
X38617Y-29522D01*
X38617Y-29522D01*
G37*
G54D22*
X38617Y-29522D02*
X38425Y-29329D01*
X38394Y-29329D01*
X38309Y-29310D01*
X38229Y-29276D01*
X38157Y-29226D01*
X38097Y-29163D01*
X38096Y-29162D01*
X37851Y-29407D01*
X37878Y-29407D01*
X37964Y-29425D01*
X38044Y-29458D01*
X38117Y-29507D01*
X38131Y-29522D01*
X38617Y-29522D01*
G54D10*
G36*
X35756Y-29390D02*
X35757Y-29339D01*
X35759Y-29326D01*
X35507Y-29073D01*
X35507Y-29141D01*
X35756Y-29390D01*
X35756Y-29390D01*
G37*
G54D22*
X35756Y-29390D02*
X35757Y-29339D01*
X35759Y-29326D01*
X35507Y-29073D01*
X35507Y-29141D01*
X35756Y-29390D01*
G54D10*
G36*
X36754Y-29100D02*
X36754Y-28699D01*
X36714Y-28757D01*
X36636Y-28831D01*
X36546Y-28888D01*
X36515Y-28900D01*
X36560Y-28919D01*
X36649Y-28979D01*
X36724Y-29055D01*
X36754Y-29100D01*
X36754Y-29100D01*
G37*
G54D22*
X36754Y-29100D02*
X36754Y-28699D01*
X36714Y-28757D01*
X36636Y-28831D01*
X36546Y-28888D01*
X36515Y-28900D01*
X36560Y-28919D01*
X36649Y-28979D01*
X36724Y-29055D01*
X36754Y-29100D01*
G54D10*
G36*
X37414Y-28911D02*
X38132Y-28193D01*
X38132Y-28192D01*
X38133Y-28192D01*
X38183Y-28151D01*
X38184Y-28150D01*
X38186Y-28149D01*
X38209Y-28136D01*
X38240Y-28121D01*
X38242Y-28120D01*
X38243Y-28120D01*
X38245Y-28119D01*
X38302Y-28102D01*
X38366Y-28096D01*
X38369Y-28096D01*
X39320Y-28096D01*
X39322Y-28096D01*
X39325Y-28096D01*
X39722Y-28096D01*
X39726Y-28096D01*
X39750Y-28098D01*
X39786Y-28102D01*
X39788Y-28102D01*
X39790Y-28103D01*
X39800Y-28106D01*
X39835Y-28117D01*
X39850Y-28113D01*
X39886Y-28102D01*
X39950Y-28096D01*
X39952Y-28096D01*
X40582Y-28096D01*
X40585Y-28096D01*
X40590Y-28096D01*
X40590Y-27851D01*
X40352Y-27613D01*
X40346Y-27608D01*
X40344Y-27606D01*
X40343Y-27605D01*
X40321Y-27578D01*
X40305Y-27558D01*
X40304Y-27556D01*
X40303Y-27555D01*
X40295Y-27539D01*
X40275Y-27501D01*
X40258Y-27447D01*
X40254Y-27451D01*
X40205Y-27471D01*
X40153Y-27481D01*
X39744Y-27481D01*
X39692Y-27470D01*
X39644Y-27449D01*
X39641Y-27447D01*
X39628Y-27486D01*
X39624Y-27503D01*
X39623Y-27504D01*
X39623Y-27505D01*
X39621Y-27506D01*
X39594Y-27560D01*
X39553Y-27609D01*
X39551Y-27609D01*
X39551Y-27611D01*
X39532Y-27625D01*
X39503Y-27650D01*
X39446Y-27680D01*
X39445Y-27680D01*
X39444Y-27681D01*
X39420Y-27687D01*
X39384Y-27699D01*
X39320Y-27705D01*
X39318Y-27705D01*
X38746Y-27705D01*
X38723Y-27727D01*
X38649Y-27774D01*
X38568Y-27806D01*
X38482Y-27821D01*
X38394Y-27819D01*
X38309Y-27800D01*
X38229Y-27766D01*
X38157Y-27716D01*
X38097Y-27653D01*
X38049Y-27580D01*
X38017Y-27499D01*
X38001Y-27413D01*
X38003Y-27326D01*
X38021Y-27240D01*
X38055Y-27160D01*
X38104Y-27088D01*
X38167Y-27027D01*
X38240Y-26979D01*
X38320Y-26946D01*
X38406Y-26930D01*
X38493Y-26930D01*
X38579Y-26948D01*
X38659Y-26981D01*
X38732Y-27030D01*
X38746Y-27045D01*
X38873Y-27045D01*
X38873Y-26592D01*
X38884Y-26540D01*
X38899Y-26503D01*
X37414Y-25018D01*
X37414Y-28911D01*
X37414Y-28911D01*
G37*
G54D22*
X37414Y-28911D02*
X38132Y-28193D01*
X38132Y-28192D01*
X38133Y-28192D01*
X38183Y-28151D01*
X38184Y-28150D01*
X38186Y-28149D01*
X38209Y-28136D01*
X38240Y-28121D01*
X38242Y-28120D01*
X38243Y-28120D01*
X38245Y-28119D01*
X38302Y-28102D01*
X38366Y-28096D01*
X38369Y-28096D01*
X39320Y-28096D01*
X39322Y-28096D01*
X39325Y-28096D01*
X39722Y-28096D01*
X39726Y-28096D01*
X39750Y-28098D01*
X39786Y-28102D01*
X39788Y-28102D01*
X39790Y-28103D01*
X39800Y-28106D01*
X39835Y-28117D01*
X39850Y-28113D01*
X39886Y-28102D01*
X39950Y-28096D01*
X39952Y-28096D01*
X40582Y-28096D01*
X40585Y-28096D01*
X40590Y-28096D01*
X40590Y-27851D01*
X40352Y-27613D01*
X40346Y-27608D01*
X40344Y-27606D01*
X40343Y-27605D01*
X40321Y-27578D01*
X40305Y-27558D01*
X40304Y-27556D01*
X40303Y-27555D01*
X40295Y-27539D01*
X40275Y-27501D01*
X40258Y-27447D01*
X40254Y-27451D01*
X40205Y-27471D01*
X40153Y-27481D01*
X39744Y-27481D01*
X39692Y-27470D01*
X39644Y-27449D01*
X39641Y-27447D01*
X39628Y-27486D01*
X39624Y-27503D01*
X39623Y-27504D01*
X39623Y-27505D01*
X39621Y-27506D01*
X39594Y-27560D01*
X39553Y-27609D01*
X39551Y-27609D01*
X39551Y-27611D01*
X39532Y-27625D01*
X39503Y-27650D01*
X39446Y-27680D01*
X39445Y-27680D01*
X39444Y-27681D01*
X39420Y-27687D01*
X39384Y-27699D01*
X39320Y-27705D01*
X39318Y-27705D01*
X38746Y-27705D01*
X38723Y-27727D01*
X38649Y-27774D01*
X38568Y-27806D01*
X38482Y-27821D01*
X38394Y-27819D01*
X38309Y-27800D01*
X38229Y-27766D01*
X38157Y-27716D01*
X38097Y-27653D01*
X38049Y-27580D01*
X38017Y-27499D01*
X38001Y-27413D01*
X38003Y-27326D01*
X38021Y-27240D01*
X38055Y-27160D01*
X38104Y-27088D01*
X38167Y-27027D01*
X38240Y-26979D01*
X38320Y-26946D01*
X38406Y-26930D01*
X38493Y-26930D01*
X38579Y-26948D01*
X38659Y-26981D01*
X38732Y-27030D01*
X38746Y-27045D01*
X38873Y-27045D01*
X38873Y-26592D01*
X38884Y-26540D01*
X38899Y-26503D01*
X37414Y-25018D01*
X37414Y-28911D01*
G54D10*
G36*
X35756Y-28389D02*
X35757Y-28339D01*
X35759Y-28326D01*
X35730Y-28296D01*
X35730Y-28363D01*
X35756Y-28389D01*
X35756Y-28389D01*
G37*
G54D22*
X35756Y-28389D02*
X35757Y-28339D01*
X35759Y-28326D01*
X35730Y-28296D01*
X35730Y-28363D01*
X35756Y-28389D01*
G54D10*
G36*
X33957Y-28300D02*
X33957Y-28253D01*
X33910Y-28300D01*
X33957Y-28300D01*
X33957Y-28300D01*
G37*
G54D22*
X33957Y-28300D02*
X33957Y-28253D01*
X33910Y-28300D01*
X33957Y-28300D01*
G54D10*
G36*
X36754Y-28100D02*
X36754Y-27699D01*
X36714Y-27757D01*
X36636Y-27831D01*
X36546Y-27888D01*
X36515Y-27900D01*
X36560Y-27919D01*
X36649Y-27979D01*
X36724Y-28055D01*
X36754Y-28100D01*
X36754Y-28100D01*
G37*
G54D22*
X36754Y-28100D02*
X36754Y-27699D01*
X36714Y-27757D01*
X36636Y-27831D01*
X36546Y-27888D01*
X36515Y-27900D01*
X36560Y-27919D01*
X36649Y-27979D01*
X36724Y-28055D01*
X36754Y-28100D01*
G54D10*
G36*
X24605Y-28080D02*
X24628Y-28052D01*
X24632Y-28048D01*
X25032Y-27647D01*
X25015Y-27638D01*
X24966Y-27597D01*
X24965Y-27595D01*
X24964Y-27595D01*
X24949Y-27577D01*
X24925Y-27547D01*
X24895Y-27490D01*
X24894Y-27489D01*
X24894Y-27488D01*
X24887Y-27464D01*
X24876Y-27428D01*
X24875Y-27427D01*
X24850Y-27410D01*
X24812Y-27372D01*
X24783Y-27328D01*
X24763Y-27279D01*
X24753Y-27227D01*
X24753Y-26582D01*
X24764Y-26530D01*
X24785Y-26482D01*
X24814Y-26438D01*
X24852Y-26400D01*
X24896Y-26371D01*
X24945Y-26351D01*
X24997Y-26341D01*
X25406Y-26341D01*
X25458Y-26352D01*
X25506Y-26373D01*
X25514Y-26378D01*
X25526Y-26371D01*
X25575Y-26351D01*
X25627Y-26341D01*
X26036Y-26341D01*
X26088Y-26352D01*
X26136Y-26373D01*
X26138Y-26374D01*
X26151Y-26335D01*
X26156Y-26319D01*
X26156Y-26317D01*
X26157Y-26317D01*
X26158Y-26315D01*
X26186Y-26262D01*
X26227Y-26213D01*
X26228Y-26212D01*
X26229Y-26211D01*
X26247Y-26196D01*
X26264Y-26181D01*
X26295Y-26111D01*
X26344Y-26039D01*
X26379Y-26005D01*
X26232Y-25858D01*
X26226Y-25853D01*
X26224Y-25851D01*
X26223Y-25850D01*
X26201Y-25823D01*
X26185Y-25803D01*
X26184Y-25801D01*
X26183Y-25800D01*
X26175Y-25784D01*
X26155Y-25746D01*
X26136Y-25684D01*
X26130Y-25620D01*
X26130Y-25616D01*
X26130Y-25273D01*
X26110Y-25252D01*
X26062Y-25179D01*
X26030Y-25098D01*
X26014Y-25012D01*
X26016Y-24925D01*
X26034Y-24839D01*
X26068Y-24759D01*
X26117Y-24687D01*
X26180Y-24626D01*
X26253Y-24578D01*
X26333Y-24545D01*
X26419Y-24529D01*
X26475Y-24529D01*
X26475Y-24209D01*
X26472Y-24200D01*
X26466Y-24136D01*
X26466Y-24132D01*
X26466Y-23942D01*
X26291Y-23767D01*
X26290Y-23766D01*
X26290Y-23766D01*
X26250Y-23716D01*
X26249Y-23714D01*
X26248Y-23713D01*
X26221Y-23660D01*
X26220Y-23658D01*
X26219Y-23657D01*
X26219Y-23656D01*
X26216Y-23646D01*
X26200Y-23597D01*
X26195Y-23533D01*
X26195Y-23531D01*
X26195Y-23530D01*
X26196Y-23512D01*
X26201Y-23469D01*
X26220Y-23407D01*
X26220Y-23405D01*
X26221Y-23405D01*
X26251Y-23349D01*
X26245Y-23319D01*
X26245Y-23265D01*
X26256Y-23214D01*
X26276Y-23165D01*
X26306Y-23121D01*
X26762Y-22665D01*
X26807Y-22636D01*
X26855Y-22617D01*
X26907Y-22606D01*
X26961Y-22606D01*
X26989Y-22612D01*
X26994Y-22608D01*
X27035Y-22586D01*
X27050Y-22579D01*
X27112Y-22560D01*
X27175Y-22555D01*
X27176Y-22555D01*
X27177Y-22555D01*
X27187Y-22556D01*
X27240Y-22561D01*
X27301Y-22580D01*
X27358Y-22611D01*
X27408Y-22652D01*
X27530Y-22775D01*
X28089Y-22775D01*
X28042Y-22735D01*
X28040Y-22733D01*
X28040Y-22733D01*
X28039Y-22732D01*
X27683Y-22375D01*
X27682Y-22374D01*
X27682Y-22374D01*
X27642Y-22324D01*
X27641Y-22322D01*
X27640Y-22321D01*
X27613Y-22268D01*
X27612Y-22266D01*
X27611Y-22265D01*
X27611Y-22264D01*
X27608Y-22254D01*
X27592Y-22205D01*
X27587Y-22141D01*
X27587Y-22139D01*
X27587Y-22138D01*
X27588Y-22119D01*
X27593Y-22077D01*
X27612Y-22015D01*
X27612Y-22013D01*
X27613Y-22013D01*
X27642Y-21958D01*
X27636Y-21928D01*
X27636Y-21874D01*
X27647Y-21823D01*
X27667Y-21774D01*
X27697Y-21730D01*
X28069Y-21357D01*
X26998Y-22243D01*
X25982Y-23488D01*
X25227Y-24908D01*
X24763Y-26447D01*
X24605Y-28064D01*
X24605Y-28080D01*
X24605Y-28080D01*
G37*
G54D22*
X24605Y-28080D02*
X24628Y-28052D01*
X24632Y-28048D01*
X25032Y-27647D01*
X25015Y-27638D01*
X24966Y-27597D01*
X24965Y-27595D01*
X24964Y-27595D01*
X24949Y-27577D01*
X24925Y-27547D01*
X24895Y-27490D01*
X24894Y-27489D01*
X24894Y-27488D01*
X24887Y-27464D01*
X24876Y-27428D01*
X24875Y-27427D01*
X24850Y-27410D01*
X24812Y-27372D01*
X24783Y-27328D01*
X24763Y-27279D01*
X24753Y-27227D01*
X24753Y-26582D01*
X24764Y-26530D01*
X24785Y-26482D01*
X24814Y-26438D01*
X24852Y-26400D01*
X24896Y-26371D01*
X24945Y-26351D01*
X24997Y-26341D01*
X25406Y-26341D01*
X25458Y-26352D01*
X25506Y-26373D01*
X25514Y-26378D01*
X25526Y-26371D01*
X25575Y-26351D01*
X25627Y-26341D01*
X26036Y-26341D01*
X26088Y-26352D01*
X26136Y-26373D01*
X26138Y-26374D01*
X26151Y-26335D01*
X26156Y-26319D01*
X26156Y-26317D01*
X26157Y-26317D01*
X26158Y-26315D01*
X26186Y-26262D01*
X26227Y-26213D01*
X26228Y-26212D01*
X26229Y-26211D01*
X26247Y-26196D01*
X26264Y-26181D01*
X26295Y-26111D01*
X26344Y-26039D01*
X26379Y-26005D01*
X26232Y-25858D01*
X26226Y-25853D01*
X26224Y-25851D01*
X26223Y-25850D01*
X26201Y-25823D01*
X26185Y-25803D01*
X26184Y-25801D01*
X26183Y-25800D01*
X26175Y-25784D01*
X26155Y-25746D01*
X26136Y-25684D01*
X26130Y-25620D01*
X26130Y-25616D01*
X26130Y-25273D01*
X26110Y-25252D01*
X26062Y-25179D01*
X26030Y-25098D01*
X26014Y-25012D01*
X26016Y-24925D01*
X26034Y-24839D01*
X26068Y-24759D01*
X26117Y-24687D01*
X26180Y-24626D01*
X26253Y-24578D01*
X26333Y-24545D01*
X26419Y-24529D01*
X26475Y-24529D01*
X26475Y-24209D01*
X26472Y-24200D01*
X26466Y-24136D01*
X26466Y-24132D01*
X26466Y-23942D01*
X26291Y-23767D01*
X26290Y-23766D01*
X26290Y-23766D01*
X26250Y-23716D01*
X26249Y-23714D01*
X26248Y-23713D01*
X26221Y-23660D01*
X26220Y-23658D01*
X26219Y-23657D01*
X26219Y-23656D01*
X26216Y-23646D01*
X26200Y-23597D01*
X26195Y-23533D01*
X26195Y-23531D01*
X26195Y-23530D01*
X26196Y-23512D01*
X26201Y-23469D01*
X26220Y-23407D01*
X26220Y-23405D01*
X26221Y-23405D01*
X26251Y-23349D01*
X26245Y-23319D01*
X26245Y-23265D01*
X26256Y-23214D01*
X26276Y-23165D01*
X26306Y-23121D01*
X26762Y-22665D01*
X26807Y-22636D01*
X26855Y-22617D01*
X26907Y-22606D01*
X26961Y-22606D01*
X26989Y-22612D01*
X26994Y-22608D01*
X27035Y-22586D01*
X27050Y-22579D01*
X27112Y-22560D01*
X27175Y-22555D01*
X27176Y-22555D01*
X27177Y-22555D01*
X27187Y-22556D01*
X27240Y-22561D01*
X27301Y-22580D01*
X27358Y-22611D01*
X27408Y-22652D01*
X27530Y-22775D01*
X28089Y-22775D01*
X28042Y-22735D01*
X28040Y-22733D01*
X28040Y-22733D01*
X28039Y-22732D01*
X27683Y-22375D01*
X27682Y-22374D01*
X27682Y-22374D01*
X27642Y-22324D01*
X27641Y-22322D01*
X27640Y-22321D01*
X27613Y-22268D01*
X27612Y-22266D01*
X27611Y-22265D01*
X27611Y-22264D01*
X27608Y-22254D01*
X27592Y-22205D01*
X27587Y-22141D01*
X27587Y-22139D01*
X27587Y-22138D01*
X27588Y-22119D01*
X27593Y-22077D01*
X27612Y-22015D01*
X27612Y-22013D01*
X27613Y-22013D01*
X27642Y-21958D01*
X27636Y-21928D01*
X27636Y-21874D01*
X27647Y-21823D01*
X27667Y-21774D01*
X27697Y-21730D01*
X28069Y-21357D01*
X26998Y-22243D01*
X25982Y-23488D01*
X25227Y-24908D01*
X24763Y-26447D01*
X24605Y-28064D01*
X24605Y-28080D01*
G54D10*
G36*
X29529Y-27908D02*
X29529Y-27892D01*
X29510Y-27900D01*
X29529Y-27908D01*
X29529Y-27908D01*
G37*
G54D22*
X29529Y-27908D02*
X29529Y-27892D01*
X29510Y-27900D01*
X29529Y-27908D01*
G54D10*
G36*
X33493Y-27784D02*
X33830Y-27447D01*
X33830Y-27446D01*
X33831Y-27446D01*
X33881Y-27405D01*
X33882Y-27404D01*
X33884Y-27403D01*
X33908Y-27390D01*
X33938Y-27375D01*
X33940Y-27374D01*
X33941Y-27374D01*
X33943Y-27373D01*
X33957Y-27369D01*
X33957Y-27253D01*
X33965Y-27210D01*
X33957Y-27164D01*
X33957Y-26933D01*
X33964Y-26895D01*
X33957Y-26854D01*
X33957Y-26836D01*
X33840Y-26836D01*
X33837Y-26836D01*
X33773Y-26829D01*
X33730Y-26814D01*
X33714Y-26810D01*
X33712Y-26809D01*
X33712Y-26809D01*
X33710Y-26807D01*
X33657Y-26780D01*
X33608Y-26739D01*
X33607Y-26737D01*
X33606Y-26737D01*
X33591Y-26718D01*
X33567Y-26689D01*
X33537Y-26632D01*
X33536Y-26631D01*
X33536Y-26630D01*
X33531Y-26613D01*
X33411Y-26613D01*
X33370Y-26604D01*
X33326Y-26613D01*
X33095Y-26613D01*
X33055Y-26604D01*
X33012Y-26613D01*
X32893Y-26613D01*
X32893Y-27476D01*
X32909Y-27493D01*
X32958Y-27566D01*
X32991Y-27646D01*
X33008Y-27732D01*
X33007Y-27784D01*
X33493Y-27784D01*
X33493Y-27784D01*
G37*
G54D22*
X33493Y-27784D02*
X33830Y-27447D01*
X33830Y-27446D01*
X33831Y-27446D01*
X33881Y-27405D01*
X33882Y-27404D01*
X33884Y-27403D01*
X33908Y-27390D01*
X33938Y-27375D01*
X33940Y-27374D01*
X33941Y-27374D01*
X33943Y-27373D01*
X33957Y-27369D01*
X33957Y-27253D01*
X33965Y-27210D01*
X33957Y-27164D01*
X33957Y-26933D01*
X33964Y-26895D01*
X33957Y-26854D01*
X33957Y-26836D01*
X33840Y-26836D01*
X33837Y-26836D01*
X33773Y-26829D01*
X33730Y-26814D01*
X33714Y-26810D01*
X33712Y-26809D01*
X33712Y-26809D01*
X33710Y-26807D01*
X33657Y-26780D01*
X33608Y-26739D01*
X33607Y-26737D01*
X33606Y-26737D01*
X33591Y-26718D01*
X33567Y-26689D01*
X33537Y-26632D01*
X33536Y-26631D01*
X33536Y-26630D01*
X33531Y-26613D01*
X33411Y-26613D01*
X33370Y-26604D01*
X33326Y-26613D01*
X33095Y-26613D01*
X33055Y-26604D01*
X33012Y-26613D01*
X32893Y-26613D01*
X32893Y-27476D01*
X32909Y-27493D01*
X32958Y-27566D01*
X32991Y-27646D01*
X33008Y-27732D01*
X33007Y-27784D01*
X33493Y-27784D01*
G54D10*
G36*
X32117Y-27784D02*
X32119Y-27727D01*
X32137Y-27641D01*
X32171Y-27561D01*
X32220Y-27489D01*
X32233Y-27476D01*
X32233Y-27260D01*
X32214Y-27279D01*
X32140Y-27326D01*
X32059Y-27358D01*
X31973Y-27373D01*
X31885Y-27371D01*
X31876Y-27369D01*
X31741Y-27504D01*
X31741Y-27784D01*
X32117Y-27784D01*
X32117Y-27784D01*
G37*
G54D22*
X32117Y-27784D02*
X32119Y-27727D01*
X32137Y-27641D01*
X32171Y-27561D01*
X32220Y-27489D01*
X32233Y-27476D01*
X32233Y-27260D01*
X32214Y-27279D01*
X32140Y-27326D01*
X32059Y-27358D01*
X31973Y-27373D01*
X31885Y-27371D01*
X31876Y-27369D01*
X31741Y-27504D01*
X31741Y-27784D01*
X32117Y-27784D01*
G54D10*
G36*
X41026Y-27354D02*
X41018Y-27281D01*
X41016Y-27292D01*
X41000Y-27328D01*
X41026Y-27354D01*
X41026Y-27354D01*
G37*
G54D22*
X41026Y-27354D02*
X41018Y-27281D01*
X41016Y-27292D01*
X41000Y-27328D01*
X41026Y-27354D01*
G54D10*
G36*
X36754Y-27100D02*
X36754Y-26699D01*
X36714Y-26757D01*
X36636Y-26831D01*
X36546Y-26888D01*
X36515Y-26900D01*
X36560Y-26919D01*
X36649Y-26979D01*
X36724Y-27055D01*
X36754Y-27100D01*
X36754Y-27100D01*
G37*
G54D22*
X36754Y-27100D02*
X36754Y-26699D01*
X36714Y-26757D01*
X36636Y-26831D01*
X36546Y-26888D01*
X36515Y-26900D01*
X36560Y-26919D01*
X36649Y-26979D01*
X36724Y-27055D01*
X36754Y-27100D01*
G54D10*
G36*
X30192Y-26611D02*
X30202Y-26569D01*
X30223Y-26521D01*
X30252Y-26477D01*
X30290Y-26439D01*
X30334Y-26410D01*
X30383Y-26390D01*
X30435Y-26380D01*
X30588Y-26380D01*
X30590Y-26321D01*
X30598Y-26280D01*
X29825Y-26280D01*
X29839Y-26347D01*
X29837Y-26469D01*
X29814Y-26573D01*
X29797Y-26610D01*
X30173Y-26610D01*
X30177Y-26610D01*
X30192Y-26611D01*
X30192Y-26611D01*
G37*
G54D22*
X30192Y-26611D02*
X30202Y-26569D01*
X30223Y-26521D01*
X30252Y-26477D01*
X30290Y-26439D01*
X30334Y-26410D01*
X30383Y-26390D01*
X30435Y-26380D01*
X30588Y-26380D01*
X30590Y-26321D01*
X30598Y-26280D01*
X29825Y-26280D01*
X29839Y-26347D01*
X29837Y-26469D01*
X29814Y-26573D01*
X29797Y-26610D01*
X30173Y-26610D01*
X30177Y-26610D01*
X30192Y-26611D01*
G54D10*
G36*
X40926Y-26409D02*
X40923Y-26386D01*
X40449Y-24856D01*
X39687Y-23444D01*
X39585Y-23320D01*
X39585Y-23332D01*
X39574Y-23383D01*
X39554Y-23432D01*
X39524Y-23476D01*
X39235Y-23765D01*
X39190Y-23794D01*
X39142Y-23813D01*
X39131Y-23815D01*
X39129Y-23829D01*
X39109Y-23878D01*
X39079Y-23922D01*
X38790Y-24211D01*
X38745Y-24240D01*
X38697Y-24259D01*
X38696Y-24259D01*
X40071Y-25634D01*
X40096Y-25634D01*
X40182Y-25652D01*
X40262Y-25685D01*
X40335Y-25734D01*
X40396Y-25796D01*
X40445Y-25869D01*
X40478Y-25949D01*
X40495Y-26035D01*
X40494Y-26114D01*
X40547Y-26114D01*
X40551Y-26114D01*
X40574Y-26116D01*
X40611Y-26120D01*
X40613Y-26120D01*
X40615Y-26121D01*
X40625Y-26124D01*
X40673Y-26139D01*
X40690Y-26148D01*
X40691Y-26149D01*
X40708Y-26154D01*
X40709Y-26154D01*
X40710Y-26155D01*
X40711Y-26156D01*
X40765Y-26184D01*
X40814Y-26225D01*
X40814Y-26226D01*
X40816Y-26227D01*
X40830Y-26245D01*
X40855Y-26275D01*
X40885Y-26332D01*
X40885Y-26332D01*
X40886Y-26334D01*
X40892Y-26358D01*
X40904Y-26394D01*
X40904Y-26394D01*
X40926Y-26409D01*
X40926Y-26409D01*
G37*
G54D22*
X40926Y-26409D02*
X40923Y-26386D01*
X40449Y-24856D01*
X39687Y-23444D01*
X39585Y-23320D01*
X39585Y-23332D01*
X39574Y-23383D01*
X39554Y-23432D01*
X39524Y-23476D01*
X39235Y-23765D01*
X39190Y-23794D01*
X39142Y-23813D01*
X39131Y-23815D01*
X39129Y-23829D01*
X39109Y-23878D01*
X39079Y-23922D01*
X38790Y-24211D01*
X38745Y-24240D01*
X38697Y-24259D01*
X38696Y-24259D01*
X40071Y-25634D01*
X40096Y-25634D01*
X40182Y-25652D01*
X40262Y-25685D01*
X40335Y-25734D01*
X40396Y-25796D01*
X40445Y-25869D01*
X40478Y-25949D01*
X40495Y-26035D01*
X40494Y-26114D01*
X40547Y-26114D01*
X40551Y-26114D01*
X40574Y-26116D01*
X40611Y-26120D01*
X40613Y-26120D01*
X40615Y-26121D01*
X40625Y-26124D01*
X40673Y-26139D01*
X40690Y-26148D01*
X40691Y-26149D01*
X40708Y-26154D01*
X40709Y-26154D01*
X40710Y-26155D01*
X40711Y-26156D01*
X40765Y-26184D01*
X40814Y-26225D01*
X40814Y-26226D01*
X40816Y-26227D01*
X40830Y-26245D01*
X40855Y-26275D01*
X40885Y-26332D01*
X40885Y-26332D01*
X40886Y-26334D01*
X40892Y-26358D01*
X40904Y-26394D01*
X40904Y-26394D01*
X40926Y-26409D01*
G54D10*
G36*
X34686Y-26142D02*
X34267Y-25723D01*
X34200Y-25723D01*
X34200Y-26142D01*
X34686Y-26142D01*
X34686Y-26142D01*
G37*
G54D22*
X34686Y-26142D02*
X34267Y-25723D01*
X34200Y-25723D01*
X34200Y-26142D01*
X34686Y-26142D01*
G54D10*
G36*
X36754Y-26100D02*
X36754Y-25878D01*
X36746Y-25886D01*
X36702Y-25915D01*
X36653Y-25935D01*
X36601Y-25945D01*
X36598Y-25945D01*
X36649Y-25979D01*
X36724Y-26055D01*
X36754Y-26100D01*
X36754Y-26100D01*
G37*
G54D22*
X36754Y-26100D02*
X36754Y-25878D01*
X36746Y-25886D01*
X36702Y-25915D01*
X36653Y-25935D01*
X36601Y-25945D01*
X36598Y-25945D01*
X36649Y-25979D01*
X36724Y-26055D01*
X36754Y-26100D01*
G54D10*
G36*
X28247Y-26012D02*
X28750Y-25509D01*
X28750Y-25316D01*
X28714Y-25316D01*
X28629Y-25297D01*
X28549Y-25263D01*
X28477Y-25213D01*
X28446Y-25180D01*
X28247Y-25380D01*
X28247Y-26012D01*
X28247Y-26012D01*
G37*
G54D22*
X28247Y-26012D02*
X28750Y-25509D01*
X28750Y-25316D01*
X28714Y-25316D01*
X28629Y-25297D01*
X28549Y-25263D01*
X28477Y-25213D01*
X28446Y-25180D01*
X28247Y-25380D01*
X28247Y-26012D01*
G54D10*
G36*
X31280Y-25678D02*
X31280Y-25528D01*
X31291Y-25476D01*
X31312Y-25428D01*
X31341Y-25384D01*
X31379Y-25346D01*
X31423Y-25317D01*
X31472Y-25297D01*
X31524Y-25287D01*
X31622Y-25287D01*
X31622Y-25118D01*
X31602Y-25094D01*
X31586Y-25074D01*
X31585Y-25072D01*
X31584Y-25071D01*
X31576Y-25055D01*
X31556Y-25017D01*
X31537Y-24955D01*
X31531Y-24893D01*
X31447Y-24927D01*
X31342Y-24945D01*
X31235Y-24943D01*
X31131Y-24920D01*
X31120Y-24915D01*
X31120Y-25265D01*
X31120Y-25269D01*
X31113Y-25333D01*
X31094Y-25390D01*
X31094Y-25391D01*
X31093Y-25391D01*
X31093Y-25394D01*
X31081Y-25415D01*
X31064Y-25448D01*
X31023Y-25498D01*
X31021Y-25499D01*
X31021Y-25500D01*
X31020Y-25500D01*
X30900Y-25620D01*
X31094Y-25620D01*
X31098Y-25620D01*
X31122Y-25622D01*
X31158Y-25626D01*
X31160Y-25626D01*
X31162Y-25627D01*
X31172Y-25630D01*
X31220Y-25645D01*
X31277Y-25676D01*
X31280Y-25678D01*
X31280Y-25678D01*
G37*
G54D22*
X31280Y-25678D02*
X31280Y-25528D01*
X31291Y-25476D01*
X31312Y-25428D01*
X31341Y-25384D01*
X31379Y-25346D01*
X31423Y-25317D01*
X31472Y-25297D01*
X31524Y-25287D01*
X31622Y-25287D01*
X31622Y-25118D01*
X31602Y-25094D01*
X31586Y-25074D01*
X31585Y-25072D01*
X31584Y-25071D01*
X31576Y-25055D01*
X31556Y-25017D01*
X31537Y-24955D01*
X31531Y-24893D01*
X31447Y-24927D01*
X31342Y-24945D01*
X31235Y-24943D01*
X31131Y-24920D01*
X31120Y-24915D01*
X31120Y-25265D01*
X31120Y-25269D01*
X31113Y-25333D01*
X31094Y-25390D01*
X31094Y-25391D01*
X31093Y-25391D01*
X31093Y-25394D01*
X31081Y-25415D01*
X31064Y-25448D01*
X31023Y-25498D01*
X31021Y-25499D01*
X31021Y-25500D01*
X31020Y-25500D01*
X30900Y-25620D01*
X31094Y-25620D01*
X31098Y-25620D01*
X31122Y-25622D01*
X31158Y-25626D01*
X31160Y-25626D01*
X31162Y-25627D01*
X31172Y-25630D01*
X31220Y-25645D01*
X31277Y-25676D01*
X31280Y-25678D01*
G54D10*
G36*
X35760Y-25070D02*
X35766Y-25044D01*
X35787Y-24996D01*
X35816Y-24952D01*
X35854Y-24914D01*
X35898Y-24885D01*
X35947Y-24865D01*
X35999Y-24855D01*
X36604Y-24855D01*
X36638Y-24862D01*
X35091Y-23315D01*
X31413Y-23315D01*
X31323Y-23404D01*
X31328Y-23404D01*
X31331Y-23404D01*
X34510Y-23404D01*
X34514Y-23404D01*
X34538Y-23406D01*
X34574Y-23410D01*
X34576Y-23410D01*
X34578Y-23411D01*
X34588Y-23414D01*
X34636Y-23429D01*
X34693Y-23460D01*
X34714Y-23477D01*
X34745Y-23503D01*
X34748Y-23507D01*
X34999Y-23757D01*
X34999Y-23757D01*
X35003Y-23761D01*
X35024Y-23788D01*
X35041Y-23808D01*
X35041Y-23809D01*
X35043Y-23811D01*
X35055Y-23835D01*
X35071Y-23865D01*
X35071Y-23867D01*
X35072Y-23868D01*
X35073Y-23873D01*
X35082Y-23901D01*
X35146Y-23876D01*
X35251Y-23856D01*
X35357Y-23856D01*
X35462Y-23878D01*
X35560Y-23919D01*
X35649Y-23979D01*
X35724Y-24055D01*
X35783Y-24144D01*
X35823Y-24242D01*
X35844Y-24347D01*
X35842Y-24469D01*
X35819Y-24573D01*
X35775Y-24670D01*
X35714Y-24757D01*
X35636Y-24831D01*
X35546Y-24888D01*
X35447Y-24927D01*
X35368Y-24940D01*
X35497Y-25070D01*
X35760Y-25070D01*
X35760Y-25070D01*
G37*
G54D22*
X35760Y-25070D02*
X35766Y-25044D01*
X35787Y-24996D01*
X35816Y-24952D01*
X35854Y-24914D01*
X35898Y-24885D01*
X35947Y-24865D01*
X35999Y-24855D01*
X36604Y-24855D01*
X36638Y-24862D01*
X35091Y-23315D01*
X31413Y-23315D01*
X31323Y-23404D01*
X31328Y-23404D01*
X31331Y-23404D01*
X34510Y-23404D01*
X34514Y-23404D01*
X34538Y-23406D01*
X34574Y-23410D01*
X34576Y-23410D01*
X34578Y-23411D01*
X34588Y-23414D01*
X34636Y-23429D01*
X34693Y-23460D01*
X34714Y-23477D01*
X34745Y-23503D01*
X34748Y-23507D01*
X34999Y-23757D01*
X34999Y-23757D01*
X35003Y-23761D01*
X35024Y-23788D01*
X35041Y-23808D01*
X35041Y-23809D01*
X35043Y-23811D01*
X35055Y-23835D01*
X35071Y-23865D01*
X35071Y-23867D01*
X35072Y-23868D01*
X35073Y-23873D01*
X35082Y-23901D01*
X35146Y-23876D01*
X35251Y-23856D01*
X35357Y-23856D01*
X35462Y-23878D01*
X35560Y-23919D01*
X35649Y-23979D01*
X35724Y-24055D01*
X35783Y-24144D01*
X35823Y-24242D01*
X35844Y-24347D01*
X35842Y-24469D01*
X35819Y-24573D01*
X35775Y-24670D01*
X35714Y-24757D01*
X35636Y-24831D01*
X35546Y-24888D01*
X35447Y-24927D01*
X35368Y-24940D01*
X35497Y-25070D01*
X35760Y-25070D01*
G54D10*
G36*
X32279Y-24954D02*
X32289Y-24944D01*
X32278Y-24943D01*
X32279Y-24954D01*
X32279Y-24954D01*
G37*
G54D22*
X32279Y-24954D02*
X32289Y-24944D01*
X32278Y-24943D01*
X32279Y-24954D01*
G54D10*
G36*
X27746Y-24949D02*
X28388Y-24306D01*
X28394Y-24300D01*
X28395Y-24298D01*
X28397Y-24297D01*
X28406Y-24289D01*
X28333Y-24289D01*
X28329Y-24289D01*
X28305Y-24286D01*
X28269Y-24283D01*
X28266Y-24282D01*
X28265Y-24282D01*
X28210Y-24263D01*
X28209Y-24263D01*
X27827Y-24646D01*
X27782Y-24675D01*
X27746Y-24689D01*
X27746Y-24949D01*
X27746Y-24949D01*
G37*
G54D22*
X27746Y-24949D02*
X28388Y-24306D01*
X28394Y-24300D01*
X28395Y-24298D01*
X28397Y-24297D01*
X28406Y-24289D01*
X28333Y-24289D01*
X28329Y-24289D01*
X28305Y-24286D01*
X28269Y-24283D01*
X28266Y-24282D01*
X28265Y-24282D01*
X28210Y-24263D01*
X28209Y-24263D01*
X27827Y-24646D01*
X27782Y-24675D01*
X27746Y-24689D01*
X27746Y-24949D01*
G54D10*
G36*
X33800Y-24616D02*
X33800Y-24614D01*
X33799Y-24616D01*
X33800Y-24616D01*
X33800Y-24616D01*
G37*
G54D22*
X33800Y-24616D02*
X33800Y-24614D01*
X33799Y-24616D01*
X33800Y-24616D01*
G54D10*
G36*
X29449Y-24542D02*
X29426Y-24532D01*
X29354Y-24482D01*
X29319Y-24446D01*
X29224Y-24542D01*
X29449Y-24542D01*
X29449Y-24542D01*
G37*
G54D22*
X29449Y-24542D02*
X29426Y-24532D01*
X29354Y-24482D01*
X29319Y-24446D01*
X29224Y-24542D01*
X29449Y-24542D01*
G54D10*
G36*
X36339Y-23631D02*
X36339Y-22992D01*
X36154Y-22807D01*
X36125Y-22762D01*
X36110Y-22726D01*
X35428Y-22726D01*
X35432Y-22729D01*
X35463Y-22754D01*
X35466Y-22758D01*
X36339Y-23631D01*
X36339Y-23631D01*
G37*
G54D22*
X36339Y-23631D02*
X36339Y-22992D01*
X36154Y-22807D01*
X36125Y-22762D01*
X36110Y-22726D01*
X35428Y-22726D01*
X35432Y-22729D01*
X35463Y-22754D01*
X35466Y-22758D01*
X36339Y-23631D01*
G54D10*
G36*
X30461Y-23334D02*
X30696Y-23100D01*
X30396Y-23100D01*
X30332Y-23163D01*
X30328Y-23169D01*
X30326Y-23170D01*
X30325Y-23172D01*
X30298Y-23193D01*
X30292Y-23197D01*
X30317Y-23208D01*
X30390Y-23257D01*
X30451Y-23319D01*
X30461Y-23334D01*
X30461Y-23334D01*
G37*
G54D22*
X30461Y-23334D02*
X30696Y-23100D01*
X30396Y-23100D01*
X30332Y-23163D01*
X30328Y-23169D01*
X30326Y-23170D01*
X30325Y-23172D01*
X30298Y-23193D01*
X30292Y-23197D01*
X30317Y-23208D01*
X30390Y-23257D01*
X30451Y-23319D01*
X30461Y-23334D01*
G54D10*
G36*
X37973Y-23113D02*
X37978Y-23108D01*
X37978Y-23107D01*
X37980Y-23106D01*
X37984Y-23102D01*
X38150Y-22936D01*
X38151Y-22935D01*
X38154Y-22932D01*
X38163Y-22924D01*
X38420Y-22667D01*
X38426Y-22661D01*
X38427Y-22660D01*
X38428Y-22659D01*
X38478Y-22619D01*
X38511Y-22602D01*
X38534Y-22590D01*
X38596Y-22571D01*
X38659Y-22566D01*
X38660Y-22566D01*
X38661Y-22566D01*
X38671Y-22567D01*
X38724Y-22572D01*
X38785Y-22591D01*
X38786Y-22591D01*
X38787Y-22592D01*
X38796Y-22597D01*
X38842Y-22622D01*
X38842Y-22622D01*
X38872Y-22616D01*
X38926Y-22616D01*
X38977Y-22627D01*
X39026Y-22647D01*
X39029Y-22649D01*
X38656Y-22198D01*
X38169Y-21801D01*
X38183Y-21835D01*
X38194Y-21887D01*
X38194Y-21941D01*
X38188Y-21968D01*
X38191Y-21972D01*
X38220Y-22029D01*
X38239Y-22091D01*
X38245Y-22154D01*
X38244Y-22154D01*
X38245Y-22155D01*
X38238Y-22219D01*
X38219Y-22281D01*
X38208Y-22300D01*
X38189Y-22337D01*
X38148Y-22387D01*
X37973Y-22561D01*
X37973Y-23113D01*
X37973Y-23113D01*
G37*
G54D22*
X37973Y-23113D02*
X37978Y-23108D01*
X37978Y-23107D01*
X37980Y-23106D01*
X37984Y-23102D01*
X38150Y-22936D01*
X38151Y-22935D01*
X38154Y-22932D01*
X38163Y-22924D01*
X38420Y-22667D01*
X38426Y-22661D01*
X38427Y-22660D01*
X38428Y-22659D01*
X38478Y-22619D01*
X38511Y-22602D01*
X38534Y-22590D01*
X38596Y-22571D01*
X38659Y-22566D01*
X38660Y-22566D01*
X38661Y-22566D01*
X38671Y-22567D01*
X38724Y-22572D01*
X38785Y-22591D01*
X38786Y-22591D01*
X38787Y-22592D01*
X38796Y-22597D01*
X38842Y-22622D01*
X38842Y-22622D01*
X38872Y-22616D01*
X38926Y-22616D01*
X38977Y-22627D01*
X39026Y-22647D01*
X39029Y-22649D01*
X38656Y-22198D01*
X38169Y-21801D01*
X38183Y-21835D01*
X38194Y-21887D01*
X38194Y-21941D01*
X38188Y-21968D01*
X38191Y-21972D01*
X38220Y-22029D01*
X38239Y-22091D01*
X38245Y-22154D01*
X38244Y-22154D01*
X38245Y-22155D01*
X38238Y-22219D01*
X38219Y-22281D01*
X38208Y-22300D01*
X38189Y-22337D01*
X38148Y-22387D01*
X37973Y-22561D01*
X37973Y-23113D01*
G54D10*
G36*
X28328Y-22858D02*
X28333Y-22853D01*
X28311Y-22832D01*
X28297Y-22832D01*
X28317Y-22848D01*
X28328Y-22858D01*
X28328Y-22858D01*
G37*
G54D22*
X28328Y-22858D02*
X28333Y-22853D01*
X28311Y-22832D01*
X28297Y-22832D01*
X28317Y-22848D01*
X28328Y-22858D01*
G54D10*
G36*
X32898Y-22655D02*
X32867Y-22629D01*
X32865Y-22627D01*
X32865Y-22627D01*
X32864Y-22626D01*
X32325Y-22086D01*
X31756Y-22655D01*
X32898Y-22655D01*
X32898Y-22655D01*
G37*
G54D22*
X32898Y-22655D02*
X32867Y-22629D01*
X32865Y-22627D01*
X32865Y-22627D01*
X32864Y-22626D01*
X32325Y-22086D01*
X31756Y-22655D01*
X32898Y-22655D01*
G54D10*
G36*
X31038Y-22440D02*
X31443Y-22035D01*
X31442Y-22035D01*
X31398Y-22006D01*
X31360Y-21968D01*
X31331Y-21924D01*
X31311Y-21875D01*
X31301Y-21823D01*
X31301Y-21814D01*
X30675Y-22440D01*
X31038Y-22440D01*
X31038Y-22440D01*
G37*
G54D22*
X31038Y-22440D02*
X31443Y-22035D01*
X31442Y-22035D01*
X31398Y-22006D01*
X31360Y-21968D01*
X31331Y-21924D01*
X31311Y-21875D01*
X31301Y-21823D01*
X31301Y-21814D01*
X30675Y-22440D01*
X31038Y-22440D01*
G54D10*
G36*
X29543Y-22323D02*
X29574Y-22292D01*
X29574Y-21863D01*
X29574Y-21859D01*
X29576Y-21835D01*
X29580Y-21799D01*
X29580Y-21796D01*
X29581Y-21795D01*
X29584Y-21784D01*
X29599Y-21737D01*
X29630Y-21680D01*
X29647Y-21658D01*
X29673Y-21628D01*
X29677Y-21624D01*
X31174Y-20127D01*
X31175Y-20126D01*
X31177Y-20124D01*
X31187Y-20116D01*
X31225Y-20085D01*
X31282Y-20055D01*
X31344Y-20036D01*
X31344Y-20035D01*
X31362Y-20010D01*
X31400Y-19972D01*
X31433Y-19950D01*
X31186Y-19976D01*
X29656Y-20450D01*
X28244Y-21212D01*
X28212Y-21239D01*
X28246Y-21226D01*
X28298Y-21215D01*
X28352Y-21215D01*
X28403Y-21226D01*
X28452Y-21246D01*
X28496Y-21276D01*
X28785Y-21565D01*
X28814Y-21610D01*
X28833Y-21658D01*
X28835Y-21668D01*
X28849Y-21671D01*
X28898Y-21691D01*
X28942Y-21721D01*
X29231Y-22010D01*
X29260Y-22055D01*
X29279Y-22103D01*
X29281Y-22114D01*
X29294Y-22117D01*
X29343Y-22137D01*
X29387Y-22167D01*
X29543Y-22323D01*
X29543Y-22323D01*
G37*
G54D22*
X29543Y-22323D02*
X29574Y-22292D01*
X29574Y-21863D01*
X29574Y-21859D01*
X29576Y-21835D01*
X29580Y-21799D01*
X29580Y-21796D01*
X29581Y-21795D01*
X29584Y-21784D01*
X29599Y-21737D01*
X29630Y-21680D01*
X29647Y-21658D01*
X29673Y-21628D01*
X29677Y-21624D01*
X31174Y-20127D01*
X31175Y-20126D01*
X31177Y-20124D01*
X31187Y-20116D01*
X31225Y-20085D01*
X31282Y-20055D01*
X31344Y-20036D01*
X31344Y-20035D01*
X31362Y-20010D01*
X31400Y-19972D01*
X31433Y-19950D01*
X31186Y-19976D01*
X29656Y-20450D01*
X28244Y-21212D01*
X28212Y-21239D01*
X28246Y-21226D01*
X28298Y-21215D01*
X28352Y-21215D01*
X28403Y-21226D01*
X28452Y-21246D01*
X28496Y-21276D01*
X28785Y-21565D01*
X28814Y-21610D01*
X28833Y-21658D01*
X28835Y-21668D01*
X28849Y-21671D01*
X28898Y-21691D01*
X28942Y-21721D01*
X29231Y-22010D01*
X29260Y-22055D01*
X29279Y-22103D01*
X29281Y-22114D01*
X29294Y-22117D01*
X29343Y-22137D01*
X29387Y-22167D01*
X29543Y-22323D01*
G54D10*
G36*
X36885Y-21626D02*
X36936Y-21641D01*
X36489Y-21195D01*
X35137Y-21195D01*
X35133Y-21195D01*
X35108Y-21192D01*
X35073Y-21189D01*
X35070Y-21188D01*
X35069Y-21188D01*
X35058Y-21184D01*
X35011Y-21170D01*
X34954Y-21139D01*
X34932Y-21120D01*
X34902Y-21096D01*
X34897Y-21090D01*
X34394Y-20587D01*
X34388Y-20618D01*
X34367Y-20666D01*
X34361Y-20674D01*
X34369Y-20686D01*
X34389Y-20735D01*
X34399Y-20787D01*
X34399Y-21196D01*
X34388Y-21248D01*
X34367Y-21296D01*
X34361Y-21304D01*
X34369Y-21316D01*
X34389Y-21365D01*
X34399Y-21417D01*
X34399Y-21631D01*
X36738Y-21631D01*
X36757Y-21625D01*
X36821Y-21620D01*
X36822Y-21620D01*
X36823Y-21620D01*
X36834Y-21621D01*
X36885Y-21626D01*
X36885Y-21626D01*
G37*
G54D22*
X36885Y-21626D02*
X36936Y-21641D01*
X36489Y-21195D01*
X35137Y-21195D01*
X35133Y-21195D01*
X35108Y-21192D01*
X35073Y-21189D01*
X35070Y-21188D01*
X35069Y-21188D01*
X35058Y-21184D01*
X35011Y-21170D01*
X34954Y-21139D01*
X34932Y-21120D01*
X34902Y-21096D01*
X34897Y-21090D01*
X34394Y-20587D01*
X34388Y-20618D01*
X34367Y-20666D01*
X34361Y-20674D01*
X34369Y-20686D01*
X34389Y-20735D01*
X34399Y-20787D01*
X34399Y-21196D01*
X34388Y-21248D01*
X34367Y-21296D01*
X34361Y-21304D01*
X34369Y-21316D01*
X34389Y-21365D01*
X34399Y-21417D01*
X34399Y-21631D01*
X36738Y-21631D01*
X36757Y-21625D01*
X36821Y-21620D01*
X36822Y-21620D01*
X36823Y-21620D01*
X36834Y-21621D01*
X36885Y-21626D01*
G54D10*
G36*
X33046Y-21245D02*
X33046Y-21218D01*
X33046Y-21214D01*
X33048Y-21189D01*
X33052Y-21154D01*
X33052Y-21151D01*
X33053Y-21150D01*
X33056Y-21139D01*
X33071Y-21092D01*
X33102Y-21035D01*
X33120Y-21013D01*
X33138Y-20990D01*
X33117Y-20964D01*
X33101Y-20944D01*
X33100Y-20942D01*
X33099Y-20941D01*
X33091Y-20925D01*
X33071Y-20887D01*
X33052Y-20825D01*
X33046Y-20761D01*
X33046Y-20757D01*
X33046Y-20358D01*
X33046Y-20355D01*
X33046Y-20350D01*
X32801Y-20350D01*
X32563Y-20587D01*
X32558Y-20594D01*
X32556Y-20595D01*
X32555Y-20597D01*
X32528Y-20618D01*
X32508Y-20635D01*
X32506Y-20635D01*
X32505Y-20637D01*
X32489Y-20644D01*
X32451Y-20665D01*
X32418Y-20674D01*
X32452Y-20685D01*
X32509Y-20716D01*
X32530Y-20734D01*
X32561Y-20759D01*
X32565Y-20764D01*
X33046Y-21245D01*
X33046Y-21245D01*
G37*
G54D22*
X33046Y-21245D02*
X33046Y-21218D01*
X33046Y-21214D01*
X33048Y-21189D01*
X33052Y-21154D01*
X33052Y-21151D01*
X33053Y-21150D01*
X33056Y-21139D01*
X33071Y-21092D01*
X33102Y-21035D01*
X33120Y-21013D01*
X33138Y-20990D01*
X33117Y-20964D01*
X33101Y-20944D01*
X33100Y-20942D01*
X33099Y-20941D01*
X33091Y-20925D01*
X33071Y-20887D01*
X33052Y-20825D01*
X33046Y-20761D01*
X33046Y-20757D01*
X33046Y-20358D01*
X33046Y-20355D01*
X33046Y-20350D01*
X32801Y-20350D01*
X32563Y-20587D01*
X32558Y-20594D01*
X32556Y-20595D01*
X32555Y-20597D01*
X32528Y-20618D01*
X32508Y-20635D01*
X32506Y-20635D01*
X32505Y-20637D01*
X32489Y-20644D01*
X32451Y-20665D01*
X32418Y-20674D01*
X32452Y-20685D01*
X32509Y-20716D01*
X32530Y-20734D01*
X32561Y-20759D01*
X32565Y-20764D01*
X33046Y-21245D01*
G54D10*
G36*
X37457Y-21229D02*
X37466Y-21228D01*
X37411Y-21182D01*
X37409Y-21182D01*
X37457Y-21229D01*
X37457Y-21229D01*
G37*
G54D22*
X37457Y-21229D02*
X37466Y-21228D01*
X37411Y-21182D01*
X37409Y-21182D01*
X37457Y-21229D01*
G54D10*
G36*
X36192Y-20535D02*
X35991Y-20427D01*
X34810Y-20071D01*
X35274Y-20535D01*
X36192Y-20535D01*
X36192Y-20535D01*
G37*
G54D22*
X36192Y-20535D02*
X35991Y-20427D01*
X34810Y-20071D01*
X35274Y-20535D01*
X36192Y-20535D01*
G54D10*
G36*
X32278Y-19939D02*
X32366Y-19851D01*
X31784Y-19913D01*
X32190Y-19913D01*
X32242Y-19924D01*
X32278Y-19939D01*
X32278Y-19939D01*
G37*
G54D22*
X32278Y-19939D02*
X32366Y-19851D01*
X31784Y-19913D01*
X32190Y-19913D01*
X32242Y-19924D01*
X32278Y-19939D01*
M02*
