G04 (created by PCBNEW-RS274X (2010-04-21 BZR 23xx)-stable) date Thu 02 Sep 2010 05:41:50 AM CEST*
G01*
G70*
G90*
%MOIN*%
G04 Gerber Fmt 3.4, Leading zero omitted, Abs format*
%FSLAX34Y34*%
G04 APERTURE LIST*
%ADD10C,0.001000*%
%ADD11R,0.055000X0.055000*%
%ADD12C,0.055000*%
%ADD13R,0.060000X0.060000*%
%ADD14C,0.060000*%
%ADD15R,0.051100X0.059000*%
%ADD16R,0.062900X0.070800*%
%ADD17R,0.070800X0.062900*%
%ADD18R,0.087900X0.047900*%
%ADD19R,0.086600X0.141700*%
%ADD20C,0.035000*%
%ADD21C,0.012000*%
%ADD22C,0.018000*%
G04 APERTURE END LIST*
G54D10*
G54D11*
X31800Y-33400D03*
G54D12*
X32800Y-33400D03*
X33800Y-33400D03*
G54D13*
X31800Y-31100D03*
G54D14*
X31800Y-32100D03*
X32800Y-31100D03*
X32800Y-32100D03*
X33800Y-31100D03*
X33800Y-32100D03*
G54D11*
X30300Y-24400D03*
G54D12*
X31300Y-24400D03*
X32300Y-24400D03*
X33300Y-24400D03*
X34300Y-24400D03*
X35300Y-24400D03*
G54D11*
X36300Y-25400D03*
G54D12*
X36300Y-26400D03*
X36300Y-27400D03*
X36300Y-28400D03*
X36300Y-29400D03*
X36300Y-30400D03*
G54D11*
X29295Y-25400D03*
G54D12*
X29295Y-26400D03*
X29295Y-27400D03*
X29295Y-28400D03*
X29295Y-29400D03*
X29295Y-30400D03*
G54D15*
X39881Y-25480D03*
X39133Y-25480D03*
X33174Y-34600D03*
X32426Y-34600D03*
G54D16*
X25914Y-25490D03*
X27016Y-25490D03*
G54D15*
X39576Y-27900D03*
X40324Y-27900D03*
G54D17*
X35650Y-21549D03*
X35650Y-22651D03*
X30150Y-22651D03*
X30150Y-21549D03*
G54D18*
X31680Y-22609D03*
X31680Y-21700D03*
X31680Y-20791D03*
G54D19*
X34120Y-21700D03*
G54D15*
X26224Y-27900D03*
X25476Y-27900D03*
X32426Y-35650D03*
X33174Y-35650D03*
G54D20*
X38447Y-28885D03*
X38447Y-27375D03*
X31938Y-26927D03*
X31074Y-34470D03*
X32015Y-30481D03*
X36255Y-33787D03*
X35617Y-32833D03*
X40050Y-26079D03*
X34538Y-32583D03*
X35420Y-30014D03*
X28660Y-23157D03*
X29644Y-24141D03*
X29859Y-27278D03*
X26687Y-26326D03*
X34409Y-35217D03*
X28815Y-32641D03*
X27167Y-27806D03*
X32563Y-27776D03*
X28477Y-32027D03*
X27405Y-28485D03*
X30018Y-32180D03*
X30105Y-23602D03*
X27878Y-27699D03*
X31328Y-30574D03*
X28231Y-30139D03*
X31818Y-28803D03*
X28530Y-31179D03*
X37832Y-29852D03*
X32917Y-28979D03*
X26460Y-24974D03*
X28767Y-24872D03*
X30452Y-25123D03*
X31034Y-26370D03*
X34226Y-29812D03*
X29969Y-30155D03*
G54D21*
X29295Y-30351D02*
X29295Y-30400D01*
X30280Y-29366D02*
X29295Y-30351D01*
X32084Y-29366D02*
X30280Y-29366D01*
X32273Y-29555D02*
X32084Y-29366D01*
X34005Y-29555D02*
X32273Y-29555D01*
X34086Y-29474D02*
X34005Y-29555D01*
X35374Y-29474D02*
X34086Y-29474D01*
X36300Y-30400D02*
X35374Y-29474D01*
X29552Y-29143D02*
X29295Y-29400D01*
X32177Y-29143D02*
X29552Y-29143D01*
X32351Y-29317D02*
X32177Y-29143D01*
X33927Y-29317D02*
X32351Y-29317D01*
X33993Y-29251D02*
X33927Y-29317D01*
X36151Y-29251D02*
X33993Y-29251D01*
X36300Y-29400D02*
X36151Y-29251D01*
X38447Y-28885D02*
X38447Y-27375D01*
X40324Y-27229D02*
X40324Y-27900D01*
X39995Y-26900D02*
X40324Y-27229D01*
X36117Y-26900D02*
X39995Y-26900D01*
X35300Y-26083D02*
X36117Y-26900D01*
X35300Y-24400D02*
X35300Y-26083D01*
X30818Y-21700D02*
X30667Y-21549D01*
X31680Y-21700D02*
X30818Y-21700D01*
X30353Y-21549D02*
X30667Y-21549D01*
X30353Y-21549D02*
X30150Y-21549D01*
X30150Y-21549D02*
X30150Y-22027D01*
X30300Y-24400D02*
X30300Y-23962D01*
X35650Y-22651D02*
X35650Y-23128D01*
X27016Y-25490D02*
X27493Y-25490D01*
X39133Y-25480D02*
X36739Y-25480D01*
X36739Y-24217D02*
X36739Y-25480D01*
X35650Y-23128D02*
X36739Y-24217D01*
X36739Y-25961D02*
X36300Y-26400D01*
X36739Y-25480D02*
X36739Y-25961D01*
X39133Y-25480D02*
X39133Y-25938D01*
X28403Y-26400D02*
X29295Y-26400D01*
X27493Y-25490D02*
X28403Y-26400D01*
X31938Y-24847D02*
X31938Y-26927D01*
X29987Y-23962D02*
X30300Y-23962D01*
X29632Y-23607D02*
X29987Y-23962D01*
X29632Y-22067D02*
X29632Y-23607D01*
X29672Y-22027D02*
X29632Y-22067D01*
X30150Y-22027D02*
X29672Y-22027D01*
X32732Y-24847D02*
X31938Y-24847D01*
X32766Y-24813D02*
X32732Y-24847D01*
X32766Y-23995D02*
X32766Y-24813D01*
X33633Y-23128D02*
X32766Y-23995D01*
X35650Y-23128D02*
X33633Y-23128D01*
X30593Y-24785D02*
X30300Y-24785D01*
X30655Y-24847D02*
X30593Y-24785D01*
X31938Y-24847D02*
X30655Y-24847D01*
X30114Y-24971D02*
X30300Y-24785D01*
X30114Y-25581D02*
X30114Y-24971D01*
X29295Y-26400D02*
X30114Y-25581D01*
X30300Y-24785D02*
X30300Y-24400D01*
X33878Y-32022D02*
X33800Y-32100D01*
X37001Y-32022D02*
X33878Y-32022D01*
X40743Y-28280D02*
X37001Y-32022D01*
X40743Y-27251D02*
X40743Y-28280D01*
X39430Y-25938D02*
X40743Y-27251D01*
X39133Y-25938D02*
X39430Y-25938D01*
X30436Y-33832D02*
X31074Y-34470D01*
X30436Y-30834D02*
X30436Y-33832D01*
X31035Y-30235D02*
X30436Y-30834D01*
X31769Y-30235D02*
X31035Y-30235D01*
X32015Y-30481D02*
X31769Y-30235D01*
X35617Y-33149D02*
X36255Y-33787D01*
X35617Y-32833D02*
X35617Y-33149D01*
X32892Y-32100D02*
X32800Y-32100D01*
X33410Y-32618D02*
X32892Y-32100D01*
X34025Y-32618D02*
X33410Y-32618D01*
X34398Y-32245D02*
X34025Y-32618D01*
X37109Y-32245D02*
X34398Y-32245D01*
X40966Y-28388D02*
X37109Y-32245D01*
X40966Y-26995D02*
X40966Y-28388D01*
X40050Y-26079D02*
X40966Y-26995D01*
X31282Y-31100D02*
X31800Y-31100D01*
X31098Y-31284D02*
X31282Y-31100D01*
X31098Y-33478D02*
X31098Y-31284D01*
X31459Y-33839D02*
X31098Y-33478D01*
X33985Y-33839D02*
X31459Y-33839D01*
X34538Y-33286D02*
X33985Y-33839D01*
X34538Y-32583D02*
X34538Y-33286D01*
X35284Y-30150D02*
X35420Y-30014D01*
X33750Y-30150D02*
X35284Y-30150D01*
X32800Y-31100D02*
X33750Y-30150D01*
X29644Y-24141D02*
X28660Y-23157D01*
X27291Y-26930D02*
X26687Y-26326D01*
X29511Y-26930D02*
X27291Y-26930D01*
X29859Y-27278D02*
X29511Y-26930D01*
X34251Y-35059D02*
X34409Y-35217D01*
X32426Y-35059D02*
X34251Y-35059D01*
X32426Y-35650D02*
X32426Y-35059D01*
X32426Y-35059D02*
X32426Y-34600D01*
X28815Y-31886D02*
X28815Y-32641D01*
X28618Y-31689D02*
X28815Y-31886D01*
X28345Y-31689D02*
X28618Y-31689D01*
X27061Y-30405D02*
X28345Y-31689D01*
X27061Y-27912D02*
X27061Y-30405D01*
X27167Y-27806D02*
X27061Y-27912D01*
X39576Y-27900D02*
X39157Y-27900D01*
X39157Y-28654D02*
X39157Y-27900D01*
X38171Y-29640D02*
X39157Y-28654D01*
X37063Y-31100D02*
X33800Y-31100D01*
X38171Y-29992D02*
X37063Y-31100D01*
X38171Y-29640D02*
X38171Y-29992D01*
X26224Y-27900D02*
X26643Y-27900D01*
X32563Y-27905D02*
X32563Y-27776D01*
X29148Y-27905D02*
X32563Y-27905D01*
X28566Y-27323D02*
X29148Y-27905D01*
X26801Y-27323D02*
X28566Y-27323D01*
X26643Y-27481D02*
X26801Y-27323D01*
X26643Y-27900D02*
X26643Y-27481D01*
X36436Y-27905D02*
X38171Y-29640D01*
X32563Y-27905D02*
X36436Y-27905D01*
X29512Y-27617D02*
X29295Y-27400D01*
X32244Y-27617D02*
X29512Y-27617D01*
X32461Y-27400D02*
X32244Y-27617D01*
X36300Y-27400D02*
X32461Y-27400D01*
X36300Y-28400D02*
X29295Y-28400D01*
X33168Y-32768D02*
X33800Y-33400D01*
X32468Y-32768D02*
X33168Y-32768D01*
X31800Y-32100D02*
X32468Y-32768D01*
X25914Y-25490D02*
X25914Y-26007D01*
X25476Y-26445D02*
X25476Y-27900D01*
X25914Y-26007D02*
X25476Y-26445D01*
X28366Y-32027D02*
X28477Y-32027D01*
X25476Y-29137D02*
X28366Y-32027D01*
X25476Y-27900D02*
X25476Y-29137D01*
X29559Y-20791D02*
X31680Y-20791D01*
X25914Y-24436D02*
X29559Y-20791D01*
X25914Y-25490D02*
X25914Y-24436D01*
X31680Y-20791D02*
X32283Y-20791D01*
X36869Y-21549D02*
X35650Y-21549D01*
X39881Y-24561D02*
X36869Y-21549D01*
X39881Y-25480D02*
X39881Y-24561D01*
X32300Y-20828D02*
X32300Y-24400D01*
X35407Y-20828D02*
X32300Y-20828D01*
X35650Y-21071D02*
X35407Y-20828D01*
X32283Y-20811D02*
X32283Y-20791D01*
X32300Y-20828D02*
X32283Y-20811D01*
X35650Y-21549D02*
X35650Y-21071D01*
X27405Y-30118D02*
X27405Y-28485D01*
X27987Y-30700D02*
X27405Y-30118D01*
X28538Y-30700D02*
X27987Y-30700D01*
X30018Y-32180D02*
X28538Y-30700D01*
X30709Y-22609D02*
X31680Y-22609D01*
X30667Y-22651D02*
X30709Y-22609D01*
X30150Y-22651D02*
X30409Y-22651D01*
X30409Y-22651D02*
X30667Y-22651D01*
X30105Y-22955D02*
X30105Y-23602D01*
X30409Y-22651D02*
X30105Y-22955D01*
X31800Y-33400D02*
X31800Y-32962D01*
X27878Y-30275D02*
X27878Y-27699D01*
X28080Y-30477D02*
X27878Y-30275D01*
X28631Y-30477D02*
X28080Y-30477D01*
X29148Y-30994D02*
X28631Y-30477D01*
X29743Y-30994D02*
X29148Y-30994D01*
X30751Y-29986D02*
X29743Y-30994D01*
X31961Y-29986D02*
X30751Y-29986D01*
X32112Y-30137D02*
X31961Y-29986D01*
X32345Y-30137D02*
X32112Y-30137D01*
X32379Y-30171D02*
X32345Y-30137D01*
X32379Y-30596D02*
X32379Y-30171D01*
X32264Y-30711D02*
X32379Y-30596D01*
X32264Y-31530D02*
X32264Y-30711D01*
X32230Y-31564D02*
X32264Y-31530D01*
X31578Y-31564D02*
X32230Y-31564D01*
X31328Y-31814D02*
X31578Y-31564D01*
X31328Y-32490D02*
X31328Y-31814D01*
X31800Y-32962D02*
X31328Y-32490D01*
X33174Y-34600D02*
X33174Y-34142D01*
X31338Y-34142D02*
X33174Y-34142D01*
X30848Y-33652D02*
X31338Y-34142D01*
X30848Y-31054D02*
X30848Y-33652D01*
X31328Y-30574D02*
X30848Y-31054D01*
X31702Y-28919D02*
X31818Y-28803D01*
X29124Y-28919D02*
X31702Y-28919D01*
X28231Y-29812D02*
X29124Y-28919D01*
X28231Y-30139D02*
X28231Y-29812D01*
X33174Y-35650D02*
X33174Y-36108D01*
X29716Y-32365D02*
X28530Y-31179D01*
X29716Y-33785D02*
X29716Y-32365D01*
X32039Y-36108D02*
X29716Y-33785D01*
X33174Y-36108D02*
X32039Y-36108D01*
X36900Y-28920D02*
X37832Y-29852D01*
X32976Y-28920D02*
X36900Y-28920D01*
X32917Y-28979D02*
X32976Y-28920D01*
X31034Y-25705D02*
X31034Y-26370D01*
X30452Y-25123D02*
X31034Y-25705D01*
X26562Y-24872D02*
X26460Y-24974D01*
X28767Y-24872D02*
X26562Y-24872D01*
X30390Y-29734D02*
X29969Y-30155D01*
X32025Y-29734D02*
X30390Y-29734D01*
X32103Y-29812D02*
X32025Y-29734D01*
X34226Y-29812D02*
X32103Y-29812D01*
G54D10*
G36*
X41660Y-36760D02*
X41660Y-19290D01*
X24040Y-19290D01*
X24040Y-36760D01*
X32375Y-36760D01*
X31174Y-36642D01*
X31125Y-36632D01*
X29537Y-36153D01*
X29533Y-36152D01*
X29507Y-36140D01*
X29491Y-36134D01*
X28026Y-35355D01*
X28023Y-35353D01*
X27982Y-35325D01*
X27979Y-35322D01*
X26700Y-34279D01*
X26664Y-34244D01*
X25607Y-32966D01*
X25606Y-32965D01*
X25578Y-32924D01*
X24790Y-31465D01*
X24788Y-31462D01*
X24772Y-31422D01*
X24771Y-31419D01*
X24770Y-31416D01*
X24770Y-31416D01*
X24769Y-31415D01*
X24281Y-29837D01*
X24280Y-29835D01*
X24279Y-29832D01*
X24279Y-29831D01*
X24277Y-29822D01*
X24270Y-29786D01*
X24096Y-28136D01*
X24096Y-28132D01*
X24096Y-28121D01*
X24095Y-28109D01*
X24095Y-28046D01*
X24096Y-28037D01*
X24096Y-28025D01*
X24258Y-26375D01*
X24258Y-26371D01*
X24264Y-26343D01*
X24268Y-26325D01*
X24747Y-24738D01*
X24748Y-24734D01*
X24754Y-24718D01*
X24766Y-24691D01*
X25545Y-23226D01*
X25547Y-23223D01*
X25556Y-23208D01*
X25572Y-23185D01*
X26620Y-21900D01*
X26623Y-21897D01*
X26658Y-21863D01*
X26659Y-21861D01*
X27929Y-20811D01*
X27934Y-20807D01*
X27937Y-20804D01*
X27938Y-20804D01*
X27948Y-20797D01*
X27976Y-20779D01*
X29434Y-19990D01*
X29438Y-19988D01*
X29446Y-19984D01*
X29481Y-19970D01*
X31065Y-19480D01*
X31069Y-19479D01*
X31095Y-19474D01*
X31114Y-19470D01*
X32764Y-19297D01*
X32771Y-19297D01*
X32791Y-19295D01*
X32854Y-19295D01*
X32862Y-19296D01*
X32875Y-19296D01*
X34525Y-19458D01*
X34529Y-19458D01*
X34556Y-19464D01*
X34575Y-19468D01*
X36162Y-19947D01*
X36166Y-19948D01*
X36181Y-19954D01*
X36209Y-19966D01*
X37674Y-20745D01*
X37677Y-20747D01*
X37691Y-20756D01*
X37715Y-20772D01*
X39000Y-21820D01*
X39003Y-21823D01*
X39037Y-21858D01*
X39038Y-21859D01*
X40088Y-23129D01*
X40093Y-23134D01*
X40095Y-23137D01*
X40096Y-23138D01*
X40102Y-23148D01*
X40121Y-23176D01*
X40910Y-24634D01*
X40912Y-24638D01*
X40915Y-24646D01*
X40930Y-24681D01*
X41420Y-26265D01*
X41421Y-26269D01*
X41425Y-26296D01*
X41430Y-26314D01*
X41603Y-27964D01*
X41603Y-27971D01*
X41605Y-27991D01*
X41605Y-28054D01*
X41603Y-28064D01*
X41604Y-28076D01*
X41442Y-29726D01*
X41432Y-29775D01*
X40953Y-31363D01*
X40952Y-31367D01*
X40940Y-31392D01*
X40934Y-31409D01*
X40155Y-32874D01*
X40153Y-32877D01*
X40125Y-32918D01*
X40122Y-32920D01*
X39079Y-34200D01*
X39044Y-34236D01*
X37765Y-35293D01*
X37765Y-35294D01*
X37724Y-35322D01*
X36265Y-36110D01*
X36262Y-36112D01*
X36223Y-36127D01*
X36219Y-36129D01*
X36216Y-36129D01*
X36216Y-36130D01*
X36215Y-36130D01*
X34637Y-36618D01*
X34635Y-36620D01*
X34632Y-36620D01*
X34631Y-36621D01*
X34622Y-36622D01*
X34586Y-36630D01*
X33353Y-36760D01*
X41660Y-36760D01*
X41660Y-36760D01*
G37*
G54D22*
X41660Y-36760D02*
X41660Y-19290D01*
X24040Y-19290D01*
X24040Y-36760D01*
X32375Y-36760D01*
X31174Y-36642D01*
X31125Y-36632D01*
X29537Y-36153D01*
X29533Y-36152D01*
X29507Y-36140D01*
X29491Y-36134D01*
X28026Y-35355D01*
X28023Y-35353D01*
X27982Y-35325D01*
X27979Y-35322D01*
X26700Y-34279D01*
X26664Y-34244D01*
X25607Y-32966D01*
X25606Y-32965D01*
X25578Y-32924D01*
X24790Y-31465D01*
X24788Y-31462D01*
X24772Y-31422D01*
X24771Y-31419D01*
X24770Y-31416D01*
X24770Y-31416D01*
X24769Y-31415D01*
X24281Y-29837D01*
X24280Y-29835D01*
X24279Y-29832D01*
X24279Y-29831D01*
X24277Y-29822D01*
X24270Y-29786D01*
X24096Y-28136D01*
X24096Y-28132D01*
X24096Y-28121D01*
X24095Y-28109D01*
X24095Y-28046D01*
X24096Y-28037D01*
X24096Y-28025D01*
X24258Y-26375D01*
X24258Y-26371D01*
X24264Y-26343D01*
X24268Y-26325D01*
X24747Y-24738D01*
X24748Y-24734D01*
X24754Y-24718D01*
X24766Y-24691D01*
X25545Y-23226D01*
X25547Y-23223D01*
X25556Y-23208D01*
X25572Y-23185D01*
X26620Y-21900D01*
X26623Y-21897D01*
X26658Y-21863D01*
X26659Y-21861D01*
X27929Y-20811D01*
X27934Y-20807D01*
X27937Y-20804D01*
X27938Y-20804D01*
X27948Y-20797D01*
X27976Y-20779D01*
X29434Y-19990D01*
X29438Y-19988D01*
X29446Y-19984D01*
X29481Y-19970D01*
X31065Y-19480D01*
X31069Y-19479D01*
X31095Y-19474D01*
X31114Y-19470D01*
X32764Y-19297D01*
X32771Y-19297D01*
X32791Y-19295D01*
X32854Y-19295D01*
X32862Y-19296D01*
X32875Y-19296D01*
X34525Y-19458D01*
X34529Y-19458D01*
X34556Y-19464D01*
X34575Y-19468D01*
X36162Y-19947D01*
X36166Y-19948D01*
X36181Y-19954D01*
X36209Y-19966D01*
X37674Y-20745D01*
X37677Y-20747D01*
X37691Y-20756D01*
X37715Y-20772D01*
X39000Y-21820D01*
X39003Y-21823D01*
X39037Y-21858D01*
X39038Y-21859D01*
X40088Y-23129D01*
X40093Y-23134D01*
X40095Y-23137D01*
X40096Y-23138D01*
X40102Y-23148D01*
X40121Y-23176D01*
X40910Y-24634D01*
X40912Y-24638D01*
X40915Y-24646D01*
X40930Y-24681D01*
X41420Y-26265D01*
X41421Y-26269D01*
X41425Y-26296D01*
X41430Y-26314D01*
X41603Y-27964D01*
X41603Y-27971D01*
X41605Y-27991D01*
X41605Y-28054D01*
X41603Y-28064D01*
X41604Y-28076D01*
X41442Y-29726D01*
X41432Y-29775D01*
X40953Y-31363D01*
X40952Y-31367D01*
X40940Y-31392D01*
X40934Y-31409D01*
X40155Y-32874D01*
X40153Y-32877D01*
X40125Y-32918D01*
X40122Y-32920D01*
X39079Y-34200D01*
X39044Y-34236D01*
X37765Y-35293D01*
X37765Y-35294D01*
X37724Y-35322D01*
X36265Y-36110D01*
X36262Y-36112D01*
X36223Y-36127D01*
X36219Y-36129D01*
X36216Y-36129D01*
X36216Y-36130D01*
X36215Y-36130D01*
X34637Y-36618D01*
X34635Y-36620D01*
X34632Y-36620D01*
X34631Y-36621D01*
X34622Y-36622D01*
X34586Y-36630D01*
X33353Y-36760D01*
X41660Y-36760D01*
G54D10*
G36*
X33482Y-36219D02*
X33478Y-36233D01*
X34503Y-36125D01*
X36049Y-35647D01*
X37460Y-34884D01*
X38696Y-33861D01*
X39718Y-32607D01*
X40472Y-31191D01*
X40936Y-29653D01*
X41019Y-28801D01*
X37347Y-32472D01*
X37342Y-32479D01*
X37340Y-32480D01*
X37339Y-32482D01*
X37312Y-32503D01*
X37292Y-32520D01*
X37290Y-32520D01*
X37289Y-32522D01*
X37272Y-32530D01*
X37235Y-32550D01*
X37173Y-32569D01*
X37109Y-32575D01*
X37105Y-32575D01*
X35979Y-32575D01*
X36012Y-32623D01*
X36045Y-32703D01*
X36062Y-32789D01*
X36061Y-32889D01*
X36041Y-32974D01*
X36006Y-33054D01*
X35998Y-33064D01*
X36276Y-33342D01*
X36301Y-33342D01*
X36387Y-33360D01*
X36467Y-33393D01*
X36540Y-33442D01*
X36601Y-33504D01*
X36650Y-33577D01*
X36683Y-33657D01*
X36700Y-33743D01*
X36699Y-33843D01*
X36679Y-33928D01*
X36644Y-34008D01*
X36594Y-34079D01*
X36531Y-34139D01*
X36457Y-34186D01*
X36376Y-34218D01*
X36290Y-34233D01*
X36202Y-34231D01*
X36117Y-34212D01*
X36037Y-34178D01*
X35965Y-34128D01*
X35905Y-34065D01*
X35857Y-33992D01*
X35825Y-33911D01*
X35809Y-33825D01*
X35809Y-33808D01*
X35389Y-33387D01*
X35383Y-33382D01*
X35381Y-33380D01*
X35380Y-33379D01*
X35358Y-33352D01*
X35342Y-33332D01*
X35341Y-33330D01*
X35340Y-33329D01*
X35332Y-33313D01*
X35312Y-33275D01*
X35293Y-33213D01*
X35287Y-33149D01*
X35287Y-33145D01*
X35287Y-33132D01*
X35267Y-33111D01*
X35219Y-33038D01*
X35187Y-32957D01*
X35171Y-32871D01*
X35173Y-32784D01*
X35191Y-32698D01*
X35225Y-32618D01*
X35254Y-32575D01*
X34982Y-32575D01*
X34982Y-32639D01*
X34962Y-32724D01*
X34927Y-32804D01*
X34877Y-32875D01*
X34868Y-32883D01*
X34868Y-33287D01*
X34868Y-33291D01*
X34865Y-33315D01*
X34862Y-33351D01*
X34861Y-33353D01*
X34861Y-33355D01*
X34857Y-33365D01*
X34843Y-33413D01*
X34812Y-33470D01*
X34794Y-33491D01*
X34769Y-33522D01*
X34764Y-33525D01*
X34223Y-34066D01*
X34218Y-34073D01*
X34216Y-34074D01*
X34215Y-34076D01*
X34187Y-34097D01*
X34168Y-34114D01*
X34166Y-34114D01*
X34165Y-34116D01*
X34148Y-34124D01*
X34111Y-34144D01*
X34049Y-34163D01*
X33985Y-34169D01*
X33981Y-34169D01*
X33663Y-34169D01*
X33669Y-34178D01*
X33689Y-34227D01*
X33699Y-34279D01*
X33699Y-34729D01*
X34252Y-34729D01*
X34256Y-34729D01*
X34280Y-34731D01*
X34316Y-34735D01*
X34318Y-34735D01*
X34320Y-34736D01*
X34330Y-34739D01*
X34378Y-34754D01*
X34411Y-34772D01*
X34455Y-34772D01*
X34541Y-34790D01*
X34621Y-34823D01*
X34694Y-34872D01*
X34755Y-34934D01*
X34804Y-35007D01*
X34837Y-35087D01*
X34854Y-35173D01*
X34853Y-35273D01*
X34833Y-35358D01*
X34798Y-35438D01*
X34748Y-35509D01*
X34685Y-35569D01*
X34611Y-35616D01*
X34530Y-35648D01*
X34444Y-35663D01*
X34356Y-35661D01*
X34271Y-35642D01*
X34191Y-35608D01*
X34119Y-35558D01*
X34059Y-35495D01*
X34011Y-35422D01*
X33997Y-35389D01*
X33699Y-35389D01*
X33699Y-35974D01*
X33688Y-36026D01*
X33667Y-36074D01*
X33638Y-36118D01*
X33600Y-36156D01*
X33556Y-36185D01*
X33507Y-36205D01*
X33486Y-36208D01*
X33482Y-36219D01*
X33482Y-36219D01*
G37*
G54D22*
X33482Y-36219D02*
X33478Y-36233D01*
X34503Y-36125D01*
X36049Y-35647D01*
X37460Y-34884D01*
X38696Y-33861D01*
X39718Y-32607D01*
X40472Y-31191D01*
X40936Y-29653D01*
X41019Y-28801D01*
X37347Y-32472D01*
X37342Y-32479D01*
X37340Y-32480D01*
X37339Y-32482D01*
X37312Y-32503D01*
X37292Y-32520D01*
X37290Y-32520D01*
X37289Y-32522D01*
X37272Y-32530D01*
X37235Y-32550D01*
X37173Y-32569D01*
X37109Y-32575D01*
X37105Y-32575D01*
X35979Y-32575D01*
X36012Y-32623D01*
X36045Y-32703D01*
X36062Y-32789D01*
X36061Y-32889D01*
X36041Y-32974D01*
X36006Y-33054D01*
X35998Y-33064D01*
X36276Y-33342D01*
X36301Y-33342D01*
X36387Y-33360D01*
X36467Y-33393D01*
X36540Y-33442D01*
X36601Y-33504D01*
X36650Y-33577D01*
X36683Y-33657D01*
X36700Y-33743D01*
X36699Y-33843D01*
X36679Y-33928D01*
X36644Y-34008D01*
X36594Y-34079D01*
X36531Y-34139D01*
X36457Y-34186D01*
X36376Y-34218D01*
X36290Y-34233D01*
X36202Y-34231D01*
X36117Y-34212D01*
X36037Y-34178D01*
X35965Y-34128D01*
X35905Y-34065D01*
X35857Y-33992D01*
X35825Y-33911D01*
X35809Y-33825D01*
X35809Y-33808D01*
X35389Y-33387D01*
X35383Y-33382D01*
X35381Y-33380D01*
X35380Y-33379D01*
X35358Y-33352D01*
X35342Y-33332D01*
X35341Y-33330D01*
X35340Y-33329D01*
X35332Y-33313D01*
X35312Y-33275D01*
X35293Y-33213D01*
X35287Y-33149D01*
X35287Y-33145D01*
X35287Y-33132D01*
X35267Y-33111D01*
X35219Y-33038D01*
X35187Y-32957D01*
X35171Y-32871D01*
X35173Y-32784D01*
X35191Y-32698D01*
X35225Y-32618D01*
X35254Y-32575D01*
X34982Y-32575D01*
X34982Y-32639D01*
X34962Y-32724D01*
X34927Y-32804D01*
X34877Y-32875D01*
X34868Y-32883D01*
X34868Y-33287D01*
X34868Y-33291D01*
X34865Y-33315D01*
X34862Y-33351D01*
X34861Y-33353D01*
X34861Y-33355D01*
X34857Y-33365D01*
X34843Y-33413D01*
X34812Y-33470D01*
X34794Y-33491D01*
X34769Y-33522D01*
X34764Y-33525D01*
X34223Y-34066D01*
X34218Y-34073D01*
X34216Y-34074D01*
X34215Y-34076D01*
X34187Y-34097D01*
X34168Y-34114D01*
X34166Y-34114D01*
X34165Y-34116D01*
X34148Y-34124D01*
X34111Y-34144D01*
X34049Y-34163D01*
X33985Y-34169D01*
X33981Y-34169D01*
X33663Y-34169D01*
X33669Y-34178D01*
X33689Y-34227D01*
X33699Y-34279D01*
X33699Y-34729D01*
X34252Y-34729D01*
X34256Y-34729D01*
X34280Y-34731D01*
X34316Y-34735D01*
X34318Y-34735D01*
X34320Y-34736D01*
X34330Y-34739D01*
X34378Y-34754D01*
X34411Y-34772D01*
X34455Y-34772D01*
X34541Y-34790D01*
X34621Y-34823D01*
X34694Y-34872D01*
X34755Y-34934D01*
X34804Y-35007D01*
X34837Y-35087D01*
X34854Y-35173D01*
X34853Y-35273D01*
X34833Y-35358D01*
X34798Y-35438D01*
X34748Y-35509D01*
X34685Y-35569D01*
X34611Y-35616D01*
X34530Y-35648D01*
X34444Y-35663D01*
X34356Y-35661D01*
X34271Y-35642D01*
X34191Y-35608D01*
X34119Y-35558D01*
X34059Y-35495D01*
X34011Y-35422D01*
X33997Y-35389D01*
X33699Y-35389D01*
X33699Y-35974D01*
X33688Y-36026D01*
X33667Y-36074D01*
X33638Y-36118D01*
X33600Y-36156D01*
X33556Y-36185D01*
X33507Y-36205D01*
X33486Y-36208D01*
X33482Y-36219D01*
G54D10*
G36*
X31246Y-36136D02*
X31639Y-36174D01*
X29488Y-34023D01*
X29482Y-34018D01*
X29480Y-34016D01*
X29479Y-34015D01*
X29457Y-33987D01*
X29441Y-33968D01*
X29440Y-33966D01*
X29439Y-33965D01*
X29430Y-33948D01*
X29411Y-33911D01*
X29392Y-33849D01*
X29386Y-33785D01*
X29386Y-33781D01*
X29386Y-32501D01*
X29145Y-32260D01*
X29145Y-32341D01*
X29161Y-32358D01*
X29210Y-32431D01*
X29243Y-32511D01*
X29260Y-32597D01*
X29259Y-32697D01*
X29239Y-32782D01*
X29204Y-32862D01*
X29154Y-32933D01*
X29091Y-32993D01*
X29017Y-33040D01*
X28936Y-33072D01*
X28850Y-33087D01*
X28762Y-33085D01*
X28677Y-33066D01*
X28597Y-33032D01*
X28525Y-32982D01*
X28465Y-32919D01*
X28417Y-32846D01*
X28385Y-32765D01*
X28369Y-32679D01*
X28371Y-32592D01*
X28389Y-32506D01*
X28405Y-32466D01*
X28339Y-32452D01*
X28259Y-32418D01*
X28187Y-32368D01*
X28127Y-32305D01*
X28079Y-32232D01*
X28062Y-32189D01*
X25248Y-29375D01*
X25242Y-29370D01*
X25240Y-29368D01*
X25239Y-29367D01*
X25217Y-29339D01*
X25201Y-29320D01*
X25200Y-29318D01*
X25199Y-29317D01*
X25191Y-29301D01*
X25171Y-29263D01*
X25152Y-29201D01*
X25146Y-29137D01*
X25146Y-29133D01*
X25146Y-28455D01*
X25140Y-28454D01*
X25092Y-28433D01*
X25048Y-28404D01*
X25010Y-28366D01*
X24981Y-28322D01*
X24961Y-28273D01*
X24951Y-28221D01*
X24951Y-27576D01*
X24962Y-27524D01*
X24983Y-27476D01*
X25012Y-27432D01*
X25050Y-27394D01*
X25094Y-27365D01*
X25143Y-27345D01*
X25146Y-27344D01*
X25146Y-26444D01*
X25146Y-26440D01*
X25148Y-26416D01*
X25152Y-26380D01*
X25152Y-26377D01*
X25153Y-26376D01*
X25156Y-26365D01*
X25171Y-26318D01*
X25202Y-26261D01*
X25219Y-26239D01*
X25245Y-26209D01*
X25249Y-26205D01*
X25414Y-26040D01*
X25389Y-26015D01*
X25360Y-25971D01*
X25340Y-25922D01*
X25330Y-25870D01*
X25330Y-25107D01*
X25341Y-25055D01*
X25362Y-25007D01*
X25391Y-24963D01*
X25429Y-24925D01*
X25473Y-24896D01*
X25522Y-24876D01*
X25574Y-24866D01*
X25584Y-24866D01*
X25584Y-24435D01*
X25584Y-24431D01*
X25586Y-24406D01*
X25590Y-24371D01*
X25590Y-24368D01*
X25591Y-24367D01*
X25594Y-24356D01*
X25609Y-24309D01*
X25640Y-24252D01*
X25657Y-24230D01*
X25683Y-24200D01*
X25687Y-24196D01*
X29170Y-20712D01*
X28244Y-21212D01*
X26998Y-22243D01*
X25982Y-23488D01*
X25227Y-24908D01*
X24763Y-26447D01*
X24605Y-28064D01*
X24605Y-28091D01*
X24774Y-29703D01*
X25252Y-31249D01*
X26015Y-32660D01*
X27038Y-33896D01*
X28292Y-34918D01*
X29708Y-35672D01*
X31246Y-36136D01*
X31246Y-36136D01*
G37*
G54D22*
X31246Y-36136D02*
X31639Y-36174D01*
X29488Y-34023D01*
X29482Y-34018D01*
X29480Y-34016D01*
X29479Y-34015D01*
X29457Y-33987D01*
X29441Y-33968D01*
X29440Y-33966D01*
X29439Y-33965D01*
X29430Y-33948D01*
X29411Y-33911D01*
X29392Y-33849D01*
X29386Y-33785D01*
X29386Y-33781D01*
X29386Y-32501D01*
X29145Y-32260D01*
X29145Y-32341D01*
X29161Y-32358D01*
X29210Y-32431D01*
X29243Y-32511D01*
X29260Y-32597D01*
X29259Y-32697D01*
X29239Y-32782D01*
X29204Y-32862D01*
X29154Y-32933D01*
X29091Y-32993D01*
X29017Y-33040D01*
X28936Y-33072D01*
X28850Y-33087D01*
X28762Y-33085D01*
X28677Y-33066D01*
X28597Y-33032D01*
X28525Y-32982D01*
X28465Y-32919D01*
X28417Y-32846D01*
X28385Y-32765D01*
X28369Y-32679D01*
X28371Y-32592D01*
X28389Y-32506D01*
X28405Y-32466D01*
X28339Y-32452D01*
X28259Y-32418D01*
X28187Y-32368D01*
X28127Y-32305D01*
X28079Y-32232D01*
X28062Y-32189D01*
X25248Y-29375D01*
X25242Y-29370D01*
X25240Y-29368D01*
X25239Y-29367D01*
X25217Y-29339D01*
X25201Y-29320D01*
X25200Y-29318D01*
X25199Y-29317D01*
X25191Y-29301D01*
X25171Y-29263D01*
X25152Y-29201D01*
X25146Y-29137D01*
X25146Y-29133D01*
X25146Y-28455D01*
X25140Y-28454D01*
X25092Y-28433D01*
X25048Y-28404D01*
X25010Y-28366D01*
X24981Y-28322D01*
X24961Y-28273D01*
X24951Y-28221D01*
X24951Y-27576D01*
X24962Y-27524D01*
X24983Y-27476D01*
X25012Y-27432D01*
X25050Y-27394D01*
X25094Y-27365D01*
X25143Y-27345D01*
X25146Y-27344D01*
X25146Y-26444D01*
X25146Y-26440D01*
X25148Y-26416D01*
X25152Y-26380D01*
X25152Y-26377D01*
X25153Y-26376D01*
X25156Y-26365D01*
X25171Y-26318D01*
X25202Y-26261D01*
X25219Y-26239D01*
X25245Y-26209D01*
X25249Y-26205D01*
X25414Y-26040D01*
X25389Y-26015D01*
X25360Y-25971D01*
X25340Y-25922D01*
X25330Y-25870D01*
X25330Y-25107D01*
X25341Y-25055D01*
X25362Y-25007D01*
X25391Y-24963D01*
X25429Y-24925D01*
X25473Y-24896D01*
X25522Y-24876D01*
X25574Y-24866D01*
X25584Y-24866D01*
X25584Y-24435D01*
X25584Y-24431D01*
X25586Y-24406D01*
X25590Y-24371D01*
X25590Y-24368D01*
X25591Y-24367D01*
X25594Y-24356D01*
X25609Y-24309D01*
X25640Y-24252D01*
X25657Y-24230D01*
X25683Y-24200D01*
X25687Y-24196D01*
X29170Y-20712D01*
X28244Y-21212D01*
X26998Y-22243D01*
X25982Y-23488D01*
X25227Y-24908D01*
X24763Y-26447D01*
X24605Y-28064D01*
X24605Y-28091D01*
X24774Y-29703D01*
X25252Y-31249D01*
X26015Y-32660D01*
X27038Y-33896D01*
X28292Y-34918D01*
X29708Y-35672D01*
X31246Y-36136D01*
G54D10*
G36*
X31901Y-35504D02*
X31901Y-35326D01*
X31912Y-35274D01*
X31933Y-35226D01*
X31962Y-35182D01*
X32000Y-35144D01*
X32029Y-35124D01*
X31998Y-35104D01*
X31960Y-35066D01*
X31931Y-35022D01*
X31911Y-34973D01*
X31901Y-34921D01*
X31901Y-34472D01*
X31518Y-34472D01*
X31518Y-34526D01*
X31498Y-34611D01*
X31463Y-34691D01*
X31413Y-34762D01*
X31350Y-34822D01*
X31276Y-34869D01*
X31268Y-34871D01*
X31901Y-35504D01*
X31901Y-35504D01*
G37*
G54D22*
X31901Y-35504D02*
X31901Y-35326D01*
X31912Y-35274D01*
X31933Y-35226D01*
X31962Y-35182D01*
X32000Y-35144D01*
X32029Y-35124D01*
X31998Y-35104D01*
X31960Y-35066D01*
X31931Y-35022D01*
X31911Y-34973D01*
X31901Y-34921D01*
X31901Y-34472D01*
X31518Y-34472D01*
X31518Y-34526D01*
X31498Y-34611D01*
X31463Y-34691D01*
X31413Y-34762D01*
X31350Y-34822D01*
X31276Y-34869D01*
X31268Y-34871D01*
X31901Y-35504D01*
G54D10*
G36*
X30106Y-33709D02*
X30106Y-32616D01*
X30053Y-32626D01*
X30046Y-32625D01*
X30046Y-33649D01*
X30106Y-33709D01*
X30106Y-33709D01*
G37*
G54D22*
X30106Y-33709D02*
X30106Y-32616D01*
X30053Y-32626D01*
X30046Y-32625D01*
X30046Y-33649D01*
X30106Y-33709D01*
G54D10*
G36*
X32345Y-33099D02*
X32345Y-33101D01*
X32360Y-33078D01*
X32342Y-33072D01*
X32341Y-33072D01*
X32340Y-33071D01*
X32339Y-33071D01*
X32345Y-33099D01*
X32345Y-33099D01*
G37*
G54D22*
X32345Y-33099D02*
X32345Y-33101D01*
X32360Y-33078D01*
X32342Y-33072D01*
X32341Y-33072D01*
X32340Y-33071D01*
X32339Y-33071D01*
X32345Y-33099D01*
G54D10*
G36*
X34208Y-33038D02*
X34208Y-32893D01*
X34206Y-32893D01*
X34205Y-32895D01*
X34188Y-32903D01*
X34151Y-32923D01*
X34092Y-32940D01*
X34149Y-32979D01*
X34208Y-33038D01*
X34208Y-33038D01*
G37*
G54D22*
X34208Y-33038D02*
X34208Y-32893D01*
X34206Y-32893D01*
X34205Y-32895D01*
X34188Y-32903D01*
X34151Y-32923D01*
X34092Y-32940D01*
X34149Y-32979D01*
X34208Y-33038D01*
G54D10*
G36*
X33300Y-31823D02*
X33362Y-31733D01*
X33442Y-31655D01*
X33524Y-31600D01*
X33521Y-31599D01*
X33430Y-31536D01*
X33352Y-31455D01*
X33300Y-31374D01*
X33297Y-31382D01*
X33233Y-31473D01*
X33152Y-31550D01*
X33075Y-31599D01*
X33164Y-31659D01*
X33243Y-31738D01*
X33300Y-31823D01*
X33300Y-31823D01*
G37*
G54D22*
X33300Y-31823D02*
X33362Y-31733D01*
X33442Y-31655D01*
X33524Y-31600D01*
X33521Y-31599D01*
X33430Y-31536D01*
X33352Y-31455D01*
X33300Y-31374D01*
X33297Y-31382D01*
X33233Y-31473D01*
X33152Y-31550D01*
X33075Y-31599D01*
X33164Y-31659D01*
X33243Y-31738D01*
X33300Y-31823D01*
G54D10*
G36*
X30106Y-31743D02*
X30106Y-31097D01*
X29981Y-31221D01*
X29976Y-31228D01*
X29974Y-31229D01*
X29973Y-31231D01*
X29945Y-31252D01*
X29926Y-31269D01*
X29924Y-31269D01*
X29923Y-31271D01*
X29907Y-31278D01*
X29869Y-31299D01*
X29807Y-31318D01*
X29743Y-31324D01*
X29739Y-31324D01*
X29628Y-31324D01*
X30039Y-31735D01*
X30064Y-31735D01*
X30106Y-31743D01*
X30106Y-31743D01*
G37*
G54D22*
X30106Y-31743D02*
X30106Y-31097D01*
X29981Y-31221D01*
X29976Y-31228D01*
X29974Y-31229D01*
X29973Y-31231D01*
X29945Y-31252D01*
X29926Y-31269D01*
X29924Y-31269D01*
X29923Y-31271D01*
X29907Y-31278D01*
X29869Y-31299D01*
X29807Y-31318D01*
X29743Y-31324D01*
X29739Y-31324D01*
X29628Y-31324D01*
X30039Y-31735D01*
X30064Y-31735D01*
X30106Y-31743D01*
G54D10*
G36*
X36864Y-31692D02*
X37135Y-31421D01*
X37127Y-31424D01*
X37063Y-31430D01*
X37059Y-31430D01*
X34263Y-31430D01*
X34233Y-31473D01*
X34152Y-31550D01*
X34075Y-31599D01*
X34164Y-31659D01*
X34197Y-31692D01*
X36864Y-31692D01*
X36864Y-31692D01*
G37*
G54D22*
X36864Y-31692D02*
X37135Y-31421D01*
X37127Y-31424D01*
X37063Y-31430D01*
X37059Y-31430D01*
X34263Y-31430D01*
X34233Y-31473D01*
X34152Y-31550D01*
X34075Y-31599D01*
X34164Y-31659D01*
X34197Y-31692D01*
X36864Y-31692D01*
G54D10*
G36*
X36926Y-30770D02*
X37523Y-30173D01*
X37482Y-30130D01*
X37434Y-30057D01*
X37402Y-29976D01*
X37386Y-29890D01*
X37386Y-29872D01*
X36839Y-29325D01*
X36844Y-29347D01*
X36842Y-29469D01*
X36819Y-29573D01*
X36775Y-29670D01*
X36714Y-29757D01*
X36636Y-29831D01*
X36546Y-29888D01*
X36515Y-29900D01*
X36560Y-29919D01*
X36649Y-29979D01*
X36724Y-30055D01*
X36783Y-30144D01*
X36823Y-30242D01*
X36844Y-30347D01*
X36842Y-30469D01*
X36819Y-30573D01*
X36775Y-30670D01*
X36714Y-30757D01*
X36700Y-30770D01*
X36926Y-30770D01*
X36926Y-30770D01*
G37*
G54D22*
X36926Y-30770D02*
X37523Y-30173D01*
X37482Y-30130D01*
X37434Y-30057D01*
X37402Y-29976D01*
X37386Y-29890D01*
X37386Y-29872D01*
X36839Y-29325D01*
X36844Y-29347D01*
X36842Y-29469D01*
X36819Y-29573D01*
X36775Y-29670D01*
X36714Y-29757D01*
X36636Y-29831D01*
X36546Y-29888D01*
X36515Y-29900D01*
X36560Y-29919D01*
X36649Y-29979D01*
X36724Y-30055D01*
X36783Y-30144D01*
X36823Y-30242D01*
X36844Y-30347D01*
X36842Y-30469D01*
X36819Y-30573D01*
X36775Y-30670D01*
X36714Y-30757D01*
X36700Y-30770D01*
X36926Y-30770D01*
G54D10*
G36*
X35900Y-30770D02*
X35871Y-30739D01*
X35814Y-30650D01*
X35775Y-30550D01*
X35755Y-30445D01*
X35757Y-30339D01*
X35759Y-30326D01*
X35748Y-30315D01*
X35696Y-30366D01*
X35622Y-30413D01*
X35541Y-30445D01*
X35455Y-30460D01*
X35397Y-30458D01*
X35348Y-30474D01*
X35284Y-30480D01*
X35280Y-30480D01*
X33886Y-30480D01*
X33835Y-30531D01*
X33860Y-30531D01*
X33969Y-30554D01*
X34072Y-30597D01*
X34164Y-30659D01*
X34243Y-30738D01*
X34264Y-30770D01*
X35900Y-30770D01*
X35900Y-30770D01*
G37*
G54D22*
X35900Y-30770D02*
X35871Y-30739D01*
X35814Y-30650D01*
X35775Y-30550D01*
X35755Y-30445D01*
X35757Y-30339D01*
X35759Y-30326D01*
X35748Y-30315D01*
X35696Y-30366D01*
X35622Y-30413D01*
X35541Y-30445D01*
X35455Y-30460D01*
X35397Y-30458D01*
X35348Y-30474D01*
X35284Y-30480D01*
X35280Y-30480D01*
X33886Y-30480D01*
X33835Y-30531D01*
X33860Y-30531D01*
X33969Y-30554D01*
X34072Y-30597D01*
X34164Y-30659D01*
X34243Y-30738D01*
X34264Y-30770D01*
X35900Y-30770D01*
G54D10*
G36*
X32709Y-30174D02*
X32709Y-30538D01*
X32748Y-30531D01*
X32860Y-30531D01*
X32895Y-30538D01*
X33291Y-30142D01*
X32706Y-30142D01*
X32709Y-30171D01*
X32709Y-30174D01*
X32709Y-30174D01*
G37*
G54D22*
X32709Y-30174D02*
X32709Y-30538D01*
X32748Y-30531D01*
X32860Y-30531D01*
X32895Y-30538D01*
X33291Y-30142D01*
X32706Y-30142D01*
X32709Y-30171D01*
X32709Y-30174D01*
G54D10*
G36*
X28792Y-30190D02*
X28816Y-30136D01*
X28877Y-30048D01*
X28953Y-29974D01*
X29042Y-29915D01*
X29080Y-29899D01*
X29028Y-29877D01*
X28940Y-29816D01*
X28866Y-29739D01*
X28828Y-29680D01*
X28607Y-29901D01*
X28626Y-29929D01*
X28659Y-30009D01*
X28676Y-30095D01*
X28675Y-30151D01*
X28696Y-30153D01*
X28698Y-30153D01*
X28700Y-30154D01*
X28710Y-30157D01*
X28758Y-30172D01*
X28792Y-30190D01*
X28792Y-30190D01*
G37*
G54D22*
X28792Y-30190D02*
X28816Y-30136D01*
X28877Y-30048D01*
X28953Y-29974D01*
X29042Y-29915D01*
X29080Y-29899D01*
X29028Y-29877D01*
X28940Y-29816D01*
X28866Y-29739D01*
X28828Y-29680D01*
X28607Y-29901D01*
X28626Y-29929D01*
X28659Y-30009D01*
X28676Y-30095D01*
X28675Y-30151D01*
X28696Y-30153D01*
X28698Y-30153D01*
X28700Y-30154D01*
X28710Y-30157D01*
X28758Y-30172D01*
X28792Y-30190D01*
G54D10*
G36*
X38494Y-30061D02*
X38493Y-30063D01*
X40091Y-28465D01*
X40040Y-28465D01*
X39988Y-28454D01*
X39951Y-28437D01*
X39909Y-28455D01*
X39857Y-28465D01*
X39487Y-28465D01*
X39487Y-28655D01*
X39487Y-28659D01*
X39484Y-28682D01*
X39481Y-28719D01*
X39480Y-28721D01*
X39480Y-28723D01*
X39461Y-28777D01*
X39461Y-28781D01*
X39460Y-28781D01*
X39460Y-28784D01*
X39448Y-28805D01*
X39431Y-28838D01*
X39390Y-28888D01*
X39388Y-28889D01*
X39388Y-28890D01*
X39387Y-28890D01*
X38501Y-29776D01*
X38501Y-29993D01*
X38501Y-29997D01*
X38494Y-30061D01*
X38494Y-30061D01*
G37*
G54D22*
X38494Y-30061D02*
X38493Y-30063D01*
X40091Y-28465D01*
X40040Y-28465D01*
X39988Y-28454D01*
X39951Y-28437D01*
X39909Y-28455D01*
X39857Y-28465D01*
X39487Y-28465D01*
X39487Y-28655D01*
X39487Y-28659D01*
X39484Y-28682D01*
X39481Y-28719D01*
X39480Y-28721D01*
X39480Y-28723D01*
X39461Y-28777D01*
X39461Y-28781D01*
X39460Y-28781D01*
X39460Y-28784D01*
X39448Y-28805D01*
X39431Y-28838D01*
X39390Y-28888D01*
X39388Y-28889D01*
X39388Y-28890D01*
X39387Y-28890D01*
X38501Y-29776D01*
X38501Y-29993D01*
X38501Y-29997D01*
X38494Y-30061D01*
G54D10*
G36*
X26731Y-29926D02*
X26731Y-28292D01*
X26717Y-28324D01*
X26688Y-28368D01*
X26650Y-28406D01*
X26606Y-28435D01*
X26557Y-28455D01*
X26505Y-28465D01*
X25940Y-28465D01*
X25888Y-28454D01*
X25851Y-28437D01*
X25809Y-28455D01*
X25806Y-28455D01*
X25806Y-29001D01*
X26731Y-29926D01*
X26731Y-29926D01*
G37*
G54D22*
X26731Y-29926D02*
X26731Y-28292D01*
X26717Y-28324D01*
X26688Y-28368D01*
X26650Y-28406D01*
X26606Y-28435D01*
X26557Y-28455D01*
X26505Y-28465D01*
X25940Y-28465D01*
X25888Y-28454D01*
X25851Y-28437D01*
X25809Y-28455D01*
X25806Y-28455D01*
X25806Y-29001D01*
X26731Y-29926D01*
G54D10*
G36*
X35019Y-29820D02*
X35025Y-29804D01*
X34670Y-29804D01*
X34670Y-29820D01*
X35019Y-29820D01*
X35019Y-29820D01*
G37*
G54D22*
X35019Y-29820D02*
X35025Y-29804D01*
X34670Y-29804D01*
X34670Y-29820D01*
X35019Y-29820D01*
G54D10*
G36*
X28208Y-27999D02*
X28208Y-29368D01*
X28854Y-28721D01*
X28809Y-28650D01*
X28770Y-28550D01*
X28750Y-28445D01*
X28752Y-28339D01*
X28774Y-28234D01*
X28816Y-28136D01*
X28855Y-28078D01*
X28430Y-27653D01*
X28322Y-27653D01*
X28323Y-27655D01*
X28322Y-27755D01*
X28302Y-27840D01*
X28267Y-27920D01*
X28217Y-27991D01*
X28208Y-27999D01*
X28208Y-27999D01*
G37*
G54D22*
X28208Y-27999D02*
X28208Y-29368D01*
X28854Y-28721D01*
X28809Y-28650D01*
X28770Y-28550D01*
X28750Y-28445D01*
X28752Y-28339D01*
X28774Y-28234D01*
X28816Y-28136D01*
X28855Y-28078D01*
X28430Y-27653D01*
X28322Y-27653D01*
X28323Y-27655D01*
X28322Y-27755D01*
X28302Y-27840D01*
X28267Y-27920D01*
X28217Y-27991D01*
X28208Y-27999D01*
G54D10*
G36*
X38023Y-29025D02*
X38017Y-29009D01*
X38001Y-28923D01*
X38003Y-28836D01*
X38021Y-28750D01*
X38055Y-28670D01*
X38104Y-28598D01*
X38117Y-28585D01*
X38117Y-27674D01*
X38097Y-27653D01*
X38049Y-27580D01*
X38017Y-27499D01*
X38001Y-27413D01*
X38003Y-27326D01*
X38021Y-27240D01*
X38025Y-27230D01*
X36818Y-27230D01*
X36823Y-27242D01*
X36844Y-27347D01*
X36842Y-27469D01*
X36819Y-27573D01*
X36775Y-27670D01*
X36730Y-27733D01*
X38023Y-29025D01*
X38023Y-29025D01*
G37*
G54D22*
X38023Y-29025D02*
X38017Y-29009D01*
X38001Y-28923D01*
X38003Y-28836D01*
X38021Y-28750D01*
X38055Y-28670D01*
X38104Y-28598D01*
X38117Y-28585D01*
X38117Y-27674D01*
X38097Y-27653D01*
X38049Y-27580D01*
X38017Y-27499D01*
X38001Y-27413D01*
X38003Y-27326D01*
X38021Y-27240D01*
X38025Y-27230D01*
X36818Y-27230D01*
X36823Y-27242D01*
X36844Y-27347D01*
X36842Y-27469D01*
X36819Y-27573D01*
X36775Y-27670D01*
X36730Y-27733D01*
X38023Y-29025D01*
G54D10*
G36*
X32472Y-28972D02*
X32473Y-28930D01*
X32491Y-28844D01*
X32525Y-28764D01*
X32548Y-28730D01*
X32257Y-28730D01*
X32263Y-28759D01*
X32262Y-28825D01*
X32304Y-28838D01*
X32361Y-28869D01*
X32382Y-28887D01*
X32413Y-28912D01*
X32417Y-28917D01*
X32472Y-28972D01*
X32472Y-28972D01*
G37*
G54D22*
X32472Y-28972D02*
X32473Y-28930D01*
X32491Y-28844D01*
X32525Y-28764D01*
X32548Y-28730D01*
X32257Y-28730D01*
X32263Y-28759D01*
X32262Y-28825D01*
X32304Y-28838D01*
X32361Y-28869D01*
X32382Y-28887D01*
X32413Y-28912D01*
X32417Y-28917D01*
X32472Y-28972D01*
G54D10*
G36*
X38777Y-27675D02*
X38777Y-28567D01*
X38827Y-28517D01*
X38827Y-27898D01*
X38827Y-27895D01*
X38834Y-27831D01*
X38848Y-27788D01*
X38853Y-27772D01*
X38853Y-27770D01*
X38854Y-27770D01*
X38855Y-27768D01*
X38883Y-27715D01*
X38924Y-27666D01*
X38925Y-27665D01*
X38926Y-27664D01*
X38943Y-27649D01*
X38974Y-27625D01*
X39031Y-27595D01*
X39031Y-27594D01*
X39033Y-27594D01*
X39051Y-27588D01*
X39051Y-27576D01*
X39062Y-27524D01*
X39083Y-27476D01*
X39112Y-27432D01*
X39150Y-27394D01*
X39194Y-27365D01*
X39243Y-27345D01*
X39295Y-27335D01*
X39860Y-27335D01*
X39912Y-27346D01*
X39948Y-27362D01*
X39978Y-27350D01*
X39858Y-27230D01*
X38868Y-27230D01*
X38875Y-27245D01*
X38892Y-27331D01*
X38891Y-27431D01*
X38871Y-27516D01*
X38836Y-27596D01*
X38786Y-27667D01*
X38777Y-27675D01*
X38777Y-27675D01*
G37*
G54D22*
X38777Y-27675D02*
X38777Y-28567D01*
X38827Y-28517D01*
X38827Y-27898D01*
X38827Y-27895D01*
X38834Y-27831D01*
X38848Y-27788D01*
X38853Y-27772D01*
X38853Y-27770D01*
X38854Y-27770D01*
X38855Y-27768D01*
X38883Y-27715D01*
X38924Y-27666D01*
X38925Y-27665D01*
X38926Y-27664D01*
X38943Y-27649D01*
X38974Y-27625D01*
X39031Y-27595D01*
X39031Y-27594D01*
X39033Y-27594D01*
X39051Y-27588D01*
X39051Y-27576D01*
X39062Y-27524D01*
X39083Y-27476D01*
X39112Y-27432D01*
X39150Y-27394D01*
X39194Y-27365D01*
X39243Y-27345D01*
X39295Y-27335D01*
X39860Y-27335D01*
X39912Y-27346D01*
X39948Y-27362D01*
X39978Y-27350D01*
X39858Y-27230D01*
X38868Y-27230D01*
X38875Y-27245D01*
X38892Y-27331D01*
X38891Y-27431D01*
X38871Y-27516D01*
X38836Y-27596D01*
X38786Y-27667D01*
X38777Y-27675D01*
G54D10*
G36*
X27548Y-28062D02*
X27548Y-28038D01*
X27534Y-28057D01*
X27537Y-28058D01*
X27548Y-28062D01*
X27548Y-28062D01*
G37*
G54D22*
X27548Y-28062D02*
X27548Y-28038D01*
X27534Y-28057D01*
X27537Y-28058D01*
X27548Y-28062D01*
G54D10*
G36*
X25848Y-27362D02*
X25891Y-27345D01*
X25943Y-27335D01*
X26348Y-27335D01*
X26369Y-27297D01*
X26387Y-27275D01*
X26412Y-27245D01*
X26416Y-27241D01*
X26567Y-27090D01*
X26568Y-27089D01*
X26571Y-27086D01*
X26597Y-27064D01*
X26618Y-27048D01*
X26619Y-27047D01*
X26621Y-27046D01*
X26644Y-27033D01*
X26675Y-27018D01*
X26677Y-27017D01*
X26678Y-27017D01*
X26682Y-27015D01*
X26737Y-26999D01*
X26801Y-26993D01*
X26804Y-26993D01*
X26888Y-26993D01*
X26665Y-26770D01*
X26634Y-26770D01*
X26549Y-26751D01*
X26469Y-26717D01*
X26397Y-26667D01*
X26337Y-26604D01*
X26289Y-26531D01*
X26257Y-26450D01*
X26241Y-26364D01*
X26243Y-26277D01*
X26261Y-26191D01*
X26295Y-26111D01*
X26298Y-26105D01*
X26254Y-26114D01*
X26224Y-26114D01*
X26218Y-26130D01*
X26218Y-26134D01*
X26217Y-26134D01*
X26217Y-26137D01*
X26205Y-26158D01*
X26188Y-26191D01*
X26147Y-26241D01*
X26145Y-26242D01*
X26145Y-26243D01*
X26144Y-26243D01*
X25806Y-26581D01*
X25806Y-27344D01*
X25812Y-27346D01*
X25848Y-27362D01*
X25848Y-27362D01*
G37*
G54D22*
X25848Y-27362D02*
X25891Y-27345D01*
X25943Y-27335D01*
X26348Y-27335D01*
X26369Y-27297D01*
X26387Y-27275D01*
X26412Y-27245D01*
X26416Y-27241D01*
X26567Y-27090D01*
X26568Y-27089D01*
X26571Y-27086D01*
X26597Y-27064D01*
X26618Y-27048D01*
X26619Y-27047D01*
X26621Y-27046D01*
X26644Y-27033D01*
X26675Y-27018D01*
X26677Y-27017D01*
X26678Y-27017D01*
X26682Y-27015D01*
X26737Y-26999D01*
X26801Y-26993D01*
X26804Y-26993D01*
X26888Y-26993D01*
X26665Y-26770D01*
X26634Y-26770D01*
X26549Y-26751D01*
X26469Y-26717D01*
X26397Y-26667D01*
X26337Y-26604D01*
X26289Y-26531D01*
X26257Y-26450D01*
X26241Y-26364D01*
X26243Y-26277D01*
X26261Y-26191D01*
X26295Y-26111D01*
X26298Y-26105D01*
X26254Y-26114D01*
X26224Y-26114D01*
X26218Y-26130D01*
X26218Y-26134D01*
X26217Y-26134D01*
X26217Y-26137D01*
X26205Y-26158D01*
X26188Y-26191D01*
X26147Y-26241D01*
X26145Y-26242D01*
X26145Y-26243D01*
X26144Y-26243D01*
X25806Y-26581D01*
X25806Y-27344D01*
X25812Y-27346D01*
X25848Y-27362D01*
G54D10*
G36*
X31675Y-27287D02*
X31648Y-27268D01*
X31588Y-27205D01*
X31540Y-27132D01*
X31508Y-27051D01*
X31492Y-26965D01*
X31494Y-26878D01*
X31512Y-26792D01*
X31546Y-26712D01*
X31595Y-26640D01*
X31608Y-26627D01*
X31608Y-25177D01*
X30972Y-25177D01*
X31261Y-25466D01*
X31268Y-25472D01*
X31269Y-25473D01*
X31271Y-25475D01*
X31292Y-25501D01*
X31309Y-25522D01*
X31309Y-25523D01*
X31311Y-25525D01*
X31318Y-25540D01*
X31339Y-25579D01*
X31358Y-25641D01*
X31364Y-25705D01*
X31364Y-25708D01*
X31364Y-26070D01*
X31380Y-26087D01*
X31429Y-26160D01*
X31462Y-26240D01*
X31479Y-26326D01*
X31478Y-26426D01*
X31458Y-26511D01*
X31423Y-26591D01*
X31373Y-26662D01*
X31310Y-26722D01*
X31236Y-26769D01*
X31155Y-26801D01*
X31069Y-26816D01*
X30981Y-26814D01*
X30896Y-26795D01*
X30816Y-26761D01*
X30744Y-26711D01*
X30684Y-26648D01*
X30636Y-26575D01*
X30604Y-26494D01*
X30588Y-26408D01*
X30590Y-26321D01*
X30608Y-26235D01*
X30642Y-26155D01*
X30691Y-26083D01*
X30704Y-26070D01*
X30704Y-25841D01*
X30444Y-25581D01*
X30444Y-25582D01*
X30444Y-25586D01*
X30441Y-25609D01*
X30438Y-25646D01*
X30437Y-25648D01*
X30437Y-25650D01*
X30433Y-25660D01*
X30419Y-25708D01*
X30388Y-25765D01*
X30347Y-25815D01*
X30345Y-25816D01*
X30345Y-25817D01*
X30344Y-25817D01*
X29834Y-26326D01*
X29839Y-26347D01*
X29837Y-26469D01*
X29814Y-26573D01*
X29770Y-26670D01*
X29748Y-26700D01*
X29751Y-26703D01*
X29880Y-26833D01*
X29905Y-26833D01*
X29991Y-26851D01*
X30071Y-26884D01*
X30144Y-26933D01*
X30205Y-26995D01*
X30254Y-27068D01*
X30287Y-27148D01*
X30304Y-27234D01*
X30303Y-27287D01*
X31675Y-27287D01*
X31675Y-27287D01*
G37*
G54D22*
X31675Y-27287D02*
X31648Y-27268D01*
X31588Y-27205D01*
X31540Y-27132D01*
X31508Y-27051D01*
X31492Y-26965D01*
X31494Y-26878D01*
X31512Y-26792D01*
X31546Y-26712D01*
X31595Y-26640D01*
X31608Y-26627D01*
X31608Y-25177D01*
X30972Y-25177D01*
X31261Y-25466D01*
X31268Y-25472D01*
X31269Y-25473D01*
X31271Y-25475D01*
X31292Y-25501D01*
X31309Y-25522D01*
X31309Y-25523D01*
X31311Y-25525D01*
X31318Y-25540D01*
X31339Y-25579D01*
X31358Y-25641D01*
X31364Y-25705D01*
X31364Y-25708D01*
X31364Y-26070D01*
X31380Y-26087D01*
X31429Y-26160D01*
X31462Y-26240D01*
X31479Y-26326D01*
X31478Y-26426D01*
X31458Y-26511D01*
X31423Y-26591D01*
X31373Y-26662D01*
X31310Y-26722D01*
X31236Y-26769D01*
X31155Y-26801D01*
X31069Y-26816D01*
X30981Y-26814D01*
X30896Y-26795D01*
X30816Y-26761D01*
X30744Y-26711D01*
X30684Y-26648D01*
X30636Y-26575D01*
X30604Y-26494D01*
X30588Y-26408D01*
X30590Y-26321D01*
X30608Y-26235D01*
X30642Y-26155D01*
X30691Y-26083D01*
X30704Y-26070D01*
X30704Y-25841D01*
X30444Y-25581D01*
X30444Y-25582D01*
X30444Y-25586D01*
X30441Y-25609D01*
X30438Y-25646D01*
X30437Y-25648D01*
X30437Y-25650D01*
X30433Y-25660D01*
X30419Y-25708D01*
X30388Y-25765D01*
X30347Y-25815D01*
X30345Y-25816D01*
X30345Y-25817D01*
X30344Y-25817D01*
X29834Y-26326D01*
X29839Y-26347D01*
X29837Y-26469D01*
X29814Y-26573D01*
X29770Y-26670D01*
X29748Y-26700D01*
X29751Y-26703D01*
X29880Y-26833D01*
X29905Y-26833D01*
X29991Y-26851D01*
X30071Y-26884D01*
X30144Y-26933D01*
X30205Y-26995D01*
X30254Y-27068D01*
X30287Y-27148D01*
X30304Y-27234D01*
X30303Y-27287D01*
X31675Y-27287D01*
G54D10*
G36*
X32362Y-27068D02*
X32352Y-27089D01*
X32397Y-27076D01*
X32461Y-27070D01*
X32464Y-27070D01*
X35820Y-27070D01*
X35072Y-26321D01*
X35066Y-26316D01*
X35064Y-26314D01*
X35063Y-26313D01*
X35041Y-26285D01*
X35025Y-26266D01*
X35024Y-26264D01*
X35023Y-26263D01*
X35015Y-26247D01*
X34995Y-26209D01*
X34976Y-26147D01*
X34970Y-26083D01*
X34970Y-26079D01*
X34970Y-24833D01*
X34945Y-24816D01*
X34871Y-24739D01*
X34814Y-24650D01*
X34800Y-24614D01*
X34775Y-24670D01*
X34714Y-24757D01*
X34636Y-24831D01*
X34546Y-24888D01*
X34447Y-24927D01*
X34342Y-24945D01*
X34235Y-24943D01*
X34131Y-24920D01*
X34033Y-24877D01*
X33945Y-24816D01*
X33871Y-24739D01*
X33814Y-24650D01*
X33800Y-24614D01*
X33775Y-24670D01*
X33714Y-24757D01*
X33636Y-24831D01*
X33546Y-24888D01*
X33447Y-24927D01*
X33342Y-24945D01*
X33235Y-24943D01*
X33131Y-24920D01*
X33083Y-24899D01*
X33071Y-24940D01*
X33040Y-24997D01*
X33022Y-25018D01*
X32997Y-25049D01*
X32992Y-25052D01*
X32970Y-25074D01*
X32965Y-25081D01*
X32963Y-25082D01*
X32962Y-25084D01*
X32935Y-25105D01*
X32915Y-25122D01*
X32913Y-25122D01*
X32912Y-25124D01*
X32895Y-25132D01*
X32858Y-25152D01*
X32796Y-25171D01*
X32732Y-25177D01*
X32728Y-25177D01*
X32268Y-25177D01*
X32268Y-26627D01*
X32284Y-26644D01*
X32333Y-26717D01*
X32366Y-26797D01*
X32383Y-26883D01*
X32382Y-26983D01*
X32362Y-27068D01*
X32362Y-27068D01*
G37*
G54D22*
X32362Y-27068D02*
X32352Y-27089D01*
X32397Y-27076D01*
X32461Y-27070D01*
X32464Y-27070D01*
X35820Y-27070D01*
X35072Y-26321D01*
X35066Y-26316D01*
X35064Y-26314D01*
X35063Y-26313D01*
X35041Y-26285D01*
X35025Y-26266D01*
X35024Y-26264D01*
X35023Y-26263D01*
X35015Y-26247D01*
X34995Y-26209D01*
X34976Y-26147D01*
X34970Y-26083D01*
X34970Y-26079D01*
X34970Y-24833D01*
X34945Y-24816D01*
X34871Y-24739D01*
X34814Y-24650D01*
X34800Y-24614D01*
X34775Y-24670D01*
X34714Y-24757D01*
X34636Y-24831D01*
X34546Y-24888D01*
X34447Y-24927D01*
X34342Y-24945D01*
X34235Y-24943D01*
X34131Y-24920D01*
X34033Y-24877D01*
X33945Y-24816D01*
X33871Y-24739D01*
X33814Y-24650D01*
X33800Y-24614D01*
X33775Y-24670D01*
X33714Y-24757D01*
X33636Y-24831D01*
X33546Y-24888D01*
X33447Y-24927D01*
X33342Y-24945D01*
X33235Y-24943D01*
X33131Y-24920D01*
X33083Y-24899D01*
X33071Y-24940D01*
X33040Y-24997D01*
X33022Y-25018D01*
X32997Y-25049D01*
X32992Y-25052D01*
X32970Y-25074D01*
X32965Y-25081D01*
X32963Y-25082D01*
X32962Y-25084D01*
X32935Y-25105D01*
X32915Y-25122D01*
X32913Y-25122D01*
X32912Y-25124D01*
X32895Y-25132D01*
X32858Y-25152D01*
X32796Y-25171D01*
X32732Y-25177D01*
X32728Y-25177D01*
X32268Y-25177D01*
X32268Y-26627D01*
X32284Y-26644D01*
X32333Y-26717D01*
X32366Y-26797D01*
X32383Y-26883D01*
X32382Y-26983D01*
X32362Y-27068D01*
G54D10*
G36*
X28136Y-26600D02*
X27544Y-26008D01*
X27539Y-26017D01*
X27501Y-26055D01*
X27457Y-26084D01*
X27408Y-26104D01*
X27356Y-26114D01*
X27080Y-26114D01*
X27082Y-26116D01*
X27115Y-26196D01*
X27132Y-26282D01*
X27131Y-26304D01*
X27427Y-26600D01*
X28136Y-26600D01*
X28136Y-26600D01*
G37*
G54D22*
X28136Y-26600D02*
X27544Y-26008D01*
X27539Y-26017D01*
X27501Y-26055D01*
X27457Y-26084D01*
X27408Y-26104D01*
X27356Y-26114D01*
X27080Y-26114D01*
X27082Y-26116D01*
X27115Y-26196D01*
X27132Y-26282D01*
X27131Y-26304D01*
X27427Y-26600D01*
X28136Y-26600D01*
G54D10*
G36*
X39595Y-26570D02*
X39293Y-26268D01*
X39131Y-26268D01*
X39128Y-26268D01*
X39064Y-26261D01*
X39021Y-26246D01*
X39005Y-26242D01*
X39003Y-26241D01*
X39003Y-26241D01*
X39001Y-26239D01*
X38948Y-26212D01*
X38899Y-26171D01*
X38898Y-26169D01*
X38897Y-26169D01*
X38882Y-26151D01*
X38858Y-26121D01*
X38828Y-26064D01*
X38827Y-26063D01*
X38827Y-26062D01*
X38820Y-26038D01*
X38797Y-26034D01*
X38749Y-26013D01*
X38705Y-25984D01*
X38667Y-25946D01*
X38638Y-25902D01*
X38618Y-25853D01*
X38609Y-25810D01*
X37069Y-25810D01*
X37069Y-25962D01*
X37069Y-25966D01*
X37062Y-26030D01*
X37043Y-26086D01*
X37043Y-26088D01*
X37042Y-26088D01*
X37042Y-26091D01*
X37030Y-26112D01*
X37013Y-26145D01*
X36972Y-26195D01*
X36970Y-26196D01*
X36970Y-26197D01*
X36969Y-26197D01*
X36839Y-26326D01*
X36844Y-26347D01*
X36842Y-26469D01*
X36819Y-26570D01*
X39595Y-26570D01*
X39595Y-26570D01*
G37*
G54D22*
X39595Y-26570D02*
X39293Y-26268D01*
X39131Y-26268D01*
X39128Y-26268D01*
X39064Y-26261D01*
X39021Y-26246D01*
X39005Y-26242D01*
X39003Y-26241D01*
X39003Y-26241D01*
X39001Y-26239D01*
X38948Y-26212D01*
X38899Y-26171D01*
X38898Y-26169D01*
X38897Y-26169D01*
X38882Y-26151D01*
X38858Y-26121D01*
X38828Y-26064D01*
X38827Y-26063D01*
X38827Y-26062D01*
X38820Y-26038D01*
X38797Y-26034D01*
X38749Y-26013D01*
X38705Y-25984D01*
X38667Y-25946D01*
X38638Y-25902D01*
X38618Y-25853D01*
X38609Y-25810D01*
X37069Y-25810D01*
X37069Y-25962D01*
X37069Y-25966D01*
X37062Y-26030D01*
X37043Y-26086D01*
X37043Y-26088D01*
X37042Y-26088D01*
X37042Y-26091D01*
X37030Y-26112D01*
X37013Y-26145D01*
X36972Y-26195D01*
X36970Y-26196D01*
X36970Y-26197D01*
X36969Y-26197D01*
X36839Y-26326D01*
X36844Y-26347D01*
X36842Y-26469D01*
X36819Y-26570D01*
X39595Y-26570D01*
G54D10*
G36*
X40935Y-26497D02*
X40923Y-26386D01*
X40449Y-24856D01*
X39687Y-23444D01*
X38656Y-22198D01*
X37411Y-21182D01*
X35991Y-20427D01*
X34452Y-19963D01*
X32835Y-19805D01*
X32808Y-19805D01*
X31186Y-19976D01*
X29656Y-20450D01*
X29636Y-20461D01*
X30986Y-20461D01*
X31003Y-20423D01*
X31032Y-20379D01*
X31070Y-20341D01*
X31114Y-20312D01*
X31163Y-20292D01*
X31215Y-20282D01*
X32148Y-20282D01*
X32200Y-20293D01*
X32248Y-20314D01*
X32292Y-20343D01*
X32330Y-20381D01*
X32359Y-20425D01*
X32379Y-20474D01*
X32379Y-20477D01*
X32394Y-20482D01*
X32411Y-20487D01*
X32412Y-20487D01*
X32413Y-20488D01*
X32414Y-20489D01*
X32431Y-20498D01*
X35408Y-20498D01*
X35412Y-20498D01*
X35435Y-20500D01*
X35472Y-20504D01*
X35474Y-20504D01*
X35476Y-20505D01*
X35486Y-20508D01*
X35534Y-20523D01*
X35591Y-20554D01*
X35612Y-20571D01*
X35643Y-20597D01*
X35646Y-20601D01*
X35883Y-20837D01*
X35883Y-20837D01*
X35884Y-20838D01*
X35925Y-20888D01*
X35925Y-20889D01*
X35927Y-20891D01*
X35939Y-20915D01*
X35955Y-20945D01*
X35955Y-20947D01*
X35956Y-20948D01*
X35956Y-20950D01*
X35961Y-20965D01*
X36033Y-20965D01*
X36085Y-20976D01*
X36133Y-20997D01*
X36177Y-21026D01*
X36215Y-21064D01*
X36244Y-21108D01*
X36264Y-21157D01*
X36274Y-21209D01*
X36274Y-21219D01*
X36870Y-21219D01*
X36874Y-21219D01*
X36898Y-21221D01*
X36934Y-21225D01*
X36936Y-21225D01*
X36938Y-21226D01*
X36948Y-21229D01*
X36996Y-21244D01*
X37053Y-21275D01*
X37074Y-21292D01*
X37105Y-21318D01*
X37108Y-21322D01*
X40114Y-24327D01*
X40114Y-24327D01*
X40115Y-24328D01*
X40156Y-24378D01*
X40156Y-24379D01*
X40158Y-24381D01*
X40170Y-24404D01*
X40186Y-24435D01*
X40186Y-24437D01*
X40187Y-24438D01*
X40187Y-24440D01*
X40205Y-24497D01*
X40211Y-24561D01*
X40211Y-24564D01*
X40211Y-24924D01*
X40217Y-24926D01*
X40265Y-24947D01*
X40309Y-24976D01*
X40347Y-25014D01*
X40376Y-25058D01*
X40396Y-25107D01*
X40406Y-25159D01*
X40406Y-25804D01*
X40404Y-25809D01*
X40445Y-25869D01*
X40478Y-25949D01*
X40495Y-26035D01*
X40494Y-26057D01*
X40935Y-26497D01*
X40935Y-26497D01*
G37*
G54D22*
X40935Y-26497D02*
X40923Y-26386D01*
X40449Y-24856D01*
X39687Y-23444D01*
X38656Y-22198D01*
X37411Y-21182D01*
X35991Y-20427D01*
X34452Y-19963D01*
X32835Y-19805D01*
X32808Y-19805D01*
X31186Y-19976D01*
X29656Y-20450D01*
X29636Y-20461D01*
X30986Y-20461D01*
X31003Y-20423D01*
X31032Y-20379D01*
X31070Y-20341D01*
X31114Y-20312D01*
X31163Y-20292D01*
X31215Y-20282D01*
X32148Y-20282D01*
X32200Y-20293D01*
X32248Y-20314D01*
X32292Y-20343D01*
X32330Y-20381D01*
X32359Y-20425D01*
X32379Y-20474D01*
X32379Y-20477D01*
X32394Y-20482D01*
X32411Y-20487D01*
X32412Y-20487D01*
X32413Y-20488D01*
X32414Y-20489D01*
X32431Y-20498D01*
X35408Y-20498D01*
X35412Y-20498D01*
X35435Y-20500D01*
X35472Y-20504D01*
X35474Y-20504D01*
X35476Y-20505D01*
X35486Y-20508D01*
X35534Y-20523D01*
X35591Y-20554D01*
X35612Y-20571D01*
X35643Y-20597D01*
X35646Y-20601D01*
X35883Y-20837D01*
X35883Y-20837D01*
X35884Y-20838D01*
X35925Y-20888D01*
X35925Y-20889D01*
X35927Y-20891D01*
X35939Y-20915D01*
X35955Y-20945D01*
X35955Y-20947D01*
X35956Y-20948D01*
X35956Y-20950D01*
X35961Y-20965D01*
X36033Y-20965D01*
X36085Y-20976D01*
X36133Y-20997D01*
X36177Y-21026D01*
X36215Y-21064D01*
X36244Y-21108D01*
X36264Y-21157D01*
X36274Y-21209D01*
X36274Y-21219D01*
X36870Y-21219D01*
X36874Y-21219D01*
X36898Y-21221D01*
X36934Y-21225D01*
X36936Y-21225D01*
X36938Y-21226D01*
X36948Y-21229D01*
X36996Y-21244D01*
X37053Y-21275D01*
X37074Y-21292D01*
X37105Y-21318D01*
X37108Y-21322D01*
X40114Y-24327D01*
X40114Y-24327D01*
X40115Y-24328D01*
X40156Y-24378D01*
X40156Y-24379D01*
X40158Y-24381D01*
X40170Y-24404D01*
X40186Y-24435D01*
X40186Y-24437D01*
X40187Y-24438D01*
X40187Y-24440D01*
X40205Y-24497D01*
X40211Y-24561D01*
X40211Y-24564D01*
X40211Y-24924D01*
X40217Y-24926D01*
X40265Y-24947D01*
X40309Y-24976D01*
X40347Y-25014D01*
X40376Y-25058D01*
X40396Y-25107D01*
X40406Y-25159D01*
X40406Y-25804D01*
X40404Y-25809D01*
X40445Y-25869D01*
X40478Y-25949D01*
X40495Y-26035D01*
X40494Y-26057D01*
X40935Y-26497D01*
G54D10*
G36*
X35820Y-26137D02*
X35821Y-26136D01*
X35882Y-26048D01*
X35958Y-25974D01*
X36001Y-25945D01*
X35996Y-25945D01*
X35944Y-25934D01*
X35896Y-25913D01*
X35852Y-25884D01*
X35814Y-25846D01*
X35785Y-25802D01*
X35765Y-25753D01*
X35755Y-25701D01*
X35755Y-25096D01*
X35766Y-25044D01*
X35787Y-24996D01*
X35816Y-24952D01*
X35854Y-24914D01*
X35898Y-24885D01*
X35947Y-24865D01*
X35999Y-24855D01*
X36409Y-24855D01*
X36409Y-24353D01*
X35514Y-23458D01*
X33769Y-23458D01*
X33368Y-23858D01*
X33462Y-23878D01*
X33560Y-23919D01*
X33649Y-23979D01*
X33724Y-24055D01*
X33783Y-24144D01*
X33799Y-24185D01*
X33821Y-24136D01*
X33882Y-24048D01*
X33958Y-23974D01*
X34047Y-23915D01*
X34146Y-23876D01*
X34251Y-23856D01*
X34357Y-23856D01*
X34462Y-23878D01*
X34560Y-23919D01*
X34649Y-23979D01*
X34724Y-24055D01*
X34783Y-24144D01*
X34799Y-24185D01*
X34821Y-24136D01*
X34882Y-24048D01*
X34958Y-23974D01*
X35047Y-23915D01*
X35146Y-23876D01*
X35251Y-23856D01*
X35357Y-23856D01*
X35462Y-23878D01*
X35560Y-23919D01*
X35649Y-23979D01*
X35724Y-24055D01*
X35783Y-24144D01*
X35823Y-24242D01*
X35844Y-24347D01*
X35842Y-24469D01*
X35819Y-24573D01*
X35775Y-24670D01*
X35714Y-24757D01*
X35636Y-24831D01*
X35630Y-24834D01*
X35630Y-25946D01*
X35820Y-26137D01*
X35820Y-26137D01*
G37*
G54D22*
X35820Y-26137D02*
X35821Y-26136D01*
X35882Y-26048D01*
X35958Y-25974D01*
X36001Y-25945D01*
X35996Y-25945D01*
X35944Y-25934D01*
X35896Y-25913D01*
X35852Y-25884D01*
X35814Y-25846D01*
X35785Y-25802D01*
X35765Y-25753D01*
X35755Y-25701D01*
X35755Y-25096D01*
X35766Y-25044D01*
X35787Y-24996D01*
X35816Y-24952D01*
X35854Y-24914D01*
X35898Y-24885D01*
X35947Y-24865D01*
X35999Y-24855D01*
X36409Y-24855D01*
X36409Y-24353D01*
X35514Y-23458D01*
X33769Y-23458D01*
X33368Y-23858D01*
X33462Y-23878D01*
X33560Y-23919D01*
X33649Y-23979D01*
X33724Y-24055D01*
X33783Y-24144D01*
X33799Y-24185D01*
X33821Y-24136D01*
X33882Y-24048D01*
X33958Y-23974D01*
X34047Y-23915D01*
X34146Y-23876D01*
X34251Y-23856D01*
X34357Y-23856D01*
X34462Y-23878D01*
X34560Y-23919D01*
X34649Y-23979D01*
X34724Y-24055D01*
X34783Y-24144D01*
X34799Y-24185D01*
X34821Y-24136D01*
X34882Y-24048D01*
X34958Y-23974D01*
X35047Y-23915D01*
X35146Y-23876D01*
X35251Y-23856D01*
X35357Y-23856D01*
X35462Y-23878D01*
X35560Y-23919D01*
X35649Y-23979D01*
X35724Y-24055D01*
X35783Y-24144D01*
X35823Y-24242D01*
X35844Y-24347D01*
X35842Y-24469D01*
X35819Y-24573D01*
X35775Y-24670D01*
X35714Y-24757D01*
X35636Y-24831D01*
X35630Y-24834D01*
X35630Y-25946D01*
X35820Y-26137D01*
G54D10*
G36*
X28861Y-26070D02*
X28877Y-26048D01*
X28953Y-25974D01*
X28996Y-25945D01*
X28991Y-25945D01*
X28939Y-25934D01*
X28891Y-25913D01*
X28847Y-25884D01*
X28809Y-25846D01*
X28780Y-25802D01*
X28760Y-25753D01*
X28750Y-25701D01*
X28750Y-25316D01*
X28714Y-25316D01*
X28629Y-25297D01*
X28549Y-25263D01*
X28477Y-25213D01*
X28466Y-25202D01*
X27651Y-25202D01*
X27677Y-25216D01*
X27698Y-25233D01*
X27729Y-25259D01*
X27732Y-25263D01*
X28539Y-26070D01*
X28861Y-26070D01*
X28861Y-26070D01*
G37*
G54D22*
X28861Y-26070D02*
X28877Y-26048D01*
X28953Y-25974D01*
X28996Y-25945D01*
X28991Y-25945D01*
X28939Y-25934D01*
X28891Y-25913D01*
X28847Y-25884D01*
X28809Y-25846D01*
X28780Y-25802D01*
X28760Y-25753D01*
X28750Y-25701D01*
X28750Y-25316D01*
X28714Y-25316D01*
X28629Y-25297D01*
X28549Y-25263D01*
X28477Y-25213D01*
X28466Y-25202D01*
X27651Y-25202D01*
X27677Y-25216D01*
X27698Y-25233D01*
X27729Y-25259D01*
X27732Y-25263D01*
X28539Y-26070D01*
X28861Y-26070D01*
G54D10*
G36*
X38609Y-25150D02*
X38619Y-25104D01*
X38640Y-25056D01*
X38669Y-25012D01*
X38707Y-24974D01*
X38751Y-24945D01*
X38800Y-24925D01*
X38852Y-24915D01*
X39417Y-24915D01*
X39469Y-24926D01*
X39505Y-24942D01*
X39548Y-24925D01*
X39551Y-24924D01*
X39551Y-24697D01*
X36732Y-21879D01*
X36274Y-21879D01*
X36274Y-21892D01*
X36263Y-21944D01*
X36242Y-21992D01*
X36213Y-22036D01*
X36175Y-22074D01*
X36135Y-22100D01*
X36177Y-22128D01*
X36215Y-22166D01*
X36244Y-22210D01*
X36264Y-22259D01*
X36274Y-22311D01*
X36274Y-22994D01*
X36263Y-23046D01*
X36242Y-23094D01*
X36213Y-23138D01*
X36175Y-23176D01*
X36168Y-23180D01*
X36966Y-23978D01*
X36973Y-23984D01*
X36974Y-23985D01*
X36976Y-23987D01*
X36997Y-24014D01*
X37014Y-24034D01*
X37014Y-24035D01*
X37016Y-24037D01*
X37023Y-24052D01*
X37044Y-24091D01*
X37063Y-24153D01*
X37069Y-24217D01*
X37069Y-24220D01*
X37069Y-25150D01*
X38609Y-25150D01*
X38609Y-25150D01*
G37*
G54D22*
X38609Y-25150D02*
X38619Y-25104D01*
X38640Y-25056D01*
X38669Y-25012D01*
X38707Y-24974D01*
X38751Y-24945D01*
X38800Y-24925D01*
X38852Y-24915D01*
X39417Y-24915D01*
X39469Y-24926D01*
X39505Y-24942D01*
X39548Y-24925D01*
X39551Y-24924D01*
X39551Y-24697D01*
X36732Y-21879D01*
X36274Y-21879D01*
X36274Y-21892D01*
X36263Y-21944D01*
X36242Y-21992D01*
X36213Y-22036D01*
X36175Y-22074D01*
X36135Y-22100D01*
X36177Y-22128D01*
X36215Y-22166D01*
X36244Y-22210D01*
X36264Y-22259D01*
X36274Y-22311D01*
X36274Y-22994D01*
X36263Y-23046D01*
X36242Y-23094D01*
X36213Y-23138D01*
X36175Y-23176D01*
X36168Y-23180D01*
X36966Y-23978D01*
X36973Y-23984D01*
X36974Y-23985D01*
X36976Y-23987D01*
X36997Y-24014D01*
X37014Y-24034D01*
X37014Y-24035D01*
X37016Y-24037D01*
X37023Y-24052D01*
X37044Y-24091D01*
X37063Y-24153D01*
X37069Y-24217D01*
X37069Y-24220D01*
X37069Y-25150D01*
X38609Y-25150D01*
G54D10*
G36*
X29784Y-24959D02*
X29786Y-24941D01*
X29790Y-24906D01*
X29790Y-24903D01*
X29791Y-24902D01*
X29794Y-24891D01*
X29809Y-24844D01*
X29810Y-24840D01*
X29785Y-24802D01*
X29765Y-24753D01*
X29755Y-24701D01*
X29755Y-24573D01*
X29679Y-24587D01*
X29591Y-24585D01*
X29506Y-24566D01*
X29426Y-24532D01*
X29354Y-24482D01*
X29294Y-24419D01*
X29246Y-24346D01*
X29214Y-24265D01*
X29198Y-24179D01*
X29198Y-24162D01*
X28638Y-23601D01*
X28607Y-23601D01*
X28522Y-23582D01*
X28442Y-23548D01*
X28370Y-23498D01*
X28310Y-23435D01*
X28262Y-23362D01*
X28230Y-23281D01*
X28214Y-23195D01*
X28216Y-23108D01*
X28234Y-23022D01*
X28268Y-22942D01*
X28317Y-22870D01*
X28380Y-22809D01*
X28453Y-22761D01*
X28533Y-22728D01*
X28619Y-22712D01*
X28706Y-22712D01*
X28792Y-22730D01*
X28872Y-22763D01*
X28945Y-22812D01*
X29006Y-22874D01*
X29055Y-22947D01*
X29088Y-23027D01*
X29105Y-23113D01*
X29104Y-23135D01*
X29302Y-23332D01*
X29302Y-22066D01*
X29302Y-22062D01*
X29304Y-22037D01*
X29308Y-22002D01*
X29308Y-21999D01*
X29309Y-21998D01*
X29312Y-21987D01*
X29327Y-21940D01*
X29358Y-21883D01*
X29375Y-21861D01*
X29401Y-21831D01*
X29405Y-21827D01*
X29438Y-21794D01*
X29438Y-21793D01*
X29439Y-21793D01*
X29489Y-21752D01*
X29490Y-21751D01*
X29492Y-21750D01*
X29516Y-21737D01*
X29526Y-21732D01*
X29526Y-21290D01*
X26244Y-24572D01*
X26244Y-24583D01*
X26253Y-24578D01*
X26333Y-24545D01*
X26419Y-24529D01*
X26506Y-24529D01*
X26568Y-24542D01*
X28468Y-24542D01*
X28487Y-24524D01*
X28560Y-24476D01*
X28640Y-24443D01*
X28726Y-24427D01*
X28813Y-24427D01*
X28899Y-24445D01*
X28979Y-24478D01*
X29052Y-24527D01*
X29113Y-24589D01*
X29162Y-24662D01*
X29195Y-24742D01*
X29212Y-24828D01*
X29211Y-24855D01*
X29599Y-24855D01*
X29651Y-24866D01*
X29699Y-24887D01*
X29743Y-24916D01*
X29781Y-24954D01*
X29784Y-24959D01*
X29784Y-24959D01*
G37*
G54D22*
X29784Y-24959D02*
X29786Y-24941D01*
X29790Y-24906D01*
X29790Y-24903D01*
X29791Y-24902D01*
X29794Y-24891D01*
X29809Y-24844D01*
X29810Y-24840D01*
X29785Y-24802D01*
X29765Y-24753D01*
X29755Y-24701D01*
X29755Y-24573D01*
X29679Y-24587D01*
X29591Y-24585D01*
X29506Y-24566D01*
X29426Y-24532D01*
X29354Y-24482D01*
X29294Y-24419D01*
X29246Y-24346D01*
X29214Y-24265D01*
X29198Y-24179D01*
X29198Y-24162D01*
X28638Y-23601D01*
X28607Y-23601D01*
X28522Y-23582D01*
X28442Y-23548D01*
X28370Y-23498D01*
X28310Y-23435D01*
X28262Y-23362D01*
X28230Y-23281D01*
X28214Y-23195D01*
X28216Y-23108D01*
X28234Y-23022D01*
X28268Y-22942D01*
X28317Y-22870D01*
X28380Y-22809D01*
X28453Y-22761D01*
X28533Y-22728D01*
X28619Y-22712D01*
X28706Y-22712D01*
X28792Y-22730D01*
X28872Y-22763D01*
X28945Y-22812D01*
X29006Y-22874D01*
X29055Y-22947D01*
X29088Y-23027D01*
X29105Y-23113D01*
X29104Y-23135D01*
X29302Y-23332D01*
X29302Y-22066D01*
X29302Y-22062D01*
X29304Y-22037D01*
X29308Y-22002D01*
X29308Y-21999D01*
X29309Y-21998D01*
X29312Y-21987D01*
X29327Y-21940D01*
X29358Y-21883D01*
X29375Y-21861D01*
X29401Y-21831D01*
X29405Y-21827D01*
X29438Y-21794D01*
X29438Y-21793D01*
X29439Y-21793D01*
X29489Y-21752D01*
X29490Y-21751D01*
X29492Y-21750D01*
X29516Y-21737D01*
X29526Y-21732D01*
X29526Y-21290D01*
X26244Y-24572D01*
X26244Y-24583D01*
X26253Y-24578D01*
X26333Y-24545D01*
X26419Y-24529D01*
X26506Y-24529D01*
X26568Y-24542D01*
X28468Y-24542D01*
X28487Y-24524D01*
X28560Y-24476D01*
X28640Y-24443D01*
X28726Y-24427D01*
X28813Y-24427D01*
X28899Y-24445D01*
X28979Y-24478D01*
X29052Y-24527D01*
X29113Y-24589D01*
X29162Y-24662D01*
X29195Y-24742D01*
X29212Y-24828D01*
X29211Y-24855D01*
X29599Y-24855D01*
X29651Y-24866D01*
X29699Y-24887D01*
X29743Y-24916D01*
X29781Y-24954D01*
X29784Y-24959D01*
G54D10*
G36*
X31799Y-24185D02*
X31821Y-24136D01*
X31882Y-24048D01*
X31958Y-23974D01*
X31970Y-23966D01*
X31970Y-23118D01*
X31212Y-23118D01*
X31160Y-23107D01*
X31112Y-23086D01*
X31068Y-23057D01*
X31030Y-23019D01*
X31001Y-22975D01*
X30986Y-22939D01*
X30825Y-22939D01*
X30793Y-22956D01*
X30774Y-22961D01*
X30774Y-22994D01*
X30763Y-23046D01*
X30742Y-23094D01*
X30713Y-23138D01*
X30675Y-23176D01*
X30631Y-23205D01*
X30582Y-23225D01*
X30530Y-23235D01*
X30435Y-23235D01*
X30435Y-23302D01*
X30451Y-23319D01*
X30500Y-23392D01*
X30533Y-23472D01*
X30550Y-23558D01*
X30549Y-23658D01*
X30532Y-23727D01*
X30534Y-23729D01*
X30534Y-23730D01*
X30536Y-23731D01*
X30550Y-23748D01*
X30575Y-23779D01*
X30605Y-23836D01*
X30605Y-23836D01*
X30606Y-23838D01*
X30611Y-23856D01*
X30656Y-23866D01*
X30704Y-23887D01*
X30748Y-23916D01*
X30786Y-23954D01*
X30815Y-23998D01*
X30835Y-24047D01*
X30845Y-24099D01*
X30845Y-24101D01*
X30882Y-24048D01*
X30958Y-23974D01*
X31047Y-23915D01*
X31146Y-23876D01*
X31251Y-23856D01*
X31357Y-23856D01*
X31462Y-23878D01*
X31560Y-23919D01*
X31649Y-23979D01*
X31724Y-24055D01*
X31783Y-24144D01*
X31799Y-24185D01*
X31799Y-24185D01*
G37*
G54D22*
X31799Y-24185D02*
X31821Y-24136D01*
X31882Y-24048D01*
X31958Y-23974D01*
X31970Y-23966D01*
X31970Y-23118D01*
X31212Y-23118D01*
X31160Y-23107D01*
X31112Y-23086D01*
X31068Y-23057D01*
X31030Y-23019D01*
X31001Y-22975D01*
X30986Y-22939D01*
X30825Y-22939D01*
X30793Y-22956D01*
X30774Y-22961D01*
X30774Y-22994D01*
X30763Y-23046D01*
X30742Y-23094D01*
X30713Y-23138D01*
X30675Y-23176D01*
X30631Y-23205D01*
X30582Y-23225D01*
X30530Y-23235D01*
X30435Y-23235D01*
X30435Y-23302D01*
X30451Y-23319D01*
X30500Y-23392D01*
X30533Y-23472D01*
X30550Y-23558D01*
X30549Y-23658D01*
X30532Y-23727D01*
X30534Y-23729D01*
X30534Y-23730D01*
X30536Y-23731D01*
X30550Y-23748D01*
X30575Y-23779D01*
X30605Y-23836D01*
X30605Y-23836D01*
X30606Y-23838D01*
X30611Y-23856D01*
X30656Y-23866D01*
X30704Y-23887D01*
X30748Y-23916D01*
X30786Y-23954D01*
X30815Y-23998D01*
X30835Y-24047D01*
X30845Y-24099D01*
X30845Y-24101D01*
X30882Y-24048D01*
X30958Y-23974D01*
X31047Y-23915D01*
X31146Y-23876D01*
X31251Y-23856D01*
X31357Y-23856D01*
X31462Y-23878D01*
X31560Y-23919D01*
X31649Y-23979D01*
X31724Y-24055D01*
X31783Y-24144D01*
X31799Y-24185D01*
G54D10*
G36*
X32630Y-21158D02*
X32630Y-23665D01*
X33394Y-22900D01*
X33400Y-22894D01*
X33401Y-22892D01*
X33403Y-22891D01*
X33429Y-22869D01*
X33450Y-22853D01*
X33451Y-22852D01*
X33453Y-22851D01*
X33468Y-22843D01*
X33507Y-22823D01*
X33569Y-22804D01*
X33633Y-22798D01*
X33636Y-22798D01*
X35026Y-22798D01*
X35026Y-22308D01*
X35037Y-22256D01*
X35058Y-22208D01*
X35087Y-22164D01*
X35125Y-22126D01*
X35164Y-22099D01*
X35123Y-22072D01*
X35085Y-22034D01*
X35056Y-21990D01*
X35036Y-21941D01*
X35026Y-21889D01*
X35026Y-21206D01*
X35036Y-21158D01*
X34823Y-21158D01*
X34823Y-22437D01*
X34812Y-22489D01*
X34791Y-22537D01*
X34762Y-22581D01*
X34724Y-22619D01*
X34680Y-22648D01*
X34631Y-22668D01*
X34579Y-22678D01*
X33658Y-22678D01*
X33606Y-22667D01*
X33558Y-22646D01*
X33514Y-22617D01*
X33476Y-22579D01*
X33447Y-22535D01*
X33427Y-22486D01*
X33417Y-22434D01*
X33417Y-21158D01*
X32630Y-21158D01*
X32630Y-21158D01*
G37*
G54D22*
X32630Y-21158D02*
X32630Y-23665D01*
X33394Y-22900D01*
X33400Y-22894D01*
X33401Y-22892D01*
X33403Y-22891D01*
X33429Y-22869D01*
X33450Y-22853D01*
X33451Y-22852D01*
X33453Y-22851D01*
X33468Y-22843D01*
X33507Y-22823D01*
X33569Y-22804D01*
X33633Y-22798D01*
X33636Y-22798D01*
X35026Y-22798D01*
X35026Y-22308D01*
X35037Y-22256D01*
X35058Y-22208D01*
X35087Y-22164D01*
X35125Y-22126D01*
X35164Y-22099D01*
X35123Y-22072D01*
X35085Y-22034D01*
X35056Y-21990D01*
X35036Y-21941D01*
X35026Y-21889D01*
X35026Y-21206D01*
X35036Y-21158D01*
X34823Y-21158D01*
X34823Y-22437D01*
X34812Y-22489D01*
X34791Y-22537D01*
X34762Y-22581D01*
X34724Y-22619D01*
X34680Y-22648D01*
X34631Y-22668D01*
X34579Y-22678D01*
X33658Y-22678D01*
X33606Y-22667D01*
X33558Y-22646D01*
X33514Y-22617D01*
X33476Y-22579D01*
X33447Y-22535D01*
X33427Y-22486D01*
X33417Y-22434D01*
X33417Y-21158D01*
X32630Y-21158D01*
G54D10*
G36*
X30986Y-22279D02*
X31003Y-22241D01*
X31032Y-22197D01*
X31070Y-22159D01*
X31077Y-22154D01*
X31068Y-22148D01*
X31030Y-22110D01*
X31001Y-22066D01*
X30986Y-22030D01*
X30817Y-22030D01*
X30813Y-22030D01*
X30749Y-22023D01*
X30726Y-22015D01*
X30713Y-22036D01*
X30675Y-22074D01*
X30635Y-22100D01*
X30677Y-22128D01*
X30715Y-22166D01*
X30744Y-22210D01*
X30764Y-22259D01*
X30767Y-22279D01*
X30986Y-22279D01*
X30986Y-22279D01*
G37*
G54D22*
X30986Y-22279D02*
X31003Y-22241D01*
X31032Y-22197D01*
X31070Y-22159D01*
X31077Y-22154D01*
X31068Y-22148D01*
X31030Y-22110D01*
X31001Y-22066D01*
X30986Y-22030D01*
X30817Y-22030D01*
X30813Y-22030D01*
X30749Y-22023D01*
X30726Y-22015D01*
X30713Y-22036D01*
X30675Y-22074D01*
X30635Y-22100D01*
X30677Y-22128D01*
X30715Y-22166D01*
X30744Y-22210D01*
X30764Y-22259D01*
X30767Y-22279D01*
X30986Y-22279D01*
G54D10*
G36*
X30986Y-21370D02*
X31003Y-21332D01*
X31032Y-21288D01*
X31070Y-21250D01*
X31077Y-21245D01*
X31068Y-21239D01*
X31030Y-21201D01*
X31001Y-21157D01*
X30986Y-21121D01*
X30749Y-21121D01*
X30764Y-21157D01*
X30774Y-21209D01*
X30774Y-21237D01*
X30794Y-21244D01*
X30851Y-21275D01*
X30872Y-21292D01*
X30903Y-21318D01*
X30906Y-21322D01*
X30954Y-21370D01*
X30986Y-21370D01*
X30986Y-21370D01*
G37*
G54D22*
X30986Y-21370D02*
X31003Y-21332D01*
X31032Y-21288D01*
X31070Y-21250D01*
X31077Y-21245D01*
X31068Y-21239D01*
X31030Y-21201D01*
X31001Y-21157D01*
X30986Y-21121D01*
X30749Y-21121D01*
X30764Y-21157D01*
X30774Y-21209D01*
X30774Y-21237D01*
X30794Y-21244D01*
X30851Y-21275D01*
X30872Y-21292D01*
X30903Y-21318D01*
X30906Y-21322D01*
X30954Y-21370D01*
X30986Y-21370D01*
M02*
