G04 (created by PCBNEW (2013-09-20 BZR 4325)-product) date Sun 22 Sep 2013 12:32:21 PM CEST*
%MOIN*%
G04 Gerber Fmt 3.4, Leading zero omitted, Abs format*
%FSLAX34Y34*%
G01*
G70*
G90*
G04 APERTURE LIST*
%ADD10C,0.005906*%
%ADD11C,0.098425*%
%ADD12R,0.055118X0.070866*%
%ADD13R,0.070866X0.055118*%
%ADD14R,0.078700X0.017700*%
%ADD15R,0.017700X0.078700*%
%ADD16R,0.060000X0.060000*%
%ADD17C,0.060000*%
%ADD18R,0.059055X0.039370*%
%ADD19O,0.059055X0.039370*%
%ADD20R,0.039370X0.059055*%
%ADD21O,0.039370X0.059055*%
%ADD22C,0.025000*%
%ADD23C,0.035000*%
%ADD24C,0.008000*%
%ADD25C,0.016000*%
%ADD26C,0.009843*%
G04 APERTURE END LIST*
G54D10*
G54D11*
X30050Y-30550D03*
X30050Y-25156D03*
X35443Y-25156D03*
X35443Y-30550D03*
G54D10*
G36*
X38003Y-23432D02*
X38504Y-23933D01*
X38114Y-24322D01*
X37613Y-23821D01*
X38003Y-23432D01*
X38003Y-23432D01*
G37*
G36*
X38921Y-22513D02*
X39422Y-23014D01*
X39033Y-23404D01*
X38532Y-22903D01*
X38921Y-22513D01*
X38921Y-22513D01*
G37*
G36*
X37585Y-21177D02*
X38086Y-21678D01*
X37696Y-22067D01*
X37195Y-21566D01*
X37585Y-21177D01*
X37585Y-21177D01*
G37*
G36*
X36666Y-22095D02*
X37167Y-22596D01*
X36778Y-22986D01*
X36277Y-22485D01*
X36666Y-22095D01*
X36666Y-22095D01*
G37*
G54D12*
X26149Y-26905D03*
X24850Y-26905D03*
X24850Y-28794D03*
X26149Y-28794D03*
G54D10*
G36*
X27496Y-32317D02*
X26995Y-31816D01*
X27385Y-31427D01*
X27886Y-31928D01*
X27496Y-32317D01*
X27496Y-32317D01*
G37*
G36*
X26578Y-33236D02*
X26077Y-32735D01*
X26466Y-32345D01*
X26967Y-32846D01*
X26578Y-33236D01*
X26578Y-33236D01*
G37*
G36*
X27914Y-34572D02*
X27413Y-34071D01*
X27803Y-33682D01*
X28304Y-34183D01*
X27914Y-34572D01*
X27914Y-34572D01*
G37*
G36*
X28833Y-33654D02*
X28332Y-33153D01*
X28721Y-32763D01*
X29222Y-33264D01*
X28833Y-33654D01*
X28833Y-33654D01*
G37*
G54D13*
X31805Y-34450D03*
X31805Y-35749D03*
X33694Y-35749D03*
X33694Y-34450D03*
G54D10*
G36*
X37167Y-33153D02*
X36666Y-33654D01*
X36277Y-33264D01*
X36778Y-32763D01*
X37167Y-33153D01*
X37167Y-33153D01*
G37*
G36*
X38086Y-34071D02*
X37585Y-34572D01*
X37195Y-34183D01*
X37696Y-33682D01*
X38086Y-34071D01*
X38086Y-34071D01*
G37*
G36*
X39422Y-32735D02*
X38921Y-33236D01*
X38532Y-32846D01*
X39033Y-32345D01*
X39422Y-32735D01*
X39422Y-32735D01*
G37*
G36*
X38504Y-31816D02*
X38003Y-32317D01*
X37613Y-31928D01*
X38114Y-31427D01*
X38504Y-31816D01*
X38504Y-31816D01*
G37*
G54D12*
X39350Y-28794D03*
X40649Y-28794D03*
X40649Y-26905D03*
X39350Y-26905D03*
G54D13*
X33694Y-21249D03*
X33694Y-19950D03*
X31805Y-19950D03*
X31805Y-21249D03*
G54D10*
G36*
X28282Y-22596D02*
X28783Y-22095D01*
X29172Y-22485D01*
X28671Y-22986D01*
X28282Y-22596D01*
X28282Y-22596D01*
G37*
G36*
X27363Y-21678D02*
X27864Y-21177D01*
X28254Y-21566D01*
X27753Y-22067D01*
X27363Y-21678D01*
X27363Y-21678D01*
G37*
G36*
X26027Y-23014D02*
X26528Y-22513D01*
X26917Y-22903D01*
X26416Y-23404D01*
X26027Y-23014D01*
X26027Y-23014D01*
G37*
G36*
X26945Y-23933D02*
X27446Y-23432D01*
X27836Y-23821D01*
X27335Y-24322D01*
X26945Y-23933D01*
X26945Y-23933D01*
G37*
G54D14*
X30854Y-28943D03*
X30854Y-28628D03*
X30854Y-28313D03*
X30854Y-27998D03*
X30854Y-27683D03*
X30854Y-27368D03*
X30854Y-27053D03*
X30854Y-26738D03*
X34620Y-26740D03*
X34620Y-28950D03*
X34620Y-28630D03*
X34620Y-28310D03*
X34620Y-28000D03*
X34620Y-27680D03*
X34620Y-27370D03*
X34620Y-27050D03*
G54D15*
X31638Y-25950D03*
X31952Y-25950D03*
X32268Y-25950D03*
X32582Y-25950D03*
X32898Y-25950D03*
X33212Y-25950D03*
X33528Y-25950D03*
X33842Y-25950D03*
X31640Y-29730D03*
X31950Y-29730D03*
X32270Y-29730D03*
X32580Y-29730D03*
X32890Y-29730D03*
X33210Y-29730D03*
X33530Y-29730D03*
X33850Y-29730D03*
G54D16*
X33250Y-26850D03*
G54D17*
X32250Y-26850D03*
X33250Y-27850D03*
X32250Y-27850D03*
X33250Y-28850D03*
X32250Y-28850D03*
G54D16*
X35216Y-22795D03*
G54D17*
X34216Y-22795D03*
X33216Y-22795D03*
X32216Y-22795D03*
X31216Y-22795D03*
X30216Y-22795D03*
G54D18*
X36746Y-29603D03*
G54D19*
X36746Y-29103D03*
X36746Y-28603D03*
X36746Y-28103D03*
X36746Y-27603D03*
X36746Y-27103D03*
X36746Y-26603D03*
X36746Y-26103D03*
G54D20*
X30996Y-31853D03*
G54D21*
X31496Y-31853D03*
X31996Y-31853D03*
X32496Y-31853D03*
X32996Y-31853D03*
X33496Y-31853D03*
X33996Y-31853D03*
X34496Y-31853D03*
G54D20*
X34496Y-23853D03*
G54D21*
X33996Y-23853D03*
X33496Y-23853D03*
X32996Y-23853D03*
X32496Y-23853D03*
X31996Y-23853D03*
X31496Y-23853D03*
X30996Y-23853D03*
G54D18*
X28746Y-26103D03*
G54D19*
X28746Y-26603D03*
X28746Y-27103D03*
X28746Y-27603D03*
X28746Y-28103D03*
X28746Y-28603D03*
X28746Y-29103D03*
X28746Y-29603D03*
G54D22*
X32215Y-33030D03*
X33238Y-33738D03*
X32758Y-24376D03*
X32211Y-24372D03*
X34251Y-29370D03*
X32362Y-24921D03*
G54D23*
X33694Y-35749D03*
X27858Y-34127D03*
X24850Y-28794D03*
X31805Y-19950D03*
X37641Y-21622D03*
X40649Y-26905D03*
X38977Y-32791D03*
X26467Y-22951D03*
G54D22*
X26023Y-30354D03*
X26023Y-31181D03*
X26377Y-29645D03*
X26023Y-32125D03*
X29420Y-33896D03*
X29695Y-34526D03*
X30404Y-35038D03*
X31034Y-35589D03*
X30984Y-21417D03*
X30334Y-21023D03*
X29370Y-21023D03*
X28543Y-21023D03*
X40551Y-29488D03*
X39940Y-29488D03*
X39114Y-30295D03*
X38425Y-31023D03*
X39370Y-23385D03*
X39350Y-24192D03*
X39370Y-25019D03*
X39094Y-26062D03*
X26161Y-24940D03*
X25531Y-25570D03*
X24960Y-26141D03*
X26968Y-24606D03*
X34803Y-21023D03*
X35374Y-21594D03*
X35905Y-22125D03*
X34488Y-20078D03*
G54D23*
X32755Y-20216D03*
X34286Y-26148D03*
X27412Y-33295D03*
X25098Y-27874D03*
X27333Y-22491D03*
X38138Y-22452D03*
X32755Y-35492D03*
X38177Y-33256D03*
X40374Y-27874D03*
G54D24*
X34620Y-28310D02*
X35798Y-28310D01*
X36072Y-28584D02*
X36692Y-28584D01*
X35798Y-28310D02*
X36072Y-28584D01*
X34620Y-27370D02*
X35661Y-27370D01*
X35946Y-27084D02*
X36692Y-27084D01*
X35661Y-27370D02*
X35946Y-27084D01*
X34620Y-28000D02*
X35712Y-28000D01*
X35797Y-28084D02*
X36692Y-28084D01*
X35712Y-28000D02*
X35797Y-28084D01*
X33694Y-34155D02*
X33655Y-34155D01*
X32496Y-32748D02*
X32215Y-33030D01*
X33694Y-34450D02*
X33694Y-34155D01*
X32496Y-32748D02*
X32496Y-31853D01*
X33655Y-34155D02*
X33238Y-33738D01*
X32580Y-29730D02*
X32580Y-31090D01*
X32496Y-31174D02*
X32496Y-31853D01*
X32580Y-31090D02*
X32496Y-31174D01*
X32215Y-24376D02*
X32758Y-24376D01*
X32211Y-24372D02*
X32215Y-24376D01*
X33850Y-29730D02*
X33850Y-30857D01*
X34505Y-31513D02*
X34505Y-31811D01*
X33850Y-30857D02*
X34505Y-31513D01*
X34128Y-29730D02*
X33850Y-29730D01*
X34251Y-29606D02*
X34128Y-29730D01*
X34251Y-29370D02*
X34251Y-29606D01*
X33530Y-29730D02*
X33530Y-30813D01*
X34005Y-31289D02*
X34005Y-31811D01*
X33530Y-30813D02*
X34005Y-31289D01*
X32250Y-27850D02*
X32259Y-27850D01*
X33530Y-29265D02*
X33530Y-29730D01*
X33818Y-28976D02*
X33530Y-29265D01*
X33818Y-28622D02*
X33818Y-28976D01*
X33543Y-28346D02*
X33818Y-28622D01*
X32755Y-28346D02*
X33543Y-28346D01*
X32259Y-27850D02*
X32755Y-28346D01*
X32890Y-29730D02*
X32890Y-30960D01*
X32890Y-30960D02*
X33005Y-31076D01*
X33005Y-31076D02*
X33005Y-31811D01*
X33505Y-31183D02*
X33505Y-31811D01*
X33210Y-30887D02*
X33505Y-31183D01*
X33210Y-29730D02*
X33210Y-30887D01*
X34620Y-27050D02*
X35741Y-27050D01*
X36206Y-26584D02*
X36692Y-26584D01*
X35741Y-27050D02*
X36206Y-26584D01*
X36692Y-26084D02*
X36435Y-26084D01*
X35779Y-26740D02*
X34620Y-26740D01*
X36435Y-26084D02*
X35779Y-26740D01*
X34466Y-23897D02*
X34466Y-24352D01*
X34466Y-24352D02*
X33842Y-24976D01*
X33842Y-24976D02*
X33842Y-25950D01*
X33528Y-25015D02*
X33528Y-25950D01*
X33966Y-24576D02*
X33528Y-25015D01*
X33966Y-23897D02*
X33966Y-24576D01*
X33212Y-25095D02*
X33212Y-25950D01*
X33466Y-24840D02*
X33212Y-25095D01*
X33466Y-23897D02*
X33466Y-24840D01*
X32898Y-25172D02*
X32898Y-25950D01*
X33057Y-25013D02*
X32898Y-25172D01*
X33057Y-23917D02*
X33057Y-25013D01*
X31638Y-25023D02*
X31638Y-25950D01*
X30966Y-24352D02*
X31638Y-25023D01*
X30966Y-23897D02*
X30966Y-24352D01*
X28779Y-26124D02*
X29289Y-26124D01*
X29289Y-26124D02*
X29903Y-26738D01*
X29903Y-26738D02*
X30854Y-26738D01*
X28779Y-26624D02*
X29545Y-26624D01*
X29545Y-26624D02*
X29974Y-27053D01*
X29974Y-27053D02*
X30854Y-27053D01*
X31640Y-29730D02*
X31640Y-30997D01*
X31005Y-31631D02*
X31005Y-31811D01*
X31640Y-30997D02*
X31005Y-31631D01*
X31950Y-29730D02*
X31950Y-31002D01*
X31505Y-31446D02*
X31505Y-31811D01*
X31950Y-31002D02*
X31505Y-31446D01*
X32270Y-29730D02*
X32270Y-30997D01*
X32270Y-30997D02*
X32005Y-31261D01*
X32005Y-31261D02*
X32005Y-31811D01*
X32582Y-25950D02*
X32582Y-25141D01*
X32582Y-25141D02*
X32362Y-24921D01*
X32268Y-25181D02*
X32265Y-25181D01*
X32268Y-25950D02*
X32268Y-25181D01*
X31996Y-24055D02*
X31996Y-23853D01*
X31727Y-24325D02*
X31996Y-24055D01*
X31727Y-24642D02*
X31727Y-24325D01*
X32265Y-25181D02*
X31727Y-24642D01*
X32216Y-22795D02*
X32216Y-23137D01*
X32216Y-23137D02*
X31966Y-23387D01*
X31966Y-23387D02*
X31966Y-23897D01*
X36395Y-29584D02*
X36692Y-29584D01*
X35761Y-28950D02*
X36395Y-29584D01*
X34620Y-28950D02*
X35761Y-28950D01*
X33250Y-27850D02*
X33676Y-27850D01*
X34107Y-28950D02*
X34620Y-28950D01*
X34003Y-28846D02*
X34107Y-28950D01*
X34003Y-28177D02*
X34003Y-28846D01*
X33676Y-27850D02*
X34003Y-28177D01*
X31466Y-23435D02*
X31466Y-23897D01*
X31466Y-23897D02*
X31466Y-24608D01*
X31466Y-24608D02*
X31952Y-25093D01*
X31952Y-25093D02*
X31952Y-25950D01*
X31216Y-23185D02*
X31466Y-23435D01*
X31216Y-22795D02*
X31216Y-23185D01*
X30017Y-28628D02*
X30854Y-28628D01*
X29521Y-29124D02*
X30017Y-28628D01*
X28779Y-29124D02*
X29521Y-29124D01*
X29954Y-28943D02*
X30854Y-28943D01*
X29273Y-29624D02*
X29954Y-28943D01*
X28779Y-29624D02*
X29273Y-29624D01*
G54D25*
X26472Y-22958D02*
X26472Y-22956D01*
X26472Y-22956D02*
X26467Y-22951D01*
X28779Y-27124D02*
X29761Y-27124D01*
X29761Y-27124D02*
X30005Y-27368D01*
X28779Y-28124D02*
X29899Y-28124D01*
X29899Y-28124D02*
X30025Y-27998D01*
X30854Y-27998D02*
X31423Y-27998D01*
X31960Y-28850D02*
X32250Y-28850D01*
X31574Y-28464D02*
X31960Y-28850D01*
X31574Y-28149D02*
X31574Y-28464D01*
X31423Y-27998D02*
X31574Y-28149D01*
X30025Y-27998D02*
X30854Y-27998D01*
X30005Y-27368D02*
X30854Y-27368D01*
X34620Y-27680D02*
X35587Y-27680D01*
X35683Y-27584D02*
X36692Y-27584D01*
X35587Y-27680D02*
X35683Y-27584D01*
X30854Y-27368D02*
X31344Y-27368D01*
X31456Y-27480D02*
X31456Y-27913D01*
X31344Y-27368D02*
X31456Y-27480D01*
X31456Y-27913D02*
X31372Y-27998D01*
G54D24*
X31372Y-27998D02*
X30854Y-27998D01*
X26023Y-31181D02*
X26023Y-30354D01*
X26149Y-28794D02*
X26149Y-29417D01*
X26149Y-29417D02*
X26377Y-29645D01*
X26522Y-32624D02*
X26522Y-32791D01*
X26023Y-32125D02*
X26522Y-32624D01*
X31805Y-35749D02*
X31194Y-35749D01*
X28777Y-33253D02*
X28777Y-33208D01*
X29420Y-33896D02*
X28777Y-33253D01*
X29892Y-34526D02*
X29695Y-34526D01*
X30404Y-35038D02*
X29892Y-34526D01*
X31194Y-35749D02*
X31034Y-35589D01*
X31151Y-21249D02*
X31805Y-21249D01*
X30984Y-21417D02*
X31151Y-21249D01*
X29370Y-21023D02*
X30334Y-21023D01*
X28407Y-21023D02*
X28543Y-21023D01*
X27808Y-21622D02*
X28407Y-21023D01*
X40649Y-29389D02*
X40649Y-28794D01*
X40649Y-29389D02*
X40551Y-29488D01*
X39921Y-29488D02*
X39940Y-29488D01*
X39114Y-30295D02*
X39921Y-29488D01*
X38425Y-31023D02*
X38425Y-31506D01*
X38058Y-31872D02*
X38425Y-31506D01*
X38058Y-31783D02*
X38058Y-31872D01*
X38977Y-22993D02*
X39370Y-23385D01*
X38977Y-22958D02*
X38977Y-22993D01*
X39350Y-24192D02*
X39350Y-25000D01*
X39350Y-25000D02*
X39370Y-25019D01*
X39094Y-26102D02*
X39350Y-26358D01*
X39350Y-26358D02*
X39350Y-26905D01*
X39094Y-26062D02*
X39094Y-26102D01*
X26161Y-24940D02*
X25531Y-25570D01*
X24850Y-26251D02*
X24960Y-26141D01*
X24850Y-26251D02*
X24850Y-26905D01*
X27391Y-23877D02*
X27086Y-24182D01*
X26968Y-24606D02*
X27086Y-24488D01*
X27086Y-24488D02*
X27086Y-24182D01*
X35374Y-21594D02*
X34803Y-21023D01*
X36425Y-22244D02*
X36722Y-22541D01*
X36023Y-22244D02*
X36425Y-22244D01*
X35905Y-22125D02*
X36023Y-22244D01*
X34359Y-19950D02*
X34488Y-20078D01*
X33694Y-19950D02*
X34359Y-19950D01*
G54D25*
X28779Y-27624D02*
X30143Y-27624D01*
X30143Y-27624D02*
X30202Y-27683D01*
G54D24*
X28779Y-28624D02*
X29777Y-28624D01*
X29777Y-28624D02*
X30088Y-28313D01*
G54D25*
X32755Y-20216D02*
X32755Y-20196D01*
X36210Y-29084D02*
X36692Y-29084D01*
X35755Y-28630D02*
X36210Y-29084D01*
X30202Y-27683D02*
X30854Y-27683D01*
G54D24*
X30088Y-28313D02*
X30854Y-28313D01*
G54D25*
X34620Y-28630D02*
X35755Y-28630D01*
X27412Y-33295D02*
X27401Y-33307D01*
X25098Y-27874D02*
X25078Y-27874D01*
X27333Y-22491D02*
X27322Y-22480D01*
X38138Y-22452D02*
X38149Y-22440D01*
X32755Y-35492D02*
X32755Y-35472D01*
X38177Y-33256D02*
X38188Y-33267D01*
X40374Y-27874D02*
X40393Y-27874D01*
G54D10*
G36*
X41132Y-27842D02*
X41072Y-28452D01*
X41072Y-28426D01*
X41067Y-28397D01*
X41056Y-28370D01*
X41039Y-28346D01*
X41019Y-28325D01*
X40995Y-28309D01*
X40968Y-28298D01*
X40939Y-28292D01*
X40910Y-28292D01*
X40359Y-28292D01*
X40330Y-28298D01*
X40304Y-28309D01*
X40279Y-28325D01*
X40259Y-28346D01*
X40243Y-28370D01*
X40232Y-28397D01*
X40226Y-28426D01*
X40226Y-28455D01*
X40226Y-29163D01*
X40232Y-29192D01*
X40243Y-29219D01*
X40259Y-29243D01*
X40279Y-29263D01*
X40304Y-29280D01*
X40330Y-29291D01*
X40357Y-29296D01*
X40341Y-29312D01*
X40311Y-29356D01*
X40290Y-29405D01*
X40278Y-29457D01*
X40278Y-29511D01*
X40287Y-29563D01*
X40307Y-29613D01*
X40336Y-29658D01*
X40373Y-29696D01*
X40417Y-29727D01*
X40466Y-29748D01*
X40518Y-29760D01*
X40572Y-29761D01*
X40624Y-29752D01*
X40674Y-29732D01*
X40719Y-29704D01*
X40758Y-29667D01*
X40789Y-29623D01*
X40811Y-29574D01*
X40822Y-29522D01*
X40823Y-29461D01*
X40823Y-29459D01*
X40827Y-29445D01*
X40833Y-29428D01*
X40833Y-29427D01*
X40833Y-29426D01*
X40835Y-29409D01*
X40837Y-29392D01*
X40837Y-29390D01*
X40837Y-29390D01*
X40837Y-29390D01*
X40837Y-29389D01*
X40837Y-29296D01*
X40939Y-29296D01*
X40968Y-29291D01*
X40991Y-29281D01*
X40972Y-29478D01*
X40499Y-31044D01*
X40213Y-31581D01*
X40213Y-29461D01*
X40203Y-29409D01*
X40182Y-29359D01*
X40153Y-29315D01*
X40115Y-29277D01*
X40071Y-29247D01*
X40021Y-29226D01*
X39969Y-29215D01*
X39916Y-29215D01*
X39863Y-29225D01*
X39814Y-29245D01*
X39773Y-29271D01*
X39773Y-29163D01*
X39773Y-29134D01*
X39773Y-28841D01*
X39773Y-28748D01*
X39773Y-28455D01*
X39773Y-28426D01*
X39773Y-27273D01*
X39773Y-27244D01*
X39773Y-26536D01*
X39767Y-26507D01*
X39756Y-26480D01*
X39740Y-26456D01*
X39720Y-26436D01*
X39695Y-26419D01*
X39669Y-26408D01*
X39642Y-26403D01*
X39642Y-24992D01*
X39632Y-24940D01*
X39611Y-24891D01*
X39582Y-24846D01*
X39544Y-24808D01*
X39538Y-24804D01*
X39538Y-24390D01*
X39557Y-24371D01*
X39588Y-24328D01*
X39610Y-24279D01*
X39622Y-24227D01*
X39623Y-24166D01*
X39612Y-24113D01*
X39592Y-24064D01*
X39562Y-24019D01*
X39525Y-23981D01*
X39480Y-23951D01*
X39431Y-23931D01*
X39379Y-23920D01*
X39325Y-23920D01*
X39273Y-23930D01*
X39223Y-23950D01*
X39178Y-23979D01*
X39140Y-24016D01*
X39110Y-24060D01*
X39089Y-24110D01*
X39078Y-24162D01*
X39077Y-24215D01*
X39087Y-24268D01*
X39106Y-24318D01*
X39135Y-24363D01*
X39162Y-24391D01*
X39162Y-24841D01*
X39160Y-24843D01*
X39130Y-24887D01*
X39108Y-24936D01*
X39097Y-24989D01*
X39097Y-25042D01*
X39106Y-25095D01*
X39126Y-25144D01*
X39155Y-25189D01*
X39192Y-25228D01*
X39236Y-25258D01*
X39285Y-25280D01*
X39337Y-25291D01*
X39391Y-25292D01*
X39443Y-25283D01*
X39493Y-25264D01*
X39538Y-25235D01*
X39577Y-25198D01*
X39608Y-25155D01*
X39630Y-25106D01*
X39641Y-25054D01*
X39642Y-24992D01*
X39642Y-26403D01*
X39640Y-26403D01*
X39611Y-26403D01*
X39538Y-26403D01*
X39538Y-26358D01*
X39536Y-26341D01*
X39534Y-26323D01*
X39534Y-26322D01*
X39534Y-26321D01*
X39529Y-26305D01*
X39524Y-26288D01*
X39524Y-26287D01*
X39523Y-26286D01*
X39515Y-26271D01*
X39507Y-26256D01*
X39507Y-26255D01*
X39506Y-26254D01*
X39495Y-26241D01*
X39484Y-26227D01*
X39483Y-26226D01*
X39483Y-26226D01*
X39483Y-26226D01*
X39483Y-26225D01*
X39364Y-26106D01*
X39366Y-26097D01*
X39367Y-26036D01*
X39356Y-25983D01*
X39336Y-25934D01*
X39306Y-25889D01*
X39269Y-25851D01*
X39224Y-25822D01*
X39175Y-25801D01*
X39123Y-25790D01*
X39069Y-25790D01*
X39017Y-25800D01*
X38967Y-25820D01*
X38922Y-25849D01*
X38884Y-25886D01*
X38854Y-25931D01*
X38833Y-25980D01*
X38822Y-26032D01*
X38821Y-26085D01*
X38831Y-26138D01*
X38850Y-26188D01*
X38879Y-26233D01*
X38916Y-26271D01*
X38960Y-26302D01*
X39009Y-26323D01*
X39061Y-26334D01*
X39129Y-26403D01*
X39060Y-26403D01*
X39031Y-26408D01*
X39004Y-26419D01*
X38980Y-26436D01*
X38960Y-26456D01*
X38943Y-26480D01*
X38932Y-26507D01*
X38927Y-26536D01*
X38927Y-26565D01*
X38927Y-27273D01*
X38932Y-27302D01*
X38943Y-27329D01*
X38960Y-27353D01*
X38980Y-27374D01*
X39004Y-27390D01*
X39031Y-27401D01*
X39060Y-27407D01*
X39089Y-27407D01*
X39640Y-27407D01*
X39669Y-27401D01*
X39695Y-27390D01*
X39720Y-27374D01*
X39740Y-27353D01*
X39756Y-27329D01*
X39767Y-27302D01*
X39773Y-27273D01*
X39773Y-28426D01*
X39767Y-28397D01*
X39756Y-28370D01*
X39740Y-28346D01*
X39720Y-28325D01*
X39695Y-28309D01*
X39669Y-28298D01*
X39640Y-28292D01*
X39397Y-28292D01*
X39360Y-28329D01*
X39360Y-28785D01*
X39736Y-28785D01*
X39773Y-28748D01*
X39773Y-28841D01*
X39736Y-28804D01*
X39360Y-28804D01*
X39360Y-29259D01*
X39397Y-29296D01*
X39640Y-29296D01*
X39669Y-29291D01*
X39695Y-29280D01*
X39720Y-29263D01*
X39740Y-29243D01*
X39756Y-29219D01*
X39767Y-29192D01*
X39773Y-29163D01*
X39773Y-29271D01*
X39769Y-29274D01*
X39731Y-29312D01*
X39700Y-29356D01*
X39679Y-29405D01*
X39668Y-29457D01*
X39668Y-29475D01*
X39340Y-29803D01*
X39340Y-29259D01*
X39340Y-28804D01*
X39340Y-28785D01*
X39340Y-28329D01*
X39303Y-28292D01*
X39060Y-28292D01*
X39031Y-28298D01*
X39004Y-28309D01*
X38980Y-28325D01*
X38960Y-28346D01*
X38943Y-28370D01*
X38932Y-28397D01*
X38927Y-28426D01*
X38927Y-28455D01*
X38927Y-28748D01*
X38964Y-28785D01*
X39340Y-28785D01*
X39340Y-28804D01*
X38964Y-28804D01*
X38927Y-28841D01*
X38927Y-29134D01*
X38927Y-29163D01*
X38932Y-29192D01*
X38943Y-29219D01*
X38960Y-29243D01*
X38980Y-29263D01*
X39004Y-29280D01*
X39031Y-29291D01*
X39060Y-29296D01*
X39303Y-29296D01*
X39340Y-29259D01*
X39340Y-29803D01*
X39121Y-30022D01*
X39089Y-30022D01*
X39036Y-30032D01*
X38987Y-30052D01*
X38942Y-30081D01*
X38904Y-30119D01*
X38874Y-30163D01*
X38853Y-30212D01*
X38841Y-30264D01*
X38841Y-30318D01*
X38850Y-30370D01*
X38870Y-30420D01*
X38899Y-30465D01*
X38936Y-30503D01*
X38980Y-30534D01*
X39029Y-30555D01*
X39081Y-30567D01*
X39135Y-30568D01*
X39187Y-30559D01*
X39237Y-30539D01*
X39282Y-30511D01*
X39321Y-30474D01*
X39352Y-30430D01*
X39374Y-30381D01*
X39385Y-30329D01*
X39386Y-30288D01*
X39914Y-29760D01*
X39961Y-29761D01*
X40014Y-29752D01*
X40064Y-29732D01*
X40109Y-29704D01*
X40148Y-29667D01*
X40179Y-29623D01*
X40200Y-29574D01*
X40212Y-29522D01*
X40213Y-29461D01*
X40213Y-31581D01*
X39731Y-32488D01*
X39564Y-32692D01*
X39564Y-32692D01*
X39553Y-32665D01*
X39537Y-32641D01*
X39517Y-32620D01*
X39127Y-32231D01*
X39103Y-32214D01*
X39076Y-32203D01*
X39047Y-32198D01*
X39018Y-32198D01*
X38990Y-32203D01*
X38963Y-32214D01*
X38939Y-32231D01*
X38918Y-32251D01*
X38697Y-32472D01*
X38697Y-30996D01*
X38687Y-30944D01*
X38667Y-30895D01*
X38651Y-30872D01*
X38651Y-23947D01*
X38651Y-23918D01*
X38646Y-23890D01*
X38635Y-23863D01*
X38618Y-23839D01*
X38598Y-23818D01*
X38391Y-23611D01*
X38338Y-23611D01*
X38325Y-23625D01*
X38325Y-23597D01*
X38325Y-23545D01*
X38117Y-23337D01*
X38097Y-23317D01*
X38073Y-23301D01*
X38046Y-23290D01*
X38017Y-23284D01*
X37988Y-23284D01*
X37960Y-23290D01*
X37933Y-23301D01*
X37909Y-23317D01*
X37736Y-23489D01*
X37736Y-23541D01*
X38058Y-23863D01*
X38325Y-23597D01*
X38325Y-23625D01*
X38072Y-23877D01*
X38394Y-24199D01*
X38446Y-24199D01*
X38618Y-24027D01*
X38635Y-24003D01*
X38646Y-23976D01*
X38651Y-23947D01*
X38651Y-30872D01*
X38637Y-30850D01*
X38599Y-30812D01*
X38555Y-30782D01*
X38506Y-30761D01*
X38453Y-30751D01*
X38400Y-30750D01*
X38380Y-30754D01*
X38380Y-24265D01*
X38380Y-24213D01*
X38058Y-23891D01*
X38044Y-23905D01*
X38044Y-23877D01*
X37722Y-23555D01*
X37670Y-23555D01*
X37498Y-23727D01*
X37482Y-23751D01*
X37471Y-23778D01*
X37465Y-23807D01*
X37465Y-23836D01*
X37471Y-23864D01*
X37482Y-23891D01*
X37498Y-23915D01*
X37519Y-23936D01*
X37726Y-24143D01*
X37778Y-24143D01*
X38044Y-23877D01*
X38044Y-23905D01*
X37792Y-24157D01*
X37792Y-24209D01*
X37999Y-24417D01*
X38020Y-24437D01*
X38044Y-24453D01*
X38071Y-24464D01*
X38099Y-24470D01*
X38129Y-24470D01*
X38157Y-24464D01*
X38184Y-24453D01*
X38208Y-24437D01*
X38380Y-24265D01*
X38380Y-30754D01*
X38347Y-30760D01*
X38298Y-30780D01*
X38253Y-30810D01*
X38215Y-30847D01*
X38185Y-30891D01*
X38164Y-30940D01*
X38152Y-30993D01*
X38152Y-31046D01*
X38161Y-31099D01*
X38181Y-31148D01*
X38210Y-31193D01*
X38237Y-31221D01*
X38237Y-31341D01*
X38208Y-31312D01*
X38184Y-31296D01*
X38157Y-31285D01*
X38129Y-31279D01*
X38099Y-31279D01*
X38071Y-31285D01*
X38044Y-31296D01*
X38020Y-31312D01*
X37999Y-31332D01*
X37498Y-31834D01*
X37482Y-31858D01*
X37471Y-31885D01*
X37465Y-31913D01*
X37465Y-31942D01*
X37471Y-31971D01*
X37482Y-31998D01*
X37498Y-32022D01*
X37519Y-32042D01*
X37909Y-32432D01*
X37933Y-32448D01*
X37960Y-32459D01*
X37988Y-32465D01*
X38017Y-32465D01*
X38046Y-32459D01*
X38073Y-32448D01*
X38097Y-32432D01*
X38117Y-32412D01*
X38618Y-31910D01*
X38635Y-31886D01*
X38646Y-31859D01*
X38651Y-31831D01*
X38651Y-31802D01*
X38646Y-31773D01*
X38635Y-31746D01*
X38618Y-31722D01*
X38598Y-31702D01*
X38546Y-31650D01*
X38557Y-31638D01*
X38568Y-31625D01*
X38580Y-31612D01*
X38580Y-31611D01*
X38581Y-31610D01*
X38589Y-31595D01*
X38597Y-31580D01*
X38597Y-31579D01*
X38598Y-31578D01*
X38603Y-31561D01*
X38608Y-31545D01*
X38608Y-31544D01*
X38609Y-31543D01*
X38610Y-31525D01*
X38612Y-31508D01*
X38612Y-31506D01*
X38612Y-31506D01*
X38612Y-31506D01*
X38612Y-31506D01*
X38612Y-31221D01*
X38632Y-31202D01*
X38663Y-31158D01*
X38685Y-31110D01*
X38696Y-31057D01*
X38697Y-30996D01*
X38697Y-32472D01*
X38417Y-32752D01*
X38401Y-32776D01*
X38390Y-32803D01*
X38384Y-32832D01*
X38384Y-32861D01*
X38390Y-32889D01*
X38401Y-32916D01*
X38417Y-32940D01*
X38437Y-32961D01*
X38827Y-33351D01*
X38851Y-33367D01*
X38878Y-33378D01*
X38907Y-33384D01*
X38936Y-33384D01*
X38964Y-33378D01*
X38991Y-33367D01*
X39015Y-33351D01*
X39036Y-33330D01*
X39079Y-33287D01*
X38697Y-33756D01*
X38196Y-34170D01*
X38201Y-34165D01*
X38217Y-34141D01*
X38228Y-34114D01*
X38234Y-34086D01*
X38234Y-34057D01*
X38228Y-34028D01*
X38217Y-34001D01*
X38201Y-33977D01*
X38180Y-33957D01*
X37791Y-33567D01*
X37766Y-33551D01*
X37739Y-33540D01*
X37711Y-33534D01*
X37682Y-33534D01*
X37653Y-33540D01*
X37626Y-33551D01*
X37602Y-33567D01*
X37582Y-33587D01*
X37315Y-33854D01*
X37315Y-33167D01*
X37315Y-33138D01*
X37315Y-22611D01*
X37315Y-22582D01*
X37309Y-22553D01*
X37298Y-22526D01*
X37282Y-22502D01*
X37262Y-22482D01*
X36760Y-21981D01*
X36736Y-21964D01*
X36709Y-21953D01*
X36681Y-21948D01*
X36652Y-21948D01*
X36623Y-21953D01*
X36596Y-21964D01*
X36572Y-21981D01*
X36552Y-22001D01*
X36486Y-22067D01*
X36480Y-22065D01*
X36464Y-22060D01*
X36463Y-22060D01*
X36462Y-22060D01*
X36445Y-22058D01*
X36428Y-22056D01*
X36426Y-22056D01*
X36426Y-22056D01*
X36426Y-22056D01*
X36425Y-22056D01*
X36169Y-22056D01*
X36167Y-22046D01*
X36147Y-21997D01*
X36117Y-21952D01*
X36080Y-21914D01*
X36035Y-21884D01*
X35986Y-21864D01*
X35934Y-21853D01*
X35880Y-21853D01*
X35828Y-21863D01*
X35778Y-21883D01*
X35733Y-21912D01*
X35695Y-21949D01*
X35665Y-21994D01*
X35646Y-22037D01*
X35646Y-21567D01*
X35636Y-21515D01*
X35615Y-21465D01*
X35586Y-21421D01*
X35548Y-21383D01*
X35504Y-21353D01*
X35455Y-21332D01*
X35402Y-21322D01*
X35366Y-21321D01*
X35075Y-21030D01*
X35075Y-20996D01*
X35065Y-20944D01*
X35045Y-20895D01*
X35015Y-20850D01*
X34977Y-20812D01*
X34933Y-20782D01*
X34884Y-20761D01*
X34831Y-20751D01*
X34778Y-20750D01*
X34725Y-20760D01*
X34676Y-20780D01*
X34631Y-20810D01*
X34593Y-20847D01*
X34563Y-20891D01*
X34542Y-20940D01*
X34530Y-20993D01*
X34530Y-21046D01*
X34539Y-21099D01*
X34559Y-21148D01*
X34588Y-21193D01*
X34625Y-21232D01*
X34669Y-21262D01*
X34718Y-21284D01*
X34770Y-21295D01*
X34810Y-21296D01*
X35101Y-21587D01*
X35101Y-21617D01*
X35110Y-21670D01*
X35130Y-21719D01*
X35159Y-21764D01*
X35196Y-21803D01*
X35240Y-21833D01*
X35289Y-21855D01*
X35341Y-21866D01*
X35395Y-21867D01*
X35447Y-21858D01*
X35497Y-21839D01*
X35542Y-21810D01*
X35581Y-21773D01*
X35612Y-21729D01*
X35633Y-21680D01*
X35645Y-21628D01*
X35646Y-21567D01*
X35646Y-22037D01*
X35644Y-22043D01*
X35633Y-22095D01*
X35632Y-22148D01*
X35642Y-22201D01*
X35661Y-22251D01*
X35690Y-22296D01*
X35727Y-22334D01*
X35771Y-22365D01*
X35820Y-22386D01*
X35873Y-22398D01*
X35917Y-22398D01*
X35918Y-22399D01*
X35919Y-22400D01*
X35934Y-22408D01*
X35949Y-22416D01*
X35950Y-22416D01*
X35951Y-22417D01*
X35968Y-22422D01*
X35984Y-22427D01*
X35985Y-22427D01*
X35986Y-22428D01*
X36003Y-22429D01*
X36021Y-22431D01*
X36022Y-22431D01*
X36022Y-22431D01*
X36023Y-22431D01*
X36023Y-22431D01*
X36139Y-22431D01*
X36135Y-22442D01*
X36129Y-22470D01*
X36129Y-22500D01*
X36135Y-22528D01*
X36146Y-22555D01*
X36162Y-22579D01*
X36182Y-22600D01*
X36684Y-23101D01*
X36708Y-23117D01*
X36735Y-23128D01*
X36763Y-23134D01*
X36792Y-23134D01*
X36821Y-23128D01*
X36848Y-23117D01*
X36872Y-23101D01*
X36892Y-23080D01*
X37282Y-22691D01*
X37298Y-22666D01*
X37309Y-22639D01*
X37315Y-22611D01*
X37315Y-33138D01*
X37309Y-33110D01*
X37298Y-33083D01*
X37282Y-33059D01*
X37274Y-33050D01*
X37274Y-29979D01*
X37274Y-29231D01*
X37164Y-29231D01*
X37167Y-29225D01*
X37183Y-29166D01*
X37152Y-29112D01*
X36756Y-29112D01*
X36756Y-29120D01*
X36737Y-29120D01*
X36737Y-29112D01*
X36341Y-29112D01*
X36309Y-29166D01*
X36326Y-29225D01*
X36328Y-29231D01*
X36307Y-29231D01*
X35893Y-28817D01*
X35880Y-28806D01*
X35867Y-28795D01*
X35866Y-28794D01*
X35865Y-28794D01*
X35850Y-28785D01*
X35834Y-28777D01*
X35834Y-28777D01*
X35833Y-28776D01*
X35816Y-28771D01*
X35800Y-28766D01*
X35799Y-28766D01*
X35798Y-28766D01*
X35780Y-28764D01*
X35763Y-28762D01*
X35761Y-28762D01*
X35761Y-28762D01*
X35761Y-28762D01*
X35761Y-28762D01*
X35155Y-28762D01*
X35155Y-28761D01*
X35161Y-28733D01*
X35161Y-28703D01*
X35161Y-28676D01*
X35124Y-28639D01*
X34629Y-28639D01*
X34629Y-28647D01*
X34610Y-28647D01*
X34610Y-28639D01*
X34602Y-28639D01*
X34602Y-28620D01*
X34610Y-28620D01*
X34610Y-28612D01*
X34629Y-28612D01*
X34629Y-28620D01*
X35124Y-28620D01*
X35161Y-28583D01*
X35161Y-28556D01*
X35161Y-28526D01*
X35155Y-28498D01*
X35155Y-28497D01*
X35720Y-28497D01*
X35940Y-28717D01*
X35953Y-28728D01*
X35966Y-28739D01*
X35967Y-28739D01*
X35968Y-28740D01*
X35983Y-28748D01*
X35998Y-28757D01*
X35999Y-28757D01*
X36000Y-28757D01*
X36017Y-28762D01*
X36033Y-28768D01*
X36034Y-28768D01*
X36035Y-28768D01*
X36052Y-28770D01*
X36070Y-28772D01*
X36072Y-28772D01*
X36072Y-28772D01*
X36072Y-28772D01*
X36072Y-28772D01*
X36250Y-28772D01*
X36250Y-28955D01*
X36338Y-28955D01*
X36326Y-28980D01*
X36309Y-29039D01*
X36341Y-29093D01*
X36737Y-29093D01*
X36737Y-29085D01*
X36756Y-29085D01*
X36756Y-29093D01*
X37152Y-29093D01*
X37183Y-29039D01*
X37167Y-28980D01*
X37154Y-28955D01*
X37274Y-28955D01*
X37274Y-27872D01*
X37274Y-27321D01*
X37274Y-25687D01*
X36473Y-25687D01*
X36418Y-25729D01*
X36418Y-25060D01*
X36381Y-24873D01*
X36308Y-24696D01*
X36202Y-24537D01*
X36067Y-24401D01*
X35909Y-24295D01*
X35733Y-24220D01*
X35703Y-24214D01*
X35703Y-23113D01*
X35703Y-23076D01*
X35703Y-22476D01*
X35696Y-22440D01*
X35682Y-22406D01*
X35661Y-22376D01*
X35635Y-22350D01*
X35605Y-22329D01*
X35571Y-22315D01*
X35534Y-22308D01*
X35498Y-22308D01*
X34898Y-22308D01*
X34861Y-22315D01*
X34827Y-22329D01*
X34797Y-22350D01*
X34771Y-22376D01*
X34750Y-22406D01*
X34736Y-22440D01*
X34729Y-22476D01*
X34729Y-22513D01*
X34729Y-23113D01*
X34736Y-23149D01*
X34750Y-23183D01*
X34771Y-23214D01*
X34797Y-23240D01*
X34827Y-23260D01*
X34861Y-23275D01*
X34898Y-23282D01*
X34934Y-23282D01*
X35534Y-23282D01*
X35571Y-23275D01*
X35605Y-23261D01*
X35635Y-23240D01*
X35661Y-23214D01*
X35682Y-23183D01*
X35696Y-23149D01*
X35703Y-23113D01*
X35703Y-24214D01*
X35546Y-24182D01*
X35354Y-24181D01*
X35167Y-24217D01*
X34990Y-24288D01*
X34830Y-24393D01*
X34693Y-24526D01*
X34585Y-24684D01*
X34510Y-24860D01*
X34470Y-25047D01*
X34468Y-25238D01*
X34502Y-25426D01*
X34572Y-25603D01*
X34676Y-25764D01*
X34809Y-25901D01*
X34966Y-26010D01*
X35141Y-26087D01*
X35327Y-26128D01*
X35518Y-26132D01*
X35707Y-26099D01*
X35885Y-26030D01*
X36046Y-25927D01*
X36184Y-25796D01*
X36295Y-25639D01*
X36372Y-25465D01*
X36415Y-25279D01*
X36418Y-25060D01*
X36418Y-25729D01*
X36250Y-25855D01*
X36250Y-26003D01*
X35701Y-26552D01*
X35123Y-26552D01*
X35107Y-26536D01*
X35083Y-26520D01*
X35056Y-26509D01*
X35028Y-26503D01*
X34998Y-26503D01*
X34211Y-26503D01*
X34183Y-26509D01*
X34156Y-26520D01*
X34132Y-26536D01*
X34111Y-26557D01*
X34095Y-26581D01*
X34084Y-26608D01*
X34078Y-26636D01*
X34078Y-26666D01*
X34078Y-26843D01*
X34084Y-26871D01*
X34094Y-26894D01*
X34084Y-26918D01*
X34078Y-26946D01*
X34078Y-26976D01*
X34078Y-27153D01*
X34084Y-27181D01*
X34095Y-27208D01*
X34096Y-27210D01*
X34095Y-27211D01*
X34084Y-27238D01*
X34078Y-27266D01*
X34078Y-27296D01*
X34078Y-27473D01*
X34084Y-27501D01*
X34094Y-27524D01*
X34084Y-27548D01*
X34078Y-27576D01*
X34078Y-27606D01*
X34078Y-27783D01*
X34084Y-27811D01*
X34095Y-27838D01*
X34096Y-27840D01*
X34095Y-27841D01*
X34084Y-27868D01*
X34078Y-27896D01*
X34078Y-27926D01*
X34078Y-27986D01*
X33858Y-27766D01*
X33858Y-27303D01*
X33858Y-26491D01*
X33945Y-26491D01*
X33973Y-26485D01*
X34000Y-26474D01*
X34024Y-26458D01*
X34045Y-26437D01*
X34061Y-26413D01*
X34072Y-26386D01*
X34078Y-26358D01*
X34078Y-26328D01*
X34078Y-25541D01*
X34072Y-25513D01*
X34061Y-25486D01*
X34045Y-25462D01*
X34029Y-25446D01*
X34029Y-25054D01*
X34599Y-24485D01*
X34610Y-24471D01*
X34621Y-24458D01*
X34621Y-24457D01*
X34622Y-24456D01*
X34630Y-24441D01*
X34639Y-24426D01*
X34639Y-24425D01*
X34639Y-24424D01*
X34644Y-24407D01*
X34650Y-24391D01*
X34650Y-24390D01*
X34650Y-24389D01*
X34652Y-24372D01*
X34654Y-24354D01*
X34654Y-24353D01*
X34654Y-24353D01*
X34654Y-24352D01*
X34654Y-24352D01*
X34654Y-24349D01*
X34697Y-24349D01*
X34773Y-24272D01*
X34787Y-24263D01*
X34808Y-24242D01*
X34817Y-24228D01*
X34872Y-24173D01*
X34872Y-23364D01*
X34703Y-23364D01*
X34703Y-22747D01*
X34685Y-22653D01*
X34648Y-22565D01*
X34595Y-22485D01*
X34528Y-22418D01*
X34449Y-22364D01*
X34361Y-22327D01*
X34267Y-22308D01*
X34196Y-22308D01*
X34196Y-21539D01*
X34196Y-21296D01*
X34196Y-21202D01*
X34196Y-20959D01*
X34191Y-20930D01*
X34180Y-20904D01*
X34163Y-20879D01*
X34143Y-20859D01*
X34119Y-20843D01*
X34092Y-20832D01*
X34063Y-20826D01*
X34034Y-20826D01*
X33741Y-20826D01*
X33704Y-20863D01*
X33704Y-21239D01*
X34159Y-21239D01*
X34196Y-21202D01*
X34196Y-21296D01*
X34159Y-21259D01*
X33704Y-21259D01*
X33704Y-21635D01*
X33741Y-21672D01*
X34034Y-21672D01*
X34063Y-21672D01*
X34092Y-21667D01*
X34119Y-21656D01*
X34143Y-21639D01*
X34163Y-21619D01*
X34180Y-21595D01*
X34191Y-21568D01*
X34196Y-21539D01*
X34196Y-22308D01*
X34172Y-22307D01*
X34078Y-22325D01*
X33989Y-22361D01*
X33909Y-22413D01*
X33841Y-22480D01*
X33787Y-22559D01*
X33750Y-22647D01*
X33730Y-22740D01*
X33728Y-22836D01*
X33746Y-22930D01*
X33781Y-23018D01*
X33833Y-23099D01*
X33899Y-23167D01*
X33977Y-23222D01*
X34065Y-23260D01*
X34158Y-23281D01*
X34254Y-23283D01*
X34348Y-23266D01*
X34437Y-23232D01*
X34517Y-23180D01*
X34586Y-23115D01*
X34642Y-23036D01*
X34680Y-22949D01*
X34702Y-22856D01*
X34703Y-22747D01*
X34703Y-23364D01*
X33685Y-23364D01*
X33685Y-21635D01*
X33685Y-21259D01*
X33685Y-21239D01*
X33685Y-20863D01*
X33648Y-20826D01*
X33355Y-20826D01*
X33326Y-20826D01*
X33297Y-20832D01*
X33270Y-20843D01*
X33246Y-20859D01*
X33225Y-20879D01*
X33209Y-20904D01*
X33198Y-20930D01*
X33192Y-20959D01*
X33192Y-21202D01*
X33229Y-21239D01*
X33685Y-21239D01*
X33685Y-21259D01*
X33229Y-21259D01*
X33192Y-21296D01*
X33192Y-21539D01*
X33198Y-21568D01*
X33209Y-21595D01*
X33225Y-21619D01*
X33246Y-21639D01*
X33270Y-21656D01*
X33297Y-21667D01*
X33326Y-21672D01*
X33355Y-21672D01*
X33648Y-21672D01*
X33685Y-21635D01*
X33685Y-23364D01*
X33666Y-23364D01*
X33666Y-22803D01*
X33659Y-22715D01*
X33635Y-22630D01*
X33594Y-22551D01*
X33586Y-22538D01*
X33515Y-22510D01*
X33501Y-22524D01*
X33501Y-22496D01*
X33472Y-22425D01*
X33395Y-22382D01*
X33311Y-22355D01*
X33224Y-22345D01*
X33136Y-22352D01*
X33051Y-22376D01*
X32973Y-22416D01*
X32960Y-22425D01*
X32931Y-22496D01*
X33216Y-22781D01*
X33501Y-22496D01*
X33501Y-22524D01*
X33230Y-22795D01*
X33515Y-23080D01*
X33586Y-23051D01*
X33629Y-22974D01*
X33656Y-22890D01*
X33666Y-22803D01*
X33666Y-23364D01*
X33501Y-23364D01*
X33501Y-23094D01*
X33216Y-22809D01*
X33202Y-22823D01*
X33202Y-22795D01*
X32917Y-22510D01*
X32846Y-22538D01*
X32804Y-22615D01*
X32776Y-22699D01*
X32766Y-22787D01*
X32773Y-22875D01*
X32798Y-22960D01*
X32838Y-23038D01*
X32846Y-23051D01*
X32917Y-23080D01*
X33202Y-22795D01*
X33202Y-22823D01*
X32931Y-23094D01*
X32960Y-23164D01*
X33037Y-23207D01*
X33121Y-23234D01*
X33208Y-23245D01*
X33296Y-23237D01*
X33381Y-23213D01*
X33459Y-23173D01*
X33472Y-23164D01*
X33501Y-23094D01*
X33501Y-23364D01*
X32254Y-23364D01*
X32349Y-23270D01*
X32354Y-23264D01*
X32437Y-23232D01*
X32517Y-23180D01*
X32586Y-23115D01*
X32642Y-23036D01*
X32680Y-22949D01*
X32702Y-22856D01*
X32703Y-22747D01*
X32685Y-22653D01*
X32648Y-22565D01*
X32595Y-22485D01*
X32528Y-22418D01*
X32449Y-22364D01*
X32361Y-22327D01*
X32307Y-22316D01*
X32307Y-21539D01*
X32307Y-21510D01*
X32307Y-20959D01*
X32301Y-20930D01*
X32290Y-20904D01*
X32274Y-20879D01*
X32253Y-20859D01*
X32229Y-20843D01*
X32202Y-20832D01*
X32173Y-20826D01*
X32144Y-20826D01*
X31436Y-20826D01*
X31407Y-20832D01*
X31380Y-20843D01*
X31356Y-20859D01*
X31336Y-20879D01*
X31319Y-20904D01*
X31308Y-20930D01*
X31303Y-20959D01*
X31303Y-20988D01*
X31303Y-21061D01*
X31151Y-21061D01*
X31134Y-21063D01*
X31117Y-21065D01*
X31116Y-21065D01*
X31115Y-21065D01*
X31098Y-21070D01*
X31082Y-21075D01*
X31081Y-21075D01*
X31080Y-21076D01*
X31065Y-21084D01*
X31049Y-21092D01*
X31049Y-21092D01*
X31048Y-21093D01*
X31034Y-21104D01*
X31021Y-21115D01*
X31019Y-21116D01*
X31019Y-21116D01*
X31019Y-21116D01*
X31019Y-21116D01*
X30991Y-21144D01*
X30959Y-21144D01*
X30906Y-21154D01*
X30857Y-21174D01*
X30812Y-21203D01*
X30774Y-21241D01*
X30744Y-21285D01*
X30723Y-21334D01*
X30712Y-21386D01*
X30711Y-21440D01*
X30720Y-21492D01*
X30740Y-21542D01*
X30769Y-21587D01*
X30806Y-21625D01*
X30850Y-21656D01*
X30899Y-21677D01*
X30951Y-21689D01*
X31005Y-21690D01*
X31057Y-21681D01*
X31107Y-21661D01*
X31152Y-21633D01*
X31191Y-21596D01*
X31222Y-21552D01*
X31244Y-21503D01*
X31256Y-21451D01*
X31256Y-21437D01*
X31303Y-21437D01*
X31303Y-21539D01*
X31308Y-21568D01*
X31319Y-21595D01*
X31336Y-21619D01*
X31356Y-21639D01*
X31380Y-21656D01*
X31407Y-21667D01*
X31436Y-21672D01*
X31465Y-21672D01*
X32173Y-21672D01*
X32202Y-21667D01*
X32229Y-21656D01*
X32253Y-21639D01*
X32274Y-21619D01*
X32290Y-21595D01*
X32301Y-21568D01*
X32307Y-21539D01*
X32307Y-22316D01*
X32267Y-22308D01*
X32172Y-22307D01*
X32078Y-22325D01*
X31989Y-22361D01*
X31909Y-22413D01*
X31841Y-22480D01*
X31787Y-22559D01*
X31750Y-22647D01*
X31730Y-22740D01*
X31728Y-22836D01*
X31746Y-22930D01*
X31781Y-23018D01*
X31833Y-23099D01*
X31899Y-23167D01*
X31912Y-23176D01*
X31833Y-23255D01*
X31822Y-23268D01*
X31811Y-23281D01*
X31811Y-23282D01*
X31810Y-23283D01*
X31802Y-23298D01*
X31794Y-23313D01*
X31793Y-23314D01*
X31793Y-23315D01*
X31788Y-23332D01*
X31782Y-23348D01*
X31782Y-23349D01*
X31782Y-23350D01*
X31781Y-23364D01*
X31640Y-23364D01*
X31640Y-23364D01*
X31640Y-23363D01*
X31631Y-23348D01*
X31623Y-23332D01*
X31623Y-23332D01*
X31622Y-23331D01*
X31611Y-23317D01*
X31601Y-23304D01*
X31599Y-23302D01*
X31599Y-23302D01*
X31599Y-23302D01*
X31599Y-23302D01*
X31493Y-23196D01*
X31517Y-23180D01*
X31586Y-23115D01*
X31642Y-23036D01*
X31680Y-22949D01*
X31702Y-22856D01*
X31703Y-22747D01*
X31685Y-22653D01*
X31648Y-22565D01*
X31595Y-22485D01*
X31528Y-22418D01*
X31449Y-22364D01*
X31361Y-22327D01*
X31267Y-22308D01*
X31172Y-22307D01*
X31078Y-22325D01*
X30989Y-22361D01*
X30909Y-22413D01*
X30841Y-22480D01*
X30787Y-22559D01*
X30750Y-22647D01*
X30730Y-22740D01*
X30728Y-22836D01*
X30746Y-22930D01*
X30781Y-23018D01*
X30833Y-23099D01*
X30899Y-23167D01*
X30977Y-23222D01*
X31040Y-23250D01*
X31042Y-23254D01*
X31042Y-23255D01*
X31043Y-23256D01*
X31051Y-23271D01*
X31059Y-23287D01*
X31059Y-23288D01*
X31060Y-23288D01*
X31071Y-23302D01*
X31082Y-23315D01*
X31083Y-23317D01*
X31083Y-23317D01*
X31083Y-23317D01*
X31083Y-23317D01*
X31131Y-23364D01*
X30703Y-23364D01*
X30703Y-22747D01*
X30685Y-22653D01*
X30648Y-22565D01*
X30607Y-22503D01*
X30607Y-20996D01*
X30596Y-20944D01*
X30576Y-20895D01*
X30546Y-20850D01*
X30509Y-20812D01*
X30464Y-20782D01*
X30415Y-20761D01*
X30363Y-20751D01*
X30309Y-20750D01*
X30257Y-20760D01*
X30207Y-20780D01*
X30162Y-20810D01*
X30136Y-20835D01*
X29567Y-20835D01*
X29544Y-20812D01*
X29500Y-20782D01*
X29451Y-20761D01*
X29398Y-20751D01*
X29345Y-20750D01*
X29292Y-20760D01*
X29243Y-20780D01*
X29198Y-20810D01*
X29160Y-20847D01*
X29130Y-20891D01*
X29108Y-20940D01*
X29097Y-20993D01*
X29097Y-21046D01*
X29106Y-21099D01*
X29126Y-21148D01*
X29155Y-21193D01*
X29192Y-21232D01*
X29236Y-21262D01*
X29285Y-21284D01*
X29337Y-21295D01*
X29391Y-21296D01*
X29443Y-21287D01*
X29493Y-21268D01*
X29538Y-21239D01*
X29568Y-21211D01*
X30136Y-21211D01*
X30157Y-21232D01*
X30200Y-21262D01*
X30249Y-21284D01*
X30302Y-21295D01*
X30355Y-21296D01*
X30408Y-21287D01*
X30458Y-21268D01*
X30503Y-21239D01*
X30542Y-21202D01*
X30572Y-21158D01*
X30594Y-21110D01*
X30606Y-21057D01*
X30607Y-20996D01*
X30607Y-22503D01*
X30595Y-22485D01*
X30528Y-22418D01*
X30449Y-22364D01*
X30361Y-22327D01*
X30267Y-22308D01*
X30172Y-22307D01*
X30078Y-22325D01*
X29989Y-22361D01*
X29909Y-22413D01*
X29841Y-22480D01*
X29787Y-22559D01*
X29750Y-22647D01*
X29730Y-22740D01*
X29728Y-22836D01*
X29746Y-22930D01*
X29781Y-23018D01*
X29833Y-23099D01*
X29899Y-23167D01*
X29977Y-23222D01*
X30065Y-23260D01*
X30158Y-23281D01*
X30254Y-23283D01*
X30348Y-23266D01*
X30437Y-23232D01*
X30517Y-23180D01*
X30586Y-23115D01*
X30642Y-23036D01*
X30680Y-22949D01*
X30702Y-22856D01*
X30703Y-22747D01*
X30703Y-23364D01*
X30581Y-23364D01*
X30581Y-24173D01*
X30757Y-24349D01*
X30778Y-24349D01*
X30778Y-24352D01*
X30780Y-24369D01*
X30782Y-24386D01*
X30782Y-24387D01*
X30782Y-24388D01*
X30787Y-24405D01*
X30792Y-24422D01*
X30792Y-24422D01*
X30793Y-24423D01*
X30801Y-24439D01*
X30809Y-24454D01*
X30809Y-24455D01*
X30810Y-24456D01*
X30821Y-24469D01*
X30832Y-24483D01*
X30833Y-24484D01*
X30833Y-24484D01*
X30833Y-24484D01*
X30833Y-24485D01*
X31450Y-25101D01*
X31450Y-25446D01*
X31434Y-25462D01*
X31418Y-25486D01*
X31407Y-25513D01*
X31401Y-25541D01*
X31401Y-25571D01*
X31401Y-26358D01*
X31407Y-26386D01*
X31418Y-26413D01*
X31434Y-26437D01*
X31455Y-26458D01*
X31479Y-26474D01*
X31506Y-26485D01*
X31534Y-26491D01*
X31564Y-26491D01*
X31741Y-26491D01*
X31769Y-26485D01*
X31794Y-26474D01*
X31820Y-26485D01*
X31848Y-26491D01*
X31878Y-26491D01*
X31989Y-26491D01*
X31965Y-26551D01*
X32250Y-26836D01*
X32534Y-26551D01*
X32510Y-26491D01*
X32657Y-26491D01*
X32657Y-26663D01*
X32628Y-26606D01*
X32619Y-26593D01*
X32548Y-26565D01*
X32263Y-26850D01*
X32548Y-27134D01*
X32619Y-27106D01*
X32657Y-27038D01*
X32657Y-27204D01*
X32512Y-27204D01*
X32534Y-27148D01*
X32250Y-26863D01*
X32236Y-26877D01*
X32236Y-26850D01*
X31951Y-26565D01*
X31880Y-26593D01*
X31837Y-26670D01*
X31810Y-26754D01*
X31800Y-26842D01*
X31807Y-26930D01*
X31831Y-27014D01*
X31871Y-27093D01*
X31880Y-27106D01*
X31951Y-27134D01*
X32236Y-26850D01*
X32236Y-26877D01*
X31965Y-27148D01*
X31987Y-27204D01*
X31653Y-27204D01*
X31653Y-27367D01*
X31647Y-27356D01*
X31646Y-27355D01*
X31646Y-27354D01*
X31633Y-27338D01*
X31619Y-27321D01*
X31618Y-27319D01*
X31618Y-27319D01*
X31618Y-27319D01*
X31617Y-27319D01*
X31505Y-27207D01*
X31489Y-27193D01*
X31472Y-27180D01*
X31471Y-27179D01*
X31471Y-27178D01*
X31452Y-27168D01*
X31434Y-27158D01*
X31432Y-27158D01*
X31431Y-27157D01*
X31411Y-27151D01*
X31395Y-27146D01*
X31395Y-27126D01*
X31395Y-26949D01*
X31389Y-26921D01*
X31378Y-26895D01*
X31389Y-26869D01*
X31395Y-26841D01*
X31395Y-26811D01*
X31395Y-26634D01*
X31389Y-26606D01*
X31378Y-26579D01*
X31362Y-26555D01*
X31341Y-26534D01*
X31317Y-26518D01*
X31290Y-26507D01*
X31262Y-26501D01*
X31232Y-26501D01*
X31024Y-26501D01*
X31024Y-25060D01*
X30987Y-24873D01*
X30914Y-24696D01*
X30808Y-24537D01*
X30674Y-24401D01*
X30515Y-24295D01*
X30339Y-24220D01*
X30152Y-24182D01*
X29961Y-24181D01*
X29773Y-24217D01*
X29596Y-24288D01*
X29436Y-24393D01*
X29320Y-24506D01*
X29320Y-22500D01*
X29320Y-22470D01*
X29314Y-22442D01*
X29303Y-22415D01*
X29287Y-22391D01*
X29115Y-22219D01*
X29063Y-22219D01*
X29049Y-22233D01*
X29049Y-22205D01*
X29049Y-22153D01*
X28877Y-21981D01*
X28853Y-21964D01*
X28826Y-21953D01*
X28797Y-21948D01*
X28768Y-21948D01*
X28740Y-21953D01*
X28713Y-21964D01*
X28689Y-21981D01*
X28668Y-22001D01*
X28461Y-22208D01*
X28461Y-22261D01*
X28727Y-22527D01*
X29049Y-22205D01*
X29049Y-22233D01*
X28741Y-22541D01*
X29007Y-22807D01*
X29059Y-22807D01*
X29267Y-22600D01*
X29287Y-22579D01*
X29303Y-22555D01*
X29314Y-22528D01*
X29320Y-22500D01*
X29320Y-24506D01*
X29299Y-24526D01*
X29191Y-24684D01*
X29116Y-24860D01*
X29076Y-25047D01*
X29074Y-25238D01*
X29108Y-25426D01*
X29179Y-25603D01*
X29282Y-25764D01*
X29415Y-25901D01*
X29572Y-26010D01*
X29747Y-26087D01*
X29934Y-26128D01*
X30125Y-26132D01*
X30313Y-26099D01*
X30491Y-26030D01*
X30652Y-25927D01*
X30791Y-25796D01*
X30901Y-25639D01*
X30979Y-25465D01*
X31021Y-25279D01*
X31024Y-25060D01*
X31024Y-26501D01*
X30445Y-26501D01*
X30417Y-26507D01*
X30390Y-26518D01*
X30366Y-26534D01*
X30350Y-26550D01*
X29981Y-26550D01*
X29422Y-25991D01*
X29408Y-25980D01*
X29395Y-25969D01*
X29394Y-25968D01*
X29393Y-25968D01*
X29378Y-25959D01*
X29363Y-25951D01*
X29362Y-25951D01*
X29361Y-25950D01*
X29344Y-25945D01*
X29328Y-25940D01*
X29327Y-25940D01*
X29326Y-25940D01*
X29309Y-25938D01*
X29291Y-25936D01*
X29290Y-25936D01*
X29290Y-25936D01*
X29289Y-25936D01*
X29289Y-25936D01*
X29276Y-25936D01*
X29166Y-25826D01*
X29156Y-25812D01*
X29136Y-25791D01*
X29122Y-25782D01*
X29027Y-25687D01*
X28993Y-25687D01*
X28993Y-22873D01*
X28993Y-22821D01*
X28727Y-22555D01*
X28713Y-22569D01*
X28713Y-22541D01*
X28447Y-22274D01*
X28395Y-22274D01*
X28187Y-22482D01*
X28167Y-22502D01*
X28151Y-22526D01*
X28140Y-22553D01*
X28134Y-22582D01*
X28134Y-22611D01*
X28140Y-22639D01*
X28151Y-22666D01*
X28167Y-22691D01*
X28339Y-22863D01*
X28391Y-22863D01*
X28713Y-22541D01*
X28713Y-22569D01*
X28405Y-22877D01*
X28405Y-22929D01*
X28577Y-23101D01*
X28601Y-23117D01*
X28628Y-23128D01*
X28657Y-23134D01*
X28686Y-23134D01*
X28714Y-23128D01*
X28741Y-23117D01*
X28765Y-23101D01*
X28786Y-23080D01*
X28993Y-22873D01*
X28993Y-25687D01*
X28219Y-25687D01*
X28219Y-26849D01*
X28219Y-27459D01*
X28336Y-27459D01*
X28326Y-27480D01*
X28309Y-27539D01*
X28341Y-27593D01*
X28737Y-27593D01*
X28737Y-27585D01*
X28756Y-27585D01*
X28756Y-27593D01*
X29152Y-27593D01*
X29183Y-27539D01*
X29167Y-27480D01*
X29156Y-27459D01*
X29282Y-27459D01*
X29282Y-27351D01*
X29667Y-27351D01*
X29844Y-27528D01*
X29861Y-27542D01*
X29877Y-27555D01*
X29878Y-27556D01*
X29879Y-27557D01*
X29897Y-27567D01*
X29916Y-27577D01*
X29917Y-27577D01*
X29918Y-27578D01*
X29938Y-27584D01*
X29958Y-27590D01*
X29959Y-27590D01*
X29960Y-27591D01*
X29981Y-27593D01*
X30002Y-27595D01*
X30004Y-27595D01*
X30005Y-27595D01*
X30005Y-27595D01*
X30005Y-27595D01*
X30312Y-27595D01*
X30312Y-27609D01*
X30312Y-27636D01*
X30349Y-27673D01*
X30844Y-27673D01*
X30844Y-27665D01*
X30863Y-27665D01*
X30863Y-27673D01*
X30871Y-27673D01*
X30871Y-27692D01*
X30863Y-27692D01*
X30863Y-27700D01*
X30844Y-27700D01*
X30844Y-27692D01*
X30349Y-27692D01*
X30312Y-27729D01*
X30312Y-27756D01*
X30312Y-27770D01*
X30025Y-27770D01*
X30004Y-27772D01*
X29983Y-27774D01*
X29982Y-27774D01*
X29981Y-27774D01*
X29961Y-27780D01*
X29941Y-27786D01*
X29940Y-27787D01*
X29938Y-27787D01*
X29920Y-27797D01*
X29901Y-27807D01*
X29900Y-27807D01*
X29899Y-27808D01*
X29883Y-27821D01*
X29866Y-27834D01*
X29865Y-27836D01*
X29865Y-27836D01*
X29865Y-27836D01*
X29864Y-27837D01*
X29805Y-27896D01*
X29282Y-27896D01*
X29282Y-27774D01*
X29143Y-27774D01*
X29167Y-27725D01*
X29183Y-27666D01*
X29152Y-27612D01*
X28756Y-27612D01*
X28756Y-27620D01*
X28737Y-27620D01*
X28737Y-27612D01*
X28341Y-27612D01*
X28309Y-27666D01*
X28326Y-27725D01*
X28350Y-27774D01*
X28219Y-27774D01*
X28219Y-28443D01*
X28344Y-28443D01*
X28326Y-28480D01*
X28309Y-28539D01*
X28341Y-28593D01*
X28737Y-28593D01*
X28737Y-28585D01*
X28756Y-28585D01*
X28756Y-28593D01*
X29152Y-28593D01*
X29183Y-28539D01*
X29167Y-28480D01*
X29149Y-28443D01*
X29282Y-28443D01*
X29282Y-28351D01*
X29899Y-28351D01*
X29920Y-28349D01*
X29941Y-28347D01*
X29942Y-28347D01*
X29943Y-28347D01*
X29963Y-28341D01*
X29984Y-28335D01*
X29985Y-28334D01*
X29986Y-28334D01*
X30004Y-28324D01*
X30023Y-28314D01*
X30024Y-28314D01*
X30025Y-28313D01*
X30041Y-28300D01*
X30058Y-28287D01*
X30059Y-28285D01*
X30060Y-28285D01*
X30060Y-28285D01*
X30060Y-28284D01*
X30119Y-28225D01*
X30312Y-28225D01*
X30312Y-28239D01*
X30312Y-28266D01*
X30349Y-28303D01*
X30844Y-28303D01*
X30844Y-28295D01*
X30863Y-28295D01*
X30863Y-28303D01*
X30871Y-28303D01*
X30871Y-28322D01*
X30863Y-28322D01*
X30863Y-28330D01*
X30844Y-28330D01*
X30844Y-28322D01*
X30349Y-28322D01*
X30312Y-28359D01*
X30312Y-28386D01*
X30312Y-28416D01*
X30317Y-28440D01*
X30017Y-28440D01*
X30000Y-28442D01*
X29983Y-28443D01*
X29982Y-28443D01*
X29981Y-28443D01*
X29964Y-28448D01*
X29947Y-28453D01*
X29947Y-28454D01*
X29946Y-28454D01*
X29930Y-28462D01*
X29915Y-28470D01*
X29914Y-28471D01*
X29913Y-28471D01*
X29900Y-28482D01*
X29886Y-28493D01*
X29885Y-28494D01*
X29885Y-28494D01*
X29885Y-28494D01*
X29884Y-28495D01*
X29443Y-28936D01*
X29282Y-28936D01*
X29282Y-28758D01*
X29150Y-28758D01*
X29167Y-28725D01*
X29183Y-28666D01*
X29152Y-28612D01*
X28756Y-28612D01*
X28756Y-28620D01*
X28737Y-28620D01*
X28737Y-28612D01*
X28341Y-28612D01*
X28309Y-28666D01*
X28326Y-28725D01*
X28342Y-28758D01*
X28219Y-28758D01*
X28219Y-30018D01*
X29027Y-30018D01*
X29234Y-29811D01*
X29273Y-29811D01*
X29290Y-29809D01*
X29308Y-29808D01*
X29309Y-29808D01*
X29310Y-29808D01*
X29326Y-29803D01*
X29343Y-29798D01*
X29344Y-29797D01*
X29345Y-29797D01*
X29360Y-29789D01*
X29375Y-29781D01*
X29376Y-29780D01*
X29377Y-29780D01*
X29390Y-29769D01*
X29404Y-29758D01*
X29405Y-29757D01*
X29405Y-29757D01*
X29405Y-29757D01*
X29406Y-29756D01*
X30032Y-29130D01*
X30350Y-29130D01*
X30366Y-29146D01*
X30390Y-29162D01*
X30417Y-29173D01*
X30445Y-29179D01*
X30475Y-29179D01*
X31262Y-29179D01*
X31290Y-29173D01*
X31317Y-29162D01*
X31341Y-29146D01*
X31362Y-29125D01*
X31378Y-29101D01*
X31389Y-29074D01*
X31395Y-29046D01*
X31395Y-29016D01*
X31395Y-28839D01*
X31389Y-28811D01*
X31378Y-28785D01*
X31389Y-28759D01*
X31395Y-28731D01*
X31395Y-28701D01*
X31395Y-28602D01*
X31398Y-28606D01*
X31411Y-28623D01*
X31413Y-28624D01*
X31413Y-28624D01*
X31413Y-28624D01*
X31413Y-28625D01*
X31653Y-28865D01*
X31653Y-29188D01*
X31536Y-29188D01*
X31508Y-29194D01*
X31481Y-29205D01*
X31457Y-29221D01*
X31436Y-29242D01*
X31420Y-29266D01*
X31409Y-29293D01*
X31403Y-29321D01*
X31403Y-29351D01*
X31403Y-30138D01*
X31409Y-30166D01*
X31420Y-30193D01*
X31436Y-30217D01*
X31452Y-30233D01*
X31452Y-30920D01*
X31024Y-31347D01*
X31024Y-30454D01*
X30987Y-30267D01*
X30914Y-30090D01*
X30808Y-29931D01*
X30674Y-29795D01*
X30515Y-29688D01*
X30339Y-29614D01*
X30152Y-29576D01*
X29961Y-29574D01*
X29773Y-29610D01*
X29596Y-29682D01*
X29436Y-29786D01*
X29299Y-29920D01*
X29191Y-30078D01*
X29116Y-30253D01*
X29076Y-30440D01*
X29074Y-30631D01*
X29108Y-30819D01*
X29179Y-30997D01*
X29282Y-31158D01*
X29415Y-31295D01*
X29572Y-31404D01*
X29747Y-31481D01*
X29934Y-31522D01*
X30125Y-31526D01*
X30313Y-31493D01*
X30491Y-31423D01*
X30652Y-31321D01*
X30791Y-31189D01*
X30901Y-31033D01*
X30979Y-30859D01*
X31021Y-30672D01*
X31024Y-30454D01*
X31024Y-31347D01*
X31015Y-31357D01*
X30836Y-31357D01*
X30782Y-31410D01*
X30756Y-31415D01*
X30730Y-31427D01*
X30705Y-31443D01*
X30685Y-31463D01*
X30669Y-31487D01*
X30658Y-31514D01*
X30653Y-31540D01*
X30581Y-31611D01*
X30581Y-32380D01*
X32309Y-32380D01*
X32309Y-32671D01*
X32222Y-32757D01*
X32190Y-32757D01*
X32138Y-32767D01*
X32088Y-32787D01*
X32043Y-32816D01*
X32005Y-32854D01*
X31975Y-32898D01*
X31954Y-32947D01*
X31943Y-32999D01*
X31942Y-33053D01*
X31952Y-33105D01*
X31971Y-33155D01*
X32000Y-33200D01*
X32037Y-33238D01*
X32081Y-33269D01*
X32130Y-33290D01*
X32182Y-33302D01*
X32236Y-33303D01*
X32289Y-33294D01*
X32338Y-33274D01*
X32384Y-33246D01*
X32422Y-33209D01*
X32453Y-33165D01*
X32475Y-33116D01*
X32487Y-33064D01*
X32487Y-33023D01*
X32629Y-32881D01*
X32640Y-32868D01*
X32651Y-32854D01*
X32652Y-32853D01*
X32652Y-32853D01*
X32660Y-32837D01*
X32669Y-32822D01*
X32669Y-32821D01*
X32670Y-32820D01*
X32675Y-32804D01*
X32680Y-32787D01*
X32680Y-32786D01*
X32680Y-32785D01*
X32682Y-32768D01*
X32684Y-32751D01*
X32684Y-32749D01*
X32684Y-32749D01*
X32684Y-32749D01*
X32684Y-32748D01*
X32684Y-32380D01*
X34912Y-32380D01*
X34912Y-31611D01*
X34657Y-31357D01*
X34614Y-31357D01*
X34037Y-30780D01*
X34037Y-30233D01*
X34053Y-30217D01*
X34069Y-30193D01*
X34080Y-30166D01*
X34086Y-30138D01*
X34086Y-30108D01*
X34086Y-29917D01*
X34128Y-29917D01*
X34145Y-29915D01*
X34162Y-29914D01*
X34163Y-29914D01*
X34164Y-29914D01*
X34181Y-29909D01*
X34197Y-29904D01*
X34198Y-29903D01*
X34199Y-29903D01*
X34215Y-29895D01*
X34230Y-29887D01*
X34231Y-29886D01*
X34232Y-29886D01*
X34245Y-29875D01*
X34259Y-29864D01*
X34260Y-29863D01*
X34260Y-29863D01*
X34260Y-29863D01*
X34260Y-29862D01*
X34384Y-29738D01*
X34395Y-29725D01*
X34406Y-29712D01*
X34407Y-29711D01*
X34407Y-29710D01*
X34416Y-29695D01*
X34424Y-29680D01*
X34424Y-29679D01*
X34425Y-29678D01*
X34430Y-29661D01*
X34435Y-29645D01*
X34435Y-29644D01*
X34435Y-29643D01*
X34437Y-29626D01*
X34439Y-29608D01*
X34439Y-29606D01*
X34439Y-29606D01*
X34439Y-29606D01*
X34439Y-29606D01*
X34439Y-29567D01*
X34459Y-29549D01*
X34490Y-29505D01*
X34511Y-29456D01*
X34523Y-29404D01*
X34524Y-29343D01*
X34514Y-29290D01*
X34493Y-29241D01*
X34464Y-29196D01*
X34453Y-29186D01*
X35028Y-29186D01*
X35056Y-29180D01*
X35083Y-29169D01*
X35107Y-29153D01*
X35123Y-29137D01*
X35683Y-29137D01*
X36250Y-29705D01*
X36250Y-29811D01*
X36317Y-29861D01*
X36320Y-29869D01*
X36336Y-29894D01*
X36357Y-29914D01*
X36381Y-29930D01*
X36408Y-29941D01*
X36430Y-29946D01*
X36473Y-29979D01*
X37274Y-29979D01*
X37274Y-33050D01*
X37110Y-32886D01*
X37058Y-32886D01*
X37044Y-32900D01*
X37044Y-32872D01*
X37044Y-32820D01*
X36872Y-32648D01*
X36848Y-32632D01*
X36821Y-32621D01*
X36792Y-32615D01*
X36763Y-32615D01*
X36735Y-32621D01*
X36708Y-32632D01*
X36684Y-32648D01*
X36663Y-32669D01*
X36456Y-32876D01*
X36456Y-32928D01*
X36722Y-33194D01*
X37044Y-32872D01*
X37044Y-32900D01*
X36736Y-33208D01*
X37002Y-33475D01*
X37054Y-33475D01*
X37262Y-33267D01*
X37282Y-33247D01*
X37298Y-33223D01*
X37309Y-33196D01*
X37315Y-33167D01*
X37315Y-33854D01*
X37081Y-34089D01*
X37064Y-34113D01*
X37053Y-34140D01*
X37048Y-34168D01*
X37048Y-34197D01*
X37053Y-34226D01*
X37064Y-34253D01*
X37081Y-34277D01*
X37101Y-34297D01*
X37491Y-34687D01*
X37515Y-34703D01*
X37539Y-34713D01*
X37437Y-34798D01*
X36988Y-35041D01*
X36988Y-33541D01*
X36988Y-33488D01*
X36722Y-33222D01*
X36708Y-33236D01*
X36708Y-33208D01*
X36442Y-32942D01*
X36418Y-32942D01*
X36418Y-30454D01*
X36381Y-30267D01*
X36308Y-30090D01*
X36202Y-29931D01*
X36067Y-29795D01*
X35909Y-29688D01*
X35733Y-29614D01*
X35546Y-29576D01*
X35354Y-29574D01*
X35167Y-29610D01*
X34990Y-29682D01*
X34830Y-29786D01*
X34693Y-29920D01*
X34585Y-30078D01*
X34510Y-30253D01*
X34470Y-30440D01*
X34468Y-30631D01*
X34502Y-30819D01*
X34572Y-30997D01*
X34676Y-31158D01*
X34809Y-31295D01*
X34966Y-31404D01*
X35141Y-31481D01*
X35327Y-31522D01*
X35518Y-31526D01*
X35707Y-31493D01*
X35885Y-31423D01*
X36046Y-31321D01*
X36184Y-31189D01*
X36295Y-31033D01*
X36372Y-30859D01*
X36415Y-30672D01*
X36418Y-30454D01*
X36418Y-32942D01*
X36390Y-32942D01*
X36182Y-33149D01*
X36162Y-33170D01*
X36146Y-33194D01*
X36135Y-33221D01*
X36129Y-33249D01*
X36129Y-33279D01*
X36135Y-33307D01*
X36146Y-33334D01*
X36162Y-33358D01*
X36334Y-33530D01*
X36386Y-33530D01*
X36708Y-33208D01*
X36708Y-33236D01*
X36400Y-33544D01*
X36400Y-33596D01*
X36572Y-33768D01*
X36596Y-33785D01*
X36623Y-33796D01*
X36652Y-33801D01*
X36681Y-33801D01*
X36709Y-33796D01*
X36736Y-33785D01*
X36760Y-33768D01*
X36781Y-33748D01*
X36988Y-33541D01*
X36988Y-35041D01*
X35998Y-35576D01*
X34435Y-36060D01*
X34183Y-36087D01*
X34191Y-36068D01*
X34196Y-36039D01*
X34196Y-36010D01*
X34196Y-35459D01*
X34196Y-34740D01*
X34196Y-34711D01*
X34196Y-34160D01*
X34191Y-34131D01*
X34180Y-34104D01*
X34163Y-34080D01*
X34143Y-34060D01*
X34119Y-34043D01*
X34092Y-34032D01*
X34063Y-34027D01*
X34034Y-34027D01*
X33831Y-34027D01*
X33828Y-34024D01*
X33828Y-34023D01*
X33828Y-34023D01*
X33814Y-34012D01*
X33800Y-34000D01*
X33800Y-34000D01*
X33799Y-33999D01*
X33784Y-33991D01*
X33768Y-33983D01*
X33768Y-33982D01*
X33767Y-33982D01*
X33750Y-33977D01*
X33738Y-33973D01*
X33511Y-33745D01*
X33511Y-33712D01*
X33501Y-33659D01*
X33480Y-33610D01*
X33451Y-33565D01*
X33413Y-33527D01*
X33369Y-33497D01*
X33319Y-33477D01*
X33267Y-33466D01*
X33214Y-33466D01*
X33161Y-33476D01*
X33112Y-33496D01*
X33067Y-33525D01*
X33029Y-33562D01*
X32998Y-33606D01*
X32977Y-33656D01*
X32966Y-33708D01*
X32965Y-33761D01*
X32975Y-33814D01*
X32995Y-33864D01*
X33024Y-33909D01*
X33061Y-33947D01*
X33105Y-33978D01*
X33154Y-33999D01*
X33206Y-34011D01*
X33246Y-34011D01*
X33276Y-34041D01*
X33270Y-34043D01*
X33246Y-34060D01*
X33225Y-34080D01*
X33209Y-34104D01*
X33198Y-34131D01*
X33192Y-34160D01*
X33192Y-34189D01*
X33192Y-34740D01*
X33198Y-34769D01*
X33209Y-34795D01*
X33225Y-34820D01*
X33246Y-34840D01*
X33270Y-34856D01*
X33297Y-34867D01*
X33326Y-34873D01*
X33355Y-34873D01*
X34063Y-34873D01*
X34092Y-34867D01*
X34119Y-34856D01*
X34143Y-34840D01*
X34163Y-34820D01*
X34180Y-34795D01*
X34191Y-34769D01*
X34196Y-34740D01*
X34196Y-35459D01*
X34191Y-35430D01*
X34180Y-35404D01*
X34163Y-35379D01*
X34143Y-35359D01*
X34119Y-35343D01*
X34092Y-35332D01*
X34063Y-35326D01*
X34034Y-35326D01*
X33326Y-35326D01*
X33297Y-35332D01*
X33270Y-35343D01*
X33246Y-35359D01*
X33225Y-35379D01*
X33209Y-35404D01*
X33198Y-35430D01*
X33192Y-35459D01*
X33192Y-35488D01*
X33192Y-36039D01*
X33198Y-36068D01*
X33209Y-36095D01*
X33225Y-36119D01*
X33246Y-36139D01*
X33270Y-36156D01*
X33297Y-36167D01*
X33326Y-36172D01*
X33355Y-36172D01*
X33368Y-36172D01*
X32800Y-36232D01*
X32757Y-36232D01*
X32147Y-36172D01*
X32173Y-36172D01*
X32202Y-36167D01*
X32229Y-36156D01*
X32253Y-36139D01*
X32274Y-36119D01*
X32290Y-36095D01*
X32301Y-36068D01*
X32307Y-36039D01*
X32307Y-36010D01*
X32307Y-35459D01*
X32307Y-34740D01*
X32307Y-34497D01*
X32307Y-34403D01*
X32307Y-34160D01*
X32301Y-34131D01*
X32290Y-34104D01*
X32274Y-34080D01*
X32253Y-34060D01*
X32229Y-34043D01*
X32202Y-34032D01*
X32173Y-34027D01*
X32144Y-34027D01*
X31851Y-34027D01*
X31814Y-34064D01*
X31814Y-34440D01*
X32270Y-34440D01*
X32307Y-34403D01*
X32307Y-34497D01*
X32270Y-34460D01*
X31814Y-34460D01*
X31814Y-34836D01*
X31851Y-34873D01*
X32144Y-34873D01*
X32173Y-34873D01*
X32202Y-34867D01*
X32229Y-34856D01*
X32253Y-34840D01*
X32274Y-34820D01*
X32290Y-34795D01*
X32301Y-34769D01*
X32307Y-34740D01*
X32307Y-35459D01*
X32301Y-35430D01*
X32290Y-35404D01*
X32274Y-35379D01*
X32253Y-35359D01*
X32229Y-35343D01*
X32202Y-35332D01*
X32173Y-35326D01*
X32144Y-35326D01*
X31795Y-35326D01*
X31795Y-34836D01*
X31795Y-34460D01*
X31795Y-34440D01*
X31795Y-34064D01*
X31758Y-34027D01*
X31465Y-34027D01*
X31436Y-34027D01*
X31407Y-34032D01*
X31380Y-34043D01*
X31356Y-34060D01*
X31336Y-34080D01*
X31319Y-34104D01*
X31308Y-34131D01*
X31303Y-34160D01*
X31303Y-34403D01*
X31340Y-34440D01*
X31795Y-34440D01*
X31795Y-34460D01*
X31340Y-34460D01*
X31303Y-34497D01*
X31303Y-34740D01*
X31308Y-34769D01*
X31319Y-34795D01*
X31336Y-34820D01*
X31356Y-34840D01*
X31380Y-34856D01*
X31407Y-34867D01*
X31436Y-34873D01*
X31465Y-34873D01*
X31758Y-34873D01*
X31795Y-34836D01*
X31795Y-35326D01*
X31436Y-35326D01*
X31407Y-35332D01*
X31380Y-35343D01*
X31356Y-35359D01*
X31336Y-35379D01*
X31319Y-35404D01*
X31308Y-35430D01*
X31303Y-35459D01*
X31303Y-35488D01*
X31303Y-35543D01*
X31296Y-35510D01*
X31276Y-35460D01*
X31246Y-35416D01*
X31208Y-35378D01*
X31164Y-35348D01*
X31115Y-35327D01*
X31062Y-35316D01*
X31009Y-35316D01*
X30956Y-35326D01*
X30907Y-35346D01*
X30862Y-35375D01*
X30824Y-35413D01*
X30794Y-35457D01*
X30773Y-35506D01*
X30762Y-35558D01*
X30761Y-35612D01*
X30770Y-35664D01*
X30790Y-35714D01*
X30819Y-35759D01*
X30856Y-35797D01*
X30900Y-35828D01*
X30949Y-35849D01*
X31001Y-35861D01*
X31041Y-35862D01*
X31061Y-35882D01*
X31075Y-35893D01*
X31088Y-35904D01*
X31089Y-35904D01*
X31090Y-35905D01*
X31105Y-35913D01*
X31120Y-35922D01*
X31121Y-35922D01*
X31122Y-35922D01*
X31138Y-35927D01*
X31155Y-35933D01*
X31156Y-35933D01*
X31157Y-35933D01*
X31174Y-35935D01*
X31191Y-35937D01*
X31193Y-35937D01*
X31193Y-35937D01*
X31193Y-35937D01*
X31194Y-35937D01*
X31303Y-35937D01*
X31303Y-36039D01*
X31308Y-36068D01*
X31318Y-36091D01*
X31121Y-36072D01*
X30676Y-35937D01*
X30676Y-35011D01*
X30666Y-34959D01*
X30646Y-34909D01*
X30616Y-34865D01*
X30578Y-34827D01*
X30534Y-34797D01*
X30485Y-34776D01*
X30432Y-34765D01*
X30396Y-34765D01*
X30025Y-34393D01*
X30011Y-34382D01*
X29998Y-34371D01*
X29997Y-34371D01*
X29996Y-34370D01*
X29981Y-34362D01*
X29966Y-34353D01*
X29965Y-34353D01*
X29964Y-34353D01*
X29948Y-34348D01*
X29931Y-34342D01*
X29930Y-34342D01*
X29929Y-34342D01*
X29912Y-34340D01*
X29895Y-34338D01*
X29893Y-34338D01*
X29870Y-34315D01*
X29825Y-34285D01*
X29776Y-34264D01*
X29724Y-34253D01*
X29692Y-34253D01*
X29692Y-33869D01*
X29682Y-33817D01*
X29661Y-33767D01*
X29632Y-33723D01*
X29594Y-33685D01*
X29550Y-33655D01*
X29501Y-33634D01*
X29448Y-33624D01*
X29412Y-33623D01*
X29242Y-33453D01*
X29337Y-33358D01*
X29353Y-33334D01*
X29364Y-33307D01*
X29370Y-33279D01*
X29370Y-33249D01*
X29364Y-33221D01*
X29353Y-33194D01*
X29337Y-33170D01*
X29317Y-33149D01*
X28815Y-32648D01*
X28791Y-32632D01*
X28764Y-32621D01*
X28736Y-32615D01*
X28707Y-32615D01*
X28678Y-32621D01*
X28651Y-32632D01*
X28627Y-32648D01*
X28607Y-32669D01*
X28217Y-33059D01*
X28201Y-33083D01*
X28190Y-33110D01*
X28184Y-33138D01*
X28184Y-33167D01*
X28190Y-33196D01*
X28201Y-33223D01*
X28217Y-33247D01*
X28237Y-33267D01*
X28739Y-33768D01*
X28763Y-33785D01*
X28790Y-33796D01*
X28818Y-33801D01*
X28847Y-33801D01*
X28876Y-33796D01*
X28903Y-33785D01*
X28927Y-33768D01*
X28947Y-33748D01*
X28977Y-33718D01*
X29147Y-33889D01*
X29147Y-33919D01*
X29156Y-33971D01*
X29176Y-34021D01*
X29205Y-34066D01*
X29242Y-34105D01*
X29286Y-34135D01*
X29335Y-34157D01*
X29387Y-34168D01*
X29441Y-34169D01*
X29493Y-34160D01*
X29543Y-34140D01*
X29588Y-34112D01*
X29627Y-34075D01*
X29658Y-34031D01*
X29680Y-33982D01*
X29691Y-33930D01*
X29692Y-33869D01*
X29692Y-34253D01*
X29670Y-34253D01*
X29618Y-34263D01*
X29568Y-34283D01*
X29524Y-34312D01*
X29485Y-34350D01*
X29455Y-34394D01*
X29434Y-34443D01*
X29423Y-34495D01*
X29422Y-34549D01*
X29432Y-34601D01*
X29452Y-34651D01*
X29480Y-34696D01*
X29518Y-34735D01*
X29562Y-34765D01*
X29611Y-34786D01*
X29663Y-34798D01*
X29716Y-34799D01*
X29769Y-34790D01*
X29819Y-34770D01*
X29851Y-34750D01*
X30131Y-35030D01*
X30131Y-35061D01*
X30140Y-35113D01*
X30160Y-35163D01*
X30189Y-35208D01*
X30226Y-35246D01*
X30270Y-35277D01*
X30319Y-35298D01*
X30371Y-35310D01*
X30425Y-35311D01*
X30478Y-35302D01*
X30527Y-35282D01*
X30572Y-35254D01*
X30611Y-35217D01*
X30642Y-35173D01*
X30664Y-35124D01*
X30676Y-35072D01*
X30676Y-35011D01*
X30676Y-35937D01*
X29555Y-35599D01*
X28111Y-34831D01*
X27964Y-34711D01*
X27984Y-34703D01*
X28008Y-34687D01*
X28029Y-34667D01*
X28418Y-34277D01*
X28435Y-34253D01*
X28446Y-34226D01*
X28451Y-34197D01*
X28451Y-34168D01*
X28446Y-34140D01*
X28435Y-34113D01*
X28418Y-34089D01*
X28398Y-34068D01*
X28034Y-33704D01*
X28034Y-31942D01*
X28034Y-31913D01*
X28028Y-31885D01*
X28017Y-31858D01*
X28001Y-31834D01*
X27984Y-31817D01*
X27984Y-23836D01*
X27984Y-23807D01*
X27978Y-23778D01*
X27967Y-23751D01*
X27951Y-23727D01*
X27930Y-23707D01*
X27541Y-23317D01*
X27516Y-23301D01*
X27489Y-23290D01*
X27461Y-23284D01*
X27432Y-23284D01*
X27403Y-23290D01*
X27376Y-23301D01*
X27352Y-23317D01*
X27332Y-23337D01*
X26831Y-23839D01*
X26814Y-23863D01*
X26803Y-23890D01*
X26798Y-23918D01*
X26798Y-23947D01*
X26803Y-23976D01*
X26814Y-24003D01*
X26831Y-24027D01*
X26851Y-24047D01*
X26913Y-24109D01*
X26913Y-24109D01*
X26908Y-24126D01*
X26903Y-24143D01*
X26902Y-24144D01*
X26902Y-24144D01*
X26900Y-24162D01*
X26898Y-24179D01*
X26898Y-24181D01*
X26898Y-24181D01*
X26898Y-24181D01*
X26898Y-24182D01*
X26898Y-24341D01*
X26891Y-24343D01*
X26841Y-24363D01*
X26796Y-24392D01*
X26758Y-24430D01*
X26728Y-24474D01*
X26707Y-24523D01*
X26696Y-24575D01*
X26695Y-24629D01*
X26705Y-24681D01*
X26724Y-24731D01*
X26753Y-24776D01*
X26790Y-24814D01*
X26834Y-24845D01*
X26883Y-24866D01*
X26936Y-24878D01*
X26989Y-24879D01*
X27042Y-24870D01*
X27092Y-24850D01*
X27137Y-24822D01*
X27175Y-24785D01*
X27206Y-24741D01*
X27228Y-24692D01*
X27240Y-24640D01*
X27240Y-24594D01*
X27241Y-24594D01*
X27241Y-24593D01*
X27242Y-24592D01*
X27250Y-24577D01*
X27259Y-24562D01*
X27259Y-24561D01*
X27259Y-24560D01*
X27264Y-24543D01*
X27270Y-24527D01*
X27270Y-24526D01*
X27270Y-24525D01*
X27272Y-24508D01*
X27274Y-24490D01*
X27274Y-24488D01*
X27274Y-24488D01*
X27274Y-24488D01*
X27274Y-24488D01*
X27274Y-24457D01*
X27292Y-24464D01*
X27320Y-24470D01*
X27350Y-24470D01*
X27378Y-24464D01*
X27405Y-24453D01*
X27429Y-24437D01*
X27450Y-24417D01*
X27951Y-23915D01*
X27967Y-23891D01*
X27978Y-23864D01*
X27984Y-23836D01*
X27984Y-31817D01*
X27980Y-31813D01*
X27773Y-31606D01*
X27721Y-31606D01*
X27707Y-31620D01*
X27707Y-31592D01*
X27707Y-31540D01*
X27500Y-31332D01*
X27479Y-31312D01*
X27455Y-31296D01*
X27428Y-31285D01*
X27400Y-31279D01*
X27370Y-31279D01*
X27342Y-31285D01*
X27315Y-31296D01*
X27291Y-31312D01*
X27119Y-31484D01*
X27119Y-31536D01*
X27441Y-31858D01*
X27707Y-31592D01*
X27707Y-31620D01*
X27455Y-31872D01*
X27777Y-32194D01*
X27829Y-32194D01*
X28001Y-32022D01*
X28017Y-31998D01*
X28028Y-31971D01*
X28034Y-31942D01*
X28034Y-33704D01*
X27897Y-33567D01*
X27873Y-33551D01*
X27846Y-33540D01*
X27817Y-33534D01*
X27788Y-33534D01*
X27763Y-33539D01*
X27763Y-32260D01*
X27763Y-32208D01*
X27441Y-31886D01*
X27427Y-31900D01*
X27427Y-31872D01*
X27105Y-31550D01*
X27053Y-31550D01*
X26881Y-31722D01*
X26864Y-31746D01*
X26853Y-31773D01*
X26848Y-31802D01*
X26848Y-31831D01*
X26853Y-31859D01*
X26864Y-31886D01*
X26881Y-31910D01*
X26901Y-31931D01*
X27108Y-32138D01*
X27161Y-32138D01*
X27427Y-31872D01*
X27427Y-31900D01*
X27174Y-32152D01*
X27174Y-32204D01*
X27382Y-32412D01*
X27402Y-32432D01*
X27426Y-32448D01*
X27453Y-32459D01*
X27482Y-32465D01*
X27511Y-32465D01*
X27539Y-32459D01*
X27566Y-32448D01*
X27591Y-32432D01*
X27763Y-32260D01*
X27763Y-33539D01*
X27760Y-33540D01*
X27733Y-33551D01*
X27709Y-33567D01*
X27688Y-33587D01*
X27298Y-33977D01*
X27282Y-34001D01*
X27271Y-34028D01*
X27265Y-34057D01*
X27265Y-34086D01*
X27271Y-34114D01*
X27282Y-34141D01*
X27298Y-34165D01*
X27312Y-34179D01*
X26843Y-33797D01*
X26429Y-33296D01*
X26484Y-33351D01*
X26508Y-33367D01*
X26535Y-33378D01*
X26563Y-33384D01*
X26592Y-33384D01*
X26621Y-33378D01*
X26648Y-33367D01*
X26672Y-33351D01*
X26692Y-33330D01*
X27082Y-32941D01*
X27098Y-32916D01*
X27109Y-32889D01*
X27115Y-32861D01*
X27115Y-32832D01*
X27109Y-32803D01*
X27098Y-32776D01*
X27082Y-32752D01*
X27062Y-32732D01*
X26650Y-32320D01*
X26650Y-29618D01*
X26640Y-29566D01*
X26619Y-29517D01*
X26590Y-29472D01*
X26552Y-29434D01*
X26508Y-29404D01*
X26458Y-29383D01*
X26406Y-29373D01*
X26370Y-29372D01*
X26337Y-29339D01*
X26337Y-29296D01*
X26439Y-29296D01*
X26468Y-29291D01*
X26495Y-29280D01*
X26519Y-29263D01*
X26539Y-29243D01*
X26556Y-29219D01*
X26567Y-29192D01*
X26572Y-29163D01*
X26572Y-29134D01*
X26572Y-28426D01*
X26572Y-27273D01*
X26572Y-27244D01*
X26572Y-26951D01*
X26572Y-26858D01*
X26572Y-26565D01*
X26572Y-26536D01*
X26567Y-26507D01*
X26556Y-26480D01*
X26539Y-26456D01*
X26519Y-26436D01*
X26495Y-26419D01*
X26468Y-26408D01*
X26439Y-26403D01*
X26434Y-26403D01*
X26434Y-24914D01*
X26423Y-24861D01*
X26403Y-24812D01*
X26373Y-24767D01*
X26336Y-24729D01*
X26291Y-24699D01*
X26242Y-24679D01*
X26190Y-24668D01*
X26136Y-24668D01*
X26084Y-24678D01*
X26034Y-24698D01*
X25989Y-24727D01*
X25951Y-24764D01*
X25921Y-24808D01*
X25900Y-24858D01*
X25889Y-24910D01*
X25888Y-24948D01*
X25538Y-25298D01*
X25506Y-25298D01*
X25454Y-25308D01*
X25404Y-25328D01*
X25359Y-25357D01*
X25321Y-25394D01*
X25291Y-25438D01*
X25270Y-25488D01*
X25259Y-25540D01*
X25258Y-25593D01*
X25268Y-25646D01*
X25287Y-25696D01*
X25316Y-25741D01*
X25353Y-25779D01*
X25397Y-25810D01*
X25446Y-25831D01*
X25499Y-25842D01*
X25552Y-25844D01*
X25605Y-25834D01*
X25655Y-25815D01*
X25700Y-25786D01*
X25738Y-25749D01*
X25769Y-25706D01*
X25791Y-25657D01*
X25803Y-25605D01*
X25803Y-25563D01*
X26154Y-25213D01*
X26182Y-25214D01*
X26235Y-25204D01*
X26284Y-25185D01*
X26330Y-25156D01*
X26368Y-25119D01*
X26399Y-25076D01*
X26421Y-25027D01*
X26433Y-24975D01*
X26434Y-24914D01*
X26434Y-26403D01*
X26196Y-26403D01*
X26159Y-26440D01*
X26159Y-26895D01*
X26535Y-26895D01*
X26572Y-26858D01*
X26572Y-26951D01*
X26535Y-26914D01*
X26159Y-26914D01*
X26159Y-27370D01*
X26196Y-27407D01*
X26439Y-27407D01*
X26468Y-27401D01*
X26495Y-27390D01*
X26519Y-27374D01*
X26539Y-27353D01*
X26556Y-27329D01*
X26567Y-27302D01*
X26572Y-27273D01*
X26572Y-28426D01*
X26567Y-28397D01*
X26556Y-28370D01*
X26539Y-28346D01*
X26519Y-28325D01*
X26495Y-28309D01*
X26468Y-28298D01*
X26439Y-28292D01*
X26410Y-28292D01*
X26139Y-28292D01*
X26139Y-27370D01*
X26139Y-26914D01*
X26139Y-26895D01*
X26139Y-26440D01*
X26102Y-26403D01*
X25859Y-26403D01*
X25830Y-26408D01*
X25804Y-26419D01*
X25779Y-26436D01*
X25759Y-26456D01*
X25743Y-26480D01*
X25732Y-26507D01*
X25726Y-26536D01*
X25726Y-26565D01*
X25726Y-26858D01*
X25763Y-26895D01*
X26139Y-26895D01*
X26139Y-26914D01*
X25763Y-26914D01*
X25726Y-26951D01*
X25726Y-27244D01*
X25726Y-27273D01*
X25732Y-27302D01*
X25743Y-27329D01*
X25759Y-27353D01*
X25779Y-27374D01*
X25804Y-27390D01*
X25830Y-27401D01*
X25859Y-27407D01*
X26102Y-27407D01*
X26139Y-27370D01*
X26139Y-28292D01*
X25859Y-28292D01*
X25830Y-28298D01*
X25804Y-28309D01*
X25779Y-28325D01*
X25759Y-28346D01*
X25743Y-28370D01*
X25732Y-28397D01*
X25726Y-28426D01*
X25726Y-28455D01*
X25726Y-29163D01*
X25732Y-29192D01*
X25743Y-29219D01*
X25759Y-29243D01*
X25779Y-29263D01*
X25804Y-29280D01*
X25830Y-29291D01*
X25859Y-29296D01*
X25888Y-29296D01*
X25961Y-29296D01*
X25961Y-29417D01*
X25963Y-29434D01*
X25965Y-29451D01*
X25965Y-29452D01*
X25965Y-29453D01*
X25970Y-29470D01*
X25975Y-29487D01*
X25975Y-29487D01*
X25976Y-29488D01*
X25984Y-29504D01*
X25992Y-29519D01*
X25992Y-29520D01*
X25993Y-29521D01*
X26004Y-29534D01*
X26015Y-29548D01*
X26016Y-29549D01*
X26016Y-29549D01*
X26016Y-29549D01*
X26016Y-29550D01*
X26105Y-29638D01*
X26104Y-29668D01*
X26114Y-29721D01*
X26134Y-29770D01*
X26163Y-29815D01*
X26200Y-29854D01*
X26244Y-29884D01*
X26293Y-29906D01*
X26345Y-29917D01*
X26398Y-29918D01*
X26451Y-29909D01*
X26501Y-29890D01*
X26546Y-29861D01*
X26585Y-29824D01*
X26616Y-29780D01*
X26637Y-29732D01*
X26649Y-29680D01*
X26650Y-29618D01*
X26650Y-32320D01*
X26560Y-32231D01*
X26536Y-32214D01*
X26509Y-32203D01*
X26481Y-32198D01*
X26452Y-32198D01*
X26423Y-32203D01*
X26396Y-32214D01*
X26385Y-32222D01*
X26295Y-32132D01*
X26296Y-32099D01*
X26296Y-31154D01*
X26285Y-31101D01*
X26265Y-31052D01*
X26235Y-31007D01*
X26211Y-30983D01*
X26211Y-30552D01*
X26231Y-30533D01*
X26261Y-30489D01*
X26283Y-30440D01*
X26295Y-30388D01*
X26296Y-30327D01*
X26285Y-30275D01*
X26265Y-30225D01*
X26235Y-30181D01*
X26198Y-30143D01*
X26153Y-30113D01*
X26104Y-30092D01*
X26052Y-30081D01*
X25998Y-30081D01*
X25946Y-30091D01*
X25896Y-30111D01*
X25851Y-30140D01*
X25813Y-30178D01*
X25783Y-30222D01*
X25762Y-30271D01*
X25751Y-30323D01*
X25750Y-30377D01*
X25760Y-30429D01*
X25779Y-30479D01*
X25808Y-30524D01*
X25835Y-30552D01*
X25835Y-30983D01*
X25813Y-31005D01*
X25783Y-31049D01*
X25762Y-31098D01*
X25751Y-31150D01*
X25750Y-31204D01*
X25760Y-31256D01*
X25779Y-31306D01*
X25808Y-31351D01*
X25846Y-31389D01*
X25889Y-31420D01*
X25938Y-31441D01*
X25991Y-31453D01*
X26044Y-31454D01*
X26097Y-31444D01*
X26147Y-31425D01*
X26192Y-31396D01*
X26231Y-31360D01*
X26261Y-31316D01*
X26283Y-31267D01*
X26295Y-31215D01*
X26296Y-31154D01*
X26296Y-32099D01*
X26285Y-32046D01*
X26265Y-31997D01*
X26235Y-31952D01*
X26198Y-31914D01*
X26153Y-31884D01*
X26104Y-31864D01*
X26052Y-31853D01*
X25998Y-31853D01*
X25946Y-31863D01*
X25896Y-31883D01*
X25851Y-31912D01*
X25813Y-31949D01*
X25783Y-31994D01*
X25762Y-32043D01*
X25751Y-32095D01*
X25750Y-32148D01*
X25760Y-32201D01*
X25779Y-32251D01*
X25808Y-32296D01*
X25846Y-32334D01*
X25889Y-32365D01*
X25938Y-32386D01*
X25991Y-32398D01*
X26031Y-32398D01*
X26118Y-32485D01*
X25962Y-32641D01*
X25946Y-32665D01*
X25935Y-32692D01*
X25934Y-32697D01*
X25801Y-32537D01*
X25023Y-31098D01*
X24539Y-29535D01*
X24512Y-29283D01*
X24531Y-29291D01*
X24560Y-29296D01*
X24589Y-29296D01*
X25140Y-29296D01*
X25169Y-29291D01*
X25195Y-29280D01*
X25220Y-29263D01*
X25240Y-29243D01*
X25256Y-29219D01*
X25267Y-29192D01*
X25273Y-29163D01*
X25273Y-29134D01*
X25273Y-28426D01*
X25267Y-28397D01*
X25256Y-28370D01*
X25240Y-28346D01*
X25220Y-28325D01*
X25195Y-28309D01*
X25169Y-28298D01*
X25140Y-28292D01*
X25111Y-28292D01*
X24560Y-28292D01*
X24531Y-28298D01*
X24504Y-28309D01*
X24480Y-28325D01*
X24460Y-28346D01*
X24443Y-28370D01*
X24432Y-28397D01*
X24427Y-28426D01*
X24427Y-28455D01*
X24427Y-28468D01*
X24367Y-27900D01*
X24367Y-27857D01*
X24427Y-27247D01*
X24427Y-27273D01*
X24432Y-27302D01*
X24443Y-27329D01*
X24460Y-27353D01*
X24480Y-27374D01*
X24504Y-27390D01*
X24531Y-27401D01*
X24560Y-27407D01*
X24589Y-27407D01*
X25140Y-27407D01*
X25169Y-27401D01*
X25195Y-27390D01*
X25220Y-27374D01*
X25240Y-27353D01*
X25256Y-27329D01*
X25267Y-27302D01*
X25273Y-27273D01*
X25273Y-27244D01*
X25273Y-26536D01*
X25267Y-26507D01*
X25256Y-26480D01*
X25240Y-26456D01*
X25220Y-26436D01*
X25195Y-26419D01*
X25169Y-26408D01*
X25140Y-26403D01*
X25111Y-26403D01*
X25040Y-26403D01*
X25084Y-26386D01*
X25129Y-26357D01*
X25168Y-26320D01*
X25198Y-26277D01*
X25220Y-26228D01*
X25232Y-26176D01*
X25233Y-26114D01*
X25222Y-26062D01*
X25202Y-26013D01*
X25172Y-25968D01*
X25135Y-25930D01*
X25090Y-25900D01*
X25041Y-25880D01*
X24989Y-25869D01*
X24935Y-25868D01*
X24883Y-25878D01*
X24833Y-25898D01*
X24788Y-25928D01*
X24750Y-25965D01*
X24720Y-26009D01*
X24699Y-26058D01*
X24688Y-26111D01*
X24687Y-26160D01*
X24686Y-26162D01*
X24677Y-26178D01*
X24677Y-26178D01*
X24677Y-26179D01*
X24672Y-26196D01*
X24666Y-26212D01*
X24666Y-26213D01*
X24666Y-26214D01*
X24664Y-26232D01*
X24662Y-26249D01*
X24662Y-26251D01*
X24662Y-26251D01*
X24662Y-26251D01*
X24662Y-26251D01*
X24662Y-26403D01*
X24560Y-26403D01*
X24531Y-26408D01*
X24508Y-26418D01*
X24527Y-26221D01*
X25000Y-24655D01*
X25768Y-23211D01*
X25888Y-23064D01*
X25896Y-23084D01*
X25912Y-23108D01*
X25932Y-23129D01*
X26322Y-23518D01*
X26346Y-23535D01*
X26373Y-23546D01*
X26402Y-23551D01*
X26431Y-23551D01*
X26459Y-23546D01*
X26486Y-23535D01*
X26510Y-23518D01*
X26531Y-23498D01*
X27032Y-22997D01*
X27048Y-22973D01*
X27059Y-22946D01*
X27065Y-22917D01*
X27065Y-22888D01*
X27059Y-22860D01*
X27048Y-22833D01*
X27032Y-22809D01*
X27012Y-22788D01*
X26622Y-22398D01*
X26598Y-22382D01*
X26571Y-22371D01*
X26542Y-22365D01*
X26513Y-22365D01*
X26485Y-22371D01*
X26458Y-22382D01*
X26434Y-22398D01*
X26420Y-22412D01*
X26802Y-21943D01*
X27303Y-21529D01*
X27248Y-21584D01*
X27232Y-21608D01*
X27221Y-21635D01*
X27215Y-21663D01*
X27215Y-21692D01*
X27221Y-21721D01*
X27232Y-21748D01*
X27248Y-21772D01*
X27269Y-21792D01*
X27659Y-22182D01*
X27683Y-22198D01*
X27710Y-22209D01*
X27738Y-22215D01*
X27767Y-22215D01*
X27796Y-22209D01*
X27823Y-22198D01*
X27847Y-22182D01*
X27867Y-22162D01*
X28368Y-21660D01*
X28385Y-21636D01*
X28396Y-21609D01*
X28401Y-21581D01*
X28401Y-21552D01*
X28396Y-21523D01*
X28385Y-21496D01*
X28368Y-21472D01*
X28348Y-21452D01*
X28296Y-21400D01*
X28426Y-21270D01*
X28458Y-21284D01*
X28510Y-21295D01*
X28564Y-21296D01*
X28616Y-21287D01*
X28666Y-21268D01*
X28711Y-21239D01*
X28750Y-21202D01*
X28781Y-21158D01*
X28803Y-21110D01*
X28815Y-21057D01*
X28815Y-20996D01*
X28805Y-20944D01*
X28785Y-20895D01*
X28755Y-20850D01*
X28717Y-20812D01*
X28673Y-20782D01*
X28624Y-20761D01*
X28571Y-20751D01*
X28518Y-20750D01*
X28465Y-20760D01*
X28416Y-20780D01*
X28371Y-20810D01*
X28333Y-20847D01*
X28329Y-20853D01*
X28320Y-20858D01*
X28305Y-20866D01*
X28304Y-20866D01*
X28303Y-20867D01*
X28290Y-20878D01*
X28276Y-20889D01*
X28275Y-20890D01*
X28275Y-20890D01*
X28275Y-20890D01*
X28275Y-20890D01*
X28031Y-21134D01*
X27958Y-21062D01*
X27934Y-21046D01*
X27907Y-21035D01*
X27902Y-21034D01*
X28062Y-20901D01*
X29501Y-20123D01*
X31064Y-19639D01*
X31316Y-19612D01*
X31308Y-19631D01*
X31303Y-19660D01*
X31303Y-19689D01*
X31303Y-20240D01*
X31308Y-20269D01*
X31319Y-20295D01*
X31336Y-20320D01*
X31356Y-20340D01*
X31380Y-20356D01*
X31407Y-20367D01*
X31436Y-20373D01*
X31465Y-20373D01*
X32173Y-20373D01*
X32202Y-20367D01*
X32229Y-20356D01*
X32253Y-20340D01*
X32274Y-20320D01*
X32290Y-20295D01*
X32301Y-20269D01*
X32307Y-20240D01*
X32307Y-20211D01*
X32307Y-19660D01*
X32301Y-19631D01*
X32290Y-19604D01*
X32274Y-19580D01*
X32253Y-19560D01*
X32229Y-19543D01*
X32202Y-19532D01*
X32173Y-19527D01*
X32144Y-19527D01*
X32131Y-19527D01*
X32699Y-19467D01*
X32742Y-19467D01*
X33352Y-19527D01*
X33326Y-19527D01*
X33297Y-19532D01*
X33270Y-19543D01*
X33246Y-19560D01*
X33225Y-19580D01*
X33209Y-19604D01*
X33198Y-19631D01*
X33192Y-19660D01*
X33192Y-19689D01*
X33192Y-20240D01*
X33198Y-20269D01*
X33209Y-20295D01*
X33225Y-20320D01*
X33246Y-20340D01*
X33270Y-20356D01*
X33297Y-20367D01*
X33326Y-20373D01*
X33355Y-20373D01*
X34063Y-20373D01*
X34092Y-20367D01*
X34119Y-20356D01*
X34143Y-20340D01*
X34163Y-20320D01*
X34180Y-20295D01*
X34191Y-20269D01*
X34196Y-20240D01*
X34196Y-20211D01*
X34196Y-20138D01*
X34221Y-20138D01*
X34224Y-20154D01*
X34244Y-20203D01*
X34273Y-20248D01*
X34310Y-20287D01*
X34354Y-20317D01*
X34403Y-20339D01*
X34455Y-20350D01*
X34509Y-20351D01*
X34561Y-20342D01*
X34611Y-20323D01*
X34656Y-20294D01*
X34695Y-20257D01*
X34726Y-20214D01*
X34748Y-20165D01*
X34759Y-20113D01*
X34760Y-20052D01*
X34750Y-19999D01*
X34730Y-19950D01*
X34700Y-19905D01*
X34662Y-19867D01*
X34618Y-19837D01*
X34569Y-19817D01*
X34516Y-19806D01*
X34478Y-19806D01*
X34465Y-19795D01*
X34464Y-19795D01*
X34464Y-19794D01*
X34448Y-19786D01*
X34433Y-19777D01*
X34432Y-19777D01*
X34431Y-19777D01*
X34415Y-19772D01*
X34398Y-19766D01*
X34397Y-19766D01*
X34396Y-19766D01*
X34379Y-19764D01*
X34362Y-19762D01*
X34360Y-19762D01*
X34360Y-19762D01*
X34360Y-19762D01*
X34359Y-19762D01*
X34196Y-19762D01*
X34196Y-19660D01*
X34191Y-19631D01*
X34181Y-19608D01*
X34378Y-19627D01*
X35944Y-20100D01*
X37388Y-20868D01*
X37585Y-21029D01*
X37570Y-21029D01*
X37542Y-21035D01*
X37515Y-21046D01*
X37491Y-21062D01*
X37470Y-21082D01*
X37081Y-21472D01*
X37064Y-21496D01*
X37053Y-21523D01*
X37048Y-21552D01*
X37048Y-21581D01*
X37053Y-21609D01*
X37064Y-21636D01*
X37081Y-21660D01*
X37101Y-21681D01*
X37602Y-22182D01*
X37626Y-22198D01*
X37653Y-22209D01*
X37682Y-22215D01*
X37711Y-22215D01*
X37739Y-22209D01*
X37766Y-22198D01*
X37790Y-22182D01*
X37811Y-22162D01*
X38201Y-21772D01*
X38217Y-21748D01*
X38228Y-21721D01*
X38234Y-21692D01*
X38234Y-21663D01*
X38228Y-21635D01*
X38217Y-21608D01*
X38201Y-21584D01*
X38180Y-21563D01*
X37916Y-21298D01*
X38656Y-21902D01*
X39309Y-22692D01*
X39015Y-22398D01*
X38991Y-22382D01*
X38964Y-22371D01*
X38936Y-22365D01*
X38907Y-22365D01*
X38878Y-22371D01*
X38851Y-22382D01*
X38827Y-22398D01*
X38807Y-22419D01*
X38417Y-22809D01*
X38401Y-22833D01*
X38390Y-22860D01*
X38384Y-22888D01*
X38384Y-22917D01*
X38390Y-22946D01*
X38401Y-22973D01*
X38417Y-22997D01*
X38437Y-23017D01*
X38939Y-23518D01*
X38963Y-23535D01*
X38990Y-23546D01*
X39018Y-23551D01*
X39047Y-23551D01*
X39076Y-23546D01*
X39103Y-23535D01*
X39127Y-23518D01*
X39129Y-23516D01*
X39155Y-23555D01*
X39192Y-23594D01*
X39236Y-23624D01*
X39285Y-23646D01*
X39337Y-23657D01*
X39391Y-23658D01*
X39443Y-23649D01*
X39493Y-23630D01*
X39538Y-23601D01*
X39577Y-23564D01*
X39608Y-23521D01*
X39630Y-23472D01*
X39641Y-23420D01*
X39642Y-23359D01*
X39632Y-23306D01*
X39611Y-23257D01*
X39582Y-23212D01*
X39544Y-23174D01*
X39500Y-23145D01*
X39537Y-23108D01*
X39553Y-23084D01*
X39564Y-23057D01*
X39570Y-23029D01*
X39570Y-23007D01*
X39698Y-23162D01*
X40476Y-24601D01*
X40960Y-26164D01*
X40987Y-26416D01*
X40968Y-26408D01*
X40939Y-26403D01*
X40910Y-26403D01*
X40359Y-26403D01*
X40330Y-26408D01*
X40304Y-26419D01*
X40279Y-26436D01*
X40259Y-26456D01*
X40243Y-26480D01*
X40232Y-26507D01*
X40226Y-26536D01*
X40226Y-26565D01*
X40226Y-27273D01*
X40232Y-27302D01*
X40243Y-27329D01*
X40259Y-27353D01*
X40279Y-27374D01*
X40304Y-27390D01*
X40330Y-27401D01*
X40359Y-27407D01*
X40388Y-27407D01*
X40939Y-27407D01*
X40968Y-27401D01*
X40995Y-27390D01*
X41019Y-27374D01*
X41039Y-27353D01*
X41056Y-27329D01*
X41067Y-27302D01*
X41072Y-27273D01*
X41072Y-27244D01*
X41072Y-27231D01*
X41132Y-27799D01*
X41132Y-27842D01*
X41132Y-27842D01*
G37*
G54D26*
X41132Y-27842D02*
X41072Y-28452D01*
X41072Y-28426D01*
X41067Y-28397D01*
X41056Y-28370D01*
X41039Y-28346D01*
X41019Y-28325D01*
X40995Y-28309D01*
X40968Y-28298D01*
X40939Y-28292D01*
X40910Y-28292D01*
X40359Y-28292D01*
X40330Y-28298D01*
X40304Y-28309D01*
X40279Y-28325D01*
X40259Y-28346D01*
X40243Y-28370D01*
X40232Y-28397D01*
X40226Y-28426D01*
X40226Y-28455D01*
X40226Y-29163D01*
X40232Y-29192D01*
X40243Y-29219D01*
X40259Y-29243D01*
X40279Y-29263D01*
X40304Y-29280D01*
X40330Y-29291D01*
X40357Y-29296D01*
X40341Y-29312D01*
X40311Y-29356D01*
X40290Y-29405D01*
X40278Y-29457D01*
X40278Y-29511D01*
X40287Y-29563D01*
X40307Y-29613D01*
X40336Y-29658D01*
X40373Y-29696D01*
X40417Y-29727D01*
X40466Y-29748D01*
X40518Y-29760D01*
X40572Y-29761D01*
X40624Y-29752D01*
X40674Y-29732D01*
X40719Y-29704D01*
X40758Y-29667D01*
X40789Y-29623D01*
X40811Y-29574D01*
X40822Y-29522D01*
X40823Y-29461D01*
X40823Y-29459D01*
X40827Y-29445D01*
X40833Y-29428D01*
X40833Y-29427D01*
X40833Y-29426D01*
X40835Y-29409D01*
X40837Y-29392D01*
X40837Y-29390D01*
X40837Y-29390D01*
X40837Y-29390D01*
X40837Y-29389D01*
X40837Y-29296D01*
X40939Y-29296D01*
X40968Y-29291D01*
X40991Y-29281D01*
X40972Y-29478D01*
X40499Y-31044D01*
X40213Y-31581D01*
X40213Y-29461D01*
X40203Y-29409D01*
X40182Y-29359D01*
X40153Y-29315D01*
X40115Y-29277D01*
X40071Y-29247D01*
X40021Y-29226D01*
X39969Y-29215D01*
X39916Y-29215D01*
X39863Y-29225D01*
X39814Y-29245D01*
X39773Y-29271D01*
X39773Y-29163D01*
X39773Y-29134D01*
X39773Y-28841D01*
X39773Y-28748D01*
X39773Y-28455D01*
X39773Y-28426D01*
X39773Y-27273D01*
X39773Y-27244D01*
X39773Y-26536D01*
X39767Y-26507D01*
X39756Y-26480D01*
X39740Y-26456D01*
X39720Y-26436D01*
X39695Y-26419D01*
X39669Y-26408D01*
X39642Y-26403D01*
X39642Y-24992D01*
X39632Y-24940D01*
X39611Y-24891D01*
X39582Y-24846D01*
X39544Y-24808D01*
X39538Y-24804D01*
X39538Y-24390D01*
X39557Y-24371D01*
X39588Y-24328D01*
X39610Y-24279D01*
X39622Y-24227D01*
X39623Y-24166D01*
X39612Y-24113D01*
X39592Y-24064D01*
X39562Y-24019D01*
X39525Y-23981D01*
X39480Y-23951D01*
X39431Y-23931D01*
X39379Y-23920D01*
X39325Y-23920D01*
X39273Y-23930D01*
X39223Y-23950D01*
X39178Y-23979D01*
X39140Y-24016D01*
X39110Y-24060D01*
X39089Y-24110D01*
X39078Y-24162D01*
X39077Y-24215D01*
X39087Y-24268D01*
X39106Y-24318D01*
X39135Y-24363D01*
X39162Y-24391D01*
X39162Y-24841D01*
X39160Y-24843D01*
X39130Y-24887D01*
X39108Y-24936D01*
X39097Y-24989D01*
X39097Y-25042D01*
X39106Y-25095D01*
X39126Y-25144D01*
X39155Y-25189D01*
X39192Y-25228D01*
X39236Y-25258D01*
X39285Y-25280D01*
X39337Y-25291D01*
X39391Y-25292D01*
X39443Y-25283D01*
X39493Y-25264D01*
X39538Y-25235D01*
X39577Y-25198D01*
X39608Y-25155D01*
X39630Y-25106D01*
X39641Y-25054D01*
X39642Y-24992D01*
X39642Y-26403D01*
X39640Y-26403D01*
X39611Y-26403D01*
X39538Y-26403D01*
X39538Y-26358D01*
X39536Y-26341D01*
X39534Y-26323D01*
X39534Y-26322D01*
X39534Y-26321D01*
X39529Y-26305D01*
X39524Y-26288D01*
X39524Y-26287D01*
X39523Y-26286D01*
X39515Y-26271D01*
X39507Y-26256D01*
X39507Y-26255D01*
X39506Y-26254D01*
X39495Y-26241D01*
X39484Y-26227D01*
X39483Y-26226D01*
X39483Y-26226D01*
X39483Y-26226D01*
X39483Y-26225D01*
X39364Y-26106D01*
X39366Y-26097D01*
X39367Y-26036D01*
X39356Y-25983D01*
X39336Y-25934D01*
X39306Y-25889D01*
X39269Y-25851D01*
X39224Y-25822D01*
X39175Y-25801D01*
X39123Y-25790D01*
X39069Y-25790D01*
X39017Y-25800D01*
X38967Y-25820D01*
X38922Y-25849D01*
X38884Y-25886D01*
X38854Y-25931D01*
X38833Y-25980D01*
X38822Y-26032D01*
X38821Y-26085D01*
X38831Y-26138D01*
X38850Y-26188D01*
X38879Y-26233D01*
X38916Y-26271D01*
X38960Y-26302D01*
X39009Y-26323D01*
X39061Y-26334D01*
X39129Y-26403D01*
X39060Y-26403D01*
X39031Y-26408D01*
X39004Y-26419D01*
X38980Y-26436D01*
X38960Y-26456D01*
X38943Y-26480D01*
X38932Y-26507D01*
X38927Y-26536D01*
X38927Y-26565D01*
X38927Y-27273D01*
X38932Y-27302D01*
X38943Y-27329D01*
X38960Y-27353D01*
X38980Y-27374D01*
X39004Y-27390D01*
X39031Y-27401D01*
X39060Y-27407D01*
X39089Y-27407D01*
X39640Y-27407D01*
X39669Y-27401D01*
X39695Y-27390D01*
X39720Y-27374D01*
X39740Y-27353D01*
X39756Y-27329D01*
X39767Y-27302D01*
X39773Y-27273D01*
X39773Y-28426D01*
X39767Y-28397D01*
X39756Y-28370D01*
X39740Y-28346D01*
X39720Y-28325D01*
X39695Y-28309D01*
X39669Y-28298D01*
X39640Y-28292D01*
X39397Y-28292D01*
X39360Y-28329D01*
X39360Y-28785D01*
X39736Y-28785D01*
X39773Y-28748D01*
X39773Y-28841D01*
X39736Y-28804D01*
X39360Y-28804D01*
X39360Y-29259D01*
X39397Y-29296D01*
X39640Y-29296D01*
X39669Y-29291D01*
X39695Y-29280D01*
X39720Y-29263D01*
X39740Y-29243D01*
X39756Y-29219D01*
X39767Y-29192D01*
X39773Y-29163D01*
X39773Y-29271D01*
X39769Y-29274D01*
X39731Y-29312D01*
X39700Y-29356D01*
X39679Y-29405D01*
X39668Y-29457D01*
X39668Y-29475D01*
X39340Y-29803D01*
X39340Y-29259D01*
X39340Y-28804D01*
X39340Y-28785D01*
X39340Y-28329D01*
X39303Y-28292D01*
X39060Y-28292D01*
X39031Y-28298D01*
X39004Y-28309D01*
X38980Y-28325D01*
X38960Y-28346D01*
X38943Y-28370D01*
X38932Y-28397D01*
X38927Y-28426D01*
X38927Y-28455D01*
X38927Y-28748D01*
X38964Y-28785D01*
X39340Y-28785D01*
X39340Y-28804D01*
X38964Y-28804D01*
X38927Y-28841D01*
X38927Y-29134D01*
X38927Y-29163D01*
X38932Y-29192D01*
X38943Y-29219D01*
X38960Y-29243D01*
X38980Y-29263D01*
X39004Y-29280D01*
X39031Y-29291D01*
X39060Y-29296D01*
X39303Y-29296D01*
X39340Y-29259D01*
X39340Y-29803D01*
X39121Y-30022D01*
X39089Y-30022D01*
X39036Y-30032D01*
X38987Y-30052D01*
X38942Y-30081D01*
X38904Y-30119D01*
X38874Y-30163D01*
X38853Y-30212D01*
X38841Y-30264D01*
X38841Y-30318D01*
X38850Y-30370D01*
X38870Y-30420D01*
X38899Y-30465D01*
X38936Y-30503D01*
X38980Y-30534D01*
X39029Y-30555D01*
X39081Y-30567D01*
X39135Y-30568D01*
X39187Y-30559D01*
X39237Y-30539D01*
X39282Y-30511D01*
X39321Y-30474D01*
X39352Y-30430D01*
X39374Y-30381D01*
X39385Y-30329D01*
X39386Y-30288D01*
X39914Y-29760D01*
X39961Y-29761D01*
X40014Y-29752D01*
X40064Y-29732D01*
X40109Y-29704D01*
X40148Y-29667D01*
X40179Y-29623D01*
X40200Y-29574D01*
X40212Y-29522D01*
X40213Y-29461D01*
X40213Y-31581D01*
X39731Y-32488D01*
X39564Y-32692D01*
X39564Y-32692D01*
X39553Y-32665D01*
X39537Y-32641D01*
X39517Y-32620D01*
X39127Y-32231D01*
X39103Y-32214D01*
X39076Y-32203D01*
X39047Y-32198D01*
X39018Y-32198D01*
X38990Y-32203D01*
X38963Y-32214D01*
X38939Y-32231D01*
X38918Y-32251D01*
X38697Y-32472D01*
X38697Y-30996D01*
X38687Y-30944D01*
X38667Y-30895D01*
X38651Y-30872D01*
X38651Y-23947D01*
X38651Y-23918D01*
X38646Y-23890D01*
X38635Y-23863D01*
X38618Y-23839D01*
X38598Y-23818D01*
X38391Y-23611D01*
X38338Y-23611D01*
X38325Y-23625D01*
X38325Y-23597D01*
X38325Y-23545D01*
X38117Y-23337D01*
X38097Y-23317D01*
X38073Y-23301D01*
X38046Y-23290D01*
X38017Y-23284D01*
X37988Y-23284D01*
X37960Y-23290D01*
X37933Y-23301D01*
X37909Y-23317D01*
X37736Y-23489D01*
X37736Y-23541D01*
X38058Y-23863D01*
X38325Y-23597D01*
X38325Y-23625D01*
X38072Y-23877D01*
X38394Y-24199D01*
X38446Y-24199D01*
X38618Y-24027D01*
X38635Y-24003D01*
X38646Y-23976D01*
X38651Y-23947D01*
X38651Y-30872D01*
X38637Y-30850D01*
X38599Y-30812D01*
X38555Y-30782D01*
X38506Y-30761D01*
X38453Y-30751D01*
X38400Y-30750D01*
X38380Y-30754D01*
X38380Y-24265D01*
X38380Y-24213D01*
X38058Y-23891D01*
X38044Y-23905D01*
X38044Y-23877D01*
X37722Y-23555D01*
X37670Y-23555D01*
X37498Y-23727D01*
X37482Y-23751D01*
X37471Y-23778D01*
X37465Y-23807D01*
X37465Y-23836D01*
X37471Y-23864D01*
X37482Y-23891D01*
X37498Y-23915D01*
X37519Y-23936D01*
X37726Y-24143D01*
X37778Y-24143D01*
X38044Y-23877D01*
X38044Y-23905D01*
X37792Y-24157D01*
X37792Y-24209D01*
X37999Y-24417D01*
X38020Y-24437D01*
X38044Y-24453D01*
X38071Y-24464D01*
X38099Y-24470D01*
X38129Y-24470D01*
X38157Y-24464D01*
X38184Y-24453D01*
X38208Y-24437D01*
X38380Y-24265D01*
X38380Y-30754D01*
X38347Y-30760D01*
X38298Y-30780D01*
X38253Y-30810D01*
X38215Y-30847D01*
X38185Y-30891D01*
X38164Y-30940D01*
X38152Y-30993D01*
X38152Y-31046D01*
X38161Y-31099D01*
X38181Y-31148D01*
X38210Y-31193D01*
X38237Y-31221D01*
X38237Y-31341D01*
X38208Y-31312D01*
X38184Y-31296D01*
X38157Y-31285D01*
X38129Y-31279D01*
X38099Y-31279D01*
X38071Y-31285D01*
X38044Y-31296D01*
X38020Y-31312D01*
X37999Y-31332D01*
X37498Y-31834D01*
X37482Y-31858D01*
X37471Y-31885D01*
X37465Y-31913D01*
X37465Y-31942D01*
X37471Y-31971D01*
X37482Y-31998D01*
X37498Y-32022D01*
X37519Y-32042D01*
X37909Y-32432D01*
X37933Y-32448D01*
X37960Y-32459D01*
X37988Y-32465D01*
X38017Y-32465D01*
X38046Y-32459D01*
X38073Y-32448D01*
X38097Y-32432D01*
X38117Y-32412D01*
X38618Y-31910D01*
X38635Y-31886D01*
X38646Y-31859D01*
X38651Y-31831D01*
X38651Y-31802D01*
X38646Y-31773D01*
X38635Y-31746D01*
X38618Y-31722D01*
X38598Y-31702D01*
X38546Y-31650D01*
X38557Y-31638D01*
X38568Y-31625D01*
X38580Y-31612D01*
X38580Y-31611D01*
X38581Y-31610D01*
X38589Y-31595D01*
X38597Y-31580D01*
X38597Y-31579D01*
X38598Y-31578D01*
X38603Y-31561D01*
X38608Y-31545D01*
X38608Y-31544D01*
X38609Y-31543D01*
X38610Y-31525D01*
X38612Y-31508D01*
X38612Y-31506D01*
X38612Y-31506D01*
X38612Y-31506D01*
X38612Y-31506D01*
X38612Y-31221D01*
X38632Y-31202D01*
X38663Y-31158D01*
X38685Y-31110D01*
X38696Y-31057D01*
X38697Y-30996D01*
X38697Y-32472D01*
X38417Y-32752D01*
X38401Y-32776D01*
X38390Y-32803D01*
X38384Y-32832D01*
X38384Y-32861D01*
X38390Y-32889D01*
X38401Y-32916D01*
X38417Y-32940D01*
X38437Y-32961D01*
X38827Y-33351D01*
X38851Y-33367D01*
X38878Y-33378D01*
X38907Y-33384D01*
X38936Y-33384D01*
X38964Y-33378D01*
X38991Y-33367D01*
X39015Y-33351D01*
X39036Y-33330D01*
X39079Y-33287D01*
X38697Y-33756D01*
X38196Y-34170D01*
X38201Y-34165D01*
X38217Y-34141D01*
X38228Y-34114D01*
X38234Y-34086D01*
X38234Y-34057D01*
X38228Y-34028D01*
X38217Y-34001D01*
X38201Y-33977D01*
X38180Y-33957D01*
X37791Y-33567D01*
X37766Y-33551D01*
X37739Y-33540D01*
X37711Y-33534D01*
X37682Y-33534D01*
X37653Y-33540D01*
X37626Y-33551D01*
X37602Y-33567D01*
X37582Y-33587D01*
X37315Y-33854D01*
X37315Y-33167D01*
X37315Y-33138D01*
X37315Y-22611D01*
X37315Y-22582D01*
X37309Y-22553D01*
X37298Y-22526D01*
X37282Y-22502D01*
X37262Y-22482D01*
X36760Y-21981D01*
X36736Y-21964D01*
X36709Y-21953D01*
X36681Y-21948D01*
X36652Y-21948D01*
X36623Y-21953D01*
X36596Y-21964D01*
X36572Y-21981D01*
X36552Y-22001D01*
X36486Y-22067D01*
X36480Y-22065D01*
X36464Y-22060D01*
X36463Y-22060D01*
X36462Y-22060D01*
X36445Y-22058D01*
X36428Y-22056D01*
X36426Y-22056D01*
X36426Y-22056D01*
X36426Y-22056D01*
X36425Y-22056D01*
X36169Y-22056D01*
X36167Y-22046D01*
X36147Y-21997D01*
X36117Y-21952D01*
X36080Y-21914D01*
X36035Y-21884D01*
X35986Y-21864D01*
X35934Y-21853D01*
X35880Y-21853D01*
X35828Y-21863D01*
X35778Y-21883D01*
X35733Y-21912D01*
X35695Y-21949D01*
X35665Y-21994D01*
X35646Y-22037D01*
X35646Y-21567D01*
X35636Y-21515D01*
X35615Y-21465D01*
X35586Y-21421D01*
X35548Y-21383D01*
X35504Y-21353D01*
X35455Y-21332D01*
X35402Y-21322D01*
X35366Y-21321D01*
X35075Y-21030D01*
X35075Y-20996D01*
X35065Y-20944D01*
X35045Y-20895D01*
X35015Y-20850D01*
X34977Y-20812D01*
X34933Y-20782D01*
X34884Y-20761D01*
X34831Y-20751D01*
X34778Y-20750D01*
X34725Y-20760D01*
X34676Y-20780D01*
X34631Y-20810D01*
X34593Y-20847D01*
X34563Y-20891D01*
X34542Y-20940D01*
X34530Y-20993D01*
X34530Y-21046D01*
X34539Y-21099D01*
X34559Y-21148D01*
X34588Y-21193D01*
X34625Y-21232D01*
X34669Y-21262D01*
X34718Y-21284D01*
X34770Y-21295D01*
X34810Y-21296D01*
X35101Y-21587D01*
X35101Y-21617D01*
X35110Y-21670D01*
X35130Y-21719D01*
X35159Y-21764D01*
X35196Y-21803D01*
X35240Y-21833D01*
X35289Y-21855D01*
X35341Y-21866D01*
X35395Y-21867D01*
X35447Y-21858D01*
X35497Y-21839D01*
X35542Y-21810D01*
X35581Y-21773D01*
X35612Y-21729D01*
X35633Y-21680D01*
X35645Y-21628D01*
X35646Y-21567D01*
X35646Y-22037D01*
X35644Y-22043D01*
X35633Y-22095D01*
X35632Y-22148D01*
X35642Y-22201D01*
X35661Y-22251D01*
X35690Y-22296D01*
X35727Y-22334D01*
X35771Y-22365D01*
X35820Y-22386D01*
X35873Y-22398D01*
X35917Y-22398D01*
X35918Y-22399D01*
X35919Y-22400D01*
X35934Y-22408D01*
X35949Y-22416D01*
X35950Y-22416D01*
X35951Y-22417D01*
X35968Y-22422D01*
X35984Y-22427D01*
X35985Y-22427D01*
X35986Y-22428D01*
X36003Y-22429D01*
X36021Y-22431D01*
X36022Y-22431D01*
X36022Y-22431D01*
X36023Y-22431D01*
X36023Y-22431D01*
X36139Y-22431D01*
X36135Y-22442D01*
X36129Y-22470D01*
X36129Y-22500D01*
X36135Y-22528D01*
X36146Y-22555D01*
X36162Y-22579D01*
X36182Y-22600D01*
X36684Y-23101D01*
X36708Y-23117D01*
X36735Y-23128D01*
X36763Y-23134D01*
X36792Y-23134D01*
X36821Y-23128D01*
X36848Y-23117D01*
X36872Y-23101D01*
X36892Y-23080D01*
X37282Y-22691D01*
X37298Y-22666D01*
X37309Y-22639D01*
X37315Y-22611D01*
X37315Y-33138D01*
X37309Y-33110D01*
X37298Y-33083D01*
X37282Y-33059D01*
X37274Y-33050D01*
X37274Y-29979D01*
X37274Y-29231D01*
X37164Y-29231D01*
X37167Y-29225D01*
X37183Y-29166D01*
X37152Y-29112D01*
X36756Y-29112D01*
X36756Y-29120D01*
X36737Y-29120D01*
X36737Y-29112D01*
X36341Y-29112D01*
X36309Y-29166D01*
X36326Y-29225D01*
X36328Y-29231D01*
X36307Y-29231D01*
X35893Y-28817D01*
X35880Y-28806D01*
X35867Y-28795D01*
X35866Y-28794D01*
X35865Y-28794D01*
X35850Y-28785D01*
X35834Y-28777D01*
X35834Y-28777D01*
X35833Y-28776D01*
X35816Y-28771D01*
X35800Y-28766D01*
X35799Y-28766D01*
X35798Y-28766D01*
X35780Y-28764D01*
X35763Y-28762D01*
X35761Y-28762D01*
X35761Y-28762D01*
X35761Y-28762D01*
X35761Y-28762D01*
X35155Y-28762D01*
X35155Y-28761D01*
X35161Y-28733D01*
X35161Y-28703D01*
X35161Y-28676D01*
X35124Y-28639D01*
X34629Y-28639D01*
X34629Y-28647D01*
X34610Y-28647D01*
X34610Y-28639D01*
X34602Y-28639D01*
X34602Y-28620D01*
X34610Y-28620D01*
X34610Y-28612D01*
X34629Y-28612D01*
X34629Y-28620D01*
X35124Y-28620D01*
X35161Y-28583D01*
X35161Y-28556D01*
X35161Y-28526D01*
X35155Y-28498D01*
X35155Y-28497D01*
X35720Y-28497D01*
X35940Y-28717D01*
X35953Y-28728D01*
X35966Y-28739D01*
X35967Y-28739D01*
X35968Y-28740D01*
X35983Y-28748D01*
X35998Y-28757D01*
X35999Y-28757D01*
X36000Y-28757D01*
X36017Y-28762D01*
X36033Y-28768D01*
X36034Y-28768D01*
X36035Y-28768D01*
X36052Y-28770D01*
X36070Y-28772D01*
X36072Y-28772D01*
X36072Y-28772D01*
X36072Y-28772D01*
X36072Y-28772D01*
X36250Y-28772D01*
X36250Y-28955D01*
X36338Y-28955D01*
X36326Y-28980D01*
X36309Y-29039D01*
X36341Y-29093D01*
X36737Y-29093D01*
X36737Y-29085D01*
X36756Y-29085D01*
X36756Y-29093D01*
X37152Y-29093D01*
X37183Y-29039D01*
X37167Y-28980D01*
X37154Y-28955D01*
X37274Y-28955D01*
X37274Y-27872D01*
X37274Y-27321D01*
X37274Y-25687D01*
X36473Y-25687D01*
X36418Y-25729D01*
X36418Y-25060D01*
X36381Y-24873D01*
X36308Y-24696D01*
X36202Y-24537D01*
X36067Y-24401D01*
X35909Y-24295D01*
X35733Y-24220D01*
X35703Y-24214D01*
X35703Y-23113D01*
X35703Y-23076D01*
X35703Y-22476D01*
X35696Y-22440D01*
X35682Y-22406D01*
X35661Y-22376D01*
X35635Y-22350D01*
X35605Y-22329D01*
X35571Y-22315D01*
X35534Y-22308D01*
X35498Y-22308D01*
X34898Y-22308D01*
X34861Y-22315D01*
X34827Y-22329D01*
X34797Y-22350D01*
X34771Y-22376D01*
X34750Y-22406D01*
X34736Y-22440D01*
X34729Y-22476D01*
X34729Y-22513D01*
X34729Y-23113D01*
X34736Y-23149D01*
X34750Y-23183D01*
X34771Y-23214D01*
X34797Y-23240D01*
X34827Y-23260D01*
X34861Y-23275D01*
X34898Y-23282D01*
X34934Y-23282D01*
X35534Y-23282D01*
X35571Y-23275D01*
X35605Y-23261D01*
X35635Y-23240D01*
X35661Y-23214D01*
X35682Y-23183D01*
X35696Y-23149D01*
X35703Y-23113D01*
X35703Y-24214D01*
X35546Y-24182D01*
X35354Y-24181D01*
X35167Y-24217D01*
X34990Y-24288D01*
X34830Y-24393D01*
X34693Y-24526D01*
X34585Y-24684D01*
X34510Y-24860D01*
X34470Y-25047D01*
X34468Y-25238D01*
X34502Y-25426D01*
X34572Y-25603D01*
X34676Y-25764D01*
X34809Y-25901D01*
X34966Y-26010D01*
X35141Y-26087D01*
X35327Y-26128D01*
X35518Y-26132D01*
X35707Y-26099D01*
X35885Y-26030D01*
X36046Y-25927D01*
X36184Y-25796D01*
X36295Y-25639D01*
X36372Y-25465D01*
X36415Y-25279D01*
X36418Y-25060D01*
X36418Y-25729D01*
X36250Y-25855D01*
X36250Y-26003D01*
X35701Y-26552D01*
X35123Y-26552D01*
X35107Y-26536D01*
X35083Y-26520D01*
X35056Y-26509D01*
X35028Y-26503D01*
X34998Y-26503D01*
X34211Y-26503D01*
X34183Y-26509D01*
X34156Y-26520D01*
X34132Y-26536D01*
X34111Y-26557D01*
X34095Y-26581D01*
X34084Y-26608D01*
X34078Y-26636D01*
X34078Y-26666D01*
X34078Y-26843D01*
X34084Y-26871D01*
X34094Y-26894D01*
X34084Y-26918D01*
X34078Y-26946D01*
X34078Y-26976D01*
X34078Y-27153D01*
X34084Y-27181D01*
X34095Y-27208D01*
X34096Y-27210D01*
X34095Y-27211D01*
X34084Y-27238D01*
X34078Y-27266D01*
X34078Y-27296D01*
X34078Y-27473D01*
X34084Y-27501D01*
X34094Y-27524D01*
X34084Y-27548D01*
X34078Y-27576D01*
X34078Y-27606D01*
X34078Y-27783D01*
X34084Y-27811D01*
X34095Y-27838D01*
X34096Y-27840D01*
X34095Y-27841D01*
X34084Y-27868D01*
X34078Y-27896D01*
X34078Y-27926D01*
X34078Y-27986D01*
X33858Y-27766D01*
X33858Y-27303D01*
X33858Y-26491D01*
X33945Y-26491D01*
X33973Y-26485D01*
X34000Y-26474D01*
X34024Y-26458D01*
X34045Y-26437D01*
X34061Y-26413D01*
X34072Y-26386D01*
X34078Y-26358D01*
X34078Y-26328D01*
X34078Y-25541D01*
X34072Y-25513D01*
X34061Y-25486D01*
X34045Y-25462D01*
X34029Y-25446D01*
X34029Y-25054D01*
X34599Y-24485D01*
X34610Y-24471D01*
X34621Y-24458D01*
X34621Y-24457D01*
X34622Y-24456D01*
X34630Y-24441D01*
X34639Y-24426D01*
X34639Y-24425D01*
X34639Y-24424D01*
X34644Y-24407D01*
X34650Y-24391D01*
X34650Y-24390D01*
X34650Y-24389D01*
X34652Y-24372D01*
X34654Y-24354D01*
X34654Y-24353D01*
X34654Y-24353D01*
X34654Y-24352D01*
X34654Y-24352D01*
X34654Y-24349D01*
X34697Y-24349D01*
X34773Y-24272D01*
X34787Y-24263D01*
X34808Y-24242D01*
X34817Y-24228D01*
X34872Y-24173D01*
X34872Y-23364D01*
X34703Y-23364D01*
X34703Y-22747D01*
X34685Y-22653D01*
X34648Y-22565D01*
X34595Y-22485D01*
X34528Y-22418D01*
X34449Y-22364D01*
X34361Y-22327D01*
X34267Y-22308D01*
X34196Y-22308D01*
X34196Y-21539D01*
X34196Y-21296D01*
X34196Y-21202D01*
X34196Y-20959D01*
X34191Y-20930D01*
X34180Y-20904D01*
X34163Y-20879D01*
X34143Y-20859D01*
X34119Y-20843D01*
X34092Y-20832D01*
X34063Y-20826D01*
X34034Y-20826D01*
X33741Y-20826D01*
X33704Y-20863D01*
X33704Y-21239D01*
X34159Y-21239D01*
X34196Y-21202D01*
X34196Y-21296D01*
X34159Y-21259D01*
X33704Y-21259D01*
X33704Y-21635D01*
X33741Y-21672D01*
X34034Y-21672D01*
X34063Y-21672D01*
X34092Y-21667D01*
X34119Y-21656D01*
X34143Y-21639D01*
X34163Y-21619D01*
X34180Y-21595D01*
X34191Y-21568D01*
X34196Y-21539D01*
X34196Y-22308D01*
X34172Y-22307D01*
X34078Y-22325D01*
X33989Y-22361D01*
X33909Y-22413D01*
X33841Y-22480D01*
X33787Y-22559D01*
X33750Y-22647D01*
X33730Y-22740D01*
X33728Y-22836D01*
X33746Y-22930D01*
X33781Y-23018D01*
X33833Y-23099D01*
X33899Y-23167D01*
X33977Y-23222D01*
X34065Y-23260D01*
X34158Y-23281D01*
X34254Y-23283D01*
X34348Y-23266D01*
X34437Y-23232D01*
X34517Y-23180D01*
X34586Y-23115D01*
X34642Y-23036D01*
X34680Y-22949D01*
X34702Y-22856D01*
X34703Y-22747D01*
X34703Y-23364D01*
X33685Y-23364D01*
X33685Y-21635D01*
X33685Y-21259D01*
X33685Y-21239D01*
X33685Y-20863D01*
X33648Y-20826D01*
X33355Y-20826D01*
X33326Y-20826D01*
X33297Y-20832D01*
X33270Y-20843D01*
X33246Y-20859D01*
X33225Y-20879D01*
X33209Y-20904D01*
X33198Y-20930D01*
X33192Y-20959D01*
X33192Y-21202D01*
X33229Y-21239D01*
X33685Y-21239D01*
X33685Y-21259D01*
X33229Y-21259D01*
X33192Y-21296D01*
X33192Y-21539D01*
X33198Y-21568D01*
X33209Y-21595D01*
X33225Y-21619D01*
X33246Y-21639D01*
X33270Y-21656D01*
X33297Y-21667D01*
X33326Y-21672D01*
X33355Y-21672D01*
X33648Y-21672D01*
X33685Y-21635D01*
X33685Y-23364D01*
X33666Y-23364D01*
X33666Y-22803D01*
X33659Y-22715D01*
X33635Y-22630D01*
X33594Y-22551D01*
X33586Y-22538D01*
X33515Y-22510D01*
X33501Y-22524D01*
X33501Y-22496D01*
X33472Y-22425D01*
X33395Y-22382D01*
X33311Y-22355D01*
X33224Y-22345D01*
X33136Y-22352D01*
X33051Y-22376D01*
X32973Y-22416D01*
X32960Y-22425D01*
X32931Y-22496D01*
X33216Y-22781D01*
X33501Y-22496D01*
X33501Y-22524D01*
X33230Y-22795D01*
X33515Y-23080D01*
X33586Y-23051D01*
X33629Y-22974D01*
X33656Y-22890D01*
X33666Y-22803D01*
X33666Y-23364D01*
X33501Y-23364D01*
X33501Y-23094D01*
X33216Y-22809D01*
X33202Y-22823D01*
X33202Y-22795D01*
X32917Y-22510D01*
X32846Y-22538D01*
X32804Y-22615D01*
X32776Y-22699D01*
X32766Y-22787D01*
X32773Y-22875D01*
X32798Y-22960D01*
X32838Y-23038D01*
X32846Y-23051D01*
X32917Y-23080D01*
X33202Y-22795D01*
X33202Y-22823D01*
X32931Y-23094D01*
X32960Y-23164D01*
X33037Y-23207D01*
X33121Y-23234D01*
X33208Y-23245D01*
X33296Y-23237D01*
X33381Y-23213D01*
X33459Y-23173D01*
X33472Y-23164D01*
X33501Y-23094D01*
X33501Y-23364D01*
X32254Y-23364D01*
X32349Y-23270D01*
X32354Y-23264D01*
X32437Y-23232D01*
X32517Y-23180D01*
X32586Y-23115D01*
X32642Y-23036D01*
X32680Y-22949D01*
X32702Y-22856D01*
X32703Y-22747D01*
X32685Y-22653D01*
X32648Y-22565D01*
X32595Y-22485D01*
X32528Y-22418D01*
X32449Y-22364D01*
X32361Y-22327D01*
X32307Y-22316D01*
X32307Y-21539D01*
X32307Y-21510D01*
X32307Y-20959D01*
X32301Y-20930D01*
X32290Y-20904D01*
X32274Y-20879D01*
X32253Y-20859D01*
X32229Y-20843D01*
X32202Y-20832D01*
X32173Y-20826D01*
X32144Y-20826D01*
X31436Y-20826D01*
X31407Y-20832D01*
X31380Y-20843D01*
X31356Y-20859D01*
X31336Y-20879D01*
X31319Y-20904D01*
X31308Y-20930D01*
X31303Y-20959D01*
X31303Y-20988D01*
X31303Y-21061D01*
X31151Y-21061D01*
X31134Y-21063D01*
X31117Y-21065D01*
X31116Y-21065D01*
X31115Y-21065D01*
X31098Y-21070D01*
X31082Y-21075D01*
X31081Y-21075D01*
X31080Y-21076D01*
X31065Y-21084D01*
X31049Y-21092D01*
X31049Y-21092D01*
X31048Y-21093D01*
X31034Y-21104D01*
X31021Y-21115D01*
X31019Y-21116D01*
X31019Y-21116D01*
X31019Y-21116D01*
X31019Y-21116D01*
X30991Y-21144D01*
X30959Y-21144D01*
X30906Y-21154D01*
X30857Y-21174D01*
X30812Y-21203D01*
X30774Y-21241D01*
X30744Y-21285D01*
X30723Y-21334D01*
X30712Y-21386D01*
X30711Y-21440D01*
X30720Y-21492D01*
X30740Y-21542D01*
X30769Y-21587D01*
X30806Y-21625D01*
X30850Y-21656D01*
X30899Y-21677D01*
X30951Y-21689D01*
X31005Y-21690D01*
X31057Y-21681D01*
X31107Y-21661D01*
X31152Y-21633D01*
X31191Y-21596D01*
X31222Y-21552D01*
X31244Y-21503D01*
X31256Y-21451D01*
X31256Y-21437D01*
X31303Y-21437D01*
X31303Y-21539D01*
X31308Y-21568D01*
X31319Y-21595D01*
X31336Y-21619D01*
X31356Y-21639D01*
X31380Y-21656D01*
X31407Y-21667D01*
X31436Y-21672D01*
X31465Y-21672D01*
X32173Y-21672D01*
X32202Y-21667D01*
X32229Y-21656D01*
X32253Y-21639D01*
X32274Y-21619D01*
X32290Y-21595D01*
X32301Y-21568D01*
X32307Y-21539D01*
X32307Y-22316D01*
X32267Y-22308D01*
X32172Y-22307D01*
X32078Y-22325D01*
X31989Y-22361D01*
X31909Y-22413D01*
X31841Y-22480D01*
X31787Y-22559D01*
X31750Y-22647D01*
X31730Y-22740D01*
X31728Y-22836D01*
X31746Y-22930D01*
X31781Y-23018D01*
X31833Y-23099D01*
X31899Y-23167D01*
X31912Y-23176D01*
X31833Y-23255D01*
X31822Y-23268D01*
X31811Y-23281D01*
X31811Y-23282D01*
X31810Y-23283D01*
X31802Y-23298D01*
X31794Y-23313D01*
X31793Y-23314D01*
X31793Y-23315D01*
X31788Y-23332D01*
X31782Y-23348D01*
X31782Y-23349D01*
X31782Y-23350D01*
X31781Y-23364D01*
X31640Y-23364D01*
X31640Y-23364D01*
X31640Y-23363D01*
X31631Y-23348D01*
X31623Y-23332D01*
X31623Y-23332D01*
X31622Y-23331D01*
X31611Y-23317D01*
X31601Y-23304D01*
X31599Y-23302D01*
X31599Y-23302D01*
X31599Y-23302D01*
X31599Y-23302D01*
X31493Y-23196D01*
X31517Y-23180D01*
X31586Y-23115D01*
X31642Y-23036D01*
X31680Y-22949D01*
X31702Y-22856D01*
X31703Y-22747D01*
X31685Y-22653D01*
X31648Y-22565D01*
X31595Y-22485D01*
X31528Y-22418D01*
X31449Y-22364D01*
X31361Y-22327D01*
X31267Y-22308D01*
X31172Y-22307D01*
X31078Y-22325D01*
X30989Y-22361D01*
X30909Y-22413D01*
X30841Y-22480D01*
X30787Y-22559D01*
X30750Y-22647D01*
X30730Y-22740D01*
X30728Y-22836D01*
X30746Y-22930D01*
X30781Y-23018D01*
X30833Y-23099D01*
X30899Y-23167D01*
X30977Y-23222D01*
X31040Y-23250D01*
X31042Y-23254D01*
X31042Y-23255D01*
X31043Y-23256D01*
X31051Y-23271D01*
X31059Y-23287D01*
X31059Y-23288D01*
X31060Y-23288D01*
X31071Y-23302D01*
X31082Y-23315D01*
X31083Y-23317D01*
X31083Y-23317D01*
X31083Y-23317D01*
X31083Y-23317D01*
X31131Y-23364D01*
X30703Y-23364D01*
X30703Y-22747D01*
X30685Y-22653D01*
X30648Y-22565D01*
X30607Y-22503D01*
X30607Y-20996D01*
X30596Y-20944D01*
X30576Y-20895D01*
X30546Y-20850D01*
X30509Y-20812D01*
X30464Y-20782D01*
X30415Y-20761D01*
X30363Y-20751D01*
X30309Y-20750D01*
X30257Y-20760D01*
X30207Y-20780D01*
X30162Y-20810D01*
X30136Y-20835D01*
X29567Y-20835D01*
X29544Y-20812D01*
X29500Y-20782D01*
X29451Y-20761D01*
X29398Y-20751D01*
X29345Y-20750D01*
X29292Y-20760D01*
X29243Y-20780D01*
X29198Y-20810D01*
X29160Y-20847D01*
X29130Y-20891D01*
X29108Y-20940D01*
X29097Y-20993D01*
X29097Y-21046D01*
X29106Y-21099D01*
X29126Y-21148D01*
X29155Y-21193D01*
X29192Y-21232D01*
X29236Y-21262D01*
X29285Y-21284D01*
X29337Y-21295D01*
X29391Y-21296D01*
X29443Y-21287D01*
X29493Y-21268D01*
X29538Y-21239D01*
X29568Y-21211D01*
X30136Y-21211D01*
X30157Y-21232D01*
X30200Y-21262D01*
X30249Y-21284D01*
X30302Y-21295D01*
X30355Y-21296D01*
X30408Y-21287D01*
X30458Y-21268D01*
X30503Y-21239D01*
X30542Y-21202D01*
X30572Y-21158D01*
X30594Y-21110D01*
X30606Y-21057D01*
X30607Y-20996D01*
X30607Y-22503D01*
X30595Y-22485D01*
X30528Y-22418D01*
X30449Y-22364D01*
X30361Y-22327D01*
X30267Y-22308D01*
X30172Y-22307D01*
X30078Y-22325D01*
X29989Y-22361D01*
X29909Y-22413D01*
X29841Y-22480D01*
X29787Y-22559D01*
X29750Y-22647D01*
X29730Y-22740D01*
X29728Y-22836D01*
X29746Y-22930D01*
X29781Y-23018D01*
X29833Y-23099D01*
X29899Y-23167D01*
X29977Y-23222D01*
X30065Y-23260D01*
X30158Y-23281D01*
X30254Y-23283D01*
X30348Y-23266D01*
X30437Y-23232D01*
X30517Y-23180D01*
X30586Y-23115D01*
X30642Y-23036D01*
X30680Y-22949D01*
X30702Y-22856D01*
X30703Y-22747D01*
X30703Y-23364D01*
X30581Y-23364D01*
X30581Y-24173D01*
X30757Y-24349D01*
X30778Y-24349D01*
X30778Y-24352D01*
X30780Y-24369D01*
X30782Y-24386D01*
X30782Y-24387D01*
X30782Y-24388D01*
X30787Y-24405D01*
X30792Y-24422D01*
X30792Y-24422D01*
X30793Y-24423D01*
X30801Y-24439D01*
X30809Y-24454D01*
X30809Y-24455D01*
X30810Y-24456D01*
X30821Y-24469D01*
X30832Y-24483D01*
X30833Y-24484D01*
X30833Y-24484D01*
X30833Y-24484D01*
X30833Y-24485D01*
X31450Y-25101D01*
X31450Y-25446D01*
X31434Y-25462D01*
X31418Y-25486D01*
X31407Y-25513D01*
X31401Y-25541D01*
X31401Y-25571D01*
X31401Y-26358D01*
X31407Y-26386D01*
X31418Y-26413D01*
X31434Y-26437D01*
X31455Y-26458D01*
X31479Y-26474D01*
X31506Y-26485D01*
X31534Y-26491D01*
X31564Y-26491D01*
X31741Y-26491D01*
X31769Y-26485D01*
X31794Y-26474D01*
X31820Y-26485D01*
X31848Y-26491D01*
X31878Y-26491D01*
X31989Y-26491D01*
X31965Y-26551D01*
X32250Y-26836D01*
X32534Y-26551D01*
X32510Y-26491D01*
X32657Y-26491D01*
X32657Y-26663D01*
X32628Y-26606D01*
X32619Y-26593D01*
X32548Y-26565D01*
X32263Y-26850D01*
X32548Y-27134D01*
X32619Y-27106D01*
X32657Y-27038D01*
X32657Y-27204D01*
X32512Y-27204D01*
X32534Y-27148D01*
X32250Y-26863D01*
X32236Y-26877D01*
X32236Y-26850D01*
X31951Y-26565D01*
X31880Y-26593D01*
X31837Y-26670D01*
X31810Y-26754D01*
X31800Y-26842D01*
X31807Y-26930D01*
X31831Y-27014D01*
X31871Y-27093D01*
X31880Y-27106D01*
X31951Y-27134D01*
X32236Y-26850D01*
X32236Y-26877D01*
X31965Y-27148D01*
X31987Y-27204D01*
X31653Y-27204D01*
X31653Y-27367D01*
X31647Y-27356D01*
X31646Y-27355D01*
X31646Y-27354D01*
X31633Y-27338D01*
X31619Y-27321D01*
X31618Y-27319D01*
X31618Y-27319D01*
X31618Y-27319D01*
X31617Y-27319D01*
X31505Y-27207D01*
X31489Y-27193D01*
X31472Y-27180D01*
X31471Y-27179D01*
X31471Y-27178D01*
X31452Y-27168D01*
X31434Y-27158D01*
X31432Y-27158D01*
X31431Y-27157D01*
X31411Y-27151D01*
X31395Y-27146D01*
X31395Y-27126D01*
X31395Y-26949D01*
X31389Y-26921D01*
X31378Y-26895D01*
X31389Y-26869D01*
X31395Y-26841D01*
X31395Y-26811D01*
X31395Y-26634D01*
X31389Y-26606D01*
X31378Y-26579D01*
X31362Y-26555D01*
X31341Y-26534D01*
X31317Y-26518D01*
X31290Y-26507D01*
X31262Y-26501D01*
X31232Y-26501D01*
X31024Y-26501D01*
X31024Y-25060D01*
X30987Y-24873D01*
X30914Y-24696D01*
X30808Y-24537D01*
X30674Y-24401D01*
X30515Y-24295D01*
X30339Y-24220D01*
X30152Y-24182D01*
X29961Y-24181D01*
X29773Y-24217D01*
X29596Y-24288D01*
X29436Y-24393D01*
X29320Y-24506D01*
X29320Y-22500D01*
X29320Y-22470D01*
X29314Y-22442D01*
X29303Y-22415D01*
X29287Y-22391D01*
X29115Y-22219D01*
X29063Y-22219D01*
X29049Y-22233D01*
X29049Y-22205D01*
X29049Y-22153D01*
X28877Y-21981D01*
X28853Y-21964D01*
X28826Y-21953D01*
X28797Y-21948D01*
X28768Y-21948D01*
X28740Y-21953D01*
X28713Y-21964D01*
X28689Y-21981D01*
X28668Y-22001D01*
X28461Y-22208D01*
X28461Y-22261D01*
X28727Y-22527D01*
X29049Y-22205D01*
X29049Y-22233D01*
X28741Y-22541D01*
X29007Y-22807D01*
X29059Y-22807D01*
X29267Y-22600D01*
X29287Y-22579D01*
X29303Y-22555D01*
X29314Y-22528D01*
X29320Y-22500D01*
X29320Y-24506D01*
X29299Y-24526D01*
X29191Y-24684D01*
X29116Y-24860D01*
X29076Y-25047D01*
X29074Y-25238D01*
X29108Y-25426D01*
X29179Y-25603D01*
X29282Y-25764D01*
X29415Y-25901D01*
X29572Y-26010D01*
X29747Y-26087D01*
X29934Y-26128D01*
X30125Y-26132D01*
X30313Y-26099D01*
X30491Y-26030D01*
X30652Y-25927D01*
X30791Y-25796D01*
X30901Y-25639D01*
X30979Y-25465D01*
X31021Y-25279D01*
X31024Y-25060D01*
X31024Y-26501D01*
X30445Y-26501D01*
X30417Y-26507D01*
X30390Y-26518D01*
X30366Y-26534D01*
X30350Y-26550D01*
X29981Y-26550D01*
X29422Y-25991D01*
X29408Y-25980D01*
X29395Y-25969D01*
X29394Y-25968D01*
X29393Y-25968D01*
X29378Y-25959D01*
X29363Y-25951D01*
X29362Y-25951D01*
X29361Y-25950D01*
X29344Y-25945D01*
X29328Y-25940D01*
X29327Y-25940D01*
X29326Y-25940D01*
X29309Y-25938D01*
X29291Y-25936D01*
X29290Y-25936D01*
X29290Y-25936D01*
X29289Y-25936D01*
X29289Y-25936D01*
X29276Y-25936D01*
X29166Y-25826D01*
X29156Y-25812D01*
X29136Y-25791D01*
X29122Y-25782D01*
X29027Y-25687D01*
X28993Y-25687D01*
X28993Y-22873D01*
X28993Y-22821D01*
X28727Y-22555D01*
X28713Y-22569D01*
X28713Y-22541D01*
X28447Y-22274D01*
X28395Y-22274D01*
X28187Y-22482D01*
X28167Y-22502D01*
X28151Y-22526D01*
X28140Y-22553D01*
X28134Y-22582D01*
X28134Y-22611D01*
X28140Y-22639D01*
X28151Y-22666D01*
X28167Y-22691D01*
X28339Y-22863D01*
X28391Y-22863D01*
X28713Y-22541D01*
X28713Y-22569D01*
X28405Y-22877D01*
X28405Y-22929D01*
X28577Y-23101D01*
X28601Y-23117D01*
X28628Y-23128D01*
X28657Y-23134D01*
X28686Y-23134D01*
X28714Y-23128D01*
X28741Y-23117D01*
X28765Y-23101D01*
X28786Y-23080D01*
X28993Y-22873D01*
X28993Y-25687D01*
X28219Y-25687D01*
X28219Y-26849D01*
X28219Y-27459D01*
X28336Y-27459D01*
X28326Y-27480D01*
X28309Y-27539D01*
X28341Y-27593D01*
X28737Y-27593D01*
X28737Y-27585D01*
X28756Y-27585D01*
X28756Y-27593D01*
X29152Y-27593D01*
X29183Y-27539D01*
X29167Y-27480D01*
X29156Y-27459D01*
X29282Y-27459D01*
X29282Y-27351D01*
X29667Y-27351D01*
X29844Y-27528D01*
X29861Y-27542D01*
X29877Y-27555D01*
X29878Y-27556D01*
X29879Y-27557D01*
X29897Y-27567D01*
X29916Y-27577D01*
X29917Y-27577D01*
X29918Y-27578D01*
X29938Y-27584D01*
X29958Y-27590D01*
X29959Y-27590D01*
X29960Y-27591D01*
X29981Y-27593D01*
X30002Y-27595D01*
X30004Y-27595D01*
X30005Y-27595D01*
X30005Y-27595D01*
X30005Y-27595D01*
X30312Y-27595D01*
X30312Y-27609D01*
X30312Y-27636D01*
X30349Y-27673D01*
X30844Y-27673D01*
X30844Y-27665D01*
X30863Y-27665D01*
X30863Y-27673D01*
X30871Y-27673D01*
X30871Y-27692D01*
X30863Y-27692D01*
X30863Y-27700D01*
X30844Y-27700D01*
X30844Y-27692D01*
X30349Y-27692D01*
X30312Y-27729D01*
X30312Y-27756D01*
X30312Y-27770D01*
X30025Y-27770D01*
X30004Y-27772D01*
X29983Y-27774D01*
X29982Y-27774D01*
X29981Y-27774D01*
X29961Y-27780D01*
X29941Y-27786D01*
X29940Y-27787D01*
X29938Y-27787D01*
X29920Y-27797D01*
X29901Y-27807D01*
X29900Y-27807D01*
X29899Y-27808D01*
X29883Y-27821D01*
X29866Y-27834D01*
X29865Y-27836D01*
X29865Y-27836D01*
X29865Y-27836D01*
X29864Y-27837D01*
X29805Y-27896D01*
X29282Y-27896D01*
X29282Y-27774D01*
X29143Y-27774D01*
X29167Y-27725D01*
X29183Y-27666D01*
X29152Y-27612D01*
X28756Y-27612D01*
X28756Y-27620D01*
X28737Y-27620D01*
X28737Y-27612D01*
X28341Y-27612D01*
X28309Y-27666D01*
X28326Y-27725D01*
X28350Y-27774D01*
X28219Y-27774D01*
X28219Y-28443D01*
X28344Y-28443D01*
X28326Y-28480D01*
X28309Y-28539D01*
X28341Y-28593D01*
X28737Y-28593D01*
X28737Y-28585D01*
X28756Y-28585D01*
X28756Y-28593D01*
X29152Y-28593D01*
X29183Y-28539D01*
X29167Y-28480D01*
X29149Y-28443D01*
X29282Y-28443D01*
X29282Y-28351D01*
X29899Y-28351D01*
X29920Y-28349D01*
X29941Y-28347D01*
X29942Y-28347D01*
X29943Y-28347D01*
X29963Y-28341D01*
X29984Y-28335D01*
X29985Y-28334D01*
X29986Y-28334D01*
X30004Y-28324D01*
X30023Y-28314D01*
X30024Y-28314D01*
X30025Y-28313D01*
X30041Y-28300D01*
X30058Y-28287D01*
X30059Y-28285D01*
X30060Y-28285D01*
X30060Y-28285D01*
X30060Y-28284D01*
X30119Y-28225D01*
X30312Y-28225D01*
X30312Y-28239D01*
X30312Y-28266D01*
X30349Y-28303D01*
X30844Y-28303D01*
X30844Y-28295D01*
X30863Y-28295D01*
X30863Y-28303D01*
X30871Y-28303D01*
X30871Y-28322D01*
X30863Y-28322D01*
X30863Y-28330D01*
X30844Y-28330D01*
X30844Y-28322D01*
X30349Y-28322D01*
X30312Y-28359D01*
X30312Y-28386D01*
X30312Y-28416D01*
X30317Y-28440D01*
X30017Y-28440D01*
X30000Y-28442D01*
X29983Y-28443D01*
X29982Y-28443D01*
X29981Y-28443D01*
X29964Y-28448D01*
X29947Y-28453D01*
X29947Y-28454D01*
X29946Y-28454D01*
X29930Y-28462D01*
X29915Y-28470D01*
X29914Y-28471D01*
X29913Y-28471D01*
X29900Y-28482D01*
X29886Y-28493D01*
X29885Y-28494D01*
X29885Y-28494D01*
X29885Y-28494D01*
X29884Y-28495D01*
X29443Y-28936D01*
X29282Y-28936D01*
X29282Y-28758D01*
X29150Y-28758D01*
X29167Y-28725D01*
X29183Y-28666D01*
X29152Y-28612D01*
X28756Y-28612D01*
X28756Y-28620D01*
X28737Y-28620D01*
X28737Y-28612D01*
X28341Y-28612D01*
X28309Y-28666D01*
X28326Y-28725D01*
X28342Y-28758D01*
X28219Y-28758D01*
X28219Y-30018D01*
X29027Y-30018D01*
X29234Y-29811D01*
X29273Y-29811D01*
X29290Y-29809D01*
X29308Y-29808D01*
X29309Y-29808D01*
X29310Y-29808D01*
X29326Y-29803D01*
X29343Y-29798D01*
X29344Y-29797D01*
X29345Y-29797D01*
X29360Y-29789D01*
X29375Y-29781D01*
X29376Y-29780D01*
X29377Y-29780D01*
X29390Y-29769D01*
X29404Y-29758D01*
X29405Y-29757D01*
X29405Y-29757D01*
X29405Y-29757D01*
X29406Y-29756D01*
X30032Y-29130D01*
X30350Y-29130D01*
X30366Y-29146D01*
X30390Y-29162D01*
X30417Y-29173D01*
X30445Y-29179D01*
X30475Y-29179D01*
X31262Y-29179D01*
X31290Y-29173D01*
X31317Y-29162D01*
X31341Y-29146D01*
X31362Y-29125D01*
X31378Y-29101D01*
X31389Y-29074D01*
X31395Y-29046D01*
X31395Y-29016D01*
X31395Y-28839D01*
X31389Y-28811D01*
X31378Y-28785D01*
X31389Y-28759D01*
X31395Y-28731D01*
X31395Y-28701D01*
X31395Y-28602D01*
X31398Y-28606D01*
X31411Y-28623D01*
X31413Y-28624D01*
X31413Y-28624D01*
X31413Y-28624D01*
X31413Y-28625D01*
X31653Y-28865D01*
X31653Y-29188D01*
X31536Y-29188D01*
X31508Y-29194D01*
X31481Y-29205D01*
X31457Y-29221D01*
X31436Y-29242D01*
X31420Y-29266D01*
X31409Y-29293D01*
X31403Y-29321D01*
X31403Y-29351D01*
X31403Y-30138D01*
X31409Y-30166D01*
X31420Y-30193D01*
X31436Y-30217D01*
X31452Y-30233D01*
X31452Y-30920D01*
X31024Y-31347D01*
X31024Y-30454D01*
X30987Y-30267D01*
X30914Y-30090D01*
X30808Y-29931D01*
X30674Y-29795D01*
X30515Y-29688D01*
X30339Y-29614D01*
X30152Y-29576D01*
X29961Y-29574D01*
X29773Y-29610D01*
X29596Y-29682D01*
X29436Y-29786D01*
X29299Y-29920D01*
X29191Y-30078D01*
X29116Y-30253D01*
X29076Y-30440D01*
X29074Y-30631D01*
X29108Y-30819D01*
X29179Y-30997D01*
X29282Y-31158D01*
X29415Y-31295D01*
X29572Y-31404D01*
X29747Y-31481D01*
X29934Y-31522D01*
X30125Y-31526D01*
X30313Y-31493D01*
X30491Y-31423D01*
X30652Y-31321D01*
X30791Y-31189D01*
X30901Y-31033D01*
X30979Y-30859D01*
X31021Y-30672D01*
X31024Y-30454D01*
X31024Y-31347D01*
X31015Y-31357D01*
X30836Y-31357D01*
X30782Y-31410D01*
X30756Y-31415D01*
X30730Y-31427D01*
X30705Y-31443D01*
X30685Y-31463D01*
X30669Y-31487D01*
X30658Y-31514D01*
X30653Y-31540D01*
X30581Y-31611D01*
X30581Y-32380D01*
X32309Y-32380D01*
X32309Y-32671D01*
X32222Y-32757D01*
X32190Y-32757D01*
X32138Y-32767D01*
X32088Y-32787D01*
X32043Y-32816D01*
X32005Y-32854D01*
X31975Y-32898D01*
X31954Y-32947D01*
X31943Y-32999D01*
X31942Y-33053D01*
X31952Y-33105D01*
X31971Y-33155D01*
X32000Y-33200D01*
X32037Y-33238D01*
X32081Y-33269D01*
X32130Y-33290D01*
X32182Y-33302D01*
X32236Y-33303D01*
X32289Y-33294D01*
X32338Y-33274D01*
X32384Y-33246D01*
X32422Y-33209D01*
X32453Y-33165D01*
X32475Y-33116D01*
X32487Y-33064D01*
X32487Y-33023D01*
X32629Y-32881D01*
X32640Y-32868D01*
X32651Y-32854D01*
X32652Y-32853D01*
X32652Y-32853D01*
X32660Y-32837D01*
X32669Y-32822D01*
X32669Y-32821D01*
X32670Y-32820D01*
X32675Y-32804D01*
X32680Y-32787D01*
X32680Y-32786D01*
X32680Y-32785D01*
X32682Y-32768D01*
X32684Y-32751D01*
X32684Y-32749D01*
X32684Y-32749D01*
X32684Y-32749D01*
X32684Y-32748D01*
X32684Y-32380D01*
X34912Y-32380D01*
X34912Y-31611D01*
X34657Y-31357D01*
X34614Y-31357D01*
X34037Y-30780D01*
X34037Y-30233D01*
X34053Y-30217D01*
X34069Y-30193D01*
X34080Y-30166D01*
X34086Y-30138D01*
X34086Y-30108D01*
X34086Y-29917D01*
X34128Y-29917D01*
X34145Y-29915D01*
X34162Y-29914D01*
X34163Y-29914D01*
X34164Y-29914D01*
X34181Y-29909D01*
X34197Y-29904D01*
X34198Y-29903D01*
X34199Y-29903D01*
X34215Y-29895D01*
X34230Y-29887D01*
X34231Y-29886D01*
X34232Y-29886D01*
X34245Y-29875D01*
X34259Y-29864D01*
X34260Y-29863D01*
X34260Y-29863D01*
X34260Y-29863D01*
X34260Y-29862D01*
X34384Y-29738D01*
X34395Y-29725D01*
X34406Y-29712D01*
X34407Y-29711D01*
X34407Y-29710D01*
X34416Y-29695D01*
X34424Y-29680D01*
X34424Y-29679D01*
X34425Y-29678D01*
X34430Y-29661D01*
X34435Y-29645D01*
X34435Y-29644D01*
X34435Y-29643D01*
X34437Y-29626D01*
X34439Y-29608D01*
X34439Y-29606D01*
X34439Y-29606D01*
X34439Y-29606D01*
X34439Y-29606D01*
X34439Y-29567D01*
X34459Y-29549D01*
X34490Y-29505D01*
X34511Y-29456D01*
X34523Y-29404D01*
X34524Y-29343D01*
X34514Y-29290D01*
X34493Y-29241D01*
X34464Y-29196D01*
X34453Y-29186D01*
X35028Y-29186D01*
X35056Y-29180D01*
X35083Y-29169D01*
X35107Y-29153D01*
X35123Y-29137D01*
X35683Y-29137D01*
X36250Y-29705D01*
X36250Y-29811D01*
X36317Y-29861D01*
X36320Y-29869D01*
X36336Y-29894D01*
X36357Y-29914D01*
X36381Y-29930D01*
X36408Y-29941D01*
X36430Y-29946D01*
X36473Y-29979D01*
X37274Y-29979D01*
X37274Y-33050D01*
X37110Y-32886D01*
X37058Y-32886D01*
X37044Y-32900D01*
X37044Y-32872D01*
X37044Y-32820D01*
X36872Y-32648D01*
X36848Y-32632D01*
X36821Y-32621D01*
X36792Y-32615D01*
X36763Y-32615D01*
X36735Y-32621D01*
X36708Y-32632D01*
X36684Y-32648D01*
X36663Y-32669D01*
X36456Y-32876D01*
X36456Y-32928D01*
X36722Y-33194D01*
X37044Y-32872D01*
X37044Y-32900D01*
X36736Y-33208D01*
X37002Y-33475D01*
X37054Y-33475D01*
X37262Y-33267D01*
X37282Y-33247D01*
X37298Y-33223D01*
X37309Y-33196D01*
X37315Y-33167D01*
X37315Y-33854D01*
X37081Y-34089D01*
X37064Y-34113D01*
X37053Y-34140D01*
X37048Y-34168D01*
X37048Y-34197D01*
X37053Y-34226D01*
X37064Y-34253D01*
X37081Y-34277D01*
X37101Y-34297D01*
X37491Y-34687D01*
X37515Y-34703D01*
X37539Y-34713D01*
X37437Y-34798D01*
X36988Y-35041D01*
X36988Y-33541D01*
X36988Y-33488D01*
X36722Y-33222D01*
X36708Y-33236D01*
X36708Y-33208D01*
X36442Y-32942D01*
X36418Y-32942D01*
X36418Y-30454D01*
X36381Y-30267D01*
X36308Y-30090D01*
X36202Y-29931D01*
X36067Y-29795D01*
X35909Y-29688D01*
X35733Y-29614D01*
X35546Y-29576D01*
X35354Y-29574D01*
X35167Y-29610D01*
X34990Y-29682D01*
X34830Y-29786D01*
X34693Y-29920D01*
X34585Y-30078D01*
X34510Y-30253D01*
X34470Y-30440D01*
X34468Y-30631D01*
X34502Y-30819D01*
X34572Y-30997D01*
X34676Y-31158D01*
X34809Y-31295D01*
X34966Y-31404D01*
X35141Y-31481D01*
X35327Y-31522D01*
X35518Y-31526D01*
X35707Y-31493D01*
X35885Y-31423D01*
X36046Y-31321D01*
X36184Y-31189D01*
X36295Y-31033D01*
X36372Y-30859D01*
X36415Y-30672D01*
X36418Y-30454D01*
X36418Y-32942D01*
X36390Y-32942D01*
X36182Y-33149D01*
X36162Y-33170D01*
X36146Y-33194D01*
X36135Y-33221D01*
X36129Y-33249D01*
X36129Y-33279D01*
X36135Y-33307D01*
X36146Y-33334D01*
X36162Y-33358D01*
X36334Y-33530D01*
X36386Y-33530D01*
X36708Y-33208D01*
X36708Y-33236D01*
X36400Y-33544D01*
X36400Y-33596D01*
X36572Y-33768D01*
X36596Y-33785D01*
X36623Y-33796D01*
X36652Y-33801D01*
X36681Y-33801D01*
X36709Y-33796D01*
X36736Y-33785D01*
X36760Y-33768D01*
X36781Y-33748D01*
X36988Y-33541D01*
X36988Y-35041D01*
X35998Y-35576D01*
X34435Y-36060D01*
X34183Y-36087D01*
X34191Y-36068D01*
X34196Y-36039D01*
X34196Y-36010D01*
X34196Y-35459D01*
X34196Y-34740D01*
X34196Y-34711D01*
X34196Y-34160D01*
X34191Y-34131D01*
X34180Y-34104D01*
X34163Y-34080D01*
X34143Y-34060D01*
X34119Y-34043D01*
X34092Y-34032D01*
X34063Y-34027D01*
X34034Y-34027D01*
X33831Y-34027D01*
X33828Y-34024D01*
X33828Y-34023D01*
X33828Y-34023D01*
X33814Y-34012D01*
X33800Y-34000D01*
X33800Y-34000D01*
X33799Y-33999D01*
X33784Y-33991D01*
X33768Y-33983D01*
X33768Y-33982D01*
X33767Y-33982D01*
X33750Y-33977D01*
X33738Y-33973D01*
X33511Y-33745D01*
X33511Y-33712D01*
X33501Y-33659D01*
X33480Y-33610D01*
X33451Y-33565D01*
X33413Y-33527D01*
X33369Y-33497D01*
X33319Y-33477D01*
X33267Y-33466D01*
X33214Y-33466D01*
X33161Y-33476D01*
X33112Y-33496D01*
X33067Y-33525D01*
X33029Y-33562D01*
X32998Y-33606D01*
X32977Y-33656D01*
X32966Y-33708D01*
X32965Y-33761D01*
X32975Y-33814D01*
X32995Y-33864D01*
X33024Y-33909D01*
X33061Y-33947D01*
X33105Y-33978D01*
X33154Y-33999D01*
X33206Y-34011D01*
X33246Y-34011D01*
X33276Y-34041D01*
X33270Y-34043D01*
X33246Y-34060D01*
X33225Y-34080D01*
X33209Y-34104D01*
X33198Y-34131D01*
X33192Y-34160D01*
X33192Y-34189D01*
X33192Y-34740D01*
X33198Y-34769D01*
X33209Y-34795D01*
X33225Y-34820D01*
X33246Y-34840D01*
X33270Y-34856D01*
X33297Y-34867D01*
X33326Y-34873D01*
X33355Y-34873D01*
X34063Y-34873D01*
X34092Y-34867D01*
X34119Y-34856D01*
X34143Y-34840D01*
X34163Y-34820D01*
X34180Y-34795D01*
X34191Y-34769D01*
X34196Y-34740D01*
X34196Y-35459D01*
X34191Y-35430D01*
X34180Y-35404D01*
X34163Y-35379D01*
X34143Y-35359D01*
X34119Y-35343D01*
X34092Y-35332D01*
X34063Y-35326D01*
X34034Y-35326D01*
X33326Y-35326D01*
X33297Y-35332D01*
X33270Y-35343D01*
X33246Y-35359D01*
X33225Y-35379D01*
X33209Y-35404D01*
X33198Y-35430D01*
X33192Y-35459D01*
X33192Y-35488D01*
X33192Y-36039D01*
X33198Y-36068D01*
X33209Y-36095D01*
X33225Y-36119D01*
X33246Y-36139D01*
X33270Y-36156D01*
X33297Y-36167D01*
X33326Y-36172D01*
X33355Y-36172D01*
X33368Y-36172D01*
X32800Y-36232D01*
X32757Y-36232D01*
X32147Y-36172D01*
X32173Y-36172D01*
X32202Y-36167D01*
X32229Y-36156D01*
X32253Y-36139D01*
X32274Y-36119D01*
X32290Y-36095D01*
X32301Y-36068D01*
X32307Y-36039D01*
X32307Y-36010D01*
X32307Y-35459D01*
X32307Y-34740D01*
X32307Y-34497D01*
X32307Y-34403D01*
X32307Y-34160D01*
X32301Y-34131D01*
X32290Y-34104D01*
X32274Y-34080D01*
X32253Y-34060D01*
X32229Y-34043D01*
X32202Y-34032D01*
X32173Y-34027D01*
X32144Y-34027D01*
X31851Y-34027D01*
X31814Y-34064D01*
X31814Y-34440D01*
X32270Y-34440D01*
X32307Y-34403D01*
X32307Y-34497D01*
X32270Y-34460D01*
X31814Y-34460D01*
X31814Y-34836D01*
X31851Y-34873D01*
X32144Y-34873D01*
X32173Y-34873D01*
X32202Y-34867D01*
X32229Y-34856D01*
X32253Y-34840D01*
X32274Y-34820D01*
X32290Y-34795D01*
X32301Y-34769D01*
X32307Y-34740D01*
X32307Y-35459D01*
X32301Y-35430D01*
X32290Y-35404D01*
X32274Y-35379D01*
X32253Y-35359D01*
X32229Y-35343D01*
X32202Y-35332D01*
X32173Y-35326D01*
X32144Y-35326D01*
X31795Y-35326D01*
X31795Y-34836D01*
X31795Y-34460D01*
X31795Y-34440D01*
X31795Y-34064D01*
X31758Y-34027D01*
X31465Y-34027D01*
X31436Y-34027D01*
X31407Y-34032D01*
X31380Y-34043D01*
X31356Y-34060D01*
X31336Y-34080D01*
X31319Y-34104D01*
X31308Y-34131D01*
X31303Y-34160D01*
X31303Y-34403D01*
X31340Y-34440D01*
X31795Y-34440D01*
X31795Y-34460D01*
X31340Y-34460D01*
X31303Y-34497D01*
X31303Y-34740D01*
X31308Y-34769D01*
X31319Y-34795D01*
X31336Y-34820D01*
X31356Y-34840D01*
X31380Y-34856D01*
X31407Y-34867D01*
X31436Y-34873D01*
X31465Y-34873D01*
X31758Y-34873D01*
X31795Y-34836D01*
X31795Y-35326D01*
X31436Y-35326D01*
X31407Y-35332D01*
X31380Y-35343D01*
X31356Y-35359D01*
X31336Y-35379D01*
X31319Y-35404D01*
X31308Y-35430D01*
X31303Y-35459D01*
X31303Y-35488D01*
X31303Y-35543D01*
X31296Y-35510D01*
X31276Y-35460D01*
X31246Y-35416D01*
X31208Y-35378D01*
X31164Y-35348D01*
X31115Y-35327D01*
X31062Y-35316D01*
X31009Y-35316D01*
X30956Y-35326D01*
X30907Y-35346D01*
X30862Y-35375D01*
X30824Y-35413D01*
X30794Y-35457D01*
X30773Y-35506D01*
X30762Y-35558D01*
X30761Y-35612D01*
X30770Y-35664D01*
X30790Y-35714D01*
X30819Y-35759D01*
X30856Y-35797D01*
X30900Y-35828D01*
X30949Y-35849D01*
X31001Y-35861D01*
X31041Y-35862D01*
X31061Y-35882D01*
X31075Y-35893D01*
X31088Y-35904D01*
X31089Y-35904D01*
X31090Y-35905D01*
X31105Y-35913D01*
X31120Y-35922D01*
X31121Y-35922D01*
X31122Y-35922D01*
X31138Y-35927D01*
X31155Y-35933D01*
X31156Y-35933D01*
X31157Y-35933D01*
X31174Y-35935D01*
X31191Y-35937D01*
X31193Y-35937D01*
X31193Y-35937D01*
X31193Y-35937D01*
X31194Y-35937D01*
X31303Y-35937D01*
X31303Y-36039D01*
X31308Y-36068D01*
X31318Y-36091D01*
X31121Y-36072D01*
X30676Y-35937D01*
X30676Y-35011D01*
X30666Y-34959D01*
X30646Y-34909D01*
X30616Y-34865D01*
X30578Y-34827D01*
X30534Y-34797D01*
X30485Y-34776D01*
X30432Y-34765D01*
X30396Y-34765D01*
X30025Y-34393D01*
X30011Y-34382D01*
X29998Y-34371D01*
X29997Y-34371D01*
X29996Y-34370D01*
X29981Y-34362D01*
X29966Y-34353D01*
X29965Y-34353D01*
X29964Y-34353D01*
X29948Y-34348D01*
X29931Y-34342D01*
X29930Y-34342D01*
X29929Y-34342D01*
X29912Y-34340D01*
X29895Y-34338D01*
X29893Y-34338D01*
X29870Y-34315D01*
X29825Y-34285D01*
X29776Y-34264D01*
X29724Y-34253D01*
X29692Y-34253D01*
X29692Y-33869D01*
X29682Y-33817D01*
X29661Y-33767D01*
X29632Y-33723D01*
X29594Y-33685D01*
X29550Y-33655D01*
X29501Y-33634D01*
X29448Y-33624D01*
X29412Y-33623D01*
X29242Y-33453D01*
X29337Y-33358D01*
X29353Y-33334D01*
X29364Y-33307D01*
X29370Y-33279D01*
X29370Y-33249D01*
X29364Y-33221D01*
X29353Y-33194D01*
X29337Y-33170D01*
X29317Y-33149D01*
X28815Y-32648D01*
X28791Y-32632D01*
X28764Y-32621D01*
X28736Y-32615D01*
X28707Y-32615D01*
X28678Y-32621D01*
X28651Y-32632D01*
X28627Y-32648D01*
X28607Y-32669D01*
X28217Y-33059D01*
X28201Y-33083D01*
X28190Y-33110D01*
X28184Y-33138D01*
X28184Y-33167D01*
X28190Y-33196D01*
X28201Y-33223D01*
X28217Y-33247D01*
X28237Y-33267D01*
X28739Y-33768D01*
X28763Y-33785D01*
X28790Y-33796D01*
X28818Y-33801D01*
X28847Y-33801D01*
X28876Y-33796D01*
X28903Y-33785D01*
X28927Y-33768D01*
X28947Y-33748D01*
X28977Y-33718D01*
X29147Y-33889D01*
X29147Y-33919D01*
X29156Y-33971D01*
X29176Y-34021D01*
X29205Y-34066D01*
X29242Y-34105D01*
X29286Y-34135D01*
X29335Y-34157D01*
X29387Y-34168D01*
X29441Y-34169D01*
X29493Y-34160D01*
X29543Y-34140D01*
X29588Y-34112D01*
X29627Y-34075D01*
X29658Y-34031D01*
X29680Y-33982D01*
X29691Y-33930D01*
X29692Y-33869D01*
X29692Y-34253D01*
X29670Y-34253D01*
X29618Y-34263D01*
X29568Y-34283D01*
X29524Y-34312D01*
X29485Y-34350D01*
X29455Y-34394D01*
X29434Y-34443D01*
X29423Y-34495D01*
X29422Y-34549D01*
X29432Y-34601D01*
X29452Y-34651D01*
X29480Y-34696D01*
X29518Y-34735D01*
X29562Y-34765D01*
X29611Y-34786D01*
X29663Y-34798D01*
X29716Y-34799D01*
X29769Y-34790D01*
X29819Y-34770D01*
X29851Y-34750D01*
X30131Y-35030D01*
X30131Y-35061D01*
X30140Y-35113D01*
X30160Y-35163D01*
X30189Y-35208D01*
X30226Y-35246D01*
X30270Y-35277D01*
X30319Y-35298D01*
X30371Y-35310D01*
X30425Y-35311D01*
X30478Y-35302D01*
X30527Y-35282D01*
X30572Y-35254D01*
X30611Y-35217D01*
X30642Y-35173D01*
X30664Y-35124D01*
X30676Y-35072D01*
X30676Y-35011D01*
X30676Y-35937D01*
X29555Y-35599D01*
X28111Y-34831D01*
X27964Y-34711D01*
X27984Y-34703D01*
X28008Y-34687D01*
X28029Y-34667D01*
X28418Y-34277D01*
X28435Y-34253D01*
X28446Y-34226D01*
X28451Y-34197D01*
X28451Y-34168D01*
X28446Y-34140D01*
X28435Y-34113D01*
X28418Y-34089D01*
X28398Y-34068D01*
X28034Y-33704D01*
X28034Y-31942D01*
X28034Y-31913D01*
X28028Y-31885D01*
X28017Y-31858D01*
X28001Y-31834D01*
X27984Y-31817D01*
X27984Y-23836D01*
X27984Y-23807D01*
X27978Y-23778D01*
X27967Y-23751D01*
X27951Y-23727D01*
X27930Y-23707D01*
X27541Y-23317D01*
X27516Y-23301D01*
X27489Y-23290D01*
X27461Y-23284D01*
X27432Y-23284D01*
X27403Y-23290D01*
X27376Y-23301D01*
X27352Y-23317D01*
X27332Y-23337D01*
X26831Y-23839D01*
X26814Y-23863D01*
X26803Y-23890D01*
X26798Y-23918D01*
X26798Y-23947D01*
X26803Y-23976D01*
X26814Y-24003D01*
X26831Y-24027D01*
X26851Y-24047D01*
X26913Y-24109D01*
X26913Y-24109D01*
X26908Y-24126D01*
X26903Y-24143D01*
X26902Y-24144D01*
X26902Y-24144D01*
X26900Y-24162D01*
X26898Y-24179D01*
X26898Y-24181D01*
X26898Y-24181D01*
X26898Y-24181D01*
X26898Y-24182D01*
X26898Y-24341D01*
X26891Y-24343D01*
X26841Y-24363D01*
X26796Y-24392D01*
X26758Y-24430D01*
X26728Y-24474D01*
X26707Y-24523D01*
X26696Y-24575D01*
X26695Y-24629D01*
X26705Y-24681D01*
X26724Y-24731D01*
X26753Y-24776D01*
X26790Y-24814D01*
X26834Y-24845D01*
X26883Y-24866D01*
X26936Y-24878D01*
X26989Y-24879D01*
X27042Y-24870D01*
X27092Y-24850D01*
X27137Y-24822D01*
X27175Y-24785D01*
X27206Y-24741D01*
X27228Y-24692D01*
X27240Y-24640D01*
X27240Y-24594D01*
X27241Y-24594D01*
X27241Y-24593D01*
X27242Y-24592D01*
X27250Y-24577D01*
X27259Y-24562D01*
X27259Y-24561D01*
X27259Y-24560D01*
X27264Y-24543D01*
X27270Y-24527D01*
X27270Y-24526D01*
X27270Y-24525D01*
X27272Y-24508D01*
X27274Y-24490D01*
X27274Y-24488D01*
X27274Y-24488D01*
X27274Y-24488D01*
X27274Y-24488D01*
X27274Y-24457D01*
X27292Y-24464D01*
X27320Y-24470D01*
X27350Y-24470D01*
X27378Y-24464D01*
X27405Y-24453D01*
X27429Y-24437D01*
X27450Y-24417D01*
X27951Y-23915D01*
X27967Y-23891D01*
X27978Y-23864D01*
X27984Y-23836D01*
X27984Y-31817D01*
X27980Y-31813D01*
X27773Y-31606D01*
X27721Y-31606D01*
X27707Y-31620D01*
X27707Y-31592D01*
X27707Y-31540D01*
X27500Y-31332D01*
X27479Y-31312D01*
X27455Y-31296D01*
X27428Y-31285D01*
X27400Y-31279D01*
X27370Y-31279D01*
X27342Y-31285D01*
X27315Y-31296D01*
X27291Y-31312D01*
X27119Y-31484D01*
X27119Y-31536D01*
X27441Y-31858D01*
X27707Y-31592D01*
X27707Y-31620D01*
X27455Y-31872D01*
X27777Y-32194D01*
X27829Y-32194D01*
X28001Y-32022D01*
X28017Y-31998D01*
X28028Y-31971D01*
X28034Y-31942D01*
X28034Y-33704D01*
X27897Y-33567D01*
X27873Y-33551D01*
X27846Y-33540D01*
X27817Y-33534D01*
X27788Y-33534D01*
X27763Y-33539D01*
X27763Y-32260D01*
X27763Y-32208D01*
X27441Y-31886D01*
X27427Y-31900D01*
X27427Y-31872D01*
X27105Y-31550D01*
X27053Y-31550D01*
X26881Y-31722D01*
X26864Y-31746D01*
X26853Y-31773D01*
X26848Y-31802D01*
X26848Y-31831D01*
X26853Y-31859D01*
X26864Y-31886D01*
X26881Y-31910D01*
X26901Y-31931D01*
X27108Y-32138D01*
X27161Y-32138D01*
X27427Y-31872D01*
X27427Y-31900D01*
X27174Y-32152D01*
X27174Y-32204D01*
X27382Y-32412D01*
X27402Y-32432D01*
X27426Y-32448D01*
X27453Y-32459D01*
X27482Y-32465D01*
X27511Y-32465D01*
X27539Y-32459D01*
X27566Y-32448D01*
X27591Y-32432D01*
X27763Y-32260D01*
X27763Y-33539D01*
X27760Y-33540D01*
X27733Y-33551D01*
X27709Y-33567D01*
X27688Y-33587D01*
X27298Y-33977D01*
X27282Y-34001D01*
X27271Y-34028D01*
X27265Y-34057D01*
X27265Y-34086D01*
X27271Y-34114D01*
X27282Y-34141D01*
X27298Y-34165D01*
X27312Y-34179D01*
X26843Y-33797D01*
X26429Y-33296D01*
X26484Y-33351D01*
X26508Y-33367D01*
X26535Y-33378D01*
X26563Y-33384D01*
X26592Y-33384D01*
X26621Y-33378D01*
X26648Y-33367D01*
X26672Y-33351D01*
X26692Y-33330D01*
X27082Y-32941D01*
X27098Y-32916D01*
X27109Y-32889D01*
X27115Y-32861D01*
X27115Y-32832D01*
X27109Y-32803D01*
X27098Y-32776D01*
X27082Y-32752D01*
X27062Y-32732D01*
X26650Y-32320D01*
X26650Y-29618D01*
X26640Y-29566D01*
X26619Y-29517D01*
X26590Y-29472D01*
X26552Y-29434D01*
X26508Y-29404D01*
X26458Y-29383D01*
X26406Y-29373D01*
X26370Y-29372D01*
X26337Y-29339D01*
X26337Y-29296D01*
X26439Y-29296D01*
X26468Y-29291D01*
X26495Y-29280D01*
X26519Y-29263D01*
X26539Y-29243D01*
X26556Y-29219D01*
X26567Y-29192D01*
X26572Y-29163D01*
X26572Y-29134D01*
X26572Y-28426D01*
X26572Y-27273D01*
X26572Y-27244D01*
X26572Y-26951D01*
X26572Y-26858D01*
X26572Y-26565D01*
X26572Y-26536D01*
X26567Y-26507D01*
X26556Y-26480D01*
X26539Y-26456D01*
X26519Y-26436D01*
X26495Y-26419D01*
X26468Y-26408D01*
X26439Y-26403D01*
X26434Y-26403D01*
X26434Y-24914D01*
X26423Y-24861D01*
X26403Y-24812D01*
X26373Y-24767D01*
X26336Y-24729D01*
X26291Y-24699D01*
X26242Y-24679D01*
X26190Y-24668D01*
X26136Y-24668D01*
X26084Y-24678D01*
X26034Y-24698D01*
X25989Y-24727D01*
X25951Y-24764D01*
X25921Y-24808D01*
X25900Y-24858D01*
X25889Y-24910D01*
X25888Y-24948D01*
X25538Y-25298D01*
X25506Y-25298D01*
X25454Y-25308D01*
X25404Y-25328D01*
X25359Y-25357D01*
X25321Y-25394D01*
X25291Y-25438D01*
X25270Y-25488D01*
X25259Y-25540D01*
X25258Y-25593D01*
X25268Y-25646D01*
X25287Y-25696D01*
X25316Y-25741D01*
X25353Y-25779D01*
X25397Y-25810D01*
X25446Y-25831D01*
X25499Y-25842D01*
X25552Y-25844D01*
X25605Y-25834D01*
X25655Y-25815D01*
X25700Y-25786D01*
X25738Y-25749D01*
X25769Y-25706D01*
X25791Y-25657D01*
X25803Y-25605D01*
X25803Y-25563D01*
X26154Y-25213D01*
X26182Y-25214D01*
X26235Y-25204D01*
X26284Y-25185D01*
X26330Y-25156D01*
X26368Y-25119D01*
X26399Y-25076D01*
X26421Y-25027D01*
X26433Y-24975D01*
X26434Y-24914D01*
X26434Y-26403D01*
X26196Y-26403D01*
X26159Y-26440D01*
X26159Y-26895D01*
X26535Y-26895D01*
X26572Y-26858D01*
X26572Y-26951D01*
X26535Y-26914D01*
X26159Y-26914D01*
X26159Y-27370D01*
X26196Y-27407D01*
X26439Y-27407D01*
X26468Y-27401D01*
X26495Y-27390D01*
X26519Y-27374D01*
X26539Y-27353D01*
X26556Y-27329D01*
X26567Y-27302D01*
X26572Y-27273D01*
X26572Y-28426D01*
X26567Y-28397D01*
X26556Y-28370D01*
X26539Y-28346D01*
X26519Y-28325D01*
X26495Y-28309D01*
X26468Y-28298D01*
X26439Y-28292D01*
X26410Y-28292D01*
X26139Y-28292D01*
X26139Y-27370D01*
X26139Y-26914D01*
X26139Y-26895D01*
X26139Y-26440D01*
X26102Y-26403D01*
X25859Y-26403D01*
X25830Y-26408D01*
X25804Y-26419D01*
X25779Y-26436D01*
X25759Y-26456D01*
X25743Y-26480D01*
X25732Y-26507D01*
X25726Y-26536D01*
X25726Y-26565D01*
X25726Y-26858D01*
X25763Y-26895D01*
X26139Y-26895D01*
X26139Y-26914D01*
X25763Y-26914D01*
X25726Y-26951D01*
X25726Y-27244D01*
X25726Y-27273D01*
X25732Y-27302D01*
X25743Y-27329D01*
X25759Y-27353D01*
X25779Y-27374D01*
X25804Y-27390D01*
X25830Y-27401D01*
X25859Y-27407D01*
X26102Y-27407D01*
X26139Y-27370D01*
X26139Y-28292D01*
X25859Y-28292D01*
X25830Y-28298D01*
X25804Y-28309D01*
X25779Y-28325D01*
X25759Y-28346D01*
X25743Y-28370D01*
X25732Y-28397D01*
X25726Y-28426D01*
X25726Y-28455D01*
X25726Y-29163D01*
X25732Y-29192D01*
X25743Y-29219D01*
X25759Y-29243D01*
X25779Y-29263D01*
X25804Y-29280D01*
X25830Y-29291D01*
X25859Y-29296D01*
X25888Y-29296D01*
X25961Y-29296D01*
X25961Y-29417D01*
X25963Y-29434D01*
X25965Y-29451D01*
X25965Y-29452D01*
X25965Y-29453D01*
X25970Y-29470D01*
X25975Y-29487D01*
X25975Y-29487D01*
X25976Y-29488D01*
X25984Y-29504D01*
X25992Y-29519D01*
X25992Y-29520D01*
X25993Y-29521D01*
X26004Y-29534D01*
X26015Y-29548D01*
X26016Y-29549D01*
X26016Y-29549D01*
X26016Y-29549D01*
X26016Y-29550D01*
X26105Y-29638D01*
X26104Y-29668D01*
X26114Y-29721D01*
X26134Y-29770D01*
X26163Y-29815D01*
X26200Y-29854D01*
X26244Y-29884D01*
X26293Y-29906D01*
X26345Y-29917D01*
X26398Y-29918D01*
X26451Y-29909D01*
X26501Y-29890D01*
X26546Y-29861D01*
X26585Y-29824D01*
X26616Y-29780D01*
X26637Y-29732D01*
X26649Y-29680D01*
X26650Y-29618D01*
X26650Y-32320D01*
X26560Y-32231D01*
X26536Y-32214D01*
X26509Y-32203D01*
X26481Y-32198D01*
X26452Y-32198D01*
X26423Y-32203D01*
X26396Y-32214D01*
X26385Y-32222D01*
X26295Y-32132D01*
X26296Y-32099D01*
X26296Y-31154D01*
X26285Y-31101D01*
X26265Y-31052D01*
X26235Y-31007D01*
X26211Y-30983D01*
X26211Y-30552D01*
X26231Y-30533D01*
X26261Y-30489D01*
X26283Y-30440D01*
X26295Y-30388D01*
X26296Y-30327D01*
X26285Y-30275D01*
X26265Y-30225D01*
X26235Y-30181D01*
X26198Y-30143D01*
X26153Y-30113D01*
X26104Y-30092D01*
X26052Y-30081D01*
X25998Y-30081D01*
X25946Y-30091D01*
X25896Y-30111D01*
X25851Y-30140D01*
X25813Y-30178D01*
X25783Y-30222D01*
X25762Y-30271D01*
X25751Y-30323D01*
X25750Y-30377D01*
X25760Y-30429D01*
X25779Y-30479D01*
X25808Y-30524D01*
X25835Y-30552D01*
X25835Y-30983D01*
X25813Y-31005D01*
X25783Y-31049D01*
X25762Y-31098D01*
X25751Y-31150D01*
X25750Y-31204D01*
X25760Y-31256D01*
X25779Y-31306D01*
X25808Y-31351D01*
X25846Y-31389D01*
X25889Y-31420D01*
X25938Y-31441D01*
X25991Y-31453D01*
X26044Y-31454D01*
X26097Y-31444D01*
X26147Y-31425D01*
X26192Y-31396D01*
X26231Y-31360D01*
X26261Y-31316D01*
X26283Y-31267D01*
X26295Y-31215D01*
X26296Y-31154D01*
X26296Y-32099D01*
X26285Y-32046D01*
X26265Y-31997D01*
X26235Y-31952D01*
X26198Y-31914D01*
X26153Y-31884D01*
X26104Y-31864D01*
X26052Y-31853D01*
X25998Y-31853D01*
X25946Y-31863D01*
X25896Y-31883D01*
X25851Y-31912D01*
X25813Y-31949D01*
X25783Y-31994D01*
X25762Y-32043D01*
X25751Y-32095D01*
X25750Y-32148D01*
X25760Y-32201D01*
X25779Y-32251D01*
X25808Y-32296D01*
X25846Y-32334D01*
X25889Y-32365D01*
X25938Y-32386D01*
X25991Y-32398D01*
X26031Y-32398D01*
X26118Y-32485D01*
X25962Y-32641D01*
X25946Y-32665D01*
X25935Y-32692D01*
X25934Y-32697D01*
X25801Y-32537D01*
X25023Y-31098D01*
X24539Y-29535D01*
X24512Y-29283D01*
X24531Y-29291D01*
X24560Y-29296D01*
X24589Y-29296D01*
X25140Y-29296D01*
X25169Y-29291D01*
X25195Y-29280D01*
X25220Y-29263D01*
X25240Y-29243D01*
X25256Y-29219D01*
X25267Y-29192D01*
X25273Y-29163D01*
X25273Y-29134D01*
X25273Y-28426D01*
X25267Y-28397D01*
X25256Y-28370D01*
X25240Y-28346D01*
X25220Y-28325D01*
X25195Y-28309D01*
X25169Y-28298D01*
X25140Y-28292D01*
X25111Y-28292D01*
X24560Y-28292D01*
X24531Y-28298D01*
X24504Y-28309D01*
X24480Y-28325D01*
X24460Y-28346D01*
X24443Y-28370D01*
X24432Y-28397D01*
X24427Y-28426D01*
X24427Y-28455D01*
X24427Y-28468D01*
X24367Y-27900D01*
X24367Y-27857D01*
X24427Y-27247D01*
X24427Y-27273D01*
X24432Y-27302D01*
X24443Y-27329D01*
X24460Y-27353D01*
X24480Y-27374D01*
X24504Y-27390D01*
X24531Y-27401D01*
X24560Y-27407D01*
X24589Y-27407D01*
X25140Y-27407D01*
X25169Y-27401D01*
X25195Y-27390D01*
X25220Y-27374D01*
X25240Y-27353D01*
X25256Y-27329D01*
X25267Y-27302D01*
X25273Y-27273D01*
X25273Y-27244D01*
X25273Y-26536D01*
X25267Y-26507D01*
X25256Y-26480D01*
X25240Y-26456D01*
X25220Y-26436D01*
X25195Y-26419D01*
X25169Y-26408D01*
X25140Y-26403D01*
X25111Y-26403D01*
X25040Y-26403D01*
X25084Y-26386D01*
X25129Y-26357D01*
X25168Y-26320D01*
X25198Y-26277D01*
X25220Y-26228D01*
X25232Y-26176D01*
X25233Y-26114D01*
X25222Y-26062D01*
X25202Y-26013D01*
X25172Y-25968D01*
X25135Y-25930D01*
X25090Y-25900D01*
X25041Y-25880D01*
X24989Y-25869D01*
X24935Y-25868D01*
X24883Y-25878D01*
X24833Y-25898D01*
X24788Y-25928D01*
X24750Y-25965D01*
X24720Y-26009D01*
X24699Y-26058D01*
X24688Y-26111D01*
X24687Y-26160D01*
X24686Y-26162D01*
X24677Y-26178D01*
X24677Y-26178D01*
X24677Y-26179D01*
X24672Y-26196D01*
X24666Y-26212D01*
X24666Y-26213D01*
X24666Y-26214D01*
X24664Y-26232D01*
X24662Y-26249D01*
X24662Y-26251D01*
X24662Y-26251D01*
X24662Y-26251D01*
X24662Y-26251D01*
X24662Y-26403D01*
X24560Y-26403D01*
X24531Y-26408D01*
X24508Y-26418D01*
X24527Y-26221D01*
X25000Y-24655D01*
X25768Y-23211D01*
X25888Y-23064D01*
X25896Y-23084D01*
X25912Y-23108D01*
X25932Y-23129D01*
X26322Y-23518D01*
X26346Y-23535D01*
X26373Y-23546D01*
X26402Y-23551D01*
X26431Y-23551D01*
X26459Y-23546D01*
X26486Y-23535D01*
X26510Y-23518D01*
X26531Y-23498D01*
X27032Y-22997D01*
X27048Y-22973D01*
X27059Y-22946D01*
X27065Y-22917D01*
X27065Y-22888D01*
X27059Y-22860D01*
X27048Y-22833D01*
X27032Y-22809D01*
X27012Y-22788D01*
X26622Y-22398D01*
X26598Y-22382D01*
X26571Y-22371D01*
X26542Y-22365D01*
X26513Y-22365D01*
X26485Y-22371D01*
X26458Y-22382D01*
X26434Y-22398D01*
X26420Y-22412D01*
X26802Y-21943D01*
X27303Y-21529D01*
X27248Y-21584D01*
X27232Y-21608D01*
X27221Y-21635D01*
X27215Y-21663D01*
X27215Y-21692D01*
X27221Y-21721D01*
X27232Y-21748D01*
X27248Y-21772D01*
X27269Y-21792D01*
X27659Y-22182D01*
X27683Y-22198D01*
X27710Y-22209D01*
X27738Y-22215D01*
X27767Y-22215D01*
X27796Y-22209D01*
X27823Y-22198D01*
X27847Y-22182D01*
X27867Y-22162D01*
X28368Y-21660D01*
X28385Y-21636D01*
X28396Y-21609D01*
X28401Y-21581D01*
X28401Y-21552D01*
X28396Y-21523D01*
X28385Y-21496D01*
X28368Y-21472D01*
X28348Y-21452D01*
X28296Y-21400D01*
X28426Y-21270D01*
X28458Y-21284D01*
X28510Y-21295D01*
X28564Y-21296D01*
X28616Y-21287D01*
X28666Y-21268D01*
X28711Y-21239D01*
X28750Y-21202D01*
X28781Y-21158D01*
X28803Y-21110D01*
X28815Y-21057D01*
X28815Y-20996D01*
X28805Y-20944D01*
X28785Y-20895D01*
X28755Y-20850D01*
X28717Y-20812D01*
X28673Y-20782D01*
X28624Y-20761D01*
X28571Y-20751D01*
X28518Y-20750D01*
X28465Y-20760D01*
X28416Y-20780D01*
X28371Y-20810D01*
X28333Y-20847D01*
X28329Y-20853D01*
X28320Y-20858D01*
X28305Y-20866D01*
X28304Y-20866D01*
X28303Y-20867D01*
X28290Y-20878D01*
X28276Y-20889D01*
X28275Y-20890D01*
X28275Y-20890D01*
X28275Y-20890D01*
X28275Y-20890D01*
X28031Y-21134D01*
X27958Y-21062D01*
X27934Y-21046D01*
X27907Y-21035D01*
X27902Y-21034D01*
X28062Y-20901D01*
X29501Y-20123D01*
X31064Y-19639D01*
X31316Y-19612D01*
X31308Y-19631D01*
X31303Y-19660D01*
X31303Y-19689D01*
X31303Y-20240D01*
X31308Y-20269D01*
X31319Y-20295D01*
X31336Y-20320D01*
X31356Y-20340D01*
X31380Y-20356D01*
X31407Y-20367D01*
X31436Y-20373D01*
X31465Y-20373D01*
X32173Y-20373D01*
X32202Y-20367D01*
X32229Y-20356D01*
X32253Y-20340D01*
X32274Y-20320D01*
X32290Y-20295D01*
X32301Y-20269D01*
X32307Y-20240D01*
X32307Y-20211D01*
X32307Y-19660D01*
X32301Y-19631D01*
X32290Y-19604D01*
X32274Y-19580D01*
X32253Y-19560D01*
X32229Y-19543D01*
X32202Y-19532D01*
X32173Y-19527D01*
X32144Y-19527D01*
X32131Y-19527D01*
X32699Y-19467D01*
X32742Y-19467D01*
X33352Y-19527D01*
X33326Y-19527D01*
X33297Y-19532D01*
X33270Y-19543D01*
X33246Y-19560D01*
X33225Y-19580D01*
X33209Y-19604D01*
X33198Y-19631D01*
X33192Y-19660D01*
X33192Y-19689D01*
X33192Y-20240D01*
X33198Y-20269D01*
X33209Y-20295D01*
X33225Y-20320D01*
X33246Y-20340D01*
X33270Y-20356D01*
X33297Y-20367D01*
X33326Y-20373D01*
X33355Y-20373D01*
X34063Y-20373D01*
X34092Y-20367D01*
X34119Y-20356D01*
X34143Y-20340D01*
X34163Y-20320D01*
X34180Y-20295D01*
X34191Y-20269D01*
X34196Y-20240D01*
X34196Y-20211D01*
X34196Y-20138D01*
X34221Y-20138D01*
X34224Y-20154D01*
X34244Y-20203D01*
X34273Y-20248D01*
X34310Y-20287D01*
X34354Y-20317D01*
X34403Y-20339D01*
X34455Y-20350D01*
X34509Y-20351D01*
X34561Y-20342D01*
X34611Y-20323D01*
X34656Y-20294D01*
X34695Y-20257D01*
X34726Y-20214D01*
X34748Y-20165D01*
X34759Y-20113D01*
X34760Y-20052D01*
X34750Y-19999D01*
X34730Y-19950D01*
X34700Y-19905D01*
X34662Y-19867D01*
X34618Y-19837D01*
X34569Y-19817D01*
X34516Y-19806D01*
X34478Y-19806D01*
X34465Y-19795D01*
X34464Y-19795D01*
X34464Y-19794D01*
X34448Y-19786D01*
X34433Y-19777D01*
X34432Y-19777D01*
X34431Y-19777D01*
X34415Y-19772D01*
X34398Y-19766D01*
X34397Y-19766D01*
X34396Y-19766D01*
X34379Y-19764D01*
X34362Y-19762D01*
X34360Y-19762D01*
X34360Y-19762D01*
X34360Y-19762D01*
X34359Y-19762D01*
X34196Y-19762D01*
X34196Y-19660D01*
X34191Y-19631D01*
X34181Y-19608D01*
X34378Y-19627D01*
X35944Y-20100D01*
X37388Y-20868D01*
X37585Y-21029D01*
X37570Y-21029D01*
X37542Y-21035D01*
X37515Y-21046D01*
X37491Y-21062D01*
X37470Y-21082D01*
X37081Y-21472D01*
X37064Y-21496D01*
X37053Y-21523D01*
X37048Y-21552D01*
X37048Y-21581D01*
X37053Y-21609D01*
X37064Y-21636D01*
X37081Y-21660D01*
X37101Y-21681D01*
X37602Y-22182D01*
X37626Y-22198D01*
X37653Y-22209D01*
X37682Y-22215D01*
X37711Y-22215D01*
X37739Y-22209D01*
X37766Y-22198D01*
X37790Y-22182D01*
X37811Y-22162D01*
X38201Y-21772D01*
X38217Y-21748D01*
X38228Y-21721D01*
X38234Y-21692D01*
X38234Y-21663D01*
X38228Y-21635D01*
X38217Y-21608D01*
X38201Y-21584D01*
X38180Y-21563D01*
X37916Y-21298D01*
X38656Y-21902D01*
X39309Y-22692D01*
X39015Y-22398D01*
X38991Y-22382D01*
X38964Y-22371D01*
X38936Y-22365D01*
X38907Y-22365D01*
X38878Y-22371D01*
X38851Y-22382D01*
X38827Y-22398D01*
X38807Y-22419D01*
X38417Y-22809D01*
X38401Y-22833D01*
X38390Y-22860D01*
X38384Y-22888D01*
X38384Y-22917D01*
X38390Y-22946D01*
X38401Y-22973D01*
X38417Y-22997D01*
X38437Y-23017D01*
X38939Y-23518D01*
X38963Y-23535D01*
X38990Y-23546D01*
X39018Y-23551D01*
X39047Y-23551D01*
X39076Y-23546D01*
X39103Y-23535D01*
X39127Y-23518D01*
X39129Y-23516D01*
X39155Y-23555D01*
X39192Y-23594D01*
X39236Y-23624D01*
X39285Y-23646D01*
X39337Y-23657D01*
X39391Y-23658D01*
X39443Y-23649D01*
X39493Y-23630D01*
X39538Y-23601D01*
X39577Y-23564D01*
X39608Y-23521D01*
X39630Y-23472D01*
X39641Y-23420D01*
X39642Y-23359D01*
X39632Y-23306D01*
X39611Y-23257D01*
X39582Y-23212D01*
X39544Y-23174D01*
X39500Y-23145D01*
X39537Y-23108D01*
X39553Y-23084D01*
X39564Y-23057D01*
X39570Y-23029D01*
X39570Y-23007D01*
X39698Y-23162D01*
X40476Y-24601D01*
X40960Y-26164D01*
X40987Y-26416D01*
X40968Y-26408D01*
X40939Y-26403D01*
X40910Y-26403D01*
X40359Y-26403D01*
X40330Y-26408D01*
X40304Y-26419D01*
X40279Y-26436D01*
X40259Y-26456D01*
X40243Y-26480D01*
X40232Y-26507D01*
X40226Y-26536D01*
X40226Y-26565D01*
X40226Y-27273D01*
X40232Y-27302D01*
X40243Y-27329D01*
X40259Y-27353D01*
X40279Y-27374D01*
X40304Y-27390D01*
X40330Y-27401D01*
X40359Y-27407D01*
X40388Y-27407D01*
X40939Y-27407D01*
X40968Y-27401D01*
X40995Y-27390D01*
X41019Y-27374D01*
X41039Y-27353D01*
X41056Y-27329D01*
X41067Y-27302D01*
X41072Y-27273D01*
X41072Y-27244D01*
X41072Y-27231D01*
X41132Y-27799D01*
X41132Y-27842D01*
M02*
