G04 (created by PCBNEW-RS274X (2011-07-08)-stable) date Tue 20 Dec 2011 01:41:43 PM CET*
G01*
G70*
G90*
%MOIN*%
G04 Gerber Fmt 3.4, Leading zero omitted, Abs format*
%FSLAX34Y34*%
G04 APERTURE LIST*
%ADD10C,0.006000*%
%ADD11C,0.015000*%
%ADD12R,0.078700X0.017700*%
%ADD13R,0.017700X0.078700*%
%ADD14R,0.060000X0.060000*%
%ADD15C,0.060000*%
%ADD16R,0.051100X0.059000*%
%ADD17R,0.059000X0.051100*%
%ADD18C,0.160000*%
%ADD19R,0.062900X0.070800*%
%ADD20R,0.039300X0.055100*%
%ADD21R,0.055000X0.055000*%
%ADD22C,0.055000*%
%ADD23C,0.035000*%
%ADD24C,0.012000*%
%ADD25C,0.010000*%
G04 APERTURE END LIST*
G54D10*
G54D11*
X32750Y-19300D02*
X32005Y-19333D01*
X31266Y-19430D01*
X30538Y-19592D01*
X29826Y-19816D01*
X29137Y-20102D01*
X28476Y-20446D01*
X27846Y-20847D01*
X27255Y-21301D01*
X26705Y-21805D01*
X26201Y-22355D01*
X25747Y-22946D01*
X25346Y-23576D01*
X25002Y-24237D01*
X24716Y-24926D01*
X24492Y-25638D01*
X24330Y-26366D01*
X24233Y-27105D01*
X24200Y-27850D01*
X24200Y-27850D02*
X24233Y-28595D01*
X24330Y-29334D01*
X24492Y-30062D01*
X24716Y-30774D01*
X25002Y-31463D01*
X25346Y-32124D01*
X25747Y-32754D01*
X26201Y-33345D01*
X26705Y-33895D01*
X27255Y-34399D01*
X27846Y-34853D01*
X28476Y-35254D01*
X29137Y-35598D01*
X29826Y-35884D01*
X30538Y-36108D01*
X31266Y-36270D01*
X32005Y-36367D01*
X32750Y-36400D01*
X32750Y-36400D02*
X33495Y-36367D01*
X34234Y-36270D01*
X34962Y-36108D01*
X35674Y-35884D01*
X36363Y-35598D01*
X37025Y-35254D01*
X37654Y-34853D01*
X38245Y-34399D01*
X38795Y-33895D01*
X39299Y-33345D01*
X39753Y-32754D01*
X40154Y-32124D01*
X40498Y-31463D01*
X40784Y-30774D01*
X41008Y-30062D01*
X41170Y-29334D01*
X41267Y-28595D01*
X41300Y-27850D01*
X41300Y-27850D02*
X41267Y-27105D01*
X41170Y-26366D01*
X41008Y-25638D01*
X40784Y-24926D01*
X40498Y-24237D01*
X40154Y-23576D01*
X39753Y-22946D01*
X39299Y-22355D01*
X38795Y-21805D01*
X38245Y-21301D01*
X37654Y-20847D01*
X37025Y-20446D01*
X36363Y-20102D01*
X35674Y-19816D01*
X34962Y-19592D01*
X34234Y-19430D01*
X33495Y-19333D01*
X32750Y-19300D01*
G54D12*
X30854Y-26757D03*
X30854Y-27072D03*
X30854Y-27387D03*
X30854Y-27702D03*
X30854Y-28017D03*
X30854Y-28332D03*
X30854Y-28647D03*
X30854Y-28962D03*
X34620Y-28960D03*
X34620Y-26750D03*
X34620Y-27070D03*
X34620Y-27390D03*
X34620Y-27700D03*
X34620Y-28020D03*
X34620Y-28330D03*
X34620Y-28650D03*
G54D13*
X31638Y-29750D03*
X31952Y-29750D03*
X32268Y-29750D03*
X32582Y-29750D03*
X32898Y-29750D03*
X33212Y-29750D03*
X33528Y-29750D03*
X33842Y-29750D03*
X31640Y-25970D03*
X31950Y-25970D03*
X32270Y-25970D03*
X32580Y-25970D03*
X32890Y-25970D03*
X33210Y-25970D03*
X33530Y-25970D03*
X33850Y-25970D03*
G54D14*
X33750Y-22600D03*
G54D15*
X33750Y-23600D03*
X32750Y-22600D03*
X32750Y-23600D03*
X31750Y-22600D03*
X31750Y-23600D03*
G54D16*
X33024Y-31600D03*
X32276Y-31600D03*
G54D17*
X34850Y-22726D03*
X34850Y-23474D03*
X30650Y-23474D03*
X30650Y-22726D03*
G54D16*
X33124Y-33400D03*
X32376Y-33400D03*
G54D18*
X30050Y-25150D03*
X35450Y-25150D03*
X30050Y-30550D03*
X35450Y-30550D03*
G54D16*
X37274Y-28700D03*
X36526Y-28700D03*
G54D19*
X37251Y-27850D03*
X36149Y-27850D03*
G54D16*
X36526Y-27000D03*
X37274Y-27000D03*
G54D20*
X32376Y-34317D03*
X33124Y-34317D03*
X32750Y-35183D03*
G54D10*
G36*
X29650Y-33866D02*
X29883Y-33368D01*
X30238Y-33534D01*
X30005Y-34032D01*
X29650Y-33866D01*
X29650Y-33866D01*
G37*
G36*
X30328Y-34182D02*
X30561Y-33684D01*
X30916Y-33850D01*
X30683Y-34348D01*
X30328Y-34182D01*
X30328Y-34182D01*
G37*
G36*
X29623Y-34808D02*
X29856Y-34310D01*
X30211Y-34476D01*
X29978Y-34974D01*
X29623Y-34808D01*
X29623Y-34808D01*
G37*
G36*
X34767Y-34298D02*
X34534Y-33800D01*
X34889Y-33634D01*
X35122Y-34132D01*
X34767Y-34298D01*
X34767Y-34298D01*
G37*
G36*
X35445Y-33982D02*
X35212Y-33484D01*
X35567Y-33318D01*
X35800Y-33816D01*
X35445Y-33982D01*
X35445Y-33982D01*
G37*
G36*
X35472Y-34924D02*
X35239Y-34426D01*
X35594Y-34260D01*
X35827Y-34758D01*
X35472Y-34924D01*
X35472Y-34924D01*
G37*
G36*
X29955Y-33102D02*
X30205Y-32567D01*
X30667Y-32782D01*
X30417Y-33317D01*
X29955Y-33102D01*
X29955Y-33102D01*
G37*
G36*
X30633Y-33418D02*
X30883Y-32883D01*
X31345Y-33098D01*
X31095Y-33633D01*
X30633Y-33418D01*
X30633Y-33418D01*
G37*
G54D16*
X28226Y-28250D03*
X28974Y-28250D03*
G54D10*
G36*
X34355Y-33583D02*
X34105Y-33048D01*
X34567Y-32833D01*
X34817Y-33368D01*
X34355Y-33583D01*
X34355Y-33583D01*
G37*
G36*
X35033Y-33267D02*
X34783Y-32732D01*
X35245Y-32517D01*
X35495Y-33052D01*
X35033Y-33267D01*
X35033Y-33267D01*
G37*
G54D16*
X28226Y-27400D03*
X28974Y-27400D03*
G54D21*
X25450Y-30550D03*
G54D22*
X26450Y-30550D03*
X27450Y-30550D03*
X28450Y-30550D03*
G54D21*
X25450Y-25150D03*
G54D22*
X26450Y-25150D03*
X27450Y-25150D03*
X28450Y-25150D03*
G54D21*
X38350Y-30300D03*
G54D22*
X38350Y-29300D03*
X38350Y-28300D03*
X38350Y-27300D03*
X38350Y-26300D03*
X38350Y-25300D03*
G54D23*
X37809Y-33567D03*
X32403Y-35683D03*
X39631Y-30554D03*
X31203Y-34330D03*
X32070Y-27504D03*
X31737Y-28221D03*
X35343Y-28322D03*
X35858Y-29402D03*
X39543Y-29403D03*
X32974Y-19930D03*
X28356Y-29439D03*
X28123Y-24664D03*
X28615Y-23439D03*
X27555Y-23098D03*
X31176Y-30120D03*
X26551Y-30005D03*
X31584Y-30685D03*
X29256Y-33626D03*
X37791Y-24857D03*
X36424Y-34272D03*
X36757Y-26359D03*
X39216Y-31635D03*
X39369Y-26307D03*
X37876Y-26729D03*
X36880Y-25260D03*
X37203Y-22844D03*
X32490Y-24202D03*
X34258Y-32407D03*
X29702Y-31789D03*
X33712Y-31764D03*
X29409Y-31496D03*
X33791Y-30387D03*
X31477Y-33990D03*
X32663Y-32853D03*
X29305Y-26428D03*
X33212Y-27567D03*
X27634Y-28845D03*
X32898Y-28179D03*
X34361Y-34788D03*
X28626Y-25792D03*
X33062Y-31005D03*
X32188Y-28159D03*
X32274Y-30585D03*
X29830Y-29008D03*
X33351Y-24101D03*
X33616Y-32299D03*
X27945Y-29225D03*
X34850Y-24040D03*
X38225Y-24732D03*
X30826Y-26080D03*
G54D24*
X35533Y-34592D02*
X35979Y-34384D01*
X35533Y-34592D02*
X35087Y-34800D01*
X34204Y-35683D02*
X35087Y-34800D01*
X32403Y-35683D02*
X34204Y-35683D01*
X39631Y-31745D02*
X37809Y-33567D01*
X39631Y-30554D02*
X39631Y-31745D01*
X36991Y-34385D02*
X37809Y-33567D01*
X36761Y-34385D02*
X36991Y-34385D01*
X36556Y-34590D02*
X36761Y-34385D01*
X36293Y-34590D02*
X36556Y-34590D01*
X36088Y-34385D02*
X36293Y-34590D01*
X35980Y-34385D02*
X36088Y-34385D01*
X35979Y-34384D02*
X35980Y-34385D01*
G54D10*
X28974Y-27400D02*
X29323Y-27400D01*
X29323Y-27634D02*
X29323Y-27400D01*
X30336Y-28647D02*
X29323Y-27634D01*
X30854Y-28647D02*
X30336Y-28647D01*
X37274Y-27000D02*
X37274Y-26612D01*
X38350Y-25536D02*
X38350Y-25300D01*
X37274Y-26612D02*
X38350Y-25536D01*
G54D24*
X30891Y-34642D02*
X31203Y-34330D01*
X30573Y-34642D02*
X30891Y-34642D01*
X30364Y-34851D02*
X30573Y-34642D01*
X29917Y-34642D02*
X30364Y-34851D01*
G54D10*
X28974Y-28250D02*
X29323Y-28250D01*
X30854Y-28962D02*
X30368Y-28962D01*
X29656Y-28250D02*
X29323Y-28250D01*
X30368Y-28962D02*
X29656Y-28250D01*
X33210Y-25970D02*
X33210Y-26457D01*
X32163Y-27504D02*
X33210Y-26457D01*
X32070Y-27504D02*
X32163Y-27504D01*
X33750Y-22600D02*
X33750Y-22993D01*
X33850Y-25970D02*
X33850Y-25484D01*
X34164Y-25170D02*
X33850Y-25484D01*
X34164Y-23407D02*
X34164Y-25170D01*
X33750Y-22993D02*
X34164Y-23407D01*
X33530Y-25970D02*
X33530Y-25484D01*
X33530Y-24686D02*
X33530Y-25484D01*
X32750Y-23906D02*
X33530Y-24686D01*
X32750Y-23600D02*
X32750Y-23906D01*
X33501Y-26457D02*
X31737Y-28221D01*
X33530Y-26457D02*
X33501Y-26457D01*
X33530Y-25970D02*
X33530Y-26457D01*
G54D25*
X35858Y-28837D02*
X35858Y-29402D01*
X35343Y-28322D02*
X35858Y-28837D01*
X34727Y-19930D02*
X32974Y-19930D01*
X40252Y-25455D02*
X34727Y-19930D01*
X40252Y-28694D02*
X40252Y-25455D01*
X39543Y-29403D02*
X40252Y-28694D01*
X28262Y-29533D02*
X28356Y-29439D01*
X27818Y-29533D02*
X28262Y-29533D01*
X26973Y-28688D02*
X27818Y-29533D01*
X26973Y-25049D02*
X26973Y-28688D01*
X27358Y-24664D02*
X26973Y-25049D01*
X28123Y-24664D02*
X27358Y-24664D01*
X27896Y-23439D02*
X28615Y-23439D01*
X27555Y-23098D02*
X27896Y-23439D01*
X27016Y-30470D02*
X26551Y-30005D01*
X27016Y-30801D02*
X27016Y-30470D01*
X28673Y-32458D02*
X27016Y-30801D01*
X29547Y-32458D02*
X28673Y-32458D01*
X31176Y-30829D02*
X29547Y-32458D01*
X31176Y-30120D02*
X31176Y-30829D01*
X29256Y-33013D02*
X31584Y-30685D01*
X29256Y-33626D02*
X29256Y-33013D01*
X37791Y-24720D02*
X37791Y-24857D01*
X38100Y-24411D02*
X37791Y-24720D01*
X38341Y-24411D02*
X38100Y-24411D01*
X39885Y-25955D02*
X38341Y-24411D01*
X39885Y-27040D02*
X39885Y-25955D01*
X38885Y-28040D02*
X39885Y-27040D01*
X38885Y-31811D02*
X38885Y-28040D01*
X36424Y-34272D02*
X38885Y-31811D01*
X39216Y-29295D02*
X39216Y-31635D01*
X40068Y-28443D02*
X39216Y-29295D01*
X40068Y-25854D02*
X40068Y-28443D01*
X38225Y-24011D02*
X40068Y-25854D01*
X38185Y-24011D02*
X38225Y-24011D01*
X37483Y-24713D02*
X38185Y-24011D01*
X37483Y-25633D02*
X37483Y-24713D01*
X36757Y-26359D02*
X37483Y-25633D01*
X38947Y-26729D02*
X39369Y-26307D01*
X37876Y-26729D02*
X38947Y-26729D01*
X37203Y-24937D02*
X37203Y-22844D01*
X36880Y-25260D02*
X37203Y-24937D01*
G54D10*
X30650Y-22726D02*
X30650Y-23074D01*
X30854Y-27072D02*
X31341Y-27072D01*
X31341Y-27072D02*
X31341Y-24202D01*
X32490Y-24202D02*
X31341Y-24202D01*
X30976Y-23074D02*
X30650Y-23074D01*
X31256Y-23354D02*
X30976Y-23074D01*
X31256Y-24117D02*
X31256Y-23354D01*
X31341Y-24202D02*
X31256Y-24117D01*
X34258Y-30423D02*
X34258Y-32407D01*
X35107Y-29574D02*
X34258Y-30423D01*
X35107Y-28650D02*
X35107Y-29574D01*
X34620Y-28650D02*
X35107Y-28650D01*
X34134Y-31342D02*
X33712Y-31764D01*
X34134Y-28960D02*
X34134Y-31342D01*
X34620Y-28960D02*
X34134Y-28960D01*
X28689Y-31789D02*
X29702Y-31789D01*
X27450Y-30550D02*
X28689Y-31789D01*
X33842Y-29750D02*
X33842Y-30237D01*
X33791Y-30288D02*
X33842Y-30237D01*
X33791Y-30387D02*
X33791Y-30288D01*
X29043Y-31130D02*
X29409Y-31496D01*
X29043Y-30531D02*
X29043Y-31130D01*
X28601Y-30089D02*
X29043Y-30531D01*
X27823Y-30089D02*
X28601Y-30089D01*
X27440Y-29706D02*
X27823Y-30089D01*
X26276Y-29706D02*
X27440Y-29706D01*
X26260Y-29722D02*
X26276Y-29706D01*
X26260Y-30360D02*
X26260Y-29722D01*
X26450Y-30550D02*
X26260Y-30360D01*
X31601Y-34114D02*
X31477Y-33990D01*
X31601Y-34340D02*
X31601Y-34114D01*
X30626Y-35315D02*
X31601Y-34340D01*
X29763Y-35315D02*
X30626Y-35315D01*
X25450Y-31002D02*
X29763Y-35315D01*
X25450Y-30550D02*
X25450Y-31002D01*
X33430Y-30335D02*
X33528Y-30237D01*
X33430Y-32086D02*
X33430Y-30335D01*
X32663Y-32853D02*
X33430Y-32086D01*
X33528Y-29750D02*
X33528Y-30237D01*
X29305Y-26005D02*
X29305Y-26428D01*
X28450Y-25150D02*
X29305Y-26005D01*
X33212Y-29750D02*
X33212Y-27567D01*
X27634Y-25334D02*
X27634Y-28845D01*
X27450Y-25150D02*
X27634Y-25334D01*
X32898Y-29750D02*
X32898Y-28179D01*
G54D24*
X33966Y-35183D02*
X34361Y-34788D01*
X32750Y-35183D02*
X33966Y-35183D01*
G54D10*
X32276Y-31600D02*
X32276Y-31212D01*
X32276Y-30965D02*
X32276Y-31212D01*
X31638Y-30327D02*
X32276Y-30965D01*
X31638Y-29750D02*
X31638Y-30327D01*
X34850Y-22726D02*
X34850Y-22378D01*
X32314Y-22036D02*
X31750Y-22600D01*
X34508Y-22036D02*
X32314Y-22036D01*
X34850Y-22378D02*
X34508Y-22036D01*
X34850Y-22726D02*
X34850Y-23075D01*
X36469Y-26555D02*
X36526Y-26612D01*
X36469Y-24367D02*
X36469Y-26555D01*
X35177Y-23075D02*
X36469Y-24367D01*
X34850Y-23075D02*
X35177Y-23075D01*
X36526Y-27000D02*
X36526Y-26612D01*
X28626Y-28584D02*
X28626Y-25792D01*
X28751Y-28709D02*
X28626Y-28584D01*
X29940Y-28709D02*
X28751Y-28709D01*
X30495Y-29264D02*
X29940Y-28709D01*
X32582Y-29264D02*
X30495Y-29264D01*
X32582Y-29750D02*
X32582Y-29264D01*
X33062Y-30952D02*
X33062Y-31005D01*
X32347Y-30237D02*
X33062Y-30952D01*
X32268Y-30237D02*
X32347Y-30237D01*
X32268Y-29750D02*
X32268Y-30237D01*
X34620Y-26750D02*
X34235Y-26750D01*
X33143Y-22207D02*
X32750Y-22600D01*
X34286Y-22207D02*
X33143Y-22207D01*
X34302Y-22223D02*
X34286Y-22207D01*
X34302Y-26683D02*
X34302Y-22223D01*
X34235Y-26750D02*
X34302Y-26683D01*
X33597Y-26750D02*
X32188Y-28159D01*
X34235Y-26750D02*
X33597Y-26750D01*
X31952Y-30263D02*
X31952Y-29750D01*
X32274Y-30585D02*
X31952Y-30263D01*
G54D24*
X34620Y-28020D02*
X35157Y-28020D01*
X33194Y-23944D02*
X33351Y-24101D01*
X33194Y-23362D02*
X33194Y-23944D01*
X32988Y-23156D02*
X33194Y-23362D01*
X32194Y-23156D02*
X32988Y-23156D01*
X31750Y-23600D02*
X32194Y-23156D01*
X36526Y-28700D02*
X36327Y-28700D01*
X36327Y-28525D02*
X36149Y-28347D01*
X36327Y-28700D02*
X36327Y-28525D01*
X36149Y-27850D02*
X36149Y-28347D01*
X36149Y-27850D02*
X35691Y-27850D01*
X35568Y-27727D02*
X35691Y-27850D01*
X35450Y-27727D02*
X35568Y-27727D01*
X35450Y-25150D02*
X35450Y-27727D01*
X35450Y-27727D02*
X35157Y-28020D01*
X29179Y-24279D02*
X30050Y-25150D01*
X27321Y-24279D02*
X29179Y-24279D01*
X26450Y-25150D02*
X27321Y-24279D01*
X30672Y-28332D02*
X30318Y-28332D01*
X30672Y-28332D02*
X30854Y-28332D01*
X36526Y-29474D02*
X36526Y-28700D01*
X35450Y-30550D02*
X36526Y-29474D01*
X29830Y-30330D02*
X29830Y-29008D01*
X30050Y-30550D02*
X29830Y-30330D01*
X30854Y-27702D02*
X30318Y-27702D01*
X30050Y-27434D02*
X30318Y-27702D01*
X30050Y-25150D02*
X30050Y-27434D01*
X30318Y-27702D02*
X30318Y-28332D01*
G54D10*
X34828Y-33825D02*
X34828Y-33966D01*
X34679Y-33676D02*
X34828Y-33825D01*
X34461Y-33208D02*
X34679Y-33676D01*
X28226Y-27400D02*
X27878Y-27400D01*
X34242Y-32741D02*
X34243Y-32740D01*
X34058Y-32741D02*
X34242Y-32741D01*
X33616Y-32299D02*
X34058Y-32741D01*
X34461Y-33208D02*
X34243Y-32740D01*
X27878Y-28710D02*
X27878Y-27400D01*
X27945Y-28777D02*
X27878Y-28710D01*
X27945Y-29225D02*
X27945Y-28777D01*
X32376Y-34317D02*
X32376Y-33400D01*
X33024Y-31600D02*
X32675Y-31600D01*
X32376Y-33400D02*
X32376Y-33012D01*
X32376Y-32762D02*
X32376Y-33012D01*
X32675Y-32463D02*
X32376Y-32762D01*
X32675Y-31600D02*
X32675Y-32463D01*
X28226Y-28250D02*
X28226Y-28638D01*
X29676Y-34063D02*
X29743Y-34130D01*
X29411Y-34063D02*
X29676Y-34063D01*
X29262Y-33914D02*
X29411Y-34063D01*
X29138Y-33914D02*
X29262Y-33914D01*
X28968Y-33744D02*
X29138Y-33914D01*
X28968Y-33620D02*
X28968Y-33744D01*
X26073Y-30725D02*
X28968Y-33620D01*
X26073Y-29596D02*
X26073Y-30725D01*
X26089Y-29580D02*
X26073Y-29596D01*
X27488Y-29580D02*
X26089Y-29580D01*
X27552Y-29644D02*
X27488Y-29580D01*
X27699Y-29644D02*
X27552Y-29644D01*
X27751Y-29696D02*
X27699Y-29644D01*
X27804Y-29696D02*
X27751Y-29696D01*
X27881Y-29773D02*
X27804Y-29696D01*
X28631Y-29773D02*
X27881Y-29773D01*
X28886Y-29518D02*
X28631Y-29773D01*
X28886Y-29298D02*
X28886Y-29518D01*
X28226Y-28638D02*
X28886Y-29298D01*
X29944Y-33700D02*
X29743Y-34130D01*
X30093Y-33551D02*
X29944Y-33700D01*
X30093Y-33410D02*
X30093Y-33551D01*
X30311Y-32942D02*
X30093Y-33410D01*
G54D24*
X30743Y-33895D02*
X30622Y-34016D01*
X30743Y-33788D02*
X30743Y-33895D01*
X30742Y-33787D02*
X30743Y-33788D01*
X30989Y-33258D02*
X30742Y-33787D01*
X35506Y-33541D02*
X35506Y-33650D01*
X35386Y-33421D02*
X35506Y-33541D01*
X33614Y-34467D02*
X33464Y-34317D01*
X34993Y-34467D02*
X33614Y-34467D01*
X35506Y-33954D02*
X34993Y-34467D01*
X35506Y-33650D02*
X35506Y-33954D01*
X33294Y-34317D02*
X33464Y-34317D01*
X30989Y-33258D02*
X31496Y-33494D01*
X35139Y-32892D02*
X35164Y-32946D01*
X35164Y-32946D02*
X35386Y-33421D01*
X33124Y-34317D02*
X33209Y-34317D01*
X33209Y-34317D02*
X33294Y-34317D01*
X33209Y-33923D02*
X33124Y-33838D01*
X33209Y-34317D02*
X33209Y-33923D01*
X33124Y-33400D02*
X33124Y-33838D01*
X34850Y-23474D02*
X34850Y-24040D01*
X35157Y-26196D02*
X35157Y-27070D01*
X34480Y-25519D02*
X35157Y-26196D01*
X34480Y-24410D02*
X34480Y-25519D01*
X34850Y-24040D02*
X34480Y-24410D01*
X34620Y-27070D02*
X35157Y-27070D01*
X37065Y-31045D02*
X35164Y-32946D01*
X37065Y-30825D02*
X37065Y-31045D01*
X37240Y-30650D02*
X37065Y-30825D01*
X37240Y-30234D02*
X37240Y-30650D01*
X37274Y-30200D02*
X37240Y-30234D01*
X37274Y-29138D02*
X37274Y-30200D01*
X25450Y-25150D02*
X25868Y-25150D01*
X25868Y-24732D02*
X25868Y-25150D01*
X26837Y-23763D02*
X25868Y-24732D01*
X30142Y-23763D02*
X26837Y-23763D01*
X30431Y-23474D02*
X30142Y-23763D01*
X37274Y-28842D02*
X37274Y-29138D01*
X37274Y-28842D02*
X37274Y-28700D01*
X37274Y-28370D02*
X37251Y-28347D01*
X37274Y-28700D02*
X37274Y-28370D01*
X37251Y-27850D02*
X37251Y-28347D01*
X39688Y-26962D02*
X38350Y-28300D01*
X39688Y-26044D02*
X39688Y-26962D01*
X38376Y-24732D02*
X39688Y-26044D01*
X38225Y-24732D02*
X38376Y-24732D01*
X38072Y-28300D02*
X37672Y-28700D01*
X38350Y-28300D02*
X38072Y-28300D01*
X37274Y-28700D02*
X37672Y-28700D01*
X30318Y-26588D02*
X30826Y-26080D01*
X30318Y-27387D02*
X30318Y-26588D01*
X30650Y-23474D02*
X30541Y-23474D01*
X30541Y-23474D02*
X30431Y-23474D01*
X31081Y-25825D02*
X30826Y-26080D01*
X31081Y-24014D02*
X31081Y-25825D01*
X30541Y-23474D02*
X31081Y-24014D01*
X30586Y-27387D02*
X30318Y-27387D01*
X30586Y-27387D02*
X30854Y-27387D01*
X31391Y-27387D02*
X31391Y-28017D01*
X30854Y-27387D02*
X31391Y-27387D01*
X30854Y-28017D02*
X31391Y-28017D01*
X31495Y-33495D02*
X31496Y-33494D01*
X31495Y-33558D02*
X31495Y-33495D01*
X31795Y-33858D02*
X31495Y-33558D01*
X31795Y-34064D02*
X31795Y-33858D01*
X32036Y-34305D02*
X31795Y-34064D01*
X32036Y-34703D02*
X32036Y-34305D01*
X32070Y-34737D02*
X32036Y-34703D01*
X32874Y-34737D02*
X32070Y-34737D01*
X33294Y-34317D02*
X32874Y-34737D01*
M02*
