G04 (created by PCBNEW-RS274X (2012-jan-04)-stable) date Thu 24 May 2012 09:19:05 PM CEST*
G01*
G70*
G90*
%MOIN*%
G04 Gerber Fmt 3.4, Leading zero omitted, Abs format*
%FSLAX34Y34*%
G04 APERTURE LIST*
%ADD10C,0.006000*%
%ADD11C,0.118100*%
G04 APERTURE END LIST*
G54D10*
G54D11*
X23500Y-27850D02*
X23536Y-28656D01*
X23641Y-29456D01*
X23816Y-30244D01*
X24058Y-31013D01*
X24367Y-31759D01*
X24740Y-32474D01*
X25173Y-33155D01*
X25665Y-33795D01*
X25665Y-21905D02*
X25173Y-22545D01*
X24740Y-23226D01*
X24367Y-23941D01*
X24058Y-24687D01*
X23816Y-25456D01*
X23641Y-26244D01*
X23536Y-27044D01*
X23500Y-27850D01*
X42000Y-27850D02*
X41964Y-27044D01*
X41859Y-26244D01*
X41684Y-25456D01*
X41442Y-24687D01*
X41133Y-23941D01*
X40760Y-23226D01*
X40327Y-22545D01*
X39835Y-21905D01*
X39835Y-33795D02*
X40327Y-33155D01*
X40760Y-32474D01*
X41133Y-31759D01*
X41442Y-31013D01*
X41684Y-30244D01*
X41859Y-29456D01*
X41964Y-28656D01*
X42000Y-27850D01*
X32750Y-18600D02*
X31944Y-18636D01*
X31144Y-18741D01*
X30356Y-18916D01*
X29587Y-19158D01*
X28841Y-19467D01*
X28126Y-19840D01*
X27445Y-20273D01*
X26805Y-20765D01*
X32750Y-37100D02*
X33556Y-37064D01*
X34356Y-36959D01*
X35144Y-36784D01*
X35913Y-36542D01*
X36659Y-36233D01*
X37375Y-35860D01*
X38055Y-35427D01*
X38695Y-34935D01*
X26805Y-34935D02*
X27445Y-35427D01*
X28126Y-35860D01*
X28841Y-36233D01*
X29587Y-36542D01*
X30356Y-36784D01*
X31144Y-36959D01*
X31944Y-37064D01*
X32750Y-37100D01*
X38695Y-20765D02*
X38055Y-20273D01*
X37375Y-19840D01*
X36659Y-19467D01*
X35913Y-19158D01*
X35144Y-18916D01*
X34356Y-18741D01*
X33556Y-18636D01*
X32750Y-18600D01*
M02*
