M48
INCH,TZ
T1C0.025
T2C0.032
T3C0.040
T4C0.120
%
G90
G05
T1
X025008Y-028273
X025873Y-024649
X025881Y-028151
X025943Y-032184
X026772Y-026379
X027776Y-028942
X028354Y-032905
X028718Y-023261
X029691Y-029057
X030194Y-026706
X031182Y-034468
X031198Y-034981
X031835Y-027566
X032220Y-025089
X032268Y-030726
X032483Y-028057
X032651Y-020970
X033059Y-032572
X033081Y-028079
X033181Y-030816
X033198Y-030392
X033306Y-024675
X033726Y-033038
X033868Y-027623
X033943Y-028144
X034015Y-031062
X034452Y-034399
X035349Y-029156
X035885Y-026261
X036275Y-034873
X037002Y-032760
X037649Y-029239
X038138Y-031049
X038499Y-033520
X038511Y-022283
X038858Y-028848
X039362Y-028275
X039416Y-029684
X039699Y-023737
T2
X025450Y-025150
X025450Y-030550
X026450Y-025150
X026450Y-030550
X027450Y-025150
X027450Y-030550
X028450Y-025150
X028450Y-030550
X038350Y-025300
X038350Y-026300
X038350Y-027300
X038350Y-028300
X038350Y-029300
X038350Y-030300
T3
X031750Y-022600
X031750Y-023600
X032750Y-022600
X032750Y-023600
X033750Y-022600
X033750Y-023600
T4
X030050Y-025150
X030050Y-030550
X035450Y-025150
X035450Y-030550
T0
M30
