G04 (created by PCBNEW-RS274X (2011-07-08)-stable) date Wed 11 Jan 2012 04:20:16 PM CET*
G01*
G70*
G90*
%MOIN*%
G04 Gerber Fmt 3.4, Leading zero omitted, Abs format*
%FSLAX34Y34*%
G04 APERTURE LIST*
%ADD10C,0.006000*%
%ADD11C,0.008000*%
%ADD12R,0.060000X0.060000*%
%ADD13C,0.060000*%
%ADD14R,0.023600X0.086600*%
%ADD15R,0.086600X0.023600*%
%ADD16C,0.160000*%
%ADD17R,0.059000X0.051100*%
%ADD18R,0.070800X0.062900*%
%ADD19R,0.051100X0.059000*%
%ADD20R,0.047200X0.047200*%
%ADD21R,0.059100X0.063000*%
%ADD22R,0.063000X0.059100*%
%ADD23R,0.055000X0.055000*%
%ADD24C,0.055000*%
%ADD25C,0.025000*%
%ADD26C,0.035000*%
%ADD27C,0.016000*%
G04 APERTURE END LIST*
G54D10*
G54D11*
X32750Y-19300D02*
X32005Y-19333D01*
X31266Y-19430D01*
X30538Y-19592D01*
X29826Y-19816D01*
X29137Y-20102D01*
X28476Y-20446D01*
X27846Y-20847D01*
X27255Y-21301D01*
X26705Y-21805D01*
X26201Y-22355D01*
X25747Y-22946D01*
X25346Y-23576D01*
X25002Y-24237D01*
X24716Y-24926D01*
X24492Y-25638D01*
X24330Y-26366D01*
X24233Y-27105D01*
X24200Y-27850D01*
X24200Y-27850D02*
X24233Y-28595D01*
X24330Y-29334D01*
X24492Y-30062D01*
X24716Y-30774D01*
X25002Y-31463D01*
X25346Y-32124D01*
X25747Y-32754D01*
X26201Y-33345D01*
X26705Y-33895D01*
X27255Y-34399D01*
X27846Y-34853D01*
X28476Y-35254D01*
X29137Y-35598D01*
X29826Y-35884D01*
X30538Y-36108D01*
X31266Y-36270D01*
X32005Y-36367D01*
X32750Y-36400D01*
X32750Y-36400D02*
X33495Y-36367D01*
X34234Y-36270D01*
X34962Y-36108D01*
X35674Y-35884D01*
X36363Y-35598D01*
X37025Y-35254D01*
X37654Y-34853D01*
X38245Y-34399D01*
X38795Y-33895D01*
X39299Y-33345D01*
X39753Y-32754D01*
X40154Y-32124D01*
X40498Y-31463D01*
X40784Y-30774D01*
X41008Y-30062D01*
X41170Y-29334D01*
X41267Y-28595D01*
X41300Y-27850D01*
X41300Y-27850D02*
X41267Y-27105D01*
X41170Y-26366D01*
X41008Y-25638D01*
X40784Y-24926D01*
X40498Y-24237D01*
X40154Y-23576D01*
X39753Y-22946D01*
X39299Y-22355D01*
X38795Y-21805D01*
X38245Y-21301D01*
X37654Y-20847D01*
X37025Y-20446D01*
X36363Y-20102D01*
X35674Y-19816D01*
X34962Y-19592D01*
X34234Y-19430D01*
X33495Y-19333D01*
X32750Y-19300D01*
G54D12*
X33250Y-26850D03*
G54D13*
X32250Y-26850D03*
X33250Y-27850D03*
X32250Y-27850D03*
X33250Y-28850D03*
X32250Y-28850D03*
G54D14*
X36650Y-26827D03*
X37150Y-26827D03*
X37650Y-26827D03*
X38150Y-26827D03*
X38650Y-26827D03*
X39150Y-26827D03*
X39650Y-26827D03*
X40150Y-26827D03*
X40150Y-28873D03*
X39650Y-28873D03*
X39150Y-28873D03*
X38650Y-28873D03*
X38150Y-28873D03*
X37650Y-28873D03*
X37150Y-28873D03*
X36650Y-28873D03*
X28800Y-28873D03*
X28300Y-28873D03*
X27800Y-28873D03*
X27300Y-28873D03*
X26800Y-28873D03*
X26300Y-28873D03*
X25800Y-28873D03*
X25300Y-28873D03*
X25300Y-26827D03*
X25800Y-26827D03*
X26300Y-26827D03*
X26800Y-26827D03*
X27300Y-26827D03*
X27800Y-26827D03*
X28300Y-26827D03*
X28800Y-26827D03*
G54D15*
X33773Y-31800D03*
X33773Y-32300D03*
X33773Y-32800D03*
X33773Y-33300D03*
X33773Y-33800D03*
X33773Y-34300D03*
X33773Y-34800D03*
X33773Y-35300D03*
X31727Y-35300D03*
X31727Y-34800D03*
X31727Y-34300D03*
X31727Y-33800D03*
X31727Y-33300D03*
X31727Y-32800D03*
X31727Y-32300D03*
X31727Y-31800D03*
G54D10*
G36*
X27414Y-33703D02*
X26997Y-33286D01*
X27358Y-32925D01*
X27775Y-33342D01*
X27414Y-33703D01*
X27414Y-33703D01*
G37*
G36*
X27942Y-33175D02*
X27525Y-32758D01*
X27886Y-32397D01*
X28303Y-32814D01*
X27942Y-33175D01*
X27942Y-33175D01*
G37*
G54D16*
X30050Y-25150D03*
X35450Y-25150D03*
X30050Y-30550D03*
X35450Y-30550D03*
G54D17*
X31950Y-24176D03*
X31950Y-24924D03*
G54D18*
X33500Y-23999D03*
X33500Y-25101D03*
G54D19*
X32376Y-20000D03*
X33124Y-20000D03*
G54D20*
X32041Y-30844D03*
X32041Y-30056D03*
G54D21*
X33321Y-30450D03*
G54D20*
X34906Y-27141D03*
X35694Y-27141D03*
G54D22*
X35300Y-28421D03*
G54D20*
X29756Y-27141D03*
X30544Y-27141D03*
G54D22*
X30150Y-28421D03*
G54D23*
X30250Y-22250D03*
G54D24*
X31250Y-22250D03*
X32250Y-22250D03*
X33250Y-22250D03*
X34250Y-22250D03*
X35250Y-22250D03*
G54D10*
G36*
X27239Y-25800D02*
X26850Y-25411D01*
X27239Y-25022D01*
X27628Y-25411D01*
X27239Y-25800D01*
X27239Y-25800D01*
G37*
G54D24*
X27946Y-24704D03*
X28654Y-23996D03*
X29361Y-23289D03*
G54D10*
G36*
X38600Y-25411D02*
X38211Y-25800D01*
X37822Y-25411D01*
X38211Y-25022D01*
X38600Y-25411D01*
X38600Y-25411D01*
G37*
G54D24*
X37504Y-24704D03*
X36796Y-23996D03*
X36089Y-23289D03*
G54D25*
X34445Y-20567D03*
X37946Y-30098D03*
X34250Y-29600D03*
X34407Y-33664D03*
X36424Y-33768D03*
X33191Y-35052D03*
X35633Y-33243D03*
X39956Y-27532D03*
X38728Y-31040D03*
X37055Y-21190D03*
X39450Y-31700D03*
X34829Y-20570D03*
X34753Y-21668D03*
X32984Y-21680D03*
X26545Y-25048D03*
X27851Y-30524D03*
X30783Y-33469D03*
X34929Y-34270D03*
X38921Y-29995D03*
X39650Y-26198D03*
X37565Y-22517D03*
X31329Y-20914D03*
X27679Y-22728D03*
X25538Y-28291D03*
X31142Y-34064D03*
X34371Y-34566D03*
X39373Y-32401D03*
X38826Y-25858D03*
X36443Y-21089D03*
X28724Y-21483D03*
X26654Y-24496D03*
X26037Y-29474D03*
X26800Y-26137D03*
X29640Y-26137D03*
X30908Y-32586D03*
X29191Y-33770D03*
X28702Y-34788D03*
X29958Y-29014D03*
X30620Y-35166D03*
X30224Y-32484D03*
X31220Y-20418D03*
X32383Y-23722D03*
X37881Y-29459D03*
X31420Y-24523D03*
X32896Y-24989D03*
X29036Y-25151D03*
X29504Y-24146D03*
X31419Y-25254D03*
X33738Y-26606D03*
X32440Y-23291D03*
X31292Y-30035D03*
X30778Y-26355D03*
X39014Y-25410D03*
X35132Y-21742D03*
X38672Y-31421D03*
X39146Y-31895D03*
X36726Y-34604D03*
X39983Y-29884D03*
X40382Y-29480D03*
X27055Y-30383D03*
X30439Y-34048D03*
X30343Y-21634D03*
X27666Y-24258D03*
G54D26*
X36939Y-24887D03*
X36879Y-26154D03*
X33869Y-27680D03*
G54D25*
X30021Y-27598D03*
X35902Y-27875D03*
X31686Y-31239D03*
X37172Y-29860D03*
X29565Y-29437D03*
G54D26*
X26219Y-32148D03*
X35755Y-22669D03*
G54D10*
X33124Y-20000D02*
X33473Y-20000D01*
X34040Y-20567D02*
X34445Y-20567D01*
X33473Y-20000D02*
X34040Y-20567D01*
X38412Y-29632D02*
X37946Y-30098D01*
X38412Y-27615D02*
X38412Y-29632D01*
X38150Y-27353D02*
X38412Y-27615D01*
X38150Y-26827D02*
X38150Y-27353D01*
X34758Y-33300D02*
X33773Y-33300D01*
X37946Y-30112D02*
X34758Y-33300D01*
X37946Y-30098D02*
X37946Y-30112D01*
X33247Y-33300D02*
X33773Y-33300D01*
X33036Y-33511D02*
X33247Y-33300D01*
X31149Y-33511D02*
X33036Y-33511D01*
X30340Y-32702D02*
X31149Y-33511D01*
X30135Y-32702D02*
X30340Y-32702D01*
X30006Y-32573D02*
X30135Y-32702D01*
X30006Y-32368D02*
X30006Y-32573D01*
X27300Y-29662D02*
X30006Y-32368D01*
X27300Y-28873D02*
X27300Y-29662D01*
X34965Y-32300D02*
X33773Y-32300D01*
X36356Y-30909D02*
X34965Y-32300D01*
X36356Y-29671D02*
X36356Y-30909D01*
X36340Y-29655D02*
X36356Y-29671D01*
X34502Y-29655D02*
X36340Y-29655D01*
X34447Y-29600D02*
X34502Y-29655D01*
X34250Y-29600D02*
X34447Y-29600D01*
G54D11*
X34953Y-35052D02*
X33191Y-35052D01*
X34953Y-35036D02*
X34953Y-35052D01*
X35841Y-34148D02*
X34953Y-35036D01*
X35961Y-34148D02*
X35841Y-34148D01*
X36003Y-34189D02*
X35961Y-34148D01*
X36424Y-33768D02*
X36003Y-34189D01*
X34309Y-33762D02*
X34407Y-33664D01*
X34309Y-33800D02*
X34309Y-33762D01*
X33773Y-33800D02*
X34309Y-33800D01*
X34576Y-34300D02*
X35633Y-33243D01*
X33773Y-34300D02*
X34576Y-34300D01*
X39905Y-27583D02*
X39956Y-27532D01*
X39905Y-29446D02*
X39905Y-27583D01*
X37682Y-31669D02*
X39905Y-29446D01*
X37682Y-31872D02*
X37682Y-31669D01*
X34754Y-34800D02*
X37682Y-31872D01*
X33773Y-34800D02*
X34754Y-34800D01*
X37877Y-31891D02*
X38728Y-31040D01*
X37877Y-32657D02*
X37877Y-31891D01*
X35234Y-35300D02*
X37877Y-32657D01*
X33773Y-35300D02*
X35234Y-35300D01*
X40754Y-30082D02*
X39450Y-31700D01*
X40754Y-25812D02*
X40754Y-30082D01*
X40339Y-25397D02*
X40754Y-25812D01*
X40339Y-24474D02*
X40339Y-25397D01*
X37055Y-21190D02*
X40339Y-24474D01*
X36261Y-20570D02*
X34829Y-20570D01*
X36685Y-20994D02*
X36261Y-20570D01*
X36685Y-21147D02*
X36685Y-20994D01*
X36956Y-21418D02*
X36685Y-21147D01*
X37011Y-21418D02*
X36956Y-21418D01*
X40195Y-24602D02*
X37011Y-21418D01*
X40195Y-25456D02*
X40195Y-24602D01*
X40611Y-25872D02*
X40195Y-25456D01*
X40611Y-29889D02*
X40611Y-25872D01*
X38918Y-31582D02*
X40611Y-29889D01*
X38918Y-31819D02*
X38918Y-31582D01*
X35216Y-35521D02*
X38918Y-31819D01*
X32484Y-35521D02*
X35216Y-35521D01*
X32263Y-35300D02*
X32484Y-35521D01*
X34741Y-21680D02*
X32984Y-21680D01*
X34753Y-21668D02*
X34741Y-21680D01*
X31727Y-35300D02*
X32263Y-35300D01*
X26545Y-30595D02*
X26545Y-25048D01*
X30068Y-34118D02*
X26545Y-30595D01*
X30068Y-34202D02*
X30068Y-34118D01*
X30661Y-34795D02*
X30068Y-34202D01*
X31186Y-34795D02*
X30661Y-34795D01*
X31191Y-34800D02*
X31186Y-34795D01*
X31727Y-34800D02*
X31191Y-34800D01*
X31055Y-34300D02*
X31727Y-34300D01*
X27851Y-31096D02*
X31055Y-34300D01*
X27851Y-30524D02*
X27851Y-31096D01*
X31114Y-33800D02*
X31727Y-33800D01*
X30783Y-33469D02*
X31114Y-33800D01*
X37539Y-31660D02*
X34929Y-34270D01*
X37539Y-31609D02*
X37539Y-31660D01*
X38693Y-30455D02*
X37539Y-31609D01*
X38693Y-29901D02*
X38693Y-30455D01*
X38871Y-29723D02*
X38693Y-29901D01*
X38871Y-27988D02*
X38871Y-29723D01*
X38650Y-27767D02*
X38871Y-27988D01*
X38650Y-26827D02*
X38650Y-27767D01*
X39417Y-29499D02*
X38921Y-29995D01*
X39417Y-28236D02*
X39417Y-29499D01*
X39158Y-27977D02*
X39417Y-28236D01*
X39158Y-27371D02*
X39158Y-27977D01*
X39150Y-27363D02*
X39158Y-27371D01*
X39150Y-26827D02*
X39150Y-27363D01*
X39650Y-26827D02*
X39650Y-26198D01*
X39909Y-24861D02*
X37565Y-22517D01*
X39909Y-26050D02*
X39909Y-24861D01*
X40150Y-26291D02*
X39909Y-26050D01*
X40150Y-26827D02*
X40150Y-26291D01*
X31356Y-20941D02*
X31329Y-20914D01*
X35691Y-20941D02*
X31356Y-20941D01*
X36398Y-21648D02*
X35691Y-20941D01*
X37021Y-21648D02*
X36398Y-21648D01*
X40052Y-24679D02*
X37021Y-21648D01*
X40052Y-25516D02*
X40052Y-24679D01*
X40468Y-25932D02*
X40052Y-25516D01*
X40468Y-28019D02*
X40468Y-25932D01*
X40150Y-28337D02*
X40468Y-28019D01*
X40150Y-28873D02*
X40150Y-28337D01*
X27822Y-22728D02*
X27679Y-22728D01*
X29547Y-21003D02*
X27822Y-22728D01*
X30836Y-21003D02*
X29547Y-21003D01*
X30976Y-21143D02*
X30836Y-21003D01*
X35517Y-21143D02*
X30976Y-21143D01*
X39765Y-25391D02*
X35517Y-21143D01*
X39765Y-25533D02*
X39765Y-25391D01*
X39417Y-25881D02*
X39765Y-25533D01*
X39417Y-27934D02*
X39417Y-25881D01*
X39650Y-28167D02*
X39417Y-27934D01*
X39650Y-28873D02*
X39650Y-28167D01*
X25538Y-25281D02*
X25538Y-28291D01*
X29673Y-21146D02*
X25538Y-25281D01*
X30776Y-21146D02*
X29673Y-21146D01*
X30917Y-21287D02*
X30776Y-21146D01*
X35457Y-21287D02*
X30917Y-21287D01*
X39475Y-25305D02*
X35457Y-21287D01*
X39475Y-25540D02*
X39475Y-25305D01*
X38915Y-26100D02*
X39475Y-25540D01*
X38915Y-27735D02*
X38915Y-26100D01*
X39015Y-27835D02*
X38915Y-27735D01*
X39015Y-28202D02*
X39015Y-27835D01*
X39150Y-28337D02*
X39015Y-28202D01*
X39150Y-28873D02*
X39150Y-28337D01*
X34348Y-34064D02*
X31142Y-34064D01*
X38550Y-29862D02*
X34348Y-34064D01*
X38550Y-29509D02*
X38550Y-29862D01*
X38650Y-29409D02*
X38550Y-29509D01*
X38650Y-28873D02*
X38650Y-29409D01*
X30635Y-34566D02*
X34371Y-34566D01*
X30211Y-34142D02*
X30635Y-34566D01*
X30211Y-34058D02*
X30211Y-34142D01*
X26800Y-30647D02*
X30211Y-34058D01*
X26800Y-28873D02*
X26800Y-30647D01*
X26300Y-30556D02*
X26300Y-28873D01*
X29925Y-34181D02*
X26300Y-30556D01*
X29925Y-34262D02*
X29925Y-34181D01*
X30601Y-34938D02*
X29925Y-34262D01*
X30732Y-34938D02*
X30601Y-34938D01*
X30865Y-35071D02*
X30732Y-34938D01*
X30865Y-35202D02*
X30865Y-35071D01*
X31328Y-35665D02*
X30865Y-35202D01*
X35408Y-35665D02*
X31328Y-35665D01*
X36240Y-34833D02*
X35408Y-35665D01*
X36941Y-34833D02*
X36240Y-34833D01*
X39373Y-32401D02*
X36941Y-34833D01*
X25800Y-27534D02*
X25800Y-28873D01*
X26078Y-27256D02*
X25800Y-27534D01*
X26078Y-25188D02*
X26078Y-27256D01*
X26527Y-24739D02*
X26078Y-25188D01*
X26747Y-24739D02*
X26527Y-24739D01*
X30197Y-21289D02*
X26747Y-24739D01*
X30716Y-21289D02*
X30197Y-21289D01*
X30858Y-21431D02*
X30716Y-21289D01*
X35380Y-21431D02*
X30858Y-21431D01*
X39262Y-25313D02*
X35380Y-21431D01*
X39262Y-25493D02*
X39262Y-25313D01*
X38897Y-25858D02*
X39262Y-25493D01*
X38826Y-25858D02*
X38897Y-25858D01*
X25300Y-28337D02*
X25300Y-28873D01*
X24964Y-28001D02*
X25300Y-28337D01*
X24964Y-25080D02*
X24964Y-28001D01*
X27210Y-22834D02*
X24964Y-25080D01*
X27210Y-22629D02*
X27210Y-22834D01*
X29154Y-20685D02*
X27210Y-22629D01*
X33735Y-20685D02*
X29154Y-20685D01*
X33848Y-20798D02*
X33735Y-20685D01*
X36152Y-20798D02*
X33848Y-20798D01*
X36443Y-21089D02*
X36152Y-20798D01*
X25300Y-24947D02*
X25300Y-26827D01*
X27405Y-22842D02*
X25300Y-24947D01*
X27405Y-22637D02*
X27405Y-22842D01*
X28559Y-21483D02*
X27405Y-22637D01*
X28724Y-21483D02*
X28559Y-21483D01*
X26654Y-24497D02*
X26654Y-24496D01*
X26566Y-24497D02*
X26654Y-24497D01*
X25800Y-25263D02*
X26566Y-24497D01*
X25800Y-26827D02*
X25800Y-25263D01*
X26037Y-27626D02*
X26037Y-29474D01*
X26300Y-27363D02*
X26037Y-27626D01*
X26300Y-26827D02*
X26300Y-27363D01*
X26800Y-26827D02*
X26800Y-26137D01*
X29191Y-34299D02*
X29191Y-33770D01*
X28702Y-34788D02*
X29191Y-34299D01*
X30692Y-32370D02*
X30908Y-32586D01*
X30692Y-31698D02*
X30692Y-32370D01*
X30991Y-31399D02*
X30692Y-31698D01*
X30991Y-26970D02*
X30991Y-31399D01*
X30158Y-26137D02*
X30991Y-26970D01*
X29640Y-26137D02*
X30158Y-26137D01*
G54D10*
X32253Y-33300D02*
X31727Y-33300D01*
X32475Y-33078D02*
X32253Y-33300D01*
X32475Y-33077D02*
X32475Y-33078D01*
X34808Y-33077D02*
X32475Y-33077D01*
X37102Y-30783D02*
X34808Y-33077D01*
X37102Y-30610D02*
X37102Y-30783D01*
X38150Y-29562D02*
X37102Y-30610D01*
X38150Y-28873D02*
X38150Y-29562D01*
X28768Y-35166D02*
X30620Y-35166D01*
X27914Y-34312D02*
X28768Y-35166D01*
X27914Y-33277D02*
X27914Y-34312D01*
X27669Y-33031D02*
X27914Y-33277D01*
X27914Y-32786D02*
X27669Y-33031D01*
X31113Y-33300D02*
X31727Y-33300D01*
X30297Y-32484D02*
X31113Y-33300D01*
X30224Y-32484D02*
X30297Y-32484D01*
X27300Y-27353D02*
X27937Y-27990D01*
X27300Y-26827D02*
X27300Y-27353D01*
X28934Y-27990D02*
X29958Y-29014D01*
X27937Y-27990D02*
X28934Y-27990D01*
X27588Y-28339D02*
X27937Y-27990D01*
X27588Y-29745D02*
X27588Y-28339D01*
X30224Y-32381D02*
X27588Y-29745D01*
X30224Y-32484D02*
X30224Y-32381D01*
X32253Y-32300D02*
X32253Y-31279D01*
X31727Y-32300D02*
X32253Y-32300D01*
X32933Y-30599D02*
X32253Y-31279D01*
X32933Y-30450D02*
X32933Y-30599D01*
X33321Y-30450D02*
X32933Y-30450D01*
X32147Y-31279D02*
X32253Y-31279D01*
X32041Y-31173D02*
X32147Y-31279D01*
X32041Y-30844D02*
X32041Y-31173D01*
X35379Y-28117D02*
X35300Y-28196D01*
X36920Y-28117D02*
X35379Y-28117D01*
X37150Y-28347D02*
X36920Y-28117D01*
X37150Y-28873D02*
X37150Y-28347D01*
X35300Y-28421D02*
X35300Y-28196D01*
X34906Y-27639D02*
X34906Y-27141D01*
X35300Y-28033D02*
X34906Y-27639D01*
X35300Y-28196D02*
X35300Y-28033D01*
X29756Y-27141D02*
X29756Y-27353D01*
X28300Y-27353D02*
X29756Y-27353D01*
X28300Y-26827D02*
X28300Y-27353D01*
X30150Y-28033D02*
X30150Y-28421D01*
X30149Y-28033D02*
X30150Y-28033D01*
X29756Y-27640D02*
X30149Y-28033D01*
X29756Y-27353D02*
X29756Y-27640D01*
X31610Y-20418D02*
X31220Y-20418D01*
X32028Y-20000D02*
X31610Y-20418D01*
X32376Y-20000D02*
X32028Y-20000D01*
X32221Y-23560D02*
X32383Y-23722D01*
X32221Y-23088D02*
X32221Y-23560D01*
X33059Y-22250D02*
X32221Y-23088D01*
X33250Y-22250D02*
X33059Y-22250D01*
X36943Y-30397D02*
X37881Y-29459D01*
X36943Y-30769D02*
X36943Y-30397D01*
X34912Y-32800D02*
X36943Y-30769D01*
X33773Y-32800D02*
X34912Y-32800D01*
X37881Y-27584D02*
X37881Y-29459D01*
X37650Y-27353D02*
X37881Y-27584D01*
X37650Y-26827D02*
X37650Y-27353D01*
X27800Y-29608D02*
X27800Y-28873D01*
X30442Y-32250D02*
X27800Y-29608D01*
X30442Y-32430D02*
X30442Y-32250D01*
X31061Y-33049D02*
X30442Y-32430D01*
X32216Y-33049D02*
X31061Y-33049D01*
X32465Y-32800D02*
X32216Y-33049D01*
X33773Y-32800D02*
X32465Y-32800D01*
X31423Y-24526D02*
X31420Y-24523D01*
X32433Y-24526D02*
X31423Y-24526D01*
X32896Y-24989D02*
X32433Y-24526D01*
X31453Y-25288D02*
X31419Y-25254D01*
X32420Y-25288D02*
X31453Y-25288D01*
X33738Y-26606D02*
X32420Y-25288D01*
X29036Y-24614D02*
X29036Y-25151D01*
X29504Y-24146D02*
X29036Y-24614D01*
X33209Y-23291D02*
X32440Y-23291D01*
X34250Y-22250D02*
X33209Y-23291D01*
X31292Y-26869D02*
X30778Y-26355D01*
X31292Y-30035D02*
X31292Y-26869D01*
X39146Y-32184D02*
X39146Y-31895D01*
X36726Y-34604D02*
X39146Y-32184D01*
X35346Y-21742D02*
X39014Y-25410D01*
X35132Y-21742D02*
X35346Y-21742D01*
X27055Y-30664D02*
X27055Y-30383D01*
X30439Y-34048D02*
X27055Y-30664D01*
X28230Y-24258D02*
X27666Y-24258D01*
X28466Y-24494D02*
X28230Y-24258D01*
X28466Y-24724D02*
X28466Y-24494D01*
X27055Y-26135D02*
X28466Y-24724D01*
X27055Y-30383D02*
X27055Y-26135D01*
X30041Y-21634D02*
X30343Y-21634D01*
X28230Y-23445D02*
X30041Y-21634D01*
X28230Y-24258D02*
X28230Y-23445D01*
X34843Y-22031D02*
X35132Y-21742D01*
X34800Y-22031D02*
X34843Y-22031D01*
X34594Y-21825D02*
X34800Y-22031D01*
X33147Y-21825D02*
X34594Y-21825D01*
X33054Y-21918D02*
X33147Y-21825D01*
X32755Y-21918D02*
X33054Y-21918D01*
X32471Y-21634D02*
X32755Y-21918D01*
X30343Y-21634D02*
X32471Y-21634D01*
X40382Y-29485D02*
X39983Y-29884D01*
X40382Y-29480D02*
X40382Y-29485D01*
X39983Y-30110D02*
X38672Y-31421D01*
X39983Y-29884D02*
X39983Y-30110D01*
G54D27*
X33500Y-25150D02*
X35450Y-25150D01*
X33500Y-25101D02*
X33500Y-25150D01*
X28949Y-29449D02*
X28800Y-29449D01*
X30050Y-30550D02*
X28949Y-29449D01*
X28800Y-28873D02*
X28800Y-29449D01*
X36650Y-26827D02*
X36650Y-26251D01*
X36650Y-26251D02*
X36673Y-26251D01*
X36939Y-25985D02*
X36673Y-26251D01*
X36939Y-24887D02*
X36939Y-25985D01*
X36747Y-26286D02*
X36879Y-26154D01*
X36683Y-26286D02*
X36747Y-26286D01*
X36673Y-26276D02*
X36683Y-26286D01*
X36673Y-26251D02*
X36673Y-26276D01*
X32425Y-24924D02*
X31950Y-24924D01*
X32811Y-25310D02*
X32425Y-24924D01*
X33340Y-25310D02*
X32811Y-25310D01*
X33500Y-25150D02*
X33340Y-25310D01*
X30250Y-22250D02*
X30250Y-22668D01*
X31950Y-24924D02*
X31512Y-24924D01*
X30250Y-24888D02*
X30250Y-22668D01*
X30050Y-25088D02*
X30250Y-24888D01*
X30050Y-25150D02*
X30050Y-25088D01*
X31476Y-24888D02*
X31512Y-24924D01*
X30250Y-24888D02*
X31476Y-24888D01*
X33773Y-31800D02*
X34349Y-31800D01*
X32750Y-28350D02*
X33586Y-28350D01*
X32250Y-28850D02*
X32750Y-28350D01*
X33869Y-28067D02*
X33869Y-27680D01*
X33586Y-28350D02*
X33869Y-28067D01*
X34804Y-31196D02*
X34349Y-31196D01*
X35450Y-30550D02*
X34804Y-31196D01*
X33982Y-30829D02*
X34349Y-31196D01*
X33982Y-28746D02*
X33982Y-30829D01*
X33586Y-28350D02*
X33982Y-28746D01*
X34349Y-31196D02*
X34349Y-31800D01*
G54D10*
X30215Y-27404D02*
X30021Y-27598D01*
X30215Y-27141D02*
X30215Y-27404D01*
X30544Y-27141D02*
X30215Y-27141D01*
X35902Y-27678D02*
X35902Y-27875D01*
X35694Y-27470D02*
X35902Y-27678D01*
X35694Y-27141D02*
X35694Y-27470D01*
X31686Y-30411D02*
X31686Y-31239D01*
X31712Y-30385D02*
X31686Y-30411D01*
X32041Y-30385D02*
X31712Y-30385D01*
X32041Y-30056D02*
X32041Y-30385D01*
X32253Y-32800D02*
X31727Y-32800D01*
X32471Y-32582D02*
X32253Y-32800D01*
X34957Y-32582D02*
X32471Y-32582D01*
X36813Y-30726D02*
X34957Y-32582D01*
X36813Y-29859D02*
X36813Y-30726D01*
X37273Y-29399D02*
X36813Y-29859D01*
X37349Y-29399D02*
X37273Y-29399D01*
X37365Y-29383D02*
X37349Y-29399D01*
X37365Y-27568D02*
X37365Y-29383D01*
X37150Y-27353D02*
X37365Y-27568D01*
X37150Y-26827D02*
X37150Y-27353D01*
X37189Y-29860D02*
X37172Y-29860D01*
X37650Y-29399D02*
X37189Y-29860D01*
X37650Y-28873D02*
X37650Y-29399D01*
X29565Y-28955D02*
X29565Y-29437D01*
X28957Y-28347D02*
X29565Y-28955D01*
X28300Y-28347D02*
X28957Y-28347D01*
X28300Y-28873D02*
X28300Y-28347D01*
G54D27*
X26220Y-32148D02*
X26219Y-32148D01*
X27386Y-33314D02*
X26220Y-32148D01*
X29361Y-23909D02*
X29361Y-23289D01*
X28765Y-24505D02*
X29361Y-23909D01*
X28765Y-26216D02*
X28765Y-24505D01*
X28800Y-26251D02*
X28765Y-26216D01*
X28800Y-26827D02*
X28800Y-26251D01*
X36650Y-28873D02*
X36650Y-28297D01*
X32694Y-27294D02*
X32250Y-26850D01*
X34526Y-27294D02*
X32694Y-27294D01*
X34526Y-28513D02*
X34526Y-27294D01*
X34883Y-28870D02*
X34526Y-28513D01*
X35861Y-28870D02*
X34883Y-28870D01*
X36434Y-28297D02*
X35861Y-28870D01*
X36650Y-28297D02*
X36434Y-28297D01*
X31950Y-24176D02*
X32388Y-24176D01*
X32826Y-24176D02*
X32388Y-24176D01*
X33003Y-23999D02*
X32826Y-24176D01*
X31950Y-22550D02*
X31950Y-24176D01*
X32250Y-22250D02*
X31950Y-22550D01*
X33500Y-23999D02*
X33003Y-23999D01*
X31151Y-31584D02*
X31151Y-31800D01*
X31392Y-31343D02*
X31151Y-31584D01*
X31392Y-30316D02*
X31392Y-31343D01*
X31581Y-30127D02*
X31392Y-30316D01*
X31581Y-27519D02*
X31581Y-30127D01*
X32250Y-26850D02*
X31581Y-27519D01*
X31727Y-31800D02*
X31151Y-31800D01*
X35251Y-23999D02*
X35282Y-23968D01*
X33500Y-23999D02*
X35251Y-23999D01*
X34526Y-26806D02*
X34526Y-27294D01*
X34571Y-26761D02*
X34526Y-26806D01*
X35821Y-26761D02*
X34571Y-26761D01*
X36507Y-26075D02*
X35821Y-26761D01*
X36507Y-24545D02*
X36507Y-26075D01*
X35930Y-23968D02*
X36507Y-24545D01*
X35282Y-23968D02*
X35930Y-23968D01*
X35282Y-23142D02*
X35755Y-22669D01*
X35282Y-23968D02*
X35282Y-23142D01*
M02*
