G04 (created by PCBNEW-RS274X (2010-04-21 BZR 23xx)-stable) date Sun 05 Sep 2010 11:36:07 PM CEST*
G01*
G70*
G90*
%MOIN*%
G04 Gerber Fmt 3.4, Leading zero omitted, Abs format*
%FSLAX34Y34*%
G04 APERTURE LIST*
%ADD10C,0.001000*%
%ADD11C,0.015000*%
%ADD12C,0.002600*%
%ADD13C,0.006000*%
%ADD14C,0.002000*%
%ADD15C,0.007500*%
%ADD16C,0.010000*%
G04 APERTURE END LIST*
G54D10*
G54D11*
X31150Y-26250D02*
X30950Y-25950D01*
X30950Y-25950D02*
X30850Y-26050D01*
X30850Y-26050D02*
X31150Y-26250D01*
X34730Y-28940D02*
X34280Y-28940D01*
X34730Y-26760D02*
X34290Y-26760D01*
X34730Y-28940D02*
X34730Y-26760D01*
X33850Y-29410D02*
X33850Y-29840D01*
X31640Y-29420D02*
X31640Y-29840D01*
X31630Y-29840D02*
X33850Y-29850D01*
X31650Y-25870D02*
X33820Y-25860D01*
X31220Y-26560D02*
X31220Y-29390D01*
X33830Y-25870D02*
X33830Y-26280D01*
X31470Y-26320D02*
X34250Y-26320D01*
X34270Y-29400D02*
X34270Y-26360D01*
X31220Y-29400D02*
X34220Y-29400D01*
X30770Y-26730D02*
X30770Y-28950D01*
X30770Y-28950D02*
X31220Y-28950D01*
X31224Y-26550D02*
X31454Y-26320D01*
X30772Y-26730D02*
X31224Y-26730D01*
X31650Y-26320D02*
X31650Y-25868D01*
X31820Y-26724D02*
X31816Y-26760D01*
X31805Y-26795D01*
X31788Y-26828D01*
X31765Y-26856D01*
X31737Y-26879D01*
X31704Y-26897D01*
X31669Y-26908D01*
X31633Y-26911D01*
X31597Y-26908D01*
X31562Y-26898D01*
X31530Y-26881D01*
X31501Y-26858D01*
X31477Y-26830D01*
X31460Y-26798D01*
X31449Y-26763D01*
X31445Y-26726D01*
X31448Y-26691D01*
X31458Y-26655D01*
X31474Y-26623D01*
X31497Y-26594D01*
X31525Y-26570D01*
X31557Y-26552D01*
X31592Y-26541D01*
X31629Y-26537D01*
X31664Y-26539D01*
X31699Y-26549D01*
X31732Y-26566D01*
X31761Y-26588D01*
X31785Y-26616D01*
X31803Y-26648D01*
X31815Y-26683D01*
X31819Y-26719D01*
X31820Y-26724D01*
G54D12*
X39710Y-30225D02*
X39965Y-30225D01*
X39965Y-30225D02*
X39965Y-29674D01*
X39710Y-29674D02*
X39965Y-29674D01*
X39710Y-30225D02*
X39710Y-29674D01*
X39130Y-30225D02*
X39386Y-30225D01*
X39386Y-30225D02*
X39386Y-29674D01*
X39130Y-29674D02*
X39386Y-29674D01*
X39130Y-30225D02*
X39130Y-29674D01*
X39472Y-30146D02*
X39628Y-30146D01*
X39628Y-30146D02*
X39628Y-29754D01*
X39472Y-29754D02*
X39628Y-29754D01*
X39472Y-30146D02*
X39472Y-29754D01*
G54D13*
X39389Y-29700D02*
X39711Y-29700D01*
X39389Y-30200D02*
X39711Y-30200D01*
G54D14*
X38774Y-29563D02*
X40326Y-29563D01*
X40326Y-29563D02*
X40326Y-30337D01*
X40326Y-30337D02*
X38774Y-30337D01*
X38774Y-30337D02*
X38774Y-29563D01*
G54D12*
X39410Y-31175D02*
X39665Y-31175D01*
X39665Y-31175D02*
X39665Y-30624D01*
X39410Y-30624D02*
X39665Y-30624D01*
X39410Y-31175D02*
X39410Y-30624D01*
X38830Y-31175D02*
X39086Y-31175D01*
X39086Y-31175D02*
X39086Y-30624D01*
X38830Y-30624D02*
X39086Y-30624D01*
X38830Y-31175D02*
X38830Y-30624D01*
X39172Y-31096D02*
X39328Y-31096D01*
X39328Y-31096D02*
X39328Y-30704D01*
X39172Y-30704D02*
X39328Y-30704D01*
X39172Y-31096D02*
X39172Y-30704D01*
G54D13*
X39089Y-30650D02*
X39411Y-30650D01*
X39089Y-31150D02*
X39411Y-31150D01*
G54D14*
X38474Y-30513D02*
X40026Y-30513D01*
X40026Y-30513D02*
X40026Y-31287D01*
X40026Y-31287D02*
X38474Y-31287D01*
X38474Y-31287D02*
X38474Y-30513D01*
G54D12*
X30310Y-35025D02*
X30565Y-35025D01*
X30565Y-35025D02*
X30565Y-34474D01*
X30310Y-34474D02*
X30565Y-34474D01*
X30310Y-35025D02*
X30310Y-34474D01*
X29730Y-35025D02*
X29986Y-35025D01*
X29986Y-35025D02*
X29986Y-34474D01*
X29730Y-34474D02*
X29986Y-34474D01*
X29730Y-35025D02*
X29730Y-34474D01*
X30072Y-34946D02*
X30228Y-34946D01*
X30228Y-34946D02*
X30228Y-34554D01*
X30072Y-34554D02*
X30228Y-34554D01*
X30072Y-34946D02*
X30072Y-34554D01*
G54D13*
X29989Y-34500D02*
X30311Y-34500D01*
X29989Y-35000D02*
X30311Y-35000D01*
G54D14*
X29374Y-34363D02*
X30926Y-34363D01*
X30926Y-34363D02*
X30926Y-35137D01*
X30926Y-35137D02*
X29374Y-35137D01*
X29374Y-35137D02*
X29374Y-34363D01*
G54D12*
X35560Y-35025D02*
X35815Y-35025D01*
X35815Y-35025D02*
X35815Y-34474D01*
X35560Y-34474D02*
X35815Y-34474D01*
X35560Y-35025D02*
X35560Y-34474D01*
X34980Y-35025D02*
X35236Y-35025D01*
X35236Y-35025D02*
X35236Y-34474D01*
X34980Y-34474D02*
X35236Y-34474D01*
X34980Y-35025D02*
X34980Y-34474D01*
X35322Y-34946D02*
X35478Y-34946D01*
X35478Y-34946D02*
X35478Y-34554D01*
X35322Y-34554D02*
X35478Y-34554D01*
X35322Y-34946D02*
X35322Y-34554D01*
G54D13*
X35239Y-34500D02*
X35561Y-34500D01*
X35239Y-35000D02*
X35561Y-35000D01*
G54D14*
X34624Y-34363D02*
X36176Y-34363D01*
X36176Y-34363D02*
X36176Y-35137D01*
X36176Y-35137D02*
X34624Y-35137D01*
X34624Y-35137D02*
X34624Y-34363D01*
G54D11*
X28669Y-32515D02*
X28527Y-32656D01*
X28527Y-32656D02*
X28209Y-32338D01*
X28209Y-32338D02*
X28174Y-32303D01*
X28174Y-32303D02*
X28315Y-32161D01*
X26428Y-33010D02*
X27820Y-31618D01*
X27820Y-31618D02*
X29212Y-33010D01*
X29212Y-33010D02*
X27820Y-34402D01*
X27820Y-34402D02*
X26428Y-33010D01*
X26780Y-28140D02*
X26580Y-28140D01*
X26580Y-28140D02*
X26580Y-27690D01*
X26580Y-27690D02*
X26580Y-27640D01*
X26580Y-27640D02*
X26780Y-27640D01*
X24846Y-26906D02*
X26814Y-26906D01*
X26814Y-26906D02*
X26814Y-28874D01*
X26814Y-28874D02*
X24846Y-28874D01*
X24846Y-28874D02*
X24846Y-26906D01*
X28485Y-23809D02*
X28344Y-23667D01*
X28344Y-23667D02*
X28662Y-23349D01*
X28662Y-23349D02*
X28697Y-23314D01*
X28697Y-23314D02*
X28839Y-23455D01*
X27990Y-21568D02*
X29382Y-22960D01*
X29382Y-22960D02*
X27990Y-24352D01*
X27990Y-24352D02*
X26598Y-22960D01*
X26598Y-22960D02*
X27990Y-21568D01*
X32600Y-21940D02*
X32600Y-21740D01*
X32600Y-21740D02*
X33050Y-21740D01*
X33050Y-21740D02*
X33100Y-21740D01*
X33100Y-21740D02*
X33100Y-21940D01*
X33834Y-20006D02*
X33834Y-21974D01*
X33834Y-21974D02*
X31866Y-21974D01*
X31866Y-21974D02*
X31866Y-20006D01*
X31866Y-20006D02*
X33834Y-20006D01*
X36991Y-23465D02*
X37133Y-23324D01*
X37133Y-23324D02*
X37451Y-23642D01*
X37451Y-23642D02*
X37486Y-23677D01*
X37486Y-23677D02*
X37345Y-23819D01*
X39232Y-22970D02*
X37840Y-24362D01*
X37840Y-24362D02*
X36448Y-22970D01*
X36448Y-22970D02*
X37840Y-21578D01*
X37840Y-21578D02*
X39232Y-22970D01*
X39000Y-27650D02*
X39200Y-27650D01*
X39200Y-27650D02*
X39200Y-28100D01*
X39200Y-28100D02*
X39200Y-28150D01*
X39200Y-28150D02*
X39000Y-28150D01*
X40934Y-28884D02*
X38966Y-28884D01*
X38966Y-28884D02*
X38966Y-26916D01*
X38966Y-26916D02*
X40934Y-26916D01*
X40934Y-26916D02*
X40934Y-28884D01*
X37405Y-32231D02*
X37546Y-32373D01*
X37546Y-32373D02*
X37228Y-32691D01*
X37228Y-32691D02*
X37193Y-32726D01*
X37193Y-32726D02*
X37051Y-32585D01*
X37900Y-34472D02*
X36508Y-33080D01*
X36508Y-33080D02*
X37900Y-31688D01*
X37900Y-31688D02*
X39292Y-33080D01*
X39292Y-33080D02*
X37900Y-34472D01*
X33100Y-34150D02*
X33100Y-34350D01*
X33100Y-34350D02*
X32650Y-34350D01*
X32650Y-34350D02*
X32600Y-34350D01*
X32600Y-34350D02*
X32600Y-34150D01*
X31866Y-36084D02*
X31866Y-34116D01*
X31866Y-34116D02*
X33834Y-34116D01*
X33834Y-34116D02*
X33834Y-36084D01*
X33834Y-36084D02*
X31866Y-36084D01*
G54D12*
X26760Y-31175D02*
X27015Y-31175D01*
X27015Y-31175D02*
X27015Y-30624D01*
X26760Y-30624D02*
X27015Y-30624D01*
X26760Y-31175D02*
X26760Y-30624D01*
X26180Y-31175D02*
X26436Y-31175D01*
X26436Y-31175D02*
X26436Y-30624D01*
X26180Y-30624D02*
X26436Y-30624D01*
X26180Y-31175D02*
X26180Y-30624D01*
X26522Y-31096D02*
X26678Y-31096D01*
X26678Y-31096D02*
X26678Y-30704D01*
X26522Y-30704D02*
X26678Y-30704D01*
X26522Y-31096D02*
X26522Y-30704D01*
G54D13*
X26439Y-30650D02*
X26761Y-30650D01*
X26439Y-31150D02*
X26761Y-31150D01*
G54D14*
X25824Y-30513D02*
X27376Y-30513D01*
X27376Y-30513D02*
X27376Y-31287D01*
X27376Y-31287D02*
X25824Y-31287D01*
X25824Y-31287D02*
X25824Y-30513D01*
G54D12*
X26410Y-30225D02*
X26665Y-30225D01*
X26665Y-30225D02*
X26665Y-29674D01*
X26410Y-29674D02*
X26665Y-29674D01*
X26410Y-30225D02*
X26410Y-29674D01*
X25830Y-30225D02*
X26086Y-30225D01*
X26086Y-30225D02*
X26086Y-29674D01*
X25830Y-29674D02*
X26086Y-29674D01*
X25830Y-30225D02*
X25830Y-29674D01*
X26172Y-30146D02*
X26328Y-30146D01*
X26328Y-30146D02*
X26328Y-29754D01*
X26172Y-29754D02*
X26328Y-29754D01*
X26172Y-30146D02*
X26172Y-29754D01*
G54D13*
X26089Y-29700D02*
X26411Y-29700D01*
X26089Y-30200D02*
X26411Y-30200D01*
G54D14*
X25474Y-29563D02*
X27026Y-29563D01*
X27026Y-29563D02*
X27026Y-30337D01*
X27026Y-30337D02*
X25474Y-30337D01*
X25474Y-30337D02*
X25474Y-29563D01*
G54D15*
X38200Y-30071D02*
X38100Y-29929D01*
X38028Y-30071D02*
X38028Y-29771D01*
X38143Y-29771D01*
X38171Y-29786D01*
X38186Y-29800D01*
X38200Y-29829D01*
X38200Y-29871D01*
X38186Y-29900D01*
X38171Y-29914D01*
X38143Y-29929D01*
X38028Y-29929D01*
X38486Y-30071D02*
X38314Y-30071D01*
X38400Y-30071D02*
X38400Y-29771D01*
X38371Y-29814D01*
X38343Y-29843D01*
X38314Y-29857D01*
X37900Y-31021D02*
X37800Y-30879D01*
X37728Y-31021D02*
X37728Y-30721D01*
X37843Y-30721D01*
X37871Y-30736D01*
X37886Y-30750D01*
X37900Y-30779D01*
X37900Y-30821D01*
X37886Y-30850D01*
X37871Y-30864D01*
X37843Y-30879D01*
X37728Y-30879D01*
X38014Y-30750D02*
X38028Y-30736D01*
X38057Y-30721D01*
X38128Y-30721D01*
X38157Y-30736D01*
X38171Y-30750D01*
X38186Y-30779D01*
X38186Y-30807D01*
X38171Y-30850D01*
X38000Y-31021D01*
X38186Y-31021D01*
X30100Y-34071D02*
X30000Y-33929D01*
X29928Y-34071D02*
X29928Y-33771D01*
X30043Y-33771D01*
X30071Y-33786D01*
X30086Y-33800D01*
X30100Y-33829D01*
X30100Y-33871D01*
X30086Y-33900D01*
X30071Y-33914D01*
X30043Y-33929D01*
X29928Y-33929D01*
X30200Y-33771D02*
X30386Y-33771D01*
X30286Y-33886D01*
X30328Y-33886D01*
X30357Y-33900D01*
X30371Y-33914D01*
X30386Y-33943D01*
X30386Y-34014D01*
X30371Y-34043D01*
X30357Y-34057D01*
X30328Y-34071D01*
X30243Y-34071D01*
X30214Y-34057D01*
X30200Y-34043D01*
X35350Y-34071D02*
X35250Y-33929D01*
X35178Y-34071D02*
X35178Y-33771D01*
X35293Y-33771D01*
X35321Y-33786D01*
X35336Y-33800D01*
X35350Y-33829D01*
X35350Y-33871D01*
X35336Y-33900D01*
X35321Y-33914D01*
X35293Y-33929D01*
X35178Y-33929D01*
X35607Y-33871D02*
X35607Y-34071D01*
X35536Y-33757D02*
X35464Y-33971D01*
X35650Y-33971D01*
G54D16*
X27746Y-33343D02*
X27463Y-33060D01*
X27530Y-32993D01*
X27585Y-32966D01*
X27638Y-32966D01*
X27679Y-32979D01*
X27746Y-33019D01*
X27786Y-33060D01*
X27827Y-33127D01*
X27841Y-33168D01*
X27841Y-33222D01*
X27813Y-33276D01*
X27746Y-33343D01*
X27907Y-32858D02*
X27867Y-32872D01*
X27840Y-32872D01*
X27800Y-32858D01*
X27786Y-32845D01*
X27773Y-32804D01*
X27773Y-32777D01*
X27786Y-32737D01*
X27841Y-32683D01*
X27881Y-32669D01*
X27908Y-32669D01*
X27948Y-32683D01*
X27962Y-32696D01*
X27975Y-32736D01*
X27975Y-32763D01*
X27962Y-32804D01*
X27907Y-32858D01*
X27894Y-32898D01*
X27894Y-32925D01*
X27908Y-32966D01*
X27962Y-33020D01*
X28002Y-33033D01*
X28029Y-33033D01*
X28069Y-33020D01*
X28124Y-32966D01*
X28137Y-32925D01*
X28137Y-32898D01*
X28124Y-32858D01*
X28070Y-32804D01*
X28029Y-32790D01*
X28002Y-32790D01*
X27962Y-32804D01*
X25565Y-28042D02*
X25565Y-27642D01*
X25660Y-27642D01*
X25718Y-27661D01*
X25756Y-27699D01*
X25775Y-27737D01*
X25794Y-27813D01*
X25794Y-27870D01*
X25775Y-27947D01*
X25756Y-27985D01*
X25718Y-28023D01*
X25660Y-28042D01*
X25565Y-28042D01*
X25927Y-27642D02*
X26194Y-27642D01*
X26022Y-28042D01*
X27657Y-22826D02*
X27940Y-22543D01*
X28007Y-22610D01*
X28034Y-22665D01*
X28034Y-22718D01*
X28021Y-22759D01*
X27981Y-22826D01*
X27940Y-22866D01*
X27873Y-22907D01*
X27832Y-22921D01*
X27778Y-22921D01*
X27724Y-22893D01*
X27657Y-22826D01*
X28344Y-22948D02*
X28290Y-22893D01*
X28249Y-22880D01*
X28223Y-22880D01*
X28155Y-22893D01*
X28088Y-22933D01*
X27980Y-23042D01*
X27967Y-23082D01*
X27967Y-23109D01*
X27980Y-23149D01*
X28034Y-23204D01*
X28075Y-23217D01*
X28102Y-23217D01*
X28142Y-23204D01*
X28210Y-23136D01*
X28223Y-23095D01*
X28223Y-23068D01*
X28210Y-23028D01*
X28155Y-22974D01*
X28115Y-22960D01*
X28088Y-22960D01*
X28048Y-22974D01*
X32962Y-21275D02*
X32562Y-21275D01*
X32562Y-21180D01*
X32581Y-21122D01*
X32619Y-21084D01*
X32657Y-21065D01*
X32733Y-21046D01*
X32790Y-21046D01*
X32867Y-21065D01*
X32905Y-21084D01*
X32943Y-21122D01*
X32962Y-21180D01*
X32962Y-21275D01*
X32562Y-20684D02*
X32562Y-20875D01*
X32752Y-20894D01*
X32733Y-20875D01*
X32714Y-20837D01*
X32714Y-20741D01*
X32733Y-20703D01*
X32752Y-20684D01*
X32790Y-20665D01*
X32886Y-20665D01*
X32924Y-20684D01*
X32943Y-20703D01*
X32962Y-20741D01*
X32962Y-20837D01*
X32943Y-20875D01*
X32924Y-20894D01*
X37686Y-23263D02*
X37403Y-22980D01*
X37470Y-22913D01*
X37525Y-22886D01*
X37578Y-22886D01*
X37619Y-22899D01*
X37686Y-22939D01*
X37726Y-22980D01*
X37767Y-23047D01*
X37781Y-23088D01*
X37781Y-23142D01*
X37753Y-23196D01*
X37686Y-23263D01*
X37902Y-22670D02*
X38090Y-22859D01*
X37726Y-22630D02*
X37861Y-22900D01*
X38037Y-22724D01*
X39655Y-28022D02*
X39655Y-27622D01*
X39750Y-27622D01*
X39808Y-27641D01*
X39846Y-27679D01*
X39865Y-27717D01*
X39884Y-27793D01*
X39884Y-27850D01*
X39865Y-27927D01*
X39846Y-27965D01*
X39808Y-28003D01*
X39750Y-28022D01*
X39655Y-28022D01*
X40017Y-27622D02*
X40265Y-27622D01*
X40131Y-27774D01*
X40189Y-27774D01*
X40227Y-27793D01*
X40246Y-27812D01*
X40265Y-27850D01*
X40265Y-27946D01*
X40246Y-27984D01*
X40227Y-28003D01*
X40189Y-28022D01*
X40074Y-28022D01*
X40036Y-28003D01*
X40017Y-27984D01*
X37577Y-32966D02*
X37860Y-32683D01*
X37927Y-32750D01*
X37954Y-32805D01*
X37954Y-32858D01*
X37941Y-32899D01*
X37901Y-32966D01*
X37860Y-33006D01*
X37793Y-33047D01*
X37752Y-33061D01*
X37698Y-33061D01*
X37644Y-33033D01*
X37577Y-32966D01*
X38102Y-32979D02*
X38129Y-32979D01*
X38169Y-32993D01*
X38237Y-33061D01*
X38251Y-33101D01*
X38251Y-33128D01*
X38237Y-33168D01*
X38210Y-33195D01*
X38157Y-33222D01*
X37833Y-33222D01*
X38008Y-33397D01*
X33042Y-35405D02*
X32642Y-35405D01*
X32642Y-35310D01*
X32661Y-35252D01*
X32699Y-35214D01*
X32737Y-35195D01*
X32813Y-35176D01*
X32870Y-35176D01*
X32947Y-35195D01*
X32985Y-35214D01*
X33023Y-35252D01*
X33042Y-35310D01*
X33042Y-35405D01*
X33042Y-34795D02*
X33042Y-35024D01*
X33042Y-34910D02*
X32642Y-34910D01*
X32699Y-34948D01*
X32737Y-34986D01*
X32756Y-35024D01*
G54D15*
X27850Y-31021D02*
X27750Y-30879D01*
X27678Y-31021D02*
X27678Y-30721D01*
X27793Y-30721D01*
X27821Y-30736D01*
X27836Y-30750D01*
X27850Y-30779D01*
X27850Y-30821D01*
X27836Y-30850D01*
X27821Y-30864D01*
X27793Y-30879D01*
X27678Y-30879D01*
X28107Y-30721D02*
X28050Y-30721D01*
X28021Y-30736D01*
X28007Y-30750D01*
X27978Y-30793D01*
X27964Y-30850D01*
X27964Y-30964D01*
X27978Y-30993D01*
X27993Y-31007D01*
X28021Y-31021D01*
X28078Y-31021D01*
X28107Y-31007D01*
X28121Y-30993D01*
X28136Y-30964D01*
X28136Y-30893D01*
X28121Y-30864D01*
X28107Y-30850D01*
X28078Y-30836D01*
X28021Y-30836D01*
X27993Y-30850D01*
X27978Y-30864D01*
X27964Y-30893D01*
X27400Y-30071D02*
X27300Y-29929D01*
X27228Y-30071D02*
X27228Y-29771D01*
X27343Y-29771D01*
X27371Y-29786D01*
X27386Y-29800D01*
X27400Y-29829D01*
X27400Y-29871D01*
X27386Y-29900D01*
X27371Y-29914D01*
X27343Y-29929D01*
X27228Y-29929D01*
X27671Y-29771D02*
X27528Y-29771D01*
X27514Y-29914D01*
X27528Y-29900D01*
X27557Y-29886D01*
X27628Y-29886D01*
X27657Y-29900D01*
X27671Y-29914D01*
X27686Y-29943D01*
X27686Y-30014D01*
X27671Y-30043D01*
X27657Y-30057D01*
X27628Y-30071D01*
X27557Y-30071D01*
X27528Y-30057D01*
X27514Y-30043D01*
M02*
