G04 (created by PCBNEW-RS274X (2011-07-08)-stable) date Wed 21 Dec 2011 09:49:45 PM CET*
G01*
G70*
G90*
%MOIN*%
G04 Gerber Fmt 3.4, Leading zero omitted, Abs format*
%FSLAX34Y34*%
G04 APERTURE LIST*
%ADD10C,0.006000*%
%ADD11C,0.015000*%
%ADD12R,0.060000X0.060000*%
%ADD13C,0.060000*%
%ADD14R,0.023600X0.086600*%
%ADD15R,0.086600X0.023600*%
%ADD16C,0.160000*%
%ADD17R,0.059000X0.051100*%
%ADD18R,0.070800X0.062900*%
%ADD19R,0.051100X0.059000*%
%ADD20R,0.047200X0.047200*%
%ADD21R,0.059100X0.063000*%
%ADD22R,0.063000X0.059100*%
%ADD23R,0.055000X0.055000*%
%ADD24C,0.055000*%
%ADD25C,0.035000*%
%ADD26C,0.008000*%
%ADD27C,0.016000*%
G04 APERTURE END LIST*
G54D10*
G54D11*
X32750Y-19300D02*
X32005Y-19333D01*
X31266Y-19430D01*
X30538Y-19592D01*
X29826Y-19816D01*
X29137Y-20102D01*
X28476Y-20446D01*
X27846Y-20847D01*
X27255Y-21301D01*
X26705Y-21805D01*
X26201Y-22355D01*
X25747Y-22946D01*
X25346Y-23576D01*
X25002Y-24237D01*
X24716Y-24926D01*
X24492Y-25638D01*
X24330Y-26366D01*
X24233Y-27105D01*
X24200Y-27850D01*
X24200Y-27850D02*
X24233Y-28595D01*
X24330Y-29334D01*
X24492Y-30062D01*
X24716Y-30774D01*
X25002Y-31463D01*
X25346Y-32124D01*
X25747Y-32754D01*
X26201Y-33345D01*
X26705Y-33895D01*
X27255Y-34399D01*
X27846Y-34853D01*
X28476Y-35254D01*
X29137Y-35598D01*
X29826Y-35884D01*
X30538Y-36108D01*
X31266Y-36270D01*
X32005Y-36367D01*
X32750Y-36400D01*
X32750Y-36400D02*
X33495Y-36367D01*
X34234Y-36270D01*
X34962Y-36108D01*
X35674Y-35884D01*
X36363Y-35598D01*
X37025Y-35254D01*
X37654Y-34853D01*
X38245Y-34399D01*
X38795Y-33895D01*
X39299Y-33345D01*
X39753Y-32754D01*
X40154Y-32124D01*
X40498Y-31463D01*
X40784Y-30774D01*
X41008Y-30062D01*
X41170Y-29334D01*
X41267Y-28595D01*
X41300Y-27850D01*
X41300Y-27850D02*
X41267Y-27105D01*
X41170Y-26366D01*
X41008Y-25638D01*
X40784Y-24926D01*
X40498Y-24237D01*
X40154Y-23576D01*
X39753Y-22946D01*
X39299Y-22355D01*
X38795Y-21805D01*
X38245Y-21301D01*
X37654Y-20847D01*
X37025Y-20446D01*
X36363Y-20102D01*
X35674Y-19816D01*
X34962Y-19592D01*
X34234Y-19430D01*
X33495Y-19333D01*
X32750Y-19300D01*
G54D12*
X33250Y-26850D03*
G54D13*
X32250Y-26850D03*
X33250Y-27850D03*
X32250Y-27850D03*
X33250Y-28850D03*
X32250Y-28850D03*
G54D14*
X36650Y-26827D03*
X37150Y-26827D03*
X37650Y-26827D03*
X38150Y-26827D03*
X38650Y-26827D03*
X39150Y-26827D03*
X39650Y-26827D03*
X40150Y-26827D03*
X40150Y-28873D03*
X39650Y-28873D03*
X39150Y-28873D03*
X38650Y-28873D03*
X38150Y-28873D03*
X37650Y-28873D03*
X37150Y-28873D03*
X36650Y-28873D03*
X28800Y-28873D03*
X28300Y-28873D03*
X27800Y-28873D03*
X27300Y-28873D03*
X26800Y-28873D03*
X26300Y-28873D03*
X25800Y-28873D03*
X25300Y-28873D03*
X25300Y-26827D03*
X25800Y-26827D03*
X26300Y-26827D03*
X26800Y-26827D03*
X27300Y-26827D03*
X27800Y-26827D03*
X28300Y-26827D03*
X28800Y-26827D03*
G54D15*
X33773Y-31800D03*
X33773Y-32300D03*
X33773Y-32800D03*
X33773Y-33300D03*
X33773Y-33800D03*
X33773Y-34300D03*
X33773Y-34800D03*
X33773Y-35300D03*
X31727Y-35300D03*
X31727Y-34800D03*
X31727Y-34300D03*
X31727Y-33800D03*
X31727Y-33300D03*
X31727Y-32800D03*
X31727Y-32300D03*
X31727Y-31800D03*
G54D10*
G36*
X27414Y-33703D02*
X26997Y-33286D01*
X27358Y-32925D01*
X27775Y-33342D01*
X27414Y-33703D01*
X27414Y-33703D01*
G37*
G36*
X27942Y-33175D02*
X27525Y-32758D01*
X27886Y-32397D01*
X28303Y-32814D01*
X27942Y-33175D01*
X27942Y-33175D01*
G37*
G54D16*
X30050Y-25150D03*
X35450Y-25150D03*
X30050Y-30550D03*
X35450Y-30550D03*
G54D17*
X31950Y-24176D03*
X31950Y-24924D03*
G54D18*
X33500Y-23999D03*
X33500Y-25101D03*
G54D19*
X32376Y-20000D03*
X33124Y-20000D03*
G54D20*
X32041Y-30844D03*
X32041Y-30056D03*
G54D21*
X33321Y-30450D03*
G54D20*
X34906Y-27141D03*
X35694Y-27141D03*
G54D22*
X35300Y-28421D03*
G54D20*
X29756Y-27141D03*
X30544Y-27141D03*
G54D22*
X30150Y-28421D03*
G54D23*
X30250Y-22250D03*
G54D24*
X31250Y-22250D03*
X32250Y-22250D03*
X33250Y-22250D03*
X34250Y-22250D03*
X35250Y-22250D03*
G54D10*
G36*
X27239Y-25800D02*
X26850Y-25411D01*
X27239Y-25022D01*
X27628Y-25411D01*
X27239Y-25800D01*
X27239Y-25800D01*
G37*
G54D24*
X27946Y-24704D03*
X28654Y-23996D03*
X29361Y-23289D03*
G54D10*
G36*
X38600Y-25411D02*
X38211Y-25800D01*
X37822Y-25411D01*
X38211Y-25022D01*
X38600Y-25411D01*
X38600Y-25411D01*
G37*
G54D24*
X37504Y-24704D03*
X36796Y-23996D03*
X36089Y-23289D03*
G54D25*
X37934Y-29617D03*
X34277Y-29280D03*
X33099Y-34272D03*
X37195Y-31902D03*
X39421Y-27504D03*
X36171Y-22278D03*
X26871Y-29738D03*
X28728Y-31824D03*
X26563Y-28039D03*
X27054Y-24493D03*
X27341Y-30221D03*
X30897Y-33385D03*
X35894Y-34152D03*
X38370Y-31068D03*
X39327Y-26153D03*
X37353Y-23164D03*
X33199Y-20600D03*
X27890Y-23164D03*
X39142Y-30727D03*
X39053Y-31639D03*
X27447Y-30980D03*
X30662Y-34113D03*
X32588Y-34622D03*
X38155Y-33615D03*
X39601Y-25639D03*
X33823Y-21761D03*
X28611Y-21384D03*
X25870Y-24860D03*
X25716Y-28039D03*
X28350Y-34600D03*
X29961Y-28958D03*
X32376Y-20969D03*
X32711Y-25292D03*
X34222Y-24813D03*
X34178Y-25952D03*
X32471Y-23764D03*
X31487Y-27163D03*
X35778Y-27676D03*
X29913Y-27746D03*
X32661Y-31048D03*
X31038Y-29771D03*
X37490Y-29643D03*
X26294Y-32207D03*
G54D10*
X35250Y-21777D02*
X33473Y-20000D01*
X35250Y-22250D02*
X35250Y-21777D01*
X33124Y-20000D02*
X33473Y-20000D01*
X27300Y-28873D02*
X27300Y-29399D01*
X32520Y-33300D02*
X33773Y-33300D01*
X32271Y-33051D02*
X32520Y-33300D01*
X31129Y-33051D02*
X32271Y-33051D01*
X30987Y-32909D02*
X31129Y-33051D01*
X30810Y-32909D02*
X30987Y-32909D01*
X27300Y-29399D02*
X30810Y-32909D01*
X38150Y-26827D02*
X38150Y-27353D01*
X33773Y-33300D02*
X34299Y-33300D01*
X37934Y-27569D02*
X38150Y-27353D01*
X37934Y-29617D02*
X37934Y-27569D01*
X37934Y-29665D02*
X37934Y-29617D01*
X34299Y-33300D02*
X37934Y-29665D01*
X34277Y-28270D02*
X34277Y-29280D01*
X33250Y-27243D02*
X34277Y-28270D01*
X33250Y-26850D02*
X33250Y-27243D01*
X33773Y-32300D02*
X33247Y-32300D01*
X33247Y-32300D02*
X33124Y-32177D01*
X33124Y-32177D02*
X33124Y-31574D01*
X33124Y-31574D02*
X33713Y-30985D01*
X32690Y-28290D02*
X32250Y-27850D01*
X32690Y-28952D02*
X32690Y-28290D01*
X33713Y-29975D02*
X32690Y-28952D01*
X33713Y-30985D02*
X33713Y-29975D01*
G54D26*
X33773Y-33800D02*
X33137Y-33800D01*
X33137Y-34234D02*
X33099Y-34272D01*
X33137Y-33800D02*
X33137Y-34234D01*
X33773Y-34300D02*
X34309Y-34300D01*
X36707Y-31902D02*
X37195Y-31902D01*
X34309Y-34300D02*
X36707Y-31902D01*
X39421Y-30872D02*
X39421Y-27504D01*
X37807Y-32486D02*
X39421Y-30872D01*
X37807Y-32645D02*
X37807Y-32486D01*
X35652Y-34800D02*
X37807Y-32645D01*
X33773Y-34800D02*
X35652Y-34800D01*
X37141Y-22278D02*
X36171Y-22278D01*
X40580Y-25717D02*
X37141Y-22278D01*
X40580Y-30609D02*
X40580Y-25717D01*
X35889Y-35300D02*
X40580Y-30609D01*
X33773Y-35300D02*
X35889Y-35300D01*
X31727Y-35300D02*
X31191Y-35300D01*
X30989Y-35300D02*
X31191Y-35300D01*
X26871Y-31182D02*
X30989Y-35300D01*
X26871Y-29738D02*
X26871Y-31182D01*
X28728Y-32572D02*
X28728Y-31824D01*
X30956Y-34800D02*
X28728Y-32572D01*
X31727Y-34800D02*
X30956Y-34800D01*
X27022Y-27580D02*
X26563Y-28039D01*
X27022Y-26169D02*
X27022Y-27580D01*
X26596Y-25743D02*
X27022Y-26169D01*
X26596Y-24951D02*
X26596Y-25743D01*
X27054Y-24493D02*
X26596Y-24951D01*
X31727Y-34300D02*
X31191Y-34300D01*
X27519Y-30221D02*
X27341Y-30221D01*
X29006Y-31708D02*
X27519Y-30221D01*
X29006Y-32115D02*
X29006Y-31708D01*
X30726Y-33835D02*
X29006Y-32115D01*
X30778Y-33835D02*
X30726Y-33835D01*
X31191Y-34248D02*
X30778Y-33835D01*
X31191Y-34300D02*
X31191Y-34248D01*
X31191Y-33679D02*
X30897Y-33385D01*
X31191Y-33800D02*
X31191Y-33679D01*
X31727Y-33800D02*
X31191Y-33800D01*
X38650Y-26827D02*
X38650Y-27363D01*
X38792Y-31254D02*
X35894Y-34152D01*
X38792Y-29883D02*
X38792Y-31254D01*
X38885Y-29790D02*
X38792Y-29883D01*
X38885Y-27598D02*
X38885Y-29790D01*
X38650Y-27363D02*
X38885Y-27598D01*
X38381Y-31057D02*
X38370Y-31068D01*
X38381Y-26359D02*
X38381Y-31057D01*
X38550Y-26190D02*
X38381Y-26359D01*
X38911Y-26190D02*
X38550Y-26190D01*
X39150Y-26429D02*
X38911Y-26190D01*
X39150Y-26827D02*
X39150Y-26429D01*
X39650Y-26827D02*
X39650Y-26291D01*
X39465Y-26291D02*
X39327Y-26153D01*
X39650Y-26291D02*
X39465Y-26291D01*
X40150Y-25793D02*
X40150Y-26827D01*
X37521Y-23164D02*
X40150Y-25793D01*
X37353Y-23164D02*
X37521Y-23164D01*
X40150Y-28873D02*
X40150Y-28337D01*
X40419Y-28068D02*
X40150Y-28337D01*
X40419Y-25821D02*
X40419Y-28068D01*
X37277Y-22679D02*
X40419Y-25821D01*
X34943Y-22679D02*
X37277Y-22679D01*
X34821Y-22557D02*
X34943Y-22679D01*
X34821Y-21957D02*
X34821Y-22557D01*
X33464Y-20600D02*
X34821Y-21957D01*
X33199Y-20600D02*
X33464Y-20600D01*
X39650Y-28873D02*
X39650Y-28337D01*
X29517Y-21537D02*
X27890Y-23164D01*
X33175Y-21537D02*
X29517Y-21537D01*
X33737Y-22099D02*
X33175Y-21537D01*
X33737Y-22502D02*
X33737Y-22099D01*
X34313Y-23078D02*
X33737Y-22502D01*
X35094Y-23078D02*
X34313Y-23078D01*
X36537Y-24521D02*
X35094Y-23078D01*
X36979Y-24521D02*
X36537Y-24521D01*
X37306Y-24194D02*
X36979Y-24521D01*
X37763Y-24194D02*
X37306Y-24194D01*
X39870Y-26301D02*
X37763Y-24194D01*
X39871Y-26301D02*
X39870Y-26301D01*
X39871Y-28116D02*
X39871Y-26301D01*
X39650Y-28337D02*
X39871Y-28116D01*
X39150Y-28873D02*
X39150Y-29409D01*
X39142Y-29417D02*
X39142Y-30727D01*
X39150Y-29409D02*
X39142Y-29417D01*
X35614Y-35078D02*
X39053Y-31639D01*
X31031Y-35078D02*
X35614Y-35078D01*
X27447Y-31494D02*
X31031Y-35078D01*
X27447Y-30980D02*
X27447Y-31494D01*
X38650Y-28873D02*
X38650Y-29409D01*
X31127Y-34578D02*
X30662Y-34113D01*
X32202Y-34578D02*
X31127Y-34578D01*
X32313Y-34689D02*
X32202Y-34578D01*
X32313Y-34829D02*
X32313Y-34689D01*
X32395Y-34911D02*
X32313Y-34829D01*
X32815Y-34911D02*
X32395Y-34911D01*
X33148Y-34578D02*
X32815Y-34911D01*
X34772Y-34578D02*
X33148Y-34578D01*
X37170Y-32180D02*
X34772Y-34578D01*
X37663Y-32180D02*
X37170Y-32180D01*
X38649Y-31194D02*
X37663Y-32180D01*
X38649Y-29410D02*
X38649Y-31194D01*
X38650Y-29409D02*
X38649Y-29410D01*
X26800Y-28873D02*
X26800Y-29409D01*
X26936Y-29409D02*
X26800Y-29409D01*
X30619Y-33092D02*
X26936Y-29409D01*
X30619Y-33500D02*
X30619Y-33092D01*
X30811Y-33692D02*
X30619Y-33500D01*
X30838Y-33692D02*
X30811Y-33692D01*
X31190Y-34044D02*
X30838Y-33692D01*
X32437Y-34044D02*
X31190Y-34044D01*
X32588Y-34195D02*
X32437Y-34044D01*
X32588Y-34622D02*
X32588Y-34195D01*
X37861Y-33615D02*
X38155Y-33615D01*
X35904Y-35572D02*
X37861Y-33615D01*
X30174Y-35572D02*
X35904Y-35572D01*
X26300Y-31698D02*
X30174Y-35572D01*
X26300Y-28873D02*
X26300Y-31698D01*
X25800Y-28873D02*
X25800Y-29509D01*
X39411Y-25639D02*
X39601Y-25639D01*
X36624Y-22852D02*
X39411Y-25639D01*
X34805Y-22852D02*
X36624Y-22852D01*
X34667Y-22714D02*
X34805Y-22852D01*
X34667Y-22017D02*
X34667Y-22714D01*
X33902Y-21252D02*
X34667Y-22017D01*
X29137Y-21252D02*
X33902Y-21252D01*
X28727Y-21662D02*
X29137Y-21252D01*
X28675Y-21662D02*
X28727Y-21662D01*
X25522Y-24815D02*
X28675Y-21662D01*
X25522Y-27533D02*
X25522Y-24815D01*
X25005Y-28050D02*
X25522Y-27533D01*
X25005Y-29430D02*
X25005Y-28050D01*
X25084Y-29509D02*
X25005Y-29430D01*
X25800Y-29509D02*
X25084Y-29509D01*
X33455Y-21393D02*
X33823Y-21761D01*
X29199Y-21393D02*
X33455Y-21393D01*
X27241Y-23351D02*
X29199Y-21393D01*
X27241Y-23912D02*
X27241Y-23351D01*
X26022Y-25131D02*
X27241Y-23912D01*
X26022Y-27321D02*
X26022Y-25131D01*
X25300Y-28043D02*
X26022Y-27321D01*
X25300Y-28873D02*
X25300Y-28043D01*
X25300Y-24695D02*
X28611Y-21384D01*
X25300Y-26827D02*
X25300Y-24695D01*
X25800Y-26827D02*
X25800Y-26291D01*
X25870Y-26221D02*
X25870Y-24860D01*
X25800Y-26291D02*
X25870Y-26221D01*
X26300Y-26827D02*
X26300Y-27363D01*
X25716Y-27947D02*
X25716Y-28039D01*
X26300Y-27363D02*
X25716Y-27947D01*
X26014Y-31991D02*
X26009Y-31991D01*
X28350Y-34600D02*
X27850Y-34100D01*
X27850Y-34100D02*
X27350Y-34100D01*
X27350Y-34100D02*
X27100Y-33850D01*
X26800Y-26827D02*
X26800Y-27363D01*
X26052Y-31953D02*
X26014Y-31991D01*
X26052Y-28111D02*
X26052Y-31953D01*
X26800Y-27363D02*
X26052Y-28111D01*
X26700Y-33450D02*
X27100Y-33850D01*
X26700Y-33350D02*
X26700Y-33450D01*
X25950Y-32600D02*
X26700Y-33350D01*
X25950Y-32050D02*
X25950Y-32600D01*
X26009Y-31991D02*
X25950Y-32050D01*
G54D10*
X27914Y-32786D02*
X27640Y-32511D01*
X31727Y-33300D02*
X32253Y-33300D01*
X31727Y-33300D02*
X31201Y-33300D01*
X38202Y-29451D02*
X38150Y-29399D01*
X38202Y-29728D02*
X38202Y-29451D01*
X34419Y-33511D02*
X38202Y-29728D01*
X32464Y-33511D02*
X34419Y-33511D01*
X32253Y-33300D02*
X32464Y-33511D01*
X38150Y-28873D02*
X38150Y-29399D01*
X27076Y-29361D02*
X27076Y-28238D01*
X30747Y-33032D02*
X27076Y-29361D01*
X30933Y-33032D02*
X30747Y-33032D01*
X31201Y-33300D02*
X30933Y-33032D01*
X27640Y-32507D02*
X27640Y-32511D01*
X26868Y-31735D02*
X27640Y-32507D01*
X26868Y-31533D02*
X26868Y-31735D01*
X26545Y-31210D02*
X26868Y-31533D01*
X26545Y-28437D02*
X26545Y-31210D01*
X26744Y-28238D02*
X26545Y-28437D01*
X27076Y-28238D02*
X26744Y-28238D01*
X27300Y-28088D02*
X27300Y-26827D01*
X27226Y-28088D02*
X27300Y-28088D01*
X27076Y-28238D02*
X27226Y-28088D01*
X29929Y-28958D02*
X29961Y-28958D01*
X29059Y-28088D02*
X29929Y-28958D01*
X27300Y-28088D02*
X29059Y-28088D01*
X33321Y-30450D02*
X33321Y-30858D01*
X32041Y-30844D02*
X32370Y-30844D01*
X31727Y-32300D02*
X32253Y-32300D01*
X32640Y-31913D02*
X32253Y-32300D01*
X32640Y-31443D02*
X32640Y-31913D01*
X32736Y-31443D02*
X32640Y-31443D01*
X33321Y-30858D02*
X32736Y-31443D01*
X32370Y-31173D02*
X32370Y-30844D01*
X32640Y-31443D02*
X32370Y-31173D01*
X34906Y-27639D02*
X34906Y-27141D01*
X35300Y-28033D02*
X34906Y-27639D01*
X35300Y-28336D02*
X35300Y-28033D01*
X37150Y-28873D02*
X37150Y-29399D01*
X35300Y-28336D02*
X35300Y-28421D01*
X35300Y-28421D02*
X35300Y-28810D01*
X36877Y-29672D02*
X37150Y-29399D01*
X36162Y-29672D02*
X36877Y-29672D01*
X35300Y-28810D02*
X36162Y-29672D01*
X30150Y-28421D02*
X29742Y-28421D01*
X29756Y-27141D02*
X29756Y-27470D01*
X28300Y-26827D02*
X28300Y-27353D01*
X29633Y-28312D02*
X29742Y-28421D01*
X29633Y-27593D02*
X29633Y-28312D01*
X29756Y-27470D02*
X29633Y-27593D01*
X28540Y-27593D02*
X28300Y-27353D01*
X29633Y-27593D02*
X28540Y-27593D01*
X32376Y-20000D02*
X32376Y-20969D01*
X34102Y-24693D02*
X34222Y-24813D01*
X33108Y-24693D02*
X34102Y-24693D01*
X32711Y-25090D02*
X33108Y-24693D01*
X32711Y-25292D02*
X32711Y-25090D01*
X33184Y-25952D02*
X34178Y-25952D01*
X32644Y-26492D02*
X33184Y-25952D01*
X32644Y-27967D02*
X32644Y-26492D01*
X33250Y-28573D02*
X32644Y-27967D01*
X33250Y-28850D02*
X33250Y-28573D01*
X32856Y-27456D02*
X33250Y-27850D01*
X32856Y-26472D02*
X32856Y-27456D01*
X32872Y-26456D02*
X32856Y-26472D01*
X34979Y-26456D02*
X32872Y-26456D01*
X35300Y-26777D02*
X34979Y-26456D01*
X35300Y-27578D02*
X35300Y-26777D01*
X35854Y-28132D02*
X35300Y-27578D01*
X35854Y-28910D02*
X35854Y-28132D01*
X36443Y-29499D02*
X35854Y-28910D01*
X36802Y-29499D02*
X36443Y-29499D01*
X36918Y-29383D02*
X36802Y-29499D01*
X36918Y-26236D02*
X36918Y-29383D01*
X36953Y-26201D02*
X36918Y-26236D01*
X37650Y-26201D02*
X36953Y-26201D01*
X33250Y-27850D02*
X33980Y-28580D01*
X33980Y-28580D02*
X33980Y-30891D01*
X33980Y-30891D02*
X33247Y-31624D01*
X34036Y-32800D02*
X34349Y-32800D01*
X34036Y-32800D02*
X33773Y-32800D01*
X27800Y-29600D02*
X27800Y-28873D01*
X30789Y-32589D02*
X27800Y-29600D01*
X33036Y-32589D02*
X30789Y-32589D01*
X33247Y-32800D02*
X33036Y-32589D01*
X33773Y-32800D02*
X33247Y-32800D01*
X37650Y-26827D02*
X37650Y-26201D01*
X34349Y-32153D02*
X34349Y-32800D01*
X34283Y-32087D02*
X34349Y-32153D01*
X33332Y-32087D02*
X34283Y-32087D01*
X33247Y-32002D02*
X33332Y-32087D01*
X33247Y-31624D02*
X33247Y-32002D01*
X31993Y-23764D02*
X32471Y-23764D01*
X30769Y-22540D02*
X31993Y-23764D01*
X30769Y-21887D02*
X30769Y-22540D01*
X30613Y-21731D02*
X30769Y-21887D01*
X29887Y-21731D02*
X30613Y-21731D01*
X29582Y-22036D02*
X29887Y-21731D01*
X29582Y-22041D02*
X29582Y-22036D01*
X27499Y-24124D02*
X29582Y-22041D01*
X27499Y-25150D02*
X27499Y-24124D01*
X27500Y-25150D02*
X27499Y-25150D01*
X27239Y-25411D02*
X27500Y-25150D01*
G54D27*
X32250Y-28850D02*
X31487Y-28087D01*
X31487Y-28087D02*
X31487Y-27163D01*
X36650Y-26827D02*
X36650Y-26251D01*
X28949Y-29449D02*
X28800Y-29449D01*
X30050Y-30550D02*
X28949Y-29449D01*
X28800Y-28873D02*
X28800Y-29449D01*
X31950Y-24924D02*
X31512Y-24924D01*
X30250Y-24924D02*
X31512Y-24924D01*
X30250Y-24950D02*
X30250Y-24924D01*
X30050Y-25150D02*
X30250Y-24950D01*
X30250Y-24924D02*
X30250Y-22250D01*
X34349Y-31651D02*
X34349Y-31800D01*
X35450Y-30550D02*
X34349Y-31651D01*
X33773Y-31800D02*
X34349Y-31800D01*
X33500Y-25101D02*
X33997Y-25101D01*
X36551Y-26251D02*
X35450Y-25150D01*
X36650Y-26251D02*
X36551Y-26251D01*
X34046Y-25150D02*
X33997Y-25101D01*
X35450Y-25150D02*
X34046Y-25150D01*
G54D10*
X35778Y-27554D02*
X35778Y-27676D01*
X35694Y-27470D02*
X35778Y-27554D01*
X35694Y-27141D02*
X35694Y-27470D01*
X30165Y-27494D02*
X29913Y-27746D01*
X30165Y-27141D02*
X30165Y-27494D01*
X30544Y-27141D02*
X30165Y-27141D01*
X32041Y-30056D02*
X32041Y-30385D01*
X32661Y-30849D02*
X32661Y-31048D01*
X32197Y-30385D02*
X32661Y-30849D01*
X32041Y-30385D02*
X32197Y-30385D01*
X37490Y-29559D02*
X37650Y-29399D01*
X37490Y-29643D02*
X37490Y-29559D01*
X37650Y-28873D02*
X37650Y-29399D01*
X28300Y-28873D02*
X28300Y-28247D01*
X30745Y-29478D02*
X31038Y-29771D01*
X30088Y-29478D02*
X30745Y-29478D01*
X28857Y-28247D02*
X30088Y-29478D01*
X28300Y-28247D02*
X28857Y-28247D01*
X37150Y-26827D02*
X37150Y-27353D01*
X31727Y-32800D02*
X32253Y-32800D01*
X32464Y-33011D02*
X32253Y-32800D01*
X34310Y-33011D02*
X32464Y-33011D01*
X37216Y-30105D02*
X34310Y-33011D01*
X37216Y-29533D02*
X37216Y-30105D01*
X37411Y-29338D02*
X37216Y-29533D01*
X37411Y-27614D02*
X37411Y-29338D01*
X37150Y-27353D02*
X37411Y-27614D01*
G54D27*
X31998Y-26598D02*
X32250Y-26850D01*
X32388Y-26208D02*
X31998Y-26598D01*
X32388Y-25633D02*
X32388Y-26208D01*
X32388Y-25633D02*
X34445Y-25633D01*
X34445Y-25633D02*
X35371Y-26559D01*
X35371Y-26559D02*
X36052Y-26559D01*
X36052Y-26559D02*
X36239Y-26746D01*
X36239Y-26746D02*
X36239Y-27886D01*
X36239Y-27886D02*
X36650Y-28297D01*
X31727Y-31800D02*
X31151Y-31800D01*
X33250Y-23292D02*
X33250Y-22250D01*
X33500Y-23542D02*
X33250Y-23292D01*
X31950Y-24176D02*
X32388Y-24176D01*
X33500Y-23999D02*
X33500Y-23984D01*
X33500Y-23984D02*
X33500Y-23542D01*
X28800Y-24759D02*
X28800Y-26619D01*
X29361Y-24198D02*
X28800Y-24759D01*
X29361Y-23289D02*
X29361Y-24198D01*
X28800Y-26619D02*
X28800Y-26827D01*
X27386Y-33314D02*
X27077Y-33004D01*
X27077Y-32990D02*
X26294Y-32207D01*
X27077Y-33004D02*
X27077Y-32990D01*
X33308Y-24176D02*
X32388Y-24176D01*
X33500Y-23984D02*
X33308Y-24176D01*
X36650Y-28873D02*
X36650Y-28297D01*
X30784Y-26619D02*
X31151Y-26986D01*
X28800Y-26619D02*
X30784Y-26619D01*
X31151Y-30188D02*
X31151Y-31800D01*
X31357Y-29982D02*
X31151Y-30188D01*
X31357Y-29640D02*
X31357Y-29982D01*
X31151Y-29434D02*
X31357Y-29640D01*
X31151Y-26986D02*
X31151Y-29434D01*
X31539Y-26598D02*
X31998Y-26598D01*
X31151Y-26986D02*
X31539Y-26598D01*
X32388Y-24176D02*
X32388Y-25633D01*
M02*
