M48
INCH,TZ
T1C0.013
T2C0.025
T3C0.032
T4C0.040
T5C0.120
%
G90
G05
T1
X025538Y-028291
X026037Y-029474
X026545Y-025048
X026654Y-024496
X026800Y-026137
X027055Y-030383
X027666Y-024258
X027679Y-022728
X027851Y-030524
X028702Y-034788
X028724Y-021483
X029036Y-025151
X029191Y-033770
X029504Y-024146
X029565Y-029437
X029640Y-026137
X029958Y-029014
X030021Y-027598
X030224Y-032484
X030343Y-021634
X030439Y-034048
X030620Y-035166
X030778Y-026355
X030783Y-033469
X030908Y-032586
X031142Y-034064
X031220Y-020418
X031292Y-030035
X031329Y-020914
X031419Y-025254
X031420Y-024523
X031686Y-031239
X032383Y-023722
X032440Y-023291
X032896Y-024989
X032984Y-021680
X033191Y-035052
X033738Y-026606
X034250Y-029600
X034371Y-034566
X034407Y-033664
X034445Y-020567
X034753Y-021668
X034829Y-020570
X034929Y-034270
X035132Y-021742
X035633Y-033243
X035902Y-027875
X036424Y-033768
X036443Y-021089
X036726Y-034604
X037055Y-021190
X037172Y-029860
X037565Y-022517
X037881Y-029459
X037946Y-030098
X038672Y-031421
X038728Y-031040
X038826Y-025858
X038921Y-029995
X039014Y-025410
X039146Y-031895
X039373Y-032401
X039450Y-031700
X039650Y-026198
X039956Y-027532
X039983Y-029884
X040382Y-029480
T2
X026219Y-032148
X033869Y-027680
X035755Y-022669
X036879Y-026154
X036939Y-024887
T3
X027239Y-025411
X027946Y-024704
X028654Y-023996
X029361Y-023289
X030250Y-022250
X031250Y-022250
X032250Y-022250
X033250Y-022250
X034250Y-022250
X035250Y-022250
X036089Y-023289
X036796Y-023996
X037504Y-024704
X038211Y-025411
T4
X032250Y-026850
X032250Y-027850
X032250Y-028850
X033250Y-026850
X033250Y-027850
X033250Y-028850
T5
X030050Y-025150
X030050Y-030550
X035450Y-025150
X035450Y-030550
T0
M30
