G04 (created by PCBNEW-RS274X (2011-07-08)-stable) date Tue 20 Dec 2011 03:31:56 PM CET*
G01*
G70*
G90*
%MOIN*%
G04 Gerber Fmt 3.4, Leading zero omitted, Abs format*
%FSLAX34Y34*%
G04 APERTURE LIST*
%ADD10C,0.006000*%
%ADD11C,0.008000*%
%ADD12C,0.015000*%
%ADD13C,0.000100*%
%ADD14C,0.002600*%
%ADD15C,0.002000*%
%ADD16C,0.004000*%
%ADD17C,0.012000*%
%ADD18R,0.086700X0.025700*%
%ADD19R,0.025700X0.086700*%
%ADD20R,0.068000X0.068000*%
%ADD21C,0.068000*%
%ADD22R,0.059100X0.067000*%
%ADD23R,0.067000X0.059100*%
%ADD24C,0.168000*%
%ADD25R,0.070900X0.078800*%
%ADD26R,0.047300X0.063100*%
%ADD27R,0.063000X0.063000*%
%ADD28C,0.063000*%
G04 APERTURE END LIST*
G54D10*
G54D11*
X39904Y-30081D02*
X39942Y-30062D01*
X39999Y-30062D01*
X40057Y-30081D01*
X40095Y-30119D01*
X40114Y-30157D01*
X40133Y-30233D01*
X40133Y-30290D01*
X40114Y-30367D01*
X40095Y-30405D01*
X40057Y-30443D01*
X39999Y-30462D01*
X39961Y-30462D01*
X39904Y-30443D01*
X39885Y-30424D01*
X39885Y-30290D01*
X39961Y-30290D01*
X39714Y-30462D02*
X39714Y-30062D01*
X39485Y-30462D01*
X39485Y-30062D01*
X39295Y-30462D02*
X39295Y-30062D01*
X39200Y-30062D01*
X39142Y-30081D01*
X39104Y-30119D01*
X39085Y-30157D01*
X39066Y-30233D01*
X39066Y-30290D01*
X39085Y-30367D01*
X39104Y-30405D01*
X39142Y-30443D01*
X39200Y-30462D01*
X39295Y-30462D01*
X39914Y-29462D02*
X39914Y-29062D01*
X39685Y-29462D01*
X39685Y-29062D01*
X39266Y-29424D02*
X39285Y-29443D01*
X39342Y-29462D01*
X39380Y-29462D01*
X39438Y-29443D01*
X39476Y-29405D01*
X39495Y-29367D01*
X39514Y-29290D01*
X39514Y-29233D01*
X39495Y-29157D01*
X39476Y-29119D01*
X39438Y-29081D01*
X39380Y-29062D01*
X39342Y-29062D01*
X39285Y-29081D01*
X39266Y-29100D01*
X39761Y-27562D02*
X39895Y-27371D01*
X39990Y-27562D02*
X39990Y-27162D01*
X39837Y-27162D01*
X39799Y-27181D01*
X39780Y-27200D01*
X39761Y-27238D01*
X39761Y-27295D01*
X39780Y-27333D01*
X39799Y-27352D01*
X39837Y-27371D01*
X39990Y-27371D01*
X39628Y-27162D02*
X39361Y-27562D01*
X39361Y-27162D02*
X39628Y-27562D01*
X39209Y-27562D02*
X39209Y-27162D01*
X40083Y-28062D02*
X39950Y-28462D01*
X39816Y-28062D01*
X39454Y-28424D02*
X39473Y-28443D01*
X39530Y-28462D01*
X39568Y-28462D01*
X39626Y-28443D01*
X39664Y-28405D01*
X39683Y-28367D01*
X39702Y-28290D01*
X39702Y-28233D01*
X39683Y-28157D01*
X39664Y-28119D01*
X39626Y-28081D01*
X39568Y-28062D01*
X39530Y-28062D01*
X39473Y-28081D01*
X39454Y-28100D01*
X39054Y-28424D02*
X39073Y-28443D01*
X39130Y-28462D01*
X39168Y-28462D01*
X39226Y-28443D01*
X39264Y-28405D01*
X39283Y-28367D01*
X39302Y-28290D01*
X39302Y-28233D01*
X39283Y-28157D01*
X39264Y-28119D01*
X39226Y-28081D01*
X39168Y-28062D01*
X39130Y-28062D01*
X39073Y-28081D01*
X39054Y-28100D01*
X40064Y-26062D02*
X39835Y-26062D01*
X39950Y-26462D02*
X39950Y-26062D01*
X39740Y-26062D02*
X39473Y-26462D01*
X39473Y-26062D02*
X39740Y-26462D01*
X39245Y-26062D02*
X39168Y-26062D01*
X39130Y-26081D01*
X39092Y-26119D01*
X39073Y-26195D01*
X39073Y-26329D01*
X39092Y-26405D01*
X39130Y-26443D01*
X39168Y-26462D01*
X39245Y-26462D01*
X39283Y-26443D01*
X39321Y-26405D01*
X39340Y-26329D01*
X39340Y-26195D01*
X39321Y-26119D01*
X39283Y-26081D01*
X39245Y-26062D01*
X40007Y-25462D02*
X40007Y-25062D01*
X39912Y-25062D01*
X39854Y-25081D01*
X39816Y-25119D01*
X39797Y-25157D01*
X39778Y-25233D01*
X39778Y-25290D01*
X39797Y-25367D01*
X39816Y-25405D01*
X39854Y-25443D01*
X39912Y-25462D01*
X40007Y-25462D01*
X39664Y-25062D02*
X39435Y-25062D01*
X39550Y-25462D02*
X39550Y-25062D01*
X39073Y-25462D02*
X39207Y-25271D01*
X39302Y-25462D02*
X39302Y-25062D01*
X39149Y-25062D01*
X39111Y-25081D01*
X39092Y-25100D01*
X39073Y-25138D01*
X39073Y-25195D01*
X39092Y-25233D01*
X39111Y-25252D01*
X39149Y-25271D01*
X39302Y-25271D01*
X26612Y-28805D02*
X26212Y-28805D01*
X26212Y-28958D01*
X26231Y-28996D01*
X26250Y-29015D01*
X26288Y-29034D01*
X26345Y-29034D01*
X26383Y-29015D01*
X26402Y-28996D01*
X26421Y-28958D01*
X26421Y-28805D01*
X26574Y-29434D02*
X26593Y-29415D01*
X26612Y-29358D01*
X26612Y-29320D01*
X26593Y-29262D01*
X26555Y-29224D01*
X26517Y-29205D01*
X26440Y-29186D01*
X26383Y-29186D01*
X26307Y-29205D01*
X26269Y-29224D01*
X26231Y-29262D01*
X26212Y-29320D01*
X26212Y-29358D01*
X26231Y-29415D01*
X26250Y-29434D01*
X26250Y-29586D02*
X26231Y-29605D01*
X26212Y-29643D01*
X26212Y-29739D01*
X26231Y-29777D01*
X26250Y-29796D01*
X26288Y-29815D01*
X26326Y-29815D01*
X26383Y-29796D01*
X26612Y-29567D01*
X26612Y-29815D01*
X25612Y-28805D02*
X25212Y-28805D01*
X25212Y-28958D01*
X25231Y-28996D01*
X25250Y-29015D01*
X25288Y-29034D01*
X25345Y-29034D01*
X25383Y-29015D01*
X25402Y-28996D01*
X25421Y-28958D01*
X25421Y-28805D01*
X25574Y-29434D02*
X25593Y-29415D01*
X25612Y-29358D01*
X25612Y-29320D01*
X25593Y-29262D01*
X25555Y-29224D01*
X25517Y-29205D01*
X25440Y-29186D01*
X25383Y-29186D01*
X25307Y-29205D01*
X25269Y-29224D01*
X25231Y-29262D01*
X25212Y-29320D01*
X25212Y-29358D01*
X25231Y-29415D01*
X25250Y-29434D01*
X25212Y-29567D02*
X25212Y-29815D01*
X25364Y-29681D01*
X25364Y-29739D01*
X25383Y-29777D01*
X25402Y-29796D01*
X25440Y-29815D01*
X25536Y-29815D01*
X25574Y-29796D01*
X25593Y-29777D01*
X25612Y-29739D01*
X25612Y-29624D01*
X25593Y-29586D01*
X25574Y-29567D01*
X27612Y-28805D02*
X27212Y-28805D01*
X27212Y-28958D01*
X27231Y-28996D01*
X27250Y-29015D01*
X27288Y-29034D01*
X27345Y-29034D01*
X27383Y-29015D01*
X27402Y-28996D01*
X27421Y-28958D01*
X27421Y-28805D01*
X27574Y-29434D02*
X27593Y-29415D01*
X27612Y-29358D01*
X27612Y-29320D01*
X27593Y-29262D01*
X27555Y-29224D01*
X27517Y-29205D01*
X27440Y-29186D01*
X27383Y-29186D01*
X27307Y-29205D01*
X27269Y-29224D01*
X27231Y-29262D01*
X27212Y-29320D01*
X27212Y-29358D01*
X27231Y-29415D01*
X27250Y-29434D01*
X27612Y-29815D02*
X27612Y-29586D01*
X27612Y-29700D02*
X27212Y-29700D01*
X27269Y-29662D01*
X27307Y-29624D01*
X27326Y-29586D01*
X28612Y-28805D02*
X28212Y-28805D01*
X28212Y-28958D01*
X28231Y-28996D01*
X28250Y-29015D01*
X28288Y-29034D01*
X28345Y-29034D01*
X28383Y-29015D01*
X28402Y-28996D01*
X28421Y-28958D01*
X28421Y-28805D01*
X28574Y-29434D02*
X28593Y-29415D01*
X28612Y-29358D01*
X28612Y-29320D01*
X28593Y-29262D01*
X28555Y-29224D01*
X28517Y-29205D01*
X28440Y-29186D01*
X28383Y-29186D01*
X28307Y-29205D01*
X28269Y-29224D01*
X28231Y-29262D01*
X28212Y-29320D01*
X28212Y-29358D01*
X28231Y-29415D01*
X28250Y-29434D01*
X28212Y-29681D02*
X28212Y-29720D01*
X28231Y-29758D01*
X28250Y-29777D01*
X28288Y-29796D01*
X28364Y-29815D01*
X28460Y-29815D01*
X28536Y-29796D01*
X28574Y-29777D01*
X28593Y-29758D01*
X28612Y-29720D01*
X28612Y-29681D01*
X28593Y-29643D01*
X28574Y-29624D01*
X28536Y-29605D01*
X28460Y-29586D01*
X28364Y-29586D01*
X28288Y-29605D01*
X28250Y-29624D01*
X28231Y-29643D01*
X28212Y-29681D01*
X28593Y-25864D02*
X28612Y-25921D01*
X28612Y-26017D01*
X28593Y-26055D01*
X28574Y-26074D01*
X28536Y-26093D01*
X28498Y-26093D01*
X28460Y-26074D01*
X28440Y-26055D01*
X28421Y-26017D01*
X28402Y-25940D01*
X28383Y-25902D01*
X28364Y-25883D01*
X28326Y-25864D01*
X28288Y-25864D01*
X28250Y-25883D01*
X28231Y-25902D01*
X28212Y-25940D01*
X28212Y-26036D01*
X28231Y-26093D01*
X28612Y-26264D02*
X28212Y-26264D01*
X28212Y-26359D01*
X28231Y-26417D01*
X28269Y-26455D01*
X28307Y-26474D01*
X28383Y-26493D01*
X28440Y-26493D01*
X28517Y-26474D01*
X28555Y-26455D01*
X28593Y-26417D01*
X28612Y-26359D01*
X28612Y-26264D01*
X28498Y-26645D02*
X28498Y-26836D01*
X28612Y-26607D02*
X28212Y-26740D01*
X28612Y-26874D01*
X27593Y-25874D02*
X27612Y-25931D01*
X27612Y-26027D01*
X27593Y-26065D01*
X27574Y-26084D01*
X27536Y-26103D01*
X27498Y-26103D01*
X27460Y-26084D01*
X27440Y-26065D01*
X27421Y-26027D01*
X27402Y-25950D01*
X27383Y-25912D01*
X27364Y-25893D01*
X27326Y-25874D01*
X27288Y-25874D01*
X27250Y-25893D01*
X27231Y-25912D01*
X27212Y-25950D01*
X27212Y-26046D01*
X27231Y-26103D01*
X27574Y-26503D02*
X27593Y-26484D01*
X27612Y-26427D01*
X27612Y-26389D01*
X27593Y-26331D01*
X27555Y-26293D01*
X27517Y-26274D01*
X27440Y-26255D01*
X27383Y-26255D01*
X27307Y-26274D01*
X27269Y-26293D01*
X27231Y-26331D01*
X27212Y-26389D01*
X27212Y-26427D01*
X27231Y-26484D01*
X27250Y-26503D01*
X27612Y-26865D02*
X27612Y-26674D01*
X27212Y-26674D01*
X26231Y-26096D02*
X26212Y-26058D01*
X26212Y-26001D01*
X26231Y-25943D01*
X26269Y-25905D01*
X26307Y-25886D01*
X26383Y-25867D01*
X26440Y-25867D01*
X26517Y-25886D01*
X26555Y-25905D01*
X26593Y-25943D01*
X26612Y-26001D01*
X26612Y-26039D01*
X26593Y-26096D01*
X26574Y-26115D01*
X26440Y-26115D01*
X26440Y-26039D01*
X26612Y-26286D02*
X26212Y-26286D01*
X26612Y-26515D01*
X26212Y-26515D01*
X26612Y-26705D02*
X26212Y-26705D01*
X26212Y-26800D01*
X26231Y-26858D01*
X26269Y-26896D01*
X26307Y-26915D01*
X26383Y-26934D01*
X26440Y-26934D01*
X26517Y-26915D01*
X26555Y-26896D01*
X26593Y-26858D01*
X26612Y-26800D01*
X26612Y-26705D01*
X25212Y-25817D02*
X25612Y-25950D01*
X25212Y-26084D01*
X25574Y-26446D02*
X25593Y-26427D01*
X25612Y-26370D01*
X25612Y-26332D01*
X25593Y-26274D01*
X25555Y-26236D01*
X25517Y-26217D01*
X25440Y-26198D01*
X25383Y-26198D01*
X25307Y-26217D01*
X25269Y-26236D01*
X25231Y-26274D01*
X25212Y-26332D01*
X25212Y-26370D01*
X25231Y-26427D01*
X25250Y-26446D01*
X25574Y-26846D02*
X25593Y-26827D01*
X25612Y-26770D01*
X25612Y-26732D01*
X25593Y-26674D01*
X25555Y-26636D01*
X25517Y-26617D01*
X25440Y-26598D01*
X25383Y-26598D01*
X25307Y-26617D01*
X25269Y-26636D01*
X25231Y-26674D01*
X25212Y-26732D01*
X25212Y-26770D01*
X25231Y-26827D01*
X25250Y-26846D01*
G54D12*
X32750Y-19300D02*
X32005Y-19333D01*
X31266Y-19430D01*
X30538Y-19592D01*
X29826Y-19816D01*
X29137Y-20102D01*
X28476Y-20446D01*
X27846Y-20847D01*
X27255Y-21301D01*
X26705Y-21805D01*
X26201Y-22355D01*
X25747Y-22946D01*
X25346Y-23576D01*
X25002Y-24237D01*
X24716Y-24926D01*
X24492Y-25638D01*
X24330Y-26366D01*
X24233Y-27105D01*
X24200Y-27850D01*
X24200Y-27850D02*
X24233Y-28595D01*
X24330Y-29334D01*
X24492Y-30062D01*
X24716Y-30774D01*
X25002Y-31463D01*
X25346Y-32124D01*
X25747Y-32754D01*
X26201Y-33345D01*
X26705Y-33895D01*
X27255Y-34399D01*
X27846Y-34853D01*
X28476Y-35254D01*
X29137Y-35598D01*
X29826Y-35884D01*
X30538Y-36108D01*
X31266Y-36270D01*
X32005Y-36367D01*
X32750Y-36400D01*
X32750Y-36400D02*
X33495Y-36367D01*
X34234Y-36270D01*
X34962Y-36108D01*
X35674Y-35884D01*
X36363Y-35598D01*
X37025Y-35254D01*
X37654Y-34853D01*
X38245Y-34399D01*
X38795Y-33895D01*
X39299Y-33345D01*
X39753Y-32754D01*
X40154Y-32124D01*
X40498Y-31463D01*
X40784Y-30774D01*
X41008Y-30062D01*
X41170Y-29334D01*
X41267Y-28595D01*
X41300Y-27850D01*
X41300Y-27850D02*
X41267Y-27105D01*
X41170Y-26366D01*
X41008Y-25638D01*
X40784Y-24926D01*
X40498Y-24237D01*
X40154Y-23576D01*
X39753Y-22946D01*
X39299Y-22355D01*
X38795Y-21805D01*
X38245Y-21301D01*
X37654Y-20847D01*
X37025Y-20446D01*
X36363Y-20102D01*
X35674Y-19816D01*
X34962Y-19592D01*
X34234Y-19430D01*
X33495Y-19333D01*
X32750Y-19300D01*
G54D13*
G36*
X29436Y-22034D02*
X29448Y-22028D01*
X29473Y-22012D01*
X29510Y-21988D01*
X29553Y-21959D01*
X29597Y-21929D01*
X29632Y-21905D01*
X29657Y-21889D01*
X29668Y-21884D01*
X29673Y-21886D01*
X29694Y-21896D01*
X29724Y-21911D01*
X29741Y-21920D01*
X29769Y-21932D01*
X29782Y-21934D01*
X29785Y-21931D01*
X29795Y-21910D01*
X29810Y-21874D01*
X29831Y-21826D01*
X29855Y-21771D01*
X29880Y-21711D01*
X29906Y-21650D01*
X29930Y-21591D01*
X29951Y-21539D01*
X29968Y-21496D01*
X29980Y-21467D01*
X29984Y-21454D01*
X29983Y-21451D01*
X29969Y-21438D01*
X29945Y-21420D01*
X29893Y-21378D01*
X29842Y-21314D01*
X29811Y-21241D01*
X29800Y-21161D01*
X29809Y-21086D01*
X29839Y-21014D01*
X29889Y-20950D01*
X29949Y-20902D01*
X30020Y-20871D01*
X30100Y-20862D01*
X30176Y-20870D01*
X30249Y-20899D01*
X30314Y-20948D01*
X30341Y-20980D01*
X30379Y-21045D01*
X30400Y-21115D01*
X30403Y-21133D01*
X30399Y-21210D01*
X30377Y-21283D01*
X30336Y-21349D01*
X30280Y-21403D01*
X30273Y-21409D01*
X30246Y-21428D01*
X30229Y-21442D01*
X30215Y-21453D01*
X30313Y-21689D01*
X30329Y-21726D01*
X30356Y-21791D01*
X30379Y-21846D01*
X30398Y-21890D01*
X30411Y-21920D01*
X30417Y-21932D01*
X30418Y-21932D01*
X30426Y-21934D01*
X30444Y-21927D01*
X30477Y-21911D01*
X30499Y-21900D01*
X30524Y-21888D01*
X30535Y-21884D01*
X30545Y-21889D01*
X30569Y-21904D01*
X30604Y-21928D01*
X30646Y-21957D01*
X30686Y-21984D01*
X30723Y-22008D01*
X30750Y-22025D01*
X30763Y-22032D01*
X30765Y-22032D01*
X30777Y-22026D01*
X30798Y-22008D01*
X30830Y-21978D01*
X30876Y-21933D01*
X30883Y-21926D01*
X30920Y-21888D01*
X30950Y-21856D01*
X30971Y-21834D01*
X30978Y-21823D01*
X30978Y-21823D01*
X30971Y-21810D01*
X30954Y-21784D01*
X30930Y-21746D01*
X30900Y-21702D01*
X30822Y-21589D01*
X30865Y-21482D01*
X30878Y-21449D01*
X30895Y-21409D01*
X30907Y-21381D01*
X30913Y-21368D01*
X30925Y-21364D01*
X30954Y-21357D01*
X30997Y-21348D01*
X31048Y-21339D01*
X31096Y-21330D01*
X31139Y-21322D01*
X31171Y-21316D01*
X31185Y-21313D01*
X31189Y-21311D01*
X31191Y-21304D01*
X31193Y-21289D01*
X31194Y-21263D01*
X31195Y-21221D01*
X31195Y-21161D01*
X31195Y-21154D01*
X31194Y-21096D01*
X31193Y-21051D01*
X31192Y-21021D01*
X31190Y-21009D01*
X31190Y-21009D01*
X31176Y-21006D01*
X31145Y-20999D01*
X31102Y-20991D01*
X31050Y-20981D01*
X31046Y-20980D01*
X30995Y-20970D01*
X30951Y-20961D01*
X30921Y-20954D01*
X30908Y-20950D01*
X30905Y-20946D01*
X30895Y-20926D01*
X30880Y-20894D01*
X30863Y-20855D01*
X30846Y-20814D01*
X30831Y-20778D01*
X30821Y-20750D01*
X30818Y-20738D01*
X30819Y-20738D01*
X30826Y-20725D01*
X30844Y-20698D01*
X30869Y-20661D01*
X30900Y-20617D01*
X30902Y-20614D01*
X30932Y-20570D01*
X30956Y-20533D01*
X30972Y-20506D01*
X30978Y-20494D01*
X30978Y-20494D01*
X30968Y-20481D01*
X30946Y-20456D01*
X30914Y-20422D01*
X30875Y-20384D01*
X30863Y-20372D01*
X30821Y-20330D01*
X30791Y-20303D01*
X30773Y-20288D01*
X30764Y-20285D01*
X30763Y-20285D01*
X30750Y-20293D01*
X30723Y-20311D01*
X30685Y-20337D01*
X30641Y-20367D01*
X30638Y-20369D01*
X30594Y-20399D01*
X30557Y-20424D01*
X30531Y-20441D01*
X30520Y-20448D01*
X30518Y-20448D01*
X30500Y-20442D01*
X30469Y-20431D01*
X30431Y-20417D01*
X30390Y-20400D01*
X30354Y-20385D01*
X30326Y-20372D01*
X30313Y-20365D01*
X30313Y-20364D01*
X30308Y-20349D01*
X30300Y-20316D01*
X30291Y-20271D01*
X30281Y-20217D01*
X30279Y-20208D01*
X30269Y-20156D01*
X30261Y-20113D01*
X30255Y-20083D01*
X30252Y-20071D01*
X30244Y-20069D01*
X30219Y-20067D01*
X30180Y-20066D01*
X30133Y-20066D01*
X30084Y-20066D01*
X30035Y-20067D01*
X29994Y-20069D01*
X29964Y-20071D01*
X29952Y-20073D01*
X29952Y-20074D01*
X29947Y-20090D01*
X29940Y-20123D01*
X29931Y-20168D01*
X29920Y-20222D01*
X29918Y-20232D01*
X29909Y-20284D01*
X29900Y-20326D01*
X29894Y-20356D01*
X29890Y-20367D01*
X29886Y-20370D01*
X29864Y-20379D01*
X29829Y-20394D01*
X29786Y-20411D01*
X29686Y-20452D01*
X29563Y-20367D01*
X29551Y-20360D01*
X29507Y-20330D01*
X29471Y-20305D01*
X29446Y-20289D01*
X29435Y-20283D01*
X29434Y-20284D01*
X29422Y-20294D01*
X29398Y-20317D01*
X29364Y-20350D01*
X29326Y-20388D01*
X29297Y-20417D01*
X29263Y-20451D01*
X29242Y-20474D01*
X29230Y-20489D01*
X29226Y-20498D01*
X29227Y-20504D01*
X29235Y-20517D01*
X29253Y-20544D01*
X29278Y-20581D01*
X29308Y-20625D01*
X29333Y-20661D01*
X29359Y-20702D01*
X29377Y-20732D01*
X29383Y-20746D01*
X29381Y-20752D01*
X29373Y-20776D01*
X29358Y-20813D01*
X29340Y-20856D01*
X29297Y-20953D01*
X29233Y-20966D01*
X29194Y-20973D01*
X29140Y-20983D01*
X29089Y-20993D01*
X29008Y-21009D01*
X29005Y-21305D01*
X29017Y-21311D01*
X29029Y-21314D01*
X29059Y-21321D01*
X29102Y-21329D01*
X29152Y-21339D01*
X29195Y-21347D01*
X29239Y-21355D01*
X29270Y-21361D01*
X29284Y-21364D01*
X29287Y-21368D01*
X29298Y-21389D01*
X29313Y-21423D01*
X29330Y-21463D01*
X29348Y-21504D01*
X29363Y-21543D01*
X29374Y-21572D01*
X29378Y-21587D01*
X29372Y-21598D01*
X29355Y-21624D01*
X29331Y-21660D01*
X29302Y-21703D01*
X29273Y-21746D01*
X29248Y-21783D01*
X29231Y-21809D01*
X29223Y-21821D01*
X29227Y-21830D01*
X29244Y-21850D01*
X29277Y-21884D01*
X29325Y-21932D01*
X29333Y-21939D01*
X29371Y-21976D01*
X29404Y-22006D01*
X29426Y-22026D01*
X29436Y-22034D01*
X29436Y-22034D01*
G37*
G36*
X35924Y-22183D02*
X35952Y-22179D01*
X35979Y-22170D01*
X35990Y-22164D01*
X36014Y-22148D01*
X36033Y-22127D01*
X36047Y-22103D01*
X36057Y-22078D01*
X36061Y-22050D01*
X36060Y-22023D01*
X36053Y-21995D01*
X36041Y-21969D01*
X36033Y-21957D01*
X36021Y-21944D01*
X36008Y-21932D01*
X35996Y-21923D01*
X35992Y-21921D01*
X35968Y-21910D01*
X35943Y-21904D01*
X35915Y-21903D01*
X35906Y-21903D01*
X35890Y-21905D01*
X35876Y-21909D01*
X35862Y-21915D01*
X35846Y-21924D01*
X35823Y-21942D01*
X35804Y-21964D01*
X35790Y-21990D01*
X35786Y-22002D01*
X35783Y-22016D01*
X35781Y-22027D01*
X35781Y-22028D01*
X35780Y-22029D01*
X35779Y-22023D01*
X35779Y-22022D01*
X35775Y-22004D01*
X35768Y-21985D01*
X35760Y-21969D01*
X35744Y-21948D01*
X35723Y-21929D01*
X35698Y-21914D01*
X35670Y-21905D01*
X35641Y-21902D01*
X35633Y-21902D01*
X35611Y-21905D01*
X35590Y-21911D01*
X35585Y-21913D01*
X35562Y-21926D01*
X35541Y-21943D01*
X35523Y-21964D01*
X35510Y-21988D01*
X35503Y-22013D01*
X35502Y-22014D01*
X35501Y-22021D01*
X35500Y-22024D01*
X35500Y-22024D01*
X35499Y-22020D01*
X35497Y-22013D01*
X35497Y-22010D01*
X35489Y-21986D01*
X35475Y-21962D01*
X35457Y-21941D01*
X35440Y-21927D01*
X35416Y-21913D01*
X35389Y-21905D01*
X35359Y-21902D01*
X35338Y-21904D01*
X35310Y-21911D01*
X35285Y-21923D01*
X35262Y-21941D01*
X35244Y-21964D01*
X35242Y-21967D01*
X35235Y-21977D01*
X35231Y-21986D01*
X35229Y-21993D01*
X35225Y-22005D01*
X35222Y-22017D01*
X35220Y-22027D01*
X35220Y-22028D01*
X35220Y-22028D01*
X35219Y-22022D01*
X35215Y-22007D01*
X35208Y-21988D01*
X35200Y-21971D01*
X35183Y-21948D01*
X35162Y-21929D01*
X35137Y-21914D01*
X35109Y-21905D01*
X35080Y-21902D01*
X35054Y-21904D01*
X35026Y-21912D01*
X35001Y-21925D01*
X34979Y-21945D01*
X34968Y-21957D01*
X34957Y-21973D01*
X34949Y-21990D01*
X34944Y-22005D01*
X34939Y-22033D01*
X34940Y-22061D01*
X34946Y-22087D01*
X34957Y-22111D01*
X34972Y-22133D01*
X34991Y-22152D01*
X35014Y-22167D01*
X35040Y-22177D01*
X35068Y-22182D01*
X35071Y-22182D01*
X35100Y-22181D01*
X35126Y-22175D01*
X35152Y-22162D01*
X35161Y-22156D01*
X35180Y-22140D01*
X35196Y-22120D01*
X35208Y-22099D01*
X35211Y-22091D01*
X35215Y-22079D01*
X35218Y-22067D01*
X35219Y-22057D01*
X35219Y-22052D01*
X35220Y-22057D01*
X35221Y-22061D01*
X35223Y-22074D01*
X35227Y-22088D01*
X35232Y-22100D01*
X35238Y-22113D01*
X35256Y-22136D01*
X35277Y-22155D01*
X35302Y-22170D01*
X35330Y-22180D01*
X35335Y-22181D01*
X35354Y-22182D01*
X35374Y-22182D01*
X35393Y-22179D01*
X35411Y-22173D01*
X35438Y-22159D01*
X35461Y-22140D01*
X35462Y-22139D01*
X35478Y-22118D01*
X35490Y-22095D01*
X35498Y-22071D01*
X35498Y-22070D01*
X35499Y-22063D01*
X35500Y-22061D01*
X35501Y-22063D01*
X35502Y-22069D01*
X35502Y-22071D01*
X35506Y-22085D01*
X35512Y-22101D01*
X35520Y-22116D01*
X35533Y-22133D01*
X35554Y-22153D01*
X35579Y-22169D01*
X35607Y-22179D01*
X35612Y-22180D01*
X35631Y-22182D01*
X35651Y-22182D01*
X35669Y-22180D01*
X35685Y-22175D01*
X35711Y-22163D01*
X35734Y-22146D01*
X35754Y-22125D01*
X35768Y-22100D01*
X35771Y-22092D01*
X35775Y-22079D01*
X35778Y-22067D01*
X35780Y-22057D01*
X35780Y-22056D01*
X35780Y-22056D01*
X35781Y-22061D01*
X35781Y-22062D01*
X35786Y-22080D01*
X35793Y-22099D01*
X35801Y-22115D01*
X35805Y-22121D01*
X35823Y-22142D01*
X35845Y-22160D01*
X35869Y-22173D01*
X35896Y-22180D01*
X35924Y-22183D01*
X35924Y-22183D01*
G37*
G36*
X34789Y-21902D02*
X34806Y-21901D01*
X34823Y-21900D01*
X34841Y-21895D01*
X34868Y-21883D01*
X34891Y-21867D01*
X34911Y-21846D01*
X34925Y-21821D01*
X34935Y-21795D01*
X34939Y-21766D01*
X34937Y-21738D01*
X34929Y-21711D01*
X34917Y-21686D01*
X34899Y-21663D01*
X34876Y-21645D01*
X34869Y-21640D01*
X34842Y-21628D01*
X34814Y-21621D01*
X34785Y-21621D01*
X34756Y-21627D01*
X34733Y-21637D01*
X34709Y-21653D01*
X34688Y-21674D01*
X34672Y-21699D01*
X34662Y-21727D01*
X34659Y-21741D01*
X34658Y-21759D01*
X34659Y-21777D01*
X34661Y-21792D01*
X34662Y-21798D01*
X34673Y-21826D01*
X34690Y-21851D01*
X34711Y-21871D01*
X34737Y-21888D01*
X34749Y-21893D01*
X34765Y-21898D01*
X34780Y-21901D01*
X34789Y-21902D01*
X34789Y-21902D01*
G37*
G36*
X36205Y-21902D02*
X36234Y-21898D01*
X36262Y-21888D01*
X36288Y-21872D01*
X36293Y-21868D01*
X36313Y-21848D01*
X36328Y-21823D01*
X36338Y-21796D01*
X36341Y-21781D01*
X36342Y-21763D01*
X36341Y-21745D01*
X36339Y-21730D01*
X36337Y-21724D01*
X36326Y-21696D01*
X36310Y-21672D01*
X36290Y-21652D01*
X36266Y-21636D01*
X36239Y-21626D01*
X36209Y-21621D01*
X36199Y-21621D01*
X36170Y-21624D01*
X36144Y-21633D01*
X36120Y-21647D01*
X36100Y-21665D01*
X36083Y-21687D01*
X36071Y-21711D01*
X36063Y-21738D01*
X36062Y-21768D01*
X36063Y-21785D01*
X36067Y-21800D01*
X36073Y-21817D01*
X36084Y-21838D01*
X36102Y-21860D01*
X36124Y-21878D01*
X36149Y-21892D01*
X36176Y-21900D01*
X36205Y-21902D01*
X36205Y-21902D01*
G37*
G36*
X34510Y-21620D02*
X34529Y-21620D01*
X34547Y-21618D01*
X34567Y-21612D01*
X34593Y-21599D01*
X34616Y-21580D01*
X34631Y-21562D01*
X34646Y-21538D01*
X34655Y-21511D01*
X34657Y-21499D01*
X34658Y-21483D01*
X34657Y-21466D01*
X34655Y-21451D01*
X34653Y-21443D01*
X34642Y-21415D01*
X34626Y-21391D01*
X34605Y-21370D01*
X34579Y-21355D01*
X34570Y-21350D01*
X34552Y-21344D01*
X34534Y-21341D01*
X34512Y-21341D01*
X34499Y-21342D01*
X34484Y-21344D01*
X34470Y-21348D01*
X34455Y-21355D01*
X34446Y-21359D01*
X34422Y-21377D01*
X34403Y-21399D01*
X34388Y-21424D01*
X34379Y-21453D01*
X34378Y-21459D01*
X34377Y-21476D01*
X34378Y-21493D01*
X34379Y-21508D01*
X34382Y-21518D01*
X34393Y-21546D01*
X34409Y-21570D01*
X34429Y-21590D01*
X34454Y-21606D01*
X34483Y-21617D01*
X34491Y-21618D01*
X34510Y-21620D01*
X34510Y-21620D01*
G37*
G36*
X35636Y-21621D02*
X35665Y-21619D01*
X35691Y-21611D01*
X35707Y-21604D01*
X35731Y-21587D01*
X35751Y-21566D01*
X35766Y-21542D01*
X35776Y-21514D01*
X35777Y-21509D01*
X35781Y-21486D01*
X35780Y-21464D01*
X35774Y-21440D01*
X35763Y-21412D01*
X35746Y-21389D01*
X35725Y-21369D01*
X35700Y-21354D01*
X35672Y-21344D01*
X35654Y-21339D01*
X35663Y-21338D01*
X35666Y-21338D01*
X35686Y-21332D01*
X35707Y-21323D01*
X35726Y-21310D01*
X35729Y-21308D01*
X35750Y-21287D01*
X35765Y-21264D01*
X35775Y-21238D01*
X35780Y-21210D01*
X35779Y-21183D01*
X35773Y-21155D01*
X35761Y-21129D01*
X35760Y-21128D01*
X35743Y-21105D01*
X35722Y-21086D01*
X35698Y-21073D01*
X35672Y-21064D01*
X35645Y-21060D01*
X35618Y-21062D01*
X35592Y-21069D01*
X35566Y-21081D01*
X35543Y-21098D01*
X35531Y-21112D01*
X35517Y-21132D01*
X35507Y-21154D01*
X35502Y-21175D01*
X35501Y-21180D01*
X35500Y-21183D01*
X35499Y-21181D01*
X35498Y-21175D01*
X35494Y-21156D01*
X35485Y-21136D01*
X35473Y-21117D01*
X35466Y-21108D01*
X35445Y-21089D01*
X35421Y-21074D01*
X35394Y-21064D01*
X35365Y-21060D01*
X35336Y-21062D01*
X35319Y-21066D01*
X35292Y-21078D01*
X35269Y-21094D01*
X35249Y-21115D01*
X35234Y-21139D01*
X35224Y-21167D01*
X35221Y-21181D01*
X35220Y-21209D01*
X35225Y-21237D01*
X35235Y-21264D01*
X35251Y-21287D01*
X35271Y-21308D01*
X35296Y-21324D01*
X35307Y-21329D01*
X35320Y-21334D01*
X35332Y-21337D01*
X35341Y-21339D01*
X35342Y-21339D01*
X35342Y-21340D01*
X35336Y-21341D01*
X35322Y-21345D01*
X35303Y-21352D01*
X35287Y-21360D01*
X35278Y-21366D01*
X35260Y-21383D01*
X35243Y-21403D01*
X35231Y-21424D01*
X35224Y-21447D01*
X35220Y-21472D01*
X35220Y-21497D01*
X35221Y-21502D01*
X35229Y-21531D01*
X35242Y-21556D01*
X35261Y-21580D01*
X35277Y-21593D01*
X35302Y-21609D01*
X35330Y-21618D01*
X35341Y-21619D01*
X35356Y-21620D01*
X35372Y-21619D01*
X35387Y-21618D01*
X35398Y-21616D01*
X35407Y-21613D01*
X35435Y-21599D01*
X35458Y-21581D01*
X35477Y-21558D01*
X35484Y-21547D01*
X35492Y-21528D01*
X35498Y-21510D01*
X35498Y-21508D01*
X35499Y-21502D01*
X35500Y-21499D01*
X35500Y-21499D01*
X35500Y-21462D01*
X35500Y-21462D01*
X35499Y-21458D01*
X35498Y-21451D01*
X35497Y-21449D01*
X35489Y-21424D01*
X35475Y-21401D01*
X35457Y-21380D01*
X35436Y-21362D01*
X35412Y-21350D01*
X35411Y-21349D01*
X35398Y-21345D01*
X35387Y-21342D01*
X35374Y-21340D01*
X35386Y-21338D01*
X35403Y-21334D01*
X35428Y-21322D01*
X35451Y-21306D01*
X35470Y-21286D01*
X35485Y-21264D01*
X35491Y-21252D01*
X35496Y-21237D01*
X35498Y-21225D01*
X35499Y-21220D01*
X35500Y-21217D01*
X35501Y-21219D01*
X35502Y-21225D01*
X35504Y-21236D01*
X35509Y-21250D01*
X35515Y-21264D01*
X35523Y-21278D01*
X35541Y-21299D01*
X35563Y-21317D01*
X35588Y-21330D01*
X35614Y-21338D01*
X35627Y-21340D01*
X35614Y-21342D01*
X35612Y-21343D01*
X35600Y-21346D01*
X35588Y-21350D01*
X35585Y-21351D01*
X35562Y-21364D01*
X35541Y-21381D01*
X35523Y-21403D01*
X35510Y-21426D01*
X35503Y-21451D01*
X35502Y-21452D01*
X35501Y-21459D01*
X35500Y-21462D01*
X35500Y-21499D01*
X35500Y-21499D01*
X35501Y-21502D01*
X35502Y-21510D01*
X35507Y-21528D01*
X35519Y-21553D01*
X35536Y-21575D01*
X35557Y-21594D01*
X35582Y-21608D01*
X35582Y-21608D01*
X35608Y-21617D01*
X35636Y-21621D01*
X35636Y-21621D01*
G37*
G36*
X36472Y-21620D02*
X36495Y-21620D01*
X36516Y-21617D01*
X36529Y-21613D01*
X36556Y-21600D01*
X36579Y-21583D01*
X36597Y-21562D01*
X36611Y-21537D01*
X36620Y-21510D01*
X36623Y-21480D01*
X36623Y-21469D01*
X36617Y-21440D01*
X36606Y-21413D01*
X36589Y-21388D01*
X36584Y-21382D01*
X36564Y-21366D01*
X36540Y-21352D01*
X36515Y-21344D01*
X36515Y-21344D01*
X36494Y-21341D01*
X36471Y-21341D01*
X36450Y-21344D01*
X36442Y-21346D01*
X36416Y-21357D01*
X36392Y-21373D01*
X36373Y-21392D01*
X36358Y-21415D01*
X36348Y-21441D01*
X36343Y-21468D01*
X36343Y-21496D01*
X36349Y-21525D01*
X36359Y-21546D01*
X36375Y-21570D01*
X36396Y-21591D01*
X36420Y-21606D01*
X36447Y-21616D01*
X36451Y-21617D01*
X36472Y-21620D01*
X36472Y-21620D01*
G37*
G36*
X35084Y-20779D02*
X35111Y-20776D01*
X35138Y-20766D01*
X35151Y-20760D01*
X35164Y-20751D01*
X35177Y-20739D01*
X35191Y-20723D01*
X35206Y-20700D01*
X35216Y-20672D01*
X35217Y-20665D01*
X35219Y-20646D01*
X35219Y-20626D01*
X35217Y-20609D01*
X35209Y-20586D01*
X35196Y-20561D01*
X35179Y-20540D01*
X35176Y-20537D01*
X35163Y-20527D01*
X35148Y-20517D01*
X35134Y-20509D01*
X35129Y-20507D01*
X35118Y-20504D01*
X35106Y-20501D01*
X35098Y-20499D01*
X35093Y-20499D01*
X35098Y-20498D01*
X35105Y-20496D01*
X35114Y-20494D01*
X35124Y-20491D01*
X35145Y-20481D01*
X35166Y-20468D01*
X35183Y-20453D01*
X35185Y-20450D01*
X35202Y-20426D01*
X35214Y-20399D01*
X35219Y-20371D01*
X35219Y-20343D01*
X35218Y-20336D01*
X35210Y-20307D01*
X35197Y-20282D01*
X35178Y-20259D01*
X35161Y-20244D01*
X35137Y-20229D01*
X35109Y-20220D01*
X35104Y-20219D01*
X35085Y-20218D01*
X35065Y-20218D01*
X35047Y-20221D01*
X35031Y-20226D01*
X35005Y-20238D01*
X34983Y-20256D01*
X34964Y-20277D01*
X34950Y-20301D01*
X34942Y-20328D01*
X34941Y-20332D01*
X34939Y-20338D01*
X34938Y-20341D01*
X34937Y-20338D01*
X34937Y-20332D01*
X34934Y-20320D01*
X34929Y-20308D01*
X34924Y-20296D01*
X34920Y-20288D01*
X34903Y-20264D01*
X34881Y-20244D01*
X34857Y-20230D01*
X34829Y-20221D01*
X34799Y-20218D01*
X34776Y-20219D01*
X34749Y-20226D01*
X34724Y-20238D01*
X34710Y-20248D01*
X34690Y-20269D01*
X34674Y-20292D01*
X34663Y-20318D01*
X34658Y-20346D01*
X34659Y-20374D01*
X34665Y-20400D01*
X34676Y-20427D01*
X34693Y-20451D01*
X34714Y-20470D01*
X34740Y-20485D01*
X34769Y-20495D01*
X34784Y-20499D01*
X34775Y-20500D01*
X34769Y-20501D01*
X34747Y-20508D01*
X34725Y-20519D01*
X34704Y-20534D01*
X34688Y-20552D01*
X34678Y-20566D01*
X34668Y-20586D01*
X34662Y-20604D01*
X34659Y-20619D01*
X34658Y-20637D01*
X34659Y-20655D01*
X34661Y-20670D01*
X34666Y-20686D01*
X34679Y-20713D01*
X34697Y-20736D01*
X34719Y-20755D01*
X34745Y-20769D01*
X34775Y-20777D01*
X34782Y-20778D01*
X34799Y-20779D01*
X34817Y-20778D01*
X34833Y-20775D01*
X34845Y-20771D01*
X34871Y-20759D01*
X34894Y-20741D01*
X34913Y-20720D01*
X34927Y-20695D01*
X34936Y-20667D01*
X34937Y-20664D01*
X34938Y-20658D01*
X34939Y-20659D01*
X34939Y-20620D01*
X34938Y-20619D01*
X34936Y-20613D01*
X34936Y-20612D01*
X34931Y-20593D01*
X34922Y-20573D01*
X34911Y-20555D01*
X34902Y-20545D01*
X34881Y-20525D01*
X34855Y-20510D01*
X34827Y-20501D01*
X34813Y-20498D01*
X34823Y-20496D01*
X34831Y-20495D01*
X34840Y-20492D01*
X34846Y-20490D01*
X34871Y-20478D01*
X34894Y-20460D01*
X34913Y-20439D01*
X34927Y-20414D01*
X34936Y-20388D01*
X34937Y-20381D01*
X34939Y-20377D01*
X34940Y-20379D01*
X34942Y-20388D01*
X34942Y-20389D01*
X34946Y-20404D01*
X34953Y-20420D01*
X34962Y-20435D01*
X34969Y-20444D01*
X34982Y-20458D01*
X34996Y-20471D01*
X35009Y-20480D01*
X35010Y-20480D01*
X35032Y-20490D01*
X35055Y-20497D01*
X35064Y-20499D01*
X35053Y-20500D01*
X35028Y-20508D01*
X35003Y-20521D01*
X34981Y-20538D01*
X34963Y-20559D01*
X34958Y-20567D01*
X34952Y-20580D01*
X34946Y-20594D01*
X34942Y-20607D01*
X34940Y-20617D01*
X34940Y-20617D01*
X34939Y-20620D01*
X34939Y-20659D01*
X34940Y-20659D01*
X34941Y-20665D01*
X34943Y-20673D01*
X34945Y-20682D01*
X34951Y-20696D01*
X34965Y-20721D01*
X34983Y-20742D01*
X35005Y-20758D01*
X35030Y-20770D01*
X35056Y-20777D01*
X35084Y-20779D01*
X35084Y-20779D01*
G37*
G36*
X35928Y-20779D02*
X35956Y-20775D01*
X35982Y-20765D01*
X36006Y-20750D01*
X36026Y-20731D01*
X36043Y-20708D01*
X36055Y-20682D01*
X36057Y-20673D01*
X36059Y-20665D01*
X36059Y-20663D01*
X36061Y-20658D01*
X36061Y-20658D01*
X36061Y-20619D01*
X36060Y-20615D01*
X36057Y-20605D01*
X36052Y-20589D01*
X36040Y-20564D01*
X36023Y-20542D01*
X36001Y-20524D01*
X35976Y-20510D01*
X35949Y-20501D01*
X35936Y-20498D01*
X35945Y-20496D01*
X35946Y-20496D01*
X35969Y-20490D01*
X35991Y-20480D01*
X36000Y-20474D01*
X36014Y-20462D01*
X36027Y-20449D01*
X36038Y-20435D01*
X36045Y-20423D01*
X36053Y-20405D01*
X36058Y-20388D01*
X36060Y-20381D01*
X36061Y-20377D01*
X36062Y-20379D01*
X36064Y-20388D01*
X36070Y-20406D01*
X36082Y-20432D01*
X36101Y-20455D01*
X36122Y-20473D01*
X36148Y-20488D01*
X36177Y-20496D01*
X36187Y-20498D01*
X36173Y-20501D01*
X36160Y-20504D01*
X36133Y-20516D01*
X36109Y-20533D01*
X36089Y-20555D01*
X36083Y-20563D01*
X36076Y-20576D01*
X36070Y-20591D01*
X36066Y-20601D01*
X36064Y-20612D01*
X36064Y-20612D01*
X36062Y-20618D01*
X36061Y-20619D01*
X36061Y-20658D01*
X36062Y-20659D01*
X36064Y-20666D01*
X36066Y-20676D01*
X36074Y-20697D01*
X36085Y-20717D01*
X36093Y-20728D01*
X36114Y-20749D01*
X36139Y-20764D01*
X36167Y-20775D01*
X36180Y-20777D01*
X36199Y-20779D01*
X36219Y-20778D01*
X36236Y-20775D01*
X36238Y-20775D01*
X36266Y-20763D01*
X36291Y-20747D01*
X36312Y-20726D01*
X36327Y-20702D01*
X36338Y-20673D01*
X36341Y-20661D01*
X36342Y-20641D01*
X36341Y-20621D01*
X36338Y-20604D01*
X36333Y-20589D01*
X36323Y-20569D01*
X36312Y-20552D01*
X36299Y-20538D01*
X36282Y-20524D01*
X36264Y-20513D01*
X36257Y-20510D01*
X36244Y-20505D01*
X36231Y-20501D01*
X36221Y-20499D01*
X36220Y-20499D01*
X36223Y-20498D01*
X36231Y-20495D01*
X36248Y-20490D01*
X36266Y-20483D01*
X36281Y-20474D01*
X36284Y-20472D01*
X36303Y-20455D01*
X36319Y-20435D01*
X36331Y-20414D01*
X36335Y-20404D01*
X36341Y-20376D01*
X36342Y-20347D01*
X36337Y-20319D01*
X36335Y-20313D01*
X36323Y-20287D01*
X36306Y-20264D01*
X36284Y-20245D01*
X36259Y-20230D01*
X36232Y-20220D01*
X36228Y-20220D01*
X36208Y-20218D01*
X36188Y-20218D01*
X36169Y-20221D01*
X36165Y-20222D01*
X36137Y-20233D01*
X36112Y-20249D01*
X36092Y-20270D01*
X36076Y-20296D01*
X36072Y-20304D01*
X36067Y-20317D01*
X36064Y-20329D01*
X36063Y-20338D01*
X36063Y-20339D01*
X36062Y-20341D01*
X36060Y-20337D01*
X36058Y-20329D01*
X36053Y-20309D01*
X36041Y-20285D01*
X36024Y-20263D01*
X36003Y-20244D01*
X35979Y-20230D01*
X35978Y-20230D01*
X35952Y-20221D01*
X35924Y-20218D01*
X35896Y-20220D01*
X35869Y-20227D01*
X35854Y-20234D01*
X35830Y-20251D01*
X35810Y-20272D01*
X35794Y-20296D01*
X35785Y-20324D01*
X35783Y-20330D01*
X35780Y-20352D01*
X35781Y-20374D01*
X35787Y-20400D01*
X35799Y-20427D01*
X35815Y-20451D01*
X35837Y-20470D01*
X35862Y-20485D01*
X35891Y-20495D01*
X35897Y-20497D01*
X35902Y-20499D01*
X35902Y-20499D01*
X35893Y-20500D01*
X35877Y-20505D01*
X35860Y-20512D01*
X35844Y-20522D01*
X35828Y-20534D01*
X35808Y-20555D01*
X35793Y-20581D01*
X35791Y-20585D01*
X35783Y-20612D01*
X35780Y-20641D01*
X35784Y-20670D01*
X35793Y-20697D01*
X35799Y-20710D01*
X35808Y-20723D01*
X35820Y-20736D01*
X35821Y-20737D01*
X35844Y-20756D01*
X35869Y-20769D01*
X35897Y-20777D01*
X35900Y-20778D01*
X35928Y-20779D01*
X35928Y-20779D01*
G37*
G54D12*
X31150Y-29450D02*
X30950Y-29750D01*
X30950Y-29750D02*
X30850Y-29650D01*
X30850Y-29650D02*
X31150Y-29450D01*
X34730Y-26760D02*
X34280Y-26760D01*
X34730Y-28940D02*
X34290Y-28940D01*
X34730Y-26760D02*
X34730Y-28940D01*
X33850Y-26290D02*
X33850Y-25860D01*
X31640Y-26280D02*
X31640Y-25860D01*
X31630Y-25860D02*
X33850Y-25850D01*
X31650Y-29830D02*
X33820Y-29840D01*
X31220Y-29140D02*
X31220Y-26310D01*
X33830Y-29830D02*
X33830Y-29420D01*
X31470Y-29380D02*
X34250Y-29380D01*
X34270Y-26300D02*
X34270Y-29340D01*
X31220Y-26300D02*
X34220Y-26300D01*
X30770Y-28970D02*
X30770Y-26750D01*
X30770Y-26750D02*
X31220Y-26750D01*
X31224Y-29150D02*
X31454Y-29380D01*
X30772Y-28970D02*
X31224Y-28970D01*
X31650Y-29380D02*
X31650Y-29832D01*
X31820Y-28976D02*
X31816Y-29012D01*
X31805Y-29047D01*
X31788Y-29080D01*
X31765Y-29108D01*
X31737Y-29131D01*
X31704Y-29149D01*
X31669Y-29160D01*
X31633Y-29163D01*
X31597Y-29160D01*
X31562Y-29150D01*
X31530Y-29133D01*
X31501Y-29110D01*
X31477Y-29082D01*
X31460Y-29050D01*
X31449Y-29015D01*
X31445Y-28978D01*
X31448Y-28943D01*
X31458Y-28907D01*
X31474Y-28875D01*
X31497Y-28846D01*
X31525Y-28822D01*
X31557Y-28804D01*
X31592Y-28793D01*
X31629Y-28789D01*
X31664Y-28791D01*
X31699Y-28801D01*
X31732Y-28818D01*
X31761Y-28840D01*
X31785Y-28868D01*
X31803Y-28900D01*
X31815Y-28935D01*
X31819Y-28971D01*
X31820Y-28976D01*
G54D14*
X32590Y-32075D02*
X32335Y-32075D01*
X32335Y-32075D02*
X32335Y-31524D01*
X32590Y-31524D02*
X32335Y-31524D01*
X32590Y-32075D02*
X32590Y-31524D01*
X33170Y-32075D02*
X32914Y-32075D01*
X32914Y-32075D02*
X32914Y-31524D01*
X33170Y-31524D02*
X32914Y-31524D01*
X33170Y-32075D02*
X33170Y-31524D01*
X32828Y-31996D02*
X32672Y-31996D01*
X32672Y-31996D02*
X32672Y-31604D01*
X32828Y-31604D02*
X32672Y-31604D01*
X32828Y-31996D02*
X32828Y-31604D01*
G54D10*
X32911Y-31550D02*
X32589Y-31550D01*
X32911Y-32050D02*
X32589Y-32050D01*
G54D15*
X33526Y-31413D02*
X31974Y-31413D01*
X31974Y-31413D02*
X31974Y-32187D01*
X31974Y-32187D02*
X33526Y-32187D01*
X33526Y-32187D02*
X33526Y-31413D01*
G54D14*
X35125Y-23260D02*
X35125Y-23515D01*
X35125Y-23515D02*
X34574Y-23515D01*
X34574Y-23260D02*
X34574Y-23515D01*
X35125Y-23260D02*
X34574Y-23260D01*
X35125Y-22680D02*
X35125Y-22936D01*
X35125Y-22936D02*
X34574Y-22936D01*
X34574Y-22680D02*
X34574Y-22936D01*
X35125Y-22680D02*
X34574Y-22680D01*
X35046Y-23022D02*
X35046Y-23178D01*
X35046Y-23178D02*
X34654Y-23178D01*
X34654Y-23022D02*
X34654Y-23178D01*
X35046Y-23022D02*
X34654Y-23022D01*
G54D10*
X34600Y-22939D02*
X34600Y-23261D01*
X35100Y-22939D02*
X35100Y-23261D01*
G54D15*
X34463Y-22324D02*
X34463Y-23876D01*
X34463Y-23876D02*
X35237Y-23876D01*
X35237Y-23876D02*
X35237Y-22324D01*
X35237Y-22324D02*
X34463Y-22324D01*
G54D14*
X30375Y-22940D02*
X30375Y-22685D01*
X30375Y-22685D02*
X30926Y-22685D01*
X30926Y-22940D02*
X30926Y-22685D01*
X30375Y-22940D02*
X30926Y-22940D01*
X30375Y-23520D02*
X30375Y-23264D01*
X30375Y-23264D02*
X30926Y-23264D01*
X30926Y-23520D02*
X30926Y-23264D01*
X30375Y-23520D02*
X30926Y-23520D01*
X30454Y-23178D02*
X30454Y-23022D01*
X30454Y-23022D02*
X30846Y-23022D01*
X30846Y-23178D02*
X30846Y-23022D01*
X30454Y-23178D02*
X30846Y-23178D01*
G54D10*
X30900Y-23261D02*
X30900Y-22939D01*
X30400Y-23261D02*
X30400Y-22939D01*
G54D15*
X31037Y-23876D02*
X31037Y-22324D01*
X31037Y-22324D02*
X30263Y-22324D01*
X30263Y-22324D02*
X30263Y-23876D01*
X30263Y-23876D02*
X31037Y-23876D01*
G54D14*
X32590Y-33675D02*
X32335Y-33675D01*
X32335Y-33675D02*
X32335Y-33124D01*
X32590Y-33124D02*
X32335Y-33124D01*
X32590Y-33675D02*
X32590Y-33124D01*
X33170Y-33675D02*
X32914Y-33675D01*
X32914Y-33675D02*
X32914Y-33124D01*
X33170Y-33124D02*
X32914Y-33124D01*
X33170Y-33675D02*
X33170Y-33124D01*
X32828Y-33596D02*
X32672Y-33596D01*
X32672Y-33596D02*
X32672Y-33204D01*
X32828Y-33204D02*
X32672Y-33204D01*
X32828Y-33596D02*
X32828Y-33204D01*
G54D10*
X32911Y-33150D02*
X32589Y-33150D01*
X32911Y-33650D02*
X32589Y-33650D01*
G54D15*
X33526Y-33013D02*
X31974Y-33013D01*
X31974Y-33013D02*
X31974Y-33787D01*
X31974Y-33787D02*
X33526Y-33787D01*
X33526Y-33787D02*
X33526Y-33013D01*
G54D14*
X37329Y-28985D02*
X37034Y-28985D01*
X37034Y-28985D02*
X37034Y-28415D01*
X37329Y-28415D02*
X37034Y-28415D01*
X37329Y-28985D02*
X37329Y-28415D01*
X36760Y-28985D02*
X36465Y-28985D01*
X36465Y-28985D02*
X36465Y-28415D01*
X36760Y-28415D02*
X36465Y-28415D01*
X36760Y-28985D02*
X36760Y-28415D01*
X36939Y-28857D02*
X36861Y-28857D01*
X36861Y-28857D02*
X36861Y-28543D01*
X36939Y-28543D02*
X36861Y-28543D01*
X36939Y-28857D02*
X36939Y-28543D01*
G54D15*
X37676Y-28313D02*
X36124Y-28313D01*
X36124Y-29087D02*
X37676Y-29087D01*
X37676Y-29087D02*
X37676Y-28313D01*
G54D16*
X37050Y-28441D02*
X36750Y-28441D01*
X37040Y-28959D02*
X36750Y-28959D01*
G54D15*
X36124Y-28313D02*
X36124Y-29087D01*
G54D14*
X37370Y-28185D02*
X37074Y-28185D01*
X37074Y-28185D02*
X37074Y-27516D01*
X37370Y-27516D02*
X37074Y-27516D01*
X37370Y-28185D02*
X37370Y-27516D01*
X36326Y-28184D02*
X36030Y-28184D01*
X36030Y-28184D02*
X36030Y-27515D01*
X36326Y-27515D02*
X36030Y-27515D01*
X36326Y-28184D02*
X36326Y-27515D01*
X36778Y-28007D02*
X36622Y-28007D01*
X36622Y-28007D02*
X36622Y-27693D01*
X36778Y-27693D02*
X36622Y-27693D01*
X36778Y-28007D02*
X36778Y-27693D01*
G54D15*
X37673Y-27463D02*
X35727Y-27463D01*
X35727Y-28237D02*
X37673Y-28237D01*
X37673Y-28237D02*
X37673Y-27463D01*
X35727Y-27463D02*
X35727Y-28237D01*
G54D16*
X37079Y-27541D02*
X36321Y-27541D01*
X37079Y-28159D02*
X36321Y-28159D01*
G54D14*
X36471Y-26715D02*
X36766Y-26715D01*
X36766Y-26715D02*
X36766Y-27285D01*
X36471Y-27285D02*
X36766Y-27285D01*
X36471Y-26715D02*
X36471Y-27285D01*
X37040Y-26715D02*
X37335Y-26715D01*
X37335Y-26715D02*
X37335Y-27285D01*
X37040Y-27285D02*
X37335Y-27285D01*
X37040Y-26715D02*
X37040Y-27285D01*
X36861Y-26843D02*
X36939Y-26843D01*
X36939Y-26843D02*
X36939Y-27157D01*
X36861Y-27157D02*
X36939Y-27157D01*
X36861Y-26843D02*
X36861Y-27157D01*
G54D15*
X36124Y-27387D02*
X37676Y-27387D01*
X37676Y-26613D02*
X36124Y-26613D01*
X36124Y-26613D02*
X36124Y-27387D01*
G54D16*
X36750Y-27259D02*
X37050Y-27259D01*
X36760Y-26741D02*
X37050Y-26741D01*
G54D15*
X37676Y-27387D02*
X37676Y-26613D01*
G54D14*
X32660Y-35030D02*
X32840Y-35030D01*
X32840Y-35030D02*
X32840Y-35259D01*
X32660Y-35259D02*
X32840Y-35259D01*
X32660Y-35030D02*
X32660Y-35259D01*
X33030Y-34241D02*
X33210Y-34241D01*
X33210Y-34241D02*
X33210Y-34470D01*
X33030Y-34470D02*
X33210Y-34470D01*
X33030Y-34241D02*
X33030Y-34470D01*
X32290Y-34241D02*
X32470Y-34241D01*
X32470Y-34241D02*
X32470Y-34470D01*
X32290Y-34470D02*
X32470Y-34470D01*
X32290Y-34241D02*
X32290Y-34470D01*
X32554Y-34632D02*
X32946Y-34632D01*
X32946Y-34632D02*
X32946Y-34868D01*
X32554Y-34868D02*
X32946Y-34868D01*
X32554Y-34632D02*
X32554Y-34868D01*
G54D15*
X31974Y-35530D02*
X33526Y-35530D01*
X33526Y-33970D02*
X31974Y-33970D01*
X31974Y-33970D02*
X31974Y-35530D01*
X33526Y-35530D02*
X33526Y-33970D01*
G54D10*
X33309Y-35009D02*
X33309Y-34491D01*
X33309Y-34491D02*
X32191Y-34491D01*
X32191Y-34491D02*
X32191Y-35009D01*
X32191Y-35009D02*
X33309Y-35009D01*
G54D14*
X29900Y-34466D02*
X30063Y-34542D01*
X30063Y-34542D02*
X29966Y-34749D01*
X29803Y-34673D02*
X29966Y-34749D01*
X29900Y-34466D02*
X29803Y-34673D01*
X30569Y-33907D02*
X30732Y-33983D01*
X30732Y-33983D02*
X30635Y-34191D01*
X30472Y-34115D02*
X30635Y-34191D01*
X30569Y-33907D02*
X30472Y-34115D01*
X29898Y-33594D02*
X30061Y-33670D01*
X30061Y-33670D02*
X29965Y-33878D01*
X29801Y-33802D02*
X29965Y-33878D01*
X29898Y-33594D02*
X29801Y-33802D01*
X29972Y-34060D02*
X30328Y-34226D01*
X30328Y-34226D02*
X30228Y-34440D01*
X29872Y-34274D02*
X30228Y-34440D01*
X29972Y-34060D02*
X29872Y-34274D01*
G54D15*
X29067Y-34629D02*
X30474Y-35285D01*
X31133Y-33871D02*
X29726Y-33215D01*
X29726Y-33215D02*
X29067Y-34629D01*
X30474Y-35285D02*
X31133Y-33871D01*
G54D10*
X30497Y-34721D02*
X30716Y-34252D01*
X30716Y-34252D02*
X29703Y-33779D01*
X29703Y-33779D02*
X29484Y-34248D01*
X29484Y-34248D02*
X30497Y-34721D01*
G54D14*
X35387Y-34492D02*
X35550Y-34416D01*
X35550Y-34416D02*
X35647Y-34623D01*
X35484Y-34699D02*
X35647Y-34623D01*
X35387Y-34492D02*
X35484Y-34699D01*
X35389Y-33620D02*
X35552Y-33544D01*
X35552Y-33544D02*
X35649Y-33752D01*
X35485Y-33828D02*
X35649Y-33752D01*
X35389Y-33620D02*
X35485Y-33828D01*
X34718Y-33933D02*
X34881Y-33857D01*
X34881Y-33857D02*
X34978Y-34065D01*
X34815Y-34141D02*
X34978Y-34065D01*
X34718Y-33933D02*
X34815Y-34141D01*
X35122Y-34176D02*
X35478Y-34010D01*
X35478Y-34010D02*
X35578Y-34224D01*
X35222Y-34390D02*
X35578Y-34224D01*
X35122Y-34176D02*
X35222Y-34390D01*
G54D15*
X34976Y-35235D02*
X36383Y-34579D01*
X35724Y-33165D02*
X34317Y-33821D01*
X34317Y-33821D02*
X34976Y-35235D01*
X36383Y-34579D02*
X35724Y-33165D01*
G54D10*
X35966Y-34198D02*
X35747Y-33729D01*
X35747Y-33729D02*
X34734Y-34202D01*
X34734Y-34202D02*
X34953Y-34671D01*
X34953Y-34671D02*
X35966Y-34198D01*
G54D14*
X30911Y-32918D02*
X31142Y-33026D01*
X31142Y-33026D02*
X30909Y-33526D01*
X30678Y-33418D02*
X30909Y-33526D01*
X30911Y-32918D02*
X30678Y-33418D01*
X30386Y-32673D02*
X30618Y-32781D01*
X30618Y-32781D02*
X30385Y-33281D01*
X30153Y-33173D02*
X30385Y-33281D01*
X30386Y-32673D02*
X30153Y-33173D01*
X30662Y-32889D02*
X30804Y-32955D01*
X30804Y-32955D02*
X30638Y-33311D01*
X30496Y-33245D02*
X30638Y-33311D01*
X30662Y-32889D02*
X30496Y-33245D01*
G54D10*
X30398Y-33259D02*
X30690Y-33395D01*
X30610Y-32805D02*
X30902Y-32941D01*
G54D15*
X29783Y-33123D02*
X31190Y-33779D01*
X31190Y-33779D02*
X31517Y-33077D01*
X31517Y-33077D02*
X30110Y-32421D01*
X30110Y-32421D02*
X29783Y-33123D01*
G54D14*
X28760Y-27975D02*
X29015Y-27975D01*
X29015Y-27975D02*
X29015Y-28526D01*
X28760Y-28526D02*
X29015Y-28526D01*
X28760Y-27975D02*
X28760Y-28526D01*
X28180Y-27975D02*
X28436Y-27975D01*
X28436Y-27975D02*
X28436Y-28526D01*
X28180Y-28526D02*
X28436Y-28526D01*
X28180Y-27975D02*
X28180Y-28526D01*
X28522Y-28054D02*
X28678Y-28054D01*
X28678Y-28054D02*
X28678Y-28446D01*
X28522Y-28446D02*
X28678Y-28446D01*
X28522Y-28054D02*
X28522Y-28446D01*
G54D10*
X28439Y-28500D02*
X28761Y-28500D01*
X28439Y-28000D02*
X28761Y-28000D01*
G54D15*
X27824Y-28637D02*
X29376Y-28637D01*
X29376Y-28637D02*
X29376Y-27863D01*
X29376Y-27863D02*
X27824Y-27863D01*
X27824Y-27863D02*
X27824Y-28637D01*
G54D14*
X34829Y-32733D02*
X35060Y-32625D01*
X35060Y-32625D02*
X35293Y-33125D01*
X35062Y-33233D02*
X35293Y-33125D01*
X34829Y-32733D02*
X35062Y-33233D01*
X34303Y-32978D02*
X34535Y-32870D01*
X34535Y-32870D02*
X34768Y-33369D01*
X34536Y-33478D02*
X34768Y-33369D01*
X34303Y-32978D02*
X34536Y-33478D01*
X34646Y-32905D02*
X34788Y-32839D01*
X34788Y-32839D02*
X34954Y-33195D01*
X34812Y-33261D02*
X34954Y-33195D01*
X34646Y-32905D02*
X34812Y-33261D01*
G54D10*
X34760Y-33345D02*
X35052Y-33209D01*
X34548Y-32891D02*
X34840Y-32755D01*
G54D15*
X34260Y-33729D02*
X35667Y-33073D01*
X35667Y-33073D02*
X35340Y-32371D01*
X35340Y-32371D02*
X33933Y-33027D01*
X33933Y-33027D02*
X34260Y-33729D01*
G54D14*
X28760Y-27125D02*
X29015Y-27125D01*
X29015Y-27125D02*
X29015Y-27676D01*
X28760Y-27676D02*
X29015Y-27676D01*
X28760Y-27125D02*
X28760Y-27676D01*
X28180Y-27125D02*
X28436Y-27125D01*
X28436Y-27125D02*
X28436Y-27676D01*
X28180Y-27676D02*
X28436Y-27676D01*
X28180Y-27125D02*
X28180Y-27676D01*
X28522Y-27204D02*
X28678Y-27204D01*
X28678Y-27204D02*
X28678Y-27596D01*
X28522Y-27596D02*
X28678Y-27596D01*
X28522Y-27204D02*
X28522Y-27596D01*
G54D10*
X28439Y-27650D02*
X28761Y-27650D01*
X28439Y-27150D02*
X28761Y-27150D01*
G54D15*
X27824Y-27787D02*
X29376Y-27787D01*
X29376Y-27787D02*
X29376Y-27013D01*
X29376Y-27013D02*
X27824Y-27013D01*
X27824Y-27013D02*
X27824Y-27787D01*
G54D17*
X24950Y-31050D02*
X24950Y-31050D01*
X24950Y-30050D02*
X24950Y-31050D01*
X24950Y-31050D02*
X24950Y-31050D01*
X24950Y-31050D02*
X28950Y-31050D01*
X28950Y-31050D02*
X28950Y-30050D01*
X28950Y-30050D02*
X24950Y-30050D01*
X25950Y-30050D02*
X25950Y-31050D01*
X24950Y-25650D02*
X24950Y-25650D01*
X24950Y-24650D02*
X24950Y-25650D01*
X24950Y-25650D02*
X24950Y-25650D01*
X24950Y-25650D02*
X28950Y-25650D01*
X28950Y-25650D02*
X28950Y-24650D01*
X28950Y-24650D02*
X24950Y-24650D01*
X25950Y-24650D02*
X25950Y-25650D01*
X37850Y-30800D02*
X38850Y-30800D01*
X38850Y-30800D02*
X38850Y-24800D01*
X38850Y-24800D02*
X37850Y-24800D01*
X37850Y-24800D02*
X37850Y-30800D01*
X37850Y-29800D02*
X38850Y-29800D01*
G54D11*
X32816Y-31262D02*
X32950Y-31071D01*
X33045Y-31262D02*
X33045Y-30862D01*
X32892Y-30862D01*
X32854Y-30881D01*
X32835Y-30900D01*
X32816Y-30938D01*
X32816Y-30995D01*
X32835Y-31033D01*
X32854Y-31052D01*
X32892Y-31071D01*
X33045Y-31071D01*
X32454Y-30862D02*
X32645Y-30862D01*
X32664Y-31052D01*
X32645Y-31033D01*
X32607Y-31014D01*
X32511Y-31014D01*
X32473Y-31033D01*
X32454Y-31052D01*
X32435Y-31090D01*
X32435Y-31186D01*
X32454Y-31224D01*
X32473Y-31243D01*
X32511Y-31262D01*
X32607Y-31262D01*
X32645Y-31243D01*
X32664Y-31224D01*
X35812Y-23034D02*
X35621Y-22900D01*
X35812Y-22805D02*
X35412Y-22805D01*
X35412Y-22958D01*
X35431Y-22996D01*
X35450Y-23015D01*
X35488Y-23034D01*
X35545Y-23034D01*
X35583Y-23015D01*
X35602Y-22996D01*
X35621Y-22958D01*
X35621Y-22805D01*
X35812Y-23415D02*
X35812Y-23186D01*
X35812Y-23300D02*
X35412Y-23300D01*
X35469Y-23262D01*
X35507Y-23224D01*
X35526Y-23186D01*
X30062Y-23034D02*
X29871Y-22900D01*
X30062Y-22805D02*
X29662Y-22805D01*
X29662Y-22958D01*
X29681Y-22996D01*
X29700Y-23015D01*
X29738Y-23034D01*
X29795Y-23034D01*
X29833Y-23015D01*
X29852Y-22996D01*
X29871Y-22958D01*
X29871Y-22805D01*
X29700Y-23186D02*
X29681Y-23205D01*
X29662Y-23243D01*
X29662Y-23339D01*
X29681Y-23377D01*
X29700Y-23396D01*
X29738Y-23415D01*
X29776Y-23415D01*
X29833Y-23396D01*
X30062Y-23167D01*
X30062Y-23415D01*
X32816Y-32812D02*
X32950Y-32621D01*
X33045Y-32812D02*
X33045Y-32412D01*
X32892Y-32412D01*
X32854Y-32431D01*
X32835Y-32450D01*
X32816Y-32488D01*
X32816Y-32545D01*
X32835Y-32583D01*
X32854Y-32602D01*
X32892Y-32621D01*
X33045Y-32621D01*
X32473Y-32545D02*
X32473Y-32812D01*
X32569Y-32393D02*
X32664Y-32679D01*
X32416Y-32679D01*
X37416Y-29574D02*
X37435Y-29593D01*
X37492Y-29612D01*
X37530Y-29612D01*
X37588Y-29593D01*
X37626Y-29555D01*
X37645Y-29517D01*
X37664Y-29440D01*
X37664Y-29383D01*
X37645Y-29307D01*
X37626Y-29269D01*
X37588Y-29231D01*
X37530Y-29212D01*
X37492Y-29212D01*
X37435Y-29231D01*
X37416Y-29250D01*
X37035Y-29612D02*
X37264Y-29612D01*
X37150Y-29612D02*
X37150Y-29212D01*
X37188Y-29269D01*
X37226Y-29307D01*
X37264Y-29326D01*
X35574Y-27734D02*
X35593Y-27715D01*
X35612Y-27658D01*
X35612Y-27620D01*
X35593Y-27562D01*
X35555Y-27524D01*
X35517Y-27505D01*
X35440Y-27486D01*
X35383Y-27486D01*
X35307Y-27505D01*
X35269Y-27524D01*
X35231Y-27562D01*
X35212Y-27620D01*
X35212Y-27658D01*
X35231Y-27715D01*
X35250Y-27734D01*
X35250Y-27886D02*
X35231Y-27905D01*
X35212Y-27943D01*
X35212Y-28039D01*
X35231Y-28077D01*
X35250Y-28096D01*
X35288Y-28115D01*
X35326Y-28115D01*
X35383Y-28096D01*
X35612Y-27867D01*
X35612Y-28115D01*
X37416Y-26474D02*
X37435Y-26493D01*
X37492Y-26512D01*
X37530Y-26512D01*
X37588Y-26493D01*
X37626Y-26455D01*
X37645Y-26417D01*
X37664Y-26340D01*
X37664Y-26283D01*
X37645Y-26207D01*
X37626Y-26169D01*
X37588Y-26131D01*
X37530Y-26112D01*
X37492Y-26112D01*
X37435Y-26131D01*
X37416Y-26150D01*
X37283Y-26112D02*
X37035Y-26112D01*
X37169Y-26264D01*
X37111Y-26264D01*
X37073Y-26283D01*
X37054Y-26302D01*
X37035Y-26340D01*
X37035Y-26436D01*
X37054Y-26474D01*
X37073Y-26493D01*
X37111Y-26512D01*
X37226Y-26512D01*
X37264Y-26493D01*
X37283Y-26474D01*
X32788Y-36150D02*
X32826Y-36131D01*
X32864Y-36093D01*
X32921Y-36036D01*
X32960Y-36017D01*
X32998Y-36017D01*
X32979Y-36112D02*
X33017Y-36093D01*
X33055Y-36055D01*
X33074Y-35979D01*
X33074Y-35845D01*
X33055Y-35769D01*
X33017Y-35731D01*
X32979Y-35712D01*
X32902Y-35712D01*
X32864Y-35731D01*
X32826Y-35769D01*
X32807Y-35845D01*
X32807Y-35979D01*
X32826Y-36055D01*
X32864Y-36093D01*
X32902Y-36112D01*
X32979Y-36112D01*
X32426Y-36112D02*
X32655Y-36112D01*
X32541Y-36112D02*
X32541Y-35712D01*
X32579Y-35769D01*
X32617Y-35807D01*
X32655Y-35826D01*
X29498Y-35513D02*
X29540Y-35512D01*
X29591Y-35494D01*
X29667Y-35466D01*
X29710Y-35465D01*
X29744Y-35482D01*
X29687Y-35560D02*
X29730Y-35558D01*
X29780Y-35540D01*
X29829Y-35479D01*
X29886Y-35358D01*
X29901Y-35281D01*
X29883Y-35230D01*
X29856Y-35197D01*
X29786Y-35165D01*
X29744Y-35166D01*
X29693Y-35184D01*
X29644Y-35245D01*
X29587Y-35366D01*
X29573Y-35443D01*
X29591Y-35494D01*
X29617Y-35527D01*
X29687Y-35560D01*
X29546Y-35095D02*
X29537Y-35069D01*
X29511Y-35036D01*
X29424Y-34995D01*
X29381Y-34997D01*
X29356Y-35006D01*
X29323Y-35032D01*
X29307Y-35067D01*
X29300Y-35126D01*
X29411Y-35431D01*
X29186Y-35326D01*
X35997Y-35498D02*
X36023Y-35465D01*
X36042Y-35414D01*
X36069Y-35339D01*
X36097Y-35305D01*
X36131Y-35289D01*
X36154Y-35383D02*
X36180Y-35350D01*
X36199Y-35299D01*
X36184Y-35222D01*
X36127Y-35101D01*
X36078Y-35040D01*
X36027Y-35022D01*
X35985Y-35021D01*
X35915Y-35053D01*
X35889Y-35086D01*
X35870Y-35137D01*
X35885Y-35214D01*
X35942Y-35335D01*
X35991Y-35396D01*
X36042Y-35414D01*
X36084Y-35416D01*
X36154Y-35383D01*
X35709Y-35149D02*
X35484Y-35254D01*
X35669Y-35335D01*
X35617Y-35360D01*
X35590Y-35393D01*
X35581Y-35418D01*
X35580Y-35461D01*
X35621Y-35548D01*
X35654Y-35574D01*
X35679Y-35583D01*
X35722Y-35585D01*
X35826Y-35536D01*
X35852Y-35503D01*
X35862Y-35478D01*
X30958Y-32595D02*
X31161Y-32478D01*
X31166Y-32691D02*
X31335Y-32329D01*
X31196Y-32264D01*
X31154Y-32265D01*
X31129Y-32275D01*
X31095Y-32301D01*
X31071Y-32353D01*
X31072Y-32395D01*
X31082Y-32420D01*
X31108Y-32454D01*
X31247Y-32518D01*
X30817Y-32087D02*
X30886Y-32120D01*
X30913Y-32153D01*
X30922Y-32178D01*
X30932Y-32246D01*
X30917Y-32323D01*
X30853Y-32462D01*
X30819Y-32488D01*
X30794Y-32497D01*
X30752Y-32498D01*
X30682Y-32466D01*
X30656Y-32433D01*
X30646Y-32407D01*
X30645Y-32365D01*
X30686Y-32278D01*
X30719Y-32251D01*
X30744Y-32242D01*
X30787Y-32241D01*
X30857Y-32274D01*
X30883Y-32307D01*
X30892Y-32332D01*
X30893Y-32375D01*
X27316Y-28412D02*
X27450Y-28221D01*
X27545Y-28412D02*
X27545Y-28012D01*
X27392Y-28012D01*
X27354Y-28031D01*
X27335Y-28050D01*
X27316Y-28088D01*
X27316Y-28145D01*
X27335Y-28183D01*
X27354Y-28202D01*
X27392Y-28221D01*
X27545Y-28221D01*
X27183Y-28012D02*
X26916Y-28012D01*
X27088Y-28412D01*
X34628Y-32519D02*
X34669Y-32289D01*
X34836Y-32422D02*
X34667Y-32060D01*
X34528Y-32124D01*
X34502Y-32158D01*
X34493Y-32183D01*
X34491Y-32225D01*
X34515Y-32277D01*
X34549Y-32303D01*
X34574Y-32313D01*
X34616Y-32314D01*
X34755Y-32249D01*
X34456Y-32599D02*
X34387Y-32631D01*
X34344Y-32631D01*
X34319Y-32621D01*
X34260Y-32586D01*
X34210Y-32524D01*
X34146Y-32386D01*
X34147Y-32344D01*
X34156Y-32319D01*
X34183Y-32285D01*
X34253Y-32253D01*
X34295Y-32254D01*
X34320Y-32263D01*
X34354Y-32290D01*
X34394Y-32376D01*
X34393Y-32418D01*
X34383Y-32443D01*
X34357Y-32478D01*
X34288Y-32510D01*
X34245Y-32508D01*
X34219Y-32499D01*
X34186Y-32472D01*
X27307Y-27562D02*
X27441Y-27371D01*
X27536Y-27562D02*
X27536Y-27162D01*
X27383Y-27162D01*
X27345Y-27181D01*
X27326Y-27200D01*
X27307Y-27238D01*
X27307Y-27295D01*
X27326Y-27333D01*
X27345Y-27352D01*
X27383Y-27371D01*
X27536Y-27371D01*
X26926Y-27562D02*
X27155Y-27562D01*
X27041Y-27562D02*
X27041Y-27162D01*
X27079Y-27219D01*
X27117Y-27257D01*
X27155Y-27276D01*
X26679Y-27162D02*
X26640Y-27162D01*
X26602Y-27181D01*
X26583Y-27200D01*
X26564Y-27238D01*
X26545Y-27314D01*
X26545Y-27410D01*
X26564Y-27486D01*
X26583Y-27524D01*
X26602Y-27543D01*
X26640Y-27562D01*
X26679Y-27562D01*
X26717Y-27543D01*
X26736Y-27524D01*
X26755Y-27486D01*
X26774Y-27410D01*
X26774Y-27314D01*
X26755Y-27238D01*
X26736Y-27200D01*
X26717Y-27181D01*
X26679Y-27162D01*
X38740Y-24202D02*
X38874Y-24202D01*
X38874Y-24412D02*
X38874Y-24012D01*
X38683Y-24012D01*
X38588Y-24012D02*
X38359Y-24012D01*
X38474Y-24412D02*
X38474Y-24012D01*
X38226Y-24412D02*
X38226Y-24012D01*
X38131Y-24012D01*
X38073Y-24031D01*
X38035Y-24069D01*
X38016Y-24107D01*
X37997Y-24183D01*
X37997Y-24240D01*
X38016Y-24317D01*
X38035Y-24355D01*
X38073Y-24393D01*
X38131Y-24412D01*
X38226Y-24412D01*
X37826Y-24412D02*
X37826Y-24012D01*
%LPC*%
G54D18*
X30854Y-26757D03*
X30854Y-27072D03*
X30854Y-27387D03*
X30854Y-27702D03*
X30854Y-28017D03*
X30854Y-28332D03*
X30854Y-28647D03*
X30854Y-28962D03*
X34620Y-28960D03*
X34620Y-26750D03*
X34620Y-27070D03*
X34620Y-27390D03*
X34620Y-27700D03*
X34620Y-28020D03*
X34620Y-28330D03*
X34620Y-28650D03*
G54D19*
X31638Y-29750D03*
X31952Y-29750D03*
X32268Y-29750D03*
X32582Y-29750D03*
X32898Y-29750D03*
X33212Y-29750D03*
X33528Y-29750D03*
X33842Y-29750D03*
X31640Y-25970D03*
X31950Y-25970D03*
X32270Y-25970D03*
X32580Y-25970D03*
X32890Y-25970D03*
X33210Y-25970D03*
X33530Y-25970D03*
X33850Y-25970D03*
G54D20*
X33750Y-22600D03*
G54D21*
X33750Y-23600D03*
X32750Y-22600D03*
X32750Y-23600D03*
X31750Y-22600D03*
X31750Y-23600D03*
G54D22*
X33124Y-31800D03*
X32376Y-31800D03*
G54D23*
X34850Y-22726D03*
X34850Y-23474D03*
X30650Y-23474D03*
X30650Y-22726D03*
G54D22*
X33124Y-33400D03*
X32376Y-33400D03*
G54D24*
X30050Y-25150D03*
X35450Y-25150D03*
X30050Y-30550D03*
X35450Y-30550D03*
G54D22*
X37274Y-28700D03*
X36526Y-28700D03*
G54D25*
X37251Y-27850D03*
X36149Y-27850D03*
G54D22*
X36526Y-27000D03*
X37274Y-27000D03*
G54D26*
X32376Y-34317D03*
X33124Y-34317D03*
X32750Y-35183D03*
G54D10*
G36*
X29597Y-33886D02*
X29863Y-33315D01*
X30291Y-33514D01*
X30025Y-34085D01*
X29597Y-33886D01*
X29597Y-33886D01*
G37*
G36*
X30275Y-34202D02*
X30541Y-33631D01*
X30969Y-33830D01*
X30703Y-34401D01*
X30275Y-34202D01*
X30275Y-34202D01*
G37*
G36*
X29570Y-34828D02*
X29836Y-34257D01*
X30264Y-34456D01*
X29998Y-35027D01*
X29570Y-34828D01*
X29570Y-34828D01*
G37*
G36*
X34747Y-34351D02*
X34481Y-33780D01*
X34909Y-33581D01*
X35175Y-34152D01*
X34747Y-34351D01*
X34747Y-34351D01*
G37*
G36*
X35425Y-34035D02*
X35159Y-33464D01*
X35587Y-33265D01*
X35853Y-33836D01*
X35425Y-34035D01*
X35425Y-34035D01*
G37*
G36*
X35452Y-34977D02*
X35186Y-34406D01*
X35614Y-34207D01*
X35880Y-34778D01*
X35452Y-34977D01*
X35452Y-34977D01*
G37*
G36*
X29902Y-33121D02*
X30185Y-32514D01*
X30720Y-32763D01*
X30437Y-33370D01*
X29902Y-33121D01*
X29902Y-33121D01*
G37*
G36*
X30580Y-33437D02*
X30863Y-32830D01*
X31398Y-33079D01*
X31115Y-33686D01*
X30580Y-33437D01*
X30580Y-33437D01*
G37*
G54D22*
X28226Y-28250D03*
X28974Y-28250D03*
G54D10*
G36*
X34335Y-33636D02*
X34052Y-33029D01*
X34587Y-32780D01*
X34870Y-33387D01*
X34335Y-33636D01*
X34335Y-33636D01*
G37*
G36*
X35013Y-33320D02*
X34730Y-32713D01*
X35265Y-32464D01*
X35548Y-33071D01*
X35013Y-33320D01*
X35013Y-33320D01*
G37*
G54D22*
X28226Y-27400D03*
X28974Y-27400D03*
G54D27*
X25450Y-30550D03*
G54D28*
X26450Y-30550D03*
X27450Y-30550D03*
X28450Y-30550D03*
G54D27*
X25450Y-25150D03*
G54D28*
X26450Y-25150D03*
X27450Y-25150D03*
X28450Y-25150D03*
G54D27*
X38350Y-30300D03*
G54D28*
X38350Y-29300D03*
X38350Y-28300D03*
X38350Y-27300D03*
X38350Y-26300D03*
X38350Y-25300D03*
M02*
