G04 (created by PCBNEW-RS274X (2011-07-08)-stable) date Tue 20 Dec 2011 01:41:43 PM CET*
G01*
G70*
G90*
%MOIN*%
G04 Gerber Fmt 3.4, Leading zero omitted, Abs format*
%FSLAX34Y34*%
G04 APERTURE LIST*
%ADD10C,0.006000*%
%ADD11C,0.015000*%
%ADD12R,0.035400X0.059100*%
%ADD13R,0.059100X0.035400*%
%ADD14R,0.060000X0.060000*%
%ADD15C,0.060000*%
%ADD16R,0.023600X0.086600*%
%ADD17R,0.059000X0.051100*%
%ADD18C,0.160000*%
%ADD19R,0.062900X0.070800*%
%ADD20R,0.055000X0.055000*%
%ADD21C,0.055000*%
%ADD22R,0.051100X0.059000*%
%ADD23R,0.047200X0.047200*%
%ADD24R,0.059100X0.063000*%
%ADD25C,0.035000*%
%ADD26C,0.012000*%
%ADD27C,0.010000*%
G04 APERTURE END LIST*
G54D10*
G54D11*
X32750Y-19300D02*
X32005Y-19333D01*
X31266Y-19430D01*
X30538Y-19592D01*
X29826Y-19816D01*
X29137Y-20102D01*
X28476Y-20446D01*
X27846Y-20847D01*
X27255Y-21301D01*
X26705Y-21805D01*
X26201Y-22355D01*
X25747Y-22946D01*
X25346Y-23576D01*
X25002Y-24237D01*
X24716Y-24926D01*
X24492Y-25638D01*
X24330Y-26366D01*
X24233Y-27105D01*
X24200Y-27850D01*
X24200Y-27850D02*
X24233Y-28595D01*
X24330Y-29334D01*
X24492Y-30062D01*
X24716Y-30774D01*
X25002Y-31463D01*
X25346Y-32124D01*
X25747Y-32754D01*
X26201Y-33345D01*
X26705Y-33895D01*
X27255Y-34399D01*
X27846Y-34853D01*
X28476Y-35254D01*
X29137Y-35598D01*
X29826Y-35884D01*
X30538Y-36108D01*
X31266Y-36270D01*
X32005Y-36367D01*
X32750Y-36400D01*
X32750Y-36400D02*
X33495Y-36367D01*
X34234Y-36270D01*
X34962Y-36108D01*
X35674Y-35884D01*
X36363Y-35598D01*
X37025Y-35254D01*
X37654Y-34853D01*
X38245Y-34399D01*
X38795Y-33895D01*
X39299Y-33345D01*
X39753Y-32754D01*
X40154Y-32124D01*
X40498Y-31463D01*
X40784Y-30774D01*
X41008Y-30062D01*
X41170Y-29334D01*
X41267Y-28595D01*
X41300Y-27850D01*
X41300Y-27850D02*
X41267Y-27105D01*
X41170Y-26366D01*
X41008Y-25638D01*
X40784Y-24926D01*
X40498Y-24237D01*
X40154Y-23576D01*
X39753Y-22946D01*
X39299Y-22355D01*
X38795Y-21805D01*
X38245Y-21301D01*
X37654Y-20847D01*
X37025Y-20446D01*
X36363Y-20102D01*
X35674Y-19816D01*
X34962Y-19592D01*
X34234Y-19430D01*
X33495Y-19333D01*
X32750Y-19300D01*
G54D10*
G36*
X27817Y-33807D02*
X28234Y-34224D01*
X27983Y-34475D01*
X27566Y-34058D01*
X27817Y-33807D01*
X27817Y-33807D01*
G37*
G36*
X28263Y-33362D02*
X28680Y-33779D01*
X28429Y-34030D01*
X28012Y-33613D01*
X28263Y-33362D01*
X28263Y-33362D01*
G37*
G36*
X28708Y-32916D02*
X29125Y-33333D01*
X28874Y-33584D01*
X28457Y-33167D01*
X28708Y-32916D01*
X28708Y-32916D01*
G37*
G36*
X27317Y-31525D02*
X27734Y-31942D01*
X27483Y-32193D01*
X27066Y-31776D01*
X27317Y-31525D01*
X27317Y-31525D01*
G37*
G36*
X26871Y-31970D02*
X27288Y-32387D01*
X27037Y-32638D01*
X26620Y-32221D01*
X26871Y-31970D01*
X26871Y-31970D01*
G37*
G36*
X26426Y-32416D02*
X26843Y-32833D01*
X26592Y-33084D01*
X26175Y-32667D01*
X26426Y-32416D01*
X26426Y-32416D01*
G37*
G54D12*
X24870Y-28834D03*
X25500Y-28834D03*
X26130Y-28834D03*
X26130Y-26866D03*
X25500Y-26866D03*
X24870Y-26866D03*
G54D10*
G36*
X26793Y-22917D02*
X26376Y-23334D01*
X26125Y-23083D01*
X26542Y-22666D01*
X26793Y-22917D01*
X26793Y-22917D01*
G37*
G36*
X27238Y-23363D02*
X26821Y-23780D01*
X26570Y-23529D01*
X26987Y-23112D01*
X27238Y-23363D01*
X27238Y-23363D01*
G37*
G36*
X27684Y-23808D02*
X27267Y-24225D01*
X27016Y-23974D01*
X27433Y-23557D01*
X27684Y-23808D01*
X27684Y-23808D01*
G37*
G36*
X29075Y-22417D02*
X28658Y-22834D01*
X28407Y-22583D01*
X28824Y-22166D01*
X29075Y-22417D01*
X29075Y-22417D01*
G37*
G36*
X28630Y-21971D02*
X28213Y-22388D01*
X27962Y-22137D01*
X28379Y-21720D01*
X28630Y-21971D01*
X28630Y-21971D01*
G37*
G36*
X28184Y-21526D02*
X27767Y-21943D01*
X27516Y-21692D01*
X27933Y-21275D01*
X28184Y-21526D01*
X28184Y-21526D01*
G37*
G54D13*
X31766Y-19970D03*
X31766Y-20600D03*
X31766Y-21230D03*
X33734Y-21230D03*
X33734Y-20600D03*
X33734Y-19970D03*
G54D10*
G36*
X37683Y-21943D02*
X37266Y-21526D01*
X37517Y-21275D01*
X37934Y-21692D01*
X37683Y-21943D01*
X37683Y-21943D01*
G37*
G36*
X37237Y-22388D02*
X36820Y-21971D01*
X37071Y-21720D01*
X37488Y-22137D01*
X37237Y-22388D01*
X37237Y-22388D01*
G37*
G36*
X36792Y-22834D02*
X36375Y-22417D01*
X36626Y-22166D01*
X37043Y-22583D01*
X36792Y-22834D01*
X36792Y-22834D01*
G37*
G36*
X38183Y-24225D02*
X37766Y-23808D01*
X38017Y-23557D01*
X38434Y-23974D01*
X38183Y-24225D01*
X38183Y-24225D01*
G37*
G36*
X38629Y-23780D02*
X38212Y-23363D01*
X38463Y-23112D01*
X38880Y-23529D01*
X38629Y-23780D01*
X38629Y-23780D01*
G37*
G36*
X39074Y-23334D02*
X38657Y-22917D01*
X38908Y-22666D01*
X39325Y-23083D01*
X39074Y-23334D01*
X39074Y-23334D01*
G37*
G54D12*
X40630Y-26866D03*
X40000Y-26866D03*
X39370Y-26866D03*
X39370Y-28834D03*
X40000Y-28834D03*
X40630Y-28834D03*
G54D10*
G36*
X38657Y-32833D02*
X39074Y-32416D01*
X39325Y-32667D01*
X38908Y-33084D01*
X38657Y-32833D01*
X38657Y-32833D01*
G37*
G36*
X38212Y-32387D02*
X38629Y-31970D01*
X38880Y-32221D01*
X38463Y-32638D01*
X38212Y-32387D01*
X38212Y-32387D01*
G37*
G36*
X37766Y-31942D02*
X38183Y-31525D01*
X38434Y-31776D01*
X38017Y-32193D01*
X37766Y-31942D01*
X37766Y-31942D01*
G37*
G36*
X36375Y-33333D02*
X36792Y-32916D01*
X37043Y-33167D01*
X36626Y-33584D01*
X36375Y-33333D01*
X36375Y-33333D01*
G37*
G36*
X36820Y-33779D02*
X37237Y-33362D01*
X37488Y-33613D01*
X37071Y-34030D01*
X36820Y-33779D01*
X36820Y-33779D01*
G37*
G36*
X37266Y-34224D02*
X37683Y-33807D01*
X37934Y-34058D01*
X37517Y-34475D01*
X37266Y-34224D01*
X37266Y-34224D01*
G37*
G54D13*
X33734Y-35730D03*
X33734Y-35100D03*
X33734Y-34470D03*
X31766Y-34470D03*
X31766Y-35100D03*
X31766Y-35730D03*
G54D14*
X33750Y-22600D03*
G54D15*
X33750Y-23600D03*
X32750Y-22600D03*
X32750Y-23600D03*
X31750Y-22600D03*
X31750Y-23600D03*
G54D16*
X31000Y-28873D03*
X31500Y-28873D03*
X32000Y-28873D03*
X32500Y-28873D03*
X33000Y-28873D03*
X33500Y-28873D03*
X34000Y-28873D03*
X34500Y-28873D03*
X34500Y-26827D03*
X34000Y-26827D03*
X33500Y-26827D03*
X33000Y-26827D03*
X32500Y-26827D03*
X32000Y-26827D03*
X31500Y-26827D03*
X31000Y-26827D03*
G54D17*
X29850Y-27476D03*
X29850Y-28224D03*
G54D18*
X30050Y-25150D03*
X35450Y-25150D03*
X30050Y-30550D03*
X35450Y-30550D03*
G54D19*
X32199Y-25700D03*
X33301Y-25700D03*
G54D20*
X25450Y-30550D03*
G54D21*
X26450Y-30550D03*
X27450Y-30550D03*
X28450Y-30550D03*
G54D20*
X25450Y-25150D03*
G54D21*
X26450Y-25150D03*
X27450Y-25150D03*
X28450Y-25150D03*
G54D22*
X32376Y-24800D03*
X33124Y-24800D03*
G54D20*
X38350Y-30300D03*
G54D21*
X38350Y-29300D03*
X38350Y-28300D03*
X38350Y-27300D03*
X38350Y-26300D03*
X38350Y-25300D03*
G54D23*
X29059Y-28244D03*
X29059Y-27456D03*
G54D24*
X27779Y-27850D03*
G54D25*
X37809Y-33567D03*
X32403Y-35683D03*
X39631Y-30554D03*
X31203Y-34330D03*
X32070Y-27504D03*
X31737Y-28221D03*
X35343Y-28322D03*
X35858Y-29402D03*
X39543Y-29403D03*
X32974Y-19930D03*
X28356Y-29439D03*
X28123Y-24664D03*
X28615Y-23439D03*
X27555Y-23098D03*
X31176Y-30120D03*
X26551Y-30005D03*
X31584Y-30685D03*
X29256Y-33626D03*
X37791Y-24857D03*
X36424Y-34272D03*
X36757Y-26359D03*
X39216Y-31635D03*
X39369Y-26307D03*
X37876Y-26729D03*
X36880Y-25260D03*
X37203Y-22844D03*
X32490Y-24202D03*
X34258Y-32407D03*
X29702Y-31789D03*
X33712Y-31764D03*
X29409Y-31496D03*
X33791Y-30387D03*
X31477Y-33990D03*
X32663Y-32853D03*
X29305Y-26428D03*
X33212Y-27567D03*
X27634Y-28845D03*
X32898Y-28179D03*
X34361Y-34788D03*
X28626Y-25792D03*
X33062Y-31005D03*
X32188Y-28159D03*
X32274Y-30585D03*
X29830Y-29008D03*
X33351Y-24101D03*
X33616Y-32299D03*
X27945Y-29225D03*
X34850Y-24040D03*
X38225Y-24732D03*
X30826Y-26080D03*
G54D26*
X31766Y-35730D02*
X31328Y-35730D01*
X24870Y-26866D02*
X24870Y-26428D01*
X26526Y-32767D02*
X26819Y-33060D01*
X26526Y-32767D02*
X26509Y-32750D01*
X38991Y-23000D02*
X38681Y-22690D01*
X33734Y-19970D02*
X34172Y-19970D01*
X37600Y-34141D02*
X37910Y-33831D01*
X37809Y-33730D02*
X37910Y-33831D01*
X37809Y-33567D02*
X37809Y-33730D01*
X31766Y-35730D02*
X32205Y-35730D01*
X32252Y-35683D02*
X32403Y-35683D01*
X32205Y-35730D02*
X32252Y-35683D01*
X24984Y-26428D02*
X24870Y-26428D01*
X26013Y-25399D02*
X24984Y-26428D01*
X26013Y-24747D02*
X26013Y-25399D01*
X26047Y-24713D02*
X26013Y-24747D01*
X26998Y-24713D02*
X26047Y-24713D01*
X27891Y-23820D02*
X26998Y-24713D01*
X27891Y-22270D02*
X27891Y-23820D01*
X27540Y-21919D02*
X27891Y-22270D01*
X27731Y-21728D02*
X27540Y-21919D01*
X27731Y-21728D02*
X27850Y-21609D01*
X27850Y-21609D02*
X28160Y-21299D01*
X29753Y-34155D02*
X31328Y-35730D01*
X29753Y-33672D02*
X29753Y-34155D01*
X28845Y-32764D02*
X29753Y-33672D01*
X27115Y-32764D02*
X28845Y-32764D01*
X26819Y-33060D02*
X27115Y-32764D01*
X33734Y-19970D02*
X33295Y-19970D01*
X38209Y-23162D02*
X38681Y-22690D01*
X36776Y-23162D02*
X38209Y-23162D01*
X34459Y-20845D02*
X36776Y-23162D01*
X34459Y-20257D02*
X34459Y-20845D01*
X34172Y-19970D02*
X34459Y-20257D01*
X40630Y-29555D02*
X40630Y-28834D01*
X39631Y-30554D02*
X40630Y-29555D01*
X39025Y-23586D02*
X39301Y-23310D01*
X39025Y-27195D02*
X39025Y-23586D01*
X40225Y-28395D02*
X39025Y-27195D01*
X40630Y-28395D02*
X40225Y-28395D01*
X40630Y-28834D02*
X40630Y-28395D01*
X38991Y-23000D02*
X39301Y-23310D01*
X33295Y-20161D02*
X33295Y-19970D01*
X32864Y-20592D02*
X33295Y-20161D01*
X32864Y-20889D02*
X32864Y-20592D01*
X32183Y-21570D02*
X32864Y-20889D01*
X28431Y-21570D02*
X32183Y-21570D01*
X28160Y-21299D02*
X28431Y-21570D01*
X39370Y-28834D02*
X39370Y-28395D01*
X27400Y-31859D02*
X27555Y-32014D01*
X26130Y-26866D02*
X26904Y-26866D01*
X38808Y-24599D02*
X38410Y-24201D01*
X38808Y-27833D02*
X38808Y-24599D01*
X39370Y-28395D02*
X38808Y-27833D01*
X28594Y-22647D02*
X28431Y-22810D01*
X28594Y-22647D02*
X28741Y-22500D01*
X33734Y-21230D02*
X33295Y-21230D01*
X38124Y-23915D02*
X38410Y-24201D01*
X38124Y-23915D02*
X38100Y-23891D01*
X36523Y-23581D02*
X34172Y-21230D01*
X37790Y-23581D02*
X36523Y-23581D01*
X38100Y-23891D02*
X37790Y-23581D01*
X33734Y-21230D02*
X34172Y-21230D01*
X27950Y-25820D02*
X26904Y-26866D01*
X27950Y-24940D02*
X27950Y-25820D01*
X27805Y-24795D02*
X27950Y-24940D01*
X27805Y-24522D02*
X27805Y-24795D01*
X28297Y-24030D02*
X27805Y-24522D01*
X28297Y-22944D02*
X28297Y-24030D01*
X28431Y-22810D02*
X28297Y-22944D01*
X27950Y-29756D02*
X27950Y-31619D01*
X27010Y-28816D02*
X27950Y-29756D01*
X27010Y-26972D02*
X27010Y-28816D01*
X26904Y-26866D02*
X27010Y-26972D01*
X27950Y-31619D02*
X27555Y-32014D01*
X28492Y-31619D02*
X31203Y-34330D01*
X27950Y-31619D02*
X28492Y-31619D01*
X31328Y-34455D02*
X31203Y-34330D01*
X31328Y-34470D02*
X31328Y-34455D01*
X31766Y-34470D02*
X31328Y-34470D01*
X36709Y-33250D02*
X36399Y-33560D01*
X32481Y-22044D02*
X33295Y-21230D01*
X29197Y-22044D02*
X32481Y-22044D01*
X28741Y-22500D02*
X29197Y-22044D01*
X31766Y-34470D02*
X32205Y-34470D01*
X33115Y-33560D02*
X32205Y-34470D01*
X36399Y-33560D02*
X33115Y-33560D01*
G54D10*
X32500Y-27934D02*
X32070Y-27504D01*
X32500Y-28873D02*
X32500Y-27934D01*
X31611Y-28347D02*
X31737Y-28221D01*
X31500Y-28347D02*
X31611Y-28347D01*
X31500Y-28873D02*
X31500Y-28347D01*
G54D27*
X32194Y-21230D02*
X32194Y-20600D01*
X31766Y-21230D02*
X32194Y-21230D01*
X31766Y-20600D02*
X31980Y-20600D01*
X31980Y-20600D02*
X32194Y-20600D01*
X32194Y-20386D02*
X32194Y-19970D01*
X31980Y-20600D02*
X32194Y-20386D01*
X31766Y-19970D02*
X32194Y-19970D01*
X35103Y-28082D02*
X35343Y-28322D01*
X33552Y-28082D02*
X35103Y-28082D01*
X33000Y-28634D02*
X33552Y-28082D01*
X33000Y-28873D02*
X33000Y-28634D01*
X39237Y-29709D02*
X39543Y-29403D01*
X36165Y-29709D02*
X39237Y-29709D01*
X35858Y-29402D02*
X36165Y-29709D01*
X32234Y-19930D02*
X32974Y-19930D01*
X32194Y-19970D02*
X32234Y-19930D01*
X26459Y-23000D02*
X26761Y-22698D01*
X33500Y-28873D02*
X33500Y-29439D01*
X28532Y-29615D02*
X28356Y-29439D01*
X33324Y-29615D02*
X28532Y-29615D01*
X33500Y-29439D02*
X33324Y-29615D01*
X26904Y-23446D02*
X27207Y-23143D01*
X27207Y-23098D02*
X27207Y-23143D01*
X26807Y-22698D02*
X27207Y-23098D01*
X26761Y-22698D02*
X26807Y-22698D01*
X27207Y-23098D02*
X27555Y-23098D01*
X27652Y-23588D02*
X27207Y-23143D01*
X27652Y-23589D02*
X27652Y-23588D01*
X27350Y-23891D02*
X27652Y-23589D01*
X26904Y-23446D02*
X27207Y-23143D01*
X28615Y-24172D02*
X28123Y-24664D01*
X28615Y-23439D02*
X28615Y-24172D01*
X25500Y-28834D02*
X25500Y-29048D01*
X25285Y-29263D02*
X24870Y-29263D01*
X25500Y-29048D02*
X25285Y-29263D01*
X24870Y-28834D02*
X24870Y-29263D01*
X25715Y-29263D02*
X26130Y-29263D01*
X25500Y-29048D02*
X25715Y-29263D01*
X31494Y-29802D02*
X31176Y-30120D01*
X33637Y-29802D02*
X31494Y-29802D01*
X34000Y-29439D02*
X33637Y-29802D01*
X34000Y-28873D02*
X34000Y-29439D01*
X26130Y-28834D02*
X26130Y-29263D01*
X26130Y-29584D02*
X26130Y-29263D01*
X26551Y-30005D02*
X26130Y-29584D01*
X27900Y-34141D02*
X27598Y-33839D01*
X27598Y-33838D02*
X27598Y-33839D01*
X28043Y-33393D02*
X27598Y-33838D01*
X28346Y-33696D02*
X28043Y-33393D01*
X28791Y-33250D02*
X28943Y-33402D01*
X28943Y-33705D02*
X28649Y-33999D01*
X28943Y-33402D02*
X28943Y-33705D01*
X28346Y-33696D02*
X28649Y-33999D01*
X34500Y-28873D02*
X34500Y-29439D01*
X29167Y-33626D02*
X29256Y-33626D01*
X28943Y-33402D02*
X29167Y-33626D01*
X31584Y-30667D02*
X31584Y-30685D01*
X32150Y-30101D02*
X31584Y-30667D01*
X33599Y-30101D02*
X32150Y-30101D01*
X34261Y-29439D02*
X33599Y-30101D01*
X34500Y-29439D02*
X34261Y-29439D01*
X33734Y-35100D02*
X33520Y-35100D01*
X33306Y-35314D02*
X33306Y-35730D01*
X33520Y-35100D02*
X33306Y-35314D01*
X33734Y-35730D02*
X33306Y-35730D01*
X33734Y-34470D02*
X33306Y-34470D01*
X33306Y-34886D02*
X33520Y-35100D01*
X33306Y-34470D02*
X33306Y-34886D01*
X35596Y-35100D02*
X33734Y-35100D01*
X36424Y-34272D02*
X35596Y-35100D01*
X35821Y-26827D02*
X34500Y-26827D01*
X37791Y-24857D02*
X35821Y-26827D01*
X35723Y-27393D02*
X36757Y-26359D01*
X34000Y-27393D02*
X35723Y-27393D01*
X34000Y-26827D02*
X34000Y-27393D01*
X38100Y-31859D02*
X38404Y-31555D01*
X38849Y-32001D02*
X38849Y-31818D01*
X39032Y-31635D02*
X38849Y-31818D01*
X39216Y-31635D02*
X39032Y-31635D01*
X38666Y-31818D02*
X38404Y-31555D01*
X38849Y-31818D02*
X38666Y-31818D01*
X38546Y-32304D02*
X38698Y-32152D01*
X38698Y-32152D02*
X38849Y-32001D01*
X39075Y-32227D02*
X39295Y-32446D01*
X38773Y-32227D02*
X39075Y-32227D01*
X38698Y-32152D02*
X38773Y-32227D01*
X38991Y-32750D02*
X39295Y-32446D01*
X33500Y-26827D02*
X33500Y-27393D01*
X39370Y-26437D02*
X40000Y-26437D01*
X39370Y-26866D02*
X39370Y-26437D01*
X39370Y-26307D02*
X39369Y-26307D01*
X39370Y-26437D02*
X39370Y-26307D01*
X40000Y-26866D02*
X40000Y-26651D01*
X40000Y-26651D02*
X40000Y-26437D01*
X40214Y-26437D02*
X40630Y-26437D01*
X40000Y-26651D02*
X40214Y-26437D01*
X40630Y-26866D02*
X40630Y-26437D01*
X36707Y-27898D02*
X37876Y-26729D01*
X34005Y-27898D02*
X36707Y-27898D01*
X33500Y-27393D02*
X34005Y-27898D01*
X37902Y-21912D02*
X37457Y-22357D01*
X37902Y-21911D02*
X37902Y-21912D01*
X37600Y-21609D02*
X37902Y-21911D01*
X37154Y-22054D02*
X37457Y-22357D01*
X36709Y-22500D02*
X37011Y-22802D01*
X37054Y-22760D02*
X37457Y-22357D01*
X37054Y-22761D02*
X37054Y-22760D01*
X37052Y-22761D02*
X37054Y-22761D01*
X37011Y-22802D02*
X37052Y-22761D01*
X35879Y-26261D02*
X36880Y-25260D01*
X33000Y-26261D02*
X35879Y-26261D01*
X37053Y-22844D02*
X37011Y-22802D01*
X37203Y-22844D02*
X37053Y-22844D01*
X33000Y-26827D02*
X33000Y-26261D01*
G54D10*
X32746Y-24458D02*
X32490Y-24202D01*
X32746Y-26055D02*
X32746Y-24458D01*
X32500Y-26301D02*
X32746Y-26055D01*
X32500Y-26827D02*
X32500Y-26301D01*
X34097Y-32568D02*
X34258Y-32407D01*
X29842Y-32568D02*
X34097Y-32568D01*
X28450Y-31176D02*
X29842Y-32568D01*
X28450Y-30550D02*
X28450Y-31176D01*
X29727Y-31764D02*
X29702Y-31789D01*
X33712Y-31764D02*
X29727Y-31764D01*
X31239Y-31496D02*
X29409Y-31496D01*
X32006Y-30729D02*
X31239Y-31496D01*
X32006Y-30475D02*
X32006Y-30729D01*
X32217Y-30264D02*
X32006Y-30475D01*
X33668Y-30264D02*
X32217Y-30264D01*
X33791Y-30387D02*
X33668Y-30264D01*
X32614Y-32853D02*
X32663Y-32853D01*
X31477Y-33990D02*
X32614Y-32853D01*
X32557Y-27567D02*
X33212Y-27567D01*
X32289Y-27299D02*
X32557Y-27567D01*
X32289Y-26433D02*
X32289Y-27299D01*
X32156Y-26300D02*
X32289Y-26433D01*
X31344Y-26300D02*
X32156Y-26300D01*
X31289Y-26355D02*
X31344Y-26300D01*
X31289Y-27301D02*
X31289Y-26355D01*
X31216Y-27374D02*
X31289Y-27301D01*
X30831Y-27374D02*
X31216Y-27374D01*
X29885Y-26428D02*
X30831Y-27374D01*
X29305Y-26428D02*
X29885Y-26428D01*
X32712Y-28365D02*
X32898Y-28179D01*
X32712Y-29344D02*
X32712Y-28365D01*
X32636Y-29420D02*
X32712Y-29344D01*
X29790Y-29420D02*
X32636Y-29420D01*
X29215Y-28845D02*
X29790Y-29420D01*
X27634Y-28845D02*
X29215Y-28845D01*
X29059Y-28244D02*
X29388Y-28244D01*
X31028Y-27825D02*
X31500Y-27353D01*
X29478Y-27825D02*
X31028Y-27825D01*
X29388Y-27915D02*
X29478Y-27825D01*
X29388Y-28244D02*
X29388Y-27915D01*
X28336Y-27850D02*
X28730Y-28244D01*
X27779Y-27850D02*
X28336Y-27850D01*
X29059Y-28244D02*
X28730Y-28244D01*
X31500Y-26827D02*
X31500Y-27353D01*
G54D26*
X37154Y-33696D02*
X37465Y-33385D01*
X33734Y-20600D02*
X34172Y-20600D01*
X25500Y-26647D02*
X25500Y-26428D01*
X25500Y-26647D02*
X25500Y-26866D01*
X26872Y-31767D02*
X26645Y-31994D01*
X26872Y-29570D02*
X26872Y-31767D01*
X26801Y-29499D02*
X26872Y-29570D01*
X26801Y-28794D02*
X26801Y-29499D01*
X25500Y-27493D02*
X26801Y-28794D01*
X25500Y-26866D02*
X25500Y-27493D01*
X26954Y-32304D02*
X26645Y-31994D01*
X38465Y-23365D02*
X38546Y-23446D01*
X36617Y-23365D02*
X38465Y-23365D01*
X34172Y-20920D02*
X36617Y-23365D01*
X34172Y-20600D02*
X34172Y-20920D01*
X40000Y-29489D02*
X40000Y-28834D01*
X39924Y-29565D02*
X40000Y-29489D01*
X39924Y-29576D02*
X39924Y-29565D01*
X37464Y-32036D02*
X39924Y-29576D01*
X37464Y-33385D02*
X37464Y-32036D01*
X37465Y-33385D02*
X37464Y-33385D01*
X28094Y-22256D02*
X28296Y-22054D01*
X28094Y-23904D02*
X28094Y-22256D01*
X26981Y-25017D02*
X28094Y-23904D01*
X26981Y-25436D02*
X26981Y-25017D01*
X25989Y-26428D02*
X26981Y-25436D01*
X25500Y-26428D02*
X25989Y-26428D01*
X33295Y-20785D02*
X33295Y-20600D01*
X32240Y-21840D02*
X33295Y-20785D01*
X28510Y-21840D02*
X32240Y-21840D01*
X28296Y-22054D02*
X28510Y-21840D01*
X33734Y-20600D02*
X33295Y-20600D01*
X37154Y-33696D02*
X36845Y-34005D01*
X34361Y-34788D02*
X34361Y-33838D01*
X36677Y-33838D02*
X36845Y-34005D01*
X34361Y-33838D02*
X36677Y-33838D01*
X33467Y-33838D02*
X32205Y-35100D01*
X34361Y-33838D02*
X33467Y-33838D01*
X27171Y-32521D02*
X26954Y-32304D01*
X28891Y-32521D02*
X27171Y-32521D01*
X31328Y-34958D02*
X28891Y-32521D01*
X31328Y-35100D02*
X31328Y-34958D01*
X31766Y-35100D02*
X31328Y-35100D01*
X31766Y-35100D02*
X32205Y-35100D01*
G54D10*
X28824Y-25594D02*
X28626Y-25792D01*
X28824Y-25084D02*
X28824Y-25594D01*
X31308Y-22600D02*
X28824Y-25084D01*
X31750Y-22600D02*
X31308Y-22600D01*
X33769Y-31005D02*
X33062Y-31005D01*
X34459Y-30315D02*
X33769Y-31005D01*
X34459Y-30150D02*
X34459Y-30315D01*
X35495Y-29114D02*
X34459Y-30150D01*
X36536Y-29114D02*
X35495Y-29114D01*
X38350Y-27300D02*
X36536Y-29114D01*
X32000Y-28873D02*
X32000Y-28347D01*
X32000Y-28347D02*
X32188Y-28159D01*
X33037Y-30585D02*
X32274Y-30585D01*
X33211Y-30759D02*
X33037Y-30585D01*
X33806Y-30759D02*
X33211Y-30759D01*
X34167Y-30398D02*
X33806Y-30759D01*
X34167Y-30042D02*
X34167Y-30398D01*
X35584Y-28625D02*
X34167Y-30042D01*
X36405Y-28625D02*
X35584Y-28625D01*
X38350Y-26680D02*
X36405Y-28625D01*
X38350Y-26300D02*
X38350Y-26680D01*
G54D26*
X33124Y-25026D02*
X33124Y-24800D01*
X33301Y-25203D02*
X33124Y-25026D01*
X33301Y-25700D02*
X33301Y-25203D01*
X33354Y-25150D02*
X33301Y-25203D01*
X35450Y-25150D02*
X33354Y-25150D01*
X38350Y-30300D02*
X37932Y-30300D01*
X29850Y-28224D02*
X29850Y-28623D01*
X31000Y-28873D02*
X31000Y-28407D01*
X30784Y-28623D02*
X31000Y-28407D01*
X29850Y-28623D02*
X30784Y-28623D01*
X37682Y-30550D02*
X37932Y-30300D01*
X35450Y-30550D02*
X37682Y-30550D01*
X33351Y-24135D02*
X33124Y-24362D01*
X33351Y-24101D02*
X33351Y-24135D01*
X33124Y-24800D02*
X33124Y-24362D01*
X29850Y-28623D02*
X29830Y-28623D01*
X27832Y-27368D02*
X30050Y-25150D01*
X27373Y-27368D02*
X27832Y-27368D01*
X27339Y-27402D02*
X27373Y-27368D01*
X27339Y-28274D02*
X27339Y-27402D01*
X27405Y-28340D02*
X27339Y-28274D01*
X27734Y-28340D02*
X27405Y-28340D01*
X28017Y-28623D02*
X27734Y-28340D01*
X29830Y-28623D02*
X28017Y-28623D01*
X29830Y-28623D02*
X29830Y-29008D01*
X31600Y-23600D02*
X30050Y-25150D01*
X31750Y-23600D02*
X31600Y-23600D01*
G54D10*
X27945Y-29504D02*
X27945Y-29225D01*
X28939Y-30498D02*
X27945Y-29504D01*
X28939Y-31418D02*
X28939Y-30498D01*
X29820Y-32299D02*
X28939Y-31418D01*
X33616Y-32299D02*
X29820Y-32299D01*
X29442Y-27456D02*
X29059Y-27456D01*
X29462Y-27476D02*
X29442Y-27456D01*
X29850Y-27476D02*
X29462Y-27476D01*
G54D26*
X31551Y-25700D02*
X31000Y-26251D01*
X32199Y-25700D02*
X31551Y-25700D01*
X32199Y-25700D02*
X32199Y-25203D01*
X32199Y-24800D02*
X32376Y-24800D01*
X32199Y-25203D02*
X32199Y-24800D01*
X33306Y-23156D02*
X33750Y-23600D01*
X32539Y-23156D02*
X33306Y-23156D01*
X32199Y-23496D02*
X32539Y-23156D01*
X32199Y-24044D02*
X32199Y-23496D01*
X32172Y-24071D02*
X32199Y-24044D01*
X32172Y-24773D02*
X32172Y-24071D01*
X32199Y-24800D02*
X32172Y-24773D01*
X34410Y-23600D02*
X34850Y-24040D01*
X33750Y-23600D02*
X34410Y-23600D01*
X37533Y-24040D02*
X38225Y-24732D01*
X34850Y-24040D02*
X37533Y-24040D01*
X31000Y-26827D02*
X31000Y-26304D01*
X31000Y-26304D02*
X31000Y-26254D01*
X31000Y-26254D02*
X31000Y-26251D01*
X31000Y-26254D02*
X30826Y-26080D01*
M02*
