G04 (created by PCBnew (20090216-final)) date Tue 05 Jan 2010 07:43:12 PM CET*
G01*
G70*
G90*
%MOIN*%
G04 Gerber Fmt 3.4, Leading zero omitted, Abs format*
%FSLAX34Y34*%
G04 APERTURE LIST*
%ADD10C,0.015000*%
%ADD11R,0.055000X0.055000*%
%ADD12C,0.055000*%
%ADD13R,0.060000X0.060000*%
%ADD14C,0.060000*%
%ADD15R,0.051100X0.059000*%
%ADD16R,0.062900X0.070800*%
%ADD17R,0.040000X0.040000*%
%ADD18C,0.045000*%
%ADD19C,0.012000*%
%ADD20R,0.078700X0.017700*%
%ADD21R,0.017700X0.078700*%
%ADD22R,0.035400X0.059100*%
%ADD23R,0.059100X0.035400*%
%ADD24C,0.007500*%
%ADD25C,0.015000*%
%ADD26C,0.008000*%
%ADD27C,0.002600*%
%ADD28C,0.002000*%
%ADD29C,0.004000*%
%ADD30C,0.006000*%
%ADD31C,0.001000*%
%ADD32C,0.010000*%
%ADD33R,0.063000X0.063000*%
%ADD34C,0.063000*%
%ADD35R,0.068000X0.068000*%
%ADD36C,0.068000*%
%ADD37R,0.059100X0.067000*%
%ADD38R,0.070900X0.078800*%
%ADD39R,0.048000X0.048000*%
%ADD40R,0.086700X0.025700*%
%ADD41R,0.025700X0.086700*%
%ADD42R,0.043400X0.067100*%
%ADD43R,0.067100X0.043400*%
G04 APERTURE END LIST*
G54D10*
X41220Y-28070D02*
X41038Y-26340D01*
X41038Y-26340D02*
X40501Y-24686D01*
X40501Y-24686D02*
X39631Y-23180D01*
X39631Y-23180D02*
X38467Y-21887D01*
X38467Y-21887D02*
X37060Y-20865D01*
X37060Y-20865D02*
X35471Y-20157D01*
X35471Y-20157D02*
X33770Y-19796D01*
X33770Y-19796D02*
X32900Y-19750D01*
X32900Y-19750D02*
X31170Y-19932D01*
X31170Y-19932D02*
X29516Y-20469D01*
X29516Y-20469D02*
X28010Y-21339D01*
X28010Y-21339D02*
X26717Y-22503D01*
X26717Y-22503D02*
X25695Y-23910D01*
X25695Y-23910D02*
X24987Y-25499D01*
X24987Y-25499D02*
X24626Y-27200D01*
X24626Y-27200D02*
X24580Y-28070D01*
X24580Y-28070D02*
X24762Y-29800D01*
X24762Y-29800D02*
X25299Y-31454D01*
X25299Y-31454D02*
X26169Y-32960D01*
X26169Y-32960D02*
X27333Y-34253D01*
X27333Y-34253D02*
X28740Y-35275D01*
X28740Y-35275D02*
X30329Y-35983D01*
X30329Y-35983D02*
X32030Y-36344D01*
X32030Y-36344D02*
X32900Y-36390D01*
X32900Y-36390D02*
X34630Y-36208D01*
X34630Y-36208D02*
X36284Y-35671D01*
X36284Y-35671D02*
X37790Y-34801D01*
X37790Y-34801D02*
X39083Y-33637D01*
X39083Y-33637D02*
X40105Y-32230D01*
X40105Y-32230D02*
X40813Y-30641D01*
X40813Y-30641D02*
X41174Y-28940D01*
X41174Y-28940D02*
X41220Y-28070D01*
M02*
