G04 (created by PCBnew (20090216-final)) date Wed 06 Jan 2010 07:20:39 PM CET*
G01*
G70*
G90*
%MOIN*%
G04 Gerber Fmt 3.4, Leading zero omitted, Abs format*
%FSLAX34Y34*%
G04 APERTURE LIST*
%ADD10R,0.063000X0.063000*%
%ADD11C,0.055000*%
%ADD12R,0.060000X0.060000*%
%ADD13C,0.060000*%
%ADD14R,0.051100X0.059000*%
%ADD15R,0.062900X0.070800*%
%ADD16R,0.070800X0.062900*%
%ADD17R,0.087900X0.047900*%
%ADD18R,0.086600X0.141700*%
%ADD19C,0.045000*%
%ADD20C,0.012000*%
%ADD21R,0.078700X0.017700*%
%ADD22R,0.017700X0.078700*%
%ADD23R,0.035400X0.059100*%
%ADD24R,0.059100X0.035400*%
%ADD25C,0.010000*%
%ADD26C,0.007500*%
%ADD27C,0.015000*%
%ADD28C,0.002600*%
%ADD29C,0.002000*%
%ADD30C,0.004000*%
%ADD31C,0.006000*%
%ADD32C,0.001000*%
%ADD33C,0.063000*%
%ADD34R,0.068000X0.068000*%
%ADD35C,0.068000*%
%ADD36R,0.059100X0.067000*%
%ADD37R,0.070900X0.078800*%
%ADD38R,0.078800X0.070900*%
%ADD39R,0.095900X0.055900*%
%ADD40R,0.094600X0.149700*%
G04 APERTURE END LIST*
G54D10*
X32800Y-31200D03*
G54D33*
X32800Y-32200D03*
X32800Y-33200D03*
G54D34*
X31600Y-31200D03*
G54D35*
X30600Y-31200D03*
X31600Y-32200D03*
X30600Y-32200D03*
X31600Y-33200D03*
X30600Y-33200D03*
G54D34*
X35000Y-31200D03*
G54D35*
X34000Y-31200D03*
X35000Y-32200D03*
X34000Y-32200D03*
X35000Y-33200D03*
X34000Y-33200D03*
G54D10*
X30300Y-24400D03*
G54D33*
X31300Y-24400D03*
X32300Y-24400D03*
X33300Y-24400D03*
X34300Y-24400D03*
X35300Y-24400D03*
G54D10*
X36300Y-25400D03*
G54D33*
X36300Y-26400D03*
X36300Y-27400D03*
X36300Y-28400D03*
X36300Y-29400D03*
X36300Y-30400D03*
G54D10*
X29295Y-25400D03*
G54D33*
X29295Y-26400D03*
X29295Y-27400D03*
X29295Y-28400D03*
X29295Y-29400D03*
X29295Y-30400D03*
G54D36*
X39881Y-25480D03*
X39133Y-25480D03*
X29626Y-34600D03*
X30374Y-34600D03*
X32426Y-34600D03*
X33174Y-34600D03*
X35226Y-34600D03*
X35974Y-34600D03*
X26194Y-27920D03*
X25446Y-27920D03*
G54D37*
X25914Y-25490D03*
X27016Y-25490D03*
G54D36*
X39656Y-28050D03*
X40404Y-28050D03*
G54D38*
X35650Y-21549D03*
X35650Y-22651D03*
X30150Y-22651D03*
X30150Y-21549D03*
G54D39*
X31680Y-22609D03*
X31680Y-21700D03*
X31680Y-20791D03*
G54D40*
X34120Y-21700D03*
M02*
