M48
INCH,TZ
T1C0.025
T2C0.032
T3C0.040
T4C0.120
%
G90
G05
T1
X025716Y-028039
X025870Y-024860
X026294Y-032207
X026563Y-028039
X026871Y-029738
X027054Y-024493
X027228Y-033866
X027341Y-030221
X027447Y-030980
X027890Y-023164
X028611Y-021384
X028728Y-031824
X029913Y-027746
X029961Y-028958
X030662Y-034113
X030897Y-033385
X031038Y-029771
X031487Y-027163
X032376Y-020969
X032471Y-023764
X032588Y-034622
X032661Y-031048
X032711Y-025292
X033099Y-034272
X033199Y-020600
X033823Y-021761
X034178Y-025952
X034222Y-024813
X034277Y-029280
X035778Y-027676
X035894Y-034152
X036171Y-022278
X037195Y-031902
X037353Y-023164
X037490Y-029643
X037934Y-029617
X038155Y-033615
X038370Y-031068
X039053Y-031639
X039142Y-030727
X039327Y-026153
X039421Y-027504
X039601Y-025639
T2
X027239Y-025411
X027946Y-024704
X028654Y-023996
X029361Y-023289
X030250Y-022250
X031250Y-022250
X032250Y-022250
X033250Y-022250
X034250Y-022250
X035250Y-022250
X036089Y-023289
X036796Y-023996
X037504Y-024704
X038211Y-025411
T3
X032250Y-026850
X032250Y-027850
X032250Y-028850
X033250Y-026850
X033250Y-027850
X033250Y-028850
T4
X030050Y-025150
X030050Y-030550
X035450Y-025150
X035450Y-030550
T0
M30
