M48
INCH,TZ
T1C0.025
T2C0.032
T3C0.040
%
G05
T1
X2.615Y-2.956
X2.639Y-2.403
X2.746Y-2.991
X2.835Y-3.248
X2.866Y-2.870
X2.868Y-2.758
X2.887Y-3.127
X2.900Y-3.180
X2.904Y-3.411
X2.921Y-2.392
X2.946Y-2.151
X3.087Y-3.561
X3.089Y-3.055
X3.099Y-3.404
X3.130Y-3.517
X3.193Y-2.688
X3.202Y-2.900
X3.206Y-2.846
X3.283Y-2.668
X3.301Y-3.592
X3.330Y-3.352
X3.353Y-2.672
X3.368Y-2.887
X3.369Y-2.827
X3.410Y-2.276
X3.469Y-3.401
X3.631Y-2.216
X3.632Y-3.389
X3.644Y-3.135
X3.699Y-2.988
X3.748Y-3.222
X3.902Y-2.780
T2
X2.929Y-2.540
X2.929Y-2.640
X2.929Y-2.740
X2.929Y-2.840
X2.929Y-2.940
X2.929Y-3.040
X3.030Y-2.440
X3.130Y-2.440
X3.230Y-2.440
X3.280Y-3.120
X3.280Y-3.220
X3.280Y-3.320
X3.330Y-2.440
X3.430Y-2.440
X3.530Y-2.440
X3.630Y-2.540
X3.630Y-2.640
X3.630Y-2.740
X3.630Y-2.840
X3.630Y-2.940
X3.630Y-3.040
T3
X3.060Y-3.120
X3.060Y-3.220
X3.060Y-3.320
X3.160Y-3.120
X3.160Y-3.220
X3.160Y-3.320
X3.400Y-3.120
X3.400Y-3.220
X3.400Y-3.320
X3.500Y-3.120
X3.500Y-3.220
X3.500Y-3.320
T0
M30
