G04 (created by PCBNEW-RS274X (2011-07-08)-stable) date Wed 21 Dec 2011 04:41:29 PM CET*
G01*
G70*
G90*
%MOIN*%
G04 Gerber Fmt 3.4, Leading zero omitted, Abs format*
%FSLAX34Y34*%
G04 APERTURE LIST*
%ADD10C,0.006000*%
%ADD11C,0.008000*%
%ADD12C,0.015000*%
%ADD13C,0.000100*%
%ADD14C,0.002600*%
%ADD15C,0.002000*%
%ADD16C,0.004000*%
%ADD17C,0.010000*%
%ADD18R,0.086700X0.025700*%
%ADD19R,0.025700X0.086700*%
%ADD20R,0.043400X0.067100*%
%ADD21R,0.067100X0.043400*%
%ADD22R,0.068000X0.068000*%
%ADD23C,0.068000*%
%ADD24R,0.067000X0.059100*%
%ADD25R,0.059100X0.067000*%
%ADD26C,0.168000*%
%ADD27R,0.063000X0.063000*%
%ADD28C,0.063000*%
%ADD29R,0.078800X0.070900*%
%ADD30R,0.070900X0.078800*%
G04 APERTURE END LIST*
G54D10*
G54D11*
X29988Y-32343D02*
X30388Y-32343D01*
X29988Y-32533D02*
X30388Y-32533D01*
X29988Y-32762D01*
X30388Y-32762D01*
X30388Y-32895D02*
X30388Y-33124D01*
X29988Y-33009D02*
X30388Y-33009D01*
X30198Y-33257D02*
X30198Y-33391D01*
X29988Y-33448D02*
X29988Y-33257D01*
X30388Y-33257D01*
X30388Y-33448D01*
X29988Y-33619D02*
X30388Y-33619D01*
X29988Y-33848D01*
X30388Y-33848D01*
X30007Y-34019D02*
X29988Y-34076D01*
X29988Y-34172D01*
X30007Y-34210D01*
X30026Y-34229D01*
X30064Y-34248D01*
X30102Y-34248D01*
X30140Y-34229D01*
X30160Y-34210D01*
X30179Y-34172D01*
X30198Y-34095D01*
X30217Y-34057D01*
X30236Y-34038D01*
X30274Y-34019D01*
X30312Y-34019D01*
X30350Y-34038D01*
X30369Y-34057D01*
X30388Y-34095D01*
X30388Y-34191D01*
X30369Y-34248D01*
X30198Y-34419D02*
X30198Y-34553D01*
X29988Y-34610D02*
X29988Y-34419D01*
X30388Y-34419D01*
X30388Y-34610D01*
X29988Y-34972D02*
X29988Y-34781D01*
X30388Y-34781D01*
X30179Y-35181D02*
X29988Y-35181D01*
X30388Y-35048D02*
X30179Y-35181D01*
X30388Y-35315D01*
X29558Y-32877D02*
X29539Y-32934D01*
X29520Y-32953D01*
X29481Y-32972D01*
X29424Y-32972D01*
X29386Y-32953D01*
X29367Y-32934D01*
X29348Y-32896D01*
X29348Y-32743D01*
X29748Y-32743D01*
X29748Y-32877D01*
X29729Y-32915D01*
X29710Y-32934D01*
X29672Y-32953D01*
X29634Y-32953D01*
X29596Y-32934D01*
X29577Y-32915D01*
X29558Y-32877D01*
X29558Y-32743D01*
X29348Y-33372D02*
X29539Y-33238D01*
X29348Y-33143D02*
X29748Y-33143D01*
X29748Y-33296D01*
X29729Y-33334D01*
X29710Y-33353D01*
X29672Y-33372D01*
X29615Y-33372D01*
X29577Y-33353D01*
X29558Y-33334D01*
X29539Y-33296D01*
X29539Y-33143D01*
X29348Y-33543D02*
X29748Y-33543D01*
X29729Y-33943D02*
X29748Y-33905D01*
X29748Y-33848D01*
X29729Y-33790D01*
X29691Y-33752D01*
X29653Y-33733D01*
X29577Y-33714D01*
X29520Y-33714D01*
X29443Y-33733D01*
X29405Y-33752D01*
X29367Y-33790D01*
X29348Y-33848D01*
X29348Y-33886D01*
X29367Y-33943D01*
X29386Y-33962D01*
X29520Y-33962D01*
X29520Y-33886D01*
X29348Y-34133D02*
X29748Y-34133D01*
X29558Y-34133D02*
X29558Y-34362D01*
X29348Y-34362D02*
X29748Y-34362D01*
X29748Y-34495D02*
X29748Y-34724D01*
X29348Y-34609D02*
X29748Y-34609D01*
X29386Y-34857D02*
X29367Y-34876D01*
X29348Y-34857D01*
X29367Y-34838D01*
X29386Y-34857D01*
X29348Y-34857D01*
X29500Y-34857D02*
X29729Y-34838D01*
X29748Y-34857D01*
X29729Y-34876D01*
X29500Y-34857D01*
X29748Y-34857D01*
X35438Y-32448D02*
X35038Y-32543D01*
X35324Y-32620D01*
X35038Y-32696D01*
X35438Y-32791D01*
X35152Y-32924D02*
X35152Y-33115D01*
X35038Y-32886D02*
X35438Y-33019D01*
X35038Y-33153D01*
X35038Y-33515D02*
X35229Y-33381D01*
X35038Y-33286D02*
X35438Y-33286D01*
X35438Y-33439D01*
X35419Y-33477D01*
X35400Y-33496D01*
X35362Y-33515D01*
X35305Y-33515D01*
X35267Y-33496D01*
X35248Y-33477D01*
X35229Y-33439D01*
X35229Y-33286D01*
X35038Y-33686D02*
X35438Y-33686D01*
X35038Y-33915D01*
X35438Y-33915D01*
X35038Y-34105D02*
X35438Y-34105D01*
X35038Y-34295D02*
X35438Y-34295D01*
X35038Y-34524D01*
X35438Y-34524D01*
X35419Y-34924D02*
X35438Y-34886D01*
X35438Y-34829D01*
X35419Y-34771D01*
X35381Y-34733D01*
X35343Y-34714D01*
X35267Y-34695D01*
X35210Y-34695D01*
X35133Y-34714D01*
X35095Y-34733D01*
X35057Y-34771D01*
X35038Y-34829D01*
X35038Y-34867D01*
X35057Y-34924D01*
X35076Y-34943D01*
X35210Y-34943D01*
X35210Y-34867D01*
X35076Y-35114D02*
X35057Y-35133D01*
X35038Y-35114D01*
X35057Y-35095D01*
X35076Y-35114D01*
X35038Y-35114D01*
X35190Y-35114D02*
X35419Y-35095D01*
X35438Y-35114D01*
X35419Y-35133D01*
X35190Y-35114D01*
X35438Y-35114D01*
X30026Y-22662D02*
X30159Y-23062D01*
X30293Y-22662D01*
X30407Y-22700D02*
X30426Y-22681D01*
X30464Y-22662D01*
X30560Y-22662D01*
X30598Y-22681D01*
X30617Y-22700D01*
X30636Y-22738D01*
X30636Y-22776D01*
X30617Y-22833D01*
X30388Y-23062D01*
X30636Y-23062D01*
X30807Y-23024D02*
X30826Y-23043D01*
X30807Y-23062D01*
X30788Y-23043D01*
X30807Y-23024D01*
X30807Y-23062D01*
X31073Y-22662D02*
X31112Y-22662D01*
X31150Y-22681D01*
X31169Y-22700D01*
X31188Y-22738D01*
X31207Y-22814D01*
X31207Y-22910D01*
X31188Y-22986D01*
X31169Y-23024D01*
X31150Y-23043D01*
X31112Y-23062D01*
X31073Y-23062D01*
X31035Y-23043D01*
X31016Y-23024D01*
X30997Y-22986D01*
X30978Y-22910D01*
X30978Y-22814D01*
X30997Y-22738D01*
X31016Y-22700D01*
X31035Y-22681D01*
X31073Y-22662D01*
X31683Y-23062D02*
X31683Y-22662D01*
X31683Y-22814D02*
X31721Y-22795D01*
X31798Y-22795D01*
X31836Y-22814D01*
X31855Y-22833D01*
X31874Y-22871D01*
X31874Y-22986D01*
X31855Y-23024D01*
X31836Y-23043D01*
X31798Y-23062D01*
X31721Y-23062D01*
X31683Y-23043D01*
X32198Y-23043D02*
X32160Y-23062D01*
X32083Y-23062D01*
X32045Y-23043D01*
X32026Y-23005D01*
X32026Y-22852D01*
X32045Y-22814D01*
X32083Y-22795D01*
X32160Y-22795D01*
X32198Y-22814D01*
X32217Y-22852D01*
X32217Y-22890D01*
X32026Y-22929D01*
X32331Y-22795D02*
X32483Y-22795D01*
X32388Y-22662D02*
X32388Y-23005D01*
X32407Y-23043D01*
X32445Y-23062D01*
X32483Y-23062D01*
X32789Y-23062D02*
X32789Y-22852D01*
X32770Y-22814D01*
X32732Y-22795D01*
X32655Y-22795D01*
X32617Y-22814D01*
X32789Y-23043D02*
X32751Y-23062D01*
X32655Y-23062D01*
X32617Y-23043D01*
X32598Y-23005D01*
X32598Y-22967D01*
X32617Y-22929D01*
X32655Y-22910D01*
X32751Y-22910D01*
X32789Y-22890D01*
X33284Y-22910D02*
X33589Y-22910D01*
X34065Y-22700D02*
X34084Y-22681D01*
X34122Y-22662D01*
X34218Y-22662D01*
X34256Y-22681D01*
X34275Y-22700D01*
X34294Y-22738D01*
X34294Y-22776D01*
X34275Y-22833D01*
X34046Y-23062D01*
X34294Y-23062D01*
X34541Y-22662D02*
X34580Y-22662D01*
X34618Y-22681D01*
X34637Y-22700D01*
X34656Y-22738D01*
X34675Y-22814D01*
X34675Y-22910D01*
X34656Y-22986D01*
X34637Y-23024D01*
X34618Y-23043D01*
X34580Y-23062D01*
X34541Y-23062D01*
X34503Y-23043D01*
X34484Y-23024D01*
X34465Y-22986D01*
X34446Y-22910D01*
X34446Y-22814D01*
X34465Y-22738D01*
X34484Y-22700D01*
X34503Y-22681D01*
X34541Y-22662D01*
X35056Y-23062D02*
X34827Y-23062D01*
X34941Y-23062D02*
X34941Y-22662D01*
X34903Y-22719D01*
X34865Y-22757D01*
X34827Y-22776D01*
X35437Y-23062D02*
X35208Y-23062D01*
X35322Y-23062D02*
X35322Y-22662D01*
X35284Y-22719D01*
X35246Y-22757D01*
X35208Y-22776D01*
X29787Y-23702D02*
X29787Y-23302D01*
X29787Y-23454D02*
X29825Y-23435D01*
X29902Y-23435D01*
X29940Y-23454D01*
X29959Y-23473D01*
X29978Y-23511D01*
X29978Y-23626D01*
X29959Y-23664D01*
X29940Y-23683D01*
X29902Y-23702D01*
X29825Y-23702D01*
X29787Y-23683D01*
X30206Y-23702D02*
X30168Y-23683D01*
X30149Y-23645D01*
X30149Y-23302D01*
X30416Y-23702D02*
X30378Y-23683D01*
X30359Y-23664D01*
X30340Y-23626D01*
X30340Y-23511D01*
X30359Y-23473D01*
X30378Y-23454D01*
X30416Y-23435D01*
X30474Y-23435D01*
X30512Y-23454D01*
X30531Y-23473D01*
X30550Y-23511D01*
X30550Y-23626D01*
X30531Y-23664D01*
X30512Y-23683D01*
X30474Y-23702D01*
X30416Y-23702D01*
X30893Y-23435D02*
X30893Y-23759D01*
X30874Y-23797D01*
X30855Y-23816D01*
X30816Y-23835D01*
X30759Y-23835D01*
X30721Y-23816D01*
X30893Y-23683D02*
X30855Y-23702D01*
X30778Y-23702D01*
X30740Y-23683D01*
X30721Y-23664D01*
X30702Y-23626D01*
X30702Y-23511D01*
X30721Y-23473D01*
X30740Y-23454D01*
X30778Y-23435D01*
X30855Y-23435D01*
X30893Y-23454D01*
X31083Y-23664D02*
X31102Y-23683D01*
X31083Y-23702D01*
X31064Y-23683D01*
X31083Y-23664D01*
X31083Y-23702D01*
X31254Y-23683D02*
X31292Y-23702D01*
X31368Y-23702D01*
X31407Y-23683D01*
X31426Y-23645D01*
X31426Y-23626D01*
X31407Y-23588D01*
X31368Y-23569D01*
X31311Y-23569D01*
X31273Y-23550D01*
X31254Y-23511D01*
X31254Y-23492D01*
X31273Y-23454D01*
X31311Y-23435D01*
X31368Y-23435D01*
X31407Y-23454D01*
X31597Y-23435D02*
X31597Y-23835D01*
X31597Y-23454D02*
X31635Y-23435D01*
X31712Y-23435D01*
X31750Y-23454D01*
X31769Y-23473D01*
X31788Y-23511D01*
X31788Y-23626D01*
X31769Y-23664D01*
X31750Y-23683D01*
X31712Y-23702D01*
X31635Y-23702D01*
X31597Y-23683D01*
X31959Y-23702D02*
X31959Y-23435D01*
X31959Y-23302D02*
X31940Y-23321D01*
X31959Y-23340D01*
X31978Y-23321D01*
X31959Y-23302D01*
X31959Y-23340D01*
X32092Y-23435D02*
X32244Y-23435D01*
X32149Y-23302D02*
X32149Y-23645D01*
X32168Y-23683D01*
X32206Y-23702D01*
X32244Y-23702D01*
X32340Y-23435D02*
X32550Y-23435D01*
X32340Y-23702D01*
X32550Y-23702D01*
X32855Y-23683D02*
X32817Y-23702D01*
X32740Y-23702D01*
X32702Y-23683D01*
X32683Y-23645D01*
X32683Y-23492D01*
X32702Y-23454D01*
X32740Y-23435D01*
X32817Y-23435D01*
X32855Y-23454D01*
X32874Y-23492D01*
X32874Y-23530D01*
X32683Y-23569D01*
X33045Y-23435D02*
X33045Y-23702D01*
X33045Y-23473D02*
X33064Y-23454D01*
X33102Y-23435D01*
X33160Y-23435D01*
X33198Y-23454D01*
X33217Y-23492D01*
X33217Y-23702D01*
X33407Y-23435D02*
X33407Y-23835D01*
X33407Y-23454D02*
X33445Y-23435D01*
X33522Y-23435D01*
X33560Y-23454D01*
X33579Y-23473D01*
X33598Y-23511D01*
X33598Y-23626D01*
X33579Y-23664D01*
X33560Y-23683D01*
X33522Y-23702D01*
X33445Y-23702D01*
X33407Y-23683D01*
X33712Y-23435D02*
X33864Y-23435D01*
X33769Y-23702D02*
X33769Y-23359D01*
X33788Y-23321D01*
X33826Y-23302D01*
X33864Y-23302D01*
X34151Y-23683D02*
X34113Y-23702D01*
X34036Y-23702D01*
X33998Y-23683D01*
X33979Y-23645D01*
X33979Y-23492D01*
X33998Y-23454D01*
X34036Y-23435D01*
X34113Y-23435D01*
X34151Y-23454D01*
X34170Y-23492D01*
X34170Y-23530D01*
X33979Y-23569D01*
X34341Y-23702D02*
X34341Y-23435D01*
X34341Y-23302D02*
X34322Y-23321D01*
X34341Y-23340D01*
X34360Y-23321D01*
X34341Y-23302D01*
X34341Y-23340D01*
X34588Y-23702D02*
X34550Y-23683D01*
X34531Y-23645D01*
X34531Y-23302D01*
X34741Y-23664D02*
X34760Y-23683D01*
X34741Y-23702D01*
X34722Y-23683D01*
X34741Y-23664D01*
X34741Y-23702D01*
X34988Y-23702D02*
X34950Y-23683D01*
X34931Y-23664D01*
X34912Y-23626D01*
X34912Y-23511D01*
X34931Y-23473D01*
X34950Y-23454D01*
X34988Y-23435D01*
X35046Y-23435D01*
X35084Y-23454D01*
X35103Y-23473D01*
X35122Y-23511D01*
X35122Y-23626D01*
X35103Y-23664D01*
X35084Y-23683D01*
X35046Y-23702D01*
X34988Y-23702D01*
X35293Y-23702D02*
X35293Y-23435D01*
X35293Y-23511D02*
X35312Y-23473D01*
X35331Y-23454D01*
X35369Y-23435D01*
X35408Y-23435D01*
X35713Y-23435D02*
X35713Y-23759D01*
X35694Y-23797D01*
X35675Y-23816D01*
X35636Y-23835D01*
X35579Y-23835D01*
X35541Y-23816D01*
X35713Y-23683D02*
X35675Y-23702D01*
X35598Y-23702D01*
X35560Y-23683D01*
X35541Y-23664D01*
X35522Y-23626D01*
X35522Y-23511D01*
X35541Y-23473D01*
X35560Y-23454D01*
X35598Y-23435D01*
X35675Y-23435D01*
X35713Y-23454D01*
G54D12*
X31259Y-25150D02*
X31235Y-25384D01*
X31167Y-25610D01*
X31057Y-25819D01*
X30907Y-26001D01*
X30726Y-26152D01*
X30518Y-26264D01*
X30293Y-26334D01*
X30058Y-26358D01*
X29824Y-26337D01*
X29598Y-26270D01*
X29388Y-26161D01*
X29205Y-26013D01*
X29053Y-25833D01*
X28939Y-25626D01*
X28868Y-25401D01*
X28842Y-25166D01*
X28861Y-24932D01*
X28926Y-24705D01*
X29034Y-24496D01*
X29181Y-24311D01*
X29361Y-24158D01*
X29566Y-24043D01*
X29791Y-23970D01*
X30025Y-23942D01*
X30259Y-23960D01*
X30487Y-24023D01*
X30697Y-24130D01*
X30883Y-24275D01*
X31037Y-24454D01*
X31154Y-24659D01*
X31228Y-24883D01*
X31258Y-25117D01*
X31259Y-25150D01*
X31254Y-30550D02*
X31231Y-30783D01*
X31163Y-31008D01*
X31052Y-31216D01*
X30904Y-31398D01*
X30723Y-31548D01*
X30516Y-31659D01*
X30292Y-31729D01*
X30058Y-31753D01*
X29825Y-31732D01*
X29599Y-31666D01*
X29391Y-31557D01*
X29208Y-31410D01*
X29057Y-31230D01*
X28944Y-31024D01*
X28873Y-30800D01*
X28847Y-30566D01*
X28866Y-30333D01*
X28931Y-30107D01*
X29038Y-29898D01*
X29184Y-29714D01*
X29363Y-29562D01*
X29568Y-29447D01*
X29792Y-29375D01*
X30025Y-29347D01*
X30259Y-29365D01*
X30485Y-29428D01*
X30695Y-29534D01*
X30880Y-29679D01*
X31033Y-29856D01*
X31149Y-30061D01*
X31224Y-30284D01*
X31253Y-30517D01*
X31254Y-30550D01*
X36651Y-30550D02*
X36628Y-30783D01*
X36560Y-31007D01*
X36450Y-31214D01*
X36302Y-31396D01*
X36121Y-31545D01*
X35915Y-31657D01*
X35691Y-31726D01*
X35458Y-31750D01*
X35225Y-31729D01*
X35001Y-31663D01*
X34793Y-31554D01*
X34610Y-31408D01*
X34460Y-31228D01*
X34347Y-31023D01*
X34276Y-30799D01*
X34250Y-30566D01*
X34269Y-30334D01*
X34334Y-30108D01*
X34441Y-29900D01*
X34587Y-29716D01*
X34765Y-29564D01*
X34970Y-29450D01*
X35193Y-29378D01*
X35425Y-29350D01*
X35658Y-29368D01*
X35884Y-29431D01*
X36093Y-29536D01*
X36278Y-29681D01*
X36431Y-29858D01*
X36547Y-30062D01*
X36621Y-30284D01*
X36650Y-30517D01*
X36651Y-30550D01*
X36650Y-25150D02*
X36627Y-25383D01*
X36559Y-25607D01*
X36449Y-25814D01*
X36301Y-25995D01*
X36121Y-26144D01*
X35915Y-26256D01*
X35691Y-26325D01*
X35458Y-26349D01*
X35226Y-26328D01*
X35001Y-26262D01*
X34793Y-26154D01*
X34611Y-26007D01*
X34460Y-25827D01*
X34348Y-25622D01*
X34277Y-25399D01*
X34251Y-25166D01*
X34270Y-24934D01*
X34335Y-24709D01*
X34442Y-24500D01*
X34587Y-24317D01*
X34766Y-24165D01*
X34970Y-24051D01*
X35193Y-23978D01*
X35425Y-23951D01*
X35658Y-23969D01*
X35883Y-24032D01*
X36092Y-24137D01*
X36277Y-24281D01*
X36430Y-24459D01*
X36546Y-24662D01*
X36620Y-24885D01*
X36649Y-25117D01*
X36650Y-25150D01*
X32750Y-19300D02*
X32005Y-19333D01*
X31266Y-19430D01*
X30538Y-19592D01*
X29826Y-19816D01*
X29137Y-20102D01*
X28476Y-20446D01*
X27846Y-20847D01*
X27255Y-21301D01*
X26705Y-21805D01*
X26201Y-22355D01*
X25747Y-22946D01*
X25346Y-23576D01*
X25002Y-24237D01*
X24716Y-24926D01*
X24492Y-25638D01*
X24330Y-26366D01*
X24233Y-27105D01*
X24200Y-27850D01*
X24200Y-27850D02*
X24233Y-28595D01*
X24330Y-29334D01*
X24492Y-30062D01*
X24716Y-30774D01*
X25002Y-31463D01*
X25346Y-32124D01*
X25747Y-32754D01*
X26201Y-33345D01*
X26705Y-33895D01*
X27255Y-34399D01*
X27846Y-34853D01*
X28476Y-35254D01*
X29137Y-35598D01*
X29826Y-35884D01*
X30538Y-36108D01*
X31266Y-36270D01*
X32005Y-36367D01*
X32750Y-36400D01*
X32750Y-36400D02*
X33495Y-36367D01*
X34234Y-36270D01*
X34962Y-36108D01*
X35674Y-35884D01*
X36363Y-35598D01*
X37025Y-35254D01*
X37654Y-34853D01*
X38245Y-34399D01*
X38795Y-33895D01*
X39299Y-33345D01*
X39753Y-32754D01*
X40154Y-32124D01*
X40498Y-31463D01*
X40784Y-30774D01*
X41008Y-30062D01*
X41170Y-29334D01*
X41267Y-28595D01*
X41300Y-27850D01*
X41300Y-27850D02*
X41267Y-27105D01*
X41170Y-26366D01*
X41008Y-25638D01*
X40784Y-24926D01*
X40498Y-24237D01*
X40154Y-23576D01*
X39753Y-22946D01*
X39299Y-22355D01*
X38795Y-21805D01*
X38245Y-21301D01*
X37654Y-20847D01*
X37025Y-20446D01*
X36363Y-20102D01*
X35674Y-19816D01*
X34962Y-19592D01*
X34234Y-19430D01*
X33495Y-19333D01*
X32750Y-19300D01*
X41300Y-27850D02*
X41137Y-29510D01*
X40654Y-31108D01*
X39871Y-32581D01*
X38816Y-33874D01*
X37531Y-34938D01*
X36063Y-35731D01*
X34469Y-36225D01*
X32809Y-36399D01*
X31148Y-36248D01*
X29548Y-35777D01*
X28069Y-35004D01*
X26768Y-33958D01*
X25696Y-32680D01*
X24892Y-31218D01*
X24387Y-29627D01*
X24201Y-27969D01*
X24341Y-26307D01*
X24801Y-24703D01*
X25564Y-23219D01*
X26600Y-21911D01*
X27871Y-20830D01*
X29328Y-20016D01*
X30915Y-19500D01*
X32571Y-19302D01*
X34234Y-19430D01*
X35841Y-19879D01*
X37331Y-20631D01*
X38646Y-21659D01*
X39736Y-22922D01*
X40560Y-24373D01*
X41087Y-25956D01*
X41296Y-27612D01*
X41300Y-27850D01*
G54D13*
G36*
X26739Y-31536D02*
X26762Y-31533D01*
X26783Y-31526D01*
X26792Y-31521D01*
X26811Y-31508D01*
X26826Y-31491D01*
X26838Y-31473D01*
X26845Y-31452D01*
X26849Y-31430D01*
X26848Y-31408D01*
X26843Y-31386D01*
X26833Y-31365D01*
X26826Y-31356D01*
X26817Y-31345D01*
X26806Y-31336D01*
X26797Y-31329D01*
X26794Y-31327D01*
X26774Y-31318D01*
X26754Y-31313D01*
X26732Y-31312D01*
X26724Y-31312D01*
X26712Y-31314D01*
X26701Y-31317D01*
X26689Y-31322D01*
X26676Y-31329D01*
X26658Y-31343D01*
X26643Y-31361D01*
X26632Y-31382D01*
X26629Y-31392D01*
X26626Y-31403D01*
X26625Y-31411D01*
X26625Y-31412D01*
X26624Y-31413D01*
X26623Y-31408D01*
X26623Y-31407D01*
X26620Y-31393D01*
X26614Y-31378D01*
X26608Y-31365D01*
X26595Y-31349D01*
X26578Y-31333D01*
X26558Y-31321D01*
X26536Y-31314D01*
X26513Y-31312D01*
X26506Y-31312D01*
X26489Y-31314D01*
X26472Y-31319D01*
X26468Y-31320D01*
X26449Y-31330D01*
X26433Y-31344D01*
X26419Y-31361D01*
X26408Y-31380D01*
X26402Y-31400D01*
X26402Y-31401D01*
X26400Y-31407D01*
X26400Y-31409D01*
X26400Y-31409D01*
X26399Y-31406D01*
X26398Y-31400D01*
X26398Y-31398D01*
X26391Y-31378D01*
X26380Y-31360D01*
X26366Y-31343D01*
X26352Y-31332D01*
X26333Y-31320D01*
X26311Y-31314D01*
X26287Y-31312D01*
X26271Y-31313D01*
X26248Y-31319D01*
X26228Y-31329D01*
X26210Y-31343D01*
X26195Y-31361D01*
X26193Y-31363D01*
X26188Y-31372D01*
X26185Y-31379D01*
X26183Y-31384D01*
X26180Y-31394D01*
X26177Y-31404D01*
X26176Y-31411D01*
X26176Y-31412D01*
X26176Y-31412D01*
X26175Y-31408D01*
X26172Y-31395D01*
X26167Y-31380D01*
X26160Y-31366D01*
X26147Y-31348D01*
X26130Y-31333D01*
X26110Y-31321D01*
X26088Y-31314D01*
X26064Y-31312D01*
X26043Y-31313D01*
X26021Y-31319D01*
X26001Y-31330D01*
X25983Y-31346D01*
X25974Y-31355D01*
X25966Y-31368D01*
X25959Y-31382D01*
X25955Y-31394D01*
X25951Y-31416D01*
X25952Y-31438D01*
X25957Y-31459D01*
X25966Y-31479D01*
X25978Y-31497D01*
X25993Y-31512D01*
X26011Y-31523D01*
X26032Y-31532D01*
X26055Y-31536D01*
X26057Y-31536D01*
X26080Y-31535D01*
X26101Y-31530D01*
X26122Y-31520D01*
X26129Y-31515D01*
X26144Y-31502D01*
X26157Y-31486D01*
X26167Y-31469D01*
X26169Y-31463D01*
X26172Y-31453D01*
X26174Y-31443D01*
X26175Y-31436D01*
X26176Y-31431D01*
X26176Y-31436D01*
X26177Y-31439D01*
X26179Y-31449D01*
X26182Y-31461D01*
X26185Y-31470D01*
X26191Y-31480D01*
X26205Y-31499D01*
X26222Y-31514D01*
X26242Y-31526D01*
X26264Y-31534D01*
X26268Y-31534D01*
X26283Y-31536D01*
X26300Y-31535D01*
X26314Y-31533D01*
X26329Y-31528D01*
X26350Y-31517D01*
X26369Y-31502D01*
X26370Y-31501D01*
X26383Y-31485D01*
X26392Y-31466D01*
X26398Y-31447D01*
X26398Y-31446D01*
X26400Y-31441D01*
X26400Y-31438D01*
X26400Y-31440D01*
X26401Y-31445D01*
X26402Y-31446D01*
X26405Y-31458D01*
X26410Y-31471D01*
X26416Y-31483D01*
X26426Y-31497D01*
X26443Y-31513D01*
X26463Y-31525D01*
X26485Y-31533D01*
X26489Y-31534D01*
X26504Y-31536D01*
X26521Y-31536D01*
X26535Y-31534D01*
X26548Y-31530D01*
X26569Y-31520D01*
X26587Y-31507D01*
X26603Y-31490D01*
X26615Y-31470D01*
X26617Y-31463D01*
X26620Y-31453D01*
X26623Y-31443D01*
X26624Y-31436D01*
X26624Y-31435D01*
X26624Y-31434D01*
X26625Y-31439D01*
X26625Y-31440D01*
X26628Y-31454D01*
X26634Y-31469D01*
X26641Y-31482D01*
X26644Y-31487D01*
X26658Y-31504D01*
X26676Y-31518D01*
X26695Y-31528D01*
X26716Y-31534D01*
X26739Y-31536D01*
X26739Y-31536D01*
G37*
G36*
X25832Y-31311D02*
X25845Y-31311D01*
X25858Y-31310D01*
X25873Y-31306D01*
X25894Y-31296D01*
X25913Y-31283D01*
X25929Y-31266D01*
X25940Y-31247D01*
X25948Y-31226D01*
X25951Y-31203D01*
X25949Y-31180D01*
X25944Y-31158D01*
X25933Y-31138D01*
X25919Y-31121D01*
X25901Y-31106D01*
X25895Y-31102D01*
X25874Y-31092D01*
X25851Y-31087D01*
X25828Y-31087D01*
X25805Y-31092D01*
X25787Y-31099D01*
X25767Y-31112D01*
X25751Y-31129D01*
X25738Y-31149D01*
X25729Y-31171D01*
X25727Y-31183D01*
X25727Y-31197D01*
X25727Y-31212D01*
X25729Y-31224D01*
X25730Y-31228D01*
X25739Y-31251D01*
X25752Y-31270D01*
X25769Y-31287D01*
X25789Y-31300D01*
X25799Y-31304D01*
X25812Y-31308D01*
X25824Y-31311D01*
X25832Y-31311D01*
X25832Y-31311D01*
G37*
G36*
X26964Y-31311D02*
X26987Y-31308D01*
X27009Y-31301D01*
X27030Y-31288D01*
X27034Y-31284D01*
X27050Y-31268D01*
X27062Y-31248D01*
X27071Y-31226D01*
X27073Y-31215D01*
X27073Y-31201D01*
X27073Y-31186D01*
X27071Y-31174D01*
X27070Y-31169D01*
X27061Y-31147D01*
X27048Y-31127D01*
X27032Y-31111D01*
X27012Y-31099D01*
X26991Y-31091D01*
X26967Y-31087D01*
X26959Y-31086D01*
X26936Y-31089D01*
X26915Y-31096D01*
X26896Y-31107D01*
X26880Y-31122D01*
X26866Y-31139D01*
X26856Y-31159D01*
X26851Y-31181D01*
X26849Y-31204D01*
X26850Y-31218D01*
X26853Y-31230D01*
X26858Y-31243D01*
X26867Y-31260D01*
X26881Y-31278D01*
X26899Y-31292D01*
X26919Y-31303D01*
X26941Y-31310D01*
X26964Y-31311D01*
X26964Y-31311D01*
G37*
G36*
X25608Y-31086D02*
X25624Y-31086D01*
X25638Y-31084D01*
X25654Y-31080D01*
X25674Y-31069D01*
X25693Y-31054D01*
X25705Y-31040D01*
X25717Y-31020D01*
X25724Y-30998D01*
X25725Y-30989D01*
X25726Y-30976D01*
X25726Y-30962D01*
X25724Y-30951D01*
X25722Y-30944D01*
X25714Y-30922D01*
X25701Y-30902D01*
X25684Y-30886D01*
X25664Y-30874D01*
X25656Y-30870D01*
X25642Y-30865D01*
X25627Y-30863D01*
X25610Y-30863D01*
X25599Y-30863D01*
X25587Y-30865D01*
X25576Y-30868D01*
X25564Y-30874D01*
X25557Y-30877D01*
X25538Y-30891D01*
X25522Y-30909D01*
X25511Y-30929D01*
X25504Y-30952D01*
X25503Y-30957D01*
X25502Y-30971D01*
X25502Y-30985D01*
X25504Y-30996D01*
X25506Y-31004D01*
X25514Y-31026D01*
X25527Y-31046D01*
X25544Y-31062D01*
X25564Y-31075D01*
X25586Y-31083D01*
X25593Y-31085D01*
X25608Y-31086D01*
X25608Y-31086D01*
G37*
G36*
X26509Y-31086D02*
X26532Y-31085D01*
X26553Y-31079D01*
X26565Y-31073D01*
X26585Y-31060D01*
X26601Y-31043D01*
X26613Y-31023D01*
X26621Y-31001D01*
X26622Y-30997D01*
X26624Y-30979D01*
X26624Y-30961D01*
X26619Y-30942D01*
X26610Y-30920D01*
X26597Y-30901D01*
X26580Y-30885D01*
X26560Y-30873D01*
X26537Y-30865D01*
X26523Y-30861D01*
X26531Y-30860D01*
X26532Y-30860D01*
X26548Y-30856D01*
X26565Y-30848D01*
X26581Y-30838D01*
X26583Y-30836D01*
X26600Y-30820D01*
X26612Y-30801D01*
X26620Y-30780D01*
X26624Y-30758D01*
X26623Y-30736D01*
X26618Y-30714D01*
X26609Y-30693D01*
X26608Y-30693D01*
X26594Y-30674D01*
X26577Y-30659D01*
X26558Y-30648D01*
X26538Y-30641D01*
X26516Y-30638D01*
X26494Y-30640D01*
X26473Y-30645D01*
X26453Y-30655D01*
X26434Y-30669D01*
X26425Y-30680D01*
X26414Y-30696D01*
X26406Y-30713D01*
X26401Y-30730D01*
X26400Y-30734D01*
X26400Y-30736D01*
X26400Y-30735D01*
X26399Y-30730D01*
X26395Y-30715D01*
X26388Y-30699D01*
X26379Y-30684D01*
X26373Y-30677D01*
X26356Y-30661D01*
X26337Y-30649D01*
X26315Y-30641D01*
X26292Y-30638D01*
X26269Y-30640D01*
X26255Y-30643D01*
X26234Y-30652D01*
X26215Y-30665D01*
X26199Y-30682D01*
X26187Y-30701D01*
X26179Y-30723D01*
X26177Y-30735D01*
X26176Y-30757D01*
X26180Y-30780D01*
X26188Y-30801D01*
X26201Y-30820D01*
X26217Y-30836D01*
X26237Y-30849D01*
X26246Y-30853D01*
X26256Y-30857D01*
X26266Y-30860D01*
X26273Y-30861D01*
X26274Y-30861D01*
X26274Y-30862D01*
X26269Y-30863D01*
X26258Y-30866D01*
X26243Y-30872D01*
X26230Y-30878D01*
X26223Y-30883D01*
X26208Y-30896D01*
X26195Y-30912D01*
X26185Y-30929D01*
X26179Y-30947D01*
X26176Y-30968D01*
X26176Y-30987D01*
X26177Y-30991D01*
X26183Y-31014D01*
X26194Y-31035D01*
X26209Y-31054D01*
X26222Y-31065D01*
X26242Y-31077D01*
X26264Y-31084D01*
X26273Y-31085D01*
X26285Y-31086D01*
X26298Y-31085D01*
X26310Y-31084D01*
X26319Y-31083D01*
X26326Y-31080D01*
X26348Y-31069D01*
X26367Y-31055D01*
X26382Y-31036D01*
X26387Y-31028D01*
X26394Y-31012D01*
X26398Y-30998D01*
X26398Y-30997D01*
X26400Y-30991D01*
X26400Y-30989D01*
X26400Y-30989D01*
X26400Y-30959D01*
X26400Y-30959D01*
X26400Y-30957D01*
X26398Y-30951D01*
X26398Y-30949D01*
X26391Y-30929D01*
X26380Y-30910D01*
X26366Y-30894D01*
X26349Y-30880D01*
X26330Y-30870D01*
X26329Y-30869D01*
X26319Y-30866D01*
X26309Y-30864D01*
X26299Y-30862D01*
X26309Y-30860D01*
X26322Y-30857D01*
X26342Y-30848D01*
X26361Y-30835D01*
X26376Y-30819D01*
X26388Y-30801D01*
X26393Y-30791D01*
X26397Y-30780D01*
X26399Y-30770D01*
X26400Y-30766D01*
X26400Y-30764D01*
X26400Y-30765D01*
X26401Y-30770D01*
X26403Y-30778D01*
X26407Y-30790D01*
X26412Y-30801D01*
X26419Y-30812D01*
X26433Y-30829D01*
X26451Y-30844D01*
X26470Y-30854D01*
X26491Y-30860D01*
X26501Y-30862D01*
X26491Y-30864D01*
X26490Y-30864D01*
X26480Y-30867D01*
X26470Y-30870D01*
X26468Y-30871D01*
X26449Y-30881D01*
X26432Y-30895D01*
X26419Y-30912D01*
X26408Y-30931D01*
X26402Y-30951D01*
X26402Y-30952D01*
X26400Y-30957D01*
X26400Y-30959D01*
X26400Y-30989D01*
X26400Y-30989D01*
X26401Y-30992D01*
X26402Y-30998D01*
X26406Y-31012D01*
X26415Y-31032D01*
X26429Y-31050D01*
X26446Y-31065D01*
X26465Y-31077D01*
X26465Y-31077D01*
X26487Y-31084D01*
X26509Y-31086D01*
X26509Y-31086D01*
G37*
G36*
X27178Y-31086D02*
X27196Y-31086D01*
X27213Y-31084D01*
X27223Y-31080D01*
X27244Y-31070D01*
X27263Y-31057D01*
X27278Y-31039D01*
X27289Y-31020D01*
X27296Y-30998D01*
X27298Y-30974D01*
X27298Y-30965D01*
X27294Y-30942D01*
X27285Y-30920D01*
X27271Y-30900D01*
X27267Y-30896D01*
X27251Y-30882D01*
X27232Y-30872D01*
X27212Y-30865D01*
X27212Y-30865D01*
X27195Y-30862D01*
X27177Y-30862D01*
X27160Y-30865D01*
X27154Y-30866D01*
X27132Y-30875D01*
X27114Y-30888D01*
X27098Y-30904D01*
X27086Y-30922D01*
X27078Y-30943D01*
X27074Y-30964D01*
X27074Y-30987D01*
X27079Y-31010D01*
X27087Y-31027D01*
X27100Y-31046D01*
X27116Y-31062D01*
X27136Y-31075D01*
X27158Y-31083D01*
X27160Y-31084D01*
X27178Y-31086D01*
X27178Y-31086D01*
G37*
G36*
X26067Y-30413D02*
X26089Y-30411D01*
X26111Y-30403D01*
X26121Y-30398D01*
X26131Y-30391D01*
X26142Y-30381D01*
X26153Y-30369D01*
X26165Y-30350D01*
X26173Y-30328D01*
X26174Y-30322D01*
X26175Y-30307D01*
X26175Y-30291D01*
X26174Y-30277D01*
X26168Y-30259D01*
X26157Y-30239D01*
X26144Y-30222D01*
X26141Y-30220D01*
X26131Y-30211D01*
X26119Y-30203D01*
X26107Y-30197D01*
X26103Y-30196D01*
X26094Y-30193D01*
X26085Y-30191D01*
X26079Y-30190D01*
X26075Y-30189D01*
X26079Y-30188D01*
X26084Y-30187D01*
X26091Y-30185D01*
X26099Y-30183D01*
X26116Y-30175D01*
X26133Y-30165D01*
X26146Y-30153D01*
X26148Y-30150D01*
X26162Y-30131D01*
X26171Y-30109D01*
X26176Y-30087D01*
X26175Y-30065D01*
X26175Y-30059D01*
X26168Y-30036D01*
X26158Y-30016D01*
X26143Y-29997D01*
X26129Y-29985D01*
X26109Y-29974D01*
X26088Y-29966D01*
X26083Y-29965D01*
X26068Y-29964D01*
X26052Y-29965D01*
X26038Y-29967D01*
X26025Y-29971D01*
X26004Y-29981D01*
X25986Y-29995D01*
X25971Y-30012D01*
X25960Y-30031D01*
X25954Y-30053D01*
X25953Y-30055D01*
X25951Y-30061D01*
X25950Y-30063D01*
X25950Y-30060D01*
X25949Y-30056D01*
X25947Y-30046D01*
X25944Y-30036D01*
X25940Y-30027D01*
X25936Y-30021D01*
X25922Y-30001D01*
X25905Y-29986D01*
X25885Y-29974D01*
X25863Y-29967D01*
X25840Y-29964D01*
X25821Y-29965D01*
X25800Y-29971D01*
X25780Y-29981D01*
X25768Y-29989D01*
X25752Y-30005D01*
X25739Y-30024D01*
X25731Y-30045D01*
X25727Y-30067D01*
X25727Y-30089D01*
X25732Y-30110D01*
X25741Y-30132D01*
X25755Y-30151D01*
X25772Y-30166D01*
X25792Y-30178D01*
X25815Y-30186D01*
X25828Y-30189D01*
X25820Y-30190D01*
X25816Y-30191D01*
X25798Y-30196D01*
X25780Y-30206D01*
X25764Y-30217D01*
X25750Y-30231D01*
X25743Y-30243D01*
X25735Y-30259D01*
X25729Y-30274D01*
X25727Y-30285D01*
X25727Y-30300D01*
X25727Y-30314D01*
X25729Y-30326D01*
X25733Y-30339D01*
X25743Y-30360D01*
X25758Y-30379D01*
X25775Y-30394D01*
X25796Y-30405D01*
X25820Y-30412D01*
X25826Y-30413D01*
X25839Y-30413D01*
X25854Y-30412D01*
X25867Y-30410D01*
X25876Y-30407D01*
X25897Y-30397D01*
X25915Y-30383D01*
X25931Y-30366D01*
X25942Y-30346D01*
X25949Y-30324D01*
X25949Y-30321D01*
X25951Y-30317D01*
X25951Y-30317D01*
X25951Y-30286D01*
X25950Y-30285D01*
X25949Y-30281D01*
X25949Y-30279D01*
X25945Y-30265D01*
X25938Y-30249D01*
X25929Y-30234D01*
X25922Y-30226D01*
X25905Y-30210D01*
X25884Y-30198D01*
X25861Y-30191D01*
X25851Y-30189D01*
X25858Y-30187D01*
X25865Y-30186D01*
X25872Y-30184D01*
X25877Y-30182D01*
X25897Y-30172D01*
X25915Y-30158D01*
X25930Y-30141D01*
X25942Y-30122D01*
X25949Y-30100D01*
X25950Y-30095D01*
X25951Y-30092D01*
X25952Y-30094D01*
X25954Y-30101D01*
X25954Y-30101D01*
X25957Y-30113D01*
X25963Y-30126D01*
X25970Y-30138D01*
X25975Y-30146D01*
X25986Y-30157D01*
X25997Y-30167D01*
X26007Y-30174D01*
X26008Y-30174D01*
X26026Y-30182D01*
X26044Y-30187D01*
X26052Y-30189D01*
X26043Y-30190D01*
X26023Y-30196D01*
X26003Y-30207D01*
X25985Y-30221D01*
X25970Y-30238D01*
X25967Y-30244D01*
X25961Y-30254D01*
X25957Y-30266D01*
X25954Y-30276D01*
X25952Y-30284D01*
X25952Y-30284D01*
X25951Y-30286D01*
X25951Y-30317D01*
X25952Y-30317D01*
X25953Y-30322D01*
X25954Y-30328D01*
X25956Y-30336D01*
X25961Y-30347D01*
X25972Y-30367D01*
X25987Y-30383D01*
X26004Y-30397D01*
X26024Y-30406D01*
X26045Y-30412D01*
X26067Y-30413D01*
X26067Y-30413D01*
G37*
G36*
X26742Y-30413D02*
X26765Y-30410D01*
X26786Y-30402D01*
X26805Y-30390D01*
X26821Y-30375D01*
X26834Y-30357D01*
X26844Y-30336D01*
X26846Y-30328D01*
X26847Y-30322D01*
X26847Y-30321D01*
X26848Y-30317D01*
X26849Y-30317D01*
X26849Y-30285D01*
X26848Y-30282D01*
X26846Y-30274D01*
X26842Y-30261D01*
X26832Y-30241D01*
X26818Y-30224D01*
X26801Y-30209D01*
X26781Y-30198D01*
X26759Y-30191D01*
X26748Y-30189D01*
X26756Y-30187D01*
X26757Y-30187D01*
X26775Y-30182D01*
X26793Y-30174D01*
X26800Y-30169D01*
X26811Y-30160D01*
X26822Y-30149D01*
X26830Y-30138D01*
X26836Y-30128D01*
X26842Y-30114D01*
X26846Y-30101D01*
X26848Y-30095D01*
X26849Y-30092D01*
X26850Y-30093D01*
X26851Y-30100D01*
X26856Y-30115D01*
X26866Y-30136D01*
X26881Y-30154D01*
X26898Y-30169D01*
X26918Y-30180D01*
X26942Y-30187D01*
X26949Y-30189D01*
X26939Y-30191D01*
X26928Y-30194D01*
X26907Y-30203D01*
X26887Y-30216D01*
X26871Y-30234D01*
X26867Y-30240D01*
X26861Y-30251D01*
X26856Y-30263D01*
X26853Y-30271D01*
X26851Y-30279D01*
X26851Y-30280D01*
X26850Y-30285D01*
X26849Y-30285D01*
X26849Y-30317D01*
X26850Y-30317D01*
X26851Y-30323D01*
X26853Y-30331D01*
X26859Y-30348D01*
X26868Y-30364D01*
X26874Y-30372D01*
X26891Y-30389D01*
X26911Y-30402D01*
X26934Y-30410D01*
X26944Y-30412D01*
X26959Y-30413D01*
X26975Y-30412D01*
X26989Y-30410D01*
X26990Y-30410D01*
X27013Y-30401D01*
X27033Y-30388D01*
X27049Y-30371D01*
X27062Y-30351D01*
X27071Y-30329D01*
X27072Y-30319D01*
X27073Y-30303D01*
X27073Y-30287D01*
X27071Y-30274D01*
X27066Y-30261D01*
X27059Y-30245D01*
X27050Y-30231D01*
X27039Y-30220D01*
X27026Y-30209D01*
X27011Y-30200D01*
X27006Y-30198D01*
X26995Y-30194D01*
X26984Y-30191D01*
X26976Y-30190D01*
X26976Y-30189D01*
X26978Y-30188D01*
X26985Y-30186D01*
X26998Y-30182D01*
X27013Y-30176D01*
X27025Y-30169D01*
X27027Y-30168D01*
X27042Y-30154D01*
X27055Y-30138D01*
X27064Y-30122D01*
X27068Y-30113D01*
X27073Y-30091D01*
X27073Y-30068D01*
X27069Y-30045D01*
X27068Y-30040D01*
X27058Y-30019D01*
X27045Y-30001D01*
X27027Y-29986D01*
X27007Y-29974D01*
X26985Y-29966D01*
X26982Y-29966D01*
X26967Y-29964D01*
X26950Y-29965D01*
X26935Y-29967D01*
X26932Y-29968D01*
X26909Y-29977D01*
X26890Y-29989D01*
X26873Y-30006D01*
X26860Y-30027D01*
X26857Y-30033D01*
X26854Y-30043D01*
X26851Y-30053D01*
X26850Y-30060D01*
X26850Y-30062D01*
X26849Y-30063D01*
X26848Y-30059D01*
X26847Y-30053D01*
X26842Y-30038D01*
X26833Y-30018D01*
X26819Y-30000D01*
X26802Y-29985D01*
X26783Y-29974D01*
X26783Y-29974D01*
X26762Y-29967D01*
X26739Y-29964D01*
X26717Y-29966D01*
X26695Y-29972D01*
X26683Y-29978D01*
X26664Y-29991D01*
X26648Y-30008D01*
X26635Y-30027D01*
X26628Y-30049D01*
X26626Y-30054D01*
X26624Y-30072D01*
X26625Y-30089D01*
X26629Y-30110D01*
X26639Y-30132D01*
X26652Y-30151D01*
X26669Y-30166D01*
X26690Y-30178D01*
X26713Y-30186D01*
X26717Y-30188D01*
X26722Y-30189D01*
X26721Y-30190D01*
X26715Y-30190D01*
X26702Y-30194D01*
X26688Y-30200D01*
X26675Y-30207D01*
X26662Y-30217D01*
X26646Y-30234D01*
X26634Y-30255D01*
X26633Y-30258D01*
X26626Y-30280D01*
X26624Y-30303D01*
X26627Y-30326D01*
X26634Y-30348D01*
X26639Y-30358D01*
X26646Y-30368D01*
X26656Y-30379D01*
X26657Y-30380D01*
X26675Y-30395D01*
X26695Y-30406D01*
X26717Y-30412D01*
X26720Y-30412D01*
X26742Y-30413D01*
X26742Y-30413D01*
G37*
G36*
X38619Y-31437D02*
X38628Y-31432D01*
X38649Y-31419D01*
X38678Y-31400D01*
X38713Y-31377D01*
X38747Y-31353D01*
X38776Y-31334D01*
X38796Y-31321D01*
X38804Y-31317D01*
X38809Y-31318D01*
X38825Y-31326D01*
X38849Y-31339D01*
X38863Y-31346D01*
X38885Y-31355D01*
X38896Y-31357D01*
X38898Y-31354D01*
X38906Y-31338D01*
X38918Y-31309D01*
X38935Y-31271D01*
X38954Y-31226D01*
X38974Y-31178D01*
X38995Y-31130D01*
X39014Y-31083D01*
X39031Y-31041D01*
X39045Y-31007D01*
X39054Y-30983D01*
X39057Y-30973D01*
X39056Y-30971D01*
X39045Y-30960D01*
X39026Y-30946D01*
X38985Y-30912D01*
X38944Y-30861D01*
X38919Y-30803D01*
X38910Y-30738D01*
X38917Y-30679D01*
X38941Y-30622D01*
X38981Y-30570D01*
X39030Y-30532D01*
X39086Y-30507D01*
X39150Y-30499D01*
X39211Y-30506D01*
X39269Y-30529D01*
X39321Y-30569D01*
X39343Y-30594D01*
X39373Y-30646D01*
X39390Y-30702D01*
X39392Y-30716D01*
X39389Y-30778D01*
X39371Y-30837D01*
X39339Y-30889D01*
X39294Y-30933D01*
X39288Y-30937D01*
X39267Y-30952D01*
X39253Y-30963D01*
X39242Y-30972D01*
X39320Y-31161D01*
X39333Y-31191D01*
X39354Y-31242D01*
X39373Y-31287D01*
X39389Y-31322D01*
X39399Y-31346D01*
X39404Y-31355D01*
X39404Y-31356D01*
X39411Y-31357D01*
X39425Y-31352D01*
X39452Y-31339D01*
X39469Y-31330D01*
X39489Y-31320D01*
X39498Y-31317D01*
X39506Y-31321D01*
X39525Y-31333D01*
X39553Y-31352D01*
X39587Y-31375D01*
X39619Y-31397D01*
X39648Y-31416D01*
X39670Y-31430D01*
X39680Y-31436D01*
X39682Y-31436D01*
X39691Y-31431D01*
X39708Y-31416D01*
X39734Y-31392D01*
X39770Y-31356D01*
X39776Y-31351D01*
X39806Y-31320D01*
X39830Y-31295D01*
X39846Y-31277D01*
X39852Y-31268D01*
X39852Y-31268D01*
X39847Y-31258D01*
X39833Y-31237D01*
X39814Y-31207D01*
X39790Y-31172D01*
X39727Y-31081D01*
X39762Y-30995D01*
X39772Y-30969D01*
X39786Y-30937D01*
X39796Y-30915D01*
X39801Y-30905D01*
X39810Y-30901D01*
X39833Y-30896D01*
X39867Y-30889D01*
X39908Y-30881D01*
X39947Y-30874D01*
X39981Y-30867D01*
X40007Y-30862D01*
X40018Y-30860D01*
X40021Y-30859D01*
X40023Y-30853D01*
X40024Y-30841D01*
X40025Y-30820D01*
X40026Y-30787D01*
X40026Y-30738D01*
X40026Y-30733D01*
X40025Y-30687D01*
X40025Y-30650D01*
X40023Y-30627D01*
X40022Y-30617D01*
X40022Y-30617D01*
X40011Y-30615D01*
X39986Y-30609D01*
X39951Y-30603D01*
X39910Y-30595D01*
X39907Y-30594D01*
X39866Y-30586D01*
X39831Y-30579D01*
X39807Y-30573D01*
X39796Y-30570D01*
X39794Y-30567D01*
X39786Y-30551D01*
X39774Y-30525D01*
X39760Y-30494D01*
X39747Y-30461D01*
X39735Y-30432D01*
X39727Y-30410D01*
X39725Y-30400D01*
X39725Y-30400D01*
X39731Y-30390D01*
X39745Y-30369D01*
X39765Y-30339D01*
X39790Y-30304D01*
X39791Y-30301D01*
X39815Y-30266D01*
X39835Y-30236D01*
X39847Y-30215D01*
X39852Y-30206D01*
X39852Y-30205D01*
X39844Y-30195D01*
X39826Y-30175D01*
X39801Y-30148D01*
X39770Y-30117D01*
X39760Y-30107D01*
X39726Y-30074D01*
X39703Y-30052D01*
X39688Y-30041D01*
X39681Y-30038D01*
X39681Y-30038D01*
X39670Y-30045D01*
X39648Y-30059D01*
X39618Y-30080D01*
X39582Y-30104D01*
X39580Y-30105D01*
X39545Y-30129D01*
X39516Y-30149D01*
X39495Y-30163D01*
X39486Y-30168D01*
X39484Y-30168D01*
X39470Y-30164D01*
X39445Y-30155D01*
X39415Y-30143D01*
X39382Y-30130D01*
X39353Y-30118D01*
X39331Y-30108D01*
X39320Y-30102D01*
X39320Y-30101D01*
X39316Y-30089D01*
X39310Y-30063D01*
X39303Y-30027D01*
X39295Y-29984D01*
X39293Y-29977D01*
X39285Y-29935D01*
X39279Y-29901D01*
X39274Y-29877D01*
X39271Y-29867D01*
X39265Y-29866D01*
X39245Y-29864D01*
X39214Y-29863D01*
X39176Y-29863D01*
X39137Y-29863D01*
X39098Y-29864D01*
X39065Y-29865D01*
X39042Y-29867D01*
X39032Y-29869D01*
X39031Y-29869D01*
X39028Y-29882D01*
X39022Y-29908D01*
X39015Y-29945D01*
X39006Y-29988D01*
X39005Y-29995D01*
X38997Y-30037D01*
X38990Y-30071D01*
X38985Y-30095D01*
X38982Y-30104D01*
X38979Y-30106D01*
X38961Y-30113D01*
X38933Y-30125D01*
X38899Y-30139D01*
X38819Y-30171D01*
X38720Y-30104D01*
X38711Y-30098D01*
X38676Y-30074D01*
X38647Y-30054D01*
X38627Y-30041D01*
X38618Y-30037D01*
X38618Y-30037D01*
X38608Y-30046D01*
X38588Y-30064D01*
X38562Y-30090D01*
X38531Y-30121D01*
X38508Y-30143D01*
X38481Y-30171D01*
X38463Y-30190D01*
X38454Y-30202D01*
X38451Y-30209D01*
X38452Y-30214D01*
X38458Y-30224D01*
X38472Y-30245D01*
X38493Y-30275D01*
X38517Y-30310D01*
X38536Y-30339D01*
X38558Y-30372D01*
X38572Y-30396D01*
X38576Y-30407D01*
X38575Y-30412D01*
X38568Y-30431D01*
X38557Y-30460D01*
X38542Y-30495D01*
X38508Y-30573D01*
X38457Y-30583D01*
X38426Y-30588D01*
X38382Y-30597D01*
X38341Y-30605D01*
X38276Y-30617D01*
X38274Y-30854D01*
X38284Y-30858D01*
X38294Y-30861D01*
X38318Y-30866D01*
X38352Y-30873D01*
X38392Y-30881D01*
X38426Y-30887D01*
X38461Y-30894D01*
X38486Y-30899D01*
X38497Y-30901D01*
X38500Y-30905D01*
X38508Y-30921D01*
X38521Y-30948D01*
X38534Y-30980D01*
X38548Y-31013D01*
X38560Y-31044D01*
X38569Y-31067D01*
X38572Y-31080D01*
X38567Y-31089D01*
X38554Y-31109D01*
X38535Y-31138D01*
X38512Y-31172D01*
X38488Y-31207D01*
X38468Y-31236D01*
X38455Y-31257D01*
X38449Y-31267D01*
X38452Y-31274D01*
X38465Y-31290D01*
X38491Y-31317D01*
X38530Y-31355D01*
X38536Y-31361D01*
X38567Y-31391D01*
X38593Y-31415D01*
X38611Y-31431D01*
X38619Y-31437D01*
X38619Y-31437D01*
G37*
G54D12*
X31150Y-26250D02*
X30950Y-25950D01*
X30950Y-25950D02*
X30850Y-26050D01*
X30850Y-26050D02*
X31150Y-26250D01*
X34730Y-28940D02*
X34280Y-28940D01*
X34730Y-26760D02*
X34290Y-26760D01*
X34730Y-28940D02*
X34730Y-26760D01*
X33850Y-29410D02*
X33850Y-29840D01*
X31640Y-29420D02*
X31640Y-29840D01*
X31630Y-29840D02*
X33850Y-29850D01*
X31650Y-25870D02*
X33820Y-25860D01*
X31220Y-26560D02*
X31220Y-29390D01*
X33830Y-25870D02*
X33830Y-26280D01*
X31470Y-26320D02*
X34250Y-26320D01*
X34270Y-29400D02*
X34270Y-26360D01*
X31220Y-29400D02*
X34220Y-29400D01*
X30770Y-26730D02*
X30770Y-28950D01*
X30770Y-28950D02*
X31220Y-28950D01*
X31224Y-26550D02*
X31454Y-26320D01*
X30772Y-26730D02*
X31224Y-26730D01*
X31650Y-26320D02*
X31650Y-25868D01*
X31820Y-26724D02*
X31816Y-26760D01*
X31805Y-26795D01*
X31788Y-26828D01*
X31765Y-26856D01*
X31737Y-26879D01*
X31704Y-26897D01*
X31669Y-26908D01*
X31633Y-26911D01*
X31597Y-26908D01*
X31562Y-26898D01*
X31530Y-26881D01*
X31501Y-26858D01*
X31477Y-26830D01*
X31460Y-26798D01*
X31449Y-26763D01*
X31445Y-26726D01*
X31448Y-26691D01*
X31458Y-26655D01*
X31474Y-26623D01*
X31497Y-26594D01*
X31525Y-26570D01*
X31557Y-26552D01*
X31592Y-26541D01*
X31629Y-26537D01*
X31664Y-26539D01*
X31699Y-26549D01*
X31732Y-26566D01*
X31761Y-26588D01*
X31785Y-26616D01*
X31803Y-26648D01*
X31815Y-26683D01*
X31819Y-26719D01*
X31820Y-26724D01*
X26801Y-33495D02*
X26943Y-33354D01*
X26943Y-33354D02*
X27261Y-33672D01*
X27261Y-33672D02*
X27296Y-33707D01*
X27296Y-33707D02*
X27155Y-33849D01*
X29042Y-33000D02*
X27650Y-34392D01*
X27650Y-34392D02*
X26258Y-33000D01*
X26258Y-33000D02*
X27650Y-31608D01*
X27650Y-31608D02*
X29042Y-33000D01*
X24550Y-27600D02*
X24750Y-27600D01*
X24750Y-27600D02*
X24750Y-28050D01*
X24750Y-28050D02*
X24750Y-28100D01*
X24750Y-28100D02*
X24550Y-28100D01*
X26484Y-28834D02*
X24516Y-28834D01*
X24516Y-28834D02*
X24516Y-26866D01*
X24516Y-26866D02*
X26484Y-26866D01*
X26484Y-26866D02*
X26484Y-28834D01*
X27105Y-21901D02*
X27246Y-22043D01*
X27246Y-22043D02*
X26928Y-22361D01*
X26928Y-22361D02*
X26893Y-22396D01*
X26893Y-22396D02*
X26751Y-22255D01*
X27600Y-24142D02*
X26208Y-22750D01*
X26208Y-22750D02*
X27600Y-21358D01*
X27600Y-21358D02*
X28992Y-22750D01*
X28992Y-22750D02*
X27600Y-24142D01*
X33000Y-19650D02*
X33000Y-19850D01*
X33000Y-19850D02*
X32550Y-19850D01*
X32550Y-19850D02*
X32500Y-19850D01*
X32500Y-19850D02*
X32500Y-19650D01*
X31766Y-21584D02*
X31766Y-19616D01*
X31766Y-19616D02*
X33734Y-19616D01*
X33734Y-19616D02*
X33734Y-21584D01*
X33734Y-21584D02*
X31766Y-21584D01*
X38699Y-22255D02*
X38557Y-22396D01*
X38557Y-22396D02*
X38239Y-22078D01*
X38239Y-22078D02*
X38204Y-22043D01*
X38204Y-22043D02*
X38345Y-21901D01*
X36458Y-22750D02*
X37850Y-21358D01*
X37850Y-21358D02*
X39242Y-22750D01*
X39242Y-22750D02*
X37850Y-24142D01*
X37850Y-24142D02*
X36458Y-22750D01*
X40950Y-28100D02*
X40750Y-28100D01*
X40750Y-28100D02*
X40750Y-27650D01*
X40750Y-27650D02*
X40750Y-27600D01*
X40750Y-27600D02*
X40950Y-27600D01*
X39016Y-26866D02*
X40984Y-26866D01*
X40984Y-26866D02*
X40984Y-28834D01*
X40984Y-28834D02*
X39016Y-28834D01*
X39016Y-28834D02*
X39016Y-26866D01*
X38345Y-33849D02*
X38204Y-33707D01*
X38204Y-33707D02*
X38522Y-33389D01*
X38522Y-33389D02*
X38557Y-33354D01*
X38557Y-33354D02*
X38699Y-33495D01*
X37850Y-31608D02*
X39242Y-33000D01*
X39242Y-33000D02*
X37850Y-34392D01*
X37850Y-34392D02*
X36458Y-33000D01*
X36458Y-33000D02*
X37850Y-31608D01*
X32500Y-36050D02*
X32500Y-35850D01*
X32500Y-35850D02*
X32950Y-35850D01*
X32950Y-35850D02*
X33000Y-35850D01*
X33000Y-35850D02*
X33000Y-36050D01*
X33734Y-34116D02*
X33734Y-36084D01*
X33734Y-36084D02*
X31766Y-36084D01*
X31766Y-36084D02*
X31766Y-34116D01*
X31766Y-34116D02*
X33734Y-34116D01*
G54D14*
X26825Y-27960D02*
X26825Y-28215D01*
X26825Y-28215D02*
X27376Y-28215D01*
X27376Y-27960D02*
X27376Y-28215D01*
X26825Y-27960D02*
X27376Y-27960D01*
X26825Y-27380D02*
X26825Y-27636D01*
X26825Y-27636D02*
X27376Y-27636D01*
X27376Y-27380D02*
X27376Y-27636D01*
X26825Y-27380D02*
X27376Y-27380D01*
X26904Y-27722D02*
X26904Y-27878D01*
X26904Y-27878D02*
X27296Y-27878D01*
X27296Y-27722D02*
X27296Y-27878D01*
X26904Y-27722D02*
X27296Y-27722D01*
G54D10*
X27350Y-27639D02*
X27350Y-27961D01*
X26850Y-27639D02*
X26850Y-27961D01*
G54D15*
X27487Y-27024D02*
X27487Y-28576D01*
X27487Y-28576D02*
X26713Y-28576D01*
X26713Y-28576D02*
X26713Y-27024D01*
X26713Y-27024D02*
X27487Y-27024D01*
G54D14*
X33010Y-24775D02*
X33265Y-24775D01*
X33265Y-24775D02*
X33265Y-24224D01*
X33010Y-24224D02*
X33265Y-24224D01*
X33010Y-24775D02*
X33010Y-24224D01*
X32430Y-24775D02*
X32686Y-24775D01*
X32686Y-24775D02*
X32686Y-24224D01*
X32430Y-24224D02*
X32686Y-24224D01*
X32430Y-24775D02*
X32430Y-24224D01*
X32772Y-24696D02*
X32928Y-24696D01*
X32928Y-24696D02*
X32928Y-24304D01*
X32772Y-24304D02*
X32928Y-24304D01*
X32772Y-24696D02*
X32772Y-24304D01*
G54D10*
X32689Y-24250D02*
X33011Y-24250D01*
X32689Y-24750D02*
X33011Y-24750D01*
G54D15*
X32074Y-24113D02*
X33626Y-24113D01*
X33626Y-24113D02*
X33626Y-24887D01*
X33626Y-24887D02*
X32074Y-24887D01*
X32074Y-24887D02*
X32074Y-24113D01*
G54D14*
X32910Y-33775D02*
X33165Y-33775D01*
X33165Y-33775D02*
X33165Y-33224D01*
X32910Y-33224D02*
X33165Y-33224D01*
X32910Y-33775D02*
X32910Y-33224D01*
X32330Y-33775D02*
X32586Y-33775D01*
X32586Y-33775D02*
X32586Y-33224D01*
X32330Y-33224D02*
X32586Y-33224D01*
X32330Y-33775D02*
X32330Y-33224D01*
X32672Y-33696D02*
X32828Y-33696D01*
X32828Y-33696D02*
X32828Y-33304D01*
X32672Y-33304D02*
X32828Y-33304D01*
X32672Y-33696D02*
X32672Y-33304D01*
G54D10*
X32589Y-33250D02*
X32911Y-33250D01*
X32589Y-33750D02*
X32911Y-33750D01*
G54D15*
X31974Y-33113D02*
X33526Y-33113D01*
X33526Y-33113D02*
X33526Y-33887D01*
X33526Y-33887D02*
X31974Y-33887D01*
X31974Y-33887D02*
X31974Y-33113D01*
G54D14*
X38675Y-27690D02*
X38675Y-27435D01*
X38675Y-27435D02*
X38124Y-27435D01*
X38124Y-27690D02*
X38124Y-27435D01*
X38675Y-27690D02*
X38124Y-27690D01*
X38675Y-28270D02*
X38675Y-28014D01*
X38675Y-28014D02*
X38124Y-28014D01*
X38124Y-28270D02*
X38124Y-28014D01*
X38675Y-28270D02*
X38124Y-28270D01*
X38596Y-27928D02*
X38596Y-27772D01*
X38596Y-27772D02*
X38204Y-27772D01*
X38204Y-27928D02*
X38204Y-27772D01*
X38596Y-27928D02*
X38204Y-27928D01*
G54D10*
X38150Y-28011D02*
X38150Y-27689D01*
X38650Y-28011D02*
X38650Y-27689D01*
G54D15*
X38013Y-28626D02*
X38013Y-27074D01*
X38013Y-27074D02*
X38787Y-27074D01*
X38787Y-27074D02*
X38787Y-28626D01*
X38787Y-28626D02*
X38013Y-28626D01*
G54D12*
X30950Y-25150D02*
X30932Y-25324D01*
X30882Y-25492D01*
X30799Y-25648D01*
X30688Y-25784D01*
X30553Y-25896D01*
X30398Y-25979D01*
X30230Y-26031D01*
X30056Y-26049D01*
X29882Y-26034D01*
X29713Y-25984D01*
X29558Y-25903D01*
X29421Y-25793D01*
X29308Y-25658D01*
X29223Y-25504D01*
X29170Y-25337D01*
X29151Y-25162D01*
X29165Y-24988D01*
X29214Y-24819D01*
X29294Y-24663D01*
X29403Y-24525D01*
X29537Y-24411D01*
X29690Y-24326D01*
X29857Y-24271D01*
X30032Y-24251D01*
X30206Y-24264D01*
X30375Y-24311D01*
X30532Y-24391D01*
X30670Y-24499D01*
X30785Y-24632D01*
X30872Y-24784D01*
X30927Y-24951D01*
X30949Y-25125D01*
X30950Y-25150D01*
X36350Y-25150D02*
X36332Y-25324D01*
X36282Y-25492D01*
X36199Y-25648D01*
X36088Y-25784D01*
X35953Y-25896D01*
X35798Y-25979D01*
X35630Y-26031D01*
X35456Y-26049D01*
X35282Y-26034D01*
X35113Y-25984D01*
X34958Y-25903D01*
X34821Y-25793D01*
X34708Y-25658D01*
X34623Y-25504D01*
X34570Y-25337D01*
X34551Y-25162D01*
X34565Y-24988D01*
X34614Y-24819D01*
X34694Y-24663D01*
X34803Y-24525D01*
X34937Y-24411D01*
X35090Y-24326D01*
X35257Y-24271D01*
X35432Y-24251D01*
X35606Y-24264D01*
X35775Y-24311D01*
X35932Y-24391D01*
X36070Y-24499D01*
X36185Y-24632D01*
X36272Y-24784D01*
X36327Y-24951D01*
X36349Y-25125D01*
X36350Y-25150D01*
X30950Y-30550D02*
X30932Y-30724D01*
X30882Y-30892D01*
X30799Y-31048D01*
X30688Y-31184D01*
X30553Y-31296D01*
X30398Y-31379D01*
X30230Y-31431D01*
X30056Y-31449D01*
X29882Y-31434D01*
X29713Y-31384D01*
X29558Y-31303D01*
X29421Y-31193D01*
X29308Y-31058D01*
X29223Y-30904D01*
X29170Y-30737D01*
X29151Y-30562D01*
X29165Y-30388D01*
X29214Y-30219D01*
X29294Y-30063D01*
X29403Y-29925D01*
X29537Y-29811D01*
X29690Y-29726D01*
X29857Y-29671D01*
X30032Y-29651D01*
X30206Y-29664D01*
X30375Y-29711D01*
X30532Y-29791D01*
X30670Y-29899D01*
X30785Y-30032D01*
X30872Y-30184D01*
X30927Y-30351D01*
X30949Y-30525D01*
X30950Y-30550D01*
X36350Y-30550D02*
X36332Y-30724D01*
X36282Y-30892D01*
X36199Y-31048D01*
X36088Y-31184D01*
X35953Y-31296D01*
X35798Y-31379D01*
X35630Y-31431D01*
X35456Y-31449D01*
X35282Y-31434D01*
X35113Y-31384D01*
X34958Y-31303D01*
X34821Y-31193D01*
X34708Y-31058D01*
X34623Y-30904D01*
X34570Y-30737D01*
X34551Y-30562D01*
X34565Y-30388D01*
X34614Y-30219D01*
X34694Y-30063D01*
X34803Y-29925D01*
X34937Y-29811D01*
X35090Y-29726D01*
X35257Y-29671D01*
X35432Y-29651D01*
X35606Y-29664D01*
X35775Y-29711D01*
X35932Y-29791D01*
X36070Y-29899D01*
X36185Y-30032D01*
X36272Y-30184D01*
X36327Y-30351D01*
X36349Y-30525D01*
X36350Y-30550D01*
G54D14*
X32271Y-32835D02*
X32566Y-32835D01*
X32566Y-32835D02*
X32566Y-32265D01*
X32271Y-32265D02*
X32566Y-32265D01*
X32271Y-32835D02*
X32271Y-32265D01*
X32840Y-32835D02*
X33135Y-32835D01*
X33135Y-32835D02*
X33135Y-32265D01*
X32840Y-32265D02*
X33135Y-32265D01*
X32840Y-32835D02*
X32840Y-32265D01*
X32661Y-32707D02*
X32739Y-32707D01*
X32739Y-32707D02*
X32739Y-32393D01*
X32661Y-32393D02*
X32739Y-32393D01*
X32661Y-32707D02*
X32661Y-32393D01*
G54D15*
X31924Y-32163D02*
X33476Y-32163D01*
X33476Y-32937D02*
X31924Y-32937D01*
X31924Y-32937D02*
X31924Y-32163D01*
G54D16*
X32550Y-32291D02*
X32850Y-32291D01*
X32560Y-32809D02*
X32850Y-32809D01*
G54D15*
X33476Y-32163D02*
X33476Y-32937D01*
G54D14*
X28665Y-27130D02*
X28665Y-27426D01*
X28665Y-27426D02*
X29334Y-27426D01*
X29334Y-27130D02*
X29334Y-27426D01*
X28665Y-27130D02*
X29334Y-27130D01*
X28666Y-28174D02*
X28666Y-28470D01*
X28666Y-28470D02*
X29335Y-28470D01*
X29335Y-28174D02*
X29335Y-28470D01*
X28666Y-28174D02*
X29335Y-28174D01*
X28843Y-27722D02*
X28843Y-27878D01*
X28843Y-27878D02*
X29157Y-27878D01*
X29157Y-27722D02*
X29157Y-27878D01*
X28843Y-27722D02*
X29157Y-27722D01*
G54D15*
X29387Y-26827D02*
X29387Y-28773D01*
X28613Y-28773D02*
X28613Y-26827D01*
X28613Y-26827D02*
X29387Y-26827D01*
X29387Y-28773D02*
X28613Y-28773D01*
G54D16*
X29309Y-27421D02*
X29309Y-28179D01*
X28691Y-27421D02*
X28691Y-28179D01*
G54D14*
X36835Y-28520D02*
X36835Y-28224D01*
X36835Y-28224D02*
X36166Y-28224D01*
X36166Y-28520D02*
X36166Y-28224D01*
X36835Y-28520D02*
X36166Y-28520D01*
X36834Y-27476D02*
X36834Y-27180D01*
X36834Y-27180D02*
X36165Y-27180D01*
X36165Y-27476D02*
X36165Y-27180D01*
X36834Y-27476D02*
X36165Y-27476D01*
X36657Y-27928D02*
X36657Y-27772D01*
X36657Y-27772D02*
X36343Y-27772D01*
X36343Y-27928D02*
X36343Y-27772D01*
X36657Y-27928D02*
X36343Y-27928D01*
G54D15*
X36113Y-28823D02*
X36113Y-26877D01*
X36887Y-26877D02*
X36887Y-28823D01*
X36887Y-28823D02*
X36113Y-28823D01*
X36113Y-26877D02*
X36887Y-26877D01*
G54D16*
X36191Y-28229D02*
X36191Y-27471D01*
X36809Y-28229D02*
X36809Y-27471D01*
G54D14*
X27765Y-27371D02*
X27765Y-27666D01*
X27765Y-27666D02*
X28335Y-27666D01*
X28335Y-27371D02*
X28335Y-27666D01*
X27765Y-27371D02*
X28335Y-27371D01*
X27765Y-27940D02*
X27765Y-28235D01*
X27765Y-28235D02*
X28335Y-28235D01*
X28335Y-27940D02*
X28335Y-28235D01*
X27765Y-27940D02*
X28335Y-27940D01*
X27893Y-27761D02*
X27893Y-27839D01*
X27893Y-27839D02*
X28207Y-27839D01*
X28207Y-27761D02*
X28207Y-27839D01*
X27893Y-27761D02*
X28207Y-27761D01*
G54D15*
X28437Y-27024D02*
X28437Y-28576D01*
X27663Y-28576D02*
X27663Y-27024D01*
X27663Y-27024D02*
X28437Y-27024D01*
G54D16*
X28309Y-27650D02*
X28309Y-27950D01*
X27791Y-27660D02*
X27791Y-27950D01*
G54D15*
X28437Y-28576D02*
X27663Y-28576D01*
G54D14*
X37735Y-28279D02*
X37735Y-27984D01*
X37735Y-27984D02*
X37165Y-27984D01*
X37165Y-28279D02*
X37165Y-27984D01*
X37735Y-28279D02*
X37165Y-28279D01*
X37735Y-27710D02*
X37735Y-27415D01*
X37735Y-27415D02*
X37165Y-27415D01*
X37165Y-27710D02*
X37165Y-27415D01*
X37735Y-27710D02*
X37165Y-27710D01*
X37607Y-27889D02*
X37607Y-27811D01*
X37607Y-27811D02*
X37293Y-27811D01*
X37293Y-27889D02*
X37293Y-27811D01*
X37607Y-27889D02*
X37293Y-27889D01*
G54D15*
X37063Y-28626D02*
X37063Y-27074D01*
X37837Y-27074D02*
X37837Y-28626D01*
X37837Y-28626D02*
X37063Y-28626D01*
G54D16*
X37191Y-28000D02*
X37191Y-27700D01*
X37709Y-27990D02*
X37709Y-27700D01*
G54D15*
X37063Y-27074D02*
X37837Y-27074D01*
G54D14*
X32080Y-31935D02*
X32376Y-31935D01*
X32376Y-31935D02*
X32376Y-31266D01*
X32080Y-31266D02*
X32376Y-31266D01*
X32080Y-31935D02*
X32080Y-31266D01*
X33124Y-31934D02*
X33420Y-31934D01*
X33420Y-31934D02*
X33420Y-31265D01*
X33124Y-31265D02*
X33420Y-31265D01*
X33124Y-31934D02*
X33124Y-31265D01*
X32672Y-31757D02*
X32828Y-31757D01*
X32828Y-31757D02*
X32828Y-31443D01*
X32672Y-31443D02*
X32828Y-31443D01*
X32672Y-31757D02*
X32672Y-31443D01*
G54D15*
X31777Y-31213D02*
X33723Y-31213D01*
X33723Y-31987D02*
X31777Y-31987D01*
X31777Y-31987D02*
X31777Y-31213D01*
X33723Y-31213D02*
X33723Y-31987D01*
G54D16*
X32371Y-31291D02*
X33129Y-31291D01*
X32371Y-31909D02*
X33129Y-31909D01*
G54D17*
X27536Y-33313D02*
X27253Y-33030D01*
X27320Y-32963D01*
X27375Y-32936D01*
X27428Y-32936D01*
X27469Y-32949D01*
X27536Y-32989D01*
X27576Y-33030D01*
X27617Y-33097D01*
X27631Y-33138D01*
X27631Y-33192D01*
X27603Y-33246D01*
X27536Y-33313D01*
X27697Y-32828D02*
X27657Y-32842D01*
X27630Y-32842D01*
X27590Y-32828D01*
X27576Y-32815D01*
X27563Y-32774D01*
X27563Y-32747D01*
X27576Y-32707D01*
X27631Y-32653D01*
X27671Y-32639D01*
X27698Y-32639D01*
X27738Y-32653D01*
X27752Y-32666D01*
X27765Y-32706D01*
X27765Y-32733D01*
X27752Y-32774D01*
X27697Y-32828D01*
X27684Y-32868D01*
X27684Y-32895D01*
X27698Y-32936D01*
X27752Y-32990D01*
X27792Y-33003D01*
X27819Y-33003D01*
X27859Y-32990D01*
X27914Y-32936D01*
X27927Y-32895D01*
X27927Y-32868D01*
X27914Y-32828D01*
X27860Y-32774D01*
X27819Y-32760D01*
X27792Y-32760D01*
X27752Y-32774D01*
X25175Y-28022D02*
X25175Y-27622D01*
X25270Y-27622D01*
X25328Y-27641D01*
X25366Y-27679D01*
X25385Y-27717D01*
X25404Y-27793D01*
X25404Y-27850D01*
X25385Y-27927D01*
X25366Y-27965D01*
X25328Y-28003D01*
X25270Y-28022D01*
X25175Y-28022D01*
X25537Y-27622D02*
X25804Y-27622D01*
X25632Y-28022D01*
X27287Y-22696D02*
X27570Y-22413D01*
X27637Y-22480D01*
X27664Y-22535D01*
X27664Y-22588D01*
X27651Y-22629D01*
X27611Y-22696D01*
X27570Y-22736D01*
X27503Y-22777D01*
X27462Y-22791D01*
X27408Y-22791D01*
X27354Y-22763D01*
X27287Y-22696D01*
X27974Y-22818D02*
X27920Y-22763D01*
X27879Y-22750D01*
X27853Y-22750D01*
X27785Y-22763D01*
X27718Y-22803D01*
X27610Y-22912D01*
X27597Y-22952D01*
X27597Y-22979D01*
X27610Y-23019D01*
X27664Y-23074D01*
X27705Y-23087D01*
X27732Y-23087D01*
X27772Y-23074D01*
X27840Y-23006D01*
X27853Y-22965D01*
X27853Y-22938D01*
X27840Y-22898D01*
X27785Y-22844D01*
X27745Y-22830D01*
X27718Y-22830D01*
X27678Y-22844D01*
X32962Y-20905D02*
X32562Y-20905D01*
X32562Y-20810D01*
X32581Y-20752D01*
X32619Y-20714D01*
X32657Y-20695D01*
X32733Y-20676D01*
X32790Y-20676D01*
X32867Y-20695D01*
X32905Y-20714D01*
X32943Y-20752D01*
X32962Y-20810D01*
X32962Y-20905D01*
X32562Y-20314D02*
X32562Y-20505D01*
X32752Y-20524D01*
X32733Y-20505D01*
X32714Y-20467D01*
X32714Y-20371D01*
X32733Y-20333D01*
X32752Y-20314D01*
X32790Y-20295D01*
X32886Y-20295D01*
X32924Y-20314D01*
X32943Y-20333D01*
X32962Y-20371D01*
X32962Y-20467D01*
X32943Y-20505D01*
X32924Y-20524D01*
X37816Y-23103D02*
X37533Y-22820D01*
X37600Y-22753D01*
X37655Y-22726D01*
X37708Y-22726D01*
X37749Y-22739D01*
X37816Y-22779D01*
X37856Y-22820D01*
X37897Y-22887D01*
X37911Y-22928D01*
X37911Y-22982D01*
X37883Y-23036D01*
X37816Y-23103D01*
X38032Y-22510D02*
X38220Y-22699D01*
X37856Y-22470D02*
X37991Y-22740D01*
X38167Y-22564D01*
X39705Y-28052D02*
X39705Y-27652D01*
X39800Y-27652D01*
X39858Y-27671D01*
X39896Y-27709D01*
X39915Y-27747D01*
X39934Y-27823D01*
X39934Y-27880D01*
X39915Y-27957D01*
X39896Y-27995D01*
X39858Y-28033D01*
X39800Y-28052D01*
X39705Y-28052D01*
X40067Y-27652D02*
X40315Y-27652D01*
X40181Y-27804D01*
X40239Y-27804D01*
X40277Y-27823D01*
X40296Y-27842D01*
X40315Y-27880D01*
X40315Y-27976D01*
X40296Y-28014D01*
X40277Y-28033D01*
X40239Y-28052D01*
X40124Y-28052D01*
X40086Y-28033D01*
X40067Y-28014D01*
X37527Y-32926D02*
X37810Y-32643D01*
X37877Y-32710D01*
X37904Y-32765D01*
X37904Y-32818D01*
X37891Y-32859D01*
X37851Y-32926D01*
X37810Y-32966D01*
X37743Y-33007D01*
X37702Y-33021D01*
X37648Y-33021D01*
X37594Y-32993D01*
X37527Y-32926D01*
X38052Y-32939D02*
X38079Y-32939D01*
X38119Y-32953D01*
X38187Y-33021D01*
X38201Y-33061D01*
X38201Y-33088D01*
X38187Y-33128D01*
X38160Y-33155D01*
X38107Y-33182D01*
X37783Y-33182D01*
X37958Y-33357D01*
X32912Y-35395D02*
X32512Y-35395D01*
X32512Y-35300D01*
X32531Y-35242D01*
X32569Y-35204D01*
X32607Y-35185D01*
X32683Y-35166D01*
X32740Y-35166D01*
X32817Y-35185D01*
X32855Y-35204D01*
X32893Y-35242D01*
X32912Y-35300D01*
X32912Y-35395D01*
X32912Y-34785D02*
X32912Y-35014D01*
X32912Y-34900D02*
X32512Y-34900D01*
X32569Y-34938D01*
X32607Y-34976D01*
X32626Y-35014D01*
G54D11*
X27262Y-26616D02*
X27071Y-26750D01*
X27262Y-26845D02*
X26862Y-26845D01*
X26862Y-26692D01*
X26881Y-26654D01*
X26900Y-26635D01*
X26938Y-26616D01*
X26995Y-26616D01*
X27033Y-26635D01*
X27052Y-26654D01*
X27071Y-26692D01*
X27071Y-26845D01*
X26862Y-26254D02*
X26862Y-26445D01*
X27052Y-26464D01*
X27033Y-26445D01*
X27014Y-26407D01*
X27014Y-26311D01*
X27033Y-26273D01*
X27052Y-26254D01*
X27090Y-26235D01*
X27186Y-26235D01*
X27224Y-26254D01*
X27243Y-26273D01*
X27262Y-26311D01*
X27262Y-26407D01*
X27243Y-26445D01*
X27224Y-26464D01*
X33234Y-25362D02*
X33100Y-25171D01*
X33005Y-25362D02*
X33005Y-24962D01*
X33158Y-24962D01*
X33196Y-24981D01*
X33215Y-25000D01*
X33234Y-25038D01*
X33234Y-25095D01*
X33215Y-25133D01*
X33196Y-25152D01*
X33158Y-25171D01*
X33005Y-25171D01*
X33615Y-25362D02*
X33386Y-25362D01*
X33500Y-25362D02*
X33500Y-24962D01*
X33462Y-25019D01*
X33424Y-25057D01*
X33386Y-25076D01*
X33984Y-33662D02*
X33850Y-33471D01*
X33755Y-33662D02*
X33755Y-33262D01*
X33908Y-33262D01*
X33946Y-33281D01*
X33965Y-33300D01*
X33984Y-33338D01*
X33984Y-33395D01*
X33965Y-33433D01*
X33946Y-33452D01*
X33908Y-33471D01*
X33755Y-33471D01*
X34117Y-33262D02*
X34365Y-33262D01*
X34231Y-33414D01*
X34289Y-33414D01*
X34327Y-33433D01*
X34346Y-33452D01*
X34365Y-33490D01*
X34365Y-33586D01*
X34346Y-33624D01*
X34327Y-33643D01*
X34289Y-33662D01*
X34174Y-33662D01*
X34136Y-33643D01*
X34117Y-33624D01*
X38562Y-26666D02*
X38371Y-26800D01*
X38562Y-26895D02*
X38162Y-26895D01*
X38162Y-26742D01*
X38181Y-26704D01*
X38200Y-26685D01*
X38238Y-26666D01*
X38295Y-26666D01*
X38333Y-26685D01*
X38352Y-26704D01*
X38371Y-26742D01*
X38371Y-26895D01*
X38295Y-26323D02*
X38562Y-26323D01*
X38143Y-26419D02*
X38429Y-26514D01*
X38429Y-26266D01*
X33884Y-32674D02*
X33865Y-32693D01*
X33808Y-32712D01*
X33770Y-32712D01*
X33712Y-32693D01*
X33674Y-32655D01*
X33655Y-32617D01*
X33636Y-32540D01*
X33636Y-32483D01*
X33655Y-32407D01*
X33674Y-32369D01*
X33712Y-32331D01*
X33770Y-32312D01*
X33808Y-32312D01*
X33865Y-32331D01*
X33884Y-32350D01*
X34227Y-32445D02*
X34227Y-32712D01*
X34131Y-32293D02*
X34036Y-32579D01*
X34284Y-32579D01*
X29924Y-28466D02*
X29943Y-28485D01*
X29962Y-28542D01*
X29962Y-28580D01*
X29943Y-28638D01*
X29905Y-28676D01*
X29867Y-28695D01*
X29790Y-28714D01*
X29733Y-28714D01*
X29657Y-28695D01*
X29619Y-28676D01*
X29581Y-28638D01*
X29562Y-28580D01*
X29562Y-28542D01*
X29581Y-28485D01*
X29600Y-28466D01*
X29562Y-28333D02*
X29562Y-28066D01*
X29962Y-28238D01*
X35924Y-28516D02*
X35943Y-28535D01*
X35962Y-28592D01*
X35962Y-28630D01*
X35943Y-28688D01*
X35905Y-28726D01*
X35867Y-28745D01*
X35790Y-28764D01*
X35733Y-28764D01*
X35657Y-28745D01*
X35619Y-28726D01*
X35581Y-28688D01*
X35562Y-28630D01*
X35562Y-28592D01*
X35581Y-28535D01*
X35600Y-28516D01*
X35962Y-28326D02*
X35962Y-28250D01*
X35943Y-28211D01*
X35924Y-28192D01*
X35867Y-28154D01*
X35790Y-28135D01*
X35638Y-28135D01*
X35600Y-28154D01*
X35581Y-28173D01*
X35562Y-28211D01*
X35562Y-28288D01*
X35581Y-28326D01*
X35600Y-28345D01*
X35638Y-28364D01*
X35733Y-28364D01*
X35771Y-28345D01*
X35790Y-28326D01*
X35810Y-28288D01*
X35810Y-28211D01*
X35790Y-28173D01*
X35771Y-28154D01*
X35733Y-28135D01*
X28174Y-26616D02*
X28193Y-26635D01*
X28212Y-26692D01*
X28212Y-26730D01*
X28193Y-26788D01*
X28155Y-26826D01*
X28117Y-26845D01*
X28040Y-26864D01*
X27983Y-26864D01*
X27907Y-26845D01*
X27869Y-26826D01*
X27831Y-26788D01*
X27812Y-26730D01*
X27812Y-26692D01*
X27831Y-26635D01*
X27850Y-26616D01*
X27812Y-26273D02*
X27812Y-26350D01*
X27831Y-26388D01*
X27850Y-26407D01*
X27907Y-26445D01*
X27983Y-26464D01*
X28136Y-26464D01*
X28174Y-26445D01*
X28193Y-26426D01*
X28212Y-26388D01*
X28212Y-26311D01*
X28193Y-26273D01*
X28174Y-26254D01*
X28136Y-26235D01*
X28040Y-26235D01*
X28002Y-26254D01*
X27983Y-26273D01*
X27964Y-26311D01*
X27964Y-26388D01*
X27983Y-26426D01*
X28002Y-26445D01*
X28040Y-26464D01*
X37574Y-26666D02*
X37593Y-26685D01*
X37612Y-26742D01*
X37612Y-26780D01*
X37593Y-26838D01*
X37555Y-26876D01*
X37517Y-26895D01*
X37440Y-26914D01*
X37383Y-26914D01*
X37307Y-26895D01*
X37269Y-26876D01*
X37231Y-26838D01*
X37212Y-26780D01*
X37212Y-26742D01*
X37231Y-26685D01*
X37250Y-26666D01*
X37383Y-26438D02*
X37364Y-26476D01*
X37345Y-26495D01*
X37307Y-26514D01*
X37288Y-26514D01*
X37250Y-26495D01*
X37231Y-26476D01*
X37212Y-26438D01*
X37212Y-26361D01*
X37231Y-26323D01*
X37250Y-26304D01*
X37288Y-26285D01*
X37307Y-26285D01*
X37345Y-26304D01*
X37364Y-26323D01*
X37383Y-26361D01*
X37383Y-26438D01*
X37402Y-26476D01*
X37421Y-26495D01*
X37460Y-26514D01*
X37536Y-26514D01*
X37574Y-26495D01*
X37593Y-26476D01*
X37612Y-26438D01*
X37612Y-26361D01*
X37593Y-26323D01*
X37574Y-26304D01*
X37536Y-26285D01*
X37460Y-26285D01*
X37421Y-26304D01*
X37402Y-26323D01*
X37383Y-26361D01*
X33234Y-31024D02*
X33215Y-31043D01*
X33158Y-31062D01*
X33120Y-31062D01*
X33062Y-31043D01*
X33024Y-31005D01*
X33005Y-30967D01*
X32986Y-30890D01*
X32986Y-30833D01*
X33005Y-30757D01*
X33024Y-30719D01*
X33062Y-30681D01*
X33120Y-30662D01*
X33158Y-30662D01*
X33215Y-30681D01*
X33234Y-30700D01*
X33596Y-30662D02*
X33405Y-30662D01*
X33386Y-30852D01*
X33405Y-30833D01*
X33443Y-30814D01*
X33539Y-30814D01*
X33577Y-30833D01*
X33596Y-30852D01*
X33615Y-30890D01*
X33615Y-30986D01*
X33596Y-31024D01*
X33577Y-31043D01*
X33539Y-31062D01*
X33443Y-31062D01*
X33405Y-31043D01*
X33386Y-31024D01*
%LPC*%
G54D18*
X30854Y-28943D03*
X30854Y-28628D03*
X30854Y-28313D03*
X30854Y-27998D03*
X30854Y-27683D03*
X30854Y-27368D03*
X30854Y-27053D03*
X30854Y-26738D03*
X34620Y-26740D03*
X34620Y-28950D03*
X34620Y-28630D03*
X34620Y-28310D03*
X34620Y-28000D03*
X34620Y-27680D03*
X34620Y-27370D03*
X34620Y-27050D03*
G54D19*
X31638Y-25950D03*
X31952Y-25950D03*
X32268Y-25950D03*
X32582Y-25950D03*
X32898Y-25950D03*
X33212Y-25950D03*
X33528Y-25950D03*
X33842Y-25950D03*
X31640Y-29730D03*
X31950Y-29730D03*
X32270Y-29730D03*
X32580Y-29730D03*
X32890Y-29730D03*
X33210Y-29730D03*
X33530Y-29730D03*
X33850Y-29730D03*
G54D10*
G36*
X27817Y-33751D02*
X28290Y-34224D01*
X27983Y-34531D01*
X27510Y-34058D01*
X27817Y-33751D01*
X27817Y-33751D01*
G37*
G36*
X28263Y-33306D02*
X28736Y-33779D01*
X28429Y-34086D01*
X27956Y-33613D01*
X28263Y-33306D01*
X28263Y-33306D01*
G37*
G36*
X28708Y-32860D02*
X29181Y-33333D01*
X28874Y-33640D01*
X28401Y-33167D01*
X28708Y-32860D01*
X28708Y-32860D01*
G37*
G36*
X27317Y-31469D02*
X27790Y-31942D01*
X27483Y-32249D01*
X27010Y-31776D01*
X27317Y-31469D01*
X27317Y-31469D01*
G37*
G36*
X26871Y-31914D02*
X27344Y-32387D01*
X27037Y-32694D01*
X26564Y-32221D01*
X26871Y-31914D01*
X26871Y-31914D01*
G37*
G36*
X26426Y-32360D02*
X26899Y-32833D01*
X26592Y-33140D01*
X26119Y-32667D01*
X26426Y-32360D01*
X26426Y-32360D01*
G37*
G54D20*
X24870Y-28834D03*
X25500Y-28834D03*
X26130Y-28834D03*
X26130Y-26866D03*
X25500Y-26866D03*
X24870Y-26866D03*
G54D10*
G36*
X26849Y-22917D02*
X26376Y-23390D01*
X26069Y-23083D01*
X26542Y-22610D01*
X26849Y-22917D01*
X26849Y-22917D01*
G37*
G36*
X27294Y-23363D02*
X26821Y-23836D01*
X26514Y-23529D01*
X26987Y-23056D01*
X27294Y-23363D01*
X27294Y-23363D01*
G37*
G36*
X27740Y-23808D02*
X27267Y-24281D01*
X26960Y-23974D01*
X27433Y-23501D01*
X27740Y-23808D01*
X27740Y-23808D01*
G37*
G36*
X29131Y-22417D02*
X28658Y-22890D01*
X28351Y-22583D01*
X28824Y-22110D01*
X29131Y-22417D01*
X29131Y-22417D01*
G37*
G36*
X28686Y-21971D02*
X28213Y-22444D01*
X27906Y-22137D01*
X28379Y-21664D01*
X28686Y-21971D01*
X28686Y-21971D01*
G37*
G36*
X28240Y-21526D02*
X27767Y-21999D01*
X27460Y-21692D01*
X27933Y-21219D01*
X28240Y-21526D01*
X28240Y-21526D01*
G37*
G54D21*
X31766Y-19970D03*
X31766Y-20600D03*
X31766Y-21230D03*
X33734Y-21230D03*
X33734Y-20600D03*
X33734Y-19970D03*
G54D10*
G36*
X37683Y-21999D02*
X37210Y-21526D01*
X37517Y-21219D01*
X37990Y-21692D01*
X37683Y-21999D01*
X37683Y-21999D01*
G37*
G36*
X37237Y-22444D02*
X36764Y-21971D01*
X37071Y-21664D01*
X37544Y-22137D01*
X37237Y-22444D01*
X37237Y-22444D01*
G37*
G36*
X36792Y-22890D02*
X36319Y-22417D01*
X36626Y-22110D01*
X37099Y-22583D01*
X36792Y-22890D01*
X36792Y-22890D01*
G37*
G36*
X38183Y-24281D02*
X37710Y-23808D01*
X38017Y-23501D01*
X38490Y-23974D01*
X38183Y-24281D01*
X38183Y-24281D01*
G37*
G36*
X38629Y-23836D02*
X38156Y-23363D01*
X38463Y-23056D01*
X38936Y-23529D01*
X38629Y-23836D01*
X38629Y-23836D01*
G37*
G36*
X39074Y-23390D02*
X38601Y-22917D01*
X38908Y-22610D01*
X39381Y-23083D01*
X39074Y-23390D01*
X39074Y-23390D01*
G37*
G54D20*
X40630Y-26866D03*
X40000Y-26866D03*
X39370Y-26866D03*
X39370Y-28834D03*
X40000Y-28834D03*
X40630Y-28834D03*
G54D10*
G36*
X38601Y-32833D02*
X39074Y-32360D01*
X39381Y-32667D01*
X38908Y-33140D01*
X38601Y-32833D01*
X38601Y-32833D01*
G37*
G36*
X38156Y-32387D02*
X38629Y-31914D01*
X38936Y-32221D01*
X38463Y-32694D01*
X38156Y-32387D01*
X38156Y-32387D01*
G37*
G36*
X37710Y-31942D02*
X38183Y-31469D01*
X38490Y-31776D01*
X38017Y-32249D01*
X37710Y-31942D01*
X37710Y-31942D01*
G37*
G36*
X36319Y-33333D02*
X36792Y-32860D01*
X37099Y-33167D01*
X36626Y-33640D01*
X36319Y-33333D01*
X36319Y-33333D01*
G37*
G36*
X36764Y-33779D02*
X37237Y-33306D01*
X37544Y-33613D01*
X37071Y-34086D01*
X36764Y-33779D01*
X36764Y-33779D01*
G37*
G36*
X37210Y-34224D02*
X37683Y-33751D01*
X37990Y-34058D01*
X37517Y-34531D01*
X37210Y-34224D01*
X37210Y-34224D01*
G37*
G54D21*
X33734Y-35730D03*
X33734Y-35100D03*
X33734Y-34470D03*
X31766Y-34470D03*
X31766Y-35100D03*
X31766Y-35730D03*
G54D22*
X33250Y-26850D03*
G54D23*
X32250Y-26850D03*
X33250Y-27850D03*
X32250Y-27850D03*
X33250Y-28850D03*
X32250Y-28850D03*
G54D24*
X27100Y-27426D03*
X27100Y-28174D03*
G54D25*
X32476Y-24500D03*
X33224Y-24500D03*
X32376Y-33500D03*
X33124Y-33500D03*
G54D24*
X38400Y-28224D03*
X38400Y-27476D03*
G54D26*
X30050Y-25150D03*
X35450Y-25150D03*
X30050Y-30550D03*
X35450Y-30550D03*
G54D25*
X32326Y-32550D03*
X33074Y-32550D03*
G54D27*
X30250Y-22250D03*
G54D28*
X31250Y-22250D03*
X32250Y-22250D03*
X33250Y-22250D03*
X34250Y-22250D03*
X35250Y-22250D03*
G54D10*
G36*
X27239Y-25856D02*
X26794Y-25411D01*
X27239Y-24966D01*
X27684Y-25411D01*
X27239Y-25856D01*
X27239Y-25856D01*
G37*
G54D28*
X27946Y-24704D03*
X28654Y-23996D03*
X29361Y-23289D03*
G54D10*
G36*
X38656Y-25411D02*
X38211Y-25856D01*
X37766Y-25411D01*
X38211Y-24966D01*
X38656Y-25411D01*
X38656Y-25411D01*
G37*
G54D28*
X37504Y-24704D03*
X36796Y-23996D03*
X36089Y-23289D03*
G54D29*
X29000Y-27249D03*
X29000Y-28351D03*
X36500Y-28401D03*
X36500Y-27299D03*
G54D24*
X28050Y-27426D03*
X28050Y-28174D03*
X37450Y-28224D03*
X37450Y-27476D03*
G54D30*
X32199Y-31600D03*
X33301Y-31600D03*
M02*
