M48
METRIC,TZ
T1C0.330
T2C0.508
T3C0.813
T4C1.016
T5C2.200
%
G90
G05
T1
X063400Y-066400
X064850Y-064950
X066100Y-077100
X066100Y-079200
X066100Y-081600
X066450Y-063350
X067000Y-075300
X068500Y-062500
X072500Y-053400
X074600Y-053400
X077050Y-053400
X078700Y-054400
X079500Y-083100
X080000Y-061000
X080150Y-077950
X080150Y-078900
X080800Y-062100
X081200Y-064300
X081800Y-080650
X082000Y-064300
X082100Y-077950
X082100Y-078900
X083200Y-064100
X083550Y-077950
X083550Y-078900
X084000Y-064100
X084400Y-064800
X084850Y-063850
X086650Y-077950
X086650Y-078900
X087000Y-074600
X087600Y-051000
X087800Y-087200
X087900Y-060250
X088400Y-053400
X089850Y-054850
X090150Y-087800
X091200Y-056200
X092200Y-087800
X094100Y-087800
X097600Y-078800
X099300Y-066200
X099350Y-076950
X099950Y-061450
X100000Y-059400
X100000Y-063550
X101450Y-074900
X103000Y-074900
T2
X063750Y-070800
X066420Y-068339
X069428Y-057128
X069628Y-084572
X069701Y-080956
X072968Y-057255
X075700Y-071100
X076400Y-069300
X076900Y-060400
X080785Y-087504
X083200Y-051350
X083200Y-090150
X085585Y-053974
X093275Y-084350
X096669Y-060649
X096872Y-057028
X096972Y-084472
X099950Y-073139
X102550Y-070800
T3
X080645Y-059055
X083185Y-059055
X085725Y-059055
T4
X069188Y-064543
X070984Y-062747
X072780Y-060951
X074576Y-059155
X076835Y-056515
X079375Y-056515
X081915Y-056515
X081915Y-068199
X081915Y-070739
X081915Y-073279
X084455Y-056515
X084455Y-068199
X084455Y-070739
X084455Y-073279
X086995Y-056515
X089535Y-056515
X091667Y-059155
X093463Y-060951
X095259Y-062747
X097055Y-064543
T5
X076327Y-063881
X076327Y-077597
X090043Y-063881
X090043Y-077597
T0
M30
