G04 (created by PCBNEW-RS274X (2012-jan-04)-stable) date Thu 24 May 2012 04:50:18 PM CEST*
G01*
G70*
G90*
%MOIN*%
G04 Gerber Fmt 3.4, Leading zero omitted, Abs format*
%FSLAX34Y34*%
G04 APERTURE LIST*
%ADD10C,0.006000*%
%ADD11C,0.008000*%
%ADD12C,0.015000*%
%ADD13C,0.012000*%
%ADD14C,0.002600*%
%ADD15C,0.004000*%
%ADD16C,0.002000*%
%ADD17C,0.000100*%
%ADD18C,0.165400*%
%ADD19R,0.055000X0.055000*%
%ADD20C,0.055000*%
%ADD21R,0.059100X0.035400*%
%ADD22R,0.106300X0.063000*%
%ADD23R,0.078700X0.017700*%
%ADD24R,0.017700X0.078700*%
%ADD25R,0.060000X0.060000*%
%ADD26C,0.060000*%
%ADD27R,0.059000X0.051100*%
%ADD28R,0.051100X0.059000*%
%ADD29R,0.070800X0.062900*%
%ADD30R,0.062900X0.070800*%
%ADD31R,0.035400X0.059100*%
%ADD32R,0.063000X0.106300*%
G04 APERTURE END LIST*
G54D10*
G54D11*
X31832Y-30812D02*
X31889Y-30831D01*
X31985Y-30831D01*
X32023Y-30812D01*
X32042Y-30793D01*
X32061Y-30755D01*
X32061Y-30717D01*
X32042Y-30679D01*
X32023Y-30659D01*
X31985Y-30640D01*
X31908Y-30621D01*
X31870Y-30602D01*
X31851Y-30583D01*
X31832Y-30545D01*
X31832Y-30507D01*
X31851Y-30469D01*
X31870Y-30450D01*
X31908Y-30431D01*
X32004Y-30431D01*
X32061Y-30450D01*
X32232Y-30831D02*
X32232Y-30431D01*
X32366Y-30717D01*
X32499Y-30431D01*
X32499Y-30831D01*
X32670Y-30717D02*
X32861Y-30717D01*
X32632Y-30831D02*
X32765Y-30431D01*
X32899Y-30831D01*
X33032Y-30431D02*
X33032Y-30755D01*
X33051Y-30793D01*
X33070Y-30812D01*
X33108Y-30831D01*
X33185Y-30831D01*
X33223Y-30812D01*
X33242Y-30793D01*
X33261Y-30755D01*
X33261Y-30431D01*
X33661Y-30450D02*
X33623Y-30431D01*
X33566Y-30431D01*
X33508Y-30450D01*
X33470Y-30488D01*
X33451Y-30526D01*
X33432Y-30602D01*
X33432Y-30659D01*
X33451Y-30736D01*
X33470Y-30774D01*
X33508Y-30812D01*
X33566Y-30831D01*
X33604Y-30831D01*
X33661Y-30812D01*
X33680Y-30793D01*
X33680Y-30659D01*
X33604Y-30659D01*
X34500Y-23412D02*
X34500Y-23012D01*
X34919Y-23412D02*
X34785Y-23221D01*
X34690Y-23412D02*
X34690Y-23012D01*
X34843Y-23012D01*
X34881Y-23031D01*
X34900Y-23050D01*
X34919Y-23088D01*
X34919Y-23145D01*
X34900Y-23183D01*
X34881Y-23202D01*
X34843Y-23221D01*
X34690Y-23221D01*
G54D12*
X31600Y-31600D02*
X31599Y-31609D01*
X31596Y-31619D01*
X31591Y-31627D01*
X31585Y-31635D01*
X31577Y-31641D01*
X31569Y-31646D01*
X31560Y-31648D01*
X31550Y-31649D01*
X31541Y-31649D01*
X31532Y-31646D01*
X31523Y-31641D01*
X31516Y-31635D01*
X31509Y-31628D01*
X31505Y-31619D01*
X31502Y-31610D01*
X31501Y-31600D01*
X31501Y-31591D01*
X31504Y-31582D01*
X31508Y-31573D01*
X31515Y-31566D01*
X31522Y-31559D01*
X31530Y-31555D01*
X31540Y-31552D01*
X31549Y-31551D01*
X31558Y-31551D01*
X31568Y-31554D01*
X31576Y-31558D01*
X31584Y-31564D01*
X31590Y-31572D01*
X31595Y-31580D01*
X31598Y-31589D01*
X31599Y-31599D01*
X31600Y-31600D01*
X37500Y-28850D02*
X37499Y-28859D01*
X37496Y-28869D01*
X37491Y-28877D01*
X37485Y-28885D01*
X37477Y-28891D01*
X37469Y-28896D01*
X37460Y-28898D01*
X37450Y-28899D01*
X37441Y-28899D01*
X37432Y-28896D01*
X37423Y-28891D01*
X37416Y-28885D01*
X37409Y-28878D01*
X37405Y-28869D01*
X37402Y-28860D01*
X37401Y-28850D01*
X37401Y-28841D01*
X37404Y-28832D01*
X37408Y-28823D01*
X37415Y-28816D01*
X37422Y-28809D01*
X37430Y-28805D01*
X37440Y-28802D01*
X37449Y-28801D01*
X37458Y-28801D01*
X37468Y-28804D01*
X37476Y-28808D01*
X37484Y-28814D01*
X37490Y-28822D01*
X37495Y-28830D01*
X37498Y-28839D01*
X37499Y-28849D01*
X37500Y-28850D01*
X36550Y-29050D02*
X36549Y-29059D01*
X36546Y-29069D01*
X36541Y-29077D01*
X36535Y-29085D01*
X36527Y-29091D01*
X36519Y-29096D01*
X36510Y-29098D01*
X36500Y-29099D01*
X36491Y-29099D01*
X36482Y-29096D01*
X36473Y-29091D01*
X36466Y-29085D01*
X36459Y-29078D01*
X36455Y-29069D01*
X36452Y-29060D01*
X36451Y-29050D01*
X36451Y-29041D01*
X36454Y-29032D01*
X36458Y-29023D01*
X36465Y-29016D01*
X36472Y-29009D01*
X36480Y-29005D01*
X36490Y-29002D01*
X36499Y-29001D01*
X36508Y-29001D01*
X36518Y-29004D01*
X36526Y-29008D01*
X36534Y-29014D01*
X36540Y-29022D01*
X36545Y-29030D01*
X36548Y-29039D01*
X36549Y-29049D01*
X36550Y-29050D01*
X31750Y-32550D02*
X31749Y-32559D01*
X31746Y-32569D01*
X31741Y-32577D01*
X31735Y-32585D01*
X31727Y-32591D01*
X31719Y-32596D01*
X31710Y-32598D01*
X31700Y-32599D01*
X31691Y-32599D01*
X31682Y-32596D01*
X31673Y-32591D01*
X31666Y-32585D01*
X31659Y-32578D01*
X31655Y-32569D01*
X31652Y-32560D01*
X31651Y-32550D01*
X31651Y-32541D01*
X31654Y-32532D01*
X31658Y-32523D01*
X31665Y-32516D01*
X31672Y-32509D01*
X31680Y-32505D01*
X31690Y-32502D01*
X31699Y-32501D01*
X31708Y-32501D01*
X31718Y-32504D01*
X31726Y-32508D01*
X31734Y-32514D01*
X31740Y-32522D01*
X31745Y-32530D01*
X31748Y-32539D01*
X31749Y-32549D01*
X31750Y-32550D01*
X29070Y-26600D02*
X29068Y-26613D01*
X29064Y-26626D01*
X29058Y-26638D01*
X29049Y-26649D01*
X29039Y-26658D01*
X29027Y-26664D01*
X29014Y-26668D01*
X29000Y-26669D01*
X28987Y-26668D01*
X28974Y-26664D01*
X28962Y-26658D01*
X28952Y-26650D01*
X28943Y-26639D01*
X28936Y-26627D01*
X28932Y-26614D01*
X28931Y-26600D01*
X28932Y-26588D01*
X28935Y-26575D01*
X28942Y-26563D01*
X28950Y-26552D01*
X28961Y-26543D01*
X28972Y-26536D01*
X28985Y-26532D01*
X28999Y-26531D01*
X29012Y-26532D01*
X29025Y-26535D01*
X29037Y-26541D01*
X29048Y-26550D01*
X29057Y-26560D01*
X29063Y-26572D01*
X29068Y-26585D01*
X29069Y-26599D01*
X29070Y-26600D01*
X28120Y-26800D02*
X28118Y-26813D01*
X28114Y-26826D01*
X28108Y-26838D01*
X28099Y-26849D01*
X28089Y-26858D01*
X28077Y-26864D01*
X28064Y-26868D01*
X28050Y-26869D01*
X28037Y-26868D01*
X28024Y-26864D01*
X28012Y-26858D01*
X28002Y-26850D01*
X27993Y-26839D01*
X27986Y-26827D01*
X27982Y-26814D01*
X27981Y-26800D01*
X27982Y-26788D01*
X27985Y-26775D01*
X27992Y-26763D01*
X28000Y-26752D01*
X28011Y-26743D01*
X28022Y-26736D01*
X28035Y-26732D01*
X28049Y-26731D01*
X28062Y-26732D01*
X28075Y-26735D01*
X28087Y-26741D01*
X28098Y-26750D01*
X28107Y-26760D01*
X28113Y-26772D01*
X28118Y-26785D01*
X28119Y-26799D01*
X28120Y-26800D01*
X36350Y-25150D02*
X36332Y-25324D01*
X36282Y-25492D01*
X36199Y-25648D01*
X36088Y-25784D01*
X35953Y-25896D01*
X35798Y-25979D01*
X35630Y-26031D01*
X35456Y-26049D01*
X35282Y-26034D01*
X35113Y-25984D01*
X34958Y-25903D01*
X34821Y-25793D01*
X34708Y-25658D01*
X34623Y-25504D01*
X34570Y-25337D01*
X34551Y-25162D01*
X34565Y-24988D01*
X34614Y-24819D01*
X34694Y-24663D01*
X34803Y-24525D01*
X34937Y-24411D01*
X35090Y-24326D01*
X35257Y-24271D01*
X35432Y-24251D01*
X35606Y-24264D01*
X35775Y-24311D01*
X35932Y-24391D01*
X36070Y-24499D01*
X36185Y-24632D01*
X36272Y-24784D01*
X36327Y-24951D01*
X36349Y-25125D01*
X36350Y-25150D01*
G54D11*
X33065Y-22738D02*
X33063Y-22711D01*
X33060Y-22684D01*
X33054Y-22657D01*
X33046Y-22631D01*
X33035Y-22605D01*
X33022Y-22581D01*
X33008Y-22558D01*
X32991Y-22536D01*
X32972Y-22516D01*
X32952Y-22497D01*
X32930Y-22480D01*
X32907Y-22466D01*
X32883Y-22453D01*
X32857Y-22442D01*
X32831Y-22434D01*
X32804Y-22428D01*
X32777Y-22425D01*
X32750Y-22423D01*
X32750Y-22423D02*
X32723Y-22425D01*
X32696Y-22428D01*
X32669Y-22434D01*
X32643Y-22442D01*
X32617Y-22453D01*
X32593Y-22466D01*
X32570Y-22480D01*
X32548Y-22497D01*
X32528Y-22516D01*
X32509Y-22536D01*
X32492Y-22558D01*
X32478Y-22581D01*
X32465Y-22605D01*
X32454Y-22631D01*
X32446Y-22657D01*
X32440Y-22684D01*
X32437Y-22711D01*
X32435Y-22738D01*
G54D13*
X34250Y-22750D02*
X34250Y-23750D01*
X34250Y-23750D02*
X31250Y-23750D01*
X31250Y-23750D02*
X31250Y-22750D01*
X31250Y-22750D02*
X34250Y-22750D01*
X33250Y-23750D02*
X33250Y-22750D01*
G54D11*
X38129Y-22471D02*
X37571Y-23029D01*
X37739Y-22861D02*
X37795Y-22583D01*
X37795Y-22583D02*
X38017Y-22805D01*
X38017Y-22805D02*
X37739Y-22861D01*
X37628Y-22750D02*
X37850Y-22972D01*
G54D12*
X38699Y-22255D02*
X38557Y-22396D01*
X38557Y-22396D02*
X38239Y-22078D01*
X38239Y-22078D02*
X38204Y-22043D01*
X38204Y-22043D02*
X38345Y-21901D01*
X36458Y-22750D02*
X37850Y-21358D01*
X37850Y-21358D02*
X39242Y-22750D01*
X39242Y-22750D02*
X37850Y-24142D01*
X37850Y-24142D02*
X36458Y-22750D01*
G54D11*
X32632Y-20600D02*
X32868Y-20757D01*
X32868Y-20757D02*
X32868Y-20443D01*
X32868Y-20443D02*
X32632Y-20600D01*
X32632Y-20757D02*
X32632Y-20443D01*
X33301Y-20600D02*
X32238Y-20600D01*
G54D12*
X33000Y-19650D02*
X33000Y-19850D01*
X33000Y-19850D02*
X32550Y-19850D01*
X32550Y-19850D02*
X32500Y-19850D01*
X32500Y-19850D02*
X32500Y-19650D01*
X31766Y-21584D02*
X31766Y-19616D01*
X31766Y-19616D02*
X33734Y-19616D01*
X33734Y-19616D02*
X33734Y-21584D01*
X33734Y-21584D02*
X31766Y-21584D01*
G54D11*
X26533Y-30594D02*
X26585Y-30316D01*
X26585Y-30316D02*
X26295Y-30439D01*
X26295Y-30439D02*
X26533Y-30594D01*
X26677Y-30533D02*
X26387Y-30656D01*
X26625Y-30813D02*
X26317Y-30087D01*
G54D14*
X25968Y-30877D02*
X25850Y-30927D01*
X25850Y-30927D02*
X25927Y-31108D01*
X26045Y-31058D02*
X25927Y-31108D01*
X25968Y-30877D02*
X26045Y-31058D01*
X26193Y-30781D02*
X26139Y-30804D01*
X26139Y-30804D02*
X26178Y-30895D01*
X26232Y-30872D02*
X26178Y-30895D01*
X26193Y-30781D02*
X26232Y-30872D01*
X26014Y-30857D02*
X25960Y-30880D01*
X25960Y-30880D02*
X25998Y-30971D01*
X26053Y-30948D02*
X25998Y-30971D01*
X26014Y-30857D02*
X26053Y-30948D01*
X26148Y-30800D02*
X26005Y-30861D01*
X26005Y-30861D02*
X26032Y-30924D01*
X26175Y-30863D02*
X26032Y-30924D01*
X26148Y-30800D02*
X26175Y-30863D01*
X25738Y-30334D02*
X25620Y-30384D01*
X25620Y-30384D02*
X25697Y-30566D01*
X25815Y-30516D02*
X25697Y-30566D01*
X25738Y-30334D02*
X25815Y-30516D01*
X26073Y-30192D02*
X25955Y-30242D01*
X25955Y-30242D02*
X26032Y-30423D01*
X26150Y-30373D02*
X26032Y-30423D01*
X26073Y-30192D02*
X26150Y-30373D01*
X25822Y-30405D02*
X25768Y-30428D01*
X25768Y-30428D02*
X25807Y-30519D01*
X25861Y-30496D02*
X25807Y-30519D01*
X25822Y-30405D02*
X25861Y-30496D01*
X26002Y-30329D02*
X25947Y-30352D01*
X25947Y-30352D02*
X25986Y-30443D01*
X26040Y-30420D02*
X25986Y-30443D01*
X26002Y-30329D02*
X26040Y-30420D01*
X25968Y-30376D02*
X25825Y-30437D01*
X25825Y-30437D02*
X25852Y-30500D01*
X25995Y-30439D02*
X25852Y-30500D01*
X25968Y-30376D02*
X25995Y-30439D01*
X26036Y-30635D02*
X25964Y-30665D01*
X25964Y-30665D02*
X25995Y-30737D01*
X26066Y-30707D02*
X25995Y-30737D01*
X26036Y-30635D02*
X26066Y-30707D01*
X26294Y-30738D02*
X26185Y-30784D01*
X26185Y-30784D02*
X26231Y-30893D01*
X26340Y-30847D02*
X26231Y-30893D01*
X26294Y-30738D02*
X26340Y-30847D01*
X26369Y-30889D02*
X26287Y-30924D01*
X26287Y-30924D02*
X26298Y-30950D01*
X26380Y-30916D02*
X26298Y-30950D01*
X26369Y-30889D02*
X26380Y-30916D01*
G54D15*
X25872Y-30928D02*
X25711Y-30549D01*
X26131Y-30381D02*
X26350Y-30897D01*
G54D16*
X26322Y-30888D02*
X26321Y-30893D01*
X26319Y-30899D01*
X26317Y-30904D01*
X26313Y-30908D01*
X26309Y-30912D01*
X26304Y-30914D01*
X26298Y-30916D01*
X26293Y-30916D01*
X26288Y-30916D01*
X26283Y-30914D01*
X26278Y-30912D01*
X26273Y-30908D01*
X26270Y-30904D01*
X26267Y-30899D01*
X26265Y-30894D01*
X26265Y-30888D01*
X26265Y-30883D01*
X26267Y-30878D01*
X26269Y-30873D01*
X26273Y-30868D01*
X26277Y-30865D01*
X26282Y-30862D01*
X26287Y-30860D01*
X26293Y-30860D01*
X26298Y-30860D01*
X26303Y-30861D01*
X26308Y-30864D01*
X26312Y-30867D01*
X26316Y-30872D01*
X26319Y-30877D01*
X26321Y-30882D01*
X26321Y-30888D01*
X26322Y-30888D01*
G54D15*
X26280Y-30960D02*
X26275Y-30949D01*
X26269Y-30938D01*
X26262Y-30929D01*
X26254Y-30920D01*
X26246Y-30911D01*
X26237Y-30904D01*
X26227Y-30897D01*
X26216Y-30891D01*
X26205Y-30886D01*
X26194Y-30882D01*
X26183Y-30879D01*
X26171Y-30877D01*
X26159Y-30876D01*
X26148Y-30876D01*
X26136Y-30877D01*
X26124Y-30879D01*
X26113Y-30882D01*
X26102Y-30886D01*
X26091Y-30891D01*
X26080Y-30897D01*
X26071Y-30904D01*
X26062Y-30912D01*
X26053Y-30920D01*
X26046Y-30929D01*
X26039Y-30939D01*
X26033Y-30950D01*
X26028Y-30961D01*
X26024Y-30972D01*
X26021Y-30983D01*
X26019Y-30995D01*
X26018Y-31007D01*
X26018Y-31018D01*
X26019Y-31030D01*
X26021Y-31042D01*
X26024Y-31053D01*
X26028Y-31064D01*
X25720Y-30340D02*
X25725Y-30351D01*
X25731Y-30362D01*
X25738Y-30371D01*
X25746Y-30380D01*
X25754Y-30389D01*
X25763Y-30396D01*
X25773Y-30403D01*
X25784Y-30409D01*
X25795Y-30414D01*
X25806Y-30418D01*
X25817Y-30421D01*
X25829Y-30423D01*
X25841Y-30424D01*
X25852Y-30424D01*
X25864Y-30423D01*
X25876Y-30421D01*
X25887Y-30418D01*
X25898Y-30414D01*
X25909Y-30409D01*
X25920Y-30403D01*
X25929Y-30396D01*
X25938Y-30388D01*
X25947Y-30380D01*
X25954Y-30371D01*
X25961Y-30361D01*
X25967Y-30350D01*
X25972Y-30339D01*
X25976Y-30328D01*
X25979Y-30317D01*
X25981Y-30305D01*
X25982Y-30293D01*
X25982Y-30282D01*
X25981Y-30270D01*
X25979Y-30258D01*
X25976Y-30247D01*
X25972Y-30236D01*
G54D11*
X26416Y-25387D02*
X26650Y-25227D01*
X26650Y-25227D02*
X26358Y-25109D01*
X26358Y-25109D02*
X26416Y-25387D01*
X26561Y-25446D02*
X26269Y-25328D01*
X26327Y-25607D02*
X26622Y-24876D01*
G54D14*
X25817Y-25188D02*
X25698Y-25140D01*
X25698Y-25140D02*
X25625Y-25322D01*
X25743Y-25370D02*
X25625Y-25322D01*
X25817Y-25188D02*
X25743Y-25370D01*
X26044Y-25279D02*
X25990Y-25257D01*
X25990Y-25257D02*
X25953Y-25349D01*
X26007Y-25371D02*
X25953Y-25349D01*
X26044Y-25279D02*
X26007Y-25371D01*
X25864Y-25206D02*
X25809Y-25184D01*
X25809Y-25184D02*
X25772Y-25276D01*
X25826Y-25298D02*
X25772Y-25276D01*
X25864Y-25206D02*
X25826Y-25298D01*
X25999Y-25261D02*
X25854Y-25203D01*
X25854Y-25203D02*
X25828Y-25266D01*
X25973Y-25325D02*
X25828Y-25266D01*
X25999Y-25261D02*
X25973Y-25325D01*
X26038Y-24641D02*
X25919Y-24593D01*
X25919Y-24593D02*
X25845Y-24776D01*
X25964Y-24824D02*
X25845Y-24776D01*
X26038Y-24641D02*
X25964Y-24824D01*
X26375Y-24778D02*
X26257Y-24730D01*
X26257Y-24730D02*
X26183Y-24912D01*
X26302Y-24960D02*
X26183Y-24912D01*
X26375Y-24778D02*
X26302Y-24960D01*
X26047Y-24751D02*
X25993Y-24729D01*
X25993Y-24729D02*
X25956Y-24821D01*
X26010Y-24843D02*
X25956Y-24821D01*
X26047Y-24751D02*
X26010Y-24843D01*
X26228Y-24824D02*
X26174Y-24802D01*
X26174Y-24802D02*
X26136Y-24894D01*
X26191Y-24916D02*
X26136Y-24894D01*
X26228Y-24824D02*
X26191Y-24916D01*
X26172Y-24834D02*
X26027Y-24775D01*
X26027Y-24775D02*
X26001Y-24839D01*
X26146Y-24897D02*
X26001Y-24839D01*
X26172Y-24834D02*
X26146Y-24897D01*
X26036Y-25065D02*
X25964Y-25035D01*
X25964Y-25035D02*
X25935Y-25108D01*
X26007Y-25137D02*
X25935Y-25108D01*
X26036Y-25065D02*
X26007Y-25137D01*
X26145Y-25320D02*
X26036Y-25276D01*
X26036Y-25276D02*
X25992Y-25385D01*
X26101Y-25430D02*
X25992Y-25385D01*
X26145Y-25320D02*
X26101Y-25430D01*
X26092Y-25480D02*
X26009Y-25446D01*
X26009Y-25446D02*
X25998Y-25473D01*
X26081Y-25507D02*
X25998Y-25473D01*
X26092Y-25480D02*
X26081Y-25507D01*
G54D15*
X25713Y-25156D02*
X25868Y-24774D01*
X26283Y-24953D02*
X26073Y-25472D01*
G54D16*
X26067Y-25426D02*
X26066Y-25431D01*
X26064Y-25436D01*
X26062Y-25441D01*
X26058Y-25445D01*
X26054Y-25449D01*
X26049Y-25451D01*
X26044Y-25453D01*
X26039Y-25453D01*
X26034Y-25453D01*
X26029Y-25451D01*
X26024Y-25449D01*
X26020Y-25446D01*
X26016Y-25441D01*
X26014Y-25437D01*
X26012Y-25431D01*
X26012Y-25426D01*
X26012Y-25421D01*
X26013Y-25416D01*
X26016Y-25411D01*
X26019Y-25407D01*
X26024Y-25404D01*
X26028Y-25401D01*
X26033Y-25399D01*
X26039Y-25399D01*
X26043Y-25399D01*
X26049Y-25400D01*
X26054Y-25403D01*
X26058Y-25406D01*
X26061Y-25410D01*
X26064Y-25415D01*
X26066Y-25420D01*
X26066Y-25426D01*
X26067Y-25426D01*
G54D15*
X25979Y-25464D02*
X25983Y-25453D01*
X25986Y-25442D01*
X25988Y-25430D01*
X25988Y-25418D01*
X25988Y-25407D01*
X25987Y-25395D01*
X25985Y-25384D01*
X25982Y-25372D01*
X25978Y-25361D01*
X25972Y-25350D01*
X25966Y-25340D01*
X25960Y-25331D01*
X25952Y-25322D01*
X25943Y-25313D01*
X25934Y-25306D01*
X25924Y-25299D01*
X25914Y-25293D01*
X25903Y-25288D01*
X25892Y-25284D01*
X25881Y-25281D01*
X25869Y-25279D01*
X25857Y-25279D01*
X25846Y-25279D01*
X25834Y-25280D01*
X25823Y-25282D01*
X25811Y-25285D01*
X25800Y-25289D01*
X25789Y-25295D01*
X25779Y-25301D01*
X25770Y-25307D01*
X25761Y-25315D01*
X25752Y-25324D01*
X25745Y-25333D01*
X25738Y-25343D01*
X25732Y-25353D01*
X25727Y-25364D01*
X26021Y-24636D02*
X26017Y-24647D01*
X26014Y-24658D01*
X26012Y-24670D01*
X26012Y-24682D01*
X26012Y-24693D01*
X26013Y-24705D01*
X26015Y-24716D01*
X26018Y-24728D01*
X26022Y-24739D01*
X26028Y-24750D01*
X26034Y-24760D01*
X26040Y-24769D01*
X26048Y-24778D01*
X26057Y-24787D01*
X26066Y-24794D01*
X26076Y-24801D01*
X26086Y-24807D01*
X26097Y-24812D01*
X26108Y-24816D01*
X26119Y-24819D01*
X26131Y-24821D01*
X26143Y-24821D01*
X26154Y-24821D01*
X26166Y-24820D01*
X26177Y-24818D01*
X26189Y-24815D01*
X26200Y-24811D01*
X26211Y-24805D01*
X26221Y-24799D01*
X26230Y-24793D01*
X26239Y-24785D01*
X26248Y-24776D01*
X26255Y-24767D01*
X26262Y-24757D01*
X26268Y-24747D01*
X26273Y-24736D01*
G54D11*
X38967Y-25106D02*
X38915Y-25384D01*
X38915Y-25384D02*
X39205Y-25261D01*
X39205Y-25261D02*
X38967Y-25106D01*
X38823Y-25167D02*
X39113Y-25044D01*
X38875Y-24887D02*
X39183Y-25613D01*
G54D14*
X39532Y-24823D02*
X39650Y-24773D01*
X39650Y-24773D02*
X39573Y-24592D01*
X39455Y-24642D02*
X39573Y-24592D01*
X39532Y-24823D02*
X39455Y-24642D01*
X39307Y-24919D02*
X39361Y-24896D01*
X39361Y-24896D02*
X39322Y-24805D01*
X39268Y-24828D02*
X39322Y-24805D01*
X39307Y-24919D02*
X39268Y-24828D01*
X39486Y-24843D02*
X39540Y-24820D01*
X39540Y-24820D02*
X39502Y-24729D01*
X39447Y-24752D02*
X39502Y-24729D01*
X39486Y-24843D02*
X39447Y-24752D01*
X39352Y-24900D02*
X39495Y-24839D01*
X39495Y-24839D02*
X39468Y-24776D01*
X39325Y-24837D02*
X39468Y-24776D01*
X39352Y-24900D02*
X39325Y-24837D01*
X39762Y-25366D02*
X39880Y-25316D01*
X39880Y-25316D02*
X39803Y-25134D01*
X39685Y-25184D02*
X39803Y-25134D01*
X39762Y-25366D02*
X39685Y-25184D01*
X39427Y-25508D02*
X39545Y-25458D01*
X39545Y-25458D02*
X39468Y-25277D01*
X39350Y-25327D02*
X39468Y-25277D01*
X39427Y-25508D02*
X39350Y-25327D01*
X39678Y-25295D02*
X39732Y-25272D01*
X39732Y-25272D02*
X39693Y-25181D01*
X39639Y-25204D02*
X39693Y-25181D01*
X39678Y-25295D02*
X39639Y-25204D01*
X39498Y-25371D02*
X39553Y-25348D01*
X39553Y-25348D02*
X39514Y-25257D01*
X39460Y-25280D02*
X39514Y-25257D01*
X39498Y-25371D02*
X39460Y-25280D01*
X39532Y-25324D02*
X39675Y-25263D01*
X39675Y-25263D02*
X39648Y-25200D01*
X39505Y-25261D02*
X39648Y-25200D01*
X39532Y-25324D02*
X39505Y-25261D01*
X39464Y-25065D02*
X39536Y-25035D01*
X39536Y-25035D02*
X39505Y-24963D01*
X39434Y-24993D02*
X39505Y-24963D01*
X39464Y-25065D02*
X39434Y-24993D01*
X39206Y-24962D02*
X39315Y-24916D01*
X39315Y-24916D02*
X39269Y-24807D01*
X39160Y-24853D02*
X39269Y-24807D01*
X39206Y-24962D02*
X39160Y-24853D01*
X39131Y-24811D02*
X39213Y-24776D01*
X39213Y-24776D02*
X39202Y-24750D01*
X39120Y-24784D02*
X39202Y-24750D01*
X39131Y-24811D02*
X39120Y-24784D01*
G54D15*
X39628Y-24772D02*
X39789Y-25151D01*
X39369Y-25319D02*
X39150Y-24803D01*
G54D16*
X39236Y-24812D02*
X39235Y-24817D01*
X39233Y-24823D01*
X39231Y-24828D01*
X39227Y-24832D01*
X39223Y-24836D01*
X39218Y-24838D01*
X39212Y-24840D01*
X39207Y-24840D01*
X39202Y-24840D01*
X39197Y-24838D01*
X39192Y-24836D01*
X39187Y-24832D01*
X39184Y-24828D01*
X39181Y-24823D01*
X39179Y-24818D01*
X39179Y-24812D01*
X39179Y-24807D01*
X39181Y-24802D01*
X39183Y-24797D01*
X39187Y-24792D01*
X39191Y-24789D01*
X39196Y-24786D01*
X39201Y-24784D01*
X39207Y-24784D01*
X39212Y-24784D01*
X39217Y-24785D01*
X39222Y-24788D01*
X39226Y-24791D01*
X39230Y-24796D01*
X39233Y-24801D01*
X39235Y-24806D01*
X39235Y-24812D01*
X39236Y-24812D01*
G54D15*
X39220Y-24740D02*
X39225Y-24751D01*
X39231Y-24762D01*
X39238Y-24771D01*
X39246Y-24780D01*
X39254Y-24789D01*
X39263Y-24796D01*
X39273Y-24803D01*
X39284Y-24809D01*
X39295Y-24814D01*
X39306Y-24818D01*
X39317Y-24821D01*
X39329Y-24823D01*
X39341Y-24824D01*
X39352Y-24824D01*
X39364Y-24823D01*
X39376Y-24821D01*
X39387Y-24818D01*
X39398Y-24814D01*
X39409Y-24809D01*
X39420Y-24803D01*
X39429Y-24796D01*
X39438Y-24788D01*
X39447Y-24780D01*
X39454Y-24771D01*
X39461Y-24761D01*
X39467Y-24750D01*
X39472Y-24739D01*
X39476Y-24728D01*
X39479Y-24717D01*
X39481Y-24705D01*
X39482Y-24693D01*
X39482Y-24682D01*
X39481Y-24670D01*
X39479Y-24658D01*
X39476Y-24647D01*
X39472Y-24636D01*
X39780Y-25360D02*
X39775Y-25349D01*
X39769Y-25338D01*
X39762Y-25329D01*
X39754Y-25320D01*
X39746Y-25311D01*
X39737Y-25304D01*
X39727Y-25297D01*
X39716Y-25291D01*
X39705Y-25286D01*
X39694Y-25282D01*
X39683Y-25279D01*
X39671Y-25277D01*
X39659Y-25276D01*
X39648Y-25276D01*
X39636Y-25277D01*
X39624Y-25279D01*
X39613Y-25282D01*
X39602Y-25286D01*
X39591Y-25291D01*
X39580Y-25297D01*
X39571Y-25304D01*
X39562Y-25312D01*
X39553Y-25320D01*
X39546Y-25329D01*
X39539Y-25339D01*
X39533Y-25350D01*
X39528Y-25361D01*
X39524Y-25372D01*
X39521Y-25383D01*
X39519Y-25395D01*
X39518Y-25407D01*
X39518Y-25418D01*
X39519Y-25430D01*
X39521Y-25442D01*
X39524Y-25453D01*
X39528Y-25464D01*
G54D11*
X39084Y-30313D02*
X38850Y-30473D01*
X38850Y-30473D02*
X39142Y-30591D01*
X39142Y-30591D02*
X39084Y-30313D01*
X38939Y-30254D02*
X39231Y-30372D01*
X39173Y-30093D02*
X38878Y-30824D01*
X38878Y-30824D02*
X38893Y-30786D01*
X38893Y-30786D02*
X38878Y-30824D01*
G54D14*
X39683Y-30512D02*
X39802Y-30560D01*
X39802Y-30560D02*
X39875Y-30378D01*
X39757Y-30330D02*
X39875Y-30378D01*
X39683Y-30512D02*
X39757Y-30330D01*
X39456Y-30421D02*
X39510Y-30443D01*
X39510Y-30443D02*
X39547Y-30351D01*
X39493Y-30329D02*
X39547Y-30351D01*
X39456Y-30421D02*
X39493Y-30329D01*
X39636Y-30494D02*
X39691Y-30516D01*
X39691Y-30516D02*
X39728Y-30424D01*
X39674Y-30402D02*
X39728Y-30424D01*
X39636Y-30494D02*
X39674Y-30402D01*
X39501Y-30439D02*
X39646Y-30497D01*
X39646Y-30497D02*
X39672Y-30434D01*
X39527Y-30375D02*
X39672Y-30434D01*
X39501Y-30439D02*
X39527Y-30375D01*
X39462Y-31059D02*
X39581Y-31107D01*
X39581Y-31107D02*
X39655Y-30924D01*
X39536Y-30876D02*
X39655Y-30924D01*
X39462Y-31059D02*
X39536Y-30876D01*
X39125Y-30922D02*
X39243Y-30970D01*
X39243Y-30970D02*
X39317Y-30788D01*
X39198Y-30740D02*
X39317Y-30788D01*
X39125Y-30922D02*
X39198Y-30740D01*
X39453Y-30949D02*
X39507Y-30971D01*
X39507Y-30971D02*
X39544Y-30879D01*
X39490Y-30857D02*
X39544Y-30879D01*
X39453Y-30949D02*
X39490Y-30857D01*
X39272Y-30876D02*
X39326Y-30898D01*
X39326Y-30898D02*
X39364Y-30806D01*
X39309Y-30784D02*
X39364Y-30806D01*
X39272Y-30876D02*
X39309Y-30784D01*
X39328Y-30866D02*
X39473Y-30925D01*
X39473Y-30925D02*
X39499Y-30861D01*
X39354Y-30803D02*
X39499Y-30861D01*
X39328Y-30866D02*
X39354Y-30803D01*
X39464Y-30635D02*
X39536Y-30665D01*
X39536Y-30665D02*
X39565Y-30592D01*
X39493Y-30563D02*
X39565Y-30592D01*
X39464Y-30635D02*
X39493Y-30563D01*
X39355Y-30380D02*
X39464Y-30424D01*
X39464Y-30424D02*
X39508Y-30315D01*
X39399Y-30270D02*
X39508Y-30315D01*
X39355Y-30380D02*
X39399Y-30270D01*
X39408Y-30220D02*
X39491Y-30254D01*
X39491Y-30254D02*
X39502Y-30227D01*
X39419Y-30193D02*
X39502Y-30227D01*
X39408Y-30220D02*
X39419Y-30193D01*
G54D15*
X39787Y-30544D02*
X39632Y-30926D01*
X39217Y-30747D02*
X39427Y-30228D01*
G54D16*
X39489Y-30274D02*
X39488Y-30279D01*
X39486Y-30284D01*
X39484Y-30289D01*
X39480Y-30293D01*
X39476Y-30297D01*
X39471Y-30299D01*
X39466Y-30301D01*
X39461Y-30301D01*
X39456Y-30301D01*
X39451Y-30299D01*
X39446Y-30297D01*
X39442Y-30294D01*
X39438Y-30289D01*
X39436Y-30285D01*
X39434Y-30279D01*
X39434Y-30274D01*
X39434Y-30269D01*
X39435Y-30264D01*
X39438Y-30259D01*
X39441Y-30255D01*
X39446Y-30252D01*
X39450Y-30249D01*
X39455Y-30247D01*
X39461Y-30247D01*
X39465Y-30247D01*
X39471Y-30248D01*
X39476Y-30251D01*
X39480Y-30254D01*
X39483Y-30258D01*
X39486Y-30263D01*
X39488Y-30268D01*
X39488Y-30274D01*
X39489Y-30274D01*
G54D15*
X39521Y-30236D02*
X39517Y-30247D01*
X39514Y-30258D01*
X39512Y-30270D01*
X39512Y-30282D01*
X39512Y-30293D01*
X39513Y-30305D01*
X39515Y-30316D01*
X39518Y-30328D01*
X39522Y-30339D01*
X39528Y-30350D01*
X39534Y-30360D01*
X39540Y-30369D01*
X39548Y-30378D01*
X39557Y-30387D01*
X39566Y-30394D01*
X39576Y-30401D01*
X39586Y-30407D01*
X39597Y-30412D01*
X39608Y-30416D01*
X39619Y-30419D01*
X39631Y-30421D01*
X39643Y-30421D01*
X39654Y-30421D01*
X39666Y-30420D01*
X39677Y-30418D01*
X39689Y-30415D01*
X39700Y-30411D01*
X39711Y-30405D01*
X39721Y-30399D01*
X39730Y-30393D01*
X39739Y-30385D01*
X39748Y-30376D01*
X39755Y-30367D01*
X39762Y-30357D01*
X39768Y-30347D01*
X39773Y-30336D01*
X39479Y-31064D02*
X39483Y-31053D01*
X39486Y-31042D01*
X39488Y-31030D01*
X39488Y-31018D01*
X39488Y-31007D01*
X39487Y-30995D01*
X39485Y-30984D01*
X39482Y-30972D01*
X39478Y-30961D01*
X39472Y-30950D01*
X39466Y-30940D01*
X39460Y-30931D01*
X39452Y-30922D01*
X39443Y-30913D01*
X39434Y-30906D01*
X39424Y-30899D01*
X39414Y-30893D01*
X39403Y-30888D01*
X39392Y-30884D01*
X39381Y-30881D01*
X39369Y-30879D01*
X39357Y-30879D01*
X39346Y-30879D01*
X39334Y-30880D01*
X39323Y-30882D01*
X39311Y-30885D01*
X39300Y-30889D01*
X39289Y-30895D01*
X39279Y-30901D01*
X39270Y-30907D01*
X39261Y-30915D01*
X39252Y-30924D01*
X39245Y-30933D01*
X39238Y-30943D01*
X39232Y-30953D01*
X39227Y-30964D01*
G54D11*
X35494Y-34067D02*
X35216Y-34015D01*
X35216Y-34015D02*
X35339Y-34305D01*
X35339Y-34305D02*
X35494Y-34067D01*
X35433Y-33923D02*
X35556Y-34213D01*
X35713Y-33975D02*
X34987Y-34283D01*
G54D14*
X35777Y-34632D02*
X35827Y-34750D01*
X35827Y-34750D02*
X36008Y-34673D01*
X35958Y-34555D02*
X36008Y-34673D01*
X35777Y-34632D02*
X35958Y-34555D01*
X35681Y-34407D02*
X35704Y-34461D01*
X35704Y-34461D02*
X35795Y-34422D01*
X35772Y-34368D02*
X35795Y-34422D01*
X35681Y-34407D02*
X35772Y-34368D01*
X35757Y-34586D02*
X35780Y-34640D01*
X35780Y-34640D02*
X35871Y-34602D01*
X35848Y-34547D02*
X35871Y-34602D01*
X35757Y-34586D02*
X35848Y-34547D01*
X35700Y-34452D02*
X35761Y-34595D01*
X35761Y-34595D02*
X35824Y-34568D01*
X35763Y-34425D02*
X35824Y-34568D01*
X35700Y-34452D02*
X35763Y-34425D01*
X35234Y-34862D02*
X35284Y-34980D01*
X35284Y-34980D02*
X35466Y-34903D01*
X35416Y-34785D02*
X35466Y-34903D01*
X35234Y-34862D02*
X35416Y-34785D01*
X35092Y-34527D02*
X35142Y-34645D01*
X35142Y-34645D02*
X35323Y-34568D01*
X35273Y-34450D02*
X35323Y-34568D01*
X35092Y-34527D02*
X35273Y-34450D01*
X35305Y-34778D02*
X35328Y-34832D01*
X35328Y-34832D02*
X35419Y-34793D01*
X35396Y-34739D02*
X35419Y-34793D01*
X35305Y-34778D02*
X35396Y-34739D01*
X35229Y-34598D02*
X35252Y-34653D01*
X35252Y-34653D02*
X35343Y-34614D01*
X35320Y-34560D02*
X35343Y-34614D01*
X35229Y-34598D02*
X35320Y-34560D01*
X35276Y-34632D02*
X35337Y-34775D01*
X35337Y-34775D02*
X35400Y-34748D01*
X35339Y-34605D02*
X35400Y-34748D01*
X35276Y-34632D02*
X35339Y-34605D01*
X35535Y-34564D02*
X35565Y-34636D01*
X35565Y-34636D02*
X35637Y-34605D01*
X35607Y-34534D02*
X35637Y-34605D01*
X35535Y-34564D02*
X35607Y-34534D01*
X35638Y-34306D02*
X35684Y-34415D01*
X35684Y-34415D02*
X35793Y-34369D01*
X35747Y-34260D02*
X35793Y-34369D01*
X35638Y-34306D02*
X35747Y-34260D01*
X35789Y-34231D02*
X35824Y-34313D01*
X35824Y-34313D02*
X35850Y-34302D01*
X35816Y-34220D02*
X35850Y-34302D01*
X35789Y-34231D02*
X35816Y-34220D01*
G54D15*
X35828Y-34728D02*
X35449Y-34889D01*
X35281Y-34469D02*
X35797Y-34250D01*
G54D16*
X35817Y-34307D02*
X35816Y-34312D01*
X35814Y-34318D01*
X35812Y-34323D01*
X35808Y-34327D01*
X35804Y-34331D01*
X35799Y-34333D01*
X35793Y-34335D01*
X35788Y-34335D01*
X35783Y-34335D01*
X35778Y-34333D01*
X35773Y-34331D01*
X35768Y-34327D01*
X35765Y-34323D01*
X35762Y-34318D01*
X35760Y-34313D01*
X35760Y-34307D01*
X35760Y-34302D01*
X35762Y-34297D01*
X35764Y-34292D01*
X35768Y-34287D01*
X35772Y-34284D01*
X35777Y-34281D01*
X35782Y-34279D01*
X35788Y-34279D01*
X35793Y-34279D01*
X35798Y-34280D01*
X35803Y-34283D01*
X35807Y-34286D01*
X35811Y-34291D01*
X35814Y-34296D01*
X35816Y-34301D01*
X35816Y-34307D01*
X35817Y-34307D01*
G54D15*
X35860Y-34320D02*
X35849Y-34325D01*
X35838Y-34331D01*
X35829Y-34338D01*
X35820Y-34346D01*
X35811Y-34354D01*
X35804Y-34363D01*
X35797Y-34373D01*
X35791Y-34384D01*
X35786Y-34395D01*
X35782Y-34406D01*
X35779Y-34417D01*
X35777Y-34429D01*
X35776Y-34441D01*
X35776Y-34452D01*
X35777Y-34464D01*
X35779Y-34476D01*
X35782Y-34487D01*
X35786Y-34498D01*
X35791Y-34509D01*
X35797Y-34520D01*
X35804Y-34529D01*
X35812Y-34538D01*
X35820Y-34547D01*
X35829Y-34554D01*
X35839Y-34561D01*
X35850Y-34567D01*
X35861Y-34572D01*
X35872Y-34576D01*
X35883Y-34579D01*
X35895Y-34581D01*
X35907Y-34582D01*
X35918Y-34582D01*
X35930Y-34581D01*
X35942Y-34579D01*
X35953Y-34576D01*
X35964Y-34572D01*
X35240Y-34880D02*
X35251Y-34875D01*
X35262Y-34869D01*
X35271Y-34862D01*
X35280Y-34854D01*
X35289Y-34846D01*
X35296Y-34837D01*
X35303Y-34827D01*
X35309Y-34816D01*
X35314Y-34805D01*
X35318Y-34794D01*
X35321Y-34783D01*
X35323Y-34771D01*
X35324Y-34759D01*
X35324Y-34748D01*
X35323Y-34736D01*
X35321Y-34724D01*
X35318Y-34713D01*
X35314Y-34702D01*
X35309Y-34691D01*
X35303Y-34680D01*
X35296Y-34671D01*
X35288Y-34662D01*
X35280Y-34653D01*
X35271Y-34646D01*
X35261Y-34639D01*
X35250Y-34633D01*
X35239Y-34628D01*
X35228Y-34624D01*
X35217Y-34621D01*
X35205Y-34619D01*
X35193Y-34618D01*
X35182Y-34618D01*
X35170Y-34619D01*
X35158Y-34621D01*
X35147Y-34624D01*
X35136Y-34628D01*
G54D11*
X30250Y-34156D02*
X30070Y-33937D01*
X30070Y-33937D02*
X29978Y-34238D01*
X29978Y-34238D02*
X30250Y-34156D01*
X30296Y-34006D02*
X30204Y-34307D01*
X30476Y-34226D02*
X29723Y-33995D01*
G54D14*
X30103Y-34770D02*
X30066Y-34893D01*
X30066Y-34893D02*
X30254Y-34950D01*
X30291Y-34828D02*
X30254Y-34950D01*
X30103Y-34770D02*
X30291Y-34828D01*
X30175Y-34536D02*
X30157Y-34592D01*
X30157Y-34592D02*
X30252Y-34621D01*
X30269Y-34565D02*
X30252Y-34621D01*
X30175Y-34536D02*
X30269Y-34565D01*
X30118Y-34722D02*
X30100Y-34779D01*
X30100Y-34779D02*
X30195Y-34808D01*
X30212Y-34751D02*
X30195Y-34808D01*
X30118Y-34722D02*
X30212Y-34751D01*
X30160Y-34583D02*
X30115Y-34732D01*
X30115Y-34732D02*
X30181Y-34752D01*
X30226Y-34603D02*
X30181Y-34752D01*
X30160Y-34583D02*
X30226Y-34603D01*
X29540Y-34598D02*
X29502Y-34720D01*
X29502Y-34720D02*
X29691Y-34778D01*
X29728Y-34656D02*
X29691Y-34778D01*
X29540Y-34598D02*
X29728Y-34656D01*
X29646Y-34250D02*
X29609Y-34372D01*
X29609Y-34372D02*
X29797Y-34430D01*
X29834Y-34307D02*
X29797Y-34430D01*
X29646Y-34250D02*
X29834Y-34307D01*
X29648Y-34579D02*
X29631Y-34635D01*
X29631Y-34635D02*
X29725Y-34664D01*
X29743Y-34608D02*
X29725Y-34664D01*
X29648Y-34579D02*
X29743Y-34608D01*
X29705Y-34392D02*
X29688Y-34449D01*
X29688Y-34449D02*
X29782Y-34478D01*
X29800Y-34421D02*
X29782Y-34478D01*
X29705Y-34392D02*
X29800Y-34421D01*
X29719Y-34448D02*
X29674Y-34597D01*
X29674Y-34597D02*
X29740Y-34617D01*
X29785Y-34468D02*
X29740Y-34617D01*
X29719Y-34448D02*
X29785Y-34468D01*
X29961Y-34563D02*
X29939Y-34637D01*
X29939Y-34637D02*
X30013Y-34660D01*
X30036Y-34586D02*
X30013Y-34660D01*
X29961Y-34563D02*
X30036Y-34586D01*
X30206Y-34432D02*
X30172Y-34544D01*
X30172Y-34544D02*
X30285Y-34579D01*
X30319Y-34466D02*
X30285Y-34579D01*
X30206Y-34432D02*
X30319Y-34466D01*
X30370Y-34471D02*
X30344Y-34556D01*
X30344Y-34556D02*
X30372Y-34565D01*
X30398Y-34480D02*
X30372Y-34565D01*
X30370Y-34471D02*
X30398Y-34480D01*
G54D15*
X30081Y-34876D02*
X29687Y-34756D01*
X29829Y-34327D02*
X30364Y-34490D01*
G54D16*
X30349Y-34528D02*
X30348Y-34533D01*
X30346Y-34538D01*
X30344Y-34543D01*
X30340Y-34547D01*
X30336Y-34551D01*
X30331Y-34553D01*
X30326Y-34555D01*
X30321Y-34555D01*
X30316Y-34555D01*
X30311Y-34553D01*
X30306Y-34551D01*
X30302Y-34548D01*
X30298Y-34543D01*
X30296Y-34539D01*
X30294Y-34533D01*
X30294Y-34528D01*
X30294Y-34523D01*
X30295Y-34518D01*
X30298Y-34513D01*
X30301Y-34509D01*
X30306Y-34506D01*
X30310Y-34503D01*
X30315Y-34501D01*
X30321Y-34501D01*
X30325Y-34501D01*
X30331Y-34502D01*
X30336Y-34505D01*
X30340Y-34508D01*
X30343Y-34512D01*
X30346Y-34517D01*
X30348Y-34522D01*
X30348Y-34528D01*
X30349Y-34528D01*
G54D15*
X30365Y-34585D02*
X30354Y-34582D01*
X30342Y-34581D01*
X30330Y-34580D01*
X30319Y-34580D01*
X30308Y-34581D01*
X30296Y-34583D01*
X30284Y-34586D01*
X30273Y-34590D01*
X30263Y-34595D01*
X30252Y-34601D01*
X30243Y-34608D01*
X30234Y-34616D01*
X30225Y-34624D01*
X30218Y-34634D01*
X30211Y-34643D01*
X30205Y-34654D01*
X30200Y-34665D01*
X30196Y-34676D01*
X30193Y-34687D01*
X30192Y-34699D01*
X30191Y-34711D01*
X30191Y-34722D01*
X30192Y-34733D01*
X30194Y-34745D01*
X30197Y-34757D01*
X30201Y-34768D01*
X30206Y-34778D01*
X30212Y-34789D01*
X30219Y-34798D01*
X30227Y-34807D01*
X30235Y-34816D01*
X30245Y-34823D01*
X30254Y-34830D01*
X30265Y-34836D01*
X30276Y-34841D01*
X30287Y-34845D01*
X29535Y-34615D02*
X29546Y-34618D01*
X29558Y-34619D01*
X29570Y-34620D01*
X29581Y-34620D01*
X29592Y-34619D01*
X29604Y-34617D01*
X29616Y-34614D01*
X29627Y-34610D01*
X29637Y-34605D01*
X29648Y-34599D01*
X29657Y-34592D01*
X29666Y-34584D01*
X29675Y-34576D01*
X29682Y-34566D01*
X29689Y-34557D01*
X29695Y-34546D01*
X29700Y-34535D01*
X29704Y-34524D01*
X29707Y-34513D01*
X29708Y-34501D01*
X29709Y-34489D01*
X29709Y-34478D01*
X29708Y-34467D01*
X29706Y-34455D01*
X29703Y-34443D01*
X29699Y-34432D01*
X29694Y-34422D01*
X29688Y-34411D01*
X29681Y-34402D01*
X29673Y-34393D01*
X29665Y-34384D01*
X29655Y-34377D01*
X29646Y-34370D01*
X29635Y-34364D01*
X29624Y-34359D01*
X29613Y-34355D01*
G54D11*
X30006Y-21633D02*
X30284Y-21685D01*
X30284Y-21685D02*
X30161Y-21395D01*
X30161Y-21395D02*
X30006Y-21633D01*
X30067Y-21777D02*
X29944Y-21487D01*
X29787Y-21725D02*
X30513Y-21417D01*
G54D14*
X29723Y-21068D02*
X29673Y-20950D01*
X29673Y-20950D02*
X29492Y-21027D01*
X29542Y-21145D02*
X29492Y-21027D01*
X29723Y-21068D02*
X29542Y-21145D01*
X29819Y-21293D02*
X29796Y-21239D01*
X29796Y-21239D02*
X29705Y-21278D01*
X29728Y-21332D02*
X29705Y-21278D01*
X29819Y-21293D02*
X29728Y-21332D01*
X29743Y-21114D02*
X29720Y-21060D01*
X29720Y-21060D02*
X29629Y-21098D01*
X29652Y-21153D02*
X29629Y-21098D01*
X29743Y-21114D02*
X29652Y-21153D01*
X29800Y-21248D02*
X29739Y-21105D01*
X29739Y-21105D02*
X29676Y-21132D01*
X29737Y-21275D02*
X29676Y-21132D01*
X29800Y-21248D02*
X29737Y-21275D01*
X30266Y-20838D02*
X30216Y-20720D01*
X30216Y-20720D02*
X30034Y-20797D01*
X30084Y-20915D02*
X30034Y-20797D01*
X30266Y-20838D02*
X30084Y-20915D01*
X30408Y-21173D02*
X30358Y-21055D01*
X30358Y-21055D02*
X30177Y-21132D01*
X30227Y-21250D02*
X30177Y-21132D01*
X30408Y-21173D02*
X30227Y-21250D01*
X30195Y-20922D02*
X30172Y-20868D01*
X30172Y-20868D02*
X30081Y-20907D01*
X30104Y-20961D02*
X30081Y-20907D01*
X30195Y-20922D02*
X30104Y-20961D01*
X30271Y-21102D02*
X30248Y-21047D01*
X30248Y-21047D02*
X30157Y-21086D01*
X30180Y-21140D02*
X30157Y-21086D01*
X30271Y-21102D02*
X30180Y-21140D01*
X30224Y-21068D02*
X30163Y-20925D01*
X30163Y-20925D02*
X30100Y-20952D01*
X30161Y-21095D02*
X30100Y-20952D01*
X30224Y-21068D02*
X30161Y-21095D01*
X29965Y-21136D02*
X29935Y-21064D01*
X29935Y-21064D02*
X29863Y-21095D01*
X29893Y-21166D02*
X29863Y-21095D01*
X29965Y-21136D02*
X29893Y-21166D01*
X29862Y-21394D02*
X29816Y-21285D01*
X29816Y-21285D02*
X29707Y-21331D01*
X29753Y-21440D02*
X29707Y-21331D01*
X29862Y-21394D02*
X29753Y-21440D01*
X29711Y-21469D02*
X29676Y-21387D01*
X29676Y-21387D02*
X29650Y-21398D01*
X29684Y-21480D02*
X29650Y-21398D01*
X29711Y-21469D02*
X29684Y-21480D01*
G54D15*
X29672Y-20972D02*
X30051Y-20811D01*
X30219Y-21231D02*
X29703Y-21450D01*
G54D16*
X29741Y-21393D02*
X29740Y-21398D01*
X29738Y-21404D01*
X29736Y-21409D01*
X29732Y-21413D01*
X29728Y-21417D01*
X29723Y-21419D01*
X29717Y-21421D01*
X29712Y-21421D01*
X29707Y-21421D01*
X29702Y-21419D01*
X29697Y-21417D01*
X29692Y-21413D01*
X29689Y-21409D01*
X29686Y-21404D01*
X29684Y-21399D01*
X29684Y-21393D01*
X29684Y-21388D01*
X29686Y-21383D01*
X29688Y-21378D01*
X29692Y-21373D01*
X29696Y-21370D01*
X29701Y-21367D01*
X29706Y-21365D01*
X29712Y-21365D01*
X29717Y-21365D01*
X29722Y-21366D01*
X29727Y-21369D01*
X29731Y-21372D01*
X29735Y-21377D01*
X29738Y-21382D01*
X29740Y-21387D01*
X29740Y-21393D01*
X29741Y-21393D01*
G54D15*
X29640Y-21380D02*
X29651Y-21375D01*
X29662Y-21369D01*
X29671Y-21362D01*
X29680Y-21354D01*
X29689Y-21346D01*
X29696Y-21337D01*
X29703Y-21327D01*
X29709Y-21316D01*
X29714Y-21305D01*
X29718Y-21294D01*
X29721Y-21283D01*
X29723Y-21271D01*
X29724Y-21259D01*
X29724Y-21248D01*
X29723Y-21236D01*
X29721Y-21224D01*
X29718Y-21213D01*
X29714Y-21202D01*
X29709Y-21191D01*
X29703Y-21180D01*
X29696Y-21171D01*
X29688Y-21162D01*
X29680Y-21153D01*
X29671Y-21146D01*
X29661Y-21139D01*
X29650Y-21133D01*
X29639Y-21128D01*
X29628Y-21124D01*
X29617Y-21121D01*
X29605Y-21119D01*
X29593Y-21118D01*
X29582Y-21118D01*
X29570Y-21119D01*
X29558Y-21121D01*
X29547Y-21124D01*
X29536Y-21128D01*
X30260Y-20820D02*
X30249Y-20825D01*
X30238Y-20831D01*
X30229Y-20838D01*
X30220Y-20846D01*
X30211Y-20854D01*
X30204Y-20863D01*
X30197Y-20873D01*
X30191Y-20884D01*
X30186Y-20895D01*
X30182Y-20906D01*
X30179Y-20917D01*
X30177Y-20929D01*
X30176Y-20941D01*
X30176Y-20952D01*
X30177Y-20964D01*
X30179Y-20976D01*
X30182Y-20987D01*
X30186Y-20998D01*
X30191Y-21009D01*
X30197Y-21020D01*
X30204Y-21029D01*
X30212Y-21038D01*
X30220Y-21047D01*
X30229Y-21054D01*
X30239Y-21061D01*
X30250Y-21067D01*
X30261Y-21072D01*
X30272Y-21076D01*
X30283Y-21079D01*
X30295Y-21081D01*
X30307Y-21082D01*
X30318Y-21082D01*
X30330Y-21081D01*
X30342Y-21079D01*
X30353Y-21076D01*
X30364Y-21072D01*
G54D11*
X35213Y-21516D02*
X35373Y-21750D01*
X35373Y-21750D02*
X35491Y-21458D01*
X35491Y-21458D02*
X35213Y-21516D01*
X35154Y-21661D02*
X35272Y-21369D01*
X34993Y-21427D02*
X35724Y-21722D01*
G54D14*
X35412Y-20917D02*
X35460Y-20798D01*
X35460Y-20798D02*
X35278Y-20725D01*
X35230Y-20843D02*
X35278Y-20725D01*
X35412Y-20917D02*
X35230Y-20843D01*
X35321Y-21144D02*
X35343Y-21090D01*
X35343Y-21090D02*
X35251Y-21053D01*
X35229Y-21107D02*
X35251Y-21053D01*
X35321Y-21144D02*
X35229Y-21107D01*
X35394Y-20964D02*
X35416Y-20909D01*
X35416Y-20909D02*
X35324Y-20872D01*
X35302Y-20926D02*
X35324Y-20872D01*
X35394Y-20964D02*
X35302Y-20926D01*
X35339Y-21099D02*
X35397Y-20954D01*
X35397Y-20954D02*
X35334Y-20928D01*
X35275Y-21073D02*
X35334Y-20928D01*
X35339Y-21099D02*
X35275Y-21073D01*
X35959Y-21138D02*
X36007Y-21019D01*
X36007Y-21019D02*
X35824Y-20945D01*
X35776Y-21064D02*
X35824Y-20945D01*
X35959Y-21138D02*
X35776Y-21064D01*
X35822Y-21475D02*
X35870Y-21357D01*
X35870Y-21357D02*
X35688Y-21283D01*
X35640Y-21402D02*
X35688Y-21283D01*
X35822Y-21475D02*
X35640Y-21402D01*
X35849Y-21147D02*
X35871Y-21093D01*
X35871Y-21093D02*
X35779Y-21056D01*
X35757Y-21110D02*
X35779Y-21056D01*
X35849Y-21147D02*
X35757Y-21110D01*
X35776Y-21328D02*
X35798Y-21274D01*
X35798Y-21274D02*
X35706Y-21236D01*
X35684Y-21291D02*
X35706Y-21236D01*
X35776Y-21328D02*
X35684Y-21291D01*
X35766Y-21272D02*
X35825Y-21127D01*
X35825Y-21127D02*
X35761Y-21101D01*
X35703Y-21246D02*
X35761Y-21101D01*
X35766Y-21272D02*
X35703Y-21246D01*
X35535Y-21136D02*
X35565Y-21064D01*
X35565Y-21064D02*
X35492Y-21035D01*
X35463Y-21107D02*
X35492Y-21035D01*
X35535Y-21136D02*
X35463Y-21107D01*
X35280Y-21245D02*
X35324Y-21136D01*
X35324Y-21136D02*
X35215Y-21092D01*
X35170Y-21201D02*
X35215Y-21092D01*
X35280Y-21245D02*
X35170Y-21201D01*
X35120Y-21192D02*
X35154Y-21109D01*
X35154Y-21109D02*
X35127Y-21098D01*
X35093Y-21181D02*
X35127Y-21098D01*
X35120Y-21192D02*
X35093Y-21181D01*
G54D15*
X35444Y-20813D02*
X35826Y-20968D01*
X35647Y-21383D02*
X35128Y-21173D01*
G54D16*
X35202Y-21139D02*
X35201Y-21144D01*
X35199Y-21149D01*
X35197Y-21154D01*
X35193Y-21158D01*
X35189Y-21162D01*
X35184Y-21164D01*
X35179Y-21166D01*
X35174Y-21166D01*
X35169Y-21166D01*
X35164Y-21164D01*
X35159Y-21162D01*
X35155Y-21159D01*
X35151Y-21154D01*
X35149Y-21150D01*
X35147Y-21144D01*
X35147Y-21139D01*
X35147Y-21134D01*
X35148Y-21129D01*
X35151Y-21124D01*
X35154Y-21120D01*
X35159Y-21117D01*
X35163Y-21114D01*
X35168Y-21112D01*
X35174Y-21112D01*
X35178Y-21112D01*
X35184Y-21113D01*
X35189Y-21116D01*
X35193Y-21119D01*
X35196Y-21123D01*
X35199Y-21128D01*
X35201Y-21133D01*
X35201Y-21139D01*
X35202Y-21139D01*
G54D15*
X35136Y-21079D02*
X35147Y-21083D01*
X35158Y-21086D01*
X35170Y-21088D01*
X35182Y-21088D01*
X35193Y-21088D01*
X35205Y-21087D01*
X35216Y-21085D01*
X35228Y-21082D01*
X35239Y-21078D01*
X35250Y-21072D01*
X35260Y-21066D01*
X35269Y-21060D01*
X35278Y-21052D01*
X35287Y-21043D01*
X35294Y-21034D01*
X35301Y-21024D01*
X35307Y-21014D01*
X35312Y-21003D01*
X35316Y-20992D01*
X35319Y-20981D01*
X35321Y-20969D01*
X35321Y-20957D01*
X35321Y-20946D01*
X35320Y-20934D01*
X35318Y-20923D01*
X35315Y-20911D01*
X35311Y-20900D01*
X35305Y-20889D01*
X35299Y-20879D01*
X35293Y-20870D01*
X35285Y-20861D01*
X35276Y-20852D01*
X35267Y-20845D01*
X35257Y-20838D01*
X35247Y-20832D01*
X35236Y-20827D01*
X35964Y-21121D02*
X35953Y-21117D01*
X35942Y-21114D01*
X35930Y-21112D01*
X35918Y-21112D01*
X35907Y-21112D01*
X35895Y-21113D01*
X35884Y-21115D01*
X35872Y-21118D01*
X35861Y-21122D01*
X35850Y-21128D01*
X35840Y-21134D01*
X35831Y-21140D01*
X35822Y-21148D01*
X35813Y-21157D01*
X35806Y-21166D01*
X35799Y-21176D01*
X35793Y-21186D01*
X35788Y-21197D01*
X35784Y-21208D01*
X35781Y-21219D01*
X35779Y-21231D01*
X35779Y-21243D01*
X35779Y-21254D01*
X35780Y-21266D01*
X35782Y-21277D01*
X35785Y-21289D01*
X35789Y-21300D01*
X35795Y-21311D01*
X35801Y-21321D01*
X35807Y-21330D01*
X35815Y-21339D01*
X35824Y-21348D01*
X35833Y-21355D01*
X35843Y-21362D01*
X35853Y-21368D01*
X35864Y-21373D01*
G54D12*
X36350Y-30550D02*
X36332Y-30724D01*
X36282Y-30892D01*
X36199Y-31048D01*
X36088Y-31184D01*
X35953Y-31296D01*
X35798Y-31379D01*
X35630Y-31431D01*
X35456Y-31449D01*
X35282Y-31434D01*
X35113Y-31384D01*
X34958Y-31303D01*
X34821Y-31193D01*
X34708Y-31058D01*
X34623Y-30904D01*
X34570Y-30737D01*
X34551Y-30562D01*
X34565Y-30388D01*
X34614Y-30219D01*
X34694Y-30063D01*
X34803Y-29925D01*
X34937Y-29811D01*
X35090Y-29726D01*
X35257Y-29671D01*
X35432Y-29651D01*
X35606Y-29664D01*
X35775Y-29711D01*
X35932Y-29791D01*
X36070Y-29899D01*
X36185Y-30032D01*
X36272Y-30184D01*
X36327Y-30351D01*
X36349Y-30525D01*
X36350Y-30550D01*
X30950Y-25150D02*
X30932Y-25324D01*
X30882Y-25492D01*
X30799Y-25648D01*
X30688Y-25784D01*
X30553Y-25896D01*
X30398Y-25979D01*
X30230Y-26031D01*
X30056Y-26049D01*
X29882Y-26034D01*
X29713Y-25984D01*
X29558Y-25903D01*
X29421Y-25793D01*
X29308Y-25658D01*
X29223Y-25504D01*
X29170Y-25337D01*
X29151Y-25162D01*
X29165Y-24988D01*
X29214Y-24819D01*
X29294Y-24663D01*
X29403Y-24525D01*
X29537Y-24411D01*
X29690Y-24326D01*
X29857Y-24271D01*
X30032Y-24251D01*
X30206Y-24264D01*
X30375Y-24311D01*
X30532Y-24391D01*
X30670Y-24499D01*
X30785Y-24632D01*
X30872Y-24784D01*
X30927Y-24951D01*
X30949Y-25125D01*
X30950Y-25150D01*
X30950Y-30550D02*
X30932Y-30724D01*
X30882Y-30892D01*
X30799Y-31048D01*
X30688Y-31184D01*
X30553Y-31296D01*
X30398Y-31379D01*
X30230Y-31431D01*
X30056Y-31449D01*
X29882Y-31434D01*
X29713Y-31384D01*
X29558Y-31303D01*
X29421Y-31193D01*
X29308Y-31058D01*
X29223Y-30904D01*
X29170Y-30737D01*
X29151Y-30562D01*
X29165Y-30388D01*
X29214Y-30219D01*
X29294Y-30063D01*
X29403Y-29925D01*
X29537Y-29811D01*
X29690Y-29726D01*
X29857Y-29671D01*
X30032Y-29651D01*
X30206Y-29664D01*
X30375Y-29711D01*
X30532Y-29791D01*
X30670Y-29899D01*
X30785Y-30032D01*
X30872Y-30184D01*
X30927Y-30351D01*
X30949Y-30525D01*
X30950Y-30550D01*
G54D17*
G36*
X35704Y-33089D02*
X35721Y-33087D01*
X35737Y-33082D01*
X35744Y-33078D01*
X35758Y-33068D01*
X35769Y-33056D01*
X35778Y-33042D01*
X35784Y-33026D01*
X35786Y-33010D01*
X35786Y-32993D01*
X35782Y-32977D01*
X35774Y-32961D01*
X35769Y-32954D01*
X35762Y-32946D01*
X35755Y-32939D01*
X35747Y-32934D01*
X35745Y-32932D01*
X35731Y-32926D01*
X35716Y-32922D01*
X35699Y-32921D01*
X35693Y-32922D01*
X35684Y-32923D01*
X35676Y-32925D01*
X35667Y-32929D01*
X35657Y-32934D01*
X35643Y-32945D01*
X35632Y-32958D01*
X35624Y-32974D01*
X35621Y-32981D01*
X35619Y-32989D01*
X35618Y-32996D01*
X35618Y-32997D01*
X35618Y-32997D01*
X35617Y-32994D01*
X35617Y-32993D01*
X35615Y-32982D01*
X35611Y-32971D01*
X35606Y-32961D01*
X35596Y-32949D01*
X35583Y-32937D01*
X35569Y-32928D01*
X35552Y-32923D01*
X35534Y-32921D01*
X35530Y-32921D01*
X35516Y-32923D01*
X35504Y-32926D01*
X35501Y-32927D01*
X35487Y-32935D01*
X35474Y-32946D01*
X35464Y-32958D01*
X35456Y-32973D01*
X35451Y-32988D01*
X35451Y-32988D01*
X35450Y-32992D01*
X35450Y-32994D01*
X35450Y-32994D01*
X35450Y-32992D01*
X35449Y-32988D01*
X35448Y-32986D01*
X35443Y-32971D01*
X35435Y-32957D01*
X35424Y-32944D01*
X35414Y-32936D01*
X35400Y-32928D01*
X35384Y-32923D01*
X35366Y-32921D01*
X35353Y-32922D01*
X35336Y-32926D01*
X35321Y-32934D01*
X35308Y-32945D01*
X35296Y-32958D01*
X35295Y-32960D01*
X35291Y-32966D01*
X35289Y-32971D01*
X35287Y-32975D01*
X35285Y-32983D01*
X35283Y-32990D01*
X35282Y-32996D01*
X35282Y-32997D01*
X35282Y-32997D01*
X35281Y-32993D01*
X35279Y-32984D01*
X35275Y-32972D01*
X35270Y-32962D01*
X35260Y-32949D01*
X35247Y-32937D01*
X35232Y-32928D01*
X35216Y-32923D01*
X35198Y-32921D01*
X35182Y-32922D01*
X35166Y-32927D01*
X35151Y-32935D01*
X35137Y-32947D01*
X35131Y-32954D01*
X35124Y-32963D01*
X35119Y-32974D01*
X35116Y-32983D01*
X35114Y-33000D01*
X35114Y-33016D01*
X35118Y-33032D01*
X35124Y-33047D01*
X35134Y-33060D01*
X35145Y-33071D01*
X35159Y-33080D01*
X35174Y-33086D01*
X35191Y-33089D01*
X35193Y-33089D01*
X35210Y-33088D01*
X35226Y-33085D01*
X35242Y-33077D01*
X35247Y-33074D01*
X35258Y-33064D01*
X35268Y-33052D01*
X35275Y-33039D01*
X35277Y-33034D01*
X35279Y-33027D01*
X35281Y-33020D01*
X35282Y-33014D01*
X35282Y-33011D01*
X35282Y-33014D01*
X35283Y-33017D01*
X35284Y-33024D01*
X35287Y-33033D01*
X35289Y-33040D01*
X35293Y-33047D01*
X35304Y-33061D01*
X35316Y-33073D01*
X35331Y-33082D01*
X35348Y-33088D01*
X35351Y-33088D01*
X35363Y-33089D01*
X35375Y-33089D01*
X35386Y-33087D01*
X35397Y-33084D01*
X35413Y-33075D01*
X35427Y-33064D01*
X35428Y-33063D01*
X35437Y-33051D01*
X35444Y-33037D01*
X35449Y-33023D01*
X35449Y-33022D01*
X35450Y-33018D01*
X35450Y-33016D01*
X35450Y-33017D01*
X35451Y-33021D01*
X35451Y-33022D01*
X35453Y-33031D01*
X35457Y-33040D01*
X35462Y-33050D01*
X35470Y-33060D01*
X35482Y-33072D01*
X35497Y-33081D01*
X35514Y-33087D01*
X35517Y-33088D01*
X35528Y-33089D01*
X35540Y-33089D01*
X35551Y-33088D01*
X35561Y-33085D01*
X35576Y-33078D01*
X35590Y-33067D01*
X35602Y-33055D01*
X35611Y-33040D01*
X35613Y-33035D01*
X35615Y-33027D01*
X35617Y-33020D01*
X35618Y-33014D01*
X35618Y-33013D01*
X35618Y-33013D01*
X35619Y-33017D01*
X35619Y-33017D01*
X35621Y-33028D01*
X35625Y-33039D01*
X35630Y-33049D01*
X35633Y-33052D01*
X35643Y-33065D01*
X35657Y-33076D01*
X35671Y-33084D01*
X35687Y-33088D01*
X35704Y-33089D01*
X35704Y-33089D01*
G37*
G36*
X35024Y-32921D02*
X35034Y-32921D01*
X35044Y-32920D01*
X35055Y-32917D01*
X35071Y-32910D01*
X35085Y-32900D01*
X35097Y-32887D01*
X35105Y-32873D01*
X35111Y-32857D01*
X35113Y-32839D01*
X35112Y-32822D01*
X35108Y-32806D01*
X35100Y-32791D01*
X35090Y-32778D01*
X35076Y-32767D01*
X35072Y-32764D01*
X35056Y-32756D01*
X35039Y-32753D01*
X35021Y-32753D01*
X35004Y-32756D01*
X34990Y-32762D01*
X34975Y-32772D01*
X34963Y-32784D01*
X34954Y-32799D01*
X34947Y-32816D01*
X34946Y-32824D01*
X34945Y-32835D01*
X34945Y-32846D01*
X34947Y-32855D01*
X34948Y-32858D01*
X34954Y-32875D01*
X34964Y-32890D01*
X34977Y-32903D01*
X34992Y-32912D01*
X34999Y-32915D01*
X35009Y-32919D01*
X35018Y-32920D01*
X35024Y-32921D01*
X35024Y-32921D01*
G37*
G36*
X35873Y-32921D02*
X35890Y-32919D01*
X35907Y-32913D01*
X35922Y-32903D01*
X35926Y-32901D01*
X35937Y-32888D01*
X35947Y-32874D01*
X35953Y-32857D01*
X35954Y-32849D01*
X35955Y-32838D01*
X35955Y-32827D01*
X35953Y-32818D01*
X35952Y-32814D01*
X35945Y-32797D01*
X35936Y-32783D01*
X35924Y-32771D01*
X35909Y-32762D01*
X35893Y-32755D01*
X35875Y-32752D01*
X35869Y-32752D01*
X35852Y-32754D01*
X35836Y-32760D01*
X35822Y-32768D01*
X35810Y-32779D01*
X35800Y-32792D01*
X35792Y-32807D01*
X35788Y-32823D01*
X35787Y-32840D01*
X35788Y-32851D01*
X35790Y-32860D01*
X35793Y-32870D01*
X35800Y-32883D01*
X35811Y-32896D01*
X35824Y-32907D01*
X35839Y-32915D01*
X35855Y-32920D01*
X35873Y-32921D01*
X35873Y-32921D01*
G37*
G36*
X34856Y-32752D02*
X34868Y-32752D01*
X34878Y-32751D01*
X34890Y-32747D01*
X34906Y-32739D01*
X34920Y-32728D01*
X34929Y-32717D01*
X34938Y-32703D01*
X34943Y-32686D01*
X34944Y-32679D01*
X34945Y-32669D01*
X34944Y-32659D01*
X34943Y-32651D01*
X34942Y-32645D01*
X34935Y-32629D01*
X34926Y-32614D01*
X34913Y-32602D01*
X34898Y-32593D01*
X34892Y-32590D01*
X34881Y-32586D01*
X34870Y-32584D01*
X34858Y-32584D01*
X34850Y-32585D01*
X34841Y-32586D01*
X34832Y-32588D01*
X34823Y-32593D01*
X34818Y-32595D01*
X34804Y-32606D01*
X34792Y-32619D01*
X34783Y-32634D01*
X34778Y-32651D01*
X34777Y-32655D01*
X34776Y-32665D01*
X34777Y-32676D01*
X34778Y-32685D01*
X34779Y-32691D01*
X34786Y-32707D01*
X34795Y-32722D01*
X34808Y-32734D01*
X34823Y-32743D01*
X34840Y-32750D01*
X34845Y-32751D01*
X34856Y-32752D01*
X34856Y-32752D01*
G37*
G36*
X35532Y-32752D02*
X35549Y-32751D01*
X35565Y-32747D01*
X35574Y-32742D01*
X35588Y-32732D01*
X35600Y-32720D01*
X35610Y-32705D01*
X35615Y-32688D01*
X35616Y-32685D01*
X35618Y-32671D01*
X35618Y-32658D01*
X35614Y-32644D01*
X35608Y-32627D01*
X35598Y-32613D01*
X35585Y-32601D01*
X35570Y-32592D01*
X35553Y-32586D01*
X35542Y-32583D01*
X35548Y-32583D01*
X35549Y-32582D01*
X35561Y-32579D01*
X35574Y-32574D01*
X35585Y-32566D01*
X35587Y-32564D01*
X35600Y-32552D01*
X35609Y-32538D01*
X35615Y-32522D01*
X35618Y-32506D01*
X35617Y-32490D01*
X35614Y-32473D01*
X35606Y-32458D01*
X35606Y-32457D01*
X35596Y-32443D01*
X35583Y-32432D01*
X35569Y-32424D01*
X35553Y-32419D01*
X35537Y-32416D01*
X35521Y-32417D01*
X35505Y-32421D01*
X35490Y-32429D01*
X35476Y-32439D01*
X35468Y-32447D01*
X35460Y-32460D01*
X35454Y-32473D01*
X35451Y-32485D01*
X35450Y-32488D01*
X35450Y-32490D01*
X35450Y-32489D01*
X35449Y-32485D01*
X35446Y-32474D01*
X35441Y-32462D01*
X35434Y-32451D01*
X35430Y-32445D01*
X35417Y-32433D01*
X35403Y-32424D01*
X35386Y-32419D01*
X35369Y-32416D01*
X35352Y-32417D01*
X35342Y-32420D01*
X35325Y-32427D01*
X35311Y-32437D01*
X35299Y-32449D01*
X35290Y-32464D01*
X35284Y-32480D01*
X35283Y-32489D01*
X35282Y-32505D01*
X35285Y-32522D01*
X35291Y-32538D01*
X35301Y-32552D01*
X35313Y-32564D01*
X35328Y-32574D01*
X35334Y-32577D01*
X35342Y-32580D01*
X35349Y-32582D01*
X35355Y-32583D01*
X35356Y-32583D01*
X35355Y-32584D01*
X35352Y-32585D01*
X35343Y-32587D01*
X35332Y-32591D01*
X35322Y-32596D01*
X35317Y-32599D01*
X35306Y-32609D01*
X35296Y-32621D01*
X35289Y-32634D01*
X35284Y-32648D01*
X35282Y-32663D01*
X35282Y-32678D01*
X35283Y-32681D01*
X35288Y-32698D01*
X35295Y-32714D01*
X35307Y-32728D01*
X35316Y-32736D01*
X35331Y-32745D01*
X35348Y-32751D01*
X35355Y-32751D01*
X35364Y-32752D01*
X35373Y-32751D01*
X35382Y-32751D01*
X35389Y-32749D01*
X35395Y-32748D01*
X35411Y-32739D01*
X35425Y-32728D01*
X35436Y-32715D01*
X35440Y-32708D01*
X35446Y-32697D01*
X35449Y-32686D01*
X35449Y-32685D01*
X35450Y-32681D01*
X35450Y-32679D01*
X35450Y-32679D01*
X35450Y-32657D01*
X35450Y-32657D01*
X35450Y-32655D01*
X35449Y-32651D01*
X35449Y-32649D01*
X35444Y-32634D01*
X35435Y-32620D01*
X35425Y-32608D01*
X35412Y-32597D01*
X35398Y-32590D01*
X35397Y-32589D01*
X35389Y-32587D01*
X35382Y-32585D01*
X35375Y-32584D01*
X35382Y-32582D01*
X35392Y-32580D01*
X35407Y-32573D01*
X35421Y-32564D01*
X35432Y-32552D01*
X35441Y-32538D01*
X35445Y-32531D01*
X35448Y-32522D01*
X35449Y-32515D01*
X35450Y-32512D01*
X35450Y-32510D01*
X35450Y-32511D01*
X35451Y-32515D01*
X35452Y-32521D01*
X35455Y-32530D01*
X35459Y-32538D01*
X35464Y-32547D01*
X35475Y-32559D01*
X35488Y-32570D01*
X35503Y-32578D01*
X35518Y-32582D01*
X35526Y-32584D01*
X35518Y-32585D01*
X35517Y-32585D01*
X35510Y-32587D01*
X35502Y-32590D01*
X35501Y-32590D01*
X35487Y-32598D01*
X35474Y-32609D01*
X35464Y-32621D01*
X35456Y-32636D01*
X35451Y-32650D01*
X35451Y-32651D01*
X35450Y-32655D01*
X35450Y-32657D01*
X35450Y-32679D01*
X35450Y-32679D01*
X35450Y-32681D01*
X35451Y-32686D01*
X35454Y-32696D01*
X35461Y-32711D01*
X35472Y-32725D01*
X35484Y-32736D01*
X35499Y-32745D01*
X35499Y-32745D01*
X35515Y-32750D01*
X35532Y-32752D01*
X35532Y-32752D01*
G37*
G36*
X36033Y-32752D02*
X36047Y-32752D01*
X36059Y-32750D01*
X36067Y-32748D01*
X36083Y-32740D01*
X36097Y-32730D01*
X36108Y-32717D01*
X36117Y-32702D01*
X36122Y-32686D01*
X36124Y-32668D01*
X36123Y-32661D01*
X36120Y-32644D01*
X36113Y-32627D01*
X36103Y-32612D01*
X36100Y-32609D01*
X36088Y-32599D01*
X36074Y-32591D01*
X36059Y-32586D01*
X36059Y-32586D01*
X36046Y-32584D01*
X36032Y-32584D01*
X36020Y-32586D01*
X36015Y-32587D01*
X35999Y-32594D01*
X35985Y-32603D01*
X35974Y-32615D01*
X35965Y-32629D01*
X35958Y-32644D01*
X35955Y-32661D01*
X35956Y-32678D01*
X35959Y-32695D01*
X35965Y-32708D01*
X35975Y-32722D01*
X35987Y-32734D01*
X36002Y-32743D01*
X36018Y-32750D01*
X36020Y-32750D01*
X36033Y-32752D01*
X36033Y-32752D01*
G37*
G36*
X35200Y-32248D02*
X35217Y-32246D01*
X35233Y-32240D01*
X35241Y-32236D01*
X35248Y-32231D01*
X35256Y-32224D01*
X35265Y-32214D01*
X35274Y-32200D01*
X35280Y-32184D01*
X35281Y-32179D01*
X35282Y-32168D01*
X35282Y-32156D01*
X35280Y-32146D01*
X35276Y-32132D01*
X35268Y-32117D01*
X35258Y-32104D01*
X35256Y-32102D01*
X35248Y-32096D01*
X35239Y-32090D01*
X35231Y-32086D01*
X35228Y-32085D01*
X35221Y-32082D01*
X35214Y-32081D01*
X35209Y-32080D01*
X35206Y-32080D01*
X35209Y-32079D01*
X35213Y-32078D01*
X35219Y-32077D01*
X35225Y-32075D01*
X35237Y-32069D01*
X35250Y-32061D01*
X35260Y-32052D01*
X35261Y-32050D01*
X35272Y-32036D01*
X35278Y-32020D01*
X35282Y-32003D01*
X35282Y-31986D01*
X35281Y-31982D01*
X35276Y-31965D01*
X35268Y-31949D01*
X35257Y-31935D01*
X35247Y-31926D01*
X35232Y-31918D01*
X35216Y-31912D01*
X35212Y-31912D01*
X35201Y-31911D01*
X35189Y-31911D01*
X35178Y-31913D01*
X35169Y-31916D01*
X35153Y-31923D01*
X35140Y-31934D01*
X35129Y-31946D01*
X35120Y-31961D01*
X35115Y-31977D01*
X35115Y-31979D01*
X35114Y-31983D01*
X35113Y-31985D01*
X35113Y-31983D01*
X35112Y-31979D01*
X35110Y-31972D01*
X35108Y-31965D01*
X35105Y-31958D01*
X35102Y-31953D01*
X35092Y-31939D01*
X35079Y-31927D01*
X35064Y-31918D01*
X35048Y-31913D01*
X35030Y-31911D01*
X35016Y-31912D01*
X35000Y-31916D01*
X34985Y-31923D01*
X34976Y-31929D01*
X34964Y-31941D01*
X34955Y-31956D01*
X34948Y-31971D01*
X34945Y-31988D01*
X34945Y-32005D01*
X34949Y-32020D01*
X34956Y-32037D01*
X34966Y-32051D01*
X34979Y-32062D01*
X34994Y-32071D01*
X35011Y-32077D01*
X35021Y-32080D01*
X35015Y-32080D01*
X35012Y-32081D01*
X34998Y-32085D01*
X34985Y-32092D01*
X34973Y-32101D01*
X34963Y-32111D01*
X34957Y-32120D01*
X34951Y-32132D01*
X34947Y-32143D01*
X34946Y-32152D01*
X34945Y-32162D01*
X34945Y-32173D01*
X34947Y-32182D01*
X34950Y-32192D01*
X34958Y-32208D01*
X34968Y-32222D01*
X34982Y-32233D01*
X34997Y-32241D01*
X35015Y-32247D01*
X35019Y-32247D01*
X35030Y-32248D01*
X35041Y-32247D01*
X35050Y-32245D01*
X35057Y-32243D01*
X35073Y-32235D01*
X35087Y-32225D01*
X35098Y-32212D01*
X35107Y-32197D01*
X35112Y-32180D01*
X35112Y-32179D01*
X35113Y-32175D01*
X35114Y-32175D01*
X35114Y-32152D01*
X35113Y-32151D01*
X35112Y-32148D01*
X35112Y-32147D01*
X35109Y-32136D01*
X35104Y-32124D01*
X35097Y-32113D01*
X35092Y-32107D01*
X35079Y-32095D01*
X35063Y-32086D01*
X35046Y-32081D01*
X35038Y-32079D01*
X35044Y-32078D01*
X35049Y-32077D01*
X35054Y-32075D01*
X35058Y-32074D01*
X35073Y-32067D01*
X35087Y-32056D01*
X35098Y-32044D01*
X35106Y-32029D01*
X35112Y-32013D01*
X35112Y-32009D01*
X35113Y-32006D01*
X35114Y-32008D01*
X35115Y-32013D01*
X35115Y-32013D01*
X35118Y-32022D01*
X35122Y-32032D01*
X35127Y-32041D01*
X35132Y-32047D01*
X35139Y-32055D01*
X35148Y-32063D01*
X35156Y-32068D01*
X35156Y-32068D01*
X35169Y-32074D01*
X35183Y-32078D01*
X35189Y-32079D01*
X35182Y-32080D01*
X35167Y-32085D01*
X35152Y-32093D01*
X35139Y-32103D01*
X35128Y-32116D01*
X35125Y-32120D01*
X35121Y-32128D01*
X35118Y-32137D01*
X35115Y-32145D01*
X35114Y-32150D01*
X35114Y-32150D01*
X35114Y-32152D01*
X35114Y-32175D01*
X35114Y-32175D01*
X35115Y-32179D01*
X35116Y-32184D01*
X35117Y-32189D01*
X35121Y-32198D01*
X35129Y-32213D01*
X35140Y-32225D01*
X35153Y-32235D01*
X35168Y-32242D01*
X35184Y-32247D01*
X35200Y-32248D01*
X35200Y-32248D01*
G37*
G36*
X35707Y-32248D02*
X35723Y-32245D01*
X35739Y-32239D01*
X35753Y-32230D01*
X35766Y-32219D01*
X35775Y-32205D01*
X35783Y-32189D01*
X35784Y-32184D01*
X35785Y-32179D01*
X35785Y-32178D01*
X35786Y-32175D01*
X35786Y-32175D01*
X35786Y-32152D01*
X35786Y-32149D01*
X35784Y-32143D01*
X35781Y-32134D01*
X35774Y-32119D01*
X35763Y-32105D01*
X35751Y-32094D01*
X35736Y-32086D01*
X35719Y-32081D01*
X35711Y-32079D01*
X35717Y-32078D01*
X35718Y-32078D01*
X35731Y-32074D01*
X35744Y-32068D01*
X35750Y-32065D01*
X35758Y-32058D01*
X35766Y-32049D01*
X35773Y-32041D01*
X35777Y-32034D01*
X35782Y-32023D01*
X35785Y-32013D01*
X35786Y-32009D01*
X35786Y-32006D01*
X35787Y-32008D01*
X35788Y-32013D01*
X35792Y-32024D01*
X35799Y-32039D01*
X35810Y-32053D01*
X35823Y-32064D01*
X35839Y-32073D01*
X35856Y-32078D01*
X35862Y-32079D01*
X35854Y-32081D01*
X35846Y-32083D01*
X35830Y-32090D01*
X35815Y-32100D01*
X35803Y-32113D01*
X35800Y-32118D01*
X35795Y-32126D01*
X35792Y-32135D01*
X35790Y-32141D01*
X35788Y-32147D01*
X35788Y-32147D01*
X35787Y-32151D01*
X35786Y-32152D01*
X35786Y-32175D01*
X35787Y-32176D01*
X35788Y-32180D01*
X35789Y-32186D01*
X35794Y-32198D01*
X35801Y-32210D01*
X35806Y-32217D01*
X35818Y-32229D01*
X35833Y-32239D01*
X35850Y-32245D01*
X35858Y-32247D01*
X35869Y-32247D01*
X35881Y-32247D01*
X35892Y-32245D01*
X35893Y-32245D01*
X35910Y-32238D01*
X35924Y-32228D01*
X35937Y-32216D01*
X35946Y-32201D01*
X35953Y-32184D01*
X35954Y-32177D01*
X35955Y-32165D01*
X35954Y-32153D01*
X35953Y-32143D01*
X35950Y-32134D01*
X35944Y-32122D01*
X35937Y-32111D01*
X35929Y-32103D01*
X35919Y-32094D01*
X35908Y-32088D01*
X35904Y-32086D01*
X35896Y-32083D01*
X35888Y-32081D01*
X35882Y-32080D01*
X35882Y-32080D01*
X35884Y-32079D01*
X35889Y-32077D01*
X35898Y-32074D01*
X35909Y-32070D01*
X35919Y-32065D01*
X35920Y-32063D01*
X35931Y-32053D01*
X35941Y-32041D01*
X35948Y-32029D01*
X35951Y-32023D01*
X35954Y-32006D01*
X35955Y-31988D01*
X35952Y-31971D01*
X35951Y-31968D01*
X35944Y-31952D01*
X35933Y-31938D01*
X35920Y-31927D01*
X35905Y-31918D01*
X35889Y-31912D01*
X35886Y-31912D01*
X35875Y-31911D01*
X35862Y-31911D01*
X35851Y-31913D01*
X35849Y-31913D01*
X35832Y-31920D01*
X35817Y-31930D01*
X35805Y-31942D01*
X35795Y-31958D01*
X35793Y-31963D01*
X35790Y-31970D01*
X35788Y-31977D01*
X35787Y-31983D01*
X35787Y-31984D01*
X35787Y-31985D01*
X35786Y-31982D01*
X35785Y-31978D01*
X35782Y-31966D01*
X35775Y-31951D01*
X35764Y-31938D01*
X35752Y-31927D01*
X35737Y-31918D01*
X35737Y-31918D01*
X35721Y-31913D01*
X35704Y-31911D01*
X35687Y-31912D01*
X35671Y-31916D01*
X35662Y-31921D01*
X35648Y-31931D01*
X35636Y-31943D01*
X35626Y-31958D01*
X35621Y-31974D01*
X35620Y-31978D01*
X35618Y-31992D01*
X35618Y-32005D01*
X35622Y-32020D01*
X35629Y-32036D01*
X35639Y-32051D01*
X35652Y-32062D01*
X35667Y-32071D01*
X35684Y-32077D01*
X35688Y-32078D01*
X35691Y-32079D01*
X35691Y-32080D01*
X35686Y-32080D01*
X35676Y-32083D01*
X35666Y-32088D01*
X35656Y-32093D01*
X35646Y-32100D01*
X35635Y-32113D01*
X35626Y-32129D01*
X35624Y-32131D01*
X35619Y-32148D01*
X35618Y-32165D01*
X35620Y-32182D01*
X35626Y-32198D01*
X35629Y-32206D01*
X35635Y-32214D01*
X35642Y-32222D01*
X35642Y-32222D01*
X35656Y-32234D01*
X35671Y-32242D01*
X35688Y-32247D01*
X35690Y-32247D01*
X35707Y-32248D01*
X35707Y-32248D01*
G37*
G36*
X29652Y-33090D02*
X29659Y-33086D01*
X29674Y-33077D01*
X29696Y-33062D01*
X29722Y-33045D01*
X29748Y-33027D01*
X29770Y-33013D01*
X29785Y-33003D01*
X29791Y-33000D01*
X29794Y-33001D01*
X29807Y-33007D01*
X29824Y-33016D01*
X29835Y-33022D01*
X29851Y-33029D01*
X29860Y-33030D01*
X29861Y-33028D01*
X29867Y-33016D01*
X29876Y-32994D01*
X29889Y-32966D01*
X29903Y-32932D01*
X29918Y-32896D01*
X29934Y-32860D01*
X29948Y-32825D01*
X29961Y-32793D01*
X29971Y-32767D01*
X29978Y-32750D01*
X29981Y-32742D01*
X29980Y-32740D01*
X29972Y-32732D01*
X29957Y-32722D01*
X29926Y-32696D01*
X29895Y-32658D01*
X29877Y-32615D01*
X29870Y-32566D01*
X29876Y-32521D01*
X29893Y-32479D01*
X29923Y-32440D01*
X29960Y-32411D01*
X30002Y-32393D01*
X30050Y-32387D01*
X30095Y-32392D01*
X30139Y-32410D01*
X30178Y-32439D01*
X30195Y-32458D01*
X30217Y-32497D01*
X30230Y-32539D01*
X30231Y-32550D01*
X30229Y-32596D01*
X30216Y-32640D01*
X30191Y-32679D01*
X30158Y-32712D01*
X30153Y-32715D01*
X30138Y-32727D01*
X30127Y-32735D01*
X30119Y-32741D01*
X30178Y-32883D01*
X30187Y-32905D01*
X30203Y-32944D01*
X30217Y-32977D01*
X30229Y-33004D01*
X30237Y-33022D01*
X30240Y-33029D01*
X30240Y-33029D01*
X30246Y-33030D01*
X30256Y-33026D01*
X30276Y-33017D01*
X30289Y-33010D01*
X30304Y-33003D01*
X30311Y-33000D01*
X30317Y-33003D01*
X30331Y-33012D01*
X30352Y-33026D01*
X30378Y-33044D01*
X30402Y-33060D01*
X30424Y-33075D01*
X30440Y-33085D01*
X30448Y-33089D01*
X30449Y-33089D01*
X30456Y-33085D01*
X30469Y-33075D01*
X30488Y-33057D01*
X30515Y-33030D01*
X30519Y-33025D01*
X30542Y-33003D01*
X30560Y-32984D01*
X30572Y-32970D01*
X30577Y-32964D01*
X30577Y-32964D01*
X30573Y-32956D01*
X30562Y-32940D01*
X30548Y-32917D01*
X30530Y-32891D01*
X30483Y-32823D01*
X30509Y-32759D01*
X30517Y-32739D01*
X30527Y-32715D01*
X30534Y-32698D01*
X30538Y-32691D01*
X30545Y-32688D01*
X30562Y-32684D01*
X30588Y-32679D01*
X30618Y-32673D01*
X30647Y-32668D01*
X30673Y-32663D01*
X30692Y-32659D01*
X30701Y-32658D01*
X30703Y-32656D01*
X30705Y-32652D01*
X30706Y-32643D01*
X30706Y-32627D01*
X30707Y-32602D01*
X30707Y-32566D01*
X30707Y-32562D01*
X30706Y-32528D01*
X30706Y-32500D01*
X30705Y-32483D01*
X30704Y-32476D01*
X30704Y-32476D01*
X30695Y-32474D01*
X30677Y-32470D01*
X30651Y-32465D01*
X30620Y-32459D01*
X30618Y-32458D01*
X30587Y-32452D01*
X30560Y-32447D01*
X30542Y-32443D01*
X30535Y-32440D01*
X30533Y-32438D01*
X30527Y-32426D01*
X30518Y-32407D01*
X30507Y-32383D01*
X30497Y-32359D01*
X30489Y-32337D01*
X30483Y-32320D01*
X30481Y-32313D01*
X30481Y-32313D01*
X30486Y-32305D01*
X30496Y-32289D01*
X30511Y-32267D01*
X30530Y-32240D01*
X30531Y-32238D01*
X30549Y-32212D01*
X30563Y-32190D01*
X30573Y-32174D01*
X30577Y-32167D01*
X30576Y-32166D01*
X30571Y-32159D01*
X30557Y-32144D01*
X30538Y-32124D01*
X30515Y-32100D01*
X30508Y-32093D01*
X30482Y-32068D01*
X30464Y-32052D01*
X30453Y-32043D01*
X30448Y-32041D01*
X30448Y-32041D01*
X30440Y-32046D01*
X30423Y-32057D01*
X30401Y-32072D01*
X30374Y-32090D01*
X30372Y-32092D01*
X30346Y-32110D01*
X30324Y-32124D01*
X30309Y-32135D01*
X30302Y-32139D01*
X30301Y-32139D01*
X30290Y-32136D01*
X30271Y-32129D01*
X30248Y-32120D01*
X30224Y-32110D01*
X30202Y-32101D01*
X30185Y-32094D01*
X30178Y-32089D01*
X30177Y-32089D01*
X30175Y-32079D01*
X30170Y-32060D01*
X30164Y-32033D01*
X30158Y-32000D01*
X30157Y-31995D01*
X30151Y-31964D01*
X30146Y-31938D01*
X30143Y-31920D01*
X30141Y-31913D01*
X30136Y-31912D01*
X30121Y-31911D01*
X30098Y-31910D01*
X30070Y-31910D01*
X30040Y-31910D01*
X30011Y-31911D01*
X29987Y-31911D01*
X29969Y-31913D01*
X29961Y-31914D01*
X29961Y-31915D01*
X29958Y-31924D01*
X29954Y-31944D01*
X29949Y-31971D01*
X29942Y-32003D01*
X29941Y-32009D01*
X29935Y-32040D01*
X29930Y-32066D01*
X29926Y-32084D01*
X29924Y-32091D01*
X29922Y-32092D01*
X29909Y-32098D01*
X29888Y-32106D01*
X29862Y-32117D01*
X29802Y-32141D01*
X29728Y-32091D01*
X29721Y-32086D01*
X29695Y-32068D01*
X29673Y-32053D01*
X29658Y-32044D01*
X29651Y-32040D01*
X29651Y-32040D01*
X29643Y-32047D01*
X29629Y-32060D01*
X29609Y-32080D01*
X29586Y-32103D01*
X29568Y-32120D01*
X29548Y-32141D01*
X29535Y-32155D01*
X29528Y-32164D01*
X29526Y-32169D01*
X29526Y-32173D01*
X29531Y-32180D01*
X29542Y-32197D01*
X29557Y-32219D01*
X29575Y-32245D01*
X29590Y-32267D01*
X29606Y-32292D01*
X29616Y-32309D01*
X29620Y-32318D01*
X29619Y-32322D01*
X29614Y-32336D01*
X29605Y-32358D01*
X29594Y-32384D01*
X29568Y-32442D01*
X29530Y-32450D01*
X29507Y-32454D01*
X29474Y-32460D01*
X29443Y-32466D01*
X29395Y-32476D01*
X29393Y-32653D01*
X29401Y-32656D01*
X29408Y-32658D01*
X29426Y-32662D01*
X29451Y-32667D01*
X29482Y-32673D01*
X29507Y-32678D01*
X29533Y-32683D01*
X29552Y-32686D01*
X29560Y-32688D01*
X29562Y-32691D01*
X29569Y-32703D01*
X29578Y-32723D01*
X29588Y-32747D01*
X29599Y-32772D01*
X29608Y-32795D01*
X29614Y-32813D01*
X29617Y-32822D01*
X29613Y-32829D01*
X29603Y-32844D01*
X29589Y-32866D01*
X29571Y-32892D01*
X29554Y-32917D01*
X29539Y-32940D01*
X29529Y-32955D01*
X29524Y-32963D01*
X29526Y-32968D01*
X29537Y-32980D01*
X29556Y-33000D01*
X29585Y-33029D01*
X29590Y-33033D01*
X29613Y-33056D01*
X29632Y-33074D01*
X29646Y-33086D01*
X29652Y-33090D01*
X29652Y-33090D01*
G37*
G54D12*
X31150Y-26250D02*
X30950Y-25950D01*
X30950Y-25950D02*
X30850Y-26050D01*
X30850Y-26050D02*
X31150Y-26250D01*
X34730Y-28940D02*
X34280Y-28940D01*
X34730Y-26760D02*
X34290Y-26760D01*
X34730Y-28940D02*
X34730Y-26760D01*
X33850Y-29410D02*
X33850Y-29840D01*
X31640Y-29420D02*
X31640Y-29840D01*
X31630Y-29840D02*
X33850Y-29850D01*
X31650Y-25870D02*
X33820Y-25860D01*
X31220Y-26560D02*
X31220Y-29390D01*
X33830Y-25870D02*
X33830Y-26280D01*
X31470Y-26320D02*
X34250Y-26320D01*
X34270Y-29400D02*
X34270Y-26360D01*
X31220Y-29400D02*
X34220Y-29400D01*
X30770Y-26730D02*
X30770Y-28950D01*
X30770Y-28950D02*
X31220Y-28950D01*
X31224Y-26550D02*
X31454Y-26320D01*
X30772Y-26730D02*
X31224Y-26730D01*
X31650Y-26320D02*
X31650Y-25868D01*
X31820Y-26724D02*
X31816Y-26760D01*
X31805Y-26795D01*
X31788Y-26828D01*
X31765Y-26856D01*
X31737Y-26879D01*
X31704Y-26897D01*
X31669Y-26908D01*
X31633Y-26911D01*
X31597Y-26908D01*
X31562Y-26898D01*
X31530Y-26881D01*
X31501Y-26858D01*
X31477Y-26830D01*
X31460Y-26798D01*
X31449Y-26763D01*
X31445Y-26726D01*
X31448Y-26691D01*
X31458Y-26655D01*
X31474Y-26623D01*
X31497Y-26594D01*
X31525Y-26570D01*
X31557Y-26552D01*
X31592Y-26541D01*
X31629Y-26537D01*
X31664Y-26539D01*
X31699Y-26549D01*
X31732Y-26566D01*
X31761Y-26588D01*
X31785Y-26616D01*
X31803Y-26648D01*
X31815Y-26683D01*
X31819Y-26719D01*
X31820Y-26724D01*
G54D14*
X26825Y-27960D02*
X26825Y-28215D01*
X26825Y-28215D02*
X27376Y-28215D01*
X27376Y-27960D02*
X27376Y-28215D01*
X26825Y-27960D02*
X27376Y-27960D01*
X26825Y-27380D02*
X26825Y-27636D01*
X26825Y-27636D02*
X27376Y-27636D01*
X27376Y-27380D02*
X27376Y-27636D01*
X26825Y-27380D02*
X27376Y-27380D01*
X26904Y-27722D02*
X26904Y-27878D01*
X26904Y-27878D02*
X27296Y-27878D01*
X27296Y-27722D02*
X27296Y-27878D01*
X26904Y-27722D02*
X27296Y-27722D01*
G54D10*
X27350Y-27639D02*
X27350Y-27961D01*
X26850Y-27639D02*
X26850Y-27961D01*
G54D16*
X27487Y-27024D02*
X27487Y-28576D01*
X27487Y-28576D02*
X26713Y-28576D01*
X26713Y-28576D02*
X26713Y-27024D01*
X26713Y-27024D02*
X27487Y-27024D01*
G54D14*
X32910Y-24725D02*
X33165Y-24725D01*
X33165Y-24725D02*
X33165Y-24174D01*
X32910Y-24174D02*
X33165Y-24174D01*
X32910Y-24725D02*
X32910Y-24174D01*
X32330Y-24725D02*
X32586Y-24725D01*
X32586Y-24725D02*
X32586Y-24174D01*
X32330Y-24174D02*
X32586Y-24174D01*
X32330Y-24725D02*
X32330Y-24174D01*
X32672Y-24646D02*
X32828Y-24646D01*
X32828Y-24646D02*
X32828Y-24254D01*
X32672Y-24254D02*
X32828Y-24254D01*
X32672Y-24646D02*
X32672Y-24254D01*
G54D10*
X32589Y-24200D02*
X32911Y-24200D01*
X32589Y-24700D02*
X32911Y-24700D01*
G54D16*
X31974Y-24063D02*
X33526Y-24063D01*
X33526Y-24063D02*
X33526Y-24837D01*
X33526Y-24837D02*
X31974Y-24837D01*
X31974Y-24837D02*
X31974Y-24063D01*
G54D14*
X32910Y-33775D02*
X33165Y-33775D01*
X33165Y-33775D02*
X33165Y-33224D01*
X32910Y-33224D02*
X33165Y-33224D01*
X32910Y-33775D02*
X32910Y-33224D01*
X32330Y-33775D02*
X32586Y-33775D01*
X32586Y-33775D02*
X32586Y-33224D01*
X32330Y-33224D02*
X32586Y-33224D01*
X32330Y-33775D02*
X32330Y-33224D01*
X32672Y-33696D02*
X32828Y-33696D01*
X32828Y-33696D02*
X32828Y-33304D01*
X32672Y-33304D02*
X32828Y-33304D01*
X32672Y-33696D02*
X32672Y-33304D01*
G54D10*
X32589Y-33250D02*
X32911Y-33250D01*
X32589Y-33750D02*
X32911Y-33750D01*
G54D16*
X31974Y-33113D02*
X33526Y-33113D01*
X33526Y-33113D02*
X33526Y-33887D01*
X33526Y-33887D02*
X31974Y-33887D01*
X31974Y-33887D02*
X31974Y-33113D01*
G54D14*
X38675Y-27690D02*
X38675Y-27435D01*
X38675Y-27435D02*
X38124Y-27435D01*
X38124Y-27690D02*
X38124Y-27435D01*
X38675Y-27690D02*
X38124Y-27690D01*
X38675Y-28270D02*
X38675Y-28014D01*
X38675Y-28014D02*
X38124Y-28014D01*
X38124Y-28270D02*
X38124Y-28014D01*
X38675Y-28270D02*
X38124Y-28270D01*
X38596Y-27928D02*
X38596Y-27772D01*
X38596Y-27772D02*
X38204Y-27772D01*
X38204Y-27928D02*
X38204Y-27772D01*
X38596Y-27928D02*
X38204Y-27928D01*
G54D10*
X38150Y-28011D02*
X38150Y-27689D01*
X38650Y-28011D02*
X38650Y-27689D01*
G54D16*
X38013Y-28626D02*
X38013Y-27074D01*
X38013Y-27074D02*
X38787Y-27074D01*
X38787Y-27074D02*
X38787Y-28626D01*
X38787Y-28626D02*
X38013Y-28626D01*
G54D14*
X32271Y-32835D02*
X32566Y-32835D01*
X32566Y-32835D02*
X32566Y-32265D01*
X32271Y-32265D02*
X32566Y-32265D01*
X32271Y-32835D02*
X32271Y-32265D01*
X32840Y-32835D02*
X33135Y-32835D01*
X33135Y-32835D02*
X33135Y-32265D01*
X32840Y-32265D02*
X33135Y-32265D01*
X32840Y-32835D02*
X32840Y-32265D01*
X32661Y-32707D02*
X32739Y-32707D01*
X32739Y-32707D02*
X32739Y-32393D01*
X32661Y-32393D02*
X32739Y-32393D01*
X32661Y-32707D02*
X32661Y-32393D01*
G54D16*
X31924Y-32163D02*
X33476Y-32163D01*
X33476Y-32937D02*
X31924Y-32937D01*
X31924Y-32937D02*
X31924Y-32163D01*
G54D15*
X32550Y-32291D02*
X32850Y-32291D01*
X32560Y-32809D02*
X32850Y-32809D01*
G54D16*
X33476Y-32163D02*
X33476Y-32937D01*
G54D14*
X28665Y-27130D02*
X28665Y-27426D01*
X28665Y-27426D02*
X29334Y-27426D01*
X29334Y-27130D02*
X29334Y-27426D01*
X28665Y-27130D02*
X29334Y-27130D01*
X28666Y-28174D02*
X28666Y-28470D01*
X28666Y-28470D02*
X29335Y-28470D01*
X29335Y-28174D02*
X29335Y-28470D01*
X28666Y-28174D02*
X29335Y-28174D01*
X28843Y-27722D02*
X28843Y-27878D01*
X28843Y-27878D02*
X29157Y-27878D01*
X29157Y-27722D02*
X29157Y-27878D01*
X28843Y-27722D02*
X29157Y-27722D01*
G54D16*
X29387Y-26827D02*
X29387Y-28773D01*
X28613Y-28773D02*
X28613Y-26827D01*
X28613Y-26827D02*
X29387Y-26827D01*
X29387Y-28773D02*
X28613Y-28773D01*
G54D15*
X29309Y-27421D02*
X29309Y-28179D01*
X28691Y-27421D02*
X28691Y-28179D01*
G54D14*
X36835Y-28520D02*
X36835Y-28224D01*
X36835Y-28224D02*
X36166Y-28224D01*
X36166Y-28520D02*
X36166Y-28224D01*
X36835Y-28520D02*
X36166Y-28520D01*
X36834Y-27476D02*
X36834Y-27180D01*
X36834Y-27180D02*
X36165Y-27180D01*
X36165Y-27476D02*
X36165Y-27180D01*
X36834Y-27476D02*
X36165Y-27476D01*
X36657Y-27928D02*
X36657Y-27772D01*
X36657Y-27772D02*
X36343Y-27772D01*
X36343Y-27928D02*
X36343Y-27772D01*
X36657Y-27928D02*
X36343Y-27928D01*
G54D16*
X36113Y-28823D02*
X36113Y-26877D01*
X36887Y-26877D02*
X36887Y-28823D01*
X36887Y-28823D02*
X36113Y-28823D01*
X36113Y-26877D02*
X36887Y-26877D01*
G54D15*
X36191Y-28229D02*
X36191Y-27471D01*
X36809Y-28229D02*
X36809Y-27471D01*
G54D14*
X27765Y-27371D02*
X27765Y-27666D01*
X27765Y-27666D02*
X28335Y-27666D01*
X28335Y-27371D02*
X28335Y-27666D01*
X27765Y-27371D02*
X28335Y-27371D01*
X27765Y-27940D02*
X27765Y-28235D01*
X27765Y-28235D02*
X28335Y-28235D01*
X28335Y-27940D02*
X28335Y-28235D01*
X27765Y-27940D02*
X28335Y-27940D01*
X27893Y-27761D02*
X27893Y-27839D01*
X27893Y-27839D02*
X28207Y-27839D01*
X28207Y-27761D02*
X28207Y-27839D01*
X27893Y-27761D02*
X28207Y-27761D01*
G54D16*
X28437Y-27024D02*
X28437Y-28576D01*
X27663Y-28576D02*
X27663Y-27024D01*
X27663Y-27024D02*
X28437Y-27024D01*
G54D15*
X28309Y-27650D02*
X28309Y-27950D01*
X27791Y-27660D02*
X27791Y-27950D01*
G54D16*
X28437Y-28576D02*
X27663Y-28576D01*
G54D14*
X37735Y-28279D02*
X37735Y-27984D01*
X37735Y-27984D02*
X37165Y-27984D01*
X37165Y-28279D02*
X37165Y-27984D01*
X37735Y-28279D02*
X37165Y-28279D01*
X37735Y-27710D02*
X37735Y-27415D01*
X37735Y-27415D02*
X37165Y-27415D01*
X37165Y-27710D02*
X37165Y-27415D01*
X37735Y-27710D02*
X37165Y-27710D01*
X37607Y-27889D02*
X37607Y-27811D01*
X37607Y-27811D02*
X37293Y-27811D01*
X37293Y-27889D02*
X37293Y-27811D01*
X37607Y-27889D02*
X37293Y-27889D01*
G54D16*
X37063Y-28626D02*
X37063Y-27074D01*
X37837Y-27074D02*
X37837Y-28626D01*
X37837Y-28626D02*
X37063Y-28626D01*
G54D15*
X37191Y-28000D02*
X37191Y-27700D01*
X37709Y-27990D02*
X37709Y-27700D01*
G54D16*
X37063Y-27074D02*
X37837Y-27074D01*
G54D14*
X32080Y-31935D02*
X32376Y-31935D01*
X32376Y-31935D02*
X32376Y-31266D01*
X32080Y-31266D02*
X32376Y-31266D01*
X32080Y-31935D02*
X32080Y-31266D01*
X33124Y-31934D02*
X33420Y-31934D01*
X33420Y-31934D02*
X33420Y-31265D01*
X33124Y-31265D02*
X33420Y-31265D01*
X33124Y-31934D02*
X33124Y-31265D01*
X32672Y-31757D02*
X32828Y-31757D01*
X32828Y-31757D02*
X32828Y-31443D01*
X32672Y-31443D02*
X32828Y-31443D01*
X32672Y-31757D02*
X32672Y-31443D01*
G54D16*
X31777Y-31213D02*
X33723Y-31213D01*
X33723Y-31987D02*
X31777Y-31987D01*
X31777Y-31987D02*
X31777Y-31213D01*
X33723Y-31213D02*
X33723Y-31987D01*
G54D15*
X32371Y-31291D02*
X33129Y-31291D01*
X32371Y-31909D02*
X33129Y-31909D01*
G54D12*
X32500Y-36050D02*
X32500Y-35850D01*
X32500Y-35850D02*
X32950Y-35850D01*
X32950Y-35850D02*
X33000Y-35850D01*
X33000Y-35850D02*
X33000Y-36050D01*
X33734Y-34116D02*
X33734Y-36084D01*
X33734Y-36084D02*
X31766Y-36084D01*
X31766Y-36084D02*
X31766Y-34116D01*
X31766Y-34116D02*
X33734Y-34116D01*
X38345Y-33849D02*
X38204Y-33707D01*
X38204Y-33707D02*
X38522Y-33389D01*
X38522Y-33389D02*
X38557Y-33354D01*
X38557Y-33354D02*
X38699Y-33495D01*
X37850Y-31608D02*
X39242Y-33000D01*
X39242Y-33000D02*
X37850Y-34392D01*
X37850Y-34392D02*
X36458Y-33000D01*
X36458Y-33000D02*
X37850Y-31608D01*
X40950Y-28100D02*
X40750Y-28100D01*
X40750Y-28100D02*
X40750Y-27650D01*
X40750Y-27650D02*
X40750Y-27600D01*
X40750Y-27600D02*
X40950Y-27600D01*
X39016Y-26866D02*
X40984Y-26866D01*
X40984Y-26866D02*
X40984Y-28834D01*
X40984Y-28834D02*
X39016Y-28834D01*
X39016Y-28834D02*
X39016Y-26866D01*
X27105Y-21901D02*
X27246Y-22043D01*
X27246Y-22043D02*
X26928Y-22361D01*
X26928Y-22361D02*
X26893Y-22396D01*
X26893Y-22396D02*
X26751Y-22255D01*
X27600Y-24142D02*
X26208Y-22750D01*
X26208Y-22750D02*
X27600Y-21358D01*
X27600Y-21358D02*
X28992Y-22750D01*
X28992Y-22750D02*
X27600Y-24142D01*
X24550Y-27600D02*
X24750Y-27600D01*
X24750Y-27600D02*
X24750Y-28050D01*
X24750Y-28050D02*
X24750Y-28100D01*
X24750Y-28100D02*
X24550Y-28100D01*
X26484Y-28834D02*
X24516Y-28834D01*
X24516Y-28834D02*
X24516Y-26866D01*
X24516Y-26866D02*
X26484Y-26866D01*
X26484Y-26866D02*
X26484Y-28834D01*
X26801Y-33495D02*
X26943Y-33354D01*
X26943Y-33354D02*
X27261Y-33672D01*
X27261Y-33672D02*
X27296Y-33707D01*
X27296Y-33707D02*
X27155Y-33849D01*
X29042Y-33000D02*
X27650Y-34392D01*
X27650Y-34392D02*
X26258Y-33000D01*
X26258Y-33000D02*
X27650Y-31608D01*
X27650Y-31608D02*
X29042Y-33000D01*
G54D14*
X36073Y-35340D02*
X36220Y-35278D01*
X36220Y-35278D02*
X36087Y-34965D01*
X35940Y-35027D02*
X36087Y-34965D01*
X36073Y-35340D02*
X35940Y-35027D01*
X35613Y-35535D02*
X35760Y-35473D01*
X35760Y-35473D02*
X35627Y-35160D01*
X35480Y-35222D02*
X35627Y-35160D01*
X35613Y-35535D02*
X35480Y-35222D01*
X35840Y-35425D02*
X35983Y-35364D01*
X35983Y-35364D02*
X35860Y-35075D01*
X35717Y-35136D02*
X35860Y-35075D01*
X35840Y-35425D02*
X35717Y-35136D01*
G54D10*
X35748Y-35445D02*
X36061Y-35312D01*
X35952Y-35055D02*
X35639Y-35188D01*
G54D16*
X35166Y-35120D02*
X36232Y-34668D01*
X36232Y-34668D02*
X36534Y-35380D01*
X36534Y-35380D02*
X35468Y-35832D01*
X35468Y-35832D02*
X35166Y-35120D01*
G54D14*
X40421Y-30806D02*
X40481Y-30658D01*
X40481Y-30658D02*
X40166Y-30530D01*
X40106Y-30679D02*
X40166Y-30530D01*
X40421Y-30806D02*
X40106Y-30679D01*
X40234Y-31270D02*
X40294Y-31121D01*
X40294Y-31121D02*
X39979Y-30994D01*
X39919Y-31142D02*
X39979Y-30994D01*
X40234Y-31270D02*
X39919Y-31142D01*
X40316Y-31031D02*
X40375Y-30886D01*
X40375Y-30886D02*
X40084Y-30769D01*
X40025Y-30914D02*
X40084Y-30769D01*
X40316Y-31031D02*
X40025Y-30914D01*
G54D10*
X40266Y-31110D02*
X40393Y-30795D01*
X40134Y-30690D02*
X40007Y-31005D01*
G54D16*
X39624Y-31292D02*
X40058Y-30218D01*
X40058Y-30218D02*
X40776Y-30508D01*
X40776Y-30508D02*
X40342Y-31582D01*
X40342Y-31582D02*
X39624Y-31292D01*
G54D14*
X40240Y-24527D02*
X40178Y-24380D01*
X40178Y-24380D02*
X39865Y-24513D01*
X39927Y-24660D02*
X39865Y-24513D01*
X40240Y-24527D02*
X39927Y-24660D01*
X40435Y-24987D02*
X40373Y-24840D01*
X40373Y-24840D02*
X40060Y-24973D01*
X40122Y-25120D02*
X40060Y-24973D01*
X40435Y-24987D02*
X40122Y-25120D01*
X40325Y-24760D02*
X40264Y-24617D01*
X40264Y-24617D02*
X39975Y-24740D01*
X40036Y-24883D02*
X39975Y-24740D01*
X40325Y-24760D02*
X40036Y-24883D01*
G54D10*
X40345Y-24852D02*
X40212Y-24539D01*
X39955Y-24648D02*
X40088Y-24961D01*
G54D16*
X40020Y-25434D02*
X39568Y-24368D01*
X39568Y-24368D02*
X40280Y-24066D01*
X40280Y-24066D02*
X40732Y-25132D01*
X40732Y-25132D02*
X40020Y-25434D01*
G54D14*
X35756Y-20229D02*
X35608Y-20169D01*
X35608Y-20169D02*
X35480Y-20484D01*
X35629Y-20544D02*
X35480Y-20484D01*
X35756Y-20229D02*
X35629Y-20544D01*
X36220Y-20416D02*
X36071Y-20356D01*
X36071Y-20356D02*
X35944Y-20671D01*
X36092Y-20731D02*
X35944Y-20671D01*
X36220Y-20416D02*
X36092Y-20731D01*
X35981Y-20334D02*
X35836Y-20275D01*
X35836Y-20275D02*
X35719Y-20566D01*
X35864Y-20625D02*
X35719Y-20566D01*
X35981Y-20334D02*
X35864Y-20625D01*
G54D10*
X36060Y-20384D02*
X35745Y-20257D01*
X35640Y-20516D02*
X35955Y-20643D01*
G54D16*
X36242Y-21026D02*
X35168Y-20592D01*
X35168Y-20592D02*
X35458Y-19874D01*
X35458Y-19874D02*
X36532Y-20308D01*
X36532Y-20308D02*
X36242Y-21026D01*
G54D14*
X29477Y-20310D02*
X29330Y-20372D01*
X29330Y-20372D02*
X29463Y-20685D01*
X29610Y-20623D02*
X29463Y-20685D01*
X29477Y-20310D02*
X29610Y-20623D01*
X29937Y-20115D02*
X29790Y-20177D01*
X29790Y-20177D02*
X29923Y-20490D01*
X30070Y-20428D02*
X29923Y-20490D01*
X29937Y-20115D02*
X30070Y-20428D01*
X29710Y-20225D02*
X29567Y-20286D01*
X29567Y-20286D02*
X29690Y-20575D01*
X29833Y-20514D02*
X29690Y-20575D01*
X29710Y-20225D02*
X29833Y-20514D01*
G54D10*
X29802Y-20205D02*
X29489Y-20338D01*
X29598Y-20595D02*
X29911Y-20462D01*
G54D16*
X30384Y-20530D02*
X29318Y-20982D01*
X29318Y-20982D02*
X29016Y-20270D01*
X29016Y-20270D02*
X30082Y-19818D01*
X30082Y-19818D02*
X30384Y-20530D01*
G54D14*
X25079Y-24894D02*
X25019Y-25042D01*
X25019Y-25042D02*
X25334Y-25170D01*
X25394Y-25021D02*
X25334Y-25170D01*
X25079Y-24894D02*
X25394Y-25021D01*
X25266Y-24430D02*
X25206Y-24579D01*
X25206Y-24579D02*
X25521Y-24706D01*
X25581Y-24558D02*
X25521Y-24706D01*
X25266Y-24430D02*
X25581Y-24558D01*
X25184Y-24669D02*
X25125Y-24814D01*
X25125Y-24814D02*
X25416Y-24931D01*
X25475Y-24786D02*
X25416Y-24931D01*
X25184Y-24669D02*
X25475Y-24786D01*
G54D10*
X25234Y-24590D02*
X25107Y-24905D01*
X25366Y-25010D02*
X25493Y-24695D01*
G54D16*
X25876Y-24408D02*
X25442Y-25482D01*
X25442Y-25482D02*
X24724Y-25192D01*
X24724Y-25192D02*
X25158Y-24118D01*
X25158Y-24118D02*
X25876Y-24408D01*
G54D14*
X25260Y-31173D02*
X25322Y-31320D01*
X25322Y-31320D02*
X25635Y-31187D01*
X25573Y-31040D02*
X25635Y-31187D01*
X25260Y-31173D02*
X25573Y-31040D01*
X25065Y-30713D02*
X25127Y-30860D01*
X25127Y-30860D02*
X25440Y-30727D01*
X25378Y-30580D02*
X25440Y-30727D01*
X25065Y-30713D02*
X25378Y-30580D01*
X25175Y-30940D02*
X25236Y-31083D01*
X25236Y-31083D02*
X25525Y-30960D01*
X25464Y-30817D02*
X25525Y-30960D01*
X25175Y-30940D02*
X25464Y-30817D01*
G54D10*
X25155Y-30848D02*
X25288Y-31161D01*
X25545Y-31052D02*
X25412Y-30739D01*
G54D16*
X25480Y-30266D02*
X25932Y-31332D01*
X25932Y-31332D02*
X25220Y-31634D01*
X25220Y-31634D02*
X24768Y-30568D01*
X24768Y-30568D02*
X25480Y-30266D01*
G54D14*
X29813Y-35512D02*
X29966Y-35559D01*
X29966Y-35559D02*
X30065Y-35234D01*
X29912Y-35187D02*
X30065Y-35234D01*
X29813Y-35512D02*
X29912Y-35187D01*
X29335Y-35366D02*
X29488Y-35413D01*
X29488Y-35413D02*
X29587Y-35088D01*
X29434Y-35041D02*
X29587Y-35088D01*
X29335Y-35366D02*
X29434Y-35041D01*
X29580Y-35427D02*
X29729Y-35473D01*
X29729Y-35473D02*
X29820Y-35173D01*
X29671Y-35127D02*
X29820Y-35173D01*
X29580Y-35427D02*
X29671Y-35127D01*
G54D10*
X29496Y-35384D02*
X29822Y-35484D01*
X29904Y-35216D02*
X29578Y-35116D01*
G54D16*
X29259Y-34761D02*
X30367Y-35099D01*
X30367Y-35099D02*
X30141Y-35839D01*
X30141Y-35839D02*
X29033Y-35501D01*
X29033Y-35501D02*
X29259Y-34761D01*
G54D11*
X27262Y-29066D02*
X27071Y-29200D01*
X27262Y-29295D02*
X26862Y-29295D01*
X26862Y-29142D01*
X26881Y-29104D01*
X26900Y-29085D01*
X26938Y-29066D01*
X26995Y-29066D01*
X27033Y-29085D01*
X27052Y-29104D01*
X27071Y-29142D01*
X27071Y-29295D01*
X26862Y-28704D02*
X26862Y-28895D01*
X27052Y-28914D01*
X27033Y-28895D01*
X27014Y-28857D01*
X27014Y-28761D01*
X27033Y-28723D01*
X27052Y-28704D01*
X27090Y-28685D01*
X27186Y-28685D01*
X27224Y-28704D01*
X27243Y-28723D01*
X27262Y-28761D01*
X27262Y-28857D01*
X27243Y-28895D01*
X27224Y-28914D01*
X32684Y-25362D02*
X32550Y-25171D01*
X32455Y-25362D02*
X32455Y-24962D01*
X32608Y-24962D01*
X32646Y-24981D01*
X32665Y-25000D01*
X32684Y-25038D01*
X32684Y-25095D01*
X32665Y-25133D01*
X32646Y-25152D01*
X32608Y-25171D01*
X32455Y-25171D01*
X33065Y-25362D02*
X32836Y-25362D01*
X32950Y-25362D02*
X32950Y-24962D01*
X32912Y-25019D01*
X32874Y-25057D01*
X32836Y-25076D01*
X33984Y-33662D02*
X33850Y-33471D01*
X33755Y-33662D02*
X33755Y-33262D01*
X33908Y-33262D01*
X33946Y-33281D01*
X33965Y-33300D01*
X33984Y-33338D01*
X33984Y-33395D01*
X33965Y-33433D01*
X33946Y-33452D01*
X33908Y-33471D01*
X33755Y-33471D01*
X34117Y-33262D02*
X34365Y-33262D01*
X34231Y-33414D01*
X34289Y-33414D01*
X34327Y-33433D01*
X34346Y-33452D01*
X34365Y-33490D01*
X34365Y-33586D01*
X34346Y-33624D01*
X34327Y-33643D01*
X34289Y-33662D01*
X34174Y-33662D01*
X34136Y-33643D01*
X34117Y-33624D01*
X38512Y-26666D02*
X38321Y-26800D01*
X38512Y-26895D02*
X38112Y-26895D01*
X38112Y-26742D01*
X38131Y-26704D01*
X38150Y-26685D01*
X38188Y-26666D01*
X38245Y-26666D01*
X38283Y-26685D01*
X38302Y-26704D01*
X38321Y-26742D01*
X38321Y-26895D01*
X38245Y-26323D02*
X38512Y-26323D01*
X38093Y-26419D02*
X38379Y-26514D01*
X38379Y-26266D01*
X33884Y-32674D02*
X33865Y-32693D01*
X33808Y-32712D01*
X33770Y-32712D01*
X33712Y-32693D01*
X33674Y-32655D01*
X33655Y-32617D01*
X33636Y-32540D01*
X33636Y-32483D01*
X33655Y-32407D01*
X33674Y-32369D01*
X33712Y-32331D01*
X33770Y-32312D01*
X33808Y-32312D01*
X33865Y-32331D01*
X33884Y-32350D01*
X34227Y-32445D02*
X34227Y-32712D01*
X34131Y-32293D02*
X34036Y-32579D01*
X34284Y-32579D01*
X29140Y-29279D02*
X29159Y-29298D01*
X29178Y-29355D01*
X29178Y-29393D01*
X29159Y-29451D01*
X29121Y-29489D01*
X29083Y-29508D01*
X29006Y-29527D01*
X28949Y-29527D01*
X28873Y-29508D01*
X28835Y-29489D01*
X28797Y-29451D01*
X28778Y-29393D01*
X28778Y-29355D01*
X28797Y-29298D01*
X28816Y-29279D01*
X28778Y-29146D02*
X28778Y-28879D01*
X29178Y-29051D01*
X36620Y-26523D02*
X36639Y-26542D01*
X36658Y-26599D01*
X36658Y-26637D01*
X36639Y-26695D01*
X36601Y-26733D01*
X36563Y-26752D01*
X36486Y-26771D01*
X36429Y-26771D01*
X36353Y-26752D01*
X36315Y-26733D01*
X36277Y-26695D01*
X36258Y-26637D01*
X36258Y-26599D01*
X36277Y-26542D01*
X36296Y-26523D01*
X36658Y-26333D02*
X36658Y-26257D01*
X36639Y-26218D01*
X36620Y-26199D01*
X36563Y-26161D01*
X36486Y-26142D01*
X36334Y-26142D01*
X36296Y-26161D01*
X36277Y-26180D01*
X36258Y-26218D01*
X36258Y-26295D01*
X36277Y-26333D01*
X36296Y-26352D01*
X36334Y-26371D01*
X36429Y-26371D01*
X36467Y-26352D01*
X36486Y-26333D01*
X36506Y-26295D01*
X36506Y-26218D01*
X36486Y-26180D01*
X36467Y-26161D01*
X36429Y-26142D01*
X28174Y-29116D02*
X28193Y-29135D01*
X28212Y-29192D01*
X28212Y-29230D01*
X28193Y-29288D01*
X28155Y-29326D01*
X28117Y-29345D01*
X28040Y-29364D01*
X27983Y-29364D01*
X27907Y-29345D01*
X27869Y-29326D01*
X27831Y-29288D01*
X27812Y-29230D01*
X27812Y-29192D01*
X27831Y-29135D01*
X27850Y-29116D01*
X27812Y-28773D02*
X27812Y-28850D01*
X27831Y-28888D01*
X27850Y-28907D01*
X27907Y-28945D01*
X27983Y-28964D01*
X28136Y-28964D01*
X28174Y-28945D01*
X28193Y-28926D01*
X28212Y-28888D01*
X28212Y-28811D01*
X28193Y-28773D01*
X28174Y-28754D01*
X28136Y-28735D01*
X28040Y-28735D01*
X28002Y-28754D01*
X27983Y-28773D01*
X27964Y-28811D01*
X27964Y-28888D01*
X27983Y-28926D01*
X28002Y-28945D01*
X28040Y-28964D01*
X37574Y-26666D02*
X37593Y-26685D01*
X37612Y-26742D01*
X37612Y-26780D01*
X37593Y-26838D01*
X37555Y-26876D01*
X37517Y-26895D01*
X37440Y-26914D01*
X37383Y-26914D01*
X37307Y-26895D01*
X37269Y-26876D01*
X37231Y-26838D01*
X37212Y-26780D01*
X37212Y-26742D01*
X37231Y-26685D01*
X37250Y-26666D01*
X37383Y-26438D02*
X37364Y-26476D01*
X37345Y-26495D01*
X37307Y-26514D01*
X37288Y-26514D01*
X37250Y-26495D01*
X37231Y-26476D01*
X37212Y-26438D01*
X37212Y-26361D01*
X37231Y-26323D01*
X37250Y-26304D01*
X37288Y-26285D01*
X37307Y-26285D01*
X37345Y-26304D01*
X37364Y-26323D01*
X37383Y-26361D01*
X37383Y-26438D01*
X37402Y-26476D01*
X37421Y-26495D01*
X37460Y-26514D01*
X37536Y-26514D01*
X37574Y-26495D01*
X37593Y-26476D01*
X37612Y-26438D01*
X37612Y-26361D01*
X37593Y-26323D01*
X37574Y-26304D01*
X37536Y-26285D01*
X37460Y-26285D01*
X37421Y-26304D01*
X37402Y-26323D01*
X37383Y-26361D01*
X34147Y-31738D02*
X34128Y-31757D01*
X34071Y-31776D01*
X34033Y-31776D01*
X33975Y-31757D01*
X33937Y-31719D01*
X33918Y-31681D01*
X33899Y-31604D01*
X33899Y-31547D01*
X33918Y-31471D01*
X33937Y-31433D01*
X33975Y-31395D01*
X34033Y-31376D01*
X34071Y-31376D01*
X34128Y-31395D01*
X34147Y-31414D01*
X34509Y-31376D02*
X34318Y-31376D01*
X34299Y-31566D01*
X34318Y-31547D01*
X34356Y-31528D01*
X34452Y-31528D01*
X34490Y-31547D01*
X34509Y-31566D01*
X34528Y-31604D01*
X34528Y-31700D01*
X34509Y-31738D01*
X34490Y-31757D01*
X34452Y-31776D01*
X34356Y-31776D01*
X34318Y-31757D01*
X34299Y-31738D01*
%LPC*%
G54D18*
X35450Y-25150D03*
G54D19*
X33750Y-23250D03*
G54D20*
X32750Y-23250D03*
X31750Y-23250D03*
G54D10*
G36*
X37683Y-21943D02*
X37266Y-21526D01*
X37517Y-21275D01*
X37934Y-21692D01*
X37683Y-21943D01*
X37683Y-21943D01*
G37*
G36*
X37237Y-22388D02*
X36820Y-21971D01*
X37071Y-21720D01*
X37488Y-22137D01*
X37237Y-22388D01*
X37237Y-22388D01*
G37*
G36*
X36792Y-22834D02*
X36375Y-22417D01*
X36626Y-22166D01*
X37043Y-22583D01*
X36792Y-22834D01*
X36792Y-22834D01*
G37*
G36*
X38183Y-24225D02*
X37766Y-23808D01*
X38017Y-23557D01*
X38434Y-23974D01*
X38183Y-24225D01*
X38183Y-24225D01*
G37*
G36*
X38629Y-23780D02*
X38212Y-23363D01*
X38463Y-23112D01*
X38880Y-23529D01*
X38629Y-23780D01*
X38629Y-23780D01*
G37*
G36*
X39074Y-23334D02*
X38657Y-22917D01*
X38908Y-22666D01*
X39325Y-23083D01*
X39074Y-23334D01*
X39074Y-23334D01*
G37*
G36*
X37613Y-23738D02*
X36862Y-22987D01*
X37307Y-22542D01*
X38058Y-23293D01*
X37613Y-23738D01*
X37613Y-23738D01*
G37*
G36*
X38393Y-22958D02*
X37642Y-22207D01*
X38087Y-21762D01*
X38838Y-22513D01*
X38393Y-22958D01*
X38393Y-22958D01*
G37*
G54D21*
X31766Y-19970D03*
X31766Y-20600D03*
X31766Y-21230D03*
X33734Y-21230D03*
X33734Y-20600D03*
X33734Y-19970D03*
G54D22*
X32750Y-21151D03*
X32750Y-20049D03*
G54D10*
G36*
X25964Y-29961D02*
X26148Y-30395D01*
X25714Y-30579D01*
X25530Y-30145D01*
X25964Y-29961D01*
X25964Y-29961D01*
G37*
G36*
X26286Y-30721D02*
X26470Y-31155D01*
X26036Y-31339D01*
X25852Y-30905D01*
X26286Y-30721D01*
X26286Y-30721D01*
G37*
G36*
X26462Y-24537D02*
X26285Y-24974D01*
X25848Y-24797D01*
X26025Y-24360D01*
X26462Y-24537D01*
X26462Y-24537D01*
G37*
G36*
X26152Y-25303D02*
X25975Y-25740D01*
X25538Y-25563D01*
X25715Y-25126D01*
X26152Y-25303D01*
X26152Y-25303D01*
G37*
G36*
X39536Y-25739D02*
X39352Y-25305D01*
X39786Y-25121D01*
X39970Y-25555D01*
X39536Y-25739D01*
X39536Y-25739D01*
G37*
G36*
X39214Y-24979D02*
X39030Y-24545D01*
X39464Y-24361D01*
X39648Y-24795D01*
X39214Y-24979D01*
X39214Y-24979D01*
G37*
G36*
X39038Y-31163D02*
X39215Y-30726D01*
X39652Y-30903D01*
X39475Y-31340D01*
X39038Y-31163D01*
X39038Y-31163D01*
G37*
G36*
X39348Y-30397D02*
X39525Y-29960D01*
X39962Y-30137D01*
X39785Y-30574D01*
X39348Y-30397D01*
X39348Y-30397D01*
G37*
G36*
X34861Y-34636D02*
X35295Y-34452D01*
X35479Y-34886D01*
X35045Y-35070D01*
X34861Y-34636D01*
X34861Y-34636D01*
G37*
G36*
X35621Y-34314D02*
X36055Y-34130D01*
X36239Y-34564D01*
X35805Y-34748D01*
X35621Y-34314D01*
X35621Y-34314D01*
G37*
G36*
X29398Y-34184D02*
X29850Y-34322D01*
X29712Y-34774D01*
X29260Y-34636D01*
X29398Y-34184D01*
X29398Y-34184D01*
G37*
G36*
X30188Y-34426D02*
X30640Y-34564D01*
X30502Y-35016D01*
X30050Y-34878D01*
X30188Y-34426D01*
X30188Y-34426D01*
G37*
G36*
X30639Y-21064D02*
X30205Y-21248D01*
X30021Y-20814D01*
X30455Y-20630D01*
X30639Y-21064D01*
X30639Y-21064D01*
G37*
G36*
X29879Y-21386D02*
X29445Y-21570D01*
X29261Y-21136D01*
X29695Y-20952D01*
X29879Y-21386D01*
X29879Y-21386D01*
G37*
G36*
X36063Y-21562D02*
X35626Y-21385D01*
X35803Y-20948D01*
X36240Y-21125D01*
X36063Y-21562D01*
X36063Y-21562D01*
G37*
G36*
X35297Y-21252D02*
X34860Y-21075D01*
X35037Y-20638D01*
X35474Y-20815D01*
X35297Y-21252D01*
X35297Y-21252D01*
G37*
G54D18*
X35450Y-30550D03*
X30050Y-25150D03*
X30050Y-30550D03*
G54D23*
X30854Y-28943D03*
X30854Y-28628D03*
X30854Y-28313D03*
X30854Y-27998D03*
X30854Y-27683D03*
X30854Y-27368D03*
X30854Y-27053D03*
X30854Y-26738D03*
X34620Y-26740D03*
X34620Y-28950D03*
X34620Y-28630D03*
X34620Y-28310D03*
X34620Y-28000D03*
X34620Y-27680D03*
X34620Y-27370D03*
X34620Y-27050D03*
G54D24*
X31638Y-25950D03*
X31952Y-25950D03*
X32268Y-25950D03*
X32582Y-25950D03*
X32898Y-25950D03*
X33212Y-25950D03*
X33528Y-25950D03*
X33842Y-25950D03*
X31640Y-29730D03*
X31950Y-29730D03*
X32270Y-29730D03*
X32580Y-29730D03*
X32890Y-29730D03*
X33210Y-29730D03*
X33530Y-29730D03*
X33850Y-29730D03*
G54D25*
X33250Y-26850D03*
G54D26*
X32250Y-26850D03*
X33250Y-27850D03*
X32250Y-27850D03*
X33250Y-28850D03*
X32250Y-28850D03*
G54D27*
X27100Y-27426D03*
X27100Y-28174D03*
G54D28*
X32376Y-24450D03*
X33124Y-24450D03*
X32376Y-33500D03*
X33124Y-33500D03*
G54D27*
X38400Y-28224D03*
X38400Y-27476D03*
G54D28*
X32326Y-32550D03*
X33074Y-32550D03*
G54D19*
X30250Y-22250D03*
G54D20*
X31250Y-22250D03*
X32250Y-22250D03*
X33250Y-22250D03*
X34250Y-22250D03*
X35250Y-22250D03*
G54D10*
G36*
X27239Y-25800D02*
X26850Y-25411D01*
X27239Y-25022D01*
X27628Y-25411D01*
X27239Y-25800D01*
X27239Y-25800D01*
G37*
G54D20*
X27946Y-24704D03*
X28654Y-23996D03*
X29361Y-23289D03*
G54D10*
G36*
X38600Y-25411D02*
X38211Y-25800D01*
X37822Y-25411D01*
X38211Y-25022D01*
X38600Y-25411D01*
X38600Y-25411D01*
G37*
G54D20*
X37504Y-24704D03*
X36796Y-23996D03*
X36089Y-23289D03*
G54D29*
X29000Y-27249D03*
X29000Y-28351D03*
X36500Y-28401D03*
X36500Y-27299D03*
G54D27*
X28050Y-27426D03*
X28050Y-28174D03*
X37450Y-28224D03*
X37450Y-27476D03*
G54D30*
X32199Y-31600D03*
X33301Y-31600D03*
G54D21*
X33734Y-35730D03*
X33734Y-35100D03*
X33734Y-34470D03*
X31766Y-34470D03*
X31766Y-35100D03*
X31766Y-35730D03*
G54D22*
X32750Y-34549D03*
X32750Y-35651D03*
G54D10*
G36*
X38657Y-32833D02*
X39074Y-32416D01*
X39325Y-32667D01*
X38908Y-33084D01*
X38657Y-32833D01*
X38657Y-32833D01*
G37*
G36*
X38212Y-32387D02*
X38629Y-31970D01*
X38880Y-32221D01*
X38463Y-32638D01*
X38212Y-32387D01*
X38212Y-32387D01*
G37*
G36*
X37766Y-31942D02*
X38183Y-31525D01*
X38434Y-31776D01*
X38017Y-32193D01*
X37766Y-31942D01*
X37766Y-31942D01*
G37*
G36*
X36375Y-33333D02*
X36792Y-32916D01*
X37043Y-33167D01*
X36626Y-33584D01*
X36375Y-33333D01*
X36375Y-33333D01*
G37*
G36*
X36820Y-33779D02*
X37237Y-33362D01*
X37488Y-33613D01*
X37071Y-34030D01*
X36820Y-33779D01*
X36820Y-33779D01*
G37*
G36*
X37266Y-34224D02*
X37683Y-33807D01*
X37934Y-34058D01*
X37517Y-34475D01*
X37266Y-34224D01*
X37266Y-34224D01*
G37*
G36*
X36862Y-32763D02*
X37613Y-32012D01*
X38058Y-32457D01*
X37307Y-33208D01*
X36862Y-32763D01*
X36862Y-32763D01*
G37*
G36*
X37642Y-33543D02*
X38393Y-32792D01*
X38838Y-33237D01*
X38087Y-33988D01*
X37642Y-33543D01*
X37642Y-33543D01*
G37*
G54D31*
X40630Y-26866D03*
X40000Y-26866D03*
X39370Y-26866D03*
X39370Y-28834D03*
X40000Y-28834D03*
X40630Y-28834D03*
G54D32*
X39449Y-27850D03*
X40551Y-27850D03*
G54D10*
G36*
X26793Y-22917D02*
X26376Y-23334D01*
X26125Y-23083D01*
X26542Y-22666D01*
X26793Y-22917D01*
X26793Y-22917D01*
G37*
G36*
X27238Y-23363D02*
X26821Y-23780D01*
X26570Y-23529D01*
X26987Y-23112D01*
X27238Y-23363D01*
X27238Y-23363D01*
G37*
G36*
X27684Y-23808D02*
X27267Y-24225D01*
X27016Y-23974D01*
X27433Y-23557D01*
X27684Y-23808D01*
X27684Y-23808D01*
G37*
G36*
X29075Y-22417D02*
X28658Y-22834D01*
X28407Y-22583D01*
X28824Y-22166D01*
X29075Y-22417D01*
X29075Y-22417D01*
G37*
G36*
X28630Y-21971D02*
X28213Y-22388D01*
X27962Y-22137D01*
X28379Y-21720D01*
X28630Y-21971D01*
X28630Y-21971D01*
G37*
G36*
X28184Y-21526D02*
X27767Y-21943D01*
X27516Y-21692D01*
X27933Y-21275D01*
X28184Y-21526D01*
X28184Y-21526D01*
G37*
G36*
X28588Y-22987D02*
X27837Y-23738D01*
X27392Y-23293D01*
X28143Y-22542D01*
X28588Y-22987D01*
X28588Y-22987D01*
G37*
G36*
X27808Y-22207D02*
X27057Y-22958D01*
X26612Y-22513D01*
X27363Y-21762D01*
X27808Y-22207D01*
X27808Y-22207D01*
G37*
G54D31*
X24870Y-28834D03*
X25500Y-28834D03*
X26130Y-28834D03*
X26130Y-26866D03*
X25500Y-26866D03*
X24870Y-26866D03*
G54D32*
X26051Y-27850D03*
X24949Y-27850D03*
G54D10*
G36*
X27817Y-33807D02*
X28234Y-34224D01*
X27983Y-34475D01*
X27566Y-34058D01*
X27817Y-33807D01*
X27817Y-33807D01*
G37*
G36*
X28263Y-33362D02*
X28680Y-33779D01*
X28429Y-34030D01*
X28012Y-33613D01*
X28263Y-33362D01*
X28263Y-33362D01*
G37*
G36*
X28708Y-32916D02*
X29125Y-33333D01*
X28874Y-33584D01*
X28457Y-33167D01*
X28708Y-32916D01*
X28708Y-32916D01*
G37*
G36*
X27317Y-31525D02*
X27734Y-31942D01*
X27483Y-32193D01*
X27066Y-31776D01*
X27317Y-31525D01*
X27317Y-31525D01*
G37*
G36*
X26871Y-31970D02*
X27288Y-32387D01*
X27037Y-32638D01*
X26620Y-32221D01*
X26871Y-31970D01*
X26871Y-31970D01*
G37*
G36*
X26426Y-32416D02*
X26843Y-32833D01*
X26592Y-33084D01*
X26175Y-32667D01*
X26426Y-32416D01*
X26426Y-32416D01*
G37*
G36*
X27887Y-32012D02*
X28638Y-32763D01*
X28193Y-33208D01*
X27442Y-32457D01*
X27887Y-32012D01*
X27887Y-32012D01*
G37*
G36*
X27107Y-32792D02*
X27858Y-33543D01*
X27413Y-33988D01*
X26662Y-33237D01*
X27107Y-32792D01*
X27107Y-32792D01*
G37*
G36*
X35447Y-35656D02*
X35278Y-35259D01*
X35639Y-35106D01*
X35808Y-35503D01*
X35447Y-35656D01*
X35447Y-35656D01*
G37*
G36*
X36061Y-35394D02*
X35892Y-34997D01*
X36253Y-34844D01*
X36422Y-35241D01*
X36061Y-35394D01*
X36061Y-35394D01*
G37*
G36*
X40202Y-31473D02*
X39801Y-31311D01*
X39948Y-30947D01*
X40349Y-31109D01*
X40202Y-31473D01*
X40202Y-31473D01*
G37*
G36*
X40452Y-30853D02*
X40051Y-30691D01*
X40198Y-30327D01*
X40599Y-30489D01*
X40452Y-30853D01*
X40452Y-30853D01*
G37*
G36*
X40556Y-25153D02*
X40159Y-25322D01*
X40006Y-24961D01*
X40403Y-24792D01*
X40556Y-25153D01*
X40556Y-25153D01*
G37*
G36*
X40294Y-24539D02*
X39897Y-24708D01*
X39744Y-24347D01*
X40141Y-24178D01*
X40294Y-24539D01*
X40294Y-24539D01*
G37*
G36*
X36423Y-20448D02*
X36261Y-20849D01*
X35897Y-20702D01*
X36059Y-20301D01*
X36423Y-20448D01*
X36423Y-20448D01*
G37*
G36*
X35803Y-20198D02*
X35641Y-20599D01*
X35277Y-20452D01*
X35439Y-20051D01*
X35803Y-20198D01*
X35803Y-20198D01*
G37*
G36*
X30103Y-19994D02*
X30272Y-20391D01*
X29911Y-20544D01*
X29742Y-20147D01*
X30103Y-19994D01*
X30103Y-19994D01*
G37*
G36*
X29489Y-20256D02*
X29658Y-20653D01*
X29297Y-20806D01*
X29128Y-20409D01*
X29489Y-20256D01*
X29489Y-20256D01*
G37*
G36*
X25298Y-24227D02*
X25699Y-24389D01*
X25552Y-24753D01*
X25151Y-24591D01*
X25298Y-24227D01*
X25298Y-24227D01*
G37*
G36*
X25048Y-24847D02*
X25449Y-25009D01*
X25302Y-25373D01*
X24901Y-25211D01*
X25048Y-24847D01*
X25048Y-24847D01*
G37*
G36*
X24944Y-30547D02*
X25341Y-30378D01*
X25494Y-30739D01*
X25097Y-30908D01*
X24944Y-30547D01*
X24944Y-30547D01*
G37*
G36*
X25206Y-31161D02*
X25603Y-30992D01*
X25756Y-31353D01*
X25359Y-31522D01*
X25206Y-31161D01*
X25206Y-31161D01*
G37*
G36*
X29130Y-35351D02*
X29257Y-34938D01*
X29632Y-35053D01*
X29505Y-35466D01*
X29130Y-35351D01*
X29130Y-35351D01*
G37*
G36*
X29768Y-35547D02*
X29895Y-35134D01*
X30270Y-35249D01*
X30143Y-35662D01*
X29768Y-35547D01*
X29768Y-35547D01*
G37*
M02*
