G04 (created by PCBNEW-RS274X (2010-04-21 BZR 23xx)-stable) date Thu 02 Sep 2010 05:41:50 AM CEST*
G01*
G70*
G90*
%MOIN*%
G04 Gerber Fmt 3.4, Leading zero omitted, Abs format*
%FSLAX34Y34*%
G04 APERTURE LIST*
%ADD10C,0.001000*%
%ADD11R,0.063000X0.063000*%
%ADD12C,0.063000*%
%ADD13R,0.068000X0.068000*%
%ADD14C,0.068000*%
%ADD15R,0.059100X0.067000*%
%ADD16R,0.070900X0.078800*%
%ADD17R,0.078800X0.070900*%
%ADD18R,0.095900X0.055900*%
%ADD19R,0.094600X0.149700*%
G04 APERTURE END LIST*
G54D10*
G54D11*
X31800Y-33400D03*
G54D12*
X32800Y-33400D03*
X33800Y-33400D03*
G54D13*
X31800Y-31100D03*
G54D14*
X31800Y-32100D03*
X32800Y-31100D03*
X32800Y-32100D03*
X33800Y-31100D03*
X33800Y-32100D03*
G54D11*
X30300Y-24400D03*
G54D12*
X31300Y-24400D03*
X32300Y-24400D03*
X33300Y-24400D03*
X34300Y-24400D03*
X35300Y-24400D03*
G54D11*
X36300Y-25400D03*
G54D12*
X36300Y-26400D03*
X36300Y-27400D03*
X36300Y-28400D03*
X36300Y-29400D03*
X36300Y-30400D03*
G54D11*
X29295Y-25400D03*
G54D12*
X29295Y-26400D03*
X29295Y-27400D03*
X29295Y-28400D03*
X29295Y-29400D03*
X29295Y-30400D03*
G54D15*
X39881Y-25480D03*
X39133Y-25480D03*
X33174Y-34600D03*
X32426Y-34600D03*
G54D16*
X25914Y-25490D03*
X27016Y-25490D03*
G54D15*
X39576Y-27900D03*
X40324Y-27900D03*
G54D17*
X35650Y-21549D03*
X35650Y-22651D03*
X30150Y-22651D03*
X30150Y-21549D03*
G54D18*
X31680Y-22609D03*
X31680Y-21700D03*
X31680Y-20791D03*
G54D19*
X34120Y-21700D03*
G54D15*
X26224Y-27900D03*
X25476Y-27900D03*
X32426Y-35650D03*
X33174Y-35650D03*
M02*
