G04 (created by PCBNEW (2013-09-20 BZR 4325)-product) date Sat 21 Sep 2013 04:31:50 AM CEST*
%MOIN*%
G04 Gerber Fmt 3.4, Leading zero omitted, Abs format*
%FSLAX34Y34*%
G01*
G70*
G90*
G04 APERTURE LIST*
%ADD10C,0.005906*%
%ADD11C,0.008000*%
%ADD12C,0.007874*%
%ADD13R,0.078700X0.017700*%
%ADD14R,0.017700X0.078700*%
%ADD15R,0.055000X0.055000*%
%ADD16C,0.055000*%
%ADD17C,0.086614*%
%ADD18R,0.055118X0.070866*%
%ADD19R,0.070866X0.055118*%
%ADD20R,0.060000X0.060000*%
%ADD21C,0.060000*%
%ADD22R,0.059000X0.051100*%
%ADD23R,0.051100X0.059000*%
G04 APERTURE END LIST*
G54D10*
G54D11*
X34500Y-23430D02*
X34500Y-23030D01*
X34919Y-23430D02*
X34785Y-23240D01*
X34690Y-23430D02*
X34690Y-23030D01*
X34842Y-23030D01*
X34880Y-23050D01*
X34900Y-23069D01*
X34919Y-23107D01*
X34919Y-23164D01*
X34900Y-23202D01*
X34880Y-23221D01*
X34842Y-23240D01*
X34690Y-23240D01*
G54D12*
X31150Y-26250D02*
X30950Y-25950D01*
X30950Y-25950D02*
X30850Y-26050D01*
X30850Y-26050D02*
X31150Y-26250D01*
X34730Y-28940D02*
X34280Y-28940D01*
X34730Y-26760D02*
X34290Y-26760D01*
X34730Y-28940D02*
X34730Y-26760D01*
X33850Y-29410D02*
X33850Y-29840D01*
X31640Y-29420D02*
X31640Y-29840D01*
X31630Y-29840D02*
X33850Y-29850D01*
X31650Y-25870D02*
X33820Y-25860D01*
X31220Y-26560D02*
X31220Y-29390D01*
X33830Y-25870D02*
X33830Y-26280D01*
X31470Y-26320D02*
X34250Y-26320D01*
X34270Y-29400D02*
X34270Y-26360D01*
X31220Y-29400D02*
X34220Y-29400D01*
X30770Y-26730D02*
X30770Y-28950D01*
X30770Y-28950D02*
X31220Y-28950D01*
X31224Y-26550D02*
X31454Y-26320D01*
X30772Y-26730D02*
X31224Y-26730D01*
X31650Y-26320D02*
X31650Y-25868D01*
X31820Y-26724D02*
G75*
G03X31820Y-26724I-188J0D01*
G74*
G01*
G54D11*
X33065Y-22738D02*
G75*
G03X32750Y-22423I-315J0D01*
G74*
G01*
X32750Y-22423D02*
G75*
G03X32435Y-22738I0J-315D01*
G74*
G01*
G54D12*
X34250Y-22750D02*
X34250Y-23750D01*
X34250Y-23750D02*
X31250Y-23750D01*
X31250Y-23750D02*
X31250Y-22750D01*
X31250Y-22750D02*
X34250Y-22750D01*
X33250Y-23750D02*
X33250Y-22750D01*
X30950Y-30550D02*
G75*
G03X30950Y-30550I-900J0D01*
G74*
G01*
X36350Y-30550D02*
G75*
G03X36350Y-30550I-900J0D01*
G74*
G01*
X36350Y-25150D02*
G75*
G03X36350Y-25150I-900J0D01*
G74*
G01*
X30950Y-25150D02*
G75*
G03X30950Y-25150I-900J0D01*
G74*
G01*
G54D11*
X26862Y-22569D02*
X27196Y-22485D01*
X27196Y-22485D02*
X26945Y-22234D01*
X26945Y-22234D02*
X26862Y-22569D01*
X28017Y-23724D02*
X28574Y-23167D01*
X28435Y-22193D02*
X28156Y-21914D01*
X26625Y-22332D02*
X27182Y-21775D01*
X27043Y-23585D02*
X26764Y-23306D01*
X24850Y-28243D02*
X25027Y-27948D01*
X25027Y-27948D02*
X24673Y-27948D01*
X24673Y-27948D02*
X24850Y-28243D01*
X26484Y-28243D02*
X26484Y-27456D01*
X25696Y-26865D02*
X25303Y-26865D01*
X24515Y-28243D02*
X24515Y-27456D01*
X25696Y-28834D02*
X25303Y-28834D01*
X27469Y-33737D02*
X27385Y-33403D01*
X27385Y-33403D02*
X27134Y-33654D01*
X27134Y-33654D02*
X27469Y-33737D01*
X28624Y-32582D02*
X28067Y-32025D01*
X27093Y-32164D02*
X26814Y-32443D01*
X27232Y-33974D02*
X26675Y-33417D01*
X28485Y-33556D02*
X28206Y-33835D01*
X33143Y-35749D02*
X32848Y-35572D01*
X32848Y-35572D02*
X32848Y-35926D01*
X32848Y-35926D02*
X33143Y-35749D01*
X33143Y-34115D02*
X32356Y-34115D01*
X31765Y-34903D02*
X31765Y-35296D01*
X33143Y-36084D02*
X32356Y-36084D01*
X33734Y-34903D02*
X33734Y-35296D01*
X38587Y-33180D02*
X38253Y-33264D01*
X38253Y-33264D02*
X38504Y-33515D01*
X38504Y-33515D02*
X38587Y-33180D01*
X37432Y-32025D02*
X36875Y-32582D01*
X37014Y-33556D02*
X37293Y-33835D01*
X38824Y-33417D02*
X38267Y-33974D01*
X38406Y-32164D02*
X38685Y-32443D01*
X40649Y-27456D02*
X40472Y-27751D01*
X40472Y-27751D02*
X40826Y-27751D01*
X40826Y-27751D02*
X40649Y-27456D01*
X39015Y-27456D02*
X39015Y-28243D01*
X39803Y-28834D02*
X40196Y-28834D01*
X40984Y-27456D02*
X40984Y-28243D01*
X39803Y-26865D02*
X40196Y-26865D01*
X38030Y-22012D02*
X38114Y-22346D01*
X38114Y-22346D02*
X38365Y-22095D01*
X38365Y-22095D02*
X38030Y-22012D01*
X36875Y-23167D02*
X37432Y-23724D01*
X38406Y-23585D02*
X38685Y-23306D01*
X38267Y-21775D02*
X38824Y-22332D01*
X37014Y-22193D02*
X37293Y-21914D01*
X32356Y-19950D02*
X32651Y-20127D01*
X32651Y-20127D02*
X32651Y-19773D01*
X32651Y-19773D02*
X32356Y-19950D01*
X32356Y-21584D02*
X33143Y-21584D01*
X33734Y-20796D02*
X33734Y-20403D01*
X32356Y-19615D02*
X33143Y-19615D01*
X31765Y-20796D02*
X31765Y-20403D01*
G54D12*
X27480Y-27047D02*
X27480Y-28622D01*
X27480Y-27047D02*
X28346Y-27047D01*
X28346Y-27047D02*
X28346Y-28622D01*
X28346Y-28622D02*
X27480Y-28622D01*
X28503Y-27047D02*
X28503Y-28622D01*
X28503Y-27047D02*
X29370Y-27047D01*
X29370Y-27047D02*
X29370Y-28622D01*
X29370Y-28622D02*
X28503Y-28622D01*
X32910Y-24725D02*
X33165Y-24725D01*
X33165Y-24725D02*
X33165Y-24174D01*
X32910Y-24174D02*
X33165Y-24174D01*
X32910Y-24725D02*
X32910Y-24174D01*
X32330Y-24725D02*
X32586Y-24725D01*
X32586Y-24725D02*
X32586Y-24174D01*
X32330Y-24174D02*
X32586Y-24174D01*
X32330Y-24725D02*
X32330Y-24174D01*
X32672Y-24646D02*
X32828Y-24646D01*
X32828Y-24646D02*
X32828Y-24254D01*
X32672Y-24254D02*
X32828Y-24254D01*
X32672Y-24646D02*
X32672Y-24254D01*
X32589Y-24200D02*
X32911Y-24200D01*
X32589Y-24700D02*
X32911Y-24700D01*
X31974Y-24063D02*
X33526Y-24063D01*
X33526Y-24063D02*
X33526Y-24837D01*
X33526Y-24837D02*
X31974Y-24837D01*
X31974Y-24837D02*
X31974Y-24063D01*
X28053Y-29199D02*
X28072Y-29218D01*
X28091Y-29274D01*
X28091Y-29311D01*
X28072Y-29368D01*
X28035Y-29405D01*
X27997Y-29424D01*
X27922Y-29443D01*
X27866Y-29443D01*
X27791Y-29424D01*
X27754Y-29405D01*
X27716Y-29368D01*
X27697Y-29311D01*
X27697Y-29274D01*
X27716Y-29218D01*
X27735Y-29199D01*
X28091Y-28824D02*
X28091Y-29049D01*
X28091Y-28937D02*
X27697Y-28937D01*
X27754Y-28974D01*
X27791Y-29011D01*
X27810Y-29049D01*
X29116Y-29199D02*
X29135Y-29218D01*
X29154Y-29274D01*
X29154Y-29311D01*
X29135Y-29368D01*
X29098Y-29405D01*
X29060Y-29424D01*
X28985Y-29443D01*
X28929Y-29443D01*
X28854Y-29424D01*
X28817Y-29405D01*
X28779Y-29368D01*
X28760Y-29311D01*
X28760Y-29274D01*
X28779Y-29218D01*
X28798Y-29199D01*
X28798Y-29049D02*
X28779Y-29030D01*
X28760Y-28993D01*
X28760Y-28899D01*
X28779Y-28862D01*
X28798Y-28843D01*
X28835Y-28824D01*
X28873Y-28824D01*
X28929Y-28843D01*
X29154Y-29068D01*
X29154Y-28824D01*
X33950Y-24626D02*
X33818Y-24439D01*
X33725Y-24626D02*
X33725Y-24233D01*
X33875Y-24233D01*
X33912Y-24251D01*
X33931Y-24270D01*
X33950Y-24308D01*
X33950Y-24364D01*
X33931Y-24401D01*
X33912Y-24420D01*
X33875Y-24439D01*
X33725Y-24439D01*
X34325Y-24626D02*
X34100Y-24626D01*
X34212Y-24626D02*
X34212Y-24233D01*
X34175Y-24289D01*
X34137Y-24326D01*
X34100Y-24345D01*
%LPC*%
G54D13*
X30854Y-28943D03*
X30854Y-28628D03*
X30854Y-28313D03*
X30854Y-27998D03*
X30854Y-27683D03*
X30854Y-27368D03*
X30854Y-27053D03*
X30854Y-26738D03*
X34620Y-26740D03*
X34620Y-28950D03*
X34620Y-28630D03*
X34620Y-28310D03*
X34620Y-28000D03*
X34620Y-27680D03*
X34620Y-27370D03*
X34620Y-27050D03*
G54D14*
X31638Y-25950D03*
X31952Y-25950D03*
X32268Y-25950D03*
X32582Y-25950D03*
X32898Y-25950D03*
X33212Y-25950D03*
X33528Y-25950D03*
X33842Y-25950D03*
X31640Y-29730D03*
X31950Y-29730D03*
X32270Y-29730D03*
X32580Y-29730D03*
X32890Y-29730D03*
X33210Y-29730D03*
X33530Y-29730D03*
X33850Y-29730D03*
G54D15*
X33750Y-23250D03*
G54D16*
X32750Y-23250D03*
X31750Y-23250D03*
G54D17*
X30050Y-30550D03*
X35450Y-30550D03*
X35450Y-25150D03*
X30050Y-25150D03*
G54D10*
G36*
X26917Y-22903D02*
X26416Y-23404D01*
X26027Y-23014D01*
X26528Y-22513D01*
X26917Y-22903D01*
X26917Y-22903D01*
G37*
G36*
X27836Y-23821D02*
X27335Y-24322D01*
X26945Y-23933D01*
X27446Y-23432D01*
X27836Y-23821D01*
X27836Y-23821D01*
G37*
G36*
X29172Y-22485D02*
X28671Y-22986D01*
X28282Y-22596D01*
X28783Y-22095D01*
X29172Y-22485D01*
X29172Y-22485D01*
G37*
G36*
X28254Y-21566D02*
X27753Y-22067D01*
X27363Y-21678D01*
X27864Y-21177D01*
X28254Y-21566D01*
X28254Y-21566D01*
G37*
G54D18*
X24850Y-28794D03*
X26149Y-28794D03*
X26149Y-26905D03*
X24850Y-26905D03*
G54D10*
G36*
X27803Y-33682D02*
X28304Y-34183D01*
X27914Y-34572D01*
X27413Y-34071D01*
X27803Y-33682D01*
X27803Y-33682D01*
G37*
G36*
X28721Y-32763D02*
X29222Y-33264D01*
X28833Y-33654D01*
X28332Y-33153D01*
X28721Y-32763D01*
X28721Y-32763D01*
G37*
G36*
X27385Y-31427D02*
X27886Y-31928D01*
X27496Y-32317D01*
X26995Y-31816D01*
X27385Y-31427D01*
X27385Y-31427D01*
G37*
G36*
X26466Y-32345D02*
X26967Y-32846D01*
X26578Y-33236D01*
X26077Y-32735D01*
X26466Y-32345D01*
X26466Y-32345D01*
G37*
G54D19*
X33694Y-35749D03*
X33694Y-34450D03*
X31805Y-34450D03*
X31805Y-35749D03*
G54D10*
G36*
X38532Y-32846D02*
X39033Y-32345D01*
X39422Y-32735D01*
X38921Y-33236D01*
X38532Y-32846D01*
X38532Y-32846D01*
G37*
G36*
X37613Y-31928D02*
X38114Y-31427D01*
X38504Y-31816D01*
X38003Y-32317D01*
X37613Y-31928D01*
X37613Y-31928D01*
G37*
G36*
X36277Y-33264D02*
X36778Y-32763D01*
X37167Y-33153D01*
X36666Y-33654D01*
X36277Y-33264D01*
X36277Y-33264D01*
G37*
G36*
X37195Y-34183D02*
X37696Y-33682D01*
X38086Y-34071D01*
X37585Y-34572D01*
X37195Y-34183D01*
X37195Y-34183D01*
G37*
G54D18*
X40649Y-26905D03*
X39350Y-26905D03*
X39350Y-28794D03*
X40649Y-28794D03*
G54D10*
G36*
X37696Y-22067D02*
X37195Y-21566D01*
X37585Y-21177D01*
X38086Y-21678D01*
X37696Y-22067D01*
X37696Y-22067D01*
G37*
G36*
X36778Y-22986D02*
X36277Y-22485D01*
X36666Y-22095D01*
X37167Y-22596D01*
X36778Y-22986D01*
X36778Y-22986D01*
G37*
G36*
X38114Y-24322D02*
X37613Y-23821D01*
X38003Y-23432D01*
X38504Y-23933D01*
X38114Y-24322D01*
X38114Y-24322D01*
G37*
G36*
X39033Y-23404D02*
X38532Y-22903D01*
X38921Y-22513D01*
X39422Y-23014D01*
X39033Y-23404D01*
X39033Y-23404D01*
G37*
G54D19*
X31805Y-19950D03*
X31805Y-21249D03*
X33694Y-21249D03*
X33694Y-19950D03*
G54D20*
X33250Y-26850D03*
G54D21*
X32250Y-26850D03*
X33250Y-27850D03*
X32250Y-27850D03*
X33250Y-28850D03*
X32250Y-28850D03*
G54D10*
G36*
X38634Y-25410D02*
X38210Y-25834D01*
X37786Y-25410D01*
X38210Y-24986D01*
X38634Y-25410D01*
X38634Y-25410D01*
G37*
G54D21*
X37503Y-24703D03*
X36796Y-23996D03*
X36089Y-23289D03*
G54D10*
G36*
X27239Y-25834D02*
X26815Y-25410D01*
X27239Y-24986D01*
X27663Y-25410D01*
X27239Y-25834D01*
X27239Y-25834D01*
G37*
G54D21*
X27946Y-24703D03*
X28653Y-23996D03*
X29360Y-23289D03*
G54D20*
X30250Y-22250D03*
G54D21*
X31250Y-22250D03*
X32250Y-22250D03*
X33250Y-22250D03*
X34250Y-22250D03*
X35250Y-22250D03*
G54D22*
X27913Y-28208D03*
X27913Y-27460D03*
X28937Y-28208D03*
X28937Y-27460D03*
G54D23*
X32376Y-24450D03*
X33124Y-24450D03*
M02*
