G04 (created by PCBNEW (2013-09-20 BZR 4325)-product) date Sat 21 Sep 2013 09:12:31 AM CEST*
%MOIN*%
G04 Gerber Fmt 3.4, Leading zero omitted, Abs format*
%FSLAX34Y34*%
G01*
G70*
G90*
G04 APERTURE LIST*
%ADD10C,0.005906*%
%ADD11C,0.009843*%
%ADD12R,0.055118X0.070866*%
%ADD13R,0.070866X0.055118*%
%ADD14R,0.078700X0.017700*%
%ADD15R,0.017700X0.078700*%
%ADD16R,0.055000X0.055000*%
%ADD17C,0.055000*%
%ADD18C,0.086614*%
%ADD19R,0.060000X0.060000*%
%ADD20C,0.060000*%
%ADD21R,0.019685X0.019685*%
%ADD22R,0.059000X0.051100*%
%ADD23R,0.051100X0.059000*%
%ADD24C,0.025000*%
%ADD25C,0.035000*%
%ADD26C,0.006000*%
%ADD27C,0.016000*%
G04 APERTURE END LIST*
G54D10*
G54D11*
X30325Y-23063D02*
X30325Y-22763D01*
X30225Y-23063D02*
X30225Y-22763D01*
X30275Y-23063D02*
X30275Y-22763D01*
G54D12*
X24850Y-28794D03*
X26149Y-28794D03*
X26149Y-26905D03*
X24850Y-26905D03*
G54D10*
G36*
X27803Y-33682D02*
X28304Y-34183D01*
X27914Y-34572D01*
X27413Y-34071D01*
X27803Y-33682D01*
X27803Y-33682D01*
G37*
G36*
X28721Y-32763D02*
X29222Y-33264D01*
X28833Y-33654D01*
X28332Y-33153D01*
X28721Y-32763D01*
X28721Y-32763D01*
G37*
G36*
X27385Y-31427D02*
X27886Y-31928D01*
X27496Y-32317D01*
X26995Y-31816D01*
X27385Y-31427D01*
X27385Y-31427D01*
G37*
G36*
X26466Y-32345D02*
X26967Y-32846D01*
X26578Y-33236D01*
X26077Y-32735D01*
X26466Y-32345D01*
X26466Y-32345D01*
G37*
G54D13*
X33694Y-35749D03*
X33694Y-34450D03*
X31805Y-34450D03*
X31805Y-35749D03*
G54D10*
G36*
X38532Y-32846D02*
X39033Y-32345D01*
X39422Y-32735D01*
X38921Y-33236D01*
X38532Y-32846D01*
X38532Y-32846D01*
G37*
G36*
X37613Y-31928D02*
X38114Y-31427D01*
X38504Y-31816D01*
X38003Y-32317D01*
X37613Y-31928D01*
X37613Y-31928D01*
G37*
G36*
X36277Y-33264D02*
X36778Y-32763D01*
X37167Y-33153D01*
X36666Y-33654D01*
X36277Y-33264D01*
X36277Y-33264D01*
G37*
G36*
X37195Y-34183D02*
X37696Y-33682D01*
X38086Y-34071D01*
X37585Y-34572D01*
X37195Y-34183D01*
X37195Y-34183D01*
G37*
G54D12*
X40649Y-26905D03*
X39350Y-26905D03*
X39350Y-28794D03*
X40649Y-28794D03*
G54D10*
G36*
X37696Y-22067D02*
X37195Y-21566D01*
X37585Y-21177D01*
X38086Y-21678D01*
X37696Y-22067D01*
X37696Y-22067D01*
G37*
G36*
X36778Y-22986D02*
X36277Y-22485D01*
X36666Y-22095D01*
X37167Y-22596D01*
X36778Y-22986D01*
X36778Y-22986D01*
G37*
G36*
X38114Y-24322D02*
X37613Y-23821D01*
X38003Y-23432D01*
X38504Y-23933D01*
X38114Y-24322D01*
X38114Y-24322D01*
G37*
G36*
X39033Y-23404D02*
X38532Y-22903D01*
X38921Y-22513D01*
X39422Y-23014D01*
X39033Y-23404D01*
X39033Y-23404D01*
G37*
G54D13*
X31805Y-19950D03*
X31805Y-21249D03*
X33694Y-21249D03*
X33694Y-19950D03*
G54D10*
G36*
X26917Y-22903D02*
X26416Y-23404D01*
X26027Y-23014D01*
X26528Y-22513D01*
X26917Y-22903D01*
X26917Y-22903D01*
G37*
G36*
X27836Y-23821D02*
X27335Y-24322D01*
X26945Y-23933D01*
X27446Y-23432D01*
X27836Y-23821D01*
X27836Y-23821D01*
G37*
G36*
X29172Y-22485D02*
X28671Y-22986D01*
X28282Y-22596D01*
X28783Y-22095D01*
X29172Y-22485D01*
X29172Y-22485D01*
G37*
G36*
X28254Y-21566D02*
X27753Y-22067D01*
X27363Y-21678D01*
X27864Y-21177D01*
X28254Y-21566D01*
X28254Y-21566D01*
G37*
G54D14*
X30854Y-28943D03*
X30854Y-28628D03*
X30854Y-28313D03*
X30854Y-27998D03*
X30854Y-27683D03*
X30854Y-27368D03*
X30854Y-27053D03*
X30854Y-26738D03*
X34620Y-26740D03*
X34620Y-28950D03*
X34620Y-28630D03*
X34620Y-28310D03*
X34620Y-28000D03*
X34620Y-27680D03*
X34620Y-27370D03*
X34620Y-27050D03*
G54D15*
X31638Y-25950D03*
X31952Y-25950D03*
X32268Y-25950D03*
X32582Y-25950D03*
X32898Y-25950D03*
X33212Y-25950D03*
X33528Y-25950D03*
X33842Y-25950D03*
X31640Y-29730D03*
X31950Y-29730D03*
X32270Y-29730D03*
X32580Y-29730D03*
X32890Y-29730D03*
X33210Y-29730D03*
X33530Y-29730D03*
X33850Y-29730D03*
G54D16*
X33750Y-23250D03*
G54D17*
X32750Y-23250D03*
X31750Y-23250D03*
G54D18*
X30050Y-30550D03*
X35450Y-30550D03*
X35450Y-25150D03*
X30050Y-25150D03*
G54D19*
X33250Y-26850D03*
G54D20*
X32250Y-26850D03*
X33250Y-27850D03*
X32250Y-27850D03*
X33250Y-28850D03*
X32250Y-28850D03*
G54D10*
G36*
X38634Y-25410D02*
X38210Y-25834D01*
X37786Y-25410D01*
X38210Y-24986D01*
X38634Y-25410D01*
X38634Y-25410D01*
G37*
G54D20*
X37503Y-24703D03*
X36796Y-23996D03*
X36089Y-23289D03*
G54D10*
G36*
X27239Y-25834D02*
X26815Y-25410D01*
X27239Y-24986D01*
X27663Y-25410D01*
X27239Y-25834D01*
X27239Y-25834D01*
G37*
G54D20*
X27946Y-24703D03*
X28653Y-23996D03*
X29360Y-23289D03*
G54D19*
X30250Y-22250D03*
G54D20*
X31250Y-22250D03*
X32250Y-22250D03*
X33250Y-22250D03*
X34250Y-22250D03*
X35250Y-22250D03*
G54D21*
X30275Y-23063D03*
X30275Y-22763D03*
G54D22*
X27913Y-28208D03*
X27913Y-27460D03*
X28937Y-28208D03*
X28937Y-27460D03*
G54D23*
X32376Y-24450D03*
X33124Y-24450D03*
G54D24*
X31299Y-32716D03*
X32204Y-31751D03*
X31496Y-24015D03*
X34251Y-29370D03*
X32755Y-25236D03*
X31811Y-24448D03*
X32283Y-25314D03*
X33405Y-25137D03*
X32893Y-30688D03*
X32322Y-30688D03*
X31555Y-30688D03*
X33070Y-25236D03*
X34114Y-30688D03*
X31555Y-31062D03*
X32322Y-31062D03*
X32893Y-31062D03*
X34114Y-31062D03*
X33228Y-25511D03*
X31968Y-25314D03*
X34606Y-23720D03*
G54D25*
X30078Y-27283D03*
X30275Y-23779D03*
G54D24*
X28727Y-22541D03*
X26149Y-26905D03*
X27441Y-31872D03*
X31805Y-34450D03*
X36722Y-33208D03*
X39350Y-28794D03*
X38058Y-23877D03*
X33694Y-21249D03*
X26023Y-30354D03*
X26023Y-31181D03*
X26377Y-29645D03*
X26023Y-32125D03*
X34803Y-21023D03*
X35374Y-21594D03*
X34488Y-20078D03*
X35905Y-22125D03*
X39094Y-26062D03*
X39370Y-23385D03*
X39370Y-25019D03*
X39350Y-24192D03*
X34566Y-34330D03*
X37047Y-34566D03*
X36299Y-34566D03*
X35492Y-34566D03*
X38425Y-31023D03*
X40551Y-29488D03*
X39940Y-29488D03*
X39114Y-30295D03*
X26161Y-24940D03*
X25531Y-25570D03*
X24960Y-26141D03*
X26968Y-24606D03*
X29370Y-21023D03*
X28543Y-21023D03*
X30984Y-21417D03*
X30334Y-21023D03*
G54D25*
X27412Y-33295D03*
X25098Y-27874D03*
X27333Y-22491D03*
X32755Y-20216D03*
X38138Y-22452D03*
X32755Y-35492D03*
X38177Y-33256D03*
X40374Y-27874D03*
X29803Y-27992D03*
G54D26*
X30787Y-35314D02*
X31222Y-35749D01*
X30787Y-33228D02*
X30787Y-35314D01*
X31299Y-32716D02*
X30787Y-33228D01*
X31805Y-35749D02*
X31222Y-35749D01*
X32224Y-31751D02*
X32580Y-31396D01*
X32204Y-31751D02*
X32224Y-31751D01*
X32580Y-29730D02*
X32580Y-31396D01*
X31638Y-25950D02*
X31638Y-24748D01*
X31496Y-24606D02*
X31496Y-24015D01*
X31638Y-24748D02*
X31496Y-24606D01*
X34128Y-29730D02*
X33850Y-29730D01*
X34251Y-29606D02*
X34128Y-29730D01*
X34251Y-29370D02*
X34251Y-29606D01*
X32250Y-27850D02*
X32259Y-27850D01*
X33530Y-29265D02*
X33530Y-29730D01*
X33818Y-28976D02*
X33530Y-29265D01*
X33818Y-28622D02*
X33818Y-28976D01*
X33543Y-28346D02*
X33818Y-28622D01*
X32755Y-28346D02*
X33543Y-28346D01*
X32259Y-27850D02*
X32755Y-28346D01*
X34620Y-27050D02*
X36571Y-27050D01*
X36571Y-27050D02*
X38210Y-25410D01*
X36549Y-26740D02*
X37503Y-25786D01*
X34620Y-26740D02*
X36549Y-26740D01*
X37503Y-25786D02*
X37503Y-24703D01*
X36796Y-23996D02*
X36830Y-24030D01*
X34198Y-25950D02*
X33842Y-25950D01*
X34704Y-26456D02*
X34198Y-25950D01*
X36476Y-26456D02*
X34704Y-26456D01*
X36830Y-26102D02*
X36476Y-26456D01*
X36830Y-24030D02*
X36830Y-26102D01*
X36737Y-24055D02*
X36796Y-23996D01*
X33528Y-25448D02*
X33937Y-25039D01*
X33528Y-25950D02*
X33528Y-25448D01*
X35568Y-23289D02*
X36089Y-23289D01*
X33937Y-24921D02*
X35568Y-23289D01*
X33937Y-25039D02*
X33937Y-24921D01*
X32755Y-25236D02*
X32582Y-25236D01*
X32376Y-25078D02*
X32559Y-25078D01*
X32559Y-25078D02*
X32582Y-25101D01*
X32582Y-25101D02*
X32582Y-25236D01*
X32582Y-25236D02*
X32582Y-25950D01*
X31850Y-25078D02*
X32376Y-25078D01*
X31811Y-25039D02*
X31850Y-25078D01*
X31811Y-24448D02*
X31811Y-25039D01*
X32376Y-24450D02*
X32376Y-25078D01*
X33405Y-25137D02*
X33523Y-25137D01*
X33250Y-22250D02*
X33250Y-22183D01*
X33700Y-21732D02*
X33250Y-22183D01*
X34488Y-21732D02*
X33700Y-21732D01*
X34763Y-22007D02*
X34488Y-21732D01*
X34763Y-22480D02*
X34763Y-22007D01*
X34842Y-22559D02*
X34763Y-22480D01*
X34842Y-23818D02*
X34842Y-22559D01*
X33523Y-25137D02*
X34842Y-23818D01*
X32268Y-25330D02*
X32268Y-25950D01*
X32268Y-25330D02*
X32283Y-25314D01*
X33250Y-27850D02*
X33676Y-27850D01*
X34107Y-28950D02*
X34620Y-28950D01*
X33976Y-28818D02*
X34107Y-28950D01*
X33976Y-28149D02*
X33976Y-28818D01*
X33676Y-27850D02*
X33976Y-28149D01*
X34114Y-30688D02*
X32893Y-30688D01*
X31555Y-30688D02*
X32322Y-30688D01*
X32898Y-25950D02*
X32898Y-25409D01*
X33070Y-25236D02*
X32898Y-25409D01*
X31555Y-31062D02*
X32322Y-31062D01*
X32893Y-31062D02*
X34114Y-31062D01*
X33228Y-25511D02*
X33212Y-25528D01*
X33212Y-25528D02*
X33212Y-25950D01*
X31968Y-25314D02*
X31952Y-25331D01*
X31952Y-25950D02*
X31952Y-25331D01*
X34606Y-23720D02*
X34606Y-22559D01*
X34297Y-22250D02*
X34606Y-22559D01*
X34250Y-22250D02*
X34297Y-22250D01*
G54D27*
X30275Y-23063D02*
X30275Y-23779D01*
X28937Y-27460D02*
X29901Y-27460D01*
X29901Y-27460D02*
X30078Y-27283D01*
X27913Y-27460D02*
X28937Y-27460D01*
X30163Y-27368D02*
X30854Y-27368D01*
X30078Y-27283D02*
X30163Y-27368D01*
G54D26*
X31456Y-27677D02*
X31614Y-27677D01*
X33627Y-27368D02*
X33939Y-27680D01*
X33939Y-27680D02*
X34620Y-27680D01*
X31923Y-27368D02*
X33627Y-27368D01*
X31614Y-27677D02*
X31923Y-27368D01*
G54D27*
X30275Y-23063D02*
X30952Y-23063D01*
X32255Y-22755D02*
X32750Y-23250D01*
X31259Y-22755D02*
X32255Y-22755D01*
X30952Y-23063D02*
X31259Y-22755D01*
G54D26*
X30854Y-27368D02*
X31344Y-27368D01*
X31456Y-27480D02*
X31456Y-27677D01*
X31344Y-27368D02*
X31456Y-27480D01*
X31456Y-27677D02*
X31456Y-27913D01*
X31456Y-27913D02*
X31372Y-27998D01*
X31372Y-27998D02*
X30854Y-27998D01*
G54D27*
X30275Y-22763D02*
X30275Y-22275D01*
X30275Y-22275D02*
X30250Y-22250D01*
G54D26*
X26023Y-31181D02*
X26023Y-30354D01*
X26149Y-28794D02*
X26149Y-29417D01*
X26149Y-29417D02*
X26377Y-29645D01*
X26522Y-32624D02*
X26522Y-32791D01*
X26023Y-32125D02*
X26522Y-32624D01*
X35374Y-21594D02*
X34803Y-21023D01*
X34359Y-19950D02*
X34488Y-20078D01*
X33694Y-19950D02*
X34359Y-19950D01*
X36425Y-22244D02*
X36722Y-22541D01*
X36023Y-22244D02*
X36425Y-22244D01*
X35905Y-22125D02*
X36023Y-22244D01*
X39094Y-26102D02*
X39350Y-26358D01*
X39350Y-26358D02*
X39350Y-26905D01*
X39094Y-26062D02*
X39094Y-26102D01*
X39350Y-24192D02*
X39350Y-25000D01*
X39350Y-25000D02*
X39370Y-25019D01*
X38977Y-22993D02*
X39370Y-23385D01*
X38977Y-22958D02*
X38977Y-22993D01*
X34447Y-34450D02*
X34566Y-34330D01*
X37047Y-34566D02*
X37486Y-34127D01*
X37641Y-34127D02*
X37486Y-34127D01*
X34447Y-34450D02*
X33694Y-34450D01*
X35492Y-34566D02*
X36299Y-34566D01*
X38425Y-31023D02*
X38425Y-31506D01*
X38058Y-31872D02*
X38425Y-31506D01*
X40649Y-29389D02*
X40649Y-28794D01*
X40649Y-29389D02*
X40551Y-29488D01*
X39921Y-29488D02*
X39940Y-29488D01*
X39114Y-30295D02*
X39921Y-29488D01*
X38058Y-31783D02*
X38058Y-31872D01*
X26161Y-24940D02*
X25531Y-25570D01*
X27391Y-23877D02*
X27086Y-24182D01*
X24850Y-26251D02*
X24960Y-26141D01*
X24850Y-26251D02*
X24850Y-26905D01*
X26968Y-24606D02*
X27086Y-24488D01*
X27086Y-24488D02*
X27086Y-24182D01*
X28407Y-21023D02*
X28543Y-21023D01*
X27808Y-21622D02*
X28407Y-21023D01*
X31151Y-21249D02*
X31805Y-21249D01*
X30984Y-21417D02*
X31151Y-21249D01*
X29370Y-21023D02*
X30334Y-21023D01*
G54D27*
X30242Y-28313D02*
X30854Y-28313D01*
X27412Y-33295D02*
X27401Y-33307D01*
X25098Y-27874D02*
X25078Y-27874D01*
X27333Y-22491D02*
X27322Y-22480D01*
X32755Y-20216D02*
X32755Y-20196D01*
X38138Y-22452D02*
X38149Y-22440D01*
X32755Y-35492D02*
X32755Y-35472D01*
X38177Y-33256D02*
X38188Y-33267D01*
X40374Y-27874D02*
X40393Y-27874D01*
X30118Y-27992D02*
X29803Y-27992D01*
X30118Y-27795D02*
X30118Y-27992D01*
X30118Y-27992D02*
X30118Y-28188D01*
X30230Y-27683D02*
X30118Y-27795D01*
X30854Y-27683D02*
X30230Y-27683D01*
X30118Y-28188D02*
X30242Y-28313D01*
X31750Y-23250D02*
X31750Y-23364D01*
X33124Y-23990D02*
X33124Y-24450D01*
X32952Y-23818D02*
X33124Y-23990D01*
X32204Y-23818D02*
X32952Y-23818D01*
X31750Y-23364D02*
X32204Y-23818D01*
G54D10*
G36*
X41132Y-27842D02*
X41072Y-28452D01*
X41072Y-28426D01*
X41067Y-28397D01*
X41056Y-28370D01*
X41039Y-28346D01*
X41019Y-28325D01*
X40995Y-28309D01*
X40968Y-28298D01*
X40939Y-28292D01*
X40910Y-28292D01*
X40639Y-28292D01*
X40639Y-27370D01*
X40639Y-26914D01*
X40639Y-26895D01*
X40639Y-26440D01*
X40602Y-26403D01*
X40359Y-26403D01*
X40330Y-26408D01*
X40304Y-26419D01*
X40279Y-26436D01*
X40259Y-26456D01*
X40243Y-26480D01*
X40232Y-26507D01*
X40226Y-26536D01*
X40226Y-26565D01*
X40226Y-26858D01*
X40263Y-26895D01*
X40639Y-26895D01*
X40639Y-26914D01*
X40263Y-26914D01*
X40226Y-26951D01*
X40226Y-27244D01*
X40226Y-27273D01*
X40232Y-27302D01*
X40243Y-27329D01*
X40259Y-27353D01*
X40279Y-27374D01*
X40304Y-27390D01*
X40330Y-27401D01*
X40359Y-27407D01*
X40602Y-27407D01*
X40639Y-27370D01*
X40639Y-28292D01*
X40359Y-28292D01*
X40330Y-28298D01*
X40304Y-28309D01*
X40279Y-28325D01*
X40259Y-28346D01*
X40243Y-28370D01*
X40232Y-28397D01*
X40226Y-28426D01*
X40226Y-28455D01*
X40226Y-29163D01*
X40232Y-29192D01*
X40243Y-29219D01*
X40259Y-29243D01*
X40279Y-29263D01*
X40304Y-29280D01*
X40330Y-29291D01*
X40357Y-29296D01*
X40341Y-29312D01*
X40311Y-29356D01*
X40290Y-29405D01*
X40278Y-29457D01*
X40278Y-29511D01*
X40287Y-29563D01*
X40307Y-29613D01*
X40336Y-29658D01*
X40373Y-29696D01*
X40417Y-29727D01*
X40466Y-29748D01*
X40518Y-29760D01*
X40572Y-29761D01*
X40624Y-29752D01*
X40674Y-29732D01*
X40719Y-29704D01*
X40758Y-29667D01*
X40789Y-29623D01*
X40811Y-29574D01*
X40822Y-29522D01*
X40823Y-29461D01*
X40819Y-29439D01*
X40823Y-29426D01*
X40823Y-29425D01*
X40823Y-29424D01*
X40825Y-29408D01*
X40827Y-29392D01*
X40827Y-29390D01*
X40827Y-29390D01*
X40827Y-29390D01*
X40827Y-29389D01*
X40827Y-29296D01*
X40939Y-29296D01*
X40968Y-29291D01*
X40991Y-29281D01*
X40972Y-29478D01*
X40499Y-31044D01*
X40213Y-31581D01*
X40213Y-29461D01*
X40203Y-29409D01*
X40182Y-29359D01*
X40153Y-29315D01*
X40115Y-29277D01*
X40071Y-29247D01*
X40021Y-29226D01*
X39969Y-29215D01*
X39916Y-29215D01*
X39863Y-29225D01*
X39814Y-29245D01*
X39773Y-29271D01*
X39773Y-29163D01*
X39773Y-29134D01*
X39773Y-28426D01*
X39773Y-27273D01*
X39773Y-27244D01*
X39773Y-26536D01*
X39767Y-26507D01*
X39756Y-26480D01*
X39740Y-26456D01*
X39720Y-26436D01*
X39695Y-26419D01*
X39669Y-26408D01*
X39642Y-26403D01*
X39642Y-24992D01*
X39632Y-24940D01*
X39611Y-24891D01*
X39582Y-24846D01*
X39544Y-24808D01*
X39528Y-24797D01*
X39528Y-24400D01*
X39557Y-24371D01*
X39588Y-24328D01*
X39610Y-24279D01*
X39622Y-24227D01*
X39623Y-24166D01*
X39612Y-24113D01*
X39592Y-24064D01*
X39562Y-24019D01*
X39525Y-23981D01*
X39480Y-23951D01*
X39431Y-23931D01*
X39379Y-23920D01*
X39325Y-23920D01*
X39273Y-23930D01*
X39223Y-23950D01*
X39178Y-23979D01*
X39140Y-24016D01*
X39110Y-24060D01*
X39089Y-24110D01*
X39078Y-24162D01*
X39077Y-24215D01*
X39087Y-24268D01*
X39106Y-24318D01*
X39135Y-24363D01*
X39172Y-24401D01*
X39172Y-24831D01*
X39160Y-24843D01*
X39130Y-24887D01*
X39108Y-24936D01*
X39097Y-24989D01*
X39097Y-25042D01*
X39106Y-25095D01*
X39126Y-25144D01*
X39155Y-25189D01*
X39192Y-25228D01*
X39236Y-25258D01*
X39285Y-25280D01*
X39337Y-25291D01*
X39391Y-25292D01*
X39443Y-25283D01*
X39493Y-25264D01*
X39538Y-25235D01*
X39577Y-25198D01*
X39608Y-25155D01*
X39630Y-25106D01*
X39641Y-25054D01*
X39642Y-24992D01*
X39642Y-26403D01*
X39640Y-26403D01*
X39611Y-26403D01*
X39528Y-26403D01*
X39528Y-26358D01*
X39526Y-26341D01*
X39525Y-26325D01*
X39524Y-26324D01*
X39524Y-26323D01*
X39519Y-26308D01*
X39515Y-26292D01*
X39514Y-26291D01*
X39514Y-26290D01*
X39506Y-26276D01*
X39499Y-26261D01*
X39498Y-26260D01*
X39498Y-26259D01*
X39487Y-26247D01*
X39477Y-26234D01*
X39476Y-26233D01*
X39476Y-26233D01*
X39476Y-26233D01*
X39476Y-26232D01*
X39361Y-26118D01*
X39366Y-26097D01*
X39367Y-26036D01*
X39356Y-25983D01*
X39336Y-25934D01*
X39306Y-25889D01*
X39269Y-25851D01*
X39224Y-25822D01*
X39175Y-25801D01*
X39123Y-25790D01*
X39069Y-25790D01*
X39017Y-25800D01*
X38967Y-25820D01*
X38922Y-25849D01*
X38884Y-25886D01*
X38854Y-25931D01*
X38833Y-25980D01*
X38822Y-26032D01*
X38821Y-26085D01*
X38831Y-26138D01*
X38850Y-26188D01*
X38879Y-26233D01*
X38916Y-26271D01*
X38960Y-26302D01*
X39009Y-26323D01*
X39062Y-26335D01*
X39076Y-26335D01*
X39144Y-26403D01*
X39060Y-26403D01*
X39031Y-26408D01*
X39004Y-26419D01*
X38980Y-26436D01*
X38960Y-26456D01*
X38943Y-26480D01*
X38932Y-26507D01*
X38927Y-26536D01*
X38927Y-26565D01*
X38927Y-27273D01*
X38932Y-27302D01*
X38943Y-27329D01*
X38960Y-27353D01*
X38980Y-27374D01*
X39004Y-27390D01*
X39031Y-27401D01*
X39060Y-27407D01*
X39089Y-27407D01*
X39640Y-27407D01*
X39669Y-27401D01*
X39695Y-27390D01*
X39720Y-27374D01*
X39740Y-27353D01*
X39756Y-27329D01*
X39767Y-27302D01*
X39773Y-27273D01*
X39773Y-28426D01*
X39767Y-28397D01*
X39756Y-28370D01*
X39740Y-28346D01*
X39720Y-28325D01*
X39695Y-28309D01*
X39669Y-28298D01*
X39640Y-28292D01*
X39611Y-28292D01*
X39060Y-28292D01*
X39031Y-28298D01*
X39004Y-28309D01*
X38980Y-28325D01*
X38960Y-28346D01*
X38943Y-28370D01*
X38932Y-28397D01*
X38927Y-28426D01*
X38927Y-28455D01*
X38927Y-29163D01*
X38932Y-29192D01*
X38943Y-29219D01*
X38960Y-29243D01*
X38980Y-29263D01*
X39004Y-29280D01*
X39031Y-29291D01*
X39060Y-29296D01*
X39089Y-29296D01*
X39640Y-29296D01*
X39669Y-29291D01*
X39695Y-29280D01*
X39720Y-29263D01*
X39740Y-29243D01*
X39756Y-29219D01*
X39767Y-29192D01*
X39773Y-29163D01*
X39773Y-29271D01*
X39769Y-29274D01*
X39731Y-29312D01*
X39700Y-29356D01*
X39679Y-29405D01*
X39668Y-29457D01*
X39668Y-29489D01*
X39135Y-30022D01*
X39089Y-30022D01*
X39036Y-30032D01*
X38987Y-30052D01*
X38942Y-30081D01*
X38904Y-30119D01*
X38874Y-30163D01*
X38853Y-30212D01*
X38841Y-30264D01*
X38841Y-30318D01*
X38850Y-30370D01*
X38870Y-30420D01*
X38899Y-30465D01*
X38936Y-30503D01*
X38980Y-30534D01*
X39029Y-30555D01*
X39081Y-30567D01*
X39135Y-30568D01*
X39187Y-30559D01*
X39237Y-30539D01*
X39282Y-30511D01*
X39321Y-30474D01*
X39352Y-30430D01*
X39374Y-30381D01*
X39385Y-30329D01*
X39386Y-30273D01*
X39901Y-29758D01*
X39908Y-29760D01*
X39961Y-29761D01*
X40014Y-29752D01*
X40064Y-29732D01*
X40109Y-29704D01*
X40148Y-29667D01*
X40179Y-29623D01*
X40200Y-29574D01*
X40212Y-29522D01*
X40213Y-29461D01*
X40213Y-31581D01*
X39731Y-32488D01*
X39564Y-32692D01*
X39564Y-32692D01*
X39553Y-32665D01*
X39537Y-32641D01*
X39365Y-32469D01*
X39313Y-32469D01*
X39299Y-32483D01*
X39299Y-32455D01*
X39299Y-32403D01*
X39127Y-32231D01*
X39103Y-32214D01*
X39076Y-32203D01*
X39047Y-32198D01*
X39018Y-32198D01*
X38990Y-32203D01*
X38963Y-32214D01*
X38939Y-32231D01*
X38918Y-32251D01*
X38802Y-32367D01*
X38802Y-25427D01*
X38802Y-25394D01*
X38795Y-25361D01*
X38783Y-25331D01*
X38764Y-25303D01*
X38741Y-25280D01*
X38651Y-25190D01*
X38651Y-23947D01*
X38651Y-23918D01*
X38646Y-23890D01*
X38635Y-23863D01*
X38618Y-23839D01*
X38598Y-23818D01*
X38234Y-23454D01*
X38234Y-21692D01*
X38234Y-21663D01*
X38228Y-21635D01*
X38217Y-21608D01*
X38201Y-21584D01*
X38180Y-21563D01*
X37973Y-21356D01*
X37921Y-21356D01*
X37655Y-21622D01*
X37977Y-21944D01*
X38029Y-21944D01*
X38201Y-21772D01*
X38217Y-21748D01*
X38228Y-21721D01*
X38234Y-21692D01*
X38234Y-23454D01*
X38097Y-23317D01*
X38073Y-23301D01*
X38046Y-23290D01*
X38017Y-23284D01*
X37988Y-23284D01*
X37963Y-23289D01*
X37963Y-22010D01*
X37963Y-21958D01*
X37641Y-21636D01*
X37627Y-21650D01*
X37627Y-21622D01*
X37305Y-21300D01*
X37253Y-21300D01*
X37081Y-21472D01*
X37064Y-21496D01*
X37053Y-21523D01*
X37048Y-21552D01*
X37048Y-21581D01*
X37053Y-21609D01*
X37064Y-21636D01*
X37081Y-21660D01*
X37101Y-21681D01*
X37308Y-21888D01*
X37361Y-21888D01*
X37627Y-21622D01*
X37627Y-21650D01*
X37374Y-21902D01*
X37374Y-21954D01*
X37582Y-22162D01*
X37602Y-22182D01*
X37626Y-22198D01*
X37653Y-22209D01*
X37682Y-22215D01*
X37711Y-22215D01*
X37739Y-22209D01*
X37766Y-22198D01*
X37791Y-22182D01*
X37963Y-22010D01*
X37963Y-23289D01*
X37960Y-23290D01*
X37933Y-23301D01*
X37909Y-23317D01*
X37888Y-23337D01*
X37498Y-23727D01*
X37482Y-23751D01*
X37471Y-23778D01*
X37465Y-23807D01*
X37465Y-23836D01*
X37471Y-23864D01*
X37482Y-23891D01*
X37498Y-23915D01*
X37519Y-23936D01*
X38020Y-24437D01*
X38044Y-24453D01*
X38071Y-24464D01*
X38099Y-24470D01*
X38129Y-24470D01*
X38157Y-24464D01*
X38184Y-24453D01*
X38208Y-24437D01*
X38229Y-24417D01*
X38618Y-24027D01*
X38635Y-24003D01*
X38646Y-23976D01*
X38651Y-23947D01*
X38651Y-25190D01*
X38317Y-24856D01*
X38289Y-24838D01*
X38259Y-24825D01*
X38227Y-24819D01*
X38194Y-24819D01*
X38161Y-24825D01*
X38131Y-24838D01*
X38103Y-24856D01*
X38080Y-24879D01*
X37681Y-25279D01*
X37681Y-25135D01*
X37715Y-25122D01*
X37792Y-25073D01*
X37859Y-25010D01*
X37911Y-24935D01*
X37949Y-24851D01*
X37969Y-24762D01*
X37970Y-24657D01*
X37953Y-24567D01*
X37918Y-24483D01*
X37867Y-24406D01*
X37802Y-24341D01*
X37726Y-24290D01*
X37642Y-24254D01*
X37552Y-24236D01*
X37460Y-24235D01*
X37370Y-24253D01*
X37285Y-24287D01*
X37209Y-24337D01*
X37143Y-24401D01*
X37092Y-24477D01*
X37055Y-24561D01*
X37036Y-24651D01*
X37035Y-24742D01*
X37052Y-24832D01*
X37085Y-24918D01*
X37135Y-24995D01*
X37199Y-25061D01*
X37274Y-25113D01*
X37325Y-25135D01*
X37325Y-25712D01*
X37008Y-26030D01*
X37008Y-24415D01*
X37085Y-24366D01*
X37151Y-24303D01*
X37204Y-24228D01*
X37242Y-24144D01*
X37262Y-24055D01*
X37263Y-23950D01*
X37245Y-23860D01*
X37211Y-23775D01*
X37160Y-23699D01*
X37095Y-23634D01*
X37019Y-23583D01*
X36935Y-23547D01*
X36845Y-23529D01*
X36753Y-23528D01*
X36663Y-23545D01*
X36578Y-23580D01*
X36502Y-23630D01*
X36436Y-23694D01*
X36384Y-23770D01*
X36348Y-23854D01*
X36329Y-23944D01*
X36328Y-24035D01*
X36345Y-24125D01*
X36378Y-24211D01*
X36428Y-24288D01*
X36492Y-24354D01*
X36567Y-24406D01*
X36651Y-24443D01*
X36653Y-24443D01*
X36653Y-26028D01*
X36424Y-26257D01*
X36424Y-25054D01*
X36387Y-24867D01*
X36314Y-24690D01*
X36208Y-24531D01*
X36074Y-24395D01*
X35915Y-24288D01*
X35739Y-24214D01*
X35552Y-24176D01*
X35361Y-24174D01*
X35173Y-24210D01*
X34996Y-24282D01*
X34836Y-24386D01*
X34699Y-24520D01*
X34591Y-24678D01*
X34516Y-24853D01*
X34476Y-25040D01*
X34474Y-25231D01*
X34508Y-25419D01*
X34579Y-25597D01*
X34682Y-25758D01*
X34815Y-25895D01*
X34972Y-26004D01*
X35147Y-26081D01*
X35334Y-26122D01*
X35525Y-26126D01*
X35713Y-26093D01*
X35891Y-26023D01*
X36052Y-25921D01*
X36191Y-25789D01*
X36301Y-25633D01*
X36379Y-25459D01*
X36421Y-25272D01*
X36424Y-25054D01*
X36424Y-26257D01*
X36402Y-26279D01*
X34778Y-26279D01*
X34323Y-25824D01*
X34310Y-25813D01*
X34298Y-25803D01*
X34297Y-25802D01*
X34296Y-25802D01*
X34282Y-25794D01*
X34268Y-25786D01*
X34267Y-25786D01*
X34266Y-25786D01*
X34250Y-25781D01*
X34234Y-25776D01*
X34234Y-25776D01*
X34233Y-25775D01*
X34216Y-25774D01*
X34200Y-25772D01*
X34198Y-25772D01*
X34198Y-25772D01*
X34198Y-25772D01*
X34198Y-25772D01*
X34078Y-25772D01*
X34078Y-25541D01*
X34072Y-25513D01*
X34061Y-25486D01*
X34045Y-25462D01*
X34024Y-25441D01*
X34000Y-25425D01*
X33973Y-25414D01*
X33945Y-25408D01*
X33915Y-25408D01*
X33818Y-25408D01*
X34062Y-25164D01*
X34073Y-25152D01*
X34083Y-25139D01*
X34084Y-25138D01*
X34084Y-25138D01*
X34092Y-25123D01*
X34100Y-25109D01*
X34100Y-25108D01*
X34101Y-25107D01*
X34105Y-25091D01*
X34110Y-25076D01*
X34110Y-25075D01*
X34111Y-25074D01*
X34112Y-25058D01*
X34114Y-25041D01*
X34114Y-25040D01*
X34114Y-25039D01*
X34114Y-25039D01*
X34114Y-25039D01*
X34114Y-24994D01*
X35642Y-23466D01*
X35657Y-23466D01*
X35671Y-23503D01*
X35721Y-23581D01*
X35784Y-23646D01*
X35860Y-23699D01*
X35944Y-23735D01*
X36033Y-23755D01*
X36125Y-23757D01*
X36215Y-23741D01*
X36301Y-23708D01*
X36378Y-23659D01*
X36444Y-23596D01*
X36497Y-23521D01*
X36534Y-23437D01*
X36555Y-23348D01*
X36556Y-23243D01*
X36538Y-23153D01*
X36503Y-23068D01*
X36453Y-22992D01*
X36388Y-22927D01*
X36312Y-22876D01*
X36228Y-22840D01*
X36138Y-22822D01*
X36046Y-22821D01*
X35956Y-22838D01*
X35871Y-22873D01*
X35795Y-22923D01*
X35729Y-22987D01*
X35677Y-23063D01*
X35657Y-23111D01*
X35568Y-23111D01*
X35552Y-23113D01*
X35536Y-23114D01*
X35535Y-23114D01*
X35534Y-23115D01*
X35518Y-23119D01*
X35502Y-23124D01*
X35502Y-23124D01*
X35501Y-23125D01*
X35486Y-23132D01*
X35472Y-23140D01*
X35471Y-23140D01*
X35470Y-23141D01*
X35457Y-23151D01*
X35445Y-23161D01*
X35443Y-23163D01*
X35443Y-23163D01*
X35443Y-23163D01*
X35443Y-23163D01*
X35020Y-23586D01*
X35020Y-22659D01*
X35020Y-22659D01*
X35104Y-22696D01*
X35194Y-22716D01*
X35286Y-22718D01*
X35376Y-22702D01*
X35461Y-22669D01*
X35539Y-22620D01*
X35605Y-22556D01*
X35658Y-22481D01*
X35695Y-22398D01*
X35713Y-22319D01*
X35727Y-22334D01*
X35771Y-22365D01*
X35820Y-22386D01*
X35873Y-22398D01*
X35926Y-22399D01*
X35935Y-22397D01*
X35939Y-22399D01*
X35953Y-22407D01*
X35954Y-22407D01*
X35955Y-22408D01*
X35971Y-22412D01*
X35986Y-22417D01*
X35987Y-22417D01*
X35988Y-22418D01*
X36004Y-22419D01*
X36021Y-22421D01*
X36022Y-22421D01*
X36023Y-22421D01*
X36023Y-22421D01*
X36023Y-22421D01*
X36143Y-22421D01*
X36135Y-22442D01*
X36129Y-22470D01*
X36129Y-22500D01*
X36135Y-22528D01*
X36146Y-22555D01*
X36162Y-22579D01*
X36182Y-22600D01*
X36684Y-23101D01*
X36708Y-23117D01*
X36735Y-23128D01*
X36763Y-23134D01*
X36792Y-23134D01*
X36821Y-23128D01*
X36848Y-23117D01*
X36872Y-23101D01*
X36892Y-23080D01*
X37282Y-22691D01*
X37298Y-22666D01*
X37309Y-22639D01*
X37315Y-22611D01*
X37315Y-22582D01*
X37309Y-22553D01*
X37298Y-22526D01*
X37282Y-22502D01*
X37262Y-22482D01*
X36760Y-21981D01*
X36736Y-21964D01*
X36709Y-21953D01*
X36681Y-21948D01*
X36652Y-21948D01*
X36623Y-21953D01*
X36596Y-21964D01*
X36572Y-21981D01*
X36552Y-22001D01*
X36478Y-22075D01*
X36478Y-22075D01*
X36462Y-22070D01*
X36461Y-22070D01*
X36460Y-22069D01*
X36444Y-22068D01*
X36427Y-22066D01*
X36426Y-22066D01*
X36426Y-22066D01*
X36426Y-22066D01*
X36425Y-22066D01*
X36171Y-22066D01*
X36167Y-22046D01*
X36147Y-21997D01*
X36117Y-21952D01*
X36080Y-21914D01*
X36035Y-21884D01*
X35986Y-21864D01*
X35934Y-21853D01*
X35880Y-21853D01*
X35828Y-21863D01*
X35778Y-21883D01*
X35733Y-21912D01*
X35695Y-21949D01*
X35665Y-21994D01*
X35655Y-22016D01*
X35613Y-21953D01*
X35549Y-21888D01*
X35484Y-21844D01*
X35497Y-21839D01*
X35542Y-21810D01*
X35581Y-21773D01*
X35612Y-21729D01*
X35633Y-21680D01*
X35645Y-21628D01*
X35646Y-21567D01*
X35636Y-21515D01*
X35615Y-21465D01*
X35586Y-21421D01*
X35548Y-21383D01*
X35504Y-21353D01*
X35455Y-21332D01*
X35402Y-21322D01*
X35352Y-21321D01*
X35075Y-21044D01*
X35075Y-20996D01*
X35065Y-20944D01*
X35045Y-20895D01*
X35015Y-20850D01*
X34977Y-20812D01*
X34933Y-20782D01*
X34884Y-20761D01*
X34831Y-20751D01*
X34778Y-20750D01*
X34725Y-20760D01*
X34676Y-20780D01*
X34631Y-20810D01*
X34593Y-20847D01*
X34563Y-20891D01*
X34542Y-20940D01*
X34530Y-20993D01*
X34530Y-21046D01*
X34539Y-21099D01*
X34559Y-21148D01*
X34588Y-21193D01*
X34625Y-21232D01*
X34669Y-21262D01*
X34718Y-21284D01*
X34770Y-21295D01*
X34824Y-21296D01*
X34824Y-21296D01*
X35101Y-21573D01*
X35101Y-21617D01*
X35110Y-21670D01*
X35130Y-21719D01*
X35159Y-21764D01*
X35181Y-21787D01*
X35117Y-21799D01*
X35032Y-21833D01*
X34955Y-21884D01*
X34917Y-21921D01*
X34912Y-21911D01*
X34912Y-21910D01*
X34911Y-21909D01*
X34901Y-21896D01*
X34891Y-21884D01*
X34889Y-21882D01*
X34889Y-21882D01*
X34889Y-21882D01*
X34889Y-21882D01*
X34613Y-21606D01*
X34601Y-21596D01*
X34588Y-21585D01*
X34587Y-21585D01*
X34587Y-21584D01*
X34572Y-21576D01*
X34558Y-21569D01*
X34557Y-21568D01*
X34556Y-21568D01*
X34540Y-21563D01*
X34525Y-21558D01*
X34524Y-21558D01*
X34523Y-21558D01*
X34506Y-21556D01*
X34490Y-21554D01*
X34488Y-21554D01*
X34488Y-21554D01*
X34488Y-21554D01*
X34488Y-21554D01*
X34193Y-21554D01*
X34196Y-21539D01*
X34196Y-21510D01*
X34196Y-20959D01*
X34191Y-20930D01*
X34180Y-20904D01*
X34163Y-20879D01*
X34143Y-20859D01*
X34119Y-20843D01*
X34092Y-20832D01*
X34063Y-20826D01*
X34034Y-20826D01*
X33326Y-20826D01*
X33297Y-20832D01*
X33270Y-20843D01*
X33246Y-20859D01*
X33225Y-20879D01*
X33209Y-20904D01*
X33198Y-20930D01*
X33192Y-20959D01*
X33192Y-20988D01*
X33192Y-21539D01*
X33198Y-21568D01*
X33209Y-21595D01*
X33225Y-21619D01*
X33246Y-21639D01*
X33270Y-21656D01*
X33297Y-21667D01*
X33326Y-21672D01*
X33355Y-21672D01*
X33509Y-21672D01*
X33381Y-21799D01*
X33299Y-21782D01*
X33207Y-21782D01*
X33117Y-21799D01*
X33032Y-21833D01*
X32955Y-21884D01*
X32890Y-21948D01*
X32838Y-22023D01*
X32802Y-22108D01*
X32783Y-22197D01*
X32782Y-22289D01*
X32798Y-22379D01*
X32832Y-22464D01*
X32881Y-22541D01*
X32945Y-22607D01*
X33020Y-22659D01*
X33104Y-22696D01*
X33194Y-22716D01*
X33286Y-22718D01*
X33376Y-22702D01*
X33461Y-22669D01*
X33539Y-22620D01*
X33605Y-22556D01*
X33658Y-22481D01*
X33695Y-22398D01*
X33715Y-22308D01*
X33717Y-22204D01*
X33699Y-22114D01*
X33664Y-22029D01*
X33660Y-22023D01*
X33774Y-21909D01*
X33929Y-21909D01*
X33890Y-21948D01*
X33838Y-22023D01*
X33802Y-22108D01*
X33783Y-22197D01*
X33782Y-22289D01*
X33798Y-22379D01*
X33832Y-22464D01*
X33881Y-22541D01*
X33945Y-22607D01*
X34020Y-22659D01*
X34104Y-22696D01*
X34194Y-22716D01*
X34286Y-22718D01*
X34376Y-22702D01*
X34428Y-22681D01*
X34428Y-23512D01*
X34396Y-23544D01*
X34366Y-23588D01*
X34345Y-23637D01*
X34334Y-23689D01*
X34333Y-23743D01*
X34342Y-23795D01*
X34362Y-23845D01*
X34391Y-23890D01*
X34428Y-23929D01*
X34459Y-23950D01*
X34192Y-24217D01*
X34192Y-23541D01*
X34192Y-23508D01*
X34192Y-22958D01*
X34185Y-22926D01*
X34173Y-22895D01*
X34154Y-22868D01*
X34131Y-22845D01*
X34104Y-22826D01*
X34073Y-22814D01*
X34041Y-22807D01*
X34008Y-22807D01*
X33458Y-22807D01*
X33426Y-22814D01*
X33395Y-22826D01*
X33368Y-22845D01*
X33345Y-22868D01*
X33326Y-22895D01*
X33314Y-22926D01*
X33307Y-22958D01*
X33307Y-22991D01*
X33307Y-23541D01*
X33314Y-23573D01*
X33326Y-23604D01*
X33345Y-23631D01*
X33368Y-23654D01*
X33395Y-23673D01*
X33426Y-23685D01*
X33458Y-23692D01*
X33491Y-23692D01*
X34041Y-23692D01*
X34073Y-23685D01*
X34104Y-23673D01*
X34131Y-23654D01*
X34154Y-23631D01*
X34173Y-23604D01*
X34185Y-23573D01*
X34192Y-23541D01*
X34192Y-24217D01*
X33520Y-24890D01*
X33486Y-24876D01*
X33457Y-24870D01*
X33473Y-24859D01*
X33494Y-24839D01*
X33510Y-24814D01*
X33521Y-24788D01*
X33527Y-24759D01*
X33527Y-24730D01*
X33527Y-24496D01*
X33527Y-24403D01*
X33527Y-24169D01*
X33527Y-24140D01*
X33521Y-24111D01*
X33510Y-24085D01*
X33494Y-24060D01*
X33473Y-24040D01*
X33449Y-24024D01*
X33422Y-24013D01*
X33394Y-24007D01*
X33192Y-24007D01*
X33192Y-23206D01*
X33175Y-23121D01*
X33142Y-23041D01*
X33094Y-22969D01*
X33033Y-22907D01*
X32961Y-22859D01*
X32881Y-22825D01*
X32796Y-22807D01*
X32709Y-22807D01*
X32699Y-22809D01*
X32699Y-22257D01*
X32692Y-22169D01*
X32668Y-22085D01*
X32628Y-22006D01*
X32619Y-21993D01*
X32548Y-21965D01*
X32534Y-21979D01*
X32534Y-21951D01*
X32506Y-21880D01*
X32429Y-21837D01*
X32345Y-21810D01*
X32307Y-21805D01*
X32307Y-21539D01*
X32307Y-21510D01*
X32307Y-20959D01*
X32307Y-20240D01*
X32307Y-19997D01*
X32270Y-19960D01*
X31814Y-19960D01*
X31814Y-20336D01*
X31851Y-20373D01*
X32144Y-20373D01*
X32173Y-20373D01*
X32202Y-20367D01*
X32229Y-20356D01*
X32253Y-20340D01*
X32274Y-20320D01*
X32290Y-20295D01*
X32301Y-20269D01*
X32307Y-20240D01*
X32307Y-20959D01*
X32301Y-20930D01*
X32290Y-20904D01*
X32274Y-20879D01*
X32253Y-20859D01*
X32229Y-20843D01*
X32202Y-20832D01*
X32173Y-20826D01*
X32144Y-20826D01*
X31795Y-20826D01*
X31795Y-20336D01*
X31795Y-19960D01*
X31340Y-19960D01*
X31303Y-19997D01*
X31303Y-20240D01*
X31308Y-20269D01*
X31319Y-20295D01*
X31336Y-20320D01*
X31356Y-20340D01*
X31380Y-20356D01*
X31407Y-20367D01*
X31436Y-20373D01*
X31465Y-20373D01*
X31758Y-20373D01*
X31795Y-20336D01*
X31795Y-20826D01*
X31436Y-20826D01*
X31407Y-20832D01*
X31380Y-20843D01*
X31356Y-20859D01*
X31336Y-20879D01*
X31319Y-20904D01*
X31308Y-20930D01*
X31303Y-20959D01*
X31303Y-20988D01*
X31303Y-21071D01*
X31151Y-21071D01*
X31135Y-21073D01*
X31119Y-21075D01*
X31118Y-21075D01*
X31117Y-21075D01*
X31101Y-21080D01*
X31085Y-21084D01*
X31085Y-21085D01*
X31084Y-21085D01*
X31069Y-21093D01*
X31055Y-21100D01*
X31054Y-21101D01*
X31053Y-21101D01*
X31040Y-21112D01*
X31028Y-21122D01*
X31026Y-21123D01*
X31026Y-21123D01*
X31026Y-21123D01*
X31026Y-21123D01*
X31005Y-21144D01*
X30959Y-21144D01*
X30906Y-21154D01*
X30857Y-21174D01*
X30812Y-21203D01*
X30774Y-21241D01*
X30744Y-21285D01*
X30723Y-21334D01*
X30712Y-21386D01*
X30711Y-21440D01*
X30720Y-21492D01*
X30740Y-21542D01*
X30769Y-21587D01*
X30806Y-21625D01*
X30850Y-21656D01*
X30899Y-21677D01*
X30951Y-21689D01*
X31005Y-21690D01*
X31057Y-21681D01*
X31107Y-21661D01*
X31152Y-21633D01*
X31191Y-21596D01*
X31222Y-21552D01*
X31244Y-21503D01*
X31256Y-21451D01*
X31256Y-21427D01*
X31303Y-21427D01*
X31303Y-21539D01*
X31308Y-21568D01*
X31319Y-21595D01*
X31336Y-21619D01*
X31356Y-21639D01*
X31380Y-21656D01*
X31407Y-21667D01*
X31436Y-21672D01*
X31465Y-21672D01*
X32173Y-21672D01*
X32202Y-21667D01*
X32229Y-21656D01*
X32253Y-21639D01*
X32274Y-21619D01*
X32290Y-21595D01*
X32301Y-21568D01*
X32307Y-21539D01*
X32307Y-21805D01*
X32257Y-21800D01*
X32169Y-21807D01*
X32085Y-21831D01*
X32006Y-21871D01*
X31993Y-21880D01*
X31965Y-21951D01*
X32250Y-22236D01*
X32534Y-21951D01*
X32534Y-21979D01*
X32263Y-22250D01*
X32548Y-22534D01*
X32619Y-22506D01*
X32662Y-22429D01*
X32689Y-22345D01*
X32699Y-22257D01*
X32699Y-22809D01*
X32642Y-22820D01*
X32464Y-22642D01*
X32493Y-22628D01*
X32506Y-22619D01*
X32534Y-22548D01*
X32250Y-22263D01*
X32244Y-22269D01*
X32230Y-22255D01*
X32236Y-22250D01*
X31951Y-21965D01*
X31880Y-21993D01*
X31837Y-22070D01*
X31810Y-22154D01*
X31800Y-22242D01*
X31807Y-22330D01*
X31831Y-22414D01*
X31871Y-22493D01*
X31880Y-22506D01*
X31934Y-22528D01*
X31625Y-22528D01*
X31658Y-22481D01*
X31695Y-22398D01*
X31715Y-22308D01*
X31717Y-22204D01*
X31699Y-22114D01*
X31664Y-22029D01*
X31613Y-21953D01*
X31549Y-21888D01*
X31473Y-21836D01*
X31388Y-21801D01*
X31299Y-21782D01*
X31207Y-21782D01*
X31117Y-21799D01*
X31032Y-21833D01*
X30955Y-21884D01*
X30890Y-21948D01*
X30838Y-22023D01*
X30802Y-22108D01*
X30783Y-22197D01*
X30782Y-22289D01*
X30798Y-22379D01*
X30832Y-22464D01*
X30881Y-22541D01*
X30945Y-22607D01*
X31020Y-22659D01*
X31029Y-22663D01*
X30858Y-22835D01*
X30522Y-22835D01*
X30522Y-22763D01*
X30521Y-22755D01*
X30521Y-22717D01*
X30566Y-22717D01*
X30598Y-22710D01*
X30629Y-22698D01*
X30656Y-22679D01*
X30679Y-22656D01*
X30698Y-22629D01*
X30710Y-22598D01*
X30717Y-22566D01*
X30717Y-22533D01*
X30717Y-21933D01*
X30710Y-21901D01*
X30698Y-21870D01*
X30679Y-21843D01*
X30656Y-21820D01*
X30629Y-21801D01*
X30607Y-21792D01*
X30607Y-20996D01*
X30596Y-20944D01*
X30576Y-20895D01*
X30546Y-20850D01*
X30509Y-20812D01*
X30464Y-20782D01*
X30415Y-20761D01*
X30363Y-20751D01*
X30309Y-20750D01*
X30257Y-20760D01*
X30207Y-20780D01*
X30162Y-20810D01*
X30126Y-20845D01*
X29577Y-20845D01*
X29544Y-20812D01*
X29500Y-20782D01*
X29451Y-20761D01*
X29398Y-20751D01*
X29345Y-20750D01*
X29292Y-20760D01*
X29243Y-20780D01*
X29198Y-20810D01*
X29160Y-20847D01*
X29130Y-20891D01*
X29108Y-20940D01*
X29097Y-20993D01*
X29097Y-21046D01*
X29106Y-21099D01*
X29126Y-21148D01*
X29155Y-21193D01*
X29192Y-21232D01*
X29236Y-21262D01*
X29285Y-21284D01*
X29337Y-21295D01*
X29391Y-21296D01*
X29443Y-21287D01*
X29493Y-21268D01*
X29538Y-21239D01*
X29577Y-21202D01*
X29578Y-21201D01*
X30127Y-21201D01*
X30157Y-21232D01*
X30200Y-21262D01*
X30249Y-21284D01*
X30302Y-21295D01*
X30355Y-21296D01*
X30408Y-21287D01*
X30458Y-21268D01*
X30503Y-21239D01*
X30542Y-21202D01*
X30572Y-21158D01*
X30594Y-21110D01*
X30606Y-21057D01*
X30607Y-20996D01*
X30607Y-21792D01*
X30598Y-21789D01*
X30566Y-21782D01*
X30533Y-21782D01*
X29933Y-21782D01*
X29901Y-21789D01*
X29870Y-21801D01*
X29843Y-21820D01*
X29820Y-21843D01*
X29801Y-21870D01*
X29789Y-21901D01*
X29782Y-21933D01*
X29782Y-21966D01*
X29782Y-22566D01*
X29789Y-22598D01*
X29801Y-22629D01*
X29820Y-22656D01*
X29843Y-22679D01*
X29870Y-22698D01*
X29901Y-22710D01*
X29933Y-22717D01*
X29966Y-22717D01*
X30029Y-22717D01*
X30029Y-22753D01*
X30028Y-22760D01*
X30028Y-22763D01*
X30028Y-23063D01*
X30029Y-23071D01*
X30029Y-23176D01*
X30035Y-23204D01*
X30046Y-23231D01*
X30047Y-23234D01*
X30047Y-23550D01*
X30027Y-23571D01*
X29991Y-23623D01*
X29966Y-23681D01*
X29953Y-23743D01*
X29952Y-23806D01*
X29963Y-23868D01*
X29987Y-23927D01*
X30021Y-23980D01*
X30065Y-24026D01*
X30117Y-24062D01*
X30175Y-24087D01*
X30237Y-24101D01*
X30300Y-24102D01*
X30362Y-24091D01*
X30421Y-24068D01*
X30475Y-24034D01*
X30521Y-23991D01*
X30557Y-23939D01*
X30583Y-23881D01*
X30597Y-23820D01*
X30598Y-23747D01*
X30585Y-23685D01*
X30561Y-23627D01*
X30526Y-23574D01*
X30503Y-23550D01*
X30503Y-23291D01*
X30952Y-23291D01*
X30973Y-23288D01*
X30994Y-23287D01*
X30995Y-23286D01*
X30996Y-23286D01*
X31016Y-23280D01*
X31036Y-23274D01*
X31037Y-23274D01*
X31039Y-23273D01*
X31057Y-23263D01*
X31076Y-23254D01*
X31077Y-23253D01*
X31078Y-23252D01*
X31094Y-23239D01*
X31111Y-23226D01*
X31112Y-23224D01*
X31112Y-23224D01*
X31112Y-23224D01*
X31113Y-23224D01*
X31354Y-22983D01*
X31467Y-22983D01*
X31400Y-23008D01*
X31360Y-23081D01*
X31334Y-23160D01*
X31325Y-23243D01*
X31332Y-23326D01*
X31355Y-23406D01*
X31393Y-23480D01*
X31400Y-23491D01*
X31468Y-23517D01*
X31736Y-23250D01*
X31730Y-23244D01*
X31744Y-23230D01*
X31750Y-23236D01*
X31755Y-23230D01*
X31769Y-23244D01*
X31763Y-23250D01*
X32031Y-23517D01*
X32099Y-23491D01*
X32139Y-23418D01*
X32165Y-23339D01*
X32174Y-23256D01*
X32167Y-23173D01*
X32144Y-23093D01*
X32106Y-23019D01*
X32099Y-23008D01*
X32032Y-22983D01*
X32161Y-22983D01*
X32320Y-23142D01*
X32308Y-23200D01*
X32307Y-23287D01*
X32322Y-23372D01*
X32354Y-23453D01*
X32401Y-23526D01*
X32461Y-23588D01*
X32533Y-23637D01*
X32612Y-23672D01*
X32697Y-23691D01*
X32784Y-23693D01*
X32869Y-23678D01*
X32950Y-23646D01*
X33023Y-23600D01*
X33086Y-23540D01*
X33136Y-23469D01*
X33171Y-23390D01*
X33190Y-23305D01*
X33192Y-23206D01*
X33192Y-24007D01*
X33170Y-24007D01*
X33133Y-24044D01*
X33133Y-24440D01*
X33490Y-24440D01*
X33527Y-24403D01*
X33527Y-24496D01*
X33490Y-24459D01*
X33133Y-24459D01*
X33133Y-24855D01*
X33170Y-24892D01*
X33284Y-24892D01*
X33278Y-24895D01*
X33233Y-24924D01*
X33195Y-24961D01*
X33179Y-24985D01*
X33151Y-24974D01*
X33099Y-24963D01*
X33046Y-24963D01*
X32993Y-24973D01*
X32943Y-24993D01*
X32913Y-25013D01*
X32886Y-24995D01*
X32836Y-24974D01*
X32784Y-24963D01*
X32731Y-24963D01*
X32700Y-24969D01*
X32684Y-24953D01*
X32671Y-24942D01*
X32659Y-24932D01*
X32658Y-24931D01*
X32657Y-24931D01*
X32643Y-24923D01*
X32629Y-24915D01*
X32628Y-24915D01*
X32627Y-24914D01*
X32611Y-24909D01*
X32595Y-24904D01*
X32595Y-24904D01*
X32594Y-24904D01*
X32577Y-24902D01*
X32561Y-24901D01*
X32559Y-24901D01*
X32559Y-24901D01*
X32559Y-24901D01*
X32559Y-24901D01*
X32553Y-24901D01*
X32553Y-24892D01*
X32646Y-24892D01*
X32674Y-24886D01*
X32701Y-24875D01*
X32725Y-24859D01*
X32746Y-24839D01*
X32750Y-24833D01*
X32753Y-24839D01*
X32774Y-24859D01*
X32798Y-24875D01*
X32825Y-24886D01*
X32853Y-24892D01*
X33077Y-24892D01*
X33114Y-24855D01*
X33114Y-24459D01*
X33106Y-24459D01*
X33106Y-24440D01*
X33114Y-24440D01*
X33114Y-24044D01*
X33077Y-24007D01*
X32853Y-24007D01*
X32825Y-24013D01*
X32798Y-24024D01*
X32774Y-24040D01*
X32753Y-24060D01*
X32750Y-24066D01*
X32746Y-24060D01*
X32725Y-24040D01*
X32701Y-24024D01*
X32674Y-24013D01*
X32646Y-24007D01*
X32616Y-24007D01*
X32105Y-24007D01*
X32077Y-24013D01*
X32050Y-24024D01*
X32026Y-24040D01*
X32017Y-24049D01*
X32017Y-23531D01*
X31750Y-23263D01*
X31482Y-23531D01*
X31508Y-23599D01*
X31581Y-23639D01*
X31660Y-23665D01*
X31743Y-23674D01*
X31826Y-23667D01*
X31906Y-23644D01*
X31980Y-23606D01*
X31991Y-23599D01*
X32017Y-23531D01*
X32017Y-24049D01*
X32005Y-24060D01*
X31989Y-24085D01*
X31978Y-24111D01*
X31972Y-24140D01*
X31972Y-24169D01*
X31972Y-24229D01*
X31941Y-24207D01*
X31892Y-24187D01*
X31839Y-24176D01*
X31786Y-24175D01*
X31733Y-24186D01*
X31697Y-24200D01*
X31703Y-24194D01*
X31734Y-24151D01*
X31756Y-24102D01*
X31767Y-24050D01*
X31768Y-23989D01*
X31758Y-23936D01*
X31737Y-23887D01*
X31708Y-23842D01*
X31670Y-23804D01*
X31626Y-23774D01*
X31577Y-23754D01*
X31524Y-23743D01*
X31471Y-23742D01*
X31418Y-23752D01*
X31369Y-23772D01*
X31324Y-23802D01*
X31286Y-23839D01*
X31255Y-23883D01*
X31234Y-23932D01*
X31223Y-23985D01*
X31223Y-24038D01*
X31232Y-24091D01*
X31252Y-24140D01*
X31281Y-24185D01*
X31318Y-24224D01*
X31318Y-24606D01*
X31320Y-24622D01*
X31321Y-24638D01*
X31321Y-24639D01*
X31321Y-24640D01*
X31326Y-24656D01*
X31331Y-24672D01*
X31331Y-24673D01*
X31331Y-24673D01*
X31339Y-24688D01*
X31347Y-24703D01*
X31347Y-24703D01*
X31348Y-24704D01*
X31358Y-24717D01*
X31368Y-24730D01*
X31369Y-24731D01*
X31370Y-24731D01*
X31370Y-24731D01*
X31370Y-24731D01*
X31460Y-24821D01*
X31460Y-25438D01*
X31455Y-25441D01*
X31434Y-25462D01*
X31418Y-25486D01*
X31407Y-25513D01*
X31401Y-25541D01*
X31401Y-25571D01*
X31401Y-26358D01*
X31407Y-26386D01*
X31418Y-26413D01*
X31434Y-26437D01*
X31455Y-26458D01*
X31479Y-26474D01*
X31506Y-26485D01*
X31534Y-26491D01*
X31564Y-26491D01*
X31741Y-26491D01*
X31769Y-26485D01*
X31794Y-26474D01*
X31820Y-26485D01*
X31848Y-26491D01*
X31878Y-26491D01*
X31989Y-26491D01*
X31965Y-26551D01*
X32250Y-26836D01*
X32534Y-26551D01*
X32510Y-26491D01*
X32657Y-26491D01*
X32657Y-26663D01*
X32628Y-26606D01*
X32619Y-26593D01*
X32548Y-26565D01*
X32263Y-26850D01*
X32548Y-27134D01*
X32619Y-27106D01*
X32657Y-27038D01*
X32657Y-27190D01*
X32518Y-27190D01*
X32534Y-27148D01*
X32250Y-26863D01*
X32236Y-26877D01*
X32236Y-26850D01*
X31951Y-26565D01*
X31880Y-26593D01*
X31837Y-26670D01*
X31810Y-26754D01*
X31800Y-26842D01*
X31807Y-26930D01*
X31831Y-27014D01*
X31871Y-27093D01*
X31880Y-27106D01*
X31951Y-27134D01*
X32236Y-26850D01*
X32236Y-26877D01*
X31965Y-27148D01*
X31981Y-27190D01*
X31923Y-27190D01*
X31906Y-27191D01*
X31890Y-27193D01*
X31889Y-27193D01*
X31888Y-27193D01*
X31873Y-27198D01*
X31857Y-27203D01*
X31856Y-27203D01*
X31855Y-27203D01*
X31853Y-27204D01*
X31653Y-27204D01*
X31653Y-27386D01*
X31622Y-27417D01*
X31621Y-27414D01*
X31621Y-27413D01*
X31620Y-27412D01*
X31613Y-27398D01*
X31605Y-27383D01*
X31605Y-27382D01*
X31604Y-27382D01*
X31594Y-27369D01*
X31584Y-27356D01*
X31582Y-27355D01*
X31582Y-27355D01*
X31582Y-27355D01*
X31582Y-27354D01*
X31469Y-27242D01*
X31457Y-27231D01*
X31444Y-27221D01*
X31443Y-27220D01*
X31443Y-27220D01*
X31428Y-27212D01*
X31414Y-27204D01*
X31413Y-27204D01*
X31412Y-27204D01*
X31396Y-27199D01*
X31384Y-27195D01*
X31389Y-27184D01*
X31395Y-27156D01*
X31395Y-27126D01*
X31395Y-26949D01*
X31389Y-26921D01*
X31378Y-26895D01*
X31389Y-26869D01*
X31395Y-26841D01*
X31395Y-26811D01*
X31395Y-26634D01*
X31389Y-26606D01*
X31378Y-26579D01*
X31362Y-26555D01*
X31341Y-26534D01*
X31317Y-26518D01*
X31290Y-26507D01*
X31262Y-26501D01*
X31232Y-26501D01*
X31024Y-26501D01*
X31024Y-25054D01*
X30987Y-24867D01*
X30914Y-24690D01*
X30808Y-24531D01*
X30674Y-24395D01*
X30515Y-24288D01*
X30339Y-24214D01*
X30152Y-24176D01*
X29961Y-24174D01*
X29803Y-24205D01*
X29803Y-23369D01*
X29803Y-23209D01*
X29779Y-23124D01*
X29738Y-23045D01*
X29684Y-22976D01*
X29617Y-22919D01*
X29539Y-22876D01*
X29456Y-22849D01*
X29440Y-22846D01*
X29370Y-22876D01*
X29370Y-23279D01*
X29773Y-23279D01*
X29803Y-23209D01*
X29803Y-23369D01*
X29773Y-23299D01*
X29370Y-23299D01*
X29370Y-23702D01*
X29440Y-23731D01*
X29525Y-23707D01*
X29604Y-23667D01*
X29673Y-23612D01*
X29730Y-23545D01*
X29773Y-23468D01*
X29800Y-23384D01*
X29803Y-23369D01*
X29803Y-24205D01*
X29773Y-24210D01*
X29596Y-24282D01*
X29436Y-24386D01*
X29350Y-24470D01*
X29350Y-23702D01*
X29350Y-23299D01*
X29350Y-23279D01*
X29350Y-22876D01*
X29320Y-22863D01*
X29320Y-22500D01*
X29320Y-22470D01*
X29314Y-22442D01*
X29303Y-22415D01*
X29287Y-22391D01*
X29267Y-22370D01*
X28877Y-21981D01*
X28853Y-21964D01*
X28826Y-21953D01*
X28797Y-21948D01*
X28768Y-21948D01*
X28740Y-21953D01*
X28713Y-21964D01*
X28689Y-21981D01*
X28668Y-22001D01*
X28167Y-22502D01*
X28151Y-22526D01*
X28140Y-22553D01*
X28134Y-22582D01*
X28134Y-22611D01*
X28140Y-22639D01*
X28151Y-22666D01*
X28167Y-22690D01*
X28187Y-22711D01*
X28577Y-23101D01*
X28601Y-23117D01*
X28628Y-23128D01*
X28657Y-23134D01*
X28686Y-23134D01*
X28714Y-23128D01*
X28741Y-23117D01*
X28765Y-23101D01*
X28786Y-23080D01*
X29287Y-22579D01*
X29303Y-22555D01*
X29314Y-22528D01*
X29320Y-22500D01*
X29320Y-22863D01*
X29280Y-22846D01*
X29195Y-22870D01*
X29117Y-22911D01*
X29048Y-22965D01*
X28991Y-23032D01*
X28948Y-23110D01*
X28921Y-23193D01*
X28918Y-23209D01*
X28947Y-23279D01*
X29350Y-23279D01*
X29350Y-23299D01*
X28947Y-23299D01*
X28918Y-23369D01*
X28942Y-23454D01*
X28982Y-23532D01*
X29037Y-23601D01*
X29104Y-23658D01*
X29181Y-23701D01*
X29265Y-23728D01*
X29280Y-23731D01*
X29350Y-23702D01*
X29350Y-24470D01*
X29299Y-24520D01*
X29191Y-24678D01*
X29120Y-24844D01*
X29120Y-23950D01*
X29103Y-23860D01*
X29068Y-23775D01*
X29017Y-23699D01*
X28952Y-23634D01*
X28876Y-23583D01*
X28792Y-23547D01*
X28702Y-23529D01*
X28610Y-23528D01*
X28520Y-23545D01*
X28435Y-23580D01*
X28359Y-23630D01*
X28293Y-23694D01*
X28242Y-23770D01*
X28205Y-23854D01*
X28186Y-23944D01*
X28185Y-24035D01*
X28202Y-24125D01*
X28235Y-24211D01*
X28285Y-24288D01*
X28349Y-24354D01*
X28424Y-24406D01*
X28508Y-24443D01*
X28597Y-24462D01*
X28689Y-24464D01*
X28779Y-24448D01*
X28865Y-24415D01*
X28942Y-24366D01*
X29009Y-24303D01*
X29061Y-24228D01*
X29099Y-24144D01*
X29119Y-24055D01*
X29120Y-23950D01*
X29120Y-24844D01*
X29116Y-24853D01*
X29076Y-25040D01*
X29074Y-25231D01*
X29108Y-25419D01*
X29179Y-25597D01*
X29282Y-25758D01*
X29415Y-25895D01*
X29572Y-26004D01*
X29747Y-26081D01*
X29934Y-26122D01*
X30125Y-26126D01*
X30313Y-26093D01*
X30491Y-26023D01*
X30652Y-25921D01*
X30791Y-25789D01*
X30901Y-25633D01*
X30979Y-25459D01*
X31021Y-25272D01*
X31024Y-25054D01*
X31024Y-26501D01*
X30445Y-26501D01*
X30417Y-26507D01*
X30390Y-26518D01*
X30366Y-26534D01*
X30345Y-26555D01*
X30329Y-26579D01*
X30318Y-26606D01*
X30312Y-26634D01*
X30312Y-26664D01*
X30312Y-26841D01*
X30318Y-26869D01*
X30329Y-26895D01*
X30318Y-26921D01*
X30312Y-26949D01*
X30312Y-26979D01*
X30312Y-27061D01*
X30285Y-27033D01*
X30232Y-26998D01*
X30174Y-26973D01*
X30112Y-26961D01*
X30049Y-26960D01*
X29987Y-26972D01*
X29928Y-26996D01*
X29875Y-27030D01*
X29830Y-27075D01*
X29794Y-27127D01*
X29769Y-27185D01*
X29759Y-27233D01*
X29379Y-27233D01*
X29379Y-27190D01*
X29373Y-27162D01*
X29362Y-27135D01*
X29346Y-27111D01*
X29326Y-27090D01*
X29301Y-27074D01*
X29275Y-27063D01*
X29246Y-27057D01*
X29217Y-27057D01*
X28627Y-27057D01*
X28598Y-27063D01*
X28572Y-27074D01*
X28547Y-27090D01*
X28527Y-27111D01*
X28511Y-27135D01*
X28500Y-27162D01*
X28494Y-27190D01*
X28494Y-27219D01*
X28494Y-27233D01*
X28413Y-27233D01*
X28413Y-24657D01*
X28395Y-24567D01*
X28361Y-24483D01*
X28310Y-24406D01*
X28245Y-24341D01*
X28169Y-24290D01*
X28085Y-24254D01*
X27995Y-24236D01*
X27984Y-24236D01*
X27984Y-23836D01*
X27984Y-23807D01*
X27978Y-23778D01*
X27967Y-23751D01*
X27951Y-23727D01*
X27930Y-23707D01*
X27541Y-23317D01*
X27516Y-23301D01*
X27489Y-23290D01*
X27461Y-23284D01*
X27432Y-23284D01*
X27403Y-23290D01*
X27376Y-23301D01*
X27352Y-23317D01*
X27332Y-23337D01*
X27065Y-23604D01*
X27065Y-22917D01*
X27065Y-22888D01*
X27059Y-22860D01*
X27048Y-22833D01*
X27032Y-22809D01*
X26860Y-22636D01*
X26808Y-22636D01*
X26486Y-22958D01*
X26752Y-23225D01*
X26804Y-23225D01*
X27012Y-23017D01*
X27032Y-22997D01*
X27048Y-22973D01*
X27059Y-22946D01*
X27065Y-22917D01*
X27065Y-23604D01*
X26831Y-23839D01*
X26814Y-23863D01*
X26803Y-23890D01*
X26798Y-23918D01*
X26798Y-23947D01*
X26803Y-23976D01*
X26814Y-24003D01*
X26831Y-24027D01*
X26851Y-24047D01*
X26921Y-24117D01*
X26917Y-24129D01*
X26912Y-24145D01*
X26912Y-24146D01*
X26912Y-24146D01*
X26910Y-24163D01*
X26908Y-24179D01*
X26908Y-24181D01*
X26908Y-24181D01*
X26908Y-24181D01*
X26908Y-24182D01*
X26908Y-24340D01*
X26891Y-24343D01*
X26841Y-24363D01*
X26796Y-24392D01*
X26758Y-24430D01*
X26738Y-24459D01*
X26738Y-23291D01*
X26738Y-23238D01*
X26472Y-22972D01*
X26150Y-23294D01*
X26150Y-23346D01*
X26322Y-23518D01*
X26346Y-23535D01*
X26373Y-23546D01*
X26402Y-23551D01*
X26431Y-23551D01*
X26459Y-23546D01*
X26486Y-23535D01*
X26510Y-23518D01*
X26531Y-23498D01*
X26738Y-23291D01*
X26738Y-24459D01*
X26728Y-24474D01*
X26707Y-24523D01*
X26696Y-24575D01*
X26695Y-24629D01*
X26705Y-24681D01*
X26724Y-24731D01*
X26753Y-24776D01*
X26790Y-24814D01*
X26834Y-24845D01*
X26883Y-24866D01*
X26936Y-24878D01*
X26989Y-24879D01*
X27042Y-24870D01*
X27092Y-24850D01*
X27137Y-24822D01*
X27175Y-24785D01*
X27206Y-24741D01*
X27228Y-24692D01*
X27240Y-24640D01*
X27241Y-24579D01*
X27240Y-24575D01*
X27241Y-24572D01*
X27249Y-24558D01*
X27250Y-24557D01*
X27250Y-24556D01*
X27255Y-24540D01*
X27260Y-24525D01*
X27260Y-24524D01*
X27260Y-24523D01*
X27262Y-24506D01*
X27264Y-24490D01*
X27264Y-24488D01*
X27264Y-24488D01*
X27264Y-24488D01*
X27264Y-24488D01*
X27264Y-24452D01*
X27265Y-24453D01*
X27292Y-24464D01*
X27320Y-24470D01*
X27350Y-24470D01*
X27378Y-24464D01*
X27405Y-24453D01*
X27429Y-24437D01*
X27450Y-24417D01*
X27951Y-23915D01*
X27967Y-23891D01*
X27978Y-23864D01*
X27984Y-23836D01*
X27984Y-24236D01*
X27903Y-24235D01*
X27813Y-24253D01*
X27728Y-24287D01*
X27652Y-24337D01*
X27586Y-24401D01*
X27534Y-24477D01*
X27498Y-24561D01*
X27479Y-24651D01*
X27478Y-24742D01*
X27495Y-24832D01*
X27528Y-24918D01*
X27578Y-24995D01*
X27642Y-25061D01*
X27717Y-25113D01*
X27801Y-25150D01*
X27890Y-25169D01*
X27982Y-25171D01*
X28072Y-25155D01*
X28158Y-25122D01*
X28235Y-25073D01*
X28301Y-25010D01*
X28354Y-24935D01*
X28392Y-24851D01*
X28412Y-24762D01*
X28413Y-24657D01*
X28413Y-27233D01*
X28356Y-27233D01*
X28356Y-27190D01*
X28350Y-27162D01*
X28339Y-27135D01*
X28323Y-27111D01*
X28302Y-27090D01*
X28278Y-27074D01*
X28251Y-27063D01*
X28222Y-27057D01*
X28193Y-27057D01*
X27830Y-27057D01*
X27830Y-25427D01*
X27830Y-25394D01*
X27824Y-25361D01*
X27811Y-25331D01*
X27793Y-25303D01*
X27770Y-25280D01*
X27346Y-24856D01*
X27318Y-24838D01*
X27288Y-24825D01*
X27255Y-24819D01*
X27222Y-24819D01*
X27190Y-24825D01*
X27160Y-24838D01*
X27132Y-24856D01*
X27109Y-24879D01*
X26685Y-25303D01*
X26666Y-25331D01*
X26654Y-25361D01*
X26647Y-25394D01*
X26647Y-25427D01*
X26654Y-25459D01*
X26666Y-25489D01*
X26685Y-25517D01*
X26708Y-25540D01*
X27132Y-25964D01*
X27160Y-25983D01*
X27190Y-25995D01*
X27222Y-26002D01*
X27255Y-26002D01*
X27288Y-25995D01*
X27318Y-25983D01*
X27346Y-25964D01*
X27369Y-25941D01*
X27793Y-25517D01*
X27811Y-25489D01*
X27824Y-25459D01*
X27830Y-25427D01*
X27830Y-27057D01*
X27603Y-27057D01*
X27575Y-27063D01*
X27548Y-27074D01*
X27524Y-27090D01*
X27503Y-27111D01*
X27487Y-27135D01*
X27476Y-27162D01*
X27470Y-27190D01*
X27470Y-27219D01*
X27470Y-27730D01*
X27476Y-27759D01*
X27487Y-27786D01*
X27503Y-27810D01*
X27524Y-27830D01*
X27529Y-27834D01*
X27524Y-27838D01*
X27503Y-27859D01*
X27487Y-27883D01*
X27476Y-27910D01*
X27470Y-27938D01*
X27470Y-28161D01*
X27507Y-28198D01*
X27903Y-28198D01*
X27903Y-28190D01*
X27923Y-28190D01*
X27923Y-28198D01*
X28319Y-28198D01*
X28356Y-28161D01*
X28356Y-27938D01*
X28350Y-27910D01*
X28339Y-27883D01*
X28323Y-27859D01*
X28302Y-27838D01*
X28296Y-27834D01*
X28302Y-27830D01*
X28323Y-27810D01*
X28339Y-27786D01*
X28350Y-27759D01*
X28356Y-27730D01*
X28356Y-27701D01*
X28356Y-27688D01*
X28494Y-27688D01*
X28494Y-27730D01*
X28500Y-27759D01*
X28511Y-27786D01*
X28527Y-27810D01*
X28547Y-27830D01*
X28553Y-27834D01*
X28547Y-27838D01*
X28527Y-27859D01*
X28511Y-27883D01*
X28500Y-27910D01*
X28494Y-27938D01*
X28494Y-28161D01*
X28531Y-28198D01*
X28927Y-28198D01*
X28927Y-28190D01*
X28946Y-28190D01*
X28946Y-28198D01*
X29342Y-28198D01*
X29379Y-28161D01*
X29379Y-27938D01*
X29373Y-27910D01*
X29362Y-27883D01*
X29346Y-27859D01*
X29326Y-27838D01*
X29320Y-27834D01*
X29326Y-27830D01*
X29346Y-27810D01*
X29362Y-27786D01*
X29373Y-27759D01*
X29379Y-27730D01*
X29379Y-27701D01*
X29379Y-27688D01*
X29901Y-27688D01*
X29922Y-27686D01*
X29943Y-27684D01*
X29944Y-27684D01*
X29945Y-27683D01*
X29965Y-27677D01*
X29986Y-27672D01*
X29987Y-27671D01*
X29988Y-27671D01*
X30006Y-27661D01*
X30025Y-27651D01*
X30026Y-27650D01*
X30027Y-27650D01*
X30043Y-27636D01*
X30060Y-27623D01*
X30061Y-27622D01*
X30061Y-27622D01*
X30061Y-27622D01*
X30062Y-27621D01*
X30077Y-27606D01*
X30103Y-27606D01*
X30165Y-27595D01*
X30166Y-27595D01*
X30312Y-27595D01*
X30312Y-27609D01*
X30312Y-27636D01*
X30349Y-27673D01*
X30844Y-27673D01*
X30844Y-27665D01*
X30863Y-27665D01*
X30863Y-27673D01*
X30871Y-27673D01*
X30871Y-27692D01*
X30863Y-27692D01*
X30863Y-27700D01*
X30844Y-27700D01*
X30844Y-27692D01*
X30349Y-27692D01*
X30312Y-27729D01*
X30312Y-27756D01*
X30312Y-27786D01*
X30318Y-27814D01*
X30329Y-27840D01*
X30318Y-27866D01*
X30312Y-27894D01*
X30312Y-27924D01*
X30312Y-28101D01*
X30318Y-28129D01*
X30329Y-28155D01*
X30318Y-28181D01*
X30312Y-28209D01*
X30312Y-28239D01*
X30312Y-28266D01*
X30349Y-28303D01*
X30844Y-28303D01*
X30844Y-28295D01*
X30863Y-28295D01*
X30863Y-28303D01*
X31358Y-28303D01*
X31395Y-28266D01*
X31395Y-28239D01*
X31395Y-28209D01*
X31389Y-28181D01*
X31386Y-28174D01*
X31388Y-28174D01*
X31404Y-28172D01*
X31405Y-28172D01*
X31406Y-28172D01*
X31422Y-28167D01*
X31438Y-28162D01*
X31438Y-28162D01*
X31439Y-28162D01*
X31454Y-28154D01*
X31468Y-28146D01*
X31469Y-28146D01*
X31470Y-28145D01*
X31483Y-28135D01*
X31495Y-28125D01*
X31497Y-28124D01*
X31497Y-28124D01*
X31497Y-28124D01*
X31497Y-28123D01*
X31582Y-28038D01*
X31592Y-28026D01*
X31603Y-28013D01*
X31603Y-28012D01*
X31604Y-28012D01*
X31612Y-27997D01*
X31619Y-27983D01*
X31620Y-27982D01*
X31620Y-27981D01*
X31625Y-27965D01*
X31630Y-27950D01*
X31630Y-27949D01*
X31630Y-27948D01*
X31632Y-27932D01*
X31634Y-27915D01*
X31634Y-27914D01*
X31634Y-27914D01*
X31634Y-27913D01*
X31634Y-27913D01*
X31634Y-27852D01*
X31646Y-27851D01*
X31647Y-27851D01*
X31648Y-27851D01*
X31653Y-27849D01*
X31653Y-29188D01*
X31536Y-29188D01*
X31508Y-29194D01*
X31481Y-29205D01*
X31457Y-29221D01*
X31436Y-29242D01*
X31420Y-29266D01*
X31409Y-29293D01*
X31403Y-29321D01*
X31403Y-29351D01*
X31403Y-30138D01*
X31409Y-30166D01*
X31420Y-30193D01*
X31436Y-30217D01*
X31457Y-30238D01*
X31481Y-30254D01*
X31508Y-30265D01*
X31536Y-30271D01*
X31566Y-30271D01*
X31743Y-30271D01*
X31771Y-30265D01*
X31794Y-30255D01*
X31818Y-30265D01*
X31846Y-30271D01*
X31876Y-30271D01*
X32053Y-30271D01*
X32081Y-30265D01*
X32108Y-30254D01*
X32110Y-30253D01*
X32111Y-30254D01*
X32138Y-30265D01*
X32166Y-30271D01*
X32196Y-30271D01*
X32373Y-30271D01*
X32401Y-30265D01*
X32402Y-30265D01*
X32402Y-30426D01*
X32351Y-30416D01*
X32298Y-30416D01*
X32245Y-30426D01*
X32195Y-30446D01*
X32151Y-30475D01*
X32114Y-30511D01*
X31762Y-30511D01*
X31729Y-30477D01*
X31685Y-30447D01*
X31636Y-30427D01*
X31583Y-30416D01*
X31530Y-30416D01*
X31477Y-30426D01*
X31428Y-30446D01*
X31395Y-30467D01*
X31395Y-29046D01*
X31395Y-29016D01*
X31395Y-28839D01*
X31389Y-28811D01*
X31378Y-28785D01*
X31389Y-28759D01*
X31395Y-28731D01*
X31395Y-28701D01*
X31395Y-28524D01*
X31389Y-28496D01*
X31378Y-28470D01*
X31389Y-28444D01*
X31395Y-28416D01*
X31395Y-28386D01*
X31395Y-28359D01*
X31358Y-28322D01*
X30863Y-28322D01*
X30863Y-28330D01*
X30844Y-28330D01*
X30844Y-28322D01*
X30349Y-28322D01*
X30312Y-28359D01*
X30312Y-28386D01*
X30312Y-28416D01*
X30318Y-28444D01*
X30329Y-28470D01*
X30318Y-28496D01*
X30312Y-28524D01*
X30312Y-28554D01*
X30312Y-28731D01*
X30318Y-28759D01*
X30329Y-28785D01*
X30318Y-28811D01*
X30312Y-28839D01*
X30312Y-28869D01*
X30312Y-29046D01*
X30318Y-29074D01*
X30329Y-29101D01*
X30345Y-29125D01*
X30366Y-29146D01*
X30390Y-29162D01*
X30417Y-29173D01*
X30445Y-29179D01*
X30475Y-29179D01*
X31262Y-29179D01*
X31290Y-29173D01*
X31317Y-29162D01*
X31341Y-29146D01*
X31362Y-29125D01*
X31378Y-29101D01*
X31389Y-29074D01*
X31395Y-29046D01*
X31395Y-30467D01*
X31383Y-30475D01*
X31345Y-30512D01*
X31315Y-30556D01*
X31293Y-30606D01*
X31282Y-30658D01*
X31282Y-30711D01*
X31291Y-30764D01*
X31311Y-30814D01*
X31340Y-30859D01*
X31356Y-30875D01*
X31345Y-30886D01*
X31315Y-30931D01*
X31293Y-30980D01*
X31282Y-31032D01*
X31282Y-31085D01*
X31291Y-31138D01*
X31311Y-31188D01*
X31340Y-31233D01*
X31377Y-31271D01*
X31421Y-31302D01*
X31470Y-31323D01*
X31522Y-31335D01*
X31576Y-31336D01*
X31628Y-31326D01*
X31678Y-31307D01*
X31723Y-31278D01*
X31762Y-31242D01*
X31763Y-31240D01*
X32115Y-31240D01*
X32145Y-31271D01*
X32189Y-31302D01*
X32238Y-31323D01*
X32290Y-31335D01*
X32343Y-31336D01*
X32396Y-31326D01*
X32399Y-31325D01*
X32243Y-31481D01*
X32233Y-31479D01*
X32179Y-31479D01*
X32127Y-31489D01*
X32077Y-31509D01*
X32033Y-31538D01*
X31994Y-31575D01*
X31964Y-31619D01*
X31943Y-31669D01*
X31932Y-31721D01*
X31931Y-31774D01*
X31941Y-31827D01*
X31961Y-31877D01*
X31990Y-31922D01*
X32027Y-31960D01*
X32071Y-31991D01*
X32120Y-32012D01*
X32172Y-32023D01*
X32225Y-32025D01*
X32278Y-32015D01*
X32328Y-31996D01*
X32373Y-31967D01*
X32412Y-31930D01*
X32442Y-31887D01*
X32464Y-31838D01*
X32476Y-31786D01*
X32477Y-31750D01*
X32705Y-31521D01*
X32716Y-31509D01*
X32726Y-31496D01*
X32727Y-31495D01*
X32727Y-31495D01*
X32735Y-31480D01*
X32743Y-31466D01*
X32743Y-31465D01*
X32743Y-31464D01*
X32748Y-31448D01*
X32753Y-31433D01*
X32753Y-31432D01*
X32754Y-31431D01*
X32755Y-31415D01*
X32757Y-31398D01*
X32757Y-31397D01*
X32757Y-31396D01*
X32757Y-31396D01*
X32757Y-31396D01*
X32757Y-31300D01*
X32760Y-31302D01*
X32809Y-31323D01*
X32861Y-31335D01*
X32914Y-31336D01*
X32967Y-31326D01*
X33017Y-31307D01*
X33062Y-31278D01*
X33101Y-31242D01*
X33102Y-31240D01*
X33906Y-31240D01*
X33936Y-31271D01*
X33980Y-31302D01*
X34029Y-31323D01*
X34081Y-31335D01*
X34135Y-31336D01*
X34187Y-31326D01*
X34237Y-31307D01*
X34282Y-31278D01*
X34321Y-31242D01*
X34352Y-31198D01*
X34374Y-31149D01*
X34385Y-31097D01*
X34386Y-31036D01*
X34376Y-30983D01*
X34356Y-30934D01*
X34326Y-30889D01*
X34312Y-30876D01*
X34321Y-30867D01*
X34352Y-30824D01*
X34374Y-30775D01*
X34385Y-30723D01*
X34386Y-30662D01*
X34376Y-30609D01*
X34356Y-30560D01*
X34326Y-30515D01*
X34288Y-30477D01*
X34244Y-30447D01*
X34195Y-30427D01*
X34142Y-30416D01*
X34089Y-30416D01*
X34036Y-30426D01*
X33987Y-30446D01*
X33942Y-30475D01*
X33905Y-30511D01*
X33101Y-30511D01*
X33068Y-30477D01*
X33024Y-30447D01*
X32974Y-30427D01*
X32922Y-30416D01*
X32868Y-30416D01*
X32816Y-30426D01*
X32766Y-30446D01*
X32757Y-30452D01*
X32757Y-30265D01*
X32758Y-30265D01*
X32786Y-30271D01*
X32816Y-30271D01*
X32993Y-30271D01*
X33021Y-30265D01*
X33048Y-30254D01*
X33050Y-30253D01*
X33051Y-30254D01*
X33078Y-30265D01*
X33106Y-30271D01*
X33136Y-30271D01*
X33313Y-30271D01*
X33341Y-30265D01*
X33368Y-30254D01*
X33370Y-30253D01*
X33371Y-30254D01*
X33398Y-30265D01*
X33426Y-30271D01*
X33456Y-30271D01*
X33633Y-30271D01*
X33661Y-30265D01*
X33688Y-30254D01*
X33690Y-30253D01*
X33691Y-30254D01*
X33718Y-30265D01*
X33746Y-30271D01*
X33776Y-30271D01*
X33953Y-30271D01*
X33981Y-30265D01*
X34008Y-30254D01*
X34032Y-30238D01*
X34053Y-30217D01*
X34069Y-30193D01*
X34080Y-30166D01*
X34086Y-30138D01*
X34086Y-30108D01*
X34086Y-29907D01*
X34128Y-29907D01*
X34144Y-29906D01*
X34160Y-29904D01*
X34161Y-29904D01*
X34162Y-29904D01*
X34178Y-29899D01*
X34194Y-29894D01*
X34195Y-29894D01*
X34195Y-29894D01*
X34210Y-29886D01*
X34225Y-29878D01*
X34225Y-29878D01*
X34226Y-29877D01*
X34239Y-29867D01*
X34252Y-29857D01*
X34253Y-29856D01*
X34253Y-29856D01*
X34253Y-29856D01*
X34253Y-29855D01*
X34377Y-29731D01*
X34388Y-29719D01*
X34398Y-29706D01*
X34398Y-29705D01*
X34399Y-29705D01*
X34407Y-29690D01*
X34415Y-29676D01*
X34415Y-29675D01*
X34415Y-29674D01*
X34420Y-29658D01*
X34425Y-29643D01*
X34425Y-29642D01*
X34426Y-29641D01*
X34427Y-29625D01*
X34429Y-29608D01*
X34429Y-29606D01*
X34429Y-29606D01*
X34429Y-29606D01*
X34429Y-29606D01*
X34429Y-29577D01*
X34459Y-29549D01*
X34490Y-29505D01*
X34511Y-29456D01*
X34523Y-29404D01*
X34524Y-29343D01*
X34514Y-29290D01*
X34493Y-29241D01*
X34464Y-29196D01*
X34453Y-29186D01*
X35028Y-29186D01*
X35056Y-29180D01*
X35083Y-29169D01*
X35107Y-29153D01*
X35128Y-29132D01*
X35144Y-29108D01*
X35155Y-29081D01*
X35161Y-29053D01*
X35161Y-29023D01*
X35161Y-28846D01*
X35155Y-28818D01*
X35144Y-28791D01*
X35143Y-28789D01*
X35144Y-28788D01*
X35155Y-28761D01*
X35161Y-28733D01*
X35161Y-28703D01*
X35161Y-28676D01*
X35124Y-28639D01*
X34629Y-28639D01*
X34629Y-28647D01*
X34610Y-28647D01*
X34610Y-28639D01*
X34602Y-28639D01*
X34602Y-28620D01*
X34610Y-28620D01*
X34610Y-28612D01*
X34629Y-28612D01*
X34629Y-28620D01*
X35124Y-28620D01*
X35161Y-28583D01*
X35161Y-28556D01*
X35161Y-28526D01*
X35155Y-28498D01*
X35144Y-28471D01*
X35143Y-28470D01*
X35144Y-28468D01*
X35155Y-28441D01*
X35161Y-28413D01*
X35161Y-28383D01*
X35161Y-28206D01*
X35155Y-28178D01*
X35145Y-28155D01*
X35155Y-28131D01*
X35161Y-28103D01*
X35161Y-28073D01*
X35161Y-27896D01*
X35155Y-27868D01*
X35144Y-27841D01*
X35143Y-27839D01*
X35144Y-27838D01*
X35155Y-27811D01*
X35161Y-27783D01*
X35161Y-27753D01*
X35161Y-27576D01*
X35155Y-27548D01*
X35145Y-27525D01*
X35155Y-27501D01*
X35161Y-27473D01*
X35161Y-27443D01*
X35161Y-27266D01*
X35155Y-27238D01*
X35150Y-27227D01*
X36571Y-27227D01*
X36587Y-27226D01*
X36603Y-27224D01*
X36604Y-27224D01*
X36605Y-27224D01*
X36621Y-27219D01*
X36637Y-27214D01*
X36638Y-27214D01*
X36639Y-27214D01*
X36653Y-27206D01*
X36668Y-27198D01*
X36668Y-27198D01*
X36669Y-27197D01*
X36682Y-27187D01*
X36695Y-27177D01*
X36696Y-27176D01*
X36696Y-27176D01*
X36696Y-27176D01*
X36696Y-27175D01*
X38005Y-25866D01*
X38103Y-25964D01*
X38131Y-25983D01*
X38161Y-25995D01*
X38194Y-26002D01*
X38227Y-26002D01*
X38259Y-25995D01*
X38289Y-25983D01*
X38317Y-25964D01*
X38340Y-25941D01*
X38764Y-25517D01*
X38783Y-25489D01*
X38795Y-25459D01*
X38802Y-25427D01*
X38802Y-32367D01*
X38711Y-32458D01*
X38711Y-32511D01*
X38977Y-32777D01*
X39299Y-32455D01*
X39299Y-32483D01*
X38991Y-32791D01*
X38996Y-32796D01*
X38983Y-32810D01*
X38977Y-32805D01*
X38963Y-32819D01*
X38963Y-32791D01*
X38697Y-32525D01*
X38697Y-30996D01*
X38687Y-30944D01*
X38667Y-30895D01*
X38637Y-30850D01*
X38599Y-30812D01*
X38555Y-30782D01*
X38506Y-30761D01*
X38453Y-30751D01*
X38400Y-30750D01*
X38347Y-30760D01*
X38298Y-30780D01*
X38253Y-30810D01*
X38215Y-30847D01*
X38185Y-30891D01*
X38164Y-30940D01*
X38152Y-30993D01*
X38152Y-31046D01*
X38161Y-31099D01*
X38181Y-31148D01*
X38210Y-31193D01*
X38247Y-31232D01*
X38247Y-31351D01*
X38208Y-31312D01*
X38184Y-31296D01*
X38157Y-31285D01*
X38129Y-31279D01*
X38099Y-31279D01*
X38071Y-31285D01*
X38044Y-31296D01*
X38020Y-31312D01*
X37999Y-31332D01*
X37498Y-31834D01*
X37482Y-31858D01*
X37471Y-31885D01*
X37465Y-31913D01*
X37465Y-31942D01*
X37471Y-31971D01*
X37482Y-31998D01*
X37498Y-32022D01*
X37519Y-32042D01*
X37909Y-32432D01*
X37933Y-32448D01*
X37960Y-32459D01*
X37988Y-32465D01*
X38017Y-32465D01*
X38046Y-32459D01*
X38073Y-32448D01*
X38097Y-32432D01*
X38117Y-32412D01*
X38618Y-31910D01*
X38635Y-31886D01*
X38646Y-31859D01*
X38651Y-31831D01*
X38651Y-31802D01*
X38646Y-31773D01*
X38635Y-31746D01*
X38618Y-31722D01*
X38598Y-31702D01*
X38539Y-31643D01*
X38550Y-31631D01*
X38561Y-31619D01*
X38571Y-31606D01*
X38572Y-31605D01*
X38572Y-31604D01*
X38580Y-31590D01*
X38588Y-31576D01*
X38588Y-31575D01*
X38589Y-31574D01*
X38593Y-31558D01*
X38598Y-31543D01*
X38599Y-31542D01*
X38599Y-31541D01*
X38600Y-31524D01*
X38602Y-31508D01*
X38602Y-31506D01*
X38602Y-31506D01*
X38602Y-31506D01*
X38602Y-31506D01*
X38602Y-31230D01*
X38632Y-31202D01*
X38663Y-31158D01*
X38685Y-31110D01*
X38696Y-31057D01*
X38697Y-30996D01*
X38697Y-32525D01*
X38697Y-32524D01*
X38645Y-32524D01*
X38437Y-32732D01*
X38417Y-32752D01*
X38401Y-32776D01*
X38390Y-32803D01*
X38384Y-32832D01*
X38384Y-32861D01*
X38390Y-32889D01*
X38401Y-32916D01*
X38417Y-32941D01*
X38589Y-33113D01*
X38641Y-33113D01*
X38963Y-32791D01*
X38963Y-32819D01*
X38655Y-33127D01*
X38655Y-33179D01*
X38827Y-33351D01*
X38851Y-33367D01*
X38878Y-33378D01*
X38907Y-33384D01*
X38936Y-33384D01*
X38964Y-33378D01*
X38991Y-33367D01*
X39015Y-33351D01*
X39036Y-33330D01*
X39079Y-33287D01*
X38697Y-33756D01*
X38196Y-34170D01*
X38201Y-34165D01*
X38217Y-34141D01*
X38228Y-34114D01*
X38234Y-34086D01*
X38234Y-34057D01*
X38228Y-34028D01*
X38217Y-34001D01*
X38201Y-33977D01*
X38180Y-33957D01*
X37791Y-33567D01*
X37766Y-33551D01*
X37739Y-33540D01*
X37711Y-33534D01*
X37682Y-33534D01*
X37653Y-33540D01*
X37626Y-33551D01*
X37602Y-33567D01*
X37582Y-33587D01*
X37315Y-33854D01*
X37315Y-33167D01*
X37315Y-33138D01*
X37309Y-33110D01*
X37298Y-33083D01*
X37282Y-33059D01*
X37262Y-33038D01*
X36872Y-32648D01*
X36848Y-32632D01*
X36821Y-32621D01*
X36792Y-32615D01*
X36763Y-32615D01*
X36735Y-32621D01*
X36708Y-32632D01*
X36684Y-32648D01*
X36663Y-32669D01*
X36424Y-32908D01*
X36424Y-30454D01*
X36387Y-30267D01*
X36314Y-30090D01*
X36208Y-29931D01*
X36074Y-29795D01*
X35915Y-29688D01*
X35739Y-29614D01*
X35552Y-29576D01*
X35361Y-29574D01*
X35173Y-29610D01*
X34996Y-29682D01*
X34836Y-29786D01*
X34699Y-29920D01*
X34591Y-30078D01*
X34516Y-30253D01*
X34476Y-30440D01*
X34474Y-30631D01*
X34508Y-30819D01*
X34579Y-30997D01*
X34682Y-31158D01*
X34815Y-31295D01*
X34972Y-31404D01*
X35147Y-31481D01*
X35334Y-31522D01*
X35525Y-31526D01*
X35713Y-31493D01*
X35891Y-31423D01*
X36052Y-31321D01*
X36191Y-31189D01*
X36301Y-31033D01*
X36379Y-30859D01*
X36421Y-30672D01*
X36424Y-30454D01*
X36424Y-32908D01*
X36162Y-33170D01*
X36146Y-33194D01*
X36135Y-33221D01*
X36129Y-33249D01*
X36129Y-33279D01*
X36135Y-33307D01*
X36146Y-33334D01*
X36162Y-33358D01*
X36182Y-33379D01*
X36572Y-33768D01*
X36596Y-33785D01*
X36623Y-33796D01*
X36652Y-33801D01*
X36681Y-33801D01*
X36709Y-33796D01*
X36736Y-33785D01*
X36760Y-33768D01*
X36781Y-33748D01*
X37282Y-33247D01*
X37298Y-33223D01*
X37309Y-33196D01*
X37315Y-33167D01*
X37315Y-33854D01*
X37081Y-34089D01*
X37064Y-34113D01*
X37053Y-34140D01*
X37048Y-34168D01*
X37048Y-34197D01*
X37053Y-34226D01*
X37064Y-34253D01*
X37081Y-34277D01*
X37083Y-34279D01*
X37068Y-34294D01*
X37022Y-34294D01*
X36969Y-34304D01*
X36920Y-34324D01*
X36875Y-34353D01*
X36837Y-34390D01*
X36807Y-34434D01*
X36786Y-34484D01*
X36774Y-34536D01*
X36774Y-34589D01*
X36783Y-34642D01*
X36803Y-34692D01*
X36832Y-34737D01*
X36869Y-34775D01*
X36913Y-34806D01*
X36962Y-34827D01*
X37014Y-34838D01*
X37068Y-34840D01*
X37120Y-34830D01*
X37170Y-34811D01*
X37215Y-34782D01*
X37254Y-34745D01*
X37285Y-34702D01*
X37307Y-34653D01*
X37319Y-34601D01*
X37319Y-34545D01*
X37334Y-34530D01*
X37491Y-34687D01*
X37515Y-34703D01*
X37539Y-34713D01*
X37437Y-34798D01*
X36571Y-35266D01*
X36571Y-34540D01*
X36561Y-34487D01*
X36541Y-34438D01*
X36511Y-34393D01*
X36473Y-34355D01*
X36429Y-34325D01*
X36380Y-34305D01*
X36327Y-34294D01*
X36274Y-34294D01*
X36221Y-34304D01*
X36172Y-34324D01*
X36127Y-34353D01*
X36090Y-34389D01*
X35699Y-34389D01*
X35666Y-34355D01*
X35622Y-34325D01*
X35573Y-34305D01*
X35520Y-34294D01*
X35467Y-34294D01*
X35414Y-34304D01*
X35365Y-34324D01*
X35320Y-34353D01*
X35282Y-34390D01*
X35252Y-34434D01*
X35230Y-34484D01*
X35219Y-34536D01*
X35219Y-34589D01*
X35228Y-34642D01*
X35248Y-34692D01*
X35277Y-34737D01*
X35314Y-34775D01*
X35358Y-34806D01*
X35407Y-34827D01*
X35459Y-34838D01*
X35513Y-34840D01*
X35565Y-34830D01*
X35615Y-34811D01*
X35660Y-34782D01*
X35699Y-34745D01*
X35700Y-34744D01*
X36091Y-34744D01*
X36121Y-34775D01*
X36165Y-34806D01*
X36214Y-34827D01*
X36266Y-34838D01*
X36320Y-34840D01*
X36372Y-34830D01*
X36422Y-34811D01*
X36467Y-34782D01*
X36506Y-34745D01*
X36537Y-34702D01*
X36559Y-34653D01*
X36571Y-34601D01*
X36571Y-34540D01*
X36571Y-35266D01*
X35998Y-35576D01*
X34839Y-35935D01*
X34839Y-34303D01*
X34829Y-34251D01*
X34808Y-34202D01*
X34779Y-34157D01*
X34741Y-34119D01*
X34697Y-34089D01*
X34647Y-34069D01*
X34595Y-34058D01*
X34542Y-34057D01*
X34489Y-34067D01*
X34440Y-34087D01*
X34395Y-34117D01*
X34357Y-34154D01*
X34326Y-34198D01*
X34305Y-34247D01*
X34300Y-34272D01*
X34196Y-34272D01*
X34196Y-34160D01*
X34191Y-34131D01*
X34180Y-34104D01*
X34163Y-34080D01*
X34143Y-34060D01*
X34119Y-34043D01*
X34092Y-34032D01*
X34063Y-34027D01*
X34034Y-34027D01*
X33326Y-34027D01*
X33297Y-34032D01*
X33270Y-34043D01*
X33246Y-34060D01*
X33225Y-34080D01*
X33209Y-34104D01*
X33198Y-34131D01*
X33192Y-34160D01*
X33192Y-34189D01*
X33192Y-34740D01*
X33198Y-34769D01*
X33209Y-34795D01*
X33225Y-34820D01*
X33246Y-34840D01*
X33270Y-34856D01*
X33297Y-34867D01*
X33326Y-34873D01*
X33355Y-34873D01*
X34063Y-34873D01*
X34092Y-34867D01*
X34119Y-34856D01*
X34143Y-34840D01*
X34163Y-34820D01*
X34180Y-34795D01*
X34191Y-34769D01*
X34196Y-34740D01*
X34196Y-34711D01*
X34196Y-34628D01*
X34447Y-34628D01*
X34463Y-34626D01*
X34479Y-34625D01*
X34480Y-34624D01*
X34481Y-34624D01*
X34497Y-34619D01*
X34513Y-34615D01*
X34514Y-34614D01*
X34514Y-34614D01*
X34529Y-34606D01*
X34537Y-34602D01*
X34587Y-34603D01*
X34640Y-34594D01*
X34690Y-34575D01*
X34735Y-34546D01*
X34774Y-34509D01*
X34805Y-34466D01*
X34826Y-34417D01*
X34838Y-34365D01*
X34839Y-34303D01*
X34839Y-35935D01*
X34435Y-36060D01*
X34183Y-36087D01*
X34191Y-36068D01*
X34196Y-36039D01*
X34196Y-35796D01*
X34196Y-35702D01*
X34196Y-35459D01*
X34191Y-35430D01*
X34180Y-35404D01*
X34163Y-35379D01*
X34143Y-35359D01*
X34119Y-35343D01*
X34092Y-35332D01*
X34063Y-35326D01*
X34034Y-35326D01*
X33741Y-35326D01*
X33704Y-35363D01*
X33704Y-35739D01*
X34159Y-35739D01*
X34196Y-35702D01*
X34196Y-35796D01*
X34159Y-35759D01*
X33704Y-35759D01*
X33704Y-35767D01*
X33685Y-35767D01*
X33685Y-35759D01*
X33685Y-35739D01*
X33685Y-35363D01*
X33648Y-35326D01*
X33355Y-35326D01*
X33326Y-35326D01*
X33297Y-35332D01*
X33270Y-35343D01*
X33246Y-35359D01*
X33225Y-35379D01*
X33209Y-35404D01*
X33198Y-35430D01*
X33192Y-35459D01*
X33192Y-35702D01*
X33229Y-35739D01*
X33685Y-35739D01*
X33685Y-35759D01*
X33229Y-35759D01*
X33192Y-35796D01*
X33192Y-36039D01*
X33198Y-36068D01*
X33209Y-36095D01*
X33225Y-36119D01*
X33246Y-36139D01*
X33270Y-36156D01*
X33297Y-36167D01*
X33326Y-36172D01*
X33355Y-36172D01*
X33368Y-36172D01*
X32800Y-36232D01*
X32757Y-36232D01*
X32147Y-36172D01*
X32173Y-36172D01*
X32202Y-36167D01*
X32229Y-36156D01*
X32253Y-36139D01*
X32274Y-36119D01*
X32290Y-36095D01*
X32301Y-36068D01*
X32307Y-36039D01*
X32307Y-36010D01*
X32307Y-35459D01*
X32307Y-34740D01*
X32307Y-34711D01*
X32307Y-34160D01*
X32301Y-34131D01*
X32290Y-34104D01*
X32274Y-34080D01*
X32253Y-34060D01*
X32229Y-34043D01*
X32202Y-34032D01*
X32173Y-34027D01*
X32144Y-34027D01*
X31436Y-34027D01*
X31407Y-34032D01*
X31380Y-34043D01*
X31356Y-34060D01*
X31336Y-34080D01*
X31319Y-34104D01*
X31308Y-34131D01*
X31303Y-34160D01*
X31303Y-34189D01*
X31303Y-34740D01*
X31308Y-34769D01*
X31319Y-34795D01*
X31336Y-34820D01*
X31356Y-34840D01*
X31380Y-34856D01*
X31407Y-34867D01*
X31436Y-34873D01*
X31465Y-34873D01*
X32173Y-34873D01*
X32202Y-34867D01*
X32229Y-34856D01*
X32253Y-34840D01*
X32274Y-34820D01*
X32290Y-34795D01*
X32301Y-34769D01*
X32307Y-34740D01*
X32307Y-35459D01*
X32301Y-35430D01*
X32290Y-35404D01*
X32274Y-35379D01*
X32253Y-35359D01*
X32229Y-35343D01*
X32202Y-35332D01*
X32173Y-35326D01*
X32144Y-35326D01*
X31436Y-35326D01*
X31407Y-35332D01*
X31380Y-35343D01*
X31356Y-35359D01*
X31336Y-35379D01*
X31319Y-35404D01*
X31308Y-35430D01*
X31303Y-35459D01*
X31303Y-35488D01*
X31303Y-35571D01*
X31295Y-35571D01*
X30965Y-35241D01*
X30965Y-33301D01*
X31278Y-32988D01*
X31320Y-32989D01*
X31372Y-32980D01*
X31422Y-32961D01*
X31467Y-32932D01*
X31506Y-32895D01*
X31537Y-32851D01*
X31559Y-32803D01*
X31571Y-32750D01*
X31571Y-32689D01*
X31561Y-32637D01*
X31541Y-32587D01*
X31511Y-32543D01*
X31473Y-32505D01*
X31429Y-32475D01*
X31380Y-32454D01*
X31327Y-32444D01*
X31274Y-32443D01*
X31221Y-32453D01*
X31172Y-32473D01*
X31127Y-32503D01*
X31089Y-32540D01*
X31059Y-32584D01*
X31038Y-32633D01*
X31026Y-32685D01*
X31026Y-32738D01*
X31024Y-32740D01*
X31024Y-30454D01*
X30987Y-30267D01*
X30914Y-30090D01*
X30808Y-29931D01*
X30674Y-29795D01*
X30515Y-29688D01*
X30339Y-29614D01*
X30152Y-29576D01*
X29961Y-29574D01*
X29773Y-29610D01*
X29596Y-29682D01*
X29436Y-29786D01*
X29379Y-29842D01*
X29379Y-28478D01*
X29379Y-28255D01*
X29342Y-28218D01*
X28946Y-28218D01*
X28946Y-28574D01*
X28983Y-28611D01*
X29217Y-28611D01*
X29246Y-28611D01*
X29275Y-28606D01*
X29301Y-28594D01*
X29326Y-28578D01*
X29346Y-28558D01*
X29362Y-28534D01*
X29373Y-28507D01*
X29379Y-28478D01*
X29379Y-29842D01*
X29299Y-29920D01*
X29191Y-30078D01*
X29116Y-30253D01*
X29076Y-30440D01*
X29074Y-30631D01*
X29108Y-30819D01*
X29179Y-30997D01*
X29282Y-31158D01*
X29415Y-31295D01*
X29572Y-31404D01*
X29747Y-31481D01*
X29934Y-31522D01*
X30125Y-31526D01*
X30313Y-31493D01*
X30491Y-31423D01*
X30652Y-31321D01*
X30791Y-31189D01*
X30901Y-31033D01*
X30979Y-30859D01*
X31021Y-30672D01*
X31024Y-30454D01*
X31024Y-32740D01*
X30661Y-33102D01*
X30651Y-33115D01*
X30640Y-33127D01*
X30640Y-33128D01*
X30639Y-33129D01*
X30632Y-33143D01*
X30624Y-33158D01*
X30623Y-33159D01*
X30623Y-33160D01*
X30618Y-33175D01*
X30613Y-33191D01*
X30613Y-33192D01*
X30613Y-33193D01*
X30611Y-33209D01*
X30609Y-33225D01*
X30609Y-33227D01*
X30609Y-33227D01*
X30609Y-33227D01*
X30609Y-33228D01*
X30609Y-35314D01*
X30611Y-35331D01*
X30612Y-35347D01*
X30613Y-35348D01*
X30613Y-35349D01*
X30617Y-35365D01*
X30622Y-35380D01*
X30622Y-35381D01*
X30623Y-35382D01*
X30630Y-35397D01*
X30638Y-35411D01*
X30639Y-35412D01*
X30639Y-35413D01*
X30649Y-35425D01*
X30660Y-35438D01*
X30661Y-35440D01*
X30661Y-35440D01*
X30661Y-35440D01*
X30661Y-35440D01*
X31096Y-35875D01*
X31109Y-35885D01*
X31121Y-35896D01*
X31122Y-35896D01*
X31123Y-35897D01*
X31137Y-35904D01*
X31152Y-35912D01*
X31152Y-35913D01*
X31153Y-35913D01*
X31169Y-35918D01*
X31185Y-35923D01*
X31186Y-35923D01*
X31186Y-35923D01*
X31203Y-35925D01*
X31219Y-35927D01*
X31221Y-35927D01*
X31221Y-35927D01*
X31221Y-35927D01*
X31222Y-35927D01*
X31303Y-35927D01*
X31303Y-36039D01*
X31308Y-36068D01*
X31318Y-36091D01*
X31121Y-36072D01*
X29555Y-35599D01*
X29370Y-35500D01*
X29370Y-33279D01*
X29370Y-33249D01*
X29364Y-33221D01*
X29353Y-33194D01*
X29337Y-33170D01*
X29317Y-33149D01*
X28927Y-32759D01*
X28927Y-28574D01*
X28927Y-28218D01*
X28531Y-28218D01*
X28494Y-28255D01*
X28494Y-28478D01*
X28500Y-28507D01*
X28511Y-28534D01*
X28527Y-28558D01*
X28547Y-28578D01*
X28572Y-28594D01*
X28598Y-28606D01*
X28627Y-28611D01*
X28656Y-28611D01*
X28890Y-28611D01*
X28927Y-28574D01*
X28927Y-32759D01*
X28815Y-32648D01*
X28791Y-32632D01*
X28764Y-32621D01*
X28736Y-32615D01*
X28707Y-32615D01*
X28678Y-32621D01*
X28651Y-32632D01*
X28627Y-32648D01*
X28607Y-32669D01*
X28356Y-32920D01*
X28356Y-28478D01*
X28356Y-28255D01*
X28319Y-28218D01*
X27923Y-28218D01*
X27923Y-28574D01*
X27960Y-28611D01*
X28193Y-28611D01*
X28222Y-28611D01*
X28251Y-28606D01*
X28278Y-28594D01*
X28302Y-28578D01*
X28323Y-28558D01*
X28339Y-28534D01*
X28350Y-28507D01*
X28356Y-28478D01*
X28356Y-32920D01*
X28217Y-33059D01*
X28201Y-33083D01*
X28190Y-33110D01*
X28184Y-33138D01*
X28184Y-33167D01*
X28190Y-33196D01*
X28201Y-33223D01*
X28217Y-33247D01*
X28237Y-33267D01*
X28739Y-33768D01*
X28763Y-33785D01*
X28790Y-33796D01*
X28818Y-33801D01*
X28847Y-33801D01*
X28876Y-33796D01*
X28903Y-33785D01*
X28927Y-33768D01*
X28947Y-33748D01*
X29337Y-33358D01*
X29353Y-33334D01*
X29364Y-33307D01*
X29370Y-33279D01*
X29370Y-35500D01*
X28451Y-35012D01*
X28451Y-34197D01*
X28451Y-34168D01*
X28446Y-34140D01*
X28435Y-34113D01*
X28418Y-34089D01*
X28398Y-34068D01*
X28191Y-33861D01*
X28138Y-33861D01*
X28125Y-33875D01*
X28125Y-33847D01*
X28125Y-33795D01*
X28034Y-33704D01*
X28034Y-31942D01*
X28034Y-31913D01*
X28028Y-31885D01*
X28017Y-31858D01*
X28001Y-31834D01*
X27980Y-31813D01*
X27903Y-31736D01*
X27903Y-28574D01*
X27903Y-28218D01*
X27507Y-28218D01*
X27470Y-28255D01*
X27470Y-28478D01*
X27476Y-28507D01*
X27487Y-28534D01*
X27503Y-28558D01*
X27524Y-28578D01*
X27548Y-28594D01*
X27575Y-28606D01*
X27603Y-28611D01*
X27632Y-28611D01*
X27866Y-28611D01*
X27903Y-28574D01*
X27903Y-31736D01*
X27479Y-31312D01*
X27455Y-31296D01*
X27428Y-31285D01*
X27400Y-31279D01*
X27370Y-31279D01*
X27342Y-31285D01*
X27315Y-31296D01*
X27291Y-31312D01*
X27270Y-31332D01*
X26881Y-31722D01*
X26864Y-31746D01*
X26853Y-31773D01*
X26848Y-31802D01*
X26848Y-31831D01*
X26853Y-31859D01*
X26864Y-31886D01*
X26881Y-31910D01*
X26901Y-31931D01*
X27402Y-32432D01*
X27426Y-32448D01*
X27453Y-32459D01*
X27482Y-32465D01*
X27511Y-32465D01*
X27539Y-32459D01*
X27566Y-32448D01*
X27590Y-32432D01*
X27611Y-32412D01*
X28001Y-32022D01*
X28017Y-31998D01*
X28028Y-31971D01*
X28034Y-31942D01*
X28034Y-33704D01*
X27917Y-33587D01*
X27897Y-33567D01*
X27873Y-33551D01*
X27846Y-33540D01*
X27817Y-33534D01*
X27788Y-33534D01*
X27760Y-33540D01*
X27733Y-33551D01*
X27709Y-33567D01*
X27536Y-33739D01*
X27536Y-33791D01*
X27858Y-34113D01*
X28125Y-33847D01*
X28125Y-33875D01*
X27872Y-34127D01*
X28194Y-34449D01*
X28246Y-34449D01*
X28418Y-34277D01*
X28435Y-34253D01*
X28446Y-34226D01*
X28451Y-34197D01*
X28451Y-35012D01*
X28111Y-34831D01*
X27964Y-34711D01*
X27984Y-34703D01*
X28008Y-34687D01*
X28180Y-34515D01*
X28180Y-34463D01*
X27858Y-34141D01*
X27853Y-34146D01*
X27839Y-34133D01*
X27844Y-34127D01*
X27522Y-33805D01*
X27470Y-33805D01*
X27298Y-33977D01*
X27282Y-34001D01*
X27271Y-34028D01*
X27265Y-34057D01*
X27265Y-34086D01*
X27271Y-34114D01*
X27282Y-34141D01*
X27298Y-34165D01*
X27312Y-34179D01*
X26843Y-33797D01*
X26429Y-33296D01*
X26484Y-33351D01*
X26508Y-33367D01*
X26535Y-33378D01*
X26563Y-33384D01*
X26592Y-33384D01*
X26621Y-33378D01*
X26648Y-33367D01*
X26672Y-33351D01*
X26692Y-33330D01*
X27082Y-32941D01*
X27098Y-32916D01*
X27109Y-32889D01*
X27115Y-32861D01*
X27115Y-32832D01*
X27109Y-32803D01*
X27098Y-32776D01*
X27082Y-32752D01*
X27062Y-32732D01*
X26650Y-32320D01*
X26650Y-29618D01*
X26640Y-29566D01*
X26619Y-29517D01*
X26590Y-29472D01*
X26552Y-29434D01*
X26508Y-29404D01*
X26458Y-29383D01*
X26406Y-29373D01*
X26356Y-29372D01*
X26327Y-29343D01*
X26327Y-29296D01*
X26439Y-29296D01*
X26468Y-29291D01*
X26495Y-29280D01*
X26519Y-29263D01*
X26539Y-29243D01*
X26556Y-29219D01*
X26567Y-29192D01*
X26572Y-29163D01*
X26572Y-29134D01*
X26572Y-28426D01*
X26572Y-27273D01*
X26572Y-27244D01*
X26572Y-26536D01*
X26567Y-26507D01*
X26556Y-26480D01*
X26539Y-26456D01*
X26519Y-26436D01*
X26495Y-26419D01*
X26468Y-26408D01*
X26439Y-26403D01*
X26434Y-26403D01*
X26434Y-24914D01*
X26423Y-24861D01*
X26403Y-24812D01*
X26373Y-24767D01*
X26336Y-24729D01*
X26291Y-24699D01*
X26242Y-24679D01*
X26190Y-24668D01*
X26136Y-24668D01*
X26084Y-24678D01*
X26034Y-24698D01*
X25989Y-24727D01*
X25951Y-24764D01*
X25921Y-24808D01*
X25900Y-24858D01*
X25889Y-24910D01*
X25888Y-24962D01*
X25552Y-25298D01*
X25506Y-25298D01*
X25454Y-25308D01*
X25404Y-25328D01*
X25359Y-25357D01*
X25321Y-25394D01*
X25291Y-25438D01*
X25270Y-25488D01*
X25259Y-25540D01*
X25258Y-25593D01*
X25268Y-25646D01*
X25287Y-25696D01*
X25316Y-25741D01*
X25353Y-25779D01*
X25397Y-25810D01*
X25446Y-25831D01*
X25499Y-25842D01*
X25552Y-25844D01*
X25605Y-25834D01*
X25655Y-25815D01*
X25700Y-25786D01*
X25738Y-25749D01*
X25769Y-25706D01*
X25791Y-25657D01*
X25803Y-25605D01*
X25804Y-25549D01*
X26140Y-25213D01*
X26182Y-25214D01*
X26235Y-25204D01*
X26284Y-25185D01*
X26330Y-25156D01*
X26368Y-25119D01*
X26399Y-25076D01*
X26421Y-25027D01*
X26433Y-24975D01*
X26434Y-24914D01*
X26434Y-26403D01*
X26410Y-26403D01*
X25859Y-26403D01*
X25830Y-26408D01*
X25804Y-26419D01*
X25779Y-26436D01*
X25759Y-26456D01*
X25743Y-26480D01*
X25732Y-26507D01*
X25726Y-26536D01*
X25726Y-26565D01*
X25726Y-27273D01*
X25732Y-27302D01*
X25743Y-27329D01*
X25759Y-27353D01*
X25779Y-27374D01*
X25804Y-27390D01*
X25830Y-27401D01*
X25859Y-27407D01*
X25888Y-27407D01*
X26439Y-27407D01*
X26468Y-27401D01*
X26495Y-27390D01*
X26519Y-27374D01*
X26539Y-27353D01*
X26556Y-27329D01*
X26567Y-27302D01*
X26572Y-27273D01*
X26572Y-28426D01*
X26567Y-28397D01*
X26556Y-28370D01*
X26539Y-28346D01*
X26519Y-28325D01*
X26495Y-28309D01*
X26468Y-28298D01*
X26439Y-28292D01*
X26410Y-28292D01*
X25859Y-28292D01*
X25830Y-28298D01*
X25804Y-28309D01*
X25779Y-28325D01*
X25759Y-28346D01*
X25743Y-28370D01*
X25732Y-28397D01*
X25726Y-28426D01*
X25726Y-28455D01*
X25726Y-29163D01*
X25732Y-29192D01*
X25743Y-29219D01*
X25759Y-29243D01*
X25779Y-29263D01*
X25804Y-29280D01*
X25830Y-29291D01*
X25859Y-29296D01*
X25888Y-29296D01*
X25971Y-29296D01*
X25971Y-29417D01*
X25973Y-29433D01*
X25975Y-29449D01*
X25975Y-29450D01*
X25975Y-29451D01*
X25980Y-29467D01*
X25984Y-29483D01*
X25985Y-29484D01*
X25985Y-29485D01*
X25993Y-29499D01*
X26000Y-29514D01*
X26001Y-29514D01*
X26001Y-29515D01*
X26012Y-29528D01*
X26022Y-29541D01*
X26023Y-29542D01*
X26023Y-29542D01*
X26023Y-29542D01*
X26023Y-29542D01*
X26105Y-29624D01*
X26104Y-29668D01*
X26114Y-29721D01*
X26134Y-29770D01*
X26163Y-29815D01*
X26200Y-29854D01*
X26244Y-29884D01*
X26293Y-29906D01*
X26345Y-29917D01*
X26398Y-29918D01*
X26451Y-29909D01*
X26501Y-29890D01*
X26546Y-29861D01*
X26585Y-29824D01*
X26616Y-29780D01*
X26637Y-29732D01*
X26649Y-29680D01*
X26650Y-29618D01*
X26650Y-32320D01*
X26560Y-32231D01*
X26536Y-32214D01*
X26509Y-32203D01*
X26481Y-32198D01*
X26452Y-32198D01*
X26423Y-32203D01*
X26396Y-32214D01*
X26377Y-32228D01*
X26295Y-32146D01*
X26296Y-32099D01*
X26296Y-31154D01*
X26285Y-31101D01*
X26265Y-31052D01*
X26235Y-31007D01*
X26201Y-30973D01*
X26201Y-30561D01*
X26231Y-30533D01*
X26261Y-30489D01*
X26283Y-30440D01*
X26295Y-30388D01*
X26296Y-30327D01*
X26285Y-30275D01*
X26265Y-30225D01*
X26235Y-30181D01*
X26198Y-30143D01*
X26153Y-30113D01*
X26104Y-30092D01*
X26052Y-30081D01*
X25998Y-30081D01*
X25946Y-30091D01*
X25896Y-30111D01*
X25851Y-30140D01*
X25813Y-30178D01*
X25783Y-30222D01*
X25762Y-30271D01*
X25751Y-30323D01*
X25750Y-30377D01*
X25760Y-30429D01*
X25779Y-30479D01*
X25808Y-30524D01*
X25845Y-30562D01*
X25845Y-30973D01*
X25813Y-31005D01*
X25783Y-31049D01*
X25762Y-31098D01*
X25751Y-31150D01*
X25750Y-31204D01*
X25760Y-31256D01*
X25779Y-31306D01*
X25808Y-31351D01*
X25846Y-31389D01*
X25889Y-31420D01*
X25938Y-31441D01*
X25991Y-31453D01*
X26044Y-31454D01*
X26097Y-31444D01*
X26147Y-31425D01*
X26192Y-31396D01*
X26231Y-31360D01*
X26261Y-31316D01*
X26283Y-31267D01*
X26295Y-31215D01*
X26296Y-31154D01*
X26296Y-32099D01*
X26285Y-32046D01*
X26265Y-31997D01*
X26235Y-31952D01*
X26198Y-31914D01*
X26153Y-31884D01*
X26104Y-31864D01*
X26052Y-31853D01*
X25998Y-31853D01*
X25946Y-31863D01*
X25896Y-31883D01*
X25851Y-31912D01*
X25813Y-31949D01*
X25783Y-31994D01*
X25762Y-32043D01*
X25751Y-32095D01*
X25750Y-32148D01*
X25760Y-32201D01*
X25779Y-32251D01*
X25808Y-32296D01*
X25846Y-32334D01*
X25889Y-32365D01*
X25938Y-32386D01*
X25991Y-32398D01*
X26044Y-32399D01*
X26045Y-32398D01*
X26125Y-32478D01*
X25962Y-32641D01*
X25946Y-32665D01*
X25935Y-32692D01*
X25934Y-32697D01*
X25801Y-32537D01*
X25273Y-31561D01*
X25273Y-29163D01*
X25273Y-29134D01*
X25273Y-28841D01*
X25273Y-28748D01*
X25273Y-28455D01*
X25273Y-28426D01*
X25267Y-28397D01*
X25256Y-28370D01*
X25240Y-28346D01*
X25220Y-28325D01*
X25195Y-28309D01*
X25169Y-28298D01*
X25140Y-28292D01*
X24897Y-28292D01*
X24860Y-28329D01*
X24860Y-28785D01*
X25236Y-28785D01*
X25273Y-28748D01*
X25273Y-28841D01*
X25236Y-28804D01*
X24860Y-28804D01*
X24860Y-29259D01*
X24897Y-29296D01*
X25140Y-29296D01*
X25169Y-29291D01*
X25195Y-29280D01*
X25220Y-29263D01*
X25240Y-29243D01*
X25256Y-29219D01*
X25267Y-29192D01*
X25273Y-29163D01*
X25273Y-31561D01*
X25023Y-31098D01*
X24539Y-29535D01*
X24512Y-29283D01*
X24531Y-29291D01*
X24560Y-29296D01*
X24803Y-29296D01*
X24840Y-29259D01*
X24840Y-28804D01*
X24832Y-28804D01*
X24832Y-28785D01*
X24840Y-28785D01*
X24840Y-28329D01*
X24803Y-28292D01*
X24560Y-28292D01*
X24531Y-28298D01*
X24504Y-28309D01*
X24480Y-28325D01*
X24460Y-28346D01*
X24443Y-28370D01*
X24432Y-28397D01*
X24427Y-28426D01*
X24427Y-28455D01*
X24427Y-28468D01*
X24367Y-27900D01*
X24367Y-27857D01*
X24427Y-27247D01*
X24427Y-27273D01*
X24432Y-27302D01*
X24443Y-27329D01*
X24460Y-27353D01*
X24480Y-27374D01*
X24504Y-27390D01*
X24531Y-27401D01*
X24560Y-27407D01*
X24589Y-27407D01*
X25140Y-27407D01*
X25169Y-27401D01*
X25195Y-27390D01*
X25220Y-27374D01*
X25240Y-27353D01*
X25256Y-27329D01*
X25267Y-27302D01*
X25273Y-27273D01*
X25273Y-27244D01*
X25273Y-26536D01*
X25267Y-26507D01*
X25256Y-26480D01*
X25240Y-26456D01*
X25220Y-26436D01*
X25195Y-26419D01*
X25169Y-26408D01*
X25140Y-26403D01*
X25111Y-26403D01*
X25040Y-26403D01*
X25084Y-26386D01*
X25129Y-26357D01*
X25168Y-26320D01*
X25198Y-26277D01*
X25220Y-26228D01*
X25232Y-26176D01*
X25233Y-26114D01*
X25222Y-26062D01*
X25202Y-26013D01*
X25172Y-25968D01*
X25135Y-25930D01*
X25090Y-25900D01*
X25041Y-25880D01*
X24989Y-25869D01*
X24935Y-25868D01*
X24883Y-25878D01*
X24833Y-25898D01*
X24788Y-25928D01*
X24750Y-25965D01*
X24720Y-26009D01*
X24699Y-26058D01*
X24688Y-26111D01*
X24687Y-26164D01*
X24689Y-26176D01*
X24687Y-26181D01*
X24686Y-26182D01*
X24686Y-26183D01*
X24681Y-26199D01*
X24676Y-26215D01*
X24676Y-26215D01*
X24676Y-26216D01*
X24674Y-26233D01*
X24672Y-26249D01*
X24672Y-26251D01*
X24672Y-26251D01*
X24672Y-26251D01*
X24672Y-26251D01*
X24672Y-26403D01*
X24560Y-26403D01*
X24531Y-26408D01*
X24508Y-26418D01*
X24527Y-26221D01*
X25000Y-24655D01*
X25768Y-23211D01*
X25888Y-23064D01*
X25896Y-23084D01*
X25912Y-23108D01*
X26084Y-23280D01*
X26136Y-23280D01*
X26458Y-22958D01*
X26453Y-22953D01*
X26466Y-22939D01*
X26472Y-22944D01*
X26794Y-22622D01*
X26794Y-22570D01*
X26622Y-22398D01*
X26598Y-22382D01*
X26571Y-22371D01*
X26542Y-22365D01*
X26513Y-22365D01*
X26485Y-22371D01*
X26458Y-22382D01*
X26434Y-22398D01*
X26420Y-22412D01*
X26802Y-21943D01*
X27303Y-21529D01*
X27248Y-21584D01*
X27232Y-21608D01*
X27221Y-21635D01*
X27215Y-21663D01*
X27215Y-21692D01*
X27221Y-21721D01*
X27232Y-21748D01*
X27248Y-21772D01*
X27269Y-21792D01*
X27659Y-22182D01*
X27683Y-22198D01*
X27710Y-22209D01*
X27738Y-22215D01*
X27767Y-22215D01*
X27796Y-22209D01*
X27823Y-22198D01*
X27847Y-22182D01*
X27867Y-22162D01*
X28368Y-21660D01*
X28385Y-21636D01*
X28396Y-21609D01*
X28401Y-21581D01*
X28401Y-21552D01*
X28396Y-21523D01*
X28385Y-21496D01*
X28368Y-21472D01*
X28348Y-21452D01*
X28289Y-21393D01*
X28416Y-21265D01*
X28458Y-21284D01*
X28510Y-21295D01*
X28564Y-21296D01*
X28616Y-21287D01*
X28666Y-21268D01*
X28711Y-21239D01*
X28750Y-21202D01*
X28781Y-21158D01*
X28803Y-21110D01*
X28815Y-21057D01*
X28815Y-20996D01*
X28805Y-20944D01*
X28785Y-20895D01*
X28755Y-20850D01*
X28717Y-20812D01*
X28673Y-20782D01*
X28624Y-20761D01*
X28571Y-20751D01*
X28518Y-20750D01*
X28465Y-20760D01*
X28416Y-20780D01*
X28371Y-20810D01*
X28333Y-20847D01*
X28317Y-20871D01*
X28310Y-20874D01*
X28310Y-20875D01*
X28309Y-20875D01*
X28296Y-20886D01*
X28283Y-20896D01*
X28282Y-20897D01*
X28282Y-20897D01*
X28282Y-20897D01*
X28282Y-20898D01*
X28038Y-21141D01*
X27958Y-21062D01*
X27934Y-21046D01*
X27907Y-21035D01*
X27902Y-21034D01*
X28062Y-20901D01*
X29501Y-20123D01*
X31064Y-19639D01*
X31316Y-19612D01*
X31308Y-19631D01*
X31303Y-19660D01*
X31303Y-19903D01*
X31340Y-19940D01*
X31795Y-19940D01*
X31795Y-19932D01*
X31814Y-19932D01*
X31814Y-19940D01*
X32270Y-19940D01*
X32307Y-19903D01*
X32307Y-19660D01*
X32301Y-19631D01*
X32290Y-19604D01*
X32274Y-19580D01*
X32253Y-19560D01*
X32229Y-19543D01*
X32202Y-19532D01*
X32173Y-19527D01*
X32144Y-19527D01*
X32131Y-19527D01*
X32699Y-19467D01*
X32742Y-19467D01*
X33352Y-19527D01*
X33326Y-19527D01*
X33297Y-19532D01*
X33270Y-19543D01*
X33246Y-19560D01*
X33225Y-19580D01*
X33209Y-19604D01*
X33198Y-19631D01*
X33192Y-19660D01*
X33192Y-19689D01*
X33192Y-20240D01*
X33198Y-20269D01*
X33209Y-20295D01*
X33225Y-20320D01*
X33246Y-20340D01*
X33270Y-20356D01*
X33297Y-20367D01*
X33326Y-20373D01*
X33355Y-20373D01*
X34063Y-20373D01*
X34092Y-20367D01*
X34119Y-20356D01*
X34143Y-20340D01*
X34163Y-20320D01*
X34180Y-20295D01*
X34191Y-20269D01*
X34196Y-20240D01*
X34196Y-20211D01*
X34196Y-20128D01*
X34220Y-20128D01*
X34224Y-20154D01*
X34244Y-20203D01*
X34273Y-20248D01*
X34310Y-20287D01*
X34354Y-20317D01*
X34403Y-20339D01*
X34455Y-20350D01*
X34509Y-20351D01*
X34561Y-20342D01*
X34611Y-20323D01*
X34656Y-20294D01*
X34695Y-20257D01*
X34726Y-20214D01*
X34748Y-20165D01*
X34759Y-20113D01*
X34760Y-20052D01*
X34750Y-19999D01*
X34730Y-19950D01*
X34700Y-19905D01*
X34662Y-19867D01*
X34618Y-19837D01*
X34569Y-19817D01*
X34516Y-19806D01*
X34463Y-19805D01*
X34462Y-19806D01*
X34460Y-19803D01*
X34459Y-19803D01*
X34458Y-19802D01*
X34444Y-19795D01*
X34429Y-19787D01*
X34428Y-19786D01*
X34428Y-19786D01*
X34412Y-19781D01*
X34396Y-19776D01*
X34395Y-19776D01*
X34394Y-19776D01*
X34378Y-19774D01*
X34362Y-19772D01*
X34360Y-19772D01*
X34360Y-19772D01*
X34360Y-19772D01*
X34359Y-19772D01*
X34196Y-19772D01*
X34196Y-19660D01*
X34191Y-19631D01*
X34181Y-19608D01*
X34378Y-19627D01*
X35944Y-20100D01*
X37388Y-20868D01*
X37585Y-21029D01*
X37570Y-21029D01*
X37542Y-21035D01*
X37515Y-21046D01*
X37491Y-21062D01*
X37319Y-21234D01*
X37319Y-21286D01*
X37641Y-21608D01*
X37907Y-21342D01*
X37907Y-21291D01*
X38656Y-21902D01*
X39309Y-22692D01*
X39015Y-22398D01*
X38991Y-22382D01*
X38964Y-22371D01*
X38936Y-22365D01*
X38907Y-22365D01*
X38878Y-22371D01*
X38851Y-22382D01*
X38827Y-22398D01*
X38807Y-22419D01*
X38417Y-22809D01*
X38401Y-22833D01*
X38390Y-22860D01*
X38384Y-22888D01*
X38384Y-22917D01*
X38390Y-22946D01*
X38401Y-22973D01*
X38417Y-22997D01*
X38437Y-23017D01*
X38939Y-23518D01*
X38963Y-23535D01*
X38990Y-23546D01*
X39018Y-23551D01*
X39047Y-23551D01*
X39076Y-23546D01*
X39103Y-23535D01*
X39127Y-23518D01*
X39129Y-23516D01*
X39155Y-23555D01*
X39192Y-23594D01*
X39236Y-23624D01*
X39285Y-23646D01*
X39337Y-23657D01*
X39391Y-23658D01*
X39443Y-23649D01*
X39493Y-23630D01*
X39538Y-23601D01*
X39577Y-23564D01*
X39608Y-23521D01*
X39630Y-23472D01*
X39641Y-23420D01*
X39642Y-23359D01*
X39632Y-23306D01*
X39611Y-23257D01*
X39582Y-23212D01*
X39544Y-23174D01*
X39500Y-23145D01*
X39537Y-23108D01*
X39553Y-23084D01*
X39564Y-23057D01*
X39570Y-23029D01*
X39570Y-23007D01*
X39698Y-23162D01*
X40476Y-24601D01*
X40960Y-26164D01*
X40987Y-26416D01*
X40968Y-26408D01*
X40939Y-26403D01*
X40696Y-26403D01*
X40659Y-26440D01*
X40659Y-26895D01*
X40667Y-26895D01*
X40667Y-26914D01*
X40659Y-26914D01*
X40659Y-27370D01*
X40696Y-27407D01*
X40939Y-27407D01*
X40968Y-27401D01*
X40995Y-27390D01*
X41019Y-27374D01*
X41039Y-27353D01*
X41056Y-27329D01*
X41067Y-27302D01*
X41072Y-27273D01*
X41072Y-27244D01*
X41072Y-27231D01*
X41132Y-27799D01*
X41132Y-27842D01*
X41132Y-27842D01*
G37*
G54D11*
X41132Y-27842D02*
X41072Y-28452D01*
X41072Y-28426D01*
X41067Y-28397D01*
X41056Y-28370D01*
X41039Y-28346D01*
X41019Y-28325D01*
X40995Y-28309D01*
X40968Y-28298D01*
X40939Y-28292D01*
X40910Y-28292D01*
X40639Y-28292D01*
X40639Y-27370D01*
X40639Y-26914D01*
X40639Y-26895D01*
X40639Y-26440D01*
X40602Y-26403D01*
X40359Y-26403D01*
X40330Y-26408D01*
X40304Y-26419D01*
X40279Y-26436D01*
X40259Y-26456D01*
X40243Y-26480D01*
X40232Y-26507D01*
X40226Y-26536D01*
X40226Y-26565D01*
X40226Y-26858D01*
X40263Y-26895D01*
X40639Y-26895D01*
X40639Y-26914D01*
X40263Y-26914D01*
X40226Y-26951D01*
X40226Y-27244D01*
X40226Y-27273D01*
X40232Y-27302D01*
X40243Y-27329D01*
X40259Y-27353D01*
X40279Y-27374D01*
X40304Y-27390D01*
X40330Y-27401D01*
X40359Y-27407D01*
X40602Y-27407D01*
X40639Y-27370D01*
X40639Y-28292D01*
X40359Y-28292D01*
X40330Y-28298D01*
X40304Y-28309D01*
X40279Y-28325D01*
X40259Y-28346D01*
X40243Y-28370D01*
X40232Y-28397D01*
X40226Y-28426D01*
X40226Y-28455D01*
X40226Y-29163D01*
X40232Y-29192D01*
X40243Y-29219D01*
X40259Y-29243D01*
X40279Y-29263D01*
X40304Y-29280D01*
X40330Y-29291D01*
X40357Y-29296D01*
X40341Y-29312D01*
X40311Y-29356D01*
X40290Y-29405D01*
X40278Y-29457D01*
X40278Y-29511D01*
X40287Y-29563D01*
X40307Y-29613D01*
X40336Y-29658D01*
X40373Y-29696D01*
X40417Y-29727D01*
X40466Y-29748D01*
X40518Y-29760D01*
X40572Y-29761D01*
X40624Y-29752D01*
X40674Y-29732D01*
X40719Y-29704D01*
X40758Y-29667D01*
X40789Y-29623D01*
X40811Y-29574D01*
X40822Y-29522D01*
X40823Y-29461D01*
X40819Y-29439D01*
X40823Y-29426D01*
X40823Y-29425D01*
X40823Y-29424D01*
X40825Y-29408D01*
X40827Y-29392D01*
X40827Y-29390D01*
X40827Y-29390D01*
X40827Y-29390D01*
X40827Y-29389D01*
X40827Y-29296D01*
X40939Y-29296D01*
X40968Y-29291D01*
X40991Y-29281D01*
X40972Y-29478D01*
X40499Y-31044D01*
X40213Y-31581D01*
X40213Y-29461D01*
X40203Y-29409D01*
X40182Y-29359D01*
X40153Y-29315D01*
X40115Y-29277D01*
X40071Y-29247D01*
X40021Y-29226D01*
X39969Y-29215D01*
X39916Y-29215D01*
X39863Y-29225D01*
X39814Y-29245D01*
X39773Y-29271D01*
X39773Y-29163D01*
X39773Y-29134D01*
X39773Y-28426D01*
X39773Y-27273D01*
X39773Y-27244D01*
X39773Y-26536D01*
X39767Y-26507D01*
X39756Y-26480D01*
X39740Y-26456D01*
X39720Y-26436D01*
X39695Y-26419D01*
X39669Y-26408D01*
X39642Y-26403D01*
X39642Y-24992D01*
X39632Y-24940D01*
X39611Y-24891D01*
X39582Y-24846D01*
X39544Y-24808D01*
X39528Y-24797D01*
X39528Y-24400D01*
X39557Y-24371D01*
X39588Y-24328D01*
X39610Y-24279D01*
X39622Y-24227D01*
X39623Y-24166D01*
X39612Y-24113D01*
X39592Y-24064D01*
X39562Y-24019D01*
X39525Y-23981D01*
X39480Y-23951D01*
X39431Y-23931D01*
X39379Y-23920D01*
X39325Y-23920D01*
X39273Y-23930D01*
X39223Y-23950D01*
X39178Y-23979D01*
X39140Y-24016D01*
X39110Y-24060D01*
X39089Y-24110D01*
X39078Y-24162D01*
X39077Y-24215D01*
X39087Y-24268D01*
X39106Y-24318D01*
X39135Y-24363D01*
X39172Y-24401D01*
X39172Y-24831D01*
X39160Y-24843D01*
X39130Y-24887D01*
X39108Y-24936D01*
X39097Y-24989D01*
X39097Y-25042D01*
X39106Y-25095D01*
X39126Y-25144D01*
X39155Y-25189D01*
X39192Y-25228D01*
X39236Y-25258D01*
X39285Y-25280D01*
X39337Y-25291D01*
X39391Y-25292D01*
X39443Y-25283D01*
X39493Y-25264D01*
X39538Y-25235D01*
X39577Y-25198D01*
X39608Y-25155D01*
X39630Y-25106D01*
X39641Y-25054D01*
X39642Y-24992D01*
X39642Y-26403D01*
X39640Y-26403D01*
X39611Y-26403D01*
X39528Y-26403D01*
X39528Y-26358D01*
X39526Y-26341D01*
X39525Y-26325D01*
X39524Y-26324D01*
X39524Y-26323D01*
X39519Y-26308D01*
X39515Y-26292D01*
X39514Y-26291D01*
X39514Y-26290D01*
X39506Y-26276D01*
X39499Y-26261D01*
X39498Y-26260D01*
X39498Y-26259D01*
X39487Y-26247D01*
X39477Y-26234D01*
X39476Y-26233D01*
X39476Y-26233D01*
X39476Y-26233D01*
X39476Y-26232D01*
X39361Y-26118D01*
X39366Y-26097D01*
X39367Y-26036D01*
X39356Y-25983D01*
X39336Y-25934D01*
X39306Y-25889D01*
X39269Y-25851D01*
X39224Y-25822D01*
X39175Y-25801D01*
X39123Y-25790D01*
X39069Y-25790D01*
X39017Y-25800D01*
X38967Y-25820D01*
X38922Y-25849D01*
X38884Y-25886D01*
X38854Y-25931D01*
X38833Y-25980D01*
X38822Y-26032D01*
X38821Y-26085D01*
X38831Y-26138D01*
X38850Y-26188D01*
X38879Y-26233D01*
X38916Y-26271D01*
X38960Y-26302D01*
X39009Y-26323D01*
X39062Y-26335D01*
X39076Y-26335D01*
X39144Y-26403D01*
X39060Y-26403D01*
X39031Y-26408D01*
X39004Y-26419D01*
X38980Y-26436D01*
X38960Y-26456D01*
X38943Y-26480D01*
X38932Y-26507D01*
X38927Y-26536D01*
X38927Y-26565D01*
X38927Y-27273D01*
X38932Y-27302D01*
X38943Y-27329D01*
X38960Y-27353D01*
X38980Y-27374D01*
X39004Y-27390D01*
X39031Y-27401D01*
X39060Y-27407D01*
X39089Y-27407D01*
X39640Y-27407D01*
X39669Y-27401D01*
X39695Y-27390D01*
X39720Y-27374D01*
X39740Y-27353D01*
X39756Y-27329D01*
X39767Y-27302D01*
X39773Y-27273D01*
X39773Y-28426D01*
X39767Y-28397D01*
X39756Y-28370D01*
X39740Y-28346D01*
X39720Y-28325D01*
X39695Y-28309D01*
X39669Y-28298D01*
X39640Y-28292D01*
X39611Y-28292D01*
X39060Y-28292D01*
X39031Y-28298D01*
X39004Y-28309D01*
X38980Y-28325D01*
X38960Y-28346D01*
X38943Y-28370D01*
X38932Y-28397D01*
X38927Y-28426D01*
X38927Y-28455D01*
X38927Y-29163D01*
X38932Y-29192D01*
X38943Y-29219D01*
X38960Y-29243D01*
X38980Y-29263D01*
X39004Y-29280D01*
X39031Y-29291D01*
X39060Y-29296D01*
X39089Y-29296D01*
X39640Y-29296D01*
X39669Y-29291D01*
X39695Y-29280D01*
X39720Y-29263D01*
X39740Y-29243D01*
X39756Y-29219D01*
X39767Y-29192D01*
X39773Y-29163D01*
X39773Y-29271D01*
X39769Y-29274D01*
X39731Y-29312D01*
X39700Y-29356D01*
X39679Y-29405D01*
X39668Y-29457D01*
X39668Y-29489D01*
X39135Y-30022D01*
X39089Y-30022D01*
X39036Y-30032D01*
X38987Y-30052D01*
X38942Y-30081D01*
X38904Y-30119D01*
X38874Y-30163D01*
X38853Y-30212D01*
X38841Y-30264D01*
X38841Y-30318D01*
X38850Y-30370D01*
X38870Y-30420D01*
X38899Y-30465D01*
X38936Y-30503D01*
X38980Y-30534D01*
X39029Y-30555D01*
X39081Y-30567D01*
X39135Y-30568D01*
X39187Y-30559D01*
X39237Y-30539D01*
X39282Y-30511D01*
X39321Y-30474D01*
X39352Y-30430D01*
X39374Y-30381D01*
X39385Y-30329D01*
X39386Y-30273D01*
X39901Y-29758D01*
X39908Y-29760D01*
X39961Y-29761D01*
X40014Y-29752D01*
X40064Y-29732D01*
X40109Y-29704D01*
X40148Y-29667D01*
X40179Y-29623D01*
X40200Y-29574D01*
X40212Y-29522D01*
X40213Y-29461D01*
X40213Y-31581D01*
X39731Y-32488D01*
X39564Y-32692D01*
X39564Y-32692D01*
X39553Y-32665D01*
X39537Y-32641D01*
X39365Y-32469D01*
X39313Y-32469D01*
X39299Y-32483D01*
X39299Y-32455D01*
X39299Y-32403D01*
X39127Y-32231D01*
X39103Y-32214D01*
X39076Y-32203D01*
X39047Y-32198D01*
X39018Y-32198D01*
X38990Y-32203D01*
X38963Y-32214D01*
X38939Y-32231D01*
X38918Y-32251D01*
X38802Y-32367D01*
X38802Y-25427D01*
X38802Y-25394D01*
X38795Y-25361D01*
X38783Y-25331D01*
X38764Y-25303D01*
X38741Y-25280D01*
X38651Y-25190D01*
X38651Y-23947D01*
X38651Y-23918D01*
X38646Y-23890D01*
X38635Y-23863D01*
X38618Y-23839D01*
X38598Y-23818D01*
X38234Y-23454D01*
X38234Y-21692D01*
X38234Y-21663D01*
X38228Y-21635D01*
X38217Y-21608D01*
X38201Y-21584D01*
X38180Y-21563D01*
X37973Y-21356D01*
X37921Y-21356D01*
X37655Y-21622D01*
X37977Y-21944D01*
X38029Y-21944D01*
X38201Y-21772D01*
X38217Y-21748D01*
X38228Y-21721D01*
X38234Y-21692D01*
X38234Y-23454D01*
X38097Y-23317D01*
X38073Y-23301D01*
X38046Y-23290D01*
X38017Y-23284D01*
X37988Y-23284D01*
X37963Y-23289D01*
X37963Y-22010D01*
X37963Y-21958D01*
X37641Y-21636D01*
X37627Y-21650D01*
X37627Y-21622D01*
X37305Y-21300D01*
X37253Y-21300D01*
X37081Y-21472D01*
X37064Y-21496D01*
X37053Y-21523D01*
X37048Y-21552D01*
X37048Y-21581D01*
X37053Y-21609D01*
X37064Y-21636D01*
X37081Y-21660D01*
X37101Y-21681D01*
X37308Y-21888D01*
X37361Y-21888D01*
X37627Y-21622D01*
X37627Y-21650D01*
X37374Y-21902D01*
X37374Y-21954D01*
X37582Y-22162D01*
X37602Y-22182D01*
X37626Y-22198D01*
X37653Y-22209D01*
X37682Y-22215D01*
X37711Y-22215D01*
X37739Y-22209D01*
X37766Y-22198D01*
X37791Y-22182D01*
X37963Y-22010D01*
X37963Y-23289D01*
X37960Y-23290D01*
X37933Y-23301D01*
X37909Y-23317D01*
X37888Y-23337D01*
X37498Y-23727D01*
X37482Y-23751D01*
X37471Y-23778D01*
X37465Y-23807D01*
X37465Y-23836D01*
X37471Y-23864D01*
X37482Y-23891D01*
X37498Y-23915D01*
X37519Y-23936D01*
X38020Y-24437D01*
X38044Y-24453D01*
X38071Y-24464D01*
X38099Y-24470D01*
X38129Y-24470D01*
X38157Y-24464D01*
X38184Y-24453D01*
X38208Y-24437D01*
X38229Y-24417D01*
X38618Y-24027D01*
X38635Y-24003D01*
X38646Y-23976D01*
X38651Y-23947D01*
X38651Y-25190D01*
X38317Y-24856D01*
X38289Y-24838D01*
X38259Y-24825D01*
X38227Y-24819D01*
X38194Y-24819D01*
X38161Y-24825D01*
X38131Y-24838D01*
X38103Y-24856D01*
X38080Y-24879D01*
X37681Y-25279D01*
X37681Y-25135D01*
X37715Y-25122D01*
X37792Y-25073D01*
X37859Y-25010D01*
X37911Y-24935D01*
X37949Y-24851D01*
X37969Y-24762D01*
X37970Y-24657D01*
X37953Y-24567D01*
X37918Y-24483D01*
X37867Y-24406D01*
X37802Y-24341D01*
X37726Y-24290D01*
X37642Y-24254D01*
X37552Y-24236D01*
X37460Y-24235D01*
X37370Y-24253D01*
X37285Y-24287D01*
X37209Y-24337D01*
X37143Y-24401D01*
X37092Y-24477D01*
X37055Y-24561D01*
X37036Y-24651D01*
X37035Y-24742D01*
X37052Y-24832D01*
X37085Y-24918D01*
X37135Y-24995D01*
X37199Y-25061D01*
X37274Y-25113D01*
X37325Y-25135D01*
X37325Y-25712D01*
X37008Y-26030D01*
X37008Y-24415D01*
X37085Y-24366D01*
X37151Y-24303D01*
X37204Y-24228D01*
X37242Y-24144D01*
X37262Y-24055D01*
X37263Y-23950D01*
X37245Y-23860D01*
X37211Y-23775D01*
X37160Y-23699D01*
X37095Y-23634D01*
X37019Y-23583D01*
X36935Y-23547D01*
X36845Y-23529D01*
X36753Y-23528D01*
X36663Y-23545D01*
X36578Y-23580D01*
X36502Y-23630D01*
X36436Y-23694D01*
X36384Y-23770D01*
X36348Y-23854D01*
X36329Y-23944D01*
X36328Y-24035D01*
X36345Y-24125D01*
X36378Y-24211D01*
X36428Y-24288D01*
X36492Y-24354D01*
X36567Y-24406D01*
X36651Y-24443D01*
X36653Y-24443D01*
X36653Y-26028D01*
X36424Y-26257D01*
X36424Y-25054D01*
X36387Y-24867D01*
X36314Y-24690D01*
X36208Y-24531D01*
X36074Y-24395D01*
X35915Y-24288D01*
X35739Y-24214D01*
X35552Y-24176D01*
X35361Y-24174D01*
X35173Y-24210D01*
X34996Y-24282D01*
X34836Y-24386D01*
X34699Y-24520D01*
X34591Y-24678D01*
X34516Y-24853D01*
X34476Y-25040D01*
X34474Y-25231D01*
X34508Y-25419D01*
X34579Y-25597D01*
X34682Y-25758D01*
X34815Y-25895D01*
X34972Y-26004D01*
X35147Y-26081D01*
X35334Y-26122D01*
X35525Y-26126D01*
X35713Y-26093D01*
X35891Y-26023D01*
X36052Y-25921D01*
X36191Y-25789D01*
X36301Y-25633D01*
X36379Y-25459D01*
X36421Y-25272D01*
X36424Y-25054D01*
X36424Y-26257D01*
X36402Y-26279D01*
X34778Y-26279D01*
X34323Y-25824D01*
X34310Y-25813D01*
X34298Y-25803D01*
X34297Y-25802D01*
X34296Y-25802D01*
X34282Y-25794D01*
X34268Y-25786D01*
X34267Y-25786D01*
X34266Y-25786D01*
X34250Y-25781D01*
X34234Y-25776D01*
X34234Y-25776D01*
X34233Y-25775D01*
X34216Y-25774D01*
X34200Y-25772D01*
X34198Y-25772D01*
X34198Y-25772D01*
X34198Y-25772D01*
X34198Y-25772D01*
X34078Y-25772D01*
X34078Y-25541D01*
X34072Y-25513D01*
X34061Y-25486D01*
X34045Y-25462D01*
X34024Y-25441D01*
X34000Y-25425D01*
X33973Y-25414D01*
X33945Y-25408D01*
X33915Y-25408D01*
X33818Y-25408D01*
X34062Y-25164D01*
X34073Y-25152D01*
X34083Y-25139D01*
X34084Y-25138D01*
X34084Y-25138D01*
X34092Y-25123D01*
X34100Y-25109D01*
X34100Y-25108D01*
X34101Y-25107D01*
X34105Y-25091D01*
X34110Y-25076D01*
X34110Y-25075D01*
X34111Y-25074D01*
X34112Y-25058D01*
X34114Y-25041D01*
X34114Y-25040D01*
X34114Y-25039D01*
X34114Y-25039D01*
X34114Y-25039D01*
X34114Y-24994D01*
X35642Y-23466D01*
X35657Y-23466D01*
X35671Y-23503D01*
X35721Y-23581D01*
X35784Y-23646D01*
X35860Y-23699D01*
X35944Y-23735D01*
X36033Y-23755D01*
X36125Y-23757D01*
X36215Y-23741D01*
X36301Y-23708D01*
X36378Y-23659D01*
X36444Y-23596D01*
X36497Y-23521D01*
X36534Y-23437D01*
X36555Y-23348D01*
X36556Y-23243D01*
X36538Y-23153D01*
X36503Y-23068D01*
X36453Y-22992D01*
X36388Y-22927D01*
X36312Y-22876D01*
X36228Y-22840D01*
X36138Y-22822D01*
X36046Y-22821D01*
X35956Y-22838D01*
X35871Y-22873D01*
X35795Y-22923D01*
X35729Y-22987D01*
X35677Y-23063D01*
X35657Y-23111D01*
X35568Y-23111D01*
X35552Y-23113D01*
X35536Y-23114D01*
X35535Y-23114D01*
X35534Y-23115D01*
X35518Y-23119D01*
X35502Y-23124D01*
X35502Y-23124D01*
X35501Y-23125D01*
X35486Y-23132D01*
X35472Y-23140D01*
X35471Y-23140D01*
X35470Y-23141D01*
X35457Y-23151D01*
X35445Y-23161D01*
X35443Y-23163D01*
X35443Y-23163D01*
X35443Y-23163D01*
X35443Y-23163D01*
X35020Y-23586D01*
X35020Y-22659D01*
X35020Y-22659D01*
X35104Y-22696D01*
X35194Y-22716D01*
X35286Y-22718D01*
X35376Y-22702D01*
X35461Y-22669D01*
X35539Y-22620D01*
X35605Y-22556D01*
X35658Y-22481D01*
X35695Y-22398D01*
X35713Y-22319D01*
X35727Y-22334D01*
X35771Y-22365D01*
X35820Y-22386D01*
X35873Y-22398D01*
X35926Y-22399D01*
X35935Y-22397D01*
X35939Y-22399D01*
X35953Y-22407D01*
X35954Y-22407D01*
X35955Y-22408D01*
X35971Y-22412D01*
X35986Y-22417D01*
X35987Y-22417D01*
X35988Y-22418D01*
X36004Y-22419D01*
X36021Y-22421D01*
X36022Y-22421D01*
X36023Y-22421D01*
X36023Y-22421D01*
X36023Y-22421D01*
X36143Y-22421D01*
X36135Y-22442D01*
X36129Y-22470D01*
X36129Y-22500D01*
X36135Y-22528D01*
X36146Y-22555D01*
X36162Y-22579D01*
X36182Y-22600D01*
X36684Y-23101D01*
X36708Y-23117D01*
X36735Y-23128D01*
X36763Y-23134D01*
X36792Y-23134D01*
X36821Y-23128D01*
X36848Y-23117D01*
X36872Y-23101D01*
X36892Y-23080D01*
X37282Y-22691D01*
X37298Y-22666D01*
X37309Y-22639D01*
X37315Y-22611D01*
X37315Y-22582D01*
X37309Y-22553D01*
X37298Y-22526D01*
X37282Y-22502D01*
X37262Y-22482D01*
X36760Y-21981D01*
X36736Y-21964D01*
X36709Y-21953D01*
X36681Y-21948D01*
X36652Y-21948D01*
X36623Y-21953D01*
X36596Y-21964D01*
X36572Y-21981D01*
X36552Y-22001D01*
X36478Y-22075D01*
X36478Y-22075D01*
X36462Y-22070D01*
X36461Y-22070D01*
X36460Y-22069D01*
X36444Y-22068D01*
X36427Y-22066D01*
X36426Y-22066D01*
X36426Y-22066D01*
X36426Y-22066D01*
X36425Y-22066D01*
X36171Y-22066D01*
X36167Y-22046D01*
X36147Y-21997D01*
X36117Y-21952D01*
X36080Y-21914D01*
X36035Y-21884D01*
X35986Y-21864D01*
X35934Y-21853D01*
X35880Y-21853D01*
X35828Y-21863D01*
X35778Y-21883D01*
X35733Y-21912D01*
X35695Y-21949D01*
X35665Y-21994D01*
X35655Y-22016D01*
X35613Y-21953D01*
X35549Y-21888D01*
X35484Y-21844D01*
X35497Y-21839D01*
X35542Y-21810D01*
X35581Y-21773D01*
X35612Y-21729D01*
X35633Y-21680D01*
X35645Y-21628D01*
X35646Y-21567D01*
X35636Y-21515D01*
X35615Y-21465D01*
X35586Y-21421D01*
X35548Y-21383D01*
X35504Y-21353D01*
X35455Y-21332D01*
X35402Y-21322D01*
X35352Y-21321D01*
X35075Y-21044D01*
X35075Y-20996D01*
X35065Y-20944D01*
X35045Y-20895D01*
X35015Y-20850D01*
X34977Y-20812D01*
X34933Y-20782D01*
X34884Y-20761D01*
X34831Y-20751D01*
X34778Y-20750D01*
X34725Y-20760D01*
X34676Y-20780D01*
X34631Y-20810D01*
X34593Y-20847D01*
X34563Y-20891D01*
X34542Y-20940D01*
X34530Y-20993D01*
X34530Y-21046D01*
X34539Y-21099D01*
X34559Y-21148D01*
X34588Y-21193D01*
X34625Y-21232D01*
X34669Y-21262D01*
X34718Y-21284D01*
X34770Y-21295D01*
X34824Y-21296D01*
X34824Y-21296D01*
X35101Y-21573D01*
X35101Y-21617D01*
X35110Y-21670D01*
X35130Y-21719D01*
X35159Y-21764D01*
X35181Y-21787D01*
X35117Y-21799D01*
X35032Y-21833D01*
X34955Y-21884D01*
X34917Y-21921D01*
X34912Y-21911D01*
X34912Y-21910D01*
X34911Y-21909D01*
X34901Y-21896D01*
X34891Y-21884D01*
X34889Y-21882D01*
X34889Y-21882D01*
X34889Y-21882D01*
X34889Y-21882D01*
X34613Y-21606D01*
X34601Y-21596D01*
X34588Y-21585D01*
X34587Y-21585D01*
X34587Y-21584D01*
X34572Y-21576D01*
X34558Y-21569D01*
X34557Y-21568D01*
X34556Y-21568D01*
X34540Y-21563D01*
X34525Y-21558D01*
X34524Y-21558D01*
X34523Y-21558D01*
X34506Y-21556D01*
X34490Y-21554D01*
X34488Y-21554D01*
X34488Y-21554D01*
X34488Y-21554D01*
X34488Y-21554D01*
X34193Y-21554D01*
X34196Y-21539D01*
X34196Y-21510D01*
X34196Y-20959D01*
X34191Y-20930D01*
X34180Y-20904D01*
X34163Y-20879D01*
X34143Y-20859D01*
X34119Y-20843D01*
X34092Y-20832D01*
X34063Y-20826D01*
X34034Y-20826D01*
X33326Y-20826D01*
X33297Y-20832D01*
X33270Y-20843D01*
X33246Y-20859D01*
X33225Y-20879D01*
X33209Y-20904D01*
X33198Y-20930D01*
X33192Y-20959D01*
X33192Y-20988D01*
X33192Y-21539D01*
X33198Y-21568D01*
X33209Y-21595D01*
X33225Y-21619D01*
X33246Y-21639D01*
X33270Y-21656D01*
X33297Y-21667D01*
X33326Y-21672D01*
X33355Y-21672D01*
X33509Y-21672D01*
X33381Y-21799D01*
X33299Y-21782D01*
X33207Y-21782D01*
X33117Y-21799D01*
X33032Y-21833D01*
X32955Y-21884D01*
X32890Y-21948D01*
X32838Y-22023D01*
X32802Y-22108D01*
X32783Y-22197D01*
X32782Y-22289D01*
X32798Y-22379D01*
X32832Y-22464D01*
X32881Y-22541D01*
X32945Y-22607D01*
X33020Y-22659D01*
X33104Y-22696D01*
X33194Y-22716D01*
X33286Y-22718D01*
X33376Y-22702D01*
X33461Y-22669D01*
X33539Y-22620D01*
X33605Y-22556D01*
X33658Y-22481D01*
X33695Y-22398D01*
X33715Y-22308D01*
X33717Y-22204D01*
X33699Y-22114D01*
X33664Y-22029D01*
X33660Y-22023D01*
X33774Y-21909D01*
X33929Y-21909D01*
X33890Y-21948D01*
X33838Y-22023D01*
X33802Y-22108D01*
X33783Y-22197D01*
X33782Y-22289D01*
X33798Y-22379D01*
X33832Y-22464D01*
X33881Y-22541D01*
X33945Y-22607D01*
X34020Y-22659D01*
X34104Y-22696D01*
X34194Y-22716D01*
X34286Y-22718D01*
X34376Y-22702D01*
X34428Y-22681D01*
X34428Y-23512D01*
X34396Y-23544D01*
X34366Y-23588D01*
X34345Y-23637D01*
X34334Y-23689D01*
X34333Y-23743D01*
X34342Y-23795D01*
X34362Y-23845D01*
X34391Y-23890D01*
X34428Y-23929D01*
X34459Y-23950D01*
X34192Y-24217D01*
X34192Y-23541D01*
X34192Y-23508D01*
X34192Y-22958D01*
X34185Y-22926D01*
X34173Y-22895D01*
X34154Y-22868D01*
X34131Y-22845D01*
X34104Y-22826D01*
X34073Y-22814D01*
X34041Y-22807D01*
X34008Y-22807D01*
X33458Y-22807D01*
X33426Y-22814D01*
X33395Y-22826D01*
X33368Y-22845D01*
X33345Y-22868D01*
X33326Y-22895D01*
X33314Y-22926D01*
X33307Y-22958D01*
X33307Y-22991D01*
X33307Y-23541D01*
X33314Y-23573D01*
X33326Y-23604D01*
X33345Y-23631D01*
X33368Y-23654D01*
X33395Y-23673D01*
X33426Y-23685D01*
X33458Y-23692D01*
X33491Y-23692D01*
X34041Y-23692D01*
X34073Y-23685D01*
X34104Y-23673D01*
X34131Y-23654D01*
X34154Y-23631D01*
X34173Y-23604D01*
X34185Y-23573D01*
X34192Y-23541D01*
X34192Y-24217D01*
X33520Y-24890D01*
X33486Y-24876D01*
X33457Y-24870D01*
X33473Y-24859D01*
X33494Y-24839D01*
X33510Y-24814D01*
X33521Y-24788D01*
X33527Y-24759D01*
X33527Y-24730D01*
X33527Y-24496D01*
X33527Y-24403D01*
X33527Y-24169D01*
X33527Y-24140D01*
X33521Y-24111D01*
X33510Y-24085D01*
X33494Y-24060D01*
X33473Y-24040D01*
X33449Y-24024D01*
X33422Y-24013D01*
X33394Y-24007D01*
X33192Y-24007D01*
X33192Y-23206D01*
X33175Y-23121D01*
X33142Y-23041D01*
X33094Y-22969D01*
X33033Y-22907D01*
X32961Y-22859D01*
X32881Y-22825D01*
X32796Y-22807D01*
X32709Y-22807D01*
X32699Y-22809D01*
X32699Y-22257D01*
X32692Y-22169D01*
X32668Y-22085D01*
X32628Y-22006D01*
X32619Y-21993D01*
X32548Y-21965D01*
X32534Y-21979D01*
X32534Y-21951D01*
X32506Y-21880D01*
X32429Y-21837D01*
X32345Y-21810D01*
X32307Y-21805D01*
X32307Y-21539D01*
X32307Y-21510D01*
X32307Y-20959D01*
X32307Y-20240D01*
X32307Y-19997D01*
X32270Y-19960D01*
X31814Y-19960D01*
X31814Y-20336D01*
X31851Y-20373D01*
X32144Y-20373D01*
X32173Y-20373D01*
X32202Y-20367D01*
X32229Y-20356D01*
X32253Y-20340D01*
X32274Y-20320D01*
X32290Y-20295D01*
X32301Y-20269D01*
X32307Y-20240D01*
X32307Y-20959D01*
X32301Y-20930D01*
X32290Y-20904D01*
X32274Y-20879D01*
X32253Y-20859D01*
X32229Y-20843D01*
X32202Y-20832D01*
X32173Y-20826D01*
X32144Y-20826D01*
X31795Y-20826D01*
X31795Y-20336D01*
X31795Y-19960D01*
X31340Y-19960D01*
X31303Y-19997D01*
X31303Y-20240D01*
X31308Y-20269D01*
X31319Y-20295D01*
X31336Y-20320D01*
X31356Y-20340D01*
X31380Y-20356D01*
X31407Y-20367D01*
X31436Y-20373D01*
X31465Y-20373D01*
X31758Y-20373D01*
X31795Y-20336D01*
X31795Y-20826D01*
X31436Y-20826D01*
X31407Y-20832D01*
X31380Y-20843D01*
X31356Y-20859D01*
X31336Y-20879D01*
X31319Y-20904D01*
X31308Y-20930D01*
X31303Y-20959D01*
X31303Y-20988D01*
X31303Y-21071D01*
X31151Y-21071D01*
X31135Y-21073D01*
X31119Y-21075D01*
X31118Y-21075D01*
X31117Y-21075D01*
X31101Y-21080D01*
X31085Y-21084D01*
X31085Y-21085D01*
X31084Y-21085D01*
X31069Y-21093D01*
X31055Y-21100D01*
X31054Y-21101D01*
X31053Y-21101D01*
X31040Y-21112D01*
X31028Y-21122D01*
X31026Y-21123D01*
X31026Y-21123D01*
X31026Y-21123D01*
X31026Y-21123D01*
X31005Y-21144D01*
X30959Y-21144D01*
X30906Y-21154D01*
X30857Y-21174D01*
X30812Y-21203D01*
X30774Y-21241D01*
X30744Y-21285D01*
X30723Y-21334D01*
X30712Y-21386D01*
X30711Y-21440D01*
X30720Y-21492D01*
X30740Y-21542D01*
X30769Y-21587D01*
X30806Y-21625D01*
X30850Y-21656D01*
X30899Y-21677D01*
X30951Y-21689D01*
X31005Y-21690D01*
X31057Y-21681D01*
X31107Y-21661D01*
X31152Y-21633D01*
X31191Y-21596D01*
X31222Y-21552D01*
X31244Y-21503D01*
X31256Y-21451D01*
X31256Y-21427D01*
X31303Y-21427D01*
X31303Y-21539D01*
X31308Y-21568D01*
X31319Y-21595D01*
X31336Y-21619D01*
X31356Y-21639D01*
X31380Y-21656D01*
X31407Y-21667D01*
X31436Y-21672D01*
X31465Y-21672D01*
X32173Y-21672D01*
X32202Y-21667D01*
X32229Y-21656D01*
X32253Y-21639D01*
X32274Y-21619D01*
X32290Y-21595D01*
X32301Y-21568D01*
X32307Y-21539D01*
X32307Y-21805D01*
X32257Y-21800D01*
X32169Y-21807D01*
X32085Y-21831D01*
X32006Y-21871D01*
X31993Y-21880D01*
X31965Y-21951D01*
X32250Y-22236D01*
X32534Y-21951D01*
X32534Y-21979D01*
X32263Y-22250D01*
X32548Y-22534D01*
X32619Y-22506D01*
X32662Y-22429D01*
X32689Y-22345D01*
X32699Y-22257D01*
X32699Y-22809D01*
X32642Y-22820D01*
X32464Y-22642D01*
X32493Y-22628D01*
X32506Y-22619D01*
X32534Y-22548D01*
X32250Y-22263D01*
X32244Y-22269D01*
X32230Y-22255D01*
X32236Y-22250D01*
X31951Y-21965D01*
X31880Y-21993D01*
X31837Y-22070D01*
X31810Y-22154D01*
X31800Y-22242D01*
X31807Y-22330D01*
X31831Y-22414D01*
X31871Y-22493D01*
X31880Y-22506D01*
X31934Y-22528D01*
X31625Y-22528D01*
X31658Y-22481D01*
X31695Y-22398D01*
X31715Y-22308D01*
X31717Y-22204D01*
X31699Y-22114D01*
X31664Y-22029D01*
X31613Y-21953D01*
X31549Y-21888D01*
X31473Y-21836D01*
X31388Y-21801D01*
X31299Y-21782D01*
X31207Y-21782D01*
X31117Y-21799D01*
X31032Y-21833D01*
X30955Y-21884D01*
X30890Y-21948D01*
X30838Y-22023D01*
X30802Y-22108D01*
X30783Y-22197D01*
X30782Y-22289D01*
X30798Y-22379D01*
X30832Y-22464D01*
X30881Y-22541D01*
X30945Y-22607D01*
X31020Y-22659D01*
X31029Y-22663D01*
X30858Y-22835D01*
X30522Y-22835D01*
X30522Y-22763D01*
X30521Y-22755D01*
X30521Y-22717D01*
X30566Y-22717D01*
X30598Y-22710D01*
X30629Y-22698D01*
X30656Y-22679D01*
X30679Y-22656D01*
X30698Y-22629D01*
X30710Y-22598D01*
X30717Y-22566D01*
X30717Y-22533D01*
X30717Y-21933D01*
X30710Y-21901D01*
X30698Y-21870D01*
X30679Y-21843D01*
X30656Y-21820D01*
X30629Y-21801D01*
X30607Y-21792D01*
X30607Y-20996D01*
X30596Y-20944D01*
X30576Y-20895D01*
X30546Y-20850D01*
X30509Y-20812D01*
X30464Y-20782D01*
X30415Y-20761D01*
X30363Y-20751D01*
X30309Y-20750D01*
X30257Y-20760D01*
X30207Y-20780D01*
X30162Y-20810D01*
X30126Y-20845D01*
X29577Y-20845D01*
X29544Y-20812D01*
X29500Y-20782D01*
X29451Y-20761D01*
X29398Y-20751D01*
X29345Y-20750D01*
X29292Y-20760D01*
X29243Y-20780D01*
X29198Y-20810D01*
X29160Y-20847D01*
X29130Y-20891D01*
X29108Y-20940D01*
X29097Y-20993D01*
X29097Y-21046D01*
X29106Y-21099D01*
X29126Y-21148D01*
X29155Y-21193D01*
X29192Y-21232D01*
X29236Y-21262D01*
X29285Y-21284D01*
X29337Y-21295D01*
X29391Y-21296D01*
X29443Y-21287D01*
X29493Y-21268D01*
X29538Y-21239D01*
X29577Y-21202D01*
X29578Y-21201D01*
X30127Y-21201D01*
X30157Y-21232D01*
X30200Y-21262D01*
X30249Y-21284D01*
X30302Y-21295D01*
X30355Y-21296D01*
X30408Y-21287D01*
X30458Y-21268D01*
X30503Y-21239D01*
X30542Y-21202D01*
X30572Y-21158D01*
X30594Y-21110D01*
X30606Y-21057D01*
X30607Y-20996D01*
X30607Y-21792D01*
X30598Y-21789D01*
X30566Y-21782D01*
X30533Y-21782D01*
X29933Y-21782D01*
X29901Y-21789D01*
X29870Y-21801D01*
X29843Y-21820D01*
X29820Y-21843D01*
X29801Y-21870D01*
X29789Y-21901D01*
X29782Y-21933D01*
X29782Y-21966D01*
X29782Y-22566D01*
X29789Y-22598D01*
X29801Y-22629D01*
X29820Y-22656D01*
X29843Y-22679D01*
X29870Y-22698D01*
X29901Y-22710D01*
X29933Y-22717D01*
X29966Y-22717D01*
X30029Y-22717D01*
X30029Y-22753D01*
X30028Y-22760D01*
X30028Y-22763D01*
X30028Y-23063D01*
X30029Y-23071D01*
X30029Y-23176D01*
X30035Y-23204D01*
X30046Y-23231D01*
X30047Y-23234D01*
X30047Y-23550D01*
X30027Y-23571D01*
X29991Y-23623D01*
X29966Y-23681D01*
X29953Y-23743D01*
X29952Y-23806D01*
X29963Y-23868D01*
X29987Y-23927D01*
X30021Y-23980D01*
X30065Y-24026D01*
X30117Y-24062D01*
X30175Y-24087D01*
X30237Y-24101D01*
X30300Y-24102D01*
X30362Y-24091D01*
X30421Y-24068D01*
X30475Y-24034D01*
X30521Y-23991D01*
X30557Y-23939D01*
X30583Y-23881D01*
X30597Y-23820D01*
X30598Y-23747D01*
X30585Y-23685D01*
X30561Y-23627D01*
X30526Y-23574D01*
X30503Y-23550D01*
X30503Y-23291D01*
X30952Y-23291D01*
X30973Y-23288D01*
X30994Y-23287D01*
X30995Y-23286D01*
X30996Y-23286D01*
X31016Y-23280D01*
X31036Y-23274D01*
X31037Y-23274D01*
X31039Y-23273D01*
X31057Y-23263D01*
X31076Y-23254D01*
X31077Y-23253D01*
X31078Y-23252D01*
X31094Y-23239D01*
X31111Y-23226D01*
X31112Y-23224D01*
X31112Y-23224D01*
X31112Y-23224D01*
X31113Y-23224D01*
X31354Y-22983D01*
X31467Y-22983D01*
X31400Y-23008D01*
X31360Y-23081D01*
X31334Y-23160D01*
X31325Y-23243D01*
X31332Y-23326D01*
X31355Y-23406D01*
X31393Y-23480D01*
X31400Y-23491D01*
X31468Y-23517D01*
X31736Y-23250D01*
X31730Y-23244D01*
X31744Y-23230D01*
X31750Y-23236D01*
X31755Y-23230D01*
X31769Y-23244D01*
X31763Y-23250D01*
X32031Y-23517D01*
X32099Y-23491D01*
X32139Y-23418D01*
X32165Y-23339D01*
X32174Y-23256D01*
X32167Y-23173D01*
X32144Y-23093D01*
X32106Y-23019D01*
X32099Y-23008D01*
X32032Y-22983D01*
X32161Y-22983D01*
X32320Y-23142D01*
X32308Y-23200D01*
X32307Y-23287D01*
X32322Y-23372D01*
X32354Y-23453D01*
X32401Y-23526D01*
X32461Y-23588D01*
X32533Y-23637D01*
X32612Y-23672D01*
X32697Y-23691D01*
X32784Y-23693D01*
X32869Y-23678D01*
X32950Y-23646D01*
X33023Y-23600D01*
X33086Y-23540D01*
X33136Y-23469D01*
X33171Y-23390D01*
X33190Y-23305D01*
X33192Y-23206D01*
X33192Y-24007D01*
X33170Y-24007D01*
X33133Y-24044D01*
X33133Y-24440D01*
X33490Y-24440D01*
X33527Y-24403D01*
X33527Y-24496D01*
X33490Y-24459D01*
X33133Y-24459D01*
X33133Y-24855D01*
X33170Y-24892D01*
X33284Y-24892D01*
X33278Y-24895D01*
X33233Y-24924D01*
X33195Y-24961D01*
X33179Y-24985D01*
X33151Y-24974D01*
X33099Y-24963D01*
X33046Y-24963D01*
X32993Y-24973D01*
X32943Y-24993D01*
X32913Y-25013D01*
X32886Y-24995D01*
X32836Y-24974D01*
X32784Y-24963D01*
X32731Y-24963D01*
X32700Y-24969D01*
X32684Y-24953D01*
X32671Y-24942D01*
X32659Y-24932D01*
X32658Y-24931D01*
X32657Y-24931D01*
X32643Y-24923D01*
X32629Y-24915D01*
X32628Y-24915D01*
X32627Y-24914D01*
X32611Y-24909D01*
X32595Y-24904D01*
X32595Y-24904D01*
X32594Y-24904D01*
X32577Y-24902D01*
X32561Y-24901D01*
X32559Y-24901D01*
X32559Y-24901D01*
X32559Y-24901D01*
X32559Y-24901D01*
X32553Y-24901D01*
X32553Y-24892D01*
X32646Y-24892D01*
X32674Y-24886D01*
X32701Y-24875D01*
X32725Y-24859D01*
X32746Y-24839D01*
X32750Y-24833D01*
X32753Y-24839D01*
X32774Y-24859D01*
X32798Y-24875D01*
X32825Y-24886D01*
X32853Y-24892D01*
X33077Y-24892D01*
X33114Y-24855D01*
X33114Y-24459D01*
X33106Y-24459D01*
X33106Y-24440D01*
X33114Y-24440D01*
X33114Y-24044D01*
X33077Y-24007D01*
X32853Y-24007D01*
X32825Y-24013D01*
X32798Y-24024D01*
X32774Y-24040D01*
X32753Y-24060D01*
X32750Y-24066D01*
X32746Y-24060D01*
X32725Y-24040D01*
X32701Y-24024D01*
X32674Y-24013D01*
X32646Y-24007D01*
X32616Y-24007D01*
X32105Y-24007D01*
X32077Y-24013D01*
X32050Y-24024D01*
X32026Y-24040D01*
X32017Y-24049D01*
X32017Y-23531D01*
X31750Y-23263D01*
X31482Y-23531D01*
X31508Y-23599D01*
X31581Y-23639D01*
X31660Y-23665D01*
X31743Y-23674D01*
X31826Y-23667D01*
X31906Y-23644D01*
X31980Y-23606D01*
X31991Y-23599D01*
X32017Y-23531D01*
X32017Y-24049D01*
X32005Y-24060D01*
X31989Y-24085D01*
X31978Y-24111D01*
X31972Y-24140D01*
X31972Y-24169D01*
X31972Y-24229D01*
X31941Y-24207D01*
X31892Y-24187D01*
X31839Y-24176D01*
X31786Y-24175D01*
X31733Y-24186D01*
X31697Y-24200D01*
X31703Y-24194D01*
X31734Y-24151D01*
X31756Y-24102D01*
X31767Y-24050D01*
X31768Y-23989D01*
X31758Y-23936D01*
X31737Y-23887D01*
X31708Y-23842D01*
X31670Y-23804D01*
X31626Y-23774D01*
X31577Y-23754D01*
X31524Y-23743D01*
X31471Y-23742D01*
X31418Y-23752D01*
X31369Y-23772D01*
X31324Y-23802D01*
X31286Y-23839D01*
X31255Y-23883D01*
X31234Y-23932D01*
X31223Y-23985D01*
X31223Y-24038D01*
X31232Y-24091D01*
X31252Y-24140D01*
X31281Y-24185D01*
X31318Y-24224D01*
X31318Y-24606D01*
X31320Y-24622D01*
X31321Y-24638D01*
X31321Y-24639D01*
X31321Y-24640D01*
X31326Y-24656D01*
X31331Y-24672D01*
X31331Y-24673D01*
X31331Y-24673D01*
X31339Y-24688D01*
X31347Y-24703D01*
X31347Y-24703D01*
X31348Y-24704D01*
X31358Y-24717D01*
X31368Y-24730D01*
X31369Y-24731D01*
X31370Y-24731D01*
X31370Y-24731D01*
X31370Y-24731D01*
X31460Y-24821D01*
X31460Y-25438D01*
X31455Y-25441D01*
X31434Y-25462D01*
X31418Y-25486D01*
X31407Y-25513D01*
X31401Y-25541D01*
X31401Y-25571D01*
X31401Y-26358D01*
X31407Y-26386D01*
X31418Y-26413D01*
X31434Y-26437D01*
X31455Y-26458D01*
X31479Y-26474D01*
X31506Y-26485D01*
X31534Y-26491D01*
X31564Y-26491D01*
X31741Y-26491D01*
X31769Y-26485D01*
X31794Y-26474D01*
X31820Y-26485D01*
X31848Y-26491D01*
X31878Y-26491D01*
X31989Y-26491D01*
X31965Y-26551D01*
X32250Y-26836D01*
X32534Y-26551D01*
X32510Y-26491D01*
X32657Y-26491D01*
X32657Y-26663D01*
X32628Y-26606D01*
X32619Y-26593D01*
X32548Y-26565D01*
X32263Y-26850D01*
X32548Y-27134D01*
X32619Y-27106D01*
X32657Y-27038D01*
X32657Y-27190D01*
X32518Y-27190D01*
X32534Y-27148D01*
X32250Y-26863D01*
X32236Y-26877D01*
X32236Y-26850D01*
X31951Y-26565D01*
X31880Y-26593D01*
X31837Y-26670D01*
X31810Y-26754D01*
X31800Y-26842D01*
X31807Y-26930D01*
X31831Y-27014D01*
X31871Y-27093D01*
X31880Y-27106D01*
X31951Y-27134D01*
X32236Y-26850D01*
X32236Y-26877D01*
X31965Y-27148D01*
X31981Y-27190D01*
X31923Y-27190D01*
X31906Y-27191D01*
X31890Y-27193D01*
X31889Y-27193D01*
X31888Y-27193D01*
X31873Y-27198D01*
X31857Y-27203D01*
X31856Y-27203D01*
X31855Y-27203D01*
X31853Y-27204D01*
X31653Y-27204D01*
X31653Y-27386D01*
X31622Y-27417D01*
X31621Y-27414D01*
X31621Y-27413D01*
X31620Y-27412D01*
X31613Y-27398D01*
X31605Y-27383D01*
X31605Y-27382D01*
X31604Y-27382D01*
X31594Y-27369D01*
X31584Y-27356D01*
X31582Y-27355D01*
X31582Y-27355D01*
X31582Y-27355D01*
X31582Y-27354D01*
X31469Y-27242D01*
X31457Y-27231D01*
X31444Y-27221D01*
X31443Y-27220D01*
X31443Y-27220D01*
X31428Y-27212D01*
X31414Y-27204D01*
X31413Y-27204D01*
X31412Y-27204D01*
X31396Y-27199D01*
X31384Y-27195D01*
X31389Y-27184D01*
X31395Y-27156D01*
X31395Y-27126D01*
X31395Y-26949D01*
X31389Y-26921D01*
X31378Y-26895D01*
X31389Y-26869D01*
X31395Y-26841D01*
X31395Y-26811D01*
X31395Y-26634D01*
X31389Y-26606D01*
X31378Y-26579D01*
X31362Y-26555D01*
X31341Y-26534D01*
X31317Y-26518D01*
X31290Y-26507D01*
X31262Y-26501D01*
X31232Y-26501D01*
X31024Y-26501D01*
X31024Y-25054D01*
X30987Y-24867D01*
X30914Y-24690D01*
X30808Y-24531D01*
X30674Y-24395D01*
X30515Y-24288D01*
X30339Y-24214D01*
X30152Y-24176D01*
X29961Y-24174D01*
X29803Y-24205D01*
X29803Y-23369D01*
X29803Y-23209D01*
X29779Y-23124D01*
X29738Y-23045D01*
X29684Y-22976D01*
X29617Y-22919D01*
X29539Y-22876D01*
X29456Y-22849D01*
X29440Y-22846D01*
X29370Y-22876D01*
X29370Y-23279D01*
X29773Y-23279D01*
X29803Y-23209D01*
X29803Y-23369D01*
X29773Y-23299D01*
X29370Y-23299D01*
X29370Y-23702D01*
X29440Y-23731D01*
X29525Y-23707D01*
X29604Y-23667D01*
X29673Y-23612D01*
X29730Y-23545D01*
X29773Y-23468D01*
X29800Y-23384D01*
X29803Y-23369D01*
X29803Y-24205D01*
X29773Y-24210D01*
X29596Y-24282D01*
X29436Y-24386D01*
X29350Y-24470D01*
X29350Y-23702D01*
X29350Y-23299D01*
X29350Y-23279D01*
X29350Y-22876D01*
X29320Y-22863D01*
X29320Y-22500D01*
X29320Y-22470D01*
X29314Y-22442D01*
X29303Y-22415D01*
X29287Y-22391D01*
X29267Y-22370D01*
X28877Y-21981D01*
X28853Y-21964D01*
X28826Y-21953D01*
X28797Y-21948D01*
X28768Y-21948D01*
X28740Y-21953D01*
X28713Y-21964D01*
X28689Y-21981D01*
X28668Y-22001D01*
X28167Y-22502D01*
X28151Y-22526D01*
X28140Y-22553D01*
X28134Y-22582D01*
X28134Y-22611D01*
X28140Y-22639D01*
X28151Y-22666D01*
X28167Y-22690D01*
X28187Y-22711D01*
X28577Y-23101D01*
X28601Y-23117D01*
X28628Y-23128D01*
X28657Y-23134D01*
X28686Y-23134D01*
X28714Y-23128D01*
X28741Y-23117D01*
X28765Y-23101D01*
X28786Y-23080D01*
X29287Y-22579D01*
X29303Y-22555D01*
X29314Y-22528D01*
X29320Y-22500D01*
X29320Y-22863D01*
X29280Y-22846D01*
X29195Y-22870D01*
X29117Y-22911D01*
X29048Y-22965D01*
X28991Y-23032D01*
X28948Y-23110D01*
X28921Y-23193D01*
X28918Y-23209D01*
X28947Y-23279D01*
X29350Y-23279D01*
X29350Y-23299D01*
X28947Y-23299D01*
X28918Y-23369D01*
X28942Y-23454D01*
X28982Y-23532D01*
X29037Y-23601D01*
X29104Y-23658D01*
X29181Y-23701D01*
X29265Y-23728D01*
X29280Y-23731D01*
X29350Y-23702D01*
X29350Y-24470D01*
X29299Y-24520D01*
X29191Y-24678D01*
X29120Y-24844D01*
X29120Y-23950D01*
X29103Y-23860D01*
X29068Y-23775D01*
X29017Y-23699D01*
X28952Y-23634D01*
X28876Y-23583D01*
X28792Y-23547D01*
X28702Y-23529D01*
X28610Y-23528D01*
X28520Y-23545D01*
X28435Y-23580D01*
X28359Y-23630D01*
X28293Y-23694D01*
X28242Y-23770D01*
X28205Y-23854D01*
X28186Y-23944D01*
X28185Y-24035D01*
X28202Y-24125D01*
X28235Y-24211D01*
X28285Y-24288D01*
X28349Y-24354D01*
X28424Y-24406D01*
X28508Y-24443D01*
X28597Y-24462D01*
X28689Y-24464D01*
X28779Y-24448D01*
X28865Y-24415D01*
X28942Y-24366D01*
X29009Y-24303D01*
X29061Y-24228D01*
X29099Y-24144D01*
X29119Y-24055D01*
X29120Y-23950D01*
X29120Y-24844D01*
X29116Y-24853D01*
X29076Y-25040D01*
X29074Y-25231D01*
X29108Y-25419D01*
X29179Y-25597D01*
X29282Y-25758D01*
X29415Y-25895D01*
X29572Y-26004D01*
X29747Y-26081D01*
X29934Y-26122D01*
X30125Y-26126D01*
X30313Y-26093D01*
X30491Y-26023D01*
X30652Y-25921D01*
X30791Y-25789D01*
X30901Y-25633D01*
X30979Y-25459D01*
X31021Y-25272D01*
X31024Y-25054D01*
X31024Y-26501D01*
X30445Y-26501D01*
X30417Y-26507D01*
X30390Y-26518D01*
X30366Y-26534D01*
X30345Y-26555D01*
X30329Y-26579D01*
X30318Y-26606D01*
X30312Y-26634D01*
X30312Y-26664D01*
X30312Y-26841D01*
X30318Y-26869D01*
X30329Y-26895D01*
X30318Y-26921D01*
X30312Y-26949D01*
X30312Y-26979D01*
X30312Y-27061D01*
X30285Y-27033D01*
X30232Y-26998D01*
X30174Y-26973D01*
X30112Y-26961D01*
X30049Y-26960D01*
X29987Y-26972D01*
X29928Y-26996D01*
X29875Y-27030D01*
X29830Y-27075D01*
X29794Y-27127D01*
X29769Y-27185D01*
X29759Y-27233D01*
X29379Y-27233D01*
X29379Y-27190D01*
X29373Y-27162D01*
X29362Y-27135D01*
X29346Y-27111D01*
X29326Y-27090D01*
X29301Y-27074D01*
X29275Y-27063D01*
X29246Y-27057D01*
X29217Y-27057D01*
X28627Y-27057D01*
X28598Y-27063D01*
X28572Y-27074D01*
X28547Y-27090D01*
X28527Y-27111D01*
X28511Y-27135D01*
X28500Y-27162D01*
X28494Y-27190D01*
X28494Y-27219D01*
X28494Y-27233D01*
X28413Y-27233D01*
X28413Y-24657D01*
X28395Y-24567D01*
X28361Y-24483D01*
X28310Y-24406D01*
X28245Y-24341D01*
X28169Y-24290D01*
X28085Y-24254D01*
X27995Y-24236D01*
X27984Y-24236D01*
X27984Y-23836D01*
X27984Y-23807D01*
X27978Y-23778D01*
X27967Y-23751D01*
X27951Y-23727D01*
X27930Y-23707D01*
X27541Y-23317D01*
X27516Y-23301D01*
X27489Y-23290D01*
X27461Y-23284D01*
X27432Y-23284D01*
X27403Y-23290D01*
X27376Y-23301D01*
X27352Y-23317D01*
X27332Y-23337D01*
X27065Y-23604D01*
X27065Y-22917D01*
X27065Y-22888D01*
X27059Y-22860D01*
X27048Y-22833D01*
X27032Y-22809D01*
X26860Y-22636D01*
X26808Y-22636D01*
X26486Y-22958D01*
X26752Y-23225D01*
X26804Y-23225D01*
X27012Y-23017D01*
X27032Y-22997D01*
X27048Y-22973D01*
X27059Y-22946D01*
X27065Y-22917D01*
X27065Y-23604D01*
X26831Y-23839D01*
X26814Y-23863D01*
X26803Y-23890D01*
X26798Y-23918D01*
X26798Y-23947D01*
X26803Y-23976D01*
X26814Y-24003D01*
X26831Y-24027D01*
X26851Y-24047D01*
X26921Y-24117D01*
X26917Y-24129D01*
X26912Y-24145D01*
X26912Y-24146D01*
X26912Y-24146D01*
X26910Y-24163D01*
X26908Y-24179D01*
X26908Y-24181D01*
X26908Y-24181D01*
X26908Y-24181D01*
X26908Y-24182D01*
X26908Y-24340D01*
X26891Y-24343D01*
X26841Y-24363D01*
X26796Y-24392D01*
X26758Y-24430D01*
X26738Y-24459D01*
X26738Y-23291D01*
X26738Y-23238D01*
X26472Y-22972D01*
X26150Y-23294D01*
X26150Y-23346D01*
X26322Y-23518D01*
X26346Y-23535D01*
X26373Y-23546D01*
X26402Y-23551D01*
X26431Y-23551D01*
X26459Y-23546D01*
X26486Y-23535D01*
X26510Y-23518D01*
X26531Y-23498D01*
X26738Y-23291D01*
X26738Y-24459D01*
X26728Y-24474D01*
X26707Y-24523D01*
X26696Y-24575D01*
X26695Y-24629D01*
X26705Y-24681D01*
X26724Y-24731D01*
X26753Y-24776D01*
X26790Y-24814D01*
X26834Y-24845D01*
X26883Y-24866D01*
X26936Y-24878D01*
X26989Y-24879D01*
X27042Y-24870D01*
X27092Y-24850D01*
X27137Y-24822D01*
X27175Y-24785D01*
X27206Y-24741D01*
X27228Y-24692D01*
X27240Y-24640D01*
X27241Y-24579D01*
X27240Y-24575D01*
X27241Y-24572D01*
X27249Y-24558D01*
X27250Y-24557D01*
X27250Y-24556D01*
X27255Y-24540D01*
X27260Y-24525D01*
X27260Y-24524D01*
X27260Y-24523D01*
X27262Y-24506D01*
X27264Y-24490D01*
X27264Y-24488D01*
X27264Y-24488D01*
X27264Y-24488D01*
X27264Y-24488D01*
X27264Y-24452D01*
X27265Y-24453D01*
X27292Y-24464D01*
X27320Y-24470D01*
X27350Y-24470D01*
X27378Y-24464D01*
X27405Y-24453D01*
X27429Y-24437D01*
X27450Y-24417D01*
X27951Y-23915D01*
X27967Y-23891D01*
X27978Y-23864D01*
X27984Y-23836D01*
X27984Y-24236D01*
X27903Y-24235D01*
X27813Y-24253D01*
X27728Y-24287D01*
X27652Y-24337D01*
X27586Y-24401D01*
X27534Y-24477D01*
X27498Y-24561D01*
X27479Y-24651D01*
X27478Y-24742D01*
X27495Y-24832D01*
X27528Y-24918D01*
X27578Y-24995D01*
X27642Y-25061D01*
X27717Y-25113D01*
X27801Y-25150D01*
X27890Y-25169D01*
X27982Y-25171D01*
X28072Y-25155D01*
X28158Y-25122D01*
X28235Y-25073D01*
X28301Y-25010D01*
X28354Y-24935D01*
X28392Y-24851D01*
X28412Y-24762D01*
X28413Y-24657D01*
X28413Y-27233D01*
X28356Y-27233D01*
X28356Y-27190D01*
X28350Y-27162D01*
X28339Y-27135D01*
X28323Y-27111D01*
X28302Y-27090D01*
X28278Y-27074D01*
X28251Y-27063D01*
X28222Y-27057D01*
X28193Y-27057D01*
X27830Y-27057D01*
X27830Y-25427D01*
X27830Y-25394D01*
X27824Y-25361D01*
X27811Y-25331D01*
X27793Y-25303D01*
X27770Y-25280D01*
X27346Y-24856D01*
X27318Y-24838D01*
X27288Y-24825D01*
X27255Y-24819D01*
X27222Y-24819D01*
X27190Y-24825D01*
X27160Y-24838D01*
X27132Y-24856D01*
X27109Y-24879D01*
X26685Y-25303D01*
X26666Y-25331D01*
X26654Y-25361D01*
X26647Y-25394D01*
X26647Y-25427D01*
X26654Y-25459D01*
X26666Y-25489D01*
X26685Y-25517D01*
X26708Y-25540D01*
X27132Y-25964D01*
X27160Y-25983D01*
X27190Y-25995D01*
X27222Y-26002D01*
X27255Y-26002D01*
X27288Y-25995D01*
X27318Y-25983D01*
X27346Y-25964D01*
X27369Y-25941D01*
X27793Y-25517D01*
X27811Y-25489D01*
X27824Y-25459D01*
X27830Y-25427D01*
X27830Y-27057D01*
X27603Y-27057D01*
X27575Y-27063D01*
X27548Y-27074D01*
X27524Y-27090D01*
X27503Y-27111D01*
X27487Y-27135D01*
X27476Y-27162D01*
X27470Y-27190D01*
X27470Y-27219D01*
X27470Y-27730D01*
X27476Y-27759D01*
X27487Y-27786D01*
X27503Y-27810D01*
X27524Y-27830D01*
X27529Y-27834D01*
X27524Y-27838D01*
X27503Y-27859D01*
X27487Y-27883D01*
X27476Y-27910D01*
X27470Y-27938D01*
X27470Y-28161D01*
X27507Y-28198D01*
X27903Y-28198D01*
X27903Y-28190D01*
X27923Y-28190D01*
X27923Y-28198D01*
X28319Y-28198D01*
X28356Y-28161D01*
X28356Y-27938D01*
X28350Y-27910D01*
X28339Y-27883D01*
X28323Y-27859D01*
X28302Y-27838D01*
X28296Y-27834D01*
X28302Y-27830D01*
X28323Y-27810D01*
X28339Y-27786D01*
X28350Y-27759D01*
X28356Y-27730D01*
X28356Y-27701D01*
X28356Y-27688D01*
X28494Y-27688D01*
X28494Y-27730D01*
X28500Y-27759D01*
X28511Y-27786D01*
X28527Y-27810D01*
X28547Y-27830D01*
X28553Y-27834D01*
X28547Y-27838D01*
X28527Y-27859D01*
X28511Y-27883D01*
X28500Y-27910D01*
X28494Y-27938D01*
X28494Y-28161D01*
X28531Y-28198D01*
X28927Y-28198D01*
X28927Y-28190D01*
X28946Y-28190D01*
X28946Y-28198D01*
X29342Y-28198D01*
X29379Y-28161D01*
X29379Y-27938D01*
X29373Y-27910D01*
X29362Y-27883D01*
X29346Y-27859D01*
X29326Y-27838D01*
X29320Y-27834D01*
X29326Y-27830D01*
X29346Y-27810D01*
X29362Y-27786D01*
X29373Y-27759D01*
X29379Y-27730D01*
X29379Y-27701D01*
X29379Y-27688D01*
X29901Y-27688D01*
X29922Y-27686D01*
X29943Y-27684D01*
X29944Y-27684D01*
X29945Y-27683D01*
X29965Y-27677D01*
X29986Y-27672D01*
X29987Y-27671D01*
X29988Y-27671D01*
X30006Y-27661D01*
X30025Y-27651D01*
X30026Y-27650D01*
X30027Y-27650D01*
X30043Y-27636D01*
X30060Y-27623D01*
X30061Y-27622D01*
X30061Y-27622D01*
X30061Y-27622D01*
X30062Y-27621D01*
X30077Y-27606D01*
X30103Y-27606D01*
X30165Y-27595D01*
X30166Y-27595D01*
X30312Y-27595D01*
X30312Y-27609D01*
X30312Y-27636D01*
X30349Y-27673D01*
X30844Y-27673D01*
X30844Y-27665D01*
X30863Y-27665D01*
X30863Y-27673D01*
X30871Y-27673D01*
X30871Y-27692D01*
X30863Y-27692D01*
X30863Y-27700D01*
X30844Y-27700D01*
X30844Y-27692D01*
X30349Y-27692D01*
X30312Y-27729D01*
X30312Y-27756D01*
X30312Y-27786D01*
X30318Y-27814D01*
X30329Y-27840D01*
X30318Y-27866D01*
X30312Y-27894D01*
X30312Y-27924D01*
X30312Y-28101D01*
X30318Y-28129D01*
X30329Y-28155D01*
X30318Y-28181D01*
X30312Y-28209D01*
X30312Y-28239D01*
X30312Y-28266D01*
X30349Y-28303D01*
X30844Y-28303D01*
X30844Y-28295D01*
X30863Y-28295D01*
X30863Y-28303D01*
X31358Y-28303D01*
X31395Y-28266D01*
X31395Y-28239D01*
X31395Y-28209D01*
X31389Y-28181D01*
X31386Y-28174D01*
X31388Y-28174D01*
X31404Y-28172D01*
X31405Y-28172D01*
X31406Y-28172D01*
X31422Y-28167D01*
X31438Y-28162D01*
X31438Y-28162D01*
X31439Y-28162D01*
X31454Y-28154D01*
X31468Y-28146D01*
X31469Y-28146D01*
X31470Y-28145D01*
X31483Y-28135D01*
X31495Y-28125D01*
X31497Y-28124D01*
X31497Y-28124D01*
X31497Y-28124D01*
X31497Y-28123D01*
X31582Y-28038D01*
X31592Y-28026D01*
X31603Y-28013D01*
X31603Y-28012D01*
X31604Y-28012D01*
X31612Y-27997D01*
X31619Y-27983D01*
X31620Y-27982D01*
X31620Y-27981D01*
X31625Y-27965D01*
X31630Y-27950D01*
X31630Y-27949D01*
X31630Y-27948D01*
X31632Y-27932D01*
X31634Y-27915D01*
X31634Y-27914D01*
X31634Y-27914D01*
X31634Y-27913D01*
X31634Y-27913D01*
X31634Y-27852D01*
X31646Y-27851D01*
X31647Y-27851D01*
X31648Y-27851D01*
X31653Y-27849D01*
X31653Y-29188D01*
X31536Y-29188D01*
X31508Y-29194D01*
X31481Y-29205D01*
X31457Y-29221D01*
X31436Y-29242D01*
X31420Y-29266D01*
X31409Y-29293D01*
X31403Y-29321D01*
X31403Y-29351D01*
X31403Y-30138D01*
X31409Y-30166D01*
X31420Y-30193D01*
X31436Y-30217D01*
X31457Y-30238D01*
X31481Y-30254D01*
X31508Y-30265D01*
X31536Y-30271D01*
X31566Y-30271D01*
X31743Y-30271D01*
X31771Y-30265D01*
X31794Y-30255D01*
X31818Y-30265D01*
X31846Y-30271D01*
X31876Y-30271D01*
X32053Y-30271D01*
X32081Y-30265D01*
X32108Y-30254D01*
X32110Y-30253D01*
X32111Y-30254D01*
X32138Y-30265D01*
X32166Y-30271D01*
X32196Y-30271D01*
X32373Y-30271D01*
X32401Y-30265D01*
X32402Y-30265D01*
X32402Y-30426D01*
X32351Y-30416D01*
X32298Y-30416D01*
X32245Y-30426D01*
X32195Y-30446D01*
X32151Y-30475D01*
X32114Y-30511D01*
X31762Y-30511D01*
X31729Y-30477D01*
X31685Y-30447D01*
X31636Y-30427D01*
X31583Y-30416D01*
X31530Y-30416D01*
X31477Y-30426D01*
X31428Y-30446D01*
X31395Y-30467D01*
X31395Y-29046D01*
X31395Y-29016D01*
X31395Y-28839D01*
X31389Y-28811D01*
X31378Y-28785D01*
X31389Y-28759D01*
X31395Y-28731D01*
X31395Y-28701D01*
X31395Y-28524D01*
X31389Y-28496D01*
X31378Y-28470D01*
X31389Y-28444D01*
X31395Y-28416D01*
X31395Y-28386D01*
X31395Y-28359D01*
X31358Y-28322D01*
X30863Y-28322D01*
X30863Y-28330D01*
X30844Y-28330D01*
X30844Y-28322D01*
X30349Y-28322D01*
X30312Y-28359D01*
X30312Y-28386D01*
X30312Y-28416D01*
X30318Y-28444D01*
X30329Y-28470D01*
X30318Y-28496D01*
X30312Y-28524D01*
X30312Y-28554D01*
X30312Y-28731D01*
X30318Y-28759D01*
X30329Y-28785D01*
X30318Y-28811D01*
X30312Y-28839D01*
X30312Y-28869D01*
X30312Y-29046D01*
X30318Y-29074D01*
X30329Y-29101D01*
X30345Y-29125D01*
X30366Y-29146D01*
X30390Y-29162D01*
X30417Y-29173D01*
X30445Y-29179D01*
X30475Y-29179D01*
X31262Y-29179D01*
X31290Y-29173D01*
X31317Y-29162D01*
X31341Y-29146D01*
X31362Y-29125D01*
X31378Y-29101D01*
X31389Y-29074D01*
X31395Y-29046D01*
X31395Y-30467D01*
X31383Y-30475D01*
X31345Y-30512D01*
X31315Y-30556D01*
X31293Y-30606D01*
X31282Y-30658D01*
X31282Y-30711D01*
X31291Y-30764D01*
X31311Y-30814D01*
X31340Y-30859D01*
X31356Y-30875D01*
X31345Y-30886D01*
X31315Y-30931D01*
X31293Y-30980D01*
X31282Y-31032D01*
X31282Y-31085D01*
X31291Y-31138D01*
X31311Y-31188D01*
X31340Y-31233D01*
X31377Y-31271D01*
X31421Y-31302D01*
X31470Y-31323D01*
X31522Y-31335D01*
X31576Y-31336D01*
X31628Y-31326D01*
X31678Y-31307D01*
X31723Y-31278D01*
X31762Y-31242D01*
X31763Y-31240D01*
X32115Y-31240D01*
X32145Y-31271D01*
X32189Y-31302D01*
X32238Y-31323D01*
X32290Y-31335D01*
X32343Y-31336D01*
X32396Y-31326D01*
X32399Y-31325D01*
X32243Y-31481D01*
X32233Y-31479D01*
X32179Y-31479D01*
X32127Y-31489D01*
X32077Y-31509D01*
X32033Y-31538D01*
X31994Y-31575D01*
X31964Y-31619D01*
X31943Y-31669D01*
X31932Y-31721D01*
X31931Y-31774D01*
X31941Y-31827D01*
X31961Y-31877D01*
X31990Y-31922D01*
X32027Y-31960D01*
X32071Y-31991D01*
X32120Y-32012D01*
X32172Y-32023D01*
X32225Y-32025D01*
X32278Y-32015D01*
X32328Y-31996D01*
X32373Y-31967D01*
X32412Y-31930D01*
X32442Y-31887D01*
X32464Y-31838D01*
X32476Y-31786D01*
X32477Y-31750D01*
X32705Y-31521D01*
X32716Y-31509D01*
X32726Y-31496D01*
X32727Y-31495D01*
X32727Y-31495D01*
X32735Y-31480D01*
X32743Y-31466D01*
X32743Y-31465D01*
X32743Y-31464D01*
X32748Y-31448D01*
X32753Y-31433D01*
X32753Y-31432D01*
X32754Y-31431D01*
X32755Y-31415D01*
X32757Y-31398D01*
X32757Y-31397D01*
X32757Y-31396D01*
X32757Y-31396D01*
X32757Y-31396D01*
X32757Y-31300D01*
X32760Y-31302D01*
X32809Y-31323D01*
X32861Y-31335D01*
X32914Y-31336D01*
X32967Y-31326D01*
X33017Y-31307D01*
X33062Y-31278D01*
X33101Y-31242D01*
X33102Y-31240D01*
X33906Y-31240D01*
X33936Y-31271D01*
X33980Y-31302D01*
X34029Y-31323D01*
X34081Y-31335D01*
X34135Y-31336D01*
X34187Y-31326D01*
X34237Y-31307D01*
X34282Y-31278D01*
X34321Y-31242D01*
X34352Y-31198D01*
X34374Y-31149D01*
X34385Y-31097D01*
X34386Y-31036D01*
X34376Y-30983D01*
X34356Y-30934D01*
X34326Y-30889D01*
X34312Y-30876D01*
X34321Y-30867D01*
X34352Y-30824D01*
X34374Y-30775D01*
X34385Y-30723D01*
X34386Y-30662D01*
X34376Y-30609D01*
X34356Y-30560D01*
X34326Y-30515D01*
X34288Y-30477D01*
X34244Y-30447D01*
X34195Y-30427D01*
X34142Y-30416D01*
X34089Y-30416D01*
X34036Y-30426D01*
X33987Y-30446D01*
X33942Y-30475D01*
X33905Y-30511D01*
X33101Y-30511D01*
X33068Y-30477D01*
X33024Y-30447D01*
X32974Y-30427D01*
X32922Y-30416D01*
X32868Y-30416D01*
X32816Y-30426D01*
X32766Y-30446D01*
X32757Y-30452D01*
X32757Y-30265D01*
X32758Y-30265D01*
X32786Y-30271D01*
X32816Y-30271D01*
X32993Y-30271D01*
X33021Y-30265D01*
X33048Y-30254D01*
X33050Y-30253D01*
X33051Y-30254D01*
X33078Y-30265D01*
X33106Y-30271D01*
X33136Y-30271D01*
X33313Y-30271D01*
X33341Y-30265D01*
X33368Y-30254D01*
X33370Y-30253D01*
X33371Y-30254D01*
X33398Y-30265D01*
X33426Y-30271D01*
X33456Y-30271D01*
X33633Y-30271D01*
X33661Y-30265D01*
X33688Y-30254D01*
X33690Y-30253D01*
X33691Y-30254D01*
X33718Y-30265D01*
X33746Y-30271D01*
X33776Y-30271D01*
X33953Y-30271D01*
X33981Y-30265D01*
X34008Y-30254D01*
X34032Y-30238D01*
X34053Y-30217D01*
X34069Y-30193D01*
X34080Y-30166D01*
X34086Y-30138D01*
X34086Y-30108D01*
X34086Y-29907D01*
X34128Y-29907D01*
X34144Y-29906D01*
X34160Y-29904D01*
X34161Y-29904D01*
X34162Y-29904D01*
X34178Y-29899D01*
X34194Y-29894D01*
X34195Y-29894D01*
X34195Y-29894D01*
X34210Y-29886D01*
X34225Y-29878D01*
X34225Y-29878D01*
X34226Y-29877D01*
X34239Y-29867D01*
X34252Y-29857D01*
X34253Y-29856D01*
X34253Y-29856D01*
X34253Y-29856D01*
X34253Y-29855D01*
X34377Y-29731D01*
X34388Y-29719D01*
X34398Y-29706D01*
X34398Y-29705D01*
X34399Y-29705D01*
X34407Y-29690D01*
X34415Y-29676D01*
X34415Y-29675D01*
X34415Y-29674D01*
X34420Y-29658D01*
X34425Y-29643D01*
X34425Y-29642D01*
X34426Y-29641D01*
X34427Y-29625D01*
X34429Y-29608D01*
X34429Y-29606D01*
X34429Y-29606D01*
X34429Y-29606D01*
X34429Y-29606D01*
X34429Y-29577D01*
X34459Y-29549D01*
X34490Y-29505D01*
X34511Y-29456D01*
X34523Y-29404D01*
X34524Y-29343D01*
X34514Y-29290D01*
X34493Y-29241D01*
X34464Y-29196D01*
X34453Y-29186D01*
X35028Y-29186D01*
X35056Y-29180D01*
X35083Y-29169D01*
X35107Y-29153D01*
X35128Y-29132D01*
X35144Y-29108D01*
X35155Y-29081D01*
X35161Y-29053D01*
X35161Y-29023D01*
X35161Y-28846D01*
X35155Y-28818D01*
X35144Y-28791D01*
X35143Y-28789D01*
X35144Y-28788D01*
X35155Y-28761D01*
X35161Y-28733D01*
X35161Y-28703D01*
X35161Y-28676D01*
X35124Y-28639D01*
X34629Y-28639D01*
X34629Y-28647D01*
X34610Y-28647D01*
X34610Y-28639D01*
X34602Y-28639D01*
X34602Y-28620D01*
X34610Y-28620D01*
X34610Y-28612D01*
X34629Y-28612D01*
X34629Y-28620D01*
X35124Y-28620D01*
X35161Y-28583D01*
X35161Y-28556D01*
X35161Y-28526D01*
X35155Y-28498D01*
X35144Y-28471D01*
X35143Y-28470D01*
X35144Y-28468D01*
X35155Y-28441D01*
X35161Y-28413D01*
X35161Y-28383D01*
X35161Y-28206D01*
X35155Y-28178D01*
X35145Y-28155D01*
X35155Y-28131D01*
X35161Y-28103D01*
X35161Y-28073D01*
X35161Y-27896D01*
X35155Y-27868D01*
X35144Y-27841D01*
X35143Y-27839D01*
X35144Y-27838D01*
X35155Y-27811D01*
X35161Y-27783D01*
X35161Y-27753D01*
X35161Y-27576D01*
X35155Y-27548D01*
X35145Y-27525D01*
X35155Y-27501D01*
X35161Y-27473D01*
X35161Y-27443D01*
X35161Y-27266D01*
X35155Y-27238D01*
X35150Y-27227D01*
X36571Y-27227D01*
X36587Y-27226D01*
X36603Y-27224D01*
X36604Y-27224D01*
X36605Y-27224D01*
X36621Y-27219D01*
X36637Y-27214D01*
X36638Y-27214D01*
X36639Y-27214D01*
X36653Y-27206D01*
X36668Y-27198D01*
X36668Y-27198D01*
X36669Y-27197D01*
X36682Y-27187D01*
X36695Y-27177D01*
X36696Y-27176D01*
X36696Y-27176D01*
X36696Y-27176D01*
X36696Y-27175D01*
X38005Y-25866D01*
X38103Y-25964D01*
X38131Y-25983D01*
X38161Y-25995D01*
X38194Y-26002D01*
X38227Y-26002D01*
X38259Y-25995D01*
X38289Y-25983D01*
X38317Y-25964D01*
X38340Y-25941D01*
X38764Y-25517D01*
X38783Y-25489D01*
X38795Y-25459D01*
X38802Y-25427D01*
X38802Y-32367D01*
X38711Y-32458D01*
X38711Y-32511D01*
X38977Y-32777D01*
X39299Y-32455D01*
X39299Y-32483D01*
X38991Y-32791D01*
X38996Y-32796D01*
X38983Y-32810D01*
X38977Y-32805D01*
X38963Y-32819D01*
X38963Y-32791D01*
X38697Y-32525D01*
X38697Y-30996D01*
X38687Y-30944D01*
X38667Y-30895D01*
X38637Y-30850D01*
X38599Y-30812D01*
X38555Y-30782D01*
X38506Y-30761D01*
X38453Y-30751D01*
X38400Y-30750D01*
X38347Y-30760D01*
X38298Y-30780D01*
X38253Y-30810D01*
X38215Y-30847D01*
X38185Y-30891D01*
X38164Y-30940D01*
X38152Y-30993D01*
X38152Y-31046D01*
X38161Y-31099D01*
X38181Y-31148D01*
X38210Y-31193D01*
X38247Y-31232D01*
X38247Y-31351D01*
X38208Y-31312D01*
X38184Y-31296D01*
X38157Y-31285D01*
X38129Y-31279D01*
X38099Y-31279D01*
X38071Y-31285D01*
X38044Y-31296D01*
X38020Y-31312D01*
X37999Y-31332D01*
X37498Y-31834D01*
X37482Y-31858D01*
X37471Y-31885D01*
X37465Y-31913D01*
X37465Y-31942D01*
X37471Y-31971D01*
X37482Y-31998D01*
X37498Y-32022D01*
X37519Y-32042D01*
X37909Y-32432D01*
X37933Y-32448D01*
X37960Y-32459D01*
X37988Y-32465D01*
X38017Y-32465D01*
X38046Y-32459D01*
X38073Y-32448D01*
X38097Y-32432D01*
X38117Y-32412D01*
X38618Y-31910D01*
X38635Y-31886D01*
X38646Y-31859D01*
X38651Y-31831D01*
X38651Y-31802D01*
X38646Y-31773D01*
X38635Y-31746D01*
X38618Y-31722D01*
X38598Y-31702D01*
X38539Y-31643D01*
X38550Y-31631D01*
X38561Y-31619D01*
X38571Y-31606D01*
X38572Y-31605D01*
X38572Y-31604D01*
X38580Y-31590D01*
X38588Y-31576D01*
X38588Y-31575D01*
X38589Y-31574D01*
X38593Y-31558D01*
X38598Y-31543D01*
X38599Y-31542D01*
X38599Y-31541D01*
X38600Y-31524D01*
X38602Y-31508D01*
X38602Y-31506D01*
X38602Y-31506D01*
X38602Y-31506D01*
X38602Y-31506D01*
X38602Y-31230D01*
X38632Y-31202D01*
X38663Y-31158D01*
X38685Y-31110D01*
X38696Y-31057D01*
X38697Y-30996D01*
X38697Y-32525D01*
X38697Y-32524D01*
X38645Y-32524D01*
X38437Y-32732D01*
X38417Y-32752D01*
X38401Y-32776D01*
X38390Y-32803D01*
X38384Y-32832D01*
X38384Y-32861D01*
X38390Y-32889D01*
X38401Y-32916D01*
X38417Y-32941D01*
X38589Y-33113D01*
X38641Y-33113D01*
X38963Y-32791D01*
X38963Y-32819D01*
X38655Y-33127D01*
X38655Y-33179D01*
X38827Y-33351D01*
X38851Y-33367D01*
X38878Y-33378D01*
X38907Y-33384D01*
X38936Y-33384D01*
X38964Y-33378D01*
X38991Y-33367D01*
X39015Y-33351D01*
X39036Y-33330D01*
X39079Y-33287D01*
X38697Y-33756D01*
X38196Y-34170D01*
X38201Y-34165D01*
X38217Y-34141D01*
X38228Y-34114D01*
X38234Y-34086D01*
X38234Y-34057D01*
X38228Y-34028D01*
X38217Y-34001D01*
X38201Y-33977D01*
X38180Y-33957D01*
X37791Y-33567D01*
X37766Y-33551D01*
X37739Y-33540D01*
X37711Y-33534D01*
X37682Y-33534D01*
X37653Y-33540D01*
X37626Y-33551D01*
X37602Y-33567D01*
X37582Y-33587D01*
X37315Y-33854D01*
X37315Y-33167D01*
X37315Y-33138D01*
X37309Y-33110D01*
X37298Y-33083D01*
X37282Y-33059D01*
X37262Y-33038D01*
X36872Y-32648D01*
X36848Y-32632D01*
X36821Y-32621D01*
X36792Y-32615D01*
X36763Y-32615D01*
X36735Y-32621D01*
X36708Y-32632D01*
X36684Y-32648D01*
X36663Y-32669D01*
X36424Y-32908D01*
X36424Y-30454D01*
X36387Y-30267D01*
X36314Y-30090D01*
X36208Y-29931D01*
X36074Y-29795D01*
X35915Y-29688D01*
X35739Y-29614D01*
X35552Y-29576D01*
X35361Y-29574D01*
X35173Y-29610D01*
X34996Y-29682D01*
X34836Y-29786D01*
X34699Y-29920D01*
X34591Y-30078D01*
X34516Y-30253D01*
X34476Y-30440D01*
X34474Y-30631D01*
X34508Y-30819D01*
X34579Y-30997D01*
X34682Y-31158D01*
X34815Y-31295D01*
X34972Y-31404D01*
X35147Y-31481D01*
X35334Y-31522D01*
X35525Y-31526D01*
X35713Y-31493D01*
X35891Y-31423D01*
X36052Y-31321D01*
X36191Y-31189D01*
X36301Y-31033D01*
X36379Y-30859D01*
X36421Y-30672D01*
X36424Y-30454D01*
X36424Y-32908D01*
X36162Y-33170D01*
X36146Y-33194D01*
X36135Y-33221D01*
X36129Y-33249D01*
X36129Y-33279D01*
X36135Y-33307D01*
X36146Y-33334D01*
X36162Y-33358D01*
X36182Y-33379D01*
X36572Y-33768D01*
X36596Y-33785D01*
X36623Y-33796D01*
X36652Y-33801D01*
X36681Y-33801D01*
X36709Y-33796D01*
X36736Y-33785D01*
X36760Y-33768D01*
X36781Y-33748D01*
X37282Y-33247D01*
X37298Y-33223D01*
X37309Y-33196D01*
X37315Y-33167D01*
X37315Y-33854D01*
X37081Y-34089D01*
X37064Y-34113D01*
X37053Y-34140D01*
X37048Y-34168D01*
X37048Y-34197D01*
X37053Y-34226D01*
X37064Y-34253D01*
X37081Y-34277D01*
X37083Y-34279D01*
X37068Y-34294D01*
X37022Y-34294D01*
X36969Y-34304D01*
X36920Y-34324D01*
X36875Y-34353D01*
X36837Y-34390D01*
X36807Y-34434D01*
X36786Y-34484D01*
X36774Y-34536D01*
X36774Y-34589D01*
X36783Y-34642D01*
X36803Y-34692D01*
X36832Y-34737D01*
X36869Y-34775D01*
X36913Y-34806D01*
X36962Y-34827D01*
X37014Y-34838D01*
X37068Y-34840D01*
X37120Y-34830D01*
X37170Y-34811D01*
X37215Y-34782D01*
X37254Y-34745D01*
X37285Y-34702D01*
X37307Y-34653D01*
X37319Y-34601D01*
X37319Y-34545D01*
X37334Y-34530D01*
X37491Y-34687D01*
X37515Y-34703D01*
X37539Y-34713D01*
X37437Y-34798D01*
X36571Y-35266D01*
X36571Y-34540D01*
X36561Y-34487D01*
X36541Y-34438D01*
X36511Y-34393D01*
X36473Y-34355D01*
X36429Y-34325D01*
X36380Y-34305D01*
X36327Y-34294D01*
X36274Y-34294D01*
X36221Y-34304D01*
X36172Y-34324D01*
X36127Y-34353D01*
X36090Y-34389D01*
X35699Y-34389D01*
X35666Y-34355D01*
X35622Y-34325D01*
X35573Y-34305D01*
X35520Y-34294D01*
X35467Y-34294D01*
X35414Y-34304D01*
X35365Y-34324D01*
X35320Y-34353D01*
X35282Y-34390D01*
X35252Y-34434D01*
X35230Y-34484D01*
X35219Y-34536D01*
X35219Y-34589D01*
X35228Y-34642D01*
X35248Y-34692D01*
X35277Y-34737D01*
X35314Y-34775D01*
X35358Y-34806D01*
X35407Y-34827D01*
X35459Y-34838D01*
X35513Y-34840D01*
X35565Y-34830D01*
X35615Y-34811D01*
X35660Y-34782D01*
X35699Y-34745D01*
X35700Y-34744D01*
X36091Y-34744D01*
X36121Y-34775D01*
X36165Y-34806D01*
X36214Y-34827D01*
X36266Y-34838D01*
X36320Y-34840D01*
X36372Y-34830D01*
X36422Y-34811D01*
X36467Y-34782D01*
X36506Y-34745D01*
X36537Y-34702D01*
X36559Y-34653D01*
X36571Y-34601D01*
X36571Y-34540D01*
X36571Y-35266D01*
X35998Y-35576D01*
X34839Y-35935D01*
X34839Y-34303D01*
X34829Y-34251D01*
X34808Y-34202D01*
X34779Y-34157D01*
X34741Y-34119D01*
X34697Y-34089D01*
X34647Y-34069D01*
X34595Y-34058D01*
X34542Y-34057D01*
X34489Y-34067D01*
X34440Y-34087D01*
X34395Y-34117D01*
X34357Y-34154D01*
X34326Y-34198D01*
X34305Y-34247D01*
X34300Y-34272D01*
X34196Y-34272D01*
X34196Y-34160D01*
X34191Y-34131D01*
X34180Y-34104D01*
X34163Y-34080D01*
X34143Y-34060D01*
X34119Y-34043D01*
X34092Y-34032D01*
X34063Y-34027D01*
X34034Y-34027D01*
X33326Y-34027D01*
X33297Y-34032D01*
X33270Y-34043D01*
X33246Y-34060D01*
X33225Y-34080D01*
X33209Y-34104D01*
X33198Y-34131D01*
X33192Y-34160D01*
X33192Y-34189D01*
X33192Y-34740D01*
X33198Y-34769D01*
X33209Y-34795D01*
X33225Y-34820D01*
X33246Y-34840D01*
X33270Y-34856D01*
X33297Y-34867D01*
X33326Y-34873D01*
X33355Y-34873D01*
X34063Y-34873D01*
X34092Y-34867D01*
X34119Y-34856D01*
X34143Y-34840D01*
X34163Y-34820D01*
X34180Y-34795D01*
X34191Y-34769D01*
X34196Y-34740D01*
X34196Y-34711D01*
X34196Y-34628D01*
X34447Y-34628D01*
X34463Y-34626D01*
X34479Y-34625D01*
X34480Y-34624D01*
X34481Y-34624D01*
X34497Y-34619D01*
X34513Y-34615D01*
X34514Y-34614D01*
X34514Y-34614D01*
X34529Y-34606D01*
X34537Y-34602D01*
X34587Y-34603D01*
X34640Y-34594D01*
X34690Y-34575D01*
X34735Y-34546D01*
X34774Y-34509D01*
X34805Y-34466D01*
X34826Y-34417D01*
X34838Y-34365D01*
X34839Y-34303D01*
X34839Y-35935D01*
X34435Y-36060D01*
X34183Y-36087D01*
X34191Y-36068D01*
X34196Y-36039D01*
X34196Y-35796D01*
X34196Y-35702D01*
X34196Y-35459D01*
X34191Y-35430D01*
X34180Y-35404D01*
X34163Y-35379D01*
X34143Y-35359D01*
X34119Y-35343D01*
X34092Y-35332D01*
X34063Y-35326D01*
X34034Y-35326D01*
X33741Y-35326D01*
X33704Y-35363D01*
X33704Y-35739D01*
X34159Y-35739D01*
X34196Y-35702D01*
X34196Y-35796D01*
X34159Y-35759D01*
X33704Y-35759D01*
X33704Y-35767D01*
X33685Y-35767D01*
X33685Y-35759D01*
X33685Y-35739D01*
X33685Y-35363D01*
X33648Y-35326D01*
X33355Y-35326D01*
X33326Y-35326D01*
X33297Y-35332D01*
X33270Y-35343D01*
X33246Y-35359D01*
X33225Y-35379D01*
X33209Y-35404D01*
X33198Y-35430D01*
X33192Y-35459D01*
X33192Y-35702D01*
X33229Y-35739D01*
X33685Y-35739D01*
X33685Y-35759D01*
X33229Y-35759D01*
X33192Y-35796D01*
X33192Y-36039D01*
X33198Y-36068D01*
X33209Y-36095D01*
X33225Y-36119D01*
X33246Y-36139D01*
X33270Y-36156D01*
X33297Y-36167D01*
X33326Y-36172D01*
X33355Y-36172D01*
X33368Y-36172D01*
X32800Y-36232D01*
X32757Y-36232D01*
X32147Y-36172D01*
X32173Y-36172D01*
X32202Y-36167D01*
X32229Y-36156D01*
X32253Y-36139D01*
X32274Y-36119D01*
X32290Y-36095D01*
X32301Y-36068D01*
X32307Y-36039D01*
X32307Y-36010D01*
X32307Y-35459D01*
X32307Y-34740D01*
X32307Y-34711D01*
X32307Y-34160D01*
X32301Y-34131D01*
X32290Y-34104D01*
X32274Y-34080D01*
X32253Y-34060D01*
X32229Y-34043D01*
X32202Y-34032D01*
X32173Y-34027D01*
X32144Y-34027D01*
X31436Y-34027D01*
X31407Y-34032D01*
X31380Y-34043D01*
X31356Y-34060D01*
X31336Y-34080D01*
X31319Y-34104D01*
X31308Y-34131D01*
X31303Y-34160D01*
X31303Y-34189D01*
X31303Y-34740D01*
X31308Y-34769D01*
X31319Y-34795D01*
X31336Y-34820D01*
X31356Y-34840D01*
X31380Y-34856D01*
X31407Y-34867D01*
X31436Y-34873D01*
X31465Y-34873D01*
X32173Y-34873D01*
X32202Y-34867D01*
X32229Y-34856D01*
X32253Y-34840D01*
X32274Y-34820D01*
X32290Y-34795D01*
X32301Y-34769D01*
X32307Y-34740D01*
X32307Y-35459D01*
X32301Y-35430D01*
X32290Y-35404D01*
X32274Y-35379D01*
X32253Y-35359D01*
X32229Y-35343D01*
X32202Y-35332D01*
X32173Y-35326D01*
X32144Y-35326D01*
X31436Y-35326D01*
X31407Y-35332D01*
X31380Y-35343D01*
X31356Y-35359D01*
X31336Y-35379D01*
X31319Y-35404D01*
X31308Y-35430D01*
X31303Y-35459D01*
X31303Y-35488D01*
X31303Y-35571D01*
X31295Y-35571D01*
X30965Y-35241D01*
X30965Y-33301D01*
X31278Y-32988D01*
X31320Y-32989D01*
X31372Y-32980D01*
X31422Y-32961D01*
X31467Y-32932D01*
X31506Y-32895D01*
X31537Y-32851D01*
X31559Y-32803D01*
X31571Y-32750D01*
X31571Y-32689D01*
X31561Y-32637D01*
X31541Y-32587D01*
X31511Y-32543D01*
X31473Y-32505D01*
X31429Y-32475D01*
X31380Y-32454D01*
X31327Y-32444D01*
X31274Y-32443D01*
X31221Y-32453D01*
X31172Y-32473D01*
X31127Y-32503D01*
X31089Y-32540D01*
X31059Y-32584D01*
X31038Y-32633D01*
X31026Y-32685D01*
X31026Y-32738D01*
X31024Y-32740D01*
X31024Y-30454D01*
X30987Y-30267D01*
X30914Y-30090D01*
X30808Y-29931D01*
X30674Y-29795D01*
X30515Y-29688D01*
X30339Y-29614D01*
X30152Y-29576D01*
X29961Y-29574D01*
X29773Y-29610D01*
X29596Y-29682D01*
X29436Y-29786D01*
X29379Y-29842D01*
X29379Y-28478D01*
X29379Y-28255D01*
X29342Y-28218D01*
X28946Y-28218D01*
X28946Y-28574D01*
X28983Y-28611D01*
X29217Y-28611D01*
X29246Y-28611D01*
X29275Y-28606D01*
X29301Y-28594D01*
X29326Y-28578D01*
X29346Y-28558D01*
X29362Y-28534D01*
X29373Y-28507D01*
X29379Y-28478D01*
X29379Y-29842D01*
X29299Y-29920D01*
X29191Y-30078D01*
X29116Y-30253D01*
X29076Y-30440D01*
X29074Y-30631D01*
X29108Y-30819D01*
X29179Y-30997D01*
X29282Y-31158D01*
X29415Y-31295D01*
X29572Y-31404D01*
X29747Y-31481D01*
X29934Y-31522D01*
X30125Y-31526D01*
X30313Y-31493D01*
X30491Y-31423D01*
X30652Y-31321D01*
X30791Y-31189D01*
X30901Y-31033D01*
X30979Y-30859D01*
X31021Y-30672D01*
X31024Y-30454D01*
X31024Y-32740D01*
X30661Y-33102D01*
X30651Y-33115D01*
X30640Y-33127D01*
X30640Y-33128D01*
X30639Y-33129D01*
X30632Y-33143D01*
X30624Y-33158D01*
X30623Y-33159D01*
X30623Y-33160D01*
X30618Y-33175D01*
X30613Y-33191D01*
X30613Y-33192D01*
X30613Y-33193D01*
X30611Y-33209D01*
X30609Y-33225D01*
X30609Y-33227D01*
X30609Y-33227D01*
X30609Y-33227D01*
X30609Y-33228D01*
X30609Y-35314D01*
X30611Y-35331D01*
X30612Y-35347D01*
X30613Y-35348D01*
X30613Y-35349D01*
X30617Y-35365D01*
X30622Y-35380D01*
X30622Y-35381D01*
X30623Y-35382D01*
X30630Y-35397D01*
X30638Y-35411D01*
X30639Y-35412D01*
X30639Y-35413D01*
X30649Y-35425D01*
X30660Y-35438D01*
X30661Y-35440D01*
X30661Y-35440D01*
X30661Y-35440D01*
X30661Y-35440D01*
X31096Y-35875D01*
X31109Y-35885D01*
X31121Y-35896D01*
X31122Y-35896D01*
X31123Y-35897D01*
X31137Y-35904D01*
X31152Y-35912D01*
X31152Y-35913D01*
X31153Y-35913D01*
X31169Y-35918D01*
X31185Y-35923D01*
X31186Y-35923D01*
X31186Y-35923D01*
X31203Y-35925D01*
X31219Y-35927D01*
X31221Y-35927D01*
X31221Y-35927D01*
X31221Y-35927D01*
X31222Y-35927D01*
X31303Y-35927D01*
X31303Y-36039D01*
X31308Y-36068D01*
X31318Y-36091D01*
X31121Y-36072D01*
X29555Y-35599D01*
X29370Y-35500D01*
X29370Y-33279D01*
X29370Y-33249D01*
X29364Y-33221D01*
X29353Y-33194D01*
X29337Y-33170D01*
X29317Y-33149D01*
X28927Y-32759D01*
X28927Y-28574D01*
X28927Y-28218D01*
X28531Y-28218D01*
X28494Y-28255D01*
X28494Y-28478D01*
X28500Y-28507D01*
X28511Y-28534D01*
X28527Y-28558D01*
X28547Y-28578D01*
X28572Y-28594D01*
X28598Y-28606D01*
X28627Y-28611D01*
X28656Y-28611D01*
X28890Y-28611D01*
X28927Y-28574D01*
X28927Y-32759D01*
X28815Y-32648D01*
X28791Y-32632D01*
X28764Y-32621D01*
X28736Y-32615D01*
X28707Y-32615D01*
X28678Y-32621D01*
X28651Y-32632D01*
X28627Y-32648D01*
X28607Y-32669D01*
X28356Y-32920D01*
X28356Y-28478D01*
X28356Y-28255D01*
X28319Y-28218D01*
X27923Y-28218D01*
X27923Y-28574D01*
X27960Y-28611D01*
X28193Y-28611D01*
X28222Y-28611D01*
X28251Y-28606D01*
X28278Y-28594D01*
X28302Y-28578D01*
X28323Y-28558D01*
X28339Y-28534D01*
X28350Y-28507D01*
X28356Y-28478D01*
X28356Y-32920D01*
X28217Y-33059D01*
X28201Y-33083D01*
X28190Y-33110D01*
X28184Y-33138D01*
X28184Y-33167D01*
X28190Y-33196D01*
X28201Y-33223D01*
X28217Y-33247D01*
X28237Y-33267D01*
X28739Y-33768D01*
X28763Y-33785D01*
X28790Y-33796D01*
X28818Y-33801D01*
X28847Y-33801D01*
X28876Y-33796D01*
X28903Y-33785D01*
X28927Y-33768D01*
X28947Y-33748D01*
X29337Y-33358D01*
X29353Y-33334D01*
X29364Y-33307D01*
X29370Y-33279D01*
X29370Y-35500D01*
X28451Y-35012D01*
X28451Y-34197D01*
X28451Y-34168D01*
X28446Y-34140D01*
X28435Y-34113D01*
X28418Y-34089D01*
X28398Y-34068D01*
X28191Y-33861D01*
X28138Y-33861D01*
X28125Y-33875D01*
X28125Y-33847D01*
X28125Y-33795D01*
X28034Y-33704D01*
X28034Y-31942D01*
X28034Y-31913D01*
X28028Y-31885D01*
X28017Y-31858D01*
X28001Y-31834D01*
X27980Y-31813D01*
X27903Y-31736D01*
X27903Y-28574D01*
X27903Y-28218D01*
X27507Y-28218D01*
X27470Y-28255D01*
X27470Y-28478D01*
X27476Y-28507D01*
X27487Y-28534D01*
X27503Y-28558D01*
X27524Y-28578D01*
X27548Y-28594D01*
X27575Y-28606D01*
X27603Y-28611D01*
X27632Y-28611D01*
X27866Y-28611D01*
X27903Y-28574D01*
X27903Y-31736D01*
X27479Y-31312D01*
X27455Y-31296D01*
X27428Y-31285D01*
X27400Y-31279D01*
X27370Y-31279D01*
X27342Y-31285D01*
X27315Y-31296D01*
X27291Y-31312D01*
X27270Y-31332D01*
X26881Y-31722D01*
X26864Y-31746D01*
X26853Y-31773D01*
X26848Y-31802D01*
X26848Y-31831D01*
X26853Y-31859D01*
X26864Y-31886D01*
X26881Y-31910D01*
X26901Y-31931D01*
X27402Y-32432D01*
X27426Y-32448D01*
X27453Y-32459D01*
X27482Y-32465D01*
X27511Y-32465D01*
X27539Y-32459D01*
X27566Y-32448D01*
X27590Y-32432D01*
X27611Y-32412D01*
X28001Y-32022D01*
X28017Y-31998D01*
X28028Y-31971D01*
X28034Y-31942D01*
X28034Y-33704D01*
X27917Y-33587D01*
X27897Y-33567D01*
X27873Y-33551D01*
X27846Y-33540D01*
X27817Y-33534D01*
X27788Y-33534D01*
X27760Y-33540D01*
X27733Y-33551D01*
X27709Y-33567D01*
X27536Y-33739D01*
X27536Y-33791D01*
X27858Y-34113D01*
X28125Y-33847D01*
X28125Y-33875D01*
X27872Y-34127D01*
X28194Y-34449D01*
X28246Y-34449D01*
X28418Y-34277D01*
X28435Y-34253D01*
X28446Y-34226D01*
X28451Y-34197D01*
X28451Y-35012D01*
X28111Y-34831D01*
X27964Y-34711D01*
X27984Y-34703D01*
X28008Y-34687D01*
X28180Y-34515D01*
X28180Y-34463D01*
X27858Y-34141D01*
X27853Y-34146D01*
X27839Y-34133D01*
X27844Y-34127D01*
X27522Y-33805D01*
X27470Y-33805D01*
X27298Y-33977D01*
X27282Y-34001D01*
X27271Y-34028D01*
X27265Y-34057D01*
X27265Y-34086D01*
X27271Y-34114D01*
X27282Y-34141D01*
X27298Y-34165D01*
X27312Y-34179D01*
X26843Y-33797D01*
X26429Y-33296D01*
X26484Y-33351D01*
X26508Y-33367D01*
X26535Y-33378D01*
X26563Y-33384D01*
X26592Y-33384D01*
X26621Y-33378D01*
X26648Y-33367D01*
X26672Y-33351D01*
X26692Y-33330D01*
X27082Y-32941D01*
X27098Y-32916D01*
X27109Y-32889D01*
X27115Y-32861D01*
X27115Y-32832D01*
X27109Y-32803D01*
X27098Y-32776D01*
X27082Y-32752D01*
X27062Y-32732D01*
X26650Y-32320D01*
X26650Y-29618D01*
X26640Y-29566D01*
X26619Y-29517D01*
X26590Y-29472D01*
X26552Y-29434D01*
X26508Y-29404D01*
X26458Y-29383D01*
X26406Y-29373D01*
X26356Y-29372D01*
X26327Y-29343D01*
X26327Y-29296D01*
X26439Y-29296D01*
X26468Y-29291D01*
X26495Y-29280D01*
X26519Y-29263D01*
X26539Y-29243D01*
X26556Y-29219D01*
X26567Y-29192D01*
X26572Y-29163D01*
X26572Y-29134D01*
X26572Y-28426D01*
X26572Y-27273D01*
X26572Y-27244D01*
X26572Y-26536D01*
X26567Y-26507D01*
X26556Y-26480D01*
X26539Y-26456D01*
X26519Y-26436D01*
X26495Y-26419D01*
X26468Y-26408D01*
X26439Y-26403D01*
X26434Y-26403D01*
X26434Y-24914D01*
X26423Y-24861D01*
X26403Y-24812D01*
X26373Y-24767D01*
X26336Y-24729D01*
X26291Y-24699D01*
X26242Y-24679D01*
X26190Y-24668D01*
X26136Y-24668D01*
X26084Y-24678D01*
X26034Y-24698D01*
X25989Y-24727D01*
X25951Y-24764D01*
X25921Y-24808D01*
X25900Y-24858D01*
X25889Y-24910D01*
X25888Y-24962D01*
X25552Y-25298D01*
X25506Y-25298D01*
X25454Y-25308D01*
X25404Y-25328D01*
X25359Y-25357D01*
X25321Y-25394D01*
X25291Y-25438D01*
X25270Y-25488D01*
X25259Y-25540D01*
X25258Y-25593D01*
X25268Y-25646D01*
X25287Y-25696D01*
X25316Y-25741D01*
X25353Y-25779D01*
X25397Y-25810D01*
X25446Y-25831D01*
X25499Y-25842D01*
X25552Y-25844D01*
X25605Y-25834D01*
X25655Y-25815D01*
X25700Y-25786D01*
X25738Y-25749D01*
X25769Y-25706D01*
X25791Y-25657D01*
X25803Y-25605D01*
X25804Y-25549D01*
X26140Y-25213D01*
X26182Y-25214D01*
X26235Y-25204D01*
X26284Y-25185D01*
X26330Y-25156D01*
X26368Y-25119D01*
X26399Y-25076D01*
X26421Y-25027D01*
X26433Y-24975D01*
X26434Y-24914D01*
X26434Y-26403D01*
X26410Y-26403D01*
X25859Y-26403D01*
X25830Y-26408D01*
X25804Y-26419D01*
X25779Y-26436D01*
X25759Y-26456D01*
X25743Y-26480D01*
X25732Y-26507D01*
X25726Y-26536D01*
X25726Y-26565D01*
X25726Y-27273D01*
X25732Y-27302D01*
X25743Y-27329D01*
X25759Y-27353D01*
X25779Y-27374D01*
X25804Y-27390D01*
X25830Y-27401D01*
X25859Y-27407D01*
X25888Y-27407D01*
X26439Y-27407D01*
X26468Y-27401D01*
X26495Y-27390D01*
X26519Y-27374D01*
X26539Y-27353D01*
X26556Y-27329D01*
X26567Y-27302D01*
X26572Y-27273D01*
X26572Y-28426D01*
X26567Y-28397D01*
X26556Y-28370D01*
X26539Y-28346D01*
X26519Y-28325D01*
X26495Y-28309D01*
X26468Y-28298D01*
X26439Y-28292D01*
X26410Y-28292D01*
X25859Y-28292D01*
X25830Y-28298D01*
X25804Y-28309D01*
X25779Y-28325D01*
X25759Y-28346D01*
X25743Y-28370D01*
X25732Y-28397D01*
X25726Y-28426D01*
X25726Y-28455D01*
X25726Y-29163D01*
X25732Y-29192D01*
X25743Y-29219D01*
X25759Y-29243D01*
X25779Y-29263D01*
X25804Y-29280D01*
X25830Y-29291D01*
X25859Y-29296D01*
X25888Y-29296D01*
X25971Y-29296D01*
X25971Y-29417D01*
X25973Y-29433D01*
X25975Y-29449D01*
X25975Y-29450D01*
X25975Y-29451D01*
X25980Y-29467D01*
X25984Y-29483D01*
X25985Y-29484D01*
X25985Y-29485D01*
X25993Y-29499D01*
X26000Y-29514D01*
X26001Y-29514D01*
X26001Y-29515D01*
X26012Y-29528D01*
X26022Y-29541D01*
X26023Y-29542D01*
X26023Y-29542D01*
X26023Y-29542D01*
X26023Y-29542D01*
X26105Y-29624D01*
X26104Y-29668D01*
X26114Y-29721D01*
X26134Y-29770D01*
X26163Y-29815D01*
X26200Y-29854D01*
X26244Y-29884D01*
X26293Y-29906D01*
X26345Y-29917D01*
X26398Y-29918D01*
X26451Y-29909D01*
X26501Y-29890D01*
X26546Y-29861D01*
X26585Y-29824D01*
X26616Y-29780D01*
X26637Y-29732D01*
X26649Y-29680D01*
X26650Y-29618D01*
X26650Y-32320D01*
X26560Y-32231D01*
X26536Y-32214D01*
X26509Y-32203D01*
X26481Y-32198D01*
X26452Y-32198D01*
X26423Y-32203D01*
X26396Y-32214D01*
X26377Y-32228D01*
X26295Y-32146D01*
X26296Y-32099D01*
X26296Y-31154D01*
X26285Y-31101D01*
X26265Y-31052D01*
X26235Y-31007D01*
X26201Y-30973D01*
X26201Y-30561D01*
X26231Y-30533D01*
X26261Y-30489D01*
X26283Y-30440D01*
X26295Y-30388D01*
X26296Y-30327D01*
X26285Y-30275D01*
X26265Y-30225D01*
X26235Y-30181D01*
X26198Y-30143D01*
X26153Y-30113D01*
X26104Y-30092D01*
X26052Y-30081D01*
X25998Y-30081D01*
X25946Y-30091D01*
X25896Y-30111D01*
X25851Y-30140D01*
X25813Y-30178D01*
X25783Y-30222D01*
X25762Y-30271D01*
X25751Y-30323D01*
X25750Y-30377D01*
X25760Y-30429D01*
X25779Y-30479D01*
X25808Y-30524D01*
X25845Y-30562D01*
X25845Y-30973D01*
X25813Y-31005D01*
X25783Y-31049D01*
X25762Y-31098D01*
X25751Y-31150D01*
X25750Y-31204D01*
X25760Y-31256D01*
X25779Y-31306D01*
X25808Y-31351D01*
X25846Y-31389D01*
X25889Y-31420D01*
X25938Y-31441D01*
X25991Y-31453D01*
X26044Y-31454D01*
X26097Y-31444D01*
X26147Y-31425D01*
X26192Y-31396D01*
X26231Y-31360D01*
X26261Y-31316D01*
X26283Y-31267D01*
X26295Y-31215D01*
X26296Y-31154D01*
X26296Y-32099D01*
X26285Y-32046D01*
X26265Y-31997D01*
X26235Y-31952D01*
X26198Y-31914D01*
X26153Y-31884D01*
X26104Y-31864D01*
X26052Y-31853D01*
X25998Y-31853D01*
X25946Y-31863D01*
X25896Y-31883D01*
X25851Y-31912D01*
X25813Y-31949D01*
X25783Y-31994D01*
X25762Y-32043D01*
X25751Y-32095D01*
X25750Y-32148D01*
X25760Y-32201D01*
X25779Y-32251D01*
X25808Y-32296D01*
X25846Y-32334D01*
X25889Y-32365D01*
X25938Y-32386D01*
X25991Y-32398D01*
X26044Y-32399D01*
X26045Y-32398D01*
X26125Y-32478D01*
X25962Y-32641D01*
X25946Y-32665D01*
X25935Y-32692D01*
X25934Y-32697D01*
X25801Y-32537D01*
X25273Y-31561D01*
X25273Y-29163D01*
X25273Y-29134D01*
X25273Y-28841D01*
X25273Y-28748D01*
X25273Y-28455D01*
X25273Y-28426D01*
X25267Y-28397D01*
X25256Y-28370D01*
X25240Y-28346D01*
X25220Y-28325D01*
X25195Y-28309D01*
X25169Y-28298D01*
X25140Y-28292D01*
X24897Y-28292D01*
X24860Y-28329D01*
X24860Y-28785D01*
X25236Y-28785D01*
X25273Y-28748D01*
X25273Y-28841D01*
X25236Y-28804D01*
X24860Y-28804D01*
X24860Y-29259D01*
X24897Y-29296D01*
X25140Y-29296D01*
X25169Y-29291D01*
X25195Y-29280D01*
X25220Y-29263D01*
X25240Y-29243D01*
X25256Y-29219D01*
X25267Y-29192D01*
X25273Y-29163D01*
X25273Y-31561D01*
X25023Y-31098D01*
X24539Y-29535D01*
X24512Y-29283D01*
X24531Y-29291D01*
X24560Y-29296D01*
X24803Y-29296D01*
X24840Y-29259D01*
X24840Y-28804D01*
X24832Y-28804D01*
X24832Y-28785D01*
X24840Y-28785D01*
X24840Y-28329D01*
X24803Y-28292D01*
X24560Y-28292D01*
X24531Y-28298D01*
X24504Y-28309D01*
X24480Y-28325D01*
X24460Y-28346D01*
X24443Y-28370D01*
X24432Y-28397D01*
X24427Y-28426D01*
X24427Y-28455D01*
X24427Y-28468D01*
X24367Y-27900D01*
X24367Y-27857D01*
X24427Y-27247D01*
X24427Y-27273D01*
X24432Y-27302D01*
X24443Y-27329D01*
X24460Y-27353D01*
X24480Y-27374D01*
X24504Y-27390D01*
X24531Y-27401D01*
X24560Y-27407D01*
X24589Y-27407D01*
X25140Y-27407D01*
X25169Y-27401D01*
X25195Y-27390D01*
X25220Y-27374D01*
X25240Y-27353D01*
X25256Y-27329D01*
X25267Y-27302D01*
X25273Y-27273D01*
X25273Y-27244D01*
X25273Y-26536D01*
X25267Y-26507D01*
X25256Y-26480D01*
X25240Y-26456D01*
X25220Y-26436D01*
X25195Y-26419D01*
X25169Y-26408D01*
X25140Y-26403D01*
X25111Y-26403D01*
X25040Y-26403D01*
X25084Y-26386D01*
X25129Y-26357D01*
X25168Y-26320D01*
X25198Y-26277D01*
X25220Y-26228D01*
X25232Y-26176D01*
X25233Y-26114D01*
X25222Y-26062D01*
X25202Y-26013D01*
X25172Y-25968D01*
X25135Y-25930D01*
X25090Y-25900D01*
X25041Y-25880D01*
X24989Y-25869D01*
X24935Y-25868D01*
X24883Y-25878D01*
X24833Y-25898D01*
X24788Y-25928D01*
X24750Y-25965D01*
X24720Y-26009D01*
X24699Y-26058D01*
X24688Y-26111D01*
X24687Y-26164D01*
X24689Y-26176D01*
X24687Y-26181D01*
X24686Y-26182D01*
X24686Y-26183D01*
X24681Y-26199D01*
X24676Y-26215D01*
X24676Y-26215D01*
X24676Y-26216D01*
X24674Y-26233D01*
X24672Y-26249D01*
X24672Y-26251D01*
X24672Y-26251D01*
X24672Y-26251D01*
X24672Y-26251D01*
X24672Y-26403D01*
X24560Y-26403D01*
X24531Y-26408D01*
X24508Y-26418D01*
X24527Y-26221D01*
X25000Y-24655D01*
X25768Y-23211D01*
X25888Y-23064D01*
X25896Y-23084D01*
X25912Y-23108D01*
X26084Y-23280D01*
X26136Y-23280D01*
X26458Y-22958D01*
X26453Y-22953D01*
X26466Y-22939D01*
X26472Y-22944D01*
X26794Y-22622D01*
X26794Y-22570D01*
X26622Y-22398D01*
X26598Y-22382D01*
X26571Y-22371D01*
X26542Y-22365D01*
X26513Y-22365D01*
X26485Y-22371D01*
X26458Y-22382D01*
X26434Y-22398D01*
X26420Y-22412D01*
X26802Y-21943D01*
X27303Y-21529D01*
X27248Y-21584D01*
X27232Y-21608D01*
X27221Y-21635D01*
X27215Y-21663D01*
X27215Y-21692D01*
X27221Y-21721D01*
X27232Y-21748D01*
X27248Y-21772D01*
X27269Y-21792D01*
X27659Y-22182D01*
X27683Y-22198D01*
X27710Y-22209D01*
X27738Y-22215D01*
X27767Y-22215D01*
X27796Y-22209D01*
X27823Y-22198D01*
X27847Y-22182D01*
X27867Y-22162D01*
X28368Y-21660D01*
X28385Y-21636D01*
X28396Y-21609D01*
X28401Y-21581D01*
X28401Y-21552D01*
X28396Y-21523D01*
X28385Y-21496D01*
X28368Y-21472D01*
X28348Y-21452D01*
X28289Y-21393D01*
X28416Y-21265D01*
X28458Y-21284D01*
X28510Y-21295D01*
X28564Y-21296D01*
X28616Y-21287D01*
X28666Y-21268D01*
X28711Y-21239D01*
X28750Y-21202D01*
X28781Y-21158D01*
X28803Y-21110D01*
X28815Y-21057D01*
X28815Y-20996D01*
X28805Y-20944D01*
X28785Y-20895D01*
X28755Y-20850D01*
X28717Y-20812D01*
X28673Y-20782D01*
X28624Y-20761D01*
X28571Y-20751D01*
X28518Y-20750D01*
X28465Y-20760D01*
X28416Y-20780D01*
X28371Y-20810D01*
X28333Y-20847D01*
X28317Y-20871D01*
X28310Y-20874D01*
X28310Y-20875D01*
X28309Y-20875D01*
X28296Y-20886D01*
X28283Y-20896D01*
X28282Y-20897D01*
X28282Y-20897D01*
X28282Y-20897D01*
X28282Y-20898D01*
X28038Y-21141D01*
X27958Y-21062D01*
X27934Y-21046D01*
X27907Y-21035D01*
X27902Y-21034D01*
X28062Y-20901D01*
X29501Y-20123D01*
X31064Y-19639D01*
X31316Y-19612D01*
X31308Y-19631D01*
X31303Y-19660D01*
X31303Y-19903D01*
X31340Y-19940D01*
X31795Y-19940D01*
X31795Y-19932D01*
X31814Y-19932D01*
X31814Y-19940D01*
X32270Y-19940D01*
X32307Y-19903D01*
X32307Y-19660D01*
X32301Y-19631D01*
X32290Y-19604D01*
X32274Y-19580D01*
X32253Y-19560D01*
X32229Y-19543D01*
X32202Y-19532D01*
X32173Y-19527D01*
X32144Y-19527D01*
X32131Y-19527D01*
X32699Y-19467D01*
X32742Y-19467D01*
X33352Y-19527D01*
X33326Y-19527D01*
X33297Y-19532D01*
X33270Y-19543D01*
X33246Y-19560D01*
X33225Y-19580D01*
X33209Y-19604D01*
X33198Y-19631D01*
X33192Y-19660D01*
X33192Y-19689D01*
X33192Y-20240D01*
X33198Y-20269D01*
X33209Y-20295D01*
X33225Y-20320D01*
X33246Y-20340D01*
X33270Y-20356D01*
X33297Y-20367D01*
X33326Y-20373D01*
X33355Y-20373D01*
X34063Y-20373D01*
X34092Y-20367D01*
X34119Y-20356D01*
X34143Y-20340D01*
X34163Y-20320D01*
X34180Y-20295D01*
X34191Y-20269D01*
X34196Y-20240D01*
X34196Y-20211D01*
X34196Y-20128D01*
X34220Y-20128D01*
X34224Y-20154D01*
X34244Y-20203D01*
X34273Y-20248D01*
X34310Y-20287D01*
X34354Y-20317D01*
X34403Y-20339D01*
X34455Y-20350D01*
X34509Y-20351D01*
X34561Y-20342D01*
X34611Y-20323D01*
X34656Y-20294D01*
X34695Y-20257D01*
X34726Y-20214D01*
X34748Y-20165D01*
X34759Y-20113D01*
X34760Y-20052D01*
X34750Y-19999D01*
X34730Y-19950D01*
X34700Y-19905D01*
X34662Y-19867D01*
X34618Y-19837D01*
X34569Y-19817D01*
X34516Y-19806D01*
X34463Y-19805D01*
X34462Y-19806D01*
X34460Y-19803D01*
X34459Y-19803D01*
X34458Y-19802D01*
X34444Y-19795D01*
X34429Y-19787D01*
X34428Y-19786D01*
X34428Y-19786D01*
X34412Y-19781D01*
X34396Y-19776D01*
X34395Y-19776D01*
X34394Y-19776D01*
X34378Y-19774D01*
X34362Y-19772D01*
X34360Y-19772D01*
X34360Y-19772D01*
X34360Y-19772D01*
X34359Y-19772D01*
X34196Y-19772D01*
X34196Y-19660D01*
X34191Y-19631D01*
X34181Y-19608D01*
X34378Y-19627D01*
X35944Y-20100D01*
X37388Y-20868D01*
X37585Y-21029D01*
X37570Y-21029D01*
X37542Y-21035D01*
X37515Y-21046D01*
X37491Y-21062D01*
X37319Y-21234D01*
X37319Y-21286D01*
X37641Y-21608D01*
X37907Y-21342D01*
X37907Y-21291D01*
X38656Y-21902D01*
X39309Y-22692D01*
X39015Y-22398D01*
X38991Y-22382D01*
X38964Y-22371D01*
X38936Y-22365D01*
X38907Y-22365D01*
X38878Y-22371D01*
X38851Y-22382D01*
X38827Y-22398D01*
X38807Y-22419D01*
X38417Y-22809D01*
X38401Y-22833D01*
X38390Y-22860D01*
X38384Y-22888D01*
X38384Y-22917D01*
X38390Y-22946D01*
X38401Y-22973D01*
X38417Y-22997D01*
X38437Y-23017D01*
X38939Y-23518D01*
X38963Y-23535D01*
X38990Y-23546D01*
X39018Y-23551D01*
X39047Y-23551D01*
X39076Y-23546D01*
X39103Y-23535D01*
X39127Y-23518D01*
X39129Y-23516D01*
X39155Y-23555D01*
X39192Y-23594D01*
X39236Y-23624D01*
X39285Y-23646D01*
X39337Y-23657D01*
X39391Y-23658D01*
X39443Y-23649D01*
X39493Y-23630D01*
X39538Y-23601D01*
X39577Y-23564D01*
X39608Y-23521D01*
X39630Y-23472D01*
X39641Y-23420D01*
X39642Y-23359D01*
X39632Y-23306D01*
X39611Y-23257D01*
X39582Y-23212D01*
X39544Y-23174D01*
X39500Y-23145D01*
X39537Y-23108D01*
X39553Y-23084D01*
X39564Y-23057D01*
X39570Y-23029D01*
X39570Y-23007D01*
X39698Y-23162D01*
X40476Y-24601D01*
X40960Y-26164D01*
X40987Y-26416D01*
X40968Y-26408D01*
X40939Y-26403D01*
X40696Y-26403D01*
X40659Y-26440D01*
X40659Y-26895D01*
X40667Y-26895D01*
X40667Y-26914D01*
X40659Y-26914D01*
X40659Y-27370D01*
X40696Y-27407D01*
X40939Y-27407D01*
X40968Y-27401D01*
X40995Y-27390D01*
X41019Y-27374D01*
X41039Y-27353D01*
X41056Y-27329D01*
X41067Y-27302D01*
X41072Y-27273D01*
X41072Y-27244D01*
X41072Y-27231D01*
X41132Y-27799D01*
X41132Y-27842D01*
M02*
