M48
INCH,TZ
T1C0.025
T2C0.032
T3C0.040
%
G05
T1
X25429Y-27539
X26011Y-27716
X26777Y-27632
X26902Y-24383
X26912Y-29295
X27117Y-26354
X27262Y-33066
X27359Y-22131
X27959Y-32968
X28820Y-29965
X29899Y-35514
X29941Y-33909
X30340Y-30588
X30419Y-25984
X31029Y-32543
X31141Y-30448
X31654Y-26853
X31758Y-28758
X31806Y-32812
X32533Y-26675
X32726Y-28316
X32792Y-25210
X33110Y-34604
X33244Y-20548
X33300Y-22136
X33439Y-26781
X34037Y-30892
X34276Y-26252
X34395Y-30005
X34426Y-34620
X34763Y-25875
X34775Y-25303
X34999Y-29359
X35223Y-30046
X35393Y-33228
X35482Y-31847
X35560Y-30403
X35577Y-26527
X36949Y-30920
X37168Y-27948
X37209Y-28890
X37770Y-33168
X38276Y-30864
X38516Y-28833
X38537Y-22515
X38562Y-29762
X38861Y-29130
X38879Y-28191
X39879Y-27670
T2
X29300Y-25400
X29300Y-26400
X29300Y-27400
X29300Y-28400
X29300Y-29400
X29300Y-30400
X29300Y-31400
X29300Y-32400
X30300Y-24400
X31300Y-24400
X32300Y-24400
X33300Y-24400
X34300Y-24400
X35300Y-24400
X36300Y-25400
X36300Y-26400
X36300Y-27400
X36300Y-28400
X36300Y-29400
X36300Y-30400
X36300Y-31400
X36300Y-32400
T3
X32300Y-31400
X32300Y-32400
X32300Y-33400
X33300Y-31400
X33300Y-32400
X33300Y-33400
T0
M30
