G04 (created by PCBNEW-RS274X (2010-04-21 BZR 23xx)-stable) date Thu 02 Sep 2010 05:41:50 AM CEST*
G01*
G70*
G90*
%MOIN*%
G04 Gerber Fmt 3.4, Leading zero omitted, Abs format*
%FSLAX34Y34*%
G04 APERTURE LIST*
%ADD10C,0.001000*%
%ADD11C,0.008000*%
%ADD12C,0.010000*%
%ADD13C,0.007500*%
%ADD14C,0.015000*%
%ADD15C,0.012000*%
%ADD16C,0.002600*%
%ADD17C,0.002000*%
%ADD18C,0.004000*%
%ADD19C,0.006000*%
G04 APERTURE END LIST*
G54D10*
G54D11*
X35138Y-34067D02*
X34738Y-33934D01*
X35138Y-33800D01*
X34757Y-33686D02*
X34738Y-33629D01*
X34738Y-33533D01*
X34757Y-33495D01*
X34776Y-33476D01*
X34814Y-33457D01*
X34852Y-33457D01*
X34890Y-33476D01*
X34910Y-33495D01*
X34929Y-33533D01*
X34948Y-33610D01*
X34967Y-33648D01*
X34986Y-33667D01*
X35024Y-33686D01*
X35062Y-33686D01*
X35100Y-33667D01*
X35119Y-33648D01*
X35138Y-33610D01*
X35138Y-33514D01*
X35119Y-33457D01*
X34948Y-33286D02*
X34948Y-33152D01*
X34738Y-33095D02*
X34738Y-33286D01*
X35138Y-33286D01*
X35138Y-33095D01*
X34738Y-32733D02*
X34738Y-32924D01*
X35138Y-32924D01*
X34738Y-31990D02*
X35138Y-31990D01*
X34757Y-31819D02*
X34738Y-31762D01*
X34738Y-31666D01*
X34757Y-31628D01*
X34776Y-31609D01*
X34814Y-31590D01*
X34852Y-31590D01*
X34890Y-31609D01*
X34910Y-31628D01*
X34929Y-31666D01*
X34948Y-31743D01*
X34967Y-31781D01*
X34986Y-31800D01*
X35024Y-31819D01*
X35062Y-31819D01*
X35100Y-31800D01*
X35119Y-31781D01*
X35138Y-31743D01*
X35138Y-31647D01*
X35119Y-31590D01*
X34738Y-31419D02*
X35138Y-31419D01*
X35138Y-31266D01*
X35119Y-31228D01*
X35100Y-31209D01*
X35062Y-31190D01*
X35005Y-31190D01*
X34967Y-31209D01*
X34948Y-31228D01*
X34929Y-31266D01*
X34929Y-31419D01*
X30698Y-22660D02*
X31003Y-22660D01*
X30851Y-22812D02*
X30851Y-22507D01*
X36248Y-21560D02*
X36553Y-21560D01*
X36401Y-21712D02*
X36401Y-21407D01*
G54D12*
X28128Y-25162D02*
X27995Y-25562D01*
X27861Y-25162D01*
X27728Y-25562D02*
X27728Y-25295D01*
X27728Y-25162D02*
X27747Y-25181D01*
X27728Y-25200D01*
X27709Y-25181D01*
X27728Y-25162D01*
X27728Y-25200D01*
X38209Y-25162D02*
X38076Y-25562D01*
X37942Y-25162D01*
X37809Y-25562D02*
X37809Y-25295D01*
X37809Y-25162D02*
X37828Y-25181D01*
X37809Y-25200D01*
X37790Y-25181D01*
X37809Y-25162D01*
X37809Y-25200D01*
X37619Y-25295D02*
X37619Y-25562D01*
X37619Y-25333D02*
X37600Y-25314D01*
X37562Y-25295D01*
X37504Y-25295D01*
X37466Y-25314D01*
X37447Y-25352D01*
X37447Y-25562D01*
X32588Y-28161D02*
X32588Y-28390D01*
X32588Y-28276D02*
X32988Y-28276D01*
X32931Y-28314D01*
X32893Y-28352D01*
X32874Y-28390D01*
X32626Y-27990D02*
X32607Y-27971D01*
X32588Y-27990D01*
X32607Y-28009D01*
X32626Y-27990D01*
X32588Y-27990D01*
X32950Y-27819D02*
X32969Y-27800D01*
X32988Y-27762D01*
X32988Y-27666D01*
X32969Y-27628D01*
X32950Y-27609D01*
X32912Y-27590D01*
X32874Y-27590D01*
X32817Y-27609D01*
X32588Y-27838D01*
X32588Y-27590D01*
X32950Y-27438D02*
X32969Y-27419D01*
X32988Y-27381D01*
X32988Y-27285D01*
X32969Y-27247D01*
X32950Y-27228D01*
X32912Y-27209D01*
X32874Y-27209D01*
X32817Y-27228D01*
X32588Y-27457D01*
X32588Y-27209D01*
X35138Y-26107D02*
X35538Y-26107D01*
X35538Y-26012D01*
X35519Y-25954D01*
X35481Y-25916D01*
X35443Y-25897D01*
X35367Y-25878D01*
X35310Y-25878D01*
X35233Y-25897D01*
X35195Y-25916D01*
X35157Y-25954D01*
X35138Y-26012D01*
X35138Y-26107D01*
X35538Y-25764D02*
X35538Y-25535D01*
X35138Y-25650D02*
X35538Y-25650D01*
X35138Y-25173D02*
X35329Y-25307D01*
X35138Y-25402D02*
X35538Y-25402D01*
X35538Y-25249D01*
X35519Y-25211D01*
X35500Y-25192D01*
X35462Y-25173D01*
X35405Y-25173D01*
X35367Y-25192D01*
X35348Y-25211D01*
X35329Y-25249D01*
X35329Y-25402D01*
G54D13*
X36120Y-23350D02*
X36106Y-23336D01*
X36077Y-23321D01*
X36006Y-23321D01*
X35977Y-23336D01*
X35963Y-23350D01*
X35948Y-23379D01*
X35948Y-23407D01*
X35963Y-23450D01*
X36134Y-23621D01*
X35948Y-23621D01*
X35762Y-23321D02*
X35734Y-23321D01*
X35705Y-23336D01*
X35691Y-23350D01*
X35677Y-23379D01*
X35662Y-23436D01*
X35662Y-23507D01*
X35677Y-23564D01*
X35691Y-23593D01*
X35705Y-23607D01*
X35734Y-23621D01*
X35762Y-23621D01*
X35791Y-23607D01*
X35805Y-23593D01*
X35820Y-23564D01*
X35834Y-23507D01*
X35834Y-23436D01*
X35820Y-23379D01*
X35805Y-23350D01*
X35791Y-23336D01*
X35762Y-23321D01*
X35376Y-23621D02*
X35548Y-23621D01*
X35462Y-23621D02*
X35462Y-23321D01*
X35491Y-23364D01*
X35519Y-23393D01*
X35548Y-23407D01*
X35190Y-23321D02*
X35162Y-23321D01*
X35133Y-23336D01*
X35119Y-23350D01*
X35105Y-23379D01*
X35090Y-23436D01*
X35090Y-23507D01*
X35105Y-23564D01*
X35119Y-23593D01*
X35133Y-23607D01*
X35162Y-23621D01*
X35190Y-23621D01*
X35219Y-23607D01*
X35233Y-23593D01*
X35248Y-23564D01*
X35262Y-23507D01*
X35262Y-23436D01*
X35248Y-23379D01*
X35233Y-23350D01*
X35219Y-23336D01*
X35190Y-23321D01*
X34733Y-23507D02*
X34504Y-23507D01*
X34133Y-23621D02*
X34133Y-23321D01*
X34133Y-23436D02*
X34104Y-23421D01*
X34047Y-23421D01*
X34018Y-23436D01*
X34004Y-23450D01*
X33990Y-23479D01*
X33990Y-23564D01*
X34004Y-23593D01*
X34018Y-23607D01*
X34047Y-23621D01*
X34104Y-23621D01*
X34133Y-23607D01*
X33819Y-23621D02*
X33847Y-23607D01*
X33862Y-23579D01*
X33862Y-23321D01*
X33662Y-23621D02*
X33690Y-23607D01*
X33705Y-23593D01*
X33719Y-23564D01*
X33719Y-23479D01*
X33705Y-23450D01*
X33690Y-23436D01*
X33662Y-23421D01*
X33619Y-23421D01*
X33590Y-23436D01*
X33576Y-23450D01*
X33562Y-23479D01*
X33562Y-23564D01*
X33576Y-23593D01*
X33590Y-23607D01*
X33619Y-23621D01*
X33662Y-23621D01*
X33305Y-23421D02*
X33305Y-23664D01*
X33319Y-23693D01*
X33334Y-23707D01*
X33362Y-23721D01*
X33405Y-23721D01*
X33434Y-23707D01*
X33305Y-23607D02*
X33334Y-23621D01*
X33391Y-23621D01*
X33419Y-23607D01*
X33434Y-23593D01*
X33448Y-23564D01*
X33448Y-23479D01*
X33434Y-23450D01*
X33419Y-23436D01*
X33391Y-23421D01*
X33334Y-23421D01*
X33305Y-23436D01*
X33163Y-23593D02*
X33148Y-23607D01*
X33163Y-23621D01*
X33177Y-23607D01*
X33163Y-23593D01*
X33163Y-23621D01*
X33034Y-23607D02*
X33005Y-23621D01*
X32948Y-23621D01*
X32920Y-23607D01*
X32905Y-23579D01*
X32905Y-23564D01*
X32920Y-23536D01*
X32948Y-23521D01*
X32991Y-23521D01*
X33020Y-23507D01*
X33034Y-23479D01*
X33034Y-23464D01*
X33020Y-23436D01*
X32991Y-23421D01*
X32948Y-23421D01*
X32920Y-23436D01*
X32777Y-23421D02*
X32777Y-23721D01*
X32777Y-23436D02*
X32748Y-23421D01*
X32691Y-23421D01*
X32662Y-23436D01*
X32648Y-23450D01*
X32634Y-23479D01*
X32634Y-23564D01*
X32648Y-23593D01*
X32662Y-23607D01*
X32691Y-23621D01*
X32748Y-23621D01*
X32777Y-23607D01*
X32506Y-23621D02*
X32506Y-23421D01*
X32506Y-23321D02*
X32520Y-23336D01*
X32506Y-23350D01*
X32491Y-23336D01*
X32506Y-23321D01*
X32506Y-23350D01*
X32405Y-23421D02*
X32291Y-23421D01*
X32363Y-23321D02*
X32363Y-23579D01*
X32348Y-23607D01*
X32320Y-23621D01*
X32291Y-23621D01*
X32220Y-23421D02*
X32063Y-23421D01*
X32220Y-23621D01*
X32063Y-23621D01*
X31834Y-23607D02*
X31863Y-23621D01*
X31920Y-23621D01*
X31949Y-23607D01*
X31963Y-23579D01*
X31963Y-23464D01*
X31949Y-23436D01*
X31920Y-23421D01*
X31863Y-23421D01*
X31834Y-23436D01*
X31820Y-23464D01*
X31820Y-23493D01*
X31963Y-23521D01*
X31692Y-23421D02*
X31692Y-23621D01*
X31692Y-23450D02*
X31677Y-23436D01*
X31649Y-23421D01*
X31606Y-23421D01*
X31577Y-23436D01*
X31563Y-23464D01*
X31563Y-23621D01*
X31421Y-23421D02*
X31421Y-23721D01*
X31421Y-23436D02*
X31392Y-23421D01*
X31335Y-23421D01*
X31306Y-23436D01*
X31292Y-23450D01*
X31278Y-23479D01*
X31278Y-23564D01*
X31292Y-23593D01*
X31306Y-23607D01*
X31335Y-23621D01*
X31392Y-23621D01*
X31421Y-23607D01*
X31192Y-23421D02*
X31078Y-23421D01*
X31150Y-23621D02*
X31150Y-23364D01*
X31135Y-23336D01*
X31107Y-23321D01*
X31078Y-23321D01*
X30864Y-23607D02*
X30893Y-23621D01*
X30950Y-23621D01*
X30979Y-23607D01*
X30993Y-23579D01*
X30993Y-23464D01*
X30979Y-23436D01*
X30950Y-23421D01*
X30893Y-23421D01*
X30864Y-23436D01*
X30850Y-23464D01*
X30850Y-23493D01*
X30993Y-23521D01*
X30722Y-23621D02*
X30722Y-23421D01*
X30722Y-23321D02*
X30736Y-23336D01*
X30722Y-23350D01*
X30707Y-23336D01*
X30722Y-23321D01*
X30722Y-23350D01*
X30536Y-23621D02*
X30564Y-23607D01*
X30579Y-23579D01*
X30579Y-23321D01*
X30422Y-23593D02*
X30407Y-23607D01*
X30422Y-23621D01*
X30436Y-23607D01*
X30422Y-23593D01*
X30422Y-23621D01*
X30236Y-23621D02*
X30264Y-23607D01*
X30279Y-23593D01*
X30293Y-23564D01*
X30293Y-23479D01*
X30279Y-23450D01*
X30264Y-23436D01*
X30236Y-23421D01*
X30193Y-23421D01*
X30164Y-23436D01*
X30150Y-23450D01*
X30136Y-23479D01*
X30136Y-23564D01*
X30150Y-23593D01*
X30164Y-23607D01*
X30193Y-23621D01*
X30236Y-23621D01*
X30008Y-23621D02*
X30008Y-23421D01*
X30008Y-23479D02*
X29993Y-23450D01*
X29979Y-23436D01*
X29950Y-23421D01*
X29922Y-23421D01*
X29693Y-23421D02*
X29693Y-23664D01*
X29707Y-23693D01*
X29722Y-23707D01*
X29750Y-23721D01*
X29793Y-23721D01*
X29822Y-23707D01*
X29693Y-23607D02*
X29722Y-23621D01*
X29779Y-23621D01*
X29807Y-23607D01*
X29822Y-23593D01*
X29836Y-23564D01*
X29836Y-23479D01*
X29822Y-23450D01*
X29807Y-23436D01*
X29779Y-23421D01*
X29722Y-23421D01*
X29693Y-23436D01*
G54D14*
X26550Y-31470D02*
X26549Y-31471D01*
X26549Y-31473D01*
X26548Y-31475D01*
X26547Y-31477D01*
X26545Y-31478D01*
X26543Y-31479D01*
X26542Y-31479D01*
X26540Y-31479D01*
X26539Y-31479D01*
X26537Y-31479D01*
X26535Y-31478D01*
X26534Y-31477D01*
X26532Y-31475D01*
X26531Y-31473D01*
X26531Y-31472D01*
X26531Y-31470D01*
X26531Y-31469D01*
X26531Y-31467D01*
X26532Y-31465D01*
X26533Y-31464D01*
X26535Y-31462D01*
X26536Y-31461D01*
X26538Y-31461D01*
X26540Y-31461D01*
X26541Y-31461D01*
X26543Y-31461D01*
X26545Y-31462D01*
X26546Y-31463D01*
X26548Y-31465D01*
X26549Y-31466D01*
X26549Y-31468D01*
X26549Y-31470D01*
X26550Y-31470D01*
X26730Y-31470D02*
X26729Y-31471D01*
X26729Y-31473D01*
X26728Y-31475D01*
X26727Y-31477D01*
X26725Y-31478D01*
X26723Y-31479D01*
X26722Y-31479D01*
X26720Y-31479D01*
X26719Y-31479D01*
X26717Y-31479D01*
X26715Y-31478D01*
X26714Y-31477D01*
X26712Y-31475D01*
X26711Y-31473D01*
X26711Y-31472D01*
X26711Y-31470D01*
X26711Y-31469D01*
X26711Y-31467D01*
X26712Y-31465D01*
X26713Y-31464D01*
X26715Y-31462D01*
X26716Y-31461D01*
X26718Y-31461D01*
X26720Y-31461D01*
X26721Y-31461D01*
X26723Y-31461D01*
X26725Y-31462D01*
X26726Y-31463D01*
X26728Y-31465D01*
X26729Y-31466D01*
X26729Y-31468D01*
X26729Y-31470D01*
X26730Y-31470D01*
X27450Y-31470D02*
X27449Y-31471D01*
X27449Y-31473D01*
X27448Y-31475D01*
X27447Y-31477D01*
X27445Y-31478D01*
X27443Y-31479D01*
X27442Y-31479D01*
X27440Y-31479D01*
X27439Y-31479D01*
X27437Y-31479D01*
X27435Y-31478D01*
X27434Y-31477D01*
X27432Y-31475D01*
X27431Y-31473D01*
X27431Y-31472D01*
X27431Y-31470D01*
X27431Y-31469D01*
X27431Y-31467D01*
X27432Y-31465D01*
X27433Y-31464D01*
X27435Y-31462D01*
X27436Y-31461D01*
X27438Y-31461D01*
X27440Y-31461D01*
X27441Y-31461D01*
X27443Y-31461D01*
X27445Y-31462D01*
X27446Y-31463D01*
X27448Y-31465D01*
X27449Y-31466D01*
X27449Y-31468D01*
X27449Y-31470D01*
X27450Y-31470D01*
X27270Y-31470D02*
X27269Y-31471D01*
X27269Y-31473D01*
X27268Y-31475D01*
X27267Y-31477D01*
X27265Y-31478D01*
X27263Y-31479D01*
X27262Y-31479D01*
X27260Y-31479D01*
X27259Y-31479D01*
X27257Y-31479D01*
X27255Y-31478D01*
X27254Y-31477D01*
X27252Y-31475D01*
X27251Y-31473D01*
X27251Y-31472D01*
X27251Y-31470D01*
X27251Y-31469D01*
X27251Y-31467D01*
X27252Y-31465D01*
X27253Y-31464D01*
X27255Y-31462D01*
X27256Y-31461D01*
X27258Y-31461D01*
X27260Y-31461D01*
X27261Y-31461D01*
X27263Y-31461D01*
X27265Y-31462D01*
X27266Y-31463D01*
X27268Y-31465D01*
X27269Y-31466D01*
X27269Y-31468D01*
X27269Y-31470D01*
X27270Y-31470D01*
X26550Y-31290D02*
X26549Y-31291D01*
X26549Y-31293D01*
X26548Y-31295D01*
X26547Y-31297D01*
X26545Y-31298D01*
X26543Y-31299D01*
X26542Y-31299D01*
X26540Y-31299D01*
X26539Y-31299D01*
X26537Y-31299D01*
X26535Y-31298D01*
X26534Y-31297D01*
X26532Y-31295D01*
X26531Y-31293D01*
X26531Y-31292D01*
X26531Y-31290D01*
X26531Y-31289D01*
X26531Y-31287D01*
X26532Y-31285D01*
X26533Y-31284D01*
X26535Y-31282D01*
X26536Y-31281D01*
X26538Y-31281D01*
X26540Y-31281D01*
X26541Y-31281D01*
X26543Y-31281D01*
X26545Y-31282D01*
X26546Y-31283D01*
X26548Y-31285D01*
X26549Y-31286D01*
X26549Y-31288D01*
X26549Y-31290D01*
X26550Y-31290D01*
X26730Y-31290D02*
X26729Y-31291D01*
X26729Y-31293D01*
X26728Y-31295D01*
X26727Y-31297D01*
X26725Y-31298D01*
X26723Y-31299D01*
X26722Y-31299D01*
X26720Y-31299D01*
X26719Y-31299D01*
X26717Y-31299D01*
X26715Y-31298D01*
X26714Y-31297D01*
X26712Y-31295D01*
X26711Y-31293D01*
X26711Y-31292D01*
X26711Y-31290D01*
X26711Y-31289D01*
X26711Y-31287D01*
X26712Y-31285D01*
X26713Y-31284D01*
X26715Y-31282D01*
X26716Y-31281D01*
X26718Y-31281D01*
X26720Y-31281D01*
X26721Y-31281D01*
X26723Y-31281D01*
X26725Y-31282D01*
X26726Y-31283D01*
X26728Y-31285D01*
X26729Y-31286D01*
X26729Y-31288D01*
X26729Y-31290D01*
X26730Y-31290D01*
X27450Y-31290D02*
X27449Y-31291D01*
X27449Y-31293D01*
X27448Y-31295D01*
X27447Y-31297D01*
X27445Y-31298D01*
X27443Y-31299D01*
X27442Y-31299D01*
X27440Y-31299D01*
X27439Y-31299D01*
X27437Y-31299D01*
X27435Y-31298D01*
X27434Y-31297D01*
X27432Y-31295D01*
X27431Y-31293D01*
X27431Y-31292D01*
X27431Y-31290D01*
X27431Y-31289D01*
X27431Y-31287D01*
X27432Y-31285D01*
X27433Y-31284D01*
X27435Y-31282D01*
X27436Y-31281D01*
X27438Y-31281D01*
X27440Y-31281D01*
X27441Y-31281D01*
X27443Y-31281D01*
X27445Y-31282D01*
X27446Y-31283D01*
X27448Y-31285D01*
X27449Y-31286D01*
X27449Y-31288D01*
X27449Y-31290D01*
X27450Y-31290D01*
X27270Y-31290D02*
X27269Y-31291D01*
X27269Y-31293D01*
X27268Y-31295D01*
X27267Y-31297D01*
X27265Y-31298D01*
X27263Y-31299D01*
X27262Y-31299D01*
X27260Y-31299D01*
X27259Y-31299D01*
X27257Y-31299D01*
X27255Y-31298D01*
X27254Y-31297D01*
X27252Y-31295D01*
X27251Y-31293D01*
X27251Y-31292D01*
X27251Y-31290D01*
X27251Y-31289D01*
X27251Y-31287D01*
X27252Y-31285D01*
X27253Y-31284D01*
X27255Y-31282D01*
X27256Y-31281D01*
X27258Y-31281D01*
X27260Y-31281D01*
X27261Y-31281D01*
X27263Y-31281D01*
X27265Y-31282D01*
X27266Y-31283D01*
X27268Y-31285D01*
X27269Y-31286D01*
X27269Y-31288D01*
X27269Y-31290D01*
X27270Y-31290D01*
X26910Y-31830D02*
X26909Y-31831D01*
X26909Y-31833D01*
X26908Y-31835D01*
X26907Y-31837D01*
X26905Y-31838D01*
X26903Y-31839D01*
X26902Y-31839D01*
X26900Y-31839D01*
X26899Y-31839D01*
X26897Y-31839D01*
X26895Y-31838D01*
X26894Y-31837D01*
X26892Y-31835D01*
X26891Y-31833D01*
X26891Y-31832D01*
X26891Y-31830D01*
X26891Y-31829D01*
X26891Y-31827D01*
X26892Y-31825D01*
X26893Y-31824D01*
X26895Y-31822D01*
X26896Y-31821D01*
X26898Y-31821D01*
X26900Y-31821D01*
X26901Y-31821D01*
X26903Y-31821D01*
X26905Y-31822D01*
X26906Y-31823D01*
X26908Y-31825D01*
X26909Y-31826D01*
X26909Y-31828D01*
X26909Y-31830D01*
X26910Y-31830D01*
X27090Y-31830D02*
X27089Y-31831D01*
X27089Y-31833D01*
X27088Y-31835D01*
X27087Y-31837D01*
X27085Y-31838D01*
X27083Y-31839D01*
X27082Y-31839D01*
X27080Y-31839D01*
X27079Y-31839D01*
X27077Y-31839D01*
X27075Y-31838D01*
X27074Y-31837D01*
X27072Y-31835D01*
X27071Y-31833D01*
X27071Y-31832D01*
X27071Y-31830D01*
X27071Y-31829D01*
X27071Y-31827D01*
X27072Y-31825D01*
X27073Y-31824D01*
X27075Y-31822D01*
X27076Y-31821D01*
X27078Y-31821D01*
X27080Y-31821D01*
X27081Y-31821D01*
X27083Y-31821D01*
X27085Y-31822D01*
X27086Y-31823D01*
X27088Y-31825D01*
X27089Y-31826D01*
X27089Y-31828D01*
X27089Y-31830D01*
X27090Y-31830D01*
X27090Y-32010D02*
X27089Y-32011D01*
X27089Y-32013D01*
X27088Y-32015D01*
X27087Y-32017D01*
X27085Y-32018D01*
X27083Y-32019D01*
X27082Y-32019D01*
X27080Y-32019D01*
X27079Y-32019D01*
X27077Y-32019D01*
X27075Y-32018D01*
X27074Y-32017D01*
X27072Y-32015D01*
X27071Y-32013D01*
X27071Y-32012D01*
X27071Y-32010D01*
X27071Y-32009D01*
X27071Y-32007D01*
X27072Y-32005D01*
X27073Y-32004D01*
X27075Y-32002D01*
X27076Y-32001D01*
X27078Y-32001D01*
X27080Y-32001D01*
X27081Y-32001D01*
X27083Y-32001D01*
X27085Y-32002D01*
X27086Y-32003D01*
X27088Y-32005D01*
X27089Y-32006D01*
X27089Y-32008D01*
X27089Y-32010D01*
X27090Y-32010D01*
X27630Y-32010D02*
X27629Y-32011D01*
X27629Y-32013D01*
X27628Y-32015D01*
X27627Y-32017D01*
X27625Y-32018D01*
X27623Y-32019D01*
X27622Y-32019D01*
X27620Y-32019D01*
X27619Y-32019D01*
X27617Y-32019D01*
X27615Y-32018D01*
X27614Y-32017D01*
X27612Y-32015D01*
X27611Y-32013D01*
X27611Y-32012D01*
X27611Y-32010D01*
X27611Y-32009D01*
X27611Y-32007D01*
X27612Y-32005D01*
X27613Y-32004D01*
X27615Y-32002D01*
X27616Y-32001D01*
X27618Y-32001D01*
X27620Y-32001D01*
X27621Y-32001D01*
X27623Y-32001D01*
X27625Y-32002D01*
X27626Y-32003D01*
X27628Y-32005D01*
X27629Y-32006D01*
X27629Y-32008D01*
X27629Y-32010D01*
X27630Y-32010D01*
X26910Y-32010D02*
X26909Y-32011D01*
X26909Y-32013D01*
X26908Y-32015D01*
X26907Y-32017D01*
X26905Y-32018D01*
X26903Y-32019D01*
X26902Y-32019D01*
X26900Y-32019D01*
X26899Y-32019D01*
X26897Y-32019D01*
X26895Y-32018D01*
X26894Y-32017D01*
X26892Y-32015D01*
X26891Y-32013D01*
X26891Y-32012D01*
X26891Y-32010D01*
X26891Y-32009D01*
X26891Y-32007D01*
X26892Y-32005D01*
X26893Y-32004D01*
X26895Y-32002D01*
X26896Y-32001D01*
X26898Y-32001D01*
X26900Y-32001D01*
X26901Y-32001D01*
X26903Y-32001D01*
X26905Y-32002D01*
X26906Y-32003D01*
X26908Y-32005D01*
X26909Y-32006D01*
X26909Y-32008D01*
X26909Y-32010D01*
X26910Y-32010D01*
X26370Y-32010D02*
X26369Y-32011D01*
X26369Y-32013D01*
X26368Y-32015D01*
X26367Y-32017D01*
X26365Y-32018D01*
X26363Y-32019D01*
X26362Y-32019D01*
X26360Y-32019D01*
X26359Y-32019D01*
X26357Y-32019D01*
X26355Y-32018D01*
X26354Y-32017D01*
X26352Y-32015D01*
X26351Y-32013D01*
X26351Y-32012D01*
X26351Y-32010D01*
X26351Y-32009D01*
X26351Y-32007D01*
X26352Y-32005D01*
X26353Y-32004D01*
X26355Y-32002D01*
X26356Y-32001D01*
X26358Y-32001D01*
X26360Y-32001D01*
X26361Y-32001D01*
X26363Y-32001D01*
X26365Y-32002D01*
X26366Y-32003D01*
X26368Y-32005D01*
X26369Y-32006D01*
X26369Y-32008D01*
X26369Y-32010D01*
X26370Y-32010D01*
X26910Y-32370D02*
X26909Y-32371D01*
X26909Y-32373D01*
X26908Y-32375D01*
X26907Y-32377D01*
X26905Y-32378D01*
X26903Y-32379D01*
X26902Y-32379D01*
X26900Y-32379D01*
X26899Y-32379D01*
X26897Y-32379D01*
X26895Y-32378D01*
X26894Y-32377D01*
X26892Y-32375D01*
X26891Y-32373D01*
X26891Y-32372D01*
X26891Y-32370D01*
X26891Y-32369D01*
X26891Y-32367D01*
X26892Y-32365D01*
X26893Y-32364D01*
X26895Y-32362D01*
X26896Y-32361D01*
X26898Y-32361D01*
X26900Y-32361D01*
X26901Y-32361D01*
X26903Y-32361D01*
X26905Y-32362D01*
X26906Y-32363D01*
X26908Y-32365D01*
X26909Y-32366D01*
X26909Y-32368D01*
X26909Y-32370D01*
X26910Y-32370D01*
X26730Y-32370D02*
X26729Y-32371D01*
X26729Y-32373D01*
X26728Y-32375D01*
X26727Y-32377D01*
X26725Y-32378D01*
X26723Y-32379D01*
X26722Y-32379D01*
X26720Y-32379D01*
X26719Y-32379D01*
X26717Y-32379D01*
X26715Y-32378D01*
X26714Y-32377D01*
X26712Y-32375D01*
X26711Y-32373D01*
X26711Y-32372D01*
X26711Y-32370D01*
X26711Y-32369D01*
X26711Y-32367D01*
X26712Y-32365D01*
X26713Y-32364D01*
X26715Y-32362D01*
X26716Y-32361D01*
X26718Y-32361D01*
X26720Y-32361D01*
X26721Y-32361D01*
X26723Y-32361D01*
X26725Y-32362D01*
X26726Y-32363D01*
X26728Y-32365D01*
X26729Y-32366D01*
X26729Y-32368D01*
X26729Y-32370D01*
X26730Y-32370D01*
X27270Y-32370D02*
X27269Y-32371D01*
X27269Y-32373D01*
X27268Y-32375D01*
X27267Y-32377D01*
X27265Y-32378D01*
X27263Y-32379D01*
X27262Y-32379D01*
X27260Y-32379D01*
X27259Y-32379D01*
X27257Y-32379D01*
X27255Y-32378D01*
X27254Y-32377D01*
X27252Y-32375D01*
X27251Y-32373D01*
X27251Y-32372D01*
X27251Y-32370D01*
X27251Y-32369D01*
X27251Y-32367D01*
X27252Y-32365D01*
X27253Y-32364D01*
X27255Y-32362D01*
X27256Y-32361D01*
X27258Y-32361D01*
X27260Y-32361D01*
X27261Y-32361D01*
X27263Y-32361D01*
X27265Y-32362D01*
X27266Y-32363D01*
X27268Y-32365D01*
X27269Y-32366D01*
X27269Y-32368D01*
X27269Y-32370D01*
X27270Y-32370D01*
X27090Y-32370D02*
X27089Y-32371D01*
X27089Y-32373D01*
X27088Y-32375D01*
X27087Y-32377D01*
X27085Y-32378D01*
X27083Y-32379D01*
X27082Y-32379D01*
X27080Y-32379D01*
X27079Y-32379D01*
X27077Y-32379D01*
X27075Y-32378D01*
X27074Y-32377D01*
X27072Y-32375D01*
X27071Y-32373D01*
X27071Y-32372D01*
X27071Y-32370D01*
X27071Y-32369D01*
X27071Y-32367D01*
X27072Y-32365D01*
X27073Y-32364D01*
X27075Y-32362D01*
X27076Y-32361D01*
X27078Y-32361D01*
X27080Y-32361D01*
X27081Y-32361D01*
X27083Y-32361D01*
X27085Y-32362D01*
X27086Y-32363D01*
X27088Y-32365D01*
X27089Y-32366D01*
X27089Y-32368D01*
X27089Y-32370D01*
X27090Y-32370D01*
X27450Y-32190D02*
X27449Y-32191D01*
X27449Y-32193D01*
X27448Y-32195D01*
X27447Y-32197D01*
X27445Y-32198D01*
X27443Y-32199D01*
X27442Y-32199D01*
X27440Y-32199D01*
X27439Y-32199D01*
X27437Y-32199D01*
X27435Y-32198D01*
X27434Y-32197D01*
X27432Y-32195D01*
X27431Y-32193D01*
X27431Y-32192D01*
X27431Y-32190D01*
X27431Y-32189D01*
X27431Y-32187D01*
X27432Y-32185D01*
X27433Y-32184D01*
X27435Y-32182D01*
X27436Y-32181D01*
X27438Y-32181D01*
X27440Y-32181D01*
X27441Y-32181D01*
X27443Y-32181D01*
X27445Y-32182D01*
X27446Y-32183D01*
X27448Y-32185D01*
X27449Y-32186D01*
X27449Y-32188D01*
X27449Y-32190D01*
X27450Y-32190D01*
X26550Y-32190D02*
X26549Y-32191D01*
X26549Y-32193D01*
X26548Y-32195D01*
X26547Y-32197D01*
X26545Y-32198D01*
X26543Y-32199D01*
X26542Y-32199D01*
X26540Y-32199D01*
X26539Y-32199D01*
X26537Y-32199D01*
X26535Y-32198D01*
X26534Y-32197D01*
X26532Y-32195D01*
X26531Y-32193D01*
X26531Y-32192D01*
X26531Y-32190D01*
X26531Y-32189D01*
X26531Y-32187D01*
X26532Y-32185D01*
X26533Y-32184D01*
X26535Y-32182D01*
X26536Y-32181D01*
X26538Y-32181D01*
X26540Y-32181D01*
X26541Y-32181D01*
X26543Y-32181D01*
X26545Y-32182D01*
X26546Y-32183D01*
X26548Y-32185D01*
X26549Y-32186D01*
X26549Y-32188D01*
X26549Y-32190D01*
X26550Y-32190D01*
X38320Y-32190D02*
X38319Y-32191D01*
X38319Y-32193D01*
X38318Y-32195D01*
X38317Y-32197D01*
X38315Y-32198D01*
X38313Y-32199D01*
X38312Y-32199D01*
X38310Y-32199D01*
X38309Y-32199D01*
X38307Y-32199D01*
X38305Y-32198D01*
X38304Y-32197D01*
X38302Y-32195D01*
X38301Y-32193D01*
X38301Y-32192D01*
X38301Y-32190D01*
X38301Y-32189D01*
X38301Y-32187D01*
X38302Y-32185D01*
X38303Y-32184D01*
X38305Y-32182D01*
X38306Y-32181D01*
X38308Y-32181D01*
X38310Y-32181D01*
X38311Y-32181D01*
X38313Y-32181D01*
X38315Y-32182D01*
X38316Y-32183D01*
X38318Y-32185D01*
X38319Y-32186D01*
X38319Y-32188D01*
X38319Y-32190D01*
X38320Y-32190D01*
X39220Y-32190D02*
X39219Y-32191D01*
X39219Y-32193D01*
X39218Y-32195D01*
X39217Y-32197D01*
X39215Y-32198D01*
X39213Y-32199D01*
X39212Y-32199D01*
X39210Y-32199D01*
X39209Y-32199D01*
X39207Y-32199D01*
X39205Y-32198D01*
X39204Y-32197D01*
X39202Y-32195D01*
X39201Y-32193D01*
X39201Y-32192D01*
X39201Y-32190D01*
X39201Y-32189D01*
X39201Y-32187D01*
X39202Y-32185D01*
X39203Y-32184D01*
X39205Y-32182D01*
X39206Y-32181D01*
X39208Y-32181D01*
X39210Y-32181D01*
X39211Y-32181D01*
X39213Y-32181D01*
X39215Y-32182D01*
X39216Y-32183D01*
X39218Y-32185D01*
X39219Y-32186D01*
X39219Y-32188D01*
X39219Y-32190D01*
X39220Y-32190D01*
X38860Y-32370D02*
X38859Y-32371D01*
X38859Y-32373D01*
X38858Y-32375D01*
X38857Y-32377D01*
X38855Y-32378D01*
X38853Y-32379D01*
X38852Y-32379D01*
X38850Y-32379D01*
X38849Y-32379D01*
X38847Y-32379D01*
X38845Y-32378D01*
X38844Y-32377D01*
X38842Y-32375D01*
X38841Y-32373D01*
X38841Y-32372D01*
X38841Y-32370D01*
X38841Y-32369D01*
X38841Y-32367D01*
X38842Y-32365D01*
X38843Y-32364D01*
X38845Y-32362D01*
X38846Y-32361D01*
X38848Y-32361D01*
X38850Y-32361D01*
X38851Y-32361D01*
X38853Y-32361D01*
X38855Y-32362D01*
X38856Y-32363D01*
X38858Y-32365D01*
X38859Y-32366D01*
X38859Y-32368D01*
X38859Y-32370D01*
X38860Y-32370D01*
X39040Y-32370D02*
X39039Y-32371D01*
X39039Y-32373D01*
X39038Y-32375D01*
X39037Y-32377D01*
X39035Y-32378D01*
X39033Y-32379D01*
X39032Y-32379D01*
X39030Y-32379D01*
X39029Y-32379D01*
X39027Y-32379D01*
X39025Y-32378D01*
X39024Y-32377D01*
X39022Y-32375D01*
X39021Y-32373D01*
X39021Y-32372D01*
X39021Y-32370D01*
X39021Y-32369D01*
X39021Y-32367D01*
X39022Y-32365D01*
X39023Y-32364D01*
X39025Y-32362D01*
X39026Y-32361D01*
X39028Y-32361D01*
X39030Y-32361D01*
X39031Y-32361D01*
X39033Y-32361D01*
X39035Y-32362D01*
X39036Y-32363D01*
X39038Y-32365D01*
X39039Y-32366D01*
X39039Y-32368D01*
X39039Y-32370D01*
X39040Y-32370D01*
X38500Y-32370D02*
X38499Y-32371D01*
X38499Y-32373D01*
X38498Y-32375D01*
X38497Y-32377D01*
X38495Y-32378D01*
X38493Y-32379D01*
X38492Y-32379D01*
X38490Y-32379D01*
X38489Y-32379D01*
X38487Y-32379D01*
X38485Y-32378D01*
X38484Y-32377D01*
X38482Y-32375D01*
X38481Y-32373D01*
X38481Y-32372D01*
X38481Y-32370D01*
X38481Y-32369D01*
X38481Y-32367D01*
X38482Y-32365D01*
X38483Y-32364D01*
X38485Y-32362D01*
X38486Y-32361D01*
X38488Y-32361D01*
X38490Y-32361D01*
X38491Y-32361D01*
X38493Y-32361D01*
X38495Y-32362D01*
X38496Y-32363D01*
X38498Y-32365D01*
X38499Y-32366D01*
X38499Y-32368D01*
X38499Y-32370D01*
X38500Y-32370D01*
X38680Y-32370D02*
X38679Y-32371D01*
X38679Y-32373D01*
X38678Y-32375D01*
X38677Y-32377D01*
X38675Y-32378D01*
X38673Y-32379D01*
X38672Y-32379D01*
X38670Y-32379D01*
X38669Y-32379D01*
X38667Y-32379D01*
X38665Y-32378D01*
X38664Y-32377D01*
X38662Y-32375D01*
X38661Y-32373D01*
X38661Y-32372D01*
X38661Y-32370D01*
X38661Y-32369D01*
X38661Y-32367D01*
X38662Y-32365D01*
X38663Y-32364D01*
X38665Y-32362D01*
X38666Y-32361D01*
X38668Y-32361D01*
X38670Y-32361D01*
X38671Y-32361D01*
X38673Y-32361D01*
X38675Y-32362D01*
X38676Y-32363D01*
X38678Y-32365D01*
X38679Y-32366D01*
X38679Y-32368D01*
X38679Y-32370D01*
X38680Y-32370D01*
X38140Y-32010D02*
X38139Y-32011D01*
X38139Y-32013D01*
X38138Y-32015D01*
X38137Y-32017D01*
X38135Y-32018D01*
X38133Y-32019D01*
X38132Y-32019D01*
X38130Y-32019D01*
X38129Y-32019D01*
X38127Y-32019D01*
X38125Y-32018D01*
X38124Y-32017D01*
X38122Y-32015D01*
X38121Y-32013D01*
X38121Y-32012D01*
X38121Y-32010D01*
X38121Y-32009D01*
X38121Y-32007D01*
X38122Y-32005D01*
X38123Y-32004D01*
X38125Y-32002D01*
X38126Y-32001D01*
X38128Y-32001D01*
X38130Y-32001D01*
X38131Y-32001D01*
X38133Y-32001D01*
X38135Y-32002D01*
X38136Y-32003D01*
X38138Y-32005D01*
X38139Y-32006D01*
X38139Y-32008D01*
X38139Y-32010D01*
X38140Y-32010D01*
X38680Y-32010D02*
X38679Y-32011D01*
X38679Y-32013D01*
X38678Y-32015D01*
X38677Y-32017D01*
X38675Y-32018D01*
X38673Y-32019D01*
X38672Y-32019D01*
X38670Y-32019D01*
X38669Y-32019D01*
X38667Y-32019D01*
X38665Y-32018D01*
X38664Y-32017D01*
X38662Y-32015D01*
X38661Y-32013D01*
X38661Y-32012D01*
X38661Y-32010D01*
X38661Y-32009D01*
X38661Y-32007D01*
X38662Y-32005D01*
X38663Y-32004D01*
X38665Y-32002D01*
X38666Y-32001D01*
X38668Y-32001D01*
X38670Y-32001D01*
X38671Y-32001D01*
X38673Y-32001D01*
X38675Y-32002D01*
X38676Y-32003D01*
X38678Y-32005D01*
X38679Y-32006D01*
X38679Y-32008D01*
X38679Y-32010D01*
X38680Y-32010D01*
X39400Y-32010D02*
X39399Y-32011D01*
X39399Y-32013D01*
X39398Y-32015D01*
X39397Y-32017D01*
X39395Y-32018D01*
X39393Y-32019D01*
X39392Y-32019D01*
X39390Y-32019D01*
X39389Y-32019D01*
X39387Y-32019D01*
X39385Y-32018D01*
X39384Y-32017D01*
X39382Y-32015D01*
X39381Y-32013D01*
X39381Y-32012D01*
X39381Y-32010D01*
X39381Y-32009D01*
X39381Y-32007D01*
X39382Y-32005D01*
X39383Y-32004D01*
X39385Y-32002D01*
X39386Y-32001D01*
X39388Y-32001D01*
X39390Y-32001D01*
X39391Y-32001D01*
X39393Y-32001D01*
X39395Y-32002D01*
X39396Y-32003D01*
X39398Y-32005D01*
X39399Y-32006D01*
X39399Y-32008D01*
X39399Y-32010D01*
X39400Y-32010D01*
X38860Y-32010D02*
X38859Y-32011D01*
X38859Y-32013D01*
X38858Y-32015D01*
X38857Y-32017D01*
X38855Y-32018D01*
X38853Y-32019D01*
X38852Y-32019D01*
X38850Y-32019D01*
X38849Y-32019D01*
X38847Y-32019D01*
X38845Y-32018D01*
X38844Y-32017D01*
X38842Y-32015D01*
X38841Y-32013D01*
X38841Y-32012D01*
X38841Y-32010D01*
X38841Y-32009D01*
X38841Y-32007D01*
X38842Y-32005D01*
X38843Y-32004D01*
X38845Y-32002D01*
X38846Y-32001D01*
X38848Y-32001D01*
X38850Y-32001D01*
X38851Y-32001D01*
X38853Y-32001D01*
X38855Y-32002D01*
X38856Y-32003D01*
X38858Y-32005D01*
X38859Y-32006D01*
X38859Y-32008D01*
X38859Y-32010D01*
X38860Y-32010D01*
X38860Y-31830D02*
X38859Y-31831D01*
X38859Y-31833D01*
X38858Y-31835D01*
X38857Y-31837D01*
X38855Y-31838D01*
X38853Y-31839D01*
X38852Y-31839D01*
X38850Y-31839D01*
X38849Y-31839D01*
X38847Y-31839D01*
X38845Y-31838D01*
X38844Y-31837D01*
X38842Y-31835D01*
X38841Y-31833D01*
X38841Y-31832D01*
X38841Y-31830D01*
X38841Y-31829D01*
X38841Y-31827D01*
X38842Y-31825D01*
X38843Y-31824D01*
X38845Y-31822D01*
X38846Y-31821D01*
X38848Y-31821D01*
X38850Y-31821D01*
X38851Y-31821D01*
X38853Y-31821D01*
X38855Y-31822D01*
X38856Y-31823D01*
X38858Y-31825D01*
X38859Y-31826D01*
X38859Y-31828D01*
X38859Y-31830D01*
X38860Y-31830D01*
X38680Y-31830D02*
X38679Y-31831D01*
X38679Y-31833D01*
X38678Y-31835D01*
X38677Y-31837D01*
X38675Y-31838D01*
X38673Y-31839D01*
X38672Y-31839D01*
X38670Y-31839D01*
X38669Y-31839D01*
X38667Y-31839D01*
X38665Y-31838D01*
X38664Y-31837D01*
X38662Y-31835D01*
X38661Y-31833D01*
X38661Y-31832D01*
X38661Y-31830D01*
X38661Y-31829D01*
X38661Y-31827D01*
X38662Y-31825D01*
X38663Y-31824D01*
X38665Y-31822D01*
X38666Y-31821D01*
X38668Y-31821D01*
X38670Y-31821D01*
X38671Y-31821D01*
X38673Y-31821D01*
X38675Y-31822D01*
X38676Y-31823D01*
X38678Y-31825D01*
X38679Y-31826D01*
X38679Y-31828D01*
X38679Y-31830D01*
X38680Y-31830D01*
X39040Y-31290D02*
X39039Y-31291D01*
X39039Y-31293D01*
X39038Y-31295D01*
X39037Y-31297D01*
X39035Y-31298D01*
X39033Y-31299D01*
X39032Y-31299D01*
X39030Y-31299D01*
X39029Y-31299D01*
X39027Y-31299D01*
X39025Y-31298D01*
X39024Y-31297D01*
X39022Y-31295D01*
X39021Y-31293D01*
X39021Y-31292D01*
X39021Y-31290D01*
X39021Y-31289D01*
X39021Y-31287D01*
X39022Y-31285D01*
X39023Y-31284D01*
X39025Y-31282D01*
X39026Y-31281D01*
X39028Y-31281D01*
X39030Y-31281D01*
X39031Y-31281D01*
X39033Y-31281D01*
X39035Y-31282D01*
X39036Y-31283D01*
X39038Y-31285D01*
X39039Y-31286D01*
X39039Y-31288D01*
X39039Y-31290D01*
X39040Y-31290D01*
X39220Y-31290D02*
X39219Y-31291D01*
X39219Y-31293D01*
X39218Y-31295D01*
X39217Y-31297D01*
X39215Y-31298D01*
X39213Y-31299D01*
X39212Y-31299D01*
X39210Y-31299D01*
X39209Y-31299D01*
X39207Y-31299D01*
X39205Y-31298D01*
X39204Y-31297D01*
X39202Y-31295D01*
X39201Y-31293D01*
X39201Y-31292D01*
X39201Y-31290D01*
X39201Y-31289D01*
X39201Y-31287D01*
X39202Y-31285D01*
X39203Y-31284D01*
X39205Y-31282D01*
X39206Y-31281D01*
X39208Y-31281D01*
X39210Y-31281D01*
X39211Y-31281D01*
X39213Y-31281D01*
X39215Y-31282D01*
X39216Y-31283D01*
X39218Y-31285D01*
X39219Y-31286D01*
X39219Y-31288D01*
X39219Y-31290D01*
X39220Y-31290D01*
X38500Y-31290D02*
X38499Y-31291D01*
X38499Y-31293D01*
X38498Y-31295D01*
X38497Y-31297D01*
X38495Y-31298D01*
X38493Y-31299D01*
X38492Y-31299D01*
X38490Y-31299D01*
X38489Y-31299D01*
X38487Y-31299D01*
X38485Y-31298D01*
X38484Y-31297D01*
X38482Y-31295D01*
X38481Y-31293D01*
X38481Y-31292D01*
X38481Y-31290D01*
X38481Y-31289D01*
X38481Y-31287D01*
X38482Y-31285D01*
X38483Y-31284D01*
X38485Y-31282D01*
X38486Y-31281D01*
X38488Y-31281D01*
X38490Y-31281D01*
X38491Y-31281D01*
X38493Y-31281D01*
X38495Y-31282D01*
X38496Y-31283D01*
X38498Y-31285D01*
X38499Y-31286D01*
X38499Y-31288D01*
X38499Y-31290D01*
X38500Y-31290D01*
X38320Y-31290D02*
X38319Y-31291D01*
X38319Y-31293D01*
X38318Y-31295D01*
X38317Y-31297D01*
X38315Y-31298D01*
X38313Y-31299D01*
X38312Y-31299D01*
X38310Y-31299D01*
X38309Y-31299D01*
X38307Y-31299D01*
X38305Y-31298D01*
X38304Y-31297D01*
X38302Y-31295D01*
X38301Y-31293D01*
X38301Y-31292D01*
X38301Y-31290D01*
X38301Y-31289D01*
X38301Y-31287D01*
X38302Y-31285D01*
X38303Y-31284D01*
X38305Y-31282D01*
X38306Y-31281D01*
X38308Y-31281D01*
X38310Y-31281D01*
X38311Y-31281D01*
X38313Y-31281D01*
X38315Y-31282D01*
X38316Y-31283D01*
X38318Y-31285D01*
X38319Y-31286D01*
X38319Y-31288D01*
X38319Y-31290D01*
X38320Y-31290D01*
X39040Y-31470D02*
X39039Y-31471D01*
X39039Y-31473D01*
X39038Y-31475D01*
X39037Y-31477D01*
X39035Y-31478D01*
X39033Y-31479D01*
X39032Y-31479D01*
X39030Y-31479D01*
X39029Y-31479D01*
X39027Y-31479D01*
X39025Y-31478D01*
X39024Y-31477D01*
X39022Y-31475D01*
X39021Y-31473D01*
X39021Y-31472D01*
X39021Y-31470D01*
X39021Y-31469D01*
X39021Y-31467D01*
X39022Y-31465D01*
X39023Y-31464D01*
X39025Y-31462D01*
X39026Y-31461D01*
X39028Y-31461D01*
X39030Y-31461D01*
X39031Y-31461D01*
X39033Y-31461D01*
X39035Y-31462D01*
X39036Y-31463D01*
X39038Y-31465D01*
X39039Y-31466D01*
X39039Y-31468D01*
X39039Y-31470D01*
X39040Y-31470D01*
X39220Y-31470D02*
X39219Y-31471D01*
X39219Y-31473D01*
X39218Y-31475D01*
X39217Y-31477D01*
X39215Y-31478D01*
X39213Y-31479D01*
X39212Y-31479D01*
X39210Y-31479D01*
X39209Y-31479D01*
X39207Y-31479D01*
X39205Y-31478D01*
X39204Y-31477D01*
X39202Y-31475D01*
X39201Y-31473D01*
X39201Y-31472D01*
X39201Y-31470D01*
X39201Y-31469D01*
X39201Y-31467D01*
X39202Y-31465D01*
X39203Y-31464D01*
X39205Y-31462D01*
X39206Y-31461D01*
X39208Y-31461D01*
X39210Y-31461D01*
X39211Y-31461D01*
X39213Y-31461D01*
X39215Y-31462D01*
X39216Y-31463D01*
X39218Y-31465D01*
X39219Y-31466D01*
X39219Y-31468D01*
X39219Y-31470D01*
X39220Y-31470D01*
X38500Y-31470D02*
X38499Y-31471D01*
X38499Y-31473D01*
X38498Y-31475D01*
X38497Y-31477D01*
X38495Y-31478D01*
X38493Y-31479D01*
X38492Y-31479D01*
X38490Y-31479D01*
X38489Y-31479D01*
X38487Y-31479D01*
X38485Y-31478D01*
X38484Y-31477D01*
X38482Y-31475D01*
X38481Y-31473D01*
X38481Y-31472D01*
X38481Y-31470D01*
X38481Y-31469D01*
X38481Y-31467D01*
X38482Y-31465D01*
X38483Y-31464D01*
X38485Y-31462D01*
X38486Y-31461D01*
X38488Y-31461D01*
X38490Y-31461D01*
X38491Y-31461D01*
X38493Y-31461D01*
X38495Y-31462D01*
X38496Y-31463D01*
X38498Y-31465D01*
X38499Y-31466D01*
X38499Y-31468D01*
X38499Y-31470D01*
X38500Y-31470D01*
X38320Y-31470D02*
X38319Y-31471D01*
X38319Y-31473D01*
X38318Y-31475D01*
X38317Y-31477D01*
X38315Y-31478D01*
X38313Y-31479D01*
X38312Y-31479D01*
X38310Y-31479D01*
X38309Y-31479D01*
X38307Y-31479D01*
X38305Y-31478D01*
X38304Y-31477D01*
X38302Y-31475D01*
X38301Y-31473D01*
X38301Y-31472D01*
X38301Y-31470D01*
X38301Y-31469D01*
X38301Y-31467D01*
X38302Y-31465D01*
X38303Y-31464D01*
X38305Y-31462D01*
X38306Y-31461D01*
X38308Y-31461D01*
X38310Y-31461D01*
X38311Y-31461D01*
X38313Y-31461D01*
X38315Y-31462D01*
X38316Y-31463D01*
X38318Y-31465D01*
X38319Y-31466D01*
X38319Y-31468D01*
X38319Y-31470D01*
X38320Y-31470D01*
G54D12*
X31138Y-25814D02*
X31538Y-25814D01*
X31138Y-25585D01*
X31538Y-25585D01*
X31176Y-25166D02*
X31157Y-25185D01*
X31138Y-25242D01*
X31138Y-25280D01*
X31157Y-25338D01*
X31195Y-25376D01*
X31233Y-25395D01*
X31310Y-25414D01*
X31367Y-25414D01*
X31443Y-25395D01*
X31481Y-25376D01*
X31519Y-25338D01*
X31538Y-25280D01*
X31538Y-25242D01*
X31519Y-25185D01*
X31500Y-25166D01*
X34538Y-25755D02*
X34538Y-25526D01*
X34138Y-25641D02*
X34538Y-25641D01*
X34538Y-25431D02*
X34138Y-25164D01*
X34538Y-25164D02*
X34138Y-25431D01*
X33138Y-25566D02*
X33329Y-25700D01*
X33138Y-25795D02*
X33538Y-25795D01*
X33538Y-25642D01*
X33519Y-25604D01*
X33500Y-25585D01*
X33462Y-25566D01*
X33405Y-25566D01*
X33367Y-25585D01*
X33348Y-25604D01*
X33329Y-25642D01*
X33329Y-25795D01*
X33538Y-25433D02*
X33138Y-25166D01*
X33538Y-25166D02*
X33138Y-25433D01*
X31995Y-25469D02*
X32605Y-25469D01*
X32300Y-25774D02*
X32300Y-25164D01*
X30519Y-26004D02*
X30538Y-26042D01*
X30538Y-26099D01*
X30519Y-26157D01*
X30481Y-26195D01*
X30443Y-26214D01*
X30367Y-26233D01*
X30310Y-26233D01*
X30233Y-26214D01*
X30195Y-26195D01*
X30157Y-26157D01*
X30138Y-26099D01*
X30138Y-26061D01*
X30157Y-26004D01*
X30176Y-25985D01*
X30310Y-25985D01*
X30310Y-26061D01*
X30138Y-25814D02*
X30538Y-25814D01*
X30138Y-25585D01*
X30538Y-25585D01*
X30138Y-25395D02*
X30538Y-25395D01*
X30538Y-25300D01*
X30519Y-25242D01*
X30481Y-25204D01*
X30443Y-25185D01*
X30367Y-25166D01*
X30310Y-25166D01*
X30233Y-25185D01*
X30195Y-25204D01*
X30157Y-25242D01*
X30138Y-25300D01*
X30138Y-25395D01*
X27904Y-26231D02*
X27942Y-26212D01*
X27999Y-26212D01*
X28057Y-26231D01*
X28095Y-26269D01*
X28114Y-26307D01*
X28133Y-26383D01*
X28133Y-26440D01*
X28114Y-26517D01*
X28095Y-26555D01*
X28057Y-26593D01*
X27999Y-26612D01*
X27961Y-26612D01*
X27904Y-26593D01*
X27885Y-26574D01*
X27885Y-26440D01*
X27961Y-26440D01*
X27714Y-26612D02*
X27714Y-26212D01*
X27485Y-26612D01*
X27485Y-26212D01*
X27295Y-26612D02*
X27295Y-26212D01*
X27200Y-26212D01*
X27142Y-26231D01*
X27104Y-26269D01*
X27085Y-26307D01*
X27066Y-26383D01*
X27066Y-26440D01*
X27085Y-26517D01*
X27104Y-26555D01*
X27142Y-26593D01*
X27200Y-26612D01*
X27295Y-26612D01*
X28126Y-27543D02*
X28069Y-27562D01*
X27973Y-27562D01*
X27935Y-27543D01*
X27916Y-27524D01*
X27897Y-27486D01*
X27897Y-27448D01*
X27916Y-27410D01*
X27935Y-27390D01*
X27973Y-27371D01*
X28050Y-27352D01*
X28088Y-27333D01*
X28107Y-27314D01*
X28126Y-27276D01*
X28126Y-27238D01*
X28107Y-27200D01*
X28088Y-27181D01*
X28050Y-27162D01*
X27954Y-27162D01*
X27897Y-27181D01*
X27497Y-27524D02*
X27516Y-27543D01*
X27573Y-27562D01*
X27611Y-27562D01*
X27669Y-27543D01*
X27707Y-27505D01*
X27726Y-27467D01*
X27745Y-27390D01*
X27745Y-27333D01*
X27726Y-27257D01*
X27707Y-27219D01*
X27669Y-27181D01*
X27611Y-27162D01*
X27573Y-27162D01*
X27516Y-27181D01*
X27497Y-27200D01*
X27135Y-27562D02*
X27326Y-27562D01*
X27326Y-27162D01*
X28136Y-28543D02*
X28079Y-28562D01*
X27983Y-28562D01*
X27945Y-28543D01*
X27926Y-28524D01*
X27907Y-28486D01*
X27907Y-28448D01*
X27926Y-28410D01*
X27945Y-28390D01*
X27983Y-28371D01*
X28060Y-28352D01*
X28098Y-28333D01*
X28117Y-28314D01*
X28136Y-28276D01*
X28136Y-28238D01*
X28117Y-28200D01*
X28098Y-28181D01*
X28060Y-28162D01*
X27964Y-28162D01*
X27907Y-28181D01*
X27736Y-28562D02*
X27736Y-28162D01*
X27641Y-28162D01*
X27583Y-28181D01*
X27545Y-28219D01*
X27526Y-28257D01*
X27507Y-28333D01*
X27507Y-28390D01*
X27526Y-28467D01*
X27545Y-28505D01*
X27583Y-28543D01*
X27641Y-28562D01*
X27736Y-28562D01*
X27355Y-28448D02*
X27164Y-28448D01*
X27393Y-28562D02*
X27260Y-28162D01*
X27126Y-28562D01*
X28145Y-30562D02*
X28145Y-30162D01*
X27992Y-30162D01*
X27954Y-30181D01*
X27935Y-30200D01*
X27916Y-30238D01*
X27916Y-30295D01*
X27935Y-30333D01*
X27954Y-30352D01*
X27992Y-30371D01*
X28145Y-30371D01*
X27516Y-30524D02*
X27535Y-30543D01*
X27592Y-30562D01*
X27630Y-30562D01*
X27688Y-30543D01*
X27726Y-30505D01*
X27745Y-30467D01*
X27764Y-30390D01*
X27764Y-30333D01*
X27745Y-30257D01*
X27726Y-30219D01*
X27688Y-30181D01*
X27630Y-30162D01*
X27592Y-30162D01*
X27535Y-30181D01*
X27516Y-30200D01*
X27364Y-30200D02*
X27345Y-30181D01*
X27307Y-30162D01*
X27211Y-30162D01*
X27173Y-30181D01*
X27154Y-30200D01*
X27135Y-30238D01*
X27135Y-30276D01*
X27154Y-30333D01*
X27383Y-30562D01*
X27135Y-30562D01*
X28145Y-29562D02*
X28145Y-29162D01*
X27992Y-29162D01*
X27954Y-29181D01*
X27935Y-29200D01*
X27916Y-29238D01*
X27916Y-29295D01*
X27935Y-29333D01*
X27954Y-29352D01*
X27992Y-29371D01*
X28145Y-29371D01*
X27516Y-29524D02*
X27535Y-29543D01*
X27592Y-29562D01*
X27630Y-29562D01*
X27688Y-29543D01*
X27726Y-29505D01*
X27745Y-29467D01*
X27764Y-29390D01*
X27764Y-29333D01*
X27745Y-29257D01*
X27726Y-29219D01*
X27688Y-29181D01*
X27630Y-29162D01*
X27592Y-29162D01*
X27535Y-29181D01*
X27516Y-29200D01*
X27383Y-29162D02*
X27135Y-29162D01*
X27269Y-29314D01*
X27211Y-29314D01*
X27173Y-29333D01*
X27154Y-29352D01*
X27135Y-29390D01*
X27135Y-29486D01*
X27154Y-29524D01*
X27173Y-29543D01*
X27211Y-29562D01*
X27326Y-29562D01*
X27364Y-29543D01*
X27383Y-29524D01*
X38245Y-29562D02*
X38245Y-29162D01*
X38092Y-29162D01*
X38054Y-29181D01*
X38035Y-29200D01*
X38016Y-29238D01*
X38016Y-29295D01*
X38035Y-29333D01*
X38054Y-29352D01*
X38092Y-29371D01*
X38245Y-29371D01*
X37616Y-29524D02*
X37635Y-29543D01*
X37692Y-29562D01*
X37730Y-29562D01*
X37788Y-29543D01*
X37826Y-29505D01*
X37845Y-29467D01*
X37864Y-29390D01*
X37864Y-29333D01*
X37845Y-29257D01*
X37826Y-29219D01*
X37788Y-29181D01*
X37730Y-29162D01*
X37692Y-29162D01*
X37635Y-29181D01*
X37616Y-29200D01*
X37483Y-29162D02*
X37235Y-29162D01*
X37369Y-29314D01*
X37311Y-29314D01*
X37273Y-29333D01*
X37254Y-29352D01*
X37235Y-29390D01*
X37235Y-29486D01*
X37254Y-29524D01*
X37273Y-29543D01*
X37311Y-29562D01*
X37426Y-29562D01*
X37464Y-29543D01*
X37483Y-29524D01*
X38245Y-30562D02*
X38245Y-30162D01*
X38092Y-30162D01*
X38054Y-30181D01*
X38035Y-30200D01*
X38016Y-30238D01*
X38016Y-30295D01*
X38035Y-30333D01*
X38054Y-30352D01*
X38092Y-30371D01*
X38245Y-30371D01*
X37616Y-30524D02*
X37635Y-30543D01*
X37692Y-30562D01*
X37730Y-30562D01*
X37788Y-30543D01*
X37826Y-30505D01*
X37845Y-30467D01*
X37864Y-30390D01*
X37864Y-30333D01*
X37845Y-30257D01*
X37826Y-30219D01*
X37788Y-30181D01*
X37730Y-30162D01*
X37692Y-30162D01*
X37635Y-30181D01*
X37616Y-30200D01*
X37464Y-30200D02*
X37445Y-30181D01*
X37407Y-30162D01*
X37311Y-30162D01*
X37273Y-30181D01*
X37254Y-30200D01*
X37235Y-30238D01*
X37235Y-30276D01*
X37254Y-30333D01*
X37483Y-30562D01*
X37235Y-30562D01*
X38236Y-28543D02*
X38179Y-28562D01*
X38083Y-28562D01*
X38045Y-28543D01*
X38026Y-28524D01*
X38007Y-28486D01*
X38007Y-28448D01*
X38026Y-28410D01*
X38045Y-28390D01*
X38083Y-28371D01*
X38160Y-28352D01*
X38198Y-28333D01*
X38217Y-28314D01*
X38236Y-28276D01*
X38236Y-28238D01*
X38217Y-28200D01*
X38198Y-28181D01*
X38160Y-28162D01*
X38064Y-28162D01*
X38007Y-28181D01*
X37836Y-28562D02*
X37836Y-28162D01*
X37741Y-28162D01*
X37683Y-28181D01*
X37645Y-28219D01*
X37626Y-28257D01*
X37607Y-28333D01*
X37607Y-28390D01*
X37626Y-28467D01*
X37645Y-28505D01*
X37683Y-28543D01*
X37741Y-28562D01*
X37836Y-28562D01*
X37455Y-28448D02*
X37264Y-28448D01*
X37493Y-28562D02*
X37360Y-28162D01*
X37226Y-28562D01*
X38226Y-27543D02*
X38169Y-27562D01*
X38073Y-27562D01*
X38035Y-27543D01*
X38016Y-27524D01*
X37997Y-27486D01*
X37997Y-27448D01*
X38016Y-27410D01*
X38035Y-27390D01*
X38073Y-27371D01*
X38150Y-27352D01*
X38188Y-27333D01*
X38207Y-27314D01*
X38226Y-27276D01*
X38226Y-27238D01*
X38207Y-27200D01*
X38188Y-27181D01*
X38150Y-27162D01*
X38054Y-27162D01*
X37997Y-27181D01*
X37597Y-27524D02*
X37616Y-27543D01*
X37673Y-27562D01*
X37711Y-27562D01*
X37769Y-27543D01*
X37807Y-27505D01*
X37826Y-27467D01*
X37845Y-27390D01*
X37845Y-27333D01*
X37826Y-27257D01*
X37807Y-27219D01*
X37769Y-27181D01*
X37711Y-27162D01*
X37673Y-27162D01*
X37616Y-27181D01*
X37597Y-27200D01*
X37235Y-27562D02*
X37426Y-27562D01*
X37426Y-27162D01*
X38004Y-26181D02*
X38042Y-26162D01*
X38099Y-26162D01*
X38157Y-26181D01*
X38195Y-26219D01*
X38214Y-26257D01*
X38233Y-26333D01*
X38233Y-26390D01*
X38214Y-26467D01*
X38195Y-26505D01*
X38157Y-26543D01*
X38099Y-26562D01*
X38061Y-26562D01*
X38004Y-26543D01*
X37985Y-26524D01*
X37985Y-26390D01*
X38061Y-26390D01*
X37814Y-26562D02*
X37814Y-26162D01*
X37585Y-26562D01*
X37585Y-26162D01*
X37395Y-26562D02*
X37395Y-26162D01*
X37300Y-26162D01*
X37242Y-26181D01*
X37204Y-26219D01*
X37185Y-26257D01*
X37166Y-26333D01*
X37166Y-26390D01*
X37185Y-26467D01*
X37204Y-26505D01*
X37242Y-26543D01*
X37300Y-26562D01*
X37395Y-26562D01*
G54D15*
X31100Y-33400D02*
X30700Y-33600D01*
X30700Y-33600D02*
X30700Y-33200D01*
X30700Y-33200D02*
X31100Y-33400D01*
X31300Y-32900D02*
X31300Y-33900D01*
X31300Y-33900D02*
X34300Y-33900D01*
X34300Y-33900D02*
X34300Y-32900D01*
X34300Y-32900D02*
X31300Y-32900D01*
X32300Y-33900D02*
X32300Y-32900D01*
X31100Y-31100D02*
X30700Y-31300D01*
X30700Y-31300D02*
X30700Y-30900D01*
X30700Y-30900D02*
X31100Y-31100D01*
X34300Y-30600D02*
X31300Y-30600D01*
X31300Y-32600D02*
X34300Y-32600D01*
X34300Y-32600D02*
X34300Y-30600D01*
X31300Y-30600D02*
X31300Y-32600D01*
X29550Y-24400D02*
X29150Y-24600D01*
X29150Y-24600D02*
X29150Y-24200D01*
X29150Y-24200D02*
X29550Y-24400D01*
X29800Y-23900D02*
X29800Y-24900D01*
X29800Y-24900D02*
X35800Y-24900D01*
X35800Y-24900D02*
X35800Y-23900D01*
X35800Y-23900D02*
X29800Y-23900D01*
X30800Y-23900D02*
X30800Y-24900D01*
X36800Y-24900D02*
X35800Y-24900D01*
X35800Y-24900D02*
X35800Y-30900D01*
X35800Y-30900D02*
X36800Y-30900D01*
X36800Y-30900D02*
X36800Y-24900D01*
X36800Y-25900D02*
X35800Y-25900D01*
X29795Y-24900D02*
X28795Y-24900D01*
X28795Y-24900D02*
X28795Y-30900D01*
X28795Y-30900D02*
X29795Y-30900D01*
X29795Y-30900D02*
X29795Y-24900D01*
X29795Y-25900D02*
X28795Y-25900D01*
G54D16*
X39936Y-25765D02*
X39641Y-25765D01*
X39641Y-25765D02*
X39641Y-25195D01*
X39936Y-25195D02*
X39641Y-25195D01*
X39936Y-25765D02*
X39936Y-25195D01*
X39367Y-25765D02*
X39072Y-25765D01*
X39072Y-25765D02*
X39072Y-25195D01*
X39367Y-25195D02*
X39072Y-25195D01*
X39367Y-25765D02*
X39367Y-25195D01*
X39546Y-25637D02*
X39468Y-25637D01*
X39468Y-25637D02*
X39468Y-25323D01*
X39546Y-25323D02*
X39468Y-25323D01*
X39546Y-25637D02*
X39546Y-25323D01*
G54D17*
X40283Y-25093D02*
X38731Y-25093D01*
X38731Y-25867D02*
X40283Y-25867D01*
X40283Y-25867D02*
X40283Y-25093D01*
G54D18*
X39657Y-25221D02*
X39357Y-25221D01*
X39647Y-25739D02*
X39357Y-25739D01*
G54D17*
X38731Y-25093D02*
X38731Y-25867D01*
G54D16*
X32640Y-34875D02*
X32385Y-34875D01*
X32385Y-34875D02*
X32385Y-34324D01*
X32640Y-34324D02*
X32385Y-34324D01*
X32640Y-34875D02*
X32640Y-34324D01*
X33220Y-34875D02*
X32964Y-34875D01*
X32964Y-34875D02*
X32964Y-34324D01*
X33220Y-34324D02*
X32964Y-34324D01*
X33220Y-34875D02*
X33220Y-34324D01*
X32878Y-34796D02*
X32722Y-34796D01*
X32722Y-34796D02*
X32722Y-34404D01*
X32878Y-34404D02*
X32722Y-34404D01*
X32878Y-34796D02*
X32878Y-34404D01*
G54D19*
X32961Y-34350D02*
X32639Y-34350D01*
X32961Y-34850D02*
X32639Y-34850D01*
G54D17*
X33576Y-34213D02*
X32024Y-34213D01*
X32024Y-34213D02*
X32024Y-34987D01*
X32024Y-34987D02*
X33576Y-34987D01*
X33576Y-34987D02*
X33576Y-34213D01*
G54D16*
X25795Y-25155D02*
X26091Y-25155D01*
X26091Y-25155D02*
X26091Y-25824D01*
X25795Y-25824D02*
X26091Y-25824D01*
X25795Y-25155D02*
X25795Y-25824D01*
X26839Y-25156D02*
X27135Y-25156D01*
X27135Y-25156D02*
X27135Y-25825D01*
X26839Y-25825D02*
X27135Y-25825D01*
X26839Y-25156D02*
X26839Y-25825D01*
X26387Y-25333D02*
X26543Y-25333D01*
X26543Y-25333D02*
X26543Y-25647D01*
X26387Y-25647D02*
X26543Y-25647D01*
X26387Y-25333D02*
X26387Y-25647D01*
G54D17*
X25492Y-25877D02*
X27438Y-25877D01*
X27438Y-25103D02*
X25492Y-25103D01*
X25492Y-25103D02*
X25492Y-25877D01*
X27438Y-25877D02*
X27438Y-25103D01*
G54D18*
X26086Y-25799D02*
X26844Y-25799D01*
X26086Y-25181D02*
X26844Y-25181D01*
G54D16*
X39521Y-27615D02*
X39816Y-27615D01*
X39816Y-27615D02*
X39816Y-28185D01*
X39521Y-28185D02*
X39816Y-28185D01*
X39521Y-27615D02*
X39521Y-28185D01*
X40090Y-27615D02*
X40385Y-27615D01*
X40385Y-27615D02*
X40385Y-28185D01*
X40090Y-28185D02*
X40385Y-28185D01*
X40090Y-27615D02*
X40090Y-28185D01*
X39911Y-27743D02*
X39989Y-27743D01*
X39989Y-27743D02*
X39989Y-28057D01*
X39911Y-28057D02*
X39989Y-28057D01*
X39911Y-27743D02*
X39911Y-28057D01*
G54D17*
X39174Y-28287D02*
X40726Y-28287D01*
X40726Y-27513D02*
X39174Y-27513D01*
X39174Y-27513D02*
X39174Y-28287D01*
G54D18*
X39800Y-28159D02*
X40100Y-28159D01*
X39810Y-27641D02*
X40100Y-27641D01*
G54D17*
X40726Y-28287D02*
X40726Y-27513D01*
G54D16*
X35985Y-21430D02*
X35985Y-21726D01*
X35985Y-21726D02*
X35316Y-21726D01*
X35316Y-21430D02*
X35316Y-21726D01*
X35985Y-21430D02*
X35316Y-21430D01*
X35984Y-22474D02*
X35984Y-22770D01*
X35984Y-22770D02*
X35315Y-22770D01*
X35315Y-22474D02*
X35315Y-22770D01*
X35984Y-22474D02*
X35315Y-22474D01*
X35846Y-21982D02*
X35846Y-22218D01*
X35846Y-22218D02*
X35454Y-22218D01*
X35454Y-21982D02*
X35454Y-22218D01*
X35846Y-21982D02*
X35454Y-21982D01*
G54D17*
X35263Y-21127D02*
X35263Y-23073D01*
X36037Y-23073D02*
X36037Y-21127D01*
X36037Y-21127D02*
X35263Y-21127D01*
X35263Y-23073D02*
X36037Y-23073D01*
G54D18*
X35341Y-21721D02*
X35341Y-22479D01*
X35959Y-21721D02*
X35959Y-22479D01*
G54D16*
X29815Y-22770D02*
X29815Y-22474D01*
X29815Y-22474D02*
X30484Y-22474D01*
X30484Y-22770D02*
X30484Y-22474D01*
X29815Y-22770D02*
X30484Y-22770D01*
X29816Y-21726D02*
X29816Y-21430D01*
X29816Y-21430D02*
X30485Y-21430D01*
X30485Y-21726D02*
X30485Y-21430D01*
X29816Y-21726D02*
X30485Y-21726D01*
X29954Y-22218D02*
X29954Y-21982D01*
X29954Y-21982D02*
X30346Y-21982D01*
X30346Y-22218D02*
X30346Y-21982D01*
X29954Y-22218D02*
X30346Y-22218D01*
G54D17*
X30537Y-23073D02*
X30537Y-21127D01*
X29763Y-21127D02*
X29763Y-23073D01*
X29763Y-23073D02*
X30537Y-23073D01*
X30537Y-21127D02*
X29763Y-21127D01*
G54D18*
X30459Y-22479D02*
X30459Y-21721D01*
X29841Y-22479D02*
X29841Y-21721D01*
G54D16*
X33609Y-22330D02*
X33609Y-21070D01*
X33609Y-21070D02*
X34340Y-21070D01*
X34340Y-22330D02*
X34340Y-21070D01*
X33609Y-22330D02*
X34340Y-22330D01*
X31460Y-21870D02*
X31460Y-21530D01*
X31460Y-21530D02*
X32191Y-21530D01*
X32191Y-21870D02*
X32191Y-21530D01*
X31460Y-21870D02*
X32191Y-21870D01*
X31460Y-22780D02*
X31460Y-22440D01*
X31460Y-22440D02*
X32191Y-22440D01*
X32191Y-22780D02*
X32191Y-22440D01*
X31460Y-22780D02*
X32191Y-22780D01*
X31460Y-20960D02*
X31460Y-20620D01*
X31460Y-20620D02*
X32191Y-20620D01*
X32191Y-20960D02*
X32191Y-20620D01*
X31460Y-20960D02*
X32191Y-20960D01*
X33609Y-22330D02*
X33609Y-21070D01*
X33609Y-21070D02*
X34340Y-21070D01*
X34340Y-22330D02*
X34340Y-21070D01*
X33609Y-22330D02*
X34340Y-22330D01*
X31460Y-21870D02*
X31460Y-21530D01*
X31460Y-21530D02*
X32191Y-21530D01*
X32191Y-21870D02*
X32191Y-21530D01*
X31460Y-21870D02*
X32191Y-21870D01*
X31460Y-22780D02*
X31460Y-22440D01*
X31460Y-22440D02*
X32191Y-22440D01*
X32191Y-22780D02*
X32191Y-22440D01*
X31460Y-22780D02*
X32191Y-22780D01*
X31460Y-20960D02*
X31460Y-20620D01*
X31460Y-20620D02*
X32191Y-20620D01*
X32191Y-20960D02*
X32191Y-20620D01*
X31460Y-20960D02*
X32191Y-20960D01*
X32507Y-22093D02*
X32507Y-21307D01*
X32507Y-21307D02*
X33293Y-21307D01*
X33293Y-22093D02*
X33293Y-21307D01*
X32507Y-22093D02*
X33293Y-22093D01*
G54D11*
X33600Y-20410D02*
X32200Y-20410D01*
X32200Y-20410D02*
X32200Y-22990D01*
X32200Y-22990D02*
X33600Y-22990D01*
X33600Y-22990D02*
X33600Y-20410D01*
G54D17*
X34664Y-23067D02*
X34664Y-20333D01*
X31136Y-20333D02*
X31136Y-23067D01*
X31136Y-23067D02*
X34664Y-23067D01*
X34664Y-20333D02*
X31136Y-20333D01*
G54D16*
X25690Y-28175D02*
X25435Y-28175D01*
X25435Y-28175D02*
X25435Y-27624D01*
X25690Y-27624D02*
X25435Y-27624D01*
X25690Y-28175D02*
X25690Y-27624D01*
X26270Y-28175D02*
X26014Y-28175D01*
X26014Y-28175D02*
X26014Y-27624D01*
X26270Y-27624D02*
X26014Y-27624D01*
X26270Y-28175D02*
X26270Y-27624D01*
X25928Y-28096D02*
X25772Y-28096D01*
X25772Y-28096D02*
X25772Y-27704D01*
X25928Y-27704D02*
X25772Y-27704D01*
X25928Y-28096D02*
X25928Y-27704D01*
G54D19*
X26011Y-27650D02*
X25689Y-27650D01*
X26011Y-28150D02*
X25689Y-28150D01*
G54D17*
X26626Y-27513D02*
X25074Y-27513D01*
X25074Y-27513D02*
X25074Y-28287D01*
X25074Y-28287D02*
X26626Y-28287D01*
X26626Y-28287D02*
X26626Y-27513D01*
G54D16*
X32960Y-35375D02*
X33215Y-35375D01*
X33215Y-35375D02*
X33215Y-35926D01*
X32960Y-35926D02*
X33215Y-35926D01*
X32960Y-35375D02*
X32960Y-35926D01*
X32380Y-35375D02*
X32636Y-35375D01*
X32636Y-35375D02*
X32636Y-35926D01*
X32380Y-35926D02*
X32636Y-35926D01*
X32380Y-35375D02*
X32380Y-35926D01*
X32722Y-35454D02*
X32878Y-35454D01*
X32878Y-35454D02*
X32878Y-35846D01*
X32722Y-35846D02*
X32878Y-35846D01*
X32722Y-35454D02*
X32722Y-35846D01*
G54D19*
X32639Y-35900D02*
X32961Y-35900D01*
X32639Y-35400D02*
X32961Y-35400D01*
G54D17*
X32024Y-36037D02*
X33576Y-36037D01*
X33576Y-36037D02*
X33576Y-35263D01*
X33576Y-35263D02*
X32024Y-35263D01*
X32024Y-35263D02*
X32024Y-36037D01*
G54D10*
X31530Y-33130D02*
X31530Y-33670D01*
X32070Y-33670D01*
X32070Y-33130D01*
X31530Y-33130D01*
X33070Y-33400D02*
X33064Y-33452D01*
X33049Y-33502D01*
X33024Y-33549D01*
X32991Y-33590D01*
X32950Y-33623D01*
X32904Y-33648D01*
X32854Y-33664D01*
X32801Y-33669D01*
X32750Y-33665D01*
X32699Y-33650D01*
X32653Y-33625D01*
X32612Y-33592D01*
X32578Y-33552D01*
X32552Y-33506D01*
X32536Y-33456D01*
X32531Y-33403D01*
X32535Y-33352D01*
X32549Y-33301D01*
X32574Y-33254D01*
X32606Y-33213D01*
X32646Y-33179D01*
X32692Y-33153D01*
X32743Y-33137D01*
X32795Y-33131D01*
X32846Y-33135D01*
X32897Y-33149D01*
X32944Y-33173D01*
X32986Y-33205D01*
X33020Y-33245D01*
X33046Y-33291D01*
X33063Y-33341D01*
X33069Y-33393D01*
X33070Y-33400D01*
X34070Y-33400D02*
X34064Y-33452D01*
X34049Y-33502D01*
X34024Y-33549D01*
X33991Y-33590D01*
X33950Y-33623D01*
X33904Y-33648D01*
X33854Y-33664D01*
X33801Y-33669D01*
X33750Y-33665D01*
X33699Y-33650D01*
X33653Y-33625D01*
X33612Y-33592D01*
X33578Y-33552D01*
X33552Y-33506D01*
X33536Y-33456D01*
X33531Y-33403D01*
X33535Y-33352D01*
X33549Y-33301D01*
X33574Y-33254D01*
X33606Y-33213D01*
X33646Y-33179D01*
X33692Y-33153D01*
X33743Y-33137D01*
X33795Y-33131D01*
X33846Y-33135D01*
X33897Y-33149D01*
X33944Y-33173D01*
X33986Y-33205D01*
X34020Y-33245D01*
X34046Y-33291D01*
X34063Y-33341D01*
X34069Y-33393D01*
X34070Y-33400D01*
X31505Y-30805D02*
X31505Y-31395D01*
X32095Y-31395D01*
X32095Y-30805D01*
X31505Y-30805D01*
X32095Y-32100D02*
X32089Y-32157D01*
X32072Y-32212D01*
X32045Y-32263D01*
X32009Y-32307D01*
X31964Y-32344D01*
X31914Y-32371D01*
X31859Y-32388D01*
X31802Y-32394D01*
X31745Y-32389D01*
X31690Y-32373D01*
X31639Y-32346D01*
X31594Y-32310D01*
X31557Y-32266D01*
X31529Y-32216D01*
X31512Y-32161D01*
X31506Y-32104D01*
X31510Y-32047D01*
X31526Y-31992D01*
X31553Y-31941D01*
X31588Y-31896D01*
X31632Y-31858D01*
X31682Y-31830D01*
X31737Y-31812D01*
X31794Y-31806D01*
X31851Y-31810D01*
X31906Y-31825D01*
X31958Y-31851D01*
X32003Y-31887D01*
X32041Y-31930D01*
X32069Y-31981D01*
X32087Y-32035D01*
X32094Y-32092D01*
X32095Y-32100D01*
X33095Y-31100D02*
X33089Y-31157D01*
X33072Y-31212D01*
X33045Y-31263D01*
X33009Y-31307D01*
X32964Y-31344D01*
X32914Y-31371D01*
X32859Y-31388D01*
X32802Y-31394D01*
X32745Y-31389D01*
X32690Y-31373D01*
X32639Y-31346D01*
X32594Y-31310D01*
X32557Y-31266D01*
X32529Y-31216D01*
X32512Y-31161D01*
X32506Y-31104D01*
X32510Y-31047D01*
X32526Y-30992D01*
X32553Y-30941D01*
X32588Y-30896D01*
X32632Y-30858D01*
X32682Y-30830D01*
X32737Y-30812D01*
X32794Y-30806D01*
X32851Y-30810D01*
X32906Y-30825D01*
X32958Y-30851D01*
X33003Y-30887D01*
X33041Y-30930D01*
X33069Y-30981D01*
X33087Y-31035D01*
X33094Y-31092D01*
X33095Y-31100D01*
X33095Y-32100D02*
X33089Y-32157D01*
X33072Y-32212D01*
X33045Y-32263D01*
X33009Y-32307D01*
X32964Y-32344D01*
X32914Y-32371D01*
X32859Y-32388D01*
X32802Y-32394D01*
X32745Y-32389D01*
X32690Y-32373D01*
X32639Y-32346D01*
X32594Y-32310D01*
X32557Y-32266D01*
X32529Y-32216D01*
X32512Y-32161D01*
X32506Y-32104D01*
X32510Y-32047D01*
X32526Y-31992D01*
X32553Y-31941D01*
X32588Y-31896D01*
X32632Y-31858D01*
X32682Y-31830D01*
X32737Y-31812D01*
X32794Y-31806D01*
X32851Y-31810D01*
X32906Y-31825D01*
X32958Y-31851D01*
X33003Y-31887D01*
X33041Y-31930D01*
X33069Y-31981D01*
X33087Y-32035D01*
X33094Y-32092D01*
X33095Y-32100D01*
X34095Y-31100D02*
X34089Y-31157D01*
X34072Y-31212D01*
X34045Y-31263D01*
X34009Y-31307D01*
X33964Y-31344D01*
X33914Y-31371D01*
X33859Y-31388D01*
X33802Y-31394D01*
X33745Y-31389D01*
X33690Y-31373D01*
X33639Y-31346D01*
X33594Y-31310D01*
X33557Y-31266D01*
X33529Y-31216D01*
X33512Y-31161D01*
X33506Y-31104D01*
X33510Y-31047D01*
X33526Y-30992D01*
X33553Y-30941D01*
X33588Y-30896D01*
X33632Y-30858D01*
X33682Y-30830D01*
X33737Y-30812D01*
X33794Y-30806D01*
X33851Y-30810D01*
X33906Y-30825D01*
X33958Y-30851D01*
X34003Y-30887D01*
X34041Y-30930D01*
X34069Y-30981D01*
X34087Y-31035D01*
X34094Y-31092D01*
X34095Y-31100D01*
X34095Y-32100D02*
X34089Y-32157D01*
X34072Y-32212D01*
X34045Y-32263D01*
X34009Y-32307D01*
X33964Y-32344D01*
X33914Y-32371D01*
X33859Y-32388D01*
X33802Y-32394D01*
X33745Y-32389D01*
X33690Y-32373D01*
X33639Y-32346D01*
X33594Y-32310D01*
X33557Y-32266D01*
X33529Y-32216D01*
X33512Y-32161D01*
X33506Y-32104D01*
X33510Y-32047D01*
X33526Y-31992D01*
X33553Y-31941D01*
X33588Y-31896D01*
X33632Y-31858D01*
X33682Y-31830D01*
X33737Y-31812D01*
X33794Y-31806D01*
X33851Y-31810D01*
X33906Y-31825D01*
X33958Y-31851D01*
X34003Y-31887D01*
X34041Y-31930D01*
X34069Y-31981D01*
X34087Y-32035D01*
X34094Y-32092D01*
X34095Y-32100D01*
X30030Y-24130D02*
X30030Y-24670D01*
X30570Y-24670D01*
X30570Y-24130D01*
X30030Y-24130D01*
X31570Y-24400D02*
X31564Y-24452D01*
X31549Y-24502D01*
X31524Y-24549D01*
X31491Y-24590D01*
X31450Y-24623D01*
X31404Y-24648D01*
X31354Y-24664D01*
X31301Y-24669D01*
X31250Y-24665D01*
X31199Y-24650D01*
X31153Y-24625D01*
X31112Y-24592D01*
X31078Y-24552D01*
X31052Y-24506D01*
X31036Y-24456D01*
X31031Y-24403D01*
X31035Y-24352D01*
X31049Y-24301D01*
X31074Y-24254D01*
X31106Y-24213D01*
X31146Y-24179D01*
X31192Y-24153D01*
X31243Y-24137D01*
X31295Y-24131D01*
X31346Y-24135D01*
X31397Y-24149D01*
X31444Y-24173D01*
X31486Y-24205D01*
X31520Y-24245D01*
X31546Y-24291D01*
X31563Y-24341D01*
X31569Y-24393D01*
X31570Y-24400D01*
X32570Y-24400D02*
X32564Y-24452D01*
X32549Y-24502D01*
X32524Y-24549D01*
X32491Y-24590D01*
X32450Y-24623D01*
X32404Y-24648D01*
X32354Y-24664D01*
X32301Y-24669D01*
X32250Y-24665D01*
X32199Y-24650D01*
X32153Y-24625D01*
X32112Y-24592D01*
X32078Y-24552D01*
X32052Y-24506D01*
X32036Y-24456D01*
X32031Y-24403D01*
X32035Y-24352D01*
X32049Y-24301D01*
X32074Y-24254D01*
X32106Y-24213D01*
X32146Y-24179D01*
X32192Y-24153D01*
X32243Y-24137D01*
X32295Y-24131D01*
X32346Y-24135D01*
X32397Y-24149D01*
X32444Y-24173D01*
X32486Y-24205D01*
X32520Y-24245D01*
X32546Y-24291D01*
X32563Y-24341D01*
X32569Y-24393D01*
X32570Y-24400D01*
X33570Y-24400D02*
X33564Y-24452D01*
X33549Y-24502D01*
X33524Y-24549D01*
X33491Y-24590D01*
X33450Y-24623D01*
X33404Y-24648D01*
X33354Y-24664D01*
X33301Y-24669D01*
X33250Y-24665D01*
X33199Y-24650D01*
X33153Y-24625D01*
X33112Y-24592D01*
X33078Y-24552D01*
X33052Y-24506D01*
X33036Y-24456D01*
X33031Y-24403D01*
X33035Y-24352D01*
X33049Y-24301D01*
X33074Y-24254D01*
X33106Y-24213D01*
X33146Y-24179D01*
X33192Y-24153D01*
X33243Y-24137D01*
X33295Y-24131D01*
X33346Y-24135D01*
X33397Y-24149D01*
X33444Y-24173D01*
X33486Y-24205D01*
X33520Y-24245D01*
X33546Y-24291D01*
X33563Y-24341D01*
X33569Y-24393D01*
X33570Y-24400D01*
X34570Y-24400D02*
X34564Y-24452D01*
X34549Y-24502D01*
X34524Y-24549D01*
X34491Y-24590D01*
X34450Y-24623D01*
X34404Y-24648D01*
X34354Y-24664D01*
X34301Y-24669D01*
X34250Y-24665D01*
X34199Y-24650D01*
X34153Y-24625D01*
X34112Y-24592D01*
X34078Y-24552D01*
X34052Y-24506D01*
X34036Y-24456D01*
X34031Y-24403D01*
X34035Y-24352D01*
X34049Y-24301D01*
X34074Y-24254D01*
X34106Y-24213D01*
X34146Y-24179D01*
X34192Y-24153D01*
X34243Y-24137D01*
X34295Y-24131D01*
X34346Y-24135D01*
X34397Y-24149D01*
X34444Y-24173D01*
X34486Y-24205D01*
X34520Y-24245D01*
X34546Y-24291D01*
X34563Y-24341D01*
X34569Y-24393D01*
X34570Y-24400D01*
X35570Y-24400D02*
X35564Y-24452D01*
X35549Y-24502D01*
X35524Y-24549D01*
X35491Y-24590D01*
X35450Y-24623D01*
X35404Y-24648D01*
X35354Y-24664D01*
X35301Y-24669D01*
X35250Y-24665D01*
X35199Y-24650D01*
X35153Y-24625D01*
X35112Y-24592D01*
X35078Y-24552D01*
X35052Y-24506D01*
X35036Y-24456D01*
X35031Y-24403D01*
X35035Y-24352D01*
X35049Y-24301D01*
X35074Y-24254D01*
X35106Y-24213D01*
X35146Y-24179D01*
X35192Y-24153D01*
X35243Y-24137D01*
X35295Y-24131D01*
X35346Y-24135D01*
X35397Y-24149D01*
X35444Y-24173D01*
X35486Y-24205D01*
X35520Y-24245D01*
X35546Y-24291D01*
X35563Y-24341D01*
X35569Y-24393D01*
X35570Y-24400D01*
X36030Y-25130D02*
X36030Y-25670D01*
X36570Y-25670D01*
X36570Y-25130D01*
X36030Y-25130D01*
X36570Y-26400D02*
X36564Y-26452D01*
X36549Y-26502D01*
X36524Y-26549D01*
X36491Y-26590D01*
X36450Y-26623D01*
X36404Y-26648D01*
X36354Y-26664D01*
X36301Y-26669D01*
X36250Y-26665D01*
X36199Y-26650D01*
X36153Y-26625D01*
X36112Y-26592D01*
X36078Y-26552D01*
X36052Y-26506D01*
X36036Y-26456D01*
X36031Y-26403D01*
X36035Y-26352D01*
X36049Y-26301D01*
X36074Y-26254D01*
X36106Y-26213D01*
X36146Y-26179D01*
X36192Y-26153D01*
X36243Y-26137D01*
X36295Y-26131D01*
X36346Y-26135D01*
X36397Y-26149D01*
X36444Y-26173D01*
X36486Y-26205D01*
X36520Y-26245D01*
X36546Y-26291D01*
X36563Y-26341D01*
X36569Y-26393D01*
X36570Y-26400D01*
X36570Y-27400D02*
X36564Y-27452D01*
X36549Y-27502D01*
X36524Y-27549D01*
X36491Y-27590D01*
X36450Y-27623D01*
X36404Y-27648D01*
X36354Y-27664D01*
X36301Y-27669D01*
X36250Y-27665D01*
X36199Y-27650D01*
X36153Y-27625D01*
X36112Y-27592D01*
X36078Y-27552D01*
X36052Y-27506D01*
X36036Y-27456D01*
X36031Y-27403D01*
X36035Y-27352D01*
X36049Y-27301D01*
X36074Y-27254D01*
X36106Y-27213D01*
X36146Y-27179D01*
X36192Y-27153D01*
X36243Y-27137D01*
X36295Y-27131D01*
X36346Y-27135D01*
X36397Y-27149D01*
X36444Y-27173D01*
X36486Y-27205D01*
X36520Y-27245D01*
X36546Y-27291D01*
X36563Y-27341D01*
X36569Y-27393D01*
X36570Y-27400D01*
X36570Y-28400D02*
X36564Y-28452D01*
X36549Y-28502D01*
X36524Y-28549D01*
X36491Y-28590D01*
X36450Y-28623D01*
X36404Y-28648D01*
X36354Y-28664D01*
X36301Y-28669D01*
X36250Y-28665D01*
X36199Y-28650D01*
X36153Y-28625D01*
X36112Y-28592D01*
X36078Y-28552D01*
X36052Y-28506D01*
X36036Y-28456D01*
X36031Y-28403D01*
X36035Y-28352D01*
X36049Y-28301D01*
X36074Y-28254D01*
X36106Y-28213D01*
X36146Y-28179D01*
X36192Y-28153D01*
X36243Y-28137D01*
X36295Y-28131D01*
X36346Y-28135D01*
X36397Y-28149D01*
X36444Y-28173D01*
X36486Y-28205D01*
X36520Y-28245D01*
X36546Y-28291D01*
X36563Y-28341D01*
X36569Y-28393D01*
X36570Y-28400D01*
X36570Y-29400D02*
X36564Y-29452D01*
X36549Y-29502D01*
X36524Y-29549D01*
X36491Y-29590D01*
X36450Y-29623D01*
X36404Y-29648D01*
X36354Y-29664D01*
X36301Y-29669D01*
X36250Y-29665D01*
X36199Y-29650D01*
X36153Y-29625D01*
X36112Y-29592D01*
X36078Y-29552D01*
X36052Y-29506D01*
X36036Y-29456D01*
X36031Y-29403D01*
X36035Y-29352D01*
X36049Y-29301D01*
X36074Y-29254D01*
X36106Y-29213D01*
X36146Y-29179D01*
X36192Y-29153D01*
X36243Y-29137D01*
X36295Y-29131D01*
X36346Y-29135D01*
X36397Y-29149D01*
X36444Y-29173D01*
X36486Y-29205D01*
X36520Y-29245D01*
X36546Y-29291D01*
X36563Y-29341D01*
X36569Y-29393D01*
X36570Y-29400D01*
X36570Y-30400D02*
X36564Y-30452D01*
X36549Y-30502D01*
X36524Y-30549D01*
X36491Y-30590D01*
X36450Y-30623D01*
X36404Y-30648D01*
X36354Y-30664D01*
X36301Y-30669D01*
X36250Y-30665D01*
X36199Y-30650D01*
X36153Y-30625D01*
X36112Y-30592D01*
X36078Y-30552D01*
X36052Y-30506D01*
X36036Y-30456D01*
X36031Y-30403D01*
X36035Y-30352D01*
X36049Y-30301D01*
X36074Y-30254D01*
X36106Y-30213D01*
X36146Y-30179D01*
X36192Y-30153D01*
X36243Y-30137D01*
X36295Y-30131D01*
X36346Y-30135D01*
X36397Y-30149D01*
X36444Y-30173D01*
X36486Y-30205D01*
X36520Y-30245D01*
X36546Y-30291D01*
X36563Y-30341D01*
X36569Y-30393D01*
X36570Y-30400D01*
X29025Y-25130D02*
X29025Y-25670D01*
X29565Y-25670D01*
X29565Y-25130D01*
X29025Y-25130D01*
X29565Y-26400D02*
X29559Y-26452D01*
X29544Y-26502D01*
X29519Y-26549D01*
X29486Y-26590D01*
X29445Y-26623D01*
X29399Y-26648D01*
X29349Y-26664D01*
X29296Y-26669D01*
X29245Y-26665D01*
X29194Y-26650D01*
X29148Y-26625D01*
X29107Y-26592D01*
X29073Y-26552D01*
X29047Y-26506D01*
X29031Y-26456D01*
X29026Y-26403D01*
X29030Y-26352D01*
X29044Y-26301D01*
X29069Y-26254D01*
X29101Y-26213D01*
X29141Y-26179D01*
X29187Y-26153D01*
X29238Y-26137D01*
X29290Y-26131D01*
X29341Y-26135D01*
X29392Y-26149D01*
X29439Y-26173D01*
X29481Y-26205D01*
X29515Y-26245D01*
X29541Y-26291D01*
X29558Y-26341D01*
X29564Y-26393D01*
X29565Y-26400D01*
X29565Y-27400D02*
X29559Y-27452D01*
X29544Y-27502D01*
X29519Y-27549D01*
X29486Y-27590D01*
X29445Y-27623D01*
X29399Y-27648D01*
X29349Y-27664D01*
X29296Y-27669D01*
X29245Y-27665D01*
X29194Y-27650D01*
X29148Y-27625D01*
X29107Y-27592D01*
X29073Y-27552D01*
X29047Y-27506D01*
X29031Y-27456D01*
X29026Y-27403D01*
X29030Y-27352D01*
X29044Y-27301D01*
X29069Y-27254D01*
X29101Y-27213D01*
X29141Y-27179D01*
X29187Y-27153D01*
X29238Y-27137D01*
X29290Y-27131D01*
X29341Y-27135D01*
X29392Y-27149D01*
X29439Y-27173D01*
X29481Y-27205D01*
X29515Y-27245D01*
X29541Y-27291D01*
X29558Y-27341D01*
X29564Y-27393D01*
X29565Y-27400D01*
X29565Y-28400D02*
X29559Y-28452D01*
X29544Y-28502D01*
X29519Y-28549D01*
X29486Y-28590D01*
X29445Y-28623D01*
X29399Y-28648D01*
X29349Y-28664D01*
X29296Y-28669D01*
X29245Y-28665D01*
X29194Y-28650D01*
X29148Y-28625D01*
X29107Y-28592D01*
X29073Y-28552D01*
X29047Y-28506D01*
X29031Y-28456D01*
X29026Y-28403D01*
X29030Y-28352D01*
X29044Y-28301D01*
X29069Y-28254D01*
X29101Y-28213D01*
X29141Y-28179D01*
X29187Y-28153D01*
X29238Y-28137D01*
X29290Y-28131D01*
X29341Y-28135D01*
X29392Y-28149D01*
X29439Y-28173D01*
X29481Y-28205D01*
X29515Y-28245D01*
X29541Y-28291D01*
X29558Y-28341D01*
X29564Y-28393D01*
X29565Y-28400D01*
X29565Y-29400D02*
X29559Y-29452D01*
X29544Y-29502D01*
X29519Y-29549D01*
X29486Y-29590D01*
X29445Y-29623D01*
X29399Y-29648D01*
X29349Y-29664D01*
X29296Y-29669D01*
X29245Y-29665D01*
X29194Y-29650D01*
X29148Y-29625D01*
X29107Y-29592D01*
X29073Y-29552D01*
X29047Y-29506D01*
X29031Y-29456D01*
X29026Y-29403D01*
X29030Y-29352D01*
X29044Y-29301D01*
X29069Y-29254D01*
X29101Y-29213D01*
X29141Y-29179D01*
X29187Y-29153D01*
X29238Y-29137D01*
X29290Y-29131D01*
X29341Y-29135D01*
X29392Y-29149D01*
X29439Y-29173D01*
X29481Y-29205D01*
X29515Y-29245D01*
X29541Y-29291D01*
X29558Y-29341D01*
X29564Y-29393D01*
X29565Y-29400D01*
X29565Y-30400D02*
X29559Y-30452D01*
X29544Y-30502D01*
X29519Y-30549D01*
X29486Y-30590D01*
X29445Y-30623D01*
X29399Y-30648D01*
X29349Y-30664D01*
X29296Y-30669D01*
X29245Y-30665D01*
X29194Y-30650D01*
X29148Y-30625D01*
X29107Y-30592D01*
X29073Y-30552D01*
X29047Y-30506D01*
X29031Y-30456D01*
X29026Y-30403D01*
X29030Y-30352D01*
X29044Y-30301D01*
X29069Y-30254D01*
X29101Y-30213D01*
X29141Y-30179D01*
X29187Y-30153D01*
X29238Y-30137D01*
X29290Y-30131D01*
X29341Y-30135D01*
X29392Y-30149D01*
X29439Y-30173D01*
X29481Y-30205D01*
X29515Y-30245D01*
X29541Y-30291D01*
X29558Y-30341D01*
X29564Y-30393D01*
X29565Y-30400D01*
G54D13*
X39550Y-24793D02*
X39564Y-24807D01*
X39607Y-24821D01*
X39636Y-24821D01*
X39679Y-24807D01*
X39707Y-24779D01*
X39722Y-24750D01*
X39736Y-24693D01*
X39736Y-24650D01*
X39722Y-24593D01*
X39707Y-24564D01*
X39679Y-24536D01*
X39636Y-24521D01*
X39607Y-24521D01*
X39564Y-24536D01*
X39550Y-24550D01*
X39264Y-24821D02*
X39436Y-24821D01*
X39350Y-24821D02*
X39350Y-24521D01*
X39379Y-24564D01*
X39407Y-24593D01*
X39436Y-24607D01*
X34150Y-34721D02*
X34250Y-34579D01*
X34322Y-34721D02*
X34322Y-34421D01*
X34207Y-34421D01*
X34179Y-34436D01*
X34164Y-34450D01*
X34150Y-34479D01*
X34150Y-34521D01*
X34164Y-34550D01*
X34179Y-34564D01*
X34207Y-34579D01*
X34322Y-34579D01*
X34050Y-34421D02*
X33864Y-34421D01*
X33964Y-34536D01*
X33922Y-34536D01*
X33893Y-34550D01*
X33879Y-34564D01*
X33864Y-34593D01*
X33864Y-34664D01*
X33879Y-34693D01*
X33893Y-34707D01*
X33922Y-34721D01*
X34007Y-34721D01*
X34036Y-34707D01*
X34050Y-34693D01*
X26495Y-24773D02*
X26509Y-24787D01*
X26552Y-24801D01*
X26581Y-24801D01*
X26624Y-24787D01*
X26652Y-24759D01*
X26667Y-24730D01*
X26681Y-24673D01*
X26681Y-24630D01*
X26667Y-24573D01*
X26652Y-24544D01*
X26624Y-24516D01*
X26581Y-24501D01*
X26552Y-24501D01*
X26509Y-24516D01*
X26495Y-24530D01*
X26381Y-24530D02*
X26367Y-24516D01*
X26338Y-24501D01*
X26267Y-24501D01*
X26238Y-24516D01*
X26224Y-24530D01*
X26209Y-24559D01*
X26209Y-24587D01*
X26224Y-24630D01*
X26395Y-24801D01*
X26209Y-24801D01*
X40000Y-28893D02*
X40014Y-28907D01*
X40057Y-28921D01*
X40086Y-28921D01*
X40129Y-28907D01*
X40157Y-28879D01*
X40172Y-28850D01*
X40186Y-28793D01*
X40186Y-28750D01*
X40172Y-28693D01*
X40157Y-28664D01*
X40129Y-28636D01*
X40086Y-28621D01*
X40057Y-28621D01*
X40014Y-28636D01*
X40000Y-28650D01*
X39900Y-28621D02*
X39714Y-28621D01*
X39814Y-28736D01*
X39772Y-28736D01*
X39743Y-28750D01*
X39729Y-28764D01*
X39714Y-28793D01*
X39714Y-28864D01*
X39729Y-28893D01*
X39743Y-28907D01*
X39772Y-28921D01*
X39857Y-28921D01*
X39886Y-28907D01*
X39900Y-28893D01*
X35650Y-20893D02*
X35664Y-20907D01*
X35707Y-20921D01*
X35736Y-20921D01*
X35779Y-20907D01*
X35807Y-20879D01*
X35822Y-20850D01*
X35836Y-20793D01*
X35836Y-20750D01*
X35822Y-20693D01*
X35807Y-20664D01*
X35779Y-20636D01*
X35736Y-20621D01*
X35707Y-20621D01*
X35664Y-20636D01*
X35650Y-20650D01*
X35379Y-20621D02*
X35522Y-20621D01*
X35536Y-20764D01*
X35522Y-20750D01*
X35493Y-20736D01*
X35422Y-20736D01*
X35393Y-20750D01*
X35379Y-20764D01*
X35364Y-20793D01*
X35364Y-20864D01*
X35379Y-20893D01*
X35393Y-20907D01*
X35422Y-20921D01*
X35493Y-20921D01*
X35522Y-20907D01*
X35536Y-20893D01*
X30150Y-20893D02*
X30164Y-20907D01*
X30207Y-20921D01*
X30236Y-20921D01*
X30279Y-20907D01*
X30307Y-20879D01*
X30322Y-20850D01*
X30336Y-20793D01*
X30336Y-20750D01*
X30322Y-20693D01*
X30307Y-20664D01*
X30279Y-20636D01*
X30236Y-20621D01*
X30207Y-20621D01*
X30164Y-20636D01*
X30150Y-20650D01*
X29893Y-20721D02*
X29893Y-20921D01*
X29964Y-20607D02*
X30036Y-20821D01*
X29850Y-20821D01*
X25850Y-28821D02*
X25950Y-28679D01*
X26022Y-28821D02*
X26022Y-28521D01*
X25907Y-28521D01*
X25879Y-28536D01*
X25864Y-28550D01*
X25850Y-28579D01*
X25850Y-28621D01*
X25864Y-28650D01*
X25879Y-28664D01*
X25907Y-28679D01*
X26022Y-28679D01*
X25750Y-28521D02*
X25550Y-28521D01*
X25679Y-28821D01*
X34150Y-35771D02*
X34250Y-35629D01*
X34322Y-35771D02*
X34322Y-35471D01*
X34207Y-35471D01*
X34179Y-35486D01*
X34164Y-35500D01*
X34150Y-35529D01*
X34150Y-35571D01*
X34164Y-35600D01*
X34179Y-35614D01*
X34207Y-35629D01*
X34322Y-35629D01*
X33893Y-35471D02*
X33950Y-35471D01*
X33979Y-35486D01*
X33993Y-35500D01*
X34022Y-35543D01*
X34036Y-35600D01*
X34036Y-35714D01*
X34022Y-35743D01*
X34007Y-35757D01*
X33979Y-35771D01*
X33922Y-35771D01*
X33893Y-35757D01*
X33879Y-35743D01*
X33864Y-35714D01*
X33864Y-35643D01*
X33879Y-35614D01*
X33893Y-35600D01*
X33922Y-35586D01*
X33979Y-35586D01*
X34007Y-35600D01*
X34022Y-35614D01*
X34036Y-35643D01*
M02*
