G04 (created by PCBnew (20090216-final)) date Wed 06 Jan 2010 08:18:34 PM CET*
G01*
G70*
G90*
%MOIN*%
G04 Gerber Fmt 3.4, Leading zero omitted, Abs format*
%FSLAX34Y34*%
G04 APERTURE LIST*
%ADD10R,0.055000X0.055000*%
%ADD11C,0.055000*%
%ADD12R,0.060000X0.060000*%
%ADD13C,0.060000*%
%ADD14R,0.051100X0.059000*%
%ADD15R,0.062900X0.070800*%
%ADD16R,0.070800X0.062900*%
%ADD17R,0.087900X0.047900*%
%ADD18R,0.086600X0.141700*%
%ADD19C,0.045000*%
%ADD20C,0.012000*%
%ADD21R,0.078700X0.017700*%
%ADD22R,0.017700X0.078700*%
%ADD23R,0.035400X0.059100*%
%ADD24R,0.059100X0.035400*%
G04 APERTURE END LIST*
G54D10*
X32800Y-31200D03*
G54D11*
X32800Y-32200D03*
X32800Y-33200D03*
G54D12*
X31600Y-31200D03*
G54D13*
X30600Y-31200D03*
X31600Y-32200D03*
X30600Y-32200D03*
X31600Y-33200D03*
X30600Y-33200D03*
G54D12*
X35000Y-31200D03*
G54D13*
X34000Y-31200D03*
X35000Y-32200D03*
X34000Y-32200D03*
X35000Y-33200D03*
X34000Y-33200D03*
G54D10*
X30300Y-24400D03*
G54D11*
X31300Y-24400D03*
X32300Y-24400D03*
X33300Y-24400D03*
X34300Y-24400D03*
X35300Y-24400D03*
G54D10*
X36300Y-25400D03*
G54D11*
X36300Y-26400D03*
X36300Y-27400D03*
X36300Y-28400D03*
X36300Y-29400D03*
X36300Y-30400D03*
G54D21*
X30854Y-28943D03*
X30854Y-28628D03*
X30854Y-28313D03*
X30854Y-27998D03*
X30854Y-27683D03*
X30854Y-27368D03*
X30854Y-27053D03*
X30854Y-26738D03*
X34620Y-26740D03*
X34620Y-28950D03*
X34620Y-28630D03*
X34620Y-28310D03*
X34620Y-28000D03*
X34620Y-27680D03*
X34620Y-27370D03*
X34620Y-27050D03*
G54D22*
X31638Y-25950D03*
X31952Y-25950D03*
X32268Y-25950D03*
X32582Y-25950D03*
X32898Y-25950D03*
X33212Y-25950D03*
X33528Y-25950D03*
X33842Y-25950D03*
X31640Y-29730D03*
X31950Y-29730D03*
X32270Y-29730D03*
X32580Y-29730D03*
X32890Y-29730D03*
X33210Y-29730D03*
X33530Y-29730D03*
X33850Y-29730D03*
G54D10*
X29295Y-25400D03*
G54D11*
X29295Y-26400D03*
X29295Y-27400D03*
X29295Y-28400D03*
X29295Y-29400D03*
X29295Y-30400D03*
G36*
X27987Y-33817D02*
X28404Y-34234D01*
X28153Y-34485D01*
X27736Y-34068D01*
X27987Y-33817D01*
G37*
G36*
X28433Y-33372D02*
X28850Y-33789D01*
X28599Y-34040D01*
X28182Y-33623D01*
X28433Y-33372D01*
G37*
G36*
X28878Y-32926D02*
X29295Y-33343D01*
X29044Y-33594D01*
X28627Y-33177D01*
X28878Y-32926D01*
G37*
G36*
X27487Y-31535D02*
X27904Y-31952D01*
X27653Y-32203D01*
X27236Y-31786D01*
X27487Y-31535D01*
G37*
G36*
X27041Y-31980D02*
X27458Y-32397D01*
X27207Y-32648D01*
X26790Y-32231D01*
X27041Y-31980D01*
G37*
G36*
X26596Y-32426D02*
X27013Y-32843D01*
X26762Y-33094D01*
X26345Y-32677D01*
X26596Y-32426D01*
G37*
G54D23*
X25200Y-28874D03*
X25830Y-28874D03*
X26460Y-28874D03*
X26460Y-26906D03*
X25830Y-26906D03*
X25200Y-26906D03*
G36*
X27183Y-23127D02*
X26766Y-23544D01*
X26515Y-23293D01*
X26932Y-22876D01*
X27183Y-23127D01*
G37*
G36*
X27628Y-23573D02*
X27211Y-23990D01*
X26960Y-23739D01*
X27377Y-23322D01*
X27628Y-23573D01*
G37*
G36*
X28074Y-24018D02*
X27657Y-24435D01*
X27406Y-24184D01*
X27823Y-23767D01*
X28074Y-24018D01*
G37*
G36*
X29465Y-22627D02*
X29048Y-23044D01*
X28797Y-22793D01*
X29214Y-22376D01*
X29465Y-22627D01*
G37*
G36*
X29020Y-22181D02*
X28603Y-22598D01*
X28352Y-22347D01*
X28769Y-21930D01*
X29020Y-22181D01*
G37*
G36*
X28574Y-21736D02*
X28157Y-22153D01*
X27906Y-21902D01*
X28323Y-21485D01*
X28574Y-21736D01*
G37*
G54D24*
X31866Y-20360D03*
X31866Y-20990D03*
X31866Y-21620D03*
X33834Y-21620D03*
X33834Y-20990D03*
X33834Y-20360D03*
G36*
X37673Y-22163D02*
X37256Y-21746D01*
X37507Y-21495D01*
X37924Y-21912D01*
X37673Y-22163D01*
G37*
G36*
X37227Y-22608D02*
X36810Y-22191D01*
X37061Y-21940D01*
X37478Y-22357D01*
X37227Y-22608D01*
G37*
G36*
X36782Y-23054D02*
X36365Y-22637D01*
X36616Y-22386D01*
X37033Y-22803D01*
X36782Y-23054D01*
G37*
G36*
X38173Y-24445D02*
X37756Y-24028D01*
X38007Y-23777D01*
X38424Y-24194D01*
X38173Y-24445D01*
G37*
G36*
X38619Y-24000D02*
X38202Y-23583D01*
X38453Y-23332D01*
X38870Y-23749D01*
X38619Y-24000D01*
G37*
G36*
X39064Y-23554D02*
X38647Y-23137D01*
X38898Y-22886D01*
X39315Y-23303D01*
X39064Y-23554D01*
G37*
G54D23*
X40630Y-27076D03*
X40000Y-27076D03*
X39370Y-27076D03*
X39370Y-29044D03*
X40000Y-29044D03*
X40630Y-29044D03*
G36*
X38707Y-32913D02*
X39124Y-32496D01*
X39375Y-32747D01*
X38958Y-33164D01*
X38707Y-32913D01*
G37*
G36*
X38262Y-32467D02*
X38679Y-32050D01*
X38930Y-32301D01*
X38513Y-32718D01*
X38262Y-32467D01*
G37*
G36*
X37816Y-32022D02*
X38233Y-31605D01*
X38484Y-31856D01*
X38067Y-32273D01*
X37816Y-32022D01*
G37*
G36*
X36425Y-33413D02*
X36842Y-32996D01*
X37093Y-33247D01*
X36676Y-33664D01*
X36425Y-33413D01*
G37*
G36*
X36870Y-33859D02*
X37287Y-33442D01*
X37538Y-33693D01*
X37121Y-34110D01*
X36870Y-33859D01*
G37*
G36*
X37316Y-34304D02*
X37733Y-33887D01*
X37984Y-34138D01*
X37567Y-34555D01*
X37316Y-34304D01*
G37*
G54D24*
X33914Y-35740D03*
X33914Y-35110D03*
X33914Y-34480D03*
X31946Y-34480D03*
X31946Y-35110D03*
X31946Y-35740D03*
G54D19*
X36312Y-22161D03*
X28680Y-27578D03*
X34096Y-22758D03*
X29459Y-21506D03*
X29206Y-23917D03*
X28663Y-28698D03*
X26395Y-24031D03*
X32832Y-26676D03*
X36441Y-31353D03*
X33528Y-26716D03*
X33304Y-33524D03*
X36988Y-29882D03*
X33694Y-28275D03*
X28869Y-31267D03*
X31935Y-26880D03*
X26150Y-29561D03*
X27460Y-29908D03*
X32017Y-29005D03*
X31303Y-35167D03*
X29036Y-34109D03*
X28997Y-31801D03*
X30893Y-30552D03*
X37481Y-32216D03*
X32058Y-28459D03*
X39018Y-27797D03*
X33683Y-28868D03*
X30866Y-35612D03*
X28351Y-32485D03*
X30987Y-34037D03*
X34690Y-34013D03*
X36322Y-33894D03*
X33009Y-35923D03*
G54D20*
X35381Y-25400D02*
X36300Y-25400D01*
X34732Y-24751D02*
X35381Y-25400D01*
X34732Y-24168D02*
X34732Y-24751D01*
X34318Y-23754D02*
X34732Y-24168D01*
X31342Y-23754D02*
X34318Y-23754D01*
X30719Y-24377D02*
X31342Y-23754D01*
X30719Y-24733D02*
X30719Y-24377D01*
X30052Y-25400D02*
X30719Y-24733D01*
X29295Y-25400D02*
X30052Y-25400D01*
X34620Y-28630D02*
X34064Y-28630D01*
X30854Y-28313D02*
X30298Y-28313D01*
X30854Y-27683D02*
X30367Y-27683D01*
X30298Y-27752D02*
X30298Y-28313D01*
X30367Y-27683D02*
X30298Y-27752D01*
X34064Y-31264D02*
X34000Y-31200D01*
X34064Y-31451D02*
X34064Y-31264D01*
X34257Y-31644D02*
X34064Y-31451D01*
X35420Y-31644D02*
X34257Y-31644D01*
X35454Y-31610D02*
X35420Y-31644D01*
X35454Y-30563D02*
X35454Y-31610D01*
X34064Y-29173D02*
X35454Y-30563D01*
X34064Y-28630D02*
X34064Y-29173D01*
X33461Y-32539D02*
X32800Y-33200D01*
X33461Y-32054D02*
X33461Y-32539D01*
X34064Y-31451D02*
X33461Y-32054D01*
X30854Y-28313D02*
X31411Y-28313D01*
X31411Y-28299D02*
X31411Y-28313D01*
X31894Y-27816D02*
X31411Y-28299D01*
X33756Y-27816D02*
X31894Y-27816D01*
X34064Y-28124D02*
X33756Y-27816D01*
X34064Y-28630D02*
X34064Y-28124D01*
X32957Y-30286D02*
X32043Y-31200D01*
X33530Y-30286D02*
X32957Y-30286D01*
X33530Y-29730D02*
X33530Y-30286D01*
X31600Y-31200D02*
X32043Y-31200D01*
X36374Y-22223D02*
X36312Y-22161D01*
X36374Y-22395D02*
X36374Y-22223D01*
X36699Y-22720D02*
X36374Y-22395D01*
X36699Y-22719D02*
X36699Y-22720D01*
X37144Y-22274D02*
X36699Y-22719D01*
X37641Y-22426D02*
X37469Y-22598D01*
X37641Y-22425D02*
X37641Y-22426D01*
X37914Y-22152D02*
X37641Y-22425D01*
X37590Y-21829D02*
X37914Y-22152D01*
X37144Y-22274D02*
X37469Y-22598D01*
X33918Y-22936D02*
X34096Y-22758D01*
X30719Y-22936D02*
X33918Y-22936D01*
X28350Y-25305D02*
X30719Y-22936D01*
X28350Y-27248D02*
X28350Y-25305D01*
X28680Y-27578D02*
X28350Y-27248D01*
X33850Y-29730D02*
X33850Y-30286D01*
X35000Y-31200D02*
X34557Y-31200D01*
X34557Y-30993D02*
X34068Y-30504D01*
X34557Y-31200D02*
X34557Y-30993D01*
X34068Y-30504D02*
X33850Y-30286D01*
X32156Y-31644D02*
X31600Y-32200D01*
X33192Y-31644D02*
X32156Y-31644D01*
X33235Y-31601D02*
X33192Y-31644D01*
X33235Y-31337D02*
X33235Y-31601D01*
X34068Y-30504D02*
X33235Y-31337D01*
X31866Y-20990D02*
X32095Y-20990D01*
X32324Y-20761D02*
X32324Y-20360D01*
X32095Y-20990D02*
X32324Y-20761D01*
X31866Y-20360D02*
X32324Y-20360D01*
X31866Y-20990D02*
X31407Y-20990D01*
X31866Y-21620D02*
X31407Y-21620D01*
X29459Y-21506D02*
X31407Y-21506D01*
X31407Y-21620D02*
X31407Y-21506D01*
X31407Y-21506D02*
X31407Y-20990D01*
X29206Y-24060D02*
X29206Y-23917D01*
X28068Y-25198D02*
X29206Y-24060D01*
X28068Y-28103D02*
X28068Y-25198D01*
X28663Y-28698D02*
X28068Y-28103D01*
X34620Y-28950D02*
X35177Y-28950D01*
X35287Y-32200D02*
X35000Y-32200D01*
X35657Y-31830D02*
X35287Y-32200D01*
X35657Y-29716D02*
X35657Y-31830D01*
X35177Y-29236D02*
X35657Y-29716D01*
X35177Y-28950D02*
X35177Y-29236D01*
X27740Y-24101D02*
X27415Y-24426D01*
X27294Y-23656D02*
X27132Y-23818D01*
X27132Y-23818D02*
X26970Y-23980D01*
X26807Y-23818D02*
X26524Y-23535D01*
X27132Y-23818D02*
X26807Y-23818D01*
X26849Y-23210D02*
X26524Y-23535D01*
X27415Y-24426D02*
X26970Y-23981D01*
X26970Y-23981D02*
X26970Y-23980D01*
X26445Y-23981D02*
X26395Y-24031D01*
X26970Y-23981D02*
X26445Y-23981D01*
X32582Y-25950D02*
X32582Y-26506D01*
X36301Y-31899D02*
X35000Y-33200D01*
X36301Y-31493D02*
X36301Y-31899D01*
X36441Y-31353D02*
X36301Y-31493D01*
X32752Y-26676D02*
X32832Y-26676D01*
X32582Y-26506D02*
X32752Y-26676D01*
X30854Y-27998D02*
X31411Y-27998D01*
X30854Y-27368D02*
X31411Y-27368D01*
X34620Y-27680D02*
X35177Y-27680D01*
X35177Y-28661D02*
X35177Y-27680D01*
X35851Y-29335D02*
X35177Y-28661D01*
X35851Y-29543D02*
X35851Y-29335D01*
X36237Y-29929D02*
X35851Y-29543D01*
X36620Y-29929D02*
X36237Y-29929D01*
X36620Y-29730D02*
X36620Y-29929D01*
X36753Y-29597D02*
X36620Y-29730D01*
X36753Y-26853D02*
X36753Y-29597D01*
X36300Y-26400D02*
X36753Y-26853D01*
X30263Y-27368D02*
X30854Y-27368D01*
X29295Y-26400D02*
X30263Y-27368D01*
X34620Y-27680D02*
X34064Y-27680D01*
X34534Y-32666D02*
X34000Y-33200D01*
X35207Y-32666D02*
X34534Y-32666D01*
X36073Y-31800D02*
X35207Y-32666D01*
X36073Y-31201D02*
X36073Y-31800D01*
X36289Y-30985D02*
X36073Y-31201D01*
X36335Y-30985D02*
X36289Y-30985D01*
X36719Y-30601D02*
X36335Y-30985D01*
X36719Y-30133D02*
X36719Y-30601D01*
X36620Y-30034D02*
X36719Y-30133D01*
X36620Y-29929D02*
X36620Y-30034D01*
X33997Y-27613D02*
X31411Y-27613D01*
X34064Y-27680D02*
X33997Y-27613D01*
X31411Y-27368D02*
X31411Y-27613D01*
X31411Y-27613D02*
X31411Y-27998D01*
X32307Y-25393D02*
X33300Y-24400D01*
X32268Y-25393D02*
X32307Y-25393D01*
X32268Y-25950D02*
X32268Y-25393D01*
X31952Y-25950D02*
X31952Y-25393D01*
X33881Y-23981D02*
X34300Y-24400D01*
X33099Y-23981D02*
X33881Y-23981D01*
X32868Y-24212D02*
X33099Y-23981D01*
X32868Y-24477D02*
X32868Y-24212D01*
X31952Y-25393D02*
X32868Y-24477D01*
X32898Y-25950D02*
X32898Y-25393D01*
X35793Y-26893D02*
X36300Y-27400D01*
X35793Y-25955D02*
X35793Y-26893D01*
X33360Y-24931D02*
X32898Y-25393D01*
X34239Y-24931D02*
X33360Y-24931D01*
X35263Y-25955D02*
X34239Y-24931D01*
X35793Y-25955D02*
X35263Y-25955D01*
X36549Y-25955D02*
X35793Y-25955D01*
X36719Y-25785D02*
X36549Y-25955D01*
X36719Y-25061D02*
X36719Y-25785D01*
X35195Y-23537D02*
X36719Y-25061D01*
X30406Y-23537D02*
X35195Y-23537D01*
X28564Y-25379D02*
X30406Y-23537D01*
X28564Y-26669D02*
X28564Y-25379D01*
X29295Y-27400D02*
X28564Y-26669D01*
X33212Y-25950D02*
X33212Y-26506D01*
X33212Y-26506D02*
X33212Y-26716D01*
X33212Y-26716D02*
X33528Y-26716D01*
X29876Y-27819D02*
X29295Y-28400D01*
X29876Y-27270D02*
X29876Y-27819D01*
X29432Y-26826D02*
X29876Y-27270D01*
X29131Y-26826D02*
X29432Y-26826D01*
X28834Y-26529D02*
X29131Y-26826D01*
X28834Y-26039D02*
X28834Y-26529D01*
X28910Y-25963D02*
X28834Y-26039D01*
X30871Y-25963D02*
X28910Y-25963D01*
X31420Y-26512D02*
X30871Y-25963D01*
X32088Y-26512D02*
X31420Y-26512D01*
X32622Y-27046D02*
X32088Y-26512D01*
X32983Y-27046D02*
X32622Y-27046D01*
X33212Y-26817D02*
X32983Y-27046D01*
X33212Y-26716D02*
X33212Y-26817D01*
X35558Y-28658D02*
X36300Y-29400D01*
X35558Y-26733D02*
X35558Y-28658D01*
X34218Y-25393D02*
X35558Y-26733D01*
X33528Y-25393D02*
X34218Y-25393D01*
X33528Y-25950D02*
X33528Y-25393D01*
X33425Y-33645D02*
X33304Y-33524D01*
X35411Y-33645D02*
X33425Y-33645D01*
X36504Y-32552D02*
X35411Y-33645D01*
X36504Y-31812D02*
X36504Y-32552D01*
X36988Y-31328D02*
X36504Y-31812D01*
X36988Y-29882D02*
X36988Y-31328D01*
X33842Y-25950D02*
X33842Y-26506D01*
X33438Y-28019D02*
X33694Y-28275D01*
X31978Y-28019D02*
X33438Y-28019D01*
X31649Y-28348D02*
X31978Y-28019D01*
X31649Y-28938D02*
X31649Y-28348D01*
X31073Y-29514D02*
X31649Y-28938D01*
X30938Y-29514D02*
X31073Y-29514D01*
X30145Y-30307D02*
X30938Y-29514D01*
X30145Y-30453D02*
X30145Y-30307D01*
X29331Y-31267D02*
X30145Y-30453D01*
X28869Y-31267D02*
X29331Y-31267D01*
X32319Y-27264D02*
X31935Y-26880D01*
X33501Y-27264D02*
X32319Y-27264D01*
X33896Y-26869D02*
X33501Y-27264D01*
X33896Y-26560D02*
X33896Y-26869D01*
X33842Y-26506D02*
X33896Y-26560D01*
X28070Y-34151D02*
X27747Y-33827D01*
X28961Y-33260D02*
X28638Y-32936D01*
X28516Y-33706D02*
X28192Y-33382D01*
X27747Y-33827D02*
X28192Y-33382D01*
X30854Y-28943D02*
X30298Y-28943D01*
X28192Y-33382D02*
X28638Y-32936D01*
X28638Y-32719D02*
X28638Y-32936D01*
X28723Y-32634D02*
X28638Y-32719D01*
X28723Y-32328D02*
X28723Y-32634D01*
X28624Y-32229D02*
X28723Y-32328D01*
X28624Y-31632D02*
X28624Y-32229D01*
X28501Y-31509D02*
X28624Y-31632D01*
X28501Y-31115D02*
X28501Y-31509D01*
X28717Y-30899D02*
X28501Y-31115D01*
X29410Y-30899D02*
X28717Y-30899D01*
X29917Y-30392D02*
X29410Y-30899D01*
X29917Y-29324D02*
X29917Y-30392D01*
X30298Y-28943D02*
X29917Y-29324D01*
X25830Y-28874D02*
X25830Y-29333D01*
X26136Y-28416D02*
X25830Y-28416D01*
X26460Y-28740D02*
X26136Y-28416D01*
X26460Y-28874D02*
X26460Y-28740D01*
X25830Y-28874D02*
X25830Y-28645D01*
X25830Y-28645D02*
X25830Y-28416D01*
X25601Y-28416D02*
X25200Y-28416D01*
X25830Y-28645D02*
X25601Y-28416D01*
X25200Y-28874D02*
X25200Y-28416D01*
X28100Y-29908D02*
X27460Y-29908D01*
X29032Y-28976D02*
X28100Y-29908D01*
X29492Y-28976D02*
X29032Y-28976D01*
X29840Y-28628D02*
X29492Y-28976D01*
X30854Y-28628D02*
X29840Y-28628D01*
X25922Y-29333D02*
X26150Y-29561D01*
X25830Y-29333D02*
X25922Y-29333D01*
X31882Y-29005D02*
X32017Y-29005D01*
X31640Y-29247D02*
X31882Y-29005D01*
X31640Y-29730D02*
X31640Y-29247D01*
X31950Y-29730D02*
X31950Y-30286D01*
X30156Y-34020D02*
X31303Y-35167D01*
X30156Y-30784D02*
X30156Y-34020D01*
X30349Y-30591D02*
X30156Y-30784D01*
X30349Y-30400D02*
X30349Y-30591D01*
X30565Y-30184D02*
X30349Y-30400D01*
X31046Y-30184D02*
X30565Y-30184D01*
X31148Y-30286D02*
X31046Y-30184D01*
X31950Y-30286D02*
X31148Y-30286D01*
X30956Y-30489D02*
X30893Y-30552D01*
X32109Y-30489D02*
X30956Y-30489D01*
X32270Y-30328D02*
X32109Y-30489D01*
X32270Y-29730D02*
X32270Y-30328D01*
X29469Y-32273D02*
X28997Y-31801D01*
X29469Y-33676D02*
X29469Y-32273D01*
X29036Y-34109D02*
X29469Y-33676D01*
X33914Y-35110D02*
X33685Y-35110D01*
X33685Y-35110D02*
X33456Y-35110D01*
X33914Y-35740D02*
X33456Y-35740D01*
X33456Y-34480D02*
X33456Y-35110D01*
X33914Y-34480D02*
X33685Y-34480D01*
X33685Y-34480D02*
X33456Y-34480D01*
X32580Y-30307D02*
X32580Y-29730D01*
X32195Y-30692D02*
X32580Y-30307D01*
X31289Y-30692D02*
X32195Y-30692D01*
X31152Y-30829D02*
X31289Y-30692D01*
X31152Y-32541D02*
X31152Y-30829D01*
X31330Y-32719D02*
X31152Y-32541D01*
X31806Y-32719D02*
X31330Y-32719D01*
X32344Y-33257D02*
X31806Y-32719D01*
X32344Y-33368D02*
X32344Y-33257D01*
X33456Y-34480D02*
X32344Y-33368D01*
X33456Y-35339D02*
X33685Y-35110D01*
X33456Y-35740D02*
X33456Y-35339D01*
X32890Y-29730D02*
X32890Y-29173D01*
X38475Y-31614D02*
X38921Y-32059D01*
X38150Y-31939D02*
X38475Y-31614D01*
X38596Y-32384D02*
X38921Y-32059D01*
X38596Y-32384D02*
X38434Y-32546D01*
X38434Y-32546D02*
X38272Y-32708D01*
X38477Y-32913D02*
X38718Y-33153D01*
X38477Y-32589D02*
X38477Y-32913D01*
X38434Y-32546D02*
X38477Y-32589D01*
X39041Y-32830D02*
X38718Y-33153D01*
X37587Y-32322D02*
X37481Y-32216D01*
X37611Y-32322D02*
X37587Y-32322D01*
X37695Y-32406D02*
X37611Y-32322D01*
X37718Y-32406D02*
X37695Y-32406D01*
X38021Y-32709D02*
X37718Y-32406D01*
X38271Y-32709D02*
X38021Y-32709D01*
X38272Y-32708D02*
X38271Y-32709D01*
X32176Y-28459D02*
X32058Y-28459D01*
X32890Y-29173D02*
X32176Y-28459D01*
X40000Y-27076D02*
X40000Y-27305D01*
X40229Y-27534D02*
X40000Y-27305D01*
X40630Y-27534D02*
X40229Y-27534D01*
X33210Y-29730D02*
X33210Y-29173D01*
X40000Y-27305D02*
X39370Y-27305D01*
X39370Y-27076D02*
X39370Y-27305D01*
X39370Y-27445D02*
X39018Y-27797D01*
X39370Y-27305D02*
X39370Y-27445D01*
X40630Y-27076D02*
X40630Y-27534D01*
X33378Y-29173D02*
X33683Y-28868D01*
X33210Y-29173D02*
X33378Y-29173D01*
X28231Y-21828D02*
X27916Y-22143D01*
X28231Y-21828D02*
X28240Y-21819D01*
X28765Y-21695D02*
X28565Y-21494D01*
X29063Y-21695D02*
X28765Y-21695D01*
X29344Y-21976D02*
X29063Y-21695D01*
X32389Y-21976D02*
X29344Y-21976D01*
X32879Y-21486D02*
X32389Y-21976D01*
X32879Y-20856D02*
X32879Y-21486D01*
X33375Y-20360D02*
X32879Y-20856D01*
X25200Y-26448D02*
X25200Y-26906D01*
X26289Y-25359D02*
X25200Y-26448D01*
X26965Y-25359D02*
X26289Y-25359D01*
X28287Y-24037D02*
X26965Y-25359D01*
X28287Y-23162D02*
X28287Y-24037D01*
X28156Y-23031D02*
X28287Y-23162D01*
X28156Y-22384D02*
X28156Y-23031D01*
X27916Y-22143D02*
X28156Y-22384D01*
X28240Y-21819D02*
X28565Y-21494D01*
X30994Y-35740D02*
X30866Y-35612D01*
X31946Y-35740D02*
X30994Y-35740D01*
X26841Y-32922D02*
X27004Y-33084D01*
X26841Y-32922D02*
X26679Y-32760D01*
X26679Y-32760D02*
X26355Y-32435D01*
X25200Y-26906D02*
X25200Y-27365D01*
X33605Y-20360D02*
X33375Y-20360D01*
X33605Y-20360D02*
X33834Y-20360D01*
X38644Y-22908D02*
X38657Y-22895D01*
X37181Y-22908D02*
X38644Y-22908D01*
X36809Y-23280D02*
X37181Y-22908D01*
X36761Y-23280D02*
X36809Y-23280D01*
X34292Y-20811D02*
X36761Y-23280D01*
X34292Y-20360D02*
X34292Y-20811D01*
X33834Y-20360D02*
X34292Y-20360D01*
X40630Y-29044D02*
X40630Y-29502D01*
X37650Y-34221D02*
X37975Y-33896D01*
X38971Y-23210D02*
X38657Y-22895D01*
X38971Y-23210D02*
X38981Y-23220D01*
X40630Y-28450D02*
X40630Y-29044D01*
X40365Y-28185D02*
X40630Y-28450D01*
X38858Y-28185D02*
X40365Y-28185D01*
X38649Y-27976D02*
X38858Y-28185D01*
X38649Y-24490D02*
X38649Y-27976D01*
X39089Y-24050D02*
X38649Y-24490D01*
X39089Y-23761D02*
X39089Y-24050D01*
X39306Y-23544D02*
X39089Y-23761D01*
X38981Y-23220D02*
X39306Y-23544D01*
X26539Y-32251D02*
X26355Y-32435D01*
X26539Y-29863D02*
X26539Y-32251D01*
X26591Y-29811D02*
X26539Y-29863D01*
X26591Y-29588D02*
X26591Y-29811D01*
X26813Y-29366D02*
X26591Y-29588D01*
X26813Y-28491D02*
X26813Y-29366D01*
X26534Y-28212D02*
X26813Y-28491D01*
X26390Y-28212D02*
X26534Y-28212D01*
X25543Y-27365D02*
X26390Y-28212D01*
X25200Y-27365D02*
X25543Y-27365D01*
X28012Y-32824D02*
X28351Y-32485D01*
X27264Y-32824D02*
X28012Y-32824D01*
X27004Y-33084D02*
X27264Y-32824D01*
X37858Y-33780D02*
X37975Y-33896D01*
X37858Y-33473D02*
X37858Y-33780D01*
X37597Y-33212D02*
X37858Y-33473D01*
X37597Y-32901D02*
X37597Y-33212D01*
X37350Y-32654D02*
X37597Y-32901D01*
X37350Y-32605D02*
X37350Y-32654D01*
X37113Y-32368D02*
X37350Y-32605D01*
X37113Y-32064D02*
X37113Y-32368D01*
X37329Y-31848D02*
X37113Y-32064D01*
X37757Y-31848D02*
X37329Y-31848D01*
X40103Y-29502D02*
X37757Y-31848D01*
X40630Y-29502D02*
X40103Y-29502D01*
X36921Y-33168D02*
X37084Y-33005D01*
X36921Y-33168D02*
X36759Y-33330D01*
X31946Y-34480D02*
X31488Y-34480D01*
X33834Y-21620D02*
X33375Y-21620D01*
X32285Y-22710D02*
X29131Y-22710D01*
X33375Y-21620D02*
X32285Y-22710D01*
X33834Y-21620D02*
X34292Y-21620D01*
X39370Y-29044D02*
X39370Y-29315D01*
X39370Y-29315D02*
X39370Y-29502D01*
X26460Y-26906D02*
X26460Y-27365D01*
X28807Y-23035D02*
X28807Y-23034D01*
X28807Y-24101D02*
X28807Y-23035D01*
X26460Y-26448D02*
X28807Y-24101D01*
X26460Y-26906D02*
X26460Y-26448D01*
X29131Y-22710D02*
X28807Y-23034D01*
X36459Y-23787D02*
X34292Y-21620D01*
X37765Y-23787D02*
X36459Y-23787D01*
X37766Y-23786D02*
X37765Y-23787D01*
X38090Y-24111D02*
X37766Y-23786D01*
X38090Y-28035D02*
X39370Y-29315D01*
X38090Y-24111D02*
X38090Y-28035D01*
X35683Y-34013D02*
X34690Y-34013D01*
X36366Y-33330D02*
X35683Y-34013D01*
X36759Y-33330D02*
X36366Y-33330D01*
X31045Y-34037D02*
X30987Y-34037D01*
X31488Y-34480D02*
X31045Y-34037D01*
X26997Y-31296D02*
X27570Y-31869D01*
X26997Y-29756D02*
X26997Y-31296D01*
X27233Y-29520D02*
X26997Y-29756D01*
X27233Y-28138D02*
X27233Y-29520D01*
X26460Y-27365D02*
X27233Y-28138D01*
X37083Y-33005D02*
X37084Y-33005D01*
X37083Y-32961D02*
X37083Y-33005D01*
X36944Y-32822D02*
X37083Y-32961D01*
X36944Y-32773D02*
X36944Y-32822D01*
X36707Y-32536D02*
X36944Y-32773D01*
X36707Y-31896D02*
X36707Y-32536D01*
X37161Y-31442D02*
X36707Y-31896D01*
X37430Y-31442D02*
X37161Y-31442D01*
X39370Y-29502D02*
X37430Y-31442D01*
X40000Y-29044D02*
X40000Y-28585D01*
X31946Y-35110D02*
X32405Y-35110D01*
X25830Y-26906D02*
X25830Y-27365D01*
X27124Y-32314D02*
X26800Y-31990D01*
X26165Y-26448D02*
X25830Y-26448D01*
X28555Y-24058D02*
X26165Y-26448D01*
X28555Y-22783D02*
X28555Y-24058D01*
X28361Y-22589D02*
X28555Y-22783D01*
X28686Y-22264D02*
X28361Y-22589D01*
X25830Y-26906D02*
X25830Y-26448D01*
X38536Y-23666D02*
X38860Y-23990D01*
X38536Y-23666D02*
X38211Y-23341D01*
X37066Y-33914D02*
X36880Y-34100D01*
X37066Y-33914D02*
X37204Y-33776D01*
X37204Y-33776D02*
X37529Y-33451D01*
X33964Y-20990D02*
X33834Y-20990D01*
X36488Y-23514D02*
X33964Y-20990D01*
X38038Y-23514D02*
X36488Y-23514D01*
X38211Y-23341D02*
X38038Y-23514D01*
X29266Y-22196D02*
X29010Y-21940D01*
X32509Y-22196D02*
X29266Y-22196D01*
X33375Y-21330D02*
X32509Y-22196D01*
X33375Y-20990D02*
X33375Y-21330D01*
X33834Y-20990D02*
X33375Y-20990D01*
X28686Y-22264D02*
X29010Y-21940D01*
X38969Y-28585D02*
X40000Y-28585D01*
X38440Y-28056D02*
X38969Y-28585D01*
X38440Y-24410D02*
X38440Y-28056D01*
X38860Y-23990D02*
X38440Y-24410D01*
X36528Y-34100D02*
X36322Y-33894D01*
X36880Y-34100D02*
X36528Y-34100D01*
X32405Y-35319D02*
X33009Y-35923D01*
X32405Y-35110D02*
X32405Y-35319D01*
X26794Y-31984D02*
X26800Y-31990D01*
X26794Y-29672D02*
X26794Y-31984D01*
X27029Y-29437D02*
X26794Y-29672D01*
X27029Y-28278D02*
X27029Y-29437D01*
X26116Y-27365D02*
X27029Y-28278D01*
X25830Y-27365D02*
X26116Y-27365D01*
X37302Y-33224D02*
X37529Y-33451D01*
X37302Y-32893D02*
X37302Y-33224D01*
X37147Y-32738D02*
X37302Y-32893D01*
X37147Y-32689D02*
X37147Y-32738D01*
X36910Y-32452D02*
X37147Y-32689D01*
X36910Y-31980D02*
X36910Y-32452D01*
X37245Y-31645D02*
X36910Y-31980D01*
X37649Y-31645D02*
X37245Y-31645D01*
X40000Y-29294D02*
X37649Y-31645D01*
X40000Y-29044D02*
X40000Y-29294D01*
G36*
X41290Y-36440D02*
X41290Y-29359D01*
X41256Y-29708D01*
X41248Y-29745D01*
X41245Y-29749D01*
X40778Y-31300D01*
X40765Y-31329D01*
X40764Y-31333D01*
X40763Y-31334D01*
X40763Y-31335D01*
X40762Y-31335D01*
X40001Y-32768D01*
X39998Y-32771D01*
X39982Y-32798D01*
X39900Y-32898D01*
X38953Y-34059D01*
X38926Y-34085D01*
X38923Y-34086D01*
X38200Y-34685D01*
X37674Y-35120D01*
X37653Y-35133D01*
X37644Y-35140D01*
X36500Y-35758D01*
X36214Y-35913D01*
X36179Y-35928D01*
X36169Y-35929D01*
X35150Y-36245D01*
X34628Y-36407D01*
X34590Y-36415D01*
X34583Y-36414D01*
X34344Y-36440D01*
X35150Y-36440D01*
X36500Y-36440D01*
X38200Y-36440D01*
X39900Y-36440D01*
X41290Y-36440D01*
X41290Y-36440D01*
G37*
X41290Y-36440D02*
X41290Y-29359D01*
X41290Y-29359D02*
X41256Y-29708D01*
X41256Y-29708D02*
X41248Y-29745D01*
X41248Y-29745D02*
X41245Y-29749D01*
X41245Y-29749D02*
X40778Y-31300D01*
X40778Y-31300D02*
X40765Y-31329D01*
X40765Y-31329D02*
X40764Y-31333D01*
X40764Y-31333D02*
X40763Y-31334D01*
X40763Y-31334D02*
X40763Y-31335D01*
X40763Y-31335D02*
X40762Y-31335D01*
X40762Y-31335D02*
X40001Y-32768D01*
X40001Y-32768D02*
X39998Y-32771D01*
X39998Y-32771D02*
X39982Y-32798D01*
X39982Y-32798D02*
X39900Y-32898D01*
X39900Y-32898D02*
X38953Y-34059D01*
X38953Y-34059D02*
X38926Y-34085D01*
X38926Y-34085D02*
X38923Y-34086D01*
X38923Y-34086D02*
X38200Y-34685D01*
X38200Y-34685D02*
X37674Y-35120D01*
X37674Y-35120D02*
X37653Y-35133D01*
X37653Y-35133D02*
X37644Y-35140D01*
X37644Y-35140D02*
X36500Y-35758D01*
X36500Y-35758D02*
X36214Y-35913D01*
X36214Y-35913D02*
X36179Y-35928D01*
X36179Y-35928D02*
X36169Y-35929D01*
X36169Y-35929D02*
X35150Y-36245D01*
X35150Y-36245D02*
X34628Y-36407D01*
X34628Y-36407D02*
X34590Y-36415D01*
X34590Y-36415D02*
X34583Y-36414D01*
X34583Y-36414D02*
X34344Y-36440D01*
X34344Y-36440D02*
X35150Y-36440D01*
X35150Y-36440D02*
X36500Y-36440D01*
X36500Y-36440D02*
X38200Y-36440D01*
X38200Y-36440D02*
X39900Y-36440D01*
X39900Y-36440D02*
X41290Y-36440D01*
G36*
X31405Y-36440D02*
X31262Y-36426D01*
X31225Y-36418D01*
X31220Y-36415D01*
X30000Y-36047D01*
X29670Y-35948D01*
X29640Y-35935D01*
X29637Y-35934D01*
X29635Y-35933D01*
X29635Y-35933D01*
X29634Y-35932D01*
X28450Y-35302D01*
X28202Y-35171D01*
X28197Y-35168D01*
X28172Y-35152D01*
X26911Y-34123D01*
X26885Y-34096D01*
X26883Y-34093D01*
X26850Y-34053D01*
X25850Y-32844D01*
X25836Y-32824D01*
X25830Y-32814D01*
X25350Y-31926D01*
X25057Y-31384D01*
X25042Y-31349D01*
X25040Y-31339D01*
X24563Y-29798D01*
X24555Y-29760D01*
X24555Y-29753D01*
X24510Y-29324D01*
X24510Y-36440D01*
X25350Y-36440D01*
X26850Y-36440D01*
X28450Y-36440D01*
X30000Y-36440D01*
X31405Y-36440D01*
X31405Y-36440D01*
G37*
X31405Y-36440D02*
X31262Y-36426D01*
X31262Y-36426D02*
X31225Y-36418D01*
X31225Y-36418D02*
X31220Y-36415D01*
X31220Y-36415D02*
X30000Y-36047D01*
X30000Y-36047D02*
X29670Y-35948D01*
X29670Y-35948D02*
X29640Y-35935D01*
X29640Y-35935D02*
X29637Y-35934D01*
X29637Y-35934D02*
X29635Y-35933D01*
X29635Y-35933D02*
X29635Y-35933D01*
X29635Y-35933D02*
X29634Y-35932D01*
X29634Y-35932D02*
X28450Y-35302D01*
X28450Y-35302D02*
X28202Y-35171D01*
X28202Y-35171D02*
X28197Y-35168D01*
X28197Y-35168D02*
X28172Y-35152D01*
X28172Y-35152D02*
X26911Y-34123D01*
X26911Y-34123D02*
X26885Y-34096D01*
X26885Y-34096D02*
X26883Y-34093D01*
X26883Y-34093D02*
X26850Y-34053D01*
X26850Y-34053D02*
X25850Y-32844D01*
X25850Y-32844D02*
X25836Y-32824D01*
X25836Y-32824D02*
X25830Y-32814D01*
X25830Y-32814D02*
X25350Y-31926D01*
X25350Y-31926D02*
X25057Y-31384D01*
X25057Y-31384D02*
X25042Y-31349D01*
X25042Y-31349D02*
X25040Y-31339D01*
X25040Y-31339D02*
X24563Y-29798D01*
X24563Y-29798D02*
X24555Y-29760D01*
X24555Y-29760D02*
X24555Y-29753D01*
X24555Y-29753D02*
X24510Y-29324D01*
X24510Y-29324D02*
X24510Y-36440D01*
X24510Y-36440D02*
X25350Y-36440D01*
X25350Y-36440D02*
X26850Y-36440D01*
X26850Y-36440D02*
X28450Y-36440D01*
X28450Y-36440D02*
X30000Y-36440D01*
X30000Y-36440D02*
X31405Y-36440D01*
G36*
X32690Y-36173D02*
X32648Y-36109D01*
X32619Y-36035D01*
X32604Y-35957D01*
X32606Y-35878D01*
X32609Y-35863D01*
X32420Y-35674D01*
X32420Y-35935D01*
X32413Y-35970D01*
X32399Y-36002D01*
X32380Y-36031D01*
X32355Y-36056D01*
X32326Y-36076D01*
X32300Y-36086D01*
X32293Y-36089D01*
X32259Y-36096D01*
X31895Y-36096D01*
X32300Y-36135D01*
X32690Y-36173D01*
X32690Y-36173D01*
G37*
X32690Y-36173D02*
X32648Y-36109D01*
X32648Y-36109D02*
X32619Y-36035D01*
X32619Y-36035D02*
X32604Y-35957D01*
X32604Y-35957D02*
X32606Y-35878D01*
X32606Y-35878D02*
X32609Y-35863D01*
X32609Y-35863D02*
X32420Y-35674D01*
X32420Y-35674D02*
X32420Y-35935D01*
X32420Y-35935D02*
X32413Y-35970D01*
X32413Y-35970D02*
X32399Y-36002D01*
X32399Y-36002D02*
X32380Y-36031D01*
X32380Y-36031D02*
X32355Y-36056D01*
X32355Y-36056D02*
X32326Y-36076D01*
X32326Y-36076D02*
X32300Y-36086D01*
X32300Y-36086D02*
X32293Y-36089D01*
X32293Y-36089D02*
X32259Y-36096D01*
X32259Y-36096D02*
X31895Y-36096D01*
X31895Y-36096D02*
X32300Y-36135D01*
X32300Y-36135D02*
X32690Y-36173D01*
G36*
X33362Y-36123D02*
X33340Y-36153D01*
X33887Y-36096D01*
X33601Y-36096D01*
X33566Y-36089D01*
X33534Y-36075D01*
X33505Y-36056D01*
X33480Y-36031D01*
X33460Y-36002D01*
X33451Y-35979D01*
X33411Y-35975D01*
X33394Y-36051D01*
X33362Y-36123D01*
X33362Y-36123D01*
G37*
X33362Y-36123D02*
X33340Y-36153D01*
X33340Y-36153D02*
X33887Y-36096D01*
X33887Y-36096D02*
X33601Y-36096D01*
X33601Y-36096D02*
X33566Y-36089D01*
X33566Y-36089D02*
X33534Y-36075D01*
X33534Y-36075D02*
X33505Y-36056D01*
X33505Y-36056D02*
X33480Y-36031D01*
X33480Y-36031D02*
X33460Y-36002D01*
X33460Y-36002D02*
X33451Y-35979D01*
X33451Y-35979D02*
X33411Y-35975D01*
X33411Y-35975D02*
X33394Y-36051D01*
X33394Y-36051D02*
X33362Y-36123D01*
G36*
X31545Y-36061D02*
X31537Y-36056D01*
X31512Y-36031D01*
X31492Y-36002D01*
X31483Y-35980D01*
X31124Y-35980D01*
X31323Y-36040D01*
X31545Y-36061D01*
X31545Y-36061D01*
G37*
X31545Y-36061D02*
X31537Y-36056D01*
X31537Y-36056D02*
X31512Y-36031D01*
X31512Y-36031D02*
X31492Y-36002D01*
X31492Y-36002D02*
X31483Y-35980D01*
X31483Y-35980D02*
X31124Y-35980D01*
X31124Y-35980D02*
X31323Y-36040D01*
X31323Y-36040D02*
X31545Y-36061D01*
G36*
X34348Y-36031D02*
X34329Y-36049D01*
X34535Y-36027D01*
X35150Y-35837D01*
X36044Y-35560D01*
X36500Y-35314D01*
X37442Y-34805D01*
X37533Y-34730D01*
X37514Y-34727D01*
X37482Y-34713D01*
X37453Y-34694D01*
X37177Y-34418D01*
X37157Y-34389D01*
X37144Y-34356D01*
X37137Y-34322D01*
X37137Y-34289D01*
X37103Y-34289D01*
X37068Y-34282D01*
X37046Y-34272D01*
X37011Y-34302D01*
X36971Y-34322D01*
X36969Y-34323D01*
X36924Y-34336D01*
X36888Y-34339D01*
X36880Y-34340D01*
X36878Y-34340D01*
X36525Y-34340D01*
X36500Y-34337D01*
X36478Y-34335D01*
X36433Y-34321D01*
X36392Y-34298D01*
X36386Y-34293D01*
X36354Y-34299D01*
X36274Y-34297D01*
X36197Y-34280D01*
X36124Y-34249D01*
X36059Y-34203D01*
X36004Y-34146D01*
X35961Y-34080D01*
X35959Y-34076D01*
X35851Y-34185D01*
X35814Y-34215D01*
X35773Y-34235D01*
X35772Y-34236D01*
X35727Y-34249D01*
X35691Y-34252D01*
X35683Y-34253D01*
X35681Y-34253D01*
X35150Y-34253D01*
X35015Y-34253D01*
X34998Y-34278D01*
X34940Y-34333D01*
X34873Y-34375D01*
X34800Y-34404D01*
X34722Y-34418D01*
X34660Y-34416D01*
X34660Y-34560D01*
X34388Y-34560D01*
X34388Y-34675D01*
X34381Y-34710D01*
X34367Y-34742D01*
X34348Y-34771D01*
X34324Y-34795D01*
X34348Y-34819D01*
X34368Y-34848D01*
X34381Y-34881D01*
X34388Y-34915D01*
X34388Y-35305D01*
X34381Y-35340D01*
X34367Y-35372D01*
X34348Y-35401D01*
X34324Y-35425D01*
X34348Y-35449D01*
X34368Y-35478D01*
X34381Y-35511D01*
X34388Y-35545D01*
X34388Y-35935D01*
X34381Y-35970D01*
X34367Y-36002D01*
X34348Y-36031D01*
X34348Y-36031D01*
G37*
X34348Y-36031D02*
X34329Y-36049D01*
X34329Y-36049D02*
X34535Y-36027D01*
X34535Y-36027D02*
X35150Y-35837D01*
X35150Y-35837D02*
X36044Y-35560D01*
X36044Y-35560D02*
X36500Y-35314D01*
X36500Y-35314D02*
X37442Y-34805D01*
X37442Y-34805D02*
X37533Y-34730D01*
X37533Y-34730D02*
X37514Y-34727D01*
X37514Y-34727D02*
X37482Y-34713D01*
X37482Y-34713D02*
X37453Y-34694D01*
X37453Y-34694D02*
X37177Y-34418D01*
X37177Y-34418D02*
X37157Y-34389D01*
X37157Y-34389D02*
X37144Y-34356D01*
X37144Y-34356D02*
X37137Y-34322D01*
X37137Y-34322D02*
X37137Y-34289D01*
X37137Y-34289D02*
X37103Y-34289D01*
X37103Y-34289D02*
X37068Y-34282D01*
X37068Y-34282D02*
X37046Y-34272D01*
X37046Y-34272D02*
X37011Y-34302D01*
X37011Y-34302D02*
X36971Y-34322D01*
X36971Y-34322D02*
X36969Y-34323D01*
X36969Y-34323D02*
X36924Y-34336D01*
X36924Y-34336D02*
X36888Y-34339D01*
X36888Y-34339D02*
X36880Y-34340D01*
X36880Y-34340D02*
X36878Y-34340D01*
X36878Y-34340D02*
X36525Y-34340D01*
X36525Y-34340D02*
X36500Y-34337D01*
X36500Y-34337D02*
X36478Y-34335D01*
X36478Y-34335D02*
X36433Y-34321D01*
X36433Y-34321D02*
X36392Y-34298D01*
X36392Y-34298D02*
X36386Y-34293D01*
X36386Y-34293D02*
X36354Y-34299D01*
X36354Y-34299D02*
X36274Y-34297D01*
X36274Y-34297D02*
X36197Y-34280D01*
X36197Y-34280D02*
X36124Y-34249D01*
X36124Y-34249D02*
X36059Y-34203D01*
X36059Y-34203D02*
X36004Y-34146D01*
X36004Y-34146D02*
X35961Y-34080D01*
X35961Y-34080D02*
X35959Y-34076D01*
X35959Y-34076D02*
X35851Y-34185D01*
X35851Y-34185D02*
X35814Y-34215D01*
X35814Y-34215D02*
X35773Y-34235D01*
X35773Y-34235D02*
X35772Y-34236D01*
X35772Y-34236D02*
X35727Y-34249D01*
X35727Y-34249D02*
X35691Y-34252D01*
X35691Y-34252D02*
X35683Y-34253D01*
X35683Y-34253D02*
X35681Y-34253D01*
X35681Y-34253D02*
X35150Y-34253D01*
X35150Y-34253D02*
X35015Y-34253D01*
X35015Y-34253D02*
X34998Y-34278D01*
X34998Y-34278D02*
X34940Y-34333D01*
X34940Y-34333D02*
X34873Y-34375D01*
X34873Y-34375D02*
X34800Y-34404D01*
X34800Y-34404D02*
X34722Y-34418D01*
X34722Y-34418D02*
X34660Y-34416D01*
X34660Y-34416D02*
X34660Y-34560D01*
X34660Y-34560D02*
X34388Y-34560D01*
X34388Y-34560D02*
X34388Y-34675D01*
X34388Y-34675D02*
X34381Y-34710D01*
X34381Y-34710D02*
X34367Y-34742D01*
X34367Y-34742D02*
X34348Y-34771D01*
X34348Y-34771D02*
X34324Y-34795D01*
X34324Y-34795D02*
X34348Y-34819D01*
X34348Y-34819D02*
X34368Y-34848D01*
X34368Y-34848D02*
X34381Y-34881D01*
X34381Y-34881D02*
X34388Y-34915D01*
X34388Y-34915D02*
X34388Y-35305D01*
X34388Y-35305D02*
X34381Y-35340D01*
X34381Y-35340D02*
X34367Y-35372D01*
X34367Y-35372D02*
X34348Y-35401D01*
X34348Y-35401D02*
X34324Y-35425D01*
X34324Y-35425D02*
X34348Y-35449D01*
X34348Y-35449D02*
X34368Y-35478D01*
X34368Y-35478D02*
X34381Y-35511D01*
X34381Y-35511D02*
X34388Y-35545D01*
X34388Y-35545D02*
X34388Y-35935D01*
X34388Y-35935D02*
X34381Y-35970D01*
X34381Y-35970D02*
X34367Y-36002D01*
X34367Y-36002D02*
X34348Y-36031D01*
G36*
X30502Y-35791D02*
X30476Y-35724D01*
X30461Y-35646D01*
X30463Y-35567D01*
X30479Y-35490D01*
X30510Y-35417D01*
X30555Y-35351D01*
X30611Y-35296D01*
X30678Y-35252D01*
X30751Y-35223D01*
X30829Y-35208D01*
X30899Y-35208D01*
X30898Y-35201D01*
X30900Y-35122D01*
X30903Y-35107D01*
X30000Y-34204D01*
X29984Y-34188D01*
X29954Y-34151D01*
X29934Y-34111D01*
X29933Y-34109D01*
X29920Y-34064D01*
X29916Y-34028D01*
X29916Y-34020D01*
X29916Y-34018D01*
X29916Y-31022D01*
X29499Y-31439D01*
X29462Y-31469D01*
X29422Y-31489D01*
X29420Y-31490D01*
X29375Y-31503D01*
X29339Y-31506D01*
X29331Y-31507D01*
X29329Y-31507D01*
X29274Y-31507D01*
X29311Y-31544D01*
X29355Y-31610D01*
X29386Y-31683D01*
X29401Y-31761D01*
X29400Y-31851D01*
X29397Y-31861D01*
X29638Y-32103D01*
X29638Y-32103D01*
X29639Y-32104D01*
X29669Y-32140D01*
X29691Y-32182D01*
X29691Y-32182D01*
X29692Y-32184D01*
X29705Y-32229D01*
X29706Y-32245D01*
X29709Y-32273D01*
X29709Y-33679D01*
X29704Y-33726D01*
X29690Y-33771D01*
X29667Y-33812D01*
X29640Y-33842D01*
X29638Y-33846D01*
X29436Y-34048D01*
X29440Y-34069D01*
X29439Y-34159D01*
X29421Y-34237D01*
X29389Y-34309D01*
X29344Y-34374D01*
X29286Y-34429D01*
X29219Y-34471D01*
X29146Y-34500D01*
X29068Y-34514D01*
X28988Y-34512D01*
X28911Y-34495D01*
X28838Y-34464D01*
X28773Y-34418D01*
X28718Y-34361D01*
X28675Y-34295D01*
X28646Y-34221D01*
X28644Y-34213D01*
X28617Y-34219D01*
X28583Y-34219D01*
X28583Y-34252D01*
X28576Y-34287D01*
X28562Y-34319D01*
X28543Y-34348D01*
X28450Y-34441D01*
X28267Y-34624D01*
X28238Y-34644D01*
X28205Y-34657D01*
X28187Y-34660D01*
X28403Y-34836D01*
X28450Y-34860D01*
X29803Y-35580D01*
X30000Y-35639D01*
X30502Y-35791D01*
X30502Y-35791D01*
G37*
X30502Y-35791D02*
X30476Y-35724D01*
X30476Y-35724D02*
X30461Y-35646D01*
X30461Y-35646D02*
X30463Y-35567D01*
X30463Y-35567D02*
X30479Y-35490D01*
X30479Y-35490D02*
X30510Y-35417D01*
X30510Y-35417D02*
X30555Y-35351D01*
X30555Y-35351D02*
X30611Y-35296D01*
X30611Y-35296D02*
X30678Y-35252D01*
X30678Y-35252D02*
X30751Y-35223D01*
X30751Y-35223D02*
X30829Y-35208D01*
X30829Y-35208D02*
X30899Y-35208D01*
X30899Y-35208D02*
X30898Y-35201D01*
X30898Y-35201D02*
X30900Y-35122D01*
X30900Y-35122D02*
X30903Y-35107D01*
X30903Y-35107D02*
X30000Y-34204D01*
X30000Y-34204D02*
X29984Y-34188D01*
X29984Y-34188D02*
X29954Y-34151D01*
X29954Y-34151D02*
X29934Y-34111D01*
X29934Y-34111D02*
X29933Y-34109D01*
X29933Y-34109D02*
X29920Y-34064D01*
X29920Y-34064D02*
X29916Y-34028D01*
X29916Y-34028D02*
X29916Y-34020D01*
X29916Y-34020D02*
X29916Y-34018D01*
X29916Y-34018D02*
X29916Y-31022D01*
X29916Y-31022D02*
X29499Y-31439D01*
X29499Y-31439D02*
X29462Y-31469D01*
X29462Y-31469D02*
X29422Y-31489D01*
X29422Y-31489D02*
X29420Y-31490D01*
X29420Y-31490D02*
X29375Y-31503D01*
X29375Y-31503D02*
X29339Y-31506D01*
X29339Y-31506D02*
X29331Y-31507D01*
X29331Y-31507D02*
X29329Y-31507D01*
X29329Y-31507D02*
X29274Y-31507D01*
X29274Y-31507D02*
X29311Y-31544D01*
X29311Y-31544D02*
X29355Y-31610D01*
X29355Y-31610D02*
X29386Y-31683D01*
X29386Y-31683D02*
X29401Y-31761D01*
X29401Y-31761D02*
X29400Y-31851D01*
X29400Y-31851D02*
X29397Y-31861D01*
X29397Y-31861D02*
X29638Y-32103D01*
X29638Y-32103D02*
X29638Y-32103D01*
X29638Y-32103D02*
X29639Y-32104D01*
X29639Y-32104D02*
X29669Y-32140D01*
X29669Y-32140D02*
X29691Y-32182D01*
X29691Y-32182D02*
X29691Y-32182D01*
X29691Y-32182D02*
X29692Y-32184D01*
X29692Y-32184D02*
X29705Y-32229D01*
X29705Y-32229D02*
X29706Y-32245D01*
X29706Y-32245D02*
X29709Y-32273D01*
X29709Y-32273D02*
X29709Y-33679D01*
X29709Y-33679D02*
X29704Y-33726D01*
X29704Y-33726D02*
X29690Y-33771D01*
X29690Y-33771D02*
X29667Y-33812D01*
X29667Y-33812D02*
X29640Y-33842D01*
X29640Y-33842D02*
X29638Y-33846D01*
X29638Y-33846D02*
X29436Y-34048D01*
X29436Y-34048D02*
X29440Y-34069D01*
X29440Y-34069D02*
X29439Y-34159D01*
X29439Y-34159D02*
X29421Y-34237D01*
X29421Y-34237D02*
X29389Y-34309D01*
X29389Y-34309D02*
X29344Y-34374D01*
X29344Y-34374D02*
X29286Y-34429D01*
X29286Y-34429D02*
X29219Y-34471D01*
X29219Y-34471D02*
X29146Y-34500D01*
X29146Y-34500D02*
X29068Y-34514D01*
X29068Y-34514D02*
X28988Y-34512D01*
X28988Y-34512D02*
X28911Y-34495D01*
X28911Y-34495D02*
X28838Y-34464D01*
X28838Y-34464D02*
X28773Y-34418D01*
X28773Y-34418D02*
X28718Y-34361D01*
X28718Y-34361D02*
X28675Y-34295D01*
X28675Y-34295D02*
X28646Y-34221D01*
X28646Y-34221D02*
X28644Y-34213D01*
X28644Y-34213D02*
X28617Y-34219D01*
X28617Y-34219D02*
X28583Y-34219D01*
X28583Y-34219D02*
X28583Y-34252D01*
X28583Y-34252D02*
X28576Y-34287D01*
X28576Y-34287D02*
X28562Y-34319D01*
X28562Y-34319D02*
X28543Y-34348D01*
X28543Y-34348D02*
X28450Y-34441D01*
X28450Y-34441D02*
X28267Y-34624D01*
X28267Y-34624D02*
X28238Y-34644D01*
X28238Y-34644D02*
X28205Y-34657D01*
X28205Y-34657D02*
X28187Y-34660D01*
X28187Y-34660D02*
X28403Y-34836D01*
X28403Y-34836D02*
X28450Y-34860D01*
X28450Y-34860D02*
X29803Y-35580D01*
X29803Y-35580D02*
X30000Y-35639D01*
X30000Y-35639D02*
X30502Y-35791D01*
G36*
X33216Y-35575D02*
X33216Y-35339D01*
X33216Y-35338D01*
X33216Y-35338D01*
X33217Y-35326D01*
X33221Y-35289D01*
X33235Y-35244D01*
X33246Y-35224D01*
X33233Y-35200D01*
X33220Y-35155D01*
X33216Y-35118D01*
X33216Y-35110D01*
X33216Y-35108D01*
X33216Y-34579D01*
X33050Y-34413D01*
X32300Y-33663D01*
X32172Y-33536D01*
X32142Y-33499D01*
X32122Y-33459D01*
X32121Y-33457D01*
X32108Y-33412D01*
X32104Y-33376D01*
X32104Y-33368D01*
X32104Y-33366D01*
X32104Y-33356D01*
X32065Y-33317D01*
X32058Y-33352D01*
X32019Y-33438D01*
X31965Y-33515D01*
X31897Y-33580D01*
X31817Y-33631D01*
X31730Y-33665D01*
X31637Y-33681D01*
X31543Y-33679D01*
X31451Y-33659D01*
X31365Y-33621D01*
X31287Y-33567D01*
X31222Y-33500D01*
X31171Y-33420D01*
X31136Y-33333D01*
X31119Y-33240D01*
X31121Y-33146D01*
X31140Y-33054D01*
X31177Y-32968D01*
X31207Y-32924D01*
X31194Y-32917D01*
X31163Y-32890D01*
X31160Y-32888D01*
X30980Y-32709D01*
X30950Y-32672D01*
X30930Y-32632D01*
X30929Y-32630D01*
X30916Y-32585D01*
X30914Y-32563D01*
X30897Y-32580D01*
X30817Y-32631D01*
X30730Y-32665D01*
X30637Y-32681D01*
X30543Y-32679D01*
X30451Y-32659D01*
X30396Y-32634D01*
X30396Y-32765D01*
X30464Y-32737D01*
X30556Y-32720D01*
X30650Y-32720D01*
X30743Y-32739D01*
X30829Y-32776D01*
X30907Y-32828D01*
X30974Y-32895D01*
X31026Y-32974D01*
X31062Y-33061D01*
X31080Y-33153D01*
X31078Y-33261D01*
X31058Y-33352D01*
X31019Y-33438D01*
X30965Y-33515D01*
X30897Y-33580D01*
X30817Y-33631D01*
X30730Y-33665D01*
X30637Y-33681D01*
X30543Y-33679D01*
X30451Y-33659D01*
X30396Y-33634D01*
X30396Y-33920D01*
X30590Y-34114D01*
X30582Y-34071D01*
X30584Y-33992D01*
X30600Y-33915D01*
X30631Y-33842D01*
X30676Y-33776D01*
X30732Y-33721D01*
X30799Y-33677D01*
X30872Y-33648D01*
X30950Y-33633D01*
X31029Y-33633D01*
X31107Y-33649D01*
X31180Y-33680D01*
X31245Y-33724D01*
X31301Y-33780D01*
X31345Y-33846D01*
X31376Y-33919D01*
X31391Y-33997D01*
X31390Y-34042D01*
X31524Y-34176D01*
X31537Y-34164D01*
X31566Y-34144D01*
X31599Y-34131D01*
X31633Y-34124D01*
X32259Y-34124D01*
X32294Y-34131D01*
X32300Y-34133D01*
X32326Y-34145D01*
X32355Y-34164D01*
X32380Y-34189D01*
X32400Y-34218D01*
X32413Y-34251D01*
X32420Y-34285D01*
X32420Y-34675D01*
X32413Y-34710D01*
X32399Y-34742D01*
X32380Y-34771D01*
X32356Y-34795D01*
X32380Y-34819D01*
X32400Y-34848D01*
X32408Y-34870D01*
X32429Y-34872D01*
X32455Y-34875D01*
X32500Y-34889D01*
X32541Y-34912D01*
X32568Y-34935D01*
X32575Y-34941D01*
X32575Y-34941D01*
X32576Y-34942D01*
X32582Y-34949D01*
X32605Y-34977D01*
X32607Y-34982D01*
X32628Y-35020D01*
X32641Y-35065D01*
X32644Y-35101D01*
X32645Y-35110D01*
X32645Y-35112D01*
X32645Y-35219D01*
X32949Y-35523D01*
X32972Y-35519D01*
X33050Y-35519D01*
X33051Y-35519D01*
X33129Y-35535D01*
X33202Y-35566D01*
X33216Y-35575D01*
X33216Y-35575D01*
G37*
X33216Y-35575D02*
X33216Y-35339D01*
X33216Y-35339D02*
X33216Y-35338D01*
X33216Y-35338D02*
X33216Y-35338D01*
X33216Y-35338D02*
X33217Y-35326D01*
X33217Y-35326D02*
X33221Y-35289D01*
X33221Y-35289D02*
X33235Y-35244D01*
X33235Y-35244D02*
X33246Y-35224D01*
X33246Y-35224D02*
X33233Y-35200D01*
X33233Y-35200D02*
X33220Y-35155D01*
X33220Y-35155D02*
X33216Y-35118D01*
X33216Y-35118D02*
X33216Y-35110D01*
X33216Y-35110D02*
X33216Y-35108D01*
X33216Y-35108D02*
X33216Y-34579D01*
X33216Y-34579D02*
X33050Y-34413D01*
X33050Y-34413D02*
X32300Y-33663D01*
X32300Y-33663D02*
X32172Y-33536D01*
X32172Y-33536D02*
X32142Y-33499D01*
X32142Y-33499D02*
X32122Y-33459D01*
X32122Y-33459D02*
X32121Y-33457D01*
X32121Y-33457D02*
X32108Y-33412D01*
X32108Y-33412D02*
X32104Y-33376D01*
X32104Y-33376D02*
X32104Y-33368D01*
X32104Y-33368D02*
X32104Y-33366D01*
X32104Y-33366D02*
X32104Y-33356D01*
X32104Y-33356D02*
X32065Y-33317D01*
X32065Y-33317D02*
X32058Y-33352D01*
X32058Y-33352D02*
X32019Y-33438D01*
X32019Y-33438D02*
X31965Y-33515D01*
X31965Y-33515D02*
X31897Y-33580D01*
X31897Y-33580D02*
X31817Y-33631D01*
X31817Y-33631D02*
X31730Y-33665D01*
X31730Y-33665D02*
X31637Y-33681D01*
X31637Y-33681D02*
X31543Y-33679D01*
X31543Y-33679D02*
X31451Y-33659D01*
X31451Y-33659D02*
X31365Y-33621D01*
X31365Y-33621D02*
X31287Y-33567D01*
X31287Y-33567D02*
X31222Y-33500D01*
X31222Y-33500D02*
X31171Y-33420D01*
X31171Y-33420D02*
X31136Y-33333D01*
X31136Y-33333D02*
X31119Y-33240D01*
X31119Y-33240D02*
X31121Y-33146D01*
X31121Y-33146D02*
X31140Y-33054D01*
X31140Y-33054D02*
X31177Y-32968D01*
X31177Y-32968D02*
X31207Y-32924D01*
X31207Y-32924D02*
X31194Y-32917D01*
X31194Y-32917D02*
X31163Y-32890D01*
X31163Y-32890D02*
X31160Y-32888D01*
X31160Y-32888D02*
X30980Y-32709D01*
X30980Y-32709D02*
X30950Y-32672D01*
X30950Y-32672D02*
X30930Y-32632D01*
X30930Y-32632D02*
X30929Y-32630D01*
X30929Y-32630D02*
X30916Y-32585D01*
X30916Y-32585D02*
X30914Y-32563D01*
X30914Y-32563D02*
X30897Y-32580D01*
X30897Y-32580D02*
X30817Y-32631D01*
X30817Y-32631D02*
X30730Y-32665D01*
X30730Y-32665D02*
X30637Y-32681D01*
X30637Y-32681D02*
X30543Y-32679D01*
X30543Y-32679D02*
X30451Y-32659D01*
X30451Y-32659D02*
X30396Y-32634D01*
X30396Y-32634D02*
X30396Y-32765D01*
X30396Y-32765D02*
X30464Y-32737D01*
X30464Y-32737D02*
X30556Y-32720D01*
X30556Y-32720D02*
X30650Y-32720D01*
X30650Y-32720D02*
X30743Y-32739D01*
X30743Y-32739D02*
X30829Y-32776D01*
X30829Y-32776D02*
X30907Y-32828D01*
X30907Y-32828D02*
X30974Y-32895D01*
X30974Y-32895D02*
X31026Y-32974D01*
X31026Y-32974D02*
X31062Y-33061D01*
X31062Y-33061D02*
X31080Y-33153D01*
X31080Y-33153D02*
X31078Y-33261D01*
X31078Y-33261D02*
X31058Y-33352D01*
X31058Y-33352D02*
X31019Y-33438D01*
X31019Y-33438D02*
X30965Y-33515D01*
X30965Y-33515D02*
X30897Y-33580D01*
X30897Y-33580D02*
X30817Y-33631D01*
X30817Y-33631D02*
X30730Y-33665D01*
X30730Y-33665D02*
X30637Y-33681D01*
X30637Y-33681D02*
X30543Y-33679D01*
X30543Y-33679D02*
X30451Y-33659D01*
X30451Y-33659D02*
X30396Y-33634D01*
X30396Y-33634D02*
X30396Y-33920D01*
X30396Y-33920D02*
X30590Y-34114D01*
X30590Y-34114D02*
X30582Y-34071D01*
X30582Y-34071D02*
X30584Y-33992D01*
X30584Y-33992D02*
X30600Y-33915D01*
X30600Y-33915D02*
X30631Y-33842D01*
X30631Y-33842D02*
X30676Y-33776D01*
X30676Y-33776D02*
X30732Y-33721D01*
X30732Y-33721D02*
X30799Y-33677D01*
X30799Y-33677D02*
X30872Y-33648D01*
X30872Y-33648D02*
X30950Y-33633D01*
X30950Y-33633D02*
X31029Y-33633D01*
X31029Y-33633D02*
X31107Y-33649D01*
X31107Y-33649D02*
X31180Y-33680D01*
X31180Y-33680D02*
X31245Y-33724D01*
X31245Y-33724D02*
X31301Y-33780D01*
X31301Y-33780D02*
X31345Y-33846D01*
X31345Y-33846D02*
X31376Y-33919D01*
X31376Y-33919D02*
X31391Y-33997D01*
X31391Y-33997D02*
X31390Y-34042D01*
X31390Y-34042D02*
X31524Y-34176D01*
X31524Y-34176D02*
X31537Y-34164D01*
X31537Y-34164D02*
X31566Y-34144D01*
X31566Y-34144D02*
X31599Y-34131D01*
X31599Y-34131D02*
X31633Y-34124D01*
X31633Y-34124D02*
X32259Y-34124D01*
X32259Y-34124D02*
X32294Y-34131D01*
X32294Y-34131D02*
X32300Y-34133D01*
X32300Y-34133D02*
X32326Y-34145D01*
X32326Y-34145D02*
X32355Y-34164D01*
X32355Y-34164D02*
X32380Y-34189D01*
X32380Y-34189D02*
X32400Y-34218D01*
X32400Y-34218D02*
X32413Y-34251D01*
X32413Y-34251D02*
X32420Y-34285D01*
X32420Y-34285D02*
X32420Y-34675D01*
X32420Y-34675D02*
X32413Y-34710D01*
X32413Y-34710D02*
X32399Y-34742D01*
X32399Y-34742D02*
X32380Y-34771D01*
X32380Y-34771D02*
X32356Y-34795D01*
X32356Y-34795D02*
X32380Y-34819D01*
X32380Y-34819D02*
X32400Y-34848D01*
X32400Y-34848D02*
X32408Y-34870D01*
X32408Y-34870D02*
X32429Y-34872D01*
X32429Y-34872D02*
X32455Y-34875D01*
X32455Y-34875D02*
X32500Y-34889D01*
X32500Y-34889D02*
X32541Y-34912D01*
X32541Y-34912D02*
X32568Y-34935D01*
X32568Y-34935D02*
X32575Y-34941D01*
X32575Y-34941D02*
X32575Y-34941D01*
X32575Y-34941D02*
X32576Y-34942D01*
X32576Y-34942D02*
X32582Y-34949D01*
X32582Y-34949D02*
X32605Y-34977D01*
X32605Y-34977D02*
X32607Y-34982D01*
X32607Y-34982D02*
X32628Y-35020D01*
X32628Y-35020D02*
X32641Y-35065D01*
X32641Y-35065D02*
X32644Y-35101D01*
X32644Y-35101D02*
X32645Y-35110D01*
X32645Y-35110D02*
X32645Y-35112D01*
X32645Y-35112D02*
X32645Y-35219D01*
X32645Y-35219D02*
X32949Y-35523D01*
X32949Y-35523D02*
X32972Y-35519D01*
X32972Y-35519D02*
X33050Y-35519D01*
X33050Y-35519D02*
X33051Y-35519D01*
X33051Y-35519D02*
X33129Y-35535D01*
X33129Y-35535D02*
X33202Y-35566D01*
X33202Y-35566D02*
X33216Y-35575D01*
G36*
X31511Y-34820D02*
X31512Y-34819D01*
X31536Y-34795D01*
X31512Y-34771D01*
X31492Y-34742D01*
X31483Y-34719D01*
X31438Y-34715D01*
X31393Y-34701D01*
X31352Y-34678D01*
X31321Y-34651D01*
X31318Y-34649D01*
X31096Y-34428D01*
X31019Y-34442D01*
X30939Y-34440D01*
X30909Y-34433D01*
X31243Y-34767D01*
X31266Y-34763D01*
X31345Y-34763D01*
X31423Y-34779D01*
X31496Y-34810D01*
X31511Y-34820D01*
X31511Y-34820D01*
G37*
X31511Y-34820D02*
X31512Y-34819D01*
X31512Y-34819D02*
X31536Y-34795D01*
X31536Y-34795D02*
X31512Y-34771D01*
X31512Y-34771D02*
X31492Y-34742D01*
X31492Y-34742D02*
X31483Y-34719D01*
X31483Y-34719D02*
X31438Y-34715D01*
X31438Y-34715D02*
X31393Y-34701D01*
X31393Y-34701D02*
X31352Y-34678D01*
X31352Y-34678D02*
X31321Y-34651D01*
X31321Y-34651D02*
X31318Y-34649D01*
X31318Y-34649D02*
X31096Y-34428D01*
X31096Y-34428D02*
X31019Y-34442D01*
X31019Y-34442D02*
X30939Y-34440D01*
X30939Y-34440D02*
X30909Y-34433D01*
X30909Y-34433D02*
X31243Y-34767D01*
X31243Y-34767D02*
X31266Y-34763D01*
X31266Y-34763D02*
X31345Y-34763D01*
X31345Y-34763D02*
X31423Y-34779D01*
X31423Y-34779D02*
X31496Y-34810D01*
X31496Y-34810D02*
X31511Y-34820D01*
G36*
X38142Y-34222D02*
X38134Y-34233D01*
X38200Y-34179D01*
X38666Y-33793D01*
X39059Y-33310D01*
X39042Y-33323D01*
X39009Y-33336D01*
X38975Y-33343D01*
X38940Y-33343D01*
X38905Y-33336D01*
X38883Y-33326D01*
X38849Y-33355D01*
X38809Y-33375D01*
X38807Y-33376D01*
X38762Y-33389D01*
X38726Y-33392D01*
X38718Y-33393D01*
X38716Y-33392D01*
X38716Y-33393D01*
X38708Y-33392D01*
X38671Y-33389D01*
X38653Y-33383D01*
X38624Y-33374D01*
X38583Y-33352D01*
X38570Y-33341D01*
X38548Y-33323D01*
X38305Y-33081D01*
X38286Y-33057D01*
X38277Y-33046D01*
X38255Y-33004D01*
X38254Y-33003D01*
X38254Y-33002D01*
X38241Y-32957D01*
X38240Y-32949D01*
X38200Y-32949D01*
X38018Y-32949D01*
X37971Y-32944D01*
X37926Y-32930D01*
X37885Y-32907D01*
X37854Y-32880D01*
X37851Y-32878D01*
X37833Y-32860D01*
X37834Y-32873D01*
X37837Y-32901D01*
X37837Y-33112D01*
X38028Y-33303D01*
X38045Y-33324D01*
X38058Y-33340D01*
X38080Y-33382D01*
X38080Y-33382D01*
X38081Y-33384D01*
X38094Y-33429D01*
X38097Y-33464D01*
X38098Y-33473D01*
X38098Y-33475D01*
X38098Y-33679D01*
X38146Y-33727D01*
X38175Y-33764D01*
X38198Y-33806D01*
X38200Y-33813D01*
X38207Y-33840D01*
X38210Y-33850D01*
X38214Y-33897D01*
X38210Y-33944D01*
X38200Y-33976D01*
X38196Y-33989D01*
X38174Y-34030D01*
X38160Y-34046D01*
X38146Y-34062D01*
X38156Y-34086D01*
X38163Y-34120D01*
X38163Y-34155D01*
X38156Y-34190D01*
X38142Y-34222D01*
X38142Y-34222D01*
G37*
X38142Y-34222D02*
X38134Y-34233D01*
X38134Y-34233D02*
X38200Y-34179D01*
X38200Y-34179D02*
X38666Y-33793D01*
X38666Y-33793D02*
X39059Y-33310D01*
X39059Y-33310D02*
X39042Y-33323D01*
X39042Y-33323D02*
X39009Y-33336D01*
X39009Y-33336D02*
X38975Y-33343D01*
X38975Y-33343D02*
X38940Y-33343D01*
X38940Y-33343D02*
X38905Y-33336D01*
X38905Y-33336D02*
X38883Y-33326D01*
X38883Y-33326D02*
X38849Y-33355D01*
X38849Y-33355D02*
X38809Y-33375D01*
X38809Y-33375D02*
X38807Y-33376D01*
X38807Y-33376D02*
X38762Y-33389D01*
X38762Y-33389D02*
X38726Y-33392D01*
X38726Y-33392D02*
X38718Y-33393D01*
X38718Y-33393D02*
X38716Y-33392D01*
X38716Y-33392D02*
X38716Y-33393D01*
X38716Y-33393D02*
X38708Y-33392D01*
X38708Y-33392D02*
X38671Y-33389D01*
X38671Y-33389D02*
X38653Y-33383D01*
X38653Y-33383D02*
X38624Y-33374D01*
X38624Y-33374D02*
X38583Y-33352D01*
X38583Y-33352D02*
X38570Y-33341D01*
X38570Y-33341D02*
X38548Y-33323D01*
X38548Y-33323D02*
X38305Y-33081D01*
X38305Y-33081D02*
X38286Y-33057D01*
X38286Y-33057D02*
X38277Y-33046D01*
X38277Y-33046D02*
X38255Y-33004D01*
X38255Y-33004D02*
X38254Y-33003D01*
X38254Y-33003D02*
X38254Y-33002D01*
X38254Y-33002D02*
X38241Y-32957D01*
X38241Y-32957D02*
X38240Y-32949D01*
X38240Y-32949D02*
X38200Y-32949D01*
X38200Y-32949D02*
X38018Y-32949D01*
X38018Y-32949D02*
X37971Y-32944D01*
X37971Y-32944D02*
X37926Y-32930D01*
X37926Y-32930D02*
X37885Y-32907D01*
X37885Y-32907D02*
X37854Y-32880D01*
X37854Y-32880D02*
X37851Y-32878D01*
X37851Y-32878D02*
X37833Y-32860D01*
X37833Y-32860D02*
X37834Y-32873D01*
X37834Y-32873D02*
X37837Y-32901D01*
X37837Y-32901D02*
X37837Y-33112D01*
X37837Y-33112D02*
X38028Y-33303D01*
X38028Y-33303D02*
X38045Y-33324D01*
X38045Y-33324D02*
X38058Y-33340D01*
X38058Y-33340D02*
X38080Y-33382D01*
X38080Y-33382D02*
X38080Y-33382D01*
X38080Y-33382D02*
X38081Y-33384D01*
X38081Y-33384D02*
X38094Y-33429D01*
X38094Y-33429D02*
X38097Y-33464D01*
X38097Y-33464D02*
X38098Y-33473D01*
X38098Y-33473D02*
X38098Y-33475D01*
X38098Y-33475D02*
X38098Y-33679D01*
X38098Y-33679D02*
X38146Y-33727D01*
X38146Y-33727D02*
X38175Y-33764D01*
X38175Y-33764D02*
X38198Y-33806D01*
X38198Y-33806D02*
X38200Y-33813D01*
X38200Y-33813D02*
X38207Y-33840D01*
X38207Y-33840D02*
X38210Y-33850D01*
X38210Y-33850D02*
X38214Y-33897D01*
X38214Y-33897D02*
X38210Y-33944D01*
X38210Y-33944D02*
X38200Y-33976D01*
X38200Y-33976D02*
X38196Y-33989D01*
X38196Y-33989D02*
X38174Y-34030D01*
X38174Y-34030D02*
X38160Y-34046D01*
X38160Y-34046D02*
X38146Y-34062D01*
X38146Y-34062D02*
X38156Y-34086D01*
X38156Y-34086D02*
X38163Y-34120D01*
X38163Y-34120D02*
X38163Y-34155D01*
X38163Y-34155D02*
X38156Y-34190D01*
X38156Y-34190D02*
X38142Y-34222D01*
G36*
X33492Y-34176D02*
X33505Y-34164D01*
X33534Y-34144D01*
X33567Y-34131D01*
X33601Y-34124D01*
X34040Y-34124D01*
X34040Y-33990D01*
X34150Y-33990D01*
X34286Y-33990D01*
X34287Y-33968D01*
X34303Y-33891D01*
X34305Y-33885D01*
X34150Y-33885D01*
X33488Y-33885D01*
X33487Y-33886D01*
X33414Y-33915D01*
X33336Y-33929D01*
X33256Y-33927D01*
X33238Y-33923D01*
X33492Y-34176D01*
X33492Y-34176D01*
G37*
X33492Y-34176D02*
X33505Y-34164D01*
X33505Y-34164D02*
X33534Y-34144D01*
X33534Y-34144D02*
X33567Y-34131D01*
X33567Y-34131D02*
X33601Y-34124D01*
X33601Y-34124D02*
X34040Y-34124D01*
X34040Y-34124D02*
X34040Y-33990D01*
X34040Y-33990D02*
X34150Y-33990D01*
X34150Y-33990D02*
X34286Y-33990D01*
X34286Y-33990D02*
X34287Y-33968D01*
X34287Y-33968D02*
X34303Y-33891D01*
X34303Y-33891D02*
X34305Y-33885D01*
X34305Y-33885D02*
X34150Y-33885D01*
X34150Y-33885D02*
X33488Y-33885D01*
X33488Y-33885D02*
X33487Y-33886D01*
X33487Y-33886D02*
X33414Y-33915D01*
X33414Y-33915D02*
X33336Y-33929D01*
X33336Y-33929D02*
X33256Y-33927D01*
X33256Y-33927D02*
X33238Y-33923D01*
X33238Y-33923D02*
X33492Y-34176D01*
G36*
X27594Y-34176D02*
X27577Y-34152D01*
X27564Y-34119D01*
X27557Y-34085D01*
X27557Y-34050D01*
X27564Y-34015D01*
X27573Y-33992D01*
X27545Y-33957D01*
X27523Y-33916D01*
X27511Y-33870D01*
X27507Y-33834D01*
X27507Y-33826D01*
X27507Y-33825D01*
X27507Y-33824D01*
X27512Y-33777D01*
X27526Y-33733D01*
X27549Y-33692D01*
X27558Y-33680D01*
X27577Y-33657D01*
X28022Y-33212D01*
X28024Y-33210D01*
X28024Y-33209D01*
X28345Y-32889D01*
X28303Y-32888D01*
X28290Y-32885D01*
X28180Y-32996D01*
X28143Y-33026D01*
X28103Y-33046D01*
X28101Y-33047D01*
X28056Y-33060D01*
X28020Y-33063D01*
X28012Y-33064D01*
X28010Y-33064D01*
X27363Y-33064D01*
X27172Y-33256D01*
X27135Y-33286D01*
X27093Y-33307D01*
X27048Y-33320D01*
X27002Y-33324D01*
X26955Y-33319D01*
X26910Y-33305D01*
X26869Y-33283D01*
X26850Y-33266D01*
X26848Y-33265D01*
X26837Y-33256D01*
X26814Y-33266D01*
X26780Y-33273D01*
X26745Y-33273D01*
X26710Y-33266D01*
X26701Y-33262D01*
X26850Y-33441D01*
X27176Y-33836D01*
X27594Y-34176D01*
X27594Y-34176D01*
G37*
X27594Y-34176D02*
X27577Y-34152D01*
X27577Y-34152D02*
X27564Y-34119D01*
X27564Y-34119D02*
X27557Y-34085D01*
X27557Y-34085D02*
X27557Y-34050D01*
X27557Y-34050D02*
X27564Y-34015D01*
X27564Y-34015D02*
X27573Y-33992D01*
X27573Y-33992D02*
X27545Y-33957D01*
X27545Y-33957D02*
X27523Y-33916D01*
X27523Y-33916D02*
X27511Y-33870D01*
X27511Y-33870D02*
X27507Y-33834D01*
X27507Y-33834D02*
X27507Y-33826D01*
X27507Y-33826D02*
X27507Y-33825D01*
X27507Y-33825D02*
X27507Y-33824D01*
X27507Y-33824D02*
X27512Y-33777D01*
X27512Y-33777D02*
X27526Y-33733D01*
X27526Y-33733D02*
X27549Y-33692D01*
X27549Y-33692D02*
X27558Y-33680D01*
X27558Y-33680D02*
X27577Y-33657D01*
X27577Y-33657D02*
X28022Y-33212D01*
X28022Y-33212D02*
X28024Y-33210D01*
X28024Y-33210D02*
X28024Y-33209D01*
X28024Y-33209D02*
X28345Y-32889D01*
X28345Y-32889D02*
X28303Y-32888D01*
X28303Y-32888D02*
X28290Y-32885D01*
X28290Y-32885D02*
X28180Y-32996D01*
X28180Y-32996D02*
X28143Y-33026D01*
X28143Y-33026D02*
X28103Y-33046D01*
X28103Y-33046D02*
X28101Y-33047D01*
X28101Y-33047D02*
X28056Y-33060D01*
X28056Y-33060D02*
X28020Y-33063D01*
X28020Y-33063D02*
X28012Y-33064D01*
X28012Y-33064D02*
X28010Y-33064D01*
X28010Y-33064D02*
X27363Y-33064D01*
X27363Y-33064D02*
X27172Y-33256D01*
X27172Y-33256D02*
X27135Y-33286D01*
X27135Y-33286D02*
X27093Y-33307D01*
X27093Y-33307D02*
X27048Y-33320D01*
X27048Y-33320D02*
X27002Y-33324D01*
X27002Y-33324D02*
X26955Y-33319D01*
X26955Y-33319D02*
X26910Y-33305D01*
X26910Y-33305D02*
X26869Y-33283D01*
X26869Y-33283D02*
X26850Y-33266D01*
X26850Y-33266D02*
X26848Y-33265D01*
X26848Y-33265D02*
X26837Y-33256D01*
X26837Y-33256D02*
X26814Y-33266D01*
X26814Y-33266D02*
X26780Y-33273D01*
X26780Y-33273D02*
X26745Y-33273D01*
X26745Y-33273D02*
X26710Y-33266D01*
X26710Y-33266D02*
X26701Y-33262D01*
X26701Y-33262D02*
X26850Y-33441D01*
X26850Y-33441D02*
X27176Y-33836D01*
X27176Y-33836D02*
X27594Y-34176D01*
G36*
X34564Y-33405D02*
X34536Y-33333D01*
X34519Y-33240D01*
X34521Y-33146D01*
X34540Y-33054D01*
X34577Y-32968D01*
X34588Y-32951D01*
X34464Y-33075D01*
X34480Y-33153D01*
X34478Y-33261D01*
X34458Y-33352D01*
X34433Y-33405D01*
X34564Y-33405D01*
X34564Y-33405D01*
G37*
X34564Y-33405D02*
X34536Y-33333D01*
X34536Y-33333D02*
X34519Y-33240D01*
X34519Y-33240D02*
X34521Y-33146D01*
X34521Y-33146D02*
X34540Y-33054D01*
X34540Y-33054D02*
X34577Y-32968D01*
X34577Y-32968D02*
X34588Y-32951D01*
X34588Y-32951D02*
X34464Y-33075D01*
X34464Y-33075D02*
X34480Y-33153D01*
X34480Y-33153D02*
X34478Y-33261D01*
X34478Y-33261D02*
X34458Y-33352D01*
X34458Y-33352D02*
X34433Y-33405D01*
X34433Y-33405D02*
X34564Y-33405D01*
G36*
X35480Y-33153D02*
X35478Y-33237D01*
X36264Y-32452D01*
X36264Y-32275D01*
X35464Y-33075D01*
X35480Y-33153D01*
X35480Y-33153D01*
G37*
X35480Y-33153D02*
X35478Y-33237D01*
X35478Y-33237D02*
X36264Y-32452D01*
X36264Y-32452D02*
X36264Y-32275D01*
X36264Y-32275D02*
X35464Y-33075D01*
X35464Y-33075D02*
X35480Y-33153D01*
G36*
X33520Y-33182D02*
X33521Y-33146D01*
X33540Y-33054D01*
X33577Y-32968D01*
X33631Y-32890D01*
X33698Y-32824D01*
X33777Y-32773D01*
X33864Y-32737D01*
X33956Y-32720D01*
X34050Y-32720D01*
X34090Y-32728D01*
X34090Y-32671D01*
X34037Y-32681D01*
X33943Y-32679D01*
X33851Y-32659D01*
X33765Y-32621D01*
X33697Y-32574D01*
X33696Y-32589D01*
X33682Y-32634D01*
X33659Y-32675D01*
X33632Y-32705D01*
X33630Y-32709D01*
X33243Y-33095D01*
X33248Y-33123D01*
X33267Y-33120D01*
X33346Y-33120D01*
X33424Y-33136D01*
X33497Y-33167D01*
X33520Y-33182D01*
X33520Y-33182D01*
G37*
X33520Y-33182D02*
X33521Y-33146D01*
X33521Y-33146D02*
X33540Y-33054D01*
X33540Y-33054D02*
X33577Y-32968D01*
X33577Y-32968D02*
X33631Y-32890D01*
X33631Y-32890D02*
X33698Y-32824D01*
X33698Y-32824D02*
X33777Y-32773D01*
X33777Y-32773D02*
X33864Y-32737D01*
X33864Y-32737D02*
X33956Y-32720D01*
X33956Y-32720D02*
X34050Y-32720D01*
X34050Y-32720D02*
X34090Y-32728D01*
X34090Y-32728D02*
X34090Y-32671D01*
X34090Y-32671D02*
X34037Y-32681D01*
X34037Y-32681D02*
X33943Y-32679D01*
X33943Y-32679D02*
X33851Y-32659D01*
X33851Y-32659D02*
X33765Y-32621D01*
X33765Y-32621D02*
X33697Y-32574D01*
X33697Y-32574D02*
X33696Y-32589D01*
X33696Y-32589D02*
X33682Y-32634D01*
X33682Y-32634D02*
X33659Y-32675D01*
X33659Y-32675D02*
X33632Y-32705D01*
X33632Y-32705D02*
X33630Y-32709D01*
X33630Y-32709D02*
X33243Y-33095D01*
X33243Y-33095D02*
X33248Y-33123D01*
X33248Y-33123D02*
X33267Y-33120D01*
X33267Y-33120D02*
X33346Y-33120D01*
X33346Y-33120D02*
X33424Y-33136D01*
X33424Y-33136D02*
X33497Y-33167D01*
X33497Y-33167D02*
X33520Y-33182D01*
G36*
X36500Y-32895D02*
X36293Y-33102D01*
X36322Y-33094D01*
X36339Y-33092D01*
X36366Y-33090D01*
X36496Y-33090D01*
X36500Y-33086D01*
X36708Y-32877D01*
X36613Y-32782D01*
X36500Y-32895D01*
X36500Y-32895D01*
G37*
X36500Y-32895D02*
X36293Y-33102D01*
X36293Y-33102D02*
X36322Y-33094D01*
X36322Y-33094D02*
X36339Y-33092D01*
X36339Y-33092D02*
X36366Y-33090D01*
X36366Y-33090D02*
X36496Y-33090D01*
X36496Y-33090D02*
X36500Y-33086D01*
X36500Y-33086D02*
X36708Y-32877D01*
X36708Y-32877D02*
X36613Y-32782D01*
X36613Y-32782D02*
X36500Y-32895D01*
G36*
X29229Y-33025D02*
X29229Y-32372D01*
X29057Y-32200D01*
X29029Y-32206D01*
X28949Y-32204D01*
X28925Y-32198D01*
X28945Y-32237D01*
X28946Y-32239D01*
X28959Y-32284D01*
X28962Y-32319D01*
X28963Y-32328D01*
X28963Y-32330D01*
X28963Y-32634D01*
X28962Y-32634D01*
X28963Y-32635D01*
X28961Y-32650D01*
X28958Y-32684D01*
X28944Y-32729D01*
X28929Y-32753D01*
X28930Y-32754D01*
X28962Y-32768D01*
X28991Y-32787D01*
X29229Y-33025D01*
X29229Y-33025D01*
G37*
X29229Y-33025D02*
X29229Y-32372D01*
X29229Y-32372D02*
X29057Y-32200D01*
X29057Y-32200D02*
X29029Y-32206D01*
X29029Y-32206D02*
X28949Y-32204D01*
X28949Y-32204D02*
X28925Y-32198D01*
X28925Y-32198D02*
X28945Y-32237D01*
X28945Y-32237D02*
X28946Y-32239D01*
X28946Y-32239D02*
X28959Y-32284D01*
X28959Y-32284D02*
X28962Y-32319D01*
X28962Y-32319D02*
X28963Y-32328D01*
X28963Y-32328D02*
X28963Y-32330D01*
X28963Y-32330D02*
X28963Y-32634D01*
X28963Y-32634D02*
X28962Y-32634D01*
X28962Y-32634D02*
X28963Y-32635D01*
X28963Y-32635D02*
X28961Y-32650D01*
X28961Y-32650D02*
X28958Y-32684D01*
X28958Y-32684D02*
X28944Y-32729D01*
X28944Y-32729D02*
X28929Y-32753D01*
X28929Y-32753D02*
X28930Y-32754D01*
X28930Y-32754D02*
X28962Y-32768D01*
X28962Y-32768D02*
X28991Y-32787D01*
X28991Y-32787D02*
X29229Y-33025D01*
G36*
X32401Y-32975D02*
X32450Y-32906D01*
X32513Y-32844D01*
X32588Y-32795D01*
X32671Y-32761D01*
X32758Y-32745D01*
X32847Y-32745D01*
X32903Y-32756D01*
X33050Y-32610D01*
X33221Y-32439D01*
X33221Y-32373D01*
X33198Y-32426D01*
X33146Y-32498D01*
X33082Y-32560D01*
X33050Y-32580D01*
X33006Y-32608D01*
X32923Y-32640D01*
X32835Y-32656D01*
X32746Y-32654D01*
X32659Y-32635D01*
X32577Y-32599D01*
X32504Y-32548D01*
X32442Y-32484D01*
X32394Y-32409D01*
X32361Y-32326D01*
X32344Y-32239D01*
X32346Y-32149D01*
X32364Y-32062D01*
X32399Y-31980D01*
X32450Y-31906D01*
X32472Y-31884D01*
X32300Y-31884D01*
X32255Y-31884D01*
X32064Y-32074D01*
X32080Y-32153D01*
X32078Y-32261D01*
X32058Y-32352D01*
X32019Y-32438D01*
X31965Y-32515D01*
X31950Y-32528D01*
X31960Y-32536D01*
X31976Y-32549D01*
X32300Y-32873D01*
X32401Y-32975D01*
X32401Y-32975D01*
G37*
X32401Y-32975D02*
X32450Y-32906D01*
X32450Y-32906D02*
X32513Y-32844D01*
X32513Y-32844D02*
X32588Y-32795D01*
X32588Y-32795D02*
X32671Y-32761D01*
X32671Y-32761D02*
X32758Y-32745D01*
X32758Y-32745D02*
X32847Y-32745D01*
X32847Y-32745D02*
X32903Y-32756D01*
X32903Y-32756D02*
X33050Y-32610D01*
X33050Y-32610D02*
X33221Y-32439D01*
X33221Y-32439D02*
X33221Y-32373D01*
X33221Y-32373D02*
X33198Y-32426D01*
X33198Y-32426D02*
X33146Y-32498D01*
X33146Y-32498D02*
X33082Y-32560D01*
X33082Y-32560D02*
X33050Y-32580D01*
X33050Y-32580D02*
X33006Y-32608D01*
X33006Y-32608D02*
X32923Y-32640D01*
X32923Y-32640D02*
X32835Y-32656D01*
X32835Y-32656D02*
X32746Y-32654D01*
X32746Y-32654D02*
X32659Y-32635D01*
X32659Y-32635D02*
X32577Y-32599D01*
X32577Y-32599D02*
X32504Y-32548D01*
X32504Y-32548D02*
X32442Y-32484D01*
X32442Y-32484D02*
X32394Y-32409D01*
X32394Y-32409D02*
X32361Y-32326D01*
X32361Y-32326D02*
X32344Y-32239D01*
X32344Y-32239D02*
X32346Y-32149D01*
X32346Y-32149D02*
X32364Y-32062D01*
X32364Y-32062D02*
X32399Y-31980D01*
X32399Y-31980D02*
X32450Y-31906D01*
X32450Y-31906D02*
X32472Y-31884D01*
X32472Y-31884D02*
X32300Y-31884D01*
X32300Y-31884D02*
X32255Y-31884D01*
X32255Y-31884D02*
X32064Y-32074D01*
X32064Y-32074D02*
X32080Y-32153D01*
X32080Y-32153D02*
X32078Y-32261D01*
X32078Y-32261D02*
X32058Y-32352D01*
X32058Y-32352D02*
X32019Y-32438D01*
X32019Y-32438D02*
X31965Y-32515D01*
X31965Y-32515D02*
X31950Y-32528D01*
X31950Y-32528D02*
X31960Y-32536D01*
X31960Y-32536D02*
X31976Y-32549D01*
X31976Y-32549D02*
X32300Y-32873D01*
X32300Y-32873D02*
X32401Y-32975D01*
G36*
X39549Y-32709D02*
X39666Y-32566D01*
X39900Y-32126D01*
X40410Y-31166D01*
X40870Y-29646D01*
X40884Y-29501D01*
X40869Y-29506D01*
X40867Y-29526D01*
X40865Y-29552D01*
X40851Y-29597D01*
X40828Y-29638D01*
X40804Y-29665D01*
X40799Y-29672D01*
X40798Y-29672D01*
X40798Y-29673D01*
X40790Y-29678D01*
X40763Y-29702D01*
X40757Y-29705D01*
X40720Y-29725D01*
X40675Y-29738D01*
X40638Y-29741D01*
X40630Y-29742D01*
X40628Y-29742D01*
X40202Y-29742D01*
X39900Y-30044D01*
X38555Y-31389D01*
X38569Y-31393D01*
X38590Y-31404D01*
X38608Y-31414D01*
X38644Y-31444D01*
X39091Y-31889D01*
X39123Y-31928D01*
X39145Y-31969D01*
X39157Y-32014D01*
X39161Y-32060D01*
X39156Y-32108D01*
X39143Y-32152D01*
X39120Y-32193D01*
X39093Y-32226D01*
X39102Y-32249D01*
X39109Y-32283D01*
X39109Y-32317D01*
X39142Y-32317D01*
X39177Y-32324D01*
X39209Y-32338D01*
X39238Y-32357D01*
X39514Y-32633D01*
X39534Y-32662D01*
X39547Y-32695D01*
X39549Y-32709D01*
X39549Y-32709D01*
G37*
X39549Y-32709D02*
X39666Y-32566D01*
X39666Y-32566D02*
X39900Y-32126D01*
X39900Y-32126D02*
X40410Y-31166D01*
X40410Y-31166D02*
X40870Y-29646D01*
X40870Y-29646D02*
X40884Y-29501D01*
X40884Y-29501D02*
X40869Y-29506D01*
X40869Y-29506D02*
X40867Y-29526D01*
X40867Y-29526D02*
X40865Y-29552D01*
X40865Y-29552D02*
X40851Y-29597D01*
X40851Y-29597D02*
X40828Y-29638D01*
X40828Y-29638D02*
X40804Y-29665D01*
X40804Y-29665D02*
X40799Y-29672D01*
X40799Y-29672D02*
X40798Y-29672D01*
X40798Y-29672D02*
X40798Y-29673D01*
X40798Y-29673D02*
X40790Y-29678D01*
X40790Y-29678D02*
X40763Y-29702D01*
X40763Y-29702D02*
X40757Y-29705D01*
X40757Y-29705D02*
X40720Y-29725D01*
X40720Y-29725D02*
X40675Y-29738D01*
X40675Y-29738D02*
X40638Y-29741D01*
X40638Y-29741D02*
X40630Y-29742D01*
X40630Y-29742D02*
X40628Y-29742D01*
X40628Y-29742D02*
X40202Y-29742D01*
X40202Y-29742D02*
X39900Y-30044D01*
X39900Y-30044D02*
X38555Y-31389D01*
X38555Y-31389D02*
X38569Y-31393D01*
X38569Y-31393D02*
X38590Y-31404D01*
X38590Y-31404D02*
X38608Y-31414D01*
X38608Y-31414D02*
X38644Y-31444D01*
X38644Y-31444D02*
X39091Y-31889D01*
X39091Y-31889D02*
X39123Y-31928D01*
X39123Y-31928D02*
X39145Y-31969D01*
X39145Y-31969D02*
X39157Y-32014D01*
X39157Y-32014D02*
X39161Y-32060D01*
X39161Y-32060D02*
X39156Y-32108D01*
X39156Y-32108D02*
X39143Y-32152D01*
X39143Y-32152D02*
X39120Y-32193D01*
X39120Y-32193D02*
X39093Y-32226D01*
X39093Y-32226D02*
X39102Y-32249D01*
X39102Y-32249D02*
X39109Y-32283D01*
X39109Y-32283D02*
X39109Y-32317D01*
X39109Y-32317D02*
X39142Y-32317D01*
X39142Y-32317D02*
X39177Y-32324D01*
X39177Y-32324D02*
X39209Y-32338D01*
X39209Y-32338D02*
X39238Y-32357D01*
X39238Y-32357D02*
X39514Y-32633D01*
X39514Y-32633D02*
X39534Y-32662D01*
X39534Y-32662D02*
X39547Y-32695D01*
X39547Y-32695D02*
X39549Y-32709D01*
G36*
X26173Y-32623D02*
X26182Y-32601D01*
X26153Y-32565D01*
X26131Y-32524D01*
X26119Y-32478D01*
X26115Y-32442D01*
X26115Y-32434D01*
X26115Y-32433D01*
X26115Y-32432D01*
X26120Y-32385D01*
X26134Y-32341D01*
X26157Y-32300D01*
X26166Y-32288D01*
X26185Y-32265D01*
X26299Y-32151D01*
X26299Y-29936D01*
X26260Y-29952D01*
X26182Y-29966D01*
X26102Y-29964D01*
X26025Y-29947D01*
X25952Y-29916D01*
X25887Y-29870D01*
X25832Y-29813D01*
X25789Y-29747D01*
X25760Y-29673D01*
X25745Y-29595D01*
X25745Y-29557D01*
X25735Y-29554D01*
X25694Y-29531D01*
X25665Y-29506D01*
X25660Y-29502D01*
X25659Y-29501D01*
X25659Y-29501D01*
X25652Y-29493D01*
X25630Y-29466D01*
X25627Y-29460D01*
X25607Y-29423D01*
X25594Y-29378D01*
X25590Y-29340D01*
X25590Y-29336D01*
X25568Y-29327D01*
X25539Y-29308D01*
X25514Y-29283D01*
X25491Y-29308D01*
X25462Y-29328D01*
X25429Y-29341D01*
X25395Y-29348D01*
X25350Y-29348D01*
X25005Y-29348D01*
X24970Y-29341D01*
X24938Y-29327D01*
X24909Y-29308D01*
X24899Y-29298D01*
X24942Y-29705D01*
X25350Y-31022D01*
X25409Y-31214D01*
X26164Y-32612D01*
X26173Y-32623D01*
X26173Y-32623D01*
G37*
X26173Y-32623D02*
X26182Y-32601D01*
X26182Y-32601D02*
X26153Y-32565D01*
X26153Y-32565D02*
X26131Y-32524D01*
X26131Y-32524D02*
X26119Y-32478D01*
X26119Y-32478D02*
X26115Y-32442D01*
X26115Y-32442D02*
X26115Y-32434D01*
X26115Y-32434D02*
X26115Y-32433D01*
X26115Y-32433D02*
X26115Y-32432D01*
X26115Y-32432D02*
X26120Y-32385D01*
X26120Y-32385D02*
X26134Y-32341D01*
X26134Y-32341D02*
X26157Y-32300D01*
X26157Y-32300D02*
X26166Y-32288D01*
X26166Y-32288D02*
X26185Y-32265D01*
X26185Y-32265D02*
X26299Y-32151D01*
X26299Y-32151D02*
X26299Y-29936D01*
X26299Y-29936D02*
X26260Y-29952D01*
X26260Y-29952D02*
X26182Y-29966D01*
X26182Y-29966D02*
X26102Y-29964D01*
X26102Y-29964D02*
X26025Y-29947D01*
X26025Y-29947D02*
X25952Y-29916D01*
X25952Y-29916D02*
X25887Y-29870D01*
X25887Y-29870D02*
X25832Y-29813D01*
X25832Y-29813D02*
X25789Y-29747D01*
X25789Y-29747D02*
X25760Y-29673D01*
X25760Y-29673D02*
X25745Y-29595D01*
X25745Y-29595D02*
X25745Y-29557D01*
X25745Y-29557D02*
X25735Y-29554D01*
X25735Y-29554D02*
X25694Y-29531D01*
X25694Y-29531D02*
X25665Y-29506D01*
X25665Y-29506D02*
X25660Y-29502D01*
X25660Y-29502D02*
X25659Y-29501D01*
X25659Y-29501D02*
X25659Y-29501D01*
X25659Y-29501D02*
X25652Y-29493D01*
X25652Y-29493D02*
X25630Y-29466D01*
X25630Y-29466D02*
X25627Y-29460D01*
X25627Y-29460D02*
X25607Y-29423D01*
X25607Y-29423D02*
X25594Y-29378D01*
X25594Y-29378D02*
X25590Y-29340D01*
X25590Y-29340D02*
X25590Y-29336D01*
X25590Y-29336D02*
X25568Y-29327D01*
X25568Y-29327D02*
X25539Y-29308D01*
X25539Y-29308D02*
X25514Y-29283D01*
X25514Y-29283D02*
X25491Y-29308D01*
X25491Y-29308D02*
X25462Y-29328D01*
X25462Y-29328D02*
X25429Y-29341D01*
X25429Y-29341D02*
X25395Y-29348D01*
X25395Y-29348D02*
X25350Y-29348D01*
X25350Y-29348D02*
X25005Y-29348D01*
X25005Y-29348D02*
X24970Y-29341D01*
X24970Y-29341D02*
X24938Y-29327D01*
X24938Y-29327D02*
X24909Y-29308D01*
X24909Y-29308D02*
X24899Y-29298D01*
X24899Y-29298D02*
X24942Y-29705D01*
X24942Y-29705D02*
X25350Y-31022D01*
X25350Y-31022D02*
X25409Y-31214D01*
X25409Y-31214D02*
X26164Y-32612D01*
X26164Y-32612D02*
X26173Y-32623D01*
G36*
X27912Y-32584D02*
X27951Y-32545D01*
X27946Y-32519D01*
X27948Y-32440D01*
X27964Y-32363D01*
X27995Y-32290D01*
X28040Y-32224D01*
X28096Y-32169D01*
X28163Y-32125D01*
X28236Y-32096D01*
X28314Y-32081D01*
X28384Y-32081D01*
X28384Y-31731D01*
X28329Y-31677D01*
X28299Y-31640D01*
X28279Y-31600D01*
X28278Y-31598D01*
X28265Y-31553D01*
X28261Y-31517D01*
X28261Y-31509D01*
X28261Y-31507D01*
X28261Y-31114D01*
X28261Y-31112D01*
X28266Y-31065D01*
X28280Y-31020D01*
X28303Y-30979D01*
X28318Y-30960D01*
X28331Y-30945D01*
X28450Y-30826D01*
X28547Y-30730D01*
X28547Y-30729D01*
X28548Y-30729D01*
X28584Y-30699D01*
X28626Y-30677D01*
X28626Y-30676D01*
X28628Y-30676D01*
X28673Y-30663D01*
X28689Y-30661D01*
X28717Y-30659D01*
X28921Y-30659D01*
X28889Y-30609D01*
X28856Y-30526D01*
X28839Y-30439D01*
X28841Y-30349D01*
X28859Y-30262D01*
X28894Y-30180D01*
X28945Y-30106D01*
X29008Y-30044D01*
X29083Y-29995D01*
X29166Y-29961D01*
X29253Y-29945D01*
X29342Y-29945D01*
X29430Y-29963D01*
X29512Y-29998D01*
X29586Y-30047D01*
X29649Y-30111D01*
X29677Y-30152D01*
X29677Y-29648D01*
X29641Y-29698D01*
X29577Y-29760D01*
X29501Y-29808D01*
X29418Y-29840D01*
X29330Y-29856D01*
X29241Y-29854D01*
X29154Y-29835D01*
X29072Y-29799D01*
X28999Y-29748D01*
X28937Y-29684D01*
X28889Y-29609D01*
X28856Y-29526D01*
X28850Y-29497D01*
X28450Y-29898D01*
X28268Y-30080D01*
X28231Y-30110D01*
X28191Y-30130D01*
X28189Y-30131D01*
X28144Y-30144D01*
X28108Y-30147D01*
X28100Y-30148D01*
X28098Y-30148D01*
X27785Y-30148D01*
X27768Y-30173D01*
X27710Y-30228D01*
X27643Y-30270D01*
X27570Y-30299D01*
X27492Y-30313D01*
X27412Y-30311D01*
X27335Y-30294D01*
X27262Y-30263D01*
X27237Y-30245D01*
X27237Y-31196D01*
X27412Y-31371D01*
X27435Y-31363D01*
X27469Y-31356D01*
X27504Y-31356D01*
X27539Y-31363D01*
X27571Y-31377D01*
X27600Y-31396D01*
X28043Y-31839D01*
X28063Y-31868D01*
X28076Y-31901D01*
X28083Y-31935D01*
X28083Y-31970D01*
X28076Y-32005D01*
X28062Y-32037D01*
X28043Y-32066D01*
X27767Y-32342D01*
X27738Y-32362D01*
X27705Y-32375D01*
X27671Y-32382D01*
X27637Y-32382D01*
X27637Y-32415D01*
X27630Y-32450D01*
X27616Y-32482D01*
X27597Y-32511D01*
X27524Y-32584D01*
X27912Y-32584D01*
X27912Y-32584D01*
G37*
X27912Y-32584D02*
X27951Y-32545D01*
X27951Y-32545D02*
X27946Y-32519D01*
X27946Y-32519D02*
X27948Y-32440D01*
X27948Y-32440D02*
X27964Y-32363D01*
X27964Y-32363D02*
X27995Y-32290D01*
X27995Y-32290D02*
X28040Y-32224D01*
X28040Y-32224D02*
X28096Y-32169D01*
X28096Y-32169D02*
X28163Y-32125D01*
X28163Y-32125D02*
X28236Y-32096D01*
X28236Y-32096D02*
X28314Y-32081D01*
X28314Y-32081D02*
X28384Y-32081D01*
X28384Y-32081D02*
X28384Y-31731D01*
X28384Y-31731D02*
X28329Y-31677D01*
X28329Y-31677D02*
X28299Y-31640D01*
X28299Y-31640D02*
X28279Y-31600D01*
X28279Y-31600D02*
X28278Y-31598D01*
X28278Y-31598D02*
X28265Y-31553D01*
X28265Y-31553D02*
X28261Y-31517D01*
X28261Y-31517D02*
X28261Y-31509D01*
X28261Y-31509D02*
X28261Y-31507D01*
X28261Y-31507D02*
X28261Y-31114D01*
X28261Y-31114D02*
X28261Y-31112D01*
X28261Y-31112D02*
X28266Y-31065D01*
X28266Y-31065D02*
X28280Y-31020D01*
X28280Y-31020D02*
X28303Y-30979D01*
X28303Y-30979D02*
X28318Y-30960D01*
X28318Y-30960D02*
X28331Y-30945D01*
X28331Y-30945D02*
X28450Y-30826D01*
X28450Y-30826D02*
X28547Y-30730D01*
X28547Y-30730D02*
X28547Y-30729D01*
X28547Y-30729D02*
X28548Y-30729D01*
X28548Y-30729D02*
X28584Y-30699D01*
X28584Y-30699D02*
X28626Y-30677D01*
X28626Y-30677D02*
X28626Y-30676D01*
X28626Y-30676D02*
X28628Y-30676D01*
X28628Y-30676D02*
X28673Y-30663D01*
X28673Y-30663D02*
X28689Y-30661D01*
X28689Y-30661D02*
X28717Y-30659D01*
X28717Y-30659D02*
X28921Y-30659D01*
X28921Y-30659D02*
X28889Y-30609D01*
X28889Y-30609D02*
X28856Y-30526D01*
X28856Y-30526D02*
X28839Y-30439D01*
X28839Y-30439D02*
X28841Y-30349D01*
X28841Y-30349D02*
X28859Y-30262D01*
X28859Y-30262D02*
X28894Y-30180D01*
X28894Y-30180D02*
X28945Y-30106D01*
X28945Y-30106D02*
X29008Y-30044D01*
X29008Y-30044D02*
X29083Y-29995D01*
X29083Y-29995D02*
X29166Y-29961D01*
X29166Y-29961D02*
X29253Y-29945D01*
X29253Y-29945D02*
X29342Y-29945D01*
X29342Y-29945D02*
X29430Y-29963D01*
X29430Y-29963D02*
X29512Y-29998D01*
X29512Y-29998D02*
X29586Y-30047D01*
X29586Y-30047D02*
X29649Y-30111D01*
X29649Y-30111D02*
X29677Y-30152D01*
X29677Y-30152D02*
X29677Y-29648D01*
X29677Y-29648D02*
X29641Y-29698D01*
X29641Y-29698D02*
X29577Y-29760D01*
X29577Y-29760D02*
X29501Y-29808D01*
X29501Y-29808D02*
X29418Y-29840D01*
X29418Y-29840D02*
X29330Y-29856D01*
X29330Y-29856D02*
X29241Y-29854D01*
X29241Y-29854D02*
X29154Y-29835D01*
X29154Y-29835D02*
X29072Y-29799D01*
X29072Y-29799D02*
X28999Y-29748D01*
X28999Y-29748D02*
X28937Y-29684D01*
X28937Y-29684D02*
X28889Y-29609D01*
X28889Y-29609D02*
X28856Y-29526D01*
X28856Y-29526D02*
X28850Y-29497D01*
X28850Y-29497D02*
X28450Y-29898D01*
X28450Y-29898D02*
X28268Y-30080D01*
X28268Y-30080D02*
X28231Y-30110D01*
X28231Y-30110D02*
X28191Y-30130D01*
X28191Y-30130D02*
X28189Y-30131D01*
X28189Y-30131D02*
X28144Y-30144D01*
X28144Y-30144D02*
X28108Y-30147D01*
X28108Y-30147D02*
X28100Y-30148D01*
X28100Y-30148D02*
X28098Y-30148D01*
X28098Y-30148D02*
X27785Y-30148D01*
X27785Y-30148D02*
X27768Y-30173D01*
X27768Y-30173D02*
X27710Y-30228D01*
X27710Y-30228D02*
X27643Y-30270D01*
X27643Y-30270D02*
X27570Y-30299D01*
X27570Y-30299D02*
X27492Y-30313D01*
X27492Y-30313D02*
X27412Y-30311D01*
X27412Y-30311D02*
X27335Y-30294D01*
X27335Y-30294D02*
X27262Y-30263D01*
X27262Y-30263D02*
X27237Y-30245D01*
X27237Y-30245D02*
X27237Y-31196D01*
X27237Y-31196D02*
X27412Y-31371D01*
X27412Y-31371D02*
X27435Y-31363D01*
X27435Y-31363D02*
X27469Y-31356D01*
X27469Y-31356D02*
X27504Y-31356D01*
X27504Y-31356D02*
X27539Y-31363D01*
X27539Y-31363D02*
X27571Y-31377D01*
X27571Y-31377D02*
X27600Y-31396D01*
X27600Y-31396D02*
X28043Y-31839D01*
X28043Y-31839D02*
X28063Y-31868D01*
X28063Y-31868D02*
X28076Y-31901D01*
X28076Y-31901D02*
X28083Y-31935D01*
X28083Y-31935D02*
X28083Y-31970D01*
X28083Y-31970D02*
X28076Y-32005D01*
X28076Y-32005D02*
X28062Y-32037D01*
X28062Y-32037D02*
X28043Y-32066D01*
X28043Y-32066D02*
X27767Y-32342D01*
X27767Y-32342D02*
X27738Y-32362D01*
X27738Y-32362D02*
X27705Y-32375D01*
X27705Y-32375D02*
X27671Y-32382D01*
X27671Y-32382D02*
X27637Y-32382D01*
X27637Y-32382D02*
X27637Y-32415D01*
X27637Y-32415D02*
X27630Y-32450D01*
X27630Y-32450D02*
X27616Y-32482D01*
X27616Y-32482D02*
X27597Y-32511D01*
X27597Y-32511D02*
X27524Y-32584D01*
X27524Y-32584D02*
X27912Y-32584D01*
G36*
X34538Y-32340D02*
X34536Y-32333D01*
X34519Y-32240D01*
X34521Y-32146D01*
X34540Y-32054D01*
X34577Y-31968D01*
X34631Y-31890D01*
X34637Y-31884D01*
X34363Y-31884D01*
X34374Y-31895D01*
X34426Y-31974D01*
X34462Y-32061D01*
X34480Y-32153D01*
X34478Y-32261D01*
X34460Y-32340D01*
X34538Y-32340D01*
X34538Y-32340D01*
G37*
X34538Y-32340D02*
X34536Y-32333D01*
X34536Y-32333D02*
X34519Y-32240D01*
X34519Y-32240D02*
X34521Y-32146D01*
X34521Y-32146D02*
X34540Y-32054D01*
X34540Y-32054D02*
X34577Y-31968D01*
X34577Y-31968D02*
X34631Y-31890D01*
X34631Y-31890D02*
X34637Y-31884D01*
X34637Y-31884D02*
X34363Y-31884D01*
X34363Y-31884D02*
X34374Y-31895D01*
X34374Y-31895D02*
X34426Y-31974D01*
X34426Y-31974D02*
X34462Y-32061D01*
X34462Y-32061D02*
X34480Y-32153D01*
X34480Y-32153D02*
X34478Y-32261D01*
X34478Y-32261D02*
X34460Y-32340D01*
X34460Y-32340D02*
X34538Y-32340D01*
G36*
X33223Y-32031D02*
X33226Y-32004D01*
X33240Y-31959D01*
X33263Y-31918D01*
X33278Y-31899D01*
X33291Y-31884D01*
X33355Y-31819D01*
X33323Y-31846D01*
X33282Y-31866D01*
X33281Y-31867D01*
X33236Y-31880D01*
X33200Y-31883D01*
X33192Y-31884D01*
X33190Y-31884D01*
X33127Y-31884D01*
X33154Y-31911D01*
X33204Y-31985D01*
X33223Y-32031D01*
X33223Y-32031D01*
G37*
X33223Y-32031D02*
X33226Y-32004D01*
X33226Y-32004D02*
X33240Y-31959D01*
X33240Y-31959D02*
X33263Y-31918D01*
X33263Y-31918D02*
X33278Y-31899D01*
X33278Y-31899D02*
X33291Y-31884D01*
X33291Y-31884D02*
X33355Y-31819D01*
X33355Y-31819D02*
X33323Y-31846D01*
X33323Y-31846D02*
X33282Y-31866D01*
X33282Y-31866D02*
X33281Y-31867D01*
X33281Y-31867D02*
X33236Y-31880D01*
X33236Y-31880D02*
X33200Y-31883D01*
X33200Y-31883D02*
X33192Y-31884D01*
X33192Y-31884D02*
X33190Y-31884D01*
X33190Y-31884D02*
X33127Y-31884D01*
X33127Y-31884D02*
X33154Y-31911D01*
X33154Y-31911D02*
X33204Y-31985D01*
X33204Y-31985D02*
X33223Y-32031D01*
G36*
X30912Y-31833D02*
X30912Y-31565D01*
X30897Y-31580D01*
X30817Y-31631D01*
X30730Y-31665D01*
X30637Y-31681D01*
X30543Y-31679D01*
X30451Y-31659D01*
X30396Y-31634D01*
X30396Y-31765D01*
X30464Y-31737D01*
X30556Y-31720D01*
X30650Y-31720D01*
X30743Y-31739D01*
X30829Y-31776D01*
X30907Y-31828D01*
X30912Y-31833D01*
X30912Y-31833D01*
G37*
X30912Y-31833D02*
X30912Y-31565D01*
X30912Y-31565D02*
X30897Y-31580D01*
X30897Y-31580D02*
X30817Y-31631D01*
X30817Y-31631D02*
X30730Y-31665D01*
X30730Y-31665D02*
X30637Y-31681D01*
X30637Y-31681D02*
X30543Y-31679D01*
X30543Y-31679D02*
X30451Y-31659D01*
X30451Y-31659D02*
X30396Y-31634D01*
X30396Y-31634D02*
X30396Y-31765D01*
X30396Y-31765D02*
X30464Y-31737D01*
X30464Y-31737D02*
X30556Y-31720D01*
X30556Y-31720D02*
X30650Y-31720D01*
X30650Y-31720D02*
X30743Y-31739D01*
X30743Y-31739D02*
X30829Y-31776D01*
X30829Y-31776D02*
X30907Y-31828D01*
X30907Y-31828D02*
X30912Y-31833D01*
G36*
X33404Y-31771D02*
X33396Y-31778D01*
X33648Y-31527D01*
X33622Y-31500D01*
X33571Y-31420D01*
X33548Y-31363D01*
X33475Y-31437D01*
X33475Y-31601D01*
X33470Y-31651D01*
X33456Y-31696D01*
X33433Y-31737D01*
X33409Y-31764D01*
X33404Y-31771D01*
X33404Y-31771D01*
G37*
X33404Y-31771D02*
X33396Y-31778D01*
X33396Y-31778D02*
X33648Y-31527D01*
X33648Y-31527D02*
X33622Y-31500D01*
X33622Y-31500D02*
X33571Y-31420D01*
X33571Y-31420D02*
X33548Y-31363D01*
X33548Y-31363D02*
X33475Y-31437D01*
X33475Y-31437D02*
X33475Y-31601D01*
X33475Y-31601D02*
X33470Y-31651D01*
X33470Y-31651D02*
X33456Y-31696D01*
X33456Y-31696D02*
X33433Y-31737D01*
X33433Y-31737D02*
X33409Y-31764D01*
X33409Y-31764D02*
X33404Y-31771D01*
G36*
X31392Y-31679D02*
X31392Y-31766D01*
X31464Y-31737D01*
X31556Y-31720D01*
X31650Y-31720D01*
X31724Y-31735D01*
X31781Y-31679D01*
X31392Y-31679D01*
X31392Y-31679D01*
G37*
X31392Y-31679D02*
X31392Y-31766D01*
X31392Y-31766D02*
X31464Y-31737D01*
X31464Y-31737D02*
X31556Y-31720D01*
X31556Y-31720D02*
X31650Y-31720D01*
X31650Y-31720D02*
X31724Y-31735D01*
X31724Y-31735D02*
X31781Y-31679D01*
X31781Y-31679D02*
X31392Y-31679D01*
G36*
X32346Y-31404D02*
X32346Y-31236D01*
X32300Y-31282D01*
X32211Y-31372D01*
X32174Y-31402D01*
X32169Y-31404D01*
X32300Y-31404D01*
X32346Y-31404D01*
X32346Y-31404D01*
G37*
X32346Y-31404D02*
X32346Y-31236D01*
X32346Y-31236D02*
X32300Y-31282D01*
X32300Y-31282D02*
X32211Y-31372D01*
X32211Y-31372D02*
X32174Y-31402D01*
X32174Y-31402D02*
X32169Y-31404D01*
X32169Y-31404D02*
X32300Y-31404D01*
X32300Y-31404D02*
X32346Y-31404D01*
G36*
X37330Y-31202D02*
X38200Y-30332D01*
X39066Y-29465D01*
X39054Y-29453D01*
X39034Y-29424D01*
X39021Y-29391D01*
X39014Y-29357D01*
X39014Y-29299D01*
X38200Y-28485D01*
X37918Y-28203D01*
X37888Y-28166D01*
X37868Y-28126D01*
X37867Y-28124D01*
X37854Y-28079D01*
X37850Y-28043D01*
X37850Y-28035D01*
X37850Y-28033D01*
X37850Y-24374D01*
X37617Y-24141D01*
X37597Y-24112D01*
X37584Y-24079D01*
X37577Y-24045D01*
X37577Y-24027D01*
X36456Y-24027D01*
X36409Y-24022D01*
X36364Y-24008D01*
X36323Y-23985D01*
X36292Y-23958D01*
X36289Y-23956D01*
X36288Y-23955D01*
X34255Y-21923D01*
X34243Y-21936D01*
X34214Y-21956D01*
X34181Y-21969D01*
X34147Y-21976D01*
X33521Y-21976D01*
X33486Y-21969D01*
X33454Y-21955D01*
X33425Y-21936D01*
X33411Y-21922D01*
X32950Y-22384D01*
X32638Y-22696D01*
X32950Y-22696D01*
X33696Y-22696D01*
X33709Y-22636D01*
X33740Y-22563D01*
X33785Y-22497D01*
X33841Y-22442D01*
X33908Y-22398D01*
X33981Y-22369D01*
X34059Y-22354D01*
X34138Y-22354D01*
X34216Y-22370D01*
X34289Y-22401D01*
X34354Y-22445D01*
X34410Y-22501D01*
X34454Y-22567D01*
X34485Y-22640D01*
X34500Y-22718D01*
X34499Y-22808D01*
X34481Y-22886D01*
X34449Y-22958D01*
X34404Y-23023D01*
X34346Y-23078D01*
X34279Y-23120D01*
X34206Y-23149D01*
X34128Y-23163D01*
X34048Y-23161D01*
X34016Y-23154D01*
X34009Y-23158D01*
X34007Y-23159D01*
X33962Y-23172D01*
X33926Y-23175D01*
X33918Y-23176D01*
X33916Y-23176D01*
X32950Y-23176D01*
X30819Y-23176D01*
X30698Y-23297D01*
X32950Y-23297D01*
X35195Y-23297D01*
X35195Y-23297D01*
X35196Y-23297D01*
X35207Y-23298D01*
X35245Y-23302D01*
X35290Y-23316D01*
X35331Y-23339D01*
X35349Y-23354D01*
X35365Y-23367D01*
X36889Y-24891D01*
X36906Y-24912D01*
X36919Y-24928D01*
X36941Y-24970D01*
X36941Y-24970D01*
X36942Y-24972D01*
X36955Y-25017D01*
X36958Y-25052D01*
X36959Y-25061D01*
X36959Y-25063D01*
X36959Y-25785D01*
X36954Y-25835D01*
X36940Y-25880D01*
X36917Y-25921D01*
X36890Y-25951D01*
X36888Y-25955D01*
X36717Y-26127D01*
X36683Y-26154D01*
X36704Y-26185D01*
X36738Y-26267D01*
X36755Y-26355D01*
X36754Y-26457D01*
X36743Y-26503D01*
X36922Y-26683D01*
X36922Y-26683D01*
X36923Y-26684D01*
X36953Y-26720D01*
X36955Y-26725D01*
X36976Y-26763D01*
X36989Y-26809D01*
X36990Y-26825D01*
X36993Y-26853D01*
X36993Y-29478D01*
X37030Y-29478D01*
X37108Y-29494D01*
X37181Y-29525D01*
X37246Y-29569D01*
X37302Y-29625D01*
X37346Y-29691D01*
X37377Y-29764D01*
X37392Y-29842D01*
X37391Y-29932D01*
X37373Y-30010D01*
X37341Y-30082D01*
X37296Y-30147D01*
X37238Y-30202D01*
X37228Y-30208D01*
X37228Y-31202D01*
X37330Y-31202D01*
X37330Y-31202D01*
G37*
X37330Y-31202D02*
X38200Y-30332D01*
X38200Y-30332D02*
X39066Y-29465D01*
X39066Y-29465D02*
X39054Y-29453D01*
X39054Y-29453D02*
X39034Y-29424D01*
X39034Y-29424D02*
X39021Y-29391D01*
X39021Y-29391D02*
X39014Y-29357D01*
X39014Y-29357D02*
X39014Y-29299D01*
X39014Y-29299D02*
X38200Y-28485D01*
X38200Y-28485D02*
X37918Y-28203D01*
X37918Y-28203D02*
X37888Y-28166D01*
X37888Y-28166D02*
X37868Y-28126D01*
X37868Y-28126D02*
X37867Y-28124D01*
X37867Y-28124D02*
X37854Y-28079D01*
X37854Y-28079D02*
X37850Y-28043D01*
X37850Y-28043D02*
X37850Y-28035D01*
X37850Y-28035D02*
X37850Y-28033D01*
X37850Y-28033D02*
X37850Y-24374D01*
X37850Y-24374D02*
X37617Y-24141D01*
X37617Y-24141D02*
X37597Y-24112D01*
X37597Y-24112D02*
X37584Y-24079D01*
X37584Y-24079D02*
X37577Y-24045D01*
X37577Y-24045D02*
X37577Y-24027D01*
X37577Y-24027D02*
X36456Y-24027D01*
X36456Y-24027D02*
X36409Y-24022D01*
X36409Y-24022D02*
X36364Y-24008D01*
X36364Y-24008D02*
X36323Y-23985D01*
X36323Y-23985D02*
X36292Y-23958D01*
X36292Y-23958D02*
X36289Y-23956D01*
X36289Y-23956D02*
X36288Y-23955D01*
X36288Y-23955D02*
X34255Y-21923D01*
X34255Y-21923D02*
X34243Y-21936D01*
X34243Y-21936D02*
X34214Y-21956D01*
X34214Y-21956D02*
X34181Y-21969D01*
X34181Y-21969D02*
X34147Y-21976D01*
X34147Y-21976D02*
X33521Y-21976D01*
X33521Y-21976D02*
X33486Y-21969D01*
X33486Y-21969D02*
X33454Y-21955D01*
X33454Y-21955D02*
X33425Y-21936D01*
X33425Y-21936D02*
X33411Y-21922D01*
X33411Y-21922D02*
X32950Y-22384D01*
X32950Y-22384D02*
X32638Y-22696D01*
X32638Y-22696D02*
X32950Y-22696D01*
X32950Y-22696D02*
X33696Y-22696D01*
X33696Y-22696D02*
X33709Y-22636D01*
X33709Y-22636D02*
X33740Y-22563D01*
X33740Y-22563D02*
X33785Y-22497D01*
X33785Y-22497D02*
X33841Y-22442D01*
X33841Y-22442D02*
X33908Y-22398D01*
X33908Y-22398D02*
X33981Y-22369D01*
X33981Y-22369D02*
X34059Y-22354D01*
X34059Y-22354D02*
X34138Y-22354D01*
X34138Y-22354D02*
X34216Y-22370D01*
X34216Y-22370D02*
X34289Y-22401D01*
X34289Y-22401D02*
X34354Y-22445D01*
X34354Y-22445D02*
X34410Y-22501D01*
X34410Y-22501D02*
X34454Y-22567D01*
X34454Y-22567D02*
X34485Y-22640D01*
X34485Y-22640D02*
X34500Y-22718D01*
X34500Y-22718D02*
X34499Y-22808D01*
X34499Y-22808D02*
X34481Y-22886D01*
X34481Y-22886D02*
X34449Y-22958D01*
X34449Y-22958D02*
X34404Y-23023D01*
X34404Y-23023D02*
X34346Y-23078D01*
X34346Y-23078D02*
X34279Y-23120D01*
X34279Y-23120D02*
X34206Y-23149D01*
X34206Y-23149D02*
X34128Y-23163D01*
X34128Y-23163D02*
X34048Y-23161D01*
X34048Y-23161D02*
X34016Y-23154D01*
X34016Y-23154D02*
X34009Y-23158D01*
X34009Y-23158D02*
X34007Y-23159D01*
X34007Y-23159D02*
X33962Y-23172D01*
X33962Y-23172D02*
X33926Y-23175D01*
X33926Y-23175D02*
X33918Y-23176D01*
X33918Y-23176D02*
X33916Y-23176D01*
X33916Y-23176D02*
X32950Y-23176D01*
X32950Y-23176D02*
X30819Y-23176D01*
X30819Y-23176D02*
X30698Y-23297D01*
X30698Y-23297D02*
X32950Y-23297D01*
X32950Y-23297D02*
X35195Y-23297D01*
X35195Y-23297D02*
X35195Y-23297D01*
X35195Y-23297D02*
X35196Y-23297D01*
X35196Y-23297D02*
X35207Y-23298D01*
X35207Y-23298D02*
X35245Y-23302D01*
X35245Y-23302D02*
X35290Y-23316D01*
X35290Y-23316D02*
X35331Y-23339D01*
X35331Y-23339D02*
X35349Y-23354D01*
X35349Y-23354D02*
X35365Y-23367D01*
X35365Y-23367D02*
X36889Y-24891D01*
X36889Y-24891D02*
X36906Y-24912D01*
X36906Y-24912D02*
X36919Y-24928D01*
X36919Y-24928D02*
X36941Y-24970D01*
X36941Y-24970D02*
X36941Y-24970D01*
X36941Y-24970D02*
X36942Y-24972D01*
X36942Y-24972D02*
X36955Y-25017D01*
X36955Y-25017D02*
X36958Y-25052D01*
X36958Y-25052D02*
X36959Y-25061D01*
X36959Y-25061D02*
X36959Y-25063D01*
X36959Y-25063D02*
X36959Y-25785D01*
X36959Y-25785D02*
X36954Y-25835D01*
X36954Y-25835D02*
X36940Y-25880D01*
X36940Y-25880D02*
X36917Y-25921D01*
X36917Y-25921D02*
X36890Y-25951D01*
X36890Y-25951D02*
X36888Y-25955D01*
X36888Y-25955D02*
X36717Y-26127D01*
X36717Y-26127D02*
X36683Y-26154D01*
X36683Y-26154D02*
X36704Y-26185D01*
X36704Y-26185D02*
X36738Y-26267D01*
X36738Y-26267D02*
X36755Y-26355D01*
X36755Y-26355D02*
X36754Y-26457D01*
X36754Y-26457D02*
X36743Y-26503D01*
X36743Y-26503D02*
X36922Y-26683D01*
X36922Y-26683D02*
X36922Y-26683D01*
X36922Y-26683D02*
X36923Y-26684D01*
X36923Y-26684D02*
X36953Y-26720D01*
X36953Y-26720D02*
X36955Y-26725D01*
X36955Y-26725D02*
X36976Y-26763D01*
X36976Y-26763D02*
X36989Y-26809D01*
X36989Y-26809D02*
X36990Y-26825D01*
X36990Y-26825D02*
X36993Y-26853D01*
X36993Y-26853D02*
X36993Y-29478D01*
X36993Y-29478D02*
X37030Y-29478D01*
X37030Y-29478D02*
X37108Y-29494D01*
X37108Y-29494D02*
X37181Y-29525D01*
X37181Y-29525D02*
X37246Y-29569D01*
X37246Y-29569D02*
X37302Y-29625D01*
X37302Y-29625D02*
X37346Y-29691D01*
X37346Y-29691D02*
X37377Y-29764D01*
X37377Y-29764D02*
X37392Y-29842D01*
X37392Y-29842D02*
X37391Y-29932D01*
X37391Y-29932D02*
X37373Y-30010D01*
X37373Y-30010D02*
X37341Y-30082D01*
X37341Y-30082D02*
X37296Y-30147D01*
X37296Y-30147D02*
X37238Y-30202D01*
X37238Y-30202D02*
X37228Y-30208D01*
X37228Y-30208D02*
X37228Y-31202D01*
X37228Y-31202D02*
X37330Y-31202D01*
G36*
X35897Y-30613D02*
X35897Y-31038D01*
X35903Y-31031D01*
X36117Y-30816D01*
X36077Y-30799D01*
X36004Y-30748D01*
X35942Y-30684D01*
X35897Y-30613D01*
X35897Y-30613D01*
G37*
X35897Y-30613D02*
X35897Y-31038D01*
X35897Y-31038D02*
X35903Y-31031D01*
X35903Y-31031D02*
X36117Y-30816D01*
X36117Y-30816D02*
X36077Y-30799D01*
X36077Y-30799D02*
X36004Y-30748D01*
X36004Y-30748D02*
X35942Y-30684D01*
X35942Y-30684D02*
X35897Y-30613D01*
G36*
X33254Y-30907D02*
X33254Y-30978D01*
X33728Y-30503D01*
X33688Y-30464D01*
X33663Y-30486D01*
X33657Y-30489D01*
X33620Y-30509D01*
X33575Y-30522D01*
X33538Y-30525D01*
X33530Y-30526D01*
X33528Y-30526D01*
X33056Y-30526D01*
X33050Y-30532D01*
X32836Y-30746D01*
X33050Y-30746D01*
X33093Y-30746D01*
X33128Y-30753D01*
X33160Y-30767D01*
X33189Y-30786D01*
X33214Y-30811D01*
X33234Y-30840D01*
X33247Y-30873D01*
X33254Y-30907D01*
X33254Y-30907D01*
G37*
X33254Y-30907D02*
X33254Y-30978D01*
X33254Y-30978D02*
X33728Y-30503D01*
X33728Y-30503D02*
X33688Y-30464D01*
X33688Y-30464D02*
X33663Y-30486D01*
X33663Y-30486D02*
X33657Y-30489D01*
X33657Y-30489D02*
X33620Y-30509D01*
X33620Y-30509D02*
X33575Y-30522D01*
X33575Y-30522D02*
X33538Y-30525D01*
X33538Y-30525D02*
X33530Y-30526D01*
X33530Y-30526D02*
X33528Y-30526D01*
X33528Y-30526D02*
X33056Y-30526D01*
X33056Y-30526D02*
X33050Y-30532D01*
X33050Y-30532D02*
X32836Y-30746D01*
X32836Y-30746D02*
X33050Y-30746D01*
X33050Y-30746D02*
X33093Y-30746D01*
X33093Y-30746D02*
X33128Y-30753D01*
X33128Y-30753D02*
X33160Y-30767D01*
X33160Y-30767D02*
X33189Y-30786D01*
X33189Y-30786D02*
X33214Y-30811D01*
X33214Y-30811D02*
X33234Y-30840D01*
X33234Y-30840D02*
X33247Y-30873D01*
X33247Y-30873D02*
X33254Y-30907D01*
G36*
X34635Y-30732D02*
X34648Y-30728D01*
X34682Y-30721D01*
X35150Y-30721D01*
X35214Y-30721D01*
X35214Y-30662D01*
X35150Y-30598D01*
X34300Y-29748D01*
X34117Y-29565D01*
X34117Y-30141D01*
X34110Y-30176D01*
X34100Y-30196D01*
X34238Y-30334D01*
X34240Y-30336D01*
X34240Y-30336D01*
X34300Y-30396D01*
X34635Y-30732D01*
X34635Y-30732D01*
G37*
X34635Y-30732D02*
X34648Y-30728D01*
X34648Y-30728D02*
X34682Y-30721D01*
X34682Y-30721D02*
X35150Y-30721D01*
X35150Y-30721D02*
X35214Y-30721D01*
X35214Y-30721D02*
X35214Y-30662D01*
X35214Y-30662D02*
X35150Y-30598D01*
X35150Y-30598D02*
X34300Y-29748D01*
X34300Y-29748D02*
X34117Y-29565D01*
X34117Y-29565D02*
X34117Y-30141D01*
X34117Y-30141D02*
X34110Y-30176D01*
X34110Y-30176D02*
X34100Y-30196D01*
X34100Y-30196D02*
X34238Y-30334D01*
X34238Y-30334D02*
X34240Y-30336D01*
X34240Y-30336D02*
X34240Y-30336D01*
X34240Y-30336D02*
X34300Y-30396D01*
X34300Y-30396D02*
X34635Y-30732D01*
G36*
X35417Y-30186D02*
X35417Y-29815D01*
X35150Y-29548D01*
X35005Y-29404D01*
X34975Y-29367D01*
X34955Y-29327D01*
X34954Y-29325D01*
X34941Y-29280D01*
X34937Y-29244D01*
X34937Y-29236D01*
X34937Y-29234D01*
X34937Y-29217D01*
X34447Y-29217D01*
X35150Y-29919D01*
X35417Y-30186D01*
X35417Y-30186D01*
G37*
X35417Y-30186D02*
X35417Y-29815D01*
X35417Y-29815D02*
X35150Y-29548D01*
X35150Y-29548D02*
X35005Y-29404D01*
X35005Y-29404D02*
X34975Y-29367D01*
X34975Y-29367D02*
X34955Y-29327D01*
X34955Y-29327D02*
X34954Y-29325D01*
X34954Y-29325D02*
X34941Y-29280D01*
X34941Y-29280D02*
X34937Y-29244D01*
X34937Y-29244D02*
X34937Y-29236D01*
X34937Y-29236D02*
X34937Y-29234D01*
X34937Y-29234D02*
X34937Y-29217D01*
X34937Y-29217D02*
X34447Y-29217D01*
X34447Y-29217D02*
X35150Y-29919D01*
X35150Y-29919D02*
X35417Y-30186D01*
G36*
X35897Y-29928D02*
X35897Y-30184D01*
X35899Y-30180D01*
X35950Y-30106D01*
X36012Y-30044D01*
X35897Y-29928D01*
X35897Y-29928D01*
G37*
X35897Y-29928D02*
X35897Y-30184D01*
X35897Y-30184D02*
X35899Y-30180D01*
X35899Y-30180D02*
X35950Y-30106D01*
X35950Y-30106D02*
X36012Y-30044D01*
X36012Y-30044D02*
X35897Y-29928D01*
G36*
X31373Y-30046D02*
X31373Y-29553D01*
X31241Y-29686D01*
X31204Y-29716D01*
X31163Y-29736D01*
X31162Y-29737D01*
X31117Y-29750D01*
X31081Y-29753D01*
X31073Y-29754D01*
X31071Y-29754D01*
X31037Y-29754D01*
X30847Y-29944D01*
X31046Y-29944D01*
X31046Y-29944D01*
X31047Y-29944D01*
X31058Y-29945D01*
X31096Y-29949D01*
X31141Y-29963D01*
X31182Y-29986D01*
X31200Y-30001D01*
X31216Y-30014D01*
X31248Y-30046D01*
X31373Y-30046D01*
X31373Y-30046D01*
G37*
X31373Y-30046D02*
X31373Y-29553D01*
X31373Y-29553D02*
X31241Y-29686D01*
X31241Y-29686D02*
X31204Y-29716D01*
X31204Y-29716D02*
X31163Y-29736D01*
X31163Y-29736D02*
X31162Y-29737D01*
X31162Y-29737D02*
X31117Y-29750D01*
X31117Y-29750D02*
X31081Y-29753D01*
X31081Y-29753D02*
X31073Y-29754D01*
X31073Y-29754D02*
X31071Y-29754D01*
X31071Y-29754D02*
X31037Y-29754D01*
X31037Y-29754D02*
X30847Y-29944D01*
X30847Y-29944D02*
X31046Y-29944D01*
X31046Y-29944D02*
X31046Y-29944D01*
X31046Y-29944D02*
X31047Y-29944D01*
X31047Y-29944D02*
X31058Y-29945D01*
X31058Y-29945D02*
X31096Y-29949D01*
X31096Y-29949D02*
X31141Y-29963D01*
X31141Y-29963D02*
X31182Y-29986D01*
X31182Y-29986D02*
X31200Y-30001D01*
X31200Y-30001D02*
X31216Y-30014D01*
X31216Y-30014D02*
X31248Y-30046D01*
X31248Y-30046D02*
X31373Y-30046D01*
G36*
X30157Y-29423D02*
X30157Y-29955D01*
X30768Y-29345D01*
X30768Y-29344D01*
X30769Y-29344D01*
X30805Y-29314D01*
X30847Y-29292D01*
X30847Y-29291D01*
X30849Y-29291D01*
X30894Y-29278D01*
X30910Y-29276D01*
X30938Y-29274D01*
X30973Y-29274D01*
X31037Y-29210D01*
X30443Y-29210D01*
X30408Y-29203D01*
X30386Y-29193D01*
X30157Y-29423D01*
X30157Y-29423D01*
G37*
X30157Y-29423D02*
X30157Y-29955D01*
X30157Y-29955D02*
X30768Y-29345D01*
X30768Y-29345D02*
X30768Y-29344D01*
X30768Y-29344D02*
X30769Y-29344D01*
X30769Y-29344D02*
X30805Y-29314D01*
X30805Y-29314D02*
X30847Y-29292D01*
X30847Y-29292D02*
X30847Y-29291D01*
X30847Y-29291D02*
X30849Y-29291D01*
X30849Y-29291D02*
X30894Y-29278D01*
X30894Y-29278D02*
X30910Y-29276D01*
X30910Y-29276D02*
X30938Y-29274D01*
X30938Y-29274D02*
X30973Y-29274D01*
X30973Y-29274D02*
X31037Y-29210D01*
X31037Y-29210D02*
X30443Y-29210D01*
X30443Y-29210D02*
X30408Y-29203D01*
X30408Y-29203D02*
X30386Y-29193D01*
X30386Y-29193D02*
X30157Y-29423D01*
G36*
X27999Y-29668D02*
X28450Y-29218D01*
X28575Y-29092D01*
X28538Y-29084D01*
X28465Y-29053D01*
X28450Y-29042D01*
X28400Y-29007D01*
X28345Y-28950D01*
X28302Y-28884D01*
X28273Y-28810D01*
X28258Y-28732D01*
X28260Y-28653D01*
X28263Y-28637D01*
X27896Y-28271D01*
X27866Y-28234D01*
X27846Y-28194D01*
X27845Y-28192D01*
X27832Y-28147D01*
X27828Y-28111D01*
X27828Y-28103D01*
X27828Y-28101D01*
X27828Y-25420D01*
X26763Y-26484D01*
X26776Y-26497D01*
X26796Y-26526D01*
X26809Y-26559D01*
X26816Y-26593D01*
X26816Y-27219D01*
X26809Y-27254D01*
X26795Y-27286D01*
X26776Y-27315D01*
X26763Y-27328D01*
X27403Y-27968D01*
X27420Y-27989D01*
X27433Y-28005D01*
X27455Y-28047D01*
X27455Y-28047D01*
X27456Y-28049D01*
X27469Y-28094D01*
X27472Y-28129D01*
X27473Y-28138D01*
X27473Y-28140D01*
X27473Y-29504D01*
X27502Y-29504D01*
X27580Y-29520D01*
X27653Y-29551D01*
X27718Y-29595D01*
X27774Y-29651D01*
X27785Y-29668D01*
X27999Y-29668D01*
X27999Y-29668D01*
G37*
X27999Y-29668D02*
X28450Y-29218D01*
X28450Y-29218D02*
X28575Y-29092D01*
X28575Y-29092D02*
X28538Y-29084D01*
X28538Y-29084D02*
X28465Y-29053D01*
X28465Y-29053D02*
X28450Y-29042D01*
X28450Y-29042D02*
X28400Y-29007D01*
X28400Y-29007D02*
X28345Y-28950D01*
X28345Y-28950D02*
X28302Y-28884D01*
X28302Y-28884D02*
X28273Y-28810D01*
X28273Y-28810D02*
X28258Y-28732D01*
X28258Y-28732D02*
X28260Y-28653D01*
X28260Y-28653D02*
X28263Y-28637D01*
X28263Y-28637D02*
X27896Y-28271D01*
X27896Y-28271D02*
X27866Y-28234D01*
X27866Y-28234D02*
X27846Y-28194D01*
X27846Y-28194D02*
X27845Y-28192D01*
X27845Y-28192D02*
X27832Y-28147D01*
X27832Y-28147D02*
X27828Y-28111D01*
X27828Y-28111D02*
X27828Y-28103D01*
X27828Y-28103D02*
X27828Y-28101D01*
X27828Y-28101D02*
X27828Y-25420D01*
X27828Y-25420D02*
X26763Y-26484D01*
X26763Y-26484D02*
X26776Y-26497D01*
X26776Y-26497D02*
X26796Y-26526D01*
X26796Y-26526D02*
X26809Y-26559D01*
X26809Y-26559D02*
X26816Y-26593D01*
X26816Y-26593D02*
X26816Y-27219D01*
X26816Y-27219D02*
X26809Y-27254D01*
X26809Y-27254D02*
X26795Y-27286D01*
X26795Y-27286D02*
X26776Y-27315D01*
X26776Y-27315D02*
X26763Y-27328D01*
X26763Y-27328D02*
X27403Y-27968D01*
X27403Y-27968D02*
X27420Y-27989D01*
X27420Y-27989D02*
X27433Y-28005D01*
X27433Y-28005D02*
X27455Y-28047D01*
X27455Y-28047D02*
X27455Y-28047D01*
X27455Y-28047D02*
X27456Y-28049D01*
X27456Y-28049D02*
X27469Y-28094D01*
X27469Y-28094D02*
X27472Y-28129D01*
X27472Y-28129D02*
X27473Y-28138D01*
X27473Y-28138D02*
X27473Y-28140D01*
X27473Y-28140D02*
X27473Y-29504D01*
X27473Y-29504D02*
X27502Y-29504D01*
X27502Y-29504D02*
X27580Y-29520D01*
X27580Y-29520D02*
X27653Y-29551D01*
X27653Y-29551D02*
X27718Y-29595D01*
X27718Y-29595D02*
X27774Y-29651D01*
X27774Y-29651D02*
X27785Y-29668D01*
X27785Y-29668D02*
X27999Y-29668D01*
G36*
X29708Y-29207D02*
X29719Y-29188D01*
X29734Y-29169D01*
X29747Y-29154D01*
X30000Y-28901D01*
X30033Y-28868D01*
X30000Y-28868D01*
X29940Y-28868D01*
X29668Y-29139D01*
X29699Y-29185D01*
X29708Y-29207D01*
X29708Y-29207D01*
G37*
X29708Y-29207D02*
X29719Y-29188D01*
X29719Y-29188D02*
X29734Y-29169D01*
X29734Y-29169D02*
X29747Y-29154D01*
X29747Y-29154D02*
X30000Y-28901D01*
X30000Y-28901D02*
X30033Y-28868D01*
X30033Y-28868D02*
X30000Y-28868D01*
X30000Y-28868D02*
X29940Y-28868D01*
X29940Y-28868D02*
X29668Y-29139D01*
X29668Y-29139D02*
X29699Y-29185D01*
X29699Y-29185D02*
X29708Y-29207D01*
G36*
X36513Y-28996D02*
X36513Y-28803D01*
X36506Y-28808D01*
X36423Y-28840D01*
X36335Y-28856D01*
X36246Y-28854D01*
X36159Y-28835D01*
X36077Y-28799D01*
X36004Y-28748D01*
X35942Y-28684D01*
X35894Y-28609D01*
X35861Y-28526D01*
X35844Y-28439D01*
X35846Y-28349D01*
X35864Y-28262D01*
X35899Y-28180D01*
X35950Y-28106D01*
X36013Y-28044D01*
X36088Y-27995D01*
X36171Y-27961D01*
X36258Y-27945D01*
X36347Y-27945D01*
X36435Y-27963D01*
X36513Y-27996D01*
X36513Y-27803D01*
X36506Y-27808D01*
X36423Y-27840D01*
X36335Y-27856D01*
X36246Y-27854D01*
X36159Y-27835D01*
X36077Y-27799D01*
X36004Y-27748D01*
X35942Y-27684D01*
X35894Y-27609D01*
X35861Y-27526D01*
X35844Y-27439D01*
X35846Y-27349D01*
X35856Y-27296D01*
X35798Y-27238D01*
X35798Y-28558D01*
X36196Y-28956D01*
X36258Y-28945D01*
X36347Y-28945D01*
X36435Y-28963D01*
X36513Y-28996D01*
X36513Y-28996D01*
G37*
X36513Y-28996D02*
X36513Y-28803D01*
X36513Y-28803D02*
X36506Y-28808D01*
X36506Y-28808D02*
X36423Y-28840D01*
X36423Y-28840D02*
X36335Y-28856D01*
X36335Y-28856D02*
X36246Y-28854D01*
X36246Y-28854D02*
X36159Y-28835D01*
X36159Y-28835D02*
X36077Y-28799D01*
X36077Y-28799D02*
X36004Y-28748D01*
X36004Y-28748D02*
X35942Y-28684D01*
X35942Y-28684D02*
X35894Y-28609D01*
X35894Y-28609D02*
X35861Y-28526D01*
X35861Y-28526D02*
X35844Y-28439D01*
X35844Y-28439D02*
X35846Y-28349D01*
X35846Y-28349D02*
X35864Y-28262D01*
X35864Y-28262D02*
X35899Y-28180D01*
X35899Y-28180D02*
X35950Y-28106D01*
X35950Y-28106D02*
X36013Y-28044D01*
X36013Y-28044D02*
X36088Y-27995D01*
X36088Y-27995D02*
X36171Y-27961D01*
X36171Y-27961D02*
X36258Y-27945D01*
X36258Y-27945D02*
X36347Y-27945D01*
X36347Y-27945D02*
X36435Y-27963D01*
X36435Y-27963D02*
X36513Y-27996D01*
X36513Y-27996D02*
X36513Y-27803D01*
X36513Y-27803D02*
X36506Y-27808D01*
X36506Y-27808D02*
X36423Y-27840D01*
X36423Y-27840D02*
X36335Y-27856D01*
X36335Y-27856D02*
X36246Y-27854D01*
X36246Y-27854D02*
X36159Y-27835D01*
X36159Y-27835D02*
X36077Y-27799D01*
X36077Y-27799D02*
X36004Y-27748D01*
X36004Y-27748D02*
X35942Y-27684D01*
X35942Y-27684D02*
X35894Y-27609D01*
X35894Y-27609D02*
X35861Y-27526D01*
X35861Y-27526D02*
X35844Y-27439D01*
X35844Y-27439D02*
X35846Y-27349D01*
X35846Y-27349D02*
X35856Y-27296D01*
X35856Y-27296D02*
X35798Y-27238D01*
X35798Y-27238D02*
X35798Y-28558D01*
X35798Y-28558D02*
X36196Y-28956D01*
X36196Y-28956D02*
X36258Y-28945D01*
X36258Y-28945D02*
X36347Y-28945D01*
X36347Y-28945D02*
X36435Y-28963D01*
X36435Y-28963D02*
X36513Y-28996D01*
G36*
X33050Y-28994D02*
X33077Y-28973D01*
X33082Y-28969D01*
X33120Y-28950D01*
X33165Y-28937D01*
X33202Y-28933D01*
X33210Y-28933D01*
X33212Y-28933D01*
X33278Y-28933D01*
X33283Y-28927D01*
X33278Y-28902D01*
X33280Y-28823D01*
X33296Y-28746D01*
X33327Y-28673D01*
X33372Y-28607D01*
X33413Y-28566D01*
X33376Y-28527D01*
X33333Y-28461D01*
X33304Y-28387D01*
X33289Y-28309D01*
X33290Y-28259D01*
X33050Y-28259D01*
X32410Y-28259D01*
X32416Y-28268D01*
X32447Y-28341D01*
X32458Y-28401D01*
X33050Y-28993D01*
X33050Y-28994D01*
X33050Y-28994D01*
G37*
X33050Y-28994D02*
X33077Y-28973D01*
X33077Y-28973D02*
X33082Y-28969D01*
X33082Y-28969D02*
X33120Y-28950D01*
X33120Y-28950D02*
X33165Y-28937D01*
X33165Y-28937D02*
X33202Y-28933D01*
X33202Y-28933D02*
X33210Y-28933D01*
X33210Y-28933D02*
X33212Y-28933D01*
X33212Y-28933D02*
X33278Y-28933D01*
X33278Y-28933D02*
X33283Y-28927D01*
X33283Y-28927D02*
X33278Y-28902D01*
X33278Y-28902D02*
X33280Y-28823D01*
X33280Y-28823D02*
X33296Y-28746D01*
X33296Y-28746D02*
X33327Y-28673D01*
X33327Y-28673D02*
X33372Y-28607D01*
X33372Y-28607D02*
X33413Y-28566D01*
X33413Y-28566D02*
X33376Y-28527D01*
X33376Y-28527D02*
X33333Y-28461D01*
X33333Y-28461D02*
X33304Y-28387D01*
X33304Y-28387D02*
X33289Y-28309D01*
X33289Y-28309D02*
X33290Y-28259D01*
X33290Y-28259D02*
X33050Y-28259D01*
X33050Y-28259D02*
X32410Y-28259D01*
X32410Y-28259D02*
X32416Y-28268D01*
X32416Y-28268D02*
X32447Y-28341D01*
X32447Y-28341D02*
X32458Y-28401D01*
X32458Y-28401D02*
X33050Y-28993D01*
X33050Y-28993D02*
X33050Y-28994D01*
G36*
X24844Y-28772D02*
X24844Y-28561D01*
X24851Y-28526D01*
X24865Y-28494D01*
X24884Y-28465D01*
X24909Y-28440D01*
X24938Y-28420D01*
X24960Y-28411D01*
X24962Y-28391D01*
X24965Y-28366D01*
X24979Y-28321D01*
X25002Y-28280D01*
X25026Y-28251D01*
X25031Y-28246D01*
X25031Y-28245D01*
X25032Y-28245D01*
X25039Y-28238D01*
X25067Y-28216D01*
X25072Y-28212D01*
X25110Y-28193D01*
X25155Y-28180D01*
X25191Y-28176D01*
X25200Y-28176D01*
X25202Y-28176D01*
X25350Y-28176D01*
X25601Y-28176D01*
X25601Y-28176D01*
X25602Y-28176D01*
X25613Y-28177D01*
X25651Y-28181D01*
X25696Y-28195D01*
X25715Y-28206D01*
X25740Y-28193D01*
X25785Y-28180D01*
X25821Y-28176D01*
X25830Y-28176D01*
X25832Y-28176D01*
X26014Y-28176D01*
X25443Y-27605D01*
X25350Y-27605D01*
X25198Y-27605D01*
X25197Y-27605D01*
X25150Y-27600D01*
X25105Y-27586D01*
X25064Y-27563D01*
X25036Y-27539D01*
X25030Y-27534D01*
X25029Y-27533D01*
X25029Y-27533D01*
X25022Y-27525D01*
X25000Y-27498D01*
X24997Y-27492D01*
X24977Y-27455D01*
X24964Y-27410D01*
X24960Y-27372D01*
X24960Y-27368D01*
X24938Y-27359D01*
X24909Y-27340D01*
X24884Y-27315D01*
X24864Y-27286D01*
X24854Y-27263D01*
X24775Y-28081D01*
X24775Y-28117D01*
X24844Y-28772D01*
X24844Y-28772D01*
G37*
X24844Y-28772D02*
X24844Y-28561D01*
X24844Y-28561D02*
X24851Y-28526D01*
X24851Y-28526D02*
X24865Y-28494D01*
X24865Y-28494D02*
X24884Y-28465D01*
X24884Y-28465D02*
X24909Y-28440D01*
X24909Y-28440D02*
X24938Y-28420D01*
X24938Y-28420D02*
X24960Y-28411D01*
X24960Y-28411D02*
X24962Y-28391D01*
X24962Y-28391D02*
X24965Y-28366D01*
X24965Y-28366D02*
X24979Y-28321D01*
X24979Y-28321D02*
X25002Y-28280D01*
X25002Y-28280D02*
X25026Y-28251D01*
X25026Y-28251D02*
X25031Y-28246D01*
X25031Y-28246D02*
X25031Y-28245D01*
X25031Y-28245D02*
X25032Y-28245D01*
X25032Y-28245D02*
X25039Y-28238D01*
X25039Y-28238D02*
X25067Y-28216D01*
X25067Y-28216D02*
X25072Y-28212D01*
X25072Y-28212D02*
X25110Y-28193D01*
X25110Y-28193D02*
X25155Y-28180D01*
X25155Y-28180D02*
X25191Y-28176D01*
X25191Y-28176D02*
X25200Y-28176D01*
X25200Y-28176D02*
X25202Y-28176D01*
X25202Y-28176D02*
X25350Y-28176D01*
X25350Y-28176D02*
X25601Y-28176D01*
X25601Y-28176D02*
X25601Y-28176D01*
X25601Y-28176D02*
X25602Y-28176D01*
X25602Y-28176D02*
X25613Y-28177D01*
X25613Y-28177D02*
X25651Y-28181D01*
X25651Y-28181D02*
X25696Y-28195D01*
X25696Y-28195D02*
X25715Y-28206D01*
X25715Y-28206D02*
X25740Y-28193D01*
X25740Y-28193D02*
X25785Y-28180D01*
X25785Y-28180D02*
X25821Y-28176D01*
X25821Y-28176D02*
X25830Y-28176D01*
X25830Y-28176D02*
X25832Y-28176D01*
X25832Y-28176D02*
X26014Y-28176D01*
X26014Y-28176D02*
X25443Y-27605D01*
X25443Y-27605D02*
X25350Y-27605D01*
X25350Y-27605D02*
X25198Y-27605D01*
X25198Y-27605D02*
X25197Y-27605D01*
X25197Y-27605D02*
X25150Y-27600D01*
X25150Y-27600D02*
X25105Y-27586D01*
X25105Y-27586D02*
X25064Y-27563D01*
X25064Y-27563D02*
X25036Y-27539D01*
X25036Y-27539D02*
X25030Y-27534D01*
X25030Y-27534D02*
X25029Y-27533D01*
X25029Y-27533D02*
X25029Y-27533D01*
X25029Y-27533D02*
X25022Y-27525D01*
X25022Y-27525D02*
X25000Y-27498D01*
X25000Y-27498D02*
X24997Y-27492D01*
X24997Y-27492D02*
X24977Y-27455D01*
X24977Y-27455D02*
X24964Y-27410D01*
X24964Y-27410D02*
X24960Y-27372D01*
X24960Y-27372D02*
X24960Y-27368D01*
X24960Y-27368D02*
X24938Y-27359D01*
X24938Y-27359D02*
X24909Y-27340D01*
X24909Y-27340D02*
X24884Y-27315D01*
X24884Y-27315D02*
X24864Y-27286D01*
X24864Y-27286D02*
X24854Y-27263D01*
X24854Y-27263D02*
X24775Y-28081D01*
X24775Y-28081D02*
X24775Y-28117D01*
X24775Y-28117D02*
X24844Y-28772D01*
G36*
X40966Y-28664D02*
X41025Y-28062D01*
X41025Y-28021D01*
X40965Y-27454D01*
X40965Y-27456D01*
X40946Y-27485D01*
X40921Y-27510D01*
X40892Y-27530D01*
X40869Y-27538D01*
X40867Y-27558D01*
X40865Y-27584D01*
X40851Y-27629D01*
X40828Y-27670D01*
X40804Y-27697D01*
X40799Y-27704D01*
X40798Y-27704D01*
X40798Y-27705D01*
X40790Y-27710D01*
X40763Y-27734D01*
X40757Y-27736D01*
X40720Y-27757D01*
X40675Y-27770D01*
X40637Y-27773D01*
X40630Y-27774D01*
X40628Y-27774D01*
X40226Y-27774D01*
X40179Y-27769D01*
X40134Y-27755D01*
X40093Y-27732D01*
X40065Y-27708D01*
X40059Y-27703D01*
X39905Y-27550D01*
X39805Y-27550D01*
X39780Y-27545D01*
X39589Y-27545D01*
X39588Y-27545D01*
X39568Y-27581D01*
X39544Y-27608D01*
X39539Y-27615D01*
X39418Y-27736D01*
X39422Y-27757D01*
X39421Y-27847D01*
X39403Y-27925D01*
X39394Y-27945D01*
X40365Y-27945D01*
X40365Y-27945D01*
X40366Y-27945D01*
X40377Y-27946D01*
X40415Y-27950D01*
X40460Y-27964D01*
X40501Y-27987D01*
X40519Y-28002D01*
X40535Y-28015D01*
X40609Y-28090D01*
X40760Y-28090D01*
X40760Y-28240D01*
X40799Y-28280D01*
X40799Y-28280D01*
X40800Y-28281D01*
X40830Y-28317D01*
X40833Y-28322D01*
X40853Y-28360D01*
X40866Y-28406D01*
X40867Y-28422D01*
X40870Y-28450D01*
X40870Y-28581D01*
X40892Y-28591D01*
X40921Y-28610D01*
X40946Y-28635D01*
X40966Y-28664D01*
X40966Y-28664D01*
G37*
X40966Y-28664D02*
X41025Y-28062D01*
X41025Y-28062D02*
X41025Y-28021D01*
X41025Y-28021D02*
X40965Y-27454D01*
X40965Y-27454D02*
X40965Y-27456D01*
X40965Y-27456D02*
X40946Y-27485D01*
X40946Y-27485D02*
X40921Y-27510D01*
X40921Y-27510D02*
X40892Y-27530D01*
X40892Y-27530D02*
X40869Y-27538D01*
X40869Y-27538D02*
X40867Y-27558D01*
X40867Y-27558D02*
X40865Y-27584D01*
X40865Y-27584D02*
X40851Y-27629D01*
X40851Y-27629D02*
X40828Y-27670D01*
X40828Y-27670D02*
X40804Y-27697D01*
X40804Y-27697D02*
X40799Y-27704D01*
X40799Y-27704D02*
X40798Y-27704D01*
X40798Y-27704D02*
X40798Y-27705D01*
X40798Y-27705D02*
X40790Y-27710D01*
X40790Y-27710D02*
X40763Y-27734D01*
X40763Y-27734D02*
X40757Y-27736D01*
X40757Y-27736D02*
X40720Y-27757D01*
X40720Y-27757D02*
X40675Y-27770D01*
X40675Y-27770D02*
X40637Y-27773D01*
X40637Y-27773D02*
X40630Y-27774D01*
X40630Y-27774D02*
X40628Y-27774D01*
X40628Y-27774D02*
X40226Y-27774D01*
X40226Y-27774D02*
X40179Y-27769D01*
X40179Y-27769D02*
X40134Y-27755D01*
X40134Y-27755D02*
X40093Y-27732D01*
X40093Y-27732D02*
X40065Y-27708D01*
X40065Y-27708D02*
X40059Y-27703D01*
X40059Y-27703D02*
X39905Y-27550D01*
X39905Y-27550D02*
X39805Y-27550D01*
X39805Y-27550D02*
X39780Y-27545D01*
X39780Y-27545D02*
X39589Y-27545D01*
X39589Y-27545D02*
X39588Y-27545D01*
X39588Y-27545D02*
X39568Y-27581D01*
X39568Y-27581D02*
X39544Y-27608D01*
X39544Y-27608D02*
X39539Y-27615D01*
X39539Y-27615D02*
X39418Y-27736D01*
X39418Y-27736D02*
X39422Y-27757D01*
X39422Y-27757D02*
X39421Y-27847D01*
X39421Y-27847D02*
X39403Y-27925D01*
X39403Y-27925D02*
X39394Y-27945D01*
X39394Y-27945D02*
X40365Y-27945D01*
X40365Y-27945D02*
X40365Y-27945D01*
X40365Y-27945D02*
X40366Y-27945D01*
X40366Y-27945D02*
X40377Y-27946D01*
X40377Y-27946D02*
X40415Y-27950D01*
X40415Y-27950D02*
X40460Y-27964D01*
X40460Y-27964D02*
X40501Y-27987D01*
X40501Y-27987D02*
X40519Y-28002D01*
X40519Y-28002D02*
X40535Y-28015D01*
X40535Y-28015D02*
X40609Y-28090D01*
X40609Y-28090D02*
X40760Y-28090D01*
X40760Y-28090D02*
X40760Y-28240D01*
X40760Y-28240D02*
X40799Y-28280D01*
X40799Y-28280D02*
X40799Y-28280D01*
X40799Y-28280D02*
X40800Y-28281D01*
X40800Y-28281D02*
X40830Y-28317D01*
X40830Y-28317D02*
X40833Y-28322D01*
X40833Y-28322D02*
X40853Y-28360D01*
X40853Y-28360D02*
X40866Y-28406D01*
X40866Y-28406D02*
X40867Y-28422D01*
X40867Y-28422D02*
X40870Y-28450D01*
X40870Y-28450D02*
X40870Y-28581D01*
X40870Y-28581D02*
X40892Y-28591D01*
X40892Y-28591D02*
X40921Y-28610D01*
X40921Y-28610D02*
X40946Y-28635D01*
X40946Y-28635D02*
X40966Y-28664D01*
G36*
X29750Y-28355D02*
X29749Y-28405D01*
X29751Y-28405D01*
X29796Y-28392D01*
X29831Y-28388D01*
X29840Y-28388D01*
X29842Y-28388D01*
X30000Y-28388D01*
X30070Y-28388D01*
X30062Y-28358D01*
X30058Y-28320D01*
X30058Y-28313D01*
X30058Y-28311D01*
X30058Y-27973D01*
X30047Y-27985D01*
X30045Y-27989D01*
X30000Y-28034D01*
X29738Y-28295D01*
X29750Y-28355D01*
X29750Y-28355D01*
G37*
X29750Y-28355D02*
X29749Y-28405D01*
X29749Y-28405D02*
X29751Y-28405D01*
X29751Y-28405D02*
X29796Y-28392D01*
X29796Y-28392D02*
X29831Y-28388D01*
X29831Y-28388D02*
X29840Y-28388D01*
X29840Y-28388D02*
X29842Y-28388D01*
X29842Y-28388D02*
X30000Y-28388D01*
X30000Y-28388D02*
X30070Y-28388D01*
X30070Y-28388D02*
X30062Y-28358D01*
X30062Y-28358D02*
X30058Y-28320D01*
X30058Y-28320D02*
X30058Y-28313D01*
X30058Y-28313D02*
X30058Y-28311D01*
X30058Y-28311D02*
X30058Y-27973D01*
X30058Y-27973D02*
X30047Y-27985D01*
X30047Y-27985D02*
X30045Y-27989D01*
X30045Y-27989D02*
X30000Y-28034D01*
X30000Y-28034D02*
X29738Y-28295D01*
X29738Y-28295D02*
X29750Y-28355D01*
G36*
X28843Y-28335D02*
X28859Y-28262D01*
X28894Y-28180D01*
X28945Y-28106D01*
X29008Y-28044D01*
X29083Y-27995D01*
X29166Y-27961D01*
X29253Y-27945D01*
X29342Y-27945D01*
X29398Y-27956D01*
X29636Y-27719D01*
X29636Y-27702D01*
X29577Y-27760D01*
X29501Y-27808D01*
X29418Y-27840D01*
X29330Y-27856D01*
X29241Y-27854D01*
X29154Y-27835D01*
X29072Y-27799D01*
X29035Y-27773D01*
X29033Y-27778D01*
X28988Y-27843D01*
X28930Y-27898D01*
X28863Y-27940D01*
X28790Y-27969D01*
X28712Y-27983D01*
X28632Y-27981D01*
X28555Y-27964D01*
X28482Y-27933D01*
X28450Y-27910D01*
X28417Y-27887D01*
X28362Y-27830D01*
X28319Y-27764D01*
X28308Y-27735D01*
X28308Y-28003D01*
X28450Y-28145D01*
X28603Y-28298D01*
X28626Y-28294D01*
X28705Y-28294D01*
X28783Y-28310D01*
X28843Y-28335D01*
X28843Y-28335D01*
G37*
X28843Y-28335D02*
X28859Y-28262D01*
X28859Y-28262D02*
X28894Y-28180D01*
X28894Y-28180D02*
X28945Y-28106D01*
X28945Y-28106D02*
X29008Y-28044D01*
X29008Y-28044D02*
X29083Y-27995D01*
X29083Y-27995D02*
X29166Y-27961D01*
X29166Y-27961D02*
X29253Y-27945D01*
X29253Y-27945D02*
X29342Y-27945D01*
X29342Y-27945D02*
X29398Y-27956D01*
X29398Y-27956D02*
X29636Y-27719D01*
X29636Y-27719D02*
X29636Y-27702D01*
X29636Y-27702D02*
X29577Y-27760D01*
X29577Y-27760D02*
X29501Y-27808D01*
X29501Y-27808D02*
X29418Y-27840D01*
X29418Y-27840D02*
X29330Y-27856D01*
X29330Y-27856D02*
X29241Y-27854D01*
X29241Y-27854D02*
X29154Y-27835D01*
X29154Y-27835D02*
X29072Y-27799D01*
X29072Y-27799D02*
X29035Y-27773D01*
X29035Y-27773D02*
X29033Y-27778D01*
X29033Y-27778D02*
X28988Y-27843D01*
X28988Y-27843D02*
X28930Y-27898D01*
X28930Y-27898D02*
X28863Y-27940D01*
X28863Y-27940D02*
X28790Y-27969D01*
X28790Y-27969D02*
X28712Y-27983D01*
X28712Y-27983D02*
X28632Y-27981D01*
X28632Y-27981D02*
X28555Y-27964D01*
X28555Y-27964D02*
X28482Y-27933D01*
X28482Y-27933D02*
X28450Y-27910D01*
X28450Y-27910D02*
X28417Y-27887D01*
X28417Y-27887D02*
X28362Y-27830D01*
X28362Y-27830D02*
X28319Y-27764D01*
X28319Y-27764D02*
X28308Y-27735D01*
X28308Y-27735D02*
X28308Y-28003D01*
X28308Y-28003D02*
X28450Y-28145D01*
X28450Y-28145D02*
X28603Y-28298D01*
X28603Y-28298D02*
X28626Y-28294D01*
X28626Y-28294D02*
X28705Y-28294D01*
X28705Y-28294D02*
X28783Y-28310D01*
X28783Y-28310D02*
X28843Y-28335D01*
G36*
X35318Y-27486D02*
X35318Y-26833D01*
X35192Y-26707D01*
X35192Y-26846D01*
X35185Y-26881D01*
X35178Y-26894D01*
X35185Y-26910D01*
X35192Y-26944D01*
X35192Y-27156D01*
X35185Y-27191D01*
X35176Y-27209D01*
X35185Y-27230D01*
X35192Y-27264D01*
X35192Y-27441D01*
X35201Y-27442D01*
X35227Y-27445D01*
X35272Y-27459D01*
X35313Y-27482D01*
X35318Y-27486D01*
X35318Y-27486D01*
G37*
X35318Y-27486D02*
X35318Y-26833D01*
X35318Y-26833D02*
X35192Y-26707D01*
X35192Y-26707D02*
X35192Y-26846D01*
X35192Y-26846D02*
X35185Y-26881D01*
X35185Y-26881D02*
X35178Y-26894D01*
X35178Y-26894D02*
X35185Y-26910D01*
X35185Y-26910D02*
X35192Y-26944D01*
X35192Y-26944D02*
X35192Y-27156D01*
X35192Y-27156D02*
X35185Y-27191D01*
X35185Y-27191D02*
X35176Y-27209D01*
X35176Y-27209D02*
X35185Y-27230D01*
X35185Y-27230D02*
X35192Y-27264D01*
X35192Y-27264D02*
X35192Y-27441D01*
X35192Y-27441D02*
X35201Y-27442D01*
X35201Y-27442D02*
X35227Y-27445D01*
X35227Y-27445D02*
X35272Y-27459D01*
X35272Y-27459D02*
X35313Y-27482D01*
X35313Y-27482D02*
X35318Y-27486D01*
G36*
X38889Y-24590D02*
X38889Y-27413D01*
X38903Y-27408D01*
X38981Y-27393D01*
X39014Y-27393D01*
X39014Y-27389D01*
X39014Y-26763D01*
X39021Y-26728D01*
X39035Y-26696D01*
X39054Y-26667D01*
X39079Y-26642D01*
X39108Y-26622D01*
X39141Y-26609D01*
X39175Y-26602D01*
X39565Y-26602D01*
X39600Y-26609D01*
X39632Y-26623D01*
X39661Y-26642D01*
X39684Y-26666D01*
X39709Y-26642D01*
X39738Y-26622D01*
X39771Y-26609D01*
X39805Y-26602D01*
X40195Y-26602D01*
X40230Y-26609D01*
X40262Y-26623D01*
X40291Y-26642D01*
X40315Y-26666D01*
X40339Y-26642D01*
X40368Y-26622D01*
X40401Y-26609D01*
X40435Y-26602D01*
X40825Y-26602D01*
X40860Y-26609D01*
X40877Y-26616D01*
X40858Y-26435D01*
X40389Y-24922D01*
X39634Y-23525D01*
X39488Y-23349D01*
X39487Y-23356D01*
X39477Y-23376D01*
X39507Y-23412D01*
X39529Y-23454D01*
X39542Y-23499D01*
X39545Y-23545D01*
X39541Y-23592D01*
X39527Y-23637D01*
X39505Y-23678D01*
X39475Y-23714D01*
X39329Y-23860D01*
X39329Y-24050D01*
X39328Y-24050D01*
X39329Y-24051D01*
X39327Y-24066D01*
X39324Y-24100D01*
X39310Y-24145D01*
X39287Y-24186D01*
X39271Y-24204D01*
X39259Y-24220D01*
X38889Y-24590D01*
X38889Y-24590D01*
G37*
X38889Y-24590D02*
X38889Y-27413D01*
X38889Y-27413D02*
X38903Y-27408D01*
X38903Y-27408D02*
X38981Y-27393D01*
X38981Y-27393D02*
X39014Y-27393D01*
X39014Y-27393D02*
X39014Y-27389D01*
X39014Y-27389D02*
X39014Y-26763D01*
X39014Y-26763D02*
X39021Y-26728D01*
X39021Y-26728D02*
X39035Y-26696D01*
X39035Y-26696D02*
X39054Y-26667D01*
X39054Y-26667D02*
X39079Y-26642D01*
X39079Y-26642D02*
X39108Y-26622D01*
X39108Y-26622D02*
X39141Y-26609D01*
X39141Y-26609D02*
X39175Y-26602D01*
X39175Y-26602D02*
X39565Y-26602D01*
X39565Y-26602D02*
X39600Y-26609D01*
X39600Y-26609D02*
X39632Y-26623D01*
X39632Y-26623D02*
X39661Y-26642D01*
X39661Y-26642D02*
X39684Y-26666D01*
X39684Y-26666D02*
X39709Y-26642D01*
X39709Y-26642D02*
X39738Y-26622D01*
X39738Y-26622D02*
X39771Y-26609D01*
X39771Y-26609D02*
X39805Y-26602D01*
X39805Y-26602D02*
X40195Y-26602D01*
X40195Y-26602D02*
X40230Y-26609D01*
X40230Y-26609D02*
X40262Y-26623D01*
X40262Y-26623D02*
X40291Y-26642D01*
X40291Y-26642D02*
X40315Y-26666D01*
X40315Y-26666D02*
X40339Y-26642D01*
X40339Y-26642D02*
X40368Y-26622D01*
X40368Y-26622D02*
X40401Y-26609D01*
X40401Y-26609D02*
X40435Y-26602D01*
X40435Y-26602D02*
X40825Y-26602D01*
X40825Y-26602D02*
X40860Y-26609D01*
X40860Y-26609D02*
X40877Y-26616D01*
X40877Y-26616D02*
X40858Y-26435D01*
X40858Y-26435D02*
X40389Y-24922D01*
X40389Y-24922D02*
X39634Y-23525D01*
X39634Y-23525D02*
X39488Y-23349D01*
X39488Y-23349D02*
X39487Y-23356D01*
X39487Y-23356D02*
X39477Y-23376D01*
X39477Y-23376D02*
X39507Y-23412D01*
X39507Y-23412D02*
X39529Y-23454D01*
X39529Y-23454D02*
X39542Y-23499D01*
X39542Y-23499D02*
X39545Y-23545D01*
X39545Y-23545D02*
X39541Y-23592D01*
X39541Y-23592D02*
X39527Y-23637D01*
X39527Y-23637D02*
X39505Y-23678D01*
X39505Y-23678D02*
X39475Y-23714D01*
X39475Y-23714D02*
X39329Y-23860D01*
X39329Y-23860D02*
X39329Y-24050D01*
X39329Y-24050D02*
X39328Y-24050D01*
X39328Y-24050D02*
X39329Y-24051D01*
X39329Y-24051D02*
X39327Y-24066D01*
X39327Y-24066D02*
X39324Y-24100D01*
X39324Y-24100D02*
X39310Y-24145D01*
X39310Y-24145D02*
X39287Y-24186D01*
X39287Y-24186D02*
X39271Y-24204D01*
X39271Y-24204D02*
X39259Y-24220D01*
X39259Y-24220D02*
X38889Y-24590D01*
G36*
X34048Y-27378D02*
X34048Y-27264D01*
X34055Y-27229D01*
X34063Y-27210D01*
X34055Y-27190D01*
X34048Y-27156D01*
X34048Y-27056D01*
X33731Y-27373D01*
X33997Y-27373D01*
X33997Y-27373D01*
X33998Y-27373D01*
X34009Y-27374D01*
X34047Y-27378D01*
X34048Y-27378D01*
X34048Y-27378D01*
G37*
X34048Y-27378D02*
X34048Y-27264D01*
X34048Y-27264D02*
X34055Y-27229D01*
X34055Y-27229D02*
X34063Y-27210D01*
X34063Y-27210D02*
X34055Y-27190D01*
X34055Y-27190D02*
X34048Y-27156D01*
X34048Y-27156D02*
X34048Y-27056D01*
X34048Y-27056D02*
X33731Y-27373D01*
X33731Y-27373D02*
X33997Y-27373D01*
X33997Y-27373D02*
X33997Y-27373D01*
X33997Y-27373D02*
X33998Y-27373D01*
X33998Y-27373D02*
X34009Y-27374D01*
X34009Y-27374D02*
X34047Y-27378D01*
X34047Y-27378D02*
X34048Y-27378D01*
G36*
X32088Y-27373D02*
X31994Y-27279D01*
X31967Y-27285D01*
X31887Y-27283D01*
X31810Y-27266D01*
X31737Y-27235D01*
X31672Y-27189D01*
X31617Y-27132D01*
X31574Y-27066D01*
X31545Y-26992D01*
X31530Y-26914D01*
X31532Y-26835D01*
X31548Y-26758D01*
X31550Y-26752D01*
X31426Y-26752D01*
X31426Y-26844D01*
X31419Y-26879D01*
X31411Y-26895D01*
X31419Y-26913D01*
X31426Y-26947D01*
X31426Y-27129D01*
X31435Y-27130D01*
X31461Y-27133D01*
X31506Y-27147D01*
X31547Y-27170D01*
X31575Y-27194D01*
X31581Y-27199D01*
X31581Y-27199D01*
X31582Y-27200D01*
X31587Y-27207D01*
X31611Y-27235D01*
X31613Y-27240D01*
X31634Y-27278D01*
X31647Y-27323D01*
X31650Y-27359D01*
X31651Y-27368D01*
X31651Y-27370D01*
X31651Y-27373D01*
X32088Y-27373D01*
X32088Y-27373D01*
G37*
X32088Y-27373D02*
X31994Y-27279D01*
X31994Y-27279D02*
X31967Y-27285D01*
X31967Y-27285D02*
X31887Y-27283D01*
X31887Y-27283D02*
X31810Y-27266D01*
X31810Y-27266D02*
X31737Y-27235D01*
X31737Y-27235D02*
X31672Y-27189D01*
X31672Y-27189D02*
X31617Y-27132D01*
X31617Y-27132D02*
X31574Y-27066D01*
X31574Y-27066D02*
X31545Y-26992D01*
X31545Y-26992D02*
X31530Y-26914D01*
X31530Y-26914D02*
X31532Y-26835D01*
X31532Y-26835D02*
X31548Y-26758D01*
X31548Y-26758D02*
X31550Y-26752D01*
X31550Y-26752D02*
X31426Y-26752D01*
X31426Y-26752D02*
X31426Y-26844D01*
X31426Y-26844D02*
X31419Y-26879D01*
X31419Y-26879D02*
X31411Y-26895D01*
X31411Y-26895D02*
X31419Y-26913D01*
X31419Y-26913D02*
X31426Y-26947D01*
X31426Y-26947D02*
X31426Y-27129D01*
X31426Y-27129D02*
X31435Y-27130D01*
X31435Y-27130D02*
X31461Y-27133D01*
X31461Y-27133D02*
X31506Y-27147D01*
X31506Y-27147D02*
X31547Y-27170D01*
X31547Y-27170D02*
X31575Y-27194D01*
X31575Y-27194D02*
X31581Y-27199D01*
X31581Y-27199D02*
X31581Y-27199D01*
X31581Y-27199D02*
X31582Y-27200D01*
X31582Y-27200D02*
X31587Y-27207D01*
X31587Y-27207D02*
X31611Y-27235D01*
X31611Y-27235D02*
X31613Y-27240D01*
X31613Y-27240D02*
X31634Y-27278D01*
X31634Y-27278D02*
X31647Y-27323D01*
X31647Y-27323D02*
X31650Y-27359D01*
X31650Y-27359D02*
X31651Y-27368D01*
X31651Y-27368D02*
X31651Y-27370D01*
X31651Y-27370D02*
X31651Y-27373D01*
X31651Y-27373D02*
X32088Y-27373D01*
G36*
X30282Y-27047D02*
X30282Y-26947D01*
X30289Y-26912D01*
X30296Y-26895D01*
X30289Y-26878D01*
X30282Y-26844D01*
X30282Y-26632D01*
X30289Y-26597D01*
X30303Y-26565D01*
X30322Y-26536D01*
X30347Y-26511D01*
X30376Y-26491D01*
X30409Y-26478D01*
X30443Y-26471D01*
X31039Y-26471D01*
X30771Y-26203D01*
X29706Y-26203D01*
X29733Y-26267D01*
X29750Y-26355D01*
X29749Y-26457D01*
X29738Y-26503D01*
X30282Y-27047D01*
X30282Y-27047D01*
G37*
X30282Y-27047D02*
X30282Y-26947D01*
X30282Y-26947D02*
X30289Y-26912D01*
X30289Y-26912D02*
X30296Y-26895D01*
X30296Y-26895D02*
X30289Y-26878D01*
X30289Y-26878D02*
X30282Y-26844D01*
X30282Y-26844D02*
X30282Y-26632D01*
X30282Y-26632D02*
X30289Y-26597D01*
X30289Y-26597D02*
X30303Y-26565D01*
X30303Y-26565D02*
X30322Y-26536D01*
X30322Y-26536D02*
X30347Y-26511D01*
X30347Y-26511D02*
X30376Y-26491D01*
X30376Y-26491D02*
X30409Y-26478D01*
X30409Y-26478D02*
X30443Y-26471D01*
X30443Y-26471D02*
X31039Y-26471D01*
X31039Y-26471D02*
X30771Y-26203D01*
X30771Y-26203D02*
X29706Y-26203D01*
X29706Y-26203D02*
X29733Y-26267D01*
X29733Y-26267D02*
X29750Y-26355D01*
X29750Y-26355D02*
X29749Y-26457D01*
X29749Y-26457D02*
X29738Y-26503D01*
X29738Y-26503D02*
X30282Y-27047D01*
G36*
X36513Y-26996D02*
X36513Y-26952D01*
X36404Y-26843D01*
X36335Y-26856D01*
X36246Y-26854D01*
X36159Y-26835D01*
X36077Y-26799D01*
X36033Y-26768D01*
X36033Y-26793D01*
X36196Y-26956D01*
X36258Y-26945D01*
X36347Y-26945D01*
X36435Y-26963D01*
X36513Y-26996D01*
X36513Y-26996D01*
G37*
X36513Y-26996D02*
X36513Y-26952D01*
X36513Y-26952D02*
X36404Y-26843D01*
X36404Y-26843D02*
X36335Y-26856D01*
X36335Y-26856D02*
X36246Y-26854D01*
X36246Y-26854D02*
X36159Y-26835D01*
X36159Y-26835D02*
X36077Y-26799D01*
X36077Y-26799D02*
X36033Y-26768D01*
X36033Y-26768D02*
X36033Y-26793D01*
X36033Y-26793D02*
X36196Y-26956D01*
X36196Y-26956D02*
X36258Y-26945D01*
X36258Y-26945D02*
X36347Y-26945D01*
X36347Y-26945D02*
X36435Y-26963D01*
X36435Y-26963D02*
X36513Y-26996D01*
G36*
X41290Y-26813D02*
X41290Y-19660D01*
X33982Y-19660D01*
X34534Y-19714D01*
X34535Y-19714D01*
X34572Y-19721D01*
X36127Y-20191D01*
X36165Y-20206D01*
X36170Y-20210D01*
X37596Y-20968D01*
X37630Y-20991D01*
X37631Y-20993D01*
X38886Y-22015D01*
X38913Y-22042D01*
X38915Y-22044D01*
X38916Y-22045D01*
X39948Y-23293D01*
X39962Y-23314D01*
X39970Y-23325D01*
X40741Y-24753D01*
X40756Y-24788D01*
X40756Y-24790D01*
X40757Y-24791D01*
X40757Y-24791D01*
X41236Y-26339D01*
X41245Y-26379D01*
X41244Y-26384D01*
X41290Y-26813D01*
X41290Y-26813D01*
G37*
X41290Y-26813D02*
X41290Y-19660D01*
X41290Y-19660D02*
X33982Y-19660D01*
X33982Y-19660D02*
X34534Y-19714D01*
X34534Y-19714D02*
X34535Y-19714D01*
X34535Y-19714D02*
X34572Y-19721D01*
X34572Y-19721D02*
X36127Y-20191D01*
X36127Y-20191D02*
X36165Y-20206D01*
X36165Y-20206D02*
X36170Y-20210D01*
X36170Y-20210D02*
X37596Y-20968D01*
X37596Y-20968D02*
X37630Y-20991D01*
X37630Y-20991D02*
X37631Y-20993D01*
X37631Y-20993D02*
X38886Y-22015D01*
X38886Y-22015D02*
X38913Y-22042D01*
X38913Y-22042D02*
X38915Y-22044D01*
X38915Y-22044D02*
X38916Y-22045D01*
X38916Y-22045D02*
X39948Y-23293D01*
X39948Y-23293D02*
X39962Y-23314D01*
X39962Y-23314D02*
X39970Y-23325D01*
X39970Y-23325D02*
X40741Y-24753D01*
X40741Y-24753D02*
X40756Y-24788D01*
X40756Y-24788D02*
X40756Y-24790D01*
X40756Y-24790D02*
X40757Y-24791D01*
X40757Y-24791D02*
X40757Y-24791D01*
X40757Y-24791D02*
X41236Y-26339D01*
X41236Y-26339D02*
X41245Y-26379D01*
X41245Y-26379D02*
X41244Y-26384D01*
X41244Y-26384D02*
X41290Y-26813D01*
G36*
X24510Y-19660D02*
X24510Y-26783D01*
X24544Y-26436D01*
X24544Y-26435D01*
X24551Y-26398D01*
X25021Y-24843D01*
X25036Y-24805D01*
X25040Y-24799D01*
X25798Y-23374D01*
X25821Y-23340D01*
X25823Y-23338D01*
X26845Y-22084D01*
X26872Y-22057D01*
X26874Y-22055D01*
X26875Y-22053D01*
X28123Y-21022D01*
X28144Y-21007D01*
X28155Y-21000D01*
X29583Y-20229D01*
X29618Y-20214D01*
X29620Y-20213D01*
X29621Y-20213D01*
X29621Y-20212D01*
X31168Y-19734D01*
X31209Y-19725D01*
X31214Y-19725D01*
X31833Y-19660D01*
X24510Y-19660D01*
X24510Y-19660D01*
G37*
X24510Y-19660D02*
X24510Y-26783D01*
X24510Y-26783D02*
X24544Y-26436D01*
X24544Y-26436D02*
X24544Y-26435D01*
X24544Y-26435D02*
X24551Y-26398D01*
X24551Y-26398D02*
X25021Y-24843D01*
X25021Y-24843D02*
X25036Y-24805D01*
X25036Y-24805D02*
X25040Y-24799D01*
X25040Y-24799D02*
X25798Y-23374D01*
X25798Y-23374D02*
X25821Y-23340D01*
X25821Y-23340D02*
X25823Y-23338D01*
X25823Y-23338D02*
X26845Y-22084D01*
X26845Y-22084D02*
X26872Y-22057D01*
X26872Y-22057D02*
X26874Y-22055D01*
X26874Y-22055D02*
X26875Y-22053D01*
X26875Y-22053D02*
X28123Y-21022D01*
X28123Y-21022D02*
X28144Y-21007D01*
X28144Y-21007D02*
X28155Y-21000D01*
X28155Y-21000D02*
X29583Y-20229D01*
X29583Y-20229D02*
X29618Y-20214D01*
X29618Y-20214D02*
X29620Y-20213D01*
X29620Y-20213D02*
X29621Y-20213D01*
X29621Y-20213D02*
X29621Y-20212D01*
X29621Y-20212D02*
X31168Y-19734D01*
X31168Y-19734D02*
X31209Y-19725D01*
X31209Y-19725D02*
X31214Y-19725D01*
X31214Y-19725D02*
X31833Y-19660D01*
X31833Y-19660D02*
X24510Y-19660D01*
G36*
X34128Y-26502D02*
X34142Y-26493D01*
X34175Y-26480D01*
X34209Y-26473D01*
X34300Y-26473D01*
X34958Y-26473D01*
X34300Y-25815D01*
X34118Y-25633D01*
X34109Y-25633D01*
X34109Y-26361D01*
X34102Y-26396D01*
X34091Y-26421D01*
X34096Y-26427D01*
X34118Y-26469D01*
X34118Y-26469D01*
X34119Y-26471D01*
X34128Y-26502D01*
X34128Y-26502D01*
G37*
X34128Y-26502D02*
X34142Y-26493D01*
X34142Y-26493D02*
X34175Y-26480D01*
X34175Y-26480D02*
X34209Y-26473D01*
X34209Y-26473D02*
X34300Y-26473D01*
X34300Y-26473D02*
X34958Y-26473D01*
X34958Y-26473D02*
X34300Y-25815D01*
X34300Y-25815D02*
X34118Y-25633D01*
X34118Y-25633D02*
X34109Y-25633D01*
X34109Y-25633D02*
X34109Y-26361D01*
X34109Y-26361D02*
X34102Y-26396D01*
X34102Y-26396D02*
X34091Y-26421D01*
X34091Y-26421D02*
X34096Y-26427D01*
X34096Y-26427D02*
X34118Y-26469D01*
X34118Y-26469D02*
X34118Y-26469D01*
X34118Y-26469D02*
X34119Y-26471D01*
X34119Y-26471D02*
X34128Y-26502D01*
G36*
X25387Y-24976D02*
X24943Y-26450D01*
X24960Y-26443D01*
X24965Y-26398D01*
X24979Y-26353D01*
X25002Y-26312D01*
X25017Y-26293D01*
X25030Y-26278D01*
X26119Y-25189D01*
X26140Y-25171D01*
X26156Y-25159D01*
X26198Y-25137D01*
X26198Y-25136D01*
X26200Y-25136D01*
X26245Y-25123D01*
X26280Y-25119D01*
X26289Y-25119D01*
X26291Y-25119D01*
X26865Y-25119D01*
X27333Y-24650D01*
X27321Y-24647D01*
X27280Y-24625D01*
X27247Y-24597D01*
X27245Y-24595D01*
X26870Y-24221D01*
X26752Y-24221D01*
X26748Y-24231D01*
X26703Y-24296D01*
X26645Y-24351D01*
X26578Y-24393D01*
X26505Y-24422D01*
X26427Y-24436D01*
X26347Y-24434D01*
X26270Y-24417D01*
X26197Y-24386D01*
X26132Y-24340D01*
X26077Y-24283D01*
X26034Y-24217D01*
X26005Y-24143D01*
X25990Y-24065D01*
X25992Y-23986D01*
X26008Y-23909D01*
X26039Y-23836D01*
X26084Y-23770D01*
X26140Y-23715D01*
X26207Y-23671D01*
X26280Y-23642D01*
X26307Y-23636D01*
X26302Y-23626D01*
X26301Y-23624D01*
X26288Y-23579D01*
X26284Y-23538D01*
X26284Y-23534D01*
X26284Y-23533D01*
X26284Y-23533D01*
X26289Y-23486D01*
X26303Y-23441D01*
X26325Y-23400D01*
X26342Y-23379D01*
X26351Y-23367D01*
X26343Y-23345D01*
X26338Y-23323D01*
X26133Y-23574D01*
X25387Y-24976D01*
X25387Y-24976D01*
G37*
X25387Y-24976D02*
X24943Y-26450D01*
X24943Y-26450D02*
X24960Y-26443D01*
X24960Y-26443D02*
X24965Y-26398D01*
X24965Y-26398D02*
X24979Y-26353D01*
X24979Y-26353D02*
X25002Y-26312D01*
X25002Y-26312D02*
X25017Y-26293D01*
X25017Y-26293D02*
X25030Y-26278D01*
X25030Y-26278D02*
X26119Y-25189D01*
X26119Y-25189D02*
X26140Y-25171D01*
X26140Y-25171D02*
X26156Y-25159D01*
X26156Y-25159D02*
X26198Y-25137D01*
X26198Y-25137D02*
X26198Y-25136D01*
X26198Y-25136D02*
X26200Y-25136D01*
X26200Y-25136D02*
X26245Y-25123D01*
X26245Y-25123D02*
X26280Y-25119D01*
X26280Y-25119D02*
X26289Y-25119D01*
X26289Y-25119D02*
X26291Y-25119D01*
X26291Y-25119D02*
X26865Y-25119D01*
X26865Y-25119D02*
X27333Y-24650D01*
X27333Y-24650D02*
X27321Y-24647D01*
X27321Y-24647D02*
X27280Y-24625D01*
X27280Y-24625D02*
X27247Y-24597D01*
X27247Y-24597D02*
X27245Y-24595D01*
X27245Y-24595D02*
X26870Y-24221D01*
X26870Y-24221D02*
X26752Y-24221D01*
X26752Y-24221D02*
X26748Y-24231D01*
X26748Y-24231D02*
X26703Y-24296D01*
X26703Y-24296D02*
X26645Y-24351D01*
X26645Y-24351D02*
X26578Y-24393D01*
X26578Y-24393D02*
X26505Y-24422D01*
X26505Y-24422D02*
X26427Y-24436D01*
X26427Y-24436D02*
X26347Y-24434D01*
X26347Y-24434D02*
X26270Y-24417D01*
X26270Y-24417D02*
X26197Y-24386D01*
X26197Y-24386D02*
X26132Y-24340D01*
X26132Y-24340D02*
X26077Y-24283D01*
X26077Y-24283D02*
X26034Y-24217D01*
X26034Y-24217D02*
X26005Y-24143D01*
X26005Y-24143D02*
X25990Y-24065D01*
X25990Y-24065D02*
X25992Y-23986D01*
X25992Y-23986D02*
X26008Y-23909D01*
X26008Y-23909D02*
X26039Y-23836D01*
X26039Y-23836D02*
X26084Y-23770D01*
X26084Y-23770D02*
X26140Y-23715D01*
X26140Y-23715D02*
X26207Y-23671D01*
X26207Y-23671D02*
X26280Y-23642D01*
X26280Y-23642D02*
X26307Y-23636D01*
X26307Y-23636D02*
X26302Y-23626D01*
X26302Y-23626D02*
X26301Y-23624D01*
X26301Y-23624D02*
X26288Y-23579D01*
X26288Y-23579D02*
X26284Y-23538D01*
X26284Y-23538D02*
X26284Y-23534D01*
X26284Y-23534D02*
X26284Y-23533D01*
X26284Y-23533D02*
X26284Y-23533D01*
X26284Y-23533D02*
X26289Y-23486D01*
X26289Y-23486D02*
X26303Y-23441D01*
X26303Y-23441D02*
X26325Y-23400D01*
X26325Y-23400D02*
X26342Y-23379D01*
X26342Y-23379D02*
X26351Y-23367D01*
X26351Y-23367D02*
X26343Y-23345D01*
X26343Y-23345D02*
X26338Y-23323D01*
X26338Y-23323D02*
X26133Y-23574D01*
X26133Y-23574D02*
X25387Y-24976D01*
G36*
X25810Y-26190D02*
X25810Y-26209D01*
X25822Y-26208D01*
X25830Y-26208D01*
X25832Y-26208D01*
X26065Y-26208D01*
X26674Y-25599D01*
X26389Y-25599D01*
X25798Y-26190D01*
X25810Y-26190D01*
X25810Y-26190D01*
G37*
X25810Y-26190D02*
X25810Y-26209D01*
X25810Y-26209D02*
X25822Y-26208D01*
X25822Y-26208D02*
X25830Y-26208D01*
X25830Y-26208D02*
X25832Y-26208D01*
X25832Y-26208D02*
X26065Y-26208D01*
X26065Y-26208D02*
X26674Y-25599D01*
X26674Y-25599D02*
X26389Y-25599D01*
X26389Y-25599D02*
X25798Y-26190D01*
X25798Y-26190D02*
X25810Y-26190D01*
G36*
X31371Y-26123D02*
X31371Y-25539D01*
X31378Y-25504D01*
X31392Y-25472D01*
X31411Y-25443D01*
X31436Y-25418D01*
X31465Y-25398D01*
X31498Y-25385D01*
X31532Y-25378D01*
X31713Y-25378D01*
X31717Y-25343D01*
X31731Y-25298D01*
X31754Y-25257D01*
X31769Y-25238D01*
X31782Y-25223D01*
X32168Y-24836D01*
X32159Y-24835D01*
X32077Y-24799D01*
X32004Y-24748D01*
X31942Y-24684D01*
X31894Y-24609D01*
X31861Y-24526D01*
X31844Y-24439D01*
X31846Y-24349D01*
X31864Y-24262D01*
X31899Y-24180D01*
X31950Y-24106D01*
X32013Y-24044D01*
X32088Y-23995D01*
X32090Y-23994D01*
X31507Y-23994D01*
X31517Y-23998D01*
X31591Y-24047D01*
X31654Y-24111D01*
X31704Y-24185D01*
X31738Y-24267D01*
X31755Y-24355D01*
X31754Y-24457D01*
X31734Y-24544D01*
X31698Y-24626D01*
X31646Y-24698D01*
X31582Y-24760D01*
X31506Y-24808D01*
X31423Y-24840D01*
X31335Y-24856D01*
X31246Y-24854D01*
X31159Y-24835D01*
X31077Y-24799D01*
X31004Y-24748D01*
X30959Y-24701D01*
X30959Y-24734D01*
X30959Y-24736D01*
X30954Y-24783D01*
X30940Y-24828D01*
X30917Y-24869D01*
X30901Y-24887D01*
X30889Y-24903D01*
X30220Y-25572D01*
X30183Y-25602D01*
X30142Y-25622D01*
X30141Y-25623D01*
X30096Y-25636D01*
X30060Y-25639D01*
X30052Y-25640D01*
X30050Y-25640D01*
X29749Y-25640D01*
X29749Y-25693D01*
X29743Y-25723D01*
X30871Y-25723D01*
X30871Y-25723D01*
X30872Y-25723D01*
X30883Y-25724D01*
X30921Y-25728D01*
X30966Y-25742D01*
X31007Y-25765D01*
X31025Y-25780D01*
X31041Y-25793D01*
X31371Y-26123D01*
X31371Y-26123D01*
G37*
X31371Y-26123D02*
X31371Y-25539D01*
X31371Y-25539D02*
X31378Y-25504D01*
X31378Y-25504D02*
X31392Y-25472D01*
X31392Y-25472D02*
X31411Y-25443D01*
X31411Y-25443D02*
X31436Y-25418D01*
X31436Y-25418D02*
X31465Y-25398D01*
X31465Y-25398D02*
X31498Y-25385D01*
X31498Y-25385D02*
X31532Y-25378D01*
X31532Y-25378D02*
X31713Y-25378D01*
X31713Y-25378D02*
X31717Y-25343D01*
X31717Y-25343D02*
X31731Y-25298D01*
X31731Y-25298D02*
X31754Y-25257D01*
X31754Y-25257D02*
X31769Y-25238D01*
X31769Y-25238D02*
X31782Y-25223D01*
X31782Y-25223D02*
X32168Y-24836D01*
X32168Y-24836D02*
X32159Y-24835D01*
X32159Y-24835D02*
X32077Y-24799D01*
X32077Y-24799D02*
X32004Y-24748D01*
X32004Y-24748D02*
X31942Y-24684D01*
X31942Y-24684D02*
X31894Y-24609D01*
X31894Y-24609D02*
X31861Y-24526D01*
X31861Y-24526D02*
X31844Y-24439D01*
X31844Y-24439D02*
X31846Y-24349D01*
X31846Y-24349D02*
X31864Y-24262D01*
X31864Y-24262D02*
X31899Y-24180D01*
X31899Y-24180D02*
X31950Y-24106D01*
X31950Y-24106D02*
X32013Y-24044D01*
X32013Y-24044D02*
X32088Y-23995D01*
X32088Y-23995D02*
X32090Y-23994D01*
X32090Y-23994D02*
X31507Y-23994D01*
X31507Y-23994D02*
X31517Y-23998D01*
X31517Y-23998D02*
X31591Y-24047D01*
X31591Y-24047D02*
X31654Y-24111D01*
X31654Y-24111D02*
X31704Y-24185D01*
X31704Y-24185D02*
X31738Y-24267D01*
X31738Y-24267D02*
X31755Y-24355D01*
X31755Y-24355D02*
X31754Y-24457D01*
X31754Y-24457D02*
X31734Y-24544D01*
X31734Y-24544D02*
X31698Y-24626D01*
X31698Y-24626D02*
X31646Y-24698D01*
X31646Y-24698D02*
X31582Y-24760D01*
X31582Y-24760D02*
X31506Y-24808D01*
X31506Y-24808D02*
X31423Y-24840D01*
X31423Y-24840D02*
X31335Y-24856D01*
X31335Y-24856D02*
X31246Y-24854D01*
X31246Y-24854D02*
X31159Y-24835D01*
X31159Y-24835D02*
X31077Y-24799D01*
X31077Y-24799D02*
X31004Y-24748D01*
X31004Y-24748D02*
X30959Y-24701D01*
X30959Y-24701D02*
X30959Y-24734D01*
X30959Y-24734D02*
X30959Y-24736D01*
X30959Y-24736D02*
X30954Y-24783D01*
X30954Y-24783D02*
X30940Y-24828D01*
X30940Y-24828D02*
X30917Y-24869D01*
X30917Y-24869D02*
X30901Y-24887D01*
X30901Y-24887D02*
X30889Y-24903D01*
X30889Y-24903D02*
X30220Y-25572D01*
X30220Y-25572D02*
X30183Y-25602D01*
X30183Y-25602D02*
X30142Y-25622D01*
X30142Y-25622D02*
X30141Y-25623D01*
X30141Y-25623D02*
X30096Y-25636D01*
X30096Y-25636D02*
X30060Y-25639D01*
X30060Y-25639D02*
X30052Y-25640D01*
X30052Y-25640D02*
X30050Y-25640D01*
X30050Y-25640D02*
X29749Y-25640D01*
X29749Y-25640D02*
X29749Y-25693D01*
X29749Y-25693D02*
X29743Y-25723D01*
X29743Y-25723D02*
X30871Y-25723D01*
X30871Y-25723D02*
X30871Y-25723D01*
X30871Y-25723D02*
X30872Y-25723D01*
X30872Y-25723D02*
X30883Y-25724D01*
X30883Y-25724D02*
X30921Y-25728D01*
X30921Y-25728D02*
X30966Y-25742D01*
X30966Y-25742D02*
X31007Y-25765D01*
X31007Y-25765D02*
X31025Y-25780D01*
X31025Y-25780D02*
X31041Y-25793D01*
X31041Y-25793D02*
X31371Y-26123D01*
G36*
X35850Y-25715D02*
X35846Y-25693D01*
X35846Y-25640D01*
X35410Y-25640D01*
X35410Y-25715D01*
X35793Y-25715D01*
X35795Y-25715D01*
X35850Y-25715D01*
X35850Y-25715D01*
G37*
X35850Y-25715D02*
X35846Y-25693D01*
X35846Y-25693D02*
X35846Y-25640D01*
X35846Y-25640D02*
X35410Y-25640D01*
X35410Y-25640D02*
X35410Y-25715D01*
X35410Y-25715D02*
X35793Y-25715D01*
X35793Y-25715D02*
X35795Y-25715D01*
X35795Y-25715D02*
X35850Y-25715D01*
G36*
X35846Y-25160D02*
X35846Y-25107D01*
X35853Y-25072D01*
X35867Y-25040D01*
X35886Y-25011D01*
X35911Y-24986D01*
X35940Y-24966D01*
X35973Y-24953D01*
X36007Y-24946D01*
X36264Y-24946D01*
X35754Y-24436D01*
X35754Y-24457D01*
X35734Y-24544D01*
X35698Y-24626D01*
X35646Y-24698D01*
X35582Y-24760D01*
X35506Y-24808D01*
X35423Y-24840D01*
X35335Y-24856D01*
X35246Y-24854D01*
X35159Y-24835D01*
X35152Y-24832D01*
X35480Y-25160D01*
X35846Y-25160D01*
X35846Y-25160D01*
G37*
X35846Y-25160D02*
X35846Y-25107D01*
X35846Y-25107D02*
X35853Y-25072D01*
X35853Y-25072D02*
X35867Y-25040D01*
X35867Y-25040D02*
X35886Y-25011D01*
X35886Y-25011D02*
X35911Y-24986D01*
X35911Y-24986D02*
X35940Y-24966D01*
X35940Y-24966D02*
X35973Y-24953D01*
X35973Y-24953D02*
X36007Y-24946D01*
X36007Y-24946D02*
X36264Y-24946D01*
X36264Y-24946D02*
X35754Y-24436D01*
X35754Y-24436D02*
X35754Y-24457D01*
X35754Y-24457D02*
X35734Y-24544D01*
X35734Y-24544D02*
X35698Y-24626D01*
X35698Y-24626D02*
X35646Y-24698D01*
X35646Y-24698D02*
X35582Y-24760D01*
X35582Y-24760D02*
X35506Y-24808D01*
X35506Y-24808D02*
X35423Y-24840D01*
X35423Y-24840D02*
X35335Y-24856D01*
X35335Y-24856D02*
X35246Y-24854D01*
X35246Y-24854D02*
X35159Y-24835D01*
X35159Y-24835D02*
X35152Y-24832D01*
X35152Y-24832D02*
X35480Y-25160D01*
X35480Y-25160D02*
X35846Y-25160D01*
G36*
X29952Y-25160D02*
X30258Y-24854D01*
X30007Y-24854D01*
X29972Y-24847D01*
X29940Y-24833D01*
X29911Y-24814D01*
X29886Y-24789D01*
X29866Y-24760D01*
X29853Y-24727D01*
X29846Y-24693D01*
X29846Y-24436D01*
X29336Y-24946D01*
X29588Y-24946D01*
X29623Y-24953D01*
X29655Y-24967D01*
X29684Y-24986D01*
X29709Y-25011D01*
X29729Y-25040D01*
X29742Y-25073D01*
X29749Y-25107D01*
X29749Y-25160D01*
X29952Y-25160D01*
X29952Y-25160D01*
G37*
X29952Y-25160D02*
X30258Y-24854D01*
X30258Y-24854D02*
X30007Y-24854D01*
X30007Y-24854D02*
X29972Y-24847D01*
X29972Y-24847D02*
X29940Y-24833D01*
X29940Y-24833D02*
X29911Y-24814D01*
X29911Y-24814D02*
X29886Y-24789D01*
X29886Y-24789D02*
X29866Y-24760D01*
X29866Y-24760D02*
X29853Y-24727D01*
X29853Y-24727D02*
X29846Y-24693D01*
X29846Y-24693D02*
X29846Y-24436D01*
X29846Y-24436D02*
X29336Y-24946D01*
X29336Y-24946D02*
X29588Y-24946D01*
X29588Y-24946D02*
X29623Y-24953D01*
X29623Y-24953D02*
X29655Y-24967D01*
X29655Y-24967D02*
X29684Y-24986D01*
X29684Y-24986D02*
X29709Y-25011D01*
X29709Y-25011D02*
X29729Y-25040D01*
X29729Y-25040D02*
X29742Y-25073D01*
X29742Y-25073D02*
X29749Y-25107D01*
X29749Y-25107D02*
X29749Y-25160D01*
X29749Y-25160D02*
X29952Y-25160D01*
G36*
X33948Y-24691D02*
X33942Y-24684D01*
X33894Y-24609D01*
X33861Y-24526D01*
X33844Y-24439D01*
X33846Y-24349D01*
X33856Y-24296D01*
X33781Y-24221D01*
X33718Y-24221D01*
X33738Y-24267D01*
X33755Y-24355D01*
X33754Y-24457D01*
X33734Y-24544D01*
X33698Y-24626D01*
X33651Y-24691D01*
X33948Y-24691D01*
X33948Y-24691D01*
G37*
X33948Y-24691D02*
X33942Y-24684D01*
X33942Y-24684D02*
X33894Y-24609D01*
X33894Y-24609D02*
X33861Y-24526D01*
X33861Y-24526D02*
X33844Y-24439D01*
X33844Y-24439D02*
X33846Y-24349D01*
X33846Y-24349D02*
X33856Y-24296D01*
X33856Y-24296D02*
X33781Y-24221D01*
X33781Y-24221D02*
X33718Y-24221D01*
X33718Y-24221D02*
X33738Y-24267D01*
X33738Y-24267D02*
X33755Y-24355D01*
X33755Y-24355D02*
X33754Y-24457D01*
X33754Y-24457D02*
X33734Y-24544D01*
X33734Y-24544D02*
X33698Y-24626D01*
X33698Y-24626D02*
X33651Y-24691D01*
X33651Y-24691D02*
X33948Y-24691D01*
G36*
X34959Y-24096D02*
X35013Y-24044D01*
X35088Y-23995D01*
X35171Y-23961D01*
X35258Y-23945D01*
X35263Y-23945D01*
X35095Y-23777D01*
X34680Y-23777D01*
X34901Y-23998D01*
X34901Y-23998D01*
X34902Y-23999D01*
X34932Y-24035D01*
X34954Y-24077D01*
X34954Y-24077D01*
X34955Y-24079D01*
X34959Y-24096D01*
X34959Y-24096D01*
G37*
X34959Y-24096D02*
X35013Y-24044D01*
X35013Y-24044D02*
X35088Y-23995D01*
X35088Y-23995D02*
X35171Y-23961D01*
X35171Y-23961D02*
X35258Y-23945D01*
X35258Y-23945D02*
X35263Y-23945D01*
X35263Y-23945D02*
X35095Y-23777D01*
X35095Y-23777D02*
X34680Y-23777D01*
X34680Y-23777D02*
X34901Y-23998D01*
X34901Y-23998D02*
X34901Y-23998D01*
X34901Y-23998D02*
X34902Y-23999D01*
X34902Y-23999D02*
X34932Y-24035D01*
X34932Y-24035D02*
X34954Y-24077D01*
X34954Y-24077D02*
X34954Y-24077D01*
X34954Y-24077D02*
X34955Y-24079D01*
X34955Y-24079D02*
X34959Y-24096D01*
G36*
X30726Y-24029D02*
X30979Y-23777D01*
X30505Y-23777D01*
X30336Y-23946D01*
X30593Y-23946D01*
X30628Y-23953D01*
X30660Y-23967D01*
X30689Y-23986D01*
X30714Y-24011D01*
X30726Y-24029D01*
X30726Y-24029D01*
G37*
X30726Y-24029D02*
X30979Y-23777D01*
X30979Y-23777D02*
X30505Y-23777D01*
X30505Y-23777D02*
X30336Y-23946D01*
X30336Y-23946D02*
X30593Y-23946D01*
X30593Y-23946D02*
X30628Y-23953D01*
X30628Y-23953D02*
X30660Y-23967D01*
X30660Y-23967D02*
X30689Y-23986D01*
X30689Y-23986D02*
X30714Y-24011D01*
X30714Y-24011D02*
X30726Y-24029D01*
G36*
X29571Y-23743D02*
X30365Y-22950D01*
X29393Y-22950D01*
X29161Y-23183D01*
X29132Y-23203D01*
X29099Y-23216D01*
X29065Y-23223D01*
X29047Y-23223D01*
X29047Y-23545D01*
X29091Y-23528D01*
X29169Y-23513D01*
X29248Y-23513D01*
X29326Y-23529D01*
X29399Y-23560D01*
X29464Y-23604D01*
X29520Y-23660D01*
X29564Y-23726D01*
X29571Y-23743D01*
X29571Y-23743D01*
G37*
X29571Y-23743D02*
X30365Y-22950D01*
X30365Y-22950D02*
X29393Y-22950D01*
X29393Y-22950D02*
X29161Y-23183D01*
X29161Y-23183D02*
X29132Y-23203D01*
X29132Y-23203D02*
X29099Y-23216D01*
X29099Y-23216D02*
X29065Y-23223D01*
X29065Y-23223D02*
X29047Y-23223D01*
X29047Y-23223D02*
X29047Y-23545D01*
X29047Y-23545D02*
X29091Y-23528D01*
X29091Y-23528D02*
X29169Y-23513D01*
X29169Y-23513D02*
X29248Y-23513D01*
X29248Y-23513D02*
X29326Y-23529D01*
X29326Y-23529D02*
X29399Y-23560D01*
X29399Y-23560D02*
X29464Y-23604D01*
X29464Y-23604D02*
X29520Y-23660D01*
X29520Y-23660D02*
X29564Y-23726D01*
X29564Y-23726D02*
X29571Y-23743D01*
G36*
X28047Y-23738D02*
X28047Y-23262D01*
X27984Y-23199D01*
X27954Y-23162D01*
X27934Y-23122D01*
X27933Y-23120D01*
X27920Y-23075D01*
X27916Y-23039D01*
X27916Y-23031D01*
X27916Y-23029D01*
X27916Y-22482D01*
X27744Y-22310D01*
X27714Y-22273D01*
X27692Y-22232D01*
X27680Y-22186D01*
X27676Y-22150D01*
X27676Y-22142D01*
X27676Y-22141D01*
X27676Y-22140D01*
X27681Y-22093D01*
X27695Y-22049D01*
X27718Y-22008D01*
X27727Y-21996D01*
X27742Y-21976D01*
X27734Y-21954D01*
X27727Y-21920D01*
X27727Y-21885D01*
X27734Y-21850D01*
X27734Y-21849D01*
X27139Y-22340D01*
X26806Y-22749D01*
X26819Y-22737D01*
X26848Y-22717D01*
X26881Y-22704D01*
X26915Y-22697D01*
X26950Y-22697D01*
X26985Y-22704D01*
X27017Y-22718D01*
X27046Y-22737D01*
X27322Y-23013D01*
X27342Y-23042D01*
X27355Y-23075D01*
X27362Y-23109D01*
X27362Y-23143D01*
X27395Y-23143D01*
X27430Y-23150D01*
X27462Y-23164D01*
X27491Y-23183D01*
X27767Y-23459D01*
X27787Y-23488D01*
X27800Y-23521D01*
X27807Y-23555D01*
X27807Y-23588D01*
X27841Y-23588D01*
X27876Y-23595D01*
X27908Y-23609D01*
X27937Y-23628D01*
X28047Y-23738D01*
X28047Y-23738D01*
G37*
X28047Y-23738D02*
X28047Y-23262D01*
X28047Y-23262D02*
X27984Y-23199D01*
X27984Y-23199D02*
X27954Y-23162D01*
X27954Y-23162D02*
X27934Y-23122D01*
X27934Y-23122D02*
X27933Y-23120D01*
X27933Y-23120D02*
X27920Y-23075D01*
X27920Y-23075D02*
X27916Y-23039D01*
X27916Y-23039D02*
X27916Y-23031D01*
X27916Y-23031D02*
X27916Y-23029D01*
X27916Y-23029D02*
X27916Y-22482D01*
X27916Y-22482D02*
X27744Y-22310D01*
X27744Y-22310D02*
X27714Y-22273D01*
X27714Y-22273D02*
X27692Y-22232D01*
X27692Y-22232D02*
X27680Y-22186D01*
X27680Y-22186D02*
X27676Y-22150D01*
X27676Y-22150D02*
X27676Y-22142D01*
X27676Y-22142D02*
X27676Y-22141D01*
X27676Y-22141D02*
X27676Y-22140D01*
X27676Y-22140D02*
X27681Y-22093D01*
X27681Y-22093D02*
X27695Y-22049D01*
X27695Y-22049D02*
X27718Y-22008D01*
X27718Y-22008D02*
X27727Y-21996D01*
X27727Y-21996D02*
X27742Y-21976D01*
X27742Y-21976D02*
X27734Y-21954D01*
X27734Y-21954D02*
X27727Y-21920D01*
X27727Y-21920D02*
X27727Y-21885D01*
X27727Y-21885D02*
X27734Y-21850D01*
X27734Y-21850D02*
X27734Y-21849D01*
X27734Y-21849D02*
X27139Y-22340D01*
X27139Y-22340D02*
X26806Y-22749D01*
X26806Y-22749D02*
X26819Y-22737D01*
X26819Y-22737D02*
X26848Y-22717D01*
X26848Y-22717D02*
X26881Y-22704D01*
X26881Y-22704D02*
X26915Y-22697D01*
X26915Y-22697D02*
X26950Y-22697D01*
X26950Y-22697D02*
X26985Y-22704D01*
X26985Y-22704D02*
X27017Y-22718D01*
X27017Y-22718D02*
X27046Y-22737D01*
X27046Y-22737D02*
X27322Y-23013D01*
X27322Y-23013D02*
X27342Y-23042D01*
X27342Y-23042D02*
X27355Y-23075D01*
X27355Y-23075D02*
X27362Y-23109D01*
X27362Y-23109D02*
X27362Y-23143D01*
X27362Y-23143D02*
X27395Y-23143D01*
X27395Y-23143D02*
X27430Y-23150D01*
X27430Y-23150D02*
X27462Y-23164D01*
X27462Y-23164D02*
X27491Y-23183D01*
X27491Y-23183D02*
X27767Y-23459D01*
X27767Y-23459D02*
X27787Y-23488D01*
X27787Y-23488D02*
X27800Y-23521D01*
X27800Y-23521D02*
X27807Y-23555D01*
X27807Y-23555D02*
X27807Y-23588D01*
X27807Y-23588D02*
X27841Y-23588D01*
X27841Y-23588D02*
X27876Y-23595D01*
X27876Y-23595D02*
X27908Y-23609D01*
X27908Y-23609D02*
X27937Y-23628D01*
X27937Y-23628D02*
X28047Y-23738D01*
G36*
X37938Y-23274D02*
X38041Y-23172D01*
X38041Y-23171D01*
X38043Y-23170D01*
X38067Y-23150D01*
X38070Y-23148D01*
X37281Y-23148D01*
X37155Y-23274D01*
X37938Y-23274D01*
X37938Y-23274D01*
G37*
X37938Y-23274D02*
X38041Y-23172D01*
X38041Y-23172D02*
X38041Y-23171D01*
X38041Y-23171D02*
X38043Y-23170D01*
X38043Y-23170D02*
X38067Y-23150D01*
X38067Y-23150D02*
X38070Y-23148D01*
X38070Y-23148D02*
X37281Y-23148D01*
X37281Y-23148D02*
X37155Y-23274D01*
X37155Y-23274D02*
X37938Y-23274D01*
G36*
X38950Y-22714D02*
X38970Y-22723D01*
X38629Y-22309D01*
X38099Y-21877D01*
X38103Y-21895D01*
X38103Y-21930D01*
X38096Y-21965D01*
X38086Y-21986D01*
X38091Y-21992D01*
X38115Y-22020D01*
X38137Y-22062D01*
X38150Y-22107D01*
X38151Y-22128D01*
X38154Y-22153D01*
X38149Y-22192D01*
X38149Y-22201D01*
X38135Y-22245D01*
X38113Y-22286D01*
X38104Y-22296D01*
X38084Y-22322D01*
X37814Y-22591D01*
X37811Y-22596D01*
X37739Y-22668D01*
X38581Y-22668D01*
X38591Y-22665D01*
X38611Y-22659D01*
X38658Y-22655D01*
X38705Y-22660D01*
X38736Y-22669D01*
X38751Y-22674D01*
X38792Y-22697D01*
X38819Y-22719D01*
X38823Y-22722D01*
X38846Y-22714D01*
X38880Y-22707D01*
X38915Y-22707D01*
X38950Y-22714D01*
X38950Y-22714D01*
G37*
X38950Y-22714D02*
X38970Y-22723D01*
X38970Y-22723D02*
X38629Y-22309D01*
X38629Y-22309D02*
X38099Y-21877D01*
X38099Y-21877D02*
X38103Y-21895D01*
X38103Y-21895D02*
X38103Y-21930D01*
X38103Y-21930D02*
X38096Y-21965D01*
X38096Y-21965D02*
X38086Y-21986D01*
X38086Y-21986D02*
X38091Y-21992D01*
X38091Y-21992D02*
X38115Y-22020D01*
X38115Y-22020D02*
X38137Y-22062D01*
X38137Y-22062D02*
X38150Y-22107D01*
X38150Y-22107D02*
X38151Y-22128D01*
X38151Y-22128D02*
X38154Y-22153D01*
X38154Y-22153D02*
X38149Y-22192D01*
X38149Y-22192D02*
X38149Y-22201D01*
X38149Y-22201D02*
X38135Y-22245D01*
X38135Y-22245D02*
X38113Y-22286D01*
X38113Y-22286D02*
X38104Y-22296D01*
X38104Y-22296D02*
X38084Y-22322D01*
X38084Y-22322D02*
X37814Y-22591D01*
X37814Y-22591D02*
X37811Y-22596D01*
X37811Y-22596D02*
X37739Y-22668D01*
X37739Y-22668D02*
X38581Y-22668D01*
X38581Y-22668D02*
X38591Y-22665D01*
X38591Y-22665D02*
X38611Y-22659D01*
X38611Y-22659D02*
X38658Y-22655D01*
X38658Y-22655D02*
X38705Y-22660D01*
X38705Y-22660D02*
X38736Y-22669D01*
X38736Y-22669D02*
X38751Y-22674D01*
X38751Y-22674D02*
X38792Y-22697D01*
X38792Y-22697D02*
X38819Y-22719D01*
X38819Y-22719D02*
X38823Y-22722D01*
X38823Y-22722D02*
X38846Y-22714D01*
X38846Y-22714D02*
X38880Y-22707D01*
X38880Y-22707D02*
X38915Y-22707D01*
X38915Y-22707D02*
X38950Y-22714D01*
G36*
X32185Y-22470D02*
X32219Y-22436D01*
X29527Y-22436D01*
X29561Y-22470D01*
X32185Y-22470D01*
X32185Y-22470D01*
G37*
X32185Y-22470D02*
X32219Y-22436D01*
X32219Y-22436D02*
X29527Y-22436D01*
X29527Y-22436D02*
X29561Y-22470D01*
X29561Y-22470D02*
X32185Y-22470D01*
G36*
X35913Y-22093D02*
X35925Y-22039D01*
X35956Y-21966D01*
X36001Y-21900D01*
X36057Y-21845D01*
X36124Y-21801D01*
X36197Y-21772D01*
X36275Y-21757D01*
X36354Y-21757D01*
X36432Y-21773D01*
X36505Y-21804D01*
X36570Y-21848D01*
X36626Y-21904D01*
X36670Y-21970D01*
X36701Y-22043D01*
X36701Y-22046D01*
X36947Y-21801D01*
X36976Y-21781D01*
X37009Y-21768D01*
X37043Y-21761D01*
X37077Y-21761D01*
X37077Y-21728D01*
X37084Y-21693D01*
X37098Y-21661D01*
X37117Y-21632D01*
X37393Y-21356D01*
X37422Y-21336D01*
X37431Y-21332D01*
X37395Y-21303D01*
X35993Y-20557D01*
X34477Y-20100D01*
X34275Y-20080D01*
X34288Y-20098D01*
X34296Y-20120D01*
X34317Y-20122D01*
X34342Y-20125D01*
X34387Y-20139D01*
X34428Y-20162D01*
X34456Y-20186D01*
X34462Y-20191D01*
X34462Y-20191D01*
X34463Y-20192D01*
X34469Y-20199D01*
X34492Y-20227D01*
X34494Y-20232D01*
X34515Y-20270D01*
X34528Y-20315D01*
X34531Y-20351D01*
X34532Y-20360D01*
X34532Y-20362D01*
X34532Y-20711D01*
X35913Y-22093D01*
X35913Y-22093D01*
G37*
X35913Y-22093D02*
X35925Y-22039D01*
X35925Y-22039D02*
X35956Y-21966D01*
X35956Y-21966D02*
X36001Y-21900D01*
X36001Y-21900D02*
X36057Y-21845D01*
X36057Y-21845D02*
X36124Y-21801D01*
X36124Y-21801D02*
X36197Y-21772D01*
X36197Y-21772D02*
X36275Y-21757D01*
X36275Y-21757D02*
X36354Y-21757D01*
X36354Y-21757D02*
X36432Y-21773D01*
X36432Y-21773D02*
X36505Y-21804D01*
X36505Y-21804D02*
X36570Y-21848D01*
X36570Y-21848D02*
X36626Y-21904D01*
X36626Y-21904D02*
X36670Y-21970D01*
X36670Y-21970D02*
X36701Y-22043D01*
X36701Y-22043D02*
X36701Y-22046D01*
X36701Y-22046D02*
X36947Y-21801D01*
X36947Y-21801D02*
X36976Y-21781D01*
X36976Y-21781D02*
X37009Y-21768D01*
X37009Y-21768D02*
X37043Y-21761D01*
X37043Y-21761D02*
X37077Y-21761D01*
X37077Y-21761D02*
X37077Y-21728D01*
X37077Y-21728D02*
X37084Y-21693D01*
X37084Y-21693D02*
X37098Y-21661D01*
X37098Y-21661D02*
X37117Y-21632D01*
X37117Y-21632D02*
X37393Y-21356D01*
X37393Y-21356D02*
X37422Y-21336D01*
X37422Y-21336D02*
X37431Y-21332D01*
X37431Y-21332D02*
X37395Y-21303D01*
X37395Y-21303D02*
X35993Y-20557D01*
X35993Y-20557D02*
X34477Y-20100D01*
X34477Y-20100D02*
X34275Y-20080D01*
X34275Y-20080D02*
X34288Y-20098D01*
X34288Y-20098D02*
X34296Y-20120D01*
X34296Y-20120D02*
X34317Y-20122D01*
X34317Y-20122D02*
X34342Y-20125D01*
X34342Y-20125D02*
X34387Y-20139D01*
X34387Y-20139D02*
X34428Y-20162D01*
X34428Y-20162D02*
X34456Y-20186D01*
X34456Y-20186D02*
X34462Y-20191D01*
X34462Y-20191D02*
X34462Y-20191D01*
X34462Y-20191D02*
X34463Y-20192D01*
X34463Y-20192D02*
X34469Y-20199D01*
X34469Y-20199D02*
X34492Y-20227D01*
X34492Y-20227D02*
X34494Y-20232D01*
X34494Y-20232D02*
X34515Y-20270D01*
X34515Y-20270D02*
X34528Y-20315D01*
X34528Y-20315D02*
X34531Y-20351D01*
X34531Y-20351D02*
X34532Y-20360D01*
X34532Y-20360D02*
X34532Y-20362D01*
X34532Y-20362D02*
X34532Y-20711D01*
X34532Y-20711D02*
X35913Y-22093D01*
G36*
X32340Y-21425D02*
X32340Y-21685D01*
X32639Y-21386D01*
X32639Y-20855D01*
X32639Y-20853D01*
X32644Y-20806D01*
X32658Y-20761D01*
X32681Y-20720D01*
X32696Y-20701D01*
X32709Y-20686D01*
X33207Y-20188D01*
X33230Y-20169D01*
X33242Y-20160D01*
X33284Y-20138D01*
X33284Y-20137D01*
X33286Y-20137D01*
X33331Y-20124D01*
X33347Y-20122D01*
X33371Y-20120D01*
X33381Y-20098D01*
X33400Y-20069D01*
X33425Y-20044D01*
X33454Y-20024D01*
X33487Y-20011D01*
X33511Y-20005D01*
X32888Y-19945D01*
X32851Y-19945D01*
X32215Y-20011D01*
X32246Y-20025D01*
X32275Y-20044D01*
X32300Y-20069D01*
X32320Y-20098D01*
X32328Y-20120D01*
X32349Y-20122D01*
X32374Y-20125D01*
X32419Y-20139D01*
X32460Y-20162D01*
X32487Y-20185D01*
X32494Y-20191D01*
X32494Y-20191D01*
X32495Y-20192D01*
X32500Y-20199D01*
X32524Y-20227D01*
X32527Y-20232D01*
X32547Y-20270D01*
X32560Y-20315D01*
X32563Y-20351D01*
X32564Y-20360D01*
X32564Y-20362D01*
X32564Y-20764D01*
X32559Y-20811D01*
X32545Y-20856D01*
X32522Y-20897D01*
X32498Y-20924D01*
X32493Y-20931D01*
X32340Y-21084D01*
X32340Y-21185D01*
X32333Y-21220D01*
X32319Y-21252D01*
X32300Y-21281D01*
X32276Y-21305D01*
X32300Y-21329D01*
X32320Y-21358D01*
X32333Y-21391D01*
X32340Y-21425D01*
X32340Y-21425D01*
G37*
X32340Y-21425D02*
X32340Y-21685D01*
X32340Y-21685D02*
X32639Y-21386D01*
X32639Y-21386D02*
X32639Y-20855D01*
X32639Y-20855D02*
X32639Y-20853D01*
X32639Y-20853D02*
X32644Y-20806D01*
X32644Y-20806D02*
X32658Y-20761D01*
X32658Y-20761D02*
X32681Y-20720D01*
X32681Y-20720D02*
X32696Y-20701D01*
X32696Y-20701D02*
X32709Y-20686D01*
X32709Y-20686D02*
X33207Y-20188D01*
X33207Y-20188D02*
X33230Y-20169D01*
X33230Y-20169D02*
X33242Y-20160D01*
X33242Y-20160D02*
X33284Y-20138D01*
X33284Y-20138D02*
X33284Y-20137D01*
X33284Y-20137D02*
X33286Y-20137D01*
X33286Y-20137D02*
X33331Y-20124D01*
X33331Y-20124D02*
X33347Y-20122D01*
X33347Y-20122D02*
X33371Y-20120D01*
X33371Y-20120D02*
X33381Y-20098D01*
X33381Y-20098D02*
X33400Y-20069D01*
X33400Y-20069D02*
X33425Y-20044D01*
X33425Y-20044D02*
X33454Y-20024D01*
X33454Y-20024D02*
X33487Y-20011D01*
X33487Y-20011D02*
X33511Y-20005D01*
X33511Y-20005D02*
X32888Y-19945D01*
X32888Y-19945D02*
X32851Y-19945D01*
X32851Y-19945D02*
X32215Y-20011D01*
X32215Y-20011D02*
X32246Y-20025D01*
X32246Y-20025D02*
X32275Y-20044D01*
X32275Y-20044D02*
X32300Y-20069D01*
X32300Y-20069D02*
X32320Y-20098D01*
X32320Y-20098D02*
X32328Y-20120D01*
X32328Y-20120D02*
X32349Y-20122D01*
X32349Y-20122D02*
X32374Y-20125D01*
X32374Y-20125D02*
X32419Y-20139D01*
X32419Y-20139D02*
X32460Y-20162D01*
X32460Y-20162D02*
X32487Y-20185D01*
X32487Y-20185D02*
X32494Y-20191D01*
X32494Y-20191D02*
X32494Y-20191D01*
X32494Y-20191D02*
X32495Y-20192D01*
X32495Y-20192D02*
X32500Y-20199D01*
X32500Y-20199D02*
X32524Y-20227D01*
X32524Y-20227D02*
X32527Y-20232D01*
X32527Y-20232D02*
X32547Y-20270D01*
X32547Y-20270D02*
X32560Y-20315D01*
X32560Y-20315D02*
X32563Y-20351D01*
X32563Y-20351D02*
X32564Y-20360D01*
X32564Y-20360D02*
X32564Y-20362D01*
X32564Y-20362D02*
X32564Y-20764D01*
X32564Y-20764D02*
X32559Y-20811D01*
X32559Y-20811D02*
X32545Y-20856D01*
X32545Y-20856D02*
X32522Y-20897D01*
X32522Y-20897D02*
X32498Y-20924D01*
X32498Y-20924D02*
X32493Y-20931D01*
X32493Y-20931D02*
X32340Y-21084D01*
X32340Y-21084D02*
X32340Y-21185D01*
X32340Y-21185D02*
X32333Y-21220D01*
X32333Y-21220D02*
X32319Y-21252D01*
X32319Y-21252D02*
X32300Y-21281D01*
X32300Y-21281D02*
X32276Y-21305D01*
X32276Y-21305D02*
X32300Y-21329D01*
X32300Y-21329D02*
X32320Y-21358D01*
X32320Y-21358D02*
X32333Y-21391D01*
X32333Y-21391D02*
X32340Y-21425D01*
G36*
X29057Y-21455D02*
X29072Y-21384D01*
X29103Y-21311D01*
X29148Y-21245D01*
X29204Y-21190D01*
X29271Y-21146D01*
X29344Y-21117D01*
X29422Y-21102D01*
X29501Y-21102D01*
X29579Y-21118D01*
X29652Y-21149D01*
X29717Y-21193D01*
X29773Y-21249D01*
X29784Y-21266D01*
X31167Y-21266D01*
X31167Y-20990D01*
X31167Y-20989D01*
X31167Y-20988D01*
X31169Y-20965D01*
X31172Y-20940D01*
X31186Y-20895D01*
X31209Y-20854D01*
X31233Y-20825D01*
X31238Y-20820D01*
X31238Y-20819D01*
X31239Y-20819D01*
X31246Y-20813D01*
X31274Y-20790D01*
X31279Y-20786D01*
X31317Y-20767D01*
X31362Y-20754D01*
X31398Y-20750D01*
X31403Y-20750D01*
X31413Y-20728D01*
X31432Y-20699D01*
X31455Y-20674D01*
X31432Y-20651D01*
X31412Y-20622D01*
X31399Y-20589D01*
X31392Y-20555D01*
X31392Y-20165D01*
X31399Y-20130D01*
X31413Y-20098D01*
X31414Y-20096D01*
X31265Y-20111D01*
X29752Y-20580D01*
X28460Y-21278D01*
X28475Y-21271D01*
X28503Y-21263D01*
X28519Y-21258D01*
X28566Y-21254D01*
X28613Y-21259D01*
X28645Y-21268D01*
X28659Y-21273D01*
X28700Y-21296D01*
X28727Y-21318D01*
X28735Y-21325D01*
X28736Y-21326D01*
X28865Y-21455D01*
X29057Y-21455D01*
X29057Y-21455D01*
G37*
X29057Y-21455D02*
X29072Y-21384D01*
X29072Y-21384D02*
X29103Y-21311D01*
X29103Y-21311D02*
X29148Y-21245D01*
X29148Y-21245D02*
X29204Y-21190D01*
X29204Y-21190D02*
X29271Y-21146D01*
X29271Y-21146D02*
X29344Y-21117D01*
X29344Y-21117D02*
X29422Y-21102D01*
X29422Y-21102D02*
X29501Y-21102D01*
X29501Y-21102D02*
X29579Y-21118D01*
X29579Y-21118D02*
X29652Y-21149D01*
X29652Y-21149D02*
X29717Y-21193D01*
X29717Y-21193D02*
X29773Y-21249D01*
X29773Y-21249D02*
X29784Y-21266D01*
X29784Y-21266D02*
X31167Y-21266D01*
X31167Y-21266D02*
X31167Y-20990D01*
X31167Y-20990D02*
X31167Y-20989D01*
X31167Y-20989D02*
X31167Y-20988D01*
X31167Y-20988D02*
X31169Y-20965D01*
X31169Y-20965D02*
X31172Y-20940D01*
X31172Y-20940D02*
X31186Y-20895D01*
X31186Y-20895D02*
X31209Y-20854D01*
X31209Y-20854D02*
X31233Y-20825D01*
X31233Y-20825D02*
X31238Y-20820D01*
X31238Y-20820D02*
X31238Y-20819D01*
X31238Y-20819D02*
X31239Y-20819D01*
X31239Y-20819D02*
X31246Y-20813D01*
X31246Y-20813D02*
X31274Y-20790D01*
X31274Y-20790D02*
X31279Y-20786D01*
X31279Y-20786D02*
X31317Y-20767D01*
X31317Y-20767D02*
X31362Y-20754D01*
X31362Y-20754D02*
X31398Y-20750D01*
X31398Y-20750D02*
X31403Y-20750D01*
X31403Y-20750D02*
X31413Y-20728D01*
X31413Y-20728D02*
X31432Y-20699D01*
X31432Y-20699D02*
X31455Y-20674D01*
X31455Y-20674D02*
X31432Y-20651D01*
X31432Y-20651D02*
X31412Y-20622D01*
X31412Y-20622D02*
X31399Y-20589D01*
X31399Y-20589D02*
X31392Y-20555D01*
X31392Y-20555D02*
X31392Y-20165D01*
X31392Y-20165D02*
X31399Y-20130D01*
X31399Y-20130D02*
X31413Y-20098D01*
X31413Y-20098D02*
X31414Y-20096D01*
X31414Y-20096D02*
X31265Y-20111D01*
X31265Y-20111D02*
X29752Y-20580D01*
X29752Y-20580D02*
X28460Y-21278D01*
X28460Y-21278D02*
X28475Y-21271D01*
X28475Y-21271D02*
X28503Y-21263D01*
X28503Y-21263D02*
X28519Y-21258D01*
X28519Y-21258D02*
X28566Y-21254D01*
X28566Y-21254D02*
X28613Y-21259D01*
X28613Y-21259D02*
X28645Y-21268D01*
X28645Y-21268D02*
X28659Y-21273D01*
X28659Y-21273D02*
X28700Y-21296D01*
X28700Y-21296D02*
X28727Y-21318D01*
X28727Y-21318D02*
X28735Y-21325D01*
X28735Y-21325D02*
X28736Y-21326D01*
X28736Y-21326D02*
X28865Y-21455D01*
X28865Y-21455D02*
X29057Y-21455D01*
G36*
X28397Y-21322D02*
X28420Y-21303D01*
X28433Y-21293D01*
X28387Y-21318D01*
X28397Y-21322D01*
X28397Y-21322D01*
G37*
X28397Y-21322D02*
X28420Y-21303D01*
X28420Y-21303D02*
X28433Y-21293D01*
X28433Y-21293D02*
X28387Y-21318D01*
X28387Y-21318D02*
X28397Y-21322D01*
M02*
