G04 (created by PCBNEW-RS274X (2012-jan-04)-stable) date Wed 09 May 2012 10:29:01 AM CEST*
G01*
G70*
G90*
%MOIN*%
G04 Gerber Fmt 3.4, Leading zero omitted, Abs format*
%FSLAX34Y34*%
G04 APERTURE LIST*
%ADD10C,0.006000*%
%ADD11C,0.008000*%
%ADD12C,0.165400*%
%ADD13R,0.060000X0.060000*%
%ADD14C,0.060000*%
%ADD15R,0.023600X0.086600*%
%ADD16R,0.086600X0.023600*%
%ADD17R,0.059000X0.051100*%
%ADD18R,0.070800X0.062900*%
%ADD19R,0.051100X0.059000*%
%ADD20R,0.047200X0.047200*%
%ADD21R,0.059100X0.063000*%
%ADD22R,0.063000X0.059100*%
%ADD23R,0.055000X0.055000*%
%ADD24C,0.055000*%
%ADD25C,0.025000*%
%ADD26C,0.035000*%
%ADD27C,0.016000*%
G04 APERTURE END LIST*
G54D10*
G54D11*
X32750Y-19300D02*
X32005Y-19333D01*
X31266Y-19430D01*
X30538Y-19592D01*
X29826Y-19816D01*
X29137Y-20102D01*
X28476Y-20446D01*
X27846Y-20847D01*
X27255Y-21301D01*
X26705Y-21805D01*
X26201Y-22355D01*
X25747Y-22946D01*
X25346Y-23576D01*
X25002Y-24237D01*
X24716Y-24926D01*
X24492Y-25638D01*
X24330Y-26366D01*
X24233Y-27105D01*
X24200Y-27850D01*
X24200Y-27850D02*
X24233Y-28595D01*
X24330Y-29334D01*
X24492Y-30062D01*
X24716Y-30774D01*
X25002Y-31463D01*
X25346Y-32124D01*
X25747Y-32754D01*
X26201Y-33345D01*
X26705Y-33895D01*
X27255Y-34399D01*
X27846Y-34853D01*
X28476Y-35254D01*
X29137Y-35598D01*
X29826Y-35884D01*
X30538Y-36108D01*
X31266Y-36270D01*
X32005Y-36367D01*
X32750Y-36400D01*
X32750Y-36400D02*
X33495Y-36367D01*
X34234Y-36270D01*
X34962Y-36108D01*
X35674Y-35884D01*
X36363Y-35598D01*
X37025Y-35254D01*
X37654Y-34853D01*
X38245Y-34399D01*
X38795Y-33895D01*
X39299Y-33345D01*
X39753Y-32754D01*
X40154Y-32124D01*
X40498Y-31463D01*
X40784Y-30774D01*
X41008Y-30062D01*
X41170Y-29334D01*
X41267Y-28595D01*
X41300Y-27850D01*
X41300Y-27850D02*
X41267Y-27105D01*
X41170Y-26366D01*
X41008Y-25638D01*
X40784Y-24926D01*
X40498Y-24237D01*
X40154Y-23576D01*
X39753Y-22946D01*
X39299Y-22355D01*
X38795Y-21805D01*
X38245Y-21301D01*
X37654Y-20847D01*
X37025Y-20446D01*
X36363Y-20102D01*
X35674Y-19816D01*
X34962Y-19592D01*
X34234Y-19430D01*
X33495Y-19333D01*
X32750Y-19300D01*
G54D12*
X35450Y-30550D03*
X35450Y-25150D03*
X30050Y-25150D03*
X30050Y-30550D03*
G54D13*
X33250Y-26850D03*
G54D14*
X32250Y-26850D03*
X33250Y-27850D03*
X32250Y-27850D03*
X33250Y-28850D03*
X32250Y-28850D03*
G54D15*
X36650Y-26827D03*
X37150Y-26827D03*
X37650Y-26827D03*
X38150Y-26827D03*
X38650Y-26827D03*
X39150Y-26827D03*
X39650Y-26827D03*
X40150Y-26827D03*
X40150Y-28873D03*
X39650Y-28873D03*
X39150Y-28873D03*
X38650Y-28873D03*
X38150Y-28873D03*
X37650Y-28873D03*
X37150Y-28873D03*
X36650Y-28873D03*
X28800Y-28873D03*
X28300Y-28873D03*
X27800Y-28873D03*
X27300Y-28873D03*
X26800Y-28873D03*
X26300Y-28873D03*
X25800Y-28873D03*
X25300Y-28873D03*
X25300Y-26827D03*
X25800Y-26827D03*
X26300Y-26827D03*
X26800Y-26827D03*
X27300Y-26827D03*
X27800Y-26827D03*
X28300Y-26827D03*
X28800Y-26827D03*
G54D16*
X33773Y-31800D03*
X33773Y-32300D03*
X33773Y-32800D03*
X33773Y-33300D03*
X33773Y-33800D03*
X33773Y-34300D03*
X33773Y-34800D03*
X33773Y-35300D03*
X31727Y-35300D03*
X31727Y-34800D03*
X31727Y-34300D03*
X31727Y-33800D03*
X31727Y-33300D03*
X31727Y-32800D03*
X31727Y-32300D03*
X31727Y-31800D03*
G54D10*
G36*
X27414Y-33703D02*
X26997Y-33286D01*
X27358Y-32925D01*
X27775Y-33342D01*
X27414Y-33703D01*
X27414Y-33703D01*
G37*
G36*
X27942Y-33175D02*
X27525Y-32758D01*
X27886Y-32397D01*
X28303Y-32814D01*
X27942Y-33175D01*
X27942Y-33175D01*
G37*
G54D17*
X31950Y-24326D03*
X31950Y-25074D03*
G54D18*
X33500Y-24149D03*
X33500Y-25251D03*
G54D19*
X32376Y-20000D03*
X33124Y-20000D03*
G54D20*
X32041Y-30844D03*
X32041Y-30056D03*
G54D21*
X33321Y-30450D03*
G54D20*
X34906Y-27141D03*
X35694Y-27141D03*
G54D22*
X35300Y-28421D03*
G54D20*
X29756Y-27141D03*
X30544Y-27141D03*
G54D22*
X30150Y-28421D03*
G54D23*
X30250Y-22250D03*
G54D24*
X31250Y-22250D03*
X32250Y-22250D03*
X33250Y-22250D03*
X34250Y-22250D03*
X35250Y-22250D03*
G54D10*
G36*
X27239Y-25800D02*
X26850Y-25411D01*
X27239Y-25022D01*
X27628Y-25411D01*
X27239Y-25800D01*
X27239Y-25800D01*
G37*
G54D24*
X27946Y-24704D03*
X28654Y-23996D03*
X29361Y-23289D03*
G54D10*
G36*
X38600Y-25411D02*
X38211Y-25800D01*
X37822Y-25411D01*
X38211Y-25022D01*
X38600Y-25411D01*
X38600Y-25411D01*
G37*
G54D24*
X37504Y-24704D03*
X36796Y-23996D03*
X36089Y-23289D03*
G54D23*
X31750Y-23250D03*
G54D24*
X32750Y-23250D03*
X33750Y-23250D03*
G54D25*
X34445Y-20567D03*
X31304Y-24870D03*
X37946Y-30098D03*
X34389Y-29733D03*
X34407Y-33664D03*
X33191Y-35052D03*
X36424Y-33768D03*
X35633Y-33243D03*
X39956Y-27532D03*
X37055Y-21190D03*
X38728Y-31040D03*
X39450Y-31700D03*
X33526Y-21662D03*
X34829Y-20570D03*
X34674Y-21668D03*
X26546Y-25092D03*
X27851Y-30524D03*
X30954Y-33494D03*
X34929Y-34270D03*
X38921Y-29995D03*
X39650Y-26198D03*
X37565Y-22517D03*
X31329Y-20914D03*
X27355Y-23054D03*
X25538Y-28294D03*
X31156Y-34051D03*
X34371Y-34566D03*
X39373Y-32401D03*
X38826Y-25858D03*
X36557Y-21277D03*
X28724Y-21483D03*
X26632Y-24424D03*
X26037Y-29474D03*
X28975Y-34472D03*
X29191Y-33770D03*
X31020Y-32613D03*
X29771Y-26536D03*
X26800Y-26196D03*
X29832Y-28912D03*
X26628Y-31280D03*
X28579Y-30109D03*
X31328Y-20288D03*
X30870Y-24410D03*
X30783Y-21795D03*
X31167Y-23764D03*
X31389Y-25442D03*
X37881Y-29459D03*
X31757Y-26772D03*
X30644Y-34192D03*
X27076Y-30383D03*
X31302Y-29243D03*
X36726Y-34604D03*
X39983Y-29884D03*
X35132Y-21742D03*
X26774Y-25606D03*
X30175Y-21636D03*
X39014Y-25410D03*
X40382Y-29480D03*
X39146Y-31895D03*
X38672Y-31421D03*
G54D26*
X36879Y-26154D03*
X36939Y-24887D03*
X33869Y-27680D03*
G54D25*
X35902Y-27875D03*
X31566Y-31139D03*
X30017Y-27602D03*
X37304Y-29774D03*
X30741Y-29747D03*
G54D26*
X26220Y-32053D03*
X35755Y-22669D03*
G54D10*
X34276Y-20567D02*
X34445Y-20567D01*
X33709Y-20000D02*
X34276Y-20567D01*
X33124Y-20000D02*
X33709Y-20000D01*
X31304Y-24064D02*
X31304Y-24870D01*
X31750Y-23618D02*
X31304Y-24064D01*
X31750Y-23250D02*
X31750Y-23618D01*
X38390Y-29654D02*
X37946Y-30098D01*
X38390Y-27593D02*
X38390Y-29654D01*
X33773Y-33300D02*
X33247Y-33300D01*
X31188Y-33420D02*
X31188Y-33495D01*
X33036Y-33511D02*
X33247Y-33300D01*
X27300Y-29657D02*
X30919Y-33276D01*
X27300Y-28873D02*
X27300Y-29657D01*
X38150Y-27353D02*
X38390Y-27593D01*
X38150Y-26827D02*
X38150Y-27353D01*
X37946Y-30390D02*
X37946Y-30098D01*
X35036Y-33300D02*
X37946Y-30390D01*
X31188Y-33495D02*
X31204Y-33511D01*
X31204Y-33511D02*
X33036Y-33511D01*
X30919Y-33276D02*
X31044Y-33276D01*
X31044Y-33276D02*
X31188Y-33420D01*
X33773Y-33300D02*
X35036Y-33300D01*
X34642Y-29480D02*
X34389Y-29733D01*
X36165Y-29480D02*
X34642Y-29480D01*
X36640Y-29955D02*
X36165Y-29480D01*
X36640Y-31004D02*
X36640Y-29955D01*
X35344Y-32300D02*
X36640Y-31004D01*
X33773Y-32300D02*
X35344Y-32300D01*
G54D11*
X34953Y-35036D02*
X34953Y-35052D01*
X34953Y-35052D02*
X33191Y-35052D01*
X34309Y-33762D02*
X34407Y-33664D01*
X34309Y-33800D02*
X34309Y-33762D01*
X33773Y-33800D02*
X34309Y-33800D01*
X35961Y-34148D02*
X35841Y-34148D01*
X36003Y-34189D02*
X35961Y-34148D01*
X35841Y-34148D02*
X34953Y-35036D01*
X36424Y-33768D02*
X36003Y-34189D01*
X34576Y-34300D02*
X35633Y-33243D01*
X33773Y-34300D02*
X34576Y-34300D01*
X39905Y-27583D02*
X39956Y-27532D01*
X37682Y-31669D02*
X39905Y-29446D01*
X33773Y-34800D02*
X34754Y-34800D01*
X39905Y-29446D02*
X39905Y-27583D01*
X37682Y-31872D02*
X37682Y-31669D01*
X34754Y-34800D02*
X37682Y-31872D01*
X40339Y-25397D02*
X40754Y-25812D01*
X37877Y-32657D02*
X37877Y-31891D01*
X40754Y-30082D02*
X39450Y-31700D01*
X40754Y-25812D02*
X40754Y-30082D01*
X37055Y-21190D02*
X40339Y-24474D01*
X37877Y-31891D02*
X38728Y-31040D01*
X40339Y-24474D02*
X40339Y-25397D01*
X35234Y-35300D02*
X37877Y-32657D01*
X33773Y-35300D02*
X35234Y-35300D01*
X36785Y-21247D02*
X36956Y-21418D01*
X40195Y-25456D02*
X40611Y-25872D01*
X35216Y-35521D02*
X32484Y-35521D01*
X38918Y-31819D02*
X35216Y-35521D01*
X36785Y-21094D02*
X36785Y-21247D01*
X38918Y-31582D02*
X38918Y-31819D01*
X40611Y-25872D02*
X40611Y-29889D01*
X40195Y-24602D02*
X40195Y-25456D01*
X37011Y-21418D02*
X40195Y-24602D01*
X40611Y-29889D02*
X38918Y-31582D01*
X36956Y-21418D02*
X37011Y-21418D01*
X36261Y-20570D02*
X36785Y-21094D01*
X34829Y-20570D02*
X36261Y-20570D01*
X32484Y-35521D02*
X32263Y-35300D01*
X33532Y-21668D02*
X33526Y-21662D01*
X34674Y-21668D02*
X33532Y-21668D01*
X31727Y-35300D02*
X32263Y-35300D01*
X30273Y-34346D02*
X30727Y-34800D01*
X30727Y-34800D02*
X31727Y-34800D01*
X26546Y-30477D02*
X30273Y-34204D01*
X30273Y-34204D02*
X30273Y-34346D01*
X26546Y-25092D02*
X26546Y-30477D01*
X27851Y-30932D02*
X27851Y-30524D01*
X31055Y-34300D02*
X30872Y-34117D01*
X30872Y-34117D02*
X30872Y-33953D01*
X31727Y-34300D02*
X31055Y-34300D01*
X30872Y-33953D02*
X27851Y-30932D01*
X31727Y-33800D02*
X31191Y-33800D01*
X30954Y-33494D02*
X31191Y-33731D01*
X31191Y-33731D02*
X31191Y-33800D01*
X38693Y-29901D02*
X38693Y-30455D01*
X38871Y-29723D02*
X38693Y-29901D01*
X38871Y-28190D02*
X38871Y-29723D01*
X38650Y-27969D02*
X38871Y-28190D01*
X38650Y-26827D02*
X38650Y-27969D01*
X37539Y-31660D02*
X34929Y-34270D01*
X37539Y-31609D02*
X37539Y-31660D01*
X38693Y-30455D02*
X37539Y-31609D01*
X39417Y-29499D02*
X38921Y-29995D01*
X39150Y-27363D02*
X39417Y-27630D01*
X39417Y-27630D02*
X39417Y-29499D01*
X39150Y-26827D02*
X39150Y-27363D01*
X39650Y-26827D02*
X39650Y-26198D01*
X40150Y-26827D02*
X40150Y-26291D01*
X40150Y-26291D02*
X39909Y-26050D01*
X39909Y-24861D02*
X37565Y-22517D01*
X39909Y-26050D02*
X39909Y-24861D01*
X40150Y-28337D02*
X40452Y-28035D01*
X40452Y-28035D02*
X40452Y-25916D01*
X40452Y-25916D02*
X40052Y-25516D01*
X31356Y-20941D02*
X31329Y-20914D01*
X35691Y-20941D02*
X31356Y-20941D01*
X40150Y-28873D02*
X40150Y-28337D01*
X40052Y-25516D02*
X40052Y-24679D01*
X40052Y-24679D02*
X37021Y-21648D01*
X37021Y-21648D02*
X36398Y-21648D01*
X36398Y-21648D02*
X35691Y-20941D01*
X27355Y-23054D02*
X27490Y-23054D01*
X27490Y-23054D02*
X29543Y-21001D01*
X39650Y-27549D02*
X39650Y-28873D01*
X39372Y-27271D02*
X39650Y-27549D01*
X39765Y-25390D02*
X39765Y-25530D01*
X35518Y-21143D02*
X39765Y-25390D01*
X30976Y-21143D02*
X35518Y-21143D01*
X30834Y-21001D02*
X30976Y-21143D01*
X29543Y-21001D02*
X30834Y-21001D01*
X39765Y-25530D02*
X39372Y-25923D01*
X39372Y-25923D02*
X39372Y-27271D01*
X39150Y-28172D02*
X39150Y-28873D01*
X38928Y-27950D02*
X39150Y-28172D01*
X38928Y-26080D02*
X38928Y-27950D01*
X39548Y-25460D02*
X38928Y-26080D01*
X39548Y-25377D02*
X39548Y-25460D01*
X35459Y-21288D02*
X39548Y-25377D01*
X30715Y-21288D02*
X35459Y-21288D01*
X30632Y-21205D02*
X30715Y-21288D01*
X30028Y-21205D02*
X30632Y-21205D01*
X27594Y-23639D02*
X30028Y-21205D01*
X27092Y-23639D02*
X27594Y-23639D01*
X25538Y-25193D02*
X27092Y-23639D01*
X25538Y-28294D02*
X25538Y-25193D01*
X34473Y-34051D02*
X31156Y-34051D01*
X38550Y-29974D02*
X34473Y-34051D01*
X38550Y-29509D02*
X38550Y-29974D01*
X38650Y-29409D02*
X38550Y-29509D01*
X38650Y-28873D02*
X38650Y-29409D01*
X30696Y-34566D02*
X34371Y-34566D01*
X30416Y-34286D02*
X30696Y-34566D01*
X30416Y-34144D02*
X30416Y-34286D01*
X26800Y-30528D02*
X30416Y-34144D01*
X26800Y-28873D02*
X26800Y-30528D01*
X30130Y-34336D02*
X30130Y-34467D01*
X26300Y-28873D02*
X26300Y-30506D01*
X36941Y-34833D02*
X39373Y-32401D01*
X35408Y-35665D02*
X36240Y-34833D01*
X31328Y-35665D02*
X35408Y-35665D01*
X30130Y-34467D02*
X31328Y-35665D01*
X26300Y-30506D02*
X30130Y-34336D01*
X36240Y-34833D02*
X36941Y-34833D01*
X30137Y-21349D02*
X30573Y-21349D01*
X30573Y-21349D02*
X30656Y-21432D01*
X38897Y-25858D02*
X38826Y-25858D01*
X39262Y-25493D02*
X38897Y-25858D01*
X30656Y-21432D02*
X35381Y-21432D01*
X26625Y-24861D02*
X30137Y-21349D01*
X26405Y-24861D02*
X26625Y-24861D01*
X26078Y-25188D02*
X26405Y-24861D01*
X26078Y-27256D02*
X26078Y-25188D01*
X25800Y-27534D02*
X26078Y-27256D01*
X25800Y-28873D02*
X25800Y-27534D01*
X35381Y-21432D02*
X39262Y-25313D01*
X39262Y-25313D02*
X39262Y-25493D01*
X25300Y-28337D02*
X24996Y-28033D01*
X24996Y-28033D02*
X24996Y-24843D01*
X36078Y-20798D02*
X36557Y-21277D01*
X33848Y-20798D02*
X36078Y-20798D01*
X33735Y-20685D02*
X33848Y-20798D01*
X29154Y-20685D02*
X33735Y-20685D01*
X25300Y-28873D02*
X25300Y-28337D01*
X24996Y-24843D02*
X29154Y-20685D01*
X25300Y-24742D02*
X25300Y-26827D01*
X28559Y-21483D02*
X25300Y-24742D01*
X28724Y-21483D02*
X28559Y-21483D01*
X25800Y-25256D02*
X26632Y-24424D01*
X25800Y-26827D02*
X25800Y-25256D01*
X26037Y-27626D02*
X26037Y-29474D01*
X26300Y-27363D02*
X26037Y-27626D01*
X26300Y-26827D02*
X26300Y-27363D01*
X29191Y-34256D02*
X29191Y-33770D01*
X28975Y-34472D02*
X29191Y-34256D01*
X26800Y-26827D02*
X26800Y-26196D01*
X31020Y-26873D02*
X31020Y-32613D01*
X30683Y-26536D02*
X31020Y-26873D01*
X29771Y-26536D02*
X30683Y-26536D01*
G54D10*
X27300Y-26827D02*
X27300Y-27353D01*
X27588Y-29770D02*
X30971Y-33153D01*
X37102Y-31061D02*
X35086Y-33077D01*
X31580Y-33153D02*
X31727Y-33300D01*
X28088Y-29618D02*
X28088Y-27856D01*
X32253Y-33300D02*
X31727Y-33300D01*
X35086Y-33077D02*
X32476Y-33077D01*
X27914Y-32786D02*
X26628Y-31500D01*
X26628Y-31500D02*
X26628Y-31280D01*
X37102Y-30610D02*
X37102Y-31061D01*
X29832Y-28912D02*
X28776Y-27856D01*
X38150Y-28873D02*
X38150Y-29562D01*
X28088Y-27856D02*
X27803Y-27856D01*
X27803Y-27856D02*
X27300Y-27353D01*
X28776Y-27856D02*
X28088Y-27856D01*
X27803Y-27856D02*
X27588Y-28071D01*
X32476Y-33077D02*
X32253Y-33300D01*
X30971Y-33153D02*
X31580Y-33153D01*
X27588Y-28071D02*
X27588Y-29770D01*
X28579Y-30109D02*
X28088Y-29618D01*
X38150Y-29562D02*
X37102Y-30610D01*
X31727Y-32300D02*
X32253Y-32300D01*
X33321Y-30450D02*
X32933Y-30450D01*
X32041Y-30844D02*
X32041Y-31173D01*
X32933Y-30450D02*
X32179Y-31204D01*
X32147Y-31173D02*
X32179Y-31204D01*
X32041Y-31173D02*
X32147Y-31173D01*
X32253Y-31279D02*
X32253Y-32300D01*
X32179Y-31204D02*
X32253Y-31279D01*
X37150Y-28347D02*
X35300Y-28347D01*
X35300Y-28421D02*
X35300Y-28347D01*
X34906Y-27141D02*
X34906Y-27470D01*
X37150Y-28873D02*
X37150Y-28347D01*
X35300Y-27864D02*
X34906Y-27470D01*
X35300Y-28347D02*
X35300Y-27864D01*
X28423Y-27476D02*
X29756Y-27476D01*
X28300Y-27353D02*
X28423Y-27476D01*
X28300Y-26827D02*
X28300Y-27353D01*
X29756Y-27141D02*
X29756Y-27476D01*
X29762Y-28033D02*
X30150Y-28033D01*
X29756Y-28027D02*
X29762Y-28033D01*
X29756Y-27476D02*
X29756Y-28027D01*
X30150Y-28421D02*
X30150Y-28033D01*
X31167Y-23764D02*
X30870Y-24061D01*
X32376Y-20000D02*
X32028Y-20000D01*
X30870Y-24061D02*
X30870Y-24410D01*
X30783Y-21795D02*
X30783Y-23380D01*
X31740Y-20288D02*
X31328Y-20288D01*
X30783Y-23380D02*
X31167Y-23764D01*
X32028Y-20000D02*
X31740Y-20288D01*
X32678Y-25442D02*
X31389Y-25442D01*
X33033Y-25087D02*
X32678Y-25442D01*
X33033Y-23638D02*
X33033Y-25087D01*
X33250Y-23421D02*
X33033Y-23638D01*
X33250Y-22250D02*
X33250Y-23421D01*
X37650Y-27353D02*
X37881Y-27584D01*
X31042Y-33030D02*
X32235Y-33030D01*
X36943Y-31047D02*
X36943Y-30443D01*
X37650Y-26827D02*
X37650Y-27353D01*
X37881Y-29505D02*
X37881Y-29459D01*
X33773Y-32800D02*
X35190Y-32800D01*
X36943Y-30443D02*
X37881Y-29505D01*
X35190Y-32800D02*
X36943Y-31047D01*
X37881Y-27584D02*
X37881Y-29459D01*
X32235Y-33030D02*
X32465Y-32800D01*
X27800Y-29788D02*
X31042Y-33030D01*
X32465Y-32800D02*
X33773Y-32800D01*
X27800Y-28873D02*
X27800Y-29788D01*
X32267Y-26262D02*
X31757Y-26772D01*
X35805Y-26262D02*
X32267Y-26262D01*
X36431Y-25636D02*
X35805Y-26262D01*
X36431Y-24587D02*
X36431Y-25636D01*
X34250Y-22406D02*
X36431Y-24587D01*
X34250Y-22250D02*
X34250Y-22406D01*
X36726Y-34604D02*
X39146Y-32184D01*
X40382Y-29485D02*
X39983Y-29884D01*
X40382Y-29480D02*
X40382Y-29485D01*
X39146Y-32184D02*
X39146Y-31895D01*
X39983Y-30110D02*
X38672Y-31421D01*
X39983Y-29884D02*
X39983Y-30110D01*
X30175Y-21636D02*
X30236Y-21575D01*
X29874Y-24024D02*
X29874Y-21937D01*
X35346Y-21742D02*
X39014Y-25410D01*
X35132Y-21742D02*
X35346Y-21742D01*
X34854Y-22020D02*
X35132Y-21742D01*
X34689Y-22020D02*
X34854Y-22020D01*
X29022Y-26758D02*
X29677Y-26103D01*
X34550Y-21881D02*
X34689Y-22020D01*
X32307Y-21575D02*
X32613Y-21881D01*
X32613Y-21881D02*
X34550Y-21881D01*
X29874Y-21937D02*
X30175Y-21636D01*
X27076Y-30383D02*
X27076Y-26307D01*
X27076Y-26307D02*
X27090Y-26293D01*
X30439Y-26103D02*
X31302Y-26966D01*
X28643Y-27353D02*
X29006Y-27353D01*
X28517Y-27227D02*
X28643Y-27353D01*
X28517Y-26309D02*
X28517Y-27227D01*
X28501Y-26293D02*
X28517Y-26309D01*
X27090Y-26293D02*
X28501Y-26293D01*
X29115Y-24783D02*
X29874Y-24024D01*
X29115Y-25541D02*
X29115Y-24783D01*
X29022Y-27337D02*
X29022Y-26758D01*
X30236Y-21575D02*
X32307Y-21575D01*
X29006Y-27353D02*
X29022Y-27337D01*
X31302Y-26966D02*
X31302Y-29243D01*
X29677Y-26103D02*
X30439Y-26103D01*
X30644Y-33951D02*
X30644Y-34192D01*
X27076Y-30383D02*
X30644Y-33951D01*
X27090Y-25922D02*
X26774Y-25606D01*
X27090Y-26293D02*
X27090Y-25922D01*
X29677Y-26103D02*
X29115Y-25541D01*
G54D27*
X32250Y-28850D02*
X32750Y-28350D01*
X32750Y-28350D02*
X33586Y-28350D01*
X35349Y-25251D02*
X33500Y-25251D01*
X33869Y-28067D02*
X33869Y-27680D01*
X33586Y-28350D02*
X33869Y-28067D01*
X33982Y-28746D02*
X33982Y-30829D01*
X33586Y-28350D02*
X33982Y-28746D01*
X34349Y-31196D02*
X34349Y-31800D01*
X35450Y-25150D02*
X35349Y-25251D01*
X34804Y-31196D02*
X34349Y-31196D01*
X35450Y-30550D02*
X34804Y-31196D01*
X28949Y-29449D02*
X30050Y-30550D01*
X28800Y-29449D02*
X28949Y-29449D01*
X36747Y-26286D02*
X36879Y-26154D01*
X36683Y-26286D02*
X36747Y-26286D01*
X36673Y-26276D02*
X36683Y-26286D01*
X36673Y-26251D02*
X36673Y-26276D01*
X36650Y-26251D02*
X36673Y-26251D01*
X36939Y-25985D02*
X36673Y-26251D01*
X36939Y-24887D02*
X36939Y-25985D01*
X33773Y-31800D02*
X34349Y-31800D01*
X36650Y-26827D02*
X36650Y-26251D01*
X33982Y-30829D02*
X34349Y-31196D01*
X28800Y-28873D02*
X28800Y-29449D01*
X30250Y-22250D02*
X30250Y-22668D01*
X30250Y-22668D02*
X30250Y-25150D01*
X30250Y-25150D02*
X30050Y-25150D01*
X32388Y-25074D02*
X31950Y-25074D01*
X32750Y-24712D02*
X32388Y-25074D01*
X32750Y-23250D02*
X32750Y-24712D01*
X31950Y-25074D02*
X31512Y-25074D01*
X33500Y-25251D02*
X33500Y-25709D01*
X33497Y-25712D02*
X33500Y-25709D01*
X31126Y-25712D02*
X33497Y-25712D01*
X31081Y-25667D02*
X31126Y-25712D01*
X31081Y-25150D02*
X31081Y-25667D01*
X31436Y-25150D02*
X31081Y-25150D01*
X31512Y-25074D02*
X31436Y-25150D01*
X31081Y-25150D02*
X30250Y-25150D01*
G54D10*
X35694Y-27667D02*
X35902Y-27875D01*
X35694Y-27141D02*
X35694Y-27667D01*
X31566Y-30531D02*
X31566Y-31139D01*
X31712Y-30385D02*
X31566Y-30531D01*
X32041Y-30056D02*
X32041Y-30385D01*
X32041Y-30385D02*
X31712Y-30385D01*
X30544Y-27141D02*
X30215Y-27141D01*
X30215Y-27404D02*
X30017Y-27602D01*
X30215Y-27141D02*
X30215Y-27404D01*
X36813Y-29935D02*
X37361Y-29387D01*
X35228Y-32589D02*
X36813Y-31004D01*
X32253Y-32800D02*
X32464Y-32589D01*
X37361Y-27564D02*
X37150Y-27353D01*
X31727Y-32800D02*
X32253Y-32800D01*
X36813Y-31004D02*
X36813Y-29935D01*
X37150Y-26827D02*
X37150Y-27353D01*
X32464Y-32589D02*
X35228Y-32589D01*
X37361Y-29387D02*
X37361Y-27564D01*
X37650Y-29428D02*
X37650Y-28873D01*
X28300Y-28347D02*
X28957Y-28347D01*
X30395Y-29401D02*
X30741Y-29747D01*
X30011Y-29401D02*
X30395Y-29401D01*
X28957Y-28347D02*
X30011Y-29401D01*
X37304Y-29774D02*
X37650Y-29428D01*
X28300Y-28873D02*
X28300Y-28347D01*
G54D27*
X28800Y-24830D02*
X29361Y-24269D01*
X31246Y-30462D02*
X31581Y-30127D01*
X31246Y-31319D02*
X31246Y-30462D01*
X31727Y-31800D02*
X31246Y-31319D01*
X31581Y-30127D02*
X31581Y-27519D01*
X29361Y-24269D02*
X29361Y-23289D01*
X28800Y-26827D02*
X28800Y-24830D01*
X32694Y-27294D02*
X32250Y-26850D01*
X34526Y-27294D02*
X32694Y-27294D01*
X31581Y-27519D02*
X32250Y-26850D01*
X34526Y-28513D02*
X34526Y-27294D01*
X35346Y-23142D02*
X35346Y-23078D01*
X36605Y-24401D02*
X35346Y-23142D01*
X36605Y-25913D02*
X36605Y-24401D01*
X35757Y-26761D02*
X36605Y-25913D01*
X34571Y-26761D02*
X35757Y-26761D01*
X34526Y-26806D02*
X34571Y-26761D01*
X34526Y-27294D02*
X34526Y-26806D01*
X35346Y-23078D02*
X35755Y-22669D01*
X34886Y-28873D02*
X34526Y-28513D01*
X36650Y-28873D02*
X34886Y-28873D01*
X33500Y-23500D02*
X33750Y-23250D01*
X33500Y-24149D02*
X33500Y-23500D01*
X31950Y-24326D02*
X31950Y-23928D01*
X32250Y-23628D02*
X31950Y-23928D01*
X32250Y-22250D02*
X32250Y-23628D01*
X26220Y-32148D02*
X26220Y-32053D01*
X27386Y-33314D02*
X26220Y-32148D01*
M02*
