G04 (created by PCBNEW-RS274X (2010-04-21 BZR 23xx)-stable) date Thu 02 Sep 2010 05:41:50 AM CEST*
G01*
G70*
G90*
%MOIN*%
G04 Gerber Fmt 3.4, Leading zero omitted, Abs format*
%FSLAX34Y34*%
G04 APERTURE LIST*
%ADD10C,0.001000*%
%ADD11R,0.063000X0.063000*%
%ADD12C,0.063000*%
%ADD13R,0.068000X0.068000*%
%ADD14C,0.068000*%
%ADD15R,0.086700X0.025700*%
%ADD16R,0.025700X0.086700*%
%ADD17R,0.059100X0.067000*%
%ADD18R,0.043400X0.067100*%
%ADD19R,0.067100X0.043400*%
G04 APERTURE END LIST*
G54D10*
G54D11*
X31800Y-33400D03*
G54D12*
X32800Y-33400D03*
X33800Y-33400D03*
G54D13*
X31800Y-31100D03*
G54D14*
X31800Y-32100D03*
X32800Y-31100D03*
X32800Y-32100D03*
X33800Y-31100D03*
X33800Y-32100D03*
G54D11*
X30300Y-24400D03*
G54D12*
X31300Y-24400D03*
X32300Y-24400D03*
X33300Y-24400D03*
X34300Y-24400D03*
X35300Y-24400D03*
G54D11*
X36300Y-25400D03*
G54D12*
X36300Y-26400D03*
X36300Y-27400D03*
X36300Y-28400D03*
X36300Y-29400D03*
X36300Y-30400D03*
G54D15*
X30854Y-28943D03*
X30854Y-28628D03*
X30854Y-28313D03*
X30854Y-27998D03*
X30854Y-27683D03*
X30854Y-27368D03*
X30854Y-27053D03*
X30854Y-26738D03*
X34620Y-26740D03*
X34620Y-28950D03*
X34620Y-28630D03*
X34620Y-28310D03*
X34620Y-28000D03*
X34620Y-27680D03*
X34620Y-27370D03*
X34620Y-27050D03*
G54D16*
X31638Y-25950D03*
X31952Y-25950D03*
X32268Y-25950D03*
X32582Y-25950D03*
X32898Y-25950D03*
X33212Y-25950D03*
X33528Y-25950D03*
X33842Y-25950D03*
X31640Y-29730D03*
X31950Y-29730D03*
X32270Y-29730D03*
X32580Y-29730D03*
X32890Y-29730D03*
X33210Y-29730D03*
X33530Y-29730D03*
X33850Y-29730D03*
G54D11*
X29295Y-25400D03*
G54D12*
X29295Y-26400D03*
X29295Y-27400D03*
X29295Y-28400D03*
X29295Y-29400D03*
X29295Y-30400D03*
G54D17*
X39176Y-29950D03*
X39924Y-29950D03*
X26076Y-30850D03*
X26824Y-30850D03*
X38976Y-30850D03*
X39724Y-30850D03*
G54D10*
G36*
X27653Y-32259D02*
X27180Y-31786D01*
X27487Y-31479D01*
X27960Y-31952D01*
X27653Y-32259D01*
X27653Y-32259D01*
G37*
G36*
X27207Y-32704D02*
X26734Y-32231D01*
X27041Y-31924D01*
X27514Y-32397D01*
X27207Y-32704D01*
X27207Y-32704D01*
G37*
G36*
X26762Y-33150D02*
X26289Y-32677D01*
X26596Y-32370D01*
X27069Y-32843D01*
X26762Y-33150D01*
X26762Y-33150D01*
G37*
G36*
X28153Y-34541D02*
X27680Y-34068D01*
X27987Y-33761D01*
X28460Y-34234D01*
X28153Y-34541D01*
X28153Y-34541D01*
G37*
G36*
X28599Y-34096D02*
X28126Y-33623D01*
X28433Y-33316D01*
X28906Y-33789D01*
X28599Y-34096D01*
X28599Y-34096D01*
G37*
G36*
X29044Y-33650D02*
X28571Y-33177D01*
X28878Y-32870D01*
X29351Y-33343D01*
X29044Y-33650D01*
X29044Y-33650D01*
G37*
G54D18*
X26460Y-26906D03*
X25830Y-26906D03*
X25200Y-26906D03*
X25200Y-28874D03*
X25830Y-28874D03*
X26460Y-28874D03*
G54D10*
G36*
X28741Y-22793D02*
X29214Y-22320D01*
X29521Y-22627D01*
X29048Y-23100D01*
X28741Y-22793D01*
X28741Y-22793D01*
G37*
G36*
X28296Y-22347D02*
X28769Y-21874D01*
X29076Y-22181D01*
X28603Y-22654D01*
X28296Y-22347D01*
X28296Y-22347D01*
G37*
G36*
X27850Y-21902D02*
X28323Y-21429D01*
X28630Y-21736D01*
X28157Y-22209D01*
X27850Y-21902D01*
X27850Y-21902D01*
G37*
G36*
X26459Y-23293D02*
X26932Y-22820D01*
X27239Y-23127D01*
X26766Y-23600D01*
X26459Y-23293D01*
X26459Y-23293D01*
G37*
G36*
X26904Y-23739D02*
X27377Y-23266D01*
X27684Y-23573D01*
X27211Y-24046D01*
X26904Y-23739D01*
X26904Y-23739D01*
G37*
G36*
X27350Y-24184D02*
X27823Y-23711D01*
X28130Y-24018D01*
X27657Y-24491D01*
X27350Y-24184D01*
X27350Y-24184D01*
G37*
G54D19*
X33834Y-21620D03*
X33834Y-20990D03*
X33834Y-20360D03*
X31866Y-20360D03*
X31866Y-20990D03*
X31866Y-21620D03*
G54D10*
G36*
X38007Y-23721D02*
X38480Y-24194D01*
X38173Y-24501D01*
X37700Y-24028D01*
X38007Y-23721D01*
X38007Y-23721D01*
G37*
G36*
X38453Y-23276D02*
X38926Y-23749D01*
X38619Y-24056D01*
X38146Y-23583D01*
X38453Y-23276D01*
X38453Y-23276D01*
G37*
G36*
X38898Y-22830D02*
X39371Y-23303D01*
X39064Y-23610D01*
X38591Y-23137D01*
X38898Y-22830D01*
X38898Y-22830D01*
G37*
G36*
X37507Y-21439D02*
X37980Y-21912D01*
X37673Y-22219D01*
X37200Y-21746D01*
X37507Y-21439D01*
X37507Y-21439D01*
G37*
G36*
X37061Y-21884D02*
X37534Y-22357D01*
X37227Y-22664D01*
X36754Y-22191D01*
X37061Y-21884D01*
X37061Y-21884D01*
G37*
G36*
X36616Y-22330D02*
X37089Y-22803D01*
X36782Y-23110D01*
X36309Y-22637D01*
X36616Y-22330D01*
X36616Y-22330D01*
G37*
G54D18*
X39320Y-28884D03*
X39950Y-28884D03*
X40580Y-28884D03*
X40580Y-26916D03*
X39950Y-26916D03*
X39320Y-26916D03*
G54D10*
G36*
X37149Y-33247D02*
X36676Y-33720D01*
X36369Y-33413D01*
X36842Y-32940D01*
X37149Y-33247D01*
X37149Y-33247D01*
G37*
G36*
X37594Y-33693D02*
X37121Y-34166D01*
X36814Y-33859D01*
X37287Y-33386D01*
X37594Y-33693D01*
X37594Y-33693D01*
G37*
G36*
X38040Y-34138D02*
X37567Y-34611D01*
X37260Y-34304D01*
X37733Y-33831D01*
X38040Y-34138D01*
X38040Y-34138D01*
G37*
G36*
X39431Y-32747D02*
X38958Y-33220D01*
X38651Y-32913D01*
X39124Y-32440D01*
X39431Y-32747D01*
X39431Y-32747D01*
G37*
G36*
X38986Y-32301D02*
X38513Y-32774D01*
X38206Y-32467D01*
X38679Y-31994D01*
X38986Y-32301D01*
X38986Y-32301D01*
G37*
G36*
X38540Y-31856D02*
X38067Y-32329D01*
X37760Y-32022D01*
X38233Y-31549D01*
X38540Y-31856D01*
X38540Y-31856D01*
G37*
G54D19*
X31866Y-34470D03*
X31866Y-35100D03*
X31866Y-35730D03*
X33834Y-35730D03*
X33834Y-35100D03*
X33834Y-34470D03*
G54D17*
X25876Y-29950D03*
X26624Y-29950D03*
M02*
