G04 (created by PCBNEW (2013-09-20 BZR 4325)-product) date Sat 21 Sep 2013 09:12:31 AM CEST*
%MOIN*%
G04 Gerber Fmt 3.4, Leading zero omitted, Abs format*
%FSLAX34Y34*%
G01*
G70*
G90*
G04 APERTURE LIST*
%ADD10C,0.005906*%
%ADD11R,0.055118X0.070866*%
%ADD12R,0.070866X0.055118*%
%ADD13R,0.078700X0.017700*%
%ADD14R,0.017700X0.078700*%
%ADD15R,0.055000X0.055000*%
%ADD16C,0.055000*%
%ADD17C,0.086614*%
%ADD18R,0.060000X0.060000*%
%ADD19C,0.060000*%
%ADD20R,0.059000X0.051100*%
%ADD21R,0.051100X0.059000*%
G04 APERTURE END LIST*
G54D10*
G54D11*
X24850Y-28794D03*
X26149Y-28794D03*
X26149Y-26905D03*
X24850Y-26905D03*
G54D10*
G36*
X27803Y-33682D02*
X28304Y-34183D01*
X27914Y-34572D01*
X27413Y-34071D01*
X27803Y-33682D01*
X27803Y-33682D01*
G37*
G36*
X28721Y-32763D02*
X29222Y-33264D01*
X28833Y-33654D01*
X28332Y-33153D01*
X28721Y-32763D01*
X28721Y-32763D01*
G37*
G36*
X27385Y-31427D02*
X27886Y-31928D01*
X27496Y-32317D01*
X26995Y-31816D01*
X27385Y-31427D01*
X27385Y-31427D01*
G37*
G36*
X26466Y-32345D02*
X26967Y-32846D01*
X26578Y-33236D01*
X26077Y-32735D01*
X26466Y-32345D01*
X26466Y-32345D01*
G37*
G54D12*
X33694Y-35749D03*
X33694Y-34450D03*
X31805Y-34450D03*
X31805Y-35749D03*
G54D10*
G36*
X38532Y-32846D02*
X39033Y-32345D01*
X39422Y-32735D01*
X38921Y-33236D01*
X38532Y-32846D01*
X38532Y-32846D01*
G37*
G36*
X37613Y-31928D02*
X38114Y-31427D01*
X38504Y-31816D01*
X38003Y-32317D01*
X37613Y-31928D01*
X37613Y-31928D01*
G37*
G36*
X36277Y-33264D02*
X36778Y-32763D01*
X37167Y-33153D01*
X36666Y-33654D01*
X36277Y-33264D01*
X36277Y-33264D01*
G37*
G36*
X37195Y-34183D02*
X37696Y-33682D01*
X38086Y-34071D01*
X37585Y-34572D01*
X37195Y-34183D01*
X37195Y-34183D01*
G37*
G54D11*
X40649Y-26905D03*
X39350Y-26905D03*
X39350Y-28794D03*
X40649Y-28794D03*
G54D10*
G36*
X37696Y-22067D02*
X37195Y-21566D01*
X37585Y-21177D01*
X38086Y-21678D01*
X37696Y-22067D01*
X37696Y-22067D01*
G37*
G36*
X36778Y-22986D02*
X36277Y-22485D01*
X36666Y-22095D01*
X37167Y-22596D01*
X36778Y-22986D01*
X36778Y-22986D01*
G37*
G36*
X38114Y-24322D02*
X37613Y-23821D01*
X38003Y-23432D01*
X38504Y-23933D01*
X38114Y-24322D01*
X38114Y-24322D01*
G37*
G36*
X39033Y-23404D02*
X38532Y-22903D01*
X38921Y-22513D01*
X39422Y-23014D01*
X39033Y-23404D01*
X39033Y-23404D01*
G37*
G54D12*
X31805Y-19950D03*
X31805Y-21249D03*
X33694Y-21249D03*
X33694Y-19950D03*
G54D10*
G36*
X26917Y-22903D02*
X26416Y-23404D01*
X26027Y-23014D01*
X26528Y-22513D01*
X26917Y-22903D01*
X26917Y-22903D01*
G37*
G36*
X27836Y-23821D02*
X27335Y-24322D01*
X26945Y-23933D01*
X27446Y-23432D01*
X27836Y-23821D01*
X27836Y-23821D01*
G37*
G36*
X29172Y-22485D02*
X28671Y-22986D01*
X28282Y-22596D01*
X28783Y-22095D01*
X29172Y-22485D01*
X29172Y-22485D01*
G37*
G36*
X28254Y-21566D02*
X27753Y-22067D01*
X27363Y-21678D01*
X27864Y-21177D01*
X28254Y-21566D01*
X28254Y-21566D01*
G37*
G54D13*
X30854Y-28943D03*
X30854Y-28628D03*
X30854Y-28313D03*
X30854Y-27998D03*
X30854Y-27683D03*
X30854Y-27368D03*
X30854Y-27053D03*
X30854Y-26738D03*
X34620Y-26740D03*
X34620Y-28950D03*
X34620Y-28630D03*
X34620Y-28310D03*
X34620Y-28000D03*
X34620Y-27680D03*
X34620Y-27370D03*
X34620Y-27050D03*
G54D14*
X31638Y-25950D03*
X31952Y-25950D03*
X32268Y-25950D03*
X32582Y-25950D03*
X32898Y-25950D03*
X33212Y-25950D03*
X33528Y-25950D03*
X33842Y-25950D03*
X31640Y-29730D03*
X31950Y-29730D03*
X32270Y-29730D03*
X32580Y-29730D03*
X32890Y-29730D03*
X33210Y-29730D03*
X33530Y-29730D03*
X33850Y-29730D03*
G54D15*
X33750Y-23250D03*
G54D16*
X32750Y-23250D03*
X31750Y-23250D03*
G54D17*
X30050Y-30550D03*
X35450Y-30550D03*
X35450Y-25150D03*
X30050Y-25150D03*
G54D18*
X33250Y-26850D03*
G54D19*
X32250Y-26850D03*
X33250Y-27850D03*
X32250Y-27850D03*
X33250Y-28850D03*
X32250Y-28850D03*
G54D10*
G36*
X38634Y-25410D02*
X38210Y-25834D01*
X37786Y-25410D01*
X38210Y-24986D01*
X38634Y-25410D01*
X38634Y-25410D01*
G37*
G54D19*
X37503Y-24703D03*
X36796Y-23996D03*
X36089Y-23289D03*
G54D10*
G36*
X27239Y-25834D02*
X26815Y-25410D01*
X27239Y-24986D01*
X27663Y-25410D01*
X27239Y-25834D01*
X27239Y-25834D01*
G37*
G54D19*
X27946Y-24703D03*
X28653Y-23996D03*
X29360Y-23289D03*
G54D18*
X30250Y-22250D03*
G54D19*
X31250Y-22250D03*
X32250Y-22250D03*
X33250Y-22250D03*
X34250Y-22250D03*
X35250Y-22250D03*
G54D20*
X27913Y-28208D03*
X27913Y-27460D03*
X28937Y-28208D03*
X28937Y-27460D03*
G54D21*
X32376Y-24450D03*
X33124Y-24450D03*
M02*
