G04 (created by PCBNEW (2012-jan-04)-stable) date Wed 09 May 2012 08:39:58 PM CEST*
G01*
G70*
G90*
%MOIN*%
G04 Gerber Fmt 3.4, Leading zero omitted, Abs format*
%FSLAX34Y34*%
G04 APERTURE LIST*
%ADD10C,0.001000*%
%ADD11C,0.008000*%
G04 APERTURE END LIST*
G54D10*
G54D11*
X32750Y-19300D02*
X32005Y-19333D01*
X31266Y-19430D01*
X30538Y-19592D01*
X29826Y-19816D01*
X29137Y-20102D01*
X28476Y-20446D01*
X27846Y-20847D01*
X27255Y-21301D01*
X26705Y-21805D01*
X26201Y-22355D01*
X25747Y-22946D01*
X25346Y-23576D01*
X25002Y-24237D01*
X24716Y-24926D01*
X24492Y-25638D01*
X24330Y-26366D01*
X24233Y-27105D01*
X24200Y-27850D01*
X24200Y-27850D02*
X24233Y-28595D01*
X24330Y-29334D01*
X24492Y-30062D01*
X24716Y-30774D01*
X25002Y-31463D01*
X25346Y-32124D01*
X25747Y-32754D01*
X26201Y-33345D01*
X26705Y-33895D01*
X27255Y-34399D01*
X27846Y-34853D01*
X28476Y-35254D01*
X29137Y-35598D01*
X29826Y-35884D01*
X30538Y-36108D01*
X31266Y-36270D01*
X32005Y-36367D01*
X32750Y-36400D01*
X32750Y-36400D02*
X33495Y-36367D01*
X34234Y-36270D01*
X34962Y-36108D01*
X35674Y-35884D01*
X36363Y-35598D01*
X37025Y-35254D01*
X37654Y-34853D01*
X38245Y-34399D01*
X38795Y-33895D01*
X39299Y-33345D01*
X39753Y-32754D01*
X40154Y-32124D01*
X40498Y-31463D01*
X40784Y-30774D01*
X41008Y-30062D01*
X41170Y-29334D01*
X41267Y-28595D01*
X41300Y-27850D01*
X41300Y-27850D02*
X41267Y-27105D01*
X41170Y-26366D01*
X41008Y-25638D01*
X40784Y-24926D01*
X40498Y-24237D01*
X40154Y-23576D01*
X39753Y-22946D01*
X39299Y-22355D01*
X38795Y-21805D01*
X38245Y-21301D01*
X37654Y-20847D01*
X37025Y-20446D01*
X36363Y-20102D01*
X35674Y-19816D01*
X34962Y-19592D01*
X34234Y-19430D01*
X33495Y-19333D01*
X32750Y-19300D01*
G54D10*
X25398Y-28100D02*
X25528Y-28230D01*
X25528Y-28100D02*
X25398Y-28230D01*
X25991Y-29383D02*
X26121Y-29513D01*
X26121Y-29383D02*
X25991Y-29513D01*
X26528Y-31297D02*
X26658Y-31427D01*
X26658Y-31297D02*
X26528Y-31427D01*
X26549Y-24959D02*
X26679Y-25089D01*
X26679Y-24959D02*
X26549Y-25089D01*
X26594Y-24170D02*
X26724Y-24300D01*
X26724Y-24170D02*
X26594Y-24300D01*
X26735Y-26076D02*
X26865Y-26206D01*
X26865Y-26076D02*
X26735Y-26206D01*
X26797Y-31115D02*
X26927Y-31245D01*
X26927Y-31115D02*
X26797Y-31245D01*
X27011Y-30318D02*
X27141Y-30448D01*
X27141Y-30318D02*
X27011Y-30448D01*
X27451Y-22829D02*
X27581Y-22959D01*
X27581Y-22829D02*
X27451Y-22959D01*
X27735Y-25836D02*
X27865Y-25966D01*
X27865Y-25836D02*
X27735Y-25966D01*
X27786Y-30459D02*
X27916Y-30589D01*
X27916Y-30459D02*
X27786Y-30589D01*
X28007Y-26076D02*
X28137Y-26206D01*
X28137Y-26076D02*
X28007Y-26206D01*
X28151Y-29653D02*
X28281Y-29783D01*
X28281Y-29653D02*
X28151Y-29783D01*
X28457Y-30630D02*
X28587Y-30760D01*
X28587Y-30630D02*
X28457Y-30760D01*
X28499Y-34681D02*
X28629Y-34811D01*
X28629Y-34681D02*
X28499Y-34811D01*
X28659Y-21418D02*
X28789Y-21548D01*
X28789Y-21418D02*
X28659Y-21548D01*
X29465Y-31616D02*
X29595Y-31746D01*
X29595Y-31616D02*
X29465Y-31746D01*
X29952Y-27537D02*
X30082Y-27667D01*
X30082Y-27537D02*
X29952Y-27667D01*
X30110Y-21571D02*
X30240Y-21701D01*
X30240Y-21571D02*
X30110Y-21701D01*
X30579Y-34127D02*
X30709Y-34257D01*
X30709Y-34127D02*
X30579Y-34257D01*
X30676Y-29682D02*
X30806Y-29812D01*
X30806Y-29682D02*
X30676Y-29812D01*
X30685Y-21641D02*
X30815Y-21771D01*
X30815Y-21641D02*
X30685Y-21771D01*
X30889Y-33429D02*
X31019Y-33559D01*
X31019Y-33429D02*
X30889Y-33559D01*
X30920Y-24548D02*
X31050Y-24678D01*
X31050Y-24548D02*
X30920Y-24678D01*
X31015Y-23579D02*
X31145Y-23709D01*
X31145Y-23579D02*
X31015Y-23709D01*
X31091Y-33986D02*
X31221Y-34116D01*
X31221Y-33986D02*
X31091Y-34116D01*
X31209Y-20291D02*
X31339Y-20421D01*
X31339Y-20291D02*
X31209Y-20421D01*
X31264Y-20849D02*
X31394Y-20979D01*
X31394Y-20849D02*
X31264Y-20979D01*
X31283Y-24766D02*
X31413Y-24896D01*
X31413Y-24766D02*
X31283Y-24896D01*
X31360Y-25346D02*
X31490Y-25476D01*
X31490Y-25346D02*
X31360Y-25476D01*
X31501Y-31074D02*
X31631Y-31204D01*
X31631Y-31074D02*
X31501Y-31204D01*
X31522Y-23796D02*
X31652Y-23926D01*
X31652Y-23796D02*
X31522Y-23926D01*
X31692Y-26707D02*
X31822Y-26837D01*
X31822Y-26707D02*
X31692Y-26837D01*
X33126Y-34987D02*
X33256Y-35117D01*
X33256Y-34987D02*
X33126Y-35117D01*
X33461Y-21597D02*
X33591Y-21727D01*
X33591Y-21597D02*
X33461Y-21727D01*
X34306Y-34501D02*
X34436Y-34631D01*
X34436Y-34501D02*
X34306Y-34631D01*
X34342Y-33599D02*
X34472Y-33729D01*
X34472Y-33599D02*
X34342Y-33729D01*
X34380Y-20502D02*
X34510Y-20632D01*
X34510Y-20502D02*
X34380Y-20632D01*
X34609Y-21603D02*
X34739Y-21733D01*
X34739Y-21603D02*
X34609Y-21733D01*
X34764Y-20505D02*
X34894Y-20635D01*
X34894Y-20505D02*
X34764Y-20635D01*
X34864Y-34205D02*
X34994Y-34335D01*
X34994Y-34205D02*
X34864Y-34335D01*
X35067Y-21677D02*
X35197Y-21807D01*
X35197Y-21677D02*
X35067Y-21807D01*
X35568Y-33178D02*
X35698Y-33308D01*
X35698Y-33178D02*
X35568Y-33308D01*
X35837Y-27810D02*
X35967Y-27940D01*
X35967Y-27810D02*
X35837Y-27940D01*
X36336Y-33703D02*
X36466Y-33833D01*
X36466Y-33703D02*
X36336Y-33833D01*
X36492Y-21212D02*
X36622Y-21342D01*
X36622Y-21212D02*
X36492Y-21342D01*
X36661Y-34539D02*
X36791Y-34669D01*
X36791Y-34539D02*
X36661Y-34669D01*
X36990Y-21125D02*
X37120Y-21255D01*
X37120Y-21125D02*
X36990Y-21255D01*
X37239Y-29709D02*
X37369Y-29839D01*
X37369Y-29709D02*
X37239Y-29839D01*
X37500Y-22452D02*
X37630Y-22582D01*
X37630Y-22452D02*
X37500Y-22582D01*
X37816Y-29394D02*
X37946Y-29524D01*
X37946Y-29394D02*
X37816Y-29524D01*
X38280Y-29436D02*
X38410Y-29566D01*
X38410Y-29436D02*
X38280Y-29566D01*
X38601Y-31037D02*
X38731Y-31167D01*
X38731Y-31037D02*
X38601Y-31167D01*
X38607Y-31356D02*
X38737Y-31486D01*
X38737Y-31356D02*
X38607Y-31486D01*
X38761Y-25793D02*
X38891Y-25923D01*
X38891Y-25793D02*
X38761Y-25923D01*
X38856Y-29930D02*
X38986Y-30060D01*
X38986Y-29930D02*
X38856Y-30060D01*
X38949Y-25345D02*
X39079Y-25475D01*
X39079Y-25345D02*
X38949Y-25475D01*
X39081Y-31830D02*
X39211Y-31960D01*
X39211Y-31830D02*
X39081Y-31960D01*
X39292Y-32352D02*
X39422Y-32482D01*
X39422Y-32352D02*
X39292Y-32482D01*
X39385Y-31635D02*
X39515Y-31765D01*
X39515Y-31635D02*
X39385Y-31765D01*
X39585Y-26133D02*
X39715Y-26263D01*
X39715Y-26133D02*
X39585Y-26263D01*
X39891Y-27467D02*
X40021Y-27597D01*
X40021Y-27467D02*
X39891Y-27597D01*
X39918Y-29819D02*
X40048Y-29949D01*
X40048Y-29819D02*
X39918Y-29949D01*
X40317Y-29415D02*
X40447Y-29545D01*
X40447Y-29415D02*
X40317Y-29545D01*
X26389Y-32240D02*
X26386Y-32264D01*
X26379Y-32287D01*
X26368Y-32309D01*
X26352Y-32328D01*
X26333Y-32343D01*
X26312Y-32355D01*
X26289Y-32362D01*
X26264Y-32364D01*
X26241Y-32362D01*
X26218Y-32355D01*
X26196Y-32344D01*
X26177Y-32329D01*
X26161Y-32310D01*
X26150Y-32289D01*
X26142Y-32265D01*
X26140Y-32241D01*
X26142Y-32218D01*
X26148Y-32194D01*
X26159Y-32173D01*
X26175Y-32154D01*
X26193Y-32138D01*
X26214Y-32126D01*
X26238Y-32118D01*
X26262Y-32116D01*
X26285Y-32117D01*
X26309Y-32124D01*
X26330Y-32135D01*
X26350Y-32150D01*
X26366Y-32168D01*
X26378Y-32190D01*
X26385Y-32213D01*
X26388Y-32237D01*
X26389Y-32240D01*
X33994Y-27680D02*
X33991Y-27704D01*
X33984Y-27727D01*
X33973Y-27749D01*
X33957Y-27768D01*
X33938Y-27783D01*
X33917Y-27795D01*
X33894Y-27802D01*
X33869Y-27804D01*
X33846Y-27802D01*
X33823Y-27795D01*
X33801Y-27784D01*
X33782Y-27769D01*
X33766Y-27750D01*
X33755Y-27729D01*
X33747Y-27705D01*
X33745Y-27681D01*
X33747Y-27658D01*
X33753Y-27634D01*
X33764Y-27613D01*
X33780Y-27594D01*
X33798Y-27578D01*
X33819Y-27566D01*
X33843Y-27558D01*
X33867Y-27556D01*
X33890Y-27557D01*
X33914Y-27564D01*
X33935Y-27575D01*
X33955Y-27590D01*
X33971Y-27608D01*
X33983Y-27630D01*
X33990Y-27653D01*
X33993Y-27677D01*
X33994Y-27680D01*
X34825Y-23500D02*
X34822Y-23524D01*
X34815Y-23547D01*
X34804Y-23569D01*
X34788Y-23588D01*
X34769Y-23603D01*
X34748Y-23615D01*
X34725Y-23622D01*
X34700Y-23624D01*
X34677Y-23622D01*
X34654Y-23615D01*
X34632Y-23604D01*
X34613Y-23589D01*
X34597Y-23570D01*
X34586Y-23549D01*
X34578Y-23525D01*
X34576Y-23501D01*
X34578Y-23478D01*
X34584Y-23454D01*
X34595Y-23433D01*
X34611Y-23414D01*
X34629Y-23398D01*
X34650Y-23386D01*
X34674Y-23378D01*
X34698Y-23376D01*
X34721Y-23377D01*
X34745Y-23384D01*
X34766Y-23395D01*
X34786Y-23410D01*
X34802Y-23428D01*
X34814Y-23450D01*
X34821Y-23473D01*
X34824Y-23497D01*
X34825Y-23500D01*
X35880Y-22669D02*
X35877Y-22693D01*
X35870Y-22716D01*
X35859Y-22738D01*
X35843Y-22757D01*
X35824Y-22772D01*
X35803Y-22784D01*
X35780Y-22791D01*
X35755Y-22793D01*
X35732Y-22791D01*
X35709Y-22784D01*
X35687Y-22773D01*
X35668Y-22758D01*
X35652Y-22739D01*
X35641Y-22718D01*
X35633Y-22694D01*
X35631Y-22670D01*
X35633Y-22647D01*
X35639Y-22623D01*
X35650Y-22602D01*
X35666Y-22583D01*
X35684Y-22567D01*
X35705Y-22555D01*
X35729Y-22547D01*
X35753Y-22545D01*
X35776Y-22546D01*
X35800Y-22553D01*
X35821Y-22564D01*
X35841Y-22579D01*
X35857Y-22597D01*
X35869Y-22619D01*
X35876Y-22642D01*
X35879Y-22666D01*
X35880Y-22669D01*
X37004Y-26154D02*
X37001Y-26178D01*
X36994Y-26201D01*
X36983Y-26223D01*
X36967Y-26242D01*
X36948Y-26257D01*
X36927Y-26269D01*
X36904Y-26276D01*
X36879Y-26278D01*
X36856Y-26276D01*
X36833Y-26269D01*
X36811Y-26258D01*
X36792Y-26243D01*
X36776Y-26224D01*
X36765Y-26203D01*
X36757Y-26179D01*
X36755Y-26155D01*
X36757Y-26132D01*
X36763Y-26108D01*
X36774Y-26087D01*
X36790Y-26068D01*
X36808Y-26052D01*
X36829Y-26040D01*
X36853Y-26032D01*
X36877Y-26030D01*
X36900Y-26031D01*
X36924Y-26038D01*
X36945Y-26049D01*
X36965Y-26064D01*
X36981Y-26082D01*
X36993Y-26104D01*
X37000Y-26127D01*
X37003Y-26151D01*
X37004Y-26154D01*
X37064Y-24887D02*
X37061Y-24911D01*
X37054Y-24934D01*
X37043Y-24956D01*
X37027Y-24975D01*
X37008Y-24990D01*
X36987Y-25002D01*
X36964Y-25009D01*
X36939Y-25011D01*
X36916Y-25009D01*
X36893Y-25002D01*
X36871Y-24991D01*
X36852Y-24976D01*
X36836Y-24957D01*
X36825Y-24936D01*
X36817Y-24912D01*
X36815Y-24888D01*
X36817Y-24865D01*
X36823Y-24841D01*
X36834Y-24820D01*
X36850Y-24801D01*
X36868Y-24785D01*
X36889Y-24773D01*
X36913Y-24765D01*
X36937Y-24763D01*
X36960Y-24764D01*
X36984Y-24771D01*
X37005Y-24782D01*
X37025Y-24797D01*
X37041Y-24815D01*
X37053Y-24837D01*
X37060Y-24860D01*
X37063Y-24884D01*
X37064Y-24887D01*
X27239Y-25251D02*
X27239Y-25571D01*
X27399Y-25411D02*
X27079Y-25411D01*
X27946Y-24544D02*
X27946Y-24864D01*
X28106Y-24704D02*
X27786Y-24704D01*
X28654Y-23836D02*
X28654Y-24156D01*
X28814Y-23996D02*
X28494Y-23996D01*
X29361Y-23129D02*
X29361Y-23449D01*
X29521Y-23289D02*
X29201Y-23289D01*
X30250Y-22090D02*
X30250Y-22410D01*
X30410Y-22250D02*
X30090Y-22250D01*
X31250Y-22090D02*
X31250Y-22410D01*
X31410Y-22250D02*
X31090Y-22250D01*
X31750Y-23090D02*
X31750Y-23410D01*
X31910Y-23250D02*
X31590Y-23250D01*
X32250Y-22090D02*
X32250Y-22410D01*
X32410Y-22250D02*
X32090Y-22250D01*
X32750Y-23090D02*
X32750Y-23410D01*
X32910Y-23250D02*
X32590Y-23250D01*
X33250Y-22090D02*
X33250Y-22410D01*
X33410Y-22250D02*
X33090Y-22250D01*
X33750Y-23090D02*
X33750Y-23410D01*
X33910Y-23250D02*
X33590Y-23250D01*
X34250Y-22090D02*
X34250Y-22410D01*
X34410Y-22250D02*
X34090Y-22250D01*
X35250Y-22090D02*
X35250Y-22410D01*
X35410Y-22250D02*
X35090Y-22250D01*
X36089Y-23129D02*
X36089Y-23449D01*
X36249Y-23289D02*
X35929Y-23289D01*
X36796Y-23836D02*
X36796Y-24156D01*
X36956Y-23996D02*
X36636Y-23996D01*
X37504Y-24544D02*
X37504Y-24864D01*
X37664Y-24704D02*
X37344Y-24704D01*
X38211Y-25251D02*
X38211Y-25571D01*
X38371Y-25411D02*
X38051Y-25411D01*
X32450Y-26850D02*
X32446Y-26888D01*
X32434Y-26926D01*
X32416Y-26960D01*
X32391Y-26990D01*
X32361Y-27015D01*
X32327Y-27034D01*
X32290Y-27045D01*
X32251Y-27049D01*
X32213Y-27046D01*
X32176Y-27035D01*
X32141Y-27017D01*
X32111Y-26992D01*
X32085Y-26962D01*
X32067Y-26928D01*
X32055Y-26891D01*
X32051Y-26852D01*
X32054Y-26814D01*
X32065Y-26777D01*
X32082Y-26742D01*
X32107Y-26712D01*
X32136Y-26686D01*
X32170Y-26667D01*
X32208Y-26655D01*
X32246Y-26651D01*
X32284Y-26654D01*
X32322Y-26664D01*
X32357Y-26682D01*
X32387Y-26706D01*
X32413Y-26735D01*
X32432Y-26769D01*
X32445Y-26806D01*
X32449Y-26845D01*
X32450Y-26850D01*
X32050Y-26650D02*
X32450Y-27050D01*
X32450Y-26650D02*
X32050Y-27050D01*
X32450Y-27850D02*
X32446Y-27888D01*
X32434Y-27926D01*
X32416Y-27960D01*
X32391Y-27990D01*
X32361Y-28015D01*
X32327Y-28034D01*
X32290Y-28045D01*
X32251Y-28049D01*
X32213Y-28046D01*
X32176Y-28035D01*
X32141Y-28017D01*
X32111Y-27992D01*
X32085Y-27962D01*
X32067Y-27928D01*
X32055Y-27891D01*
X32051Y-27852D01*
X32054Y-27814D01*
X32065Y-27777D01*
X32082Y-27742D01*
X32107Y-27712D01*
X32136Y-27686D01*
X32170Y-27667D01*
X32208Y-27655D01*
X32246Y-27651D01*
X32284Y-27654D01*
X32322Y-27664D01*
X32357Y-27682D01*
X32387Y-27706D01*
X32413Y-27735D01*
X32432Y-27769D01*
X32445Y-27806D01*
X32449Y-27845D01*
X32450Y-27850D01*
X32050Y-27650D02*
X32450Y-28050D01*
X32450Y-27650D02*
X32050Y-28050D01*
X32450Y-28850D02*
X32446Y-28888D01*
X32434Y-28926D01*
X32416Y-28960D01*
X32391Y-28990D01*
X32361Y-29015D01*
X32327Y-29034D01*
X32290Y-29045D01*
X32251Y-29049D01*
X32213Y-29046D01*
X32176Y-29035D01*
X32141Y-29017D01*
X32111Y-28992D01*
X32085Y-28962D01*
X32067Y-28928D01*
X32055Y-28891D01*
X32051Y-28852D01*
X32054Y-28814D01*
X32065Y-28777D01*
X32082Y-28742D01*
X32107Y-28712D01*
X32136Y-28686D01*
X32170Y-28667D01*
X32208Y-28655D01*
X32246Y-28651D01*
X32284Y-28654D01*
X32322Y-28664D01*
X32357Y-28682D01*
X32387Y-28706D01*
X32413Y-28735D01*
X32432Y-28769D01*
X32445Y-28806D01*
X32449Y-28845D01*
X32450Y-28850D01*
X32050Y-28650D02*
X32450Y-29050D01*
X32450Y-28650D02*
X32050Y-29050D01*
X33450Y-26850D02*
X33446Y-26888D01*
X33434Y-26926D01*
X33416Y-26960D01*
X33391Y-26990D01*
X33361Y-27015D01*
X33327Y-27034D01*
X33290Y-27045D01*
X33251Y-27049D01*
X33213Y-27046D01*
X33176Y-27035D01*
X33141Y-27017D01*
X33111Y-26992D01*
X33085Y-26962D01*
X33067Y-26928D01*
X33055Y-26891D01*
X33051Y-26852D01*
X33054Y-26814D01*
X33065Y-26777D01*
X33082Y-26742D01*
X33107Y-26712D01*
X33136Y-26686D01*
X33170Y-26667D01*
X33208Y-26655D01*
X33246Y-26651D01*
X33284Y-26654D01*
X33322Y-26664D01*
X33357Y-26682D01*
X33387Y-26706D01*
X33413Y-26735D01*
X33432Y-26769D01*
X33445Y-26806D01*
X33449Y-26845D01*
X33450Y-26850D01*
X33050Y-26650D02*
X33450Y-27050D01*
X33450Y-26650D02*
X33050Y-27050D01*
X33450Y-27850D02*
X33446Y-27888D01*
X33434Y-27926D01*
X33416Y-27960D01*
X33391Y-27990D01*
X33361Y-28015D01*
X33327Y-28034D01*
X33290Y-28045D01*
X33251Y-28049D01*
X33213Y-28046D01*
X33176Y-28035D01*
X33141Y-28017D01*
X33111Y-27992D01*
X33085Y-27962D01*
X33067Y-27928D01*
X33055Y-27891D01*
X33051Y-27852D01*
X33054Y-27814D01*
X33065Y-27777D01*
X33082Y-27742D01*
X33107Y-27712D01*
X33136Y-27686D01*
X33170Y-27667D01*
X33208Y-27655D01*
X33246Y-27651D01*
X33284Y-27654D01*
X33322Y-27664D01*
X33357Y-27682D01*
X33387Y-27706D01*
X33413Y-27735D01*
X33432Y-27769D01*
X33445Y-27806D01*
X33449Y-27845D01*
X33450Y-27850D01*
X33050Y-27650D02*
X33450Y-28050D01*
X33450Y-27650D02*
X33050Y-28050D01*
X33450Y-28850D02*
X33446Y-28888D01*
X33434Y-28926D01*
X33416Y-28960D01*
X33391Y-28990D01*
X33361Y-29015D01*
X33327Y-29034D01*
X33290Y-29045D01*
X33251Y-29049D01*
X33213Y-29046D01*
X33176Y-29035D01*
X33141Y-29017D01*
X33111Y-28992D01*
X33085Y-28962D01*
X33067Y-28928D01*
X33055Y-28891D01*
X33051Y-28852D01*
X33054Y-28814D01*
X33065Y-28777D01*
X33082Y-28742D01*
X33107Y-28712D01*
X33136Y-28686D01*
X33170Y-28667D01*
X33208Y-28655D01*
X33246Y-28651D01*
X33284Y-28654D01*
X33322Y-28664D01*
X33357Y-28682D01*
X33387Y-28706D01*
X33413Y-28735D01*
X33432Y-28769D01*
X33445Y-28806D01*
X33449Y-28845D01*
X33450Y-28850D01*
X33050Y-28650D02*
X33450Y-29050D01*
X33450Y-28650D02*
X33050Y-29050D01*
X30483Y-25150D02*
X30474Y-25234D01*
X30450Y-25315D01*
X30410Y-25389D01*
X30357Y-25455D01*
X30292Y-25508D01*
X30217Y-25549D01*
X30137Y-25574D01*
X30053Y-25582D01*
X29969Y-25575D01*
X29888Y-25551D01*
X29813Y-25512D01*
X29748Y-25459D01*
X29693Y-25394D01*
X29653Y-25320D01*
X29627Y-25240D01*
X29618Y-25156D01*
X29625Y-25072D01*
X29648Y-24991D01*
X29687Y-24916D01*
X29739Y-24850D01*
X29803Y-24795D01*
X29877Y-24754D01*
X29958Y-24728D01*
X30041Y-24718D01*
X30125Y-24724D01*
X30206Y-24747D01*
X30282Y-24785D01*
X30348Y-24837D01*
X30403Y-24901D01*
X30445Y-24974D01*
X30472Y-25055D01*
X30482Y-25138D01*
X30483Y-25150D01*
X29617Y-25150D02*
X30483Y-25150D01*
X30483Y-30550D02*
X30474Y-30634D01*
X30450Y-30715D01*
X30410Y-30789D01*
X30357Y-30855D01*
X30292Y-30908D01*
X30217Y-30949D01*
X30137Y-30974D01*
X30053Y-30982D01*
X29969Y-30975D01*
X29888Y-30951D01*
X29813Y-30912D01*
X29748Y-30859D01*
X29693Y-30794D01*
X29653Y-30720D01*
X29627Y-30640D01*
X29618Y-30556D01*
X29625Y-30472D01*
X29648Y-30391D01*
X29687Y-30316D01*
X29739Y-30250D01*
X29803Y-30195D01*
X29877Y-30154D01*
X29958Y-30128D01*
X30041Y-30118D01*
X30125Y-30124D01*
X30206Y-30147D01*
X30282Y-30185D01*
X30348Y-30237D01*
X30403Y-30301D01*
X30445Y-30374D01*
X30472Y-30455D01*
X30482Y-30538D01*
X30483Y-30550D01*
X29617Y-30550D02*
X30483Y-30550D01*
X35883Y-25150D02*
X35874Y-25234D01*
X35850Y-25315D01*
X35810Y-25389D01*
X35757Y-25455D01*
X35692Y-25508D01*
X35617Y-25549D01*
X35537Y-25574D01*
X35453Y-25582D01*
X35369Y-25575D01*
X35288Y-25551D01*
X35213Y-25512D01*
X35148Y-25459D01*
X35093Y-25394D01*
X35053Y-25320D01*
X35027Y-25240D01*
X35018Y-25156D01*
X35025Y-25072D01*
X35048Y-24991D01*
X35087Y-24916D01*
X35139Y-24850D01*
X35203Y-24795D01*
X35277Y-24754D01*
X35358Y-24728D01*
X35441Y-24718D01*
X35525Y-24724D01*
X35606Y-24747D01*
X35682Y-24785D01*
X35748Y-24837D01*
X35803Y-24901D01*
X35845Y-24974D01*
X35872Y-25055D01*
X35882Y-25138D01*
X35883Y-25150D01*
X35017Y-25150D02*
X35883Y-25150D01*
X35883Y-30550D02*
X35874Y-30634D01*
X35850Y-30715D01*
X35810Y-30789D01*
X35757Y-30855D01*
X35692Y-30908D01*
X35617Y-30949D01*
X35537Y-30974D01*
X35453Y-30982D01*
X35369Y-30975D01*
X35288Y-30951D01*
X35213Y-30912D01*
X35148Y-30859D01*
X35093Y-30794D01*
X35053Y-30720D01*
X35027Y-30640D01*
X35018Y-30556D01*
X35025Y-30472D01*
X35048Y-30391D01*
X35087Y-30316D01*
X35139Y-30250D01*
X35203Y-30195D01*
X35277Y-30154D01*
X35358Y-30128D01*
X35441Y-30118D01*
X35525Y-30124D01*
X35606Y-30147D01*
X35682Y-30185D01*
X35748Y-30237D01*
X35803Y-30301D01*
X35845Y-30374D01*
X35872Y-30455D01*
X35882Y-30538D01*
X35883Y-30550D01*
X35017Y-30550D02*
X35883Y-30550D01*
G54D11*
X21375Y-40769D02*
X21375Y-39969D01*
X21566Y-39969D01*
X21680Y-40007D01*
X21756Y-40083D01*
X21795Y-40159D01*
X21833Y-40312D01*
X21833Y-40426D01*
X21795Y-40578D01*
X21756Y-40655D01*
X21680Y-40731D01*
X21566Y-40769D01*
X21375Y-40769D01*
X22175Y-40769D02*
X22175Y-40235D01*
X22175Y-40388D02*
X22214Y-40312D01*
X22252Y-40274D01*
X22328Y-40235D01*
X22404Y-40235D01*
X22670Y-40769D02*
X22670Y-40235D01*
X22670Y-39969D02*
X22632Y-40007D01*
X22670Y-40045D01*
X22709Y-40007D01*
X22670Y-39969D01*
X22670Y-40045D01*
X23166Y-40769D02*
X23090Y-40731D01*
X23051Y-40655D01*
X23051Y-39969D01*
X23585Y-40769D02*
X23509Y-40731D01*
X23470Y-40655D01*
X23470Y-39969D01*
X24499Y-40769D02*
X24499Y-39969D01*
X24766Y-40540D01*
X25033Y-39969D01*
X25033Y-40769D01*
X25756Y-40769D02*
X25756Y-40350D01*
X25718Y-40274D01*
X25642Y-40235D01*
X25490Y-40235D01*
X25413Y-40274D01*
X25756Y-40731D02*
X25680Y-40769D01*
X25490Y-40769D01*
X25413Y-40731D01*
X25375Y-40655D01*
X25375Y-40578D01*
X25413Y-40502D01*
X25490Y-40464D01*
X25680Y-40464D01*
X25756Y-40426D01*
X26137Y-40235D02*
X26137Y-41035D01*
X26137Y-40274D02*
X26214Y-40235D01*
X26366Y-40235D01*
X26442Y-40274D01*
X26480Y-40312D01*
X26518Y-40388D01*
X26518Y-40616D01*
X26480Y-40693D01*
X26442Y-40731D01*
X26366Y-40769D01*
X26214Y-40769D01*
X26137Y-40731D01*
X26861Y-40693D02*
X26900Y-40731D01*
X26861Y-40769D01*
X26823Y-40731D01*
X26861Y-40693D01*
X26861Y-40769D01*
X26861Y-40274D02*
X26900Y-40312D01*
X26861Y-40350D01*
X26823Y-40312D01*
X26861Y-40274D01*
X26861Y-40350D01*
X20855Y-42060D02*
X20985Y-42190D01*
X20985Y-42060D02*
X20855Y-42190D01*
X21528Y-41649D02*
X21604Y-41649D01*
X21680Y-41687D01*
X21718Y-41725D01*
X21756Y-41801D01*
X21795Y-41954D01*
X21795Y-42144D01*
X21756Y-42296D01*
X21718Y-42373D01*
X21680Y-42411D01*
X21604Y-42449D01*
X21528Y-42449D01*
X21452Y-42411D01*
X21414Y-42373D01*
X21375Y-42296D01*
X21337Y-42144D01*
X21337Y-41954D01*
X21375Y-41801D01*
X21414Y-41725D01*
X21452Y-41687D01*
X21528Y-41649D01*
X22137Y-42373D02*
X22176Y-42411D01*
X22137Y-42449D01*
X22099Y-42411D01*
X22137Y-42373D01*
X22137Y-42449D01*
X22671Y-41649D02*
X22747Y-41649D01*
X22823Y-41687D01*
X22861Y-41725D01*
X22899Y-41801D01*
X22938Y-41954D01*
X22938Y-42144D01*
X22899Y-42296D01*
X22861Y-42373D01*
X22823Y-42411D01*
X22747Y-42449D01*
X22671Y-42449D01*
X22595Y-42411D01*
X22557Y-42373D01*
X22518Y-42296D01*
X22480Y-42144D01*
X22480Y-41954D01*
X22518Y-41801D01*
X22557Y-41725D01*
X22595Y-41687D01*
X22671Y-41649D01*
X23700Y-42449D02*
X23242Y-42449D01*
X23471Y-42449D02*
X23471Y-41649D01*
X23395Y-41763D01*
X23319Y-41839D01*
X23242Y-41877D01*
X23966Y-41649D02*
X24462Y-41649D01*
X24195Y-41954D01*
X24309Y-41954D01*
X24385Y-41992D01*
X24423Y-42030D01*
X24462Y-42106D01*
X24462Y-42296D01*
X24423Y-42373D01*
X24385Y-42411D01*
X24309Y-42449D01*
X24081Y-42449D01*
X24004Y-42411D01*
X23966Y-42373D01*
X24766Y-41649D02*
X24766Y-41801D01*
X25071Y-41649D02*
X25071Y-41801D01*
X26596Y-41611D02*
X25910Y-42639D01*
X27625Y-41649D02*
X27701Y-41649D01*
X27777Y-41687D01*
X27815Y-41725D01*
X27853Y-41801D01*
X27892Y-41954D01*
X27892Y-42144D01*
X27853Y-42296D01*
X27815Y-42373D01*
X27777Y-42411D01*
X27701Y-42449D01*
X27625Y-42449D01*
X27549Y-42411D01*
X27511Y-42373D01*
X27472Y-42296D01*
X27434Y-42144D01*
X27434Y-41954D01*
X27472Y-41801D01*
X27511Y-41725D01*
X27549Y-41687D01*
X27625Y-41649D01*
X28234Y-42373D02*
X28273Y-42411D01*
X28234Y-42449D01*
X28196Y-42411D01*
X28234Y-42373D01*
X28234Y-42449D01*
X28539Y-41649D02*
X29035Y-41649D01*
X28768Y-41954D01*
X28882Y-41954D01*
X28958Y-41992D01*
X28996Y-42030D01*
X29035Y-42106D01*
X29035Y-42296D01*
X28996Y-42373D01*
X28958Y-42411D01*
X28882Y-42449D01*
X28654Y-42449D01*
X28577Y-42411D01*
X28539Y-42373D01*
X29301Y-41649D02*
X29797Y-41649D01*
X29530Y-41954D01*
X29644Y-41954D01*
X29720Y-41992D01*
X29758Y-42030D01*
X29797Y-42106D01*
X29797Y-42296D01*
X29758Y-42373D01*
X29720Y-42411D01*
X29644Y-42449D01*
X29416Y-42449D01*
X29339Y-42411D01*
X29301Y-42373D01*
X30139Y-42449D02*
X30139Y-41915D01*
X30139Y-41992D02*
X30178Y-41954D01*
X30254Y-41915D01*
X30368Y-41915D01*
X30444Y-41954D01*
X30482Y-42030D01*
X30482Y-42449D01*
X30482Y-42030D02*
X30520Y-41954D01*
X30597Y-41915D01*
X30711Y-41915D01*
X30787Y-41954D01*
X30825Y-42030D01*
X30825Y-42449D01*
X31206Y-42449D02*
X31206Y-41915D01*
X31206Y-41992D02*
X31245Y-41954D01*
X31321Y-41915D01*
X31435Y-41915D01*
X31511Y-41954D01*
X31549Y-42030D01*
X31549Y-42449D01*
X31549Y-42030D02*
X31587Y-41954D01*
X31664Y-41915D01*
X31778Y-41915D01*
X31854Y-41954D01*
X31892Y-42030D01*
X31892Y-42449D01*
X33112Y-42754D02*
X33074Y-42715D01*
X32998Y-42601D01*
X32960Y-42525D01*
X32922Y-42411D01*
X32883Y-42220D01*
X32883Y-42068D01*
X32922Y-41877D01*
X32960Y-41763D01*
X32998Y-41687D01*
X33074Y-41573D01*
X33112Y-41535D01*
X33759Y-41649D02*
X33607Y-41649D01*
X33531Y-41687D01*
X33493Y-41725D01*
X33416Y-41839D01*
X33378Y-41992D01*
X33378Y-42296D01*
X33416Y-42373D01*
X33455Y-42411D01*
X33531Y-42449D01*
X33683Y-42449D01*
X33759Y-42411D01*
X33797Y-42373D01*
X33836Y-42296D01*
X33836Y-42106D01*
X33797Y-42030D01*
X33759Y-41992D01*
X33683Y-41954D01*
X33531Y-41954D01*
X33455Y-41992D01*
X33416Y-42030D01*
X33378Y-42106D01*
X34521Y-41915D02*
X34521Y-42449D01*
X34331Y-41611D02*
X34140Y-42182D01*
X34636Y-42182D01*
X35550Y-42449D02*
X35550Y-41649D01*
X35893Y-42449D02*
X35893Y-42030D01*
X35855Y-41954D01*
X35779Y-41915D01*
X35665Y-41915D01*
X35589Y-41954D01*
X35550Y-41992D01*
X36389Y-42449D02*
X36313Y-42411D01*
X36274Y-42373D01*
X36236Y-42296D01*
X36236Y-42068D01*
X36274Y-41992D01*
X36313Y-41954D01*
X36389Y-41915D01*
X36503Y-41915D01*
X36579Y-41954D01*
X36617Y-41992D01*
X36655Y-42068D01*
X36655Y-42296D01*
X36617Y-42373D01*
X36579Y-42411D01*
X36503Y-42449D01*
X36389Y-42449D01*
X37113Y-42449D02*
X37037Y-42411D01*
X36998Y-42335D01*
X36998Y-41649D01*
X37722Y-42411D02*
X37646Y-42449D01*
X37494Y-42449D01*
X37417Y-42411D01*
X37379Y-42335D01*
X37379Y-42030D01*
X37417Y-41954D01*
X37494Y-41915D01*
X37646Y-41915D01*
X37722Y-41954D01*
X37760Y-42030D01*
X37760Y-42106D01*
X37379Y-42182D01*
X38065Y-42411D02*
X38142Y-42449D01*
X38294Y-42449D01*
X38370Y-42411D01*
X38408Y-42335D01*
X38408Y-42296D01*
X38370Y-42220D01*
X38294Y-42182D01*
X38180Y-42182D01*
X38103Y-42144D01*
X38065Y-42068D01*
X38065Y-42030D01*
X38103Y-41954D01*
X38180Y-41915D01*
X38294Y-41915D01*
X38370Y-41954D01*
X38675Y-42754D02*
X38713Y-42715D01*
X38790Y-42601D01*
X38828Y-42525D01*
X38866Y-42411D01*
X38904Y-42220D01*
X38904Y-42068D01*
X38866Y-41877D01*
X38828Y-41763D01*
X38790Y-41687D01*
X38713Y-41573D01*
X38675Y-41535D01*
G54D10*
X20985Y-43180D02*
X20982Y-43204D01*
X20975Y-43227D01*
X20964Y-43249D01*
X20948Y-43268D01*
X20929Y-43283D01*
X20908Y-43295D01*
X20885Y-43302D01*
X20860Y-43304D01*
X20837Y-43302D01*
X20814Y-43295D01*
X20792Y-43284D01*
X20773Y-43269D01*
X20757Y-43250D01*
X20746Y-43229D01*
X20738Y-43205D01*
X20736Y-43181D01*
X20738Y-43158D01*
X20744Y-43134D01*
X20755Y-43113D01*
X20771Y-43094D01*
X20789Y-43078D01*
X20810Y-43066D01*
X20834Y-43058D01*
X20858Y-43056D01*
X20881Y-43057D01*
X20905Y-43064D01*
X20926Y-43075D01*
X20946Y-43090D01*
X20962Y-43108D01*
X20974Y-43130D01*
X20981Y-43153D01*
X20984Y-43177D01*
X20985Y-43180D01*
G54D11*
X21528Y-42704D02*
X21604Y-42704D01*
X21680Y-42742D01*
X21718Y-42780D01*
X21756Y-42856D01*
X21795Y-43009D01*
X21795Y-43199D01*
X21756Y-43351D01*
X21718Y-43428D01*
X21680Y-43466D01*
X21604Y-43504D01*
X21528Y-43504D01*
X21452Y-43466D01*
X21414Y-43428D01*
X21375Y-43351D01*
X21337Y-43199D01*
X21337Y-43009D01*
X21375Y-42856D01*
X21414Y-42780D01*
X21452Y-42742D01*
X21528Y-42704D01*
X22137Y-43428D02*
X22176Y-43466D01*
X22137Y-43504D01*
X22099Y-43466D01*
X22137Y-43428D01*
X22137Y-43504D01*
X22671Y-42704D02*
X22747Y-42704D01*
X22823Y-42742D01*
X22861Y-42780D01*
X22899Y-42856D01*
X22938Y-43009D01*
X22938Y-43199D01*
X22899Y-43351D01*
X22861Y-43428D01*
X22823Y-43466D01*
X22747Y-43504D01*
X22671Y-43504D01*
X22595Y-43466D01*
X22557Y-43428D01*
X22518Y-43351D01*
X22480Y-43199D01*
X22480Y-43009D01*
X22518Y-42856D01*
X22557Y-42780D01*
X22595Y-42742D01*
X22671Y-42704D01*
X23242Y-42780D02*
X23280Y-42742D01*
X23357Y-42704D01*
X23547Y-42704D01*
X23623Y-42742D01*
X23661Y-42780D01*
X23700Y-42856D01*
X23700Y-42932D01*
X23661Y-43047D01*
X23204Y-43504D01*
X23700Y-43504D01*
X24423Y-42704D02*
X24042Y-42704D01*
X24004Y-43085D01*
X24042Y-43047D01*
X24119Y-43009D01*
X24309Y-43009D01*
X24385Y-43047D01*
X24423Y-43085D01*
X24462Y-43161D01*
X24462Y-43351D01*
X24423Y-43428D01*
X24385Y-43466D01*
X24309Y-43504D01*
X24119Y-43504D01*
X24042Y-43466D01*
X24004Y-43428D01*
X24766Y-42704D02*
X24766Y-42856D01*
X25071Y-42704D02*
X25071Y-42856D01*
X26596Y-42666D02*
X25910Y-43694D01*
X27625Y-42704D02*
X27701Y-42704D01*
X27777Y-42742D01*
X27815Y-42780D01*
X27853Y-42856D01*
X27892Y-43009D01*
X27892Y-43199D01*
X27853Y-43351D01*
X27815Y-43428D01*
X27777Y-43466D01*
X27701Y-43504D01*
X27625Y-43504D01*
X27549Y-43466D01*
X27511Y-43428D01*
X27472Y-43351D01*
X27434Y-43199D01*
X27434Y-43009D01*
X27472Y-42856D01*
X27511Y-42780D01*
X27549Y-42742D01*
X27625Y-42704D01*
X28234Y-43428D02*
X28273Y-43466D01*
X28234Y-43504D01*
X28196Y-43466D01*
X28234Y-43428D01*
X28234Y-43504D01*
X28958Y-42704D02*
X28806Y-42704D01*
X28730Y-42742D01*
X28692Y-42780D01*
X28615Y-42894D01*
X28577Y-43047D01*
X28577Y-43351D01*
X28615Y-43428D01*
X28654Y-43466D01*
X28730Y-43504D01*
X28882Y-43504D01*
X28958Y-43466D01*
X28996Y-43428D01*
X29035Y-43351D01*
X29035Y-43161D01*
X28996Y-43085D01*
X28958Y-43047D01*
X28882Y-43009D01*
X28730Y-43009D01*
X28654Y-43047D01*
X28615Y-43085D01*
X28577Y-43161D01*
X29720Y-42970D02*
X29720Y-43504D01*
X29530Y-42666D02*
X29339Y-43237D01*
X29835Y-43237D01*
X30139Y-43504D02*
X30139Y-42970D01*
X30139Y-43047D02*
X30178Y-43009D01*
X30254Y-42970D01*
X30368Y-42970D01*
X30444Y-43009D01*
X30482Y-43085D01*
X30482Y-43504D01*
X30482Y-43085D02*
X30520Y-43009D01*
X30597Y-42970D01*
X30711Y-42970D01*
X30787Y-43009D01*
X30825Y-43085D01*
X30825Y-43504D01*
X31206Y-43504D02*
X31206Y-42970D01*
X31206Y-43047D02*
X31245Y-43009D01*
X31321Y-42970D01*
X31435Y-42970D01*
X31511Y-43009D01*
X31549Y-43085D01*
X31549Y-43504D01*
X31549Y-43085D02*
X31587Y-43009D01*
X31664Y-42970D01*
X31778Y-42970D01*
X31854Y-43009D01*
X31892Y-43085D01*
X31892Y-43504D01*
X33112Y-43809D02*
X33074Y-43770D01*
X32998Y-43656D01*
X32960Y-43580D01*
X32922Y-43466D01*
X32883Y-43275D01*
X32883Y-43123D01*
X32922Y-42932D01*
X32960Y-42818D01*
X32998Y-42742D01*
X33074Y-42628D01*
X33112Y-42590D01*
X33759Y-42704D02*
X33607Y-42704D01*
X33531Y-42742D01*
X33493Y-42780D01*
X33416Y-42894D01*
X33378Y-43047D01*
X33378Y-43351D01*
X33416Y-43428D01*
X33455Y-43466D01*
X33531Y-43504D01*
X33683Y-43504D01*
X33759Y-43466D01*
X33797Y-43428D01*
X33836Y-43351D01*
X33836Y-43161D01*
X33797Y-43085D01*
X33759Y-43047D01*
X33683Y-43009D01*
X33531Y-43009D01*
X33455Y-43047D01*
X33416Y-43085D01*
X33378Y-43161D01*
X34788Y-43504D02*
X34788Y-42704D01*
X35131Y-43504D02*
X35131Y-43085D01*
X35093Y-43009D01*
X35017Y-42970D01*
X34903Y-42970D01*
X34827Y-43009D01*
X34788Y-43047D01*
X35627Y-43504D02*
X35551Y-43466D01*
X35512Y-43428D01*
X35474Y-43351D01*
X35474Y-43123D01*
X35512Y-43047D01*
X35551Y-43009D01*
X35627Y-42970D01*
X35741Y-42970D01*
X35817Y-43009D01*
X35855Y-43047D01*
X35893Y-43123D01*
X35893Y-43351D01*
X35855Y-43428D01*
X35817Y-43466D01*
X35741Y-43504D01*
X35627Y-43504D01*
X36351Y-43504D02*
X36275Y-43466D01*
X36236Y-43390D01*
X36236Y-42704D01*
X36960Y-43466D02*
X36884Y-43504D01*
X36732Y-43504D01*
X36655Y-43466D01*
X36617Y-43390D01*
X36617Y-43085D01*
X36655Y-43009D01*
X36732Y-42970D01*
X36884Y-42970D01*
X36960Y-43009D01*
X36998Y-43085D01*
X36998Y-43161D01*
X36617Y-43237D01*
X37303Y-43466D02*
X37380Y-43504D01*
X37532Y-43504D01*
X37608Y-43466D01*
X37646Y-43390D01*
X37646Y-43351D01*
X37608Y-43275D01*
X37532Y-43237D01*
X37418Y-43237D01*
X37341Y-43199D01*
X37303Y-43123D01*
X37303Y-43085D01*
X37341Y-43009D01*
X37418Y-42970D01*
X37532Y-42970D01*
X37608Y-43009D01*
X37913Y-43809D02*
X37951Y-43770D01*
X38028Y-43656D01*
X38066Y-43580D01*
X38104Y-43466D01*
X38142Y-43275D01*
X38142Y-43123D01*
X38104Y-42932D01*
X38066Y-42818D01*
X38028Y-42742D01*
X37951Y-42628D01*
X37913Y-42590D01*
X20825Y-44075D02*
X20825Y-44395D01*
X20985Y-44235D02*
X20665Y-44235D01*
X21528Y-43759D02*
X21604Y-43759D01*
X21680Y-43797D01*
X21718Y-43835D01*
X21756Y-43911D01*
X21795Y-44064D01*
X21795Y-44254D01*
X21756Y-44406D01*
X21718Y-44483D01*
X21680Y-44521D01*
X21604Y-44559D01*
X21528Y-44559D01*
X21452Y-44521D01*
X21414Y-44483D01*
X21375Y-44406D01*
X21337Y-44254D01*
X21337Y-44064D01*
X21375Y-43911D01*
X21414Y-43835D01*
X21452Y-43797D01*
X21528Y-43759D01*
X22137Y-44483D02*
X22176Y-44521D01*
X22137Y-44559D01*
X22099Y-44521D01*
X22137Y-44483D01*
X22137Y-44559D01*
X22671Y-43759D02*
X22747Y-43759D01*
X22823Y-43797D01*
X22861Y-43835D01*
X22899Y-43911D01*
X22938Y-44064D01*
X22938Y-44254D01*
X22899Y-44406D01*
X22861Y-44483D01*
X22823Y-44521D01*
X22747Y-44559D01*
X22671Y-44559D01*
X22595Y-44521D01*
X22557Y-44483D01*
X22518Y-44406D01*
X22480Y-44254D01*
X22480Y-44064D01*
X22518Y-43911D01*
X22557Y-43835D01*
X22595Y-43797D01*
X22671Y-43759D01*
X23204Y-43759D02*
X23700Y-43759D01*
X23433Y-44064D01*
X23547Y-44064D01*
X23623Y-44102D01*
X23661Y-44140D01*
X23700Y-44216D01*
X23700Y-44406D01*
X23661Y-44483D01*
X23623Y-44521D01*
X23547Y-44559D01*
X23319Y-44559D01*
X23242Y-44521D01*
X23204Y-44483D01*
X24004Y-43835D02*
X24042Y-43797D01*
X24119Y-43759D01*
X24309Y-43759D01*
X24385Y-43797D01*
X24423Y-43835D01*
X24462Y-43911D01*
X24462Y-43987D01*
X24423Y-44102D01*
X23966Y-44559D01*
X24462Y-44559D01*
X24766Y-43759D02*
X24766Y-43911D01*
X25071Y-43759D02*
X25071Y-43911D01*
X26596Y-43721D02*
X25910Y-44749D01*
X27625Y-43759D02*
X27701Y-43759D01*
X27777Y-43797D01*
X27815Y-43835D01*
X27853Y-43911D01*
X27892Y-44064D01*
X27892Y-44254D01*
X27853Y-44406D01*
X27815Y-44483D01*
X27777Y-44521D01*
X27701Y-44559D01*
X27625Y-44559D01*
X27549Y-44521D01*
X27511Y-44483D01*
X27472Y-44406D01*
X27434Y-44254D01*
X27434Y-44064D01*
X27472Y-43911D01*
X27511Y-43835D01*
X27549Y-43797D01*
X27625Y-43759D01*
X28234Y-44483D02*
X28273Y-44521D01*
X28234Y-44559D01*
X28196Y-44521D01*
X28234Y-44483D01*
X28234Y-44559D01*
X28730Y-44102D02*
X28654Y-44064D01*
X28615Y-44025D01*
X28577Y-43949D01*
X28577Y-43911D01*
X28615Y-43835D01*
X28654Y-43797D01*
X28730Y-43759D01*
X28882Y-43759D01*
X28958Y-43797D01*
X28996Y-43835D01*
X29035Y-43911D01*
X29035Y-43949D01*
X28996Y-44025D01*
X28958Y-44064D01*
X28882Y-44102D01*
X28730Y-44102D01*
X28654Y-44140D01*
X28615Y-44178D01*
X28577Y-44254D01*
X28577Y-44406D01*
X28615Y-44483D01*
X28654Y-44521D01*
X28730Y-44559D01*
X28882Y-44559D01*
X28958Y-44521D01*
X28996Y-44483D01*
X29035Y-44406D01*
X29035Y-44254D01*
X28996Y-44178D01*
X28958Y-44140D01*
X28882Y-44102D01*
X29797Y-44559D02*
X29339Y-44559D01*
X29568Y-44559D02*
X29568Y-43759D01*
X29492Y-43873D01*
X29416Y-43949D01*
X29339Y-43987D01*
X30139Y-44559D02*
X30139Y-44025D01*
X30139Y-44102D02*
X30178Y-44064D01*
X30254Y-44025D01*
X30368Y-44025D01*
X30444Y-44064D01*
X30482Y-44140D01*
X30482Y-44559D01*
X30482Y-44140D02*
X30520Y-44064D01*
X30597Y-44025D01*
X30711Y-44025D01*
X30787Y-44064D01*
X30825Y-44140D01*
X30825Y-44559D01*
X31206Y-44559D02*
X31206Y-44025D01*
X31206Y-44102D02*
X31245Y-44064D01*
X31321Y-44025D01*
X31435Y-44025D01*
X31511Y-44064D01*
X31549Y-44140D01*
X31549Y-44559D01*
X31549Y-44140D02*
X31587Y-44064D01*
X31664Y-44025D01*
X31778Y-44025D01*
X31854Y-44064D01*
X31892Y-44140D01*
X31892Y-44559D01*
X33112Y-44864D02*
X33074Y-44825D01*
X32998Y-44711D01*
X32960Y-44635D01*
X32922Y-44521D01*
X32883Y-44330D01*
X32883Y-44178D01*
X32922Y-43987D01*
X32960Y-43873D01*
X32998Y-43797D01*
X33074Y-43683D01*
X33112Y-43645D01*
X33836Y-44559D02*
X33378Y-44559D01*
X33607Y-44559D02*
X33607Y-43759D01*
X33531Y-43873D01*
X33455Y-43949D01*
X33378Y-43987D01*
X34102Y-43759D02*
X34636Y-43759D01*
X34293Y-44559D01*
X35550Y-44559D02*
X35550Y-43759D01*
X35893Y-44559D02*
X35893Y-44140D01*
X35855Y-44064D01*
X35779Y-44025D01*
X35665Y-44025D01*
X35589Y-44064D01*
X35550Y-44102D01*
X36389Y-44559D02*
X36313Y-44521D01*
X36274Y-44483D01*
X36236Y-44406D01*
X36236Y-44178D01*
X36274Y-44102D01*
X36313Y-44064D01*
X36389Y-44025D01*
X36503Y-44025D01*
X36579Y-44064D01*
X36617Y-44102D01*
X36655Y-44178D01*
X36655Y-44406D01*
X36617Y-44483D01*
X36579Y-44521D01*
X36503Y-44559D01*
X36389Y-44559D01*
X37113Y-44559D02*
X37037Y-44521D01*
X36998Y-44445D01*
X36998Y-43759D01*
X37722Y-44521D02*
X37646Y-44559D01*
X37494Y-44559D01*
X37417Y-44521D01*
X37379Y-44445D01*
X37379Y-44140D01*
X37417Y-44064D01*
X37494Y-44025D01*
X37646Y-44025D01*
X37722Y-44064D01*
X37760Y-44140D01*
X37760Y-44216D01*
X37379Y-44292D01*
X38065Y-44521D02*
X38142Y-44559D01*
X38294Y-44559D01*
X38370Y-44521D01*
X38408Y-44445D01*
X38408Y-44406D01*
X38370Y-44330D01*
X38294Y-44292D01*
X38180Y-44292D01*
X38103Y-44254D01*
X38065Y-44178D01*
X38065Y-44140D01*
X38103Y-44064D01*
X38180Y-44025D01*
X38294Y-44025D01*
X38370Y-44064D01*
X38675Y-44864D02*
X38713Y-44825D01*
X38790Y-44711D01*
X38828Y-44635D01*
X38866Y-44521D01*
X38904Y-44330D01*
X38904Y-44178D01*
X38866Y-43987D01*
X38828Y-43873D01*
X38790Y-43797D01*
X38713Y-43683D01*
X38675Y-43645D01*
G54D10*
X20985Y-45290D02*
X20981Y-45328D01*
X20969Y-45366D01*
X20951Y-45400D01*
X20926Y-45430D01*
X20896Y-45455D01*
X20862Y-45474D01*
X20825Y-45485D01*
X20786Y-45489D01*
X20748Y-45486D01*
X20711Y-45475D01*
X20676Y-45457D01*
X20646Y-45432D01*
X20620Y-45402D01*
X20602Y-45368D01*
X20590Y-45331D01*
X20586Y-45292D01*
X20589Y-45254D01*
X20600Y-45217D01*
X20617Y-45182D01*
X20642Y-45152D01*
X20671Y-45126D01*
X20705Y-45107D01*
X20743Y-45095D01*
X20781Y-45091D01*
X20819Y-45094D01*
X20857Y-45104D01*
X20892Y-45122D01*
X20922Y-45146D01*
X20948Y-45175D01*
X20967Y-45209D01*
X20980Y-45246D01*
X20984Y-45285D01*
X20985Y-45290D01*
X20585Y-45090D02*
X20985Y-45490D01*
X20985Y-45090D02*
X20585Y-45490D01*
G54D11*
X21528Y-44814D02*
X21604Y-44814D01*
X21680Y-44852D01*
X21718Y-44890D01*
X21756Y-44966D01*
X21795Y-45119D01*
X21795Y-45309D01*
X21756Y-45461D01*
X21718Y-45538D01*
X21680Y-45576D01*
X21604Y-45614D01*
X21528Y-45614D01*
X21452Y-45576D01*
X21414Y-45538D01*
X21375Y-45461D01*
X21337Y-45309D01*
X21337Y-45119D01*
X21375Y-44966D01*
X21414Y-44890D01*
X21452Y-44852D01*
X21528Y-44814D01*
X22137Y-45538D02*
X22176Y-45576D01*
X22137Y-45614D01*
X22099Y-45576D01*
X22137Y-45538D01*
X22137Y-45614D01*
X22671Y-44814D02*
X22747Y-44814D01*
X22823Y-44852D01*
X22861Y-44890D01*
X22899Y-44966D01*
X22938Y-45119D01*
X22938Y-45309D01*
X22899Y-45461D01*
X22861Y-45538D01*
X22823Y-45576D01*
X22747Y-45614D01*
X22671Y-45614D01*
X22595Y-45576D01*
X22557Y-45538D01*
X22518Y-45461D01*
X22480Y-45309D01*
X22480Y-45119D01*
X22518Y-44966D01*
X22557Y-44890D01*
X22595Y-44852D01*
X22671Y-44814D01*
X23623Y-45080D02*
X23623Y-45614D01*
X23433Y-44776D02*
X23242Y-45347D01*
X23738Y-45347D01*
X24195Y-44814D02*
X24271Y-44814D01*
X24347Y-44852D01*
X24385Y-44890D01*
X24423Y-44966D01*
X24462Y-45119D01*
X24462Y-45309D01*
X24423Y-45461D01*
X24385Y-45538D01*
X24347Y-45576D01*
X24271Y-45614D01*
X24195Y-45614D01*
X24119Y-45576D01*
X24081Y-45538D01*
X24042Y-45461D01*
X24004Y-45309D01*
X24004Y-45119D01*
X24042Y-44966D01*
X24081Y-44890D01*
X24119Y-44852D01*
X24195Y-44814D01*
X24766Y-44814D02*
X24766Y-44966D01*
X25071Y-44814D02*
X25071Y-44966D01*
X26596Y-44776D02*
X25910Y-45804D01*
X27892Y-45614D02*
X27434Y-45614D01*
X27663Y-45614D02*
X27663Y-44814D01*
X27587Y-44928D01*
X27511Y-45004D01*
X27434Y-45042D01*
X28234Y-45538D02*
X28273Y-45576D01*
X28234Y-45614D01*
X28196Y-45576D01*
X28234Y-45538D01*
X28234Y-45614D01*
X28768Y-44814D02*
X28844Y-44814D01*
X28920Y-44852D01*
X28958Y-44890D01*
X28996Y-44966D01*
X29035Y-45119D01*
X29035Y-45309D01*
X28996Y-45461D01*
X28958Y-45538D01*
X28920Y-45576D01*
X28844Y-45614D01*
X28768Y-45614D01*
X28692Y-45576D01*
X28654Y-45538D01*
X28615Y-45461D01*
X28577Y-45309D01*
X28577Y-45119D01*
X28615Y-44966D01*
X28654Y-44890D01*
X28692Y-44852D01*
X28768Y-44814D01*
X29339Y-44890D02*
X29377Y-44852D01*
X29454Y-44814D01*
X29644Y-44814D01*
X29720Y-44852D01*
X29758Y-44890D01*
X29797Y-44966D01*
X29797Y-45042D01*
X29758Y-45157D01*
X29301Y-45614D01*
X29797Y-45614D01*
X30139Y-45614D02*
X30139Y-45080D01*
X30139Y-45157D02*
X30178Y-45119D01*
X30254Y-45080D01*
X30368Y-45080D01*
X30444Y-45119D01*
X30482Y-45195D01*
X30482Y-45614D01*
X30482Y-45195D02*
X30520Y-45119D01*
X30597Y-45080D01*
X30711Y-45080D01*
X30787Y-45119D01*
X30825Y-45195D01*
X30825Y-45614D01*
X31206Y-45614D02*
X31206Y-45080D01*
X31206Y-45157D02*
X31245Y-45119D01*
X31321Y-45080D01*
X31435Y-45080D01*
X31511Y-45119D01*
X31549Y-45195D01*
X31549Y-45614D01*
X31549Y-45195D02*
X31587Y-45119D01*
X31664Y-45080D01*
X31778Y-45080D01*
X31854Y-45119D01*
X31892Y-45195D01*
X31892Y-45614D01*
X33112Y-45919D02*
X33074Y-45880D01*
X32998Y-45766D01*
X32960Y-45690D01*
X32922Y-45576D01*
X32883Y-45385D01*
X32883Y-45233D01*
X32922Y-45042D01*
X32960Y-44928D01*
X32998Y-44852D01*
X33074Y-44738D01*
X33112Y-44700D01*
X33759Y-44814D02*
X33607Y-44814D01*
X33531Y-44852D01*
X33493Y-44890D01*
X33416Y-45004D01*
X33378Y-45157D01*
X33378Y-45461D01*
X33416Y-45538D01*
X33455Y-45576D01*
X33531Y-45614D01*
X33683Y-45614D01*
X33759Y-45576D01*
X33797Y-45538D01*
X33836Y-45461D01*
X33836Y-45271D01*
X33797Y-45195D01*
X33759Y-45157D01*
X33683Y-45119D01*
X33531Y-45119D01*
X33455Y-45157D01*
X33416Y-45195D01*
X33378Y-45271D01*
X34788Y-45614D02*
X34788Y-44814D01*
X35131Y-45614D02*
X35131Y-45195D01*
X35093Y-45119D01*
X35017Y-45080D01*
X34903Y-45080D01*
X34827Y-45119D01*
X34788Y-45157D01*
X35627Y-45614D02*
X35551Y-45576D01*
X35512Y-45538D01*
X35474Y-45461D01*
X35474Y-45233D01*
X35512Y-45157D01*
X35551Y-45119D01*
X35627Y-45080D01*
X35741Y-45080D01*
X35817Y-45119D01*
X35855Y-45157D01*
X35893Y-45233D01*
X35893Y-45461D01*
X35855Y-45538D01*
X35817Y-45576D01*
X35741Y-45614D01*
X35627Y-45614D01*
X36351Y-45614D02*
X36275Y-45576D01*
X36236Y-45500D01*
X36236Y-44814D01*
X36960Y-45576D02*
X36884Y-45614D01*
X36732Y-45614D01*
X36655Y-45576D01*
X36617Y-45500D01*
X36617Y-45195D01*
X36655Y-45119D01*
X36732Y-45080D01*
X36884Y-45080D01*
X36960Y-45119D01*
X36998Y-45195D01*
X36998Y-45271D01*
X36617Y-45347D01*
X37303Y-45576D02*
X37380Y-45614D01*
X37532Y-45614D01*
X37608Y-45576D01*
X37646Y-45500D01*
X37646Y-45461D01*
X37608Y-45385D01*
X37532Y-45347D01*
X37418Y-45347D01*
X37341Y-45309D01*
X37303Y-45233D01*
X37303Y-45195D01*
X37341Y-45119D01*
X37418Y-45080D01*
X37532Y-45080D01*
X37608Y-45119D01*
X37913Y-45919D02*
X37951Y-45880D01*
X38028Y-45766D01*
X38066Y-45690D01*
X38104Y-45576D01*
X38142Y-45385D01*
X38142Y-45233D01*
X38104Y-45042D01*
X38066Y-44928D01*
X38028Y-44852D01*
X37951Y-44738D01*
X37913Y-44700D01*
G54D10*
X20985Y-46345D02*
X20976Y-46429D01*
X20952Y-46510D01*
X20912Y-46584D01*
X20859Y-46650D01*
X20794Y-46703D01*
X20719Y-46744D01*
X20639Y-46769D01*
X20555Y-46777D01*
X20471Y-46770D01*
X20390Y-46746D01*
X20315Y-46707D01*
X20250Y-46654D01*
X20195Y-46589D01*
X20155Y-46515D01*
X20129Y-46435D01*
X20120Y-46351D01*
X20127Y-46267D01*
X20150Y-46186D01*
X20189Y-46111D01*
X20241Y-46045D01*
X20305Y-45990D01*
X20379Y-45949D01*
X20460Y-45923D01*
X20543Y-45913D01*
X20627Y-45919D01*
X20708Y-45942D01*
X20784Y-45980D01*
X20850Y-46032D01*
X20905Y-46096D01*
X20947Y-46169D01*
X20974Y-46250D01*
X20984Y-46333D01*
X20985Y-46345D01*
X20119Y-46345D02*
X20985Y-46345D01*
G54D11*
X21528Y-45869D02*
X21604Y-45869D01*
X21680Y-45907D01*
X21718Y-45945D01*
X21756Y-46021D01*
X21795Y-46174D01*
X21795Y-46364D01*
X21756Y-46516D01*
X21718Y-46593D01*
X21680Y-46631D01*
X21604Y-46669D01*
X21528Y-46669D01*
X21452Y-46631D01*
X21414Y-46593D01*
X21375Y-46516D01*
X21337Y-46364D01*
X21337Y-46174D01*
X21375Y-46021D01*
X21414Y-45945D01*
X21452Y-45907D01*
X21528Y-45869D01*
X22137Y-46593D02*
X22176Y-46631D01*
X22137Y-46669D01*
X22099Y-46631D01*
X22137Y-46593D01*
X22137Y-46669D01*
X22671Y-45869D02*
X22747Y-45869D01*
X22823Y-45907D01*
X22861Y-45945D01*
X22899Y-46021D01*
X22938Y-46174D01*
X22938Y-46364D01*
X22899Y-46516D01*
X22861Y-46593D01*
X22823Y-46631D01*
X22747Y-46669D01*
X22671Y-46669D01*
X22595Y-46631D01*
X22557Y-46593D01*
X22518Y-46516D01*
X22480Y-46364D01*
X22480Y-46174D01*
X22518Y-46021D01*
X22557Y-45945D01*
X22595Y-45907D01*
X22671Y-45869D01*
X23395Y-46212D02*
X23319Y-46174D01*
X23280Y-46135D01*
X23242Y-46059D01*
X23242Y-46021D01*
X23280Y-45945D01*
X23319Y-45907D01*
X23395Y-45869D01*
X23547Y-45869D01*
X23623Y-45907D01*
X23661Y-45945D01*
X23700Y-46021D01*
X23700Y-46059D01*
X23661Y-46135D01*
X23623Y-46174D01*
X23547Y-46212D01*
X23395Y-46212D01*
X23319Y-46250D01*
X23280Y-46288D01*
X23242Y-46364D01*
X23242Y-46516D01*
X23280Y-46593D01*
X23319Y-46631D01*
X23395Y-46669D01*
X23547Y-46669D01*
X23623Y-46631D01*
X23661Y-46593D01*
X23700Y-46516D01*
X23700Y-46364D01*
X23661Y-46288D01*
X23623Y-46250D01*
X23547Y-46212D01*
X23966Y-45869D02*
X24500Y-45869D01*
X24157Y-46669D01*
X24766Y-45869D02*
X24766Y-46021D01*
X25071Y-45869D02*
X25071Y-46021D01*
X26596Y-45831D02*
X25910Y-46859D01*
X27434Y-45945D02*
X27472Y-45907D01*
X27549Y-45869D01*
X27739Y-45869D01*
X27815Y-45907D01*
X27853Y-45945D01*
X27892Y-46021D01*
X27892Y-46097D01*
X27853Y-46212D01*
X27396Y-46669D01*
X27892Y-46669D01*
X28234Y-46593D02*
X28273Y-46631D01*
X28234Y-46669D01*
X28196Y-46631D01*
X28234Y-46593D01*
X28234Y-46669D01*
X28577Y-45945D02*
X28615Y-45907D01*
X28692Y-45869D01*
X28882Y-45869D01*
X28958Y-45907D01*
X28996Y-45945D01*
X29035Y-46021D01*
X29035Y-46097D01*
X28996Y-46212D01*
X28539Y-46669D01*
X29035Y-46669D01*
X29530Y-45869D02*
X29606Y-45869D01*
X29682Y-45907D01*
X29720Y-45945D01*
X29758Y-46021D01*
X29797Y-46174D01*
X29797Y-46364D01*
X29758Y-46516D01*
X29720Y-46593D01*
X29682Y-46631D01*
X29606Y-46669D01*
X29530Y-46669D01*
X29454Y-46631D01*
X29416Y-46593D01*
X29377Y-46516D01*
X29339Y-46364D01*
X29339Y-46174D01*
X29377Y-46021D01*
X29416Y-45945D01*
X29454Y-45907D01*
X29530Y-45869D01*
X30139Y-46669D02*
X30139Y-46135D01*
X30139Y-46212D02*
X30178Y-46174D01*
X30254Y-46135D01*
X30368Y-46135D01*
X30444Y-46174D01*
X30482Y-46250D01*
X30482Y-46669D01*
X30482Y-46250D02*
X30520Y-46174D01*
X30597Y-46135D01*
X30711Y-46135D01*
X30787Y-46174D01*
X30825Y-46250D01*
X30825Y-46669D01*
X31206Y-46669D02*
X31206Y-46135D01*
X31206Y-46212D02*
X31245Y-46174D01*
X31321Y-46135D01*
X31435Y-46135D01*
X31511Y-46174D01*
X31549Y-46250D01*
X31549Y-46669D01*
X31549Y-46250D02*
X31587Y-46174D01*
X31664Y-46135D01*
X31778Y-46135D01*
X31854Y-46174D01*
X31892Y-46250D01*
X31892Y-46669D01*
X33112Y-46974D02*
X33074Y-46935D01*
X32998Y-46821D01*
X32960Y-46745D01*
X32922Y-46631D01*
X32883Y-46440D01*
X32883Y-46288D01*
X32922Y-46097D01*
X32960Y-45983D01*
X32998Y-45907D01*
X33074Y-45793D01*
X33112Y-45755D01*
X33759Y-46135D02*
X33759Y-46669D01*
X33569Y-45831D02*
X33378Y-46402D01*
X33874Y-46402D01*
X34788Y-46669D02*
X34788Y-45869D01*
X35131Y-46669D02*
X35131Y-46250D01*
X35093Y-46174D01*
X35017Y-46135D01*
X34903Y-46135D01*
X34827Y-46174D01*
X34788Y-46212D01*
X35627Y-46669D02*
X35551Y-46631D01*
X35512Y-46593D01*
X35474Y-46516D01*
X35474Y-46288D01*
X35512Y-46212D01*
X35551Y-46174D01*
X35627Y-46135D01*
X35741Y-46135D01*
X35817Y-46174D01*
X35855Y-46212D01*
X35893Y-46288D01*
X35893Y-46516D01*
X35855Y-46593D01*
X35817Y-46631D01*
X35741Y-46669D01*
X35627Y-46669D01*
X36351Y-46669D02*
X36275Y-46631D01*
X36236Y-46555D01*
X36236Y-45869D01*
X36960Y-46631D02*
X36884Y-46669D01*
X36732Y-46669D01*
X36655Y-46631D01*
X36617Y-46555D01*
X36617Y-46250D01*
X36655Y-46174D01*
X36732Y-46135D01*
X36884Y-46135D01*
X36960Y-46174D01*
X36998Y-46250D01*
X36998Y-46326D01*
X36617Y-46402D01*
X37303Y-46631D02*
X37380Y-46669D01*
X37532Y-46669D01*
X37608Y-46631D01*
X37646Y-46555D01*
X37646Y-46516D01*
X37608Y-46440D01*
X37532Y-46402D01*
X37418Y-46402D01*
X37341Y-46364D01*
X37303Y-46288D01*
X37303Y-46250D01*
X37341Y-46174D01*
X37418Y-46135D01*
X37532Y-46135D01*
X37608Y-46174D01*
X37913Y-46974D02*
X37951Y-46935D01*
X38028Y-46821D01*
X38066Y-46745D01*
X38104Y-46631D01*
X38142Y-46440D01*
X38142Y-46288D01*
X38104Y-46097D01*
X38066Y-45983D01*
X38028Y-45907D01*
X37951Y-45793D01*
X37913Y-45755D01*
M02*
