G04 (created by PCBNEW-RS274X (2012-jan-04)-stable) date Thu 10 May 2012 09:57:28 AM CEST*
G01*
G70*
G90*
%MOIN*%
G04 Gerber Fmt 3.4, Leading zero omitted, Abs format*
%FSLAX34Y34*%
G04 APERTURE LIST*
%ADD10C,0.006000*%
%ADD11C,0.008000*%
%ADD12R,0.063000X0.063000*%
%ADD13C,0.063000*%
%ADD14R,0.067100X0.043400*%
%ADD15R,0.114300X0.071000*%
%ADD16C,0.173400*%
%ADD17R,0.086700X0.025700*%
%ADD18R,0.025700X0.086700*%
%ADD19R,0.068000X0.068000*%
%ADD20C,0.068000*%
%ADD21R,0.067000X0.059100*%
%ADD22R,0.059100X0.067000*%
%ADD23R,0.078800X0.070900*%
%ADD24R,0.070900X0.078800*%
%ADD25R,0.043400X0.067100*%
%ADD26R,0.071000X0.114300*%
G04 APERTURE END LIST*
G54D10*
G54D11*
X32750Y-19300D02*
X32005Y-19333D01*
X31266Y-19430D01*
X30538Y-19592D01*
X29826Y-19816D01*
X29137Y-20102D01*
X28476Y-20446D01*
X27846Y-20847D01*
X27255Y-21301D01*
X26705Y-21805D01*
X26201Y-22355D01*
X25747Y-22946D01*
X25346Y-23576D01*
X25002Y-24237D01*
X24716Y-24926D01*
X24492Y-25638D01*
X24330Y-26366D01*
X24233Y-27105D01*
X24200Y-27850D01*
X24200Y-27850D02*
X24233Y-28595D01*
X24330Y-29334D01*
X24492Y-30062D01*
X24716Y-30774D01*
X25002Y-31463D01*
X25346Y-32124D01*
X25747Y-32754D01*
X26201Y-33345D01*
X26705Y-33895D01*
X27255Y-34399D01*
X27846Y-34853D01*
X28476Y-35254D01*
X29137Y-35598D01*
X29826Y-35884D01*
X30538Y-36108D01*
X31266Y-36270D01*
X32005Y-36367D01*
X32750Y-36400D01*
X32750Y-36400D02*
X33495Y-36367D01*
X34234Y-36270D01*
X34962Y-36108D01*
X35674Y-35884D01*
X36363Y-35598D01*
X37025Y-35254D01*
X37654Y-34853D01*
X38245Y-34399D01*
X38795Y-33895D01*
X39299Y-33345D01*
X39753Y-32754D01*
X40154Y-32124D01*
X40498Y-31463D01*
X40784Y-30774D01*
X41008Y-30062D01*
X41170Y-29334D01*
X41267Y-28595D01*
X41300Y-27850D01*
X41300Y-27850D02*
X41267Y-27105D01*
X41170Y-26366D01*
X41008Y-25638D01*
X40784Y-24926D01*
X40498Y-24237D01*
X40154Y-23576D01*
X39753Y-22946D01*
X39299Y-22355D01*
X38795Y-21805D01*
X38245Y-21301D01*
X37654Y-20847D01*
X37025Y-20446D01*
X36363Y-20102D01*
X35674Y-19816D01*
X34962Y-19592D01*
X34234Y-19430D01*
X33495Y-19333D01*
X32750Y-19300D01*
G54D12*
X33750Y-23250D03*
G54D13*
X32750Y-23250D03*
X31750Y-23250D03*
G54D10*
G36*
X37683Y-21999D02*
X37210Y-21526D01*
X37517Y-21219D01*
X37990Y-21692D01*
X37683Y-21999D01*
X37683Y-21999D01*
G37*
G36*
X37237Y-22444D02*
X36764Y-21971D01*
X37071Y-21664D01*
X37544Y-22137D01*
X37237Y-22444D01*
X37237Y-22444D01*
G37*
G36*
X36792Y-22890D02*
X36319Y-22417D01*
X36626Y-22110D01*
X37099Y-22583D01*
X36792Y-22890D01*
X36792Y-22890D01*
G37*
G36*
X38183Y-24281D02*
X37710Y-23808D01*
X38017Y-23501D01*
X38490Y-23974D01*
X38183Y-24281D01*
X38183Y-24281D01*
G37*
G36*
X38629Y-23836D02*
X38156Y-23363D01*
X38463Y-23056D01*
X38936Y-23529D01*
X38629Y-23836D01*
X38629Y-23836D01*
G37*
G36*
X39074Y-23390D02*
X38601Y-22917D01*
X38908Y-22610D01*
X39381Y-23083D01*
X39074Y-23390D01*
X39074Y-23390D01*
G37*
G36*
X37613Y-23795D02*
X36805Y-22987D01*
X37307Y-22485D01*
X38115Y-23293D01*
X37613Y-23795D01*
X37613Y-23795D01*
G37*
G36*
X38393Y-23015D02*
X37585Y-22207D01*
X38087Y-21705D01*
X38895Y-22513D01*
X38393Y-23015D01*
X38393Y-23015D01*
G37*
G54D14*
X31766Y-19970D03*
X31766Y-20600D03*
X31766Y-21230D03*
X33734Y-21230D03*
X33734Y-20600D03*
X33734Y-19970D03*
G54D15*
X32750Y-21151D03*
X32750Y-20049D03*
G54D10*
G36*
X25985Y-29908D02*
X26201Y-30416D01*
X25693Y-30632D01*
X25477Y-30124D01*
X25985Y-29908D01*
X25985Y-29908D01*
G37*
G36*
X26307Y-30668D02*
X26523Y-31176D01*
X26015Y-31392D01*
X25799Y-30884D01*
X26307Y-30668D01*
X26307Y-30668D01*
G37*
G36*
X26514Y-24514D02*
X26308Y-25026D01*
X25796Y-24820D01*
X26002Y-24308D01*
X26514Y-24514D01*
X26514Y-24514D01*
G37*
G36*
X26204Y-25280D02*
X25998Y-25792D01*
X25486Y-25586D01*
X25692Y-25074D01*
X26204Y-25280D01*
X26204Y-25280D01*
G37*
G36*
X39515Y-25792D02*
X39299Y-25284D01*
X39807Y-25068D01*
X40023Y-25576D01*
X39515Y-25792D01*
X39515Y-25792D01*
G37*
G36*
X39193Y-25032D02*
X38977Y-24524D01*
X39485Y-24308D01*
X39701Y-24816D01*
X39193Y-25032D01*
X39193Y-25032D01*
G37*
G36*
X38986Y-31186D02*
X39192Y-30674D01*
X39704Y-30880D01*
X39498Y-31392D01*
X38986Y-31186D01*
X38986Y-31186D01*
G37*
G36*
X39296Y-30420D02*
X39502Y-29908D01*
X40014Y-30114D01*
X39808Y-30626D01*
X39296Y-30420D01*
X39296Y-30420D01*
G37*
G36*
X34808Y-34615D02*
X35316Y-34399D01*
X35532Y-34907D01*
X35024Y-35123D01*
X34808Y-34615D01*
X34808Y-34615D01*
G37*
G36*
X35568Y-34293D02*
X36076Y-34077D01*
X36292Y-34585D01*
X35784Y-34801D01*
X35568Y-34293D01*
X35568Y-34293D01*
G37*
G36*
X29372Y-34134D02*
X29900Y-34296D01*
X29738Y-34824D01*
X29210Y-34662D01*
X29372Y-34134D01*
X29372Y-34134D01*
G37*
G36*
X30162Y-34376D02*
X30690Y-34538D01*
X30528Y-35066D01*
X30000Y-34904D01*
X30162Y-34376D01*
X30162Y-34376D01*
G37*
G36*
X30692Y-21085D02*
X30184Y-21301D01*
X29968Y-20793D01*
X30476Y-20577D01*
X30692Y-21085D01*
X30692Y-21085D01*
G37*
G36*
X29932Y-21407D02*
X29424Y-21623D01*
X29208Y-21115D01*
X29716Y-20899D01*
X29932Y-21407D01*
X29932Y-21407D01*
G37*
G36*
X36086Y-21614D02*
X35574Y-21408D01*
X35780Y-20896D01*
X36292Y-21102D01*
X36086Y-21614D01*
X36086Y-21614D01*
G37*
G36*
X35320Y-21304D02*
X34808Y-21098D01*
X35014Y-20586D01*
X35526Y-20792D01*
X35320Y-21304D01*
X35320Y-21304D01*
G37*
G54D16*
X35450Y-30550D03*
X35450Y-25150D03*
X30050Y-25150D03*
X30050Y-30550D03*
G54D17*
X30854Y-28943D03*
X30854Y-28628D03*
X30854Y-28313D03*
X30854Y-27998D03*
X30854Y-27683D03*
X30854Y-27368D03*
X30854Y-27053D03*
X30854Y-26738D03*
X34620Y-26740D03*
X34620Y-28950D03*
X34620Y-28630D03*
X34620Y-28310D03*
X34620Y-28000D03*
X34620Y-27680D03*
X34620Y-27370D03*
X34620Y-27050D03*
G54D18*
X31638Y-25950D03*
X31952Y-25950D03*
X32268Y-25950D03*
X32582Y-25950D03*
X32898Y-25950D03*
X33212Y-25950D03*
X33528Y-25950D03*
X33842Y-25950D03*
X31640Y-29730D03*
X31950Y-29730D03*
X32270Y-29730D03*
X32580Y-29730D03*
X32890Y-29730D03*
X33210Y-29730D03*
X33530Y-29730D03*
X33850Y-29730D03*
G54D19*
X33250Y-26850D03*
G54D20*
X32250Y-26850D03*
X33250Y-27850D03*
X32250Y-27850D03*
X33250Y-28850D03*
X32250Y-28850D03*
G54D21*
X27100Y-27426D03*
X27100Y-28174D03*
G54D22*
X32376Y-24450D03*
X33124Y-24450D03*
X32376Y-33500D03*
X33124Y-33500D03*
G54D21*
X38400Y-28224D03*
X38400Y-27476D03*
G54D22*
X32326Y-32550D03*
X33074Y-32550D03*
G54D12*
X30250Y-22250D03*
G54D13*
X31250Y-22250D03*
X32250Y-22250D03*
X33250Y-22250D03*
X34250Y-22250D03*
X35250Y-22250D03*
G54D10*
G36*
X27239Y-25856D02*
X26794Y-25411D01*
X27239Y-24966D01*
X27684Y-25411D01*
X27239Y-25856D01*
X27239Y-25856D01*
G37*
G54D13*
X27946Y-24704D03*
X28654Y-23996D03*
X29361Y-23289D03*
G54D10*
G36*
X38656Y-25411D02*
X38211Y-25856D01*
X37766Y-25411D01*
X38211Y-24966D01*
X38656Y-25411D01*
X38656Y-25411D01*
G37*
G54D13*
X37504Y-24704D03*
X36796Y-23996D03*
X36089Y-23289D03*
G54D23*
X29000Y-27249D03*
X29000Y-28351D03*
X36500Y-28401D03*
X36500Y-27299D03*
G54D21*
X28050Y-27426D03*
X28050Y-28174D03*
X37450Y-28224D03*
X37450Y-27476D03*
G54D24*
X32199Y-31600D03*
X33301Y-31600D03*
G54D14*
X33734Y-35730D03*
X33734Y-35100D03*
X33734Y-34470D03*
X31766Y-34470D03*
X31766Y-35100D03*
X31766Y-35730D03*
G54D15*
X32750Y-34549D03*
X32750Y-35651D03*
G54D10*
G36*
X38601Y-32833D02*
X39074Y-32360D01*
X39381Y-32667D01*
X38908Y-33140D01*
X38601Y-32833D01*
X38601Y-32833D01*
G37*
G36*
X38156Y-32387D02*
X38629Y-31914D01*
X38936Y-32221D01*
X38463Y-32694D01*
X38156Y-32387D01*
X38156Y-32387D01*
G37*
G36*
X37710Y-31942D02*
X38183Y-31469D01*
X38490Y-31776D01*
X38017Y-32249D01*
X37710Y-31942D01*
X37710Y-31942D01*
G37*
G36*
X36319Y-33333D02*
X36792Y-32860D01*
X37099Y-33167D01*
X36626Y-33640D01*
X36319Y-33333D01*
X36319Y-33333D01*
G37*
G36*
X36764Y-33779D02*
X37237Y-33306D01*
X37544Y-33613D01*
X37071Y-34086D01*
X36764Y-33779D01*
X36764Y-33779D01*
G37*
G36*
X37210Y-34224D02*
X37683Y-33751D01*
X37990Y-34058D01*
X37517Y-34531D01*
X37210Y-34224D01*
X37210Y-34224D01*
G37*
G36*
X36805Y-32763D02*
X37613Y-31955D01*
X38115Y-32457D01*
X37307Y-33265D01*
X36805Y-32763D01*
X36805Y-32763D01*
G37*
G36*
X37585Y-33543D02*
X38393Y-32735D01*
X38895Y-33237D01*
X38087Y-34045D01*
X37585Y-33543D01*
X37585Y-33543D01*
G37*
G54D25*
X40630Y-26866D03*
X40000Y-26866D03*
X39370Y-26866D03*
X39370Y-28834D03*
X40000Y-28834D03*
X40630Y-28834D03*
G54D26*
X39449Y-27850D03*
X40551Y-27850D03*
G54D10*
G36*
X26849Y-22917D02*
X26376Y-23390D01*
X26069Y-23083D01*
X26542Y-22610D01*
X26849Y-22917D01*
X26849Y-22917D01*
G37*
G36*
X27294Y-23363D02*
X26821Y-23836D01*
X26514Y-23529D01*
X26987Y-23056D01*
X27294Y-23363D01*
X27294Y-23363D01*
G37*
G36*
X27740Y-23808D02*
X27267Y-24281D01*
X26960Y-23974D01*
X27433Y-23501D01*
X27740Y-23808D01*
X27740Y-23808D01*
G37*
G36*
X29131Y-22417D02*
X28658Y-22890D01*
X28351Y-22583D01*
X28824Y-22110D01*
X29131Y-22417D01*
X29131Y-22417D01*
G37*
G36*
X28686Y-21971D02*
X28213Y-22444D01*
X27906Y-22137D01*
X28379Y-21664D01*
X28686Y-21971D01*
X28686Y-21971D01*
G37*
G36*
X28240Y-21526D02*
X27767Y-21999D01*
X27460Y-21692D01*
X27933Y-21219D01*
X28240Y-21526D01*
X28240Y-21526D01*
G37*
G36*
X28645Y-22987D02*
X27837Y-23795D01*
X27335Y-23293D01*
X28143Y-22485D01*
X28645Y-22987D01*
X28645Y-22987D01*
G37*
G36*
X27865Y-22207D02*
X27057Y-23015D01*
X26555Y-22513D01*
X27363Y-21705D01*
X27865Y-22207D01*
X27865Y-22207D01*
G37*
G54D25*
X24870Y-28834D03*
X25500Y-28834D03*
X26130Y-28834D03*
X26130Y-26866D03*
X25500Y-26866D03*
X24870Y-26866D03*
G54D26*
X26051Y-27850D03*
X24949Y-27850D03*
G54D10*
G36*
X27817Y-33751D02*
X28290Y-34224D01*
X27983Y-34531D01*
X27510Y-34058D01*
X27817Y-33751D01*
X27817Y-33751D01*
G37*
G36*
X28263Y-33306D02*
X28736Y-33779D01*
X28429Y-34086D01*
X27956Y-33613D01*
X28263Y-33306D01*
X28263Y-33306D01*
G37*
G36*
X28708Y-32860D02*
X29181Y-33333D01*
X28874Y-33640D01*
X28401Y-33167D01*
X28708Y-32860D01*
X28708Y-32860D01*
G37*
G36*
X27317Y-31469D02*
X27790Y-31942D01*
X27483Y-32249D01*
X27010Y-31776D01*
X27317Y-31469D01*
X27317Y-31469D01*
G37*
G36*
X26871Y-31914D02*
X27344Y-32387D01*
X27037Y-32694D01*
X26564Y-32221D01*
X26871Y-31914D01*
X26871Y-31914D01*
G37*
G36*
X26426Y-32360D02*
X26899Y-32833D01*
X26592Y-33140D01*
X26119Y-32667D01*
X26426Y-32360D01*
X26426Y-32360D01*
G37*
G36*
X27887Y-31955D02*
X28695Y-32763D01*
X28193Y-33265D01*
X27385Y-32457D01*
X27887Y-31955D01*
X27887Y-31955D01*
G37*
G36*
X27107Y-32735D02*
X27915Y-33543D01*
X27413Y-34045D01*
X26605Y-33237D01*
X27107Y-32735D01*
X27107Y-32735D01*
G37*
G36*
X35426Y-35709D02*
X35226Y-35238D01*
X35660Y-35053D01*
X35860Y-35524D01*
X35426Y-35709D01*
X35426Y-35709D01*
G37*
G36*
X36040Y-35447D02*
X35840Y-34976D01*
X36274Y-34791D01*
X36474Y-35262D01*
X36040Y-35447D01*
X36040Y-35447D01*
G37*
G36*
X40224Y-31525D02*
X39749Y-31333D01*
X39926Y-30895D01*
X40401Y-31087D01*
X40224Y-31525D01*
X40224Y-31525D01*
G37*
G36*
X40474Y-30905D02*
X39999Y-30713D01*
X40176Y-30275D01*
X40651Y-30467D01*
X40474Y-30905D01*
X40474Y-30905D01*
G37*
G36*
X40609Y-25174D02*
X40138Y-25374D01*
X39953Y-24940D01*
X40424Y-24740D01*
X40609Y-25174D01*
X40609Y-25174D01*
G37*
G36*
X40347Y-24560D02*
X39876Y-24760D01*
X39691Y-24326D01*
X40162Y-24126D01*
X40347Y-24560D01*
X40347Y-24560D01*
G37*
G36*
X36475Y-20426D02*
X36283Y-20901D01*
X35845Y-20724D01*
X36037Y-20249D01*
X36475Y-20426D01*
X36475Y-20426D01*
G37*
G36*
X35855Y-20176D02*
X35663Y-20651D01*
X35225Y-20474D01*
X35417Y-19999D01*
X35855Y-20176D01*
X35855Y-20176D01*
G37*
G36*
X30124Y-19941D02*
X30324Y-20412D01*
X29890Y-20597D01*
X29690Y-20126D01*
X30124Y-19941D01*
X30124Y-19941D01*
G37*
G36*
X29510Y-20203D02*
X29710Y-20674D01*
X29276Y-20859D01*
X29076Y-20388D01*
X29510Y-20203D01*
X29510Y-20203D01*
G37*
G36*
X25276Y-24175D02*
X25751Y-24367D01*
X25574Y-24805D01*
X25099Y-24613D01*
X25276Y-24175D01*
X25276Y-24175D01*
G37*
G36*
X25026Y-24795D02*
X25501Y-24987D01*
X25324Y-25425D01*
X24849Y-25233D01*
X25026Y-24795D01*
X25026Y-24795D01*
G37*
G36*
X24891Y-30526D02*
X25362Y-30326D01*
X25547Y-30760D01*
X25076Y-30960D01*
X24891Y-30526D01*
X24891Y-30526D01*
G37*
G36*
X25153Y-31140D02*
X25624Y-30940D01*
X25809Y-31374D01*
X25338Y-31574D01*
X25153Y-31140D01*
X25153Y-31140D01*
G37*
G36*
X29080Y-35378D02*
X29230Y-34888D01*
X29682Y-35026D01*
X29532Y-35516D01*
X29080Y-35378D01*
X29080Y-35378D01*
G37*
G36*
X29718Y-35574D02*
X29868Y-35084D01*
X30320Y-35222D01*
X30170Y-35712D01*
X29718Y-35574D01*
X29718Y-35574D01*
G37*
M02*
