G04 (created by PCBNEW (2011-07-08)-stable) date Fri 06 Jan 2012 11:01:22 AM CET*
G01*
G70*
G90*
%MOIN*%
G04 Gerber Fmt 3.4, Leading zero omitted, Abs format*
%FSLAX34Y34*%
G04 APERTURE LIST*
%ADD10C,0.001000*%
%ADD11C,0.008000*%
G04 APERTURE END LIST*
G54D10*
G54D11*
X32750Y-19300D02*
X32005Y-19333D01*
X31266Y-19430D01*
X30538Y-19592D01*
X29826Y-19816D01*
X29137Y-20102D01*
X28476Y-20446D01*
X27846Y-20847D01*
X27255Y-21301D01*
X26705Y-21805D01*
X26201Y-22355D01*
X25747Y-22946D01*
X25346Y-23576D01*
X25002Y-24237D01*
X24716Y-24926D01*
X24492Y-25638D01*
X24330Y-26366D01*
X24233Y-27105D01*
X24200Y-27850D01*
X24200Y-27850D02*
X24233Y-28595D01*
X24330Y-29334D01*
X24492Y-30062D01*
X24716Y-30774D01*
X25002Y-31463D01*
X25346Y-32124D01*
X25747Y-32754D01*
X26201Y-33345D01*
X26705Y-33895D01*
X27255Y-34399D01*
X27846Y-34853D01*
X28476Y-35254D01*
X29137Y-35598D01*
X29826Y-35884D01*
X30538Y-36108D01*
X31266Y-36270D01*
X32005Y-36367D01*
X32750Y-36400D01*
X32750Y-36400D02*
X33495Y-36367D01*
X34234Y-36270D01*
X34962Y-36108D01*
X35674Y-35884D01*
X36363Y-35598D01*
X37025Y-35254D01*
X37654Y-34853D01*
X38245Y-34399D01*
X38795Y-33895D01*
X39299Y-33345D01*
X39753Y-32754D01*
X40154Y-32124D01*
X40498Y-31463D01*
X40784Y-30774D01*
X41008Y-30062D01*
X41170Y-29334D01*
X41267Y-28595D01*
X41300Y-27850D01*
X41300Y-27850D02*
X41267Y-27105D01*
X41170Y-26366D01*
X41008Y-25638D01*
X40784Y-24926D01*
X40498Y-24237D01*
X40154Y-23576D01*
X39753Y-22946D01*
X39299Y-22355D01*
X38795Y-21805D01*
X38245Y-21301D01*
X37654Y-20847D01*
X37025Y-20446D01*
X36363Y-20102D01*
X35674Y-19816D01*
X34962Y-19592D01*
X34234Y-19430D01*
X33495Y-19333D01*
X32750Y-19300D01*
G54D10*
X25274Y-29430D02*
X25524Y-29680D01*
X25524Y-29430D02*
X25274Y-29680D01*
X26174Y-25992D02*
X26424Y-26242D01*
X26424Y-25992D02*
X26174Y-26242D01*
X26211Y-23880D02*
X26461Y-24130D01*
X26461Y-23880D02*
X26211Y-24130D01*
X26650Y-23899D02*
X26900Y-24149D01*
X26900Y-23899D02*
X26650Y-24149D01*
X26962Y-29578D02*
X27212Y-29828D01*
X27212Y-29578D02*
X26962Y-29828D01*
X27025Y-31180D02*
X27275Y-31430D01*
X27275Y-31180D02*
X27025Y-31430D01*
X27452Y-25799D02*
X27702Y-26049D01*
X27702Y-25799D02*
X27452Y-26049D01*
X28236Y-29589D02*
X28486Y-29839D01*
X28486Y-29589D02*
X28236Y-29839D01*
X28365Y-34143D02*
X28615Y-34393D01*
X28615Y-34143D02*
X28365Y-34393D01*
X28480Y-30587D02*
X28730Y-30837D01*
X28730Y-30587D02*
X28480Y-30837D01*
X28911Y-31440D02*
X29161Y-31690D01*
X29161Y-31440D02*
X28911Y-31690D01*
X29385Y-32051D02*
X29635Y-32301D01*
X29635Y-32051D02*
X29385Y-32301D01*
X30052Y-26574D02*
X30302Y-26824D01*
X30302Y-26574D02*
X30052Y-26824D01*
X30321Y-31909D02*
X30571Y-32159D01*
X30571Y-31909D02*
X30321Y-32159D01*
X30464Y-20383D02*
X30714Y-20633D01*
X30714Y-20383D02*
X30464Y-20633D01*
X30854Y-34437D02*
X31104Y-34687D01*
X31104Y-34437D02*
X30854Y-34687D01*
X30926Y-33675D02*
X31176Y-33925D01*
X31176Y-33675D02*
X30926Y-33925D01*
X30927Y-22790D02*
X31177Y-23040D01*
X31177Y-22790D02*
X30927Y-23040D01*
X31061Y-20214D02*
X31311Y-20464D01*
X31311Y-20214D02*
X31061Y-20464D01*
X31114Y-20771D02*
X31364Y-21021D01*
X31364Y-20771D02*
X31114Y-21021D01*
X31475Y-27133D02*
X31725Y-27383D01*
X31725Y-27133D02*
X31475Y-27383D01*
X31510Y-23464D02*
X31760Y-23714D01*
X31760Y-23464D02*
X31510Y-23714D01*
X31919Y-23277D02*
X32169Y-23527D01*
X32169Y-23277D02*
X31919Y-23527D01*
X32553Y-30681D02*
X32803Y-30931D01*
X32803Y-30681D02*
X32553Y-30931D01*
X32746Y-23454D02*
X32996Y-23704D01*
X32996Y-23454D02*
X32746Y-23704D01*
X33731Y-30351D02*
X33981Y-30601D01*
X33981Y-30351D02*
X33731Y-30601D01*
X33975Y-24236D02*
X34225Y-24486D01*
X34225Y-24236D02*
X33975Y-24486D01*
X34141Y-20197D02*
X34391Y-20447D01*
X34391Y-20197D02*
X34141Y-20447D01*
X34321Y-33842D02*
X34571Y-34092D01*
X34571Y-33842D02*
X34321Y-34092D01*
X34543Y-35464D02*
X34793Y-35714D01*
X34793Y-35464D02*
X34543Y-35714D01*
X34799Y-33169D02*
X35049Y-33419D01*
X35049Y-33169D02*
X34799Y-33419D01*
X35348Y-32929D02*
X35598Y-33179D01*
X35598Y-32929D02*
X35348Y-33179D01*
X35572Y-22417D02*
X35822Y-22667D01*
X35822Y-22417D02*
X35572Y-22667D01*
X35755Y-27750D02*
X36005Y-28000D01*
X36005Y-27750D02*
X35755Y-28000D01*
X35765Y-20866D02*
X36015Y-21116D01*
X36015Y-20866D02*
X35765Y-21116D01*
X35802Y-21303D02*
X36052Y-21553D01*
X36052Y-21303D02*
X35802Y-21553D01*
X36159Y-28945D02*
X36409Y-29195D01*
X36409Y-28945D02*
X36159Y-29195D01*
X36277Y-21924D02*
X36527Y-22174D01*
X36527Y-21924D02*
X36277Y-22174D01*
X36496Y-33960D02*
X36746Y-34210D01*
X36746Y-33960D02*
X36496Y-34210D01*
X36959Y-31526D02*
X37209Y-31776D01*
X37209Y-31526D02*
X36959Y-31776D01*
X38929Y-25901D02*
X39179Y-26151D01*
X39179Y-25901D02*
X38929Y-26151D01*
X39246Y-31824D02*
X39496Y-32074D01*
X39496Y-31824D02*
X39246Y-32074D01*
X39247Y-32244D02*
X39497Y-32494D01*
X39497Y-32244D02*
X39247Y-32494D01*
X39539Y-26017D02*
X39789Y-26267D01*
X39789Y-26017D02*
X39539Y-26267D01*
X39640Y-25550D02*
X39890Y-25800D01*
X39890Y-25550D02*
X39640Y-25800D01*
X39751Y-30591D02*
X40001Y-30841D01*
X40001Y-30591D02*
X39751Y-30841D01*
X40367Y-30360D02*
X40617Y-30610D01*
X40617Y-30360D02*
X40367Y-30610D01*
X27399Y-25411D02*
X27395Y-25442D01*
X27386Y-25471D01*
X27372Y-25499D01*
X27352Y-25523D01*
X27328Y-25543D01*
X27301Y-25558D01*
X27271Y-25567D01*
X27240Y-25570D01*
X27210Y-25568D01*
X27180Y-25559D01*
X27152Y-25544D01*
X27128Y-25525D01*
X27107Y-25501D01*
X27092Y-25474D01*
X27083Y-25444D01*
X27080Y-25413D01*
X27082Y-25383D01*
X27091Y-25353D01*
X27105Y-25325D01*
X27124Y-25300D01*
X27148Y-25280D01*
X27175Y-25265D01*
X27205Y-25255D01*
X27236Y-25252D01*
X27266Y-25254D01*
X27296Y-25262D01*
X27324Y-25276D01*
X27349Y-25296D01*
X27369Y-25319D01*
X27385Y-25346D01*
X27395Y-25376D01*
X27398Y-25407D01*
X27399Y-25411D01*
X28106Y-24704D02*
X28102Y-24735D01*
X28093Y-24764D01*
X28079Y-24792D01*
X28059Y-24816D01*
X28035Y-24836D01*
X28008Y-24851D01*
X27978Y-24860D01*
X27947Y-24863D01*
X27917Y-24861D01*
X27887Y-24852D01*
X27859Y-24837D01*
X27835Y-24818D01*
X27814Y-24794D01*
X27799Y-24767D01*
X27790Y-24737D01*
X27787Y-24706D01*
X27789Y-24676D01*
X27798Y-24646D01*
X27812Y-24618D01*
X27831Y-24593D01*
X27855Y-24573D01*
X27882Y-24558D01*
X27912Y-24548D01*
X27943Y-24545D01*
X27973Y-24547D01*
X28003Y-24555D01*
X28031Y-24569D01*
X28056Y-24589D01*
X28076Y-24612D01*
X28092Y-24639D01*
X28102Y-24669D01*
X28105Y-24700D01*
X28106Y-24704D01*
X28814Y-23996D02*
X28810Y-24027D01*
X28801Y-24056D01*
X28787Y-24084D01*
X28767Y-24108D01*
X28743Y-24128D01*
X28716Y-24143D01*
X28686Y-24152D01*
X28655Y-24155D01*
X28625Y-24153D01*
X28595Y-24144D01*
X28567Y-24129D01*
X28543Y-24110D01*
X28522Y-24086D01*
X28507Y-24059D01*
X28498Y-24029D01*
X28495Y-23998D01*
X28497Y-23968D01*
X28506Y-23938D01*
X28520Y-23910D01*
X28539Y-23885D01*
X28563Y-23865D01*
X28590Y-23850D01*
X28620Y-23840D01*
X28651Y-23837D01*
X28681Y-23839D01*
X28711Y-23847D01*
X28739Y-23861D01*
X28764Y-23881D01*
X28784Y-23904D01*
X28800Y-23931D01*
X28810Y-23961D01*
X28813Y-23992D01*
X28814Y-23996D01*
X29521Y-23289D02*
X29517Y-23320D01*
X29508Y-23349D01*
X29494Y-23377D01*
X29474Y-23401D01*
X29450Y-23421D01*
X29423Y-23436D01*
X29393Y-23445D01*
X29362Y-23448D01*
X29332Y-23446D01*
X29302Y-23437D01*
X29274Y-23422D01*
X29250Y-23403D01*
X29229Y-23379D01*
X29214Y-23352D01*
X29205Y-23322D01*
X29202Y-23291D01*
X29204Y-23261D01*
X29213Y-23231D01*
X29227Y-23203D01*
X29246Y-23178D01*
X29270Y-23158D01*
X29297Y-23143D01*
X29327Y-23133D01*
X29358Y-23130D01*
X29388Y-23132D01*
X29418Y-23140D01*
X29446Y-23154D01*
X29471Y-23174D01*
X29491Y-23197D01*
X29507Y-23224D01*
X29517Y-23254D01*
X29520Y-23285D01*
X29521Y-23289D01*
X30410Y-22250D02*
X30406Y-22281D01*
X30397Y-22310D01*
X30383Y-22338D01*
X30363Y-22362D01*
X30339Y-22382D01*
X30312Y-22397D01*
X30282Y-22406D01*
X30251Y-22409D01*
X30221Y-22407D01*
X30191Y-22398D01*
X30163Y-22383D01*
X30139Y-22364D01*
X30118Y-22340D01*
X30103Y-22313D01*
X30094Y-22283D01*
X30091Y-22252D01*
X30093Y-22222D01*
X30102Y-22192D01*
X30116Y-22164D01*
X30135Y-22139D01*
X30159Y-22119D01*
X30186Y-22104D01*
X30216Y-22094D01*
X30247Y-22091D01*
X30277Y-22093D01*
X30307Y-22101D01*
X30335Y-22115D01*
X30360Y-22135D01*
X30380Y-22158D01*
X30396Y-22185D01*
X30406Y-22215D01*
X30409Y-22246D01*
X30410Y-22250D01*
X31410Y-22250D02*
X31406Y-22281D01*
X31397Y-22310D01*
X31383Y-22338D01*
X31363Y-22362D01*
X31339Y-22382D01*
X31312Y-22397D01*
X31282Y-22406D01*
X31251Y-22409D01*
X31221Y-22407D01*
X31191Y-22398D01*
X31163Y-22383D01*
X31139Y-22364D01*
X31118Y-22340D01*
X31103Y-22313D01*
X31094Y-22283D01*
X31091Y-22252D01*
X31093Y-22222D01*
X31102Y-22192D01*
X31116Y-22164D01*
X31135Y-22139D01*
X31159Y-22119D01*
X31186Y-22104D01*
X31216Y-22094D01*
X31247Y-22091D01*
X31277Y-22093D01*
X31307Y-22101D01*
X31335Y-22115D01*
X31360Y-22135D01*
X31380Y-22158D01*
X31396Y-22185D01*
X31406Y-22215D01*
X31409Y-22246D01*
X31410Y-22250D01*
X32410Y-22250D02*
X32406Y-22281D01*
X32397Y-22310D01*
X32383Y-22338D01*
X32363Y-22362D01*
X32339Y-22382D01*
X32312Y-22397D01*
X32282Y-22406D01*
X32251Y-22409D01*
X32221Y-22407D01*
X32191Y-22398D01*
X32163Y-22383D01*
X32139Y-22364D01*
X32118Y-22340D01*
X32103Y-22313D01*
X32094Y-22283D01*
X32091Y-22252D01*
X32093Y-22222D01*
X32102Y-22192D01*
X32116Y-22164D01*
X32135Y-22139D01*
X32159Y-22119D01*
X32186Y-22104D01*
X32216Y-22094D01*
X32247Y-22091D01*
X32277Y-22093D01*
X32307Y-22101D01*
X32335Y-22115D01*
X32360Y-22135D01*
X32380Y-22158D01*
X32396Y-22185D01*
X32406Y-22215D01*
X32409Y-22246D01*
X32410Y-22250D01*
X33410Y-22250D02*
X33406Y-22281D01*
X33397Y-22310D01*
X33383Y-22338D01*
X33363Y-22362D01*
X33339Y-22382D01*
X33312Y-22397D01*
X33282Y-22406D01*
X33251Y-22409D01*
X33221Y-22407D01*
X33191Y-22398D01*
X33163Y-22383D01*
X33139Y-22364D01*
X33118Y-22340D01*
X33103Y-22313D01*
X33094Y-22283D01*
X33091Y-22252D01*
X33093Y-22222D01*
X33102Y-22192D01*
X33116Y-22164D01*
X33135Y-22139D01*
X33159Y-22119D01*
X33186Y-22104D01*
X33216Y-22094D01*
X33247Y-22091D01*
X33277Y-22093D01*
X33307Y-22101D01*
X33335Y-22115D01*
X33360Y-22135D01*
X33380Y-22158D01*
X33396Y-22185D01*
X33406Y-22215D01*
X33409Y-22246D01*
X33410Y-22250D01*
X34410Y-22250D02*
X34406Y-22281D01*
X34397Y-22310D01*
X34383Y-22338D01*
X34363Y-22362D01*
X34339Y-22382D01*
X34312Y-22397D01*
X34282Y-22406D01*
X34251Y-22409D01*
X34221Y-22407D01*
X34191Y-22398D01*
X34163Y-22383D01*
X34139Y-22364D01*
X34118Y-22340D01*
X34103Y-22313D01*
X34094Y-22283D01*
X34091Y-22252D01*
X34093Y-22222D01*
X34102Y-22192D01*
X34116Y-22164D01*
X34135Y-22139D01*
X34159Y-22119D01*
X34186Y-22104D01*
X34216Y-22094D01*
X34247Y-22091D01*
X34277Y-22093D01*
X34307Y-22101D01*
X34335Y-22115D01*
X34360Y-22135D01*
X34380Y-22158D01*
X34396Y-22185D01*
X34406Y-22215D01*
X34409Y-22246D01*
X34410Y-22250D01*
X35410Y-22250D02*
X35406Y-22281D01*
X35397Y-22310D01*
X35383Y-22338D01*
X35363Y-22362D01*
X35339Y-22382D01*
X35312Y-22397D01*
X35282Y-22406D01*
X35251Y-22409D01*
X35221Y-22407D01*
X35191Y-22398D01*
X35163Y-22383D01*
X35139Y-22364D01*
X35118Y-22340D01*
X35103Y-22313D01*
X35094Y-22283D01*
X35091Y-22252D01*
X35093Y-22222D01*
X35102Y-22192D01*
X35116Y-22164D01*
X35135Y-22139D01*
X35159Y-22119D01*
X35186Y-22104D01*
X35216Y-22094D01*
X35247Y-22091D01*
X35277Y-22093D01*
X35307Y-22101D01*
X35335Y-22115D01*
X35360Y-22135D01*
X35380Y-22158D01*
X35396Y-22185D01*
X35406Y-22215D01*
X35409Y-22246D01*
X35410Y-22250D01*
X36249Y-23289D02*
X36245Y-23320D01*
X36236Y-23349D01*
X36222Y-23377D01*
X36202Y-23401D01*
X36178Y-23421D01*
X36151Y-23436D01*
X36121Y-23445D01*
X36090Y-23448D01*
X36060Y-23446D01*
X36030Y-23437D01*
X36002Y-23422D01*
X35978Y-23403D01*
X35957Y-23379D01*
X35942Y-23352D01*
X35933Y-23322D01*
X35930Y-23291D01*
X35932Y-23261D01*
X35941Y-23231D01*
X35955Y-23203D01*
X35974Y-23178D01*
X35998Y-23158D01*
X36025Y-23143D01*
X36055Y-23133D01*
X36086Y-23130D01*
X36116Y-23132D01*
X36146Y-23140D01*
X36174Y-23154D01*
X36199Y-23174D01*
X36219Y-23197D01*
X36235Y-23224D01*
X36245Y-23254D01*
X36248Y-23285D01*
X36249Y-23289D01*
X36956Y-23996D02*
X36952Y-24027D01*
X36943Y-24056D01*
X36929Y-24084D01*
X36909Y-24108D01*
X36885Y-24128D01*
X36858Y-24143D01*
X36828Y-24152D01*
X36797Y-24155D01*
X36767Y-24153D01*
X36737Y-24144D01*
X36709Y-24129D01*
X36685Y-24110D01*
X36664Y-24086D01*
X36649Y-24059D01*
X36640Y-24029D01*
X36637Y-23998D01*
X36639Y-23968D01*
X36648Y-23938D01*
X36662Y-23910D01*
X36681Y-23885D01*
X36705Y-23865D01*
X36732Y-23850D01*
X36762Y-23840D01*
X36793Y-23837D01*
X36823Y-23839D01*
X36853Y-23847D01*
X36881Y-23861D01*
X36906Y-23881D01*
X36926Y-23904D01*
X36942Y-23931D01*
X36952Y-23961D01*
X36955Y-23992D01*
X36956Y-23996D01*
X37664Y-24704D02*
X37660Y-24735D01*
X37651Y-24764D01*
X37637Y-24792D01*
X37617Y-24816D01*
X37593Y-24836D01*
X37566Y-24851D01*
X37536Y-24860D01*
X37505Y-24863D01*
X37475Y-24861D01*
X37445Y-24852D01*
X37417Y-24837D01*
X37393Y-24818D01*
X37372Y-24794D01*
X37357Y-24767D01*
X37348Y-24737D01*
X37345Y-24706D01*
X37347Y-24676D01*
X37356Y-24646D01*
X37370Y-24618D01*
X37389Y-24593D01*
X37413Y-24573D01*
X37440Y-24558D01*
X37470Y-24548D01*
X37501Y-24545D01*
X37531Y-24547D01*
X37561Y-24555D01*
X37589Y-24569D01*
X37614Y-24589D01*
X37634Y-24612D01*
X37650Y-24639D01*
X37660Y-24669D01*
X37663Y-24700D01*
X37664Y-24704D01*
X38371Y-25411D02*
X38367Y-25442D01*
X38358Y-25471D01*
X38344Y-25499D01*
X38324Y-25523D01*
X38300Y-25543D01*
X38273Y-25558D01*
X38243Y-25567D01*
X38212Y-25570D01*
X38182Y-25568D01*
X38152Y-25559D01*
X38124Y-25544D01*
X38100Y-25525D01*
X38079Y-25501D01*
X38064Y-25474D01*
X38055Y-25444D01*
X38052Y-25413D01*
X38054Y-25383D01*
X38063Y-25353D01*
X38077Y-25325D01*
X38096Y-25300D01*
X38120Y-25280D01*
X38147Y-25265D01*
X38177Y-25255D01*
X38208Y-25252D01*
X38238Y-25254D01*
X38268Y-25262D01*
X38296Y-25276D01*
X38321Y-25296D01*
X38341Y-25319D01*
X38357Y-25346D01*
X38367Y-25376D01*
X38370Y-25407D01*
X38371Y-25411D01*
X32250Y-26650D02*
X32250Y-27050D01*
X32450Y-26850D02*
X32050Y-26850D01*
X32250Y-27650D02*
X32250Y-28050D01*
X32450Y-27850D02*
X32050Y-27850D01*
X32250Y-28650D02*
X32250Y-29050D01*
X32450Y-28850D02*
X32050Y-28850D01*
X33250Y-26650D02*
X33250Y-27050D01*
X33450Y-26850D02*
X33050Y-26850D01*
X33250Y-27650D02*
X33250Y-28050D01*
X33450Y-27850D02*
X33050Y-27850D01*
X33250Y-28650D02*
X33250Y-29050D01*
X33450Y-28850D02*
X33050Y-28850D01*
X30650Y-25150D02*
X30638Y-25266D01*
X30604Y-25378D01*
X30549Y-25482D01*
X30475Y-25572D01*
X30385Y-25647D01*
X30282Y-25703D01*
X30170Y-25737D01*
X30054Y-25749D01*
X29938Y-25739D01*
X29826Y-25706D01*
X29722Y-25652D01*
X29631Y-25578D01*
X29555Y-25488D01*
X29499Y-25386D01*
X29464Y-25274D01*
X29451Y-25158D01*
X29460Y-25042D01*
X29493Y-24930D01*
X29546Y-24825D01*
X29619Y-24734D01*
X29708Y-24658D01*
X29810Y-24601D01*
X29922Y-24564D01*
X30038Y-24551D01*
X30154Y-24560D01*
X30266Y-24591D01*
X30371Y-24644D01*
X30463Y-24716D01*
X30540Y-24805D01*
X30598Y-24906D01*
X30635Y-25018D01*
X30649Y-25134D01*
X30650Y-25150D01*
X29450Y-24550D02*
X30650Y-25750D01*
X30650Y-24550D02*
X29450Y-25750D01*
X30650Y-30550D02*
X30638Y-30666D01*
X30604Y-30778D01*
X30549Y-30882D01*
X30475Y-30972D01*
X30385Y-31047D01*
X30282Y-31103D01*
X30170Y-31137D01*
X30054Y-31149D01*
X29938Y-31139D01*
X29826Y-31106D01*
X29722Y-31052D01*
X29631Y-30978D01*
X29555Y-30888D01*
X29499Y-30786D01*
X29464Y-30674D01*
X29451Y-30558D01*
X29460Y-30442D01*
X29493Y-30330D01*
X29546Y-30225D01*
X29619Y-30134D01*
X29708Y-30058D01*
X29810Y-30001D01*
X29922Y-29964D01*
X30038Y-29951D01*
X30154Y-29960D01*
X30266Y-29991D01*
X30371Y-30044D01*
X30463Y-30116D01*
X30540Y-30205D01*
X30598Y-30306D01*
X30635Y-30418D01*
X30649Y-30534D01*
X30650Y-30550D01*
X29450Y-29950D02*
X30650Y-31150D01*
X30650Y-29950D02*
X29450Y-31150D01*
X36050Y-25150D02*
X36038Y-25266D01*
X36004Y-25378D01*
X35949Y-25482D01*
X35875Y-25572D01*
X35785Y-25647D01*
X35682Y-25703D01*
X35570Y-25737D01*
X35454Y-25749D01*
X35338Y-25739D01*
X35226Y-25706D01*
X35122Y-25652D01*
X35031Y-25578D01*
X34955Y-25488D01*
X34899Y-25386D01*
X34864Y-25274D01*
X34851Y-25158D01*
X34860Y-25042D01*
X34893Y-24930D01*
X34946Y-24825D01*
X35019Y-24734D01*
X35108Y-24658D01*
X35210Y-24601D01*
X35322Y-24564D01*
X35438Y-24551D01*
X35554Y-24560D01*
X35666Y-24591D01*
X35771Y-24644D01*
X35863Y-24716D01*
X35940Y-24805D01*
X35998Y-24906D01*
X36035Y-25018D01*
X36049Y-25134D01*
X36050Y-25150D01*
X34850Y-24550D02*
X36050Y-25750D01*
X36050Y-24550D02*
X34850Y-25750D01*
X36050Y-30550D02*
X36038Y-30666D01*
X36004Y-30778D01*
X35949Y-30882D01*
X35875Y-30972D01*
X35785Y-31047D01*
X35682Y-31103D01*
X35570Y-31137D01*
X35454Y-31149D01*
X35338Y-31139D01*
X35226Y-31106D01*
X35122Y-31052D01*
X35031Y-30978D01*
X34955Y-30888D01*
X34899Y-30786D01*
X34864Y-30674D01*
X34851Y-30558D01*
X34860Y-30442D01*
X34893Y-30330D01*
X34946Y-30225D01*
X35019Y-30134D01*
X35108Y-30058D01*
X35210Y-30001D01*
X35322Y-29964D01*
X35438Y-29951D01*
X35554Y-29960D01*
X35666Y-29991D01*
X35771Y-30044D01*
X35863Y-30116D01*
X35940Y-30205D01*
X35998Y-30306D01*
X36035Y-30418D01*
X36049Y-30534D01*
X36050Y-30550D01*
X34850Y-29950D02*
X36050Y-31150D01*
X36050Y-29950D02*
X34850Y-31150D01*
G54D11*
X21375Y-40769D02*
X21375Y-39969D01*
X21566Y-39969D01*
X21680Y-40007D01*
X21756Y-40083D01*
X21795Y-40159D01*
X21833Y-40312D01*
X21833Y-40426D01*
X21795Y-40578D01*
X21756Y-40655D01*
X21680Y-40731D01*
X21566Y-40769D01*
X21375Y-40769D01*
X22175Y-40769D02*
X22175Y-40235D01*
X22175Y-40388D02*
X22214Y-40312D01*
X22252Y-40274D01*
X22328Y-40235D01*
X22404Y-40235D01*
X22670Y-40769D02*
X22670Y-40235D01*
X22670Y-39969D02*
X22632Y-40007D01*
X22670Y-40045D01*
X22709Y-40007D01*
X22670Y-39969D01*
X22670Y-40045D01*
X23166Y-40769D02*
X23090Y-40731D01*
X23051Y-40655D01*
X23051Y-39969D01*
X23585Y-40769D02*
X23509Y-40731D01*
X23470Y-40655D01*
X23470Y-39969D01*
X24499Y-40769D02*
X24499Y-39969D01*
X24766Y-40540D01*
X25033Y-39969D01*
X25033Y-40769D01*
X25756Y-40769D02*
X25756Y-40350D01*
X25718Y-40274D01*
X25642Y-40235D01*
X25490Y-40235D01*
X25413Y-40274D01*
X25756Y-40731D02*
X25680Y-40769D01*
X25490Y-40769D01*
X25413Y-40731D01*
X25375Y-40655D01*
X25375Y-40578D01*
X25413Y-40502D01*
X25490Y-40464D01*
X25680Y-40464D01*
X25756Y-40426D01*
X26137Y-40235D02*
X26137Y-41035D01*
X26137Y-40274D02*
X26214Y-40235D01*
X26366Y-40235D01*
X26442Y-40274D01*
X26480Y-40312D01*
X26518Y-40388D01*
X26518Y-40616D01*
X26480Y-40693D01*
X26442Y-40731D01*
X26366Y-40769D01*
X26214Y-40769D01*
X26137Y-40731D01*
X26861Y-40693D02*
X26900Y-40731D01*
X26861Y-40769D01*
X26823Y-40731D01*
X26861Y-40693D01*
X26861Y-40769D01*
X26861Y-40274D02*
X26900Y-40312D01*
X26861Y-40350D01*
X26823Y-40312D01*
X26861Y-40274D01*
X26861Y-40350D01*
X20735Y-42000D02*
X20985Y-42250D01*
X20985Y-42000D02*
X20735Y-42250D01*
X21528Y-41649D02*
X21604Y-41649D01*
X21680Y-41687D01*
X21718Y-41725D01*
X21756Y-41801D01*
X21795Y-41954D01*
X21795Y-42144D01*
X21756Y-42296D01*
X21718Y-42373D01*
X21680Y-42411D01*
X21604Y-42449D01*
X21528Y-42449D01*
X21452Y-42411D01*
X21414Y-42373D01*
X21375Y-42296D01*
X21337Y-42144D01*
X21337Y-41954D01*
X21375Y-41801D01*
X21414Y-41725D01*
X21452Y-41687D01*
X21528Y-41649D01*
X22137Y-42373D02*
X22176Y-42411D01*
X22137Y-42449D01*
X22099Y-42411D01*
X22137Y-42373D01*
X22137Y-42449D01*
X22671Y-41649D02*
X22747Y-41649D01*
X22823Y-41687D01*
X22861Y-41725D01*
X22899Y-41801D01*
X22938Y-41954D01*
X22938Y-42144D01*
X22899Y-42296D01*
X22861Y-42373D01*
X22823Y-42411D01*
X22747Y-42449D01*
X22671Y-42449D01*
X22595Y-42411D01*
X22557Y-42373D01*
X22518Y-42296D01*
X22480Y-42144D01*
X22480Y-41954D01*
X22518Y-41801D01*
X22557Y-41725D01*
X22595Y-41687D01*
X22671Y-41649D01*
X23242Y-41725D02*
X23280Y-41687D01*
X23357Y-41649D01*
X23547Y-41649D01*
X23623Y-41687D01*
X23661Y-41725D01*
X23700Y-41801D01*
X23700Y-41877D01*
X23661Y-41992D01*
X23204Y-42449D01*
X23700Y-42449D01*
X24423Y-41649D02*
X24042Y-41649D01*
X24004Y-42030D01*
X24042Y-41992D01*
X24119Y-41954D01*
X24309Y-41954D01*
X24385Y-41992D01*
X24423Y-42030D01*
X24462Y-42106D01*
X24462Y-42296D01*
X24423Y-42373D01*
X24385Y-42411D01*
X24309Y-42449D01*
X24119Y-42449D01*
X24042Y-42411D01*
X24004Y-42373D01*
X24766Y-41649D02*
X24766Y-41801D01*
X25071Y-41649D02*
X25071Y-41801D01*
X26596Y-41611D02*
X25910Y-42639D01*
X27625Y-41649D02*
X27701Y-41649D01*
X27777Y-41687D01*
X27815Y-41725D01*
X27853Y-41801D01*
X27892Y-41954D01*
X27892Y-42144D01*
X27853Y-42296D01*
X27815Y-42373D01*
X27777Y-42411D01*
X27701Y-42449D01*
X27625Y-42449D01*
X27549Y-42411D01*
X27511Y-42373D01*
X27472Y-42296D01*
X27434Y-42144D01*
X27434Y-41954D01*
X27472Y-41801D01*
X27511Y-41725D01*
X27549Y-41687D01*
X27625Y-41649D01*
X28234Y-42373D02*
X28273Y-42411D01*
X28234Y-42449D01*
X28196Y-42411D01*
X28234Y-42373D01*
X28234Y-42449D01*
X28958Y-41649D02*
X28806Y-41649D01*
X28730Y-41687D01*
X28692Y-41725D01*
X28615Y-41839D01*
X28577Y-41992D01*
X28577Y-42296D01*
X28615Y-42373D01*
X28654Y-42411D01*
X28730Y-42449D01*
X28882Y-42449D01*
X28958Y-42411D01*
X28996Y-42373D01*
X29035Y-42296D01*
X29035Y-42106D01*
X28996Y-42030D01*
X28958Y-41992D01*
X28882Y-41954D01*
X28730Y-41954D01*
X28654Y-41992D01*
X28615Y-42030D01*
X28577Y-42106D01*
X29720Y-41915D02*
X29720Y-42449D01*
X29530Y-41611D02*
X29339Y-42182D01*
X29835Y-42182D01*
X30139Y-42449D02*
X30139Y-41915D01*
X30139Y-41992D02*
X30178Y-41954D01*
X30254Y-41915D01*
X30368Y-41915D01*
X30444Y-41954D01*
X30482Y-42030D01*
X30482Y-42449D01*
X30482Y-42030D02*
X30520Y-41954D01*
X30597Y-41915D01*
X30711Y-41915D01*
X30787Y-41954D01*
X30825Y-42030D01*
X30825Y-42449D01*
X31206Y-42449D02*
X31206Y-41915D01*
X31206Y-41992D02*
X31245Y-41954D01*
X31321Y-41915D01*
X31435Y-41915D01*
X31511Y-41954D01*
X31549Y-42030D01*
X31549Y-42449D01*
X31549Y-42030D02*
X31587Y-41954D01*
X31664Y-41915D01*
X31778Y-41915D01*
X31854Y-41954D01*
X31892Y-42030D01*
X31892Y-42449D01*
X33112Y-42754D02*
X33074Y-42715D01*
X32998Y-42601D01*
X32960Y-42525D01*
X32922Y-42411D01*
X32883Y-42220D01*
X32883Y-42068D01*
X32922Y-41877D01*
X32960Y-41763D01*
X32998Y-41687D01*
X33074Y-41573D01*
X33112Y-41535D01*
X33759Y-41915D02*
X33759Y-42449D01*
X33569Y-41611D02*
X33378Y-42182D01*
X33874Y-42182D01*
X34102Y-41649D02*
X34636Y-41649D01*
X34293Y-42449D01*
X35550Y-42449D02*
X35550Y-41649D01*
X35893Y-42449D02*
X35893Y-42030D01*
X35855Y-41954D01*
X35779Y-41915D01*
X35665Y-41915D01*
X35589Y-41954D01*
X35550Y-41992D01*
X36389Y-42449D02*
X36313Y-42411D01*
X36274Y-42373D01*
X36236Y-42296D01*
X36236Y-42068D01*
X36274Y-41992D01*
X36313Y-41954D01*
X36389Y-41915D01*
X36503Y-41915D01*
X36579Y-41954D01*
X36617Y-41992D01*
X36655Y-42068D01*
X36655Y-42296D01*
X36617Y-42373D01*
X36579Y-42411D01*
X36503Y-42449D01*
X36389Y-42449D01*
X37113Y-42449D02*
X37037Y-42411D01*
X36998Y-42335D01*
X36998Y-41649D01*
X37722Y-42411D02*
X37646Y-42449D01*
X37494Y-42449D01*
X37417Y-42411D01*
X37379Y-42335D01*
X37379Y-42030D01*
X37417Y-41954D01*
X37494Y-41915D01*
X37646Y-41915D01*
X37722Y-41954D01*
X37760Y-42030D01*
X37760Y-42106D01*
X37379Y-42182D01*
X38065Y-42411D02*
X38142Y-42449D01*
X38294Y-42449D01*
X38370Y-42411D01*
X38408Y-42335D01*
X38408Y-42296D01*
X38370Y-42220D01*
X38294Y-42182D01*
X38180Y-42182D01*
X38103Y-42144D01*
X38065Y-42068D01*
X38065Y-42030D01*
X38103Y-41954D01*
X38180Y-41915D01*
X38294Y-41915D01*
X38370Y-41954D01*
X38675Y-42754D02*
X38713Y-42715D01*
X38790Y-42601D01*
X38828Y-42525D01*
X38866Y-42411D01*
X38904Y-42220D01*
X38904Y-42068D01*
X38866Y-41877D01*
X38828Y-41763D01*
X38790Y-41687D01*
X38713Y-41573D01*
X38675Y-41535D01*
G54D10*
X20985Y-43180D02*
X20981Y-43211D01*
X20972Y-43240D01*
X20958Y-43268D01*
X20938Y-43292D01*
X20914Y-43312D01*
X20887Y-43327D01*
X20857Y-43336D01*
X20826Y-43339D01*
X20796Y-43337D01*
X20766Y-43328D01*
X20738Y-43313D01*
X20714Y-43294D01*
X20693Y-43270D01*
X20678Y-43243D01*
X20669Y-43213D01*
X20666Y-43182D01*
X20668Y-43152D01*
X20677Y-43122D01*
X20691Y-43094D01*
X20710Y-43069D01*
X20734Y-43049D01*
X20761Y-43034D01*
X20791Y-43024D01*
X20822Y-43021D01*
X20852Y-43023D01*
X20882Y-43031D01*
X20910Y-43045D01*
X20935Y-43065D01*
X20955Y-43088D01*
X20971Y-43115D01*
X20981Y-43145D01*
X20984Y-43176D01*
X20985Y-43180D01*
G54D11*
X21528Y-42704D02*
X21604Y-42704D01*
X21680Y-42742D01*
X21718Y-42780D01*
X21756Y-42856D01*
X21795Y-43009D01*
X21795Y-43199D01*
X21756Y-43351D01*
X21718Y-43428D01*
X21680Y-43466D01*
X21604Y-43504D01*
X21528Y-43504D01*
X21452Y-43466D01*
X21414Y-43428D01*
X21375Y-43351D01*
X21337Y-43199D01*
X21337Y-43009D01*
X21375Y-42856D01*
X21414Y-42780D01*
X21452Y-42742D01*
X21528Y-42704D01*
X22137Y-43428D02*
X22176Y-43466D01*
X22137Y-43504D01*
X22099Y-43466D01*
X22137Y-43428D01*
X22137Y-43504D01*
X22671Y-42704D02*
X22747Y-42704D01*
X22823Y-42742D01*
X22861Y-42780D01*
X22899Y-42856D01*
X22938Y-43009D01*
X22938Y-43199D01*
X22899Y-43351D01*
X22861Y-43428D01*
X22823Y-43466D01*
X22747Y-43504D01*
X22671Y-43504D01*
X22595Y-43466D01*
X22557Y-43428D01*
X22518Y-43351D01*
X22480Y-43199D01*
X22480Y-43009D01*
X22518Y-42856D01*
X22557Y-42780D01*
X22595Y-42742D01*
X22671Y-42704D01*
X23204Y-42704D02*
X23700Y-42704D01*
X23433Y-43009D01*
X23547Y-43009D01*
X23623Y-43047D01*
X23661Y-43085D01*
X23700Y-43161D01*
X23700Y-43351D01*
X23661Y-43428D01*
X23623Y-43466D01*
X23547Y-43504D01*
X23319Y-43504D01*
X23242Y-43466D01*
X23204Y-43428D01*
X24004Y-42780D02*
X24042Y-42742D01*
X24119Y-42704D01*
X24309Y-42704D01*
X24385Y-42742D01*
X24423Y-42780D01*
X24462Y-42856D01*
X24462Y-42932D01*
X24423Y-43047D01*
X23966Y-43504D01*
X24462Y-43504D01*
X24766Y-42704D02*
X24766Y-42856D01*
X25071Y-42704D02*
X25071Y-42856D01*
X26596Y-42666D02*
X25910Y-43694D01*
X27625Y-42704D02*
X27701Y-42704D01*
X27777Y-42742D01*
X27815Y-42780D01*
X27853Y-42856D01*
X27892Y-43009D01*
X27892Y-43199D01*
X27853Y-43351D01*
X27815Y-43428D01*
X27777Y-43466D01*
X27701Y-43504D01*
X27625Y-43504D01*
X27549Y-43466D01*
X27511Y-43428D01*
X27472Y-43351D01*
X27434Y-43199D01*
X27434Y-43009D01*
X27472Y-42856D01*
X27511Y-42780D01*
X27549Y-42742D01*
X27625Y-42704D01*
X28234Y-43428D02*
X28273Y-43466D01*
X28234Y-43504D01*
X28196Y-43466D01*
X28234Y-43428D01*
X28234Y-43504D01*
X28730Y-43047D02*
X28654Y-43009D01*
X28615Y-42970D01*
X28577Y-42894D01*
X28577Y-42856D01*
X28615Y-42780D01*
X28654Y-42742D01*
X28730Y-42704D01*
X28882Y-42704D01*
X28958Y-42742D01*
X28996Y-42780D01*
X29035Y-42856D01*
X29035Y-42894D01*
X28996Y-42970D01*
X28958Y-43009D01*
X28882Y-43047D01*
X28730Y-43047D01*
X28654Y-43085D01*
X28615Y-43123D01*
X28577Y-43199D01*
X28577Y-43351D01*
X28615Y-43428D01*
X28654Y-43466D01*
X28730Y-43504D01*
X28882Y-43504D01*
X28958Y-43466D01*
X28996Y-43428D01*
X29035Y-43351D01*
X29035Y-43199D01*
X28996Y-43123D01*
X28958Y-43085D01*
X28882Y-43047D01*
X29797Y-43504D02*
X29339Y-43504D01*
X29568Y-43504D02*
X29568Y-42704D01*
X29492Y-42818D01*
X29416Y-42894D01*
X29339Y-42932D01*
X30139Y-43504D02*
X30139Y-42970D01*
X30139Y-43047D02*
X30178Y-43009D01*
X30254Y-42970D01*
X30368Y-42970D01*
X30444Y-43009D01*
X30482Y-43085D01*
X30482Y-43504D01*
X30482Y-43085D02*
X30520Y-43009D01*
X30597Y-42970D01*
X30711Y-42970D01*
X30787Y-43009D01*
X30825Y-43085D01*
X30825Y-43504D01*
X31206Y-43504D02*
X31206Y-42970D01*
X31206Y-43047D02*
X31245Y-43009D01*
X31321Y-42970D01*
X31435Y-42970D01*
X31511Y-43009D01*
X31549Y-43085D01*
X31549Y-43504D01*
X31549Y-43085D02*
X31587Y-43009D01*
X31664Y-42970D01*
X31778Y-42970D01*
X31854Y-43009D01*
X31892Y-43085D01*
X31892Y-43504D01*
X33112Y-43809D02*
X33074Y-43770D01*
X32998Y-43656D01*
X32960Y-43580D01*
X32922Y-43466D01*
X32883Y-43275D01*
X32883Y-43123D01*
X32922Y-42932D01*
X32960Y-42818D01*
X32998Y-42742D01*
X33074Y-42628D01*
X33112Y-42590D01*
X33836Y-43504D02*
X33378Y-43504D01*
X33607Y-43504D02*
X33607Y-42704D01*
X33531Y-42818D01*
X33455Y-42894D01*
X33378Y-42932D01*
X34521Y-42970D02*
X34521Y-43504D01*
X34331Y-42666D02*
X34140Y-43237D01*
X34636Y-43237D01*
X35550Y-43504D02*
X35550Y-42704D01*
X35893Y-43504D02*
X35893Y-43085D01*
X35855Y-43009D01*
X35779Y-42970D01*
X35665Y-42970D01*
X35589Y-43009D01*
X35550Y-43047D01*
X36389Y-43504D02*
X36313Y-43466D01*
X36274Y-43428D01*
X36236Y-43351D01*
X36236Y-43123D01*
X36274Y-43047D01*
X36313Y-43009D01*
X36389Y-42970D01*
X36503Y-42970D01*
X36579Y-43009D01*
X36617Y-43047D01*
X36655Y-43123D01*
X36655Y-43351D01*
X36617Y-43428D01*
X36579Y-43466D01*
X36503Y-43504D01*
X36389Y-43504D01*
X37113Y-43504D02*
X37037Y-43466D01*
X36998Y-43390D01*
X36998Y-42704D01*
X37722Y-43466D02*
X37646Y-43504D01*
X37494Y-43504D01*
X37417Y-43466D01*
X37379Y-43390D01*
X37379Y-43085D01*
X37417Y-43009D01*
X37494Y-42970D01*
X37646Y-42970D01*
X37722Y-43009D01*
X37760Y-43085D01*
X37760Y-43161D01*
X37379Y-43237D01*
X38065Y-43466D02*
X38142Y-43504D01*
X38294Y-43504D01*
X38370Y-43466D01*
X38408Y-43390D01*
X38408Y-43351D01*
X38370Y-43275D01*
X38294Y-43237D01*
X38180Y-43237D01*
X38103Y-43199D01*
X38065Y-43123D01*
X38065Y-43085D01*
X38103Y-43009D01*
X38180Y-42970D01*
X38294Y-42970D01*
X38370Y-43009D01*
X38675Y-43809D02*
X38713Y-43770D01*
X38790Y-43656D01*
X38828Y-43580D01*
X38866Y-43466D01*
X38904Y-43275D01*
X38904Y-43123D01*
X38866Y-42932D01*
X38828Y-42818D01*
X38790Y-42742D01*
X38713Y-42628D01*
X38675Y-42590D01*
X20785Y-44035D02*
X20785Y-44435D01*
X20985Y-44235D02*
X20585Y-44235D01*
X21528Y-43759D02*
X21604Y-43759D01*
X21680Y-43797D01*
X21718Y-43835D01*
X21756Y-43911D01*
X21795Y-44064D01*
X21795Y-44254D01*
X21756Y-44406D01*
X21718Y-44483D01*
X21680Y-44521D01*
X21604Y-44559D01*
X21528Y-44559D01*
X21452Y-44521D01*
X21414Y-44483D01*
X21375Y-44406D01*
X21337Y-44254D01*
X21337Y-44064D01*
X21375Y-43911D01*
X21414Y-43835D01*
X21452Y-43797D01*
X21528Y-43759D01*
X22137Y-44483D02*
X22176Y-44521D01*
X22137Y-44559D01*
X22099Y-44521D01*
X22137Y-44483D01*
X22137Y-44559D01*
X22671Y-43759D02*
X22747Y-43759D01*
X22823Y-43797D01*
X22861Y-43835D01*
X22899Y-43911D01*
X22938Y-44064D01*
X22938Y-44254D01*
X22899Y-44406D01*
X22861Y-44483D01*
X22823Y-44521D01*
X22747Y-44559D01*
X22671Y-44559D01*
X22595Y-44521D01*
X22557Y-44483D01*
X22518Y-44406D01*
X22480Y-44254D01*
X22480Y-44064D01*
X22518Y-43911D01*
X22557Y-43835D01*
X22595Y-43797D01*
X22671Y-43759D01*
X23623Y-44025D02*
X23623Y-44559D01*
X23433Y-43721D02*
X23242Y-44292D01*
X23738Y-44292D01*
X24195Y-43759D02*
X24271Y-43759D01*
X24347Y-43797D01*
X24385Y-43835D01*
X24423Y-43911D01*
X24462Y-44064D01*
X24462Y-44254D01*
X24423Y-44406D01*
X24385Y-44483D01*
X24347Y-44521D01*
X24271Y-44559D01*
X24195Y-44559D01*
X24119Y-44521D01*
X24081Y-44483D01*
X24042Y-44406D01*
X24004Y-44254D01*
X24004Y-44064D01*
X24042Y-43911D01*
X24081Y-43835D01*
X24119Y-43797D01*
X24195Y-43759D01*
X24766Y-43759D02*
X24766Y-43911D01*
X25071Y-43759D02*
X25071Y-43911D01*
X26596Y-43721D02*
X25910Y-44749D01*
X27892Y-44559D02*
X27434Y-44559D01*
X27663Y-44559D02*
X27663Y-43759D01*
X27587Y-43873D01*
X27511Y-43949D01*
X27434Y-43987D01*
X28234Y-44483D02*
X28273Y-44521D01*
X28234Y-44559D01*
X28196Y-44521D01*
X28234Y-44483D01*
X28234Y-44559D01*
X28768Y-43759D02*
X28844Y-43759D01*
X28920Y-43797D01*
X28958Y-43835D01*
X28996Y-43911D01*
X29035Y-44064D01*
X29035Y-44254D01*
X28996Y-44406D01*
X28958Y-44483D01*
X28920Y-44521D01*
X28844Y-44559D01*
X28768Y-44559D01*
X28692Y-44521D01*
X28654Y-44483D01*
X28615Y-44406D01*
X28577Y-44254D01*
X28577Y-44064D01*
X28615Y-43911D01*
X28654Y-43835D01*
X28692Y-43797D01*
X28768Y-43759D01*
X29339Y-43835D02*
X29377Y-43797D01*
X29454Y-43759D01*
X29644Y-43759D01*
X29720Y-43797D01*
X29758Y-43835D01*
X29797Y-43911D01*
X29797Y-43987D01*
X29758Y-44102D01*
X29301Y-44559D01*
X29797Y-44559D01*
X30139Y-44559D02*
X30139Y-44025D01*
X30139Y-44102D02*
X30178Y-44064D01*
X30254Y-44025D01*
X30368Y-44025D01*
X30444Y-44064D01*
X30482Y-44140D01*
X30482Y-44559D01*
X30482Y-44140D02*
X30520Y-44064D01*
X30597Y-44025D01*
X30711Y-44025D01*
X30787Y-44064D01*
X30825Y-44140D01*
X30825Y-44559D01*
X31206Y-44559D02*
X31206Y-44025D01*
X31206Y-44102D02*
X31245Y-44064D01*
X31321Y-44025D01*
X31435Y-44025D01*
X31511Y-44064D01*
X31549Y-44140D01*
X31549Y-44559D01*
X31549Y-44140D02*
X31587Y-44064D01*
X31664Y-44025D01*
X31778Y-44025D01*
X31854Y-44064D01*
X31892Y-44140D01*
X31892Y-44559D01*
X33112Y-44864D02*
X33074Y-44825D01*
X32998Y-44711D01*
X32960Y-44635D01*
X32922Y-44521D01*
X32883Y-44330D01*
X32883Y-44178D01*
X32922Y-43987D01*
X32960Y-43873D01*
X32998Y-43797D01*
X33074Y-43683D01*
X33112Y-43645D01*
X33759Y-43759D02*
X33607Y-43759D01*
X33531Y-43797D01*
X33493Y-43835D01*
X33416Y-43949D01*
X33378Y-44102D01*
X33378Y-44406D01*
X33416Y-44483D01*
X33455Y-44521D01*
X33531Y-44559D01*
X33683Y-44559D01*
X33759Y-44521D01*
X33797Y-44483D01*
X33836Y-44406D01*
X33836Y-44216D01*
X33797Y-44140D01*
X33759Y-44102D01*
X33683Y-44064D01*
X33531Y-44064D01*
X33455Y-44102D01*
X33416Y-44140D01*
X33378Y-44216D01*
X34788Y-44559D02*
X34788Y-43759D01*
X35131Y-44559D02*
X35131Y-44140D01*
X35093Y-44064D01*
X35017Y-44025D01*
X34903Y-44025D01*
X34827Y-44064D01*
X34788Y-44102D01*
X35627Y-44559D02*
X35551Y-44521D01*
X35512Y-44483D01*
X35474Y-44406D01*
X35474Y-44178D01*
X35512Y-44102D01*
X35551Y-44064D01*
X35627Y-44025D01*
X35741Y-44025D01*
X35817Y-44064D01*
X35855Y-44102D01*
X35893Y-44178D01*
X35893Y-44406D01*
X35855Y-44483D01*
X35817Y-44521D01*
X35741Y-44559D01*
X35627Y-44559D01*
X36351Y-44559D02*
X36275Y-44521D01*
X36236Y-44445D01*
X36236Y-43759D01*
X36960Y-44521D02*
X36884Y-44559D01*
X36732Y-44559D01*
X36655Y-44521D01*
X36617Y-44445D01*
X36617Y-44140D01*
X36655Y-44064D01*
X36732Y-44025D01*
X36884Y-44025D01*
X36960Y-44064D01*
X36998Y-44140D01*
X36998Y-44216D01*
X36617Y-44292D01*
X37303Y-44521D02*
X37380Y-44559D01*
X37532Y-44559D01*
X37608Y-44521D01*
X37646Y-44445D01*
X37646Y-44406D01*
X37608Y-44330D01*
X37532Y-44292D01*
X37418Y-44292D01*
X37341Y-44254D01*
X37303Y-44178D01*
X37303Y-44140D01*
X37341Y-44064D01*
X37418Y-44025D01*
X37532Y-44025D01*
X37608Y-44064D01*
X37913Y-44864D02*
X37951Y-44825D01*
X38028Y-44711D01*
X38066Y-44635D01*
X38104Y-44521D01*
X38142Y-44330D01*
X38142Y-44178D01*
X38104Y-43987D01*
X38066Y-43873D01*
X38028Y-43797D01*
X37951Y-43683D01*
X37913Y-43645D01*
G54D10*
X20985Y-45290D02*
X20973Y-45406D01*
X20939Y-45518D01*
X20884Y-45622D01*
X20810Y-45712D01*
X20720Y-45787D01*
X20617Y-45843D01*
X20505Y-45877D01*
X20389Y-45889D01*
X20273Y-45879D01*
X20161Y-45846D01*
X20057Y-45792D01*
X19966Y-45718D01*
X19890Y-45628D01*
X19834Y-45526D01*
X19799Y-45414D01*
X19786Y-45298D01*
X19795Y-45182D01*
X19828Y-45070D01*
X19881Y-44965D01*
X19954Y-44874D01*
X20043Y-44798D01*
X20145Y-44741D01*
X20257Y-44704D01*
X20373Y-44691D01*
X20489Y-44700D01*
X20601Y-44731D01*
X20706Y-44784D01*
X20798Y-44856D01*
X20875Y-44945D01*
X20933Y-45046D01*
X20970Y-45158D01*
X20984Y-45274D01*
X20985Y-45290D01*
X19785Y-44690D02*
X20985Y-45890D01*
X20985Y-44690D02*
X19785Y-45890D01*
G54D11*
X21528Y-44814D02*
X21604Y-44814D01*
X21680Y-44852D01*
X21718Y-44890D01*
X21756Y-44966D01*
X21795Y-45119D01*
X21795Y-45309D01*
X21756Y-45461D01*
X21718Y-45538D01*
X21680Y-45576D01*
X21604Y-45614D01*
X21528Y-45614D01*
X21452Y-45576D01*
X21414Y-45538D01*
X21375Y-45461D01*
X21337Y-45309D01*
X21337Y-45119D01*
X21375Y-44966D01*
X21414Y-44890D01*
X21452Y-44852D01*
X21528Y-44814D01*
X22137Y-45538D02*
X22176Y-45576D01*
X22137Y-45614D01*
X22099Y-45576D01*
X22137Y-45538D01*
X22137Y-45614D01*
X22938Y-45614D02*
X22480Y-45614D01*
X22709Y-45614D02*
X22709Y-44814D01*
X22633Y-44928D01*
X22557Y-45004D01*
X22480Y-45042D01*
X23242Y-44890D02*
X23280Y-44852D01*
X23357Y-44814D01*
X23547Y-44814D01*
X23623Y-44852D01*
X23661Y-44890D01*
X23700Y-44966D01*
X23700Y-45042D01*
X23661Y-45157D01*
X23204Y-45614D01*
X23700Y-45614D01*
X24195Y-44814D02*
X24271Y-44814D01*
X24347Y-44852D01*
X24385Y-44890D01*
X24423Y-44966D01*
X24462Y-45119D01*
X24462Y-45309D01*
X24423Y-45461D01*
X24385Y-45538D01*
X24347Y-45576D01*
X24271Y-45614D01*
X24195Y-45614D01*
X24119Y-45576D01*
X24081Y-45538D01*
X24042Y-45461D01*
X24004Y-45309D01*
X24004Y-45119D01*
X24042Y-44966D01*
X24081Y-44890D01*
X24119Y-44852D01*
X24195Y-44814D01*
X24766Y-44814D02*
X24766Y-44966D01*
X25071Y-44814D02*
X25071Y-44966D01*
X26596Y-44776D02*
X25910Y-45804D01*
X27396Y-44814D02*
X27892Y-44814D01*
X27625Y-45119D01*
X27739Y-45119D01*
X27815Y-45157D01*
X27853Y-45195D01*
X27892Y-45271D01*
X27892Y-45461D01*
X27853Y-45538D01*
X27815Y-45576D01*
X27739Y-45614D01*
X27511Y-45614D01*
X27434Y-45576D01*
X27396Y-45538D01*
X28234Y-45538D02*
X28273Y-45576D01*
X28234Y-45614D01*
X28196Y-45576D01*
X28234Y-45538D01*
X28234Y-45614D01*
X28768Y-44814D02*
X28844Y-44814D01*
X28920Y-44852D01*
X28958Y-44890D01*
X28996Y-44966D01*
X29035Y-45119D01*
X29035Y-45309D01*
X28996Y-45461D01*
X28958Y-45538D01*
X28920Y-45576D01*
X28844Y-45614D01*
X28768Y-45614D01*
X28692Y-45576D01*
X28654Y-45538D01*
X28615Y-45461D01*
X28577Y-45309D01*
X28577Y-45119D01*
X28615Y-44966D01*
X28654Y-44890D01*
X28692Y-44852D01*
X28768Y-44814D01*
X29758Y-44814D02*
X29377Y-44814D01*
X29339Y-45195D01*
X29377Y-45157D01*
X29454Y-45119D01*
X29644Y-45119D01*
X29720Y-45157D01*
X29758Y-45195D01*
X29797Y-45271D01*
X29797Y-45461D01*
X29758Y-45538D01*
X29720Y-45576D01*
X29644Y-45614D01*
X29454Y-45614D01*
X29377Y-45576D01*
X29339Y-45538D01*
X30139Y-45614D02*
X30139Y-45080D01*
X30139Y-45157D02*
X30178Y-45119D01*
X30254Y-45080D01*
X30368Y-45080D01*
X30444Y-45119D01*
X30482Y-45195D01*
X30482Y-45614D01*
X30482Y-45195D02*
X30520Y-45119D01*
X30597Y-45080D01*
X30711Y-45080D01*
X30787Y-45119D01*
X30825Y-45195D01*
X30825Y-45614D01*
X31206Y-45614D02*
X31206Y-45080D01*
X31206Y-45157D02*
X31245Y-45119D01*
X31321Y-45080D01*
X31435Y-45080D01*
X31511Y-45119D01*
X31549Y-45195D01*
X31549Y-45614D01*
X31549Y-45195D02*
X31587Y-45119D01*
X31664Y-45080D01*
X31778Y-45080D01*
X31854Y-45119D01*
X31892Y-45195D01*
X31892Y-45614D01*
X33112Y-45919D02*
X33074Y-45880D01*
X32998Y-45766D01*
X32960Y-45690D01*
X32922Y-45576D01*
X32883Y-45385D01*
X32883Y-45233D01*
X32922Y-45042D01*
X32960Y-44928D01*
X32998Y-44852D01*
X33074Y-44738D01*
X33112Y-44700D01*
X33759Y-45080D02*
X33759Y-45614D01*
X33569Y-44776D02*
X33378Y-45347D01*
X33874Y-45347D01*
X34788Y-45614D02*
X34788Y-44814D01*
X35131Y-45614D02*
X35131Y-45195D01*
X35093Y-45119D01*
X35017Y-45080D01*
X34903Y-45080D01*
X34827Y-45119D01*
X34788Y-45157D01*
X35627Y-45614D02*
X35551Y-45576D01*
X35512Y-45538D01*
X35474Y-45461D01*
X35474Y-45233D01*
X35512Y-45157D01*
X35551Y-45119D01*
X35627Y-45080D01*
X35741Y-45080D01*
X35817Y-45119D01*
X35855Y-45157D01*
X35893Y-45233D01*
X35893Y-45461D01*
X35855Y-45538D01*
X35817Y-45576D01*
X35741Y-45614D01*
X35627Y-45614D01*
X36351Y-45614D02*
X36275Y-45576D01*
X36236Y-45500D01*
X36236Y-44814D01*
X36960Y-45576D02*
X36884Y-45614D01*
X36732Y-45614D01*
X36655Y-45576D01*
X36617Y-45500D01*
X36617Y-45195D01*
X36655Y-45119D01*
X36732Y-45080D01*
X36884Y-45080D01*
X36960Y-45119D01*
X36998Y-45195D01*
X36998Y-45271D01*
X36617Y-45347D01*
X37303Y-45576D02*
X37380Y-45614D01*
X37532Y-45614D01*
X37608Y-45576D01*
X37646Y-45500D01*
X37646Y-45461D01*
X37608Y-45385D01*
X37532Y-45347D01*
X37418Y-45347D01*
X37341Y-45309D01*
X37303Y-45233D01*
X37303Y-45195D01*
X37341Y-45119D01*
X37418Y-45080D01*
X37532Y-45080D01*
X37608Y-45119D01*
X37913Y-45919D02*
X37951Y-45880D01*
X38028Y-45766D01*
X38066Y-45690D01*
X38104Y-45576D01*
X38142Y-45385D01*
X38142Y-45233D01*
X38104Y-45042D01*
X38066Y-44928D01*
X38028Y-44852D01*
X37951Y-44738D01*
X37913Y-44700D01*
M02*
