G04 (created by PCBNEW-RS274X (2011-07-08)-stable) date Fri 06 Jan 2012 05:22:34 PM CET*
G01*
G70*
G90*
%MOIN*%
G04 Gerber Fmt 3.4, Leading zero omitted, Abs format*
%FSLAX34Y34*%
G04 APERTURE LIST*
%ADD10C,0.006000*%
%ADD11C,0.008000*%
%ADD12C,0.015000*%
%ADD13C,0.000100*%
%ADD14C,0.002600*%
%ADD15C,0.002000*%
%ADD16C,0.004000*%
%ADD17R,0.086700X0.025700*%
%ADD18R,0.025700X0.086700*%
%ADD19R,0.068000X0.068000*%
%ADD20C,0.068000*%
%ADD21R,0.067000X0.059100*%
%ADD22R,0.059100X0.067000*%
%ADD23C,0.168000*%
%ADD24R,0.063000X0.063000*%
%ADD25C,0.063000*%
%ADD26R,0.078800X0.070900*%
%ADD27R,0.070900X0.078800*%
%ADD28R,0.067100X0.043400*%
%ADD29R,0.114300X0.071000*%
%ADD30R,0.043400X0.067100*%
%ADD31R,0.071000X0.114300*%
G04 APERTURE END LIST*
G54D10*
G54D11*
X37976Y-30362D02*
X37976Y-29962D01*
X38110Y-30248D01*
X38243Y-29962D01*
X38243Y-30362D01*
X38509Y-29962D02*
X38586Y-29962D01*
X38624Y-29981D01*
X38662Y-30019D01*
X38681Y-30095D01*
X38681Y-30229D01*
X38662Y-30305D01*
X38624Y-30343D01*
X38586Y-30362D01*
X38509Y-30362D01*
X38471Y-30343D01*
X38433Y-30305D01*
X38414Y-30229D01*
X38414Y-30095D01*
X38433Y-30019D01*
X38471Y-29981D01*
X38509Y-29962D01*
X39081Y-30362D02*
X38947Y-30171D01*
X38852Y-30362D02*
X38852Y-29962D01*
X39005Y-29962D01*
X39043Y-29981D01*
X39062Y-30000D01*
X39081Y-30038D01*
X39081Y-30095D01*
X39062Y-30133D01*
X39043Y-30152D01*
X39005Y-30171D01*
X38852Y-30171D01*
X39252Y-30152D02*
X39386Y-30152D01*
X39443Y-30362D02*
X39252Y-30362D01*
X39252Y-29962D01*
X39443Y-29962D01*
X38072Y-31002D02*
X37881Y-31002D01*
X37881Y-30602D01*
X38205Y-31002D02*
X38205Y-30602D01*
X38605Y-30621D02*
X38567Y-30602D01*
X38510Y-30602D01*
X38452Y-30621D01*
X38414Y-30659D01*
X38395Y-30697D01*
X38376Y-30773D01*
X38376Y-30830D01*
X38395Y-30907D01*
X38414Y-30945D01*
X38452Y-30983D01*
X38510Y-31002D01*
X38548Y-31002D01*
X38605Y-30983D01*
X38624Y-30964D01*
X38624Y-30830D01*
X38548Y-30830D01*
X38795Y-31002D02*
X38795Y-30602D01*
X38795Y-30792D02*
X39024Y-30792D01*
X39024Y-31002D02*
X39024Y-30602D01*
X39157Y-30602D02*
X39386Y-30602D01*
X39271Y-31002D02*
X39271Y-30602D01*
X39519Y-30964D02*
X39538Y-30983D01*
X39519Y-31002D01*
X39500Y-30983D01*
X39519Y-30964D01*
X39519Y-31002D01*
X39519Y-30850D02*
X39500Y-30621D01*
X39519Y-30602D01*
X39538Y-30621D01*
X39519Y-30850D01*
X39519Y-30602D01*
G54D12*
X31600Y-31600D02*
X31599Y-31609D01*
X31596Y-31619D01*
X31591Y-31627D01*
X31585Y-31635D01*
X31577Y-31641D01*
X31569Y-31646D01*
X31560Y-31648D01*
X31550Y-31649D01*
X31541Y-31649D01*
X31532Y-31646D01*
X31523Y-31641D01*
X31516Y-31635D01*
X31509Y-31628D01*
X31505Y-31619D01*
X31502Y-31610D01*
X31501Y-31600D01*
X31501Y-31591D01*
X31504Y-31582D01*
X31508Y-31573D01*
X31515Y-31566D01*
X31522Y-31559D01*
X31530Y-31555D01*
X31540Y-31552D01*
X31549Y-31551D01*
X31558Y-31551D01*
X31568Y-31554D01*
X31576Y-31558D01*
X31584Y-31564D01*
X31590Y-31572D01*
X31595Y-31580D01*
X31598Y-31589D01*
X31599Y-31599D01*
X31600Y-31600D01*
X37500Y-28850D02*
X37499Y-28859D01*
X37496Y-28869D01*
X37491Y-28877D01*
X37485Y-28885D01*
X37477Y-28891D01*
X37469Y-28896D01*
X37460Y-28898D01*
X37450Y-28899D01*
X37441Y-28899D01*
X37432Y-28896D01*
X37423Y-28891D01*
X37416Y-28885D01*
X37409Y-28878D01*
X37405Y-28869D01*
X37402Y-28860D01*
X37401Y-28850D01*
X37401Y-28841D01*
X37404Y-28832D01*
X37408Y-28823D01*
X37415Y-28816D01*
X37422Y-28809D01*
X37430Y-28805D01*
X37440Y-28802D01*
X37449Y-28801D01*
X37458Y-28801D01*
X37468Y-28804D01*
X37476Y-28808D01*
X37484Y-28814D01*
X37490Y-28822D01*
X37495Y-28830D01*
X37498Y-28839D01*
X37499Y-28849D01*
X37500Y-28850D01*
X36550Y-29050D02*
X36549Y-29059D01*
X36546Y-29069D01*
X36541Y-29077D01*
X36535Y-29085D01*
X36527Y-29091D01*
X36519Y-29096D01*
X36510Y-29098D01*
X36500Y-29099D01*
X36491Y-29099D01*
X36482Y-29096D01*
X36473Y-29091D01*
X36466Y-29085D01*
X36459Y-29078D01*
X36455Y-29069D01*
X36452Y-29060D01*
X36451Y-29050D01*
X36451Y-29041D01*
X36454Y-29032D01*
X36458Y-29023D01*
X36465Y-29016D01*
X36472Y-29009D01*
X36480Y-29005D01*
X36490Y-29002D01*
X36499Y-29001D01*
X36508Y-29001D01*
X36518Y-29004D01*
X36526Y-29008D01*
X36534Y-29014D01*
X36540Y-29022D01*
X36545Y-29030D01*
X36548Y-29039D01*
X36549Y-29049D01*
X36550Y-29050D01*
X31750Y-32550D02*
X31749Y-32559D01*
X31746Y-32569D01*
X31741Y-32577D01*
X31735Y-32585D01*
X31727Y-32591D01*
X31719Y-32596D01*
X31710Y-32598D01*
X31700Y-32599D01*
X31691Y-32599D01*
X31682Y-32596D01*
X31673Y-32591D01*
X31666Y-32585D01*
X31659Y-32578D01*
X31655Y-32569D01*
X31652Y-32560D01*
X31651Y-32550D01*
X31651Y-32541D01*
X31654Y-32532D01*
X31658Y-32523D01*
X31665Y-32516D01*
X31672Y-32509D01*
X31680Y-32505D01*
X31690Y-32502D01*
X31699Y-32501D01*
X31708Y-32501D01*
X31718Y-32504D01*
X31726Y-32508D01*
X31734Y-32514D01*
X31740Y-32522D01*
X31745Y-32530D01*
X31748Y-32539D01*
X31749Y-32549D01*
X31750Y-32550D01*
X29070Y-26600D02*
X29068Y-26613D01*
X29064Y-26626D01*
X29058Y-26638D01*
X29049Y-26649D01*
X29039Y-26658D01*
X29027Y-26664D01*
X29014Y-26668D01*
X29000Y-26669D01*
X28987Y-26668D01*
X28974Y-26664D01*
X28962Y-26658D01*
X28952Y-26650D01*
X28943Y-26639D01*
X28936Y-26627D01*
X28932Y-26614D01*
X28931Y-26600D01*
X28932Y-26588D01*
X28935Y-26575D01*
X28942Y-26563D01*
X28950Y-26552D01*
X28961Y-26543D01*
X28972Y-26536D01*
X28985Y-26532D01*
X28999Y-26531D01*
X29012Y-26532D01*
X29025Y-26535D01*
X29037Y-26541D01*
X29048Y-26550D01*
X29057Y-26560D01*
X29063Y-26572D01*
X29068Y-26585D01*
X29069Y-26599D01*
X29070Y-26600D01*
X28120Y-26800D02*
X28118Y-26813D01*
X28114Y-26826D01*
X28108Y-26838D01*
X28099Y-26849D01*
X28089Y-26858D01*
X28077Y-26864D01*
X28064Y-26868D01*
X28050Y-26869D01*
X28037Y-26868D01*
X28024Y-26864D01*
X28012Y-26858D01*
X28002Y-26850D01*
X27993Y-26839D01*
X27986Y-26827D01*
X27982Y-26814D01*
X27981Y-26800D01*
X27982Y-26788D01*
X27985Y-26775D01*
X27992Y-26763D01*
X28000Y-26752D01*
X28011Y-26743D01*
X28022Y-26736D01*
X28035Y-26732D01*
X28049Y-26731D01*
X28062Y-26732D01*
X28075Y-26735D01*
X28087Y-26741D01*
X28098Y-26750D01*
X28107Y-26760D01*
X28113Y-26772D01*
X28118Y-26785D01*
X28119Y-26799D01*
X28120Y-26800D01*
G54D11*
X25450Y-30362D02*
X25450Y-29962D01*
X25603Y-29962D01*
X25641Y-29981D01*
X25660Y-30000D01*
X25679Y-30038D01*
X25679Y-30095D01*
X25660Y-30133D01*
X25641Y-30152D01*
X25603Y-30171D01*
X25450Y-30171D01*
X26079Y-30362D02*
X25945Y-30171D01*
X25850Y-30362D02*
X25850Y-29962D01*
X26003Y-29962D01*
X26041Y-29981D01*
X26060Y-30000D01*
X26079Y-30038D01*
X26079Y-30095D01*
X26060Y-30133D01*
X26041Y-30152D01*
X26003Y-30171D01*
X25850Y-30171D01*
X26326Y-29962D02*
X26403Y-29962D01*
X26441Y-29981D01*
X26479Y-30019D01*
X26498Y-30095D01*
X26498Y-30229D01*
X26479Y-30305D01*
X26441Y-30343D01*
X26403Y-30362D01*
X26326Y-30362D01*
X26288Y-30343D01*
X26250Y-30305D01*
X26231Y-30229D01*
X26231Y-30095D01*
X26250Y-30019D01*
X26288Y-29981D01*
X26326Y-29962D01*
X26612Y-29962D02*
X26841Y-29962D01*
X26726Y-30362D02*
X26726Y-29962D01*
X26974Y-30152D02*
X27108Y-30152D01*
X27165Y-30362D02*
X26974Y-30362D01*
X26974Y-29962D01*
X27165Y-29962D01*
X27565Y-30324D02*
X27546Y-30343D01*
X27489Y-30362D01*
X27451Y-30362D01*
X27393Y-30343D01*
X27355Y-30305D01*
X27336Y-30267D01*
X27317Y-30190D01*
X27317Y-30133D01*
X27336Y-30057D01*
X27355Y-30019D01*
X27393Y-29981D01*
X27451Y-29962D01*
X27489Y-29962D01*
X27546Y-29981D01*
X27565Y-30000D01*
X27679Y-29962D02*
X27908Y-29962D01*
X27793Y-30362D02*
X27793Y-29962D01*
X25059Y-30811D02*
X25059Y-31002D01*
X24926Y-30602D02*
X25059Y-30811D01*
X25193Y-30602D01*
X25402Y-30602D02*
X25479Y-30602D01*
X25517Y-30621D01*
X25555Y-30659D01*
X25574Y-30735D01*
X25574Y-30869D01*
X25555Y-30945D01*
X25517Y-30983D01*
X25479Y-31002D01*
X25402Y-31002D01*
X25364Y-30983D01*
X25326Y-30945D01*
X25307Y-30869D01*
X25307Y-30735D01*
X25326Y-30659D01*
X25364Y-30621D01*
X25402Y-30602D01*
X25745Y-30602D02*
X25745Y-30926D01*
X25764Y-30964D01*
X25783Y-30983D01*
X25821Y-31002D01*
X25898Y-31002D01*
X25936Y-30983D01*
X25955Y-30964D01*
X25974Y-30926D01*
X25974Y-30602D01*
X26393Y-31002D02*
X26259Y-30811D01*
X26164Y-31002D02*
X26164Y-30602D01*
X26317Y-30602D01*
X26355Y-30621D01*
X26374Y-30640D01*
X26393Y-30678D01*
X26393Y-30735D01*
X26374Y-30773D01*
X26355Y-30792D01*
X26317Y-30811D01*
X26164Y-30811D01*
X26869Y-30792D02*
X27003Y-30792D01*
X27060Y-31002D02*
X26869Y-31002D01*
X26869Y-30602D01*
X27060Y-30602D01*
X27307Y-30811D02*
X27307Y-31002D01*
X27174Y-30602D02*
X27307Y-30811D01*
X27441Y-30602D01*
X27574Y-30792D02*
X27708Y-30792D01*
X27765Y-31002D02*
X27574Y-31002D01*
X27574Y-30602D01*
X27765Y-30602D01*
X27917Y-30983D02*
X27974Y-31002D01*
X28070Y-31002D01*
X28108Y-30983D01*
X28127Y-30964D01*
X28146Y-30926D01*
X28146Y-30888D01*
X28127Y-30850D01*
X28108Y-30830D01*
X28070Y-30811D01*
X27993Y-30792D01*
X27955Y-30773D01*
X27936Y-30754D01*
X27917Y-30716D01*
X27917Y-30678D01*
X27936Y-30640D01*
X27955Y-30621D01*
X27993Y-30602D01*
X28089Y-30602D01*
X28146Y-30621D01*
X28317Y-30964D02*
X28336Y-30983D01*
X28317Y-31002D01*
X28298Y-30983D01*
X28317Y-30964D01*
X28317Y-31002D01*
X28317Y-30850D02*
X28298Y-30621D01*
X28317Y-30602D01*
X28336Y-30621D01*
X28317Y-30850D01*
X28317Y-30602D01*
X29787Y-23212D02*
X29787Y-22812D01*
X29787Y-22964D02*
X29825Y-22945D01*
X29902Y-22945D01*
X29940Y-22964D01*
X29959Y-22983D01*
X29978Y-23021D01*
X29978Y-23136D01*
X29959Y-23174D01*
X29940Y-23193D01*
X29902Y-23212D01*
X29825Y-23212D01*
X29787Y-23193D01*
X30206Y-23212D02*
X30168Y-23193D01*
X30149Y-23155D01*
X30149Y-22812D01*
X30416Y-23212D02*
X30378Y-23193D01*
X30359Y-23174D01*
X30340Y-23136D01*
X30340Y-23021D01*
X30359Y-22983D01*
X30378Y-22964D01*
X30416Y-22945D01*
X30474Y-22945D01*
X30512Y-22964D01*
X30531Y-22983D01*
X30550Y-23021D01*
X30550Y-23136D01*
X30531Y-23174D01*
X30512Y-23193D01*
X30474Y-23212D01*
X30416Y-23212D01*
X30893Y-22945D02*
X30893Y-23269D01*
X30874Y-23307D01*
X30855Y-23326D01*
X30816Y-23345D01*
X30759Y-23345D01*
X30721Y-23326D01*
X30893Y-23193D02*
X30855Y-23212D01*
X30778Y-23212D01*
X30740Y-23193D01*
X30721Y-23174D01*
X30702Y-23136D01*
X30702Y-23021D01*
X30721Y-22983D01*
X30740Y-22964D01*
X30778Y-22945D01*
X30855Y-22945D01*
X30893Y-22964D01*
X31083Y-23174D02*
X31102Y-23193D01*
X31083Y-23212D01*
X31064Y-23193D01*
X31083Y-23174D01*
X31083Y-23212D01*
X31254Y-23193D02*
X31292Y-23212D01*
X31368Y-23212D01*
X31407Y-23193D01*
X31426Y-23155D01*
X31426Y-23136D01*
X31407Y-23098D01*
X31368Y-23079D01*
X31311Y-23079D01*
X31273Y-23060D01*
X31254Y-23021D01*
X31254Y-23002D01*
X31273Y-22964D01*
X31311Y-22945D01*
X31368Y-22945D01*
X31407Y-22964D01*
X31597Y-22945D02*
X31597Y-23345D01*
X31597Y-22964D02*
X31635Y-22945D01*
X31712Y-22945D01*
X31750Y-22964D01*
X31769Y-22983D01*
X31788Y-23021D01*
X31788Y-23136D01*
X31769Y-23174D01*
X31750Y-23193D01*
X31712Y-23212D01*
X31635Y-23212D01*
X31597Y-23193D01*
X31959Y-23212D02*
X31959Y-22945D01*
X31959Y-22812D02*
X31940Y-22831D01*
X31959Y-22850D01*
X31978Y-22831D01*
X31959Y-22812D01*
X31959Y-22850D01*
X32092Y-22945D02*
X32244Y-22945D01*
X32149Y-22812D02*
X32149Y-23155D01*
X32168Y-23193D01*
X32206Y-23212D01*
X32244Y-23212D01*
X32340Y-22945D02*
X32550Y-22945D01*
X32340Y-23212D01*
X32550Y-23212D01*
X32855Y-23193D02*
X32817Y-23212D01*
X32740Y-23212D01*
X32702Y-23193D01*
X32683Y-23155D01*
X32683Y-23002D01*
X32702Y-22964D01*
X32740Y-22945D01*
X32817Y-22945D01*
X32855Y-22964D01*
X32874Y-23002D01*
X32874Y-23040D01*
X32683Y-23079D01*
X33045Y-22945D02*
X33045Y-23212D01*
X33045Y-22983D02*
X33064Y-22964D01*
X33102Y-22945D01*
X33160Y-22945D01*
X33198Y-22964D01*
X33217Y-23002D01*
X33217Y-23212D01*
X33407Y-22945D02*
X33407Y-23345D01*
X33407Y-22964D02*
X33445Y-22945D01*
X33522Y-22945D01*
X33560Y-22964D01*
X33579Y-22983D01*
X33598Y-23021D01*
X33598Y-23136D01*
X33579Y-23174D01*
X33560Y-23193D01*
X33522Y-23212D01*
X33445Y-23212D01*
X33407Y-23193D01*
X33712Y-22945D02*
X33864Y-22945D01*
X33769Y-23212D02*
X33769Y-22869D01*
X33788Y-22831D01*
X33826Y-22812D01*
X33864Y-22812D01*
X34151Y-23193D02*
X34113Y-23212D01*
X34036Y-23212D01*
X33998Y-23193D01*
X33979Y-23155D01*
X33979Y-23002D01*
X33998Y-22964D01*
X34036Y-22945D01*
X34113Y-22945D01*
X34151Y-22964D01*
X34170Y-23002D01*
X34170Y-23040D01*
X33979Y-23079D01*
X34341Y-23212D02*
X34341Y-22945D01*
X34341Y-22812D02*
X34322Y-22831D01*
X34341Y-22850D01*
X34360Y-22831D01*
X34341Y-22812D01*
X34341Y-22850D01*
X34588Y-23212D02*
X34550Y-23193D01*
X34531Y-23155D01*
X34531Y-22812D01*
X34741Y-23174D02*
X34760Y-23193D01*
X34741Y-23212D01*
X34722Y-23193D01*
X34741Y-23174D01*
X34741Y-23212D01*
X34988Y-23212D02*
X34950Y-23193D01*
X34931Y-23174D01*
X34912Y-23136D01*
X34912Y-23021D01*
X34931Y-22983D01*
X34950Y-22964D01*
X34988Y-22945D01*
X35046Y-22945D01*
X35084Y-22964D01*
X35103Y-22983D01*
X35122Y-23021D01*
X35122Y-23136D01*
X35103Y-23174D01*
X35084Y-23193D01*
X35046Y-23212D01*
X34988Y-23212D01*
X35293Y-23212D02*
X35293Y-22945D01*
X35293Y-23021D02*
X35312Y-22983D01*
X35331Y-22964D01*
X35369Y-22945D01*
X35408Y-22945D01*
X35713Y-22945D02*
X35713Y-23269D01*
X35694Y-23307D01*
X35675Y-23326D01*
X35636Y-23345D01*
X35579Y-23345D01*
X35541Y-23326D01*
X35713Y-23193D02*
X35675Y-23212D01*
X35598Y-23212D01*
X35560Y-23193D01*
X35541Y-23174D01*
X35522Y-23136D01*
X35522Y-23021D01*
X35541Y-22983D01*
X35560Y-22964D01*
X35598Y-22945D01*
X35675Y-22945D01*
X35713Y-22964D01*
X30598Y-23490D02*
X30617Y-23471D01*
X30655Y-23452D01*
X30751Y-23452D01*
X30789Y-23471D01*
X30808Y-23490D01*
X30827Y-23528D01*
X30827Y-23566D01*
X30808Y-23623D01*
X30579Y-23852D01*
X30827Y-23852D01*
X31074Y-23452D02*
X31113Y-23452D01*
X31151Y-23471D01*
X31170Y-23490D01*
X31189Y-23528D01*
X31208Y-23604D01*
X31208Y-23700D01*
X31189Y-23776D01*
X31170Y-23814D01*
X31151Y-23833D01*
X31113Y-23852D01*
X31074Y-23852D01*
X31036Y-23833D01*
X31017Y-23814D01*
X30998Y-23776D01*
X30979Y-23700D01*
X30979Y-23604D01*
X30998Y-23528D01*
X31017Y-23490D01*
X31036Y-23471D01*
X31074Y-23452D01*
X31589Y-23852D02*
X31360Y-23852D01*
X31474Y-23852D02*
X31474Y-23452D01*
X31436Y-23509D01*
X31398Y-23547D01*
X31360Y-23566D01*
X31741Y-23490D02*
X31760Y-23471D01*
X31798Y-23452D01*
X31894Y-23452D01*
X31932Y-23471D01*
X31951Y-23490D01*
X31970Y-23528D01*
X31970Y-23566D01*
X31951Y-23623D01*
X31722Y-23852D01*
X31970Y-23852D01*
X32446Y-23700D02*
X32751Y-23700D01*
X33189Y-23452D02*
X33322Y-23852D01*
X33456Y-23452D01*
X33570Y-23490D02*
X33589Y-23471D01*
X33627Y-23452D01*
X33723Y-23452D01*
X33761Y-23471D01*
X33780Y-23490D01*
X33799Y-23528D01*
X33799Y-23566D01*
X33780Y-23623D01*
X33551Y-23852D01*
X33799Y-23852D01*
X33970Y-23814D02*
X33989Y-23833D01*
X33970Y-23852D01*
X33951Y-23833D01*
X33970Y-23814D01*
X33970Y-23852D01*
X34236Y-23452D02*
X34275Y-23452D01*
X34313Y-23471D01*
X34332Y-23490D01*
X34351Y-23528D01*
X34370Y-23604D01*
X34370Y-23700D01*
X34351Y-23776D01*
X34332Y-23814D01*
X34313Y-23833D01*
X34275Y-23852D01*
X34236Y-23852D01*
X34198Y-23833D01*
X34179Y-23814D01*
X34160Y-23776D01*
X34141Y-23700D01*
X34141Y-23604D01*
X34160Y-23528D01*
X34179Y-23490D01*
X34198Y-23471D01*
X34236Y-23452D01*
X34541Y-23814D02*
X34560Y-23833D01*
X34541Y-23852D01*
X34522Y-23833D01*
X34541Y-23814D01*
X34541Y-23852D01*
X34903Y-23833D02*
X34865Y-23852D01*
X34788Y-23852D01*
X34750Y-23833D01*
X34731Y-23814D01*
X34712Y-23776D01*
X34712Y-23661D01*
X34731Y-23623D01*
X34750Y-23604D01*
X34788Y-23585D01*
X34865Y-23585D01*
X34903Y-23604D01*
G54D12*
X31259Y-25150D02*
X31235Y-25384D01*
X31167Y-25610D01*
X31057Y-25819D01*
X30907Y-26001D01*
X30726Y-26152D01*
X30518Y-26264D01*
X30293Y-26334D01*
X30058Y-26358D01*
X29824Y-26337D01*
X29598Y-26270D01*
X29388Y-26161D01*
X29205Y-26013D01*
X29053Y-25833D01*
X28939Y-25626D01*
X28868Y-25401D01*
X28842Y-25166D01*
X28861Y-24932D01*
X28926Y-24705D01*
X29034Y-24496D01*
X29181Y-24311D01*
X29361Y-24158D01*
X29566Y-24043D01*
X29791Y-23970D01*
X30025Y-23942D01*
X30259Y-23960D01*
X30487Y-24023D01*
X30697Y-24130D01*
X30883Y-24275D01*
X31037Y-24454D01*
X31154Y-24659D01*
X31228Y-24883D01*
X31258Y-25117D01*
X31259Y-25150D01*
X31254Y-30550D02*
X31231Y-30783D01*
X31163Y-31008D01*
X31052Y-31216D01*
X30904Y-31398D01*
X30723Y-31548D01*
X30516Y-31659D01*
X30292Y-31729D01*
X30058Y-31753D01*
X29825Y-31732D01*
X29599Y-31666D01*
X29391Y-31557D01*
X29208Y-31410D01*
X29057Y-31230D01*
X28944Y-31024D01*
X28873Y-30800D01*
X28847Y-30566D01*
X28866Y-30333D01*
X28931Y-30107D01*
X29038Y-29898D01*
X29184Y-29714D01*
X29363Y-29562D01*
X29568Y-29447D01*
X29792Y-29375D01*
X30025Y-29347D01*
X30259Y-29365D01*
X30485Y-29428D01*
X30695Y-29534D01*
X30880Y-29679D01*
X31033Y-29856D01*
X31149Y-30061D01*
X31224Y-30284D01*
X31253Y-30517D01*
X31254Y-30550D01*
X36651Y-30550D02*
X36628Y-30783D01*
X36560Y-31007D01*
X36450Y-31214D01*
X36302Y-31396D01*
X36121Y-31545D01*
X35915Y-31657D01*
X35691Y-31726D01*
X35458Y-31750D01*
X35225Y-31729D01*
X35001Y-31663D01*
X34793Y-31554D01*
X34610Y-31408D01*
X34460Y-31228D01*
X34347Y-31023D01*
X34276Y-30799D01*
X34250Y-30566D01*
X34269Y-30334D01*
X34334Y-30108D01*
X34441Y-29900D01*
X34587Y-29716D01*
X34765Y-29564D01*
X34970Y-29450D01*
X35193Y-29378D01*
X35425Y-29350D01*
X35658Y-29368D01*
X35884Y-29431D01*
X36093Y-29536D01*
X36278Y-29681D01*
X36431Y-29858D01*
X36547Y-30062D01*
X36621Y-30284D01*
X36650Y-30517D01*
X36651Y-30550D01*
X36650Y-25150D02*
X36627Y-25383D01*
X36559Y-25607D01*
X36449Y-25814D01*
X36301Y-25995D01*
X36121Y-26144D01*
X35915Y-26256D01*
X35691Y-26325D01*
X35458Y-26349D01*
X35226Y-26328D01*
X35001Y-26262D01*
X34793Y-26154D01*
X34611Y-26007D01*
X34460Y-25827D01*
X34348Y-25622D01*
X34277Y-25399D01*
X34251Y-25166D01*
X34270Y-24934D01*
X34335Y-24709D01*
X34442Y-24500D01*
X34587Y-24317D01*
X34766Y-24165D01*
X34970Y-24051D01*
X35193Y-23978D01*
X35425Y-23951D01*
X35658Y-23969D01*
X35883Y-24032D01*
X36092Y-24137D01*
X36277Y-24281D01*
X36430Y-24459D01*
X36546Y-24662D01*
X36620Y-24885D01*
X36649Y-25117D01*
X36650Y-25150D01*
G54D11*
X32750Y-19300D02*
X32005Y-19333D01*
X31266Y-19430D01*
X30538Y-19592D01*
X29826Y-19816D01*
X29137Y-20102D01*
X28476Y-20446D01*
X27846Y-20847D01*
X27255Y-21301D01*
X26705Y-21805D01*
X26201Y-22355D01*
X25747Y-22946D01*
X25346Y-23576D01*
X25002Y-24237D01*
X24716Y-24926D01*
X24492Y-25638D01*
X24330Y-26366D01*
X24233Y-27105D01*
X24200Y-27850D01*
X24200Y-27850D02*
X24233Y-28595D01*
X24330Y-29334D01*
X24492Y-30062D01*
X24716Y-30774D01*
X25002Y-31463D01*
X25346Y-32124D01*
X25747Y-32754D01*
X26201Y-33345D01*
X26705Y-33895D01*
X27255Y-34399D01*
X27846Y-34853D01*
X28476Y-35254D01*
X29137Y-35598D01*
X29826Y-35884D01*
X30538Y-36108D01*
X31266Y-36270D01*
X32005Y-36367D01*
X32750Y-36400D01*
X32750Y-36400D02*
X33495Y-36367D01*
X34234Y-36270D01*
X34962Y-36108D01*
X35674Y-35884D01*
X36363Y-35598D01*
X37025Y-35254D01*
X37654Y-34853D01*
X38245Y-34399D01*
X38795Y-33895D01*
X39299Y-33345D01*
X39753Y-32754D01*
X40154Y-32124D01*
X40498Y-31463D01*
X40784Y-30774D01*
X41008Y-30062D01*
X41170Y-29334D01*
X41267Y-28595D01*
X41300Y-27850D01*
X41300Y-27850D02*
X41267Y-27105D01*
X41170Y-26366D01*
X41008Y-25638D01*
X40784Y-24926D01*
X40498Y-24237D01*
X40154Y-23576D01*
X39753Y-22946D01*
X39299Y-22355D01*
X38795Y-21805D01*
X38245Y-21301D01*
X37654Y-20847D01*
X37025Y-20446D01*
X36363Y-20102D01*
X35674Y-19816D01*
X34962Y-19592D01*
X34234Y-19430D01*
X33495Y-19333D01*
X32750Y-19300D01*
X41300Y-27850D02*
X41137Y-29510D01*
X40654Y-31108D01*
X39871Y-32581D01*
X38816Y-33874D01*
X37531Y-34938D01*
X36063Y-35731D01*
X34469Y-36225D01*
X32809Y-36399D01*
X31148Y-36248D01*
X29548Y-35777D01*
X28069Y-35004D01*
X26768Y-33958D01*
X25696Y-32680D01*
X24892Y-31218D01*
X24387Y-29627D01*
X24201Y-27969D01*
X24341Y-26307D01*
X24801Y-24703D01*
X25564Y-23219D01*
X26600Y-21911D01*
X27871Y-20830D01*
X29328Y-20016D01*
X30915Y-19500D01*
X32571Y-19302D01*
X34234Y-19430D01*
X35841Y-19879D01*
X37331Y-20631D01*
X38646Y-21659D01*
X39736Y-22922D01*
X40560Y-24373D01*
X41087Y-25956D01*
X41296Y-27612D01*
X41300Y-27850D01*
G54D13*
G36*
X30389Y-35436D02*
X30412Y-35433D01*
X30433Y-35426D01*
X30442Y-35421D01*
X30461Y-35408D01*
X30476Y-35391D01*
X30488Y-35373D01*
X30495Y-35352D01*
X30499Y-35330D01*
X30498Y-35308D01*
X30493Y-35286D01*
X30483Y-35265D01*
X30476Y-35256D01*
X30467Y-35245D01*
X30456Y-35236D01*
X30447Y-35229D01*
X30444Y-35227D01*
X30424Y-35218D01*
X30404Y-35213D01*
X30382Y-35212D01*
X30374Y-35212D01*
X30362Y-35214D01*
X30351Y-35217D01*
X30339Y-35222D01*
X30326Y-35229D01*
X30308Y-35243D01*
X30293Y-35261D01*
X30282Y-35282D01*
X30279Y-35292D01*
X30276Y-35303D01*
X30275Y-35311D01*
X30275Y-35312D01*
X30274Y-35313D01*
X30273Y-35308D01*
X30273Y-35307D01*
X30270Y-35293D01*
X30264Y-35278D01*
X30258Y-35265D01*
X30245Y-35249D01*
X30228Y-35233D01*
X30208Y-35221D01*
X30186Y-35214D01*
X30163Y-35212D01*
X30156Y-35212D01*
X30139Y-35214D01*
X30122Y-35219D01*
X30118Y-35220D01*
X30099Y-35230D01*
X30083Y-35244D01*
X30069Y-35261D01*
X30058Y-35280D01*
X30052Y-35300D01*
X30052Y-35301D01*
X30050Y-35307D01*
X30050Y-35309D01*
X30050Y-35309D01*
X30049Y-35306D01*
X30048Y-35300D01*
X30048Y-35298D01*
X30041Y-35278D01*
X30030Y-35260D01*
X30016Y-35243D01*
X30002Y-35232D01*
X29983Y-35220D01*
X29961Y-35214D01*
X29937Y-35212D01*
X29921Y-35213D01*
X29898Y-35219D01*
X29878Y-35229D01*
X29860Y-35243D01*
X29845Y-35261D01*
X29843Y-35263D01*
X29838Y-35272D01*
X29835Y-35279D01*
X29833Y-35284D01*
X29830Y-35294D01*
X29827Y-35304D01*
X29826Y-35311D01*
X29826Y-35312D01*
X29826Y-35312D01*
X29825Y-35308D01*
X29822Y-35295D01*
X29817Y-35280D01*
X29810Y-35266D01*
X29797Y-35248D01*
X29780Y-35233D01*
X29760Y-35221D01*
X29738Y-35214D01*
X29714Y-35212D01*
X29693Y-35213D01*
X29671Y-35219D01*
X29651Y-35230D01*
X29633Y-35246D01*
X29624Y-35255D01*
X29616Y-35268D01*
X29609Y-35282D01*
X29605Y-35294D01*
X29601Y-35316D01*
X29602Y-35338D01*
X29607Y-35359D01*
X29616Y-35379D01*
X29628Y-35397D01*
X29643Y-35412D01*
X29661Y-35423D01*
X29682Y-35432D01*
X29705Y-35436D01*
X29707Y-35436D01*
X29730Y-35435D01*
X29751Y-35430D01*
X29772Y-35420D01*
X29779Y-35415D01*
X29794Y-35402D01*
X29807Y-35386D01*
X29817Y-35369D01*
X29819Y-35363D01*
X29822Y-35353D01*
X29824Y-35343D01*
X29825Y-35336D01*
X29826Y-35331D01*
X29826Y-35336D01*
X29827Y-35339D01*
X29829Y-35349D01*
X29832Y-35361D01*
X29835Y-35370D01*
X29841Y-35380D01*
X29855Y-35399D01*
X29872Y-35414D01*
X29892Y-35426D01*
X29914Y-35434D01*
X29918Y-35434D01*
X29933Y-35436D01*
X29950Y-35435D01*
X29964Y-35433D01*
X29979Y-35428D01*
X30000Y-35417D01*
X30019Y-35402D01*
X30020Y-35401D01*
X30033Y-35385D01*
X30042Y-35366D01*
X30048Y-35347D01*
X30048Y-35346D01*
X30050Y-35341D01*
X30050Y-35338D01*
X30050Y-35340D01*
X30051Y-35345D01*
X30052Y-35346D01*
X30055Y-35358D01*
X30060Y-35371D01*
X30066Y-35383D01*
X30076Y-35397D01*
X30093Y-35413D01*
X30113Y-35425D01*
X30135Y-35433D01*
X30139Y-35434D01*
X30154Y-35436D01*
X30171Y-35436D01*
X30185Y-35434D01*
X30198Y-35430D01*
X30219Y-35420D01*
X30237Y-35407D01*
X30253Y-35390D01*
X30265Y-35370D01*
X30267Y-35363D01*
X30270Y-35353D01*
X30273Y-35343D01*
X30274Y-35336D01*
X30274Y-35335D01*
X30274Y-35334D01*
X30275Y-35339D01*
X30275Y-35340D01*
X30278Y-35354D01*
X30284Y-35369D01*
X30291Y-35382D01*
X30294Y-35387D01*
X30308Y-35404D01*
X30326Y-35418D01*
X30345Y-35428D01*
X30366Y-35434D01*
X30389Y-35436D01*
X30389Y-35436D01*
G37*
G36*
X29482Y-35211D02*
X29495Y-35211D01*
X29508Y-35210D01*
X29523Y-35206D01*
X29544Y-35196D01*
X29563Y-35183D01*
X29579Y-35166D01*
X29590Y-35147D01*
X29598Y-35126D01*
X29601Y-35103D01*
X29599Y-35080D01*
X29594Y-35058D01*
X29583Y-35038D01*
X29569Y-35021D01*
X29551Y-35006D01*
X29545Y-35002D01*
X29524Y-34992D01*
X29501Y-34987D01*
X29478Y-34987D01*
X29455Y-34992D01*
X29437Y-34999D01*
X29417Y-35012D01*
X29401Y-35029D01*
X29388Y-35049D01*
X29379Y-35071D01*
X29377Y-35083D01*
X29377Y-35097D01*
X29377Y-35112D01*
X29379Y-35124D01*
X29380Y-35128D01*
X29389Y-35151D01*
X29402Y-35170D01*
X29419Y-35187D01*
X29439Y-35200D01*
X29449Y-35204D01*
X29462Y-35208D01*
X29474Y-35211D01*
X29482Y-35211D01*
X29482Y-35211D01*
G37*
G36*
X30614Y-35211D02*
X30637Y-35208D01*
X30659Y-35201D01*
X30680Y-35188D01*
X30684Y-35184D01*
X30700Y-35168D01*
X30712Y-35148D01*
X30721Y-35126D01*
X30723Y-35115D01*
X30723Y-35101D01*
X30723Y-35086D01*
X30721Y-35074D01*
X30720Y-35069D01*
X30711Y-35047D01*
X30698Y-35027D01*
X30682Y-35011D01*
X30662Y-34999D01*
X30641Y-34991D01*
X30617Y-34987D01*
X30609Y-34986D01*
X30586Y-34989D01*
X30565Y-34996D01*
X30546Y-35007D01*
X30530Y-35022D01*
X30516Y-35039D01*
X30506Y-35059D01*
X30501Y-35081D01*
X30499Y-35104D01*
X30500Y-35118D01*
X30503Y-35130D01*
X30508Y-35143D01*
X30517Y-35160D01*
X30531Y-35178D01*
X30549Y-35192D01*
X30569Y-35203D01*
X30591Y-35210D01*
X30614Y-35211D01*
X30614Y-35211D01*
G37*
G36*
X29258Y-34986D02*
X29274Y-34986D01*
X29288Y-34984D01*
X29304Y-34980D01*
X29324Y-34969D01*
X29343Y-34954D01*
X29355Y-34940D01*
X29367Y-34920D01*
X29374Y-34898D01*
X29375Y-34889D01*
X29376Y-34876D01*
X29376Y-34862D01*
X29374Y-34851D01*
X29372Y-34844D01*
X29364Y-34822D01*
X29351Y-34802D01*
X29334Y-34786D01*
X29314Y-34774D01*
X29306Y-34770D01*
X29292Y-34765D01*
X29277Y-34763D01*
X29260Y-34763D01*
X29249Y-34763D01*
X29237Y-34765D01*
X29226Y-34768D01*
X29214Y-34774D01*
X29207Y-34777D01*
X29188Y-34791D01*
X29172Y-34809D01*
X29161Y-34829D01*
X29154Y-34852D01*
X29153Y-34857D01*
X29152Y-34871D01*
X29152Y-34885D01*
X29154Y-34896D01*
X29156Y-34904D01*
X29164Y-34926D01*
X29177Y-34946D01*
X29194Y-34962D01*
X29214Y-34975D01*
X29236Y-34983D01*
X29243Y-34985D01*
X29258Y-34986D01*
X29258Y-34986D01*
G37*
G36*
X30159Y-34986D02*
X30182Y-34985D01*
X30203Y-34979D01*
X30215Y-34973D01*
X30235Y-34960D01*
X30251Y-34943D01*
X30263Y-34923D01*
X30271Y-34901D01*
X30272Y-34897D01*
X30274Y-34879D01*
X30274Y-34861D01*
X30269Y-34842D01*
X30260Y-34820D01*
X30247Y-34801D01*
X30230Y-34785D01*
X30210Y-34773D01*
X30187Y-34765D01*
X30173Y-34761D01*
X30181Y-34760D01*
X30182Y-34760D01*
X30198Y-34756D01*
X30215Y-34748D01*
X30231Y-34738D01*
X30233Y-34736D01*
X30250Y-34720D01*
X30262Y-34701D01*
X30270Y-34680D01*
X30274Y-34658D01*
X30273Y-34636D01*
X30268Y-34614D01*
X30259Y-34593D01*
X30258Y-34593D01*
X30244Y-34574D01*
X30227Y-34559D01*
X30208Y-34548D01*
X30188Y-34541D01*
X30166Y-34538D01*
X30144Y-34540D01*
X30123Y-34545D01*
X30103Y-34555D01*
X30084Y-34569D01*
X30075Y-34580D01*
X30064Y-34596D01*
X30056Y-34613D01*
X30051Y-34630D01*
X30050Y-34634D01*
X30050Y-34636D01*
X30050Y-34635D01*
X30049Y-34630D01*
X30045Y-34615D01*
X30038Y-34599D01*
X30029Y-34584D01*
X30023Y-34577D01*
X30006Y-34561D01*
X29987Y-34549D01*
X29965Y-34541D01*
X29942Y-34538D01*
X29919Y-34540D01*
X29905Y-34543D01*
X29884Y-34552D01*
X29865Y-34565D01*
X29849Y-34582D01*
X29837Y-34601D01*
X29829Y-34623D01*
X29827Y-34635D01*
X29826Y-34657D01*
X29830Y-34680D01*
X29838Y-34701D01*
X29851Y-34720D01*
X29867Y-34736D01*
X29887Y-34749D01*
X29896Y-34753D01*
X29906Y-34757D01*
X29916Y-34760D01*
X29923Y-34761D01*
X29924Y-34761D01*
X29924Y-34762D01*
X29919Y-34763D01*
X29908Y-34766D01*
X29893Y-34772D01*
X29880Y-34778D01*
X29873Y-34783D01*
X29858Y-34796D01*
X29845Y-34812D01*
X29835Y-34829D01*
X29829Y-34847D01*
X29826Y-34868D01*
X29826Y-34887D01*
X29827Y-34891D01*
X29833Y-34914D01*
X29844Y-34935D01*
X29859Y-34954D01*
X29872Y-34965D01*
X29892Y-34977D01*
X29914Y-34984D01*
X29923Y-34985D01*
X29935Y-34986D01*
X29948Y-34985D01*
X29960Y-34984D01*
X29969Y-34983D01*
X29976Y-34980D01*
X29998Y-34969D01*
X30017Y-34955D01*
X30032Y-34936D01*
X30037Y-34928D01*
X30044Y-34912D01*
X30048Y-34898D01*
X30048Y-34897D01*
X30050Y-34891D01*
X30050Y-34889D01*
X30050Y-34889D01*
X30050Y-34859D01*
X30050Y-34859D01*
X30050Y-34857D01*
X30048Y-34851D01*
X30048Y-34849D01*
X30041Y-34829D01*
X30030Y-34810D01*
X30016Y-34794D01*
X29999Y-34780D01*
X29980Y-34770D01*
X29979Y-34769D01*
X29969Y-34766D01*
X29959Y-34764D01*
X29949Y-34762D01*
X29959Y-34760D01*
X29972Y-34757D01*
X29992Y-34748D01*
X30011Y-34735D01*
X30026Y-34719D01*
X30038Y-34701D01*
X30043Y-34691D01*
X30047Y-34680D01*
X30049Y-34670D01*
X30050Y-34666D01*
X30050Y-34664D01*
X30050Y-34665D01*
X30051Y-34670D01*
X30053Y-34678D01*
X30057Y-34690D01*
X30062Y-34701D01*
X30069Y-34712D01*
X30083Y-34729D01*
X30101Y-34744D01*
X30120Y-34754D01*
X30141Y-34760D01*
X30151Y-34762D01*
X30141Y-34764D01*
X30140Y-34764D01*
X30130Y-34767D01*
X30120Y-34770D01*
X30118Y-34771D01*
X30099Y-34781D01*
X30082Y-34795D01*
X30069Y-34812D01*
X30058Y-34831D01*
X30052Y-34851D01*
X30052Y-34852D01*
X30050Y-34857D01*
X30050Y-34859D01*
X30050Y-34889D01*
X30050Y-34889D01*
X30051Y-34892D01*
X30052Y-34898D01*
X30056Y-34912D01*
X30065Y-34932D01*
X30079Y-34950D01*
X30096Y-34965D01*
X30115Y-34977D01*
X30115Y-34977D01*
X30137Y-34984D01*
X30159Y-34986D01*
X30159Y-34986D01*
G37*
G36*
X30828Y-34986D02*
X30846Y-34986D01*
X30863Y-34984D01*
X30873Y-34980D01*
X30894Y-34970D01*
X30913Y-34957D01*
X30928Y-34939D01*
X30939Y-34920D01*
X30946Y-34898D01*
X30948Y-34874D01*
X30948Y-34865D01*
X30944Y-34842D01*
X30935Y-34820D01*
X30921Y-34800D01*
X30917Y-34796D01*
X30901Y-34782D01*
X30882Y-34772D01*
X30862Y-34765D01*
X30862Y-34765D01*
X30845Y-34762D01*
X30827Y-34762D01*
X30810Y-34765D01*
X30804Y-34766D01*
X30782Y-34775D01*
X30764Y-34788D01*
X30748Y-34804D01*
X30736Y-34822D01*
X30728Y-34843D01*
X30724Y-34864D01*
X30724Y-34887D01*
X30729Y-34910D01*
X30737Y-34927D01*
X30750Y-34946D01*
X30766Y-34962D01*
X30786Y-34975D01*
X30808Y-34983D01*
X30810Y-34984D01*
X30828Y-34986D01*
X30828Y-34986D01*
G37*
G36*
X29717Y-34313D02*
X29739Y-34311D01*
X29761Y-34303D01*
X29771Y-34298D01*
X29781Y-34291D01*
X29792Y-34281D01*
X29803Y-34269D01*
X29815Y-34250D01*
X29823Y-34228D01*
X29824Y-34222D01*
X29825Y-34207D01*
X29825Y-34191D01*
X29824Y-34177D01*
X29818Y-34159D01*
X29807Y-34139D01*
X29794Y-34122D01*
X29791Y-34120D01*
X29781Y-34111D01*
X29769Y-34103D01*
X29757Y-34097D01*
X29753Y-34096D01*
X29744Y-34093D01*
X29735Y-34091D01*
X29729Y-34090D01*
X29725Y-34089D01*
X29729Y-34088D01*
X29734Y-34087D01*
X29741Y-34085D01*
X29749Y-34083D01*
X29766Y-34075D01*
X29783Y-34065D01*
X29796Y-34053D01*
X29798Y-34050D01*
X29812Y-34031D01*
X29821Y-34009D01*
X29826Y-33987D01*
X29825Y-33965D01*
X29825Y-33959D01*
X29818Y-33936D01*
X29808Y-33916D01*
X29793Y-33897D01*
X29779Y-33885D01*
X29759Y-33874D01*
X29738Y-33866D01*
X29733Y-33865D01*
X29718Y-33864D01*
X29702Y-33865D01*
X29688Y-33867D01*
X29675Y-33871D01*
X29654Y-33881D01*
X29636Y-33895D01*
X29621Y-33912D01*
X29610Y-33931D01*
X29604Y-33953D01*
X29603Y-33955D01*
X29601Y-33961D01*
X29600Y-33963D01*
X29600Y-33960D01*
X29599Y-33956D01*
X29597Y-33946D01*
X29594Y-33936D01*
X29590Y-33927D01*
X29586Y-33921D01*
X29572Y-33901D01*
X29555Y-33886D01*
X29535Y-33874D01*
X29513Y-33867D01*
X29490Y-33864D01*
X29471Y-33865D01*
X29450Y-33871D01*
X29430Y-33881D01*
X29418Y-33889D01*
X29402Y-33905D01*
X29389Y-33924D01*
X29381Y-33945D01*
X29377Y-33967D01*
X29377Y-33989D01*
X29382Y-34010D01*
X29391Y-34032D01*
X29405Y-34051D01*
X29422Y-34066D01*
X29442Y-34078D01*
X29465Y-34086D01*
X29478Y-34089D01*
X29470Y-34090D01*
X29466Y-34091D01*
X29448Y-34096D01*
X29430Y-34106D01*
X29414Y-34117D01*
X29400Y-34131D01*
X29393Y-34143D01*
X29385Y-34159D01*
X29379Y-34174D01*
X29377Y-34185D01*
X29377Y-34200D01*
X29377Y-34214D01*
X29379Y-34226D01*
X29383Y-34239D01*
X29393Y-34260D01*
X29408Y-34279D01*
X29425Y-34294D01*
X29446Y-34305D01*
X29470Y-34312D01*
X29476Y-34313D01*
X29489Y-34313D01*
X29504Y-34312D01*
X29517Y-34310D01*
X29526Y-34307D01*
X29547Y-34297D01*
X29565Y-34283D01*
X29581Y-34266D01*
X29592Y-34246D01*
X29599Y-34224D01*
X29599Y-34221D01*
X29601Y-34217D01*
X29601Y-34217D01*
X29601Y-34186D01*
X29600Y-34185D01*
X29599Y-34181D01*
X29599Y-34179D01*
X29595Y-34165D01*
X29588Y-34149D01*
X29579Y-34134D01*
X29572Y-34126D01*
X29555Y-34110D01*
X29534Y-34098D01*
X29511Y-34091D01*
X29501Y-34089D01*
X29508Y-34087D01*
X29515Y-34086D01*
X29522Y-34084D01*
X29527Y-34082D01*
X29547Y-34072D01*
X29565Y-34058D01*
X29580Y-34041D01*
X29592Y-34022D01*
X29599Y-34000D01*
X29600Y-33995D01*
X29601Y-33992D01*
X29602Y-33994D01*
X29604Y-34001D01*
X29604Y-34001D01*
X29607Y-34013D01*
X29613Y-34026D01*
X29620Y-34038D01*
X29625Y-34046D01*
X29636Y-34057D01*
X29647Y-34067D01*
X29657Y-34074D01*
X29658Y-34074D01*
X29676Y-34082D01*
X29694Y-34087D01*
X29702Y-34089D01*
X29693Y-34090D01*
X29673Y-34096D01*
X29653Y-34107D01*
X29635Y-34121D01*
X29620Y-34138D01*
X29617Y-34144D01*
X29611Y-34154D01*
X29607Y-34166D01*
X29604Y-34176D01*
X29602Y-34184D01*
X29602Y-34184D01*
X29601Y-34186D01*
X29601Y-34217D01*
X29602Y-34217D01*
X29603Y-34222D01*
X29604Y-34228D01*
X29606Y-34236D01*
X29611Y-34247D01*
X29622Y-34267D01*
X29637Y-34283D01*
X29654Y-34297D01*
X29674Y-34306D01*
X29695Y-34312D01*
X29717Y-34313D01*
X29717Y-34313D01*
G37*
G36*
X30392Y-34313D02*
X30415Y-34310D01*
X30436Y-34302D01*
X30455Y-34290D01*
X30471Y-34275D01*
X30484Y-34257D01*
X30494Y-34236D01*
X30496Y-34228D01*
X30497Y-34222D01*
X30497Y-34221D01*
X30498Y-34217D01*
X30499Y-34217D01*
X30499Y-34185D01*
X30498Y-34182D01*
X30496Y-34174D01*
X30492Y-34161D01*
X30482Y-34141D01*
X30468Y-34124D01*
X30451Y-34109D01*
X30431Y-34098D01*
X30409Y-34091D01*
X30398Y-34089D01*
X30406Y-34087D01*
X30407Y-34087D01*
X30425Y-34082D01*
X30443Y-34074D01*
X30450Y-34069D01*
X30461Y-34060D01*
X30472Y-34049D01*
X30480Y-34038D01*
X30486Y-34028D01*
X30492Y-34014D01*
X30496Y-34001D01*
X30498Y-33995D01*
X30499Y-33992D01*
X30500Y-33993D01*
X30501Y-34000D01*
X30506Y-34015D01*
X30516Y-34036D01*
X30531Y-34054D01*
X30548Y-34069D01*
X30568Y-34080D01*
X30592Y-34087D01*
X30599Y-34089D01*
X30589Y-34091D01*
X30578Y-34094D01*
X30557Y-34103D01*
X30537Y-34116D01*
X30521Y-34134D01*
X30517Y-34140D01*
X30511Y-34151D01*
X30506Y-34163D01*
X30503Y-34171D01*
X30501Y-34179D01*
X30501Y-34180D01*
X30500Y-34185D01*
X30499Y-34185D01*
X30499Y-34217D01*
X30500Y-34217D01*
X30501Y-34223D01*
X30503Y-34231D01*
X30509Y-34248D01*
X30518Y-34264D01*
X30524Y-34272D01*
X30541Y-34289D01*
X30561Y-34302D01*
X30584Y-34310D01*
X30594Y-34312D01*
X30609Y-34313D01*
X30625Y-34312D01*
X30639Y-34310D01*
X30640Y-34310D01*
X30663Y-34301D01*
X30683Y-34288D01*
X30699Y-34271D01*
X30712Y-34251D01*
X30721Y-34229D01*
X30722Y-34219D01*
X30723Y-34203D01*
X30723Y-34187D01*
X30721Y-34174D01*
X30716Y-34161D01*
X30709Y-34145D01*
X30700Y-34131D01*
X30689Y-34120D01*
X30676Y-34109D01*
X30661Y-34100D01*
X30656Y-34098D01*
X30645Y-34094D01*
X30634Y-34091D01*
X30626Y-34090D01*
X30626Y-34089D01*
X30628Y-34088D01*
X30635Y-34086D01*
X30648Y-34082D01*
X30663Y-34076D01*
X30675Y-34069D01*
X30677Y-34068D01*
X30692Y-34054D01*
X30705Y-34038D01*
X30714Y-34022D01*
X30718Y-34013D01*
X30723Y-33991D01*
X30723Y-33968D01*
X30719Y-33945D01*
X30718Y-33940D01*
X30708Y-33919D01*
X30695Y-33901D01*
X30677Y-33886D01*
X30657Y-33874D01*
X30635Y-33866D01*
X30632Y-33866D01*
X30617Y-33864D01*
X30600Y-33865D01*
X30585Y-33867D01*
X30582Y-33868D01*
X30559Y-33877D01*
X30540Y-33889D01*
X30523Y-33906D01*
X30510Y-33927D01*
X30507Y-33933D01*
X30504Y-33943D01*
X30501Y-33953D01*
X30500Y-33960D01*
X30500Y-33962D01*
X30499Y-33963D01*
X30498Y-33959D01*
X30497Y-33953D01*
X30492Y-33938D01*
X30483Y-33918D01*
X30469Y-33900D01*
X30452Y-33885D01*
X30433Y-33874D01*
X30433Y-33874D01*
X30412Y-33867D01*
X30389Y-33864D01*
X30367Y-33866D01*
X30345Y-33872D01*
X30333Y-33878D01*
X30314Y-33891D01*
X30298Y-33908D01*
X30285Y-33927D01*
X30278Y-33949D01*
X30276Y-33954D01*
X30274Y-33972D01*
X30275Y-33989D01*
X30279Y-34010D01*
X30289Y-34032D01*
X30302Y-34051D01*
X30319Y-34066D01*
X30340Y-34078D01*
X30363Y-34086D01*
X30367Y-34088D01*
X30372Y-34089D01*
X30371Y-34090D01*
X30365Y-34090D01*
X30352Y-34094D01*
X30338Y-34100D01*
X30325Y-34107D01*
X30312Y-34117D01*
X30296Y-34134D01*
X30284Y-34155D01*
X30283Y-34158D01*
X30276Y-34180D01*
X30274Y-34203D01*
X30277Y-34226D01*
X30284Y-34248D01*
X30289Y-34258D01*
X30296Y-34268D01*
X30306Y-34279D01*
X30307Y-34280D01*
X30325Y-34295D01*
X30345Y-34306D01*
X30367Y-34312D01*
X30370Y-34312D01*
X30392Y-34313D01*
X30392Y-34313D01*
G37*
G36*
X34919Y-35437D02*
X34928Y-35432D01*
X34949Y-35419D01*
X34978Y-35400D01*
X35013Y-35377D01*
X35047Y-35353D01*
X35076Y-35334D01*
X35096Y-35321D01*
X35104Y-35317D01*
X35109Y-35318D01*
X35125Y-35326D01*
X35149Y-35339D01*
X35163Y-35346D01*
X35185Y-35355D01*
X35196Y-35357D01*
X35198Y-35354D01*
X35206Y-35338D01*
X35218Y-35309D01*
X35235Y-35271D01*
X35254Y-35226D01*
X35274Y-35178D01*
X35295Y-35130D01*
X35314Y-35083D01*
X35331Y-35041D01*
X35345Y-35007D01*
X35354Y-34983D01*
X35357Y-34973D01*
X35356Y-34971D01*
X35345Y-34960D01*
X35326Y-34946D01*
X35285Y-34912D01*
X35244Y-34861D01*
X35219Y-34803D01*
X35210Y-34738D01*
X35217Y-34679D01*
X35241Y-34622D01*
X35281Y-34570D01*
X35330Y-34532D01*
X35386Y-34507D01*
X35450Y-34499D01*
X35511Y-34506D01*
X35569Y-34529D01*
X35621Y-34569D01*
X35643Y-34594D01*
X35673Y-34646D01*
X35690Y-34702D01*
X35692Y-34716D01*
X35689Y-34778D01*
X35671Y-34837D01*
X35639Y-34889D01*
X35594Y-34933D01*
X35588Y-34937D01*
X35567Y-34952D01*
X35553Y-34963D01*
X35542Y-34972D01*
X35620Y-35161D01*
X35633Y-35191D01*
X35654Y-35242D01*
X35673Y-35287D01*
X35689Y-35322D01*
X35699Y-35346D01*
X35704Y-35355D01*
X35704Y-35356D01*
X35711Y-35357D01*
X35725Y-35352D01*
X35752Y-35339D01*
X35769Y-35330D01*
X35789Y-35320D01*
X35798Y-35317D01*
X35806Y-35321D01*
X35825Y-35333D01*
X35853Y-35352D01*
X35887Y-35375D01*
X35919Y-35397D01*
X35948Y-35416D01*
X35970Y-35430D01*
X35980Y-35436D01*
X35982Y-35436D01*
X35991Y-35431D01*
X36008Y-35416D01*
X36034Y-35392D01*
X36070Y-35356D01*
X36076Y-35351D01*
X36106Y-35320D01*
X36130Y-35295D01*
X36146Y-35277D01*
X36152Y-35268D01*
X36152Y-35268D01*
X36147Y-35258D01*
X36133Y-35237D01*
X36114Y-35207D01*
X36090Y-35172D01*
X36027Y-35081D01*
X36062Y-34995D01*
X36072Y-34969D01*
X36086Y-34937D01*
X36096Y-34915D01*
X36101Y-34905D01*
X36110Y-34901D01*
X36133Y-34896D01*
X36167Y-34889D01*
X36208Y-34881D01*
X36247Y-34874D01*
X36281Y-34867D01*
X36307Y-34862D01*
X36318Y-34860D01*
X36321Y-34859D01*
X36323Y-34853D01*
X36324Y-34841D01*
X36325Y-34820D01*
X36326Y-34787D01*
X36326Y-34738D01*
X36326Y-34733D01*
X36325Y-34687D01*
X36325Y-34650D01*
X36323Y-34627D01*
X36322Y-34617D01*
X36322Y-34617D01*
X36311Y-34615D01*
X36286Y-34609D01*
X36251Y-34603D01*
X36210Y-34595D01*
X36207Y-34594D01*
X36166Y-34586D01*
X36131Y-34579D01*
X36107Y-34573D01*
X36096Y-34570D01*
X36094Y-34567D01*
X36086Y-34551D01*
X36074Y-34525D01*
X36060Y-34494D01*
X36047Y-34461D01*
X36035Y-34432D01*
X36027Y-34410D01*
X36025Y-34400D01*
X36025Y-34400D01*
X36031Y-34390D01*
X36045Y-34369D01*
X36065Y-34339D01*
X36090Y-34304D01*
X36091Y-34301D01*
X36115Y-34266D01*
X36135Y-34236D01*
X36147Y-34215D01*
X36152Y-34206D01*
X36152Y-34205D01*
X36144Y-34195D01*
X36126Y-34175D01*
X36101Y-34148D01*
X36070Y-34117D01*
X36060Y-34107D01*
X36026Y-34074D01*
X36003Y-34052D01*
X35988Y-34041D01*
X35981Y-34038D01*
X35981Y-34038D01*
X35970Y-34045D01*
X35948Y-34059D01*
X35918Y-34080D01*
X35882Y-34104D01*
X35880Y-34105D01*
X35845Y-34129D01*
X35816Y-34149D01*
X35795Y-34163D01*
X35786Y-34168D01*
X35784Y-34168D01*
X35770Y-34164D01*
X35745Y-34155D01*
X35715Y-34143D01*
X35682Y-34130D01*
X35653Y-34118D01*
X35631Y-34108D01*
X35620Y-34102D01*
X35620Y-34101D01*
X35616Y-34089D01*
X35610Y-34063D01*
X35603Y-34027D01*
X35595Y-33984D01*
X35593Y-33977D01*
X35585Y-33935D01*
X35579Y-33901D01*
X35574Y-33877D01*
X35571Y-33867D01*
X35565Y-33866D01*
X35545Y-33864D01*
X35514Y-33863D01*
X35476Y-33863D01*
X35437Y-33863D01*
X35398Y-33864D01*
X35365Y-33865D01*
X35342Y-33867D01*
X35332Y-33869D01*
X35331Y-33869D01*
X35328Y-33882D01*
X35322Y-33908D01*
X35315Y-33945D01*
X35306Y-33988D01*
X35305Y-33995D01*
X35297Y-34037D01*
X35290Y-34071D01*
X35285Y-34095D01*
X35282Y-34104D01*
X35279Y-34106D01*
X35261Y-34113D01*
X35233Y-34125D01*
X35199Y-34139D01*
X35119Y-34171D01*
X35020Y-34104D01*
X35011Y-34098D01*
X34976Y-34074D01*
X34947Y-34054D01*
X34927Y-34041D01*
X34918Y-34037D01*
X34918Y-34037D01*
X34908Y-34046D01*
X34888Y-34064D01*
X34862Y-34090D01*
X34831Y-34121D01*
X34808Y-34143D01*
X34781Y-34171D01*
X34763Y-34190D01*
X34754Y-34202D01*
X34751Y-34209D01*
X34752Y-34214D01*
X34758Y-34224D01*
X34772Y-34245D01*
X34793Y-34275D01*
X34817Y-34310D01*
X34836Y-34339D01*
X34858Y-34372D01*
X34872Y-34396D01*
X34876Y-34407D01*
X34875Y-34412D01*
X34868Y-34431D01*
X34857Y-34460D01*
X34842Y-34495D01*
X34808Y-34573D01*
X34757Y-34583D01*
X34726Y-34588D01*
X34682Y-34597D01*
X34641Y-34605D01*
X34576Y-34617D01*
X34574Y-34854D01*
X34584Y-34858D01*
X34594Y-34861D01*
X34618Y-34866D01*
X34652Y-34873D01*
X34692Y-34881D01*
X34726Y-34887D01*
X34761Y-34894D01*
X34786Y-34899D01*
X34797Y-34901D01*
X34800Y-34905D01*
X34808Y-34921D01*
X34821Y-34948D01*
X34834Y-34980D01*
X34848Y-35013D01*
X34860Y-35044D01*
X34869Y-35067D01*
X34872Y-35080D01*
X34867Y-35089D01*
X34854Y-35109D01*
X34835Y-35138D01*
X34812Y-35172D01*
X34788Y-35207D01*
X34768Y-35236D01*
X34755Y-35257D01*
X34749Y-35267D01*
X34752Y-35274D01*
X34765Y-35290D01*
X34791Y-35317D01*
X34830Y-35355D01*
X34836Y-35361D01*
X34867Y-35391D01*
X34893Y-35415D01*
X34911Y-35431D01*
X34919Y-35437D01*
X34919Y-35437D01*
G37*
G54D12*
X31150Y-26250D02*
X30950Y-25950D01*
X30950Y-25950D02*
X30850Y-26050D01*
X30850Y-26050D02*
X31150Y-26250D01*
X34730Y-28940D02*
X34280Y-28940D01*
X34730Y-26760D02*
X34290Y-26760D01*
X34730Y-28940D02*
X34730Y-26760D01*
X33850Y-29410D02*
X33850Y-29840D01*
X31640Y-29420D02*
X31640Y-29840D01*
X31630Y-29840D02*
X33850Y-29850D01*
X31650Y-25870D02*
X33820Y-25860D01*
X31220Y-26560D02*
X31220Y-29390D01*
X33830Y-25870D02*
X33830Y-26280D01*
X31470Y-26320D02*
X34250Y-26320D01*
X34270Y-29400D02*
X34270Y-26360D01*
X31220Y-29400D02*
X34220Y-29400D01*
X30770Y-26730D02*
X30770Y-28950D01*
X30770Y-28950D02*
X31220Y-28950D01*
X31224Y-26550D02*
X31454Y-26320D01*
X30772Y-26730D02*
X31224Y-26730D01*
X31650Y-26320D02*
X31650Y-25868D01*
X31820Y-26724D02*
X31816Y-26760D01*
X31805Y-26795D01*
X31788Y-26828D01*
X31765Y-26856D01*
X31737Y-26879D01*
X31704Y-26897D01*
X31669Y-26908D01*
X31633Y-26911D01*
X31597Y-26908D01*
X31562Y-26898D01*
X31530Y-26881D01*
X31501Y-26858D01*
X31477Y-26830D01*
X31460Y-26798D01*
X31449Y-26763D01*
X31445Y-26726D01*
X31448Y-26691D01*
X31458Y-26655D01*
X31474Y-26623D01*
X31497Y-26594D01*
X31525Y-26570D01*
X31557Y-26552D01*
X31592Y-26541D01*
X31629Y-26537D01*
X31664Y-26539D01*
X31699Y-26549D01*
X31732Y-26566D01*
X31761Y-26588D01*
X31785Y-26616D01*
X31803Y-26648D01*
X31815Y-26683D01*
X31819Y-26719D01*
X31820Y-26724D01*
G54D14*
X26825Y-27960D02*
X26825Y-28215D01*
X26825Y-28215D02*
X27376Y-28215D01*
X27376Y-27960D02*
X27376Y-28215D01*
X26825Y-27960D02*
X27376Y-27960D01*
X26825Y-27380D02*
X26825Y-27636D01*
X26825Y-27636D02*
X27376Y-27636D01*
X27376Y-27380D02*
X27376Y-27636D01*
X26825Y-27380D02*
X27376Y-27380D01*
X26904Y-27722D02*
X26904Y-27878D01*
X26904Y-27878D02*
X27296Y-27878D01*
X27296Y-27722D02*
X27296Y-27878D01*
X26904Y-27722D02*
X27296Y-27722D01*
G54D10*
X27350Y-27639D02*
X27350Y-27961D01*
X26850Y-27639D02*
X26850Y-27961D01*
G54D15*
X27487Y-27024D02*
X27487Y-28576D01*
X27487Y-28576D02*
X26713Y-28576D01*
X26713Y-28576D02*
X26713Y-27024D01*
X26713Y-27024D02*
X27487Y-27024D01*
G54D14*
X33010Y-24775D02*
X33265Y-24775D01*
X33265Y-24775D02*
X33265Y-24224D01*
X33010Y-24224D02*
X33265Y-24224D01*
X33010Y-24775D02*
X33010Y-24224D01*
X32430Y-24775D02*
X32686Y-24775D01*
X32686Y-24775D02*
X32686Y-24224D01*
X32430Y-24224D02*
X32686Y-24224D01*
X32430Y-24775D02*
X32430Y-24224D01*
X32772Y-24696D02*
X32928Y-24696D01*
X32928Y-24696D02*
X32928Y-24304D01*
X32772Y-24304D02*
X32928Y-24304D01*
X32772Y-24696D02*
X32772Y-24304D01*
G54D10*
X32689Y-24250D02*
X33011Y-24250D01*
X32689Y-24750D02*
X33011Y-24750D01*
G54D15*
X32074Y-24113D02*
X33626Y-24113D01*
X33626Y-24113D02*
X33626Y-24887D01*
X33626Y-24887D02*
X32074Y-24887D01*
X32074Y-24887D02*
X32074Y-24113D01*
G54D14*
X32910Y-33775D02*
X33165Y-33775D01*
X33165Y-33775D02*
X33165Y-33224D01*
X32910Y-33224D02*
X33165Y-33224D01*
X32910Y-33775D02*
X32910Y-33224D01*
X32330Y-33775D02*
X32586Y-33775D01*
X32586Y-33775D02*
X32586Y-33224D01*
X32330Y-33224D02*
X32586Y-33224D01*
X32330Y-33775D02*
X32330Y-33224D01*
X32672Y-33696D02*
X32828Y-33696D01*
X32828Y-33696D02*
X32828Y-33304D01*
X32672Y-33304D02*
X32828Y-33304D01*
X32672Y-33696D02*
X32672Y-33304D01*
G54D10*
X32589Y-33250D02*
X32911Y-33250D01*
X32589Y-33750D02*
X32911Y-33750D01*
G54D15*
X31974Y-33113D02*
X33526Y-33113D01*
X33526Y-33113D02*
X33526Y-33887D01*
X33526Y-33887D02*
X31974Y-33887D01*
X31974Y-33887D02*
X31974Y-33113D01*
G54D14*
X38675Y-27690D02*
X38675Y-27435D01*
X38675Y-27435D02*
X38124Y-27435D01*
X38124Y-27690D02*
X38124Y-27435D01*
X38675Y-27690D02*
X38124Y-27690D01*
X38675Y-28270D02*
X38675Y-28014D01*
X38675Y-28014D02*
X38124Y-28014D01*
X38124Y-28270D02*
X38124Y-28014D01*
X38675Y-28270D02*
X38124Y-28270D01*
X38596Y-27928D02*
X38596Y-27772D01*
X38596Y-27772D02*
X38204Y-27772D01*
X38204Y-27928D02*
X38204Y-27772D01*
X38596Y-27928D02*
X38204Y-27928D01*
G54D10*
X38150Y-28011D02*
X38150Y-27689D01*
X38650Y-28011D02*
X38650Y-27689D01*
G54D15*
X38013Y-28626D02*
X38013Y-27074D01*
X38013Y-27074D02*
X38787Y-27074D01*
X38787Y-27074D02*
X38787Y-28626D01*
X38787Y-28626D02*
X38013Y-28626D01*
G54D12*
X30950Y-25150D02*
X30932Y-25324D01*
X30882Y-25492D01*
X30799Y-25648D01*
X30688Y-25784D01*
X30553Y-25896D01*
X30398Y-25979D01*
X30230Y-26031D01*
X30056Y-26049D01*
X29882Y-26034D01*
X29713Y-25984D01*
X29558Y-25903D01*
X29421Y-25793D01*
X29308Y-25658D01*
X29223Y-25504D01*
X29170Y-25337D01*
X29151Y-25162D01*
X29165Y-24988D01*
X29214Y-24819D01*
X29294Y-24663D01*
X29403Y-24525D01*
X29537Y-24411D01*
X29690Y-24326D01*
X29857Y-24271D01*
X30032Y-24251D01*
X30206Y-24264D01*
X30375Y-24311D01*
X30532Y-24391D01*
X30670Y-24499D01*
X30785Y-24632D01*
X30872Y-24784D01*
X30927Y-24951D01*
X30949Y-25125D01*
X30950Y-25150D01*
X36350Y-25150D02*
X36332Y-25324D01*
X36282Y-25492D01*
X36199Y-25648D01*
X36088Y-25784D01*
X35953Y-25896D01*
X35798Y-25979D01*
X35630Y-26031D01*
X35456Y-26049D01*
X35282Y-26034D01*
X35113Y-25984D01*
X34958Y-25903D01*
X34821Y-25793D01*
X34708Y-25658D01*
X34623Y-25504D01*
X34570Y-25337D01*
X34551Y-25162D01*
X34565Y-24988D01*
X34614Y-24819D01*
X34694Y-24663D01*
X34803Y-24525D01*
X34937Y-24411D01*
X35090Y-24326D01*
X35257Y-24271D01*
X35432Y-24251D01*
X35606Y-24264D01*
X35775Y-24311D01*
X35932Y-24391D01*
X36070Y-24499D01*
X36185Y-24632D01*
X36272Y-24784D01*
X36327Y-24951D01*
X36349Y-25125D01*
X36350Y-25150D01*
X30950Y-30550D02*
X30932Y-30724D01*
X30882Y-30892D01*
X30799Y-31048D01*
X30688Y-31184D01*
X30553Y-31296D01*
X30398Y-31379D01*
X30230Y-31431D01*
X30056Y-31449D01*
X29882Y-31434D01*
X29713Y-31384D01*
X29558Y-31303D01*
X29421Y-31193D01*
X29308Y-31058D01*
X29223Y-30904D01*
X29170Y-30737D01*
X29151Y-30562D01*
X29165Y-30388D01*
X29214Y-30219D01*
X29294Y-30063D01*
X29403Y-29925D01*
X29537Y-29811D01*
X29690Y-29726D01*
X29857Y-29671D01*
X30032Y-29651D01*
X30206Y-29664D01*
X30375Y-29711D01*
X30532Y-29791D01*
X30670Y-29899D01*
X30785Y-30032D01*
X30872Y-30184D01*
X30927Y-30351D01*
X30949Y-30525D01*
X30950Y-30550D01*
X36350Y-30550D02*
X36332Y-30724D01*
X36282Y-30892D01*
X36199Y-31048D01*
X36088Y-31184D01*
X35953Y-31296D01*
X35798Y-31379D01*
X35630Y-31431D01*
X35456Y-31449D01*
X35282Y-31434D01*
X35113Y-31384D01*
X34958Y-31303D01*
X34821Y-31193D01*
X34708Y-31058D01*
X34623Y-30904D01*
X34570Y-30737D01*
X34551Y-30562D01*
X34565Y-30388D01*
X34614Y-30219D01*
X34694Y-30063D01*
X34803Y-29925D01*
X34937Y-29811D01*
X35090Y-29726D01*
X35257Y-29671D01*
X35432Y-29651D01*
X35606Y-29664D01*
X35775Y-29711D01*
X35932Y-29791D01*
X36070Y-29899D01*
X36185Y-30032D01*
X36272Y-30184D01*
X36327Y-30351D01*
X36349Y-30525D01*
X36350Y-30550D01*
G54D14*
X32271Y-32835D02*
X32566Y-32835D01*
X32566Y-32835D02*
X32566Y-32265D01*
X32271Y-32265D02*
X32566Y-32265D01*
X32271Y-32835D02*
X32271Y-32265D01*
X32840Y-32835D02*
X33135Y-32835D01*
X33135Y-32835D02*
X33135Y-32265D01*
X32840Y-32265D02*
X33135Y-32265D01*
X32840Y-32835D02*
X32840Y-32265D01*
X32661Y-32707D02*
X32739Y-32707D01*
X32739Y-32707D02*
X32739Y-32393D01*
X32661Y-32393D02*
X32739Y-32393D01*
X32661Y-32707D02*
X32661Y-32393D01*
G54D15*
X31924Y-32163D02*
X33476Y-32163D01*
X33476Y-32937D02*
X31924Y-32937D01*
X31924Y-32937D02*
X31924Y-32163D01*
G54D16*
X32550Y-32291D02*
X32850Y-32291D01*
X32560Y-32809D02*
X32850Y-32809D01*
G54D15*
X33476Y-32163D02*
X33476Y-32937D01*
G54D14*
X28665Y-27130D02*
X28665Y-27426D01*
X28665Y-27426D02*
X29334Y-27426D01*
X29334Y-27130D02*
X29334Y-27426D01*
X28665Y-27130D02*
X29334Y-27130D01*
X28666Y-28174D02*
X28666Y-28470D01*
X28666Y-28470D02*
X29335Y-28470D01*
X29335Y-28174D02*
X29335Y-28470D01*
X28666Y-28174D02*
X29335Y-28174D01*
X28843Y-27722D02*
X28843Y-27878D01*
X28843Y-27878D02*
X29157Y-27878D01*
X29157Y-27722D02*
X29157Y-27878D01*
X28843Y-27722D02*
X29157Y-27722D01*
G54D15*
X29387Y-26827D02*
X29387Y-28773D01*
X28613Y-28773D02*
X28613Y-26827D01*
X28613Y-26827D02*
X29387Y-26827D01*
X29387Y-28773D02*
X28613Y-28773D01*
G54D16*
X29309Y-27421D02*
X29309Y-28179D01*
X28691Y-27421D02*
X28691Y-28179D01*
G54D14*
X36835Y-28520D02*
X36835Y-28224D01*
X36835Y-28224D02*
X36166Y-28224D01*
X36166Y-28520D02*
X36166Y-28224D01*
X36835Y-28520D02*
X36166Y-28520D01*
X36834Y-27476D02*
X36834Y-27180D01*
X36834Y-27180D02*
X36165Y-27180D01*
X36165Y-27476D02*
X36165Y-27180D01*
X36834Y-27476D02*
X36165Y-27476D01*
X36657Y-27928D02*
X36657Y-27772D01*
X36657Y-27772D02*
X36343Y-27772D01*
X36343Y-27928D02*
X36343Y-27772D01*
X36657Y-27928D02*
X36343Y-27928D01*
G54D15*
X36113Y-28823D02*
X36113Y-26877D01*
X36887Y-26877D02*
X36887Y-28823D01*
X36887Y-28823D02*
X36113Y-28823D01*
X36113Y-26877D02*
X36887Y-26877D01*
G54D16*
X36191Y-28229D02*
X36191Y-27471D01*
X36809Y-28229D02*
X36809Y-27471D01*
G54D14*
X27765Y-27371D02*
X27765Y-27666D01*
X27765Y-27666D02*
X28335Y-27666D01*
X28335Y-27371D02*
X28335Y-27666D01*
X27765Y-27371D02*
X28335Y-27371D01*
X27765Y-27940D02*
X27765Y-28235D01*
X27765Y-28235D02*
X28335Y-28235D01*
X28335Y-27940D02*
X28335Y-28235D01*
X27765Y-27940D02*
X28335Y-27940D01*
X27893Y-27761D02*
X27893Y-27839D01*
X27893Y-27839D02*
X28207Y-27839D01*
X28207Y-27761D02*
X28207Y-27839D01*
X27893Y-27761D02*
X28207Y-27761D01*
G54D15*
X28437Y-27024D02*
X28437Y-28576D01*
X27663Y-28576D02*
X27663Y-27024D01*
X27663Y-27024D02*
X28437Y-27024D01*
G54D16*
X28309Y-27650D02*
X28309Y-27950D01*
X27791Y-27660D02*
X27791Y-27950D01*
G54D15*
X28437Y-28576D02*
X27663Y-28576D01*
G54D14*
X37735Y-28279D02*
X37735Y-27984D01*
X37735Y-27984D02*
X37165Y-27984D01*
X37165Y-28279D02*
X37165Y-27984D01*
X37735Y-28279D02*
X37165Y-28279D01*
X37735Y-27710D02*
X37735Y-27415D01*
X37735Y-27415D02*
X37165Y-27415D01*
X37165Y-27710D02*
X37165Y-27415D01*
X37735Y-27710D02*
X37165Y-27710D01*
X37607Y-27889D02*
X37607Y-27811D01*
X37607Y-27811D02*
X37293Y-27811D01*
X37293Y-27889D02*
X37293Y-27811D01*
X37607Y-27889D02*
X37293Y-27889D01*
G54D15*
X37063Y-28626D02*
X37063Y-27074D01*
X37837Y-27074D02*
X37837Y-28626D01*
X37837Y-28626D02*
X37063Y-28626D01*
G54D16*
X37191Y-28000D02*
X37191Y-27700D01*
X37709Y-27990D02*
X37709Y-27700D01*
G54D15*
X37063Y-27074D02*
X37837Y-27074D01*
G54D14*
X32080Y-31935D02*
X32376Y-31935D01*
X32376Y-31935D02*
X32376Y-31266D01*
X32080Y-31266D02*
X32376Y-31266D01*
X32080Y-31935D02*
X32080Y-31266D01*
X33124Y-31934D02*
X33420Y-31934D01*
X33420Y-31934D02*
X33420Y-31265D01*
X33124Y-31265D02*
X33420Y-31265D01*
X33124Y-31934D02*
X33124Y-31265D01*
X32672Y-31757D02*
X32828Y-31757D01*
X32828Y-31757D02*
X32828Y-31443D01*
X32672Y-31443D02*
X32828Y-31443D01*
X32672Y-31757D02*
X32672Y-31443D01*
G54D15*
X31777Y-31213D02*
X33723Y-31213D01*
X33723Y-31987D02*
X31777Y-31987D01*
X31777Y-31987D02*
X31777Y-31213D01*
X33723Y-31213D02*
X33723Y-31987D01*
G54D16*
X32371Y-31291D02*
X33129Y-31291D01*
X32371Y-31909D02*
X33129Y-31909D01*
G54D12*
X32500Y-36050D02*
X32500Y-35850D01*
X32500Y-35850D02*
X32950Y-35850D01*
X32950Y-35850D02*
X33000Y-35850D01*
X33000Y-35850D02*
X33000Y-36050D01*
X33734Y-34116D02*
X33734Y-36084D01*
X33734Y-36084D02*
X31766Y-36084D01*
X31766Y-36084D02*
X31766Y-34116D01*
X31766Y-34116D02*
X33734Y-34116D01*
X38345Y-33849D02*
X38204Y-33707D01*
X38204Y-33707D02*
X38522Y-33389D01*
X38522Y-33389D02*
X38557Y-33354D01*
X38557Y-33354D02*
X38699Y-33495D01*
X37850Y-31608D02*
X39242Y-33000D01*
X39242Y-33000D02*
X37850Y-34392D01*
X37850Y-34392D02*
X36458Y-33000D01*
X36458Y-33000D02*
X37850Y-31608D01*
X40950Y-28100D02*
X40750Y-28100D01*
X40750Y-28100D02*
X40750Y-27650D01*
X40750Y-27650D02*
X40750Y-27600D01*
X40750Y-27600D02*
X40950Y-27600D01*
X39016Y-26866D02*
X40984Y-26866D01*
X40984Y-26866D02*
X40984Y-28834D01*
X40984Y-28834D02*
X39016Y-28834D01*
X39016Y-28834D02*
X39016Y-26866D01*
X38699Y-22255D02*
X38557Y-22396D01*
X38557Y-22396D02*
X38239Y-22078D01*
X38239Y-22078D02*
X38204Y-22043D01*
X38204Y-22043D02*
X38345Y-21901D01*
X36458Y-22750D02*
X37850Y-21358D01*
X37850Y-21358D02*
X39242Y-22750D01*
X39242Y-22750D02*
X37850Y-24142D01*
X37850Y-24142D02*
X36458Y-22750D01*
X33000Y-19650D02*
X33000Y-19850D01*
X33000Y-19850D02*
X32550Y-19850D01*
X32550Y-19850D02*
X32500Y-19850D01*
X32500Y-19850D02*
X32500Y-19650D01*
X31766Y-21584D02*
X31766Y-19616D01*
X31766Y-19616D02*
X33734Y-19616D01*
X33734Y-19616D02*
X33734Y-21584D01*
X33734Y-21584D02*
X31766Y-21584D01*
X27105Y-21901D02*
X27246Y-22043D01*
X27246Y-22043D02*
X26928Y-22361D01*
X26928Y-22361D02*
X26893Y-22396D01*
X26893Y-22396D02*
X26751Y-22255D01*
X27600Y-24142D02*
X26208Y-22750D01*
X26208Y-22750D02*
X27600Y-21358D01*
X27600Y-21358D02*
X28992Y-22750D01*
X28992Y-22750D02*
X27600Y-24142D01*
X24550Y-27600D02*
X24750Y-27600D01*
X24750Y-27600D02*
X24750Y-28050D01*
X24750Y-28050D02*
X24750Y-28100D01*
X24750Y-28100D02*
X24550Y-28100D01*
X26484Y-28834D02*
X24516Y-28834D01*
X24516Y-28834D02*
X24516Y-26866D01*
X24516Y-26866D02*
X26484Y-26866D01*
X26484Y-26866D02*
X26484Y-28834D01*
X26801Y-33495D02*
X26943Y-33354D01*
X26943Y-33354D02*
X27261Y-33672D01*
X27261Y-33672D02*
X27296Y-33707D01*
X27296Y-33707D02*
X27155Y-33849D01*
X29042Y-33000D02*
X27650Y-34392D01*
X27650Y-34392D02*
X26258Y-33000D01*
X26258Y-33000D02*
X27650Y-31608D01*
X27650Y-31608D02*
X29042Y-33000D01*
G54D11*
X27262Y-29066D02*
X27071Y-29200D01*
X27262Y-29295D02*
X26862Y-29295D01*
X26862Y-29142D01*
X26881Y-29104D01*
X26900Y-29085D01*
X26938Y-29066D01*
X26995Y-29066D01*
X27033Y-29085D01*
X27052Y-29104D01*
X27071Y-29142D01*
X27071Y-29295D01*
X26862Y-28704D02*
X26862Y-28895D01*
X27052Y-28914D01*
X27033Y-28895D01*
X27014Y-28857D01*
X27014Y-28761D01*
X27033Y-28723D01*
X27052Y-28704D01*
X27090Y-28685D01*
X27186Y-28685D01*
X27224Y-28704D01*
X27243Y-28723D01*
X27262Y-28761D01*
X27262Y-28857D01*
X27243Y-28895D01*
X27224Y-28914D01*
X33234Y-25362D02*
X33100Y-25171D01*
X33005Y-25362D02*
X33005Y-24962D01*
X33158Y-24962D01*
X33196Y-24981D01*
X33215Y-25000D01*
X33234Y-25038D01*
X33234Y-25095D01*
X33215Y-25133D01*
X33196Y-25152D01*
X33158Y-25171D01*
X33005Y-25171D01*
X33615Y-25362D02*
X33386Y-25362D01*
X33500Y-25362D02*
X33500Y-24962D01*
X33462Y-25019D01*
X33424Y-25057D01*
X33386Y-25076D01*
X33984Y-33662D02*
X33850Y-33471D01*
X33755Y-33662D02*
X33755Y-33262D01*
X33908Y-33262D01*
X33946Y-33281D01*
X33965Y-33300D01*
X33984Y-33338D01*
X33984Y-33395D01*
X33965Y-33433D01*
X33946Y-33452D01*
X33908Y-33471D01*
X33755Y-33471D01*
X34117Y-33262D02*
X34365Y-33262D01*
X34231Y-33414D01*
X34289Y-33414D01*
X34327Y-33433D01*
X34346Y-33452D01*
X34365Y-33490D01*
X34365Y-33586D01*
X34346Y-33624D01*
X34327Y-33643D01*
X34289Y-33662D01*
X34174Y-33662D01*
X34136Y-33643D01*
X34117Y-33624D01*
X38512Y-26666D02*
X38321Y-26800D01*
X38512Y-26895D02*
X38112Y-26895D01*
X38112Y-26742D01*
X38131Y-26704D01*
X38150Y-26685D01*
X38188Y-26666D01*
X38245Y-26666D01*
X38283Y-26685D01*
X38302Y-26704D01*
X38321Y-26742D01*
X38321Y-26895D01*
X38245Y-26323D02*
X38512Y-26323D01*
X38093Y-26419D02*
X38379Y-26514D01*
X38379Y-26266D01*
X33884Y-32674D02*
X33865Y-32693D01*
X33808Y-32712D01*
X33770Y-32712D01*
X33712Y-32693D01*
X33674Y-32655D01*
X33655Y-32617D01*
X33636Y-32540D01*
X33636Y-32483D01*
X33655Y-32407D01*
X33674Y-32369D01*
X33712Y-32331D01*
X33770Y-32312D01*
X33808Y-32312D01*
X33865Y-32331D01*
X33884Y-32350D01*
X34227Y-32445D02*
X34227Y-32712D01*
X34131Y-32293D02*
X34036Y-32579D01*
X34284Y-32579D01*
X29924Y-28466D02*
X29943Y-28485D01*
X29962Y-28542D01*
X29962Y-28580D01*
X29943Y-28638D01*
X29905Y-28676D01*
X29867Y-28695D01*
X29790Y-28714D01*
X29733Y-28714D01*
X29657Y-28695D01*
X29619Y-28676D01*
X29581Y-28638D01*
X29562Y-28580D01*
X29562Y-28542D01*
X29581Y-28485D01*
X29600Y-28466D01*
X29562Y-28333D02*
X29562Y-28066D01*
X29962Y-28238D01*
X35924Y-28516D02*
X35943Y-28535D01*
X35962Y-28592D01*
X35962Y-28630D01*
X35943Y-28688D01*
X35905Y-28726D01*
X35867Y-28745D01*
X35790Y-28764D01*
X35733Y-28764D01*
X35657Y-28745D01*
X35619Y-28726D01*
X35581Y-28688D01*
X35562Y-28630D01*
X35562Y-28592D01*
X35581Y-28535D01*
X35600Y-28516D01*
X35962Y-28326D02*
X35962Y-28250D01*
X35943Y-28211D01*
X35924Y-28192D01*
X35867Y-28154D01*
X35790Y-28135D01*
X35638Y-28135D01*
X35600Y-28154D01*
X35581Y-28173D01*
X35562Y-28211D01*
X35562Y-28288D01*
X35581Y-28326D01*
X35600Y-28345D01*
X35638Y-28364D01*
X35733Y-28364D01*
X35771Y-28345D01*
X35790Y-28326D01*
X35810Y-28288D01*
X35810Y-28211D01*
X35790Y-28173D01*
X35771Y-28154D01*
X35733Y-28135D01*
X28174Y-29116D02*
X28193Y-29135D01*
X28212Y-29192D01*
X28212Y-29230D01*
X28193Y-29288D01*
X28155Y-29326D01*
X28117Y-29345D01*
X28040Y-29364D01*
X27983Y-29364D01*
X27907Y-29345D01*
X27869Y-29326D01*
X27831Y-29288D01*
X27812Y-29230D01*
X27812Y-29192D01*
X27831Y-29135D01*
X27850Y-29116D01*
X27812Y-28773D02*
X27812Y-28850D01*
X27831Y-28888D01*
X27850Y-28907D01*
X27907Y-28945D01*
X27983Y-28964D01*
X28136Y-28964D01*
X28174Y-28945D01*
X28193Y-28926D01*
X28212Y-28888D01*
X28212Y-28811D01*
X28193Y-28773D01*
X28174Y-28754D01*
X28136Y-28735D01*
X28040Y-28735D01*
X28002Y-28754D01*
X27983Y-28773D01*
X27964Y-28811D01*
X27964Y-28888D01*
X27983Y-28926D01*
X28002Y-28945D01*
X28040Y-28964D01*
X37574Y-26666D02*
X37593Y-26685D01*
X37612Y-26742D01*
X37612Y-26780D01*
X37593Y-26838D01*
X37555Y-26876D01*
X37517Y-26895D01*
X37440Y-26914D01*
X37383Y-26914D01*
X37307Y-26895D01*
X37269Y-26876D01*
X37231Y-26838D01*
X37212Y-26780D01*
X37212Y-26742D01*
X37231Y-26685D01*
X37250Y-26666D01*
X37383Y-26438D02*
X37364Y-26476D01*
X37345Y-26495D01*
X37307Y-26514D01*
X37288Y-26514D01*
X37250Y-26495D01*
X37231Y-26476D01*
X37212Y-26438D01*
X37212Y-26361D01*
X37231Y-26323D01*
X37250Y-26304D01*
X37288Y-26285D01*
X37307Y-26285D01*
X37345Y-26304D01*
X37364Y-26323D01*
X37383Y-26361D01*
X37383Y-26438D01*
X37402Y-26476D01*
X37421Y-26495D01*
X37460Y-26514D01*
X37536Y-26514D01*
X37574Y-26495D01*
X37593Y-26476D01*
X37612Y-26438D01*
X37612Y-26361D01*
X37593Y-26323D01*
X37574Y-26304D01*
X37536Y-26285D01*
X37460Y-26285D01*
X37421Y-26304D01*
X37402Y-26323D01*
X37383Y-26361D01*
X33234Y-31024D02*
X33215Y-31043D01*
X33158Y-31062D01*
X33120Y-31062D01*
X33062Y-31043D01*
X33024Y-31005D01*
X33005Y-30967D01*
X32986Y-30890D01*
X32986Y-30833D01*
X33005Y-30757D01*
X33024Y-30719D01*
X33062Y-30681D01*
X33120Y-30662D01*
X33158Y-30662D01*
X33215Y-30681D01*
X33234Y-30700D01*
X33596Y-30662D02*
X33405Y-30662D01*
X33386Y-30852D01*
X33405Y-30833D01*
X33443Y-30814D01*
X33539Y-30814D01*
X33577Y-30833D01*
X33596Y-30852D01*
X33615Y-30890D01*
X33615Y-30986D01*
X33596Y-31024D01*
X33577Y-31043D01*
X33539Y-31062D01*
X33443Y-31062D01*
X33405Y-31043D01*
X33386Y-31024D01*
%LPC*%
G54D17*
X30854Y-28943D03*
X30854Y-28628D03*
X30854Y-28313D03*
X30854Y-27998D03*
X30854Y-27683D03*
X30854Y-27368D03*
X30854Y-27053D03*
X30854Y-26738D03*
X34620Y-26740D03*
X34620Y-28950D03*
X34620Y-28630D03*
X34620Y-28310D03*
X34620Y-28000D03*
X34620Y-27680D03*
X34620Y-27370D03*
X34620Y-27050D03*
G54D18*
X31638Y-25950D03*
X31952Y-25950D03*
X32268Y-25950D03*
X32582Y-25950D03*
X32898Y-25950D03*
X33212Y-25950D03*
X33528Y-25950D03*
X33842Y-25950D03*
X31640Y-29730D03*
X31950Y-29730D03*
X32270Y-29730D03*
X32580Y-29730D03*
X32890Y-29730D03*
X33210Y-29730D03*
X33530Y-29730D03*
X33850Y-29730D03*
G54D19*
X33250Y-26850D03*
G54D20*
X32250Y-26850D03*
X33250Y-27850D03*
X32250Y-27850D03*
X33250Y-28850D03*
X32250Y-28850D03*
G54D21*
X27100Y-27426D03*
X27100Y-28174D03*
G54D22*
X32476Y-24500D03*
X33224Y-24500D03*
X32376Y-33500D03*
X33124Y-33500D03*
G54D21*
X38400Y-28224D03*
X38400Y-27476D03*
G54D23*
X30050Y-25150D03*
X35450Y-25150D03*
X30050Y-30550D03*
X35450Y-30550D03*
G54D22*
X32326Y-32550D03*
X33074Y-32550D03*
G54D24*
X30250Y-22250D03*
G54D25*
X31250Y-22250D03*
X32250Y-22250D03*
X33250Y-22250D03*
X34250Y-22250D03*
X35250Y-22250D03*
G54D10*
G36*
X27239Y-25856D02*
X26794Y-25411D01*
X27239Y-24966D01*
X27684Y-25411D01*
X27239Y-25856D01*
X27239Y-25856D01*
G37*
G54D25*
X27946Y-24704D03*
X28654Y-23996D03*
X29361Y-23289D03*
G54D10*
G36*
X38656Y-25411D02*
X38211Y-25856D01*
X37766Y-25411D01*
X38211Y-24966D01*
X38656Y-25411D01*
X38656Y-25411D01*
G37*
G54D25*
X37504Y-24704D03*
X36796Y-23996D03*
X36089Y-23289D03*
G54D26*
X29000Y-27249D03*
X29000Y-28351D03*
X36500Y-28401D03*
X36500Y-27299D03*
G54D21*
X28050Y-27426D03*
X28050Y-28174D03*
X37450Y-28224D03*
X37450Y-27476D03*
G54D27*
X32199Y-31600D03*
X33301Y-31600D03*
G54D28*
X33734Y-35730D03*
X33734Y-35100D03*
X33734Y-34470D03*
X31766Y-34470D03*
X31766Y-35100D03*
X31766Y-35730D03*
G54D29*
X32750Y-34549D03*
X32750Y-35651D03*
G54D10*
G36*
X38601Y-32833D02*
X39074Y-32360D01*
X39381Y-32667D01*
X38908Y-33140D01*
X38601Y-32833D01*
X38601Y-32833D01*
G37*
G36*
X38156Y-32387D02*
X38629Y-31914D01*
X38936Y-32221D01*
X38463Y-32694D01*
X38156Y-32387D01*
X38156Y-32387D01*
G37*
G36*
X37710Y-31942D02*
X38183Y-31469D01*
X38490Y-31776D01*
X38017Y-32249D01*
X37710Y-31942D01*
X37710Y-31942D01*
G37*
G36*
X36319Y-33333D02*
X36792Y-32860D01*
X37099Y-33167D01*
X36626Y-33640D01*
X36319Y-33333D01*
X36319Y-33333D01*
G37*
G36*
X36764Y-33779D02*
X37237Y-33306D01*
X37544Y-33613D01*
X37071Y-34086D01*
X36764Y-33779D01*
X36764Y-33779D01*
G37*
G36*
X37210Y-34224D02*
X37683Y-33751D01*
X37990Y-34058D01*
X37517Y-34531D01*
X37210Y-34224D01*
X37210Y-34224D01*
G37*
G36*
X36805Y-32763D02*
X37613Y-31955D01*
X38115Y-32457D01*
X37307Y-33265D01*
X36805Y-32763D01*
X36805Y-32763D01*
G37*
G36*
X37585Y-33543D02*
X38393Y-32735D01*
X38895Y-33237D01*
X38087Y-34045D01*
X37585Y-33543D01*
X37585Y-33543D01*
G37*
G54D30*
X40630Y-26866D03*
X40000Y-26866D03*
X39370Y-26866D03*
X39370Y-28834D03*
X40000Y-28834D03*
X40630Y-28834D03*
G54D31*
X39449Y-27850D03*
X40551Y-27850D03*
G54D10*
G36*
X37683Y-21999D02*
X37210Y-21526D01*
X37517Y-21219D01*
X37990Y-21692D01*
X37683Y-21999D01*
X37683Y-21999D01*
G37*
G36*
X37237Y-22444D02*
X36764Y-21971D01*
X37071Y-21664D01*
X37544Y-22137D01*
X37237Y-22444D01*
X37237Y-22444D01*
G37*
G36*
X36792Y-22890D02*
X36319Y-22417D01*
X36626Y-22110D01*
X37099Y-22583D01*
X36792Y-22890D01*
X36792Y-22890D01*
G37*
G36*
X38183Y-24281D02*
X37710Y-23808D01*
X38017Y-23501D01*
X38490Y-23974D01*
X38183Y-24281D01*
X38183Y-24281D01*
G37*
G36*
X38629Y-23836D02*
X38156Y-23363D01*
X38463Y-23056D01*
X38936Y-23529D01*
X38629Y-23836D01*
X38629Y-23836D01*
G37*
G36*
X39074Y-23390D02*
X38601Y-22917D01*
X38908Y-22610D01*
X39381Y-23083D01*
X39074Y-23390D01*
X39074Y-23390D01*
G37*
G36*
X37613Y-23795D02*
X36805Y-22987D01*
X37307Y-22485D01*
X38115Y-23293D01*
X37613Y-23795D01*
X37613Y-23795D01*
G37*
G36*
X38393Y-23015D02*
X37585Y-22207D01*
X38087Y-21705D01*
X38895Y-22513D01*
X38393Y-23015D01*
X38393Y-23015D01*
G37*
G54D28*
X31766Y-19970D03*
X31766Y-20600D03*
X31766Y-21230D03*
X33734Y-21230D03*
X33734Y-20600D03*
X33734Y-19970D03*
G54D29*
X32750Y-21151D03*
X32750Y-20049D03*
G54D10*
G36*
X26849Y-22917D02*
X26376Y-23390D01*
X26069Y-23083D01*
X26542Y-22610D01*
X26849Y-22917D01*
X26849Y-22917D01*
G37*
G36*
X27294Y-23363D02*
X26821Y-23836D01*
X26514Y-23529D01*
X26987Y-23056D01*
X27294Y-23363D01*
X27294Y-23363D01*
G37*
G36*
X27740Y-23808D02*
X27267Y-24281D01*
X26960Y-23974D01*
X27433Y-23501D01*
X27740Y-23808D01*
X27740Y-23808D01*
G37*
G36*
X29131Y-22417D02*
X28658Y-22890D01*
X28351Y-22583D01*
X28824Y-22110D01*
X29131Y-22417D01*
X29131Y-22417D01*
G37*
G36*
X28686Y-21971D02*
X28213Y-22444D01*
X27906Y-22137D01*
X28379Y-21664D01*
X28686Y-21971D01*
X28686Y-21971D01*
G37*
G36*
X28240Y-21526D02*
X27767Y-21999D01*
X27460Y-21692D01*
X27933Y-21219D01*
X28240Y-21526D01*
X28240Y-21526D01*
G37*
G36*
X28645Y-22987D02*
X27837Y-23795D01*
X27335Y-23293D01*
X28143Y-22485D01*
X28645Y-22987D01*
X28645Y-22987D01*
G37*
G36*
X27865Y-22207D02*
X27057Y-23015D01*
X26555Y-22513D01*
X27363Y-21705D01*
X27865Y-22207D01*
X27865Y-22207D01*
G37*
G54D30*
X24870Y-28834D03*
X25500Y-28834D03*
X26130Y-28834D03*
X26130Y-26866D03*
X25500Y-26866D03*
X24870Y-26866D03*
G54D31*
X26051Y-27850D03*
X24949Y-27850D03*
G54D10*
G36*
X27817Y-33751D02*
X28290Y-34224D01*
X27983Y-34531D01*
X27510Y-34058D01*
X27817Y-33751D01*
X27817Y-33751D01*
G37*
G36*
X28263Y-33306D02*
X28736Y-33779D01*
X28429Y-34086D01*
X27956Y-33613D01*
X28263Y-33306D01*
X28263Y-33306D01*
G37*
G36*
X28708Y-32860D02*
X29181Y-33333D01*
X28874Y-33640D01*
X28401Y-33167D01*
X28708Y-32860D01*
X28708Y-32860D01*
G37*
G36*
X27317Y-31469D02*
X27790Y-31942D01*
X27483Y-32249D01*
X27010Y-31776D01*
X27317Y-31469D01*
X27317Y-31469D01*
G37*
G36*
X26871Y-31914D02*
X27344Y-32387D01*
X27037Y-32694D01*
X26564Y-32221D01*
X26871Y-31914D01*
X26871Y-31914D01*
G37*
G36*
X26426Y-32360D02*
X26899Y-32833D01*
X26592Y-33140D01*
X26119Y-32667D01*
X26426Y-32360D01*
X26426Y-32360D01*
G37*
G36*
X27887Y-31955D02*
X28695Y-32763D01*
X28193Y-33265D01*
X27385Y-32457D01*
X27887Y-31955D01*
X27887Y-31955D01*
G37*
G36*
X27107Y-32735D02*
X27915Y-33543D01*
X27413Y-34045D01*
X26605Y-33237D01*
X27107Y-32735D01*
X27107Y-32735D01*
G37*
M02*
