M48
INCH,TZ
T1C0.025
T2C0.032
T3C0.040
%
G05
T1
X26460Y-24974
X26687Y-26326
X27167Y-27806
X27405Y-28485
X27878Y-27699
X28231Y-30139
X28477Y-32027
X28530Y-31179
X28660Y-23157
X28767Y-24872
X28815Y-32641
X29644Y-24141
X29859Y-27278
X29969Y-30155
X30018Y-32180
X30105Y-23602
X30452Y-25123
X31034Y-26370
X31074Y-34470
X31328Y-30574
X31818Y-28803
X31938Y-26927
X32015Y-30481
X32563Y-27776
X32917Y-28979
X34226Y-29812
X34409Y-35217
X34538Y-32583
X35420Y-30014
X35617Y-32833
X36255Y-33787
X37832Y-29852
X38447Y-27375
X38447Y-28885
X40050Y-26079
T2
X29295Y-25400
X29295Y-26400
X29295Y-27400
X29295Y-28400
X29295Y-29400
X29295Y-30400
X30300Y-24400
X31300Y-24400
X31800Y-33400
X32300Y-24400
X32800Y-33400
X33300Y-24400
X33800Y-33400
X34300Y-24400
X35300Y-24400
X36300Y-25400
X36300Y-26400
X36300Y-27400
X36300Y-28400
X36300Y-29400
X36300Y-30400
T3
X31800Y-31100
X31800Y-32100
X32800Y-31100
X32800Y-32100
X33800Y-31100
X33800Y-32100
T0
M30
