M48
INCH,TZ
T1C0.025
T2C0.032
T3C0.040
%
G05
T1
X2.612Y-2.408
X2.659Y-2.951
X2.714Y-2.790
X2.962Y-3.355
X3.015Y-2.208
X3.019Y-2.873
X3.026Y-2.968
X3.115Y-2.147
X3.125Y-3.034
X3.201Y-2.903
X3.230Y-2.835
X3.289Y-2.731
X3.326Y-2.835
X3.353Y-2.884
X3.370Y-2.677
X3.405Y-2.733
X3.478Y-2.636
X3.486Y-3.448
X3.490Y-3.320
X3.518Y-2.054
X3.525Y-2.995
X3.566Y-2.168
X3.602Y-2.214
X3.616Y-3.292
X3.662Y-2.170
X3.933Y-3.158
X4.000Y-2.644
T2
X2.929Y-2.540
X2.929Y-2.640
X2.929Y-2.740
X2.929Y-2.840
X2.929Y-2.940
X2.929Y-3.040
X3.030Y-2.440
X3.130Y-2.440
X3.230Y-2.440
X3.330Y-2.440
X3.430Y-2.440
X3.530Y-2.440
X3.630Y-2.540
X3.630Y-2.640
X3.630Y-2.740
X3.630Y-2.840
X3.630Y-2.940
X3.630Y-3.040
T3
X3.190Y-3.134
X3.190Y-3.234
X3.290Y-3.134
X3.290Y-3.234
X3.390Y-3.134
X3.390Y-3.234
T0
M30
