G04 (created by PCBNEW-RS274X (2012-jan-04)-stable) date Thu 24 May 2012 09:19:05 PM CEST*
G01*
G70*
G90*
%MOIN*%
G04 Gerber Fmt 3.4, Leading zero omitted, Abs format*
%FSLAX34Y34*%
G04 APERTURE LIST*
%ADD10C,0.006000*%
%ADD11C,0.016000*%
%ADD12C,0.165400*%
%ADD13R,0.055000X0.055000*%
%ADD14C,0.055000*%
%ADD15R,0.060000X0.060000*%
%ADD16C,0.060000*%
%ADD17R,0.023600X0.086600*%
%ADD18R,0.086600X0.023600*%
%ADD19R,0.051100X0.059000*%
%ADD20R,0.062900X0.070800*%
%ADD21R,0.047200X0.047200*%
%ADD22R,0.059100X0.063000*%
%ADD23R,0.063000X0.059100*%
%ADD24C,0.025000*%
%ADD25C,0.035000*%
%ADD26C,0.008000*%
%ADD27C,0.016000*%
G04 APERTURE END LIST*
G54D10*
G54D11*
X38900Y-34000D03*
X39100Y-33800D03*
X38700Y-34200D03*
X26800Y-21500D03*
X26400Y-21900D03*
X26600Y-21700D03*
X26400Y-33800D03*
X26800Y-34200D03*
X26600Y-34000D03*
X39100Y-21900D03*
X38900Y-21700D03*
X38700Y-21500D03*
G54D12*
X35450Y-25150D03*
G54D13*
X33750Y-23250D03*
G54D14*
X32750Y-23250D03*
X31750Y-23250D03*
G54D12*
X35450Y-30550D03*
X30050Y-25150D03*
X30050Y-30550D03*
G54D15*
X33250Y-26850D03*
G54D16*
X32250Y-26850D03*
X33250Y-27850D03*
X32250Y-27850D03*
X33250Y-28850D03*
X32250Y-28850D03*
G54D17*
X36650Y-26827D03*
X37150Y-26827D03*
X37650Y-26827D03*
X38150Y-26827D03*
X38650Y-26827D03*
X39150Y-26827D03*
X39650Y-26827D03*
X40150Y-26827D03*
X40150Y-28873D03*
X39650Y-28873D03*
X39150Y-28873D03*
X38650Y-28873D03*
X38150Y-28873D03*
X37650Y-28873D03*
X37150Y-28873D03*
X36650Y-28873D03*
X28800Y-28873D03*
X28300Y-28873D03*
X27800Y-28873D03*
X27300Y-28873D03*
X26800Y-28873D03*
X26300Y-28873D03*
X25800Y-28873D03*
X25300Y-28873D03*
X25300Y-26827D03*
X25800Y-26827D03*
X26300Y-26827D03*
X26800Y-26827D03*
X27300Y-26827D03*
X27800Y-26827D03*
X28300Y-26827D03*
X28800Y-26827D03*
G54D18*
X33773Y-31800D03*
X33773Y-32300D03*
X33773Y-32800D03*
X33773Y-33300D03*
X33773Y-33800D03*
X33773Y-34300D03*
X33773Y-34800D03*
X33773Y-35300D03*
X31727Y-35300D03*
X31727Y-34800D03*
X31727Y-34300D03*
X31727Y-33800D03*
X31727Y-33300D03*
X31727Y-32800D03*
X31727Y-32300D03*
X31727Y-31800D03*
G54D10*
G36*
X27414Y-33703D02*
X26997Y-33286D01*
X27358Y-32925D01*
X27775Y-33342D01*
X27414Y-33703D01*
X27414Y-33703D01*
G37*
G36*
X27942Y-33175D02*
X27525Y-32758D01*
X27886Y-32397D01*
X28303Y-32814D01*
X27942Y-33175D01*
X27942Y-33175D01*
G37*
G54D19*
X32376Y-25100D03*
X33124Y-25100D03*
G54D20*
X32199Y-24150D03*
X33301Y-24150D03*
G54D19*
X32376Y-20000D03*
X33124Y-20000D03*
G54D21*
X32041Y-30844D03*
X32041Y-30056D03*
G54D22*
X33321Y-30450D03*
G54D21*
X34906Y-27141D03*
X35694Y-27141D03*
G54D23*
X35300Y-28421D03*
G54D21*
X29756Y-27141D03*
X30544Y-27141D03*
G54D23*
X30150Y-28421D03*
G54D13*
X30250Y-22250D03*
G54D14*
X31250Y-22250D03*
X32250Y-22250D03*
X33250Y-22250D03*
X34250Y-22250D03*
X35250Y-22250D03*
G54D10*
G36*
X27239Y-25800D02*
X26850Y-25411D01*
X27239Y-25022D01*
X27628Y-25411D01*
X27239Y-25800D01*
X27239Y-25800D01*
G37*
G54D14*
X27946Y-24704D03*
X28654Y-23996D03*
X29361Y-23289D03*
G54D10*
G36*
X38600Y-25411D02*
X38211Y-25800D01*
X37822Y-25411D01*
X38211Y-25022D01*
X38600Y-25411D01*
X38600Y-25411D01*
G37*
G54D14*
X37504Y-24704D03*
X36796Y-23996D03*
X36089Y-23289D03*
G54D24*
X34445Y-20567D03*
X31466Y-25370D03*
X38132Y-30133D03*
X36188Y-29129D03*
X36760Y-30133D03*
X34450Y-34154D03*
X35633Y-33243D03*
X39956Y-27532D03*
X39450Y-31700D03*
X37055Y-21190D03*
X38666Y-31102D03*
X34674Y-21668D03*
X33642Y-21804D03*
X34829Y-20570D03*
X25756Y-24123D03*
X25481Y-29756D03*
X26808Y-29756D03*
X27657Y-30624D03*
X30826Y-33019D03*
X34955Y-34270D03*
X38987Y-29995D03*
X39650Y-26198D03*
X37565Y-22517D03*
X31329Y-20914D03*
X27934Y-22479D03*
X25538Y-28295D03*
X31137Y-34028D03*
X34427Y-35436D03*
X39357Y-32417D03*
X38897Y-25858D03*
X36557Y-21277D03*
X28683Y-21483D03*
X26771Y-24111D03*
X26022Y-29467D03*
X29555Y-33497D03*
X30320Y-26505D03*
X30630Y-29644D03*
X34005Y-30763D03*
X26913Y-31651D03*
X27964Y-30043D03*
X34005Y-31432D03*
X38125Y-29592D03*
X31190Y-20445D03*
X30720Y-21919D03*
X31298Y-23948D03*
X31009Y-24559D03*
X31380Y-24965D03*
X31847Y-26539D03*
X30173Y-21638D03*
X27284Y-30214D03*
X39983Y-29884D03*
X38672Y-31421D03*
X26351Y-25580D03*
X35132Y-21742D03*
X40382Y-29480D03*
X39014Y-25410D03*
X36726Y-34604D03*
X39146Y-31895D03*
X29354Y-32118D03*
G54D25*
X36939Y-24887D03*
X36879Y-26154D03*
G54D24*
X35902Y-27875D03*
X31603Y-31139D03*
X30017Y-27602D03*
X37650Y-29566D03*
X29695Y-29395D03*
G54D25*
X26220Y-32265D03*
X35755Y-22669D03*
G54D10*
X33878Y-20000D02*
X34445Y-20567D01*
X33124Y-20000D02*
X33878Y-20000D01*
X31380Y-23549D02*
X31380Y-23100D01*
X33750Y-23250D02*
X33382Y-23250D01*
X33014Y-22882D02*
X33382Y-23250D01*
X31598Y-22882D02*
X33014Y-22882D01*
X31466Y-25370D02*
X31639Y-25197D01*
X31639Y-25197D02*
X31639Y-23808D01*
X31380Y-23100D02*
X31598Y-22882D01*
X31639Y-23808D02*
X31380Y-23549D01*
X30345Y-32801D02*
X27300Y-29756D01*
X30924Y-32801D02*
X30345Y-32801D01*
X33247Y-33300D02*
X33036Y-33511D01*
X36760Y-30133D02*
X36760Y-29701D01*
X36760Y-29701D02*
X36188Y-29129D01*
X38361Y-29904D02*
X38361Y-27564D01*
X33036Y-33511D02*
X31232Y-33511D01*
X27300Y-29756D02*
X27300Y-28873D01*
X38361Y-27564D02*
X38150Y-27353D01*
X38132Y-30133D02*
X38361Y-29904D01*
X33773Y-33300D02*
X33247Y-33300D01*
X31052Y-32929D02*
X30924Y-32801D01*
X31232Y-33511D02*
X31052Y-33331D01*
X38132Y-30133D02*
X34965Y-33300D01*
X34965Y-33300D02*
X33773Y-33300D01*
X31052Y-33331D02*
X31052Y-32929D01*
X38150Y-26827D02*
X38150Y-27353D01*
X33773Y-32300D02*
X33247Y-32300D01*
X31688Y-28412D02*
X32250Y-27850D01*
X33711Y-31034D02*
X33711Y-30057D01*
X33247Y-32300D02*
X33247Y-31498D01*
X32960Y-29306D02*
X32139Y-29306D01*
X31688Y-28855D02*
X31688Y-28412D01*
X32139Y-29306D02*
X31688Y-28855D01*
X33247Y-31498D02*
X33711Y-31034D01*
X33711Y-30057D02*
X32960Y-29306D01*
G54D26*
X34450Y-34154D02*
X34309Y-34013D01*
X34309Y-34013D02*
X34309Y-33800D01*
X33773Y-33800D02*
X34309Y-33800D01*
X34678Y-34198D02*
X35633Y-33243D01*
X34678Y-34249D02*
X34678Y-34198D01*
X33855Y-34382D02*
X34545Y-34382D01*
X34545Y-34382D02*
X34678Y-34249D01*
X33773Y-34300D02*
X33855Y-34382D01*
X39905Y-27583D02*
X39956Y-27532D01*
X39905Y-29446D02*
X39905Y-27583D01*
X34807Y-34800D02*
X37682Y-31925D01*
X37682Y-31925D02*
X37682Y-31669D01*
X37682Y-31669D02*
X39905Y-29446D01*
X33773Y-34800D02*
X34807Y-34800D01*
X40754Y-30082D02*
X40754Y-25812D01*
X34628Y-35182D02*
X33891Y-35182D01*
X33891Y-35182D02*
X33773Y-35300D01*
X37825Y-31943D02*
X37825Y-31985D01*
X39450Y-31700D02*
X40754Y-30082D01*
X40341Y-25399D02*
X40341Y-24476D01*
X38666Y-31102D02*
X37825Y-31943D01*
X37825Y-31985D02*
X34628Y-35182D01*
X40754Y-25812D02*
X40341Y-25399D01*
X40341Y-24476D02*
X37055Y-21190D01*
X36785Y-21247D02*
X36785Y-21094D01*
X36261Y-20570D02*
X34829Y-20570D01*
X31727Y-35300D02*
X32263Y-35300D01*
X36785Y-21094D02*
X36261Y-20570D01*
X37011Y-21418D02*
X36956Y-21418D01*
X40197Y-25458D02*
X40197Y-24604D01*
X40611Y-29889D02*
X40611Y-25872D01*
X40611Y-25872D02*
X40197Y-25458D01*
X40197Y-24604D02*
X37011Y-21418D01*
X34979Y-35521D02*
X40611Y-29889D01*
X32263Y-35300D02*
X32627Y-35664D01*
X34653Y-35664D02*
X34796Y-35521D01*
X34796Y-35521D02*
X34979Y-35521D01*
X32627Y-35664D02*
X34653Y-35664D01*
X36956Y-21418D02*
X36785Y-21247D01*
X33778Y-21668D02*
X34674Y-21668D01*
X33642Y-21804D02*
X33778Y-21668D01*
X24683Y-28958D02*
X25481Y-29756D01*
X24683Y-26334D02*
X24683Y-28958D01*
X25008Y-26009D02*
X24683Y-26334D01*
X25008Y-24871D02*
X25008Y-26009D01*
X25756Y-24123D02*
X25008Y-24871D01*
X30614Y-34800D02*
X31727Y-34800D01*
X30486Y-34672D02*
X30614Y-34800D01*
X26808Y-29756D02*
X26808Y-30419D01*
X26808Y-30419D02*
X30486Y-34097D01*
X30486Y-34097D02*
X30486Y-34672D01*
X30785Y-34077D02*
X30785Y-33890D01*
X31008Y-34300D02*
X30785Y-34077D01*
X27657Y-30762D02*
X27657Y-30624D01*
X30785Y-33890D02*
X27657Y-30762D01*
X31727Y-34300D02*
X31008Y-34300D01*
X31727Y-33800D02*
X31191Y-33800D01*
X30826Y-33435D02*
X30826Y-33019D01*
X31191Y-33800D02*
X30826Y-33435D01*
X38650Y-27969D02*
X38650Y-26827D01*
X38871Y-28190D02*
X38650Y-27969D01*
X38871Y-29723D02*
X38871Y-28190D01*
X38758Y-29836D02*
X38871Y-29723D01*
X38758Y-30039D02*
X38758Y-29836D01*
X37539Y-31258D02*
X38758Y-30039D01*
X37539Y-31686D02*
X37539Y-31258D01*
X34955Y-34270D02*
X37539Y-31686D01*
X39417Y-29565D02*
X38987Y-29995D01*
X39417Y-28236D02*
X39417Y-29565D01*
X39150Y-27969D02*
X39417Y-28236D01*
X39150Y-26827D02*
X39150Y-27969D01*
X39650Y-26827D02*
X39650Y-26198D01*
X40150Y-26827D02*
X40150Y-26291D01*
X39911Y-24863D02*
X37565Y-22517D01*
X39911Y-26052D02*
X39911Y-24863D01*
X40150Y-26291D02*
X39911Y-26052D01*
X35691Y-20941D02*
X31356Y-20941D01*
X36398Y-21648D02*
X35691Y-20941D01*
X37021Y-21648D02*
X36398Y-21648D01*
X40054Y-24681D02*
X37021Y-21648D01*
X40054Y-25518D02*
X40054Y-24681D01*
X40388Y-25852D02*
X40054Y-25518D01*
X40388Y-28099D02*
X40388Y-25852D01*
X40150Y-28337D02*
X40388Y-28099D01*
X31356Y-20941D02*
X31329Y-20914D01*
X40150Y-28873D02*
X40150Y-28337D01*
X39748Y-25372D02*
X39748Y-25598D01*
X39650Y-28167D02*
X39650Y-28873D01*
X35520Y-21144D02*
X39748Y-25372D01*
X39417Y-25929D02*
X39417Y-27934D01*
X39748Y-25598D02*
X39417Y-25929D01*
X39417Y-27934D02*
X39650Y-28167D01*
X29600Y-21100D02*
X30436Y-21100D01*
X30480Y-21144D02*
X35520Y-21144D01*
X30436Y-21100D02*
X30480Y-21144D01*
X28221Y-22479D02*
X29600Y-21100D01*
X27934Y-22479D02*
X28221Y-22479D01*
X35461Y-21288D02*
X39549Y-25376D01*
X27028Y-23882D02*
X29666Y-21244D01*
X30306Y-21244D02*
X30350Y-21288D01*
X29666Y-21244D02*
X30306Y-21244D01*
X25538Y-28295D02*
X25538Y-26161D01*
X25538Y-26161D02*
X25580Y-26119D01*
X25580Y-26119D02*
X25580Y-25456D01*
X30350Y-21288D02*
X35461Y-21288D01*
X25580Y-25456D02*
X26527Y-24509D01*
X39549Y-25376D02*
X39549Y-25562D01*
X39549Y-25562D02*
X38928Y-26183D01*
X38928Y-26183D02*
X38928Y-27950D01*
X38928Y-27950D02*
X39150Y-28172D01*
X39150Y-28172D02*
X39150Y-28873D01*
X26527Y-23904D02*
X26549Y-23882D01*
X26527Y-24509D02*
X26527Y-23904D01*
X26549Y-23882D02*
X27028Y-23882D01*
X32708Y-34028D02*
X31137Y-34028D01*
X34979Y-33550D02*
X33186Y-33550D01*
X38650Y-28873D02*
X38650Y-29409D01*
X35515Y-33014D02*
X34979Y-33550D01*
X38503Y-30091D02*
X35580Y-33014D01*
X35580Y-33014D02*
X35515Y-33014D01*
X38503Y-29556D02*
X38503Y-30091D01*
X38650Y-29409D02*
X38503Y-29556D01*
X33186Y-33550D02*
X32708Y-34028D01*
X34342Y-35521D02*
X33227Y-35521D01*
X27036Y-29645D02*
X26800Y-29409D01*
X27036Y-30382D02*
X27036Y-29645D01*
X30642Y-33988D02*
X27036Y-30382D01*
X30642Y-34153D02*
X30642Y-33988D01*
X32256Y-34550D02*
X31039Y-34550D01*
X33227Y-35521D02*
X32256Y-34550D01*
X34427Y-35436D02*
X34342Y-35521D01*
X26800Y-28873D02*
X26800Y-29409D01*
X31039Y-34550D02*
X30642Y-34153D01*
X36941Y-34833D02*
X39357Y-32417D01*
X34855Y-35665D02*
X35408Y-35665D01*
X35408Y-35665D02*
X36240Y-34833D01*
X36240Y-34833D02*
X36941Y-34833D01*
X34713Y-35807D02*
X34855Y-35665D01*
X31048Y-35807D02*
X34713Y-35807D01*
X29144Y-33903D02*
X31048Y-35807D01*
X29144Y-33451D02*
X29144Y-33903D01*
X26300Y-28873D02*
X26300Y-30607D01*
X26300Y-30607D02*
X29144Y-33451D01*
X26078Y-25364D02*
X30043Y-21399D01*
X25800Y-27534D02*
X26078Y-27256D01*
X25800Y-28873D02*
X25800Y-27534D01*
X30291Y-21432D02*
X35381Y-21432D01*
X30043Y-21399D02*
X30258Y-21399D01*
X30258Y-21399D02*
X30291Y-21432D01*
X26078Y-27256D02*
X26078Y-25364D01*
X35381Y-21432D02*
X39262Y-25313D01*
X39262Y-25313D02*
X39262Y-25493D01*
X39262Y-25493D02*
X38897Y-25858D01*
X25294Y-25999D02*
X25294Y-25133D01*
X36078Y-20798D02*
X36557Y-21277D01*
X33735Y-20685D02*
X33848Y-20798D01*
X26053Y-24374D02*
X26053Y-23786D01*
X26053Y-23786D02*
X29154Y-20685D01*
X29154Y-20685D02*
X33735Y-20685D01*
X25294Y-25133D02*
X26053Y-24374D01*
X33848Y-20798D02*
X36078Y-20798D01*
X25300Y-28873D02*
X25300Y-28337D01*
X25079Y-26214D02*
X25294Y-25999D01*
X25300Y-28337D02*
X25079Y-28116D01*
X25079Y-28116D02*
X25079Y-26214D01*
X26339Y-23703D02*
X28559Y-21483D01*
X28559Y-21483D02*
X28683Y-21483D01*
X26339Y-24494D02*
X26339Y-23703D01*
X25437Y-25396D02*
X26339Y-24494D01*
X25437Y-26059D02*
X25437Y-25396D01*
X25300Y-26196D02*
X25437Y-26059D01*
X25300Y-26827D02*
X25300Y-26196D01*
X26771Y-24468D02*
X26771Y-24111D01*
X25800Y-25439D02*
X26771Y-24468D01*
X25800Y-26291D02*
X25800Y-25439D01*
X25800Y-26827D02*
X25800Y-26291D01*
X26022Y-27938D02*
X26022Y-29467D01*
X26300Y-26827D02*
X26300Y-27660D01*
X26300Y-27660D02*
X26022Y-27938D01*
X26800Y-26827D02*
X26800Y-27363D01*
X26579Y-30521D02*
X29555Y-33497D01*
X26579Y-27584D02*
X26579Y-30521D01*
X26800Y-27363D02*
X26579Y-27584D01*
G54D10*
X28576Y-27337D02*
X28576Y-26380D01*
X31201Y-32905D02*
X30974Y-32678D01*
X38150Y-29567D02*
X38150Y-28873D01*
X30599Y-32678D02*
X27964Y-30043D01*
X27331Y-27353D02*
X27964Y-27986D01*
X27588Y-28362D02*
X27964Y-27986D01*
X28972Y-27986D02*
X30630Y-29644D01*
X31201Y-33300D02*
X31201Y-32905D01*
X27964Y-30043D02*
X27588Y-29667D01*
X27300Y-26827D02*
X27300Y-27353D01*
X27914Y-32786D02*
X26913Y-31785D01*
X27964Y-27986D02*
X28076Y-27986D01*
X26913Y-31785D02*
X26913Y-31651D01*
X27588Y-29667D02*
X27588Y-28362D01*
X34005Y-30763D02*
X34005Y-31432D01*
X31727Y-33300D02*
X31201Y-33300D01*
X28092Y-26300D02*
X28076Y-26316D01*
X30320Y-26505D02*
X29734Y-26505D01*
X27300Y-27353D02*
X27331Y-27353D01*
X30974Y-32678D02*
X30599Y-32678D01*
X28957Y-27353D02*
X28592Y-27353D01*
X29412Y-26898D02*
X28957Y-27353D01*
X28592Y-27353D02*
X28576Y-27337D01*
X28076Y-26316D02*
X28076Y-27986D01*
X29412Y-26827D02*
X29412Y-26898D01*
X28576Y-26380D02*
X28496Y-26300D01*
X28076Y-27986D02*
X28972Y-27986D01*
X29734Y-26505D02*
X29412Y-26827D01*
X28496Y-26300D02*
X28092Y-26300D01*
X38125Y-29592D02*
X38150Y-29567D01*
X33321Y-30450D02*
X32933Y-30450D01*
X32041Y-30844D02*
X32041Y-31173D01*
X32253Y-31385D02*
X32041Y-31173D01*
X32253Y-32300D02*
X32253Y-31385D01*
X32041Y-30844D02*
X32539Y-30844D01*
X31727Y-32300D02*
X32253Y-32300D01*
X32539Y-30844D02*
X32933Y-30450D01*
X37150Y-28873D02*
X37150Y-28347D01*
X37150Y-28347D02*
X35300Y-28347D01*
X34906Y-27953D02*
X35300Y-28347D01*
X34906Y-27141D02*
X34906Y-27953D01*
X35300Y-28421D02*
X35300Y-28347D01*
X29756Y-27476D02*
X29756Y-27141D01*
X29756Y-28027D02*
X29756Y-27476D01*
X29762Y-28033D02*
X29756Y-28027D01*
X30150Y-28033D02*
X29762Y-28033D01*
X28423Y-27476D02*
X29756Y-27476D01*
X28300Y-27353D02*
X28423Y-27476D01*
X30150Y-28421D02*
X30150Y-28033D01*
X28300Y-26827D02*
X28300Y-27353D01*
X30720Y-23370D02*
X31298Y-23948D01*
X31009Y-24237D02*
X31009Y-24559D01*
X31583Y-20445D02*
X31190Y-20445D01*
X32376Y-20000D02*
X32028Y-20000D01*
X32028Y-20000D02*
X31583Y-20445D01*
X31298Y-23948D02*
X31009Y-24237D01*
X30720Y-21919D02*
X30720Y-23370D01*
X31638Y-22669D02*
X32831Y-22669D01*
X31516Y-23858D02*
X31257Y-23599D01*
X32831Y-22669D02*
X33250Y-22250D01*
X31257Y-23050D02*
X31638Y-22669D01*
X31516Y-24829D02*
X31516Y-23858D01*
X31257Y-23599D02*
X31257Y-23050D01*
X31380Y-24965D02*
X31516Y-24829D01*
X27800Y-29571D02*
X27800Y-28873D01*
X33773Y-32800D02*
X33247Y-32800D01*
X37650Y-26827D02*
X37650Y-27353D01*
X37362Y-27641D02*
X37650Y-27353D01*
X37362Y-30011D02*
X37362Y-27641D01*
X36789Y-30584D02*
X37362Y-30011D01*
X33613Y-27850D02*
X33250Y-27850D01*
X35229Y-29466D02*
X33613Y-27850D01*
X34573Y-32800D02*
X33773Y-32800D01*
X36789Y-30584D02*
X34573Y-32800D01*
X28182Y-29953D02*
X27800Y-29571D01*
X28182Y-29993D02*
X28182Y-29953D01*
X30744Y-32555D02*
X28182Y-29993D01*
X33002Y-32555D02*
X30744Y-32555D01*
X33247Y-32800D02*
X33002Y-32555D01*
X36789Y-30584D02*
X35670Y-29466D01*
X35670Y-29466D02*
X35229Y-29466D01*
X35670Y-26240D02*
X32146Y-26240D01*
X36431Y-25479D02*
X35670Y-26240D01*
X36431Y-24587D02*
X36431Y-25479D01*
X34250Y-22406D02*
X36431Y-24587D01*
X34250Y-22250D02*
X34250Y-22406D01*
X32146Y-26240D02*
X31847Y-26539D01*
X35346Y-21742D02*
X39014Y-25410D01*
X35132Y-21742D02*
X35346Y-21742D01*
X28992Y-22819D02*
X30173Y-21638D01*
X28992Y-23532D02*
X28992Y-22819D01*
X29118Y-23658D02*
X28992Y-23532D01*
X29118Y-24056D02*
X29118Y-23658D01*
X27045Y-26129D02*
X29118Y-24056D01*
X27045Y-29372D02*
X27045Y-26129D01*
X27169Y-29496D02*
X27045Y-29372D01*
X27169Y-30099D02*
X27169Y-29496D01*
X27284Y-30214D02*
X27169Y-30099D01*
X26900Y-26129D02*
X26351Y-25580D01*
X27045Y-26129D02*
X26900Y-26129D01*
X27555Y-30214D02*
X27284Y-30214D01*
X29354Y-32013D02*
X27555Y-30214D01*
X29354Y-32118D02*
X29354Y-32013D01*
X34689Y-22020D02*
X34550Y-21881D01*
X33169Y-21638D02*
X30173Y-21638D01*
X33553Y-22022D02*
X33169Y-21638D01*
X33732Y-22022D02*
X33553Y-22022D01*
X33873Y-21881D02*
X33732Y-22022D01*
X34550Y-21881D02*
X33873Y-21881D01*
X35132Y-21742D02*
X34854Y-22020D01*
X39146Y-32184D02*
X39146Y-31895D01*
X40382Y-29480D02*
X40382Y-29485D01*
X39983Y-29884D02*
X39983Y-30110D01*
X39983Y-30110D02*
X38672Y-31421D01*
X40382Y-29485D02*
X39983Y-29884D01*
X34854Y-22020D02*
X34689Y-22020D01*
X36726Y-34604D02*
X39146Y-32184D01*
G54D27*
X30050Y-30550D02*
X30132Y-30550D01*
X28800Y-28873D02*
X28800Y-29449D01*
X30924Y-29758D02*
X30924Y-25834D01*
X30050Y-30550D02*
X28949Y-29449D01*
X28949Y-29449D02*
X28800Y-29449D01*
X36650Y-26251D02*
X36673Y-26251D01*
X36650Y-26827D02*
X36650Y-26251D01*
X33586Y-28350D02*
X32750Y-28350D01*
X30132Y-30550D02*
X30924Y-29758D01*
X34349Y-31800D02*
X34349Y-30550D01*
X34349Y-29113D02*
X33586Y-28350D01*
X33773Y-31800D02*
X34349Y-31800D01*
X30250Y-24950D02*
X30050Y-25150D01*
X30250Y-22250D02*
X30250Y-24950D01*
X33301Y-24150D02*
X33301Y-23653D01*
X33301Y-24150D02*
X33301Y-24647D01*
X34349Y-30550D02*
X34349Y-29113D01*
X32828Y-25834D02*
X33124Y-25538D01*
X30924Y-25834D02*
X32828Y-25834D01*
X32750Y-28350D02*
X32250Y-28850D01*
X30734Y-25834D02*
X30924Y-25834D01*
X30050Y-25150D02*
X30734Y-25834D01*
X33124Y-24824D02*
X33301Y-24647D01*
X33124Y-25100D02*
X33124Y-24824D01*
X33301Y-24150D02*
X34450Y-24150D01*
X33153Y-23653D02*
X32750Y-23250D01*
X36673Y-26251D02*
X36673Y-26276D01*
X33301Y-23653D02*
X33153Y-23653D01*
X34450Y-24150D02*
X35450Y-25150D01*
X33124Y-25538D02*
X33124Y-25100D01*
X36747Y-26286D02*
X36879Y-26154D01*
X36683Y-26286D02*
X36747Y-26286D01*
X36673Y-26276D02*
X36683Y-26286D01*
X36939Y-25985D02*
X36673Y-26251D01*
X36939Y-24887D02*
X36939Y-25985D01*
X35450Y-30550D02*
X34349Y-30550D01*
G54D10*
X35694Y-27141D02*
X35694Y-27667D01*
X35694Y-27667D02*
X35902Y-27875D01*
X31603Y-30494D02*
X31603Y-31139D01*
X32041Y-30385D02*
X31712Y-30385D01*
X31712Y-30385D02*
X31603Y-30494D01*
X32041Y-30056D02*
X32041Y-30385D01*
X30215Y-27404D02*
X30017Y-27602D01*
X30215Y-27141D02*
X30215Y-27404D01*
X30544Y-27141D02*
X30215Y-27141D01*
X37868Y-26317D02*
X37852Y-26301D01*
X34538Y-33011D02*
X37868Y-29681D01*
X32253Y-32800D02*
X32464Y-33011D01*
X37150Y-26827D02*
X37150Y-26301D01*
X31727Y-32800D02*
X32253Y-32800D01*
X37852Y-26301D02*
X37150Y-26301D01*
X37868Y-29681D02*
X37868Y-26317D01*
X32464Y-33011D02*
X34538Y-33011D01*
X28300Y-28347D02*
X28957Y-28347D01*
X28300Y-28873D02*
X28300Y-28347D01*
X37650Y-28873D02*
X37650Y-29566D01*
X29695Y-29085D02*
X29695Y-29395D01*
X28957Y-28347D02*
X29695Y-29085D01*
G54D27*
X34571Y-26761D02*
X35757Y-26761D01*
X36605Y-24401D02*
X35346Y-23142D01*
X35757Y-26761D02*
X36605Y-25913D01*
X35346Y-23142D02*
X35346Y-23078D01*
X36605Y-25913D02*
X36605Y-24401D01*
X34526Y-26806D02*
X34571Y-26761D01*
X35346Y-23078D02*
X35755Y-22669D01*
X34526Y-27294D02*
X34526Y-26806D01*
X32153Y-23653D02*
X31750Y-23250D01*
X32199Y-23653D02*
X32153Y-23653D01*
X31727Y-31800D02*
X31151Y-31800D01*
X29361Y-24269D02*
X29361Y-23289D01*
X28800Y-26827D02*
X28800Y-24830D01*
X32199Y-24485D02*
X32376Y-24662D01*
X31151Y-27949D02*
X32250Y-26850D01*
X31151Y-31800D02*
X31151Y-27949D01*
X36650Y-28873D02*
X36638Y-28861D01*
X34526Y-27294D02*
X32694Y-27294D01*
X28800Y-24830D02*
X29361Y-24269D01*
X32694Y-27294D02*
X32250Y-26850D01*
X34526Y-28513D02*
X34526Y-27294D01*
X34874Y-28861D02*
X34526Y-28513D01*
X36638Y-28861D02*
X34874Y-28861D01*
X32199Y-24150D02*
X32199Y-24485D01*
X26337Y-32265D02*
X26220Y-32265D01*
X27386Y-33314D02*
X26337Y-32265D01*
X32376Y-25100D02*
X32376Y-24662D01*
X32199Y-24150D02*
X32199Y-23653D01*
G54D10*
G36*
X24838Y-25938D02*
X24563Y-26214D01*
X24556Y-26221D01*
X24606Y-25972D01*
X24838Y-25204D01*
X24838Y-25938D01*
X24838Y-25938D01*
G37*
X24838Y-25938D02*
X24563Y-26214D01*
X24556Y-26221D01*
X24606Y-25972D01*
X24838Y-25204D01*
X24838Y-25938D01*
G36*
X25081Y-28358D02*
X25068Y-28379D01*
X25058Y-28402D01*
X25053Y-28427D01*
X25053Y-28452D01*
X25053Y-29087D01*
X24853Y-28887D01*
X24853Y-26404D01*
X24909Y-26348D01*
X24909Y-28115D01*
X24909Y-28116D01*
X24912Y-28149D01*
X24917Y-28167D01*
X24921Y-28179D01*
X24921Y-28180D01*
X24922Y-28181D01*
X24937Y-28210D01*
X24953Y-28230D01*
X24957Y-28235D01*
X24958Y-28236D01*
X24959Y-28236D01*
X24963Y-28240D01*
X25081Y-28358D01*
X25081Y-28358D01*
G37*
X25081Y-28358D02*
X25068Y-28379D01*
X25058Y-28402D01*
X25053Y-28427D01*
X25053Y-28452D01*
X25053Y-29087D01*
X24853Y-28887D01*
X24853Y-26404D01*
X24909Y-26348D01*
X24909Y-28115D01*
X24909Y-28116D01*
X24912Y-28149D01*
X24917Y-28167D01*
X24921Y-28179D01*
X24921Y-28180D01*
X24922Y-28181D01*
X24937Y-28210D01*
X24953Y-28230D01*
X24957Y-28235D01*
X24958Y-28236D01*
X24959Y-28236D01*
X24963Y-28240D01*
X25081Y-28358D01*
G36*
X25368Y-28104D02*
X25342Y-28130D01*
X25338Y-28134D01*
X25249Y-28045D01*
X25249Y-27389D01*
X25368Y-27389D01*
X25368Y-28104D01*
X25368Y-28104D01*
G37*
X25368Y-28104D02*
X25342Y-28130D01*
X25338Y-28134D01*
X25249Y-28045D01*
X25249Y-27389D01*
X25368Y-27389D01*
X25368Y-28104D01*
G36*
X25815Y-24371D02*
X25178Y-25009D01*
X25178Y-24941D01*
X25742Y-24377D01*
X25776Y-24378D01*
X25815Y-24371D01*
X25815Y-24371D01*
G37*
X25815Y-24371D02*
X25178Y-25009D01*
X25178Y-24941D01*
X25742Y-24377D01*
X25776Y-24378D01*
X25815Y-24371D01*
G36*
X26130Y-27590D02*
X25970Y-27750D01*
X25970Y-27604D01*
X26130Y-27444D01*
X26130Y-27590D01*
X26130Y-27590D01*
G37*
X26130Y-27590D02*
X25970Y-27750D01*
X25970Y-27604D01*
X26130Y-27444D01*
X26130Y-27590D01*
G36*
X26409Y-28311D02*
X26406Y-28311D01*
X26192Y-28311D01*
X26192Y-28008D01*
X26409Y-27791D01*
X26409Y-28311D01*
X26409Y-28311D01*
G37*
X26409Y-28311D02*
X26406Y-28311D01*
X26192Y-28311D01*
X26192Y-28008D01*
X26409Y-27791D01*
X26409Y-28311D01*
G36*
X26816Y-26265D02*
X26669Y-26265D01*
X26644Y-26270D01*
X26621Y-26280D01*
X26600Y-26294D01*
X26582Y-26312D01*
X26568Y-26333D01*
X26558Y-26356D01*
X26553Y-26381D01*
X26553Y-26406D01*
X26553Y-27273D01*
X26558Y-27298D01*
X26568Y-27321D01*
X26581Y-27341D01*
X26470Y-27452D01*
X26470Y-27377D01*
X26479Y-27374D01*
X26500Y-27360D01*
X26518Y-27342D01*
X26532Y-27321D01*
X26542Y-27298D01*
X26547Y-27273D01*
X26547Y-27248D01*
X26547Y-26381D01*
X26542Y-26356D01*
X26532Y-26333D01*
X26518Y-26312D01*
X26500Y-26294D01*
X26479Y-26280D01*
X26456Y-26270D01*
X26431Y-26265D01*
X26406Y-26265D01*
X26248Y-26265D01*
X26248Y-25813D01*
X26272Y-25824D01*
X26321Y-25834D01*
X26371Y-25835D01*
X26378Y-25833D01*
X26786Y-26241D01*
X26787Y-26242D01*
X26810Y-26261D01*
X26811Y-26262D01*
X26816Y-26265D01*
X26816Y-26265D01*
G37*
X26816Y-26265D02*
X26669Y-26265D01*
X26644Y-26270D01*
X26621Y-26280D01*
X26600Y-26294D01*
X26582Y-26312D01*
X26568Y-26333D01*
X26558Y-26356D01*
X26553Y-26381D01*
X26553Y-26406D01*
X26553Y-27273D01*
X26558Y-27298D01*
X26568Y-27321D01*
X26581Y-27341D01*
X26470Y-27452D01*
X26470Y-27377D01*
X26479Y-27374D01*
X26500Y-27360D01*
X26518Y-27342D01*
X26532Y-27321D01*
X26542Y-27298D01*
X26547Y-27273D01*
X26547Y-27248D01*
X26547Y-26381D01*
X26542Y-26356D01*
X26532Y-26333D01*
X26518Y-26312D01*
X26500Y-26294D01*
X26479Y-26280D01*
X26456Y-26270D01*
X26431Y-26265D01*
X26406Y-26265D01*
X26248Y-26265D01*
X26248Y-25813D01*
X26272Y-25824D01*
X26321Y-25834D01*
X26371Y-25835D01*
X26378Y-25833D01*
X26786Y-26241D01*
X26787Y-26242D01*
X26810Y-26261D01*
X26811Y-26262D01*
X26816Y-26265D01*
G36*
X26885Y-28311D02*
X26749Y-28311D01*
X26749Y-27654D01*
X26885Y-27518D01*
X26885Y-28311D01*
X26885Y-28311D01*
G37*
X26885Y-28311D02*
X26749Y-28311D01*
X26749Y-27654D01*
X26885Y-27518D01*
X26885Y-28311D01*
G36*
X27522Y-30407D02*
X27496Y-30424D01*
X27461Y-30459D01*
X27432Y-30501D01*
X27421Y-30527D01*
X27354Y-30460D01*
X27400Y-30443D01*
X27442Y-30416D01*
X27478Y-30381D01*
X27483Y-30374D01*
X27489Y-30374D01*
X27522Y-30407D01*
X27522Y-30407D01*
G37*
X27522Y-30407D02*
X27496Y-30424D01*
X27461Y-30459D01*
X27432Y-30501D01*
X27421Y-30527D01*
X27354Y-30460D01*
X27400Y-30443D01*
X27442Y-30416D01*
X27478Y-30381D01*
X27483Y-30374D01*
X27489Y-30374D01*
X27522Y-30407D01*
G36*
X27737Y-27985D02*
X27475Y-28249D01*
X27455Y-28273D01*
X27440Y-28300D01*
X27436Y-28312D01*
X27431Y-28311D01*
X27406Y-28311D01*
X27205Y-28311D01*
X27205Y-27481D01*
X27210Y-27485D01*
X27211Y-27486D01*
X27223Y-27492D01*
X27237Y-27500D01*
X27238Y-27500D01*
X27259Y-27507D01*
X27737Y-27985D01*
X27737Y-27985D01*
G37*
X27737Y-27985D02*
X27475Y-28249D01*
X27455Y-28273D01*
X27440Y-28300D01*
X27436Y-28312D01*
X27431Y-28311D01*
X27406Y-28311D01*
X27205Y-28311D01*
X27205Y-27481D01*
X27210Y-27485D01*
X27211Y-27486D01*
X27223Y-27492D01*
X27237Y-27500D01*
X27238Y-27500D01*
X27259Y-27507D01*
X27737Y-27985D01*
G36*
X27776Y-32323D02*
X27727Y-32372D01*
X27134Y-31780D01*
X27136Y-31778D01*
X27156Y-31732D01*
X27161Y-31708D01*
X27776Y-32323D01*
X27776Y-32323D01*
G37*
X27776Y-32323D02*
X27727Y-32372D01*
X27134Y-31780D01*
X27136Y-31778D01*
X27156Y-31732D01*
X27161Y-31708D01*
X27776Y-32323D01*
G36*
X27916Y-27712D02*
X27689Y-27485D01*
X27741Y-27433D01*
X27741Y-27389D01*
X27859Y-27389D01*
X27859Y-27433D01*
X27916Y-27490D01*
X27916Y-27712D01*
X27916Y-27712D01*
G37*
X27916Y-27712D02*
X27689Y-27485D01*
X27741Y-27433D01*
X27741Y-27389D01*
X27859Y-27389D01*
X27859Y-27433D01*
X27916Y-27490D01*
X27916Y-27712D01*
G36*
X27935Y-22733D02*
X26957Y-23712D01*
X26570Y-23712D01*
X27700Y-22582D01*
X27706Y-22596D01*
X27733Y-22638D01*
X27768Y-22674D01*
X27809Y-22703D01*
X27855Y-22723D01*
X27904Y-22733D01*
X27935Y-22733D01*
X27935Y-22733D01*
G37*
X27935Y-22733D02*
X26957Y-23712D01*
X26570Y-23712D01*
X27700Y-22582D01*
X27706Y-22596D01*
X27733Y-22638D01*
X27768Y-22674D01*
X27809Y-22703D01*
X27855Y-22723D01*
X27904Y-22733D01*
X27935Y-22733D01*
G36*
X28591Y-24808D02*
X28590Y-24819D01*
X28590Y-24827D01*
X28590Y-24829D01*
X28590Y-24830D01*
X28590Y-26171D01*
X28586Y-26168D01*
X28585Y-26167D01*
X28559Y-26153D01*
X28558Y-26152D01*
X28542Y-26147D01*
X28529Y-26143D01*
X28521Y-26142D01*
X28497Y-26139D01*
X28489Y-26140D01*
X28092Y-26140D01*
X28061Y-26143D01*
X28031Y-26152D01*
X28017Y-26159D01*
X28004Y-26166D01*
X27999Y-26170D01*
X27992Y-26175D01*
X27991Y-26175D01*
X27985Y-26173D01*
X27941Y-26164D01*
X27916Y-26164D01*
X27859Y-26221D01*
X27859Y-26265D01*
X27741Y-26265D01*
X27741Y-26221D01*
X27684Y-26164D01*
X27659Y-26164D01*
X27615Y-26173D01*
X27573Y-26190D01*
X27536Y-26215D01*
X27504Y-26247D01*
X27480Y-26280D01*
X27479Y-26280D01*
X27456Y-26270D01*
X27431Y-26265D01*
X27406Y-26265D01*
X27205Y-26265D01*
X27205Y-26195D01*
X28591Y-24808D01*
X28591Y-24808D01*
G37*
X28591Y-24808D02*
X28590Y-24819D01*
X28590Y-24827D01*
X28590Y-24829D01*
X28590Y-24830D01*
X28590Y-26171D01*
X28586Y-26168D01*
X28585Y-26167D01*
X28559Y-26153D01*
X28558Y-26152D01*
X28542Y-26147D01*
X28529Y-26143D01*
X28521Y-26142D01*
X28497Y-26139D01*
X28489Y-26140D01*
X28092Y-26140D01*
X28061Y-26143D01*
X28031Y-26152D01*
X28017Y-26159D01*
X28004Y-26166D01*
X27999Y-26170D01*
X27992Y-26175D01*
X27991Y-26175D01*
X27985Y-26173D01*
X27941Y-26164D01*
X27916Y-26164D01*
X27859Y-26221D01*
X27859Y-26265D01*
X27741Y-26265D01*
X27741Y-26221D01*
X27684Y-26164D01*
X27659Y-26164D01*
X27615Y-26173D01*
X27573Y-26190D01*
X27536Y-26215D01*
X27504Y-26247D01*
X27480Y-26280D01*
X27479Y-26280D01*
X27456Y-26270D01*
X27431Y-26265D01*
X27406Y-26265D01*
X27205Y-26265D01*
X27205Y-26195D01*
X28591Y-24808D01*
G36*
X28725Y-21734D02*
X28151Y-22309D01*
X28124Y-22309D01*
X28097Y-22282D01*
X28056Y-22254D01*
X28036Y-22245D01*
X28570Y-21712D01*
X28604Y-21727D01*
X28653Y-21737D01*
X28703Y-21738D01*
X28725Y-21734D01*
X28725Y-21734D01*
G37*
X28725Y-21734D02*
X28151Y-22309D01*
X28124Y-22309D01*
X28097Y-22282D01*
X28056Y-22254D01*
X28036Y-22245D01*
X28570Y-21712D01*
X28604Y-21727D01*
X28653Y-21737D01*
X28703Y-21738D01*
X28725Y-21734D01*
G36*
X28958Y-23729D02*
X28912Y-23683D01*
X28847Y-23639D01*
X28774Y-23608D01*
X28696Y-23592D01*
X28617Y-23592D01*
X28539Y-23607D01*
X28466Y-23636D01*
X28399Y-23680D01*
X28343Y-23735D01*
X28298Y-23801D01*
X28267Y-23874D01*
X28251Y-23951D01*
X28249Y-24030D01*
X28264Y-24108D01*
X28293Y-24182D01*
X28336Y-24248D01*
X28391Y-24305D01*
X28456Y-24351D01*
X28529Y-24382D01*
X28558Y-24388D01*
X28339Y-24608D01*
X28335Y-24586D01*
X28304Y-24513D01*
X28260Y-24447D01*
X28204Y-24391D01*
X28139Y-24347D01*
X28066Y-24316D01*
X27988Y-24300D01*
X27909Y-24300D01*
X27831Y-24315D01*
X27758Y-24344D01*
X27691Y-24388D01*
X27635Y-24443D01*
X27590Y-24509D01*
X27559Y-24582D01*
X27543Y-24659D01*
X27541Y-24738D01*
X27556Y-24816D01*
X27585Y-24890D01*
X27628Y-24956D01*
X27683Y-25013D01*
X27748Y-25059D01*
X27821Y-25090D01*
X27850Y-25096D01*
X27673Y-25273D01*
X27321Y-24922D01*
X27300Y-24908D01*
X27276Y-24898D01*
X27252Y-24893D01*
X27226Y-24893D01*
X27202Y-24898D01*
X27178Y-24908D01*
X27157Y-24922D01*
X27139Y-24939D01*
X26750Y-25329D01*
X26736Y-25350D01*
X26726Y-25374D01*
X26721Y-25398D01*
X26721Y-25424D01*
X26726Y-25448D01*
X26736Y-25472D01*
X26750Y-25493D01*
X26767Y-25511D01*
X27102Y-25845D01*
X26978Y-25969D01*
X26966Y-25969D01*
X26605Y-25608D01*
X26606Y-25555D01*
X26596Y-25506D01*
X26577Y-25460D01*
X26550Y-25418D01*
X26514Y-25383D01*
X26473Y-25355D01*
X26427Y-25335D01*
X26378Y-25325D01*
X26357Y-25325D01*
X28832Y-22850D01*
X28832Y-23531D01*
X28832Y-23532D01*
X28835Y-23563D01*
X28844Y-23593D01*
X28853Y-23611D01*
X28858Y-23620D01*
X28859Y-23621D01*
X28877Y-23644D01*
X28878Y-23645D01*
X28879Y-23645D01*
X28883Y-23649D01*
X28958Y-23724D01*
X28958Y-23729D01*
X28958Y-23729D01*
G37*
X28958Y-23729D02*
X28912Y-23683D01*
X28847Y-23639D01*
X28774Y-23608D01*
X28696Y-23592D01*
X28617Y-23592D01*
X28539Y-23607D01*
X28466Y-23636D01*
X28399Y-23680D01*
X28343Y-23735D01*
X28298Y-23801D01*
X28267Y-23874D01*
X28251Y-23951D01*
X28249Y-24030D01*
X28264Y-24108D01*
X28293Y-24182D01*
X28336Y-24248D01*
X28391Y-24305D01*
X28456Y-24351D01*
X28529Y-24382D01*
X28558Y-24388D01*
X28339Y-24608D01*
X28335Y-24586D01*
X28304Y-24513D01*
X28260Y-24447D01*
X28204Y-24391D01*
X28139Y-24347D01*
X28066Y-24316D01*
X27988Y-24300D01*
X27909Y-24300D01*
X27831Y-24315D01*
X27758Y-24344D01*
X27691Y-24388D01*
X27635Y-24443D01*
X27590Y-24509D01*
X27559Y-24582D01*
X27543Y-24659D01*
X27541Y-24738D01*
X27556Y-24816D01*
X27585Y-24890D01*
X27628Y-24956D01*
X27683Y-25013D01*
X27748Y-25059D01*
X27821Y-25090D01*
X27850Y-25096D01*
X27673Y-25273D01*
X27321Y-24922D01*
X27300Y-24908D01*
X27276Y-24898D01*
X27252Y-24893D01*
X27226Y-24893D01*
X27202Y-24898D01*
X27178Y-24908D01*
X27157Y-24922D01*
X27139Y-24939D01*
X26750Y-25329D01*
X26736Y-25350D01*
X26726Y-25374D01*
X26721Y-25398D01*
X26721Y-25424D01*
X26726Y-25448D01*
X26736Y-25472D01*
X26750Y-25493D01*
X26767Y-25511D01*
X27102Y-25845D01*
X26978Y-25969D01*
X26966Y-25969D01*
X26605Y-25608D01*
X26606Y-25555D01*
X26596Y-25506D01*
X26577Y-25460D01*
X26550Y-25418D01*
X26514Y-25383D01*
X26473Y-25355D01*
X26427Y-25335D01*
X26378Y-25325D01*
X26357Y-25325D01*
X28832Y-22850D01*
X28832Y-23531D01*
X28832Y-23532D01*
X28835Y-23563D01*
X28844Y-23593D01*
X28853Y-23611D01*
X28858Y-23620D01*
X28859Y-23621D01*
X28877Y-23644D01*
X28878Y-23645D01*
X28879Y-23645D01*
X28883Y-23649D01*
X28958Y-23724D01*
X28958Y-23729D01*
G36*
X29241Y-30038D02*
X29208Y-30087D01*
X29134Y-30260D01*
X29095Y-30443D01*
X29093Y-30631D01*
X29103Y-30688D01*
X28339Y-29924D01*
X28339Y-29923D01*
X28339Y-29922D01*
X28330Y-29893D01*
X28330Y-29892D01*
X28322Y-29878D01*
X28316Y-29865D01*
X28315Y-29864D01*
X28311Y-29860D01*
X28296Y-29841D01*
X28296Y-29840D01*
X28291Y-29836D01*
X27960Y-29505D01*
X27960Y-29428D01*
X27979Y-29420D01*
X28000Y-29406D01*
X28018Y-29388D01*
X28032Y-29367D01*
X28042Y-29344D01*
X28047Y-29319D01*
X28047Y-29294D01*
X28047Y-28427D01*
X28042Y-28402D01*
X28032Y-28379D01*
X28018Y-28358D01*
X28000Y-28340D01*
X27979Y-28326D01*
X27956Y-28316D01*
X27931Y-28311D01*
X27906Y-28311D01*
X27865Y-28311D01*
X28030Y-28146D01*
X28074Y-28146D01*
X28075Y-28146D01*
X28076Y-28146D01*
X28905Y-28146D01*
X28946Y-28187D01*
X28301Y-28187D01*
X28300Y-28187D01*
X28269Y-28190D01*
X28239Y-28199D01*
X28225Y-28206D01*
X28212Y-28213D01*
X28207Y-28217D01*
X28187Y-28233D01*
X28167Y-28258D01*
X28160Y-28270D01*
X28153Y-28284D01*
X28143Y-28314D01*
X28142Y-28316D01*
X28121Y-28326D01*
X28100Y-28340D01*
X28082Y-28358D01*
X28068Y-28379D01*
X28058Y-28402D01*
X28053Y-28427D01*
X28053Y-28452D01*
X28053Y-29319D01*
X28058Y-29344D01*
X28068Y-29367D01*
X28082Y-29388D01*
X28100Y-29406D01*
X28121Y-29420D01*
X28144Y-29430D01*
X28169Y-29435D01*
X28194Y-29435D01*
X28431Y-29435D01*
X28456Y-29430D01*
X28479Y-29420D01*
X28500Y-29406D01*
X28518Y-29388D01*
X28532Y-29367D01*
X28542Y-29344D01*
X28547Y-29319D01*
X28547Y-29294D01*
X28547Y-28507D01*
X28553Y-28507D01*
X28553Y-29319D01*
X28558Y-29344D01*
X28568Y-29367D01*
X28582Y-29388D01*
X28590Y-29396D01*
X28590Y-29448D01*
X28590Y-29449D01*
X28594Y-29490D01*
X28599Y-29506D01*
X28605Y-29528D01*
X28606Y-29529D01*
X28624Y-29564D01*
X28625Y-29565D01*
X28650Y-29596D01*
X28651Y-29597D01*
X28657Y-29602D01*
X28681Y-29622D01*
X28683Y-29623D01*
X28717Y-29642D01*
X28719Y-29643D01*
X28756Y-29654D01*
X28758Y-29655D01*
X28789Y-29658D01*
X28797Y-29659D01*
X28799Y-29659D01*
X28800Y-29659D01*
X28862Y-29659D01*
X29241Y-30038D01*
X29241Y-30038D01*
G37*
X29241Y-30038D02*
X29208Y-30087D01*
X29134Y-30260D01*
X29095Y-30443D01*
X29093Y-30631D01*
X29103Y-30688D01*
X28339Y-29924D01*
X28339Y-29923D01*
X28339Y-29922D01*
X28330Y-29893D01*
X28330Y-29892D01*
X28322Y-29878D01*
X28316Y-29865D01*
X28315Y-29864D01*
X28311Y-29860D01*
X28296Y-29841D01*
X28296Y-29840D01*
X28291Y-29836D01*
X27960Y-29505D01*
X27960Y-29428D01*
X27979Y-29420D01*
X28000Y-29406D01*
X28018Y-29388D01*
X28032Y-29367D01*
X28042Y-29344D01*
X28047Y-29319D01*
X28047Y-29294D01*
X28047Y-28427D01*
X28042Y-28402D01*
X28032Y-28379D01*
X28018Y-28358D01*
X28000Y-28340D01*
X27979Y-28326D01*
X27956Y-28316D01*
X27931Y-28311D01*
X27906Y-28311D01*
X27865Y-28311D01*
X28030Y-28146D01*
X28074Y-28146D01*
X28075Y-28146D01*
X28076Y-28146D01*
X28905Y-28146D01*
X28946Y-28187D01*
X28301Y-28187D01*
X28300Y-28187D01*
X28269Y-28190D01*
X28239Y-28199D01*
X28225Y-28206D01*
X28212Y-28213D01*
X28207Y-28217D01*
X28187Y-28233D01*
X28167Y-28258D01*
X28160Y-28270D01*
X28153Y-28284D01*
X28143Y-28314D01*
X28142Y-28316D01*
X28121Y-28326D01*
X28100Y-28340D01*
X28082Y-28358D01*
X28068Y-28379D01*
X28058Y-28402D01*
X28053Y-28427D01*
X28053Y-28452D01*
X28053Y-29319D01*
X28058Y-29344D01*
X28068Y-29367D01*
X28082Y-29388D01*
X28100Y-29406D01*
X28121Y-29420D01*
X28144Y-29430D01*
X28169Y-29435D01*
X28194Y-29435D01*
X28431Y-29435D01*
X28456Y-29430D01*
X28479Y-29420D01*
X28500Y-29406D01*
X28518Y-29388D01*
X28532Y-29367D01*
X28542Y-29344D01*
X28547Y-29319D01*
X28547Y-29294D01*
X28547Y-28507D01*
X28553Y-28507D01*
X28553Y-29319D01*
X28558Y-29344D01*
X28568Y-29367D01*
X28582Y-29388D01*
X28590Y-29396D01*
X28590Y-29448D01*
X28590Y-29449D01*
X28594Y-29490D01*
X28599Y-29506D01*
X28605Y-29528D01*
X28606Y-29529D01*
X28624Y-29564D01*
X28625Y-29565D01*
X28650Y-29596D01*
X28651Y-29597D01*
X28657Y-29602D01*
X28681Y-29622D01*
X28683Y-29623D01*
X28717Y-29642D01*
X28719Y-29643D01*
X28756Y-29654D01*
X28758Y-29655D01*
X28789Y-29658D01*
X28797Y-29659D01*
X28799Y-29659D01*
X28800Y-29659D01*
X28862Y-29659D01*
X29241Y-30038D01*
G36*
X29391Y-27316D02*
X29220Y-27316D01*
X29391Y-27145D01*
X29391Y-27316D01*
X29391Y-27316D01*
G37*
X29391Y-27316D02*
X29220Y-27316D01*
X29391Y-27145D01*
X29391Y-27316D01*
G36*
X29706Y-28493D02*
X29086Y-27874D01*
X29085Y-27873D01*
X29062Y-27854D01*
X29061Y-27853D01*
X29035Y-27839D01*
X29034Y-27838D01*
X29018Y-27833D01*
X29005Y-27829D01*
X28997Y-27828D01*
X28973Y-27825D01*
X28965Y-27826D01*
X28236Y-27826D01*
X28236Y-27515D01*
X28309Y-27588D01*
X28333Y-27608D01*
X28360Y-27623D01*
X28361Y-27623D01*
X28390Y-27633D01*
X28421Y-27636D01*
X28422Y-27636D01*
X28423Y-27636D01*
X29596Y-27636D01*
X29596Y-28026D01*
X29596Y-28027D01*
X29599Y-28058D01*
X29608Y-28088D01*
X29617Y-28106D01*
X29622Y-28115D01*
X29623Y-28116D01*
X29641Y-28139D01*
X29642Y-28140D01*
X29643Y-28140D01*
X29647Y-28144D01*
X29648Y-28145D01*
X29649Y-28146D01*
X29672Y-28165D01*
X29673Y-28166D01*
X29685Y-28172D01*
X29699Y-28180D01*
X29700Y-28180D01*
X29706Y-28182D01*
X29706Y-28493D01*
X29706Y-28493D01*
G37*
X29706Y-28493D02*
X29086Y-27874D01*
X29085Y-27873D01*
X29062Y-27854D01*
X29061Y-27853D01*
X29035Y-27839D01*
X29034Y-27838D01*
X29018Y-27833D01*
X29005Y-27829D01*
X28997Y-27828D01*
X28973Y-27825D01*
X28965Y-27826D01*
X28236Y-27826D01*
X28236Y-27515D01*
X28309Y-27588D01*
X28333Y-27608D01*
X28360Y-27623D01*
X28361Y-27623D01*
X28390Y-27633D01*
X28421Y-27636D01*
X28422Y-27636D01*
X28423Y-27636D01*
X29596Y-27636D01*
X29596Y-28026D01*
X29596Y-28027D01*
X29599Y-28058D01*
X29608Y-28088D01*
X29617Y-28106D01*
X29622Y-28115D01*
X29623Y-28116D01*
X29641Y-28139D01*
X29642Y-28140D01*
X29643Y-28140D01*
X29647Y-28144D01*
X29648Y-28145D01*
X29649Y-28146D01*
X29672Y-28165D01*
X29673Y-28166D01*
X29685Y-28172D01*
X29699Y-28180D01*
X29700Y-28180D01*
X29706Y-28182D01*
X29706Y-28493D01*
G36*
X29734Y-29646D02*
X29605Y-29699D01*
X29538Y-29742D01*
X29103Y-29307D01*
X29099Y-29302D01*
X29097Y-29301D01*
X29076Y-29282D01*
X29068Y-29276D01*
X29066Y-29274D01*
X29047Y-29264D01*
X29047Y-29263D01*
X29047Y-28663D01*
X29535Y-29151D01*
X29535Y-29194D01*
X29534Y-29195D01*
X29499Y-29230D01*
X29470Y-29272D01*
X29451Y-29318D01*
X29440Y-29366D01*
X29440Y-29416D01*
X29449Y-29466D01*
X29467Y-29512D01*
X29494Y-29554D01*
X29529Y-29590D01*
X29570Y-29619D01*
X29616Y-29639D01*
X29665Y-29649D01*
X29715Y-29650D01*
X29734Y-29646D01*
X29734Y-29646D01*
G37*
X29734Y-29646D02*
X29605Y-29699D01*
X29538Y-29742D01*
X29103Y-29307D01*
X29099Y-29302D01*
X29097Y-29301D01*
X29076Y-29282D01*
X29068Y-29276D01*
X29066Y-29274D01*
X29047Y-29264D01*
X29047Y-29263D01*
X29047Y-28663D01*
X29535Y-29151D01*
X29535Y-29194D01*
X29534Y-29195D01*
X29499Y-29230D01*
X29470Y-29272D01*
X29451Y-29318D01*
X29440Y-29366D01*
X29440Y-29416D01*
X29449Y-29466D01*
X29467Y-29512D01*
X29494Y-29554D01*
X29529Y-29590D01*
X29570Y-29619D01*
X29616Y-29639D01*
X29665Y-29649D01*
X29715Y-29650D01*
X29734Y-29646D01*
G36*
X29788Y-21414D02*
X27015Y-24186D01*
X27025Y-24143D01*
X27026Y-24086D01*
X27019Y-24052D01*
X27027Y-24052D01*
X27028Y-24052D01*
X27059Y-24049D01*
X27061Y-24049D01*
X27079Y-24043D01*
X27091Y-24040D01*
X27092Y-24039D01*
X27093Y-24039D01*
X27121Y-24024D01*
X27122Y-24024D01*
X27142Y-24007D01*
X27147Y-24004D01*
X27147Y-24003D01*
X27148Y-24003D01*
X27148Y-24002D01*
X27152Y-23997D01*
X29736Y-21414D01*
X29788Y-21414D01*
X29788Y-21414D01*
G37*
X29788Y-21414D02*
X27015Y-24186D01*
X27025Y-24143D01*
X27026Y-24086D01*
X27019Y-24052D01*
X27027Y-24052D01*
X27028Y-24052D01*
X27059Y-24049D01*
X27061Y-24049D01*
X27079Y-24043D01*
X27091Y-24040D01*
X27092Y-24039D01*
X27093Y-24039D01*
X27121Y-24024D01*
X27122Y-24024D01*
X27142Y-24007D01*
X27147Y-24004D01*
X27147Y-24003D01*
X27148Y-24003D01*
X27148Y-24002D01*
X27152Y-23997D01*
X29736Y-21414D01*
X29788Y-21414D01*
G36*
X30040Y-24193D02*
X29963Y-24193D01*
X29779Y-24229D01*
X29605Y-24299D01*
X29562Y-24326D01*
X29566Y-24313D01*
X29567Y-24311D01*
X29570Y-24280D01*
X29571Y-24272D01*
X29571Y-24270D01*
X29571Y-24269D01*
X29571Y-23634D01*
X29611Y-23609D01*
X29669Y-23554D01*
X29714Y-23489D01*
X29746Y-23417D01*
X29764Y-23339D01*
X29765Y-23249D01*
X29750Y-23171D01*
X29719Y-23098D01*
X29675Y-23032D01*
X29619Y-22976D01*
X29554Y-22932D01*
X29481Y-22901D01*
X29403Y-22885D01*
X29324Y-22885D01*
X29246Y-22900D01*
X29173Y-22929D01*
X29152Y-22942D01*
X29152Y-22885D01*
X29846Y-22191D01*
X29846Y-22538D01*
X29851Y-22563D01*
X29861Y-22586D01*
X29875Y-22607D01*
X29893Y-22625D01*
X29914Y-22639D01*
X29937Y-22649D01*
X29962Y-22654D01*
X29987Y-22654D01*
X30040Y-22654D01*
X30040Y-24193D01*
X30040Y-24193D01*
G37*
X30040Y-24193D02*
X29963Y-24193D01*
X29779Y-24229D01*
X29605Y-24299D01*
X29562Y-24326D01*
X29566Y-24313D01*
X29567Y-24311D01*
X29570Y-24280D01*
X29571Y-24272D01*
X29571Y-24270D01*
X29571Y-24269D01*
X29571Y-23634D01*
X29611Y-23609D01*
X29669Y-23554D01*
X29714Y-23489D01*
X29746Y-23417D01*
X29764Y-23339D01*
X29765Y-23249D01*
X29750Y-23171D01*
X29719Y-23098D01*
X29675Y-23032D01*
X29619Y-22976D01*
X29554Y-22932D01*
X29481Y-22901D01*
X29403Y-22885D01*
X29324Y-22885D01*
X29246Y-22900D01*
X29173Y-22929D01*
X29152Y-22942D01*
X29152Y-22885D01*
X29846Y-22191D01*
X29846Y-22538D01*
X29851Y-22563D01*
X29861Y-22586D01*
X29875Y-22607D01*
X29893Y-22625D01*
X29914Y-22639D01*
X29937Y-22649D01*
X29962Y-22654D01*
X29987Y-22654D01*
X30040Y-22654D01*
X30040Y-24193D01*
G36*
X30375Y-29649D02*
X30334Y-29632D01*
X30150Y-29595D01*
X29963Y-29593D01*
X29813Y-29622D01*
X29853Y-29597D01*
X29889Y-29562D01*
X29918Y-29522D01*
X29938Y-29476D01*
X29949Y-29427D01*
X29950Y-29370D01*
X29940Y-29321D01*
X29921Y-29275D01*
X29894Y-29233D01*
X29858Y-29198D01*
X29855Y-29195D01*
X29855Y-29095D01*
X30375Y-29615D01*
X30375Y-29649D01*
X30375Y-29649D01*
G37*
X30375Y-29649D02*
X30334Y-29632D01*
X30150Y-29595D01*
X29963Y-29593D01*
X29813Y-29622D01*
X29853Y-29597D01*
X29889Y-29562D01*
X29918Y-29522D01*
X29938Y-29476D01*
X29949Y-29427D01*
X29950Y-29370D01*
X29940Y-29321D01*
X29921Y-29275D01*
X29894Y-29233D01*
X29858Y-29198D01*
X29855Y-29195D01*
X29855Y-29095D01*
X30375Y-29615D01*
X30375Y-29649D01*
G36*
X30494Y-21798D02*
X30476Y-21842D01*
X30475Y-21846D01*
X30321Y-21846D01*
X30331Y-21840D01*
X30367Y-21805D01*
X30372Y-21798D01*
X30494Y-21798D01*
X30494Y-21798D01*
G37*
X30494Y-21798D02*
X30476Y-21842D01*
X30475Y-21846D01*
X30321Y-21846D01*
X30331Y-21840D01*
X30367Y-21805D01*
X30372Y-21798D01*
X30494Y-21798D01*
G36*
X30714Y-26776D02*
X30295Y-26776D01*
X30270Y-26781D01*
X30247Y-26791D01*
X30226Y-26805D01*
X30208Y-26823D01*
X30194Y-26844D01*
X30184Y-26867D01*
X30179Y-26892D01*
X30179Y-26917D01*
X30179Y-26985D01*
X30154Y-26993D01*
X30140Y-27000D01*
X30127Y-27007D01*
X30122Y-27011D01*
X30121Y-27011D01*
X30121Y-26892D01*
X30116Y-26867D01*
X30106Y-26844D01*
X30092Y-26823D01*
X30074Y-26805D01*
X30053Y-26791D01*
X30030Y-26781D01*
X30005Y-26776D01*
X29980Y-26776D01*
X29689Y-26776D01*
X29800Y-26665D01*
X30119Y-26665D01*
X30154Y-26700D01*
X30195Y-26729D01*
X30241Y-26749D01*
X30290Y-26759D01*
X30340Y-26760D01*
X30389Y-26752D01*
X30436Y-26734D01*
X30478Y-26707D01*
X30514Y-26672D01*
X30543Y-26632D01*
X30563Y-26586D01*
X30574Y-26537D01*
X30575Y-26480D01*
X30565Y-26431D01*
X30546Y-26385D01*
X30519Y-26343D01*
X30483Y-26308D01*
X30442Y-26280D01*
X30396Y-26260D01*
X30347Y-26250D01*
X30297Y-26250D01*
X30248Y-26259D01*
X30201Y-26278D01*
X30159Y-26305D01*
X30124Y-26340D01*
X30120Y-26345D01*
X29735Y-26345D01*
X29734Y-26345D01*
X29703Y-26348D01*
X29673Y-26357D01*
X29659Y-26364D01*
X29646Y-26371D01*
X29641Y-26375D01*
X29621Y-26391D01*
X29617Y-26396D01*
X29300Y-26713D01*
X29299Y-26714D01*
X29279Y-26738D01*
X29264Y-26765D01*
X29259Y-26780D01*
X29255Y-26794D01*
X29254Y-26801D01*
X29251Y-26826D01*
X29251Y-26832D01*
X29047Y-27037D01*
X29047Y-26381D01*
X29042Y-26356D01*
X29032Y-26333D01*
X29018Y-26312D01*
X29010Y-26304D01*
X29010Y-24916D01*
X29184Y-24741D01*
X29134Y-24860D01*
X29095Y-25043D01*
X29093Y-25231D01*
X29127Y-25415D01*
X29196Y-25589D01*
X29297Y-25747D01*
X29428Y-25882D01*
X29582Y-25989D01*
X29753Y-26064D01*
X29937Y-26104D01*
X30124Y-26108D01*
X30309Y-26075D01*
X30483Y-26007D01*
X30560Y-25957D01*
X30583Y-25980D01*
X30584Y-25981D01*
X30585Y-25982D01*
X30591Y-25987D01*
X30615Y-26007D01*
X30617Y-26008D01*
X30651Y-26027D01*
X30653Y-26028D01*
X30690Y-26039D01*
X30692Y-26040D01*
X30714Y-26042D01*
X30714Y-26776D01*
X30714Y-26776D01*
G37*
X30714Y-26776D02*
X30295Y-26776D01*
X30270Y-26781D01*
X30247Y-26791D01*
X30226Y-26805D01*
X30208Y-26823D01*
X30194Y-26844D01*
X30184Y-26867D01*
X30179Y-26892D01*
X30179Y-26917D01*
X30179Y-26985D01*
X30154Y-26993D01*
X30140Y-27000D01*
X30127Y-27007D01*
X30122Y-27011D01*
X30121Y-27011D01*
X30121Y-26892D01*
X30116Y-26867D01*
X30106Y-26844D01*
X30092Y-26823D01*
X30074Y-26805D01*
X30053Y-26791D01*
X30030Y-26781D01*
X30005Y-26776D01*
X29980Y-26776D01*
X29689Y-26776D01*
X29800Y-26665D01*
X30119Y-26665D01*
X30154Y-26700D01*
X30195Y-26729D01*
X30241Y-26749D01*
X30290Y-26759D01*
X30340Y-26760D01*
X30389Y-26752D01*
X30436Y-26734D01*
X30478Y-26707D01*
X30514Y-26672D01*
X30543Y-26632D01*
X30563Y-26586D01*
X30574Y-26537D01*
X30575Y-26480D01*
X30565Y-26431D01*
X30546Y-26385D01*
X30519Y-26343D01*
X30483Y-26308D01*
X30442Y-26280D01*
X30396Y-26260D01*
X30347Y-26250D01*
X30297Y-26250D01*
X30248Y-26259D01*
X30201Y-26278D01*
X30159Y-26305D01*
X30124Y-26340D01*
X30120Y-26345D01*
X29735Y-26345D01*
X29734Y-26345D01*
X29703Y-26348D01*
X29673Y-26357D01*
X29659Y-26364D01*
X29646Y-26371D01*
X29641Y-26375D01*
X29621Y-26391D01*
X29617Y-26396D01*
X29300Y-26713D01*
X29299Y-26714D01*
X29279Y-26738D01*
X29264Y-26765D01*
X29259Y-26780D01*
X29255Y-26794D01*
X29254Y-26801D01*
X29251Y-26826D01*
X29251Y-26832D01*
X29047Y-27037D01*
X29047Y-26381D01*
X29042Y-26356D01*
X29032Y-26333D01*
X29018Y-26312D01*
X29010Y-26304D01*
X29010Y-24916D01*
X29184Y-24741D01*
X29134Y-24860D01*
X29095Y-25043D01*
X29093Y-25231D01*
X29127Y-25415D01*
X29196Y-25589D01*
X29297Y-25747D01*
X29428Y-25882D01*
X29582Y-25989D01*
X29753Y-26064D01*
X29937Y-26104D01*
X30124Y-26108D01*
X30309Y-26075D01*
X30483Y-26007D01*
X30560Y-25957D01*
X30583Y-25980D01*
X30584Y-25981D01*
X30585Y-25982D01*
X30591Y-25987D01*
X30615Y-26007D01*
X30617Y-26008D01*
X30651Y-26027D01*
X30653Y-26028D01*
X30690Y-26039D01*
X30692Y-26040D01*
X30714Y-26042D01*
X30714Y-26776D01*
G36*
X30714Y-29402D02*
X30706Y-29399D01*
X30657Y-29389D01*
X30607Y-29389D01*
X30602Y-29389D01*
X30057Y-28845D01*
X30478Y-28845D01*
X30503Y-28840D01*
X30526Y-28830D01*
X30547Y-28816D01*
X30565Y-28798D01*
X30579Y-28777D01*
X30589Y-28754D01*
X30594Y-28729D01*
X30594Y-28704D01*
X30594Y-28113D01*
X30589Y-28088D01*
X30579Y-28065D01*
X30565Y-28044D01*
X30547Y-28026D01*
X30526Y-28012D01*
X30503Y-28002D01*
X30478Y-27997D01*
X30453Y-27997D01*
X30305Y-27997D01*
X30298Y-27973D01*
X30298Y-27972D01*
X30290Y-27958D01*
X30284Y-27945D01*
X30283Y-27944D01*
X30279Y-27940D01*
X30264Y-27921D01*
X30264Y-27920D01*
X30240Y-27901D01*
X30239Y-27900D01*
X30227Y-27893D01*
X30213Y-27886D01*
X30183Y-27876D01*
X30152Y-27873D01*
X30151Y-27873D01*
X30150Y-27873D01*
X29916Y-27873D01*
X29916Y-27836D01*
X29938Y-27846D01*
X29987Y-27856D01*
X30037Y-27857D01*
X30086Y-27849D01*
X30133Y-27831D01*
X30175Y-27804D01*
X30211Y-27769D01*
X30240Y-27729D01*
X30260Y-27683D01*
X30271Y-27634D01*
X30272Y-27577D01*
X30271Y-27573D01*
X30327Y-27518D01*
X30328Y-27517D01*
X30337Y-27506D01*
X30714Y-27506D01*
X30714Y-29402D01*
X30714Y-29402D01*
G37*
X30714Y-29402D02*
X30706Y-29399D01*
X30657Y-29389D01*
X30607Y-29389D01*
X30602Y-29389D01*
X30057Y-28845D01*
X30478Y-28845D01*
X30503Y-28840D01*
X30526Y-28830D01*
X30547Y-28816D01*
X30565Y-28798D01*
X30579Y-28777D01*
X30589Y-28754D01*
X30594Y-28729D01*
X30594Y-28704D01*
X30594Y-28113D01*
X30589Y-28088D01*
X30579Y-28065D01*
X30565Y-28044D01*
X30547Y-28026D01*
X30526Y-28012D01*
X30503Y-28002D01*
X30478Y-27997D01*
X30453Y-27997D01*
X30305Y-27997D01*
X30298Y-27973D01*
X30298Y-27972D01*
X30290Y-27958D01*
X30284Y-27945D01*
X30283Y-27944D01*
X30279Y-27940D01*
X30264Y-27921D01*
X30264Y-27920D01*
X30240Y-27901D01*
X30239Y-27900D01*
X30227Y-27893D01*
X30213Y-27886D01*
X30183Y-27876D01*
X30152Y-27873D01*
X30151Y-27873D01*
X30150Y-27873D01*
X29916Y-27873D01*
X29916Y-27836D01*
X29938Y-27846D01*
X29987Y-27856D01*
X30037Y-27857D01*
X30086Y-27849D01*
X30133Y-27831D01*
X30175Y-27804D01*
X30211Y-27769D01*
X30240Y-27729D01*
X30260Y-27683D01*
X30271Y-27634D01*
X30272Y-27577D01*
X30271Y-27573D01*
X30327Y-27518D01*
X30328Y-27517D01*
X30337Y-27506D01*
X30714Y-27506D01*
X30714Y-29402D01*
G36*
X30878Y-34630D02*
X30684Y-34630D01*
X30656Y-34602D01*
X30656Y-34407D01*
X30878Y-34630D01*
X30878Y-34630D01*
G37*
X30878Y-34630D02*
X30684Y-34630D01*
X30656Y-34602D01*
X30656Y-34407D01*
X30878Y-34630D01*
G36*
X30941Y-30202D02*
X30898Y-30099D01*
X30890Y-30088D01*
X30941Y-30037D01*
X30941Y-30202D01*
X30941Y-30202D01*
G37*
X30941Y-30202D02*
X30898Y-30099D01*
X30890Y-30088D01*
X30941Y-30037D01*
X30941Y-30202D01*
G36*
X30977Y-33826D02*
X30976Y-33828D01*
X30950Y-33853D01*
X30942Y-33827D01*
X30942Y-33825D01*
X30927Y-33797D01*
X30927Y-33796D01*
X30906Y-33771D01*
X30906Y-33770D01*
X30905Y-33769D01*
X29477Y-32342D01*
X29512Y-32320D01*
X29548Y-32285D01*
X29571Y-32253D01*
X30231Y-32913D01*
X30232Y-32914D01*
X30255Y-32933D01*
X30256Y-32934D01*
X30282Y-32948D01*
X30283Y-32949D01*
X30298Y-32953D01*
X30312Y-32958D01*
X30314Y-32958D01*
X30343Y-32961D01*
X30344Y-32961D01*
X30345Y-32961D01*
X30577Y-32961D01*
X30571Y-32990D01*
X30571Y-33040D01*
X30580Y-33090D01*
X30598Y-33136D01*
X30625Y-33178D01*
X30656Y-33209D01*
X30656Y-33434D01*
X30656Y-33435D01*
X30659Y-33468D01*
X30664Y-33486D01*
X30668Y-33498D01*
X30668Y-33499D01*
X30669Y-33500D01*
X30684Y-33529D01*
X30700Y-33549D01*
X30704Y-33554D01*
X30705Y-33555D01*
X30706Y-33555D01*
X30710Y-33559D01*
X30977Y-33826D01*
X30977Y-33826D01*
G37*
X30977Y-33826D02*
X30976Y-33828D01*
X30950Y-33853D01*
X30942Y-33827D01*
X30942Y-33825D01*
X30927Y-33797D01*
X30927Y-33796D01*
X30906Y-33771D01*
X30906Y-33770D01*
X30905Y-33769D01*
X29477Y-32342D01*
X29512Y-32320D01*
X29548Y-32285D01*
X29571Y-32253D01*
X30231Y-32913D01*
X30232Y-32914D01*
X30255Y-32933D01*
X30256Y-32934D01*
X30282Y-32948D01*
X30283Y-32949D01*
X30298Y-32953D01*
X30312Y-32958D01*
X30314Y-32958D01*
X30343Y-32961D01*
X30344Y-32961D01*
X30345Y-32961D01*
X30577Y-32961D01*
X30571Y-32990D01*
X30571Y-33040D01*
X30580Y-33090D01*
X30598Y-33136D01*
X30625Y-33178D01*
X30656Y-33209D01*
X30656Y-33434D01*
X30656Y-33435D01*
X30659Y-33468D01*
X30664Y-33486D01*
X30668Y-33498D01*
X30668Y-33499D01*
X30669Y-33500D01*
X30684Y-33529D01*
X30700Y-33549D01*
X30704Y-33554D01*
X30705Y-33555D01*
X30706Y-33555D01*
X30710Y-33559D01*
X30977Y-33826D01*
G36*
X31028Y-21798D02*
X31012Y-21805D01*
X30996Y-21855D01*
X30962Y-21821D01*
X30957Y-21825D01*
X30946Y-21799D01*
X30945Y-21798D01*
X31028Y-21798D01*
X31028Y-21798D01*
G37*
X31028Y-21798D02*
X31012Y-21805D01*
X30996Y-21855D01*
X30962Y-21821D01*
X30957Y-21825D01*
X30946Y-21799D01*
X30945Y-21798D01*
X31028Y-21798D01*
G36*
X31044Y-23975D02*
X30896Y-24124D01*
X30876Y-24148D01*
X30861Y-24175D01*
X30856Y-24190D01*
X30852Y-24204D01*
X30851Y-24211D01*
X30848Y-24236D01*
X30849Y-24244D01*
X30849Y-24358D01*
X30848Y-24359D01*
X30813Y-24394D01*
X30784Y-24436D01*
X30765Y-24482D01*
X30759Y-24507D01*
X30662Y-24410D01*
X30507Y-24305D01*
X30460Y-24285D01*
X30460Y-22654D01*
X30538Y-22654D01*
X30560Y-22649D01*
X30560Y-23369D01*
X30560Y-23370D01*
X30563Y-23401D01*
X30572Y-23431D01*
X30581Y-23449D01*
X30586Y-23458D01*
X30587Y-23459D01*
X30605Y-23482D01*
X30606Y-23483D01*
X30607Y-23483D01*
X30611Y-23487D01*
X31043Y-23919D01*
X31043Y-23969D01*
X31044Y-23975D01*
X31044Y-23975D01*
G37*
X31044Y-23975D02*
X30896Y-24124D01*
X30876Y-24148D01*
X30861Y-24175D01*
X30856Y-24190D01*
X30852Y-24204D01*
X30851Y-24211D01*
X30848Y-24236D01*
X30849Y-24244D01*
X30849Y-24358D01*
X30848Y-24359D01*
X30813Y-24394D01*
X30784Y-24436D01*
X30765Y-24482D01*
X30759Y-24507D01*
X30662Y-24410D01*
X30507Y-24305D01*
X30460Y-24285D01*
X30460Y-22654D01*
X30538Y-22654D01*
X30560Y-22649D01*
X30560Y-23369D01*
X30560Y-23370D01*
X30563Y-23401D01*
X30572Y-23431D01*
X30581Y-23449D01*
X30586Y-23458D01*
X30587Y-23459D01*
X30605Y-23482D01*
X30606Y-23483D01*
X30607Y-23483D01*
X30611Y-23487D01*
X31043Y-23919D01*
X31043Y-23969D01*
X31044Y-23975D01*
G36*
X31081Y-20974D02*
X30548Y-20974D01*
X30532Y-20960D01*
X30531Y-20959D01*
X30506Y-20946D01*
X30503Y-20944D01*
X30502Y-20943D01*
X30501Y-20943D01*
X30470Y-20933D01*
X30441Y-20930D01*
X30438Y-20930D01*
X30437Y-20930D01*
X30436Y-20930D01*
X29601Y-20930D01*
X29600Y-20930D01*
X29567Y-20933D01*
X29549Y-20938D01*
X29537Y-20942D01*
X29535Y-20942D01*
X29535Y-20943D01*
X29506Y-20958D01*
X29480Y-20979D01*
X29475Y-20984D01*
X28934Y-21525D01*
X28937Y-21515D01*
X28938Y-21458D01*
X28928Y-21409D01*
X28909Y-21363D01*
X28882Y-21321D01*
X28846Y-21286D01*
X28815Y-21264D01*
X29224Y-20855D01*
X31080Y-20855D01*
X31074Y-20885D01*
X31074Y-20935D01*
X31081Y-20974D01*
X31081Y-20974D01*
G37*
X31081Y-20974D02*
X30548Y-20974D01*
X30532Y-20960D01*
X30531Y-20959D01*
X30506Y-20946D01*
X30503Y-20944D01*
X30502Y-20943D01*
X30501Y-20943D01*
X30470Y-20933D01*
X30441Y-20930D01*
X30438Y-20930D01*
X30437Y-20930D01*
X30436Y-20930D01*
X29601Y-20930D01*
X29600Y-20930D01*
X29567Y-20933D01*
X29549Y-20938D01*
X29537Y-20942D01*
X29535Y-20942D01*
X29535Y-20943D01*
X29506Y-20958D01*
X29480Y-20979D01*
X29475Y-20984D01*
X28934Y-21525D01*
X28937Y-21515D01*
X28938Y-21458D01*
X28928Y-21409D01*
X28909Y-21363D01*
X28882Y-21321D01*
X28846Y-21286D01*
X28815Y-21264D01*
X29224Y-20855D01*
X31080Y-20855D01*
X31074Y-20885D01*
X31074Y-20935D01*
X31081Y-20974D01*
G36*
X31335Y-22744D02*
X31144Y-22937D01*
X31124Y-22961D01*
X31109Y-22988D01*
X31104Y-23003D01*
X31100Y-23017D01*
X31099Y-23024D01*
X31096Y-23049D01*
X31097Y-23057D01*
X31097Y-23521D01*
X30880Y-23304D01*
X30880Y-22510D01*
X30888Y-22513D01*
X30918Y-22482D01*
X30932Y-22502D01*
X30987Y-22559D01*
X31018Y-22580D01*
X30987Y-22612D01*
X31012Y-22695D01*
X31104Y-22733D01*
X31201Y-22752D01*
X31299Y-22752D01*
X31335Y-22744D01*
X31335Y-22744D01*
G37*
X31335Y-22744D02*
X31144Y-22937D01*
X31124Y-22961D01*
X31109Y-22988D01*
X31104Y-23003D01*
X31100Y-23017D01*
X31099Y-23024D01*
X31096Y-23049D01*
X31097Y-23057D01*
X31097Y-23521D01*
X30880Y-23304D01*
X30880Y-22510D01*
X30888Y-22513D01*
X30918Y-22482D01*
X30932Y-22502D01*
X30987Y-22559D01*
X31018Y-22580D01*
X30987Y-22612D01*
X31012Y-22695D01*
X31104Y-22733D01*
X31201Y-22752D01*
X31299Y-22752D01*
X31335Y-22744D01*
G36*
X31436Y-25624D02*
X30935Y-25624D01*
X30927Y-25624D01*
X30925Y-25624D01*
X30924Y-25624D01*
X30885Y-25624D01*
X30962Y-25453D01*
X31003Y-25270D01*
X31006Y-25056D01*
X30970Y-24872D01*
X30942Y-24805D01*
X30979Y-24813D01*
X31029Y-24814D01*
X31078Y-24806D01*
X31125Y-24788D01*
X31167Y-24761D01*
X31203Y-24726D01*
X31232Y-24686D01*
X31252Y-24640D01*
X31263Y-24591D01*
X31264Y-24534D01*
X31254Y-24485D01*
X31235Y-24439D01*
X31208Y-24397D01*
X31172Y-24362D01*
X31169Y-24359D01*
X31169Y-24303D01*
X31270Y-24202D01*
X31318Y-24203D01*
X31356Y-24196D01*
X31356Y-24710D01*
X31308Y-24719D01*
X31261Y-24738D01*
X31219Y-24765D01*
X31184Y-24800D01*
X31155Y-24842D01*
X31136Y-24888D01*
X31125Y-24936D01*
X31125Y-24986D01*
X31134Y-25036D01*
X31152Y-25082D01*
X31179Y-25124D01*
X31214Y-25160D01*
X31255Y-25189D01*
X31276Y-25198D01*
X31270Y-25205D01*
X31241Y-25247D01*
X31222Y-25293D01*
X31211Y-25341D01*
X31211Y-25391D01*
X31220Y-25441D01*
X31238Y-25487D01*
X31265Y-25529D01*
X31300Y-25565D01*
X31341Y-25594D01*
X31387Y-25614D01*
X31436Y-25624D01*
X31436Y-25624D01*
G37*
X31436Y-25624D02*
X30935Y-25624D01*
X30927Y-25624D01*
X30925Y-25624D01*
X30924Y-25624D01*
X30885Y-25624D01*
X30962Y-25453D01*
X31003Y-25270D01*
X31006Y-25056D01*
X30970Y-24872D01*
X30942Y-24805D01*
X30979Y-24813D01*
X31029Y-24814D01*
X31078Y-24806D01*
X31125Y-24788D01*
X31167Y-24761D01*
X31203Y-24726D01*
X31232Y-24686D01*
X31252Y-24640D01*
X31263Y-24591D01*
X31264Y-24534D01*
X31254Y-24485D01*
X31235Y-24439D01*
X31208Y-24397D01*
X31172Y-24362D01*
X31169Y-24359D01*
X31169Y-24303D01*
X31270Y-24202D01*
X31318Y-24203D01*
X31356Y-24196D01*
X31356Y-24710D01*
X31308Y-24719D01*
X31261Y-24738D01*
X31219Y-24765D01*
X31184Y-24800D01*
X31155Y-24842D01*
X31136Y-24888D01*
X31125Y-24936D01*
X31125Y-24986D01*
X31134Y-25036D01*
X31152Y-25082D01*
X31179Y-25124D01*
X31214Y-25160D01*
X31255Y-25189D01*
X31276Y-25198D01*
X31270Y-25205D01*
X31241Y-25247D01*
X31222Y-25293D01*
X31211Y-25341D01*
X31211Y-25391D01*
X31220Y-25441D01*
X31238Y-25487D01*
X31265Y-25529D01*
X31300Y-25565D01*
X31341Y-25594D01*
X31387Y-25614D01*
X31436Y-25624D01*
G36*
X31870Y-23667D02*
X31847Y-23672D01*
X31824Y-23682D01*
X31803Y-23696D01*
X31785Y-23714D01*
X31776Y-23726D01*
X31773Y-23720D01*
X31772Y-23719D01*
X31768Y-23715D01*
X31753Y-23696D01*
X31753Y-23695D01*
X31748Y-23691D01*
X31710Y-23653D01*
X31782Y-23655D01*
X31846Y-23643D01*
X31870Y-23667D01*
X31870Y-23667D01*
G37*
X31870Y-23667D02*
X31847Y-23672D01*
X31824Y-23682D01*
X31803Y-23696D01*
X31785Y-23714D01*
X31776Y-23726D01*
X31773Y-23720D01*
X31772Y-23719D01*
X31768Y-23715D01*
X31753Y-23696D01*
X31753Y-23695D01*
X31748Y-23691D01*
X31710Y-23653D01*
X31782Y-23655D01*
X31846Y-23643D01*
X31870Y-23667D01*
G36*
X32093Y-31553D02*
X31361Y-31553D01*
X31361Y-31220D01*
X31375Y-31256D01*
X31402Y-31298D01*
X31437Y-31334D01*
X31478Y-31363D01*
X31524Y-31383D01*
X31573Y-31393D01*
X31623Y-31394D01*
X31672Y-31386D01*
X31719Y-31368D01*
X31761Y-31341D01*
X31797Y-31306D01*
X31826Y-31266D01*
X31846Y-31220D01*
X31848Y-31209D01*
X31885Y-31209D01*
X31893Y-31234D01*
X31902Y-31252D01*
X31907Y-31261D01*
X31908Y-31262D01*
X31926Y-31285D01*
X31927Y-31286D01*
X31928Y-31286D01*
X31931Y-31289D01*
X32093Y-31451D01*
X32093Y-31553D01*
X32093Y-31553D01*
G37*
X32093Y-31553D02*
X31361Y-31553D01*
X31361Y-31220D01*
X31375Y-31256D01*
X31402Y-31298D01*
X31437Y-31334D01*
X31478Y-31363D01*
X31524Y-31383D01*
X31573Y-31393D01*
X31623Y-31394D01*
X31672Y-31386D01*
X31719Y-31368D01*
X31761Y-31341D01*
X31797Y-31306D01*
X31826Y-31266D01*
X31846Y-31220D01*
X31848Y-31209D01*
X31885Y-31209D01*
X31893Y-31234D01*
X31902Y-31252D01*
X31907Y-31261D01*
X31908Y-31262D01*
X31926Y-31285D01*
X31927Y-31286D01*
X31928Y-31286D01*
X31931Y-31289D01*
X32093Y-31451D01*
X32093Y-31553D01*
G36*
X32093Y-32053D02*
X31281Y-32053D01*
X31256Y-32058D01*
X31233Y-32068D01*
X31212Y-32082D01*
X31194Y-32100D01*
X31180Y-32121D01*
X31170Y-32144D01*
X31165Y-32169D01*
X31165Y-32194D01*
X31165Y-32395D01*
X30810Y-32395D01*
X29914Y-31499D01*
X29937Y-31504D01*
X30124Y-31508D01*
X30309Y-31475D01*
X30483Y-31407D01*
X30642Y-31307D01*
X30777Y-31177D01*
X30885Y-31024D01*
X30941Y-30899D01*
X30941Y-31799D01*
X30941Y-31800D01*
X30945Y-31841D01*
X30950Y-31857D01*
X30956Y-31879D01*
X30957Y-31880D01*
X30975Y-31915D01*
X30976Y-31916D01*
X31001Y-31947D01*
X31002Y-31948D01*
X31008Y-31953D01*
X31032Y-31973D01*
X31034Y-31974D01*
X31068Y-31993D01*
X31070Y-31994D01*
X31107Y-32005D01*
X31109Y-32006D01*
X31140Y-32009D01*
X31148Y-32010D01*
X31150Y-32010D01*
X31151Y-32010D01*
X31204Y-32010D01*
X31212Y-32018D01*
X31233Y-32032D01*
X31256Y-32042D01*
X31281Y-32047D01*
X31306Y-32047D01*
X32093Y-32047D01*
X32093Y-32053D01*
X32093Y-32053D01*
G37*
X32093Y-32053D02*
X31281Y-32053D01*
X31256Y-32058D01*
X31233Y-32068D01*
X31212Y-32082D01*
X31194Y-32100D01*
X31180Y-32121D01*
X31170Y-32144D01*
X31165Y-32169D01*
X31165Y-32194D01*
X31165Y-32395D01*
X30810Y-32395D01*
X29914Y-31499D01*
X29937Y-31504D01*
X30124Y-31508D01*
X30309Y-31475D01*
X30483Y-31407D01*
X30642Y-31307D01*
X30777Y-31177D01*
X30885Y-31024D01*
X30941Y-30899D01*
X30941Y-31799D01*
X30941Y-31800D01*
X30945Y-31841D01*
X30950Y-31857D01*
X30956Y-31879D01*
X30957Y-31880D01*
X30975Y-31915D01*
X30976Y-31916D01*
X31001Y-31947D01*
X31002Y-31948D01*
X31008Y-31953D01*
X31032Y-31973D01*
X31034Y-31974D01*
X31068Y-31993D01*
X31070Y-31994D01*
X31107Y-32005D01*
X31109Y-32006D01*
X31140Y-32009D01*
X31148Y-32010D01*
X31150Y-32010D01*
X31151Y-32010D01*
X31204Y-32010D01*
X31212Y-32018D01*
X31233Y-32032D01*
X31256Y-32042D01*
X31281Y-32047D01*
X31306Y-32047D01*
X32093Y-32047D01*
X32093Y-32053D01*
G36*
X32824Y-33671D02*
X32637Y-33858D01*
X32289Y-33858D01*
X32289Y-33671D01*
X32824Y-33671D01*
X32824Y-33671D01*
G37*
X32824Y-33671D02*
X32637Y-33858D01*
X32289Y-33858D01*
X32289Y-33671D01*
X32824Y-33671D01*
G36*
X32843Y-25521D02*
X32741Y-25624D01*
X31492Y-25624D01*
X31535Y-25617D01*
X31582Y-25599D01*
X31624Y-25572D01*
X31660Y-25537D01*
X31689Y-25497D01*
X31709Y-25451D01*
X31720Y-25402D01*
X31721Y-25345D01*
X31720Y-25342D01*
X31751Y-25311D01*
X31752Y-25311D01*
X31771Y-25287D01*
X31786Y-25260D01*
X31786Y-25259D01*
X31796Y-25230D01*
X31796Y-25229D01*
X31799Y-25199D01*
X31799Y-25198D01*
X31799Y-25197D01*
X31799Y-24600D01*
X31803Y-24604D01*
X31824Y-24618D01*
X31847Y-24628D01*
X31872Y-24633D01*
X31897Y-24633D01*
X32050Y-24633D01*
X32051Y-24633D01*
X32055Y-24637D01*
X32096Y-24678D01*
X32083Y-24681D01*
X32060Y-24691D01*
X32039Y-24705D01*
X32021Y-24723D01*
X32007Y-24744D01*
X31997Y-24767D01*
X31992Y-24792D01*
X31992Y-24817D01*
X31992Y-25408D01*
X31997Y-25433D01*
X32007Y-25456D01*
X32021Y-25477D01*
X32039Y-25495D01*
X32060Y-25509D01*
X32083Y-25519D01*
X32108Y-25524D01*
X32133Y-25524D01*
X32644Y-25524D01*
X32669Y-25519D01*
X32692Y-25509D01*
X32713Y-25495D01*
X32731Y-25477D01*
X32745Y-25456D01*
X32750Y-25444D01*
X32755Y-25456D01*
X32769Y-25477D01*
X32787Y-25495D01*
X32808Y-25509D01*
X32831Y-25519D01*
X32843Y-25521D01*
X32843Y-25521D01*
G37*
X32843Y-25521D02*
X32741Y-25624D01*
X31492Y-25624D01*
X31535Y-25617D01*
X31582Y-25599D01*
X31624Y-25572D01*
X31660Y-25537D01*
X31689Y-25497D01*
X31709Y-25451D01*
X31720Y-25402D01*
X31721Y-25345D01*
X31720Y-25342D01*
X31751Y-25311D01*
X31752Y-25311D01*
X31771Y-25287D01*
X31786Y-25260D01*
X31786Y-25259D01*
X31796Y-25230D01*
X31796Y-25229D01*
X31799Y-25199D01*
X31799Y-25198D01*
X31799Y-25197D01*
X31799Y-24600D01*
X31803Y-24604D01*
X31824Y-24618D01*
X31847Y-24628D01*
X31872Y-24633D01*
X31897Y-24633D01*
X32050Y-24633D01*
X32051Y-24633D01*
X32055Y-24637D01*
X32096Y-24678D01*
X32083Y-24681D01*
X32060Y-24691D01*
X32039Y-24705D01*
X32021Y-24723D01*
X32007Y-24744D01*
X31997Y-24767D01*
X31992Y-24792D01*
X31992Y-24817D01*
X31992Y-25408D01*
X31997Y-25433D01*
X32007Y-25456D01*
X32021Y-25477D01*
X32039Y-25495D01*
X32060Y-25509D01*
X32083Y-25519D01*
X32108Y-25524D01*
X32133Y-25524D01*
X32644Y-25524D01*
X32669Y-25519D01*
X32692Y-25509D01*
X32713Y-25495D01*
X32731Y-25477D01*
X32745Y-25456D01*
X32750Y-25444D01*
X32755Y-25456D01*
X32769Y-25477D01*
X32787Y-25495D01*
X32808Y-25509D01*
X32831Y-25519D01*
X32843Y-25521D01*
G36*
X32938Y-29146D02*
X32562Y-29146D01*
X32577Y-29132D01*
X32626Y-29064D01*
X32660Y-28987D01*
X32679Y-28904D01*
X32680Y-28808D01*
X32665Y-28731D01*
X32836Y-28560D01*
X32931Y-28560D01*
X32919Y-28572D01*
X32871Y-28642D01*
X32838Y-28719D01*
X32821Y-28802D01*
X32819Y-28886D01*
X32835Y-28969D01*
X32866Y-29047D01*
X32911Y-29118D01*
X32938Y-29146D01*
X32938Y-29146D01*
G37*
X32938Y-29146D02*
X32562Y-29146D01*
X32577Y-29132D01*
X32626Y-29064D01*
X32660Y-28987D01*
X32679Y-28904D01*
X32680Y-28808D01*
X32665Y-28731D01*
X32836Y-28560D01*
X32931Y-28560D01*
X32919Y-28572D01*
X32871Y-28642D01*
X32838Y-28719D01*
X32821Y-28802D01*
X32819Y-28886D01*
X32835Y-28969D01*
X32866Y-29047D01*
X32911Y-29118D01*
X32938Y-29146D01*
G36*
X32960Y-35494D02*
X32697Y-35494D01*
X32384Y-35181D01*
X32383Y-35180D01*
X32359Y-35160D01*
X32358Y-35159D01*
X32333Y-35146D01*
X32330Y-35144D01*
X32329Y-35143D01*
X32328Y-35143D01*
X32297Y-35133D01*
X32278Y-35131D01*
X32274Y-35121D01*
X32260Y-35100D01*
X32242Y-35082D01*
X32221Y-35068D01*
X32198Y-35058D01*
X32173Y-35053D01*
X32148Y-35053D01*
X31281Y-35053D01*
X31256Y-35058D01*
X31233Y-35068D01*
X31212Y-35082D01*
X31194Y-35100D01*
X31180Y-35121D01*
X31170Y-35144D01*
X31165Y-35169D01*
X31165Y-35194D01*
X31165Y-35431D01*
X31170Y-35456D01*
X31180Y-35479D01*
X31194Y-35500D01*
X31212Y-35518D01*
X31233Y-35532D01*
X31256Y-35542D01*
X31281Y-35547D01*
X31306Y-35547D01*
X32173Y-35547D01*
X32198Y-35542D01*
X32221Y-35532D01*
X32241Y-35518D01*
X32359Y-35637D01*
X31118Y-35637D01*
X29314Y-33832D01*
X29314Y-33580D01*
X29327Y-33614D01*
X29354Y-33656D01*
X29389Y-33692D01*
X29430Y-33721D01*
X29476Y-33741D01*
X29525Y-33751D01*
X29575Y-33752D01*
X29624Y-33744D01*
X29671Y-33726D01*
X29713Y-33699D01*
X29749Y-33664D01*
X29775Y-33627D01*
X30316Y-34167D01*
X30316Y-34671D01*
X30316Y-34672D01*
X30319Y-34705D01*
X30324Y-34723D01*
X30328Y-34735D01*
X30328Y-34736D01*
X30329Y-34737D01*
X30344Y-34766D01*
X30360Y-34786D01*
X30364Y-34791D01*
X30365Y-34792D01*
X30366Y-34792D01*
X30370Y-34796D01*
X30493Y-34919D01*
X30494Y-34920D01*
X30518Y-34940D01*
X30519Y-34941D01*
X30543Y-34954D01*
X30547Y-34956D01*
X30549Y-34957D01*
X30579Y-34966D01*
X30580Y-34967D01*
X30609Y-34969D01*
X30612Y-34970D01*
X30613Y-34970D01*
X30614Y-34970D01*
X31176Y-34970D01*
X31180Y-34979D01*
X31194Y-35000D01*
X31212Y-35018D01*
X31233Y-35032D01*
X31256Y-35042D01*
X31281Y-35047D01*
X31306Y-35047D01*
X32173Y-35047D01*
X32198Y-35042D01*
X32221Y-35032D01*
X32242Y-35018D01*
X32260Y-35000D01*
X32274Y-34979D01*
X32284Y-34956D01*
X32289Y-34931D01*
X32289Y-34906D01*
X32289Y-34823D01*
X32960Y-35494D01*
X32960Y-35494D01*
G37*
X32960Y-35494D02*
X32697Y-35494D01*
X32384Y-35181D01*
X32383Y-35180D01*
X32359Y-35160D01*
X32358Y-35159D01*
X32333Y-35146D01*
X32330Y-35144D01*
X32329Y-35143D01*
X32328Y-35143D01*
X32297Y-35133D01*
X32278Y-35131D01*
X32274Y-35121D01*
X32260Y-35100D01*
X32242Y-35082D01*
X32221Y-35068D01*
X32198Y-35058D01*
X32173Y-35053D01*
X32148Y-35053D01*
X31281Y-35053D01*
X31256Y-35058D01*
X31233Y-35068D01*
X31212Y-35082D01*
X31194Y-35100D01*
X31180Y-35121D01*
X31170Y-35144D01*
X31165Y-35169D01*
X31165Y-35194D01*
X31165Y-35431D01*
X31170Y-35456D01*
X31180Y-35479D01*
X31194Y-35500D01*
X31212Y-35518D01*
X31233Y-35532D01*
X31256Y-35542D01*
X31281Y-35547D01*
X31306Y-35547D01*
X32173Y-35547D01*
X32198Y-35542D01*
X32221Y-35532D01*
X32241Y-35518D01*
X32359Y-35637D01*
X31118Y-35637D01*
X29314Y-33832D01*
X29314Y-33580D01*
X29327Y-33614D01*
X29354Y-33656D01*
X29389Y-33692D01*
X29430Y-33721D01*
X29476Y-33741D01*
X29525Y-33751D01*
X29575Y-33752D01*
X29624Y-33744D01*
X29671Y-33726D01*
X29713Y-33699D01*
X29749Y-33664D01*
X29775Y-33627D01*
X30316Y-34167D01*
X30316Y-34671D01*
X30316Y-34672D01*
X30319Y-34705D01*
X30324Y-34723D01*
X30328Y-34735D01*
X30328Y-34736D01*
X30329Y-34737D01*
X30344Y-34766D01*
X30360Y-34786D01*
X30364Y-34791D01*
X30365Y-34792D01*
X30366Y-34792D01*
X30370Y-34796D01*
X30493Y-34919D01*
X30494Y-34920D01*
X30518Y-34940D01*
X30519Y-34941D01*
X30543Y-34954D01*
X30547Y-34956D01*
X30549Y-34957D01*
X30579Y-34966D01*
X30580Y-34967D01*
X30609Y-34969D01*
X30612Y-34970D01*
X30613Y-34970D01*
X30614Y-34970D01*
X31176Y-34970D01*
X31180Y-34979D01*
X31194Y-35000D01*
X31212Y-35018D01*
X31233Y-35032D01*
X31256Y-35042D01*
X31281Y-35047D01*
X31306Y-35047D01*
X32173Y-35047D01*
X32198Y-35042D01*
X32221Y-35032D01*
X32242Y-35018D01*
X32260Y-35000D01*
X32274Y-34979D01*
X32284Y-34956D01*
X32289Y-34931D01*
X32289Y-34906D01*
X32289Y-34823D01*
X32960Y-35494D01*
G36*
X33018Y-24633D02*
X32982Y-24669D01*
X32977Y-24674D01*
X32975Y-24676D01*
X32856Y-24676D01*
X32831Y-24681D01*
X32808Y-24691D01*
X32787Y-24705D01*
X32769Y-24723D01*
X32755Y-24744D01*
X32750Y-24755D01*
X32745Y-24744D01*
X32731Y-24723D01*
X32713Y-24705D01*
X32692Y-24691D01*
X32669Y-24681D01*
X32644Y-24676D01*
X32619Y-24676D01*
X32586Y-24676D01*
X32586Y-24664D01*
X32586Y-24662D01*
X32582Y-24624D01*
X32582Y-24621D01*
X32579Y-24614D01*
X32595Y-24604D01*
X32613Y-24586D01*
X32627Y-24565D01*
X32637Y-24542D01*
X32642Y-24517D01*
X32642Y-24492D01*
X32642Y-23783D01*
X32637Y-23758D01*
X32627Y-23735D01*
X32613Y-23714D01*
X32595Y-23696D01*
X32574Y-23682D01*
X32551Y-23672D01*
X32526Y-23667D01*
X32501Y-23667D01*
X32409Y-23667D01*
X32409Y-23654D01*
X32409Y-23653D01*
X32405Y-23614D01*
X32405Y-23612D01*
X32399Y-23595D01*
X32394Y-23574D01*
X32393Y-23573D01*
X32375Y-23538D01*
X32374Y-23537D01*
X32349Y-23506D01*
X32348Y-23505D01*
X32341Y-23500D01*
X32318Y-23480D01*
X32316Y-23479D01*
X32282Y-23460D01*
X32281Y-23459D01*
X32280Y-23459D01*
X32245Y-23448D01*
X32142Y-23345D01*
X32153Y-23300D01*
X32154Y-23210D01*
X32139Y-23132D01*
X32108Y-23059D01*
X32096Y-23042D01*
X32402Y-23042D01*
X32394Y-23055D01*
X32363Y-23128D01*
X32347Y-23205D01*
X32345Y-23284D01*
X32360Y-23362D01*
X32389Y-23436D01*
X32432Y-23502D01*
X32487Y-23559D01*
X32552Y-23605D01*
X32625Y-23636D01*
X32702Y-23653D01*
X32782Y-23655D01*
X32846Y-23643D01*
X32902Y-23698D01*
X32887Y-23714D01*
X32873Y-23735D01*
X32863Y-23758D01*
X32858Y-23783D01*
X32858Y-23808D01*
X32858Y-24517D01*
X32863Y-24542D01*
X32873Y-24565D01*
X32887Y-24586D01*
X32905Y-24604D01*
X32926Y-24618D01*
X32949Y-24628D01*
X32974Y-24633D01*
X32999Y-24633D01*
X33018Y-24633D01*
X33018Y-24633D01*
G37*
X33018Y-24633D02*
X32982Y-24669D01*
X32977Y-24674D01*
X32975Y-24676D01*
X32856Y-24676D01*
X32831Y-24681D01*
X32808Y-24691D01*
X32787Y-24705D01*
X32769Y-24723D01*
X32755Y-24744D01*
X32750Y-24755D01*
X32745Y-24744D01*
X32731Y-24723D01*
X32713Y-24705D01*
X32692Y-24691D01*
X32669Y-24681D01*
X32644Y-24676D01*
X32619Y-24676D01*
X32586Y-24676D01*
X32586Y-24664D01*
X32586Y-24662D01*
X32582Y-24624D01*
X32582Y-24621D01*
X32579Y-24614D01*
X32595Y-24604D01*
X32613Y-24586D01*
X32627Y-24565D01*
X32637Y-24542D01*
X32642Y-24517D01*
X32642Y-24492D01*
X32642Y-23783D01*
X32637Y-23758D01*
X32627Y-23735D01*
X32613Y-23714D01*
X32595Y-23696D01*
X32574Y-23682D01*
X32551Y-23672D01*
X32526Y-23667D01*
X32501Y-23667D01*
X32409Y-23667D01*
X32409Y-23654D01*
X32409Y-23653D01*
X32405Y-23614D01*
X32405Y-23612D01*
X32399Y-23595D01*
X32394Y-23574D01*
X32393Y-23573D01*
X32375Y-23538D01*
X32374Y-23537D01*
X32349Y-23506D01*
X32348Y-23505D01*
X32341Y-23500D01*
X32318Y-23480D01*
X32316Y-23479D01*
X32282Y-23460D01*
X32281Y-23459D01*
X32280Y-23459D01*
X32245Y-23448D01*
X32142Y-23345D01*
X32153Y-23300D01*
X32154Y-23210D01*
X32139Y-23132D01*
X32108Y-23059D01*
X32096Y-23042D01*
X32402Y-23042D01*
X32394Y-23055D01*
X32363Y-23128D01*
X32347Y-23205D01*
X32345Y-23284D01*
X32360Y-23362D01*
X32389Y-23436D01*
X32432Y-23502D01*
X32487Y-23559D01*
X32552Y-23605D01*
X32625Y-23636D01*
X32702Y-23653D01*
X32782Y-23655D01*
X32846Y-23643D01*
X32902Y-23698D01*
X32887Y-23714D01*
X32873Y-23735D01*
X32863Y-23758D01*
X32858Y-23783D01*
X32858Y-23808D01*
X32858Y-24517D01*
X32863Y-24542D01*
X32873Y-24565D01*
X32887Y-24586D01*
X32905Y-24604D01*
X32926Y-24618D01*
X32949Y-24628D01*
X32974Y-24633D01*
X32999Y-24633D01*
X33018Y-24633D01*
G36*
X33072Y-32851D02*
X32530Y-32851D01*
X32394Y-32715D01*
X32936Y-32715D01*
X33072Y-32851D01*
X33072Y-32851D01*
G37*
X33072Y-32851D02*
X32530Y-32851D01*
X32394Y-32715D01*
X32936Y-32715D01*
X33072Y-32851D01*
G36*
X33152Y-33171D02*
X33134Y-33186D01*
X33130Y-33191D01*
X32970Y-33351D01*
X32289Y-33351D01*
X32289Y-33169D01*
X32284Y-33144D01*
X32274Y-33121D01*
X32260Y-33100D01*
X32242Y-33082D01*
X32221Y-33068D01*
X32198Y-33058D01*
X32173Y-33053D01*
X32148Y-33053D01*
X31361Y-33053D01*
X31361Y-33047D01*
X32173Y-33047D01*
X32198Y-33042D01*
X32221Y-33032D01*
X32242Y-33018D01*
X32243Y-33016D01*
X32350Y-33123D01*
X32351Y-33124D01*
X32374Y-33143D01*
X32375Y-33144D01*
X32401Y-33158D01*
X32402Y-33159D01*
X32417Y-33163D01*
X32431Y-33168D01*
X32433Y-33168D01*
X32462Y-33171D01*
X32463Y-33171D01*
X32464Y-33171D01*
X33152Y-33171D01*
X33152Y-33171D01*
G37*
X33152Y-33171D02*
X33134Y-33186D01*
X33130Y-33191D01*
X32970Y-33351D01*
X32289Y-33351D01*
X32289Y-33169D01*
X32284Y-33144D01*
X32274Y-33121D01*
X32260Y-33100D01*
X32242Y-33082D01*
X32221Y-33068D01*
X32198Y-33058D01*
X32173Y-33053D01*
X32148Y-33053D01*
X31361Y-33053D01*
X31361Y-33047D01*
X32173Y-33047D01*
X32198Y-33042D01*
X32221Y-33032D01*
X32242Y-33018D01*
X32243Y-33016D01*
X32350Y-33123D01*
X32351Y-33124D01*
X32374Y-33143D01*
X32375Y-33144D01*
X32401Y-33158D01*
X32402Y-33159D01*
X32417Y-33163D01*
X32431Y-33168D01*
X32433Y-33168D01*
X32462Y-33171D01*
X32463Y-33171D01*
X32464Y-33171D01*
X33152Y-33171D01*
G36*
X33161Y-21856D02*
X33135Y-21861D01*
X33062Y-21890D01*
X32995Y-21934D01*
X32939Y-21989D01*
X32894Y-22055D01*
X32863Y-22128D01*
X32847Y-22205D01*
X32845Y-22284D01*
X32860Y-22362D01*
X32874Y-22399D01*
X32764Y-22509D01*
X32562Y-22509D01*
X32603Y-22450D01*
X32635Y-22378D01*
X32653Y-22300D01*
X32654Y-22210D01*
X32639Y-22132D01*
X32608Y-22059D01*
X32564Y-21993D01*
X32508Y-21937D01*
X32443Y-21893D01*
X32370Y-21862D01*
X32292Y-21846D01*
X32213Y-21846D01*
X32135Y-21861D01*
X32062Y-21890D01*
X31995Y-21934D01*
X31939Y-21989D01*
X31894Y-22055D01*
X31863Y-22128D01*
X31847Y-22205D01*
X31845Y-22284D01*
X31860Y-22362D01*
X31889Y-22436D01*
X31932Y-22502D01*
X31938Y-22509D01*
X31650Y-22509D01*
X31643Y-22502D01*
X31695Y-22488D01*
X31733Y-22396D01*
X31752Y-22299D01*
X31752Y-22201D01*
X31733Y-22104D01*
X31695Y-22012D01*
X31612Y-21987D01*
X31580Y-22018D01*
X31564Y-21993D01*
X31508Y-21937D01*
X31481Y-21919D01*
X31513Y-21888D01*
X31488Y-21805D01*
X31471Y-21798D01*
X33103Y-21798D01*
X33161Y-21856D01*
X33161Y-21856D01*
G37*
X33161Y-21856D02*
X33135Y-21861D01*
X33062Y-21890D01*
X32995Y-21934D01*
X32939Y-21989D01*
X32894Y-22055D01*
X32863Y-22128D01*
X32847Y-22205D01*
X32845Y-22284D01*
X32860Y-22362D01*
X32874Y-22399D01*
X32764Y-22509D01*
X32562Y-22509D01*
X32603Y-22450D01*
X32635Y-22378D01*
X32653Y-22300D01*
X32654Y-22210D01*
X32639Y-22132D01*
X32608Y-22059D01*
X32564Y-21993D01*
X32508Y-21937D01*
X32443Y-21893D01*
X32370Y-21862D01*
X32292Y-21846D01*
X32213Y-21846D01*
X32135Y-21861D01*
X32062Y-21890D01*
X31995Y-21934D01*
X31939Y-21989D01*
X31894Y-22055D01*
X31863Y-22128D01*
X31847Y-22205D01*
X31845Y-22284D01*
X31860Y-22362D01*
X31889Y-22436D01*
X31932Y-22502D01*
X31938Y-22509D01*
X31650Y-22509D01*
X31643Y-22502D01*
X31695Y-22488D01*
X31733Y-22396D01*
X31752Y-22299D01*
X31752Y-22201D01*
X31733Y-22104D01*
X31695Y-22012D01*
X31612Y-21987D01*
X31580Y-22018D01*
X31564Y-21993D01*
X31508Y-21937D01*
X31481Y-21919D01*
X31513Y-21888D01*
X31488Y-21805D01*
X31471Y-21798D01*
X33103Y-21798D01*
X33161Y-21856D01*
G36*
X33346Y-23447D02*
X33343Y-23447D01*
X33312Y-23443D01*
X33304Y-23443D01*
X33302Y-23443D01*
X33301Y-23443D01*
X33239Y-23443D01*
X33142Y-23345D01*
X33153Y-23300D01*
X33153Y-23247D01*
X33268Y-23362D01*
X33269Y-23363D01*
X33292Y-23382D01*
X33293Y-23383D01*
X33305Y-23389D01*
X33319Y-23397D01*
X33320Y-23397D01*
X33346Y-23406D01*
X33346Y-23447D01*
X33346Y-23447D01*
G37*
X33346Y-23447D02*
X33343Y-23447D01*
X33312Y-23443D01*
X33304Y-23443D01*
X33302Y-23443D01*
X33301Y-23443D01*
X33239Y-23443D01*
X33142Y-23345D01*
X33153Y-23300D01*
X33153Y-23247D01*
X33268Y-23362D01*
X33269Y-23363D01*
X33292Y-23382D01*
X33293Y-23383D01*
X33305Y-23389D01*
X33319Y-23397D01*
X33320Y-23397D01*
X33346Y-23406D01*
X33346Y-23447D01*
G36*
X33434Y-30006D02*
X33013Y-30006D01*
X32988Y-30011D01*
X32965Y-30021D01*
X32944Y-30035D01*
X32926Y-30053D01*
X32912Y-30074D01*
X32902Y-30097D01*
X32897Y-30122D01*
X32897Y-30147D01*
X32897Y-30294D01*
X32872Y-30302D01*
X32858Y-30309D01*
X32845Y-30316D01*
X32840Y-30320D01*
X32820Y-30336D01*
X32816Y-30341D01*
X32473Y-30684D01*
X32406Y-30684D01*
X32406Y-30595D01*
X32401Y-30570D01*
X32391Y-30547D01*
X32377Y-30526D01*
X32359Y-30508D01*
X32338Y-30494D01*
X32315Y-30484D01*
X32290Y-30479D01*
X32265Y-30479D01*
X32170Y-30479D01*
X32173Y-30475D01*
X32174Y-30474D01*
X32180Y-30462D01*
X32188Y-30448D01*
X32188Y-30447D01*
X32196Y-30421D01*
X32197Y-30421D01*
X32290Y-30421D01*
X32315Y-30416D01*
X32338Y-30406D01*
X32359Y-30392D01*
X32377Y-30374D01*
X32391Y-30353D01*
X32401Y-30330D01*
X32406Y-30305D01*
X32406Y-30280D01*
X32406Y-29807D01*
X32401Y-29782D01*
X32391Y-29759D01*
X32377Y-29738D01*
X32359Y-29720D01*
X32338Y-29706D01*
X32315Y-29696D01*
X32290Y-29691D01*
X32265Y-29691D01*
X31792Y-29691D01*
X31767Y-29696D01*
X31744Y-29706D01*
X31723Y-29720D01*
X31705Y-29738D01*
X31691Y-29759D01*
X31681Y-29782D01*
X31676Y-29807D01*
X31676Y-29832D01*
X31676Y-30229D01*
X31651Y-30237D01*
X31637Y-30244D01*
X31624Y-30251D01*
X31619Y-30255D01*
X31599Y-30271D01*
X31595Y-30276D01*
X31491Y-30380D01*
X31490Y-30381D01*
X31470Y-30405D01*
X31455Y-30432D01*
X31450Y-30447D01*
X31446Y-30461D01*
X31445Y-30468D01*
X31442Y-30493D01*
X31443Y-30501D01*
X31443Y-30938D01*
X31442Y-30939D01*
X31407Y-30974D01*
X31378Y-31016D01*
X31361Y-31057D01*
X31361Y-28035D01*
X32132Y-27264D01*
X32199Y-27279D01*
X32283Y-27281D01*
X32366Y-27266D01*
X32368Y-27265D01*
X32543Y-27440D01*
X32544Y-27441D01*
X32545Y-27442D01*
X32551Y-27447D01*
X32575Y-27467D01*
X32577Y-27468D01*
X32611Y-27487D01*
X32613Y-27487D01*
X32650Y-27499D01*
X32652Y-27499D01*
X32691Y-27504D01*
X32694Y-27504D01*
X32992Y-27504D01*
X32979Y-27513D01*
X32919Y-27572D01*
X32871Y-27642D01*
X32838Y-27719D01*
X32821Y-27802D01*
X32819Y-27886D01*
X32835Y-27969D01*
X32866Y-28047D01*
X32911Y-28118D01*
X32932Y-28140D01*
X32752Y-28140D01*
X32750Y-28140D01*
X32709Y-28144D01*
X32683Y-28151D01*
X32672Y-28155D01*
X32670Y-28155D01*
X32670Y-28156D01*
X32634Y-28175D01*
X32616Y-28189D01*
X32604Y-28199D01*
X32602Y-28201D01*
X32601Y-28202D01*
X32368Y-28435D01*
X32295Y-28420D01*
X32211Y-28420D01*
X32128Y-28435D01*
X32050Y-28467D01*
X31979Y-28513D01*
X31919Y-28572D01*
X31871Y-28642D01*
X31848Y-28695D01*
X31848Y-28478D01*
X32080Y-28245D01*
X32116Y-28261D01*
X32199Y-28279D01*
X32283Y-28281D01*
X32366Y-28266D01*
X32445Y-28236D01*
X32516Y-28191D01*
X32577Y-28132D01*
X32626Y-28064D01*
X32660Y-27987D01*
X32679Y-27904D01*
X32680Y-27808D01*
X32664Y-27725D01*
X32632Y-27647D01*
X32585Y-27577D01*
X32526Y-27517D01*
X32456Y-27470D01*
X32378Y-27437D01*
X32295Y-27420D01*
X32211Y-27420D01*
X32128Y-27435D01*
X32050Y-27467D01*
X31979Y-27513D01*
X31919Y-27572D01*
X31871Y-27642D01*
X31838Y-27719D01*
X31821Y-27802D01*
X31819Y-27886D01*
X31835Y-27969D01*
X31854Y-28018D01*
X31575Y-28299D01*
X31555Y-28323D01*
X31540Y-28350D01*
X31535Y-28365D01*
X31531Y-28379D01*
X31530Y-28386D01*
X31527Y-28411D01*
X31528Y-28419D01*
X31528Y-28854D01*
X31528Y-28855D01*
X31531Y-28886D01*
X31540Y-28916D01*
X31549Y-28934D01*
X31554Y-28943D01*
X31555Y-28944D01*
X31573Y-28967D01*
X31574Y-28968D01*
X31575Y-28968D01*
X31578Y-28971D01*
X32025Y-29419D01*
X32049Y-29438D01*
X32076Y-29453D01*
X32077Y-29453D01*
X32106Y-29463D01*
X32137Y-29466D01*
X32138Y-29466D01*
X32139Y-29466D01*
X32894Y-29466D01*
X33434Y-30006D01*
X33434Y-30006D01*
G37*
X33434Y-30006D02*
X33013Y-30006D01*
X32988Y-30011D01*
X32965Y-30021D01*
X32944Y-30035D01*
X32926Y-30053D01*
X32912Y-30074D01*
X32902Y-30097D01*
X32897Y-30122D01*
X32897Y-30147D01*
X32897Y-30294D01*
X32872Y-30302D01*
X32858Y-30309D01*
X32845Y-30316D01*
X32840Y-30320D01*
X32820Y-30336D01*
X32816Y-30341D01*
X32473Y-30684D01*
X32406Y-30684D01*
X32406Y-30595D01*
X32401Y-30570D01*
X32391Y-30547D01*
X32377Y-30526D01*
X32359Y-30508D01*
X32338Y-30494D01*
X32315Y-30484D01*
X32290Y-30479D01*
X32265Y-30479D01*
X32170Y-30479D01*
X32173Y-30475D01*
X32174Y-30474D01*
X32180Y-30462D01*
X32188Y-30448D01*
X32188Y-30447D01*
X32196Y-30421D01*
X32197Y-30421D01*
X32290Y-30421D01*
X32315Y-30416D01*
X32338Y-30406D01*
X32359Y-30392D01*
X32377Y-30374D01*
X32391Y-30353D01*
X32401Y-30330D01*
X32406Y-30305D01*
X32406Y-30280D01*
X32406Y-29807D01*
X32401Y-29782D01*
X32391Y-29759D01*
X32377Y-29738D01*
X32359Y-29720D01*
X32338Y-29706D01*
X32315Y-29696D01*
X32290Y-29691D01*
X32265Y-29691D01*
X31792Y-29691D01*
X31767Y-29696D01*
X31744Y-29706D01*
X31723Y-29720D01*
X31705Y-29738D01*
X31691Y-29759D01*
X31681Y-29782D01*
X31676Y-29807D01*
X31676Y-29832D01*
X31676Y-30229D01*
X31651Y-30237D01*
X31637Y-30244D01*
X31624Y-30251D01*
X31619Y-30255D01*
X31599Y-30271D01*
X31595Y-30276D01*
X31491Y-30380D01*
X31490Y-30381D01*
X31470Y-30405D01*
X31455Y-30432D01*
X31450Y-30447D01*
X31446Y-30461D01*
X31445Y-30468D01*
X31442Y-30493D01*
X31443Y-30501D01*
X31443Y-30938D01*
X31442Y-30939D01*
X31407Y-30974D01*
X31378Y-31016D01*
X31361Y-31057D01*
X31361Y-28035D01*
X32132Y-27264D01*
X32199Y-27279D01*
X32283Y-27281D01*
X32366Y-27266D01*
X32368Y-27265D01*
X32543Y-27440D01*
X32544Y-27441D01*
X32545Y-27442D01*
X32551Y-27447D01*
X32575Y-27467D01*
X32577Y-27468D01*
X32611Y-27487D01*
X32613Y-27487D01*
X32650Y-27499D01*
X32652Y-27499D01*
X32691Y-27504D01*
X32694Y-27504D01*
X32992Y-27504D01*
X32979Y-27513D01*
X32919Y-27572D01*
X32871Y-27642D01*
X32838Y-27719D01*
X32821Y-27802D01*
X32819Y-27886D01*
X32835Y-27969D01*
X32866Y-28047D01*
X32911Y-28118D01*
X32932Y-28140D01*
X32752Y-28140D01*
X32750Y-28140D01*
X32709Y-28144D01*
X32683Y-28151D01*
X32672Y-28155D01*
X32670Y-28155D01*
X32670Y-28156D01*
X32634Y-28175D01*
X32616Y-28189D01*
X32604Y-28199D01*
X32602Y-28201D01*
X32601Y-28202D01*
X32368Y-28435D01*
X32295Y-28420D01*
X32211Y-28420D01*
X32128Y-28435D01*
X32050Y-28467D01*
X31979Y-28513D01*
X31919Y-28572D01*
X31871Y-28642D01*
X31848Y-28695D01*
X31848Y-28478D01*
X32080Y-28245D01*
X32116Y-28261D01*
X32199Y-28279D01*
X32283Y-28281D01*
X32366Y-28266D01*
X32445Y-28236D01*
X32516Y-28191D01*
X32577Y-28132D01*
X32626Y-28064D01*
X32660Y-27987D01*
X32679Y-27904D01*
X32680Y-27808D01*
X32664Y-27725D01*
X32632Y-27647D01*
X32585Y-27577D01*
X32526Y-27517D01*
X32456Y-27470D01*
X32378Y-27437D01*
X32295Y-27420D01*
X32211Y-27420D01*
X32128Y-27435D01*
X32050Y-27467D01*
X31979Y-27513D01*
X31919Y-27572D01*
X31871Y-27642D01*
X31838Y-27719D01*
X31821Y-27802D01*
X31819Y-27886D01*
X31835Y-27969D01*
X31854Y-28018D01*
X31575Y-28299D01*
X31555Y-28323D01*
X31540Y-28350D01*
X31535Y-28365D01*
X31531Y-28379D01*
X31530Y-28386D01*
X31527Y-28411D01*
X31528Y-28419D01*
X31528Y-28854D01*
X31528Y-28855D01*
X31531Y-28886D01*
X31540Y-28916D01*
X31549Y-28934D01*
X31554Y-28943D01*
X31555Y-28944D01*
X31573Y-28967D01*
X31574Y-28968D01*
X31575Y-28968D01*
X31578Y-28971D01*
X32025Y-29419D01*
X32049Y-29438D01*
X32076Y-29453D01*
X32077Y-29453D01*
X32106Y-29463D01*
X32137Y-29466D01*
X32138Y-29466D01*
X32139Y-29466D01*
X32894Y-29466D01*
X33434Y-30006D01*
G36*
X33484Y-21602D02*
X33481Y-21604D01*
X33446Y-21639D01*
X33425Y-21668D01*
X33359Y-21602D01*
X33484Y-21602D01*
X33484Y-21602D01*
G37*
X33484Y-21602D02*
X33481Y-21604D01*
X33446Y-21639D01*
X33425Y-21668D01*
X33359Y-21602D01*
X33484Y-21602D01*
G36*
X33845Y-31231D02*
X33844Y-31232D01*
X33809Y-31267D01*
X33780Y-31309D01*
X33761Y-31355D01*
X33750Y-31403D01*
X33750Y-31453D01*
X33759Y-31503D01*
X33777Y-31549D01*
X33779Y-31553D01*
X33418Y-31553D01*
X33823Y-31148D01*
X33824Y-31147D01*
X33843Y-31124D01*
X33844Y-31123D01*
X33845Y-31121D01*
X33845Y-31231D01*
X33845Y-31231D01*
G37*
X33845Y-31231D02*
X33844Y-31232D01*
X33809Y-31267D01*
X33780Y-31309D01*
X33761Y-31355D01*
X33750Y-31403D01*
X33750Y-31453D01*
X33759Y-31503D01*
X33777Y-31549D01*
X33779Y-31553D01*
X33418Y-31553D01*
X33823Y-31148D01*
X33824Y-31147D01*
X33843Y-31124D01*
X33844Y-31123D01*
X33845Y-31121D01*
X33845Y-31231D01*
G36*
X34139Y-30546D02*
X34127Y-30538D01*
X34081Y-30518D01*
X34032Y-30508D01*
X33982Y-30508D01*
X33933Y-30517D01*
X33886Y-30536D01*
X33871Y-30545D01*
X33871Y-30058D01*
X33871Y-30057D01*
X33868Y-30027D01*
X33868Y-30026D01*
X33859Y-29998D01*
X33859Y-29996D01*
X33849Y-29977D01*
X33845Y-29969D01*
X33844Y-29968D01*
X33840Y-29964D01*
X33825Y-29945D01*
X33825Y-29944D01*
X33820Y-29940D01*
X33147Y-29267D01*
X33199Y-29279D01*
X33283Y-29281D01*
X33366Y-29266D01*
X33445Y-29236D01*
X33516Y-29191D01*
X33577Y-29132D01*
X33626Y-29064D01*
X33660Y-28987D01*
X33679Y-28904D01*
X33680Y-28808D01*
X33664Y-28725D01*
X34139Y-29199D01*
X34139Y-30539D01*
X34139Y-30546D01*
X34139Y-30546D01*
G37*
X34139Y-30546D02*
X34127Y-30538D01*
X34081Y-30518D01*
X34032Y-30508D01*
X33982Y-30508D01*
X33933Y-30517D01*
X33886Y-30536D01*
X33871Y-30545D01*
X33871Y-30058D01*
X33871Y-30057D01*
X33868Y-30027D01*
X33868Y-30026D01*
X33859Y-29998D01*
X33859Y-29996D01*
X33849Y-29977D01*
X33845Y-29969D01*
X33844Y-29968D01*
X33840Y-29964D01*
X33825Y-29945D01*
X33825Y-29944D01*
X33820Y-29940D01*
X33147Y-29267D01*
X33199Y-29279D01*
X33283Y-29281D01*
X33366Y-29266D01*
X33445Y-29236D01*
X33516Y-29191D01*
X33577Y-29132D01*
X33626Y-29064D01*
X33660Y-28987D01*
X33679Y-28904D01*
X33680Y-28808D01*
X33664Y-28725D01*
X34139Y-29199D01*
X34139Y-30539D01*
X34139Y-30546D01*
G36*
X34197Y-20628D02*
X33918Y-20628D01*
X33856Y-20566D01*
X33855Y-20565D01*
X33831Y-20545D01*
X33830Y-20544D01*
X33805Y-20531D01*
X33802Y-20529D01*
X33801Y-20528D01*
X33800Y-20528D01*
X33769Y-20518D01*
X33740Y-20515D01*
X33737Y-20515D01*
X33736Y-20515D01*
X33735Y-20515D01*
X31739Y-20515D01*
X31992Y-20262D01*
X31992Y-20308D01*
X31997Y-20333D01*
X32007Y-20356D01*
X32021Y-20377D01*
X32039Y-20395D01*
X32060Y-20409D01*
X32083Y-20419D01*
X32108Y-20424D01*
X32133Y-20424D01*
X32644Y-20424D01*
X32669Y-20419D01*
X32692Y-20409D01*
X32713Y-20395D01*
X32731Y-20377D01*
X32745Y-20356D01*
X32750Y-20344D01*
X32755Y-20356D01*
X32769Y-20377D01*
X32787Y-20395D01*
X32808Y-20409D01*
X32831Y-20419D01*
X32856Y-20424D01*
X32881Y-20424D01*
X33392Y-20424D01*
X33417Y-20419D01*
X33440Y-20409D01*
X33461Y-20395D01*
X33479Y-20377D01*
X33493Y-20356D01*
X33503Y-20333D01*
X33508Y-20308D01*
X33508Y-20283D01*
X33508Y-20160D01*
X33811Y-20160D01*
X34190Y-20538D01*
X34190Y-20588D01*
X34197Y-20628D01*
X34197Y-20628D01*
G37*
X34197Y-20628D02*
X33918Y-20628D01*
X33856Y-20566D01*
X33855Y-20565D01*
X33831Y-20545D01*
X33830Y-20544D01*
X33805Y-20531D01*
X33802Y-20529D01*
X33801Y-20528D01*
X33800Y-20528D01*
X33769Y-20518D01*
X33740Y-20515D01*
X33737Y-20515D01*
X33736Y-20515D01*
X33735Y-20515D01*
X31739Y-20515D01*
X31992Y-20262D01*
X31992Y-20308D01*
X31997Y-20333D01*
X32007Y-20356D01*
X32021Y-20377D01*
X32039Y-20395D01*
X32060Y-20409D01*
X32083Y-20419D01*
X32108Y-20424D01*
X32133Y-20424D01*
X32644Y-20424D01*
X32669Y-20419D01*
X32692Y-20409D01*
X32713Y-20395D01*
X32731Y-20377D01*
X32745Y-20356D01*
X32750Y-20344D01*
X32755Y-20356D01*
X32769Y-20377D01*
X32787Y-20395D01*
X32808Y-20409D01*
X32831Y-20419D01*
X32856Y-20424D01*
X32881Y-20424D01*
X33392Y-20424D01*
X33417Y-20419D01*
X33440Y-20409D01*
X33461Y-20395D01*
X33479Y-20377D01*
X33493Y-20356D01*
X33503Y-20333D01*
X33508Y-20308D01*
X33508Y-20283D01*
X33508Y-20160D01*
X33811Y-20160D01*
X34190Y-20538D01*
X34190Y-20588D01*
X34197Y-20628D01*
G36*
X34316Y-28327D02*
X33727Y-27738D01*
X33726Y-27737D01*
X33703Y-27718D01*
X33702Y-27717D01*
X33676Y-27703D01*
X33675Y-27702D01*
X33659Y-27697D01*
X33651Y-27694D01*
X33632Y-27647D01*
X33585Y-27577D01*
X33526Y-27517D01*
X33506Y-27504D01*
X34316Y-27504D01*
X34316Y-28327D01*
X34316Y-28327D01*
G37*
X34316Y-28327D02*
X33727Y-27738D01*
X33726Y-27737D01*
X33703Y-27718D01*
X33702Y-27717D01*
X33676Y-27703D01*
X33675Y-27702D01*
X33659Y-27697D01*
X33651Y-27694D01*
X33632Y-27647D01*
X33585Y-27577D01*
X33526Y-27517D01*
X33506Y-27504D01*
X34316Y-27504D01*
X34316Y-28327D01*
G36*
X34600Y-34970D02*
X34558Y-35012D01*
X34294Y-35012D01*
X34306Y-35000D01*
X34320Y-34979D01*
X34323Y-34970D01*
X34600Y-34970D01*
X34600Y-34970D01*
G37*
X34600Y-34970D02*
X34558Y-35012D01*
X34294Y-35012D01*
X34306Y-35000D01*
X34320Y-34979D01*
X34323Y-34970D01*
X34600Y-34970D01*
G36*
X34696Y-35977D02*
X34668Y-35985D01*
X34157Y-36087D01*
X32801Y-36230D01*
X32755Y-36230D01*
X31376Y-36094D01*
X30872Y-35993D01*
X29560Y-35597D01*
X28353Y-34956D01*
X27906Y-34660D01*
X26847Y-33797D01*
X25959Y-32724D01*
X25664Y-32277D01*
X25026Y-31098D01*
X24614Y-29768D01*
X24512Y-29257D01*
X24370Y-27910D01*
X24370Y-27901D01*
X24370Y-27856D01*
X24370Y-27850D01*
X24505Y-26475D01*
X24513Y-26438D01*
X24513Y-28957D01*
X24513Y-28958D01*
X24516Y-28991D01*
X24521Y-29009D01*
X24525Y-29021D01*
X24525Y-29022D01*
X24526Y-29023D01*
X24541Y-29052D01*
X24557Y-29072D01*
X24561Y-29077D01*
X24562Y-29078D01*
X24563Y-29078D01*
X24567Y-29082D01*
X25226Y-29741D01*
X25226Y-29777D01*
X25235Y-29827D01*
X25253Y-29873D01*
X25280Y-29915D01*
X25315Y-29951D01*
X25356Y-29980D01*
X25402Y-30000D01*
X25451Y-30010D01*
X25501Y-30011D01*
X25550Y-30003D01*
X25597Y-29985D01*
X25639Y-29958D01*
X25675Y-29923D01*
X25704Y-29883D01*
X25724Y-29837D01*
X25735Y-29788D01*
X25736Y-29731D01*
X25726Y-29682D01*
X25707Y-29636D01*
X25680Y-29594D01*
X25644Y-29559D01*
X25603Y-29531D01*
X25557Y-29511D01*
X25508Y-29501D01*
X25466Y-29501D01*
X25400Y-29435D01*
X25431Y-29435D01*
X25456Y-29430D01*
X25479Y-29420D01*
X25500Y-29406D01*
X25518Y-29388D01*
X25532Y-29367D01*
X25542Y-29344D01*
X25547Y-29319D01*
X25547Y-29294D01*
X25547Y-28549D01*
X25553Y-28549D01*
X25553Y-29319D01*
X25558Y-29344D01*
X25568Y-29367D01*
X25582Y-29388D01*
X25600Y-29406D01*
X25621Y-29420D01*
X25644Y-29430D01*
X25669Y-29435D01*
X25694Y-29435D01*
X25767Y-29435D01*
X25767Y-29438D01*
X25767Y-29488D01*
X25776Y-29538D01*
X25794Y-29584D01*
X25821Y-29626D01*
X25856Y-29662D01*
X25897Y-29691D01*
X25943Y-29711D01*
X25992Y-29721D01*
X26042Y-29722D01*
X26091Y-29714D01*
X26130Y-29699D01*
X26130Y-30606D01*
X26130Y-30607D01*
X26133Y-30640D01*
X26138Y-30658D01*
X26142Y-30670D01*
X26142Y-30671D01*
X26143Y-30672D01*
X26158Y-30701D01*
X26174Y-30721D01*
X26178Y-30726D01*
X26179Y-30727D01*
X26180Y-30727D01*
X26184Y-30731D01*
X26855Y-31402D01*
X26841Y-31405D01*
X26794Y-31424D01*
X26752Y-31451D01*
X26717Y-31486D01*
X26688Y-31528D01*
X26669Y-31574D01*
X26658Y-31622D01*
X26658Y-31672D01*
X26667Y-31722D01*
X26685Y-31768D01*
X26712Y-31810D01*
X26747Y-31846D01*
X26775Y-31866D01*
X26779Y-31873D01*
X26780Y-31874D01*
X26798Y-31897D01*
X26799Y-31898D01*
X26800Y-31898D01*
X26803Y-31901D01*
X27501Y-32599D01*
X27425Y-32676D01*
X27411Y-32697D01*
X27401Y-32720D01*
X27396Y-32745D01*
X27396Y-32770D01*
X27401Y-32795D01*
X27405Y-32805D01*
X27395Y-32801D01*
X27370Y-32796D01*
X27345Y-32796D01*
X27320Y-32801D01*
X27297Y-32811D01*
X27276Y-32825D01*
X27258Y-32842D01*
X27234Y-32865D01*
X26492Y-32124D01*
X26491Y-32123D01*
X26491Y-32121D01*
X26457Y-32071D01*
X26415Y-32029D01*
X26366Y-31995D01*
X26311Y-31972D01*
X26252Y-31960D01*
X26192Y-31960D01*
X26133Y-31971D01*
X26078Y-31993D01*
X26028Y-32026D01*
X25985Y-32068D01*
X25951Y-32117D01*
X25928Y-32172D01*
X25915Y-32231D01*
X25915Y-32291D01*
X25925Y-32350D01*
X25947Y-32405D01*
X25980Y-32455D01*
X26021Y-32498D01*
X26071Y-32533D01*
X26125Y-32557D01*
X26184Y-32569D01*
X26244Y-32571D01*
X26303Y-32560D01*
X26326Y-32550D01*
X26938Y-33162D01*
X26897Y-33204D01*
X26883Y-33225D01*
X26873Y-33248D01*
X26868Y-33273D01*
X26868Y-33298D01*
X26873Y-33323D01*
X26883Y-33347D01*
X26897Y-33368D01*
X26914Y-33385D01*
X27332Y-33803D01*
X27353Y-33817D01*
X27377Y-33827D01*
X27402Y-33832D01*
X27427Y-33832D01*
X27452Y-33827D01*
X27475Y-33817D01*
X27496Y-33803D01*
X27514Y-33786D01*
X27875Y-33424D01*
X27889Y-33403D01*
X27899Y-33380D01*
X27904Y-33355D01*
X27904Y-33330D01*
X27899Y-33305D01*
X27894Y-33294D01*
X27905Y-33299D01*
X27930Y-33304D01*
X27955Y-33304D01*
X27980Y-33299D01*
X28003Y-33289D01*
X28024Y-33275D01*
X28042Y-33258D01*
X28376Y-32923D01*
X28974Y-33521D01*
X28974Y-33902D01*
X28974Y-33903D01*
X28977Y-33936D01*
X28982Y-33954D01*
X28986Y-33966D01*
X28986Y-33967D01*
X28987Y-33968D01*
X29002Y-33997D01*
X29018Y-34017D01*
X29022Y-34022D01*
X29023Y-34023D01*
X29024Y-34023D01*
X29028Y-34027D01*
X30927Y-35927D01*
X30952Y-35947D01*
X30953Y-35948D01*
X30981Y-35963D01*
X30982Y-35964D01*
X31004Y-35970D01*
X31013Y-35973D01*
X31014Y-35973D01*
X31046Y-35977D01*
X31047Y-35977D01*
X31048Y-35977D01*
X34696Y-35977D01*
X34696Y-35977D01*
G37*
X34696Y-35977D02*
X34668Y-35985D01*
X34157Y-36087D01*
X32801Y-36230D01*
X32755Y-36230D01*
X31376Y-36094D01*
X30872Y-35993D01*
X29560Y-35597D01*
X28353Y-34956D01*
X27906Y-34660D01*
X26847Y-33797D01*
X25959Y-32724D01*
X25664Y-32277D01*
X25026Y-31098D01*
X24614Y-29768D01*
X24512Y-29257D01*
X24370Y-27910D01*
X24370Y-27901D01*
X24370Y-27856D01*
X24370Y-27850D01*
X24505Y-26475D01*
X24513Y-26438D01*
X24513Y-28957D01*
X24513Y-28958D01*
X24516Y-28991D01*
X24521Y-29009D01*
X24525Y-29021D01*
X24525Y-29022D01*
X24526Y-29023D01*
X24541Y-29052D01*
X24557Y-29072D01*
X24561Y-29077D01*
X24562Y-29078D01*
X24563Y-29078D01*
X24567Y-29082D01*
X25226Y-29741D01*
X25226Y-29777D01*
X25235Y-29827D01*
X25253Y-29873D01*
X25280Y-29915D01*
X25315Y-29951D01*
X25356Y-29980D01*
X25402Y-30000D01*
X25451Y-30010D01*
X25501Y-30011D01*
X25550Y-30003D01*
X25597Y-29985D01*
X25639Y-29958D01*
X25675Y-29923D01*
X25704Y-29883D01*
X25724Y-29837D01*
X25735Y-29788D01*
X25736Y-29731D01*
X25726Y-29682D01*
X25707Y-29636D01*
X25680Y-29594D01*
X25644Y-29559D01*
X25603Y-29531D01*
X25557Y-29511D01*
X25508Y-29501D01*
X25466Y-29501D01*
X25400Y-29435D01*
X25431Y-29435D01*
X25456Y-29430D01*
X25479Y-29420D01*
X25500Y-29406D01*
X25518Y-29388D01*
X25532Y-29367D01*
X25542Y-29344D01*
X25547Y-29319D01*
X25547Y-29294D01*
X25547Y-28549D01*
X25553Y-28549D01*
X25553Y-29319D01*
X25558Y-29344D01*
X25568Y-29367D01*
X25582Y-29388D01*
X25600Y-29406D01*
X25621Y-29420D01*
X25644Y-29430D01*
X25669Y-29435D01*
X25694Y-29435D01*
X25767Y-29435D01*
X25767Y-29438D01*
X25767Y-29488D01*
X25776Y-29538D01*
X25794Y-29584D01*
X25821Y-29626D01*
X25856Y-29662D01*
X25897Y-29691D01*
X25943Y-29711D01*
X25992Y-29721D01*
X26042Y-29722D01*
X26091Y-29714D01*
X26130Y-29699D01*
X26130Y-30606D01*
X26130Y-30607D01*
X26133Y-30640D01*
X26138Y-30658D01*
X26142Y-30670D01*
X26142Y-30671D01*
X26143Y-30672D01*
X26158Y-30701D01*
X26174Y-30721D01*
X26178Y-30726D01*
X26179Y-30727D01*
X26180Y-30727D01*
X26184Y-30731D01*
X26855Y-31402D01*
X26841Y-31405D01*
X26794Y-31424D01*
X26752Y-31451D01*
X26717Y-31486D01*
X26688Y-31528D01*
X26669Y-31574D01*
X26658Y-31622D01*
X26658Y-31672D01*
X26667Y-31722D01*
X26685Y-31768D01*
X26712Y-31810D01*
X26747Y-31846D01*
X26775Y-31866D01*
X26779Y-31873D01*
X26780Y-31874D01*
X26798Y-31897D01*
X26799Y-31898D01*
X26800Y-31898D01*
X26803Y-31901D01*
X27501Y-32599D01*
X27425Y-32676D01*
X27411Y-32697D01*
X27401Y-32720D01*
X27396Y-32745D01*
X27396Y-32770D01*
X27401Y-32795D01*
X27405Y-32805D01*
X27395Y-32801D01*
X27370Y-32796D01*
X27345Y-32796D01*
X27320Y-32801D01*
X27297Y-32811D01*
X27276Y-32825D01*
X27258Y-32842D01*
X27234Y-32865D01*
X26492Y-32124D01*
X26491Y-32123D01*
X26491Y-32121D01*
X26457Y-32071D01*
X26415Y-32029D01*
X26366Y-31995D01*
X26311Y-31972D01*
X26252Y-31960D01*
X26192Y-31960D01*
X26133Y-31971D01*
X26078Y-31993D01*
X26028Y-32026D01*
X25985Y-32068D01*
X25951Y-32117D01*
X25928Y-32172D01*
X25915Y-32231D01*
X25915Y-32291D01*
X25925Y-32350D01*
X25947Y-32405D01*
X25980Y-32455D01*
X26021Y-32498D01*
X26071Y-32533D01*
X26125Y-32557D01*
X26184Y-32569D01*
X26244Y-32571D01*
X26303Y-32560D01*
X26326Y-32550D01*
X26938Y-33162D01*
X26897Y-33204D01*
X26883Y-33225D01*
X26873Y-33248D01*
X26868Y-33273D01*
X26868Y-33298D01*
X26873Y-33323D01*
X26883Y-33347D01*
X26897Y-33368D01*
X26914Y-33385D01*
X27332Y-33803D01*
X27353Y-33817D01*
X27377Y-33827D01*
X27402Y-33832D01*
X27427Y-33832D01*
X27452Y-33827D01*
X27475Y-33817D01*
X27496Y-33803D01*
X27514Y-33786D01*
X27875Y-33424D01*
X27889Y-33403D01*
X27899Y-33380D01*
X27904Y-33355D01*
X27904Y-33330D01*
X27899Y-33305D01*
X27894Y-33294D01*
X27905Y-33299D01*
X27930Y-33304D01*
X27955Y-33304D01*
X27980Y-33299D01*
X28003Y-33289D01*
X28024Y-33275D01*
X28042Y-33258D01*
X28376Y-32923D01*
X28974Y-33521D01*
X28974Y-33902D01*
X28974Y-33903D01*
X28977Y-33936D01*
X28982Y-33954D01*
X28986Y-33966D01*
X28986Y-33967D01*
X28987Y-33968D01*
X29002Y-33997D01*
X29018Y-34017D01*
X29022Y-34022D01*
X29023Y-34023D01*
X29024Y-34023D01*
X29028Y-34027D01*
X30927Y-35927D01*
X30952Y-35947D01*
X30953Y-35948D01*
X30981Y-35963D01*
X30982Y-35964D01*
X31004Y-35970D01*
X31013Y-35973D01*
X31014Y-35973D01*
X31046Y-35977D01*
X31047Y-35977D01*
X31048Y-35977D01*
X34696Y-35977D01*
G36*
X34856Y-28546D02*
X34736Y-28426D01*
X34736Y-27506D01*
X34746Y-27506D01*
X34746Y-27952D01*
X34746Y-27953D01*
X34749Y-27984D01*
X34758Y-28014D01*
X34767Y-28032D01*
X34772Y-28041D01*
X34773Y-28042D01*
X34791Y-28065D01*
X34792Y-28066D01*
X34793Y-28066D01*
X34797Y-28070D01*
X34856Y-28129D01*
X34856Y-28138D01*
X34856Y-28546D01*
X34856Y-28546D01*
G37*
X34856Y-28546D02*
X34736Y-28426D01*
X34736Y-27506D01*
X34746Y-27506D01*
X34746Y-27952D01*
X34746Y-27953D01*
X34749Y-27984D01*
X34758Y-28014D01*
X34767Y-28032D01*
X34772Y-28041D01*
X34773Y-28042D01*
X34791Y-28065D01*
X34792Y-28066D01*
X34793Y-28066D01*
X34797Y-28070D01*
X34856Y-28129D01*
X34856Y-28138D01*
X34856Y-28546D01*
G36*
X34859Y-34507D02*
X34736Y-34630D01*
X34323Y-34630D01*
X34320Y-34621D01*
X34306Y-34600D01*
X34288Y-34582D01*
X34267Y-34568D01*
X34244Y-34558D01*
X34219Y-34553D01*
X34194Y-34553D01*
X33327Y-34553D01*
X33302Y-34558D01*
X33279Y-34568D01*
X33258Y-34582D01*
X33240Y-34600D01*
X33226Y-34621D01*
X33216Y-34644D01*
X33211Y-34669D01*
X33211Y-34694D01*
X33211Y-34931D01*
X33216Y-34956D01*
X33226Y-34979D01*
X33240Y-35000D01*
X33258Y-35018D01*
X33279Y-35032D01*
X33302Y-35042D01*
X33327Y-35047D01*
X33352Y-35047D01*
X33788Y-35047D01*
X33780Y-35053D01*
X33327Y-35053D01*
X33302Y-35058D01*
X33279Y-35068D01*
X33258Y-35082D01*
X33240Y-35100D01*
X33226Y-35121D01*
X33216Y-35144D01*
X33211Y-35169D01*
X33211Y-35194D01*
X33211Y-35265D01*
X32377Y-34431D01*
X32376Y-34430D01*
X32352Y-34410D01*
X32351Y-34409D01*
X32326Y-34396D01*
X32323Y-34394D01*
X32322Y-34393D01*
X32321Y-34393D01*
X32290Y-34383D01*
X32289Y-34382D01*
X32289Y-34198D01*
X32707Y-34198D01*
X32708Y-34198D01*
X32739Y-34195D01*
X32741Y-34195D01*
X32759Y-34189D01*
X32771Y-34186D01*
X32772Y-34185D01*
X32773Y-34185D01*
X32801Y-34170D01*
X32802Y-34170D01*
X32822Y-34153D01*
X32827Y-34150D01*
X32827Y-34149D01*
X32828Y-34149D01*
X32828Y-34148D01*
X32832Y-34143D01*
X33211Y-33765D01*
X33211Y-33931D01*
X33216Y-33956D01*
X33226Y-33979D01*
X33240Y-34000D01*
X33258Y-34018D01*
X33279Y-34032D01*
X33302Y-34042D01*
X33327Y-34047D01*
X33352Y-34047D01*
X34142Y-34047D01*
X34144Y-34053D01*
X33327Y-34053D01*
X33302Y-34058D01*
X33279Y-34068D01*
X33258Y-34082D01*
X33240Y-34100D01*
X33226Y-34121D01*
X33216Y-34144D01*
X33211Y-34169D01*
X33211Y-34194D01*
X33211Y-34431D01*
X33216Y-34456D01*
X33226Y-34479D01*
X33240Y-34500D01*
X33258Y-34518D01*
X33279Y-34532D01*
X33302Y-34542D01*
X33327Y-34547D01*
X33352Y-34547D01*
X33816Y-34547D01*
X33820Y-34548D01*
X33853Y-34552D01*
X33854Y-34552D01*
X33855Y-34552D01*
X34544Y-34552D01*
X34545Y-34552D01*
X34576Y-34549D01*
X34578Y-34549D01*
X34596Y-34543D01*
X34608Y-34540D01*
X34609Y-34539D01*
X34610Y-34539D01*
X34638Y-34524D01*
X34639Y-34524D01*
X34659Y-34507D01*
X34664Y-34504D01*
X34664Y-34503D01*
X34665Y-34503D01*
X34665Y-34502D01*
X34669Y-34497D01*
X34747Y-34419D01*
X34754Y-34429D01*
X34789Y-34465D01*
X34830Y-34494D01*
X34859Y-34507D01*
X34859Y-34507D01*
G37*
X34859Y-34507D02*
X34736Y-34630D01*
X34323Y-34630D01*
X34320Y-34621D01*
X34306Y-34600D01*
X34288Y-34582D01*
X34267Y-34568D01*
X34244Y-34558D01*
X34219Y-34553D01*
X34194Y-34553D01*
X33327Y-34553D01*
X33302Y-34558D01*
X33279Y-34568D01*
X33258Y-34582D01*
X33240Y-34600D01*
X33226Y-34621D01*
X33216Y-34644D01*
X33211Y-34669D01*
X33211Y-34694D01*
X33211Y-34931D01*
X33216Y-34956D01*
X33226Y-34979D01*
X33240Y-35000D01*
X33258Y-35018D01*
X33279Y-35032D01*
X33302Y-35042D01*
X33327Y-35047D01*
X33352Y-35047D01*
X33788Y-35047D01*
X33780Y-35053D01*
X33327Y-35053D01*
X33302Y-35058D01*
X33279Y-35068D01*
X33258Y-35082D01*
X33240Y-35100D01*
X33226Y-35121D01*
X33216Y-35144D01*
X33211Y-35169D01*
X33211Y-35194D01*
X33211Y-35265D01*
X32377Y-34431D01*
X32376Y-34430D01*
X32352Y-34410D01*
X32351Y-34409D01*
X32326Y-34396D01*
X32323Y-34394D01*
X32322Y-34393D01*
X32321Y-34393D01*
X32290Y-34383D01*
X32289Y-34382D01*
X32289Y-34198D01*
X32707Y-34198D01*
X32708Y-34198D01*
X32739Y-34195D01*
X32741Y-34195D01*
X32759Y-34189D01*
X32771Y-34186D01*
X32772Y-34185D01*
X32773Y-34185D01*
X32801Y-34170D01*
X32802Y-34170D01*
X32822Y-34153D01*
X32827Y-34150D01*
X32827Y-34149D01*
X32828Y-34149D01*
X32828Y-34148D01*
X32832Y-34143D01*
X33211Y-33765D01*
X33211Y-33931D01*
X33216Y-33956D01*
X33226Y-33979D01*
X33240Y-34000D01*
X33258Y-34018D01*
X33279Y-34032D01*
X33302Y-34042D01*
X33327Y-34047D01*
X33352Y-34047D01*
X34142Y-34047D01*
X34144Y-34053D01*
X33327Y-34053D01*
X33302Y-34058D01*
X33279Y-34068D01*
X33258Y-34082D01*
X33240Y-34100D01*
X33226Y-34121D01*
X33216Y-34144D01*
X33211Y-34169D01*
X33211Y-34194D01*
X33211Y-34431D01*
X33216Y-34456D01*
X33226Y-34479D01*
X33240Y-34500D01*
X33258Y-34518D01*
X33279Y-34532D01*
X33302Y-34542D01*
X33327Y-34547D01*
X33352Y-34547D01*
X33816Y-34547D01*
X33820Y-34548D01*
X33853Y-34552D01*
X33854Y-34552D01*
X33855Y-34552D01*
X34544Y-34552D01*
X34545Y-34552D01*
X34576Y-34549D01*
X34578Y-34549D01*
X34596Y-34543D01*
X34608Y-34540D01*
X34609Y-34539D01*
X34610Y-34539D01*
X34638Y-34524D01*
X34639Y-34524D01*
X34659Y-34507D01*
X34664Y-34504D01*
X34664Y-34503D01*
X34665Y-34503D01*
X34665Y-34502D01*
X34669Y-34497D01*
X34747Y-34419D01*
X34754Y-34429D01*
X34789Y-34465D01*
X34830Y-34494D01*
X34859Y-34507D01*
G36*
X34915Y-33720D02*
X34646Y-33989D01*
X34613Y-33957D01*
X34572Y-33929D01*
X34526Y-33909D01*
X34479Y-33899D01*
X34479Y-33801D01*
X34479Y-33800D01*
X34476Y-33768D01*
X34476Y-33767D01*
X34473Y-33758D01*
X34467Y-33736D01*
X34466Y-33735D01*
X34459Y-33722D01*
X34458Y-33720D01*
X34915Y-33720D01*
X34915Y-33720D01*
G37*
X34915Y-33720D02*
X34646Y-33989D01*
X34613Y-33957D01*
X34572Y-33929D01*
X34526Y-33909D01*
X34479Y-33899D01*
X34479Y-33801D01*
X34479Y-33800D01*
X34476Y-33768D01*
X34476Y-33767D01*
X34473Y-33758D01*
X34467Y-33736D01*
X34466Y-33735D01*
X34459Y-33722D01*
X34458Y-33720D01*
X34915Y-33720D01*
G36*
X35154Y-35835D02*
X34819Y-35938D01*
X34827Y-35932D01*
X34832Y-35929D01*
X34832Y-35928D01*
X34833Y-35928D01*
X34833Y-35927D01*
X34837Y-35922D01*
X34925Y-35835D01*
X35154Y-35835D01*
X35154Y-35835D01*
G37*
X35154Y-35835D02*
X34819Y-35938D01*
X34827Y-35932D01*
X34832Y-35929D01*
X34832Y-35928D01*
X34833Y-35928D01*
X34833Y-35927D01*
X34837Y-35922D01*
X34925Y-35835D01*
X35154Y-35835D01*
G36*
X35205Y-29623D02*
X35179Y-29629D01*
X35005Y-29699D01*
X34848Y-29802D01*
X34714Y-29933D01*
X34608Y-30087D01*
X34559Y-30201D01*
X34559Y-29115D01*
X34559Y-29113D01*
X34555Y-29075D01*
X34555Y-29072D01*
X34547Y-29046D01*
X34544Y-29035D01*
X34543Y-29033D01*
X34525Y-28999D01*
X34524Y-28997D01*
X34509Y-28979D01*
X34500Y-28967D01*
X34498Y-28965D01*
X34497Y-28964D01*
X33740Y-28208D01*
X33736Y-28203D01*
X33734Y-28202D01*
X33713Y-28183D01*
X33705Y-28177D01*
X33703Y-28175D01*
X33671Y-28158D01*
X33669Y-28157D01*
X33668Y-28156D01*
X33667Y-28156D01*
X33628Y-28144D01*
X33597Y-28140D01*
X33589Y-28140D01*
X33587Y-28140D01*
X33586Y-28140D01*
X33568Y-28140D01*
X33577Y-28132D01*
X33615Y-28078D01*
X35115Y-29578D01*
X35116Y-29579D01*
X35139Y-29598D01*
X35140Y-29599D01*
X35166Y-29613D01*
X35167Y-29614D01*
X35182Y-29618D01*
X35196Y-29623D01*
X35198Y-29623D01*
X35205Y-29623D01*
X35205Y-29623D01*
G37*
X35205Y-29623D02*
X35179Y-29629D01*
X35005Y-29699D01*
X34848Y-29802D01*
X34714Y-29933D01*
X34608Y-30087D01*
X34559Y-30201D01*
X34559Y-29115D01*
X34559Y-29113D01*
X34555Y-29075D01*
X34555Y-29072D01*
X34547Y-29046D01*
X34544Y-29035D01*
X34543Y-29033D01*
X34525Y-28999D01*
X34524Y-28997D01*
X34509Y-28979D01*
X34500Y-28967D01*
X34498Y-28965D01*
X34497Y-28964D01*
X33740Y-28208D01*
X33736Y-28203D01*
X33734Y-28202D01*
X33713Y-28183D01*
X33705Y-28177D01*
X33703Y-28175D01*
X33671Y-28158D01*
X33669Y-28157D01*
X33668Y-28156D01*
X33667Y-28156D01*
X33628Y-28144D01*
X33597Y-28140D01*
X33589Y-28140D01*
X33587Y-28140D01*
X33586Y-28140D01*
X33568Y-28140D01*
X33577Y-28132D01*
X33615Y-28078D01*
X35115Y-29578D01*
X35116Y-29579D01*
X35139Y-29598D01*
X35140Y-29599D01*
X35166Y-29613D01*
X35167Y-29614D01*
X35182Y-29618D01*
X35196Y-29623D01*
X35198Y-29623D01*
X35205Y-29623D01*
G36*
X35226Y-26080D02*
X32146Y-26080D01*
X32115Y-26083D01*
X32085Y-26092D01*
X32071Y-26099D01*
X32058Y-26106D01*
X32053Y-26110D01*
X32033Y-26126D01*
X32032Y-26126D01*
X32032Y-26127D01*
X31875Y-26284D01*
X31874Y-26284D01*
X31824Y-26284D01*
X31775Y-26293D01*
X31728Y-26312D01*
X31686Y-26339D01*
X31651Y-26374D01*
X31622Y-26416D01*
X31603Y-26462D01*
X31592Y-26510D01*
X31592Y-26560D01*
X31601Y-26610D01*
X31619Y-26656D01*
X31646Y-26698D01*
X31681Y-26734D01*
X31722Y-26763D01*
X31768Y-26783D01*
X31817Y-26793D01*
X31822Y-26793D01*
X31821Y-26802D01*
X31819Y-26886D01*
X31834Y-26968D01*
X31134Y-27669D01*
X31134Y-26044D01*
X32826Y-26044D01*
X32828Y-26044D01*
X32866Y-26040D01*
X32869Y-26040D01*
X32894Y-26032D01*
X32906Y-26029D01*
X32907Y-26028D01*
X32908Y-26028D01*
X32942Y-26010D01*
X32944Y-26009D01*
X32962Y-25994D01*
X32974Y-25985D01*
X32974Y-25984D01*
X32976Y-25983D01*
X32976Y-25982D01*
X32980Y-25977D01*
X33270Y-25688D01*
X33271Y-25688D01*
X33271Y-25687D01*
X33272Y-25687D01*
X33277Y-25680D01*
X33297Y-25657D01*
X33298Y-25655D01*
X33317Y-25621D01*
X33317Y-25619D01*
X33329Y-25582D01*
X33329Y-25580D01*
X33334Y-25541D01*
X33334Y-25539D01*
X33334Y-25538D01*
X33334Y-25524D01*
X33392Y-25524D01*
X33417Y-25519D01*
X33440Y-25509D01*
X33461Y-25495D01*
X33479Y-25477D01*
X33493Y-25456D01*
X33503Y-25433D01*
X33508Y-25408D01*
X33508Y-25383D01*
X33508Y-24792D01*
X33503Y-24767D01*
X33493Y-24744D01*
X33489Y-24738D01*
X33494Y-24730D01*
X33494Y-24729D01*
X33495Y-24728D01*
X33506Y-24691D01*
X33507Y-24689D01*
X33510Y-24658D01*
X33511Y-24650D01*
X33511Y-24648D01*
X33511Y-24647D01*
X33511Y-24633D01*
X33628Y-24633D01*
X33653Y-24628D01*
X33676Y-24618D01*
X33697Y-24604D01*
X33715Y-24586D01*
X33729Y-24565D01*
X33739Y-24542D01*
X33744Y-24517D01*
X33744Y-24492D01*
X33744Y-24360D01*
X34363Y-24360D01*
X34641Y-24638D01*
X34608Y-24687D01*
X34534Y-24860D01*
X34495Y-25043D01*
X34493Y-25231D01*
X34527Y-25415D01*
X34596Y-25589D01*
X34697Y-25747D01*
X34828Y-25882D01*
X34982Y-25989D01*
X35153Y-26064D01*
X35226Y-26080D01*
X35226Y-26080D01*
G37*
X35226Y-26080D02*
X32146Y-26080D01*
X32115Y-26083D01*
X32085Y-26092D01*
X32071Y-26099D01*
X32058Y-26106D01*
X32053Y-26110D01*
X32033Y-26126D01*
X32032Y-26126D01*
X32032Y-26127D01*
X31875Y-26284D01*
X31874Y-26284D01*
X31824Y-26284D01*
X31775Y-26293D01*
X31728Y-26312D01*
X31686Y-26339D01*
X31651Y-26374D01*
X31622Y-26416D01*
X31603Y-26462D01*
X31592Y-26510D01*
X31592Y-26560D01*
X31601Y-26610D01*
X31619Y-26656D01*
X31646Y-26698D01*
X31681Y-26734D01*
X31722Y-26763D01*
X31768Y-26783D01*
X31817Y-26793D01*
X31822Y-26793D01*
X31821Y-26802D01*
X31819Y-26886D01*
X31834Y-26968D01*
X31134Y-27669D01*
X31134Y-26044D01*
X32826Y-26044D01*
X32828Y-26044D01*
X32866Y-26040D01*
X32869Y-26040D01*
X32894Y-26032D01*
X32906Y-26029D01*
X32907Y-26028D01*
X32908Y-26028D01*
X32942Y-26010D01*
X32944Y-26009D01*
X32962Y-25994D01*
X32974Y-25985D01*
X32974Y-25984D01*
X32976Y-25983D01*
X32976Y-25982D01*
X32980Y-25977D01*
X33270Y-25688D01*
X33271Y-25688D01*
X33271Y-25687D01*
X33272Y-25687D01*
X33277Y-25680D01*
X33297Y-25657D01*
X33298Y-25655D01*
X33317Y-25621D01*
X33317Y-25619D01*
X33329Y-25582D01*
X33329Y-25580D01*
X33334Y-25541D01*
X33334Y-25539D01*
X33334Y-25538D01*
X33334Y-25524D01*
X33392Y-25524D01*
X33417Y-25519D01*
X33440Y-25509D01*
X33461Y-25495D01*
X33479Y-25477D01*
X33493Y-25456D01*
X33503Y-25433D01*
X33508Y-25408D01*
X33508Y-25383D01*
X33508Y-24792D01*
X33503Y-24767D01*
X33493Y-24744D01*
X33489Y-24738D01*
X33494Y-24730D01*
X33494Y-24729D01*
X33495Y-24728D01*
X33506Y-24691D01*
X33507Y-24689D01*
X33510Y-24658D01*
X33511Y-24650D01*
X33511Y-24648D01*
X33511Y-24647D01*
X33511Y-24633D01*
X33628Y-24633D01*
X33653Y-24628D01*
X33676Y-24618D01*
X33697Y-24604D01*
X33715Y-24586D01*
X33729Y-24565D01*
X33739Y-24542D01*
X33744Y-24517D01*
X33744Y-24492D01*
X33744Y-24360D01*
X34363Y-24360D01*
X34641Y-24638D01*
X34608Y-24687D01*
X34534Y-24860D01*
X34495Y-25043D01*
X34493Y-25231D01*
X34527Y-25415D01*
X34596Y-25589D01*
X34697Y-25747D01*
X34828Y-25882D01*
X34982Y-25989D01*
X35153Y-26064D01*
X35226Y-26080D01*
G36*
X35458Y-22595D02*
X35450Y-22635D01*
X35450Y-22677D01*
X35204Y-22923D01*
X35199Y-22928D01*
X35179Y-22951D01*
X35171Y-22961D01*
X35154Y-22993D01*
X35153Y-22995D01*
X35152Y-22995D01*
X35152Y-22997D01*
X35140Y-23036D01*
X35136Y-23066D01*
X34569Y-22499D01*
X34603Y-22450D01*
X34635Y-22378D01*
X34653Y-22300D01*
X34654Y-22210D01*
X34647Y-22174D01*
X34656Y-22177D01*
X34657Y-22177D01*
X34687Y-22180D01*
X34688Y-22180D01*
X34689Y-22180D01*
X34852Y-22180D01*
X34847Y-22205D01*
X34845Y-22284D01*
X34860Y-22362D01*
X34889Y-22436D01*
X34932Y-22502D01*
X34987Y-22559D01*
X35052Y-22605D01*
X35125Y-22636D01*
X35202Y-22653D01*
X35282Y-22655D01*
X35360Y-22641D01*
X35433Y-22612D01*
X35458Y-22595D01*
X35458Y-22595D01*
G37*
X35458Y-22595D02*
X35450Y-22635D01*
X35450Y-22677D01*
X35204Y-22923D01*
X35199Y-22928D01*
X35179Y-22951D01*
X35171Y-22961D01*
X35154Y-22993D01*
X35153Y-22995D01*
X35152Y-22995D01*
X35152Y-22997D01*
X35140Y-23036D01*
X35136Y-23066D01*
X34569Y-22499D01*
X34603Y-22450D01*
X34635Y-22378D01*
X34653Y-22300D01*
X34654Y-22210D01*
X34647Y-22174D01*
X34656Y-22177D01*
X34657Y-22177D01*
X34687Y-22180D01*
X34688Y-22180D01*
X34689Y-22180D01*
X34852Y-22180D01*
X34847Y-22205D01*
X34845Y-22284D01*
X34860Y-22362D01*
X34889Y-22436D01*
X34932Y-22502D01*
X34987Y-22559D01*
X35052Y-22605D01*
X35125Y-22636D01*
X35202Y-22653D01*
X35282Y-22655D01*
X35360Y-22641D01*
X35433Y-22612D01*
X35458Y-22595D01*
G36*
X35663Y-31483D02*
X34506Y-32640D01*
X34328Y-32640D01*
X34320Y-32621D01*
X34306Y-32600D01*
X34288Y-32582D01*
X34267Y-32568D01*
X34244Y-32558D01*
X34219Y-32553D01*
X34194Y-32553D01*
X33327Y-32553D01*
X33302Y-32558D01*
X33279Y-32568D01*
X33258Y-32582D01*
X33256Y-32583D01*
X33116Y-32443D01*
X33115Y-32442D01*
X33092Y-32423D01*
X33091Y-32422D01*
X33065Y-32408D01*
X33064Y-32407D01*
X33048Y-32402D01*
X33035Y-32398D01*
X33027Y-32397D01*
X33003Y-32394D01*
X32995Y-32395D01*
X32381Y-32395D01*
X32385Y-32390D01*
X32386Y-32389D01*
X32392Y-32377D01*
X32400Y-32363D01*
X32400Y-32362D01*
X32410Y-32333D01*
X32410Y-32332D01*
X32413Y-32302D01*
X32413Y-32301D01*
X32413Y-32300D01*
X32413Y-31385D01*
X32410Y-31354D01*
X32401Y-31325D01*
X32401Y-31324D01*
X32393Y-31310D01*
X32387Y-31297D01*
X32386Y-31296D01*
X32382Y-31292D01*
X32367Y-31273D01*
X32367Y-31272D01*
X32366Y-31271D01*
X32301Y-31206D01*
X32315Y-31204D01*
X32338Y-31194D01*
X32359Y-31180D01*
X32377Y-31162D01*
X32391Y-31141D01*
X32401Y-31118D01*
X32406Y-31093D01*
X32406Y-31068D01*
X32406Y-31004D01*
X32538Y-31004D01*
X32539Y-31004D01*
X32569Y-31001D01*
X32570Y-31001D01*
X32598Y-30992D01*
X32600Y-30992D01*
X32618Y-30982D01*
X32627Y-30978D01*
X32628Y-30977D01*
X32651Y-30959D01*
X32651Y-30958D01*
X32652Y-30958D01*
X32652Y-30957D01*
X32656Y-30953D01*
X32897Y-30712D01*
X32897Y-30778D01*
X32902Y-30803D01*
X32912Y-30826D01*
X32926Y-30847D01*
X32944Y-30865D01*
X32965Y-30879D01*
X32988Y-30889D01*
X33013Y-30894D01*
X33038Y-30894D01*
X33551Y-30894D01*
X33551Y-30968D01*
X33135Y-31384D01*
X33134Y-31385D01*
X33114Y-31409D01*
X33099Y-31436D01*
X33094Y-31451D01*
X33090Y-31465D01*
X33089Y-31472D01*
X33086Y-31497D01*
X33087Y-31505D01*
X33087Y-32299D01*
X33087Y-32300D01*
X33090Y-32331D01*
X33099Y-32361D01*
X33106Y-32375D01*
X33113Y-32388D01*
X33114Y-32389D01*
X33117Y-32393D01*
X33133Y-32413D01*
X33157Y-32432D01*
X33158Y-32433D01*
X33170Y-32439D01*
X33184Y-32447D01*
X33185Y-32447D01*
X33214Y-32457D01*
X33215Y-32457D01*
X33216Y-32457D01*
X33226Y-32479D01*
X33240Y-32500D01*
X33258Y-32518D01*
X33279Y-32532D01*
X33302Y-32542D01*
X33327Y-32547D01*
X33352Y-32547D01*
X34219Y-32547D01*
X34244Y-32542D01*
X34267Y-32532D01*
X34288Y-32518D01*
X34306Y-32500D01*
X34320Y-32479D01*
X34330Y-32456D01*
X34335Y-32431D01*
X34335Y-32406D01*
X34335Y-32169D01*
X34330Y-32144D01*
X34320Y-32121D01*
X34306Y-32100D01*
X34288Y-32082D01*
X34267Y-32068D01*
X34244Y-32058D01*
X34219Y-32053D01*
X34194Y-32053D01*
X33407Y-32053D01*
X33407Y-32047D01*
X34219Y-32047D01*
X34244Y-32042D01*
X34267Y-32032D01*
X34288Y-32018D01*
X34296Y-32010D01*
X34348Y-32010D01*
X34349Y-32010D01*
X34388Y-32006D01*
X34390Y-32006D01*
X34406Y-32000D01*
X34428Y-31995D01*
X34429Y-31994D01*
X34464Y-31976D01*
X34465Y-31975D01*
X34496Y-31950D01*
X34496Y-31949D01*
X34497Y-31949D01*
X34502Y-31942D01*
X34522Y-31919D01*
X34523Y-31917D01*
X34542Y-31883D01*
X34542Y-31882D01*
X34543Y-31881D01*
X34554Y-31844D01*
X34555Y-31842D01*
X34558Y-31811D01*
X34559Y-31803D01*
X34559Y-31801D01*
X34559Y-31800D01*
X34559Y-30895D01*
X34596Y-30989D01*
X34697Y-31147D01*
X34828Y-31282D01*
X34982Y-31389D01*
X35153Y-31464D01*
X35337Y-31504D01*
X35524Y-31508D01*
X35663Y-31483D01*
X35663Y-31483D01*
G37*
X35663Y-31483D02*
X34506Y-32640D01*
X34328Y-32640D01*
X34320Y-32621D01*
X34306Y-32600D01*
X34288Y-32582D01*
X34267Y-32568D01*
X34244Y-32558D01*
X34219Y-32553D01*
X34194Y-32553D01*
X33327Y-32553D01*
X33302Y-32558D01*
X33279Y-32568D01*
X33258Y-32582D01*
X33256Y-32583D01*
X33116Y-32443D01*
X33115Y-32442D01*
X33092Y-32423D01*
X33091Y-32422D01*
X33065Y-32408D01*
X33064Y-32407D01*
X33048Y-32402D01*
X33035Y-32398D01*
X33027Y-32397D01*
X33003Y-32394D01*
X32995Y-32395D01*
X32381Y-32395D01*
X32385Y-32390D01*
X32386Y-32389D01*
X32392Y-32377D01*
X32400Y-32363D01*
X32400Y-32362D01*
X32410Y-32333D01*
X32410Y-32332D01*
X32413Y-32302D01*
X32413Y-32301D01*
X32413Y-32300D01*
X32413Y-31385D01*
X32410Y-31354D01*
X32401Y-31325D01*
X32401Y-31324D01*
X32393Y-31310D01*
X32387Y-31297D01*
X32386Y-31296D01*
X32382Y-31292D01*
X32367Y-31273D01*
X32367Y-31272D01*
X32366Y-31271D01*
X32301Y-31206D01*
X32315Y-31204D01*
X32338Y-31194D01*
X32359Y-31180D01*
X32377Y-31162D01*
X32391Y-31141D01*
X32401Y-31118D01*
X32406Y-31093D01*
X32406Y-31068D01*
X32406Y-31004D01*
X32538Y-31004D01*
X32539Y-31004D01*
X32569Y-31001D01*
X32570Y-31001D01*
X32598Y-30992D01*
X32600Y-30992D01*
X32618Y-30982D01*
X32627Y-30978D01*
X32628Y-30977D01*
X32651Y-30959D01*
X32651Y-30958D01*
X32652Y-30958D01*
X32652Y-30957D01*
X32656Y-30953D01*
X32897Y-30712D01*
X32897Y-30778D01*
X32902Y-30803D01*
X32912Y-30826D01*
X32926Y-30847D01*
X32944Y-30865D01*
X32965Y-30879D01*
X32988Y-30889D01*
X33013Y-30894D01*
X33038Y-30894D01*
X33551Y-30894D01*
X33551Y-30968D01*
X33135Y-31384D01*
X33134Y-31385D01*
X33114Y-31409D01*
X33099Y-31436D01*
X33094Y-31451D01*
X33090Y-31465D01*
X33089Y-31472D01*
X33086Y-31497D01*
X33087Y-31505D01*
X33087Y-32299D01*
X33087Y-32300D01*
X33090Y-32331D01*
X33099Y-32361D01*
X33106Y-32375D01*
X33113Y-32388D01*
X33114Y-32389D01*
X33117Y-32393D01*
X33133Y-32413D01*
X33157Y-32432D01*
X33158Y-32433D01*
X33170Y-32439D01*
X33184Y-32447D01*
X33185Y-32447D01*
X33214Y-32457D01*
X33215Y-32457D01*
X33216Y-32457D01*
X33226Y-32479D01*
X33240Y-32500D01*
X33258Y-32518D01*
X33279Y-32532D01*
X33302Y-32542D01*
X33327Y-32547D01*
X33352Y-32547D01*
X34219Y-32547D01*
X34244Y-32542D01*
X34267Y-32532D01*
X34288Y-32518D01*
X34306Y-32500D01*
X34320Y-32479D01*
X34330Y-32456D01*
X34335Y-32431D01*
X34335Y-32406D01*
X34335Y-32169D01*
X34330Y-32144D01*
X34320Y-32121D01*
X34306Y-32100D01*
X34288Y-32082D01*
X34267Y-32068D01*
X34244Y-32058D01*
X34219Y-32053D01*
X34194Y-32053D01*
X33407Y-32053D01*
X33407Y-32047D01*
X34219Y-32047D01*
X34244Y-32042D01*
X34267Y-32032D01*
X34288Y-32018D01*
X34296Y-32010D01*
X34348Y-32010D01*
X34349Y-32010D01*
X34388Y-32006D01*
X34390Y-32006D01*
X34406Y-32000D01*
X34428Y-31995D01*
X34429Y-31994D01*
X34464Y-31976D01*
X34465Y-31975D01*
X34496Y-31950D01*
X34496Y-31949D01*
X34497Y-31949D01*
X34502Y-31942D01*
X34522Y-31919D01*
X34523Y-31917D01*
X34542Y-31883D01*
X34542Y-31882D01*
X34543Y-31881D01*
X34554Y-31844D01*
X34555Y-31842D01*
X34558Y-31811D01*
X34559Y-31803D01*
X34559Y-31801D01*
X34559Y-31800D01*
X34559Y-30895D01*
X34596Y-30989D01*
X34697Y-31147D01*
X34828Y-31282D01*
X34982Y-31389D01*
X35153Y-31464D01*
X35337Y-31504D01*
X35524Y-31508D01*
X35663Y-31483D01*
G36*
X35695Y-28024D02*
X35676Y-28012D01*
X35653Y-28002D01*
X35628Y-27997D01*
X35603Y-27997D01*
X35176Y-27997D01*
X35066Y-27887D01*
X35066Y-27506D01*
X35155Y-27506D01*
X35180Y-27501D01*
X35203Y-27491D01*
X35224Y-27477D01*
X35242Y-27459D01*
X35256Y-27438D01*
X35266Y-27415D01*
X35271Y-27390D01*
X35271Y-27365D01*
X35271Y-26971D01*
X35329Y-26971D01*
X35329Y-27390D01*
X35334Y-27415D01*
X35344Y-27438D01*
X35358Y-27459D01*
X35376Y-27477D01*
X35397Y-27491D01*
X35420Y-27501D01*
X35445Y-27506D01*
X35470Y-27506D01*
X35534Y-27506D01*
X35534Y-27666D01*
X35534Y-27667D01*
X35537Y-27698D01*
X35546Y-27728D01*
X35555Y-27746D01*
X35560Y-27755D01*
X35561Y-27756D01*
X35579Y-27779D01*
X35580Y-27780D01*
X35581Y-27780D01*
X35585Y-27784D01*
X35647Y-27846D01*
X35647Y-27896D01*
X35656Y-27946D01*
X35674Y-27992D01*
X35695Y-28024D01*
X35695Y-28024D01*
G37*
X35695Y-28024D02*
X35676Y-28012D01*
X35653Y-28002D01*
X35628Y-27997D01*
X35603Y-27997D01*
X35176Y-27997D01*
X35066Y-27887D01*
X35066Y-27506D01*
X35155Y-27506D01*
X35180Y-27501D01*
X35203Y-27491D01*
X35224Y-27477D01*
X35242Y-27459D01*
X35256Y-27438D01*
X35266Y-27415D01*
X35271Y-27390D01*
X35271Y-27365D01*
X35271Y-26971D01*
X35329Y-26971D01*
X35329Y-27390D01*
X35334Y-27415D01*
X35344Y-27438D01*
X35358Y-27459D01*
X35376Y-27477D01*
X35397Y-27491D01*
X35420Y-27501D01*
X35445Y-27506D01*
X35470Y-27506D01*
X35534Y-27506D01*
X35534Y-27666D01*
X35534Y-27667D01*
X35537Y-27698D01*
X35546Y-27728D01*
X35555Y-27746D01*
X35560Y-27755D01*
X35561Y-27756D01*
X35579Y-27779D01*
X35580Y-27780D01*
X35581Y-27780D01*
X35585Y-27784D01*
X35647Y-27846D01*
X35647Y-27896D01*
X35656Y-27946D01*
X35674Y-27992D01*
X35695Y-28024D01*
G36*
X35742Y-22364D02*
X35727Y-22364D01*
X35668Y-22375D01*
X35629Y-22390D01*
X35635Y-22378D01*
X35653Y-22300D01*
X35653Y-22275D01*
X35742Y-22364D01*
X35742Y-22364D01*
G37*
X35742Y-22364D02*
X35727Y-22364D01*
X35668Y-22375D01*
X35629Y-22390D01*
X35635Y-22378D01*
X35653Y-22300D01*
X35653Y-22275D01*
X35742Y-22364D01*
G36*
X35861Y-22955D02*
X35834Y-22973D01*
X35778Y-23028D01*
X35733Y-23094D01*
X35702Y-23167D01*
X35696Y-23195D01*
X35610Y-23110D01*
X35746Y-22973D01*
X35779Y-22975D01*
X35838Y-22964D01*
X35861Y-22955D01*
X35861Y-22955D01*
G37*
X35861Y-22955D02*
X35834Y-22973D01*
X35778Y-23028D01*
X35733Y-23094D01*
X35702Y-23167D01*
X35696Y-23195D01*
X35610Y-23110D01*
X35746Y-22973D01*
X35779Y-22975D01*
X35838Y-22964D01*
X35861Y-22955D01*
G36*
X35956Y-24338D02*
X35907Y-24305D01*
X35734Y-24232D01*
X35550Y-24195D01*
X35363Y-24193D01*
X35179Y-24229D01*
X35005Y-24299D01*
X34938Y-24342D01*
X34604Y-24008D01*
X34600Y-24003D01*
X34598Y-24002D01*
X34577Y-23983D01*
X34569Y-23977D01*
X34567Y-23975D01*
X34535Y-23958D01*
X34533Y-23957D01*
X34532Y-23956D01*
X34531Y-23956D01*
X34492Y-23944D01*
X34461Y-23940D01*
X34453Y-23940D01*
X34451Y-23940D01*
X34450Y-23940D01*
X33744Y-23940D01*
X33744Y-23783D01*
X33739Y-23758D01*
X33729Y-23735D01*
X33715Y-23714D01*
X33697Y-23696D01*
X33676Y-23682D01*
X33653Y-23672D01*
X33628Y-23667D01*
X33603Y-23667D01*
X33511Y-23667D01*
X33511Y-23654D01*
X34038Y-23654D01*
X34063Y-23649D01*
X34086Y-23639D01*
X34107Y-23625D01*
X34125Y-23607D01*
X34139Y-23586D01*
X34149Y-23563D01*
X34154Y-23538D01*
X34154Y-23513D01*
X34154Y-22962D01*
X34149Y-22937D01*
X34139Y-22914D01*
X34125Y-22893D01*
X34107Y-22875D01*
X34086Y-22861D01*
X34063Y-22851D01*
X34038Y-22846D01*
X34013Y-22846D01*
X33462Y-22846D01*
X33437Y-22851D01*
X33414Y-22861D01*
X33393Y-22875D01*
X33375Y-22893D01*
X33361Y-22914D01*
X33351Y-22937D01*
X33346Y-22962D01*
X33346Y-22987D01*
X33346Y-22988D01*
X33128Y-22770D01*
X33127Y-22769D01*
X33104Y-22750D01*
X33103Y-22749D01*
X33077Y-22735D01*
X33076Y-22734D01*
X33060Y-22729D01*
X33047Y-22725D01*
X33039Y-22724D01*
X33015Y-22721D01*
X33007Y-22722D01*
X33004Y-22722D01*
X33100Y-22625D01*
X33125Y-22636D01*
X33202Y-22653D01*
X33282Y-22655D01*
X33360Y-22641D01*
X33433Y-22612D01*
X33500Y-22570D01*
X33558Y-22515D01*
X33603Y-22450D01*
X33635Y-22378D01*
X33653Y-22300D01*
X33654Y-22210D01*
X33648Y-22182D01*
X33731Y-22182D01*
X33732Y-22182D01*
X33762Y-22179D01*
X33763Y-22179D01*
X33791Y-22170D01*
X33793Y-22170D01*
X33811Y-22160D01*
X33820Y-22156D01*
X33821Y-22155D01*
X33844Y-22137D01*
X33844Y-22136D01*
X33845Y-22136D01*
X33845Y-22135D01*
X33849Y-22131D01*
X33871Y-22108D01*
X33863Y-22128D01*
X33847Y-22205D01*
X33845Y-22284D01*
X33860Y-22362D01*
X33889Y-22436D01*
X33932Y-22502D01*
X33987Y-22559D01*
X34052Y-22605D01*
X34125Y-22636D01*
X34202Y-22653D01*
X34272Y-22654D01*
X35956Y-24338D01*
X35956Y-24338D01*
G37*
X35956Y-24338D02*
X35907Y-24305D01*
X35734Y-24232D01*
X35550Y-24195D01*
X35363Y-24193D01*
X35179Y-24229D01*
X35005Y-24299D01*
X34938Y-24342D01*
X34604Y-24008D01*
X34600Y-24003D01*
X34598Y-24002D01*
X34577Y-23983D01*
X34569Y-23977D01*
X34567Y-23975D01*
X34535Y-23958D01*
X34533Y-23957D01*
X34532Y-23956D01*
X34531Y-23956D01*
X34492Y-23944D01*
X34461Y-23940D01*
X34453Y-23940D01*
X34451Y-23940D01*
X34450Y-23940D01*
X33744Y-23940D01*
X33744Y-23783D01*
X33739Y-23758D01*
X33729Y-23735D01*
X33715Y-23714D01*
X33697Y-23696D01*
X33676Y-23682D01*
X33653Y-23672D01*
X33628Y-23667D01*
X33603Y-23667D01*
X33511Y-23667D01*
X33511Y-23654D01*
X34038Y-23654D01*
X34063Y-23649D01*
X34086Y-23639D01*
X34107Y-23625D01*
X34125Y-23607D01*
X34139Y-23586D01*
X34149Y-23563D01*
X34154Y-23538D01*
X34154Y-23513D01*
X34154Y-22962D01*
X34149Y-22937D01*
X34139Y-22914D01*
X34125Y-22893D01*
X34107Y-22875D01*
X34086Y-22861D01*
X34063Y-22851D01*
X34038Y-22846D01*
X34013Y-22846D01*
X33462Y-22846D01*
X33437Y-22851D01*
X33414Y-22861D01*
X33393Y-22875D01*
X33375Y-22893D01*
X33361Y-22914D01*
X33351Y-22937D01*
X33346Y-22962D01*
X33346Y-22987D01*
X33346Y-22988D01*
X33128Y-22770D01*
X33127Y-22769D01*
X33104Y-22750D01*
X33103Y-22749D01*
X33077Y-22735D01*
X33076Y-22734D01*
X33060Y-22729D01*
X33047Y-22725D01*
X33039Y-22724D01*
X33015Y-22721D01*
X33007Y-22722D01*
X33004Y-22722D01*
X33100Y-22625D01*
X33125Y-22636D01*
X33202Y-22653D01*
X33282Y-22655D01*
X33360Y-22641D01*
X33433Y-22612D01*
X33500Y-22570D01*
X33558Y-22515D01*
X33603Y-22450D01*
X33635Y-22378D01*
X33653Y-22300D01*
X33654Y-22210D01*
X33648Y-22182D01*
X33731Y-22182D01*
X33732Y-22182D01*
X33762Y-22179D01*
X33763Y-22179D01*
X33791Y-22170D01*
X33793Y-22170D01*
X33811Y-22160D01*
X33820Y-22156D01*
X33821Y-22155D01*
X33844Y-22137D01*
X33844Y-22136D01*
X33845Y-22136D01*
X33845Y-22135D01*
X33849Y-22131D01*
X33871Y-22108D01*
X33863Y-22128D01*
X33847Y-22205D01*
X33845Y-22284D01*
X33860Y-22362D01*
X33889Y-22436D01*
X33932Y-22502D01*
X33987Y-22559D01*
X34052Y-22605D01*
X34125Y-22636D01*
X34202Y-22653D01*
X34272Y-22654D01*
X35956Y-24338D01*
G36*
X36271Y-24658D02*
X36260Y-24642D01*
X36271Y-24653D01*
X36271Y-24658D01*
X36271Y-24658D01*
G37*
X36271Y-24658D02*
X36260Y-24642D01*
X36271Y-24653D01*
X36271Y-24658D01*
G36*
X36304Y-21314D02*
X35958Y-20968D01*
X36008Y-20968D01*
X36302Y-21262D01*
X36302Y-21298D01*
X36304Y-21314D01*
X36304Y-21314D01*
G37*
X36304Y-21314D02*
X35958Y-20968D01*
X36008Y-20968D01*
X36302Y-21262D01*
X36302Y-21298D01*
X36304Y-21314D01*
G36*
X36395Y-25826D02*
X35670Y-26551D01*
X34573Y-26551D01*
X34571Y-26551D01*
X34530Y-26555D01*
X34508Y-26561D01*
X34493Y-26566D01*
X34491Y-26566D01*
X34491Y-26567D01*
X34455Y-26586D01*
X34431Y-26605D01*
X34424Y-26611D01*
X34423Y-26612D01*
X34422Y-26613D01*
X34383Y-26652D01*
X34379Y-26656D01*
X34359Y-26679D01*
X34351Y-26689D01*
X34334Y-26721D01*
X34333Y-26723D01*
X34332Y-26723D01*
X34332Y-26725D01*
X34320Y-26764D01*
X34316Y-26795D01*
X34316Y-26803D01*
X34316Y-26805D01*
X34316Y-26806D01*
X34316Y-27084D01*
X33679Y-27084D01*
X33679Y-26537D01*
X33674Y-26512D01*
X33664Y-26489D01*
X33650Y-26468D01*
X33632Y-26450D01*
X33611Y-26436D01*
X33588Y-26426D01*
X33563Y-26421D01*
X33538Y-26421D01*
X32937Y-26421D01*
X32912Y-26426D01*
X32889Y-26436D01*
X32868Y-26450D01*
X32850Y-26468D01*
X32836Y-26489D01*
X32826Y-26512D01*
X32821Y-26537D01*
X32821Y-26562D01*
X32821Y-27084D01*
X32780Y-27084D01*
X32664Y-26967D01*
X32679Y-26904D01*
X32680Y-26808D01*
X32664Y-26725D01*
X32632Y-26647D01*
X32585Y-26577D01*
X32526Y-26517D01*
X32456Y-26470D01*
X32378Y-26437D01*
X32295Y-26420D01*
X32211Y-26420D01*
X32188Y-26424D01*
X32212Y-26400D01*
X35669Y-26400D01*
X35670Y-26400D01*
X35700Y-26397D01*
X35701Y-26397D01*
X35729Y-26388D01*
X35731Y-26388D01*
X35749Y-26378D01*
X35758Y-26374D01*
X35759Y-26373D01*
X35782Y-26355D01*
X35782Y-26354D01*
X35783Y-26354D01*
X35783Y-26353D01*
X35787Y-26349D01*
X36395Y-25741D01*
X36395Y-25826D01*
X36395Y-25826D01*
G37*
X36395Y-25826D02*
X35670Y-26551D01*
X34573Y-26551D01*
X34571Y-26551D01*
X34530Y-26555D01*
X34508Y-26561D01*
X34493Y-26566D01*
X34491Y-26566D01*
X34491Y-26567D01*
X34455Y-26586D01*
X34431Y-26605D01*
X34424Y-26611D01*
X34423Y-26612D01*
X34422Y-26613D01*
X34383Y-26652D01*
X34379Y-26656D01*
X34359Y-26679D01*
X34351Y-26689D01*
X34334Y-26721D01*
X34333Y-26723D01*
X34332Y-26723D01*
X34332Y-26725D01*
X34320Y-26764D01*
X34316Y-26795D01*
X34316Y-26803D01*
X34316Y-26805D01*
X34316Y-26806D01*
X34316Y-27084D01*
X33679Y-27084D01*
X33679Y-26537D01*
X33674Y-26512D01*
X33664Y-26489D01*
X33650Y-26468D01*
X33632Y-26450D01*
X33611Y-26436D01*
X33588Y-26426D01*
X33563Y-26421D01*
X33538Y-26421D01*
X32937Y-26421D01*
X32912Y-26426D01*
X32889Y-26436D01*
X32868Y-26450D01*
X32850Y-26468D01*
X32836Y-26489D01*
X32826Y-26512D01*
X32821Y-26537D01*
X32821Y-26562D01*
X32821Y-27084D01*
X32780Y-27084D01*
X32664Y-26967D01*
X32679Y-26904D01*
X32680Y-26808D01*
X32664Y-26725D01*
X32632Y-26647D01*
X32585Y-26577D01*
X32526Y-26517D01*
X32456Y-26470D01*
X32378Y-26437D01*
X32295Y-26420D01*
X32211Y-26420D01*
X32188Y-26424D01*
X32212Y-26400D01*
X35669Y-26400D01*
X35670Y-26400D01*
X35700Y-26397D01*
X35701Y-26397D01*
X35729Y-26388D01*
X35731Y-26388D01*
X35749Y-26378D01*
X35758Y-26374D01*
X35759Y-26373D01*
X35782Y-26355D01*
X35782Y-26354D01*
X35783Y-26354D01*
X35783Y-26353D01*
X35787Y-26349D01*
X36395Y-25741D01*
X36395Y-25826D01*
G36*
X36403Y-28651D02*
X35744Y-28651D01*
X35744Y-28507D01*
X36403Y-28507D01*
X36403Y-28651D01*
X36403Y-28651D01*
G37*
X36403Y-28651D02*
X35744Y-28651D01*
X35744Y-28507D01*
X36403Y-28507D01*
X36403Y-28651D01*
G36*
X36562Y-30584D02*
X36381Y-30764D01*
X36403Y-30670D01*
X36406Y-30456D01*
X36399Y-30421D01*
X36562Y-30584D01*
X36562Y-30584D01*
G37*
X36562Y-30584D02*
X36381Y-30764D01*
X36403Y-30670D01*
X36406Y-30456D01*
X36399Y-30421D01*
X36562Y-30584D01*
G36*
X36600Y-29932D02*
X36599Y-29933D01*
X36564Y-29968D01*
X36535Y-30010D01*
X36516Y-30056D01*
X36510Y-30080D01*
X35784Y-29354D01*
X35783Y-29353D01*
X35760Y-29334D01*
X35759Y-29333D01*
X35733Y-29319D01*
X35732Y-29318D01*
X35716Y-29313D01*
X35703Y-29309D01*
X35695Y-29308D01*
X35671Y-29305D01*
X35663Y-29306D01*
X35295Y-29306D01*
X35060Y-29071D01*
X35939Y-29071D01*
X35933Y-29100D01*
X35933Y-29150D01*
X35942Y-29200D01*
X35960Y-29246D01*
X35987Y-29288D01*
X36022Y-29324D01*
X36063Y-29353D01*
X36109Y-29373D01*
X36158Y-29383D01*
X36208Y-29384D01*
X36215Y-29382D01*
X36600Y-29767D01*
X36600Y-29932D01*
X36600Y-29932D01*
G37*
X36600Y-29932D02*
X36599Y-29933D01*
X36564Y-29968D01*
X36535Y-30010D01*
X36516Y-30056D01*
X36510Y-30080D01*
X35784Y-29354D01*
X35783Y-29353D01*
X35760Y-29334D01*
X35759Y-29333D01*
X35733Y-29319D01*
X35732Y-29318D01*
X35716Y-29313D01*
X35703Y-29309D01*
X35695Y-29308D01*
X35671Y-29305D01*
X35663Y-29306D01*
X35295Y-29306D01*
X35060Y-29071D01*
X35939Y-29071D01*
X35933Y-29100D01*
X35933Y-29150D01*
X35942Y-29200D01*
X35960Y-29246D01*
X35987Y-29288D01*
X36022Y-29324D01*
X36063Y-29353D01*
X36109Y-29373D01*
X36158Y-29383D01*
X36208Y-29384D01*
X36215Y-29382D01*
X36600Y-29767D01*
X36600Y-29932D01*
G36*
X36775Y-21478D02*
X36716Y-21478D01*
X36746Y-21448D01*
X36775Y-21478D01*
X36775Y-21478D01*
G37*
X36775Y-21478D02*
X36716Y-21478D01*
X36746Y-21448D01*
X36775Y-21478D01*
G36*
X37202Y-29945D02*
X37014Y-30132D01*
X37015Y-30108D01*
X37005Y-30059D01*
X36986Y-30013D01*
X36959Y-29971D01*
X36923Y-29936D01*
X36920Y-29933D01*
X36920Y-29701D01*
X36917Y-29670D01*
X36908Y-29641D01*
X36908Y-29640D01*
X36900Y-29626D01*
X36894Y-29613D01*
X36893Y-29612D01*
X36889Y-29608D01*
X36874Y-29589D01*
X36874Y-29588D01*
X36872Y-29587D01*
X36869Y-29584D01*
X36720Y-29435D01*
X36781Y-29435D01*
X36806Y-29430D01*
X36829Y-29420D01*
X36850Y-29406D01*
X36868Y-29388D01*
X36882Y-29367D01*
X36892Y-29344D01*
X36897Y-29319D01*
X36897Y-29294D01*
X36897Y-28507D01*
X36903Y-28507D01*
X36903Y-29319D01*
X36908Y-29344D01*
X36918Y-29367D01*
X36932Y-29388D01*
X36950Y-29406D01*
X36971Y-29420D01*
X36994Y-29430D01*
X37019Y-29435D01*
X37044Y-29435D01*
X37202Y-29435D01*
X37202Y-29945D01*
X37202Y-29945D01*
G37*
X37202Y-29945D02*
X37014Y-30132D01*
X37015Y-30108D01*
X37005Y-30059D01*
X36986Y-30013D01*
X36959Y-29971D01*
X36923Y-29936D01*
X36920Y-29933D01*
X36920Y-29701D01*
X36917Y-29670D01*
X36908Y-29641D01*
X36908Y-29640D01*
X36900Y-29626D01*
X36894Y-29613D01*
X36893Y-29612D01*
X36889Y-29608D01*
X36874Y-29589D01*
X36874Y-29588D01*
X36872Y-29587D01*
X36869Y-29584D01*
X36720Y-29435D01*
X36781Y-29435D01*
X36806Y-29430D01*
X36829Y-29420D01*
X36850Y-29406D01*
X36868Y-29388D01*
X36882Y-29367D01*
X36892Y-29344D01*
X36897Y-29319D01*
X36897Y-29294D01*
X36897Y-28507D01*
X36903Y-28507D01*
X36903Y-29319D01*
X36908Y-29344D01*
X36918Y-29367D01*
X36932Y-29388D01*
X36950Y-29406D01*
X36971Y-29420D01*
X36994Y-29430D01*
X37019Y-29435D01*
X37044Y-29435D01*
X37202Y-29435D01*
X37202Y-29945D01*
G36*
X37369Y-31616D02*
X35859Y-33125D01*
X35859Y-33123D01*
X35832Y-33081D01*
X35796Y-33046D01*
X35791Y-33042D01*
X37369Y-31465D01*
X37369Y-31616D01*
X37369Y-31616D01*
G37*
X37369Y-31616D02*
X35859Y-33125D01*
X35859Y-33123D01*
X35832Y-33081D01*
X35796Y-33046D01*
X35791Y-33042D01*
X37369Y-31465D01*
X37369Y-31616D01*
G36*
X37433Y-27343D02*
X37250Y-27527D01*
X37249Y-27528D01*
X37229Y-27552D01*
X37214Y-27579D01*
X37209Y-27594D01*
X37205Y-27608D01*
X37204Y-27615D01*
X37201Y-27640D01*
X37202Y-27648D01*
X37202Y-28196D01*
X37183Y-28190D01*
X37152Y-28187D01*
X37151Y-28187D01*
X37150Y-28187D01*
X35744Y-28187D01*
X35744Y-28113D01*
X35739Y-28088D01*
X35729Y-28065D01*
X35724Y-28058D01*
X35736Y-28070D01*
X35777Y-28099D01*
X35823Y-28119D01*
X35872Y-28129D01*
X35922Y-28130D01*
X35971Y-28122D01*
X36018Y-28104D01*
X36060Y-28077D01*
X36096Y-28042D01*
X36125Y-28002D01*
X36145Y-27956D01*
X36156Y-27907D01*
X36157Y-27850D01*
X36147Y-27801D01*
X36128Y-27755D01*
X36101Y-27713D01*
X36065Y-27678D01*
X36024Y-27650D01*
X35978Y-27630D01*
X35929Y-27620D01*
X35879Y-27620D01*
X35873Y-27620D01*
X35854Y-27601D01*
X35854Y-27506D01*
X35943Y-27506D01*
X35968Y-27501D01*
X35991Y-27491D01*
X36012Y-27477D01*
X36030Y-27459D01*
X36044Y-27438D01*
X36054Y-27415D01*
X36059Y-27390D01*
X36059Y-27365D01*
X36059Y-26892D01*
X36054Y-26867D01*
X36044Y-26844D01*
X36030Y-26823D01*
X36012Y-26805D01*
X36010Y-26803D01*
X36403Y-26411D01*
X36403Y-27273D01*
X36408Y-27298D01*
X36418Y-27321D01*
X36432Y-27342D01*
X36450Y-27360D01*
X36471Y-27374D01*
X36494Y-27384D01*
X36519Y-27389D01*
X36544Y-27389D01*
X36781Y-27389D01*
X36806Y-27384D01*
X36829Y-27374D01*
X36850Y-27360D01*
X36868Y-27342D01*
X36882Y-27321D01*
X36892Y-27298D01*
X36897Y-27273D01*
X36897Y-27248D01*
X36897Y-26459D01*
X36903Y-26460D01*
X36903Y-27273D01*
X36908Y-27298D01*
X36918Y-27321D01*
X36932Y-27342D01*
X36950Y-27360D01*
X36971Y-27374D01*
X36994Y-27384D01*
X37019Y-27389D01*
X37044Y-27389D01*
X37281Y-27389D01*
X37306Y-27384D01*
X37329Y-27374D01*
X37350Y-27360D01*
X37368Y-27342D01*
X37382Y-27321D01*
X37392Y-27298D01*
X37397Y-27273D01*
X37397Y-27248D01*
X37397Y-26461D01*
X37403Y-26461D01*
X37403Y-27273D01*
X37408Y-27298D01*
X37418Y-27321D01*
X37432Y-27342D01*
X37433Y-27343D01*
X37433Y-27343D01*
G37*
X37433Y-27343D02*
X37250Y-27527D01*
X37249Y-27528D01*
X37229Y-27552D01*
X37214Y-27579D01*
X37209Y-27594D01*
X37205Y-27608D01*
X37204Y-27615D01*
X37201Y-27640D01*
X37202Y-27648D01*
X37202Y-28196D01*
X37183Y-28190D01*
X37152Y-28187D01*
X37151Y-28187D01*
X37150Y-28187D01*
X35744Y-28187D01*
X35744Y-28113D01*
X35739Y-28088D01*
X35729Y-28065D01*
X35724Y-28058D01*
X35736Y-28070D01*
X35777Y-28099D01*
X35823Y-28119D01*
X35872Y-28129D01*
X35922Y-28130D01*
X35971Y-28122D01*
X36018Y-28104D01*
X36060Y-28077D01*
X36096Y-28042D01*
X36125Y-28002D01*
X36145Y-27956D01*
X36156Y-27907D01*
X36157Y-27850D01*
X36147Y-27801D01*
X36128Y-27755D01*
X36101Y-27713D01*
X36065Y-27678D01*
X36024Y-27650D01*
X35978Y-27630D01*
X35929Y-27620D01*
X35879Y-27620D01*
X35873Y-27620D01*
X35854Y-27601D01*
X35854Y-27506D01*
X35943Y-27506D01*
X35968Y-27501D01*
X35991Y-27491D01*
X36012Y-27477D01*
X36030Y-27459D01*
X36044Y-27438D01*
X36054Y-27415D01*
X36059Y-27390D01*
X36059Y-27365D01*
X36059Y-26892D01*
X36054Y-26867D01*
X36044Y-26844D01*
X36030Y-26823D01*
X36012Y-26805D01*
X36010Y-26803D01*
X36403Y-26411D01*
X36403Y-27273D01*
X36408Y-27298D01*
X36418Y-27321D01*
X36432Y-27342D01*
X36450Y-27360D01*
X36471Y-27374D01*
X36494Y-27384D01*
X36519Y-27389D01*
X36544Y-27389D01*
X36781Y-27389D01*
X36806Y-27384D01*
X36829Y-27374D01*
X36850Y-27360D01*
X36868Y-27342D01*
X36882Y-27321D01*
X36892Y-27298D01*
X36897Y-27273D01*
X36897Y-27248D01*
X36897Y-26459D01*
X36903Y-26460D01*
X36903Y-27273D01*
X36908Y-27298D01*
X36918Y-27321D01*
X36932Y-27342D01*
X36950Y-27360D01*
X36971Y-27374D01*
X36994Y-27384D01*
X37019Y-27389D01*
X37044Y-27389D01*
X37281Y-27389D01*
X37306Y-27384D01*
X37329Y-27374D01*
X37350Y-27360D01*
X37368Y-27342D01*
X37382Y-27321D01*
X37392Y-27298D01*
X37397Y-27273D01*
X37397Y-27248D01*
X37397Y-26461D01*
X37403Y-26461D01*
X37403Y-27273D01*
X37408Y-27298D01*
X37418Y-27321D01*
X37432Y-27342D01*
X37433Y-27343D01*
G36*
X37530Y-29792D02*
X37522Y-29801D01*
X37522Y-29787D01*
X37525Y-29790D01*
X37530Y-29792D01*
X37530Y-29792D01*
G37*
X37530Y-29792D02*
X37522Y-29801D01*
X37522Y-29787D01*
X37525Y-29790D01*
X37530Y-29792D01*
G36*
X37708Y-28311D02*
X37522Y-28311D01*
X37522Y-27707D01*
X37708Y-27521D01*
X37708Y-28311D01*
X37708Y-28311D01*
G37*
X37708Y-28311D02*
X37522Y-28311D01*
X37522Y-27707D01*
X37708Y-27521D01*
X37708Y-28311D01*
G36*
X38201Y-28311D02*
X38028Y-28311D01*
X38028Y-27456D01*
X38035Y-27465D01*
X38036Y-27466D01*
X38037Y-27466D01*
X38041Y-27470D01*
X38201Y-27630D01*
X38201Y-28311D01*
X38201Y-28311D01*
G37*
X38201Y-28311D02*
X38028Y-28311D01*
X38028Y-27456D01*
X38035Y-27465D01*
X38036Y-27466D01*
X38037Y-27466D01*
X38041Y-27470D01*
X38201Y-27630D01*
X38201Y-28311D01*
G36*
X38201Y-29837D02*
X38160Y-29878D01*
X38159Y-29878D01*
X38109Y-29878D01*
X38060Y-29887D01*
X38013Y-29906D01*
X37971Y-29933D01*
X37936Y-29968D01*
X37907Y-30010D01*
X37888Y-30056D01*
X37877Y-30104D01*
X37877Y-30154D01*
X37878Y-30159D01*
X34898Y-33140D01*
X34632Y-33140D01*
X34650Y-33126D01*
X34650Y-33125D01*
X34651Y-33125D01*
X34651Y-33124D01*
X34655Y-33120D01*
X37975Y-29799D01*
X38000Y-29816D01*
X38046Y-29836D01*
X38095Y-29846D01*
X38145Y-29847D01*
X38194Y-29839D01*
X38201Y-29836D01*
X38201Y-29837D01*
X38201Y-29837D01*
G37*
X38201Y-29837D02*
X38160Y-29878D01*
X38159Y-29878D01*
X38109Y-29878D01*
X38060Y-29887D01*
X38013Y-29906D01*
X37971Y-29933D01*
X37936Y-29968D01*
X37907Y-30010D01*
X37888Y-30056D01*
X37877Y-30104D01*
X37877Y-30154D01*
X37878Y-30159D01*
X34898Y-33140D01*
X34632Y-33140D01*
X34650Y-33126D01*
X34650Y-33125D01*
X34651Y-33125D01*
X34651Y-33124D01*
X34655Y-33120D01*
X37975Y-29799D01*
X38000Y-29816D01*
X38046Y-29836D01*
X38095Y-29846D01*
X38145Y-29847D01*
X38194Y-29839D01*
X38201Y-29836D01*
X38201Y-29837D01*
G36*
X38593Y-31665D02*
X34908Y-35351D01*
X34797Y-35351D01*
X34796Y-35351D01*
X34763Y-35354D01*
X34745Y-35359D01*
X34733Y-35363D01*
X34731Y-35363D01*
X34731Y-35364D01*
X34702Y-35379D01*
X34679Y-35397D01*
X34672Y-35362D01*
X34665Y-35347D01*
X34679Y-35343D01*
X34691Y-35340D01*
X34692Y-35339D01*
X34693Y-35339D01*
X34721Y-35324D01*
X34722Y-35324D01*
X34742Y-35307D01*
X34747Y-35304D01*
X34747Y-35303D01*
X34748Y-35303D01*
X34748Y-35302D01*
X34752Y-35297D01*
X37944Y-32106D01*
X37945Y-32105D01*
X37965Y-32081D01*
X37966Y-32080D01*
X37979Y-32055D01*
X37981Y-32052D01*
X37981Y-32051D01*
X37982Y-32050D01*
X37991Y-32020D01*
X37992Y-32019D01*
X37992Y-32015D01*
X38454Y-31553D01*
X38471Y-31580D01*
X38506Y-31616D01*
X38547Y-31645D01*
X38593Y-31665D01*
X38593Y-31665D01*
G37*
X38593Y-31665D02*
X34908Y-35351D01*
X34797Y-35351D01*
X34796Y-35351D01*
X34763Y-35354D01*
X34745Y-35359D01*
X34733Y-35363D01*
X34731Y-35363D01*
X34731Y-35364D01*
X34702Y-35379D01*
X34679Y-35397D01*
X34672Y-35362D01*
X34665Y-35347D01*
X34679Y-35343D01*
X34691Y-35340D01*
X34692Y-35339D01*
X34693Y-35339D01*
X34721Y-35324D01*
X34722Y-35324D01*
X34742Y-35307D01*
X34747Y-35304D01*
X34747Y-35303D01*
X34748Y-35303D01*
X34748Y-35302D01*
X34752Y-35297D01*
X37944Y-32106D01*
X37945Y-32105D01*
X37965Y-32081D01*
X37966Y-32080D01*
X37979Y-32055D01*
X37981Y-32052D01*
X37981Y-32051D01*
X37982Y-32050D01*
X37991Y-32020D01*
X37992Y-32019D01*
X37992Y-32015D01*
X38454Y-31553D01*
X38471Y-31580D01*
X38506Y-31616D01*
X38547Y-31645D01*
X38593Y-31665D01*
G36*
X38701Y-28311D02*
X38521Y-28311D01*
X38521Y-28079D01*
X38524Y-28083D01*
X38528Y-28088D01*
X38529Y-28089D01*
X38530Y-28089D01*
X38534Y-28093D01*
X38701Y-28260D01*
X38701Y-28311D01*
X38701Y-28311D01*
G37*
X38701Y-28311D02*
X38521Y-28311D01*
X38521Y-28079D01*
X38524Y-28083D01*
X38528Y-28088D01*
X38529Y-28089D01*
X38530Y-28089D01*
X38534Y-28093D01*
X38701Y-28260D01*
X38701Y-28311D01*
G36*
X38701Y-29652D02*
X38673Y-29680D01*
X38673Y-29626D01*
X38701Y-29598D01*
X38701Y-29652D01*
X38701Y-29652D01*
G37*
X38701Y-29652D02*
X38673Y-29680D01*
X38673Y-29626D01*
X38701Y-29598D01*
X38701Y-29652D01*
G36*
X38851Y-25607D02*
X38825Y-25612D01*
X38778Y-25631D01*
X38736Y-25658D01*
X38729Y-25665D01*
X38729Y-25424D01*
X38729Y-25398D01*
X38724Y-25374D01*
X38714Y-25350D01*
X38700Y-25329D01*
X38683Y-25311D01*
X38293Y-24922D01*
X38272Y-24908D01*
X38248Y-24898D01*
X38224Y-24893D01*
X38198Y-24893D01*
X38174Y-24898D01*
X38150Y-24908D01*
X38129Y-24922D01*
X38111Y-24939D01*
X37722Y-25329D01*
X37708Y-25350D01*
X37698Y-25374D01*
X37693Y-25398D01*
X37693Y-25424D01*
X37698Y-25448D01*
X37708Y-25472D01*
X37722Y-25493D01*
X37739Y-25511D01*
X38129Y-25900D01*
X38150Y-25914D01*
X38174Y-25924D01*
X38198Y-25929D01*
X38224Y-25929D01*
X38248Y-25924D01*
X38272Y-25914D01*
X38293Y-25900D01*
X38311Y-25883D01*
X38700Y-25493D01*
X38714Y-25472D01*
X38724Y-25448D01*
X38729Y-25424D01*
X38729Y-25665D01*
X38701Y-25693D01*
X38672Y-25735D01*
X38653Y-25781D01*
X38642Y-25829D01*
X38642Y-25879D01*
X38651Y-25929D01*
X38669Y-25975D01*
X38696Y-26017D01*
X38731Y-26053D01*
X38772Y-26082D01*
X38786Y-26088D01*
X38774Y-26112D01*
X38772Y-26116D01*
X38771Y-26116D01*
X38771Y-26118D01*
X38761Y-26149D01*
X38758Y-26178D01*
X38758Y-26181D01*
X38758Y-26182D01*
X38758Y-26183D01*
X38758Y-26265D01*
X38756Y-26265D01*
X38519Y-26265D01*
X38494Y-26270D01*
X38471Y-26280D01*
X38450Y-26294D01*
X38432Y-26312D01*
X38418Y-26333D01*
X38408Y-26356D01*
X38403Y-26381D01*
X38403Y-26406D01*
X38403Y-27273D01*
X38408Y-27298D01*
X38418Y-27321D01*
X38432Y-27342D01*
X38450Y-27360D01*
X38471Y-27374D01*
X38480Y-27377D01*
X38480Y-27457D01*
X38475Y-27452D01*
X38475Y-27451D01*
X38470Y-27447D01*
X38366Y-27343D01*
X38368Y-27342D01*
X38382Y-27321D01*
X38392Y-27298D01*
X38397Y-27273D01*
X38397Y-27248D01*
X38397Y-26381D01*
X38392Y-26356D01*
X38382Y-26333D01*
X38368Y-26312D01*
X38350Y-26294D01*
X38329Y-26280D01*
X38306Y-26270D01*
X38281Y-26265D01*
X38256Y-26265D01*
X38019Y-26265D01*
X38018Y-26265D01*
X38016Y-26257D01*
X38016Y-26256D01*
X38008Y-26242D01*
X38002Y-26229D01*
X38001Y-26228D01*
X37997Y-26224D01*
X37982Y-26205D01*
X37982Y-26204D01*
X37981Y-26203D01*
X37966Y-26189D01*
X37965Y-26188D01*
X37942Y-26169D01*
X37941Y-26168D01*
X37915Y-26154D01*
X37914Y-26153D01*
X37898Y-26148D01*
X37885Y-26144D01*
X37877Y-26143D01*
X37853Y-26140D01*
X37845Y-26141D01*
X37183Y-26141D01*
X37184Y-26124D01*
X37172Y-26065D01*
X37150Y-26010D01*
X37147Y-26005D01*
X37148Y-25996D01*
X37149Y-25988D01*
X37149Y-25986D01*
X37149Y-25985D01*
X37149Y-25107D01*
X37171Y-25087D01*
X37206Y-25038D01*
X37224Y-24996D01*
X37241Y-25013D01*
X37306Y-25059D01*
X37379Y-25090D01*
X37456Y-25107D01*
X37536Y-25109D01*
X37614Y-25095D01*
X37687Y-25066D01*
X37754Y-25024D01*
X37812Y-24969D01*
X37857Y-24904D01*
X37889Y-24832D01*
X37907Y-24754D01*
X37908Y-24664D01*
X37893Y-24586D01*
X37862Y-24513D01*
X37818Y-24447D01*
X37762Y-24391D01*
X37697Y-24347D01*
X37624Y-24316D01*
X37546Y-24300D01*
X37467Y-24300D01*
X37389Y-24315D01*
X37316Y-24344D01*
X37249Y-24388D01*
X37193Y-24443D01*
X37148Y-24509D01*
X37117Y-24582D01*
X37106Y-24631D01*
X37085Y-24617D01*
X37030Y-24594D01*
X36971Y-24582D01*
X36911Y-24582D01*
X36852Y-24593D01*
X36815Y-24607D01*
X36815Y-24403D01*
X36815Y-24401D01*
X36814Y-24400D01*
X36828Y-24401D01*
X36906Y-24387D01*
X36979Y-24358D01*
X37046Y-24316D01*
X37104Y-24261D01*
X37149Y-24196D01*
X37181Y-24124D01*
X37199Y-24046D01*
X37200Y-23956D01*
X37185Y-23878D01*
X37154Y-23805D01*
X37110Y-23739D01*
X37054Y-23683D01*
X36989Y-23639D01*
X36916Y-23608D01*
X36838Y-23592D01*
X36759Y-23592D01*
X36681Y-23607D01*
X36608Y-23636D01*
X36541Y-23680D01*
X36485Y-23735D01*
X36440Y-23801D01*
X36409Y-23874D01*
X36403Y-23902D01*
X36183Y-23682D01*
X36199Y-23680D01*
X36272Y-23651D01*
X36339Y-23609D01*
X36397Y-23554D01*
X36442Y-23489D01*
X36474Y-23417D01*
X36492Y-23339D01*
X36493Y-23249D01*
X36478Y-23171D01*
X36447Y-23098D01*
X36403Y-23032D01*
X36347Y-22976D01*
X36282Y-22932D01*
X36209Y-22901D01*
X36131Y-22885D01*
X36052Y-22885D01*
X35974Y-22900D01*
X35944Y-22910D01*
X35987Y-22869D01*
X36022Y-22820D01*
X36046Y-22766D01*
X36059Y-22707D01*
X36059Y-22681D01*
X38759Y-25381D01*
X38759Y-25431D01*
X38768Y-25481D01*
X38786Y-25527D01*
X38813Y-25569D01*
X38848Y-25605D01*
X38851Y-25607D01*
X38851Y-25607D01*
G37*
X38851Y-25607D02*
X38825Y-25612D01*
X38778Y-25631D01*
X38736Y-25658D01*
X38729Y-25665D01*
X38729Y-25424D01*
X38729Y-25398D01*
X38724Y-25374D01*
X38714Y-25350D01*
X38700Y-25329D01*
X38683Y-25311D01*
X38293Y-24922D01*
X38272Y-24908D01*
X38248Y-24898D01*
X38224Y-24893D01*
X38198Y-24893D01*
X38174Y-24898D01*
X38150Y-24908D01*
X38129Y-24922D01*
X38111Y-24939D01*
X37722Y-25329D01*
X37708Y-25350D01*
X37698Y-25374D01*
X37693Y-25398D01*
X37693Y-25424D01*
X37698Y-25448D01*
X37708Y-25472D01*
X37722Y-25493D01*
X37739Y-25511D01*
X38129Y-25900D01*
X38150Y-25914D01*
X38174Y-25924D01*
X38198Y-25929D01*
X38224Y-25929D01*
X38248Y-25924D01*
X38272Y-25914D01*
X38293Y-25900D01*
X38311Y-25883D01*
X38700Y-25493D01*
X38714Y-25472D01*
X38724Y-25448D01*
X38729Y-25424D01*
X38729Y-25665D01*
X38701Y-25693D01*
X38672Y-25735D01*
X38653Y-25781D01*
X38642Y-25829D01*
X38642Y-25879D01*
X38651Y-25929D01*
X38669Y-25975D01*
X38696Y-26017D01*
X38731Y-26053D01*
X38772Y-26082D01*
X38786Y-26088D01*
X38774Y-26112D01*
X38772Y-26116D01*
X38771Y-26116D01*
X38771Y-26118D01*
X38761Y-26149D01*
X38758Y-26178D01*
X38758Y-26181D01*
X38758Y-26182D01*
X38758Y-26183D01*
X38758Y-26265D01*
X38756Y-26265D01*
X38519Y-26265D01*
X38494Y-26270D01*
X38471Y-26280D01*
X38450Y-26294D01*
X38432Y-26312D01*
X38418Y-26333D01*
X38408Y-26356D01*
X38403Y-26381D01*
X38403Y-26406D01*
X38403Y-27273D01*
X38408Y-27298D01*
X38418Y-27321D01*
X38432Y-27342D01*
X38450Y-27360D01*
X38471Y-27374D01*
X38480Y-27377D01*
X38480Y-27457D01*
X38475Y-27452D01*
X38475Y-27451D01*
X38470Y-27447D01*
X38366Y-27343D01*
X38368Y-27342D01*
X38382Y-27321D01*
X38392Y-27298D01*
X38397Y-27273D01*
X38397Y-27248D01*
X38397Y-26381D01*
X38392Y-26356D01*
X38382Y-26333D01*
X38368Y-26312D01*
X38350Y-26294D01*
X38329Y-26280D01*
X38306Y-26270D01*
X38281Y-26265D01*
X38256Y-26265D01*
X38019Y-26265D01*
X38018Y-26265D01*
X38016Y-26257D01*
X38016Y-26256D01*
X38008Y-26242D01*
X38002Y-26229D01*
X38001Y-26228D01*
X37997Y-26224D01*
X37982Y-26205D01*
X37982Y-26204D01*
X37981Y-26203D01*
X37966Y-26189D01*
X37965Y-26188D01*
X37942Y-26169D01*
X37941Y-26168D01*
X37915Y-26154D01*
X37914Y-26153D01*
X37898Y-26148D01*
X37885Y-26144D01*
X37877Y-26143D01*
X37853Y-26140D01*
X37845Y-26141D01*
X37183Y-26141D01*
X37184Y-26124D01*
X37172Y-26065D01*
X37150Y-26010D01*
X37147Y-26005D01*
X37148Y-25996D01*
X37149Y-25988D01*
X37149Y-25986D01*
X37149Y-25985D01*
X37149Y-25107D01*
X37171Y-25087D01*
X37206Y-25038D01*
X37224Y-24996D01*
X37241Y-25013D01*
X37306Y-25059D01*
X37379Y-25090D01*
X37456Y-25107D01*
X37536Y-25109D01*
X37614Y-25095D01*
X37687Y-25066D01*
X37754Y-25024D01*
X37812Y-24969D01*
X37857Y-24904D01*
X37889Y-24832D01*
X37907Y-24754D01*
X37908Y-24664D01*
X37893Y-24586D01*
X37862Y-24513D01*
X37818Y-24447D01*
X37762Y-24391D01*
X37697Y-24347D01*
X37624Y-24316D01*
X37546Y-24300D01*
X37467Y-24300D01*
X37389Y-24315D01*
X37316Y-24344D01*
X37249Y-24388D01*
X37193Y-24443D01*
X37148Y-24509D01*
X37117Y-24582D01*
X37106Y-24631D01*
X37085Y-24617D01*
X37030Y-24594D01*
X36971Y-24582D01*
X36911Y-24582D01*
X36852Y-24593D01*
X36815Y-24607D01*
X36815Y-24403D01*
X36815Y-24401D01*
X36814Y-24400D01*
X36828Y-24401D01*
X36906Y-24387D01*
X36979Y-24358D01*
X37046Y-24316D01*
X37104Y-24261D01*
X37149Y-24196D01*
X37181Y-24124D01*
X37199Y-24046D01*
X37200Y-23956D01*
X37185Y-23878D01*
X37154Y-23805D01*
X37110Y-23739D01*
X37054Y-23683D01*
X36989Y-23639D01*
X36916Y-23608D01*
X36838Y-23592D01*
X36759Y-23592D01*
X36681Y-23607D01*
X36608Y-23636D01*
X36541Y-23680D01*
X36485Y-23735D01*
X36440Y-23801D01*
X36409Y-23874D01*
X36403Y-23902D01*
X36183Y-23682D01*
X36199Y-23680D01*
X36272Y-23651D01*
X36339Y-23609D01*
X36397Y-23554D01*
X36442Y-23489D01*
X36474Y-23417D01*
X36492Y-23339D01*
X36493Y-23249D01*
X36478Y-23171D01*
X36447Y-23098D01*
X36403Y-23032D01*
X36347Y-22976D01*
X36282Y-22932D01*
X36209Y-22901D01*
X36131Y-22885D01*
X36052Y-22885D01*
X35974Y-22900D01*
X35944Y-22910D01*
X35987Y-22869D01*
X36022Y-22820D01*
X36046Y-22766D01*
X36059Y-22707D01*
X36059Y-22681D01*
X38759Y-25381D01*
X38759Y-25431D01*
X38768Y-25481D01*
X38786Y-25527D01*
X38813Y-25569D01*
X38848Y-25605D01*
X38851Y-25607D01*
G36*
X38882Y-30227D02*
X37709Y-31401D01*
X37709Y-31328D01*
X38836Y-30201D01*
X38862Y-30219D01*
X38882Y-30227D01*
X38882Y-30227D01*
G37*
X38882Y-30227D02*
X37709Y-31401D01*
X37709Y-31328D01*
X38836Y-30201D01*
X38862Y-30219D01*
X38882Y-30227D01*
G36*
X38986Y-32118D02*
X36754Y-34349D01*
X36753Y-34349D01*
X36703Y-34349D01*
X36654Y-34358D01*
X36607Y-34377D01*
X36565Y-34404D01*
X36530Y-34439D01*
X36501Y-34481D01*
X36482Y-34527D01*
X36471Y-34575D01*
X36471Y-34625D01*
X36477Y-34663D01*
X36240Y-34663D01*
X36207Y-34666D01*
X36175Y-34676D01*
X36146Y-34691D01*
X36120Y-34712D01*
X36119Y-34712D01*
X36119Y-34713D01*
X35337Y-35495D01*
X35245Y-35495D01*
X38895Y-31844D01*
X38891Y-31866D01*
X38891Y-31916D01*
X38900Y-31966D01*
X38918Y-32012D01*
X38945Y-32054D01*
X38980Y-32090D01*
X38986Y-32094D01*
X38986Y-32118D01*
X38986Y-32118D01*
G37*
X38986Y-32118D02*
X36754Y-34349D01*
X36753Y-34349D01*
X36703Y-34349D01*
X36654Y-34358D01*
X36607Y-34377D01*
X36565Y-34404D01*
X36530Y-34439D01*
X36501Y-34481D01*
X36482Y-34527D01*
X36471Y-34575D01*
X36471Y-34625D01*
X36477Y-34663D01*
X36240Y-34663D01*
X36207Y-34666D01*
X36175Y-34676D01*
X36146Y-34691D01*
X36120Y-34712D01*
X36119Y-34712D01*
X36119Y-34713D01*
X35337Y-35495D01*
X35245Y-35495D01*
X38895Y-31844D01*
X38891Y-31866D01*
X38891Y-31916D01*
X38900Y-31966D01*
X38918Y-32012D01*
X38945Y-32054D01*
X38980Y-32090D01*
X38986Y-32094D01*
X38986Y-32118D01*
G36*
X39247Y-26265D02*
X39098Y-26265D01*
X39098Y-26253D01*
X39247Y-26104D01*
X39247Y-26265D01*
X39247Y-26265D01*
G37*
X39247Y-26265D02*
X39098Y-26265D01*
X39098Y-26253D01*
X39247Y-26104D01*
X39247Y-26265D01*
G36*
X39247Y-29495D02*
X39041Y-29701D01*
X39041Y-29435D01*
X39044Y-29435D01*
X39247Y-29435D01*
X39247Y-29495D01*
X39247Y-29495D01*
G37*
X39247Y-29495D02*
X39041Y-29701D01*
X39041Y-29435D01*
X39044Y-29435D01*
X39247Y-29435D01*
X39247Y-29495D01*
G36*
X39675Y-29435D02*
X39587Y-29523D01*
X39587Y-29435D01*
X39675Y-29435D01*
X39675Y-29435D01*
G37*
X39675Y-29435D02*
X39587Y-29523D01*
X39587Y-29435D01*
X39675Y-29435D01*
G36*
X39741Y-25125D02*
X36434Y-21818D01*
X36951Y-21818D01*
X37432Y-22299D01*
X37404Y-22317D01*
X37369Y-22352D01*
X37340Y-22394D01*
X37321Y-22440D01*
X37310Y-22488D01*
X37310Y-22538D01*
X37319Y-22588D01*
X37337Y-22634D01*
X37364Y-22676D01*
X37399Y-22712D01*
X37440Y-22741D01*
X37486Y-22761D01*
X37535Y-22771D01*
X37579Y-22771D01*
X39741Y-24933D01*
X39741Y-25125D01*
X39741Y-25125D01*
G37*
X39741Y-25125D02*
X36434Y-21818D01*
X36951Y-21818D01*
X37432Y-22299D01*
X37404Y-22317D01*
X37369Y-22352D01*
X37340Y-22394D01*
X37321Y-22440D01*
X37310Y-22488D01*
X37310Y-22538D01*
X37319Y-22588D01*
X37337Y-22634D01*
X37364Y-22676D01*
X37399Y-22712D01*
X37440Y-22741D01*
X37486Y-22761D01*
X37535Y-22771D01*
X37579Y-22771D01*
X39741Y-24933D01*
X39741Y-25125D01*
G36*
X39741Y-25959D02*
X39726Y-25953D01*
X39677Y-25943D01*
X39643Y-25943D01*
X39741Y-25845D01*
X39741Y-25959D01*
X39741Y-25959D01*
G37*
X39741Y-25959D02*
X39726Y-25953D01*
X39677Y-25943D01*
X39643Y-25943D01*
X39741Y-25845D01*
X39741Y-25959D01*
G36*
X39744Y-27389D02*
X39731Y-27409D01*
X39712Y-27455D01*
X39701Y-27503D01*
X39701Y-27553D01*
X39710Y-27603D01*
X39728Y-27649D01*
X39735Y-27659D01*
X39735Y-28011D01*
X39587Y-27863D01*
X39587Y-27389D01*
X39744Y-27389D01*
X39744Y-27389D01*
G37*
X39744Y-27389D02*
X39731Y-27409D01*
X39712Y-27455D01*
X39701Y-27503D01*
X39701Y-27553D01*
X39710Y-27603D01*
X39728Y-27649D01*
X39735Y-27659D01*
X39735Y-28011D01*
X39587Y-27863D01*
X39587Y-27389D01*
X39744Y-27389D01*
G36*
X39802Y-30064D02*
X38889Y-30977D01*
X38865Y-30940D01*
X38829Y-30905D01*
X38788Y-30877D01*
X38742Y-30857D01*
X38735Y-30855D01*
X39728Y-29863D01*
X39728Y-29905D01*
X39737Y-29955D01*
X39755Y-30001D01*
X39782Y-30043D01*
X39802Y-30064D01*
X39802Y-30064D01*
G37*
X39802Y-30064D02*
X38889Y-30977D01*
X38865Y-30940D01*
X38829Y-30905D01*
X38788Y-30877D01*
X38742Y-30857D01*
X38735Y-30855D01*
X39728Y-29863D01*
X39728Y-29905D01*
X39737Y-29955D01*
X39755Y-30001D01*
X39782Y-30043D01*
X39802Y-30064D01*
G36*
X39931Y-26312D02*
X39918Y-26333D01*
X39908Y-26356D01*
X39903Y-26381D01*
X39903Y-26406D01*
X39903Y-27273D01*
X39904Y-27282D01*
X39894Y-27284D01*
X39897Y-27273D01*
X39897Y-27248D01*
X39897Y-26381D01*
X39892Y-26356D01*
X39882Y-26333D01*
X39874Y-26321D01*
X39893Y-26279D01*
X39893Y-26275D01*
X39931Y-26312D01*
X39931Y-26312D01*
G37*
X39931Y-26312D02*
X39918Y-26333D01*
X39908Y-26356D01*
X39903Y-26381D01*
X39903Y-26406D01*
X39903Y-27273D01*
X39904Y-27282D01*
X39894Y-27284D01*
X39897Y-27273D01*
X39897Y-27248D01*
X39897Y-26381D01*
X39892Y-26356D01*
X39882Y-26333D01*
X39874Y-26321D01*
X39893Y-26279D01*
X39893Y-26275D01*
X39931Y-26312D01*
G36*
X40029Y-30711D02*
X39437Y-31445D01*
X39427Y-31445D01*
X39378Y-31454D01*
X39331Y-31473D01*
X39289Y-31500D01*
X39254Y-31535D01*
X39225Y-31577D01*
X39206Y-31623D01*
X39200Y-31645D01*
X39173Y-31640D01*
X39123Y-31640D01*
X39095Y-31645D01*
X40029Y-30711D01*
X40029Y-30711D01*
G37*
X40029Y-30711D02*
X39437Y-31445D01*
X39427Y-31445D01*
X39378Y-31454D01*
X39331Y-31473D01*
X39289Y-31500D01*
X39254Y-31535D01*
X39225Y-31577D01*
X39206Y-31623D01*
X39200Y-31645D01*
X39173Y-31640D01*
X39123Y-31640D01*
X39095Y-31645D01*
X40029Y-30711D01*
G36*
X40130Y-29435D02*
X40127Y-29451D01*
X40127Y-29501D01*
X40128Y-29512D01*
X40011Y-29629D01*
X40010Y-29629D01*
X39962Y-29629D01*
X40024Y-29567D01*
X40025Y-29567D01*
X40045Y-29542D01*
X40046Y-29541D01*
X40052Y-29528D01*
X40061Y-29513D01*
X40061Y-29512D01*
X40071Y-29481D01*
X40075Y-29448D01*
X40075Y-29447D01*
X40075Y-29446D01*
X40075Y-29435D01*
X40130Y-29435D01*
X40130Y-29435D01*
G37*
X40130Y-29435D02*
X40127Y-29451D01*
X40127Y-29501D01*
X40128Y-29512D01*
X40011Y-29629D01*
X40010Y-29629D01*
X39962Y-29629D01*
X40024Y-29567D01*
X40025Y-29567D01*
X40045Y-29542D01*
X40046Y-29541D01*
X40052Y-29528D01*
X40061Y-29513D01*
X40061Y-29512D01*
X40071Y-29481D01*
X40075Y-29448D01*
X40075Y-29447D01*
X40075Y-29446D01*
X40075Y-29435D01*
X40130Y-29435D01*
G36*
X40198Y-24093D02*
X37309Y-21204D01*
X37310Y-21165D01*
X37300Y-21116D01*
X37281Y-21070D01*
X37254Y-21028D01*
X37218Y-20993D01*
X37177Y-20965D01*
X37131Y-20945D01*
X37082Y-20935D01*
X37032Y-20935D01*
X36983Y-20944D01*
X36936Y-20963D01*
X36910Y-20979D01*
X36907Y-20975D01*
X36906Y-20974D01*
X36900Y-20969D01*
X36382Y-20451D01*
X36381Y-20450D01*
X36357Y-20430D01*
X36356Y-20429D01*
X36331Y-20416D01*
X36328Y-20414D01*
X36327Y-20413D01*
X36326Y-20413D01*
X36295Y-20403D01*
X36266Y-20400D01*
X36263Y-20400D01*
X36262Y-20400D01*
X36261Y-20400D01*
X35019Y-20400D01*
X34992Y-20373D01*
X34951Y-20345D01*
X34905Y-20325D01*
X34856Y-20315D01*
X34806Y-20315D01*
X34757Y-20324D01*
X34710Y-20343D01*
X34668Y-20370D01*
X34638Y-20399D01*
X34608Y-20370D01*
X34567Y-20342D01*
X34521Y-20322D01*
X34472Y-20312D01*
X34422Y-20312D01*
X34417Y-20312D01*
X33992Y-19888D01*
X33991Y-19887D01*
X33968Y-19868D01*
X33967Y-19867D01*
X33941Y-19853D01*
X33940Y-19852D01*
X33924Y-19847D01*
X33911Y-19843D01*
X33903Y-19842D01*
X33879Y-19839D01*
X33871Y-19840D01*
X33508Y-19840D01*
X33508Y-19692D01*
X33503Y-19667D01*
X33493Y-19644D01*
X33479Y-19623D01*
X33461Y-19605D01*
X33440Y-19591D01*
X33417Y-19581D01*
X33392Y-19576D01*
X33367Y-19576D01*
X32856Y-19576D01*
X32831Y-19581D01*
X32808Y-19591D01*
X32787Y-19605D01*
X32769Y-19623D01*
X32755Y-19644D01*
X32750Y-19655D01*
X32745Y-19644D01*
X32731Y-19623D01*
X32713Y-19605D01*
X32692Y-19591D01*
X32669Y-19581D01*
X32644Y-19576D01*
X32619Y-19576D01*
X32108Y-19576D01*
X32083Y-19581D01*
X32060Y-19591D01*
X32039Y-19605D01*
X32021Y-19623D01*
X32007Y-19644D01*
X31997Y-19667D01*
X31992Y-19692D01*
X31992Y-19717D01*
X31992Y-19844D01*
X31967Y-19852D01*
X31953Y-19859D01*
X31940Y-19866D01*
X31935Y-19870D01*
X31915Y-19886D01*
X31911Y-19891D01*
X31517Y-20285D01*
X31390Y-20285D01*
X31389Y-20283D01*
X31353Y-20248D01*
X31312Y-20220D01*
X31266Y-20200D01*
X31217Y-20190D01*
X31167Y-20190D01*
X31118Y-20199D01*
X31071Y-20218D01*
X31029Y-20245D01*
X30994Y-20280D01*
X30965Y-20322D01*
X30946Y-20368D01*
X30935Y-20416D01*
X30935Y-20466D01*
X30943Y-20515D01*
X29154Y-20515D01*
X29121Y-20518D01*
X29089Y-20528D01*
X29060Y-20543D01*
X29034Y-20564D01*
X29033Y-20564D01*
X29033Y-20565D01*
X25933Y-23666D01*
X25912Y-23691D01*
X25899Y-23715D01*
X25897Y-23719D01*
X25896Y-23719D01*
X25896Y-23721D01*
X25886Y-23752D01*
X25883Y-23781D01*
X25883Y-23784D01*
X25883Y-23785D01*
X25883Y-23786D01*
X25883Y-23901D01*
X25878Y-23898D01*
X25832Y-23878D01*
X25783Y-23868D01*
X25733Y-23868D01*
X25684Y-23877D01*
X25637Y-23896D01*
X25595Y-23923D01*
X25560Y-23958D01*
X25531Y-24000D01*
X25512Y-24046D01*
X25501Y-24094D01*
X25501Y-24137D01*
X25026Y-24611D01*
X25638Y-23461D01*
X25935Y-23012D01*
X26809Y-21940D01*
X27875Y-21059D01*
X28319Y-20766D01*
X29505Y-20124D01*
X30829Y-19714D01*
X31332Y-19614D01*
X32708Y-19470D01*
X32743Y-19470D01*
X32750Y-19470D01*
X34166Y-19609D01*
X34573Y-19689D01*
X35943Y-20103D01*
X37278Y-20813D01*
X37486Y-20953D01*
X38659Y-21909D01*
X39540Y-22975D01*
X39833Y-23419D01*
X40198Y-24093D01*
X40198Y-24093D01*
G37*
X40198Y-24093D02*
X37309Y-21204D01*
X37310Y-21165D01*
X37300Y-21116D01*
X37281Y-21070D01*
X37254Y-21028D01*
X37218Y-20993D01*
X37177Y-20965D01*
X37131Y-20945D01*
X37082Y-20935D01*
X37032Y-20935D01*
X36983Y-20944D01*
X36936Y-20963D01*
X36910Y-20979D01*
X36907Y-20975D01*
X36906Y-20974D01*
X36900Y-20969D01*
X36382Y-20451D01*
X36381Y-20450D01*
X36357Y-20430D01*
X36356Y-20429D01*
X36331Y-20416D01*
X36328Y-20414D01*
X36327Y-20413D01*
X36326Y-20413D01*
X36295Y-20403D01*
X36266Y-20400D01*
X36263Y-20400D01*
X36262Y-20400D01*
X36261Y-20400D01*
X35019Y-20400D01*
X34992Y-20373D01*
X34951Y-20345D01*
X34905Y-20325D01*
X34856Y-20315D01*
X34806Y-20315D01*
X34757Y-20324D01*
X34710Y-20343D01*
X34668Y-20370D01*
X34638Y-20399D01*
X34608Y-20370D01*
X34567Y-20342D01*
X34521Y-20322D01*
X34472Y-20312D01*
X34422Y-20312D01*
X34417Y-20312D01*
X33992Y-19888D01*
X33991Y-19887D01*
X33968Y-19868D01*
X33967Y-19867D01*
X33941Y-19853D01*
X33940Y-19852D01*
X33924Y-19847D01*
X33911Y-19843D01*
X33903Y-19842D01*
X33879Y-19839D01*
X33871Y-19840D01*
X33508Y-19840D01*
X33508Y-19692D01*
X33503Y-19667D01*
X33493Y-19644D01*
X33479Y-19623D01*
X33461Y-19605D01*
X33440Y-19591D01*
X33417Y-19581D01*
X33392Y-19576D01*
X33367Y-19576D01*
X32856Y-19576D01*
X32831Y-19581D01*
X32808Y-19591D01*
X32787Y-19605D01*
X32769Y-19623D01*
X32755Y-19644D01*
X32750Y-19655D01*
X32745Y-19644D01*
X32731Y-19623D01*
X32713Y-19605D01*
X32692Y-19591D01*
X32669Y-19581D01*
X32644Y-19576D01*
X32619Y-19576D01*
X32108Y-19576D01*
X32083Y-19581D01*
X32060Y-19591D01*
X32039Y-19605D01*
X32021Y-19623D01*
X32007Y-19644D01*
X31997Y-19667D01*
X31992Y-19692D01*
X31992Y-19717D01*
X31992Y-19844D01*
X31967Y-19852D01*
X31953Y-19859D01*
X31940Y-19866D01*
X31935Y-19870D01*
X31915Y-19886D01*
X31911Y-19891D01*
X31517Y-20285D01*
X31390Y-20285D01*
X31389Y-20283D01*
X31353Y-20248D01*
X31312Y-20220D01*
X31266Y-20200D01*
X31217Y-20190D01*
X31167Y-20190D01*
X31118Y-20199D01*
X31071Y-20218D01*
X31029Y-20245D01*
X30994Y-20280D01*
X30965Y-20322D01*
X30946Y-20368D01*
X30935Y-20416D01*
X30935Y-20466D01*
X30943Y-20515D01*
X29154Y-20515D01*
X29121Y-20518D01*
X29089Y-20528D01*
X29060Y-20543D01*
X29034Y-20564D01*
X29033Y-20564D01*
X29033Y-20565D01*
X25933Y-23666D01*
X25912Y-23691D01*
X25899Y-23715D01*
X25897Y-23719D01*
X25896Y-23719D01*
X25896Y-23721D01*
X25886Y-23752D01*
X25883Y-23781D01*
X25883Y-23784D01*
X25883Y-23785D01*
X25883Y-23786D01*
X25883Y-23901D01*
X25878Y-23898D01*
X25832Y-23878D01*
X25783Y-23868D01*
X25733Y-23868D01*
X25684Y-23877D01*
X25637Y-23896D01*
X25595Y-23923D01*
X25560Y-23958D01*
X25531Y-24000D01*
X25512Y-24046D01*
X25501Y-24094D01*
X25501Y-24137D01*
X25026Y-24611D01*
X25638Y-23461D01*
X25935Y-23012D01*
X26809Y-21940D01*
X27875Y-21059D01*
X28319Y-20766D01*
X29505Y-20124D01*
X30829Y-19714D01*
X31332Y-19614D01*
X32708Y-19470D01*
X32743Y-19470D01*
X32750Y-19470D01*
X34166Y-19609D01*
X34573Y-19689D01*
X35943Y-20103D01*
X37278Y-20813D01*
X37486Y-20953D01*
X38659Y-21909D01*
X39540Y-22975D01*
X39833Y-23419D01*
X40198Y-24093D01*
G36*
X40218Y-26118D02*
X40081Y-25981D01*
X40081Y-25785D01*
X40218Y-25922D01*
X40218Y-26118D01*
X40218Y-26118D01*
G37*
X40218Y-26118D02*
X40081Y-25981D01*
X40081Y-25785D01*
X40218Y-25922D01*
X40218Y-26118D01*
G36*
X40218Y-28028D02*
X40075Y-28171D01*
X40075Y-27759D01*
X40114Y-27734D01*
X40150Y-27699D01*
X40179Y-27659D01*
X40199Y-27613D01*
X40210Y-27564D01*
X40211Y-27507D01*
X40201Y-27458D01*
X40182Y-27412D01*
X40167Y-27389D01*
X40218Y-27389D01*
X40218Y-28028D01*
X40218Y-28028D01*
G37*
X40218Y-28028D02*
X40075Y-28171D01*
X40075Y-27759D01*
X40114Y-27734D01*
X40150Y-27699D01*
X40179Y-27659D01*
X40199Y-27613D01*
X40210Y-27564D01*
X40211Y-27507D01*
X40201Y-27458D01*
X40182Y-27412D01*
X40167Y-27389D01*
X40218Y-27389D01*
X40218Y-28028D01*
G36*
X40441Y-29231D02*
X40409Y-29225D01*
X40397Y-29225D01*
X40397Y-28427D01*
X40392Y-28402D01*
X40382Y-28379D01*
X40368Y-28358D01*
X40441Y-28286D01*
X40441Y-29231D01*
X40441Y-29231D01*
G37*
X40441Y-29231D02*
X40409Y-29225D01*
X40397Y-29225D01*
X40397Y-28427D01*
X40392Y-28402D01*
X40382Y-28379D01*
X40368Y-28358D01*
X40441Y-28286D01*
X40441Y-29231D01*
G36*
X40441Y-29818D02*
X40142Y-30116D01*
X40143Y-30112D01*
X40143Y-30111D01*
X40143Y-30110D01*
X40143Y-30084D01*
X40177Y-30051D01*
X40206Y-30011D01*
X40226Y-29965D01*
X40237Y-29916D01*
X40238Y-29859D01*
X40237Y-29855D01*
X40358Y-29734D01*
X40402Y-29735D01*
X40441Y-29728D01*
X40441Y-29818D01*
X40441Y-29818D01*
G37*
X40441Y-29818D02*
X40142Y-30116D01*
X40143Y-30112D01*
X40143Y-30111D01*
X40143Y-30110D01*
X40143Y-30084D01*
X40177Y-30051D01*
X40206Y-30011D01*
X40226Y-29965D01*
X40237Y-29916D01*
X40238Y-29859D01*
X40237Y-29855D01*
X40358Y-29734D01*
X40402Y-29735D01*
X40441Y-29728D01*
X40441Y-29818D01*
G36*
X40674Y-30452D02*
X40497Y-31039D01*
X39855Y-32248D01*
X39561Y-32692D01*
X38697Y-33752D01*
X37624Y-34640D01*
X37177Y-34935D01*
X35998Y-35573D01*
X35623Y-35689D01*
X36310Y-35003D01*
X36940Y-35003D01*
X36941Y-35003D01*
X36972Y-35000D01*
X36974Y-35000D01*
X36992Y-34994D01*
X37004Y-34991D01*
X37005Y-34990D01*
X37006Y-34990D01*
X37034Y-34975D01*
X37035Y-34975D01*
X37055Y-34958D01*
X37060Y-34955D01*
X37060Y-34954D01*
X37061Y-34954D01*
X37061Y-34953D01*
X37065Y-34948D01*
X39343Y-32671D01*
X39377Y-32672D01*
X39426Y-32664D01*
X39473Y-32646D01*
X39515Y-32619D01*
X39551Y-32584D01*
X39580Y-32544D01*
X39600Y-32498D01*
X39611Y-32449D01*
X39612Y-32392D01*
X39602Y-32343D01*
X39583Y-32297D01*
X39556Y-32255D01*
X39520Y-32220D01*
X39479Y-32192D01*
X39433Y-32172D01*
X39384Y-32162D01*
X39334Y-32162D01*
X39306Y-32167D01*
X39306Y-32095D01*
X39340Y-32062D01*
X39369Y-32022D01*
X39389Y-31976D01*
X39395Y-31948D01*
X39420Y-31954D01*
X39470Y-31955D01*
X39519Y-31947D01*
X39566Y-31929D01*
X39608Y-31902D01*
X39644Y-31867D01*
X39673Y-31827D01*
X39693Y-31781D01*
X39704Y-31732D01*
X39705Y-31675D01*
X39701Y-31658D01*
X40674Y-30452D01*
X40674Y-30452D01*
G37*
X40674Y-30452D02*
X40497Y-31039D01*
X39855Y-32248D01*
X39561Y-32692D01*
X38697Y-33752D01*
X37624Y-34640D01*
X37177Y-34935D01*
X35998Y-35573D01*
X35623Y-35689D01*
X36310Y-35003D01*
X36940Y-35003D01*
X36941Y-35003D01*
X36972Y-35000D01*
X36974Y-35000D01*
X36992Y-34994D01*
X37004Y-34991D01*
X37005Y-34990D01*
X37006Y-34990D01*
X37034Y-34975D01*
X37035Y-34975D01*
X37055Y-34958D01*
X37060Y-34955D01*
X37060Y-34954D01*
X37061Y-34954D01*
X37061Y-34953D01*
X37065Y-34948D01*
X39343Y-32671D01*
X39377Y-32672D01*
X39426Y-32664D01*
X39473Y-32646D01*
X39515Y-32619D01*
X39551Y-32584D01*
X39580Y-32544D01*
X39600Y-32498D01*
X39611Y-32449D01*
X39612Y-32392D01*
X39602Y-32343D01*
X39583Y-32297D01*
X39556Y-32255D01*
X39520Y-32220D01*
X39479Y-32192D01*
X39433Y-32172D01*
X39384Y-32162D01*
X39334Y-32162D01*
X39306Y-32167D01*
X39306Y-32095D01*
X39340Y-32062D01*
X39369Y-32022D01*
X39389Y-31976D01*
X39395Y-31948D01*
X39420Y-31954D01*
X39470Y-31955D01*
X39519Y-31947D01*
X39566Y-31929D01*
X39608Y-31902D01*
X39644Y-31867D01*
X39673Y-31827D01*
X39693Y-31781D01*
X39704Y-31732D01*
X39705Y-31675D01*
X39701Y-31658D01*
X40674Y-30452D01*
G36*
X40783Y-25601D02*
X40511Y-25329D01*
X40511Y-24719D01*
X40783Y-25601D01*
X40783Y-25601D01*
G37*
X40783Y-25601D02*
X40511Y-25329D01*
X40511Y-24719D01*
X40783Y-25601D01*
G36*
X41130Y-27844D02*
X40969Y-29476D01*
X40924Y-29627D01*
X40924Y-26122D01*
X40985Y-26428D01*
X41130Y-27808D01*
X41130Y-27844D01*
X41130Y-27844D01*
G37*
X41130Y-27844D02*
X40969Y-29476D01*
X40924Y-29627D01*
X40924Y-26122D01*
X40985Y-26428D01*
X41130Y-27808D01*
X41130Y-27844D01*
M02*
