G04 (created by PCBNEW-RS274X (2010-04-21 BZR 23xx)-stable) date Sun 05 Sep 2010 11:36:07 PM CEST*
G01*
G70*
G90*
%MOIN*%
G04 Gerber Fmt 3.4, Leading zero omitted, Abs format*
%FSLAX34Y34*%
G04 APERTURE LIST*
%ADD10C,0.001000*%
%ADD11R,0.076000X0.076000*%
%ADD12C,0.076000*%
%ADD13R,0.071000X0.071000*%
%ADD14C,0.071000*%
%ADD15R,0.094700X0.033700*%
%ADD16R,0.033700X0.094700*%
%ADD17R,0.067100X0.075000*%
%ADD18R,0.051400X0.075100*%
%ADD19R,0.075100X0.051400*%
G04 APERTURE END LIST*
G54D10*
G54D11*
X32300Y-33400D03*
G54D12*
X33300Y-33400D03*
X32300Y-32400D03*
X33300Y-32400D03*
X32300Y-31400D03*
X33300Y-31400D03*
G54D13*
X30300Y-24400D03*
G54D14*
X31300Y-24400D03*
X32300Y-24400D03*
X33300Y-24400D03*
X34300Y-24400D03*
X35300Y-24400D03*
G54D15*
X30854Y-28943D03*
X30854Y-28628D03*
X30854Y-28313D03*
X30854Y-27998D03*
X30854Y-27683D03*
X30854Y-27368D03*
X30854Y-27053D03*
X30854Y-26738D03*
X34620Y-26740D03*
X34620Y-28950D03*
X34620Y-28630D03*
X34620Y-28310D03*
X34620Y-28000D03*
X34620Y-27680D03*
X34620Y-27370D03*
X34620Y-27050D03*
G54D16*
X31638Y-25950D03*
X31952Y-25950D03*
X32268Y-25950D03*
X32582Y-25950D03*
X32898Y-25950D03*
X33212Y-25950D03*
X33528Y-25950D03*
X33842Y-25950D03*
X31640Y-29730D03*
X31950Y-29730D03*
X32270Y-29730D03*
X32580Y-29730D03*
X32890Y-29730D03*
X33210Y-29730D03*
X33530Y-29730D03*
X33850Y-29730D03*
G54D17*
X39176Y-29950D03*
X39924Y-29950D03*
X38876Y-30900D03*
X39624Y-30900D03*
X29776Y-34750D03*
X30524Y-34750D03*
X35026Y-34750D03*
X35774Y-34750D03*
G54D10*
G36*
X27653Y-32316D02*
X27123Y-31786D01*
X27487Y-31422D01*
X28017Y-31952D01*
X27653Y-32316D01*
X27653Y-32316D01*
G37*
G36*
X27207Y-32761D02*
X26677Y-32231D01*
X27041Y-31867D01*
X27571Y-32397D01*
X27207Y-32761D01*
X27207Y-32761D01*
G37*
G36*
X26762Y-33207D02*
X26232Y-32677D01*
X26596Y-32313D01*
X27126Y-32843D01*
X26762Y-33207D01*
X26762Y-33207D01*
G37*
G36*
X28153Y-34598D02*
X27623Y-34068D01*
X27987Y-33704D01*
X28517Y-34234D01*
X28153Y-34598D01*
X28153Y-34598D01*
G37*
G36*
X28599Y-34153D02*
X28069Y-33623D01*
X28433Y-33259D01*
X28963Y-33789D01*
X28599Y-34153D01*
X28599Y-34153D01*
G37*
G36*
X29044Y-33707D02*
X28514Y-33177D01*
X28878Y-32813D01*
X29408Y-33343D01*
X29044Y-33707D01*
X29044Y-33707D01*
G37*
G54D18*
X26460Y-26906D03*
X25830Y-26906D03*
X25200Y-26906D03*
X25200Y-28874D03*
X25830Y-28874D03*
X26460Y-28874D03*
G54D10*
G36*
X28684Y-22793D02*
X29214Y-22263D01*
X29578Y-22627D01*
X29048Y-23157D01*
X28684Y-22793D01*
X28684Y-22793D01*
G37*
G36*
X28239Y-22347D02*
X28769Y-21817D01*
X29133Y-22181D01*
X28603Y-22711D01*
X28239Y-22347D01*
X28239Y-22347D01*
G37*
G36*
X27793Y-21902D02*
X28323Y-21372D01*
X28687Y-21736D01*
X28157Y-22266D01*
X27793Y-21902D01*
X27793Y-21902D01*
G37*
G36*
X26402Y-23293D02*
X26932Y-22763D01*
X27296Y-23127D01*
X26766Y-23657D01*
X26402Y-23293D01*
X26402Y-23293D01*
G37*
G36*
X26847Y-23739D02*
X27377Y-23209D01*
X27741Y-23573D01*
X27211Y-24103D01*
X26847Y-23739D01*
X26847Y-23739D01*
G37*
G36*
X27293Y-24184D02*
X27823Y-23654D01*
X28187Y-24018D01*
X27657Y-24548D01*
X27293Y-24184D01*
X27293Y-24184D01*
G37*
G54D19*
X33834Y-21620D03*
X33834Y-20990D03*
X33834Y-20360D03*
X31866Y-20360D03*
X31866Y-20990D03*
X31866Y-21620D03*
G54D10*
G36*
X38007Y-23664D02*
X38537Y-24194D01*
X38173Y-24558D01*
X37643Y-24028D01*
X38007Y-23664D01*
X38007Y-23664D01*
G37*
G36*
X38453Y-23219D02*
X38983Y-23749D01*
X38619Y-24113D01*
X38089Y-23583D01*
X38453Y-23219D01*
X38453Y-23219D01*
G37*
G36*
X38898Y-22773D02*
X39428Y-23303D01*
X39064Y-23667D01*
X38534Y-23137D01*
X38898Y-22773D01*
X38898Y-22773D01*
G37*
G36*
X37507Y-21382D02*
X38037Y-21912D01*
X37673Y-22276D01*
X37143Y-21746D01*
X37507Y-21382D01*
X37507Y-21382D01*
G37*
G36*
X37061Y-21827D02*
X37591Y-22357D01*
X37227Y-22721D01*
X36697Y-22191D01*
X37061Y-21827D01*
X37061Y-21827D01*
G37*
G36*
X36616Y-22273D02*
X37146Y-22803D01*
X36782Y-23167D01*
X36252Y-22637D01*
X36616Y-22273D01*
X36616Y-22273D01*
G37*
G54D18*
X39320Y-28884D03*
X39950Y-28884D03*
X40580Y-28884D03*
X40580Y-26916D03*
X39950Y-26916D03*
X39320Y-26916D03*
G54D10*
G36*
X37206Y-33247D02*
X36676Y-33777D01*
X36312Y-33413D01*
X36842Y-32883D01*
X37206Y-33247D01*
X37206Y-33247D01*
G37*
G36*
X37651Y-33693D02*
X37121Y-34223D01*
X36757Y-33859D01*
X37287Y-33329D01*
X37651Y-33693D01*
X37651Y-33693D01*
G37*
G36*
X38097Y-34138D02*
X37567Y-34668D01*
X37203Y-34304D01*
X37733Y-33774D01*
X38097Y-34138D01*
X38097Y-34138D01*
G37*
G36*
X39488Y-32747D02*
X38958Y-33277D01*
X38594Y-32913D01*
X39124Y-32383D01*
X39488Y-32747D01*
X39488Y-32747D01*
G37*
G36*
X39043Y-32301D02*
X38513Y-32831D01*
X38149Y-32467D01*
X38679Y-31937D01*
X39043Y-32301D01*
X39043Y-32301D01*
G37*
G36*
X38597Y-31856D02*
X38067Y-32386D01*
X37703Y-32022D01*
X38233Y-31492D01*
X38597Y-31856D01*
X38597Y-31856D01*
G37*
G54D19*
X31866Y-34470D03*
X31866Y-35100D03*
X31866Y-35730D03*
X33834Y-35730D03*
X33834Y-35100D03*
X33834Y-34470D03*
G54D17*
X26226Y-30900D03*
X26974Y-30900D03*
X25876Y-29950D03*
X26624Y-29950D03*
G54D13*
X36300Y-25400D03*
G54D14*
X36300Y-26400D03*
X36300Y-27400D03*
X36300Y-28400D03*
X36300Y-29400D03*
X36300Y-30400D03*
X36300Y-31400D03*
X36300Y-32400D03*
G54D13*
X29300Y-25400D03*
G54D14*
X29300Y-26400D03*
X29300Y-27400D03*
X29300Y-28400D03*
X29300Y-29400D03*
X29300Y-30400D03*
X29300Y-31400D03*
X29300Y-32400D03*
M02*
