M48
INCH,TZ
T1C0.025
T2C0.032
T3C0.040
T4C0.120
%
G90
G05
T1
X026551Y-030005
X027555Y-023098
X027634Y-028845
X027945Y-029225
X028123Y-024664
X028356Y-029439
X028615Y-023439
X028626Y-025792
X029256Y-033626
X029305Y-026428
X029409Y-031496
X029702Y-031789
X029830Y-029008
X030826Y-026080
X031176Y-030120
X031203Y-034330
X031477Y-033990
X031584Y-030685
X031737Y-028221
X032070Y-027504
X032188Y-028159
X032274Y-030585
X032403Y-035683
X032490Y-024202
X032663Y-032853
X032898Y-028179
X032974Y-019930
X033062Y-031005
X033212Y-027567
X033351Y-024101
X033616Y-032299
X033712Y-031764
X033791Y-030387
X034258Y-032407
X034361Y-034788
X034850Y-024040
X035343Y-028322
X035858Y-029402
X036424Y-034272
X036757Y-026359
X036880Y-025260
X037203Y-022844
X037791Y-024857
X037809Y-033567
X037876Y-026729
X038225Y-024732
X039216Y-031635
X039369Y-026307
X039543Y-029403
X039631Y-030554
T2
X025450Y-025150
X025450Y-030550
X026450Y-025150
X026450Y-030550
X027450Y-025150
X027450Y-030550
X028450Y-025150
X028450Y-030550
X038350Y-025300
X038350Y-026300
X038350Y-027300
X038350Y-028300
X038350Y-029300
X038350Y-030300
T3
X031750Y-022600
X031750Y-023600
X032750Y-022600
X032750Y-023600
X033750Y-022600
X033750Y-023600
T4
X030050Y-025150
X030050Y-030550
X035450Y-025150
X035450Y-030550
T0
M30
