M48
INCH,TZ
T1C0.013
T2C0.020
T3C0.030
T4C0.040
T5C0.083
%
G90
G05
T1
X024961Y-026142
X025531Y-025571
X026024Y-030354
X026024Y-031181
X026024Y-032126
X026161Y-024941
X026378Y-029646
X026969Y-024606
X028543Y-021024
X029370Y-021024
X029420Y-033896
X029696Y-034526
X030335Y-021024
X030404Y-035038
X030984Y-021417
X031034Y-035589
X032211Y-024373
X032215Y-033030
X032393Y-024877
X032759Y-024377
X033239Y-033739
X034252Y-029370
X034488Y-020079
X034803Y-021024
X035374Y-021594
X035906Y-022126
X038425Y-031024
X039094Y-026063
X039114Y-030295
X039350Y-024193
X039370Y-023386
X039370Y-025020
X039941Y-029488
X040551Y-029488
T2
X024850Y-028795
X025098Y-027874
X026467Y-022952
X027334Y-022491
X027413Y-033296
X027859Y-034127
X031805Y-019950
X032756Y-020217
X032756Y-035492
X033695Y-035750
X034286Y-026148
X037641Y-021623
X038138Y-022452
X038178Y-033257
X038977Y-032791
X040374Y-027874
X040650Y-026905
T3
X028747Y-026103
X028747Y-026603
X028747Y-027103
X028747Y-027603
X028747Y-028103
X028747Y-028603
X028747Y-029103
X028747Y-029603
X030997Y-023853
X030997Y-031853
X031497Y-023853
X031497Y-031853
X031997Y-023853
X031997Y-031853
X032497Y-023853
X032497Y-031853
X032997Y-023853
X032997Y-031853
X033497Y-023853
X033497Y-031853
X033997Y-023853
X033997Y-031853
X034497Y-023853
X034497Y-031853
X036747Y-026103
X036747Y-026603
X036747Y-027103
X036747Y-027603
X036747Y-028103
X036747Y-028603
X036747Y-029103
X036747Y-029603
T4
X030217Y-022795
X031217Y-022795
X032217Y-022795
X032250Y-026850
X032250Y-027850
X032250Y-028850
X033217Y-022795
X033250Y-026850
X033250Y-027850
X033250Y-028850
X034217Y-022795
X035217Y-022795
T5
X030050Y-025156
X030050Y-030550
X035444Y-025156
X035444Y-030550
T0
M30
