M48
INCH,TZ
T1C0.013
T2C0.025
T3C0.032
T4C0.040
T5C0.087
%
G90
G05
T1
X025538Y-028286
X025768Y-024048
X026022Y-029467
X026659Y-024035
X026661Y-025265
X026811Y-024826
X026990Y-031418
X027124Y-026097
X027216Y-030214
X027440Y-030434
X027698Y-022712
X028370Y-034357
X028572Y-030696
X028683Y-021483
X029134Y-032072
X029530Y-031681
X030017Y-027602
X030073Y-022782
X030073Y-023687
X030175Y-021636
X030741Y-029747
X030954Y-033494
X030972Y-024618
X031156Y-034051
X031279Y-020377
X031329Y-020914
X031362Y-026436
X031380Y-024965
X031566Y-031139
X031757Y-026772
X033191Y-035052
X033642Y-021804
X033952Y-024325
X034371Y-034566
X034407Y-033664
X034445Y-020567
X034674Y-021668
X034829Y-020570
X034929Y-034270
X035132Y-021742
X035633Y-033243
X035902Y-027875
X036401Y-033768
X036557Y-021277
X036726Y-034604
X037055Y-021190
X037304Y-029774
X037565Y-022517
X037881Y-029459
X038345Y-029501
X038666Y-031102
X038672Y-031421
X038897Y-025858
X038921Y-029995
X039014Y-025410
X039146Y-031895
X039357Y-032417
X039450Y-031700
X039650Y-026198
X039956Y-027532
X039983Y-029884
X040382Y-029480
T2
X026220Y-032265
X033869Y-027680
X035755Y-022669
X036879Y-026154
X036939Y-024887
T3
X027239Y-025411
X027946Y-024704
X028654Y-023996
X029361Y-023289
X030250Y-022250
X031250Y-022250
X031750Y-023250
X032250Y-022250
X032750Y-023250
X033250Y-022250
X033750Y-023250
X034250Y-022250
X035250Y-022250
X036089Y-023289
X036796Y-023996
X037504Y-024704
X038211Y-025411
T4
X032250Y-026850
X032250Y-027850
X032250Y-028850
X033250Y-026850
X033250Y-027850
X033250Y-028850
T5
X030050Y-025150
X030050Y-030550
X035450Y-025150
X035450Y-030550
T0
M30
