G04 (created by PCBNEW-RS274X (2011-07-08)-stable) date Tue 20 Dec 2011 05:11:32 PM CET*
G01*
G70*
G90*
%MOIN*%
G04 Gerber Fmt 3.4, Leading zero omitted, Abs format*
%FSLAX34Y34*%
G04 APERTURE LIST*
%ADD10C,0.006000*%
%ADD11C,0.015000*%
%ADD12R,0.035400X0.059100*%
%ADD13R,0.059100X0.035400*%
%ADD14R,0.060000X0.060000*%
%ADD15C,0.060000*%
%ADD16R,0.023600X0.086600*%
%ADD17R,0.059000X0.051100*%
%ADD18C,0.160000*%
%ADD19R,0.070800X0.062900*%
%ADD20R,0.055000X0.055000*%
%ADD21C,0.055000*%
%ADD22R,0.047200X0.047200*%
%ADD23R,0.059100X0.063000*%
%ADD24C,0.035000*%
%ADD25C,0.012000*%
%ADD26C,0.010000*%
G04 APERTURE END LIST*
G54D10*
G54D11*
X32750Y-19300D02*
X32005Y-19333D01*
X31266Y-19430D01*
X30538Y-19592D01*
X29826Y-19816D01*
X29137Y-20102D01*
X28476Y-20446D01*
X27846Y-20847D01*
X27255Y-21301D01*
X26705Y-21805D01*
X26201Y-22355D01*
X25747Y-22946D01*
X25346Y-23576D01*
X25002Y-24237D01*
X24716Y-24926D01*
X24492Y-25638D01*
X24330Y-26366D01*
X24233Y-27105D01*
X24200Y-27850D01*
X24200Y-27850D02*
X24233Y-28595D01*
X24330Y-29334D01*
X24492Y-30062D01*
X24716Y-30774D01*
X25002Y-31463D01*
X25346Y-32124D01*
X25747Y-32754D01*
X26201Y-33345D01*
X26705Y-33895D01*
X27255Y-34399D01*
X27846Y-34853D01*
X28476Y-35254D01*
X29137Y-35598D01*
X29826Y-35884D01*
X30538Y-36108D01*
X31266Y-36270D01*
X32005Y-36367D01*
X32750Y-36400D01*
X32750Y-36400D02*
X33495Y-36367D01*
X34234Y-36270D01*
X34962Y-36108D01*
X35674Y-35884D01*
X36363Y-35598D01*
X37025Y-35254D01*
X37654Y-34853D01*
X38245Y-34399D01*
X38795Y-33895D01*
X39299Y-33345D01*
X39753Y-32754D01*
X40154Y-32124D01*
X40498Y-31463D01*
X40784Y-30774D01*
X41008Y-30062D01*
X41170Y-29334D01*
X41267Y-28595D01*
X41300Y-27850D01*
X41300Y-27850D02*
X41267Y-27105D01*
X41170Y-26366D01*
X41008Y-25638D01*
X40784Y-24926D01*
X40498Y-24237D01*
X40154Y-23576D01*
X39753Y-22946D01*
X39299Y-22355D01*
X38795Y-21805D01*
X38245Y-21301D01*
X37654Y-20847D01*
X37025Y-20446D01*
X36363Y-20102D01*
X35674Y-19816D01*
X34962Y-19592D01*
X34234Y-19430D01*
X33495Y-19333D01*
X32750Y-19300D01*
G54D10*
G36*
X27817Y-33807D02*
X28234Y-34224D01*
X27983Y-34475D01*
X27566Y-34058D01*
X27817Y-33807D01*
X27817Y-33807D01*
G37*
G36*
X28263Y-33362D02*
X28680Y-33779D01*
X28429Y-34030D01*
X28012Y-33613D01*
X28263Y-33362D01*
X28263Y-33362D01*
G37*
G36*
X28708Y-32916D02*
X29125Y-33333D01*
X28874Y-33584D01*
X28457Y-33167D01*
X28708Y-32916D01*
X28708Y-32916D01*
G37*
G36*
X27317Y-31525D02*
X27734Y-31942D01*
X27483Y-32193D01*
X27066Y-31776D01*
X27317Y-31525D01*
X27317Y-31525D01*
G37*
G36*
X26871Y-31970D02*
X27288Y-32387D01*
X27037Y-32638D01*
X26620Y-32221D01*
X26871Y-31970D01*
X26871Y-31970D01*
G37*
G36*
X26426Y-32416D02*
X26843Y-32833D01*
X26592Y-33084D01*
X26175Y-32667D01*
X26426Y-32416D01*
X26426Y-32416D01*
G37*
G54D12*
X24870Y-28834D03*
X25500Y-28834D03*
X26130Y-28834D03*
X26130Y-26866D03*
X25500Y-26866D03*
X24870Y-26866D03*
G54D10*
G36*
X26793Y-22917D02*
X26376Y-23334D01*
X26125Y-23083D01*
X26542Y-22666D01*
X26793Y-22917D01*
X26793Y-22917D01*
G37*
G36*
X27238Y-23363D02*
X26821Y-23780D01*
X26570Y-23529D01*
X26987Y-23112D01*
X27238Y-23363D01*
X27238Y-23363D01*
G37*
G36*
X27684Y-23808D02*
X27267Y-24225D01*
X27016Y-23974D01*
X27433Y-23557D01*
X27684Y-23808D01*
X27684Y-23808D01*
G37*
G36*
X29075Y-22417D02*
X28658Y-22834D01*
X28407Y-22583D01*
X28824Y-22166D01*
X29075Y-22417D01*
X29075Y-22417D01*
G37*
G36*
X28630Y-21971D02*
X28213Y-22388D01*
X27962Y-22137D01*
X28379Y-21720D01*
X28630Y-21971D01*
X28630Y-21971D01*
G37*
G36*
X28184Y-21526D02*
X27767Y-21943D01*
X27516Y-21692D01*
X27933Y-21275D01*
X28184Y-21526D01*
X28184Y-21526D01*
G37*
G54D13*
X31766Y-19970D03*
X31766Y-20600D03*
X31766Y-21230D03*
X33734Y-21230D03*
X33734Y-20600D03*
X33734Y-19970D03*
G54D10*
G36*
X37683Y-21943D02*
X37266Y-21526D01*
X37517Y-21275D01*
X37934Y-21692D01*
X37683Y-21943D01*
X37683Y-21943D01*
G37*
G36*
X37237Y-22388D02*
X36820Y-21971D01*
X37071Y-21720D01*
X37488Y-22137D01*
X37237Y-22388D01*
X37237Y-22388D01*
G37*
G36*
X36792Y-22834D02*
X36375Y-22417D01*
X36626Y-22166D01*
X37043Y-22583D01*
X36792Y-22834D01*
X36792Y-22834D01*
G37*
G36*
X38183Y-24225D02*
X37766Y-23808D01*
X38017Y-23557D01*
X38434Y-23974D01*
X38183Y-24225D01*
X38183Y-24225D01*
G37*
G36*
X38629Y-23780D02*
X38212Y-23363D01*
X38463Y-23112D01*
X38880Y-23529D01*
X38629Y-23780D01*
X38629Y-23780D01*
G37*
G36*
X39074Y-23334D02*
X38657Y-22917D01*
X38908Y-22666D01*
X39325Y-23083D01*
X39074Y-23334D01*
X39074Y-23334D01*
G37*
G54D12*
X40630Y-26866D03*
X40000Y-26866D03*
X39370Y-26866D03*
X39370Y-28834D03*
X40000Y-28834D03*
X40630Y-28834D03*
G54D10*
G36*
X38657Y-32833D02*
X39074Y-32416D01*
X39325Y-32667D01*
X38908Y-33084D01*
X38657Y-32833D01*
X38657Y-32833D01*
G37*
G36*
X38212Y-32387D02*
X38629Y-31970D01*
X38880Y-32221D01*
X38463Y-32638D01*
X38212Y-32387D01*
X38212Y-32387D01*
G37*
G36*
X37766Y-31942D02*
X38183Y-31525D01*
X38434Y-31776D01*
X38017Y-32193D01*
X37766Y-31942D01*
X37766Y-31942D01*
G37*
G36*
X36375Y-33333D02*
X36792Y-32916D01*
X37043Y-33167D01*
X36626Y-33584D01*
X36375Y-33333D01*
X36375Y-33333D01*
G37*
G36*
X36820Y-33779D02*
X37237Y-33362D01*
X37488Y-33613D01*
X37071Y-34030D01*
X36820Y-33779D01*
X36820Y-33779D01*
G37*
G36*
X37266Y-34224D02*
X37683Y-33807D01*
X37934Y-34058D01*
X37517Y-34475D01*
X37266Y-34224D01*
X37266Y-34224D01*
G37*
G54D13*
X33734Y-35730D03*
X33734Y-35100D03*
X33734Y-34470D03*
X31766Y-34470D03*
X31766Y-35100D03*
X31766Y-35730D03*
G54D14*
X33750Y-22600D03*
G54D15*
X33750Y-23600D03*
X32750Y-22600D03*
X32750Y-23600D03*
X31750Y-22600D03*
X31750Y-23600D03*
G54D16*
X31000Y-28873D03*
X31500Y-28873D03*
X32000Y-28873D03*
X32500Y-28873D03*
X33000Y-28873D03*
X33500Y-28873D03*
X34000Y-28873D03*
X34500Y-28873D03*
X34500Y-26827D03*
X34000Y-26827D03*
X33500Y-26827D03*
X33000Y-26827D03*
X32500Y-26827D03*
X32000Y-26827D03*
X31500Y-26827D03*
X31000Y-26827D03*
G54D17*
X27150Y-28224D03*
X27150Y-27476D03*
G54D18*
X30050Y-25150D03*
X35450Y-25150D03*
X30050Y-30550D03*
X35450Y-30550D03*
G54D19*
X36250Y-28401D03*
X36250Y-27299D03*
G54D20*
X25450Y-30550D03*
G54D21*
X26450Y-30550D03*
X27450Y-30550D03*
X28450Y-30550D03*
G54D20*
X25450Y-25150D03*
G54D21*
X26450Y-25150D03*
X27450Y-25150D03*
X28450Y-25150D03*
G54D17*
X37150Y-28224D03*
X37150Y-27476D03*
G54D20*
X38350Y-30300D03*
G54D21*
X38350Y-29300D03*
X38350Y-28300D03*
X38350Y-27300D03*
X38350Y-26300D03*
X38350Y-25300D03*
G54D22*
X27891Y-27456D03*
X27891Y-28244D03*
G54D23*
X29171Y-27850D03*
G54D24*
X36275Y-34873D03*
X38138Y-31049D03*
X39699Y-23737D03*
X25943Y-32184D03*
X25881Y-28151D03*
X37002Y-32760D03*
X39362Y-28275D03*
X31182Y-34468D03*
X33081Y-28079D03*
X32483Y-28057D03*
X33726Y-33038D03*
X34452Y-34399D03*
X38858Y-28848D03*
X38511Y-22283D03*
X35885Y-26261D03*
X32651Y-20970D03*
X28718Y-23261D03*
X32220Y-25089D03*
X26772Y-26379D03*
X25008Y-28273D03*
X28354Y-32905D03*
X29691Y-29057D03*
X31835Y-27566D03*
X33059Y-32572D03*
X34015Y-31062D03*
X33181Y-30816D03*
X27776Y-28942D03*
X33198Y-30392D03*
X33306Y-24675D03*
X33943Y-28144D03*
X39416Y-29684D03*
X38499Y-33520D03*
X31198Y-34981D03*
X25873Y-24649D03*
X32268Y-30726D03*
X33868Y-27623D03*
X37649Y-29239D03*
X35349Y-29156D03*
X30194Y-26706D03*
G54D25*
X33734Y-19970D02*
X33295Y-19970D01*
X36868Y-34873D02*
X37600Y-34141D01*
X36275Y-34873D02*
X36868Y-34873D01*
X31935Y-35730D02*
X32205Y-35730D01*
X32205Y-35322D02*
X32205Y-35730D01*
X33391Y-34136D02*
X32205Y-35322D01*
X34266Y-34136D02*
X33391Y-34136D01*
X34321Y-34081D02*
X34266Y-34136D01*
X34584Y-34081D02*
X34321Y-34081D01*
X35376Y-34873D02*
X34584Y-34081D01*
X36275Y-34873D02*
X35376Y-34873D01*
X34430Y-19970D02*
X33734Y-19970D01*
X35136Y-20676D02*
X34430Y-19970D01*
X35136Y-21421D02*
X35136Y-20676D01*
X36851Y-23136D02*
X35136Y-21421D01*
X37553Y-23136D02*
X36851Y-23136D01*
X37999Y-22690D02*
X37553Y-23136D01*
X38681Y-22690D02*
X37999Y-22690D01*
X38991Y-23000D02*
X38681Y-22690D01*
X27885Y-21574D02*
X28160Y-21299D01*
X40630Y-29530D02*
X40630Y-28834D01*
X39111Y-31049D02*
X40630Y-29530D01*
X38138Y-31049D02*
X39111Y-31049D01*
X38991Y-23000D02*
X39301Y-23310D01*
X27885Y-21574D02*
X27850Y-21609D01*
X32976Y-20289D02*
X33295Y-19970D01*
X32976Y-21385D02*
X32976Y-20289D01*
X32617Y-21744D02*
X32976Y-21385D01*
X28605Y-21744D02*
X32617Y-21744D01*
X28160Y-21299D02*
X28605Y-21744D01*
X39301Y-23339D02*
X39699Y-23737D01*
X39301Y-23310D02*
X39301Y-23339D01*
X24870Y-26866D02*
X24870Y-27305D01*
X26509Y-32750D02*
X25943Y-32184D01*
X31935Y-35730D02*
X31766Y-35730D01*
X26509Y-32750D02*
X26819Y-33060D01*
X25035Y-27305D02*
X25881Y-28151D01*
X24870Y-27305D02*
X25035Y-27305D01*
X31115Y-35730D02*
X31766Y-35730D01*
X30036Y-34651D02*
X31115Y-35730D01*
X30036Y-33852D02*
X30036Y-34651D01*
X28771Y-32587D02*
X30036Y-33852D01*
X27292Y-32587D02*
X28771Y-32587D01*
X26819Y-33060D02*
X27292Y-32587D01*
X33953Y-21230D02*
X34172Y-21230D01*
X33953Y-21230D02*
X33734Y-21230D01*
X36523Y-23581D02*
X34172Y-21230D01*
X37790Y-23581D02*
X36523Y-23581D01*
X38100Y-23891D02*
X37790Y-23581D01*
X39370Y-28834D02*
X39370Y-28395D01*
X38100Y-23891D02*
X38410Y-24201D01*
X38843Y-27868D02*
X39370Y-28395D01*
X38101Y-27868D02*
X38843Y-27868D01*
X37913Y-27680D02*
X38101Y-27868D01*
X37913Y-24698D02*
X37913Y-27680D01*
X38410Y-24201D02*
X37913Y-24698D01*
X32676Y-33560D02*
X36399Y-33560D01*
X31766Y-34470D02*
X32676Y-33560D01*
X36554Y-33405D02*
X36399Y-33560D01*
X36554Y-33405D02*
X36709Y-33250D01*
X36709Y-33250D02*
X37019Y-32940D01*
X37002Y-32923D02*
X37002Y-32760D01*
X37019Y-32940D02*
X37002Y-32923D01*
X39370Y-28283D02*
X39362Y-28275D01*
X39370Y-28395D02*
X39370Y-28283D01*
X26130Y-26866D02*
X26130Y-26428D01*
X29462Y-22150D02*
X29036Y-22576D01*
X32814Y-22150D02*
X29462Y-22150D01*
X33734Y-21230D02*
X32814Y-22150D01*
X28960Y-22500D02*
X29036Y-22576D01*
X28741Y-22500D02*
X28960Y-22500D01*
X29036Y-23424D02*
X29036Y-22576D01*
X28033Y-24427D02*
X29036Y-23424D01*
X26545Y-24427D02*
X28033Y-24427D01*
X26013Y-24959D02*
X26545Y-24427D01*
X26013Y-26311D02*
X26013Y-24959D01*
X26130Y-26428D02*
X26013Y-26311D01*
X31766Y-34470D02*
X31328Y-34470D01*
X31182Y-34469D02*
X31182Y-34468D01*
X31327Y-34469D02*
X31182Y-34469D01*
X31328Y-34470D02*
X31327Y-34469D01*
X27400Y-31859D02*
X27710Y-32169D01*
X29070Y-32169D02*
X27710Y-32169D01*
X31182Y-34281D02*
X29070Y-32169D01*
X31182Y-34468D02*
X31182Y-34281D01*
G54D10*
X32813Y-28347D02*
X33081Y-28079D01*
X32500Y-28347D02*
X32813Y-28347D01*
X32500Y-28873D02*
X32500Y-28347D01*
X32266Y-28274D02*
X32483Y-28057D01*
X32266Y-29290D02*
X32266Y-28274D01*
X32157Y-29399D02*
X32266Y-29290D01*
X31500Y-29399D02*
X32157Y-29399D01*
X31500Y-28873D02*
X31500Y-29399D01*
G54D26*
X33734Y-34470D02*
X33520Y-34470D01*
X33306Y-34684D02*
X33306Y-35100D01*
X33520Y-34470D02*
X33306Y-34684D01*
X33734Y-35100D02*
X33520Y-35100D01*
X33520Y-35100D02*
X33306Y-35100D01*
X33306Y-35314D02*
X33306Y-35730D01*
X33520Y-35100D02*
X33306Y-35314D01*
X33734Y-35730D02*
X33306Y-35730D01*
X34234Y-34399D02*
X34163Y-34470D01*
X34452Y-34399D02*
X34234Y-34399D01*
X33734Y-34470D02*
X34163Y-34470D01*
X33000Y-28873D02*
X33000Y-29439D01*
X33000Y-29758D02*
X33000Y-29439D01*
X33506Y-30264D02*
X33000Y-29758D01*
X33506Y-32818D02*
X33506Y-30264D01*
X33726Y-33038D02*
X33506Y-32818D01*
X38100Y-31859D02*
X37798Y-32161D01*
X38546Y-32304D02*
X38325Y-32525D01*
X38213Y-32413D02*
X38325Y-32525D01*
X38213Y-32162D02*
X38213Y-32413D01*
X38212Y-32161D02*
X38213Y-32162D01*
X37798Y-32161D02*
X38212Y-32161D01*
X38325Y-32688D02*
X38689Y-33052D01*
X38325Y-32525D02*
X38325Y-32688D01*
X38991Y-32750D02*
X38689Y-33052D01*
X38100Y-31859D02*
X37798Y-32161D01*
X33500Y-28873D02*
X33500Y-29439D01*
X33500Y-29988D02*
X33500Y-29439D01*
X35673Y-32161D02*
X33500Y-29988D01*
X37798Y-32161D02*
X35673Y-32161D01*
X39370Y-27294D02*
X40000Y-27294D01*
X39370Y-26866D02*
X39370Y-27294D01*
X40000Y-26866D02*
X40000Y-27080D01*
X40000Y-27080D02*
X40000Y-27294D01*
X40630Y-26866D02*
X40630Y-27294D01*
X34000Y-28873D02*
X34000Y-29439D01*
X40214Y-27294D02*
X40315Y-27294D01*
X40000Y-27080D02*
X40214Y-27294D01*
X40315Y-27294D02*
X40630Y-27294D01*
X34025Y-29464D02*
X34000Y-29439D01*
X37439Y-29464D02*
X34025Y-29464D01*
X37747Y-29772D02*
X37439Y-29464D01*
X39069Y-29772D02*
X37747Y-29772D01*
X39289Y-29992D02*
X39069Y-29772D01*
X39586Y-29992D02*
X39289Y-29992D01*
X40315Y-29263D02*
X39586Y-29992D01*
X40315Y-27294D02*
X40315Y-29263D01*
X36709Y-22500D02*
X37011Y-22802D01*
X37154Y-22054D02*
X37457Y-22357D01*
X37600Y-21609D02*
X37902Y-21911D01*
X37012Y-22802D02*
X37457Y-22357D01*
X37011Y-22802D02*
X37012Y-22802D01*
X38140Y-21912D02*
X37902Y-21912D01*
X38511Y-22283D02*
X38140Y-21912D01*
X37457Y-22357D02*
X37902Y-21912D01*
X37902Y-21912D02*
X37902Y-21911D01*
X34500Y-28873D02*
X34500Y-28307D01*
X35264Y-28848D02*
X38858Y-28848D01*
X34723Y-28307D02*
X35264Y-28848D01*
X34500Y-28307D02*
X34723Y-28307D01*
X31766Y-21230D02*
X32194Y-21230D01*
X34500Y-26827D02*
X34500Y-26261D01*
X34500Y-26261D02*
X35885Y-26261D01*
X32194Y-21230D02*
X32454Y-20970D01*
X32651Y-20970D02*
X32454Y-20970D01*
X32194Y-20710D02*
X32194Y-20600D01*
X32454Y-20970D02*
X32194Y-20710D01*
X31766Y-20600D02*
X31980Y-20600D01*
X31980Y-20600D02*
X32194Y-20600D01*
X32194Y-20386D02*
X32194Y-19970D01*
X31980Y-20600D02*
X32194Y-20386D01*
X31766Y-19970D02*
X32194Y-19970D01*
X26904Y-23446D02*
X27207Y-23143D01*
X27652Y-23589D02*
X27207Y-23143D01*
X26459Y-23000D02*
X26610Y-22849D01*
X26912Y-22849D02*
X27207Y-23143D01*
X26610Y-22849D02*
X26912Y-22849D01*
X27350Y-23891D02*
X27501Y-23740D01*
X27501Y-23740D02*
X27652Y-23589D01*
X34000Y-26827D02*
X34000Y-26261D01*
X32828Y-25089D02*
X32220Y-25089D01*
X34000Y-26261D02*
X32828Y-25089D01*
X27980Y-23261D02*
X28718Y-23261D01*
X27652Y-23589D02*
X27980Y-23261D01*
X26130Y-28834D02*
X25500Y-28834D01*
X25500Y-28834D02*
X25500Y-28620D01*
X24870Y-28834D02*
X24870Y-28406D01*
X30700Y-26379D02*
X26772Y-26379D01*
X30818Y-26261D02*
X30700Y-26379D01*
X33500Y-26261D02*
X30818Y-26261D01*
X25286Y-28406D02*
X25008Y-28406D01*
X25500Y-28620D02*
X25286Y-28406D01*
X25008Y-28406D02*
X24870Y-28406D01*
X25008Y-28273D02*
X25008Y-28406D01*
X33500Y-26827D02*
X33500Y-26261D01*
X28346Y-33696D02*
X28043Y-33393D01*
X27598Y-33838D02*
X27598Y-33839D01*
X28043Y-33393D02*
X27598Y-33838D01*
X27900Y-34141D02*
X27598Y-33839D01*
X28791Y-33250D02*
X28639Y-33098D01*
X28354Y-33098D02*
X28354Y-32905D01*
X28338Y-33098D02*
X28354Y-33098D01*
X28043Y-33393D02*
X28338Y-33098D01*
X28354Y-33098D02*
X28639Y-33098D01*
X33000Y-26827D02*
X33000Y-27393D01*
X30574Y-28174D02*
X29691Y-29057D01*
X31758Y-28174D02*
X30574Y-28174D01*
X32306Y-27626D02*
X31758Y-28174D01*
X32767Y-27626D02*
X32306Y-27626D01*
X33000Y-27393D02*
X32767Y-27626D01*
G54D10*
X32500Y-26827D02*
X32500Y-27353D01*
X32048Y-27353D02*
X31835Y-27566D01*
X32500Y-27353D02*
X32048Y-27353D01*
X30176Y-32572D02*
X33059Y-32572D01*
X28450Y-30846D02*
X30176Y-32572D01*
X28450Y-30550D02*
X28450Y-30846D01*
X34015Y-33317D02*
X34015Y-31062D01*
X34005Y-33327D02*
X34015Y-33317D01*
X30676Y-33327D02*
X34005Y-33327D01*
X27899Y-30550D02*
X30676Y-33327D01*
X27450Y-30550D02*
X27899Y-30550D01*
X31952Y-32045D02*
X33181Y-30816D01*
X29844Y-32045D02*
X31952Y-32045D01*
X28819Y-31020D02*
X29844Y-32045D01*
X28819Y-30358D02*
X28819Y-31020D01*
X28631Y-30170D02*
X28819Y-30358D01*
X26830Y-30170D02*
X28631Y-30170D01*
X26450Y-30550D02*
X26830Y-30170D01*
X31800Y-30392D02*
X33198Y-30392D01*
X30542Y-31650D02*
X31800Y-30392D01*
X29798Y-31650D02*
X30542Y-31650D01*
X29067Y-30919D02*
X29798Y-31650D01*
X29067Y-29717D02*
X29067Y-30919D01*
X28292Y-28942D02*
X29067Y-29717D01*
X27776Y-28942D02*
X28292Y-28942D01*
X29372Y-26072D02*
X28450Y-25150D01*
X30458Y-26072D02*
X29372Y-26072D01*
X31855Y-24675D02*
X30458Y-26072D01*
X33306Y-24675D02*
X31855Y-24675D01*
X34232Y-27855D02*
X33943Y-28144D01*
X34232Y-26212D02*
X34232Y-27855D01*
X32819Y-24799D02*
X34232Y-26212D01*
X31904Y-24799D02*
X32819Y-24799D01*
X30508Y-26195D02*
X31904Y-24799D01*
X28495Y-26195D02*
X30508Y-26195D01*
X27450Y-25150D02*
X28495Y-26195D01*
X27891Y-27456D02*
X28220Y-27456D01*
X28614Y-27850D02*
X29171Y-27850D01*
X28220Y-27456D02*
X28614Y-27850D01*
X31500Y-26827D02*
X31500Y-27353D01*
X29171Y-27850D02*
X29560Y-27850D01*
X31003Y-27850D02*
X29560Y-27850D01*
X31500Y-27353D02*
X31003Y-27850D01*
G54D25*
X33734Y-20600D02*
X34172Y-20600D01*
X31766Y-35100D02*
X31463Y-35100D01*
X31853Y-35100D02*
X31766Y-35100D01*
X32848Y-34105D02*
X31853Y-35100D01*
X33085Y-34105D02*
X32848Y-34105D01*
X33288Y-33902D02*
X33085Y-34105D01*
X34213Y-33902D02*
X33288Y-33902D01*
X34237Y-33878D02*
X34213Y-33902D01*
X34668Y-33878D02*
X34237Y-33878D01*
X34692Y-33902D02*
X34668Y-33878D01*
X36741Y-33902D02*
X34692Y-33902D01*
X36845Y-34005D02*
X36741Y-33902D01*
X38546Y-23446D02*
X38236Y-23136D01*
X38236Y-23136D02*
X38236Y-23135D01*
X38235Y-23136D02*
X38236Y-23135D01*
X37891Y-23136D02*
X38235Y-23136D01*
X37688Y-23339D02*
X37891Y-23136D01*
X36624Y-23339D02*
X37688Y-23339D01*
X34860Y-21575D02*
X36624Y-23339D01*
X34860Y-21288D02*
X34860Y-21575D01*
X34172Y-20600D02*
X34860Y-21288D01*
X37599Y-33520D02*
X37465Y-33385D01*
X38499Y-33520D02*
X37599Y-33520D01*
X37154Y-33696D02*
X36845Y-34005D01*
X40000Y-28834D02*
X40000Y-29272D01*
X37154Y-33696D02*
X37465Y-33385D01*
X25500Y-26866D02*
X25500Y-27305D01*
X33734Y-20600D02*
X33295Y-20600D01*
X33295Y-21353D02*
X33295Y-20600D01*
X32701Y-21947D02*
X33295Y-21353D01*
X28403Y-21947D02*
X32701Y-21947D01*
X28296Y-22054D02*
X28403Y-21947D01*
X26954Y-32304D02*
X26645Y-31994D01*
X40000Y-28357D02*
X40000Y-28834D01*
X38898Y-27255D02*
X40000Y-28357D01*
X38898Y-23798D02*
X38898Y-27255D01*
X38546Y-23446D02*
X38898Y-23798D01*
X39828Y-29272D02*
X39416Y-29684D01*
X40000Y-29272D02*
X39828Y-29272D01*
X26645Y-31963D02*
X26645Y-31994D01*
X26117Y-31435D02*
X26645Y-31963D01*
X26117Y-31309D02*
X26117Y-31435D01*
X26036Y-31228D02*
X26117Y-31309D01*
X26036Y-30959D02*
X26036Y-31228D01*
X26015Y-30938D02*
X26036Y-30959D01*
X26015Y-30138D02*
X26015Y-30938D01*
X26323Y-29830D02*
X26015Y-30138D01*
X26323Y-29598D02*
X26323Y-29830D01*
X26464Y-29457D02*
X26323Y-29598D01*
X26464Y-28317D02*
X26464Y-29457D01*
X26200Y-28053D02*
X26464Y-28317D01*
X26200Y-28005D02*
X26200Y-28053D01*
X25500Y-27305D02*
X26200Y-28005D01*
X31317Y-35100D02*
X31198Y-34981D01*
X31463Y-35100D02*
X31317Y-35100D01*
X30864Y-34647D02*
X31198Y-34981D01*
X30864Y-34343D02*
X30864Y-34647D01*
X28905Y-32384D02*
X30864Y-34343D01*
X27034Y-32384D02*
X28905Y-32384D01*
X26954Y-32304D02*
X27034Y-32384D01*
G54D10*
X31073Y-31921D02*
X32268Y-30726D01*
X29894Y-31921D02*
X31073Y-31921D01*
X28943Y-30970D02*
X29894Y-31921D01*
X28943Y-30224D02*
X28943Y-30970D01*
X27929Y-29210D02*
X28943Y-30224D01*
X27237Y-29210D02*
X27929Y-29210D01*
X26637Y-28610D02*
X27237Y-29210D01*
X26637Y-28074D02*
X26637Y-28610D01*
X25839Y-27276D02*
X26637Y-28074D01*
X25839Y-24683D02*
X25839Y-27276D01*
X25873Y-24649D02*
X25839Y-24683D01*
X32000Y-28873D02*
X32000Y-28347D01*
X33702Y-27789D02*
X33868Y-27623D01*
X32373Y-27789D02*
X33702Y-27789D01*
X32000Y-28162D02*
X32373Y-27789D01*
X32000Y-28347D02*
X32000Y-28162D01*
X37566Y-29156D02*
X35349Y-29156D01*
X37649Y-29239D02*
X37566Y-29156D01*
G54D25*
X37150Y-27476D02*
X36712Y-27476D01*
X36535Y-27299D02*
X36712Y-27476D01*
X36250Y-27299D02*
X36535Y-27299D01*
X36250Y-25950D02*
X35450Y-25150D01*
X36250Y-27299D02*
X36250Y-25950D01*
X32216Y-23134D02*
X31750Y-23600D01*
X33160Y-23134D02*
X32216Y-23134D01*
X33194Y-23168D02*
X33160Y-23134D01*
X33194Y-23726D02*
X33194Y-23168D01*
X34618Y-25150D02*
X33194Y-23726D01*
X35450Y-25150D02*
X34618Y-25150D01*
X31000Y-28873D02*
X31000Y-29339D01*
X38350Y-30300D02*
X37932Y-30300D01*
X37682Y-30550D02*
X37932Y-30300D01*
X35450Y-30550D02*
X37682Y-30550D01*
X26873Y-24727D02*
X26450Y-25150D01*
X29627Y-24727D02*
X26873Y-24727D01*
X30050Y-25150D02*
X29627Y-24727D01*
X26751Y-27077D02*
X27150Y-27077D01*
X26450Y-26776D02*
X26751Y-27077D01*
X26450Y-25150D02*
X26450Y-26776D01*
X27150Y-27476D02*
X27150Y-27077D01*
X30200Y-25150D02*
X31750Y-23600D01*
X30050Y-25150D02*
X30200Y-25150D01*
X30182Y-30418D02*
X30050Y-30550D01*
X30182Y-29997D02*
X30182Y-30418D01*
X29373Y-29188D02*
X30182Y-29997D01*
X29373Y-29028D02*
X29373Y-29188D01*
X28181Y-27836D02*
X29373Y-29028D01*
X27556Y-27836D02*
X28181Y-27836D01*
X27196Y-27476D02*
X27556Y-27836D01*
X27150Y-27476D02*
X27196Y-27476D01*
X30342Y-29997D02*
X31000Y-29339D01*
X30182Y-29997D02*
X30342Y-29997D01*
G54D10*
X27558Y-28244D02*
X27538Y-28224D01*
X27891Y-28244D02*
X27558Y-28244D01*
X27150Y-28224D02*
X27538Y-28224D01*
G54D25*
X36535Y-28401D02*
X36712Y-28224D01*
X36250Y-28401D02*
X36535Y-28401D01*
X37150Y-28224D02*
X36712Y-28224D01*
X37150Y-28224D02*
X37537Y-28224D01*
X37537Y-28224D02*
X37588Y-28224D01*
X35397Y-23600D02*
X33750Y-23600D01*
X37588Y-25791D02*
X35397Y-23600D01*
X37588Y-28224D02*
X37588Y-25791D01*
X38274Y-28224D02*
X37588Y-28224D01*
X38350Y-28300D02*
X38274Y-28224D01*
X30879Y-26706D02*
X31000Y-26827D01*
X30194Y-26706D02*
X30879Y-26706D01*
M02*
