M48
INCH,TZ
T1C0.025
T2C0.032
T3C0.040
T4C0.120
%
G90
G05
T1
X025399Y-029555
X026299Y-026117
X026336Y-024005
X026775Y-024024
X027087Y-029703
X027150Y-031305
X027577Y-025924
X028361Y-029714
X028490Y-034268
X028605Y-030712
X029036Y-031565
X029510Y-032176
X030177Y-026699
X030446Y-032034
X030589Y-020508
X030979Y-034562
X031051Y-033800
X031052Y-022915
X031186Y-020339
X031239Y-020896
X031600Y-027258
X031635Y-023589
X032044Y-023402
X032678Y-030806
X032871Y-023579
X033856Y-030476
X034100Y-024361
X034266Y-020322
X034446Y-033967
X034668Y-035589
X034924Y-033294
X035473Y-033054
X035697Y-022542
X035880Y-027875
X035890Y-020991
X035927Y-021428
X036284Y-029070
X036402Y-022049
X036621Y-034085
X037084Y-031651
X039054Y-026026
X039371Y-031949
X039372Y-032369
X039664Y-026142
X039765Y-025675
X039876Y-030716
X040492Y-030485
T2
X027239Y-025411
X027946Y-024704
X028654Y-023996
X029361Y-023289
X030250Y-022250
X031250Y-022250
X032250Y-022250
X033250Y-022250
X034250Y-022250
X035250Y-022250
X036089Y-023289
X036796Y-023996
X037504Y-024704
X038211Y-025411
T3
X032250Y-026850
X032250Y-027850
X032250Y-028850
X033250Y-026850
X033250Y-027850
X033250Y-028850
T4
X030050Y-025150
X030050Y-030550
X035450Y-025150
X035450Y-030550
T0
M30
