G04 (created by PCBNEW-RS274X (2011-07-08)-stable) date Tue 20 Dec 2011 01:41:43 PM CET*
G01*
G70*
G90*
%MOIN*%
G04 Gerber Fmt 3.4, Leading zero omitted, Abs format*
%FSLAX34Y34*%
G04 APERTURE LIST*
%ADD10C,0.006000*%
%ADD11C,0.015000*%
%ADD12R,0.043400X0.067100*%
%ADD13R,0.067100X0.043400*%
%ADD14R,0.068000X0.068000*%
%ADD15C,0.068000*%
%ADD16R,0.031600X0.094600*%
%ADD17R,0.067000X0.059100*%
%ADD18C,0.168000*%
%ADD19R,0.070900X0.078800*%
%ADD20R,0.063000X0.063000*%
%ADD21C,0.063000*%
%ADD22R,0.059100X0.067000*%
%ADD23R,0.055200X0.055200*%
%ADD24R,0.067100X0.071000*%
G04 APERTURE END LIST*
G54D10*
G54D11*
X32750Y-19300D02*
X32005Y-19333D01*
X31266Y-19430D01*
X30538Y-19592D01*
X29826Y-19816D01*
X29137Y-20102D01*
X28476Y-20446D01*
X27846Y-20847D01*
X27255Y-21301D01*
X26705Y-21805D01*
X26201Y-22355D01*
X25747Y-22946D01*
X25346Y-23576D01*
X25002Y-24237D01*
X24716Y-24926D01*
X24492Y-25638D01*
X24330Y-26366D01*
X24233Y-27105D01*
X24200Y-27850D01*
X24200Y-27850D02*
X24233Y-28595D01*
X24330Y-29334D01*
X24492Y-30062D01*
X24716Y-30774D01*
X25002Y-31463D01*
X25346Y-32124D01*
X25747Y-32754D01*
X26201Y-33345D01*
X26705Y-33895D01*
X27255Y-34399D01*
X27846Y-34853D01*
X28476Y-35254D01*
X29137Y-35598D01*
X29826Y-35884D01*
X30538Y-36108D01*
X31266Y-36270D01*
X32005Y-36367D01*
X32750Y-36400D01*
X32750Y-36400D02*
X33495Y-36367D01*
X34234Y-36270D01*
X34962Y-36108D01*
X35674Y-35884D01*
X36363Y-35598D01*
X37025Y-35254D01*
X37654Y-34853D01*
X38245Y-34399D01*
X38795Y-33895D01*
X39299Y-33345D01*
X39753Y-32754D01*
X40154Y-32124D01*
X40498Y-31463D01*
X40784Y-30774D01*
X41008Y-30062D01*
X41170Y-29334D01*
X41267Y-28595D01*
X41300Y-27850D01*
X41300Y-27850D02*
X41267Y-27105D01*
X41170Y-26366D01*
X41008Y-25638D01*
X40784Y-24926D01*
X40498Y-24237D01*
X40154Y-23576D01*
X39753Y-22946D01*
X39299Y-22355D01*
X38795Y-21805D01*
X38245Y-21301D01*
X37654Y-20847D01*
X37025Y-20446D01*
X36363Y-20102D01*
X35674Y-19816D01*
X34962Y-19592D01*
X34234Y-19430D01*
X33495Y-19333D01*
X32750Y-19300D01*
G54D10*
G36*
X27817Y-33751D02*
X28290Y-34224D01*
X27983Y-34531D01*
X27510Y-34058D01*
X27817Y-33751D01*
X27817Y-33751D01*
G37*
G36*
X28263Y-33306D02*
X28736Y-33779D01*
X28429Y-34086D01*
X27956Y-33613D01*
X28263Y-33306D01*
X28263Y-33306D01*
G37*
G36*
X28708Y-32860D02*
X29181Y-33333D01*
X28874Y-33640D01*
X28401Y-33167D01*
X28708Y-32860D01*
X28708Y-32860D01*
G37*
G36*
X27317Y-31469D02*
X27790Y-31942D01*
X27483Y-32249D01*
X27010Y-31776D01*
X27317Y-31469D01*
X27317Y-31469D01*
G37*
G36*
X26871Y-31914D02*
X27344Y-32387D01*
X27037Y-32694D01*
X26564Y-32221D01*
X26871Y-31914D01*
X26871Y-31914D01*
G37*
G36*
X26426Y-32360D02*
X26899Y-32833D01*
X26592Y-33140D01*
X26119Y-32667D01*
X26426Y-32360D01*
X26426Y-32360D01*
G37*
G54D12*
X24870Y-28834D03*
X25500Y-28834D03*
X26130Y-28834D03*
X26130Y-26866D03*
X25500Y-26866D03*
X24870Y-26866D03*
G54D10*
G36*
X26849Y-22917D02*
X26376Y-23390D01*
X26069Y-23083D01*
X26542Y-22610D01*
X26849Y-22917D01*
X26849Y-22917D01*
G37*
G36*
X27294Y-23363D02*
X26821Y-23836D01*
X26514Y-23529D01*
X26987Y-23056D01*
X27294Y-23363D01*
X27294Y-23363D01*
G37*
G36*
X27740Y-23808D02*
X27267Y-24281D01*
X26960Y-23974D01*
X27433Y-23501D01*
X27740Y-23808D01*
X27740Y-23808D01*
G37*
G36*
X29131Y-22417D02*
X28658Y-22890D01*
X28351Y-22583D01*
X28824Y-22110D01*
X29131Y-22417D01*
X29131Y-22417D01*
G37*
G36*
X28686Y-21971D02*
X28213Y-22444D01*
X27906Y-22137D01*
X28379Y-21664D01*
X28686Y-21971D01*
X28686Y-21971D01*
G37*
G36*
X28240Y-21526D02*
X27767Y-21999D01*
X27460Y-21692D01*
X27933Y-21219D01*
X28240Y-21526D01*
X28240Y-21526D01*
G37*
G54D13*
X31766Y-19970D03*
X31766Y-20600D03*
X31766Y-21230D03*
X33734Y-21230D03*
X33734Y-20600D03*
X33734Y-19970D03*
G54D10*
G36*
X37683Y-21999D02*
X37210Y-21526D01*
X37517Y-21219D01*
X37990Y-21692D01*
X37683Y-21999D01*
X37683Y-21999D01*
G37*
G36*
X37237Y-22444D02*
X36764Y-21971D01*
X37071Y-21664D01*
X37544Y-22137D01*
X37237Y-22444D01*
X37237Y-22444D01*
G37*
G36*
X36792Y-22890D02*
X36319Y-22417D01*
X36626Y-22110D01*
X37099Y-22583D01*
X36792Y-22890D01*
X36792Y-22890D01*
G37*
G36*
X38183Y-24281D02*
X37710Y-23808D01*
X38017Y-23501D01*
X38490Y-23974D01*
X38183Y-24281D01*
X38183Y-24281D01*
G37*
G36*
X38629Y-23836D02*
X38156Y-23363D01*
X38463Y-23056D01*
X38936Y-23529D01*
X38629Y-23836D01*
X38629Y-23836D01*
G37*
G36*
X39074Y-23390D02*
X38601Y-22917D01*
X38908Y-22610D01*
X39381Y-23083D01*
X39074Y-23390D01*
X39074Y-23390D01*
G37*
G54D12*
X40630Y-26866D03*
X40000Y-26866D03*
X39370Y-26866D03*
X39370Y-28834D03*
X40000Y-28834D03*
X40630Y-28834D03*
G54D10*
G36*
X38601Y-32833D02*
X39074Y-32360D01*
X39381Y-32667D01*
X38908Y-33140D01*
X38601Y-32833D01*
X38601Y-32833D01*
G37*
G36*
X38156Y-32387D02*
X38629Y-31914D01*
X38936Y-32221D01*
X38463Y-32694D01*
X38156Y-32387D01*
X38156Y-32387D01*
G37*
G36*
X37710Y-31942D02*
X38183Y-31469D01*
X38490Y-31776D01*
X38017Y-32249D01*
X37710Y-31942D01*
X37710Y-31942D01*
G37*
G36*
X36319Y-33333D02*
X36792Y-32860D01*
X37099Y-33167D01*
X36626Y-33640D01*
X36319Y-33333D01*
X36319Y-33333D01*
G37*
G36*
X36764Y-33779D02*
X37237Y-33306D01*
X37544Y-33613D01*
X37071Y-34086D01*
X36764Y-33779D01*
X36764Y-33779D01*
G37*
G36*
X37210Y-34224D02*
X37683Y-33751D01*
X37990Y-34058D01*
X37517Y-34531D01*
X37210Y-34224D01*
X37210Y-34224D01*
G37*
G54D13*
X33734Y-35730D03*
X33734Y-35100D03*
X33734Y-34470D03*
X31766Y-34470D03*
X31766Y-35100D03*
X31766Y-35730D03*
G54D14*
X33750Y-22600D03*
G54D15*
X33750Y-23600D03*
X32750Y-22600D03*
X32750Y-23600D03*
X31750Y-22600D03*
X31750Y-23600D03*
G54D16*
X31000Y-28873D03*
X31500Y-28873D03*
X32000Y-28873D03*
X32500Y-28873D03*
X33000Y-28873D03*
X33500Y-28873D03*
X34000Y-28873D03*
X34500Y-28873D03*
X34500Y-26827D03*
X34000Y-26827D03*
X33500Y-26827D03*
X33000Y-26827D03*
X32500Y-26827D03*
X32000Y-26827D03*
X31500Y-26827D03*
X31000Y-26827D03*
G54D17*
X29850Y-27476D03*
X29850Y-28224D03*
G54D18*
X30050Y-25150D03*
X35450Y-25150D03*
X30050Y-30550D03*
X35450Y-30550D03*
G54D19*
X32199Y-25700D03*
X33301Y-25700D03*
G54D20*
X25450Y-30550D03*
G54D21*
X26450Y-30550D03*
X27450Y-30550D03*
X28450Y-30550D03*
G54D20*
X25450Y-25150D03*
G54D21*
X26450Y-25150D03*
X27450Y-25150D03*
X28450Y-25150D03*
G54D22*
X32376Y-24800D03*
X33124Y-24800D03*
G54D20*
X38350Y-30300D03*
G54D21*
X38350Y-29300D03*
X38350Y-28300D03*
X38350Y-27300D03*
X38350Y-26300D03*
X38350Y-25300D03*
G54D23*
X29059Y-28244D03*
X29059Y-27456D03*
G54D24*
X27779Y-27850D03*
M02*
