G04 (created by PCBNEW (2013-09-20 BZR 4325)-product) date Sat 21 Sep 2013 04:31:50 AM CEST*
%MOIN*%
G04 Gerber Fmt 3.4, Leading zero omitted, Abs format*
%FSLAX34Y34*%
G01*
G70*
G90*
G04 APERTURE LIST*
%ADD10C,0.005906*%
%ADD11R,0.055000X0.055000*%
%ADD12C,0.055000*%
%ADD13C,0.086614*%
%ADD14R,0.060000X0.060000*%
%ADD15C,0.060000*%
%ADD16R,0.051100X0.059000*%
%ADD17R,0.059000X0.051100*%
%ADD18C,0.025000*%
%ADD19C,0.035000*%
%ADD20C,0.006000*%
%ADD21C,0.016000*%
%ADD22C,0.009843*%
G04 APERTURE END LIST*
G54D10*
G54D11*
X33750Y-23250D03*
G54D12*
X32750Y-23250D03*
X31750Y-23250D03*
G54D13*
X30050Y-30550D03*
X35450Y-30550D03*
X35450Y-25150D03*
X30050Y-25150D03*
G54D14*
X33250Y-26850D03*
G54D15*
X32250Y-26850D03*
X33250Y-27850D03*
X32250Y-27850D03*
X33250Y-28850D03*
X32250Y-28850D03*
G54D10*
G36*
X38634Y-25410D02*
X38210Y-25834D01*
X37786Y-25410D01*
X38210Y-24986D01*
X38634Y-25410D01*
X38634Y-25410D01*
G37*
G54D15*
X37503Y-24703D03*
X36796Y-23996D03*
X36089Y-23289D03*
G54D10*
G36*
X27239Y-25834D02*
X26815Y-25410D01*
X27239Y-24986D01*
X27663Y-25410D01*
X27239Y-25834D01*
X27239Y-25834D01*
G37*
G54D15*
X27946Y-24703D03*
X28653Y-23996D03*
X29360Y-23289D03*
G54D14*
X30250Y-22250D03*
G54D15*
X31250Y-22250D03*
X32250Y-22250D03*
X33250Y-22250D03*
X34250Y-22250D03*
X35250Y-22250D03*
G54D16*
X25098Y-27874D03*
X25846Y-27874D03*
G54D10*
G36*
X27440Y-33685D02*
X27023Y-33268D01*
X27384Y-32906D01*
X27801Y-33323D01*
X27440Y-33685D01*
X27440Y-33685D01*
G37*
G36*
X27969Y-33156D02*
X27552Y-32739D01*
X27913Y-32377D01*
X28330Y-32794D01*
X27969Y-33156D01*
X27969Y-33156D01*
G37*
G36*
X38567Y-33228D02*
X38149Y-33645D01*
X37788Y-33284D01*
X38205Y-32867D01*
X38567Y-33228D01*
X38567Y-33228D01*
G37*
G36*
X38038Y-32699D02*
X37620Y-33116D01*
X37259Y-32755D01*
X37676Y-32338D01*
X38038Y-32699D01*
X38038Y-32699D01*
G37*
G54D16*
X32421Y-24448D03*
X33169Y-24448D03*
G54D17*
X32755Y-35492D03*
X32755Y-34744D03*
G54D16*
X40374Y-27874D03*
X39626Y-27874D03*
G54D10*
G36*
X38110Y-22062D02*
X38527Y-22480D01*
X38166Y-22841D01*
X37749Y-22424D01*
X38110Y-22062D01*
X38110Y-22062D01*
G37*
G36*
X37581Y-22591D02*
X37998Y-23008D01*
X37637Y-23370D01*
X37220Y-22953D01*
X37581Y-22591D01*
X37581Y-22591D01*
G37*
G54D17*
X32755Y-20216D03*
X32755Y-20964D03*
G54D10*
G36*
X26944Y-22519D02*
X27361Y-22102D01*
X27723Y-22463D01*
X27306Y-22880D01*
X26944Y-22519D01*
X26944Y-22519D01*
G37*
G36*
X27473Y-23048D02*
X27890Y-22631D01*
X28252Y-22992D01*
X27834Y-23409D01*
X27473Y-23048D01*
X27473Y-23048D01*
G37*
G54D18*
X31299Y-32716D03*
X32204Y-31751D03*
X31496Y-24015D03*
X34251Y-29370D03*
X32755Y-25236D03*
X31811Y-24448D03*
X32283Y-25314D03*
X33405Y-25137D03*
X34114Y-30688D03*
X33070Y-25236D03*
X31555Y-30688D03*
X32322Y-30688D03*
X32893Y-30688D03*
X31555Y-31062D03*
X32322Y-31062D03*
X32893Y-31062D03*
X34114Y-31062D03*
X33228Y-25511D03*
X31968Y-25314D03*
X34606Y-23720D03*
G54D19*
X30078Y-27283D03*
X30275Y-23779D03*
G54D18*
X28727Y-22541D03*
X26149Y-26905D03*
X27441Y-31872D03*
X31805Y-34450D03*
X36722Y-33208D03*
X39350Y-28794D03*
X38058Y-23877D03*
X33694Y-21249D03*
X26023Y-30354D03*
X26023Y-31181D03*
X26377Y-29645D03*
X26023Y-32125D03*
X34803Y-21023D03*
X35374Y-21594D03*
X34488Y-20078D03*
X35905Y-22125D03*
X39094Y-26062D03*
X39370Y-23385D03*
X39370Y-25019D03*
X39350Y-24192D03*
X34566Y-34330D03*
X37047Y-34566D03*
X36299Y-34566D03*
X35492Y-34566D03*
X38425Y-31023D03*
X40551Y-29488D03*
X39940Y-29488D03*
X39114Y-30295D03*
X26161Y-24940D03*
X25531Y-25570D03*
X24960Y-26141D03*
X26968Y-24606D03*
X29370Y-21023D03*
X28543Y-21023D03*
X30984Y-21417D03*
X30334Y-21023D03*
G54D19*
X27412Y-33295D03*
X25098Y-27874D03*
X27333Y-22491D03*
X32755Y-20216D03*
X38138Y-22452D03*
X32755Y-35492D03*
X38177Y-33256D03*
X40374Y-27874D03*
X29803Y-27992D03*
G54D20*
X31299Y-32716D02*
X32204Y-31811D01*
X32204Y-31811D02*
X32204Y-31751D01*
X33169Y-24448D02*
X33562Y-24448D01*
X35250Y-22761D02*
X35250Y-22250D01*
X33562Y-24448D02*
X35250Y-22761D01*
X33750Y-23690D02*
X33750Y-23250D01*
X33622Y-23818D02*
X33750Y-23690D01*
X31692Y-23818D02*
X33622Y-23818D01*
X31496Y-24015D02*
X31692Y-23818D01*
X33250Y-26850D02*
X33739Y-26850D01*
X33897Y-29015D02*
X34251Y-29370D01*
X33897Y-27007D02*
X33897Y-29015D01*
X33739Y-26850D02*
X33897Y-27007D01*
X32755Y-28355D02*
X32755Y-25236D01*
X32755Y-28355D02*
X33250Y-28850D01*
X32421Y-24448D02*
X31811Y-24448D01*
X33287Y-25019D02*
X33405Y-25137D01*
X32283Y-25314D02*
X32578Y-25019D01*
X32578Y-25019D02*
X33287Y-25019D01*
X27946Y-24703D02*
X29271Y-26028D01*
X29271Y-26028D02*
X29271Y-28385D01*
X29271Y-28385D02*
X29842Y-28956D01*
X34114Y-30688D02*
X34114Y-30098D01*
X34055Y-28523D02*
X34507Y-28976D01*
X33799Y-26161D02*
X34055Y-26417D01*
X33267Y-26161D02*
X33799Y-26161D01*
X32952Y-25846D02*
X33267Y-26161D01*
X32952Y-25354D02*
X32952Y-25846D01*
X33070Y-25236D02*
X32952Y-25354D01*
X34055Y-26417D02*
X34055Y-28523D01*
X32322Y-30688D02*
X32893Y-30688D01*
X34507Y-29704D02*
X34507Y-28976D01*
X34114Y-30098D02*
X34507Y-29704D01*
X31555Y-29803D02*
X31555Y-30688D01*
X30708Y-28956D02*
X31555Y-29803D01*
X29842Y-28956D02*
X30708Y-28956D01*
X27946Y-24703D02*
X27971Y-24703D01*
X31299Y-30905D02*
X31456Y-31062D01*
X31299Y-29744D02*
X30649Y-29094D01*
X30649Y-29094D02*
X29783Y-29094D01*
X29783Y-29094D02*
X29133Y-28444D01*
X29133Y-28444D02*
X29133Y-27305D01*
X27239Y-25410D02*
X29133Y-27305D01*
X34704Y-28897D02*
X34704Y-29724D01*
X34704Y-29724D02*
X34370Y-30059D01*
X34370Y-30059D02*
X34370Y-30807D01*
X34370Y-30807D02*
X34114Y-31062D01*
X32322Y-31062D02*
X32893Y-31062D01*
X34704Y-28897D02*
X34232Y-28425D01*
X34232Y-28425D02*
X34232Y-26299D01*
X34232Y-26299D02*
X33444Y-25511D01*
X33444Y-25511D02*
X33228Y-25511D01*
X31299Y-30905D02*
X31299Y-29744D01*
X31456Y-31062D02*
X31555Y-31062D01*
X27239Y-25410D02*
X27335Y-25314D01*
X33543Y-24881D02*
X34606Y-23818D01*
X32283Y-24881D02*
X33543Y-24881D01*
X31968Y-25314D02*
X31968Y-25196D01*
X31968Y-25196D02*
X32283Y-24881D01*
X34606Y-23818D02*
X34606Y-23720D01*
G54D21*
X30275Y-23779D02*
X30413Y-23779D01*
X31358Y-24724D02*
X31358Y-26003D01*
X31358Y-26003D02*
X30078Y-27283D01*
X30413Y-23779D02*
X31358Y-24724D01*
X30275Y-23779D02*
X30334Y-23779D01*
G54D20*
X28700Y-22519D02*
X28709Y-22528D01*
X28740Y-22528D02*
X28709Y-22528D01*
X28740Y-22528D02*
X28727Y-22541D01*
X26141Y-26889D02*
X26141Y-26897D01*
X26141Y-26897D02*
X26149Y-26905D01*
X27440Y-31850D02*
X27440Y-31872D01*
X27440Y-31872D02*
X27441Y-31872D01*
X31811Y-34448D02*
X31806Y-34448D01*
X31806Y-34448D02*
X31805Y-34450D01*
X36692Y-33228D02*
X36702Y-33228D01*
X36702Y-33228D02*
X36722Y-33208D01*
X39330Y-28779D02*
X39335Y-28779D01*
X39335Y-28779D02*
X39350Y-28794D01*
X38070Y-23897D02*
X38070Y-23889D01*
X38070Y-23889D02*
X38058Y-23877D01*
X33700Y-21259D02*
X33700Y-21255D01*
X33700Y-21255D02*
X33694Y-21249D01*
X26023Y-32125D02*
X26023Y-31181D01*
X26023Y-30000D02*
X26023Y-30354D01*
X26377Y-29645D02*
X26023Y-30000D01*
X35905Y-22125D02*
X35374Y-21594D01*
X34488Y-20078D02*
X34488Y-20708D01*
X34488Y-20708D02*
X34803Y-21023D01*
X39370Y-25019D02*
X39370Y-25275D01*
X39094Y-25551D02*
X39094Y-26062D01*
X39370Y-25275D02*
X39094Y-25551D01*
X39370Y-23385D02*
X39370Y-24173D01*
X39370Y-24173D02*
X39350Y-24192D01*
X34803Y-34566D02*
X35492Y-34566D01*
X34566Y-34330D02*
X34803Y-34566D01*
X36299Y-34566D02*
X37047Y-34566D01*
X38425Y-31023D02*
X38425Y-30984D01*
X40551Y-29488D02*
X39940Y-29488D01*
X38425Y-30984D02*
X39114Y-30295D01*
X24960Y-26141D02*
X25531Y-25570D01*
X26161Y-24940D02*
X26496Y-24606D01*
X26496Y-24606D02*
X26968Y-24606D01*
X28543Y-21023D02*
X29370Y-21023D01*
X30728Y-21417D02*
X30984Y-21417D01*
X30334Y-21023D02*
X30728Y-21417D01*
G54D10*
G36*
X41112Y-27841D02*
X40952Y-29474D01*
X40823Y-29899D01*
X40823Y-29461D01*
X40813Y-29409D01*
X40793Y-29359D01*
X40777Y-29335D01*
X40777Y-28183D01*
X40777Y-28154D01*
X40777Y-27564D01*
X40771Y-27535D01*
X40760Y-27509D01*
X40744Y-27484D01*
X40723Y-27464D01*
X40699Y-27448D01*
X40672Y-27437D01*
X40644Y-27431D01*
X40614Y-27431D01*
X40103Y-27431D01*
X40075Y-27437D01*
X40048Y-27448D01*
X40024Y-27464D01*
X40003Y-27484D01*
X40000Y-27490D01*
X39996Y-27484D01*
X39975Y-27464D01*
X39951Y-27448D01*
X39924Y-27437D01*
X39896Y-27431D01*
X39672Y-27431D01*
X39642Y-27461D01*
X39642Y-24992D01*
X39642Y-23359D01*
X39632Y-23306D01*
X39611Y-23257D01*
X39582Y-23212D01*
X39544Y-23174D01*
X39500Y-23144D01*
X39451Y-23124D01*
X39398Y-23113D01*
X39345Y-23112D01*
X39292Y-23123D01*
X39243Y-23143D01*
X39198Y-23172D01*
X39160Y-23209D01*
X39130Y-23253D01*
X39108Y-23302D01*
X39097Y-23355D01*
X39097Y-23408D01*
X39106Y-23461D01*
X39126Y-23511D01*
X39155Y-23555D01*
X39192Y-23594D01*
X39192Y-23970D01*
X39178Y-23979D01*
X39140Y-24016D01*
X39110Y-24060D01*
X39089Y-24110D01*
X39078Y-24162D01*
X39077Y-24215D01*
X39087Y-24268D01*
X39106Y-24318D01*
X39135Y-24363D01*
X39172Y-24401D01*
X39216Y-24432D01*
X39265Y-24453D01*
X39317Y-24464D01*
X39371Y-24466D01*
X39424Y-24456D01*
X39473Y-24437D01*
X39519Y-24408D01*
X39557Y-24371D01*
X39588Y-24328D01*
X39610Y-24279D01*
X39622Y-24227D01*
X39623Y-24166D01*
X39612Y-24113D01*
X39592Y-24064D01*
X39562Y-24019D01*
X39547Y-24004D01*
X39547Y-23593D01*
X39577Y-23564D01*
X39608Y-23521D01*
X39630Y-23472D01*
X39641Y-23420D01*
X39642Y-23359D01*
X39642Y-24992D01*
X39632Y-24940D01*
X39611Y-24891D01*
X39582Y-24846D01*
X39544Y-24808D01*
X39500Y-24778D01*
X39451Y-24757D01*
X39398Y-24747D01*
X39345Y-24746D01*
X39292Y-24756D01*
X39243Y-24776D01*
X39198Y-24806D01*
X39160Y-24843D01*
X39130Y-24887D01*
X39108Y-24936D01*
X39097Y-24989D01*
X39097Y-25042D01*
X39106Y-25095D01*
X39126Y-25144D01*
X39155Y-25189D01*
X39179Y-25214D01*
X38968Y-25425D01*
X38958Y-25438D01*
X38947Y-25450D01*
X38947Y-25451D01*
X38946Y-25452D01*
X38939Y-25466D01*
X38931Y-25481D01*
X38930Y-25482D01*
X38930Y-25482D01*
X38925Y-25498D01*
X38920Y-25514D01*
X38920Y-25515D01*
X38920Y-25516D01*
X38918Y-25532D01*
X38916Y-25548D01*
X38916Y-25550D01*
X38916Y-25550D01*
X38916Y-25550D01*
X38916Y-25551D01*
X38916Y-25855D01*
X38884Y-25886D01*
X38854Y-25931D01*
X38833Y-25980D01*
X38822Y-26032D01*
X38821Y-26085D01*
X38831Y-26138D01*
X38850Y-26188D01*
X38879Y-26233D01*
X38916Y-26271D01*
X38960Y-26302D01*
X39009Y-26323D01*
X39062Y-26335D01*
X39115Y-26336D01*
X39168Y-26326D01*
X39218Y-26307D01*
X39263Y-26278D01*
X39301Y-26242D01*
X39332Y-26198D01*
X39354Y-26149D01*
X39366Y-26097D01*
X39367Y-26036D01*
X39356Y-25983D01*
X39336Y-25934D01*
X39306Y-25889D01*
X39272Y-25854D01*
X39272Y-25624D01*
X39495Y-25401D01*
X39506Y-25388D01*
X39516Y-25375D01*
X39517Y-25375D01*
X39517Y-25374D01*
X39525Y-25359D01*
X39533Y-25345D01*
X39533Y-25344D01*
X39534Y-25343D01*
X39538Y-25328D01*
X39543Y-25312D01*
X39543Y-25311D01*
X39544Y-25310D01*
X39545Y-25294D01*
X39547Y-25278D01*
X39547Y-25276D01*
X39547Y-25276D01*
X39547Y-25276D01*
X39547Y-25275D01*
X39547Y-25227D01*
X39577Y-25198D01*
X39608Y-25155D01*
X39630Y-25106D01*
X39641Y-25054D01*
X39642Y-24992D01*
X39642Y-27461D01*
X39635Y-27468D01*
X39635Y-27864D01*
X39643Y-27864D01*
X39643Y-27883D01*
X39635Y-27883D01*
X39635Y-28279D01*
X39672Y-28316D01*
X39896Y-28316D01*
X39924Y-28310D01*
X39951Y-28299D01*
X39975Y-28283D01*
X39996Y-28263D01*
X39999Y-28257D01*
X40003Y-28263D01*
X40024Y-28283D01*
X40048Y-28299D01*
X40075Y-28310D01*
X40103Y-28316D01*
X40133Y-28316D01*
X40644Y-28316D01*
X40672Y-28310D01*
X40699Y-28299D01*
X40723Y-28283D01*
X40744Y-28263D01*
X40760Y-28238D01*
X40771Y-28212D01*
X40777Y-28183D01*
X40777Y-29335D01*
X40763Y-29315D01*
X40725Y-29277D01*
X40681Y-29247D01*
X40632Y-29226D01*
X40579Y-29215D01*
X40526Y-29215D01*
X40473Y-29225D01*
X40424Y-29245D01*
X40379Y-29274D01*
X40342Y-29310D01*
X40148Y-29310D01*
X40115Y-29277D01*
X40071Y-29247D01*
X40021Y-29226D01*
X39969Y-29215D01*
X39916Y-29215D01*
X39863Y-29225D01*
X39814Y-29245D01*
X39769Y-29274D01*
X39731Y-29312D01*
X39700Y-29356D01*
X39679Y-29405D01*
X39668Y-29457D01*
X39667Y-29511D01*
X39677Y-29563D01*
X39697Y-29613D01*
X39726Y-29658D01*
X39763Y-29696D01*
X39807Y-29727D01*
X39856Y-29748D01*
X39908Y-29760D01*
X39961Y-29761D01*
X40014Y-29752D01*
X40064Y-29732D01*
X40109Y-29704D01*
X40148Y-29667D01*
X40149Y-29665D01*
X40343Y-29665D01*
X40373Y-29696D01*
X40417Y-29727D01*
X40466Y-29748D01*
X40518Y-29760D01*
X40572Y-29761D01*
X40624Y-29752D01*
X40674Y-29732D01*
X40719Y-29704D01*
X40758Y-29667D01*
X40789Y-29623D01*
X40811Y-29574D01*
X40822Y-29522D01*
X40823Y-29461D01*
X40823Y-29899D01*
X40480Y-31036D01*
X39851Y-32218D01*
X39616Y-32575D01*
X39616Y-28279D01*
X39616Y-27883D01*
X39616Y-27864D01*
X39616Y-27468D01*
X39579Y-27431D01*
X39355Y-27431D01*
X39327Y-27437D01*
X39300Y-27448D01*
X39276Y-27464D01*
X39255Y-27484D01*
X39239Y-27509D01*
X39228Y-27535D01*
X39222Y-27564D01*
X39222Y-27593D01*
X39222Y-27827D01*
X39259Y-27864D01*
X39616Y-27864D01*
X39616Y-27883D01*
X39259Y-27883D01*
X39222Y-27920D01*
X39222Y-28154D01*
X39222Y-28183D01*
X39228Y-28212D01*
X39239Y-28238D01*
X39255Y-28263D01*
X39276Y-28283D01*
X39300Y-28299D01*
X39327Y-28310D01*
X39355Y-28316D01*
X39579Y-28316D01*
X39616Y-28279D01*
X39616Y-32575D01*
X39538Y-32692D01*
X39386Y-32878D01*
X39386Y-30268D01*
X39376Y-30216D01*
X39356Y-30166D01*
X39326Y-30122D01*
X39288Y-30084D01*
X39244Y-30054D01*
X39195Y-30033D01*
X39142Y-30022D01*
X39089Y-30022D01*
X39036Y-30032D01*
X38987Y-30052D01*
X38942Y-30081D01*
X38904Y-30119D01*
X38874Y-30163D01*
X38853Y-30212D01*
X38841Y-30264D01*
X38841Y-30317D01*
X38802Y-30355D01*
X38802Y-25427D01*
X38802Y-25394D01*
X38795Y-25361D01*
X38783Y-25331D01*
X38764Y-25303D01*
X38741Y-25280D01*
X38675Y-25214D01*
X38675Y-22494D01*
X38675Y-22465D01*
X38669Y-22436D01*
X38658Y-22410D01*
X38642Y-22385D01*
X38621Y-22365D01*
X38204Y-21948D01*
X38180Y-21931D01*
X38153Y-21920D01*
X38125Y-21915D01*
X38096Y-21915D01*
X38067Y-21920D01*
X38040Y-21931D01*
X38016Y-21948D01*
X37995Y-21968D01*
X37634Y-22330D01*
X37618Y-22354D01*
X37607Y-22381D01*
X37601Y-22409D01*
X37601Y-22438D01*
X37602Y-22445D01*
X37596Y-22444D01*
X37567Y-22444D01*
X37538Y-22449D01*
X37511Y-22460D01*
X37487Y-22477D01*
X37329Y-22634D01*
X37329Y-22687D01*
X37609Y-22967D01*
X37615Y-22961D01*
X37629Y-22975D01*
X37623Y-22980D01*
X37903Y-23260D01*
X37955Y-23260D01*
X38113Y-23103D01*
X38129Y-23078D01*
X38140Y-23051D01*
X38146Y-23023D01*
X38146Y-22994D01*
X38145Y-22987D01*
X38151Y-22988D01*
X38180Y-22988D01*
X38209Y-22983D01*
X38236Y-22972D01*
X38260Y-22956D01*
X38281Y-22935D01*
X38642Y-22574D01*
X38658Y-22549D01*
X38669Y-22523D01*
X38675Y-22494D01*
X38675Y-25214D01*
X38317Y-24856D01*
X38289Y-24838D01*
X38259Y-24825D01*
X38227Y-24819D01*
X38194Y-24819D01*
X38161Y-24825D01*
X38131Y-24838D01*
X38103Y-24856D01*
X38080Y-24879D01*
X37970Y-24989D01*
X37970Y-24657D01*
X37953Y-24567D01*
X37918Y-24483D01*
X37889Y-24439D01*
X37889Y-23327D01*
X37889Y-23274D01*
X37609Y-22994D01*
X37595Y-23008D01*
X37595Y-22980D01*
X37315Y-22701D01*
X37263Y-22701D01*
X37105Y-22858D01*
X37089Y-22883D01*
X37078Y-22909D01*
X37072Y-22938D01*
X37072Y-22967D01*
X37078Y-22996D01*
X37089Y-23022D01*
X37105Y-23047D01*
X37126Y-23067D01*
X37291Y-23232D01*
X37343Y-23232D01*
X37595Y-22980D01*
X37595Y-23008D01*
X37357Y-23246D01*
X37357Y-23299D01*
X37522Y-23464D01*
X37543Y-23484D01*
X37567Y-23501D01*
X37594Y-23512D01*
X37622Y-23517D01*
X37652Y-23517D01*
X37680Y-23512D01*
X37707Y-23501D01*
X37731Y-23484D01*
X37889Y-23327D01*
X37889Y-24439D01*
X37867Y-24406D01*
X37802Y-24341D01*
X37726Y-24290D01*
X37642Y-24254D01*
X37552Y-24236D01*
X37460Y-24235D01*
X37370Y-24253D01*
X37285Y-24287D01*
X37263Y-24301D01*
X37263Y-23950D01*
X37245Y-23860D01*
X37211Y-23775D01*
X37160Y-23699D01*
X37095Y-23634D01*
X37019Y-23583D01*
X36935Y-23547D01*
X36845Y-23529D01*
X36753Y-23528D01*
X36663Y-23545D01*
X36578Y-23580D01*
X36556Y-23594D01*
X36556Y-23243D01*
X36538Y-23153D01*
X36503Y-23068D01*
X36453Y-22992D01*
X36388Y-22927D01*
X36312Y-22876D01*
X36228Y-22840D01*
X36138Y-22822D01*
X36046Y-22821D01*
X35956Y-22838D01*
X35871Y-22873D01*
X35795Y-22923D01*
X35729Y-22987D01*
X35677Y-23063D01*
X35641Y-23147D01*
X35622Y-23236D01*
X35621Y-23328D01*
X35637Y-23418D01*
X35671Y-23503D01*
X35721Y-23581D01*
X35784Y-23646D01*
X35860Y-23699D01*
X35944Y-23735D01*
X36033Y-23755D01*
X36125Y-23757D01*
X36215Y-23741D01*
X36301Y-23708D01*
X36378Y-23659D01*
X36444Y-23596D01*
X36497Y-23521D01*
X36534Y-23437D01*
X36555Y-23348D01*
X36556Y-23243D01*
X36556Y-23594D01*
X36502Y-23630D01*
X36436Y-23694D01*
X36384Y-23770D01*
X36348Y-23854D01*
X36329Y-23944D01*
X36328Y-24035D01*
X36345Y-24125D01*
X36378Y-24211D01*
X36428Y-24288D01*
X36492Y-24354D01*
X36567Y-24406D01*
X36651Y-24443D01*
X36740Y-24462D01*
X36832Y-24464D01*
X36922Y-24448D01*
X37008Y-24415D01*
X37085Y-24366D01*
X37151Y-24303D01*
X37204Y-24228D01*
X37242Y-24144D01*
X37262Y-24055D01*
X37263Y-23950D01*
X37263Y-24301D01*
X37209Y-24337D01*
X37143Y-24401D01*
X37092Y-24477D01*
X37055Y-24561D01*
X37036Y-24651D01*
X37035Y-24742D01*
X37052Y-24832D01*
X37085Y-24918D01*
X37135Y-24995D01*
X37199Y-25061D01*
X37274Y-25113D01*
X37358Y-25150D01*
X37447Y-25169D01*
X37539Y-25171D01*
X37629Y-25155D01*
X37715Y-25122D01*
X37792Y-25073D01*
X37859Y-25010D01*
X37911Y-24935D01*
X37949Y-24851D01*
X37969Y-24762D01*
X37970Y-24657D01*
X37970Y-24989D01*
X37656Y-25303D01*
X37638Y-25331D01*
X37625Y-25361D01*
X37619Y-25394D01*
X37619Y-25427D01*
X37625Y-25459D01*
X37638Y-25489D01*
X37656Y-25517D01*
X37679Y-25540D01*
X38103Y-25964D01*
X38131Y-25983D01*
X38161Y-25995D01*
X38194Y-26002D01*
X38227Y-26002D01*
X38259Y-25995D01*
X38289Y-25983D01*
X38317Y-25964D01*
X38340Y-25941D01*
X38764Y-25517D01*
X38783Y-25489D01*
X38795Y-25459D01*
X38802Y-25427D01*
X38802Y-30355D01*
X38407Y-30750D01*
X38400Y-30750D01*
X38347Y-30760D01*
X38298Y-30780D01*
X38253Y-30810D01*
X38215Y-30847D01*
X38185Y-30891D01*
X38164Y-30940D01*
X38152Y-30993D01*
X38152Y-31046D01*
X38161Y-31099D01*
X38181Y-31148D01*
X38210Y-31193D01*
X38247Y-31232D01*
X38291Y-31262D01*
X38340Y-31284D01*
X38392Y-31295D01*
X38446Y-31296D01*
X38498Y-31287D01*
X38548Y-31268D01*
X38593Y-31239D01*
X38632Y-31202D01*
X38663Y-31158D01*
X38685Y-31110D01*
X38696Y-31057D01*
X38697Y-30996D01*
X38692Y-30968D01*
X39093Y-30567D01*
X39135Y-30568D01*
X39187Y-30559D01*
X39237Y-30539D01*
X39282Y-30511D01*
X39321Y-30474D01*
X39352Y-30430D01*
X39374Y-30381D01*
X39385Y-30329D01*
X39386Y-30268D01*
X39386Y-32878D01*
X38714Y-33702D01*
X38714Y-33243D01*
X38714Y-33214D01*
X38709Y-33185D01*
X38697Y-33158D01*
X38681Y-33134D01*
X38661Y-33113D01*
X38299Y-32752D01*
X38275Y-32736D01*
X38248Y-32725D01*
X38220Y-32719D01*
X38191Y-32719D01*
X38184Y-32721D01*
X38185Y-32714D01*
X38185Y-32685D01*
X38180Y-32656D01*
X38169Y-32629D01*
X38152Y-32605D01*
X37994Y-32447D01*
X37942Y-32447D01*
X37928Y-32461D01*
X37928Y-32433D01*
X37928Y-32381D01*
X37770Y-32223D01*
X37746Y-32207D01*
X37719Y-32196D01*
X37691Y-32190D01*
X37662Y-32190D01*
X37633Y-32196D01*
X37606Y-32207D01*
X37582Y-32223D01*
X37562Y-32244D01*
X37396Y-32409D01*
X37396Y-32461D01*
X37648Y-32713D01*
X37928Y-32433D01*
X37928Y-32461D01*
X37662Y-32727D01*
X37668Y-32733D01*
X37654Y-32747D01*
X37648Y-32741D01*
X37635Y-32755D01*
X37635Y-32727D01*
X37383Y-32475D01*
X37330Y-32475D01*
X37165Y-32640D01*
X37144Y-32661D01*
X37128Y-32685D01*
X37117Y-32712D01*
X37112Y-32741D01*
X37112Y-32770D01*
X37117Y-32798D01*
X37128Y-32825D01*
X37144Y-32849D01*
X37302Y-33007D01*
X37355Y-33007D01*
X37635Y-32727D01*
X37635Y-32755D01*
X37368Y-33021D01*
X37368Y-33073D01*
X37526Y-33231D01*
X37551Y-33247D01*
X37577Y-33258D01*
X37606Y-33264D01*
X37635Y-33264D01*
X37642Y-33263D01*
X37640Y-33269D01*
X37640Y-33299D01*
X37646Y-33327D01*
X37657Y-33354D01*
X37673Y-33378D01*
X37694Y-33399D01*
X38055Y-33760D01*
X38079Y-33776D01*
X38106Y-33787D01*
X38135Y-33793D01*
X38164Y-33793D01*
X38192Y-33787D01*
X38219Y-33776D01*
X38244Y-33760D01*
X38264Y-33739D01*
X38681Y-33322D01*
X38697Y-33298D01*
X38709Y-33271D01*
X38714Y-33243D01*
X38714Y-33702D01*
X38683Y-33741D01*
X37623Y-34618D01*
X37319Y-34818D01*
X37319Y-34540D01*
X37309Y-34487D01*
X37289Y-34438D01*
X37259Y-34393D01*
X37221Y-34355D01*
X37177Y-34325D01*
X37128Y-34305D01*
X37075Y-34294D01*
X37022Y-34294D01*
X36969Y-34304D01*
X36920Y-34324D01*
X36875Y-34353D01*
X36838Y-34389D01*
X36507Y-34389D01*
X36473Y-34355D01*
X36429Y-34325D01*
X36424Y-34323D01*
X36424Y-30454D01*
X36424Y-25054D01*
X36387Y-24867D01*
X36314Y-24690D01*
X36208Y-24531D01*
X36074Y-24395D01*
X35915Y-24288D01*
X35739Y-24214D01*
X35552Y-24176D01*
X35361Y-24174D01*
X35173Y-24210D01*
X34996Y-24282D01*
X34836Y-24386D01*
X34699Y-24520D01*
X34591Y-24678D01*
X34516Y-24853D01*
X34476Y-25040D01*
X34474Y-25231D01*
X34508Y-25419D01*
X34579Y-25597D01*
X34682Y-25758D01*
X34815Y-25895D01*
X34972Y-26004D01*
X35147Y-26081D01*
X35334Y-26122D01*
X35525Y-26126D01*
X35713Y-26093D01*
X35891Y-26023D01*
X36052Y-25921D01*
X36191Y-25789D01*
X36301Y-25633D01*
X36379Y-25459D01*
X36421Y-25272D01*
X36424Y-25054D01*
X36424Y-30454D01*
X36387Y-30267D01*
X36314Y-30090D01*
X36208Y-29931D01*
X36074Y-29795D01*
X35915Y-29688D01*
X35739Y-29614D01*
X35552Y-29576D01*
X35361Y-29574D01*
X35173Y-29610D01*
X34996Y-29682D01*
X34878Y-29759D01*
X34880Y-29743D01*
X34882Y-29726D01*
X34882Y-29725D01*
X34882Y-29725D01*
X34882Y-29724D01*
X34882Y-29724D01*
X34882Y-28897D01*
X34880Y-28881D01*
X34879Y-28864D01*
X34879Y-28864D01*
X34878Y-28863D01*
X34874Y-28847D01*
X34869Y-28831D01*
X34869Y-28830D01*
X34868Y-28829D01*
X34861Y-28815D01*
X34853Y-28800D01*
X34853Y-28800D01*
X34852Y-28799D01*
X34842Y-28786D01*
X34832Y-28773D01*
X34830Y-28772D01*
X34830Y-28772D01*
X34830Y-28772D01*
X34830Y-28772D01*
X34409Y-28351D01*
X34409Y-26299D01*
X34408Y-26282D01*
X34406Y-26266D01*
X34406Y-26265D01*
X34406Y-26264D01*
X34401Y-26248D01*
X34397Y-26233D01*
X34396Y-26232D01*
X34396Y-26231D01*
X34388Y-26217D01*
X34381Y-26202D01*
X34380Y-26201D01*
X34380Y-26200D01*
X34369Y-26188D01*
X34359Y-26175D01*
X34358Y-26174D01*
X34358Y-26174D01*
X34358Y-26174D01*
X34357Y-26173D01*
X33570Y-25386D01*
X33557Y-25375D01*
X33549Y-25369D01*
X33574Y-25353D01*
X33612Y-25316D01*
X33643Y-25273D01*
X33665Y-25224D01*
X33677Y-25172D01*
X33678Y-25111D01*
X33667Y-25058D01*
X33652Y-25021D01*
X33654Y-25019D01*
X33667Y-25009D01*
X33668Y-25007D01*
X33668Y-25007D01*
X33668Y-25007D01*
X33668Y-25007D01*
X34699Y-23976D01*
X34729Y-23965D01*
X34774Y-23936D01*
X34813Y-23899D01*
X34844Y-23855D01*
X34866Y-23806D01*
X34878Y-23754D01*
X34878Y-23693D01*
X34868Y-23641D01*
X34848Y-23591D01*
X34818Y-23547D01*
X34780Y-23509D01*
X34764Y-23498D01*
X35375Y-22887D01*
X35386Y-22874D01*
X35396Y-22862D01*
X35397Y-22861D01*
X35397Y-22860D01*
X35405Y-22846D01*
X35413Y-22831D01*
X35413Y-22830D01*
X35413Y-22830D01*
X35418Y-22814D01*
X35423Y-22798D01*
X35423Y-22797D01*
X35424Y-22796D01*
X35425Y-22780D01*
X35427Y-22764D01*
X35427Y-22762D01*
X35427Y-22762D01*
X35427Y-22762D01*
X35427Y-22761D01*
X35427Y-22682D01*
X35461Y-22669D01*
X35539Y-22620D01*
X35605Y-22556D01*
X35658Y-22481D01*
X35695Y-22398D01*
X35713Y-22319D01*
X35727Y-22334D01*
X35771Y-22365D01*
X35820Y-22386D01*
X35873Y-22398D01*
X35926Y-22399D01*
X35979Y-22389D01*
X36029Y-22370D01*
X36074Y-22341D01*
X36112Y-22304D01*
X36143Y-22261D01*
X36165Y-22212D01*
X36177Y-22160D01*
X36178Y-22099D01*
X36167Y-22046D01*
X36147Y-21997D01*
X36117Y-21952D01*
X36080Y-21914D01*
X36035Y-21884D01*
X35986Y-21864D01*
X35934Y-21853D01*
X35883Y-21853D01*
X35646Y-21615D01*
X35646Y-21567D01*
X35636Y-21515D01*
X35615Y-21465D01*
X35586Y-21421D01*
X35548Y-21383D01*
X35504Y-21353D01*
X35455Y-21332D01*
X35402Y-21322D01*
X35349Y-21321D01*
X35296Y-21331D01*
X35247Y-21351D01*
X35202Y-21380D01*
X35164Y-21418D01*
X35133Y-21462D01*
X35112Y-21511D01*
X35101Y-21563D01*
X35101Y-21617D01*
X35110Y-21670D01*
X35130Y-21719D01*
X35159Y-21764D01*
X35181Y-21787D01*
X35117Y-21799D01*
X35075Y-21816D01*
X35075Y-20996D01*
X35065Y-20944D01*
X35045Y-20895D01*
X35015Y-20850D01*
X34977Y-20812D01*
X34933Y-20782D01*
X34884Y-20761D01*
X34831Y-20751D01*
X34781Y-20750D01*
X34665Y-20635D01*
X34665Y-20286D01*
X34695Y-20257D01*
X34726Y-20214D01*
X34748Y-20165D01*
X34759Y-20113D01*
X34760Y-20052D01*
X34750Y-19999D01*
X34730Y-19950D01*
X34700Y-19905D01*
X34662Y-19867D01*
X34618Y-19837D01*
X34569Y-19817D01*
X34516Y-19806D01*
X34463Y-19805D01*
X34410Y-19815D01*
X34361Y-19835D01*
X34316Y-19865D01*
X34278Y-19902D01*
X34248Y-19946D01*
X34227Y-19995D01*
X34215Y-20048D01*
X34215Y-20101D01*
X34224Y-20154D01*
X34244Y-20203D01*
X34273Y-20248D01*
X34310Y-20287D01*
X34310Y-20708D01*
X34312Y-20725D01*
X34313Y-20741D01*
X34313Y-20742D01*
X34313Y-20743D01*
X34318Y-20758D01*
X34323Y-20774D01*
X34323Y-20775D01*
X34323Y-20776D01*
X34331Y-20790D01*
X34339Y-20805D01*
X34339Y-20806D01*
X34340Y-20806D01*
X34350Y-20819D01*
X34360Y-20832D01*
X34362Y-20833D01*
X34362Y-20833D01*
X34362Y-20833D01*
X34362Y-20834D01*
X34530Y-21002D01*
X34530Y-21046D01*
X34539Y-21099D01*
X34559Y-21148D01*
X34588Y-21193D01*
X34625Y-21232D01*
X34669Y-21262D01*
X34718Y-21284D01*
X34770Y-21295D01*
X34824Y-21296D01*
X34876Y-21287D01*
X34926Y-21268D01*
X34971Y-21239D01*
X35010Y-21202D01*
X35041Y-21158D01*
X35063Y-21110D01*
X35074Y-21057D01*
X35075Y-20996D01*
X35075Y-21816D01*
X35032Y-21833D01*
X34955Y-21884D01*
X34890Y-21948D01*
X34838Y-22023D01*
X34802Y-22108D01*
X34783Y-22197D01*
X34782Y-22289D01*
X34798Y-22379D01*
X34832Y-22464D01*
X34881Y-22541D01*
X34945Y-22607D01*
X35020Y-22659D01*
X35072Y-22682D01*
X35072Y-22688D01*
X34717Y-23043D01*
X34717Y-22204D01*
X34699Y-22114D01*
X34664Y-22029D01*
X34613Y-21953D01*
X34549Y-21888D01*
X34473Y-21836D01*
X34388Y-21801D01*
X34299Y-21782D01*
X34207Y-21782D01*
X34117Y-21799D01*
X34032Y-21833D01*
X33955Y-21884D01*
X33890Y-21948D01*
X33838Y-22023D01*
X33802Y-22108D01*
X33783Y-22197D01*
X33782Y-22289D01*
X33798Y-22379D01*
X33832Y-22464D01*
X33881Y-22541D01*
X33945Y-22607D01*
X34020Y-22659D01*
X34104Y-22696D01*
X34194Y-22716D01*
X34286Y-22718D01*
X34376Y-22702D01*
X34461Y-22669D01*
X34539Y-22620D01*
X34605Y-22556D01*
X34658Y-22481D01*
X34695Y-22398D01*
X34715Y-22308D01*
X34717Y-22204D01*
X34717Y-23043D01*
X34185Y-23575D01*
X34185Y-23573D01*
X34192Y-23541D01*
X34192Y-23508D01*
X34192Y-22958D01*
X34185Y-22926D01*
X34173Y-22895D01*
X34154Y-22868D01*
X34131Y-22845D01*
X34104Y-22826D01*
X34073Y-22814D01*
X34041Y-22807D01*
X34008Y-22807D01*
X33717Y-22807D01*
X33717Y-22204D01*
X33699Y-22114D01*
X33664Y-22029D01*
X33613Y-21953D01*
X33549Y-21888D01*
X33473Y-21836D01*
X33388Y-21801D01*
X33299Y-21782D01*
X33207Y-21782D01*
X33198Y-21784D01*
X33198Y-21234D01*
X33198Y-21011D01*
X33198Y-20917D01*
X33198Y-20694D01*
X33192Y-20665D01*
X33181Y-20639D01*
X33165Y-20614D01*
X33145Y-20594D01*
X33139Y-20590D01*
X33145Y-20586D01*
X33165Y-20566D01*
X33181Y-20541D01*
X33192Y-20515D01*
X33198Y-20486D01*
X33198Y-20457D01*
X33198Y-19946D01*
X33192Y-19917D01*
X33181Y-19891D01*
X33165Y-19866D01*
X33145Y-19846D01*
X33120Y-19830D01*
X33093Y-19819D01*
X33065Y-19813D01*
X33036Y-19813D01*
X32446Y-19813D01*
X32417Y-19819D01*
X32390Y-19830D01*
X32366Y-19846D01*
X32346Y-19866D01*
X32330Y-19891D01*
X32318Y-19917D01*
X32313Y-19946D01*
X32313Y-19975D01*
X32313Y-20486D01*
X32318Y-20515D01*
X32330Y-20541D01*
X32346Y-20566D01*
X32366Y-20586D01*
X32372Y-20590D01*
X32366Y-20594D01*
X32346Y-20614D01*
X32330Y-20639D01*
X32318Y-20665D01*
X32313Y-20694D01*
X32313Y-20917D01*
X32350Y-20954D01*
X32746Y-20954D01*
X32746Y-20946D01*
X32765Y-20946D01*
X32765Y-20954D01*
X33161Y-20954D01*
X33198Y-20917D01*
X33198Y-21011D01*
X33161Y-20974D01*
X32765Y-20974D01*
X32765Y-21330D01*
X32802Y-21367D01*
X33036Y-21367D01*
X33065Y-21367D01*
X33093Y-21362D01*
X33120Y-21350D01*
X33145Y-21334D01*
X33165Y-21314D01*
X33181Y-21289D01*
X33192Y-21263D01*
X33198Y-21234D01*
X33198Y-21784D01*
X33117Y-21799D01*
X33032Y-21833D01*
X32955Y-21884D01*
X32890Y-21948D01*
X32838Y-22023D01*
X32802Y-22108D01*
X32783Y-22197D01*
X32782Y-22289D01*
X32798Y-22379D01*
X32832Y-22464D01*
X32881Y-22541D01*
X32945Y-22607D01*
X33020Y-22659D01*
X33104Y-22696D01*
X33194Y-22716D01*
X33286Y-22718D01*
X33376Y-22702D01*
X33461Y-22669D01*
X33539Y-22620D01*
X33605Y-22556D01*
X33658Y-22481D01*
X33695Y-22398D01*
X33715Y-22308D01*
X33717Y-22204D01*
X33717Y-22807D01*
X33458Y-22807D01*
X33426Y-22814D01*
X33395Y-22826D01*
X33368Y-22845D01*
X33345Y-22868D01*
X33326Y-22895D01*
X33314Y-22926D01*
X33307Y-22958D01*
X33307Y-22991D01*
X33307Y-23541D01*
X33314Y-23573D01*
X33326Y-23604D01*
X33345Y-23631D01*
X33354Y-23641D01*
X32959Y-23641D01*
X33023Y-23600D01*
X33086Y-23540D01*
X33136Y-23469D01*
X33171Y-23390D01*
X33190Y-23305D01*
X33192Y-23206D01*
X33175Y-23121D01*
X33142Y-23041D01*
X33094Y-22969D01*
X33033Y-22907D01*
X32961Y-22859D01*
X32881Y-22825D01*
X32796Y-22807D01*
X32746Y-22807D01*
X32746Y-21330D01*
X32746Y-20974D01*
X32350Y-20974D01*
X32313Y-21011D01*
X32313Y-21234D01*
X32318Y-21263D01*
X32330Y-21289D01*
X32346Y-21314D01*
X32366Y-21334D01*
X32390Y-21350D01*
X32417Y-21362D01*
X32446Y-21367D01*
X32475Y-21367D01*
X32709Y-21367D01*
X32746Y-21330D01*
X32746Y-22807D01*
X32717Y-22807D01*
X32717Y-22204D01*
X32699Y-22114D01*
X32664Y-22029D01*
X32613Y-21953D01*
X32549Y-21888D01*
X32473Y-21836D01*
X32388Y-21801D01*
X32299Y-21782D01*
X32207Y-21782D01*
X32117Y-21799D01*
X32032Y-21833D01*
X31955Y-21884D01*
X31890Y-21948D01*
X31838Y-22023D01*
X31802Y-22108D01*
X31783Y-22197D01*
X31782Y-22289D01*
X31798Y-22379D01*
X31832Y-22464D01*
X31881Y-22541D01*
X31945Y-22607D01*
X32020Y-22659D01*
X32104Y-22696D01*
X32194Y-22716D01*
X32286Y-22718D01*
X32376Y-22702D01*
X32461Y-22669D01*
X32539Y-22620D01*
X32605Y-22556D01*
X32658Y-22481D01*
X32695Y-22398D01*
X32715Y-22308D01*
X32717Y-22204D01*
X32717Y-22807D01*
X32709Y-22807D01*
X32624Y-22823D01*
X32544Y-22856D01*
X32471Y-22903D01*
X32409Y-22964D01*
X32360Y-23035D01*
X32326Y-23115D01*
X32308Y-23200D01*
X32307Y-23287D01*
X32322Y-23372D01*
X32354Y-23453D01*
X32401Y-23526D01*
X32461Y-23588D01*
X32533Y-23637D01*
X32540Y-23641D01*
X31959Y-23641D01*
X32023Y-23600D01*
X32086Y-23540D01*
X32136Y-23469D01*
X32171Y-23390D01*
X32190Y-23305D01*
X32192Y-23206D01*
X32175Y-23121D01*
X32142Y-23041D01*
X32094Y-22969D01*
X32033Y-22907D01*
X31961Y-22859D01*
X31881Y-22825D01*
X31796Y-22807D01*
X31717Y-22807D01*
X31717Y-22204D01*
X31699Y-22114D01*
X31664Y-22029D01*
X31613Y-21953D01*
X31549Y-21888D01*
X31473Y-21836D01*
X31388Y-21801D01*
X31299Y-21782D01*
X31256Y-21782D01*
X31256Y-21390D01*
X31246Y-21338D01*
X31226Y-21288D01*
X31196Y-21244D01*
X31158Y-21206D01*
X31114Y-21176D01*
X31065Y-21155D01*
X31012Y-21144D01*
X30959Y-21144D01*
X30906Y-21154D01*
X30857Y-21174D01*
X30812Y-21203D01*
X30789Y-21226D01*
X30606Y-21044D01*
X30607Y-20996D01*
X30596Y-20944D01*
X30576Y-20895D01*
X30546Y-20850D01*
X30509Y-20812D01*
X30464Y-20782D01*
X30415Y-20761D01*
X30363Y-20751D01*
X30309Y-20750D01*
X30257Y-20760D01*
X30207Y-20780D01*
X30162Y-20810D01*
X30124Y-20847D01*
X30094Y-20891D01*
X30073Y-20940D01*
X30062Y-20993D01*
X30061Y-21046D01*
X30071Y-21099D01*
X30090Y-21148D01*
X30119Y-21193D01*
X30157Y-21232D01*
X30200Y-21262D01*
X30249Y-21284D01*
X30302Y-21295D01*
X30355Y-21296D01*
X30356Y-21296D01*
X30602Y-21542D01*
X30615Y-21553D01*
X30627Y-21563D01*
X30628Y-21564D01*
X30629Y-21564D01*
X30644Y-21572D01*
X30658Y-21580D01*
X30659Y-21580D01*
X30660Y-21581D01*
X30675Y-21586D01*
X30691Y-21591D01*
X30692Y-21591D01*
X30693Y-21591D01*
X30709Y-21593D01*
X30725Y-21594D01*
X30727Y-21594D01*
X30727Y-21594D01*
X30727Y-21594D01*
X30728Y-21594D01*
X30776Y-21594D01*
X30806Y-21625D01*
X30850Y-21656D01*
X30899Y-21677D01*
X30951Y-21689D01*
X31005Y-21690D01*
X31057Y-21681D01*
X31107Y-21661D01*
X31152Y-21633D01*
X31191Y-21596D01*
X31222Y-21552D01*
X31244Y-21503D01*
X31256Y-21451D01*
X31256Y-21390D01*
X31256Y-21782D01*
X31207Y-21782D01*
X31117Y-21799D01*
X31032Y-21833D01*
X30955Y-21884D01*
X30890Y-21948D01*
X30838Y-22023D01*
X30802Y-22108D01*
X30783Y-22197D01*
X30782Y-22289D01*
X30798Y-22379D01*
X30832Y-22464D01*
X30881Y-22541D01*
X30945Y-22607D01*
X31020Y-22659D01*
X31104Y-22696D01*
X31194Y-22716D01*
X31286Y-22718D01*
X31376Y-22702D01*
X31461Y-22669D01*
X31539Y-22620D01*
X31605Y-22556D01*
X31658Y-22481D01*
X31695Y-22398D01*
X31715Y-22308D01*
X31717Y-22204D01*
X31717Y-22807D01*
X31709Y-22807D01*
X31624Y-22823D01*
X31544Y-22856D01*
X31471Y-22903D01*
X31409Y-22964D01*
X31360Y-23035D01*
X31326Y-23115D01*
X31308Y-23200D01*
X31307Y-23287D01*
X31322Y-23372D01*
X31354Y-23453D01*
X31401Y-23526D01*
X31461Y-23588D01*
X31533Y-23637D01*
X31600Y-23667D01*
X31596Y-23669D01*
X31595Y-23670D01*
X31594Y-23670D01*
X31581Y-23681D01*
X31569Y-23691D01*
X31567Y-23692D01*
X31567Y-23692D01*
X31567Y-23692D01*
X31567Y-23693D01*
X31517Y-23743D01*
X31471Y-23742D01*
X31418Y-23752D01*
X31369Y-23772D01*
X31324Y-23802D01*
X31286Y-23839D01*
X31255Y-23883D01*
X31234Y-23932D01*
X31223Y-23985D01*
X31223Y-24038D01*
X31232Y-24091D01*
X31252Y-24140D01*
X31281Y-24185D01*
X31318Y-24224D01*
X31362Y-24254D01*
X31411Y-24276D01*
X31463Y-24287D01*
X31517Y-24288D01*
X31569Y-24279D01*
X31610Y-24263D01*
X31601Y-24272D01*
X31570Y-24316D01*
X31549Y-24365D01*
X31538Y-24418D01*
X31538Y-24471D01*
X31547Y-24524D01*
X31567Y-24574D01*
X31596Y-24618D01*
X31633Y-24657D01*
X31677Y-24687D01*
X31726Y-24709D01*
X31778Y-24720D01*
X31832Y-24721D01*
X31884Y-24712D01*
X31934Y-24693D01*
X31979Y-24664D01*
X32018Y-24628D01*
X32018Y-24758D01*
X32023Y-24786D01*
X32034Y-24813D01*
X32051Y-24837D01*
X32063Y-24850D01*
X31842Y-25071D01*
X31842Y-25071D01*
X31841Y-25072D01*
X31796Y-25101D01*
X31758Y-25138D01*
X31728Y-25182D01*
X31707Y-25232D01*
X31696Y-25284D01*
X31695Y-25337D01*
X31705Y-25390D01*
X31724Y-25440D01*
X31753Y-25485D01*
X31790Y-25523D01*
X31834Y-25554D01*
X31883Y-25575D01*
X31936Y-25586D01*
X31989Y-25588D01*
X32042Y-25578D01*
X32092Y-25559D01*
X32126Y-25537D01*
X32149Y-25554D01*
X32198Y-25575D01*
X32251Y-25586D01*
X32304Y-25588D01*
X32357Y-25578D01*
X32406Y-25559D01*
X32452Y-25530D01*
X32490Y-25493D01*
X32521Y-25450D01*
X32541Y-25406D01*
X32578Y-25444D01*
X32578Y-26259D01*
X31653Y-26259D01*
X31653Y-26889D01*
X31653Y-28444D01*
X32059Y-28444D01*
X32006Y-28471D01*
X31993Y-28480D01*
X31965Y-28551D01*
X32250Y-28836D01*
X32534Y-28551D01*
X32506Y-28480D01*
X32442Y-28444D01*
X32602Y-28444D01*
X32606Y-28452D01*
X32607Y-28453D01*
X32607Y-28454D01*
X32618Y-28466D01*
X32628Y-28479D01*
X32629Y-28481D01*
X32629Y-28481D01*
X32629Y-28481D01*
X32630Y-28481D01*
X32637Y-28489D01*
X32637Y-28625D01*
X32628Y-28606D01*
X32619Y-28593D01*
X32548Y-28565D01*
X32263Y-28850D01*
X32548Y-29134D01*
X32619Y-29106D01*
X32637Y-29073D01*
X32637Y-29448D01*
X33838Y-29448D01*
X33838Y-29207D01*
X33979Y-29348D01*
X33978Y-29393D01*
X33988Y-29445D01*
X34008Y-29495D01*
X34037Y-29540D01*
X34074Y-29578D01*
X34118Y-29609D01*
X34167Y-29630D01*
X34219Y-29642D01*
X34272Y-29643D01*
X34325Y-29633D01*
X34328Y-29632D01*
X33988Y-29972D01*
X33978Y-29985D01*
X33967Y-29998D01*
X33967Y-29998D01*
X33966Y-29999D01*
X33958Y-30014D01*
X33950Y-30028D01*
X33950Y-30029D01*
X33950Y-30030D01*
X33945Y-30045D01*
X33940Y-30061D01*
X33940Y-30062D01*
X33940Y-30063D01*
X33938Y-30079D01*
X33936Y-30095D01*
X33936Y-30097D01*
X33936Y-30097D01*
X33936Y-30097D01*
X33936Y-30098D01*
X33936Y-30481D01*
X33904Y-30512D01*
X33874Y-30556D01*
X33853Y-30606D01*
X33841Y-30658D01*
X33841Y-30711D01*
X33850Y-30764D01*
X33870Y-30814D01*
X33899Y-30859D01*
X33915Y-30875D01*
X33904Y-30886D01*
X33874Y-30931D01*
X33853Y-30980D01*
X33841Y-31032D01*
X33841Y-31085D01*
X33850Y-31138D01*
X33870Y-31188D01*
X33899Y-31233D01*
X33936Y-31271D01*
X33980Y-31302D01*
X34029Y-31323D01*
X34081Y-31335D01*
X34135Y-31336D01*
X34187Y-31326D01*
X34237Y-31307D01*
X34282Y-31278D01*
X34321Y-31242D01*
X34352Y-31198D01*
X34374Y-31149D01*
X34385Y-31097D01*
X34386Y-31041D01*
X34495Y-30932D01*
X34506Y-30920D01*
X34516Y-30907D01*
X34517Y-30906D01*
X34517Y-30905D01*
X34525Y-30891D01*
X34532Y-30879D01*
X34579Y-30997D01*
X34682Y-31158D01*
X34815Y-31295D01*
X34972Y-31404D01*
X35147Y-31481D01*
X35334Y-31522D01*
X35525Y-31526D01*
X35713Y-31493D01*
X35891Y-31423D01*
X36052Y-31321D01*
X36191Y-31189D01*
X36301Y-31033D01*
X36379Y-30859D01*
X36421Y-30672D01*
X36424Y-30454D01*
X36424Y-34323D01*
X36380Y-34305D01*
X36327Y-34294D01*
X36274Y-34294D01*
X36221Y-34304D01*
X36172Y-34324D01*
X36127Y-34353D01*
X36089Y-34390D01*
X36059Y-34434D01*
X36038Y-34484D01*
X36026Y-34536D01*
X36026Y-34589D01*
X36035Y-34642D01*
X36055Y-34692D01*
X36084Y-34737D01*
X36121Y-34775D01*
X36165Y-34806D01*
X36214Y-34827D01*
X36266Y-34838D01*
X36320Y-34840D01*
X36372Y-34830D01*
X36422Y-34811D01*
X36467Y-34782D01*
X36506Y-34745D01*
X36507Y-34744D01*
X36839Y-34744D01*
X36869Y-34775D01*
X36913Y-34806D01*
X36962Y-34827D01*
X37014Y-34838D01*
X37068Y-34840D01*
X37120Y-34830D01*
X37170Y-34811D01*
X37215Y-34782D01*
X37254Y-34745D01*
X37285Y-34702D01*
X37307Y-34653D01*
X37319Y-34601D01*
X37319Y-34540D01*
X37319Y-34818D01*
X37151Y-34930D01*
X35990Y-35558D01*
X35764Y-35627D01*
X35764Y-34540D01*
X35754Y-34487D01*
X35734Y-34438D01*
X35704Y-34393D01*
X35666Y-34355D01*
X35622Y-34325D01*
X35573Y-34305D01*
X35520Y-34294D01*
X35467Y-34294D01*
X35414Y-34304D01*
X35365Y-34324D01*
X35320Y-34353D01*
X35283Y-34389D01*
X34876Y-34389D01*
X34838Y-34351D01*
X34839Y-34303D01*
X34829Y-34251D01*
X34808Y-34202D01*
X34779Y-34157D01*
X34741Y-34119D01*
X34697Y-34089D01*
X34647Y-34069D01*
X34595Y-34058D01*
X34542Y-34057D01*
X34489Y-34067D01*
X34440Y-34087D01*
X34395Y-34117D01*
X34357Y-34154D01*
X34326Y-34198D01*
X34305Y-34247D01*
X34294Y-34300D01*
X34293Y-34353D01*
X34303Y-34406D01*
X34323Y-34455D01*
X34352Y-34500D01*
X34389Y-34539D01*
X34433Y-34569D01*
X34482Y-34591D01*
X34534Y-34602D01*
X34587Y-34603D01*
X34588Y-34603D01*
X34677Y-34692D01*
X34690Y-34702D01*
X34702Y-34713D01*
X34703Y-34713D01*
X34704Y-34714D01*
X34718Y-34722D01*
X34733Y-34730D01*
X34734Y-34730D01*
X34734Y-34730D01*
X34750Y-34735D01*
X34766Y-34740D01*
X34767Y-34740D01*
X34768Y-34741D01*
X34784Y-34742D01*
X34800Y-34744D01*
X34802Y-34744D01*
X34802Y-34744D01*
X34802Y-34744D01*
X34803Y-34744D01*
X35284Y-34744D01*
X35314Y-34775D01*
X35358Y-34806D01*
X35407Y-34827D01*
X35459Y-34838D01*
X35513Y-34840D01*
X35565Y-34830D01*
X35615Y-34811D01*
X35660Y-34782D01*
X35699Y-34745D01*
X35730Y-34702D01*
X35752Y-34653D01*
X35763Y-34601D01*
X35764Y-34540D01*
X35764Y-35627D01*
X34678Y-35964D01*
X34145Y-36070D01*
X33198Y-36170D01*
X33198Y-35762D01*
X33198Y-35733D01*
X33198Y-35222D01*
X33192Y-35193D01*
X33181Y-35166D01*
X33165Y-35142D01*
X33145Y-35121D01*
X33139Y-35118D01*
X33145Y-35114D01*
X33165Y-35093D01*
X33181Y-35069D01*
X33192Y-35042D01*
X33198Y-35014D01*
X33198Y-34790D01*
X33198Y-34697D01*
X33198Y-34474D01*
X33192Y-34445D01*
X33181Y-34418D01*
X33166Y-34395D01*
X33166Y-31036D01*
X33155Y-30983D01*
X33135Y-30934D01*
X33106Y-30889D01*
X33092Y-30876D01*
X33101Y-30867D01*
X33131Y-30824D01*
X33153Y-30775D01*
X33165Y-30723D01*
X33166Y-30662D01*
X33155Y-30609D01*
X33135Y-30560D01*
X33106Y-30515D01*
X33068Y-30477D01*
X33024Y-30447D01*
X32974Y-30427D01*
X32922Y-30416D01*
X32868Y-30416D01*
X32816Y-30426D01*
X32766Y-30446D01*
X32722Y-30475D01*
X32685Y-30511D01*
X32534Y-30511D01*
X32534Y-29148D01*
X32250Y-28863D01*
X32236Y-28877D01*
X32236Y-28850D01*
X31951Y-28565D01*
X31880Y-28593D01*
X31837Y-28670D01*
X31810Y-28754D01*
X31800Y-28842D01*
X31807Y-28930D01*
X31831Y-29014D01*
X31871Y-29093D01*
X31880Y-29106D01*
X31951Y-29134D01*
X32236Y-28850D01*
X32236Y-28877D01*
X31965Y-29148D01*
X31993Y-29219D01*
X32070Y-29262D01*
X32154Y-29289D01*
X32242Y-29299D01*
X32330Y-29292D01*
X32414Y-29268D01*
X32493Y-29228D01*
X32506Y-29219D01*
X32534Y-29148D01*
X32534Y-30511D01*
X32530Y-30511D01*
X32497Y-30477D01*
X32453Y-30447D01*
X32403Y-30427D01*
X32351Y-30416D01*
X32298Y-30416D01*
X32245Y-30426D01*
X32195Y-30446D01*
X32151Y-30475D01*
X32112Y-30512D01*
X32082Y-30556D01*
X32061Y-30606D01*
X32050Y-30658D01*
X32049Y-30711D01*
X32059Y-30764D01*
X32079Y-30814D01*
X32108Y-30859D01*
X32124Y-30875D01*
X32112Y-30886D01*
X32082Y-30931D01*
X32061Y-30980D01*
X32050Y-31032D01*
X32049Y-31085D01*
X32059Y-31138D01*
X32079Y-31188D01*
X32108Y-31233D01*
X32145Y-31271D01*
X32189Y-31302D01*
X32238Y-31323D01*
X32290Y-31335D01*
X32343Y-31336D01*
X32396Y-31326D01*
X32446Y-31307D01*
X32491Y-31278D01*
X32530Y-31242D01*
X32531Y-31240D01*
X32686Y-31240D01*
X32716Y-31271D01*
X32760Y-31302D01*
X32809Y-31323D01*
X32861Y-31335D01*
X32914Y-31336D01*
X32967Y-31326D01*
X33017Y-31307D01*
X33062Y-31278D01*
X33101Y-31242D01*
X33131Y-31198D01*
X33153Y-31149D01*
X33165Y-31097D01*
X33166Y-31036D01*
X33166Y-34395D01*
X33165Y-34394D01*
X33145Y-34373D01*
X33120Y-34357D01*
X33093Y-34346D01*
X33065Y-34340D01*
X33036Y-34340D01*
X32802Y-34340D01*
X32765Y-34377D01*
X32765Y-34734D01*
X33161Y-34734D01*
X33198Y-34697D01*
X33198Y-34790D01*
X33161Y-34753D01*
X32765Y-34753D01*
X32765Y-34761D01*
X32746Y-34761D01*
X32746Y-34753D01*
X32746Y-34734D01*
X32746Y-34377D01*
X32709Y-34340D01*
X32477Y-34340D01*
X32477Y-31725D01*
X32466Y-31672D01*
X32446Y-31623D01*
X32417Y-31578D01*
X32379Y-31540D01*
X32335Y-31510D01*
X32285Y-31490D01*
X32233Y-31479D01*
X32179Y-31479D01*
X32127Y-31489D01*
X32077Y-31509D01*
X32033Y-31538D01*
X31994Y-31575D01*
X31964Y-31619D01*
X31943Y-31669D01*
X31932Y-31721D01*
X31931Y-31774D01*
X31940Y-31823D01*
X31827Y-31936D01*
X31827Y-31036D01*
X31817Y-30983D01*
X31797Y-30934D01*
X31767Y-30889D01*
X31753Y-30876D01*
X31762Y-30867D01*
X31793Y-30824D01*
X31815Y-30775D01*
X31826Y-30723D01*
X31827Y-30662D01*
X31817Y-30609D01*
X31797Y-30560D01*
X31767Y-30515D01*
X31732Y-30480D01*
X31732Y-29803D01*
X31731Y-29786D01*
X31729Y-29770D01*
X31729Y-29769D01*
X31729Y-29768D01*
X31724Y-29752D01*
X31720Y-29737D01*
X31719Y-29736D01*
X31719Y-29735D01*
X31711Y-29720D01*
X31704Y-29706D01*
X31703Y-29705D01*
X31703Y-29704D01*
X31692Y-29692D01*
X31682Y-29679D01*
X31681Y-29678D01*
X31681Y-29677D01*
X31681Y-29677D01*
X31680Y-29677D01*
X31585Y-29582D01*
X31585Y-26003D01*
X31585Y-24724D01*
X31583Y-24703D01*
X31582Y-24682D01*
X31581Y-24681D01*
X31581Y-24680D01*
X31575Y-24660D01*
X31569Y-24639D01*
X31569Y-24638D01*
X31568Y-24637D01*
X31558Y-24619D01*
X31549Y-24600D01*
X31548Y-24599D01*
X31547Y-24598D01*
X31534Y-24582D01*
X31521Y-24565D01*
X31519Y-24564D01*
X31519Y-24564D01*
X31519Y-24563D01*
X31519Y-24563D01*
X30697Y-23741D01*
X30697Y-22564D01*
X30697Y-22535D01*
X30697Y-22296D01*
X30697Y-22203D01*
X30697Y-21964D01*
X30697Y-21935D01*
X30691Y-21906D01*
X30680Y-21880D01*
X30664Y-21855D01*
X30644Y-21835D01*
X30619Y-21819D01*
X30593Y-21808D01*
X30564Y-21802D01*
X30296Y-21802D01*
X30259Y-21839D01*
X30259Y-22240D01*
X30660Y-22240D01*
X30697Y-22203D01*
X30697Y-22296D01*
X30660Y-22259D01*
X30259Y-22259D01*
X30259Y-22660D01*
X30296Y-22697D01*
X30564Y-22697D01*
X30593Y-22691D01*
X30619Y-22680D01*
X30644Y-22664D01*
X30664Y-22644D01*
X30680Y-22619D01*
X30691Y-22593D01*
X30697Y-22564D01*
X30697Y-23741D01*
X30574Y-23618D01*
X30558Y-23605D01*
X30541Y-23591D01*
X30540Y-23591D01*
X30540Y-23590D01*
X30535Y-23588D01*
X30526Y-23574D01*
X30482Y-23529D01*
X30429Y-23494D01*
X30371Y-23469D01*
X30309Y-23457D01*
X30246Y-23456D01*
X30240Y-23457D01*
X30240Y-22660D01*
X30240Y-22259D01*
X30240Y-22240D01*
X30240Y-21839D01*
X30203Y-21802D01*
X29935Y-21802D01*
X29906Y-21808D01*
X29880Y-21819D01*
X29855Y-21835D01*
X29835Y-21855D01*
X29819Y-21880D01*
X29808Y-21906D01*
X29802Y-21935D01*
X29802Y-21964D01*
X29802Y-22203D01*
X29839Y-22240D01*
X30240Y-22240D01*
X30240Y-22259D01*
X29839Y-22259D01*
X29802Y-22296D01*
X29802Y-22535D01*
X29802Y-22564D01*
X29808Y-22593D01*
X29819Y-22619D01*
X29835Y-22644D01*
X29855Y-22664D01*
X29880Y-22680D01*
X29906Y-22691D01*
X29935Y-22697D01*
X30203Y-22697D01*
X30240Y-22660D01*
X30240Y-23457D01*
X30184Y-23468D01*
X30125Y-23492D01*
X30072Y-23526D01*
X30027Y-23571D01*
X29991Y-23623D01*
X29966Y-23681D01*
X29953Y-23743D01*
X29952Y-23806D01*
X29963Y-23868D01*
X29987Y-23927D01*
X30021Y-23980D01*
X30065Y-24026D01*
X30117Y-24062D01*
X30175Y-24087D01*
X30237Y-24101D01*
X30300Y-24102D01*
X30362Y-24091D01*
X30392Y-24080D01*
X31130Y-24818D01*
X31130Y-25909D01*
X31024Y-26015D01*
X31024Y-25054D01*
X30987Y-24867D01*
X30914Y-24690D01*
X30808Y-24531D01*
X30674Y-24395D01*
X30515Y-24288D01*
X30339Y-24214D01*
X30152Y-24176D01*
X29961Y-24174D01*
X29828Y-24200D01*
X29828Y-23243D01*
X29810Y-23153D01*
X29775Y-23068D01*
X29724Y-22992D01*
X29659Y-22927D01*
X29642Y-22915D01*
X29642Y-20996D01*
X29632Y-20944D01*
X29611Y-20895D01*
X29582Y-20850D01*
X29544Y-20812D01*
X29500Y-20782D01*
X29451Y-20761D01*
X29398Y-20751D01*
X29345Y-20750D01*
X29292Y-20760D01*
X29243Y-20780D01*
X29198Y-20810D01*
X29161Y-20845D01*
X28751Y-20845D01*
X28717Y-20812D01*
X28673Y-20782D01*
X28624Y-20761D01*
X28571Y-20751D01*
X28518Y-20750D01*
X28465Y-20760D01*
X28416Y-20780D01*
X28371Y-20810D01*
X28333Y-20847D01*
X28303Y-20891D01*
X28282Y-20940D01*
X28271Y-20993D01*
X28270Y-21046D01*
X28279Y-21099D01*
X28299Y-21148D01*
X28328Y-21193D01*
X28365Y-21232D01*
X28409Y-21262D01*
X28458Y-21284D01*
X28510Y-21295D01*
X28564Y-21296D01*
X28616Y-21287D01*
X28666Y-21268D01*
X28711Y-21239D01*
X28750Y-21202D01*
X28751Y-21201D01*
X29162Y-21201D01*
X29192Y-21232D01*
X29236Y-21262D01*
X29285Y-21284D01*
X29337Y-21295D01*
X29391Y-21296D01*
X29443Y-21287D01*
X29493Y-21268D01*
X29538Y-21239D01*
X29577Y-21202D01*
X29608Y-21158D01*
X29630Y-21110D01*
X29641Y-21057D01*
X29642Y-20996D01*
X29642Y-22915D01*
X29584Y-22876D01*
X29499Y-22840D01*
X29409Y-22822D01*
X29318Y-22821D01*
X29228Y-22838D01*
X29143Y-22873D01*
X29066Y-22923D01*
X29000Y-22987D01*
X28949Y-23063D01*
X28913Y-23147D01*
X28894Y-23236D01*
X28892Y-23328D01*
X28909Y-23418D01*
X28943Y-23503D01*
X28992Y-23581D01*
X29056Y-23646D01*
X29131Y-23699D01*
X29215Y-23735D01*
X29305Y-23755D01*
X29396Y-23757D01*
X29486Y-23741D01*
X29572Y-23708D01*
X29649Y-23659D01*
X29716Y-23596D01*
X29768Y-23521D01*
X29806Y-23437D01*
X29826Y-23348D01*
X29828Y-23243D01*
X29828Y-24200D01*
X29773Y-24210D01*
X29596Y-24282D01*
X29436Y-24386D01*
X29299Y-24520D01*
X29191Y-24678D01*
X29116Y-24853D01*
X29096Y-24950D01*
X29096Y-24076D01*
X29096Y-23916D01*
X29072Y-23831D01*
X29031Y-23753D01*
X28977Y-23683D01*
X28909Y-23626D01*
X28832Y-23583D01*
X28748Y-23556D01*
X28733Y-23553D01*
X28663Y-23583D01*
X28663Y-23986D01*
X29066Y-23986D01*
X29096Y-23916D01*
X29096Y-24076D01*
X29066Y-24006D01*
X28663Y-24006D01*
X28663Y-24409D01*
X28733Y-24439D01*
X28818Y-24414D01*
X28896Y-24374D01*
X28966Y-24319D01*
X29023Y-24252D01*
X29066Y-24175D01*
X29093Y-24091D01*
X29096Y-24076D01*
X29096Y-24950D01*
X29076Y-25040D01*
X29074Y-25231D01*
X29108Y-25419D01*
X29179Y-25597D01*
X29282Y-25758D01*
X29415Y-25895D01*
X29572Y-26004D01*
X29747Y-26081D01*
X29934Y-26122D01*
X30125Y-26126D01*
X30313Y-26093D01*
X30491Y-26023D01*
X30652Y-25921D01*
X30791Y-25789D01*
X30901Y-25633D01*
X30979Y-25459D01*
X31021Y-25272D01*
X31024Y-25054D01*
X31024Y-26015D01*
X30079Y-26960D01*
X30049Y-26960D01*
X29987Y-26972D01*
X29928Y-26996D01*
X29875Y-27030D01*
X29830Y-27075D01*
X29794Y-27127D01*
X29769Y-27185D01*
X29756Y-27247D01*
X29755Y-27310D01*
X29767Y-27372D01*
X29790Y-27431D01*
X29824Y-27484D01*
X29868Y-27530D01*
X29920Y-27566D01*
X29978Y-27591D01*
X30040Y-27605D01*
X30103Y-27606D01*
X30165Y-27595D01*
X30224Y-27572D01*
X30278Y-27538D01*
X30324Y-27495D01*
X30360Y-27443D01*
X30386Y-27385D01*
X30400Y-27324D01*
X30400Y-27283D01*
X31519Y-26164D01*
X31532Y-26148D01*
X31546Y-26132D01*
X31546Y-26131D01*
X31547Y-26130D01*
X31557Y-26112D01*
X31567Y-26093D01*
X31567Y-26092D01*
X31568Y-26091D01*
X31574Y-26071D01*
X31580Y-26051D01*
X31581Y-26050D01*
X31581Y-26048D01*
X31583Y-26028D01*
X31585Y-26007D01*
X31585Y-26004D01*
X31585Y-26004D01*
X31585Y-26004D01*
X31585Y-26003D01*
X31585Y-29582D01*
X30834Y-28831D01*
X30821Y-28820D01*
X30809Y-28810D01*
X30808Y-28809D01*
X30807Y-28809D01*
X30793Y-28801D01*
X30778Y-28793D01*
X30777Y-28793D01*
X30776Y-28792D01*
X30761Y-28787D01*
X30745Y-28782D01*
X30744Y-28782D01*
X30743Y-28782D01*
X30727Y-28780D01*
X30711Y-28779D01*
X30709Y-28779D01*
X30709Y-28779D01*
X30709Y-28779D01*
X30708Y-28779D01*
X30125Y-28779D01*
X30125Y-27960D01*
X30113Y-27898D01*
X30089Y-27839D01*
X30054Y-27787D01*
X30009Y-27742D01*
X29957Y-27706D01*
X29899Y-27682D01*
X29837Y-27669D01*
X29773Y-27669D01*
X29711Y-27681D01*
X29652Y-27704D01*
X29600Y-27739D01*
X29554Y-27783D01*
X29519Y-27835D01*
X29494Y-27894D01*
X29480Y-27955D01*
X29480Y-28019D01*
X29491Y-28081D01*
X29514Y-28140D01*
X29549Y-28193D01*
X29593Y-28239D01*
X29644Y-28275D01*
X29702Y-28300D01*
X29764Y-28314D01*
X29828Y-28315D01*
X29890Y-28304D01*
X29949Y-28281D01*
X30002Y-28247D01*
X30048Y-28203D01*
X30085Y-28152D01*
X30110Y-28094D01*
X30124Y-28032D01*
X30125Y-27960D01*
X30125Y-28779D01*
X29916Y-28779D01*
X29449Y-28312D01*
X29449Y-26028D01*
X29447Y-26012D01*
X29446Y-25996D01*
X29445Y-25995D01*
X29445Y-25994D01*
X29441Y-25978D01*
X29436Y-25962D01*
X29436Y-25961D01*
X29435Y-25961D01*
X29428Y-25946D01*
X29420Y-25932D01*
X29420Y-25931D01*
X29419Y-25930D01*
X29409Y-25917D01*
X29399Y-25904D01*
X29397Y-25903D01*
X29397Y-25903D01*
X29397Y-25903D01*
X29397Y-25903D01*
X28643Y-25149D01*
X28643Y-24409D01*
X28643Y-24006D01*
X28643Y-23986D01*
X28643Y-23583D01*
X28573Y-23553D01*
X28488Y-23577D01*
X28410Y-23618D01*
X28399Y-23626D01*
X28399Y-23006D01*
X28399Y-22977D01*
X28394Y-22949D01*
X28382Y-22922D01*
X28366Y-22898D01*
X28208Y-22740D01*
X28156Y-22740D01*
X28142Y-22754D01*
X28142Y-22726D01*
X28142Y-22674D01*
X27984Y-22516D01*
X27960Y-22500D01*
X27933Y-22489D01*
X27905Y-22483D01*
X27876Y-22483D01*
X27869Y-22484D01*
X27870Y-22478D01*
X27870Y-22448D01*
X27865Y-22420D01*
X27854Y-22393D01*
X27837Y-22369D01*
X27817Y-22348D01*
X27456Y-21987D01*
X27431Y-21971D01*
X27404Y-21960D01*
X27376Y-21954D01*
X27347Y-21954D01*
X27318Y-21960D01*
X27291Y-21971D01*
X27267Y-21987D01*
X27247Y-22008D01*
X26830Y-22425D01*
X26813Y-22449D01*
X26802Y-22476D01*
X26797Y-22504D01*
X26797Y-22533D01*
X26802Y-22562D01*
X26813Y-22589D01*
X26830Y-22613D01*
X26850Y-22634D01*
X27211Y-22995D01*
X27236Y-23011D01*
X27262Y-23022D01*
X27291Y-23028D01*
X27320Y-23028D01*
X27327Y-23027D01*
X27325Y-23033D01*
X27325Y-23062D01*
X27331Y-23091D01*
X27342Y-23118D01*
X27358Y-23142D01*
X27516Y-23300D01*
X27569Y-23300D01*
X27848Y-23020D01*
X27843Y-23014D01*
X27857Y-23000D01*
X27862Y-23006D01*
X28142Y-22726D01*
X28142Y-22754D01*
X27876Y-23020D01*
X28128Y-23272D01*
X28181Y-23272D01*
X28346Y-23107D01*
X28366Y-23086D01*
X28382Y-23062D01*
X28394Y-23035D01*
X28399Y-23006D01*
X28399Y-23626D01*
X28341Y-23672D01*
X28283Y-23740D01*
X28241Y-23817D01*
X28213Y-23901D01*
X28210Y-23916D01*
X28240Y-23986D01*
X28643Y-23986D01*
X28643Y-24006D01*
X28240Y-24006D01*
X28210Y-24076D01*
X28235Y-24161D01*
X28275Y-24239D01*
X28330Y-24308D01*
X28397Y-24366D01*
X28474Y-24408D01*
X28558Y-24436D01*
X28573Y-24439D01*
X28643Y-24409D01*
X28643Y-25149D01*
X28377Y-24883D01*
X28392Y-24851D01*
X28412Y-24762D01*
X28413Y-24657D01*
X28395Y-24567D01*
X28361Y-24483D01*
X28310Y-24406D01*
X28245Y-24341D01*
X28169Y-24290D01*
X28114Y-24267D01*
X28114Y-23338D01*
X28114Y-23286D01*
X27862Y-23034D01*
X27582Y-23314D01*
X27582Y-23366D01*
X27740Y-23524D01*
X27765Y-23540D01*
X27791Y-23551D01*
X27820Y-23557D01*
X27849Y-23557D01*
X27878Y-23551D01*
X27904Y-23540D01*
X27929Y-23524D01*
X27949Y-23503D01*
X28114Y-23338D01*
X28114Y-24267D01*
X28085Y-24254D01*
X27995Y-24236D01*
X27903Y-24235D01*
X27813Y-24253D01*
X27728Y-24287D01*
X27652Y-24337D01*
X27586Y-24401D01*
X27534Y-24477D01*
X27498Y-24561D01*
X27479Y-24651D01*
X27478Y-24742D01*
X27495Y-24832D01*
X27528Y-24918D01*
X27578Y-24995D01*
X27642Y-25061D01*
X27717Y-25113D01*
X27801Y-25150D01*
X27890Y-25169D01*
X27982Y-25171D01*
X28072Y-25155D01*
X28126Y-25134D01*
X29094Y-26102D01*
X29094Y-27014D01*
X27695Y-25615D01*
X27793Y-25517D01*
X27811Y-25489D01*
X27824Y-25459D01*
X27830Y-25427D01*
X27830Y-25394D01*
X27824Y-25361D01*
X27811Y-25331D01*
X27793Y-25303D01*
X27770Y-25280D01*
X27346Y-24856D01*
X27318Y-24838D01*
X27288Y-24825D01*
X27255Y-24819D01*
X27241Y-24819D01*
X27241Y-24579D01*
X27230Y-24527D01*
X27210Y-24477D01*
X27180Y-24433D01*
X27143Y-24395D01*
X27098Y-24365D01*
X27049Y-24344D01*
X26997Y-24333D01*
X26943Y-24333D01*
X26891Y-24343D01*
X26841Y-24363D01*
X26796Y-24392D01*
X26760Y-24428D01*
X26496Y-24428D01*
X26479Y-24430D01*
X26463Y-24431D01*
X26462Y-24431D01*
X26461Y-24432D01*
X26445Y-24436D01*
X26430Y-24441D01*
X26429Y-24441D01*
X26428Y-24442D01*
X26413Y-24449D01*
X26399Y-24457D01*
X26398Y-24457D01*
X26397Y-24458D01*
X26385Y-24468D01*
X26372Y-24478D01*
X26370Y-24480D01*
X26370Y-24480D01*
X26370Y-24480D01*
X26370Y-24480D01*
X26182Y-24668D01*
X26136Y-24668D01*
X26084Y-24678D01*
X26034Y-24698D01*
X25989Y-24727D01*
X25951Y-24764D01*
X25921Y-24808D01*
X25900Y-24858D01*
X25889Y-24910D01*
X25888Y-24963D01*
X25898Y-25016D01*
X25917Y-25066D01*
X25946Y-25111D01*
X25983Y-25149D01*
X26027Y-25180D01*
X26076Y-25201D01*
X26128Y-25212D01*
X26182Y-25214D01*
X26235Y-25204D01*
X26284Y-25185D01*
X26330Y-25156D01*
X26368Y-25119D01*
X26399Y-25076D01*
X26421Y-25027D01*
X26433Y-24975D01*
X26433Y-24919D01*
X26569Y-24783D01*
X26761Y-24783D01*
X26790Y-24814D01*
X26834Y-24845D01*
X26883Y-24866D01*
X26936Y-24878D01*
X26989Y-24879D01*
X27042Y-24870D01*
X27092Y-24850D01*
X27137Y-24822D01*
X27175Y-24785D01*
X27206Y-24741D01*
X27228Y-24692D01*
X27240Y-24640D01*
X27241Y-24579D01*
X27241Y-24819D01*
X27222Y-24819D01*
X27190Y-24825D01*
X27160Y-24838D01*
X27132Y-24856D01*
X27109Y-24879D01*
X26685Y-25303D01*
X26666Y-25331D01*
X26654Y-25361D01*
X26647Y-25394D01*
X26647Y-25427D01*
X26654Y-25459D01*
X26666Y-25489D01*
X26685Y-25517D01*
X26708Y-25540D01*
X27132Y-25964D01*
X27160Y-25983D01*
X27190Y-25995D01*
X27222Y-26002D01*
X27255Y-26002D01*
X27288Y-25995D01*
X27318Y-25983D01*
X27346Y-25964D01*
X27369Y-25941D01*
X27444Y-25866D01*
X28956Y-27378D01*
X28956Y-28444D01*
X28957Y-28461D01*
X28959Y-28477D01*
X28959Y-28478D01*
X28959Y-28479D01*
X28964Y-28495D01*
X28968Y-28510D01*
X28969Y-28511D01*
X28969Y-28512D01*
X28977Y-28527D01*
X28984Y-28541D01*
X28985Y-28542D01*
X28985Y-28543D01*
X28996Y-28555D01*
X29006Y-28568D01*
X29007Y-28570D01*
X29007Y-28570D01*
X29007Y-28570D01*
X29008Y-28570D01*
X29657Y-29220D01*
X29670Y-29230D01*
X29683Y-29241D01*
X29683Y-29241D01*
X29684Y-29242D01*
X29699Y-29249D01*
X29713Y-29257D01*
X29714Y-29258D01*
X29715Y-29258D01*
X29730Y-29263D01*
X29746Y-29268D01*
X29747Y-29268D01*
X29748Y-29268D01*
X29764Y-29270D01*
X29780Y-29272D01*
X29782Y-29272D01*
X29782Y-29272D01*
X29782Y-29272D01*
X29783Y-29272D01*
X30576Y-29272D01*
X31121Y-29817D01*
X31121Y-30905D01*
X31123Y-30921D01*
X31124Y-30938D01*
X31124Y-30939D01*
X31124Y-30940D01*
X31129Y-30955D01*
X31134Y-30971D01*
X31134Y-30972D01*
X31134Y-30973D01*
X31142Y-30987D01*
X31150Y-31002D01*
X31150Y-31002D01*
X31151Y-31003D01*
X31161Y-31016D01*
X31171Y-31029D01*
X31173Y-31030D01*
X31173Y-31030D01*
X31173Y-31030D01*
X31173Y-31031D01*
X31298Y-31156D01*
X31311Y-31188D01*
X31340Y-31233D01*
X31377Y-31271D01*
X31421Y-31302D01*
X31470Y-31323D01*
X31522Y-31335D01*
X31576Y-31336D01*
X31628Y-31326D01*
X31678Y-31307D01*
X31723Y-31278D01*
X31762Y-31242D01*
X31793Y-31198D01*
X31815Y-31149D01*
X31826Y-31097D01*
X31827Y-31036D01*
X31827Y-31936D01*
X31320Y-32444D01*
X31274Y-32443D01*
X31221Y-32453D01*
X31172Y-32473D01*
X31127Y-32503D01*
X31089Y-32540D01*
X31059Y-32584D01*
X31038Y-32633D01*
X31026Y-32685D01*
X31026Y-32739D01*
X31035Y-32792D01*
X31055Y-32841D01*
X31084Y-32886D01*
X31121Y-32925D01*
X31165Y-32955D01*
X31214Y-32977D01*
X31266Y-32988D01*
X31320Y-32989D01*
X31372Y-32980D01*
X31422Y-32961D01*
X31467Y-32932D01*
X31506Y-32895D01*
X31537Y-32851D01*
X31559Y-32803D01*
X31571Y-32750D01*
X31571Y-32695D01*
X32245Y-32021D01*
X32278Y-32015D01*
X32328Y-31996D01*
X32373Y-31967D01*
X32412Y-31930D01*
X32442Y-31887D01*
X32464Y-31838D01*
X32476Y-31786D01*
X32477Y-31725D01*
X32477Y-34340D01*
X32475Y-34340D01*
X32446Y-34340D01*
X32417Y-34346D01*
X32390Y-34357D01*
X32366Y-34373D01*
X32346Y-34394D01*
X32330Y-34418D01*
X32318Y-34445D01*
X32313Y-34474D01*
X32313Y-34697D01*
X32350Y-34734D01*
X32746Y-34734D01*
X32746Y-34753D01*
X32350Y-34753D01*
X32313Y-34790D01*
X32313Y-35014D01*
X32318Y-35042D01*
X32330Y-35069D01*
X32346Y-35093D01*
X32366Y-35114D01*
X32372Y-35118D01*
X32366Y-35121D01*
X32346Y-35142D01*
X32330Y-35166D01*
X32318Y-35193D01*
X32313Y-35222D01*
X32313Y-35251D01*
X32313Y-35762D01*
X32318Y-35790D01*
X32330Y-35817D01*
X32346Y-35841D01*
X32366Y-35862D01*
X32390Y-35878D01*
X32417Y-35889D01*
X32446Y-35895D01*
X32475Y-35895D01*
X33065Y-35895D01*
X33093Y-35889D01*
X33120Y-35878D01*
X33145Y-35862D01*
X33165Y-35841D01*
X33181Y-35817D01*
X33192Y-35790D01*
X33198Y-35762D01*
X33198Y-36170D01*
X32799Y-36212D01*
X32758Y-36212D01*
X31392Y-36078D01*
X31024Y-36004D01*
X31024Y-30454D01*
X30987Y-30267D01*
X30914Y-30090D01*
X30808Y-29931D01*
X30674Y-29795D01*
X30515Y-29688D01*
X30339Y-29614D01*
X30152Y-29576D01*
X29961Y-29574D01*
X29773Y-29610D01*
X29596Y-29682D01*
X29436Y-29786D01*
X29299Y-29920D01*
X29191Y-30078D01*
X29116Y-30253D01*
X29076Y-30440D01*
X29074Y-30631D01*
X29108Y-30819D01*
X29179Y-30997D01*
X29282Y-31158D01*
X29415Y-31295D01*
X29572Y-31404D01*
X29747Y-31481D01*
X29934Y-31522D01*
X30125Y-31526D01*
X30313Y-31493D01*
X30491Y-31423D01*
X30652Y-31321D01*
X30791Y-31189D01*
X30901Y-31033D01*
X30979Y-30859D01*
X31021Y-30672D01*
X31024Y-30454D01*
X31024Y-36004D01*
X30858Y-35971D01*
X29563Y-35580D01*
X28478Y-35003D01*
X28478Y-32809D01*
X28478Y-32780D01*
X28472Y-32751D01*
X28461Y-32725D01*
X28445Y-32700D01*
X28424Y-32680D01*
X28259Y-32515D01*
X28207Y-32515D01*
X28193Y-32528D01*
X28193Y-32501D01*
X28193Y-32448D01*
X28028Y-32283D01*
X28007Y-32263D01*
X27983Y-32246D01*
X27956Y-32235D01*
X27928Y-32230D01*
X27899Y-32230D01*
X27870Y-32235D01*
X27843Y-32246D01*
X27819Y-32263D01*
X27661Y-32420D01*
X27661Y-32473D01*
X27941Y-32753D01*
X28193Y-32501D01*
X28193Y-32528D01*
X27955Y-32767D01*
X28235Y-33046D01*
X28287Y-33046D01*
X28445Y-32889D01*
X28461Y-32864D01*
X28472Y-32838D01*
X28478Y-32809D01*
X28478Y-35003D01*
X28381Y-34951D01*
X28221Y-34846D01*
X28221Y-33113D01*
X28221Y-33060D01*
X27941Y-32780D01*
X27936Y-32786D01*
X27922Y-32772D01*
X27927Y-32767D01*
X27647Y-32487D01*
X27595Y-32487D01*
X27437Y-32644D01*
X27421Y-32669D01*
X27410Y-32696D01*
X27404Y-32724D01*
X27404Y-32753D01*
X27406Y-32760D01*
X27399Y-32759D01*
X27370Y-32759D01*
X27341Y-32764D01*
X27314Y-32775D01*
X27290Y-32792D01*
X27270Y-32812D01*
X26908Y-33173D01*
X26892Y-33198D01*
X26881Y-33224D01*
X26875Y-33253D01*
X26875Y-33282D01*
X26881Y-33311D01*
X26892Y-33337D01*
X26908Y-33362D01*
X26929Y-33382D01*
X27346Y-33799D01*
X27370Y-33816D01*
X27397Y-33827D01*
X27426Y-33832D01*
X27455Y-33832D01*
X27483Y-33827D01*
X27510Y-33816D01*
X27534Y-33799D01*
X27555Y-33779D01*
X27916Y-33417D01*
X27932Y-33393D01*
X27943Y-33366D01*
X27949Y-33338D01*
X27949Y-33309D01*
X27948Y-33302D01*
X27955Y-33303D01*
X27984Y-33303D01*
X28012Y-33298D01*
X28039Y-33287D01*
X28063Y-33270D01*
X28221Y-33113D01*
X28221Y-34846D01*
X27907Y-34638D01*
X26858Y-33783D01*
X26650Y-33532D01*
X26650Y-29618D01*
X26640Y-29566D01*
X26619Y-29517D01*
X26590Y-29472D01*
X26552Y-29434D01*
X26508Y-29404D01*
X26458Y-29383D01*
X26406Y-29373D01*
X26353Y-29372D01*
X26300Y-29382D01*
X26251Y-29402D01*
X26249Y-29403D01*
X26249Y-28183D01*
X26249Y-28154D01*
X26249Y-27920D01*
X26249Y-27827D01*
X26249Y-27593D01*
X26249Y-27564D01*
X26243Y-27535D01*
X26232Y-27509D01*
X26216Y-27484D01*
X26196Y-27464D01*
X26171Y-27448D01*
X26145Y-27437D01*
X26116Y-27431D01*
X25893Y-27431D01*
X25856Y-27468D01*
X25856Y-27864D01*
X26212Y-27864D01*
X26249Y-27827D01*
X26249Y-27920D01*
X26212Y-27883D01*
X25856Y-27883D01*
X25856Y-28279D01*
X25893Y-28316D01*
X26116Y-28316D01*
X26145Y-28310D01*
X26171Y-28299D01*
X26196Y-28283D01*
X26216Y-28263D01*
X26232Y-28238D01*
X26243Y-28212D01*
X26249Y-28183D01*
X26249Y-29403D01*
X26206Y-29432D01*
X26168Y-29469D01*
X26137Y-29513D01*
X26116Y-29562D01*
X26105Y-29615D01*
X26104Y-29667D01*
X25898Y-29874D01*
X25887Y-29887D01*
X25877Y-29899D01*
X25876Y-29900D01*
X25876Y-29901D01*
X25868Y-29915D01*
X25860Y-29930D01*
X25860Y-29930D01*
X25859Y-29931D01*
X25854Y-29947D01*
X25849Y-29963D01*
X25849Y-29963D01*
X25849Y-29964D01*
X25847Y-29981D01*
X25846Y-29997D01*
X25845Y-29999D01*
X25845Y-29999D01*
X25845Y-29999D01*
X25845Y-30000D01*
X25845Y-30146D01*
X25836Y-30155D01*
X25836Y-28279D01*
X25836Y-27883D01*
X25828Y-27883D01*
X25828Y-27864D01*
X25836Y-27864D01*
X25836Y-27468D01*
X25804Y-27435D01*
X25804Y-25544D01*
X25793Y-25491D01*
X25773Y-25442D01*
X25743Y-25397D01*
X25706Y-25359D01*
X25661Y-25329D01*
X25612Y-25309D01*
X25560Y-25298D01*
X25506Y-25298D01*
X25454Y-25308D01*
X25404Y-25328D01*
X25359Y-25357D01*
X25321Y-25394D01*
X25291Y-25438D01*
X25270Y-25488D01*
X25259Y-25540D01*
X25258Y-25592D01*
X24981Y-25869D01*
X24935Y-25868D01*
X24883Y-25878D01*
X24833Y-25898D01*
X24788Y-25928D01*
X24750Y-25965D01*
X24720Y-26009D01*
X24699Y-26058D01*
X24688Y-26111D01*
X24687Y-26164D01*
X24697Y-26217D01*
X24716Y-26266D01*
X24745Y-26311D01*
X24783Y-26350D01*
X24826Y-26380D01*
X24875Y-26402D01*
X24928Y-26413D01*
X24981Y-26414D01*
X25034Y-26405D01*
X25084Y-26386D01*
X25129Y-26357D01*
X25168Y-26320D01*
X25198Y-26277D01*
X25220Y-26228D01*
X25232Y-26176D01*
X25233Y-26120D01*
X25510Y-25843D01*
X25552Y-25844D01*
X25605Y-25834D01*
X25655Y-25815D01*
X25700Y-25786D01*
X25738Y-25749D01*
X25769Y-25706D01*
X25791Y-25657D01*
X25803Y-25605D01*
X25804Y-25544D01*
X25804Y-27435D01*
X25799Y-27431D01*
X25576Y-27431D01*
X25547Y-27437D01*
X25521Y-27448D01*
X25496Y-27464D01*
X25476Y-27484D01*
X25472Y-27490D01*
X25468Y-27484D01*
X25448Y-27464D01*
X25423Y-27448D01*
X25397Y-27437D01*
X25368Y-27431D01*
X25339Y-27431D01*
X24828Y-27431D01*
X24799Y-27437D01*
X24773Y-27448D01*
X24748Y-27464D01*
X24728Y-27484D01*
X24712Y-27509D01*
X24700Y-27535D01*
X24695Y-27564D01*
X24695Y-27593D01*
X24695Y-28183D01*
X24700Y-28212D01*
X24712Y-28238D01*
X24728Y-28263D01*
X24748Y-28283D01*
X24773Y-28299D01*
X24799Y-28310D01*
X24828Y-28316D01*
X24857Y-28316D01*
X25368Y-28316D01*
X25397Y-28310D01*
X25423Y-28299D01*
X25448Y-28283D01*
X25468Y-28263D01*
X25472Y-28257D01*
X25476Y-28263D01*
X25496Y-28283D01*
X25521Y-28299D01*
X25547Y-28310D01*
X25576Y-28316D01*
X25799Y-28316D01*
X25836Y-28279D01*
X25836Y-30155D01*
X25813Y-30178D01*
X25783Y-30222D01*
X25762Y-30271D01*
X25751Y-30323D01*
X25750Y-30377D01*
X25760Y-30429D01*
X25779Y-30479D01*
X25808Y-30524D01*
X25846Y-30562D01*
X25889Y-30593D01*
X25938Y-30614D01*
X25991Y-30626D01*
X26044Y-30627D01*
X26097Y-30618D01*
X26147Y-30598D01*
X26192Y-30570D01*
X26231Y-30533D01*
X26261Y-30489D01*
X26283Y-30440D01*
X26295Y-30388D01*
X26296Y-30327D01*
X26285Y-30275D01*
X26265Y-30225D01*
X26235Y-30181D01*
X26201Y-30146D01*
X26201Y-30073D01*
X26356Y-29917D01*
X26398Y-29918D01*
X26451Y-29909D01*
X26501Y-29890D01*
X26546Y-29861D01*
X26585Y-29824D01*
X26616Y-29780D01*
X26637Y-29732D01*
X26649Y-29680D01*
X26650Y-29618D01*
X26650Y-33532D01*
X26296Y-33103D01*
X26296Y-32099D01*
X26285Y-32046D01*
X26265Y-31997D01*
X26235Y-31952D01*
X26201Y-31917D01*
X26201Y-31388D01*
X26231Y-31360D01*
X26261Y-31316D01*
X26283Y-31267D01*
X26295Y-31215D01*
X26296Y-31154D01*
X26285Y-31101D01*
X26265Y-31052D01*
X26235Y-31007D01*
X26198Y-30970D01*
X26153Y-30940D01*
X26104Y-30919D01*
X26052Y-30908D01*
X25998Y-30908D01*
X25946Y-30918D01*
X25896Y-30938D01*
X25851Y-30967D01*
X25813Y-31005D01*
X25783Y-31049D01*
X25762Y-31098D01*
X25751Y-31150D01*
X25750Y-31204D01*
X25760Y-31256D01*
X25779Y-31306D01*
X25808Y-31351D01*
X25845Y-31389D01*
X25845Y-31918D01*
X25813Y-31949D01*
X25783Y-31994D01*
X25762Y-32043D01*
X25751Y-32095D01*
X25750Y-32148D01*
X25760Y-32201D01*
X25779Y-32251D01*
X25808Y-32296D01*
X25846Y-32334D01*
X25889Y-32365D01*
X25938Y-32386D01*
X25991Y-32398D01*
X26044Y-32399D01*
X26097Y-32389D01*
X26147Y-32370D01*
X26192Y-32341D01*
X26231Y-32304D01*
X26261Y-32261D01*
X26283Y-32212D01*
X26295Y-32160D01*
X26296Y-32099D01*
X26296Y-33103D01*
X25981Y-32723D01*
X25669Y-32251D01*
X25041Y-31090D01*
X24635Y-29778D01*
X24529Y-29245D01*
X24387Y-27899D01*
X24387Y-27858D01*
X24521Y-26492D01*
X24628Y-25958D01*
X25019Y-24663D01*
X25648Y-23481D01*
X25961Y-23007D01*
X26816Y-21958D01*
X27876Y-21081D01*
X28348Y-20769D01*
X29509Y-20141D01*
X30821Y-19735D01*
X31354Y-19629D01*
X32700Y-19487D01*
X32741Y-19487D01*
X34148Y-19625D01*
X34586Y-19711D01*
X35936Y-20119D01*
X37259Y-20823D01*
X37493Y-20980D01*
X38641Y-21916D01*
X39518Y-22976D01*
X39830Y-23448D01*
X40458Y-24609D01*
X40864Y-25921D01*
X40970Y-26454D01*
X41112Y-27800D01*
X41112Y-27841D01*
X41112Y-27841D01*
G37*
G54D22*
X41112Y-27841D02*
X40952Y-29474D01*
X40823Y-29899D01*
X40823Y-29461D01*
X40813Y-29409D01*
X40793Y-29359D01*
X40777Y-29335D01*
X40777Y-28183D01*
X40777Y-28154D01*
X40777Y-27564D01*
X40771Y-27535D01*
X40760Y-27509D01*
X40744Y-27484D01*
X40723Y-27464D01*
X40699Y-27448D01*
X40672Y-27437D01*
X40644Y-27431D01*
X40614Y-27431D01*
X40103Y-27431D01*
X40075Y-27437D01*
X40048Y-27448D01*
X40024Y-27464D01*
X40003Y-27484D01*
X40000Y-27490D01*
X39996Y-27484D01*
X39975Y-27464D01*
X39951Y-27448D01*
X39924Y-27437D01*
X39896Y-27431D01*
X39672Y-27431D01*
X39642Y-27461D01*
X39642Y-24992D01*
X39642Y-23359D01*
X39632Y-23306D01*
X39611Y-23257D01*
X39582Y-23212D01*
X39544Y-23174D01*
X39500Y-23144D01*
X39451Y-23124D01*
X39398Y-23113D01*
X39345Y-23112D01*
X39292Y-23123D01*
X39243Y-23143D01*
X39198Y-23172D01*
X39160Y-23209D01*
X39130Y-23253D01*
X39108Y-23302D01*
X39097Y-23355D01*
X39097Y-23408D01*
X39106Y-23461D01*
X39126Y-23511D01*
X39155Y-23555D01*
X39192Y-23594D01*
X39192Y-23970D01*
X39178Y-23979D01*
X39140Y-24016D01*
X39110Y-24060D01*
X39089Y-24110D01*
X39078Y-24162D01*
X39077Y-24215D01*
X39087Y-24268D01*
X39106Y-24318D01*
X39135Y-24363D01*
X39172Y-24401D01*
X39216Y-24432D01*
X39265Y-24453D01*
X39317Y-24464D01*
X39371Y-24466D01*
X39424Y-24456D01*
X39473Y-24437D01*
X39519Y-24408D01*
X39557Y-24371D01*
X39588Y-24328D01*
X39610Y-24279D01*
X39622Y-24227D01*
X39623Y-24166D01*
X39612Y-24113D01*
X39592Y-24064D01*
X39562Y-24019D01*
X39547Y-24004D01*
X39547Y-23593D01*
X39577Y-23564D01*
X39608Y-23521D01*
X39630Y-23472D01*
X39641Y-23420D01*
X39642Y-23359D01*
X39642Y-24992D01*
X39632Y-24940D01*
X39611Y-24891D01*
X39582Y-24846D01*
X39544Y-24808D01*
X39500Y-24778D01*
X39451Y-24757D01*
X39398Y-24747D01*
X39345Y-24746D01*
X39292Y-24756D01*
X39243Y-24776D01*
X39198Y-24806D01*
X39160Y-24843D01*
X39130Y-24887D01*
X39108Y-24936D01*
X39097Y-24989D01*
X39097Y-25042D01*
X39106Y-25095D01*
X39126Y-25144D01*
X39155Y-25189D01*
X39179Y-25214D01*
X38968Y-25425D01*
X38958Y-25438D01*
X38947Y-25450D01*
X38947Y-25451D01*
X38946Y-25452D01*
X38939Y-25466D01*
X38931Y-25481D01*
X38930Y-25482D01*
X38930Y-25482D01*
X38925Y-25498D01*
X38920Y-25514D01*
X38920Y-25515D01*
X38920Y-25516D01*
X38918Y-25532D01*
X38916Y-25548D01*
X38916Y-25550D01*
X38916Y-25550D01*
X38916Y-25550D01*
X38916Y-25551D01*
X38916Y-25855D01*
X38884Y-25886D01*
X38854Y-25931D01*
X38833Y-25980D01*
X38822Y-26032D01*
X38821Y-26085D01*
X38831Y-26138D01*
X38850Y-26188D01*
X38879Y-26233D01*
X38916Y-26271D01*
X38960Y-26302D01*
X39009Y-26323D01*
X39062Y-26335D01*
X39115Y-26336D01*
X39168Y-26326D01*
X39218Y-26307D01*
X39263Y-26278D01*
X39301Y-26242D01*
X39332Y-26198D01*
X39354Y-26149D01*
X39366Y-26097D01*
X39367Y-26036D01*
X39356Y-25983D01*
X39336Y-25934D01*
X39306Y-25889D01*
X39272Y-25854D01*
X39272Y-25624D01*
X39495Y-25401D01*
X39506Y-25388D01*
X39516Y-25375D01*
X39517Y-25375D01*
X39517Y-25374D01*
X39525Y-25359D01*
X39533Y-25345D01*
X39533Y-25344D01*
X39534Y-25343D01*
X39538Y-25328D01*
X39543Y-25312D01*
X39543Y-25311D01*
X39544Y-25310D01*
X39545Y-25294D01*
X39547Y-25278D01*
X39547Y-25276D01*
X39547Y-25276D01*
X39547Y-25276D01*
X39547Y-25275D01*
X39547Y-25227D01*
X39577Y-25198D01*
X39608Y-25155D01*
X39630Y-25106D01*
X39641Y-25054D01*
X39642Y-24992D01*
X39642Y-27461D01*
X39635Y-27468D01*
X39635Y-27864D01*
X39643Y-27864D01*
X39643Y-27883D01*
X39635Y-27883D01*
X39635Y-28279D01*
X39672Y-28316D01*
X39896Y-28316D01*
X39924Y-28310D01*
X39951Y-28299D01*
X39975Y-28283D01*
X39996Y-28263D01*
X39999Y-28257D01*
X40003Y-28263D01*
X40024Y-28283D01*
X40048Y-28299D01*
X40075Y-28310D01*
X40103Y-28316D01*
X40133Y-28316D01*
X40644Y-28316D01*
X40672Y-28310D01*
X40699Y-28299D01*
X40723Y-28283D01*
X40744Y-28263D01*
X40760Y-28238D01*
X40771Y-28212D01*
X40777Y-28183D01*
X40777Y-29335D01*
X40763Y-29315D01*
X40725Y-29277D01*
X40681Y-29247D01*
X40632Y-29226D01*
X40579Y-29215D01*
X40526Y-29215D01*
X40473Y-29225D01*
X40424Y-29245D01*
X40379Y-29274D01*
X40342Y-29310D01*
X40148Y-29310D01*
X40115Y-29277D01*
X40071Y-29247D01*
X40021Y-29226D01*
X39969Y-29215D01*
X39916Y-29215D01*
X39863Y-29225D01*
X39814Y-29245D01*
X39769Y-29274D01*
X39731Y-29312D01*
X39700Y-29356D01*
X39679Y-29405D01*
X39668Y-29457D01*
X39667Y-29511D01*
X39677Y-29563D01*
X39697Y-29613D01*
X39726Y-29658D01*
X39763Y-29696D01*
X39807Y-29727D01*
X39856Y-29748D01*
X39908Y-29760D01*
X39961Y-29761D01*
X40014Y-29752D01*
X40064Y-29732D01*
X40109Y-29704D01*
X40148Y-29667D01*
X40149Y-29665D01*
X40343Y-29665D01*
X40373Y-29696D01*
X40417Y-29727D01*
X40466Y-29748D01*
X40518Y-29760D01*
X40572Y-29761D01*
X40624Y-29752D01*
X40674Y-29732D01*
X40719Y-29704D01*
X40758Y-29667D01*
X40789Y-29623D01*
X40811Y-29574D01*
X40822Y-29522D01*
X40823Y-29461D01*
X40823Y-29899D01*
X40480Y-31036D01*
X39851Y-32218D01*
X39616Y-32575D01*
X39616Y-28279D01*
X39616Y-27883D01*
X39616Y-27864D01*
X39616Y-27468D01*
X39579Y-27431D01*
X39355Y-27431D01*
X39327Y-27437D01*
X39300Y-27448D01*
X39276Y-27464D01*
X39255Y-27484D01*
X39239Y-27509D01*
X39228Y-27535D01*
X39222Y-27564D01*
X39222Y-27593D01*
X39222Y-27827D01*
X39259Y-27864D01*
X39616Y-27864D01*
X39616Y-27883D01*
X39259Y-27883D01*
X39222Y-27920D01*
X39222Y-28154D01*
X39222Y-28183D01*
X39228Y-28212D01*
X39239Y-28238D01*
X39255Y-28263D01*
X39276Y-28283D01*
X39300Y-28299D01*
X39327Y-28310D01*
X39355Y-28316D01*
X39579Y-28316D01*
X39616Y-28279D01*
X39616Y-32575D01*
X39538Y-32692D01*
X39386Y-32878D01*
X39386Y-30268D01*
X39376Y-30216D01*
X39356Y-30166D01*
X39326Y-30122D01*
X39288Y-30084D01*
X39244Y-30054D01*
X39195Y-30033D01*
X39142Y-30022D01*
X39089Y-30022D01*
X39036Y-30032D01*
X38987Y-30052D01*
X38942Y-30081D01*
X38904Y-30119D01*
X38874Y-30163D01*
X38853Y-30212D01*
X38841Y-30264D01*
X38841Y-30317D01*
X38802Y-30355D01*
X38802Y-25427D01*
X38802Y-25394D01*
X38795Y-25361D01*
X38783Y-25331D01*
X38764Y-25303D01*
X38741Y-25280D01*
X38675Y-25214D01*
X38675Y-22494D01*
X38675Y-22465D01*
X38669Y-22436D01*
X38658Y-22410D01*
X38642Y-22385D01*
X38621Y-22365D01*
X38204Y-21948D01*
X38180Y-21931D01*
X38153Y-21920D01*
X38125Y-21915D01*
X38096Y-21915D01*
X38067Y-21920D01*
X38040Y-21931D01*
X38016Y-21948D01*
X37995Y-21968D01*
X37634Y-22330D01*
X37618Y-22354D01*
X37607Y-22381D01*
X37601Y-22409D01*
X37601Y-22438D01*
X37602Y-22445D01*
X37596Y-22444D01*
X37567Y-22444D01*
X37538Y-22449D01*
X37511Y-22460D01*
X37487Y-22477D01*
X37329Y-22634D01*
X37329Y-22687D01*
X37609Y-22967D01*
X37615Y-22961D01*
X37629Y-22975D01*
X37623Y-22980D01*
X37903Y-23260D01*
X37955Y-23260D01*
X38113Y-23103D01*
X38129Y-23078D01*
X38140Y-23051D01*
X38146Y-23023D01*
X38146Y-22994D01*
X38145Y-22987D01*
X38151Y-22988D01*
X38180Y-22988D01*
X38209Y-22983D01*
X38236Y-22972D01*
X38260Y-22956D01*
X38281Y-22935D01*
X38642Y-22574D01*
X38658Y-22549D01*
X38669Y-22523D01*
X38675Y-22494D01*
X38675Y-25214D01*
X38317Y-24856D01*
X38289Y-24838D01*
X38259Y-24825D01*
X38227Y-24819D01*
X38194Y-24819D01*
X38161Y-24825D01*
X38131Y-24838D01*
X38103Y-24856D01*
X38080Y-24879D01*
X37970Y-24989D01*
X37970Y-24657D01*
X37953Y-24567D01*
X37918Y-24483D01*
X37889Y-24439D01*
X37889Y-23327D01*
X37889Y-23274D01*
X37609Y-22994D01*
X37595Y-23008D01*
X37595Y-22980D01*
X37315Y-22701D01*
X37263Y-22701D01*
X37105Y-22858D01*
X37089Y-22883D01*
X37078Y-22909D01*
X37072Y-22938D01*
X37072Y-22967D01*
X37078Y-22996D01*
X37089Y-23022D01*
X37105Y-23047D01*
X37126Y-23067D01*
X37291Y-23232D01*
X37343Y-23232D01*
X37595Y-22980D01*
X37595Y-23008D01*
X37357Y-23246D01*
X37357Y-23299D01*
X37522Y-23464D01*
X37543Y-23484D01*
X37567Y-23501D01*
X37594Y-23512D01*
X37622Y-23517D01*
X37652Y-23517D01*
X37680Y-23512D01*
X37707Y-23501D01*
X37731Y-23484D01*
X37889Y-23327D01*
X37889Y-24439D01*
X37867Y-24406D01*
X37802Y-24341D01*
X37726Y-24290D01*
X37642Y-24254D01*
X37552Y-24236D01*
X37460Y-24235D01*
X37370Y-24253D01*
X37285Y-24287D01*
X37263Y-24301D01*
X37263Y-23950D01*
X37245Y-23860D01*
X37211Y-23775D01*
X37160Y-23699D01*
X37095Y-23634D01*
X37019Y-23583D01*
X36935Y-23547D01*
X36845Y-23529D01*
X36753Y-23528D01*
X36663Y-23545D01*
X36578Y-23580D01*
X36556Y-23594D01*
X36556Y-23243D01*
X36538Y-23153D01*
X36503Y-23068D01*
X36453Y-22992D01*
X36388Y-22927D01*
X36312Y-22876D01*
X36228Y-22840D01*
X36138Y-22822D01*
X36046Y-22821D01*
X35956Y-22838D01*
X35871Y-22873D01*
X35795Y-22923D01*
X35729Y-22987D01*
X35677Y-23063D01*
X35641Y-23147D01*
X35622Y-23236D01*
X35621Y-23328D01*
X35637Y-23418D01*
X35671Y-23503D01*
X35721Y-23581D01*
X35784Y-23646D01*
X35860Y-23699D01*
X35944Y-23735D01*
X36033Y-23755D01*
X36125Y-23757D01*
X36215Y-23741D01*
X36301Y-23708D01*
X36378Y-23659D01*
X36444Y-23596D01*
X36497Y-23521D01*
X36534Y-23437D01*
X36555Y-23348D01*
X36556Y-23243D01*
X36556Y-23594D01*
X36502Y-23630D01*
X36436Y-23694D01*
X36384Y-23770D01*
X36348Y-23854D01*
X36329Y-23944D01*
X36328Y-24035D01*
X36345Y-24125D01*
X36378Y-24211D01*
X36428Y-24288D01*
X36492Y-24354D01*
X36567Y-24406D01*
X36651Y-24443D01*
X36740Y-24462D01*
X36832Y-24464D01*
X36922Y-24448D01*
X37008Y-24415D01*
X37085Y-24366D01*
X37151Y-24303D01*
X37204Y-24228D01*
X37242Y-24144D01*
X37262Y-24055D01*
X37263Y-23950D01*
X37263Y-24301D01*
X37209Y-24337D01*
X37143Y-24401D01*
X37092Y-24477D01*
X37055Y-24561D01*
X37036Y-24651D01*
X37035Y-24742D01*
X37052Y-24832D01*
X37085Y-24918D01*
X37135Y-24995D01*
X37199Y-25061D01*
X37274Y-25113D01*
X37358Y-25150D01*
X37447Y-25169D01*
X37539Y-25171D01*
X37629Y-25155D01*
X37715Y-25122D01*
X37792Y-25073D01*
X37859Y-25010D01*
X37911Y-24935D01*
X37949Y-24851D01*
X37969Y-24762D01*
X37970Y-24657D01*
X37970Y-24989D01*
X37656Y-25303D01*
X37638Y-25331D01*
X37625Y-25361D01*
X37619Y-25394D01*
X37619Y-25427D01*
X37625Y-25459D01*
X37638Y-25489D01*
X37656Y-25517D01*
X37679Y-25540D01*
X38103Y-25964D01*
X38131Y-25983D01*
X38161Y-25995D01*
X38194Y-26002D01*
X38227Y-26002D01*
X38259Y-25995D01*
X38289Y-25983D01*
X38317Y-25964D01*
X38340Y-25941D01*
X38764Y-25517D01*
X38783Y-25489D01*
X38795Y-25459D01*
X38802Y-25427D01*
X38802Y-30355D01*
X38407Y-30750D01*
X38400Y-30750D01*
X38347Y-30760D01*
X38298Y-30780D01*
X38253Y-30810D01*
X38215Y-30847D01*
X38185Y-30891D01*
X38164Y-30940D01*
X38152Y-30993D01*
X38152Y-31046D01*
X38161Y-31099D01*
X38181Y-31148D01*
X38210Y-31193D01*
X38247Y-31232D01*
X38291Y-31262D01*
X38340Y-31284D01*
X38392Y-31295D01*
X38446Y-31296D01*
X38498Y-31287D01*
X38548Y-31268D01*
X38593Y-31239D01*
X38632Y-31202D01*
X38663Y-31158D01*
X38685Y-31110D01*
X38696Y-31057D01*
X38697Y-30996D01*
X38692Y-30968D01*
X39093Y-30567D01*
X39135Y-30568D01*
X39187Y-30559D01*
X39237Y-30539D01*
X39282Y-30511D01*
X39321Y-30474D01*
X39352Y-30430D01*
X39374Y-30381D01*
X39385Y-30329D01*
X39386Y-30268D01*
X39386Y-32878D01*
X38714Y-33702D01*
X38714Y-33243D01*
X38714Y-33214D01*
X38709Y-33185D01*
X38697Y-33158D01*
X38681Y-33134D01*
X38661Y-33113D01*
X38299Y-32752D01*
X38275Y-32736D01*
X38248Y-32725D01*
X38220Y-32719D01*
X38191Y-32719D01*
X38184Y-32721D01*
X38185Y-32714D01*
X38185Y-32685D01*
X38180Y-32656D01*
X38169Y-32629D01*
X38152Y-32605D01*
X37994Y-32447D01*
X37942Y-32447D01*
X37928Y-32461D01*
X37928Y-32433D01*
X37928Y-32381D01*
X37770Y-32223D01*
X37746Y-32207D01*
X37719Y-32196D01*
X37691Y-32190D01*
X37662Y-32190D01*
X37633Y-32196D01*
X37606Y-32207D01*
X37582Y-32223D01*
X37562Y-32244D01*
X37396Y-32409D01*
X37396Y-32461D01*
X37648Y-32713D01*
X37928Y-32433D01*
X37928Y-32461D01*
X37662Y-32727D01*
X37668Y-32733D01*
X37654Y-32747D01*
X37648Y-32741D01*
X37635Y-32755D01*
X37635Y-32727D01*
X37383Y-32475D01*
X37330Y-32475D01*
X37165Y-32640D01*
X37144Y-32661D01*
X37128Y-32685D01*
X37117Y-32712D01*
X37112Y-32741D01*
X37112Y-32770D01*
X37117Y-32798D01*
X37128Y-32825D01*
X37144Y-32849D01*
X37302Y-33007D01*
X37355Y-33007D01*
X37635Y-32727D01*
X37635Y-32755D01*
X37368Y-33021D01*
X37368Y-33073D01*
X37526Y-33231D01*
X37551Y-33247D01*
X37577Y-33258D01*
X37606Y-33264D01*
X37635Y-33264D01*
X37642Y-33263D01*
X37640Y-33269D01*
X37640Y-33299D01*
X37646Y-33327D01*
X37657Y-33354D01*
X37673Y-33378D01*
X37694Y-33399D01*
X38055Y-33760D01*
X38079Y-33776D01*
X38106Y-33787D01*
X38135Y-33793D01*
X38164Y-33793D01*
X38192Y-33787D01*
X38219Y-33776D01*
X38244Y-33760D01*
X38264Y-33739D01*
X38681Y-33322D01*
X38697Y-33298D01*
X38709Y-33271D01*
X38714Y-33243D01*
X38714Y-33702D01*
X38683Y-33741D01*
X37623Y-34618D01*
X37319Y-34818D01*
X37319Y-34540D01*
X37309Y-34487D01*
X37289Y-34438D01*
X37259Y-34393D01*
X37221Y-34355D01*
X37177Y-34325D01*
X37128Y-34305D01*
X37075Y-34294D01*
X37022Y-34294D01*
X36969Y-34304D01*
X36920Y-34324D01*
X36875Y-34353D01*
X36838Y-34389D01*
X36507Y-34389D01*
X36473Y-34355D01*
X36429Y-34325D01*
X36424Y-34323D01*
X36424Y-30454D01*
X36424Y-25054D01*
X36387Y-24867D01*
X36314Y-24690D01*
X36208Y-24531D01*
X36074Y-24395D01*
X35915Y-24288D01*
X35739Y-24214D01*
X35552Y-24176D01*
X35361Y-24174D01*
X35173Y-24210D01*
X34996Y-24282D01*
X34836Y-24386D01*
X34699Y-24520D01*
X34591Y-24678D01*
X34516Y-24853D01*
X34476Y-25040D01*
X34474Y-25231D01*
X34508Y-25419D01*
X34579Y-25597D01*
X34682Y-25758D01*
X34815Y-25895D01*
X34972Y-26004D01*
X35147Y-26081D01*
X35334Y-26122D01*
X35525Y-26126D01*
X35713Y-26093D01*
X35891Y-26023D01*
X36052Y-25921D01*
X36191Y-25789D01*
X36301Y-25633D01*
X36379Y-25459D01*
X36421Y-25272D01*
X36424Y-25054D01*
X36424Y-30454D01*
X36387Y-30267D01*
X36314Y-30090D01*
X36208Y-29931D01*
X36074Y-29795D01*
X35915Y-29688D01*
X35739Y-29614D01*
X35552Y-29576D01*
X35361Y-29574D01*
X35173Y-29610D01*
X34996Y-29682D01*
X34878Y-29759D01*
X34880Y-29743D01*
X34882Y-29726D01*
X34882Y-29725D01*
X34882Y-29725D01*
X34882Y-29724D01*
X34882Y-29724D01*
X34882Y-28897D01*
X34880Y-28881D01*
X34879Y-28864D01*
X34879Y-28864D01*
X34878Y-28863D01*
X34874Y-28847D01*
X34869Y-28831D01*
X34869Y-28830D01*
X34868Y-28829D01*
X34861Y-28815D01*
X34853Y-28800D01*
X34853Y-28800D01*
X34852Y-28799D01*
X34842Y-28786D01*
X34832Y-28773D01*
X34830Y-28772D01*
X34830Y-28772D01*
X34830Y-28772D01*
X34830Y-28772D01*
X34409Y-28351D01*
X34409Y-26299D01*
X34408Y-26282D01*
X34406Y-26266D01*
X34406Y-26265D01*
X34406Y-26264D01*
X34401Y-26248D01*
X34397Y-26233D01*
X34396Y-26232D01*
X34396Y-26231D01*
X34388Y-26217D01*
X34381Y-26202D01*
X34380Y-26201D01*
X34380Y-26200D01*
X34369Y-26188D01*
X34359Y-26175D01*
X34358Y-26174D01*
X34358Y-26174D01*
X34358Y-26174D01*
X34357Y-26173D01*
X33570Y-25386D01*
X33557Y-25375D01*
X33549Y-25369D01*
X33574Y-25353D01*
X33612Y-25316D01*
X33643Y-25273D01*
X33665Y-25224D01*
X33677Y-25172D01*
X33678Y-25111D01*
X33667Y-25058D01*
X33652Y-25021D01*
X33654Y-25019D01*
X33667Y-25009D01*
X33668Y-25007D01*
X33668Y-25007D01*
X33668Y-25007D01*
X33668Y-25007D01*
X34699Y-23976D01*
X34729Y-23965D01*
X34774Y-23936D01*
X34813Y-23899D01*
X34844Y-23855D01*
X34866Y-23806D01*
X34878Y-23754D01*
X34878Y-23693D01*
X34868Y-23641D01*
X34848Y-23591D01*
X34818Y-23547D01*
X34780Y-23509D01*
X34764Y-23498D01*
X35375Y-22887D01*
X35386Y-22874D01*
X35396Y-22862D01*
X35397Y-22861D01*
X35397Y-22860D01*
X35405Y-22846D01*
X35413Y-22831D01*
X35413Y-22830D01*
X35413Y-22830D01*
X35418Y-22814D01*
X35423Y-22798D01*
X35423Y-22797D01*
X35424Y-22796D01*
X35425Y-22780D01*
X35427Y-22764D01*
X35427Y-22762D01*
X35427Y-22762D01*
X35427Y-22762D01*
X35427Y-22761D01*
X35427Y-22682D01*
X35461Y-22669D01*
X35539Y-22620D01*
X35605Y-22556D01*
X35658Y-22481D01*
X35695Y-22398D01*
X35713Y-22319D01*
X35727Y-22334D01*
X35771Y-22365D01*
X35820Y-22386D01*
X35873Y-22398D01*
X35926Y-22399D01*
X35979Y-22389D01*
X36029Y-22370D01*
X36074Y-22341D01*
X36112Y-22304D01*
X36143Y-22261D01*
X36165Y-22212D01*
X36177Y-22160D01*
X36178Y-22099D01*
X36167Y-22046D01*
X36147Y-21997D01*
X36117Y-21952D01*
X36080Y-21914D01*
X36035Y-21884D01*
X35986Y-21864D01*
X35934Y-21853D01*
X35883Y-21853D01*
X35646Y-21615D01*
X35646Y-21567D01*
X35636Y-21515D01*
X35615Y-21465D01*
X35586Y-21421D01*
X35548Y-21383D01*
X35504Y-21353D01*
X35455Y-21332D01*
X35402Y-21322D01*
X35349Y-21321D01*
X35296Y-21331D01*
X35247Y-21351D01*
X35202Y-21380D01*
X35164Y-21418D01*
X35133Y-21462D01*
X35112Y-21511D01*
X35101Y-21563D01*
X35101Y-21617D01*
X35110Y-21670D01*
X35130Y-21719D01*
X35159Y-21764D01*
X35181Y-21787D01*
X35117Y-21799D01*
X35075Y-21816D01*
X35075Y-20996D01*
X35065Y-20944D01*
X35045Y-20895D01*
X35015Y-20850D01*
X34977Y-20812D01*
X34933Y-20782D01*
X34884Y-20761D01*
X34831Y-20751D01*
X34781Y-20750D01*
X34665Y-20635D01*
X34665Y-20286D01*
X34695Y-20257D01*
X34726Y-20214D01*
X34748Y-20165D01*
X34759Y-20113D01*
X34760Y-20052D01*
X34750Y-19999D01*
X34730Y-19950D01*
X34700Y-19905D01*
X34662Y-19867D01*
X34618Y-19837D01*
X34569Y-19817D01*
X34516Y-19806D01*
X34463Y-19805D01*
X34410Y-19815D01*
X34361Y-19835D01*
X34316Y-19865D01*
X34278Y-19902D01*
X34248Y-19946D01*
X34227Y-19995D01*
X34215Y-20048D01*
X34215Y-20101D01*
X34224Y-20154D01*
X34244Y-20203D01*
X34273Y-20248D01*
X34310Y-20287D01*
X34310Y-20708D01*
X34312Y-20725D01*
X34313Y-20741D01*
X34313Y-20742D01*
X34313Y-20743D01*
X34318Y-20758D01*
X34323Y-20774D01*
X34323Y-20775D01*
X34323Y-20776D01*
X34331Y-20790D01*
X34339Y-20805D01*
X34339Y-20806D01*
X34340Y-20806D01*
X34350Y-20819D01*
X34360Y-20832D01*
X34362Y-20833D01*
X34362Y-20833D01*
X34362Y-20833D01*
X34362Y-20834D01*
X34530Y-21002D01*
X34530Y-21046D01*
X34539Y-21099D01*
X34559Y-21148D01*
X34588Y-21193D01*
X34625Y-21232D01*
X34669Y-21262D01*
X34718Y-21284D01*
X34770Y-21295D01*
X34824Y-21296D01*
X34876Y-21287D01*
X34926Y-21268D01*
X34971Y-21239D01*
X35010Y-21202D01*
X35041Y-21158D01*
X35063Y-21110D01*
X35074Y-21057D01*
X35075Y-20996D01*
X35075Y-21816D01*
X35032Y-21833D01*
X34955Y-21884D01*
X34890Y-21948D01*
X34838Y-22023D01*
X34802Y-22108D01*
X34783Y-22197D01*
X34782Y-22289D01*
X34798Y-22379D01*
X34832Y-22464D01*
X34881Y-22541D01*
X34945Y-22607D01*
X35020Y-22659D01*
X35072Y-22682D01*
X35072Y-22688D01*
X34717Y-23043D01*
X34717Y-22204D01*
X34699Y-22114D01*
X34664Y-22029D01*
X34613Y-21953D01*
X34549Y-21888D01*
X34473Y-21836D01*
X34388Y-21801D01*
X34299Y-21782D01*
X34207Y-21782D01*
X34117Y-21799D01*
X34032Y-21833D01*
X33955Y-21884D01*
X33890Y-21948D01*
X33838Y-22023D01*
X33802Y-22108D01*
X33783Y-22197D01*
X33782Y-22289D01*
X33798Y-22379D01*
X33832Y-22464D01*
X33881Y-22541D01*
X33945Y-22607D01*
X34020Y-22659D01*
X34104Y-22696D01*
X34194Y-22716D01*
X34286Y-22718D01*
X34376Y-22702D01*
X34461Y-22669D01*
X34539Y-22620D01*
X34605Y-22556D01*
X34658Y-22481D01*
X34695Y-22398D01*
X34715Y-22308D01*
X34717Y-22204D01*
X34717Y-23043D01*
X34185Y-23575D01*
X34185Y-23573D01*
X34192Y-23541D01*
X34192Y-23508D01*
X34192Y-22958D01*
X34185Y-22926D01*
X34173Y-22895D01*
X34154Y-22868D01*
X34131Y-22845D01*
X34104Y-22826D01*
X34073Y-22814D01*
X34041Y-22807D01*
X34008Y-22807D01*
X33717Y-22807D01*
X33717Y-22204D01*
X33699Y-22114D01*
X33664Y-22029D01*
X33613Y-21953D01*
X33549Y-21888D01*
X33473Y-21836D01*
X33388Y-21801D01*
X33299Y-21782D01*
X33207Y-21782D01*
X33198Y-21784D01*
X33198Y-21234D01*
X33198Y-21011D01*
X33198Y-20917D01*
X33198Y-20694D01*
X33192Y-20665D01*
X33181Y-20639D01*
X33165Y-20614D01*
X33145Y-20594D01*
X33139Y-20590D01*
X33145Y-20586D01*
X33165Y-20566D01*
X33181Y-20541D01*
X33192Y-20515D01*
X33198Y-20486D01*
X33198Y-20457D01*
X33198Y-19946D01*
X33192Y-19917D01*
X33181Y-19891D01*
X33165Y-19866D01*
X33145Y-19846D01*
X33120Y-19830D01*
X33093Y-19819D01*
X33065Y-19813D01*
X33036Y-19813D01*
X32446Y-19813D01*
X32417Y-19819D01*
X32390Y-19830D01*
X32366Y-19846D01*
X32346Y-19866D01*
X32330Y-19891D01*
X32318Y-19917D01*
X32313Y-19946D01*
X32313Y-19975D01*
X32313Y-20486D01*
X32318Y-20515D01*
X32330Y-20541D01*
X32346Y-20566D01*
X32366Y-20586D01*
X32372Y-20590D01*
X32366Y-20594D01*
X32346Y-20614D01*
X32330Y-20639D01*
X32318Y-20665D01*
X32313Y-20694D01*
X32313Y-20917D01*
X32350Y-20954D01*
X32746Y-20954D01*
X32746Y-20946D01*
X32765Y-20946D01*
X32765Y-20954D01*
X33161Y-20954D01*
X33198Y-20917D01*
X33198Y-21011D01*
X33161Y-20974D01*
X32765Y-20974D01*
X32765Y-21330D01*
X32802Y-21367D01*
X33036Y-21367D01*
X33065Y-21367D01*
X33093Y-21362D01*
X33120Y-21350D01*
X33145Y-21334D01*
X33165Y-21314D01*
X33181Y-21289D01*
X33192Y-21263D01*
X33198Y-21234D01*
X33198Y-21784D01*
X33117Y-21799D01*
X33032Y-21833D01*
X32955Y-21884D01*
X32890Y-21948D01*
X32838Y-22023D01*
X32802Y-22108D01*
X32783Y-22197D01*
X32782Y-22289D01*
X32798Y-22379D01*
X32832Y-22464D01*
X32881Y-22541D01*
X32945Y-22607D01*
X33020Y-22659D01*
X33104Y-22696D01*
X33194Y-22716D01*
X33286Y-22718D01*
X33376Y-22702D01*
X33461Y-22669D01*
X33539Y-22620D01*
X33605Y-22556D01*
X33658Y-22481D01*
X33695Y-22398D01*
X33715Y-22308D01*
X33717Y-22204D01*
X33717Y-22807D01*
X33458Y-22807D01*
X33426Y-22814D01*
X33395Y-22826D01*
X33368Y-22845D01*
X33345Y-22868D01*
X33326Y-22895D01*
X33314Y-22926D01*
X33307Y-22958D01*
X33307Y-22991D01*
X33307Y-23541D01*
X33314Y-23573D01*
X33326Y-23604D01*
X33345Y-23631D01*
X33354Y-23641D01*
X32959Y-23641D01*
X33023Y-23600D01*
X33086Y-23540D01*
X33136Y-23469D01*
X33171Y-23390D01*
X33190Y-23305D01*
X33192Y-23206D01*
X33175Y-23121D01*
X33142Y-23041D01*
X33094Y-22969D01*
X33033Y-22907D01*
X32961Y-22859D01*
X32881Y-22825D01*
X32796Y-22807D01*
X32746Y-22807D01*
X32746Y-21330D01*
X32746Y-20974D01*
X32350Y-20974D01*
X32313Y-21011D01*
X32313Y-21234D01*
X32318Y-21263D01*
X32330Y-21289D01*
X32346Y-21314D01*
X32366Y-21334D01*
X32390Y-21350D01*
X32417Y-21362D01*
X32446Y-21367D01*
X32475Y-21367D01*
X32709Y-21367D01*
X32746Y-21330D01*
X32746Y-22807D01*
X32717Y-22807D01*
X32717Y-22204D01*
X32699Y-22114D01*
X32664Y-22029D01*
X32613Y-21953D01*
X32549Y-21888D01*
X32473Y-21836D01*
X32388Y-21801D01*
X32299Y-21782D01*
X32207Y-21782D01*
X32117Y-21799D01*
X32032Y-21833D01*
X31955Y-21884D01*
X31890Y-21948D01*
X31838Y-22023D01*
X31802Y-22108D01*
X31783Y-22197D01*
X31782Y-22289D01*
X31798Y-22379D01*
X31832Y-22464D01*
X31881Y-22541D01*
X31945Y-22607D01*
X32020Y-22659D01*
X32104Y-22696D01*
X32194Y-22716D01*
X32286Y-22718D01*
X32376Y-22702D01*
X32461Y-22669D01*
X32539Y-22620D01*
X32605Y-22556D01*
X32658Y-22481D01*
X32695Y-22398D01*
X32715Y-22308D01*
X32717Y-22204D01*
X32717Y-22807D01*
X32709Y-22807D01*
X32624Y-22823D01*
X32544Y-22856D01*
X32471Y-22903D01*
X32409Y-22964D01*
X32360Y-23035D01*
X32326Y-23115D01*
X32308Y-23200D01*
X32307Y-23287D01*
X32322Y-23372D01*
X32354Y-23453D01*
X32401Y-23526D01*
X32461Y-23588D01*
X32533Y-23637D01*
X32540Y-23641D01*
X31959Y-23641D01*
X32023Y-23600D01*
X32086Y-23540D01*
X32136Y-23469D01*
X32171Y-23390D01*
X32190Y-23305D01*
X32192Y-23206D01*
X32175Y-23121D01*
X32142Y-23041D01*
X32094Y-22969D01*
X32033Y-22907D01*
X31961Y-22859D01*
X31881Y-22825D01*
X31796Y-22807D01*
X31717Y-22807D01*
X31717Y-22204D01*
X31699Y-22114D01*
X31664Y-22029D01*
X31613Y-21953D01*
X31549Y-21888D01*
X31473Y-21836D01*
X31388Y-21801D01*
X31299Y-21782D01*
X31256Y-21782D01*
X31256Y-21390D01*
X31246Y-21338D01*
X31226Y-21288D01*
X31196Y-21244D01*
X31158Y-21206D01*
X31114Y-21176D01*
X31065Y-21155D01*
X31012Y-21144D01*
X30959Y-21144D01*
X30906Y-21154D01*
X30857Y-21174D01*
X30812Y-21203D01*
X30789Y-21226D01*
X30606Y-21044D01*
X30607Y-20996D01*
X30596Y-20944D01*
X30576Y-20895D01*
X30546Y-20850D01*
X30509Y-20812D01*
X30464Y-20782D01*
X30415Y-20761D01*
X30363Y-20751D01*
X30309Y-20750D01*
X30257Y-20760D01*
X30207Y-20780D01*
X30162Y-20810D01*
X30124Y-20847D01*
X30094Y-20891D01*
X30073Y-20940D01*
X30062Y-20993D01*
X30061Y-21046D01*
X30071Y-21099D01*
X30090Y-21148D01*
X30119Y-21193D01*
X30157Y-21232D01*
X30200Y-21262D01*
X30249Y-21284D01*
X30302Y-21295D01*
X30355Y-21296D01*
X30356Y-21296D01*
X30602Y-21542D01*
X30615Y-21553D01*
X30627Y-21563D01*
X30628Y-21564D01*
X30629Y-21564D01*
X30644Y-21572D01*
X30658Y-21580D01*
X30659Y-21580D01*
X30660Y-21581D01*
X30675Y-21586D01*
X30691Y-21591D01*
X30692Y-21591D01*
X30693Y-21591D01*
X30709Y-21593D01*
X30725Y-21594D01*
X30727Y-21594D01*
X30727Y-21594D01*
X30727Y-21594D01*
X30728Y-21594D01*
X30776Y-21594D01*
X30806Y-21625D01*
X30850Y-21656D01*
X30899Y-21677D01*
X30951Y-21689D01*
X31005Y-21690D01*
X31057Y-21681D01*
X31107Y-21661D01*
X31152Y-21633D01*
X31191Y-21596D01*
X31222Y-21552D01*
X31244Y-21503D01*
X31256Y-21451D01*
X31256Y-21390D01*
X31256Y-21782D01*
X31207Y-21782D01*
X31117Y-21799D01*
X31032Y-21833D01*
X30955Y-21884D01*
X30890Y-21948D01*
X30838Y-22023D01*
X30802Y-22108D01*
X30783Y-22197D01*
X30782Y-22289D01*
X30798Y-22379D01*
X30832Y-22464D01*
X30881Y-22541D01*
X30945Y-22607D01*
X31020Y-22659D01*
X31104Y-22696D01*
X31194Y-22716D01*
X31286Y-22718D01*
X31376Y-22702D01*
X31461Y-22669D01*
X31539Y-22620D01*
X31605Y-22556D01*
X31658Y-22481D01*
X31695Y-22398D01*
X31715Y-22308D01*
X31717Y-22204D01*
X31717Y-22807D01*
X31709Y-22807D01*
X31624Y-22823D01*
X31544Y-22856D01*
X31471Y-22903D01*
X31409Y-22964D01*
X31360Y-23035D01*
X31326Y-23115D01*
X31308Y-23200D01*
X31307Y-23287D01*
X31322Y-23372D01*
X31354Y-23453D01*
X31401Y-23526D01*
X31461Y-23588D01*
X31533Y-23637D01*
X31600Y-23667D01*
X31596Y-23669D01*
X31595Y-23670D01*
X31594Y-23670D01*
X31581Y-23681D01*
X31569Y-23691D01*
X31567Y-23692D01*
X31567Y-23692D01*
X31567Y-23692D01*
X31567Y-23693D01*
X31517Y-23743D01*
X31471Y-23742D01*
X31418Y-23752D01*
X31369Y-23772D01*
X31324Y-23802D01*
X31286Y-23839D01*
X31255Y-23883D01*
X31234Y-23932D01*
X31223Y-23985D01*
X31223Y-24038D01*
X31232Y-24091D01*
X31252Y-24140D01*
X31281Y-24185D01*
X31318Y-24224D01*
X31362Y-24254D01*
X31411Y-24276D01*
X31463Y-24287D01*
X31517Y-24288D01*
X31569Y-24279D01*
X31610Y-24263D01*
X31601Y-24272D01*
X31570Y-24316D01*
X31549Y-24365D01*
X31538Y-24418D01*
X31538Y-24471D01*
X31547Y-24524D01*
X31567Y-24574D01*
X31596Y-24618D01*
X31633Y-24657D01*
X31677Y-24687D01*
X31726Y-24709D01*
X31778Y-24720D01*
X31832Y-24721D01*
X31884Y-24712D01*
X31934Y-24693D01*
X31979Y-24664D01*
X32018Y-24628D01*
X32018Y-24758D01*
X32023Y-24786D01*
X32034Y-24813D01*
X32051Y-24837D01*
X32063Y-24850D01*
X31842Y-25071D01*
X31842Y-25071D01*
X31841Y-25072D01*
X31796Y-25101D01*
X31758Y-25138D01*
X31728Y-25182D01*
X31707Y-25232D01*
X31696Y-25284D01*
X31695Y-25337D01*
X31705Y-25390D01*
X31724Y-25440D01*
X31753Y-25485D01*
X31790Y-25523D01*
X31834Y-25554D01*
X31883Y-25575D01*
X31936Y-25586D01*
X31989Y-25588D01*
X32042Y-25578D01*
X32092Y-25559D01*
X32126Y-25537D01*
X32149Y-25554D01*
X32198Y-25575D01*
X32251Y-25586D01*
X32304Y-25588D01*
X32357Y-25578D01*
X32406Y-25559D01*
X32452Y-25530D01*
X32490Y-25493D01*
X32521Y-25450D01*
X32541Y-25406D01*
X32578Y-25444D01*
X32578Y-26259D01*
X31653Y-26259D01*
X31653Y-26889D01*
X31653Y-28444D01*
X32059Y-28444D01*
X32006Y-28471D01*
X31993Y-28480D01*
X31965Y-28551D01*
X32250Y-28836D01*
X32534Y-28551D01*
X32506Y-28480D01*
X32442Y-28444D01*
X32602Y-28444D01*
X32606Y-28452D01*
X32607Y-28453D01*
X32607Y-28454D01*
X32618Y-28466D01*
X32628Y-28479D01*
X32629Y-28481D01*
X32629Y-28481D01*
X32629Y-28481D01*
X32630Y-28481D01*
X32637Y-28489D01*
X32637Y-28625D01*
X32628Y-28606D01*
X32619Y-28593D01*
X32548Y-28565D01*
X32263Y-28850D01*
X32548Y-29134D01*
X32619Y-29106D01*
X32637Y-29073D01*
X32637Y-29448D01*
X33838Y-29448D01*
X33838Y-29207D01*
X33979Y-29348D01*
X33978Y-29393D01*
X33988Y-29445D01*
X34008Y-29495D01*
X34037Y-29540D01*
X34074Y-29578D01*
X34118Y-29609D01*
X34167Y-29630D01*
X34219Y-29642D01*
X34272Y-29643D01*
X34325Y-29633D01*
X34328Y-29632D01*
X33988Y-29972D01*
X33978Y-29985D01*
X33967Y-29998D01*
X33967Y-29998D01*
X33966Y-29999D01*
X33958Y-30014D01*
X33950Y-30028D01*
X33950Y-30029D01*
X33950Y-30030D01*
X33945Y-30045D01*
X33940Y-30061D01*
X33940Y-30062D01*
X33940Y-30063D01*
X33938Y-30079D01*
X33936Y-30095D01*
X33936Y-30097D01*
X33936Y-30097D01*
X33936Y-30097D01*
X33936Y-30098D01*
X33936Y-30481D01*
X33904Y-30512D01*
X33874Y-30556D01*
X33853Y-30606D01*
X33841Y-30658D01*
X33841Y-30711D01*
X33850Y-30764D01*
X33870Y-30814D01*
X33899Y-30859D01*
X33915Y-30875D01*
X33904Y-30886D01*
X33874Y-30931D01*
X33853Y-30980D01*
X33841Y-31032D01*
X33841Y-31085D01*
X33850Y-31138D01*
X33870Y-31188D01*
X33899Y-31233D01*
X33936Y-31271D01*
X33980Y-31302D01*
X34029Y-31323D01*
X34081Y-31335D01*
X34135Y-31336D01*
X34187Y-31326D01*
X34237Y-31307D01*
X34282Y-31278D01*
X34321Y-31242D01*
X34352Y-31198D01*
X34374Y-31149D01*
X34385Y-31097D01*
X34386Y-31041D01*
X34495Y-30932D01*
X34506Y-30920D01*
X34516Y-30907D01*
X34517Y-30906D01*
X34517Y-30905D01*
X34525Y-30891D01*
X34532Y-30879D01*
X34579Y-30997D01*
X34682Y-31158D01*
X34815Y-31295D01*
X34972Y-31404D01*
X35147Y-31481D01*
X35334Y-31522D01*
X35525Y-31526D01*
X35713Y-31493D01*
X35891Y-31423D01*
X36052Y-31321D01*
X36191Y-31189D01*
X36301Y-31033D01*
X36379Y-30859D01*
X36421Y-30672D01*
X36424Y-30454D01*
X36424Y-34323D01*
X36380Y-34305D01*
X36327Y-34294D01*
X36274Y-34294D01*
X36221Y-34304D01*
X36172Y-34324D01*
X36127Y-34353D01*
X36089Y-34390D01*
X36059Y-34434D01*
X36038Y-34484D01*
X36026Y-34536D01*
X36026Y-34589D01*
X36035Y-34642D01*
X36055Y-34692D01*
X36084Y-34737D01*
X36121Y-34775D01*
X36165Y-34806D01*
X36214Y-34827D01*
X36266Y-34838D01*
X36320Y-34840D01*
X36372Y-34830D01*
X36422Y-34811D01*
X36467Y-34782D01*
X36506Y-34745D01*
X36507Y-34744D01*
X36839Y-34744D01*
X36869Y-34775D01*
X36913Y-34806D01*
X36962Y-34827D01*
X37014Y-34838D01*
X37068Y-34840D01*
X37120Y-34830D01*
X37170Y-34811D01*
X37215Y-34782D01*
X37254Y-34745D01*
X37285Y-34702D01*
X37307Y-34653D01*
X37319Y-34601D01*
X37319Y-34540D01*
X37319Y-34818D01*
X37151Y-34930D01*
X35990Y-35558D01*
X35764Y-35627D01*
X35764Y-34540D01*
X35754Y-34487D01*
X35734Y-34438D01*
X35704Y-34393D01*
X35666Y-34355D01*
X35622Y-34325D01*
X35573Y-34305D01*
X35520Y-34294D01*
X35467Y-34294D01*
X35414Y-34304D01*
X35365Y-34324D01*
X35320Y-34353D01*
X35283Y-34389D01*
X34876Y-34389D01*
X34838Y-34351D01*
X34839Y-34303D01*
X34829Y-34251D01*
X34808Y-34202D01*
X34779Y-34157D01*
X34741Y-34119D01*
X34697Y-34089D01*
X34647Y-34069D01*
X34595Y-34058D01*
X34542Y-34057D01*
X34489Y-34067D01*
X34440Y-34087D01*
X34395Y-34117D01*
X34357Y-34154D01*
X34326Y-34198D01*
X34305Y-34247D01*
X34294Y-34300D01*
X34293Y-34353D01*
X34303Y-34406D01*
X34323Y-34455D01*
X34352Y-34500D01*
X34389Y-34539D01*
X34433Y-34569D01*
X34482Y-34591D01*
X34534Y-34602D01*
X34587Y-34603D01*
X34588Y-34603D01*
X34677Y-34692D01*
X34690Y-34702D01*
X34702Y-34713D01*
X34703Y-34713D01*
X34704Y-34714D01*
X34718Y-34722D01*
X34733Y-34730D01*
X34734Y-34730D01*
X34734Y-34730D01*
X34750Y-34735D01*
X34766Y-34740D01*
X34767Y-34740D01*
X34768Y-34741D01*
X34784Y-34742D01*
X34800Y-34744D01*
X34802Y-34744D01*
X34802Y-34744D01*
X34802Y-34744D01*
X34803Y-34744D01*
X35284Y-34744D01*
X35314Y-34775D01*
X35358Y-34806D01*
X35407Y-34827D01*
X35459Y-34838D01*
X35513Y-34840D01*
X35565Y-34830D01*
X35615Y-34811D01*
X35660Y-34782D01*
X35699Y-34745D01*
X35730Y-34702D01*
X35752Y-34653D01*
X35763Y-34601D01*
X35764Y-34540D01*
X35764Y-35627D01*
X34678Y-35964D01*
X34145Y-36070D01*
X33198Y-36170D01*
X33198Y-35762D01*
X33198Y-35733D01*
X33198Y-35222D01*
X33192Y-35193D01*
X33181Y-35166D01*
X33165Y-35142D01*
X33145Y-35121D01*
X33139Y-35118D01*
X33145Y-35114D01*
X33165Y-35093D01*
X33181Y-35069D01*
X33192Y-35042D01*
X33198Y-35014D01*
X33198Y-34790D01*
X33198Y-34697D01*
X33198Y-34474D01*
X33192Y-34445D01*
X33181Y-34418D01*
X33166Y-34395D01*
X33166Y-31036D01*
X33155Y-30983D01*
X33135Y-30934D01*
X33106Y-30889D01*
X33092Y-30876D01*
X33101Y-30867D01*
X33131Y-30824D01*
X33153Y-30775D01*
X33165Y-30723D01*
X33166Y-30662D01*
X33155Y-30609D01*
X33135Y-30560D01*
X33106Y-30515D01*
X33068Y-30477D01*
X33024Y-30447D01*
X32974Y-30427D01*
X32922Y-30416D01*
X32868Y-30416D01*
X32816Y-30426D01*
X32766Y-30446D01*
X32722Y-30475D01*
X32685Y-30511D01*
X32534Y-30511D01*
X32534Y-29148D01*
X32250Y-28863D01*
X32236Y-28877D01*
X32236Y-28850D01*
X31951Y-28565D01*
X31880Y-28593D01*
X31837Y-28670D01*
X31810Y-28754D01*
X31800Y-28842D01*
X31807Y-28930D01*
X31831Y-29014D01*
X31871Y-29093D01*
X31880Y-29106D01*
X31951Y-29134D01*
X32236Y-28850D01*
X32236Y-28877D01*
X31965Y-29148D01*
X31993Y-29219D01*
X32070Y-29262D01*
X32154Y-29289D01*
X32242Y-29299D01*
X32330Y-29292D01*
X32414Y-29268D01*
X32493Y-29228D01*
X32506Y-29219D01*
X32534Y-29148D01*
X32534Y-30511D01*
X32530Y-30511D01*
X32497Y-30477D01*
X32453Y-30447D01*
X32403Y-30427D01*
X32351Y-30416D01*
X32298Y-30416D01*
X32245Y-30426D01*
X32195Y-30446D01*
X32151Y-30475D01*
X32112Y-30512D01*
X32082Y-30556D01*
X32061Y-30606D01*
X32050Y-30658D01*
X32049Y-30711D01*
X32059Y-30764D01*
X32079Y-30814D01*
X32108Y-30859D01*
X32124Y-30875D01*
X32112Y-30886D01*
X32082Y-30931D01*
X32061Y-30980D01*
X32050Y-31032D01*
X32049Y-31085D01*
X32059Y-31138D01*
X32079Y-31188D01*
X32108Y-31233D01*
X32145Y-31271D01*
X32189Y-31302D01*
X32238Y-31323D01*
X32290Y-31335D01*
X32343Y-31336D01*
X32396Y-31326D01*
X32446Y-31307D01*
X32491Y-31278D01*
X32530Y-31242D01*
X32531Y-31240D01*
X32686Y-31240D01*
X32716Y-31271D01*
X32760Y-31302D01*
X32809Y-31323D01*
X32861Y-31335D01*
X32914Y-31336D01*
X32967Y-31326D01*
X33017Y-31307D01*
X33062Y-31278D01*
X33101Y-31242D01*
X33131Y-31198D01*
X33153Y-31149D01*
X33165Y-31097D01*
X33166Y-31036D01*
X33166Y-34395D01*
X33165Y-34394D01*
X33145Y-34373D01*
X33120Y-34357D01*
X33093Y-34346D01*
X33065Y-34340D01*
X33036Y-34340D01*
X32802Y-34340D01*
X32765Y-34377D01*
X32765Y-34734D01*
X33161Y-34734D01*
X33198Y-34697D01*
X33198Y-34790D01*
X33161Y-34753D01*
X32765Y-34753D01*
X32765Y-34761D01*
X32746Y-34761D01*
X32746Y-34753D01*
X32746Y-34734D01*
X32746Y-34377D01*
X32709Y-34340D01*
X32477Y-34340D01*
X32477Y-31725D01*
X32466Y-31672D01*
X32446Y-31623D01*
X32417Y-31578D01*
X32379Y-31540D01*
X32335Y-31510D01*
X32285Y-31490D01*
X32233Y-31479D01*
X32179Y-31479D01*
X32127Y-31489D01*
X32077Y-31509D01*
X32033Y-31538D01*
X31994Y-31575D01*
X31964Y-31619D01*
X31943Y-31669D01*
X31932Y-31721D01*
X31931Y-31774D01*
X31940Y-31823D01*
X31827Y-31936D01*
X31827Y-31036D01*
X31817Y-30983D01*
X31797Y-30934D01*
X31767Y-30889D01*
X31753Y-30876D01*
X31762Y-30867D01*
X31793Y-30824D01*
X31815Y-30775D01*
X31826Y-30723D01*
X31827Y-30662D01*
X31817Y-30609D01*
X31797Y-30560D01*
X31767Y-30515D01*
X31732Y-30480D01*
X31732Y-29803D01*
X31731Y-29786D01*
X31729Y-29770D01*
X31729Y-29769D01*
X31729Y-29768D01*
X31724Y-29752D01*
X31720Y-29737D01*
X31719Y-29736D01*
X31719Y-29735D01*
X31711Y-29720D01*
X31704Y-29706D01*
X31703Y-29705D01*
X31703Y-29704D01*
X31692Y-29692D01*
X31682Y-29679D01*
X31681Y-29678D01*
X31681Y-29677D01*
X31681Y-29677D01*
X31680Y-29677D01*
X31585Y-29582D01*
X31585Y-26003D01*
X31585Y-24724D01*
X31583Y-24703D01*
X31582Y-24682D01*
X31581Y-24681D01*
X31581Y-24680D01*
X31575Y-24660D01*
X31569Y-24639D01*
X31569Y-24638D01*
X31568Y-24637D01*
X31558Y-24619D01*
X31549Y-24600D01*
X31548Y-24599D01*
X31547Y-24598D01*
X31534Y-24582D01*
X31521Y-24565D01*
X31519Y-24564D01*
X31519Y-24564D01*
X31519Y-24563D01*
X31519Y-24563D01*
X30697Y-23741D01*
X30697Y-22564D01*
X30697Y-22535D01*
X30697Y-22296D01*
X30697Y-22203D01*
X30697Y-21964D01*
X30697Y-21935D01*
X30691Y-21906D01*
X30680Y-21880D01*
X30664Y-21855D01*
X30644Y-21835D01*
X30619Y-21819D01*
X30593Y-21808D01*
X30564Y-21802D01*
X30296Y-21802D01*
X30259Y-21839D01*
X30259Y-22240D01*
X30660Y-22240D01*
X30697Y-22203D01*
X30697Y-22296D01*
X30660Y-22259D01*
X30259Y-22259D01*
X30259Y-22660D01*
X30296Y-22697D01*
X30564Y-22697D01*
X30593Y-22691D01*
X30619Y-22680D01*
X30644Y-22664D01*
X30664Y-22644D01*
X30680Y-22619D01*
X30691Y-22593D01*
X30697Y-22564D01*
X30697Y-23741D01*
X30574Y-23618D01*
X30558Y-23605D01*
X30541Y-23591D01*
X30540Y-23591D01*
X30540Y-23590D01*
X30535Y-23588D01*
X30526Y-23574D01*
X30482Y-23529D01*
X30429Y-23494D01*
X30371Y-23469D01*
X30309Y-23457D01*
X30246Y-23456D01*
X30240Y-23457D01*
X30240Y-22660D01*
X30240Y-22259D01*
X30240Y-22240D01*
X30240Y-21839D01*
X30203Y-21802D01*
X29935Y-21802D01*
X29906Y-21808D01*
X29880Y-21819D01*
X29855Y-21835D01*
X29835Y-21855D01*
X29819Y-21880D01*
X29808Y-21906D01*
X29802Y-21935D01*
X29802Y-21964D01*
X29802Y-22203D01*
X29839Y-22240D01*
X30240Y-22240D01*
X30240Y-22259D01*
X29839Y-22259D01*
X29802Y-22296D01*
X29802Y-22535D01*
X29802Y-22564D01*
X29808Y-22593D01*
X29819Y-22619D01*
X29835Y-22644D01*
X29855Y-22664D01*
X29880Y-22680D01*
X29906Y-22691D01*
X29935Y-22697D01*
X30203Y-22697D01*
X30240Y-22660D01*
X30240Y-23457D01*
X30184Y-23468D01*
X30125Y-23492D01*
X30072Y-23526D01*
X30027Y-23571D01*
X29991Y-23623D01*
X29966Y-23681D01*
X29953Y-23743D01*
X29952Y-23806D01*
X29963Y-23868D01*
X29987Y-23927D01*
X30021Y-23980D01*
X30065Y-24026D01*
X30117Y-24062D01*
X30175Y-24087D01*
X30237Y-24101D01*
X30300Y-24102D01*
X30362Y-24091D01*
X30392Y-24080D01*
X31130Y-24818D01*
X31130Y-25909D01*
X31024Y-26015D01*
X31024Y-25054D01*
X30987Y-24867D01*
X30914Y-24690D01*
X30808Y-24531D01*
X30674Y-24395D01*
X30515Y-24288D01*
X30339Y-24214D01*
X30152Y-24176D01*
X29961Y-24174D01*
X29828Y-24200D01*
X29828Y-23243D01*
X29810Y-23153D01*
X29775Y-23068D01*
X29724Y-22992D01*
X29659Y-22927D01*
X29642Y-22915D01*
X29642Y-20996D01*
X29632Y-20944D01*
X29611Y-20895D01*
X29582Y-20850D01*
X29544Y-20812D01*
X29500Y-20782D01*
X29451Y-20761D01*
X29398Y-20751D01*
X29345Y-20750D01*
X29292Y-20760D01*
X29243Y-20780D01*
X29198Y-20810D01*
X29161Y-20845D01*
X28751Y-20845D01*
X28717Y-20812D01*
X28673Y-20782D01*
X28624Y-20761D01*
X28571Y-20751D01*
X28518Y-20750D01*
X28465Y-20760D01*
X28416Y-20780D01*
X28371Y-20810D01*
X28333Y-20847D01*
X28303Y-20891D01*
X28282Y-20940D01*
X28271Y-20993D01*
X28270Y-21046D01*
X28279Y-21099D01*
X28299Y-21148D01*
X28328Y-21193D01*
X28365Y-21232D01*
X28409Y-21262D01*
X28458Y-21284D01*
X28510Y-21295D01*
X28564Y-21296D01*
X28616Y-21287D01*
X28666Y-21268D01*
X28711Y-21239D01*
X28750Y-21202D01*
X28751Y-21201D01*
X29162Y-21201D01*
X29192Y-21232D01*
X29236Y-21262D01*
X29285Y-21284D01*
X29337Y-21295D01*
X29391Y-21296D01*
X29443Y-21287D01*
X29493Y-21268D01*
X29538Y-21239D01*
X29577Y-21202D01*
X29608Y-21158D01*
X29630Y-21110D01*
X29641Y-21057D01*
X29642Y-20996D01*
X29642Y-22915D01*
X29584Y-22876D01*
X29499Y-22840D01*
X29409Y-22822D01*
X29318Y-22821D01*
X29228Y-22838D01*
X29143Y-22873D01*
X29066Y-22923D01*
X29000Y-22987D01*
X28949Y-23063D01*
X28913Y-23147D01*
X28894Y-23236D01*
X28892Y-23328D01*
X28909Y-23418D01*
X28943Y-23503D01*
X28992Y-23581D01*
X29056Y-23646D01*
X29131Y-23699D01*
X29215Y-23735D01*
X29305Y-23755D01*
X29396Y-23757D01*
X29486Y-23741D01*
X29572Y-23708D01*
X29649Y-23659D01*
X29716Y-23596D01*
X29768Y-23521D01*
X29806Y-23437D01*
X29826Y-23348D01*
X29828Y-23243D01*
X29828Y-24200D01*
X29773Y-24210D01*
X29596Y-24282D01*
X29436Y-24386D01*
X29299Y-24520D01*
X29191Y-24678D01*
X29116Y-24853D01*
X29096Y-24950D01*
X29096Y-24076D01*
X29096Y-23916D01*
X29072Y-23831D01*
X29031Y-23753D01*
X28977Y-23683D01*
X28909Y-23626D01*
X28832Y-23583D01*
X28748Y-23556D01*
X28733Y-23553D01*
X28663Y-23583D01*
X28663Y-23986D01*
X29066Y-23986D01*
X29096Y-23916D01*
X29096Y-24076D01*
X29066Y-24006D01*
X28663Y-24006D01*
X28663Y-24409D01*
X28733Y-24439D01*
X28818Y-24414D01*
X28896Y-24374D01*
X28966Y-24319D01*
X29023Y-24252D01*
X29066Y-24175D01*
X29093Y-24091D01*
X29096Y-24076D01*
X29096Y-24950D01*
X29076Y-25040D01*
X29074Y-25231D01*
X29108Y-25419D01*
X29179Y-25597D01*
X29282Y-25758D01*
X29415Y-25895D01*
X29572Y-26004D01*
X29747Y-26081D01*
X29934Y-26122D01*
X30125Y-26126D01*
X30313Y-26093D01*
X30491Y-26023D01*
X30652Y-25921D01*
X30791Y-25789D01*
X30901Y-25633D01*
X30979Y-25459D01*
X31021Y-25272D01*
X31024Y-25054D01*
X31024Y-26015D01*
X30079Y-26960D01*
X30049Y-26960D01*
X29987Y-26972D01*
X29928Y-26996D01*
X29875Y-27030D01*
X29830Y-27075D01*
X29794Y-27127D01*
X29769Y-27185D01*
X29756Y-27247D01*
X29755Y-27310D01*
X29767Y-27372D01*
X29790Y-27431D01*
X29824Y-27484D01*
X29868Y-27530D01*
X29920Y-27566D01*
X29978Y-27591D01*
X30040Y-27605D01*
X30103Y-27606D01*
X30165Y-27595D01*
X30224Y-27572D01*
X30278Y-27538D01*
X30324Y-27495D01*
X30360Y-27443D01*
X30386Y-27385D01*
X30400Y-27324D01*
X30400Y-27283D01*
X31519Y-26164D01*
X31532Y-26148D01*
X31546Y-26132D01*
X31546Y-26131D01*
X31547Y-26130D01*
X31557Y-26112D01*
X31567Y-26093D01*
X31567Y-26092D01*
X31568Y-26091D01*
X31574Y-26071D01*
X31580Y-26051D01*
X31581Y-26050D01*
X31581Y-26048D01*
X31583Y-26028D01*
X31585Y-26007D01*
X31585Y-26004D01*
X31585Y-26004D01*
X31585Y-26004D01*
X31585Y-26003D01*
X31585Y-29582D01*
X30834Y-28831D01*
X30821Y-28820D01*
X30809Y-28810D01*
X30808Y-28809D01*
X30807Y-28809D01*
X30793Y-28801D01*
X30778Y-28793D01*
X30777Y-28793D01*
X30776Y-28792D01*
X30761Y-28787D01*
X30745Y-28782D01*
X30744Y-28782D01*
X30743Y-28782D01*
X30727Y-28780D01*
X30711Y-28779D01*
X30709Y-28779D01*
X30709Y-28779D01*
X30709Y-28779D01*
X30708Y-28779D01*
X30125Y-28779D01*
X30125Y-27960D01*
X30113Y-27898D01*
X30089Y-27839D01*
X30054Y-27787D01*
X30009Y-27742D01*
X29957Y-27706D01*
X29899Y-27682D01*
X29837Y-27669D01*
X29773Y-27669D01*
X29711Y-27681D01*
X29652Y-27704D01*
X29600Y-27739D01*
X29554Y-27783D01*
X29519Y-27835D01*
X29494Y-27894D01*
X29480Y-27955D01*
X29480Y-28019D01*
X29491Y-28081D01*
X29514Y-28140D01*
X29549Y-28193D01*
X29593Y-28239D01*
X29644Y-28275D01*
X29702Y-28300D01*
X29764Y-28314D01*
X29828Y-28315D01*
X29890Y-28304D01*
X29949Y-28281D01*
X30002Y-28247D01*
X30048Y-28203D01*
X30085Y-28152D01*
X30110Y-28094D01*
X30124Y-28032D01*
X30125Y-27960D01*
X30125Y-28779D01*
X29916Y-28779D01*
X29449Y-28312D01*
X29449Y-26028D01*
X29447Y-26012D01*
X29446Y-25996D01*
X29445Y-25995D01*
X29445Y-25994D01*
X29441Y-25978D01*
X29436Y-25962D01*
X29436Y-25961D01*
X29435Y-25961D01*
X29428Y-25946D01*
X29420Y-25932D01*
X29420Y-25931D01*
X29419Y-25930D01*
X29409Y-25917D01*
X29399Y-25904D01*
X29397Y-25903D01*
X29397Y-25903D01*
X29397Y-25903D01*
X29397Y-25903D01*
X28643Y-25149D01*
X28643Y-24409D01*
X28643Y-24006D01*
X28643Y-23986D01*
X28643Y-23583D01*
X28573Y-23553D01*
X28488Y-23577D01*
X28410Y-23618D01*
X28399Y-23626D01*
X28399Y-23006D01*
X28399Y-22977D01*
X28394Y-22949D01*
X28382Y-22922D01*
X28366Y-22898D01*
X28208Y-22740D01*
X28156Y-22740D01*
X28142Y-22754D01*
X28142Y-22726D01*
X28142Y-22674D01*
X27984Y-22516D01*
X27960Y-22500D01*
X27933Y-22489D01*
X27905Y-22483D01*
X27876Y-22483D01*
X27869Y-22484D01*
X27870Y-22478D01*
X27870Y-22448D01*
X27865Y-22420D01*
X27854Y-22393D01*
X27837Y-22369D01*
X27817Y-22348D01*
X27456Y-21987D01*
X27431Y-21971D01*
X27404Y-21960D01*
X27376Y-21954D01*
X27347Y-21954D01*
X27318Y-21960D01*
X27291Y-21971D01*
X27267Y-21987D01*
X27247Y-22008D01*
X26830Y-22425D01*
X26813Y-22449D01*
X26802Y-22476D01*
X26797Y-22504D01*
X26797Y-22533D01*
X26802Y-22562D01*
X26813Y-22589D01*
X26830Y-22613D01*
X26850Y-22634D01*
X27211Y-22995D01*
X27236Y-23011D01*
X27262Y-23022D01*
X27291Y-23028D01*
X27320Y-23028D01*
X27327Y-23027D01*
X27325Y-23033D01*
X27325Y-23062D01*
X27331Y-23091D01*
X27342Y-23118D01*
X27358Y-23142D01*
X27516Y-23300D01*
X27569Y-23300D01*
X27848Y-23020D01*
X27843Y-23014D01*
X27857Y-23000D01*
X27862Y-23006D01*
X28142Y-22726D01*
X28142Y-22754D01*
X27876Y-23020D01*
X28128Y-23272D01*
X28181Y-23272D01*
X28346Y-23107D01*
X28366Y-23086D01*
X28382Y-23062D01*
X28394Y-23035D01*
X28399Y-23006D01*
X28399Y-23626D01*
X28341Y-23672D01*
X28283Y-23740D01*
X28241Y-23817D01*
X28213Y-23901D01*
X28210Y-23916D01*
X28240Y-23986D01*
X28643Y-23986D01*
X28643Y-24006D01*
X28240Y-24006D01*
X28210Y-24076D01*
X28235Y-24161D01*
X28275Y-24239D01*
X28330Y-24308D01*
X28397Y-24366D01*
X28474Y-24408D01*
X28558Y-24436D01*
X28573Y-24439D01*
X28643Y-24409D01*
X28643Y-25149D01*
X28377Y-24883D01*
X28392Y-24851D01*
X28412Y-24762D01*
X28413Y-24657D01*
X28395Y-24567D01*
X28361Y-24483D01*
X28310Y-24406D01*
X28245Y-24341D01*
X28169Y-24290D01*
X28114Y-24267D01*
X28114Y-23338D01*
X28114Y-23286D01*
X27862Y-23034D01*
X27582Y-23314D01*
X27582Y-23366D01*
X27740Y-23524D01*
X27765Y-23540D01*
X27791Y-23551D01*
X27820Y-23557D01*
X27849Y-23557D01*
X27878Y-23551D01*
X27904Y-23540D01*
X27929Y-23524D01*
X27949Y-23503D01*
X28114Y-23338D01*
X28114Y-24267D01*
X28085Y-24254D01*
X27995Y-24236D01*
X27903Y-24235D01*
X27813Y-24253D01*
X27728Y-24287D01*
X27652Y-24337D01*
X27586Y-24401D01*
X27534Y-24477D01*
X27498Y-24561D01*
X27479Y-24651D01*
X27478Y-24742D01*
X27495Y-24832D01*
X27528Y-24918D01*
X27578Y-24995D01*
X27642Y-25061D01*
X27717Y-25113D01*
X27801Y-25150D01*
X27890Y-25169D01*
X27982Y-25171D01*
X28072Y-25155D01*
X28126Y-25134D01*
X29094Y-26102D01*
X29094Y-27014D01*
X27695Y-25615D01*
X27793Y-25517D01*
X27811Y-25489D01*
X27824Y-25459D01*
X27830Y-25427D01*
X27830Y-25394D01*
X27824Y-25361D01*
X27811Y-25331D01*
X27793Y-25303D01*
X27770Y-25280D01*
X27346Y-24856D01*
X27318Y-24838D01*
X27288Y-24825D01*
X27255Y-24819D01*
X27241Y-24819D01*
X27241Y-24579D01*
X27230Y-24527D01*
X27210Y-24477D01*
X27180Y-24433D01*
X27143Y-24395D01*
X27098Y-24365D01*
X27049Y-24344D01*
X26997Y-24333D01*
X26943Y-24333D01*
X26891Y-24343D01*
X26841Y-24363D01*
X26796Y-24392D01*
X26760Y-24428D01*
X26496Y-24428D01*
X26479Y-24430D01*
X26463Y-24431D01*
X26462Y-24431D01*
X26461Y-24432D01*
X26445Y-24436D01*
X26430Y-24441D01*
X26429Y-24441D01*
X26428Y-24442D01*
X26413Y-24449D01*
X26399Y-24457D01*
X26398Y-24457D01*
X26397Y-24458D01*
X26385Y-24468D01*
X26372Y-24478D01*
X26370Y-24480D01*
X26370Y-24480D01*
X26370Y-24480D01*
X26370Y-24480D01*
X26182Y-24668D01*
X26136Y-24668D01*
X26084Y-24678D01*
X26034Y-24698D01*
X25989Y-24727D01*
X25951Y-24764D01*
X25921Y-24808D01*
X25900Y-24858D01*
X25889Y-24910D01*
X25888Y-24963D01*
X25898Y-25016D01*
X25917Y-25066D01*
X25946Y-25111D01*
X25983Y-25149D01*
X26027Y-25180D01*
X26076Y-25201D01*
X26128Y-25212D01*
X26182Y-25214D01*
X26235Y-25204D01*
X26284Y-25185D01*
X26330Y-25156D01*
X26368Y-25119D01*
X26399Y-25076D01*
X26421Y-25027D01*
X26433Y-24975D01*
X26433Y-24919D01*
X26569Y-24783D01*
X26761Y-24783D01*
X26790Y-24814D01*
X26834Y-24845D01*
X26883Y-24866D01*
X26936Y-24878D01*
X26989Y-24879D01*
X27042Y-24870D01*
X27092Y-24850D01*
X27137Y-24822D01*
X27175Y-24785D01*
X27206Y-24741D01*
X27228Y-24692D01*
X27240Y-24640D01*
X27241Y-24579D01*
X27241Y-24819D01*
X27222Y-24819D01*
X27190Y-24825D01*
X27160Y-24838D01*
X27132Y-24856D01*
X27109Y-24879D01*
X26685Y-25303D01*
X26666Y-25331D01*
X26654Y-25361D01*
X26647Y-25394D01*
X26647Y-25427D01*
X26654Y-25459D01*
X26666Y-25489D01*
X26685Y-25517D01*
X26708Y-25540D01*
X27132Y-25964D01*
X27160Y-25983D01*
X27190Y-25995D01*
X27222Y-26002D01*
X27255Y-26002D01*
X27288Y-25995D01*
X27318Y-25983D01*
X27346Y-25964D01*
X27369Y-25941D01*
X27444Y-25866D01*
X28956Y-27378D01*
X28956Y-28444D01*
X28957Y-28461D01*
X28959Y-28477D01*
X28959Y-28478D01*
X28959Y-28479D01*
X28964Y-28495D01*
X28968Y-28510D01*
X28969Y-28511D01*
X28969Y-28512D01*
X28977Y-28527D01*
X28984Y-28541D01*
X28985Y-28542D01*
X28985Y-28543D01*
X28996Y-28555D01*
X29006Y-28568D01*
X29007Y-28570D01*
X29007Y-28570D01*
X29007Y-28570D01*
X29008Y-28570D01*
X29657Y-29220D01*
X29670Y-29230D01*
X29683Y-29241D01*
X29683Y-29241D01*
X29684Y-29242D01*
X29699Y-29249D01*
X29713Y-29257D01*
X29714Y-29258D01*
X29715Y-29258D01*
X29730Y-29263D01*
X29746Y-29268D01*
X29747Y-29268D01*
X29748Y-29268D01*
X29764Y-29270D01*
X29780Y-29272D01*
X29782Y-29272D01*
X29782Y-29272D01*
X29782Y-29272D01*
X29783Y-29272D01*
X30576Y-29272D01*
X31121Y-29817D01*
X31121Y-30905D01*
X31123Y-30921D01*
X31124Y-30938D01*
X31124Y-30939D01*
X31124Y-30940D01*
X31129Y-30955D01*
X31134Y-30971D01*
X31134Y-30972D01*
X31134Y-30973D01*
X31142Y-30987D01*
X31150Y-31002D01*
X31150Y-31002D01*
X31151Y-31003D01*
X31161Y-31016D01*
X31171Y-31029D01*
X31173Y-31030D01*
X31173Y-31030D01*
X31173Y-31030D01*
X31173Y-31031D01*
X31298Y-31156D01*
X31311Y-31188D01*
X31340Y-31233D01*
X31377Y-31271D01*
X31421Y-31302D01*
X31470Y-31323D01*
X31522Y-31335D01*
X31576Y-31336D01*
X31628Y-31326D01*
X31678Y-31307D01*
X31723Y-31278D01*
X31762Y-31242D01*
X31793Y-31198D01*
X31815Y-31149D01*
X31826Y-31097D01*
X31827Y-31036D01*
X31827Y-31936D01*
X31320Y-32444D01*
X31274Y-32443D01*
X31221Y-32453D01*
X31172Y-32473D01*
X31127Y-32503D01*
X31089Y-32540D01*
X31059Y-32584D01*
X31038Y-32633D01*
X31026Y-32685D01*
X31026Y-32739D01*
X31035Y-32792D01*
X31055Y-32841D01*
X31084Y-32886D01*
X31121Y-32925D01*
X31165Y-32955D01*
X31214Y-32977D01*
X31266Y-32988D01*
X31320Y-32989D01*
X31372Y-32980D01*
X31422Y-32961D01*
X31467Y-32932D01*
X31506Y-32895D01*
X31537Y-32851D01*
X31559Y-32803D01*
X31571Y-32750D01*
X31571Y-32695D01*
X32245Y-32021D01*
X32278Y-32015D01*
X32328Y-31996D01*
X32373Y-31967D01*
X32412Y-31930D01*
X32442Y-31887D01*
X32464Y-31838D01*
X32476Y-31786D01*
X32477Y-31725D01*
X32477Y-34340D01*
X32475Y-34340D01*
X32446Y-34340D01*
X32417Y-34346D01*
X32390Y-34357D01*
X32366Y-34373D01*
X32346Y-34394D01*
X32330Y-34418D01*
X32318Y-34445D01*
X32313Y-34474D01*
X32313Y-34697D01*
X32350Y-34734D01*
X32746Y-34734D01*
X32746Y-34753D01*
X32350Y-34753D01*
X32313Y-34790D01*
X32313Y-35014D01*
X32318Y-35042D01*
X32330Y-35069D01*
X32346Y-35093D01*
X32366Y-35114D01*
X32372Y-35118D01*
X32366Y-35121D01*
X32346Y-35142D01*
X32330Y-35166D01*
X32318Y-35193D01*
X32313Y-35222D01*
X32313Y-35251D01*
X32313Y-35762D01*
X32318Y-35790D01*
X32330Y-35817D01*
X32346Y-35841D01*
X32366Y-35862D01*
X32390Y-35878D01*
X32417Y-35889D01*
X32446Y-35895D01*
X32475Y-35895D01*
X33065Y-35895D01*
X33093Y-35889D01*
X33120Y-35878D01*
X33145Y-35862D01*
X33165Y-35841D01*
X33181Y-35817D01*
X33192Y-35790D01*
X33198Y-35762D01*
X33198Y-36170D01*
X32799Y-36212D01*
X32758Y-36212D01*
X31392Y-36078D01*
X31024Y-36004D01*
X31024Y-30454D01*
X30987Y-30267D01*
X30914Y-30090D01*
X30808Y-29931D01*
X30674Y-29795D01*
X30515Y-29688D01*
X30339Y-29614D01*
X30152Y-29576D01*
X29961Y-29574D01*
X29773Y-29610D01*
X29596Y-29682D01*
X29436Y-29786D01*
X29299Y-29920D01*
X29191Y-30078D01*
X29116Y-30253D01*
X29076Y-30440D01*
X29074Y-30631D01*
X29108Y-30819D01*
X29179Y-30997D01*
X29282Y-31158D01*
X29415Y-31295D01*
X29572Y-31404D01*
X29747Y-31481D01*
X29934Y-31522D01*
X30125Y-31526D01*
X30313Y-31493D01*
X30491Y-31423D01*
X30652Y-31321D01*
X30791Y-31189D01*
X30901Y-31033D01*
X30979Y-30859D01*
X31021Y-30672D01*
X31024Y-30454D01*
X31024Y-36004D01*
X30858Y-35971D01*
X29563Y-35580D01*
X28478Y-35003D01*
X28478Y-32809D01*
X28478Y-32780D01*
X28472Y-32751D01*
X28461Y-32725D01*
X28445Y-32700D01*
X28424Y-32680D01*
X28259Y-32515D01*
X28207Y-32515D01*
X28193Y-32528D01*
X28193Y-32501D01*
X28193Y-32448D01*
X28028Y-32283D01*
X28007Y-32263D01*
X27983Y-32246D01*
X27956Y-32235D01*
X27928Y-32230D01*
X27899Y-32230D01*
X27870Y-32235D01*
X27843Y-32246D01*
X27819Y-32263D01*
X27661Y-32420D01*
X27661Y-32473D01*
X27941Y-32753D01*
X28193Y-32501D01*
X28193Y-32528D01*
X27955Y-32767D01*
X28235Y-33046D01*
X28287Y-33046D01*
X28445Y-32889D01*
X28461Y-32864D01*
X28472Y-32838D01*
X28478Y-32809D01*
X28478Y-35003D01*
X28381Y-34951D01*
X28221Y-34846D01*
X28221Y-33113D01*
X28221Y-33060D01*
X27941Y-32780D01*
X27936Y-32786D01*
X27922Y-32772D01*
X27927Y-32767D01*
X27647Y-32487D01*
X27595Y-32487D01*
X27437Y-32644D01*
X27421Y-32669D01*
X27410Y-32696D01*
X27404Y-32724D01*
X27404Y-32753D01*
X27406Y-32760D01*
X27399Y-32759D01*
X27370Y-32759D01*
X27341Y-32764D01*
X27314Y-32775D01*
X27290Y-32792D01*
X27270Y-32812D01*
X26908Y-33173D01*
X26892Y-33198D01*
X26881Y-33224D01*
X26875Y-33253D01*
X26875Y-33282D01*
X26881Y-33311D01*
X26892Y-33337D01*
X26908Y-33362D01*
X26929Y-33382D01*
X27346Y-33799D01*
X27370Y-33816D01*
X27397Y-33827D01*
X27426Y-33832D01*
X27455Y-33832D01*
X27483Y-33827D01*
X27510Y-33816D01*
X27534Y-33799D01*
X27555Y-33779D01*
X27916Y-33417D01*
X27932Y-33393D01*
X27943Y-33366D01*
X27949Y-33338D01*
X27949Y-33309D01*
X27948Y-33302D01*
X27955Y-33303D01*
X27984Y-33303D01*
X28012Y-33298D01*
X28039Y-33287D01*
X28063Y-33270D01*
X28221Y-33113D01*
X28221Y-34846D01*
X27907Y-34638D01*
X26858Y-33783D01*
X26650Y-33532D01*
X26650Y-29618D01*
X26640Y-29566D01*
X26619Y-29517D01*
X26590Y-29472D01*
X26552Y-29434D01*
X26508Y-29404D01*
X26458Y-29383D01*
X26406Y-29373D01*
X26353Y-29372D01*
X26300Y-29382D01*
X26251Y-29402D01*
X26249Y-29403D01*
X26249Y-28183D01*
X26249Y-28154D01*
X26249Y-27920D01*
X26249Y-27827D01*
X26249Y-27593D01*
X26249Y-27564D01*
X26243Y-27535D01*
X26232Y-27509D01*
X26216Y-27484D01*
X26196Y-27464D01*
X26171Y-27448D01*
X26145Y-27437D01*
X26116Y-27431D01*
X25893Y-27431D01*
X25856Y-27468D01*
X25856Y-27864D01*
X26212Y-27864D01*
X26249Y-27827D01*
X26249Y-27920D01*
X26212Y-27883D01*
X25856Y-27883D01*
X25856Y-28279D01*
X25893Y-28316D01*
X26116Y-28316D01*
X26145Y-28310D01*
X26171Y-28299D01*
X26196Y-28283D01*
X26216Y-28263D01*
X26232Y-28238D01*
X26243Y-28212D01*
X26249Y-28183D01*
X26249Y-29403D01*
X26206Y-29432D01*
X26168Y-29469D01*
X26137Y-29513D01*
X26116Y-29562D01*
X26105Y-29615D01*
X26104Y-29667D01*
X25898Y-29874D01*
X25887Y-29887D01*
X25877Y-29899D01*
X25876Y-29900D01*
X25876Y-29901D01*
X25868Y-29915D01*
X25860Y-29930D01*
X25860Y-29930D01*
X25859Y-29931D01*
X25854Y-29947D01*
X25849Y-29963D01*
X25849Y-29963D01*
X25849Y-29964D01*
X25847Y-29981D01*
X25846Y-29997D01*
X25845Y-29999D01*
X25845Y-29999D01*
X25845Y-29999D01*
X25845Y-30000D01*
X25845Y-30146D01*
X25836Y-30155D01*
X25836Y-28279D01*
X25836Y-27883D01*
X25828Y-27883D01*
X25828Y-27864D01*
X25836Y-27864D01*
X25836Y-27468D01*
X25804Y-27435D01*
X25804Y-25544D01*
X25793Y-25491D01*
X25773Y-25442D01*
X25743Y-25397D01*
X25706Y-25359D01*
X25661Y-25329D01*
X25612Y-25309D01*
X25560Y-25298D01*
X25506Y-25298D01*
X25454Y-25308D01*
X25404Y-25328D01*
X25359Y-25357D01*
X25321Y-25394D01*
X25291Y-25438D01*
X25270Y-25488D01*
X25259Y-25540D01*
X25258Y-25592D01*
X24981Y-25869D01*
X24935Y-25868D01*
X24883Y-25878D01*
X24833Y-25898D01*
X24788Y-25928D01*
X24750Y-25965D01*
X24720Y-26009D01*
X24699Y-26058D01*
X24688Y-26111D01*
X24687Y-26164D01*
X24697Y-26217D01*
X24716Y-26266D01*
X24745Y-26311D01*
X24783Y-26350D01*
X24826Y-26380D01*
X24875Y-26402D01*
X24928Y-26413D01*
X24981Y-26414D01*
X25034Y-26405D01*
X25084Y-26386D01*
X25129Y-26357D01*
X25168Y-26320D01*
X25198Y-26277D01*
X25220Y-26228D01*
X25232Y-26176D01*
X25233Y-26120D01*
X25510Y-25843D01*
X25552Y-25844D01*
X25605Y-25834D01*
X25655Y-25815D01*
X25700Y-25786D01*
X25738Y-25749D01*
X25769Y-25706D01*
X25791Y-25657D01*
X25803Y-25605D01*
X25804Y-25544D01*
X25804Y-27435D01*
X25799Y-27431D01*
X25576Y-27431D01*
X25547Y-27437D01*
X25521Y-27448D01*
X25496Y-27464D01*
X25476Y-27484D01*
X25472Y-27490D01*
X25468Y-27484D01*
X25448Y-27464D01*
X25423Y-27448D01*
X25397Y-27437D01*
X25368Y-27431D01*
X25339Y-27431D01*
X24828Y-27431D01*
X24799Y-27437D01*
X24773Y-27448D01*
X24748Y-27464D01*
X24728Y-27484D01*
X24712Y-27509D01*
X24700Y-27535D01*
X24695Y-27564D01*
X24695Y-27593D01*
X24695Y-28183D01*
X24700Y-28212D01*
X24712Y-28238D01*
X24728Y-28263D01*
X24748Y-28283D01*
X24773Y-28299D01*
X24799Y-28310D01*
X24828Y-28316D01*
X24857Y-28316D01*
X25368Y-28316D01*
X25397Y-28310D01*
X25423Y-28299D01*
X25448Y-28283D01*
X25468Y-28263D01*
X25472Y-28257D01*
X25476Y-28263D01*
X25496Y-28283D01*
X25521Y-28299D01*
X25547Y-28310D01*
X25576Y-28316D01*
X25799Y-28316D01*
X25836Y-28279D01*
X25836Y-30155D01*
X25813Y-30178D01*
X25783Y-30222D01*
X25762Y-30271D01*
X25751Y-30323D01*
X25750Y-30377D01*
X25760Y-30429D01*
X25779Y-30479D01*
X25808Y-30524D01*
X25846Y-30562D01*
X25889Y-30593D01*
X25938Y-30614D01*
X25991Y-30626D01*
X26044Y-30627D01*
X26097Y-30618D01*
X26147Y-30598D01*
X26192Y-30570D01*
X26231Y-30533D01*
X26261Y-30489D01*
X26283Y-30440D01*
X26295Y-30388D01*
X26296Y-30327D01*
X26285Y-30275D01*
X26265Y-30225D01*
X26235Y-30181D01*
X26201Y-30146D01*
X26201Y-30073D01*
X26356Y-29917D01*
X26398Y-29918D01*
X26451Y-29909D01*
X26501Y-29890D01*
X26546Y-29861D01*
X26585Y-29824D01*
X26616Y-29780D01*
X26637Y-29732D01*
X26649Y-29680D01*
X26650Y-29618D01*
X26650Y-33532D01*
X26296Y-33103D01*
X26296Y-32099D01*
X26285Y-32046D01*
X26265Y-31997D01*
X26235Y-31952D01*
X26201Y-31917D01*
X26201Y-31388D01*
X26231Y-31360D01*
X26261Y-31316D01*
X26283Y-31267D01*
X26295Y-31215D01*
X26296Y-31154D01*
X26285Y-31101D01*
X26265Y-31052D01*
X26235Y-31007D01*
X26198Y-30970D01*
X26153Y-30940D01*
X26104Y-30919D01*
X26052Y-30908D01*
X25998Y-30908D01*
X25946Y-30918D01*
X25896Y-30938D01*
X25851Y-30967D01*
X25813Y-31005D01*
X25783Y-31049D01*
X25762Y-31098D01*
X25751Y-31150D01*
X25750Y-31204D01*
X25760Y-31256D01*
X25779Y-31306D01*
X25808Y-31351D01*
X25845Y-31389D01*
X25845Y-31918D01*
X25813Y-31949D01*
X25783Y-31994D01*
X25762Y-32043D01*
X25751Y-32095D01*
X25750Y-32148D01*
X25760Y-32201D01*
X25779Y-32251D01*
X25808Y-32296D01*
X25846Y-32334D01*
X25889Y-32365D01*
X25938Y-32386D01*
X25991Y-32398D01*
X26044Y-32399D01*
X26097Y-32389D01*
X26147Y-32370D01*
X26192Y-32341D01*
X26231Y-32304D01*
X26261Y-32261D01*
X26283Y-32212D01*
X26295Y-32160D01*
X26296Y-32099D01*
X26296Y-33103D01*
X25981Y-32723D01*
X25669Y-32251D01*
X25041Y-31090D01*
X24635Y-29778D01*
X24529Y-29245D01*
X24387Y-27899D01*
X24387Y-27858D01*
X24521Y-26492D01*
X24628Y-25958D01*
X25019Y-24663D01*
X25648Y-23481D01*
X25961Y-23007D01*
X26816Y-21958D01*
X27876Y-21081D01*
X28348Y-20769D01*
X29509Y-20141D01*
X30821Y-19735D01*
X31354Y-19629D01*
X32700Y-19487D01*
X32741Y-19487D01*
X34148Y-19625D01*
X34586Y-19711D01*
X35936Y-20119D01*
X37259Y-20823D01*
X37493Y-20980D01*
X38641Y-21916D01*
X39518Y-22976D01*
X39830Y-23448D01*
X40458Y-24609D01*
X40864Y-25921D01*
X40970Y-26454D01*
X41112Y-27800D01*
X41112Y-27841D01*
M02*
