G04 (created by PCBnew (20090216-final)) date Tue 05 Jan 2010 07:43:12 PM CET*
G01*
G70*
G90*
%MOIN*%
G04 Gerber Fmt 3.4, Leading zero omitted, Abs format*
%FSLAX34Y34*%
G04 APERTURE LIST*
%ADD10C,0.015000*%
%ADD11R,0.055000X0.055000*%
%ADD12C,0.055000*%
%ADD13R,0.060000X0.060000*%
%ADD14C,0.060000*%
%ADD15R,0.051100X0.059000*%
%ADD16R,0.062900X0.070800*%
%ADD17R,0.040000X0.040000*%
%ADD18C,0.045000*%
%ADD19C,0.012000*%
%ADD20R,0.078700X0.017700*%
%ADD21R,0.017700X0.078700*%
%ADD22R,0.035400X0.059100*%
%ADD23R,0.059100X0.035400*%
%ADD24C,0.007500*%
%ADD25C,0.015000*%
%ADD26C,0.008000*%
%ADD27C,0.002600*%
%ADD28C,0.002000*%
%ADD29C,0.004000*%
%ADD30C,0.006000*%
%ADD31C,0.001000*%
%ADD32C,0.010000*%
G04 APERTURE END LIST*
G54D10*
X41220Y-28070D02*
X41061Y-29686D01*
X41061Y-29686D02*
X40592Y-31240D01*
X40592Y-31240D02*
X39829Y-32674D01*
X39829Y-32674D02*
X38803Y-33932D01*
X38803Y-33932D02*
X37552Y-34967D01*
X37552Y-34967D02*
X36124Y-35739D01*
X36124Y-35739D02*
X34572Y-36220D01*
X34572Y-36220D02*
X32958Y-36389D01*
X32958Y-36389D02*
X31341Y-36242D01*
X31341Y-36242D02*
X29784Y-35784D01*
X29784Y-35784D02*
X28345Y-35031D01*
X28345Y-35031D02*
X27079Y-34014D01*
X27079Y-34014D02*
X26036Y-32770D01*
X26036Y-32770D02*
X25253Y-31347D01*
X25253Y-31347D02*
X24762Y-29799D01*
X24762Y-29799D02*
X24581Y-28186D01*
X24581Y-28186D02*
X24717Y-26569D01*
X24717Y-26569D02*
X25165Y-25008D01*
X25165Y-25008D02*
X25907Y-23563D01*
X25907Y-23563D02*
X26916Y-22291D01*
X26916Y-22291D02*
X28152Y-21239D01*
X28152Y-21239D02*
X29570Y-20446D01*
X29570Y-20446D02*
X31114Y-19945D01*
X31114Y-19945D02*
X32726Y-19752D01*
X32726Y-19752D02*
X34344Y-19877D01*
X34344Y-19877D02*
X35908Y-20314D01*
X35908Y-20314D02*
X37358Y-21046D01*
X37358Y-21046D02*
X38637Y-22045D01*
X38637Y-22045D02*
X39698Y-23275D01*
X39698Y-23275D02*
X40500Y-24686D01*
X40500Y-24686D02*
X41013Y-26227D01*
X41013Y-26227D02*
X41216Y-27838D01*
X41216Y-27838D02*
X41220Y-28070D01*
X41220Y-28070D02*
X41038Y-26340D01*
X41038Y-26340D02*
X40501Y-24686D01*
X40501Y-24686D02*
X39631Y-23180D01*
X39631Y-23180D02*
X38467Y-21887D01*
X38467Y-21887D02*
X37060Y-20865D01*
X37060Y-20865D02*
X35471Y-20157D01*
X35471Y-20157D02*
X33770Y-19796D01*
X33770Y-19796D02*
X32900Y-19750D01*
X32900Y-19750D02*
X31170Y-19932D01*
X31170Y-19932D02*
X29516Y-20469D01*
X29516Y-20469D02*
X28010Y-21339D01*
X28010Y-21339D02*
X26717Y-22503D01*
X26717Y-22503D02*
X25695Y-23910D01*
X25695Y-23910D02*
X24987Y-25499D01*
X24987Y-25499D02*
X24626Y-27200D01*
X24626Y-27200D02*
X24580Y-28070D01*
X24580Y-28070D02*
X24762Y-29800D01*
X24762Y-29800D02*
X25299Y-31454D01*
X25299Y-31454D02*
X26169Y-32960D01*
X26169Y-32960D02*
X27333Y-34253D01*
X27333Y-34253D02*
X28740Y-35275D01*
X28740Y-35275D02*
X30329Y-35983D01*
X30329Y-35983D02*
X32030Y-36344D01*
X32030Y-36344D02*
X32900Y-36390D01*
X32900Y-36390D02*
X34630Y-36208D01*
X34630Y-36208D02*
X36284Y-35671D01*
X36284Y-35671D02*
X37790Y-34801D01*
X37790Y-34801D02*
X39083Y-33637D01*
X39083Y-33637D02*
X40105Y-32230D01*
X40105Y-32230D02*
X40813Y-30641D01*
X40813Y-30641D02*
X41174Y-28940D01*
X41174Y-28940D02*
X41220Y-28070D01*
X31317Y-26300D02*
X31117Y-26000D01*
X31117Y-26000D02*
X31017Y-26100D01*
X31017Y-26100D02*
X31317Y-26300D01*
X34897Y-28990D02*
X34447Y-28990D01*
X34897Y-26810D02*
X34457Y-26810D01*
X34897Y-28990D02*
X34897Y-26810D01*
X34017Y-29460D02*
X34017Y-29890D01*
X31807Y-29470D02*
X31807Y-29890D01*
X31797Y-29890D02*
X34017Y-29900D01*
X31817Y-25920D02*
X33987Y-25910D01*
X31387Y-26610D02*
X31387Y-29440D01*
X33997Y-25920D02*
X33997Y-26330D01*
X31637Y-26370D02*
X34417Y-26370D01*
X34437Y-29450D02*
X34437Y-26410D01*
X31387Y-29450D02*
X34387Y-29450D01*
X30937Y-26780D02*
X30937Y-29000D01*
X30937Y-29000D02*
X31387Y-29000D01*
X31391Y-26600D02*
X31621Y-26370D01*
X30939Y-26780D02*
X31391Y-26780D01*
X31817Y-26370D02*
X31817Y-25918D01*
X31987Y-26774D02*
X31983Y-26810D01*
X31983Y-26810D02*
X31972Y-26845D01*
X31972Y-26845D02*
X31955Y-26878D01*
X31955Y-26878D02*
X31932Y-26906D01*
X31932Y-26906D02*
X31904Y-26929D01*
X31904Y-26929D02*
X31871Y-26947D01*
X31871Y-26947D02*
X31836Y-26958D01*
X31836Y-26958D02*
X31800Y-26961D01*
X31800Y-26961D02*
X31764Y-26958D01*
X31764Y-26958D02*
X31729Y-26948D01*
X31729Y-26948D02*
X31697Y-26931D01*
X31697Y-26931D02*
X31668Y-26908D01*
X31668Y-26908D02*
X31644Y-26880D01*
X31644Y-26880D02*
X31627Y-26848D01*
X31627Y-26848D02*
X31616Y-26813D01*
X31616Y-26813D02*
X31612Y-26776D01*
X31612Y-26776D02*
X31615Y-26741D01*
X31615Y-26741D02*
X31625Y-26705D01*
X31625Y-26705D02*
X31641Y-26673D01*
X31641Y-26673D02*
X31664Y-26644D01*
X31664Y-26644D02*
X31692Y-26620D01*
X31692Y-26620D02*
X31724Y-26602D01*
X31724Y-26602D02*
X31759Y-26591D01*
X31759Y-26591D02*
X31796Y-26587D01*
X31796Y-26587D02*
X31831Y-26589D01*
X31831Y-26589D02*
X31866Y-26599D01*
X31866Y-26599D02*
X31899Y-26616D01*
X31899Y-26616D02*
X31928Y-26638D01*
X31928Y-26638D02*
X31952Y-26666D01*
X31952Y-26666D02*
X31970Y-26698D01*
X31970Y-26698D02*
X31982Y-26733D01*
X31982Y-26733D02*
X31986Y-26769D01*
X31986Y-26769D02*
X31987Y-26774D01*
X26971Y-33505D02*
X27113Y-33364D01*
X27113Y-33364D02*
X27431Y-33682D01*
X27431Y-33682D02*
X27466Y-33717D01*
X27466Y-33717D02*
X27325Y-33859D01*
X29212Y-33010D02*
X27820Y-34402D01*
X27820Y-34402D02*
X26428Y-33010D01*
X26428Y-33010D02*
X27820Y-31618D01*
X27820Y-31618D02*
X29212Y-33010D01*
X24880Y-27640D02*
X25080Y-27640D01*
X25080Y-27640D02*
X25080Y-28090D01*
X25080Y-28090D02*
X25080Y-28140D01*
X25080Y-28140D02*
X24880Y-28140D01*
X26814Y-28874D02*
X24846Y-28874D01*
X24846Y-28874D02*
X24846Y-26906D01*
X24846Y-26906D02*
X26814Y-26906D01*
X26814Y-26906D02*
X26814Y-28874D01*
X27495Y-22111D02*
X27636Y-22253D01*
X27636Y-22253D02*
X27318Y-22571D01*
X27318Y-22571D02*
X27283Y-22606D01*
X27283Y-22606D02*
X27141Y-22465D01*
X27990Y-24352D02*
X26598Y-22960D01*
X26598Y-22960D02*
X27990Y-21568D01*
X27990Y-21568D02*
X29382Y-22960D01*
X29382Y-22960D02*
X27990Y-24352D01*
X33100Y-20040D02*
X33100Y-20240D01*
X33100Y-20240D02*
X32650Y-20240D01*
X32650Y-20240D02*
X32600Y-20240D01*
X32600Y-20240D02*
X32600Y-20040D01*
X31866Y-21974D02*
X31866Y-20006D01*
X31866Y-20006D02*
X33834Y-20006D01*
X33834Y-20006D02*
X33834Y-21974D01*
X33834Y-21974D02*
X31866Y-21974D01*
X38689Y-22475D02*
X38547Y-22616D01*
X38547Y-22616D02*
X38229Y-22298D01*
X38229Y-22298D02*
X38194Y-22263D01*
X38194Y-22263D02*
X38335Y-22121D01*
X36448Y-22970D02*
X37840Y-21578D01*
X37840Y-21578D02*
X39232Y-22970D01*
X39232Y-22970D02*
X37840Y-24362D01*
X37840Y-24362D02*
X36448Y-22970D01*
X40950Y-28310D02*
X40750Y-28310D01*
X40750Y-28310D02*
X40750Y-27860D01*
X40750Y-27860D02*
X40750Y-27810D01*
X40750Y-27810D02*
X40950Y-27810D01*
X39016Y-27076D02*
X40984Y-27076D01*
X40984Y-27076D02*
X40984Y-29044D01*
X40984Y-29044D02*
X39016Y-29044D01*
X39016Y-29044D02*
X39016Y-27076D01*
X38395Y-33929D02*
X38254Y-33787D01*
X38254Y-33787D02*
X38572Y-33469D01*
X38572Y-33469D02*
X38607Y-33434D01*
X38607Y-33434D02*
X38749Y-33575D01*
X37900Y-31688D02*
X39292Y-33080D01*
X39292Y-33080D02*
X37900Y-34472D01*
X37900Y-34472D02*
X36508Y-33080D01*
X36508Y-33080D02*
X37900Y-31688D01*
X32680Y-36060D02*
X32680Y-35860D01*
X32680Y-35860D02*
X33130Y-35860D01*
X33130Y-35860D02*
X33180Y-35860D01*
X33180Y-35860D02*
X33180Y-36060D01*
X33914Y-34126D02*
X33914Y-36094D01*
X33914Y-36094D02*
X31946Y-36094D01*
X31946Y-36094D02*
X31946Y-34126D01*
X31946Y-34126D02*
X33914Y-34126D01*
G54D32*
X27619Y-33464D02*
X27336Y-33181D01*
X27305Y-33212D02*
X27494Y-33023D01*
X27494Y-33023D02*
X27557Y-33024D01*
X27557Y-33024D02*
X27777Y-33244D01*
X27777Y-33244D02*
X27777Y-33306D01*
X27777Y-33306D02*
X27588Y-33495D01*
X28004Y-33079D02*
X27941Y-33079D01*
X27941Y-33079D02*
X27847Y-32985D01*
X27847Y-32985D02*
X27847Y-32922D01*
X27847Y-32922D02*
X28004Y-32765D01*
X28004Y-32765D02*
X28004Y-32702D01*
X28004Y-32702D02*
X27941Y-32639D01*
X27941Y-32639D02*
X27878Y-32639D01*
X27878Y-32639D02*
X27721Y-32796D01*
X27721Y-32796D02*
X27722Y-32859D01*
X27722Y-32859D02*
X27784Y-32922D01*
X27784Y-32922D02*
X27847Y-32922D01*
X28004Y-32765D02*
X28067Y-32765D01*
X28067Y-32765D02*
X28161Y-32859D01*
X28161Y-32859D02*
X28161Y-32922D01*
X28161Y-32922D02*
X28004Y-33079D01*
X25344Y-28100D02*
X25344Y-27700D01*
X25300Y-27700D02*
X25567Y-27700D01*
X25567Y-27700D02*
X25611Y-27745D01*
X25611Y-27745D02*
X25611Y-28056D01*
X25611Y-28056D02*
X25567Y-28100D01*
X25567Y-28100D02*
X25300Y-28100D01*
X25844Y-27700D02*
X26155Y-27700D01*
X26155Y-27700D02*
X25844Y-28100D01*
X27536Y-22819D02*
X27819Y-22536D01*
X27788Y-22505D02*
X27977Y-22694D01*
X27977Y-22694D02*
X27976Y-22757D01*
X27976Y-22757D02*
X27756Y-22977D01*
X27756Y-22977D02*
X27694Y-22977D01*
X27694Y-22977D02*
X27505Y-22788D01*
X28361Y-23141D02*
X28361Y-23078D01*
X28361Y-23078D02*
X28204Y-22921D01*
X28204Y-22921D02*
X28141Y-22922D01*
X28141Y-22922D02*
X27921Y-23141D01*
X27921Y-23141D02*
X27921Y-23204D01*
X27921Y-23204D02*
X28078Y-23361D01*
X28078Y-23361D02*
X28141Y-23361D01*
X28141Y-23361D02*
X28235Y-23267D01*
X28235Y-23267D02*
X28235Y-23204D01*
X28235Y-23204D02*
X28078Y-23047D01*
X28078Y-23047D02*
X28015Y-23047D01*
X33100Y-21456D02*
X32700Y-21456D01*
X32700Y-21500D02*
X32700Y-21233D01*
X32700Y-21233D02*
X32745Y-21189D01*
X32745Y-21189D02*
X33056Y-21189D01*
X33056Y-21189D02*
X33100Y-21233D01*
X33100Y-21233D02*
X33100Y-21500D01*
X33012Y-20956D02*
X33056Y-20956D01*
X33056Y-20956D02*
X33100Y-20912D01*
X33100Y-20912D02*
X33100Y-20689D01*
X33100Y-20689D02*
X33056Y-20645D01*
X33056Y-20645D02*
X32923Y-20645D01*
X32923Y-20645D02*
X32834Y-20734D01*
X32834Y-20734D02*
X32834Y-20956D01*
X32834Y-20956D02*
X32700Y-20956D01*
X32700Y-20956D02*
X32700Y-20645D01*
X37719Y-23464D02*
X37436Y-23181D01*
X37405Y-23212D02*
X37594Y-23023D01*
X37594Y-23023D02*
X37657Y-23024D01*
X37657Y-23024D02*
X37877Y-23244D01*
X37877Y-23244D02*
X37877Y-23306D01*
X37877Y-23306D02*
X37688Y-23495D01*
X38230Y-22953D02*
X37947Y-22670D01*
X37947Y-22670D02*
X38010Y-23048D01*
X38010Y-23048D02*
X38230Y-22828D01*
X39544Y-28300D02*
X39544Y-27900D01*
X39500Y-27900D02*
X39767Y-27900D01*
X39767Y-27900D02*
X39811Y-27945D01*
X39811Y-27945D02*
X39811Y-28256D01*
X39811Y-28256D02*
X39767Y-28300D01*
X39767Y-28300D02*
X39500Y-28300D01*
X40044Y-27900D02*
X40355Y-27900D01*
X40355Y-27900D02*
X40355Y-27945D01*
X40355Y-27945D02*
X40177Y-28078D01*
X40177Y-28078D02*
X40311Y-28078D01*
X40311Y-28078D02*
X40355Y-28123D01*
X40355Y-28123D02*
X40355Y-28256D01*
X40355Y-28256D02*
X40311Y-28300D01*
X40311Y-28300D02*
X40088Y-28300D01*
X40088Y-28300D02*
X40044Y-28256D01*
X37436Y-32919D02*
X37719Y-32636D01*
X37688Y-32605D02*
X37877Y-32794D01*
X37877Y-32794D02*
X37876Y-32857D01*
X37876Y-32857D02*
X37656Y-33077D01*
X37656Y-33077D02*
X37594Y-33077D01*
X37594Y-33077D02*
X37405Y-32888D01*
X38010Y-33492D02*
X37790Y-33273D01*
X37790Y-33273D02*
X37884Y-33178D01*
X37884Y-33178D02*
X37946Y-33178D01*
X37946Y-33178D02*
X38104Y-33336D01*
X38104Y-33336D02*
X38167Y-33335D01*
X38167Y-33335D02*
X38261Y-33241D01*
X38261Y-33241D02*
X38261Y-33178D01*
X38261Y-33178D02*
X38104Y-33021D01*
X38104Y-33021D02*
X38041Y-33022D01*
X33100Y-35556D02*
X32700Y-35556D01*
X32700Y-35600D02*
X32700Y-35333D01*
X32700Y-35333D02*
X32745Y-35289D01*
X32745Y-35289D02*
X33056Y-35289D01*
X33056Y-35289D02*
X33100Y-35333D01*
X33100Y-35333D02*
X33100Y-35600D01*
X33100Y-34967D02*
X33100Y-34789D01*
X33100Y-34878D02*
X32700Y-34878D01*
X32745Y-34878D02*
X32834Y-34967D01*
M02*
