G04 (created by PCBNEW-RS274X (2011-07-08)-stable) date Wed 21 Dec 2011 09:49:45 PM CET*
G01*
G70*
G90*
%MOIN*%
G04 Gerber Fmt 3.4, Leading zero omitted, Abs format*
%FSLAX34Y34*%
G04 APERTURE LIST*
%ADD10C,0.006000*%
%ADD11C,0.008000*%
%ADD12C,0.015000*%
%ADD13C,0.002600*%
%ADD14C,0.002000*%
%ADD15C,0.004000*%
%ADD16C,0.012000*%
%ADD17R,0.068000X0.068000*%
%ADD18C,0.068000*%
%ADD19R,0.031600X0.094600*%
%ADD20R,0.094600X0.031600*%
%ADD21C,0.168000*%
%ADD22R,0.067000X0.059100*%
%ADD23R,0.078800X0.070900*%
%ADD24R,0.059100X0.067000*%
%ADD25R,0.055200X0.055200*%
%ADD26R,0.067100X0.071000*%
%ADD27R,0.071000X0.067100*%
%ADD28R,0.063000X0.063000*%
%ADD29C,0.063000*%
G04 APERTURE END LIST*
G54D10*
G54D11*
X36962Y-30236D02*
X36962Y-30045D01*
X36562Y-30045D01*
X36962Y-30426D02*
X36943Y-30388D01*
X36924Y-30369D01*
X36886Y-30350D01*
X36771Y-30350D01*
X36733Y-30369D01*
X36714Y-30388D01*
X36695Y-30426D01*
X36695Y-30484D01*
X36714Y-30522D01*
X36733Y-30541D01*
X36771Y-30560D01*
X36886Y-30560D01*
X36924Y-30541D01*
X36943Y-30522D01*
X36962Y-30484D01*
X36962Y-30426D01*
X36943Y-30712D02*
X36962Y-30750D01*
X36962Y-30826D01*
X36943Y-30865D01*
X36905Y-30884D01*
X36886Y-30884D01*
X36848Y-30865D01*
X36829Y-30826D01*
X36829Y-30769D01*
X36810Y-30731D01*
X36771Y-30712D01*
X36752Y-30712D01*
X36714Y-30731D01*
X36695Y-30769D01*
X36695Y-30826D01*
X36714Y-30865D01*
X36695Y-30998D02*
X36695Y-31150D01*
X36562Y-31055D02*
X36905Y-31055D01*
X36943Y-31074D01*
X36962Y-31112D01*
X36962Y-31150D01*
X36962Y-31589D02*
X36695Y-31589D01*
X36562Y-31589D02*
X36581Y-31570D01*
X36600Y-31589D01*
X36581Y-31608D01*
X36562Y-31589D01*
X36600Y-31589D01*
X36695Y-31779D02*
X36962Y-31779D01*
X36733Y-31779D02*
X36714Y-31798D01*
X36695Y-31836D01*
X36695Y-31894D01*
X36714Y-31932D01*
X36752Y-31951D01*
X36962Y-31951D01*
X36695Y-32389D02*
X36695Y-32541D01*
X36562Y-32446D02*
X36905Y-32446D01*
X36943Y-32465D01*
X36962Y-32503D01*
X36962Y-32541D01*
X36962Y-32675D02*
X36695Y-32675D01*
X36562Y-32675D02*
X36581Y-32656D01*
X36600Y-32675D01*
X36581Y-32694D01*
X36562Y-32675D01*
X36600Y-32675D01*
X36962Y-32865D02*
X36695Y-32865D01*
X36733Y-32865D02*
X36714Y-32884D01*
X36695Y-32922D01*
X36695Y-32980D01*
X36714Y-33018D01*
X36752Y-33037D01*
X36962Y-33037D01*
X36752Y-33037D02*
X36714Y-33056D01*
X36695Y-33094D01*
X36695Y-33151D01*
X36714Y-33189D01*
X36752Y-33208D01*
X36962Y-33208D01*
X36943Y-33551D02*
X36962Y-33513D01*
X36962Y-33436D01*
X36943Y-33398D01*
X36905Y-33379D01*
X36752Y-33379D01*
X36714Y-33398D01*
X36695Y-33436D01*
X36695Y-33513D01*
X36714Y-33551D01*
X36752Y-33570D01*
X36790Y-33570D01*
X36829Y-33379D01*
X36943Y-33760D02*
X36962Y-33760D01*
X37000Y-33741D01*
X37019Y-33722D01*
X37583Y-30026D02*
X37602Y-30064D01*
X37602Y-30140D01*
X37583Y-30179D01*
X37545Y-30198D01*
X37526Y-30198D01*
X37488Y-30179D01*
X37469Y-30140D01*
X37469Y-30083D01*
X37450Y-30045D01*
X37411Y-30026D01*
X37392Y-30026D01*
X37354Y-30045D01*
X37335Y-30083D01*
X37335Y-30140D01*
X37354Y-30179D01*
X37335Y-30541D02*
X37602Y-30541D01*
X37335Y-30369D02*
X37545Y-30369D01*
X37583Y-30388D01*
X37602Y-30426D01*
X37602Y-30484D01*
X37583Y-30522D01*
X37564Y-30541D01*
X37602Y-30731D02*
X37335Y-30731D01*
X37411Y-30731D02*
X37373Y-30750D01*
X37354Y-30769D01*
X37335Y-30807D01*
X37335Y-30846D01*
X37602Y-30979D02*
X37335Y-30979D01*
X37411Y-30979D02*
X37373Y-30998D01*
X37354Y-31017D01*
X37335Y-31055D01*
X37335Y-31094D01*
X37602Y-31284D02*
X37583Y-31246D01*
X37564Y-31227D01*
X37526Y-31208D01*
X37411Y-31208D01*
X37373Y-31227D01*
X37354Y-31246D01*
X37335Y-31284D01*
X37335Y-31342D01*
X37354Y-31380D01*
X37373Y-31399D01*
X37411Y-31418D01*
X37526Y-31418D01*
X37564Y-31399D01*
X37583Y-31380D01*
X37602Y-31342D01*
X37602Y-31284D01*
X37335Y-31761D02*
X37602Y-31761D01*
X37335Y-31589D02*
X37545Y-31589D01*
X37583Y-31608D01*
X37602Y-31646D01*
X37602Y-31704D01*
X37583Y-31742D01*
X37564Y-31761D01*
X37335Y-31951D02*
X37602Y-31951D01*
X37373Y-31951D02*
X37354Y-31970D01*
X37335Y-32008D01*
X37335Y-32066D01*
X37354Y-32104D01*
X37392Y-32123D01*
X37602Y-32123D01*
X37602Y-32485D02*
X37202Y-32485D01*
X37583Y-32485D02*
X37602Y-32447D01*
X37602Y-32370D01*
X37583Y-32332D01*
X37564Y-32313D01*
X37526Y-32294D01*
X37411Y-32294D01*
X37373Y-32313D01*
X37354Y-32332D01*
X37335Y-32370D01*
X37335Y-32447D01*
X37354Y-32485D01*
X37583Y-32828D02*
X37602Y-32790D01*
X37602Y-32713D01*
X37583Y-32675D01*
X37545Y-32656D01*
X37392Y-32656D01*
X37354Y-32675D01*
X37335Y-32713D01*
X37335Y-32790D01*
X37354Y-32828D01*
X37392Y-32847D01*
X37430Y-32847D01*
X37469Y-32656D01*
X37602Y-33190D02*
X37202Y-33190D01*
X37583Y-33190D02*
X37602Y-33152D01*
X37602Y-33075D01*
X37583Y-33037D01*
X37564Y-33018D01*
X37526Y-32999D01*
X37411Y-32999D01*
X37373Y-33018D01*
X37354Y-33037D01*
X37335Y-33075D01*
X37335Y-33152D01*
X37354Y-33190D01*
X38242Y-30045D02*
X37842Y-30045D01*
X37994Y-30045D02*
X37975Y-30083D01*
X37975Y-30160D01*
X37994Y-30198D01*
X38013Y-30217D01*
X38051Y-30236D01*
X38166Y-30236D01*
X38204Y-30217D01*
X38223Y-30198D01*
X38242Y-30160D01*
X38242Y-30083D01*
X38223Y-30045D01*
X37975Y-30369D02*
X38242Y-30464D01*
X37975Y-30560D02*
X38242Y-30464D01*
X38337Y-30426D01*
X38356Y-30407D01*
X38375Y-30369D01*
X38223Y-31475D02*
X38242Y-31437D01*
X38242Y-31360D01*
X38223Y-31322D01*
X38185Y-31303D01*
X38032Y-31303D01*
X37994Y-31322D01*
X37975Y-31360D01*
X37975Y-31437D01*
X37994Y-31475D01*
X38032Y-31494D01*
X38070Y-31494D01*
X38109Y-31303D01*
X37975Y-31627D02*
X38242Y-31722D01*
X37975Y-31818D01*
X38242Y-31970D02*
X37975Y-31970D01*
X37842Y-31970D02*
X37861Y-31951D01*
X37880Y-31970D01*
X37861Y-31989D01*
X37842Y-31970D01*
X37880Y-31970D01*
X38242Y-32217D02*
X38223Y-32179D01*
X38185Y-32160D01*
X37842Y-32160D01*
X38882Y-30217D02*
X38672Y-30217D01*
X38634Y-30198D01*
X38615Y-30160D01*
X38615Y-30083D01*
X38634Y-30045D01*
X38863Y-30217D02*
X38882Y-30179D01*
X38882Y-30083D01*
X38863Y-30045D01*
X38825Y-30026D01*
X38787Y-30026D01*
X38749Y-30045D01*
X38730Y-30083D01*
X38730Y-30179D01*
X38710Y-30217D01*
X38615Y-30407D02*
X38882Y-30407D01*
X38653Y-30407D02*
X38634Y-30426D01*
X38615Y-30464D01*
X38615Y-30522D01*
X38634Y-30560D01*
X38672Y-30579D01*
X38882Y-30579D01*
X38882Y-30941D02*
X38482Y-30941D01*
X38863Y-30941D02*
X38882Y-30903D01*
X38882Y-30826D01*
X38863Y-30788D01*
X38844Y-30769D01*
X38806Y-30750D01*
X38691Y-30750D01*
X38653Y-30769D01*
X38634Y-30788D01*
X38615Y-30826D01*
X38615Y-30903D01*
X38634Y-30941D01*
X38882Y-31493D02*
X38863Y-31455D01*
X38825Y-31436D01*
X38482Y-31436D01*
X38882Y-31703D02*
X38863Y-31665D01*
X38844Y-31646D01*
X38806Y-31627D01*
X38691Y-31627D01*
X38653Y-31646D01*
X38634Y-31665D01*
X38615Y-31703D01*
X38615Y-31761D01*
X38634Y-31799D01*
X38653Y-31818D01*
X38691Y-31837D01*
X38806Y-31837D01*
X38844Y-31818D01*
X38863Y-31799D01*
X38882Y-31761D01*
X38882Y-31703D01*
X38615Y-31970D02*
X38882Y-32046D01*
X38691Y-32123D01*
X38882Y-32199D01*
X38615Y-32275D01*
X39522Y-30102D02*
X39503Y-30064D01*
X39484Y-30045D01*
X39446Y-30026D01*
X39331Y-30026D01*
X39293Y-30045D01*
X39274Y-30064D01*
X39255Y-30102D01*
X39255Y-30160D01*
X39274Y-30198D01*
X39293Y-30217D01*
X39331Y-30236D01*
X39446Y-30236D01*
X39484Y-30217D01*
X39503Y-30198D01*
X39522Y-30160D01*
X39522Y-30102D01*
X39255Y-30407D02*
X39522Y-30407D01*
X39293Y-30407D02*
X39274Y-30426D01*
X39255Y-30464D01*
X39255Y-30522D01*
X39274Y-30560D01*
X39312Y-30579D01*
X39522Y-30579D01*
X39255Y-31246D02*
X39579Y-31246D01*
X39617Y-31227D01*
X39636Y-31208D01*
X39655Y-31169D01*
X39655Y-31112D01*
X39636Y-31074D01*
X39503Y-31246D02*
X39522Y-31208D01*
X39522Y-31131D01*
X39503Y-31093D01*
X39484Y-31074D01*
X39446Y-31055D01*
X39331Y-31055D01*
X39293Y-31074D01*
X39274Y-31093D01*
X39255Y-31131D01*
X39255Y-31208D01*
X39274Y-31246D01*
X39522Y-31608D02*
X39312Y-31608D01*
X39274Y-31589D01*
X39255Y-31551D01*
X39255Y-31474D01*
X39274Y-31436D01*
X39503Y-31608D02*
X39522Y-31570D01*
X39522Y-31474D01*
X39503Y-31436D01*
X39465Y-31417D01*
X39427Y-31417D01*
X39389Y-31436D01*
X39370Y-31474D01*
X39370Y-31570D01*
X39350Y-31608D01*
X39503Y-31779D02*
X39522Y-31817D01*
X39522Y-31893D01*
X39503Y-31932D01*
X39465Y-31951D01*
X39446Y-31951D01*
X39408Y-31932D01*
X39389Y-31893D01*
X39389Y-31836D01*
X39370Y-31798D01*
X39331Y-31779D01*
X39312Y-31779D01*
X39274Y-31798D01*
X39255Y-31836D01*
X39255Y-31893D01*
X39274Y-31932D01*
X39484Y-32122D02*
X39503Y-32141D01*
X39522Y-32122D01*
X39503Y-32103D01*
X39484Y-32122D01*
X39522Y-32122D01*
X39370Y-32122D02*
X39141Y-32103D01*
X39122Y-32122D01*
X39141Y-32141D01*
X39370Y-32122D01*
X39122Y-32122D01*
X26012Y-30086D02*
X26012Y-29895D01*
X25612Y-29895D01*
X26012Y-30391D02*
X25802Y-30391D01*
X25764Y-30372D01*
X25745Y-30334D01*
X25745Y-30257D01*
X25764Y-30219D01*
X25993Y-30391D02*
X26012Y-30353D01*
X26012Y-30257D01*
X25993Y-30219D01*
X25955Y-30200D01*
X25917Y-30200D01*
X25879Y-30219D01*
X25860Y-30257D01*
X25860Y-30353D01*
X25840Y-30391D01*
X26012Y-30753D02*
X25612Y-30753D01*
X25993Y-30753D02*
X26012Y-30715D01*
X26012Y-30638D01*
X25993Y-30600D01*
X25974Y-30581D01*
X25936Y-30562D01*
X25821Y-30562D01*
X25783Y-30581D01*
X25764Y-30600D01*
X25745Y-30638D01*
X25745Y-30715D01*
X25764Y-30753D01*
X25745Y-30905D02*
X26012Y-31000D01*
X25745Y-31096D02*
X26012Y-31000D01*
X26107Y-30962D01*
X26126Y-30943D01*
X26145Y-30905D01*
X25993Y-31267D02*
X26012Y-31267D01*
X26050Y-31248D01*
X26069Y-31229D01*
X26012Y-31743D02*
X25612Y-31743D01*
X25612Y-31952D02*
X25688Y-31914D01*
X26012Y-32123D02*
X25745Y-32123D01*
X25783Y-32123D02*
X25764Y-32142D01*
X25745Y-32180D01*
X25745Y-32238D01*
X25764Y-32276D01*
X25802Y-32295D01*
X26012Y-32295D01*
X25802Y-32295D02*
X25764Y-32314D01*
X25745Y-32352D01*
X25745Y-32409D01*
X25764Y-32447D01*
X25802Y-32466D01*
X26012Y-32466D01*
X26652Y-30067D02*
X26442Y-30067D01*
X26404Y-30048D01*
X26385Y-30010D01*
X26385Y-29933D01*
X26404Y-29895D01*
X26633Y-30067D02*
X26652Y-30029D01*
X26652Y-29933D01*
X26633Y-29895D01*
X26595Y-29876D01*
X26557Y-29876D01*
X26519Y-29895D01*
X26500Y-29933D01*
X26500Y-30029D01*
X26480Y-30067D01*
X26385Y-30200D02*
X26385Y-30352D01*
X26652Y-30257D02*
X26309Y-30257D01*
X26271Y-30276D01*
X26252Y-30314D01*
X26252Y-30352D01*
X26652Y-30486D02*
X26385Y-30486D01*
X26461Y-30486D02*
X26423Y-30505D01*
X26404Y-30524D01*
X26385Y-30562D01*
X26385Y-30601D01*
X26652Y-30906D02*
X26442Y-30906D01*
X26404Y-30887D01*
X26385Y-30849D01*
X26385Y-30772D01*
X26404Y-30734D01*
X26633Y-30906D02*
X26652Y-30868D01*
X26652Y-30772D01*
X26633Y-30734D01*
X26595Y-30715D01*
X26557Y-30715D01*
X26519Y-30734D01*
X26500Y-30772D01*
X26500Y-30868D01*
X26480Y-30906D01*
X26652Y-31096D02*
X26385Y-31096D01*
X26252Y-31096D02*
X26271Y-31077D01*
X26290Y-31096D01*
X26271Y-31115D01*
X26252Y-31096D01*
X26290Y-31096D01*
X26652Y-31458D02*
X26252Y-31458D01*
X26633Y-31458D02*
X26652Y-31420D01*
X26652Y-31343D01*
X26633Y-31305D01*
X26614Y-31286D01*
X26576Y-31267D01*
X26461Y-31267D01*
X26423Y-31286D01*
X26404Y-31305D01*
X26385Y-31343D01*
X26385Y-31420D01*
X26404Y-31458D01*
X27292Y-29895D02*
X26892Y-29895D01*
X27292Y-30390D02*
X27025Y-30390D01*
X27063Y-30390D02*
X27044Y-30409D01*
X27025Y-30447D01*
X27025Y-30505D01*
X27044Y-30543D01*
X27082Y-30562D01*
X27292Y-30562D01*
X27082Y-30562D02*
X27044Y-30581D01*
X27025Y-30619D01*
X27025Y-30676D01*
X27044Y-30714D01*
X27082Y-30733D01*
X27292Y-30733D01*
X27025Y-31095D02*
X27292Y-31095D01*
X27025Y-30923D02*
X27235Y-30923D01*
X27273Y-30942D01*
X27292Y-30980D01*
X27292Y-31038D01*
X27273Y-31076D01*
X27254Y-31095D01*
X27273Y-31266D02*
X27292Y-31304D01*
X27292Y-31380D01*
X27273Y-31419D01*
X27235Y-31438D01*
X27216Y-31438D01*
X27178Y-31419D01*
X27159Y-31380D01*
X27159Y-31323D01*
X27140Y-31285D01*
X27101Y-31266D01*
X27082Y-31266D01*
X27044Y-31285D01*
X27025Y-31323D01*
X27025Y-31380D01*
X27044Y-31419D01*
X27025Y-31552D02*
X27025Y-31704D01*
X26892Y-31609D02*
X27235Y-31609D01*
X27273Y-31628D01*
X27292Y-31666D01*
X27292Y-31704D01*
X27932Y-30067D02*
X27722Y-30067D01*
X27684Y-30048D01*
X27665Y-30010D01*
X27665Y-29933D01*
X27684Y-29895D01*
X27913Y-30067D02*
X27932Y-30029D01*
X27932Y-29933D01*
X27913Y-29895D01*
X27875Y-29876D01*
X27837Y-29876D01*
X27799Y-29895D01*
X27780Y-29933D01*
X27780Y-30029D01*
X27760Y-30067D01*
X27913Y-30238D02*
X27932Y-30276D01*
X27932Y-30352D01*
X27913Y-30391D01*
X27875Y-30410D01*
X27856Y-30410D01*
X27818Y-30391D01*
X27799Y-30352D01*
X27799Y-30295D01*
X27780Y-30257D01*
X27741Y-30238D01*
X27722Y-30238D01*
X27684Y-30257D01*
X27665Y-30295D01*
X27665Y-30352D01*
X27684Y-30391D01*
X27932Y-30581D02*
X27532Y-30581D01*
X27780Y-30619D02*
X27932Y-30734D01*
X27665Y-30734D02*
X27818Y-30581D01*
X27665Y-31172D02*
X27932Y-31267D01*
X27665Y-31363D02*
X27932Y-31267D01*
X28027Y-31229D01*
X28046Y-31210D01*
X28065Y-31172D01*
X27932Y-31572D02*
X27913Y-31534D01*
X27894Y-31515D01*
X27856Y-31496D01*
X27741Y-31496D01*
X27703Y-31515D01*
X27684Y-31534D01*
X27665Y-31572D01*
X27665Y-31630D01*
X27684Y-31668D01*
X27703Y-31687D01*
X27741Y-31706D01*
X27856Y-31706D01*
X27894Y-31687D01*
X27913Y-31668D01*
X27932Y-31630D01*
X27932Y-31572D01*
X27665Y-32049D02*
X27932Y-32049D01*
X27665Y-31877D02*
X27875Y-31877D01*
X27913Y-31896D01*
X27932Y-31934D01*
X27932Y-31992D01*
X27913Y-32030D01*
X27894Y-32049D01*
X28305Y-29838D02*
X28305Y-29990D01*
X28172Y-29895D02*
X28515Y-29895D01*
X28553Y-29914D01*
X28572Y-29952D01*
X28572Y-29990D01*
X28572Y-30181D02*
X28553Y-30143D01*
X28534Y-30124D01*
X28496Y-30105D01*
X28381Y-30105D01*
X28343Y-30124D01*
X28324Y-30143D01*
X28305Y-30181D01*
X28305Y-30239D01*
X28324Y-30277D01*
X28343Y-30296D01*
X28381Y-30315D01*
X28496Y-30315D01*
X28534Y-30296D01*
X28553Y-30277D01*
X28572Y-30239D01*
X28572Y-30181D01*
X28572Y-30848D02*
X28553Y-30810D01*
X28515Y-30791D01*
X28172Y-30791D01*
X28553Y-31154D02*
X28572Y-31116D01*
X28572Y-31039D01*
X28553Y-31001D01*
X28515Y-30982D01*
X28362Y-30982D01*
X28324Y-31001D01*
X28305Y-31039D01*
X28305Y-31116D01*
X28324Y-31154D01*
X28362Y-31173D01*
X28400Y-31173D01*
X28439Y-30982D01*
X28572Y-31516D02*
X28362Y-31516D01*
X28324Y-31497D01*
X28305Y-31459D01*
X28305Y-31382D01*
X28324Y-31344D01*
X28553Y-31516D02*
X28572Y-31478D01*
X28572Y-31382D01*
X28553Y-31344D01*
X28515Y-31325D01*
X28477Y-31325D01*
X28439Y-31344D01*
X28420Y-31382D01*
X28420Y-31478D01*
X28400Y-31516D01*
X28305Y-31668D02*
X28572Y-31763D01*
X28305Y-31859D01*
X28553Y-32164D02*
X28572Y-32126D01*
X28572Y-32049D01*
X28553Y-32011D01*
X28515Y-31992D01*
X28362Y-31992D01*
X28324Y-32011D01*
X28305Y-32049D01*
X28305Y-32126D01*
X28324Y-32164D01*
X28362Y-32183D01*
X28400Y-32183D01*
X28439Y-31992D01*
X28945Y-29838D02*
X28945Y-29990D01*
X28812Y-29895D02*
X29155Y-29895D01*
X29193Y-29914D01*
X29212Y-29952D01*
X29212Y-29990D01*
X29212Y-30124D02*
X28812Y-30124D01*
X29212Y-30296D02*
X29002Y-30296D01*
X28964Y-30277D01*
X28945Y-30239D01*
X28945Y-30181D01*
X28964Y-30143D01*
X28983Y-30124D01*
X29193Y-30639D02*
X29212Y-30601D01*
X29212Y-30524D01*
X29193Y-30486D01*
X29155Y-30467D01*
X29002Y-30467D01*
X28964Y-30486D01*
X28945Y-30524D01*
X28945Y-30601D01*
X28964Y-30639D01*
X29002Y-30658D01*
X29040Y-30658D01*
X29079Y-30467D01*
X29212Y-31134D02*
X28812Y-31134D01*
X28964Y-31134D02*
X28945Y-31172D01*
X28945Y-31249D01*
X28964Y-31287D01*
X28983Y-31306D01*
X29021Y-31325D01*
X29136Y-31325D01*
X29174Y-31306D01*
X29193Y-31287D01*
X29212Y-31249D01*
X29212Y-31172D01*
X29193Y-31134D01*
X28945Y-31668D02*
X29212Y-31668D01*
X28945Y-31496D02*
X29155Y-31496D01*
X29193Y-31515D01*
X29212Y-31553D01*
X29212Y-31611D01*
X29193Y-31649D01*
X29174Y-31668D01*
X29212Y-31858D02*
X28945Y-31858D01*
X28812Y-31858D02*
X28831Y-31839D01*
X28850Y-31858D01*
X28831Y-31877D01*
X28812Y-31858D01*
X28850Y-31858D01*
X29212Y-32105D02*
X29193Y-32067D01*
X29155Y-32048D01*
X28812Y-32048D01*
X29212Y-32430D02*
X28812Y-32430D01*
X29193Y-32430D02*
X29212Y-32392D01*
X29212Y-32315D01*
X29193Y-32277D01*
X29174Y-32258D01*
X29136Y-32239D01*
X29021Y-32239D01*
X28983Y-32258D01*
X28964Y-32277D01*
X28945Y-32315D01*
X28945Y-32392D01*
X28964Y-32430D01*
X29212Y-32620D02*
X28945Y-32620D01*
X28812Y-32620D02*
X28831Y-32601D01*
X28850Y-32620D01*
X28831Y-32639D01*
X28812Y-32620D01*
X28850Y-32620D01*
X28945Y-32810D02*
X29212Y-32810D01*
X28983Y-32810D02*
X28964Y-32829D01*
X28945Y-32867D01*
X28945Y-32925D01*
X28964Y-32963D01*
X29002Y-32982D01*
X29212Y-32982D01*
X28945Y-33344D02*
X29269Y-33344D01*
X29307Y-33325D01*
X29326Y-33306D01*
X29345Y-33267D01*
X29345Y-33210D01*
X29326Y-33172D01*
X29193Y-33344D02*
X29212Y-33306D01*
X29212Y-33229D01*
X29193Y-33191D01*
X29174Y-33172D01*
X29136Y-33153D01*
X29021Y-33153D01*
X28983Y-33172D01*
X28964Y-33191D01*
X28945Y-33229D01*
X28945Y-33306D01*
X28964Y-33344D01*
X29174Y-33534D02*
X29193Y-33553D01*
X29212Y-33534D01*
X29193Y-33515D01*
X29174Y-33534D01*
X29212Y-33534D01*
X29060Y-33534D02*
X28831Y-33515D01*
X28812Y-33534D01*
X28831Y-33553D01*
X29060Y-33534D01*
X28812Y-33534D01*
G54D12*
X33950Y-26150D02*
X33950Y-26650D01*
X33900Y-26150D02*
X33950Y-26150D01*
X33450Y-26150D02*
X33900Y-26150D01*
G54D11*
X34362Y-27095D02*
X33962Y-27095D01*
X34400Y-27190D02*
X34400Y-27495D01*
X34362Y-27819D02*
X34171Y-27685D01*
X34362Y-27590D02*
X33962Y-27590D01*
X33962Y-27743D01*
X33981Y-27781D01*
X34000Y-27800D01*
X34038Y-27819D01*
X34095Y-27819D01*
X34133Y-27800D01*
X34152Y-27781D01*
X34171Y-27743D01*
X34171Y-27590D01*
X34152Y-27990D02*
X34152Y-28124D01*
X34362Y-28181D02*
X34362Y-27990D01*
X33962Y-27990D01*
X33962Y-28181D01*
X34152Y-28486D02*
X34152Y-28352D01*
X34362Y-28352D02*
X33962Y-28352D01*
X33962Y-28543D01*
X39012Y-22905D02*
X38612Y-22905D01*
X38612Y-23058D01*
X38631Y-23096D01*
X38650Y-23115D01*
X38688Y-23134D01*
X38745Y-23134D01*
X38783Y-23115D01*
X38802Y-23096D01*
X38821Y-23058D01*
X38821Y-22905D01*
X38974Y-23534D02*
X38993Y-23515D01*
X39012Y-23458D01*
X39012Y-23420D01*
X38993Y-23362D01*
X38955Y-23324D01*
X38917Y-23305D01*
X38840Y-23286D01*
X38783Y-23286D01*
X38707Y-23305D01*
X38669Y-23324D01*
X38631Y-23362D01*
X38612Y-23420D01*
X38612Y-23458D01*
X38631Y-23515D01*
X38650Y-23534D01*
X38612Y-23781D02*
X38612Y-23820D01*
X38631Y-23858D01*
X38650Y-23877D01*
X38688Y-23896D01*
X38764Y-23915D01*
X38860Y-23915D01*
X38936Y-23896D01*
X38974Y-23877D01*
X38993Y-23858D01*
X39012Y-23820D01*
X39012Y-23781D01*
X38993Y-23743D01*
X38974Y-23724D01*
X38936Y-23705D01*
X38860Y-23686D01*
X38764Y-23686D01*
X38688Y-23705D01*
X38650Y-23724D01*
X38631Y-23743D01*
X38612Y-23781D01*
X38312Y-22355D02*
X37912Y-22355D01*
X37912Y-22508D01*
X37931Y-22546D01*
X37950Y-22565D01*
X37988Y-22584D01*
X38045Y-22584D01*
X38083Y-22565D01*
X38102Y-22546D01*
X38121Y-22508D01*
X38121Y-22355D01*
X38274Y-22984D02*
X38293Y-22965D01*
X38312Y-22908D01*
X38312Y-22870D01*
X38293Y-22812D01*
X38255Y-22774D01*
X38217Y-22755D01*
X38140Y-22736D01*
X38083Y-22736D01*
X38007Y-22755D01*
X37969Y-22774D01*
X37931Y-22812D01*
X37912Y-22870D01*
X37912Y-22908D01*
X37931Y-22965D01*
X37950Y-22984D01*
X38312Y-23365D02*
X38312Y-23136D01*
X38312Y-23250D02*
X37912Y-23250D01*
X37969Y-23212D01*
X38007Y-23174D01*
X38026Y-23136D01*
X37612Y-21555D02*
X37212Y-21555D01*
X37212Y-21708D01*
X37231Y-21746D01*
X37250Y-21765D01*
X37288Y-21784D01*
X37345Y-21784D01*
X37383Y-21765D01*
X37402Y-21746D01*
X37421Y-21708D01*
X37421Y-21555D01*
X37574Y-22184D02*
X37593Y-22165D01*
X37612Y-22108D01*
X37612Y-22070D01*
X37593Y-22012D01*
X37555Y-21974D01*
X37517Y-21955D01*
X37440Y-21936D01*
X37383Y-21936D01*
X37307Y-21955D01*
X37269Y-21974D01*
X37231Y-22012D01*
X37212Y-22070D01*
X37212Y-22108D01*
X37231Y-22165D01*
X37250Y-22184D01*
X37250Y-22336D02*
X37231Y-22355D01*
X37212Y-22393D01*
X37212Y-22489D01*
X37231Y-22527D01*
X37250Y-22546D01*
X37288Y-22565D01*
X37326Y-22565D01*
X37383Y-22546D01*
X37612Y-22317D01*
X37612Y-22565D01*
X36912Y-20855D02*
X36512Y-20855D01*
X36512Y-21008D01*
X36531Y-21046D01*
X36550Y-21065D01*
X36588Y-21084D01*
X36645Y-21084D01*
X36683Y-21065D01*
X36702Y-21046D01*
X36721Y-21008D01*
X36721Y-20855D01*
X36874Y-21484D02*
X36893Y-21465D01*
X36912Y-21408D01*
X36912Y-21370D01*
X36893Y-21312D01*
X36855Y-21274D01*
X36817Y-21255D01*
X36740Y-21236D01*
X36683Y-21236D01*
X36607Y-21255D01*
X36569Y-21274D01*
X36531Y-21312D01*
X36512Y-21370D01*
X36512Y-21408D01*
X36531Y-21465D01*
X36550Y-21484D01*
X36512Y-21617D02*
X36512Y-21865D01*
X36664Y-21731D01*
X36664Y-21789D01*
X36683Y-21827D01*
X36702Y-21846D01*
X36740Y-21865D01*
X36836Y-21865D01*
X36874Y-21846D01*
X36893Y-21827D01*
X36912Y-21789D01*
X36912Y-21674D01*
X36893Y-21636D01*
X36874Y-21617D01*
G54D12*
X38850Y-24700D02*
X38850Y-24200D01*
X38550Y-25000D02*
X38850Y-24700D01*
X38150Y-24000D02*
X38150Y-23500D01*
X37850Y-24300D02*
X38150Y-24000D01*
X37450Y-23300D02*
X37450Y-22800D01*
X37150Y-23600D02*
X37450Y-23300D01*
X36750Y-22600D02*
X36750Y-22100D01*
X36450Y-22900D02*
X36750Y-22600D01*
X28700Y-22600D02*
X28700Y-22100D01*
X28000Y-23300D02*
X28000Y-22800D01*
X27300Y-24000D02*
X27300Y-23500D01*
X26600Y-24700D02*
X26600Y-24200D01*
X26900Y-25000D02*
X26600Y-24700D01*
X27600Y-24300D02*
X27300Y-24000D01*
X28300Y-23600D02*
X28000Y-23300D01*
X29000Y-22900D02*
X28700Y-22600D01*
G54D11*
X26743Y-22964D02*
X26762Y-23021D01*
X26762Y-23117D01*
X26743Y-23155D01*
X26724Y-23174D01*
X26686Y-23193D01*
X26648Y-23193D01*
X26610Y-23174D01*
X26590Y-23155D01*
X26571Y-23117D01*
X26552Y-23040D01*
X26533Y-23002D01*
X26514Y-22983D01*
X26476Y-22964D01*
X26438Y-22964D01*
X26400Y-22983D01*
X26381Y-23002D01*
X26362Y-23040D01*
X26362Y-23136D01*
X26381Y-23193D01*
X26762Y-23364D02*
X26362Y-23364D01*
X26362Y-23459D01*
X26381Y-23517D01*
X26419Y-23555D01*
X26457Y-23574D01*
X26533Y-23593D01*
X26590Y-23593D01*
X26667Y-23574D01*
X26705Y-23555D01*
X26743Y-23517D01*
X26762Y-23459D01*
X26762Y-23364D01*
X26648Y-23745D02*
X26648Y-23936D01*
X26762Y-23707D02*
X26362Y-23840D01*
X26762Y-23974D01*
X27443Y-22274D02*
X27462Y-22331D01*
X27462Y-22427D01*
X27443Y-22465D01*
X27424Y-22484D01*
X27386Y-22503D01*
X27348Y-22503D01*
X27310Y-22484D01*
X27290Y-22465D01*
X27271Y-22427D01*
X27252Y-22350D01*
X27233Y-22312D01*
X27214Y-22293D01*
X27176Y-22274D01*
X27138Y-22274D01*
X27100Y-22293D01*
X27081Y-22312D01*
X27062Y-22350D01*
X27062Y-22446D01*
X27081Y-22503D01*
X27424Y-22903D02*
X27443Y-22884D01*
X27462Y-22827D01*
X27462Y-22789D01*
X27443Y-22731D01*
X27405Y-22693D01*
X27367Y-22674D01*
X27290Y-22655D01*
X27233Y-22655D01*
X27157Y-22674D01*
X27119Y-22693D01*
X27081Y-22731D01*
X27062Y-22789D01*
X27062Y-22827D01*
X27081Y-22884D01*
X27100Y-22903D01*
X27462Y-23265D02*
X27462Y-23074D01*
X27062Y-23074D01*
X27781Y-21696D02*
X27762Y-21658D01*
X27762Y-21601D01*
X27781Y-21543D01*
X27819Y-21505D01*
X27857Y-21486D01*
X27933Y-21467D01*
X27990Y-21467D01*
X28067Y-21486D01*
X28105Y-21505D01*
X28143Y-21543D01*
X28162Y-21601D01*
X28162Y-21639D01*
X28143Y-21696D01*
X28124Y-21715D01*
X27990Y-21715D01*
X27990Y-21639D01*
X28162Y-21886D02*
X27762Y-21886D01*
X28162Y-22115D01*
X27762Y-22115D01*
X28162Y-22305D02*
X27762Y-22305D01*
X27762Y-22400D01*
X27781Y-22458D01*
X27819Y-22496D01*
X27857Y-22515D01*
X27933Y-22534D01*
X27990Y-22534D01*
X28067Y-22515D01*
X28105Y-22496D01*
X28143Y-22458D01*
X28162Y-22400D01*
X28162Y-22305D01*
X28462Y-20817D02*
X28862Y-20950D01*
X28462Y-21084D01*
X28824Y-21446D02*
X28843Y-21427D01*
X28862Y-21370D01*
X28862Y-21332D01*
X28843Y-21274D01*
X28805Y-21236D01*
X28767Y-21217D01*
X28690Y-21198D01*
X28633Y-21198D01*
X28557Y-21217D01*
X28519Y-21236D01*
X28481Y-21274D01*
X28462Y-21332D01*
X28462Y-21370D01*
X28481Y-21427D01*
X28500Y-21446D01*
X28824Y-21846D02*
X28843Y-21827D01*
X28862Y-21770D01*
X28862Y-21732D01*
X28843Y-21674D01*
X28805Y-21636D01*
X28767Y-21617D01*
X28690Y-21598D01*
X28633Y-21598D01*
X28557Y-21617D01*
X28519Y-21636D01*
X28481Y-21674D01*
X28462Y-21732D01*
X28462Y-21770D01*
X28481Y-21827D01*
X28500Y-21846D01*
X35412Y-20543D02*
X35012Y-20543D01*
X35012Y-20638D01*
X35031Y-20696D01*
X35069Y-20734D01*
X35107Y-20753D01*
X35183Y-20772D01*
X35240Y-20772D01*
X35317Y-20753D01*
X35355Y-20734D01*
X35393Y-20696D01*
X35412Y-20638D01*
X35412Y-20543D01*
X35012Y-20886D02*
X35012Y-21115D01*
X35412Y-21000D02*
X35012Y-21000D01*
X35412Y-21477D02*
X35221Y-21343D01*
X35412Y-21248D02*
X35012Y-21248D01*
X35012Y-21401D01*
X35031Y-21439D01*
X35050Y-21458D01*
X35088Y-21477D01*
X35145Y-21477D01*
X35183Y-21458D01*
X35202Y-21439D01*
X35221Y-21401D01*
X35221Y-21248D01*
X34412Y-20686D02*
X34012Y-20686D01*
X34412Y-20915D01*
X34012Y-20915D01*
X34374Y-21334D02*
X34393Y-21315D01*
X34412Y-21258D01*
X34412Y-21220D01*
X34393Y-21162D01*
X34355Y-21124D01*
X34317Y-21105D01*
X34240Y-21086D01*
X34183Y-21086D01*
X34107Y-21105D01*
X34069Y-21124D01*
X34031Y-21162D01*
X34012Y-21220D01*
X34012Y-21258D01*
X34031Y-21315D01*
X34050Y-21334D01*
X33012Y-20467D02*
X33412Y-20600D01*
X33012Y-20734D01*
X33374Y-21096D02*
X33393Y-21077D01*
X33412Y-21020D01*
X33412Y-20982D01*
X33393Y-20924D01*
X33355Y-20886D01*
X33317Y-20867D01*
X33240Y-20848D01*
X33183Y-20848D01*
X33107Y-20867D01*
X33069Y-20886D01*
X33031Y-20924D01*
X33012Y-20982D01*
X33012Y-21020D01*
X33031Y-21077D01*
X33050Y-21096D01*
X33374Y-21496D02*
X33393Y-21477D01*
X33412Y-21420D01*
X33412Y-21382D01*
X33393Y-21324D01*
X33355Y-21286D01*
X33317Y-21267D01*
X33240Y-21248D01*
X33183Y-21248D01*
X33107Y-21267D01*
X33069Y-21286D01*
X33031Y-21324D01*
X33012Y-21382D01*
X33012Y-21420D01*
X33031Y-21477D01*
X33050Y-21496D01*
X32412Y-20839D02*
X32221Y-20705D01*
X32412Y-20610D02*
X32012Y-20610D01*
X32012Y-20763D01*
X32031Y-20801D01*
X32050Y-20820D01*
X32088Y-20839D01*
X32145Y-20839D01*
X32183Y-20820D01*
X32202Y-20801D01*
X32221Y-20763D01*
X32221Y-20610D01*
X32012Y-20972D02*
X32412Y-21239D01*
X32012Y-21239D02*
X32412Y-20972D01*
X32412Y-21391D02*
X32012Y-21391D01*
X31012Y-20486D02*
X31012Y-20715D01*
X31412Y-20600D02*
X31012Y-20600D01*
X31012Y-20810D02*
X31412Y-21077D01*
X31012Y-21077D02*
X31412Y-20810D01*
X31012Y-21305D02*
X31012Y-21382D01*
X31031Y-21420D01*
X31069Y-21458D01*
X31145Y-21477D01*
X31279Y-21477D01*
X31355Y-21458D01*
X31393Y-21420D01*
X31412Y-21382D01*
X31412Y-21305D01*
X31393Y-21267D01*
X31355Y-21229D01*
X31279Y-21210D01*
X31145Y-21210D01*
X31069Y-21229D01*
X31031Y-21267D01*
X31012Y-21305D01*
X30031Y-20696D02*
X30012Y-20658D01*
X30012Y-20601D01*
X30031Y-20543D01*
X30069Y-20505D01*
X30107Y-20486D01*
X30183Y-20467D01*
X30240Y-20467D01*
X30317Y-20486D01*
X30355Y-20505D01*
X30393Y-20543D01*
X30412Y-20601D01*
X30412Y-20639D01*
X30393Y-20696D01*
X30374Y-20715D01*
X30240Y-20715D01*
X30240Y-20639D01*
X30412Y-20886D02*
X30012Y-20886D01*
X30412Y-21115D01*
X30012Y-21115D01*
X30412Y-21305D02*
X30012Y-21305D01*
X30012Y-21400D01*
X30031Y-21458D01*
X30069Y-21496D01*
X30107Y-21515D01*
X30183Y-21534D01*
X30240Y-21534D01*
X30317Y-21515D01*
X30355Y-21496D01*
X30393Y-21458D01*
X30412Y-21400D01*
X30412Y-21305D01*
G54D12*
X32750Y-19300D02*
X32005Y-19333D01*
X31266Y-19430D01*
X30538Y-19592D01*
X29826Y-19816D01*
X29137Y-20102D01*
X28476Y-20446D01*
X27846Y-20847D01*
X27255Y-21301D01*
X26705Y-21805D01*
X26201Y-22355D01*
X25747Y-22946D01*
X25346Y-23576D01*
X25002Y-24237D01*
X24716Y-24926D01*
X24492Y-25638D01*
X24330Y-26366D01*
X24233Y-27105D01*
X24200Y-27850D01*
X24200Y-27850D02*
X24233Y-28595D01*
X24330Y-29334D01*
X24492Y-30062D01*
X24716Y-30774D01*
X25002Y-31463D01*
X25346Y-32124D01*
X25747Y-32754D01*
X26201Y-33345D01*
X26705Y-33895D01*
X27255Y-34399D01*
X27846Y-34853D01*
X28476Y-35254D01*
X29137Y-35598D01*
X29826Y-35884D01*
X30538Y-36108D01*
X31266Y-36270D01*
X32005Y-36367D01*
X32750Y-36400D01*
X32750Y-36400D02*
X33495Y-36367D01*
X34234Y-36270D01*
X34962Y-36108D01*
X35674Y-35884D01*
X36363Y-35598D01*
X37025Y-35254D01*
X37654Y-34853D01*
X38245Y-34399D01*
X38795Y-33895D01*
X39299Y-33345D01*
X39753Y-32754D01*
X40154Y-32124D01*
X40498Y-31463D01*
X40784Y-30774D01*
X41008Y-30062D01*
X41170Y-29334D01*
X41267Y-28595D01*
X41300Y-27850D01*
X41300Y-27850D02*
X41267Y-27105D01*
X41170Y-26366D01*
X41008Y-25638D01*
X40784Y-24926D01*
X40498Y-24237D01*
X40154Y-23576D01*
X39753Y-22946D01*
X39299Y-22355D01*
X38795Y-21805D01*
X38245Y-21301D01*
X37654Y-20847D01*
X37025Y-20446D01*
X36363Y-20102D01*
X35674Y-19816D01*
X34962Y-19592D01*
X34234Y-19430D01*
X33495Y-19333D01*
X32750Y-19300D01*
G54D11*
X33750Y-29350D02*
X33750Y-26350D01*
X31750Y-26350D02*
X31750Y-29350D01*
X31750Y-29350D02*
X33750Y-29350D01*
X33750Y-26350D02*
X31750Y-26350D01*
G54D12*
X36800Y-27500D02*
X36800Y-27850D01*
X36800Y-27500D02*
X36650Y-27850D01*
X36650Y-27850D02*
X36950Y-27850D01*
X36950Y-27850D02*
X36800Y-27500D01*
X36554Y-26630D02*
X36747Y-26630D01*
X36747Y-26630D02*
X36747Y-27063D01*
X36554Y-27063D02*
X36747Y-27063D01*
X36554Y-26630D02*
X36554Y-27063D01*
X37054Y-26630D02*
X37247Y-26630D01*
X37247Y-26630D02*
X37247Y-27063D01*
X37054Y-27063D02*
X37247Y-27063D01*
X37054Y-26630D02*
X37054Y-27063D01*
X37554Y-26630D02*
X37747Y-26630D01*
X37747Y-26630D02*
X37747Y-27063D01*
X37554Y-27063D02*
X37747Y-27063D01*
X37554Y-26630D02*
X37554Y-27063D01*
X38054Y-26630D02*
X38247Y-26630D01*
X38247Y-26630D02*
X38247Y-27063D01*
X38054Y-27063D02*
X38247Y-27063D01*
X38054Y-26630D02*
X38054Y-27063D01*
X39053Y-28637D02*
X39246Y-28637D01*
X39246Y-28637D02*
X39246Y-29070D01*
X39053Y-29070D02*
X39246Y-29070D01*
X39053Y-28637D02*
X39053Y-29070D01*
X38553Y-28637D02*
X38746Y-28637D01*
X38746Y-28637D02*
X38746Y-29070D01*
X38553Y-29070D02*
X38746Y-29070D01*
X38553Y-28637D02*
X38553Y-29070D01*
X38054Y-28637D02*
X38247Y-28637D01*
X38247Y-28637D02*
X38247Y-29070D01*
X38054Y-29070D02*
X38247Y-29070D01*
X38054Y-28637D02*
X38054Y-29070D01*
X37554Y-28637D02*
X37747Y-28637D01*
X37747Y-28637D02*
X37747Y-29070D01*
X37554Y-29070D02*
X37747Y-29070D01*
X37554Y-28637D02*
X37554Y-29070D01*
X38553Y-26630D02*
X38746Y-26630D01*
X38746Y-26630D02*
X38746Y-27063D01*
X38553Y-27063D02*
X38746Y-27063D01*
X38553Y-26630D02*
X38553Y-27063D01*
X39053Y-26630D02*
X39246Y-26630D01*
X39246Y-26630D02*
X39246Y-27063D01*
X39053Y-27063D02*
X39246Y-27063D01*
X39053Y-26630D02*
X39053Y-27063D01*
X39553Y-26630D02*
X39746Y-26630D01*
X39746Y-26630D02*
X39746Y-27063D01*
X39553Y-27063D02*
X39746Y-27063D01*
X39553Y-26630D02*
X39553Y-27063D01*
X40053Y-26630D02*
X40246Y-26630D01*
X40246Y-26630D02*
X40246Y-27063D01*
X40053Y-27063D02*
X40246Y-27063D01*
X40053Y-26630D02*
X40053Y-27063D01*
X40053Y-28637D02*
X40246Y-28637D01*
X40246Y-28637D02*
X40246Y-29070D01*
X40053Y-29070D02*
X40246Y-29070D01*
X40053Y-28637D02*
X40053Y-29070D01*
X39553Y-28637D02*
X39746Y-28637D01*
X39746Y-28637D02*
X39746Y-29070D01*
X39553Y-29070D02*
X39746Y-29070D01*
X39553Y-28637D02*
X39553Y-29070D01*
X37054Y-28637D02*
X37247Y-28637D01*
X37247Y-28637D02*
X37247Y-29070D01*
X37054Y-29070D02*
X37247Y-29070D01*
X37054Y-28637D02*
X37054Y-29070D01*
X36554Y-28637D02*
X36747Y-28637D01*
X36747Y-28637D02*
X36747Y-29070D01*
X36554Y-29070D02*
X36747Y-29070D01*
X36554Y-28637D02*
X36554Y-29070D01*
X36276Y-29385D02*
X40524Y-29385D01*
X40524Y-26315D02*
X36276Y-26315D01*
X36276Y-26315D02*
X36276Y-29385D01*
X40344Y-27102D02*
X36456Y-27102D01*
X36456Y-27102D02*
X36456Y-27299D01*
X36456Y-27299D02*
X36456Y-28598D01*
X36456Y-28598D02*
X40344Y-28598D01*
X40344Y-27299D02*
X36456Y-27299D01*
X40344Y-28598D02*
X40344Y-27299D01*
X40344Y-27299D02*
X40344Y-27102D01*
X40524Y-29385D02*
X40524Y-26315D01*
X28650Y-28200D02*
X28650Y-27850D01*
X28650Y-28200D02*
X28800Y-27850D01*
X28800Y-27850D02*
X28500Y-27850D01*
X28500Y-27850D02*
X28650Y-28200D01*
X28896Y-29070D02*
X28703Y-29070D01*
X28703Y-29070D02*
X28703Y-28637D01*
X28896Y-28637D02*
X28703Y-28637D01*
X28896Y-29070D02*
X28896Y-28637D01*
X28396Y-29070D02*
X28203Y-29070D01*
X28203Y-29070D02*
X28203Y-28637D01*
X28396Y-28637D02*
X28203Y-28637D01*
X28396Y-29070D02*
X28396Y-28637D01*
X27896Y-29070D02*
X27703Y-29070D01*
X27703Y-29070D02*
X27703Y-28637D01*
X27896Y-28637D02*
X27703Y-28637D01*
X27896Y-29070D02*
X27896Y-28637D01*
X27396Y-29070D02*
X27203Y-29070D01*
X27203Y-29070D02*
X27203Y-28637D01*
X27396Y-28637D02*
X27203Y-28637D01*
X27396Y-29070D02*
X27396Y-28637D01*
X26397Y-27063D02*
X26204Y-27063D01*
X26204Y-27063D02*
X26204Y-26630D01*
X26397Y-26630D02*
X26204Y-26630D01*
X26397Y-27063D02*
X26397Y-26630D01*
X26897Y-27063D02*
X26704Y-27063D01*
X26704Y-27063D02*
X26704Y-26630D01*
X26897Y-26630D02*
X26704Y-26630D01*
X26897Y-27063D02*
X26897Y-26630D01*
X27396Y-27063D02*
X27203Y-27063D01*
X27203Y-27063D02*
X27203Y-26630D01*
X27396Y-26630D02*
X27203Y-26630D01*
X27396Y-27063D02*
X27396Y-26630D01*
X27896Y-27063D02*
X27703Y-27063D01*
X27703Y-27063D02*
X27703Y-26630D01*
X27896Y-26630D02*
X27703Y-26630D01*
X27896Y-27063D02*
X27896Y-26630D01*
X26897Y-29070D02*
X26704Y-29070D01*
X26704Y-29070D02*
X26704Y-28637D01*
X26897Y-28637D02*
X26704Y-28637D01*
X26897Y-29070D02*
X26897Y-28637D01*
X26397Y-29070D02*
X26204Y-29070D01*
X26204Y-29070D02*
X26204Y-28637D01*
X26397Y-28637D02*
X26204Y-28637D01*
X26397Y-29070D02*
X26397Y-28637D01*
X25897Y-29070D02*
X25704Y-29070D01*
X25704Y-29070D02*
X25704Y-28637D01*
X25897Y-28637D02*
X25704Y-28637D01*
X25897Y-29070D02*
X25897Y-28637D01*
X25397Y-29070D02*
X25204Y-29070D01*
X25204Y-29070D02*
X25204Y-28637D01*
X25397Y-28637D02*
X25204Y-28637D01*
X25397Y-29070D02*
X25397Y-28637D01*
X25397Y-27063D02*
X25204Y-27063D01*
X25204Y-27063D02*
X25204Y-26630D01*
X25397Y-26630D02*
X25204Y-26630D01*
X25397Y-27063D02*
X25397Y-26630D01*
X25897Y-27063D02*
X25704Y-27063D01*
X25704Y-27063D02*
X25704Y-26630D01*
X25897Y-26630D02*
X25704Y-26630D01*
X25897Y-27063D02*
X25897Y-26630D01*
X28396Y-27063D02*
X28203Y-27063D01*
X28203Y-27063D02*
X28203Y-26630D01*
X28396Y-26630D02*
X28203Y-26630D01*
X28396Y-27063D02*
X28396Y-26630D01*
X28896Y-27063D02*
X28703Y-27063D01*
X28703Y-27063D02*
X28703Y-26630D01*
X28896Y-26630D02*
X28703Y-26630D01*
X28896Y-27063D02*
X28896Y-26630D01*
X29174Y-26315D02*
X24926Y-26315D01*
X24926Y-29385D02*
X29174Y-29385D01*
X29174Y-29385D02*
X29174Y-26315D01*
X25106Y-28598D02*
X28994Y-28598D01*
X28994Y-28598D02*
X28994Y-28401D01*
X28994Y-28401D02*
X28994Y-27102D01*
X28994Y-27102D02*
X25106Y-27102D01*
X25106Y-28401D02*
X28994Y-28401D01*
X25106Y-27102D02*
X25106Y-28401D01*
X25106Y-28401D02*
X25106Y-28598D01*
X24926Y-26315D02*
X24926Y-29385D01*
X33100Y-31950D02*
X32750Y-31950D01*
X33100Y-31950D02*
X32750Y-31800D01*
X32750Y-31800D02*
X32750Y-32100D01*
X32750Y-32100D02*
X33100Y-31950D01*
X33970Y-31704D02*
X33970Y-31897D01*
X33970Y-31897D02*
X33537Y-31897D01*
X33537Y-31704D02*
X33537Y-31897D01*
X33970Y-31704D02*
X33537Y-31704D01*
X33970Y-32204D02*
X33970Y-32397D01*
X33970Y-32397D02*
X33537Y-32397D01*
X33537Y-32204D02*
X33537Y-32397D01*
X33970Y-32204D02*
X33537Y-32204D01*
X33970Y-32704D02*
X33970Y-32897D01*
X33970Y-32897D02*
X33537Y-32897D01*
X33537Y-32704D02*
X33537Y-32897D01*
X33970Y-32704D02*
X33537Y-32704D01*
X33970Y-33204D02*
X33970Y-33397D01*
X33970Y-33397D02*
X33537Y-33397D01*
X33537Y-33204D02*
X33537Y-33397D01*
X33970Y-33204D02*
X33537Y-33204D01*
X31963Y-34203D02*
X31963Y-34396D01*
X31963Y-34396D02*
X31530Y-34396D01*
X31530Y-34203D02*
X31530Y-34396D01*
X31963Y-34203D02*
X31530Y-34203D01*
X31963Y-33703D02*
X31963Y-33896D01*
X31963Y-33896D02*
X31530Y-33896D01*
X31530Y-33703D02*
X31530Y-33896D01*
X31963Y-33703D02*
X31530Y-33703D01*
X31963Y-33204D02*
X31963Y-33397D01*
X31963Y-33397D02*
X31530Y-33397D01*
X31530Y-33204D02*
X31530Y-33397D01*
X31963Y-33204D02*
X31530Y-33204D01*
X31963Y-32704D02*
X31963Y-32897D01*
X31963Y-32897D02*
X31530Y-32897D01*
X31530Y-32704D02*
X31530Y-32897D01*
X31963Y-32704D02*
X31530Y-32704D01*
X33970Y-33703D02*
X33970Y-33896D01*
X33970Y-33896D02*
X33537Y-33896D01*
X33537Y-33703D02*
X33537Y-33896D01*
X33970Y-33703D02*
X33537Y-33703D01*
X33970Y-34203D02*
X33970Y-34396D01*
X33970Y-34396D02*
X33537Y-34396D01*
X33537Y-34203D02*
X33537Y-34396D01*
X33970Y-34203D02*
X33537Y-34203D01*
X33970Y-34703D02*
X33970Y-34896D01*
X33970Y-34896D02*
X33537Y-34896D01*
X33537Y-34703D02*
X33537Y-34896D01*
X33970Y-34703D02*
X33537Y-34703D01*
X33970Y-35203D02*
X33970Y-35396D01*
X33970Y-35396D02*
X33537Y-35396D01*
X33537Y-35203D02*
X33537Y-35396D01*
X33970Y-35203D02*
X33537Y-35203D01*
X31963Y-35203D02*
X31963Y-35396D01*
X31963Y-35396D02*
X31530Y-35396D01*
X31530Y-35203D02*
X31530Y-35396D01*
X31963Y-35203D02*
X31530Y-35203D01*
X31963Y-34703D02*
X31963Y-34896D01*
X31963Y-34896D02*
X31530Y-34896D01*
X31530Y-34703D02*
X31530Y-34896D01*
X31963Y-34703D02*
X31530Y-34703D01*
X31963Y-32204D02*
X31963Y-32397D01*
X31963Y-32397D02*
X31530Y-32397D01*
X31530Y-32204D02*
X31530Y-32397D01*
X31963Y-32204D02*
X31530Y-32204D01*
X31963Y-31704D02*
X31963Y-31897D01*
X31963Y-31897D02*
X31530Y-31897D01*
X31530Y-31704D02*
X31530Y-31897D01*
X31963Y-31704D02*
X31530Y-31704D01*
X31215Y-31426D02*
X31215Y-35674D01*
X34285Y-35674D02*
X34285Y-31426D01*
X34285Y-31426D02*
X31215Y-31426D01*
X33498Y-35494D02*
X33498Y-31606D01*
X33498Y-31606D02*
X33301Y-31606D01*
X33301Y-31606D02*
X32002Y-31606D01*
X32002Y-31606D02*
X32002Y-35494D01*
X33301Y-35494D02*
X33301Y-31606D01*
X32002Y-35494D02*
X33301Y-35494D01*
X33301Y-35494D02*
X33498Y-35494D01*
X31215Y-35674D02*
X34285Y-35674D01*
G54D13*
X27569Y-32742D02*
X27749Y-32562D01*
X27749Y-32562D02*
X28139Y-32952D01*
X27958Y-33132D02*
X28139Y-32952D01*
X27569Y-32742D02*
X27958Y-33132D01*
X27159Y-33153D02*
X27340Y-32972D01*
X27340Y-32972D02*
X27729Y-33361D01*
X27548Y-33542D02*
X27729Y-33361D01*
X27159Y-33153D02*
X27548Y-33542D01*
X27456Y-32967D02*
X27567Y-32856D01*
X27567Y-32856D02*
X27844Y-33133D01*
X27733Y-33244D02*
X27844Y-33133D01*
X27456Y-32967D02*
X27733Y-33244D01*
G54D10*
X27713Y-33341D02*
X27941Y-33113D01*
X27359Y-32987D02*
X27587Y-32759D01*
G54D14*
X27375Y-33872D02*
X28472Y-32775D01*
X28472Y-32775D02*
X27925Y-32228D01*
X27925Y-32228D02*
X26828Y-33325D01*
X26828Y-33325D02*
X27375Y-33872D01*
G54D13*
X32235Y-24121D02*
X32235Y-24416D01*
X32235Y-24416D02*
X31665Y-24416D01*
X31665Y-24121D02*
X31665Y-24416D01*
X32235Y-24121D02*
X31665Y-24121D01*
X32235Y-24690D02*
X32235Y-24985D01*
X32235Y-24985D02*
X31665Y-24985D01*
X31665Y-24690D02*
X31665Y-24985D01*
X32235Y-24690D02*
X31665Y-24690D01*
X32107Y-24511D02*
X32107Y-24589D01*
X32107Y-24589D02*
X31793Y-24589D01*
X31793Y-24511D02*
X31793Y-24589D01*
X32107Y-24511D02*
X31793Y-24511D01*
G54D14*
X31563Y-23774D02*
X31563Y-25326D01*
X32337Y-25326D02*
X32337Y-23774D01*
X32337Y-23774D02*
X31563Y-23774D01*
G54D15*
X31691Y-24400D02*
X31691Y-24700D01*
X32209Y-24410D02*
X32209Y-24700D01*
G54D14*
X31563Y-25326D02*
X32337Y-25326D01*
G54D13*
X33835Y-23880D02*
X33835Y-24176D01*
X33835Y-24176D02*
X33166Y-24176D01*
X33166Y-23880D02*
X33166Y-24176D01*
X33835Y-23880D02*
X33166Y-23880D01*
X33834Y-24924D02*
X33834Y-25220D01*
X33834Y-25220D02*
X33165Y-25220D01*
X33165Y-24924D02*
X33165Y-25220D01*
X33834Y-24924D02*
X33165Y-24924D01*
X33657Y-24472D02*
X33657Y-24628D01*
X33657Y-24628D02*
X33343Y-24628D01*
X33343Y-24472D02*
X33343Y-24628D01*
X33657Y-24472D02*
X33343Y-24472D01*
G54D14*
X33113Y-23577D02*
X33113Y-25523D01*
X33887Y-25523D02*
X33887Y-23577D01*
X33887Y-23577D02*
X33113Y-23577D01*
X33113Y-25523D02*
X33887Y-25523D01*
G54D15*
X33191Y-24171D02*
X33191Y-24929D01*
X33809Y-24171D02*
X33809Y-24929D01*
G54D13*
X32321Y-19715D02*
X32616Y-19715D01*
X32616Y-19715D02*
X32616Y-20285D01*
X32321Y-20285D02*
X32616Y-20285D01*
X32321Y-19715D02*
X32321Y-20285D01*
X32890Y-19715D02*
X33185Y-19715D01*
X33185Y-19715D02*
X33185Y-20285D01*
X32890Y-20285D02*
X33185Y-20285D01*
X32890Y-19715D02*
X32890Y-20285D01*
X32711Y-19843D02*
X32789Y-19843D01*
X32789Y-19843D02*
X32789Y-20157D01*
X32711Y-20157D02*
X32789Y-20157D01*
X32711Y-19843D02*
X32711Y-20157D01*
G54D14*
X31974Y-20387D02*
X33526Y-20387D01*
X33526Y-19613D02*
X31974Y-19613D01*
X31974Y-19613D02*
X31974Y-20387D01*
G54D15*
X32600Y-20259D02*
X32900Y-20259D01*
X32610Y-19741D02*
X32900Y-19741D01*
G54D14*
X33526Y-20387D02*
X33526Y-19613D01*
G54D16*
X32750Y-30765D02*
X32750Y-30135D01*
X33065Y-30450D02*
X32435Y-30450D01*
X33260Y-30450D02*
X33250Y-30549D01*
X33221Y-30644D01*
X33174Y-30732D01*
X33111Y-30809D01*
X33035Y-30872D01*
X32947Y-30920D01*
X32852Y-30949D01*
X32753Y-30959D01*
X32655Y-30950D01*
X32559Y-30922D01*
X32471Y-30876D01*
X32394Y-30814D01*
X32330Y-30738D01*
X32282Y-30650D01*
X32252Y-30556D01*
X32241Y-30457D01*
X32249Y-30358D01*
X32276Y-30263D01*
X32322Y-30174D01*
X32384Y-30096D01*
X32459Y-30032D01*
X32546Y-29983D01*
X32641Y-29952D01*
X32740Y-29941D01*
X32838Y-29948D01*
X32934Y-29975D01*
X33023Y-30020D01*
X33101Y-30081D01*
X33166Y-30157D01*
X33215Y-30243D01*
X33247Y-30338D01*
X33259Y-30436D01*
X33260Y-30450D01*
X33439Y-30450D02*
X33439Y-29741D01*
X33439Y-29741D02*
X31963Y-29741D01*
X31963Y-29741D02*
X31963Y-31159D01*
X31963Y-31159D02*
X33439Y-31159D01*
X33439Y-31159D02*
X33439Y-30450D01*
X34985Y-27850D02*
X35615Y-27850D01*
X35300Y-28165D02*
X35300Y-27535D01*
X35810Y-27850D02*
X35800Y-27949D01*
X35771Y-28044D01*
X35724Y-28132D01*
X35661Y-28209D01*
X35585Y-28272D01*
X35497Y-28320D01*
X35402Y-28349D01*
X35303Y-28359D01*
X35205Y-28350D01*
X35109Y-28322D01*
X35021Y-28276D01*
X34944Y-28214D01*
X34880Y-28138D01*
X34832Y-28050D01*
X34802Y-27956D01*
X34791Y-27857D01*
X34799Y-27758D01*
X34826Y-27663D01*
X34872Y-27574D01*
X34934Y-27496D01*
X35009Y-27432D01*
X35096Y-27383D01*
X35191Y-27352D01*
X35290Y-27341D01*
X35388Y-27348D01*
X35484Y-27375D01*
X35573Y-27420D01*
X35651Y-27481D01*
X35716Y-27557D01*
X35765Y-27643D01*
X35797Y-27738D01*
X35809Y-27836D01*
X35810Y-27850D01*
X35300Y-28539D02*
X36009Y-28539D01*
X36009Y-28539D02*
X36009Y-27063D01*
X36009Y-27063D02*
X34591Y-27063D01*
X34591Y-27063D02*
X34591Y-28539D01*
X34591Y-28539D02*
X35300Y-28539D01*
X29835Y-27850D02*
X30465Y-27850D01*
X30150Y-28165D02*
X30150Y-27535D01*
X30660Y-27850D02*
X30650Y-27949D01*
X30621Y-28044D01*
X30574Y-28132D01*
X30511Y-28209D01*
X30435Y-28272D01*
X30347Y-28320D01*
X30252Y-28349D01*
X30153Y-28359D01*
X30055Y-28350D01*
X29959Y-28322D01*
X29871Y-28276D01*
X29794Y-28214D01*
X29730Y-28138D01*
X29682Y-28050D01*
X29652Y-27956D01*
X29641Y-27857D01*
X29649Y-27758D01*
X29676Y-27663D01*
X29722Y-27574D01*
X29784Y-27496D01*
X29859Y-27432D01*
X29946Y-27383D01*
X30041Y-27352D01*
X30140Y-27341D01*
X30238Y-27348D01*
X30334Y-27375D01*
X30423Y-27420D01*
X30501Y-27481D01*
X30566Y-27557D01*
X30615Y-27643D01*
X30647Y-27738D01*
X30659Y-27836D01*
X30660Y-27850D01*
X30150Y-28539D02*
X30859Y-28539D01*
X30859Y-28539D02*
X30859Y-27063D01*
X30859Y-27063D02*
X29441Y-27063D01*
X29441Y-27063D02*
X29441Y-28539D01*
X29441Y-28539D02*
X30150Y-28539D01*
X29750Y-21750D02*
X29750Y-22750D01*
X29750Y-22750D02*
X35750Y-22750D01*
X35750Y-22750D02*
X35750Y-21750D01*
X35750Y-21750D02*
X29750Y-21750D01*
X30750Y-21750D02*
X30750Y-22750D01*
X27239Y-26118D02*
X27239Y-26118D01*
X26532Y-25411D02*
X27239Y-26118D01*
X27239Y-26118D02*
X27239Y-26118D01*
X27239Y-26118D02*
X30068Y-23289D01*
X30068Y-23289D02*
X29361Y-22582D01*
X29361Y-22582D02*
X26532Y-25411D01*
X27239Y-24704D02*
X27946Y-25411D01*
X38918Y-25411D02*
X38918Y-25411D01*
X38211Y-26118D02*
X38918Y-25411D01*
X38918Y-25411D02*
X38918Y-25411D01*
X38918Y-25411D02*
X36089Y-22582D01*
X36089Y-22582D02*
X35382Y-23289D01*
X35382Y-23289D02*
X38211Y-26118D01*
X37504Y-25411D02*
X38211Y-24704D01*
G54D11*
X33140Y-26162D02*
X33140Y-25762D01*
X32969Y-26143D02*
X32912Y-26162D01*
X32816Y-26162D01*
X32778Y-26143D01*
X32759Y-26124D01*
X32740Y-26086D01*
X32740Y-26048D01*
X32759Y-26010D01*
X32778Y-25990D01*
X32816Y-25971D01*
X32893Y-25952D01*
X32931Y-25933D01*
X32950Y-25914D01*
X32969Y-25876D01*
X32969Y-25838D01*
X32950Y-25800D01*
X32931Y-25781D01*
X32893Y-25762D01*
X32797Y-25762D01*
X32740Y-25781D01*
X32569Y-26162D02*
X32569Y-25762D01*
X32416Y-25762D01*
X32378Y-25781D01*
X32359Y-25800D01*
X32340Y-25838D01*
X32340Y-25895D01*
X32359Y-25933D01*
X32378Y-25952D01*
X32416Y-25971D01*
X32569Y-25971D01*
X28061Y-34018D02*
X28021Y-33788D01*
X28223Y-33856D02*
X27940Y-33573D01*
X27832Y-33681D01*
X27819Y-33722D01*
X27819Y-33748D01*
X27832Y-33789D01*
X27872Y-33829D01*
X27913Y-33843D01*
X27940Y-33843D01*
X27980Y-33829D01*
X28088Y-33721D01*
X27698Y-33869D02*
X27671Y-33869D01*
X27631Y-33883D01*
X27563Y-33951D01*
X27549Y-33991D01*
X27549Y-34018D01*
X27563Y-34058D01*
X27590Y-34085D01*
X27643Y-34112D01*
X27967Y-34112D01*
X27792Y-34287D01*
X31166Y-24174D02*
X31185Y-24193D01*
X31242Y-24212D01*
X31280Y-24212D01*
X31338Y-24193D01*
X31376Y-24155D01*
X31395Y-24117D01*
X31414Y-24040D01*
X31414Y-23983D01*
X31395Y-23907D01*
X31376Y-23869D01*
X31338Y-23831D01*
X31280Y-23812D01*
X31242Y-23812D01*
X31185Y-23831D01*
X31166Y-23850D01*
X30785Y-24212D02*
X31014Y-24212D01*
X30900Y-24212D02*
X30900Y-23812D01*
X30938Y-23869D01*
X30976Y-23907D01*
X31014Y-23926D01*
X34466Y-24024D02*
X34485Y-24043D01*
X34542Y-24062D01*
X34580Y-24062D01*
X34638Y-24043D01*
X34676Y-24005D01*
X34695Y-23967D01*
X34714Y-23890D01*
X34714Y-23833D01*
X34695Y-23757D01*
X34676Y-23719D01*
X34638Y-23681D01*
X34580Y-23662D01*
X34542Y-23662D01*
X34485Y-23681D01*
X34466Y-23700D01*
X34314Y-23700D02*
X34295Y-23681D01*
X34257Y-23662D01*
X34161Y-23662D01*
X34123Y-23681D01*
X34104Y-23700D01*
X34085Y-23738D01*
X34085Y-23776D01*
X34104Y-23833D01*
X34333Y-24062D01*
X34085Y-24062D01*
X31566Y-20124D02*
X31585Y-20143D01*
X31642Y-20162D01*
X31680Y-20162D01*
X31738Y-20143D01*
X31776Y-20105D01*
X31795Y-20067D01*
X31814Y-19990D01*
X31814Y-19933D01*
X31795Y-19857D01*
X31776Y-19819D01*
X31738Y-19781D01*
X31680Y-19762D01*
X31642Y-19762D01*
X31585Y-19781D01*
X31566Y-19800D01*
X31433Y-19762D02*
X31185Y-19762D01*
X31319Y-19914D01*
X31261Y-19914D01*
X31223Y-19933D01*
X31204Y-19952D01*
X31185Y-19990D01*
X31185Y-20086D01*
X31204Y-20124D01*
X31223Y-20143D01*
X31261Y-20162D01*
X31376Y-20162D01*
X31414Y-20143D01*
X31433Y-20124D01*
X33140Y-23202D02*
X33274Y-23202D01*
X33274Y-23412D02*
X33274Y-23012D01*
X33083Y-23012D01*
X32988Y-23012D02*
X32759Y-23012D01*
X32874Y-23412D02*
X32874Y-23012D01*
X32626Y-23412D02*
X32626Y-23012D01*
X32531Y-23012D01*
X32473Y-23031D01*
X32435Y-23069D01*
X32416Y-23107D01*
X32397Y-23183D01*
X32397Y-23240D01*
X32416Y-23317D01*
X32435Y-23355D01*
X32473Y-23393D01*
X32531Y-23412D01*
X32626Y-23412D01*
X32226Y-23412D02*
X32226Y-23012D01*
%LPC*%
G54D17*
X33250Y-26850D03*
G54D18*
X32250Y-26850D03*
X33250Y-27850D03*
X32250Y-27850D03*
X33250Y-28850D03*
X32250Y-28850D03*
G54D19*
X36650Y-26827D03*
X37150Y-26827D03*
X37650Y-26827D03*
X38150Y-26827D03*
X38650Y-26827D03*
X39150Y-26827D03*
X39650Y-26827D03*
X40150Y-26827D03*
X40150Y-28873D03*
X39650Y-28873D03*
X39150Y-28873D03*
X38650Y-28873D03*
X38150Y-28873D03*
X37650Y-28873D03*
X37150Y-28873D03*
X36650Y-28873D03*
X28800Y-28873D03*
X28300Y-28873D03*
X27800Y-28873D03*
X27300Y-28873D03*
X26800Y-28873D03*
X26300Y-28873D03*
X25800Y-28873D03*
X25300Y-28873D03*
X25300Y-26827D03*
X25800Y-26827D03*
X26300Y-26827D03*
X26800Y-26827D03*
X27300Y-26827D03*
X27800Y-26827D03*
X28300Y-26827D03*
X28800Y-26827D03*
G54D20*
X33773Y-31800D03*
X33773Y-32300D03*
X33773Y-32800D03*
X33773Y-33300D03*
X33773Y-33800D03*
X33773Y-34300D03*
X33773Y-34800D03*
X33773Y-35300D03*
X31727Y-35300D03*
X31727Y-34800D03*
X31727Y-34300D03*
X31727Y-33800D03*
X31727Y-33300D03*
X31727Y-32800D03*
X31727Y-32300D03*
X31727Y-31800D03*
G54D10*
G36*
X27414Y-33759D02*
X26941Y-33286D01*
X27358Y-32869D01*
X27831Y-33342D01*
X27414Y-33759D01*
X27414Y-33759D01*
G37*
G36*
X27942Y-33231D02*
X27469Y-32758D01*
X27886Y-32341D01*
X28359Y-32814D01*
X27942Y-33231D01*
X27942Y-33231D01*
G37*
G54D21*
X30050Y-25150D03*
X35450Y-25150D03*
X30050Y-30550D03*
X35450Y-30550D03*
G54D22*
X31950Y-24176D03*
X31950Y-24924D03*
G54D23*
X33500Y-23999D03*
X33500Y-25101D03*
G54D24*
X32376Y-20000D03*
X33124Y-20000D03*
G54D25*
X32041Y-30844D03*
X32041Y-30056D03*
G54D26*
X33321Y-30450D03*
G54D25*
X34906Y-27141D03*
X35694Y-27141D03*
G54D27*
X35300Y-28421D03*
G54D25*
X29756Y-27141D03*
X30544Y-27141D03*
G54D27*
X30150Y-28421D03*
G54D28*
X30250Y-22250D03*
G54D29*
X31250Y-22250D03*
X32250Y-22250D03*
X33250Y-22250D03*
X34250Y-22250D03*
X35250Y-22250D03*
G54D10*
G36*
X27239Y-25856D02*
X26794Y-25411D01*
X27239Y-24966D01*
X27684Y-25411D01*
X27239Y-25856D01*
X27239Y-25856D01*
G37*
G54D29*
X27946Y-24704D03*
X28654Y-23996D03*
X29361Y-23289D03*
G54D10*
G36*
X38656Y-25411D02*
X38211Y-25856D01*
X37766Y-25411D01*
X38211Y-24966D01*
X38656Y-25411D01*
X38656Y-25411D01*
G37*
G54D29*
X37504Y-24704D03*
X36796Y-23996D03*
X36089Y-23289D03*
M02*
