G04 (created by PCBNEW-RS274X (2012-jan-04)-stable) date Thu 24 May 2012 04:50:18 PM CEST*
G01*
G70*
G90*
%MOIN*%
G04 Gerber Fmt 3.4, Leading zero omitted, Abs format*
%FSLAX34Y34*%
G04 APERTURE LIST*
%ADD10C,0.006000*%
%ADD11C,0.165400*%
%ADD12R,0.055000X0.055000*%
%ADD13C,0.055000*%
%ADD14R,0.060000X0.060000*%
%ADD15C,0.060000*%
%ADD16R,0.023600X0.086600*%
%ADD17R,0.086600X0.023600*%
%ADD18R,0.051100X0.059000*%
%ADD19R,0.062900X0.070800*%
%ADD20R,0.047200X0.047200*%
%ADD21R,0.059100X0.063000*%
%ADD22R,0.063000X0.059100*%
G04 APERTURE END LIST*
G54D10*
G54D11*
X35450Y-25150D03*
G54D12*
X33750Y-23250D03*
G54D13*
X32750Y-23250D03*
X31750Y-23250D03*
G54D11*
X35450Y-30550D03*
X30050Y-25150D03*
X30050Y-30550D03*
G54D14*
X33250Y-26850D03*
G54D15*
X32250Y-26850D03*
X33250Y-27850D03*
X32250Y-27850D03*
X33250Y-28850D03*
X32250Y-28850D03*
G54D16*
X36650Y-26827D03*
X37150Y-26827D03*
X37650Y-26827D03*
X38150Y-26827D03*
X38650Y-26827D03*
X39150Y-26827D03*
X39650Y-26827D03*
X40150Y-26827D03*
X40150Y-28873D03*
X39650Y-28873D03*
X39150Y-28873D03*
X38650Y-28873D03*
X38150Y-28873D03*
X37650Y-28873D03*
X37150Y-28873D03*
X36650Y-28873D03*
X28800Y-28873D03*
X28300Y-28873D03*
X27800Y-28873D03*
X27300Y-28873D03*
X26800Y-28873D03*
X26300Y-28873D03*
X25800Y-28873D03*
X25300Y-28873D03*
X25300Y-26827D03*
X25800Y-26827D03*
X26300Y-26827D03*
X26800Y-26827D03*
X27300Y-26827D03*
X27800Y-26827D03*
X28300Y-26827D03*
X28800Y-26827D03*
G54D17*
X33773Y-31800D03*
X33773Y-32300D03*
X33773Y-32800D03*
X33773Y-33300D03*
X33773Y-33800D03*
X33773Y-34300D03*
X33773Y-34800D03*
X33773Y-35300D03*
X31727Y-35300D03*
X31727Y-34800D03*
X31727Y-34300D03*
X31727Y-33800D03*
X31727Y-33300D03*
X31727Y-32800D03*
X31727Y-32300D03*
X31727Y-31800D03*
G54D10*
G36*
X27414Y-33703D02*
X26997Y-33286D01*
X27358Y-32925D01*
X27775Y-33342D01*
X27414Y-33703D01*
X27414Y-33703D01*
G37*
G36*
X27942Y-33175D02*
X27525Y-32758D01*
X27886Y-32397D01*
X28303Y-32814D01*
X27942Y-33175D01*
X27942Y-33175D01*
G37*
G54D18*
X32376Y-25100D03*
X33124Y-25100D03*
G54D19*
X32199Y-24150D03*
X33301Y-24150D03*
G54D18*
X32376Y-20000D03*
X33124Y-20000D03*
G54D20*
X32041Y-30844D03*
X32041Y-30056D03*
G54D21*
X33321Y-30450D03*
G54D20*
X34906Y-27141D03*
X35694Y-27141D03*
G54D22*
X35300Y-28421D03*
G54D20*
X29756Y-27141D03*
X30544Y-27141D03*
G54D22*
X30150Y-28421D03*
G54D12*
X30250Y-22250D03*
G54D13*
X31250Y-22250D03*
X32250Y-22250D03*
X33250Y-22250D03*
X34250Y-22250D03*
X35250Y-22250D03*
G54D10*
G36*
X27239Y-25800D02*
X26850Y-25411D01*
X27239Y-25022D01*
X27628Y-25411D01*
X27239Y-25800D01*
X27239Y-25800D01*
G37*
G54D13*
X27946Y-24704D03*
X28654Y-23996D03*
X29361Y-23289D03*
G54D10*
G36*
X38600Y-25411D02*
X38211Y-25800D01*
X37822Y-25411D01*
X38211Y-25022D01*
X38600Y-25411D01*
X38600Y-25411D01*
G37*
G54D13*
X37504Y-24704D03*
X36796Y-23996D03*
X36089Y-23289D03*
M02*
