G04 (created by PCBNEW (2010-04-21 BZR 23xx)-stable) date Sun 05 Sep 2010 11:36:21 PM CEST*
G01*
G70*
G90*
%MOIN*%
G04 Gerber Fmt 3.4, Leading zero omitted, Abs format*
%FSLAX34Y34*%
G04 APERTURE LIST*
%ADD10C,0.001000*%
%ADD11C,0.015000*%
%ADD12C,0.008000*%
G04 APERTURE END LIST*
G54D10*
G54D11*
X32850Y-19550D02*
X32110Y-19583D01*
X31374Y-19680D01*
X30651Y-19840D01*
X29943Y-20063D01*
X29258Y-20347D01*
X28601Y-20689D01*
X27975Y-21088D01*
X27387Y-21539D01*
X26840Y-22040D01*
X26339Y-22587D01*
X25888Y-23175D01*
X25489Y-23801D01*
X25147Y-24458D01*
X24863Y-25143D01*
X24640Y-25851D01*
X24480Y-26574D01*
X24383Y-27310D01*
X24350Y-28050D01*
X24350Y-28050D02*
X24383Y-28790D01*
X24480Y-29526D01*
X24640Y-30249D01*
X24863Y-30957D01*
X25147Y-31642D01*
X25489Y-32299D01*
X25888Y-32925D01*
X26339Y-33513D01*
X26840Y-34060D01*
X27387Y-34561D01*
X27975Y-35012D01*
X28601Y-35411D01*
X29258Y-35753D01*
X29943Y-36037D01*
X30651Y-36260D01*
X31374Y-36420D01*
X32110Y-36517D01*
X32850Y-36550D01*
X32850Y-36550D02*
X33590Y-36517D01*
X34326Y-36420D01*
X35049Y-36260D01*
X35757Y-36037D01*
X36442Y-35753D01*
X37100Y-35411D01*
X37725Y-35012D01*
X38313Y-34561D01*
X38860Y-34060D01*
X39361Y-33513D01*
X39812Y-32925D01*
X40211Y-32299D01*
X40553Y-31642D01*
X40837Y-30957D01*
X41060Y-30249D01*
X41220Y-29526D01*
X41317Y-28790D01*
X41350Y-28050D01*
X41350Y-28050D02*
X41317Y-27310D01*
X41220Y-26574D01*
X41060Y-25851D01*
X40837Y-25143D01*
X40553Y-24458D01*
X40211Y-23801D01*
X39812Y-23175D01*
X39361Y-22587D01*
X38860Y-22040D01*
X38313Y-21539D01*
X37725Y-21088D01*
X37100Y-20689D01*
X36442Y-20347D01*
X35757Y-20063D01*
X35049Y-19840D01*
X34326Y-19680D01*
X33590Y-19583D01*
X32850Y-19550D01*
G54D10*
X25304Y-27414D02*
X25554Y-27664D01*
X25554Y-27414D02*
X25304Y-27664D01*
X25886Y-27591D02*
X26136Y-27841D01*
X26136Y-27591D02*
X25886Y-27841D01*
X26652Y-27507D02*
X26902Y-27757D01*
X26902Y-27507D02*
X26652Y-27757D01*
X26777Y-24258D02*
X27027Y-24508D01*
X27027Y-24258D02*
X26777Y-24508D01*
X26787Y-29170D02*
X27037Y-29420D01*
X27037Y-29170D02*
X26787Y-29420D01*
X26992Y-26229D02*
X27242Y-26479D01*
X27242Y-26229D02*
X26992Y-26479D01*
X27137Y-32941D02*
X27387Y-33191D01*
X27387Y-32941D02*
X27137Y-33191D01*
X27234Y-22006D02*
X27484Y-22256D01*
X27484Y-22006D02*
X27234Y-22256D01*
X27834Y-32843D02*
X28084Y-33093D01*
X28084Y-32843D02*
X27834Y-33093D01*
X28695Y-29840D02*
X28945Y-30090D01*
X28945Y-29840D02*
X28695Y-30090D01*
X29774Y-35389D02*
X30024Y-35639D01*
X30024Y-35389D02*
X29774Y-35639D01*
X29816Y-33784D02*
X30066Y-34034D01*
X30066Y-33784D02*
X29816Y-34034D01*
X30215Y-30463D02*
X30465Y-30713D01*
X30465Y-30463D02*
X30215Y-30713D01*
X30294Y-25859D02*
X30544Y-26109D01*
X30544Y-25859D02*
X30294Y-26109D01*
X30904Y-32418D02*
X31154Y-32668D01*
X31154Y-32418D02*
X30904Y-32668D01*
X31016Y-30323D02*
X31266Y-30573D01*
X31266Y-30323D02*
X31016Y-30573D01*
X31529Y-26728D02*
X31779Y-26978D01*
X31779Y-26728D02*
X31529Y-26978D01*
X31633Y-28633D02*
X31883Y-28883D01*
X31883Y-28633D02*
X31633Y-28883D01*
X31681Y-32687D02*
X31931Y-32937D01*
X31931Y-32687D02*
X31681Y-32937D01*
X32408Y-26550D02*
X32658Y-26800D01*
X32658Y-26550D02*
X32408Y-26800D01*
X32601Y-28191D02*
X32851Y-28441D01*
X32851Y-28191D02*
X32601Y-28441D01*
X32667Y-25085D02*
X32917Y-25335D01*
X32917Y-25085D02*
X32667Y-25335D01*
X32985Y-34479D02*
X33235Y-34729D01*
X33235Y-34479D02*
X32985Y-34729D01*
X33119Y-20423D02*
X33369Y-20673D01*
X33369Y-20423D02*
X33119Y-20673D01*
X33175Y-22011D02*
X33425Y-22261D01*
X33425Y-22011D02*
X33175Y-22261D01*
X33314Y-26656D02*
X33564Y-26906D01*
X33564Y-26656D02*
X33314Y-26906D01*
X33912Y-30767D02*
X34162Y-31017D01*
X34162Y-30767D02*
X33912Y-31017D01*
X34151Y-26127D02*
X34401Y-26377D01*
X34401Y-26127D02*
X34151Y-26377D01*
X34270Y-29880D02*
X34520Y-30130D01*
X34520Y-29880D02*
X34270Y-30130D01*
X34301Y-34495D02*
X34551Y-34745D01*
X34551Y-34495D02*
X34301Y-34745D01*
X34638Y-25750D02*
X34888Y-26000D01*
X34888Y-25750D02*
X34638Y-26000D01*
X34650Y-25178D02*
X34900Y-25428D01*
X34900Y-25178D02*
X34650Y-25428D01*
X34874Y-29234D02*
X35124Y-29484D01*
X35124Y-29234D02*
X34874Y-29484D01*
X35098Y-29921D02*
X35348Y-30171D01*
X35348Y-29921D02*
X35098Y-30171D01*
X35268Y-33103D02*
X35518Y-33353D01*
X35518Y-33103D02*
X35268Y-33353D01*
X35357Y-31722D02*
X35607Y-31972D01*
X35607Y-31722D02*
X35357Y-31972D01*
X35435Y-30278D02*
X35685Y-30528D01*
X35685Y-30278D02*
X35435Y-30528D01*
X35452Y-26402D02*
X35702Y-26652D01*
X35702Y-26402D02*
X35452Y-26652D01*
X36824Y-30795D02*
X37074Y-31045D01*
X37074Y-30795D02*
X36824Y-31045D01*
X37043Y-27823D02*
X37293Y-28073D01*
X37293Y-27823D02*
X37043Y-28073D01*
X37084Y-28765D02*
X37334Y-29015D01*
X37334Y-28765D02*
X37084Y-29015D01*
X37645Y-33043D02*
X37895Y-33293D01*
X37895Y-33043D02*
X37645Y-33293D01*
X38151Y-30739D02*
X38401Y-30989D01*
X38401Y-30739D02*
X38151Y-30989D01*
X38391Y-28708D02*
X38641Y-28958D01*
X38641Y-28708D02*
X38391Y-28958D01*
X38412Y-22390D02*
X38662Y-22640D01*
X38662Y-22390D02*
X38412Y-22640D01*
X38437Y-29637D02*
X38687Y-29887D01*
X38687Y-29637D02*
X38437Y-29887D01*
X38736Y-29005D02*
X38986Y-29255D01*
X38986Y-29005D02*
X38736Y-29255D01*
X38754Y-28066D02*
X39004Y-28316D01*
X39004Y-28066D02*
X38754Y-28316D01*
X39754Y-27545D02*
X40004Y-27795D01*
X40004Y-27545D02*
X39754Y-27795D01*
X29460Y-25400D02*
X29456Y-25431D01*
X29447Y-25460D01*
X29433Y-25488D01*
X29413Y-25512D01*
X29389Y-25532D01*
X29362Y-25547D01*
X29332Y-25556D01*
X29301Y-25559D01*
X29271Y-25557D01*
X29241Y-25548D01*
X29213Y-25533D01*
X29189Y-25514D01*
X29168Y-25490D01*
X29153Y-25463D01*
X29144Y-25433D01*
X29141Y-25402D01*
X29143Y-25372D01*
X29152Y-25342D01*
X29166Y-25314D01*
X29185Y-25289D01*
X29209Y-25269D01*
X29236Y-25254D01*
X29266Y-25244D01*
X29297Y-25241D01*
X29327Y-25243D01*
X29357Y-25251D01*
X29385Y-25265D01*
X29410Y-25285D01*
X29430Y-25308D01*
X29446Y-25335D01*
X29456Y-25365D01*
X29459Y-25396D01*
X29460Y-25400D01*
X29460Y-26400D02*
X29456Y-26431D01*
X29447Y-26460D01*
X29433Y-26488D01*
X29413Y-26512D01*
X29389Y-26532D01*
X29362Y-26547D01*
X29332Y-26556D01*
X29301Y-26559D01*
X29271Y-26557D01*
X29241Y-26548D01*
X29213Y-26533D01*
X29189Y-26514D01*
X29168Y-26490D01*
X29153Y-26463D01*
X29144Y-26433D01*
X29141Y-26402D01*
X29143Y-26372D01*
X29152Y-26342D01*
X29166Y-26314D01*
X29185Y-26289D01*
X29209Y-26269D01*
X29236Y-26254D01*
X29266Y-26244D01*
X29297Y-26241D01*
X29327Y-26243D01*
X29357Y-26251D01*
X29385Y-26265D01*
X29410Y-26285D01*
X29430Y-26308D01*
X29446Y-26335D01*
X29456Y-26365D01*
X29459Y-26396D01*
X29460Y-26400D01*
X29460Y-27400D02*
X29456Y-27431D01*
X29447Y-27460D01*
X29433Y-27488D01*
X29413Y-27512D01*
X29389Y-27532D01*
X29362Y-27547D01*
X29332Y-27556D01*
X29301Y-27559D01*
X29271Y-27557D01*
X29241Y-27548D01*
X29213Y-27533D01*
X29189Y-27514D01*
X29168Y-27490D01*
X29153Y-27463D01*
X29144Y-27433D01*
X29141Y-27402D01*
X29143Y-27372D01*
X29152Y-27342D01*
X29166Y-27314D01*
X29185Y-27289D01*
X29209Y-27269D01*
X29236Y-27254D01*
X29266Y-27244D01*
X29297Y-27241D01*
X29327Y-27243D01*
X29357Y-27251D01*
X29385Y-27265D01*
X29410Y-27285D01*
X29430Y-27308D01*
X29446Y-27335D01*
X29456Y-27365D01*
X29459Y-27396D01*
X29460Y-27400D01*
X29460Y-28400D02*
X29456Y-28431D01*
X29447Y-28460D01*
X29433Y-28488D01*
X29413Y-28512D01*
X29389Y-28532D01*
X29362Y-28547D01*
X29332Y-28556D01*
X29301Y-28559D01*
X29271Y-28557D01*
X29241Y-28548D01*
X29213Y-28533D01*
X29189Y-28514D01*
X29168Y-28490D01*
X29153Y-28463D01*
X29144Y-28433D01*
X29141Y-28402D01*
X29143Y-28372D01*
X29152Y-28342D01*
X29166Y-28314D01*
X29185Y-28289D01*
X29209Y-28269D01*
X29236Y-28254D01*
X29266Y-28244D01*
X29297Y-28241D01*
X29327Y-28243D01*
X29357Y-28251D01*
X29385Y-28265D01*
X29410Y-28285D01*
X29430Y-28308D01*
X29446Y-28335D01*
X29456Y-28365D01*
X29459Y-28396D01*
X29460Y-28400D01*
X29460Y-29400D02*
X29456Y-29431D01*
X29447Y-29460D01*
X29433Y-29488D01*
X29413Y-29512D01*
X29389Y-29532D01*
X29362Y-29547D01*
X29332Y-29556D01*
X29301Y-29559D01*
X29271Y-29557D01*
X29241Y-29548D01*
X29213Y-29533D01*
X29189Y-29514D01*
X29168Y-29490D01*
X29153Y-29463D01*
X29144Y-29433D01*
X29141Y-29402D01*
X29143Y-29372D01*
X29152Y-29342D01*
X29166Y-29314D01*
X29185Y-29289D01*
X29209Y-29269D01*
X29236Y-29254D01*
X29266Y-29244D01*
X29297Y-29241D01*
X29327Y-29243D01*
X29357Y-29251D01*
X29385Y-29265D01*
X29410Y-29285D01*
X29430Y-29308D01*
X29446Y-29335D01*
X29456Y-29365D01*
X29459Y-29396D01*
X29460Y-29400D01*
X29460Y-30400D02*
X29456Y-30431D01*
X29447Y-30460D01*
X29433Y-30488D01*
X29413Y-30512D01*
X29389Y-30532D01*
X29362Y-30547D01*
X29332Y-30556D01*
X29301Y-30559D01*
X29271Y-30557D01*
X29241Y-30548D01*
X29213Y-30533D01*
X29189Y-30514D01*
X29168Y-30490D01*
X29153Y-30463D01*
X29144Y-30433D01*
X29141Y-30402D01*
X29143Y-30372D01*
X29152Y-30342D01*
X29166Y-30314D01*
X29185Y-30289D01*
X29209Y-30269D01*
X29236Y-30254D01*
X29266Y-30244D01*
X29297Y-30241D01*
X29327Y-30243D01*
X29357Y-30251D01*
X29385Y-30265D01*
X29410Y-30285D01*
X29430Y-30308D01*
X29446Y-30335D01*
X29456Y-30365D01*
X29459Y-30396D01*
X29460Y-30400D01*
X29460Y-31400D02*
X29456Y-31431D01*
X29447Y-31460D01*
X29433Y-31488D01*
X29413Y-31512D01*
X29389Y-31532D01*
X29362Y-31547D01*
X29332Y-31556D01*
X29301Y-31559D01*
X29271Y-31557D01*
X29241Y-31548D01*
X29213Y-31533D01*
X29189Y-31514D01*
X29168Y-31490D01*
X29153Y-31463D01*
X29144Y-31433D01*
X29141Y-31402D01*
X29143Y-31372D01*
X29152Y-31342D01*
X29166Y-31314D01*
X29185Y-31289D01*
X29209Y-31269D01*
X29236Y-31254D01*
X29266Y-31244D01*
X29297Y-31241D01*
X29327Y-31243D01*
X29357Y-31251D01*
X29385Y-31265D01*
X29410Y-31285D01*
X29430Y-31308D01*
X29446Y-31335D01*
X29456Y-31365D01*
X29459Y-31396D01*
X29460Y-31400D01*
X29460Y-32400D02*
X29456Y-32431D01*
X29447Y-32460D01*
X29433Y-32488D01*
X29413Y-32512D01*
X29389Y-32532D01*
X29362Y-32547D01*
X29332Y-32556D01*
X29301Y-32559D01*
X29271Y-32557D01*
X29241Y-32548D01*
X29213Y-32533D01*
X29189Y-32514D01*
X29168Y-32490D01*
X29153Y-32463D01*
X29144Y-32433D01*
X29141Y-32402D01*
X29143Y-32372D01*
X29152Y-32342D01*
X29166Y-32314D01*
X29185Y-32289D01*
X29209Y-32269D01*
X29236Y-32254D01*
X29266Y-32244D01*
X29297Y-32241D01*
X29327Y-32243D01*
X29357Y-32251D01*
X29385Y-32265D01*
X29410Y-32285D01*
X29430Y-32308D01*
X29446Y-32335D01*
X29456Y-32365D01*
X29459Y-32396D01*
X29460Y-32400D01*
X30460Y-24400D02*
X30456Y-24431D01*
X30447Y-24460D01*
X30433Y-24488D01*
X30413Y-24512D01*
X30389Y-24532D01*
X30362Y-24547D01*
X30332Y-24556D01*
X30301Y-24559D01*
X30271Y-24557D01*
X30241Y-24548D01*
X30213Y-24533D01*
X30189Y-24514D01*
X30168Y-24490D01*
X30153Y-24463D01*
X30144Y-24433D01*
X30141Y-24402D01*
X30143Y-24372D01*
X30152Y-24342D01*
X30166Y-24314D01*
X30185Y-24289D01*
X30209Y-24269D01*
X30236Y-24254D01*
X30266Y-24244D01*
X30297Y-24241D01*
X30327Y-24243D01*
X30357Y-24251D01*
X30385Y-24265D01*
X30410Y-24285D01*
X30430Y-24308D01*
X30446Y-24335D01*
X30456Y-24365D01*
X30459Y-24396D01*
X30460Y-24400D01*
X31460Y-24400D02*
X31456Y-24431D01*
X31447Y-24460D01*
X31433Y-24488D01*
X31413Y-24512D01*
X31389Y-24532D01*
X31362Y-24547D01*
X31332Y-24556D01*
X31301Y-24559D01*
X31271Y-24557D01*
X31241Y-24548D01*
X31213Y-24533D01*
X31189Y-24514D01*
X31168Y-24490D01*
X31153Y-24463D01*
X31144Y-24433D01*
X31141Y-24402D01*
X31143Y-24372D01*
X31152Y-24342D01*
X31166Y-24314D01*
X31185Y-24289D01*
X31209Y-24269D01*
X31236Y-24254D01*
X31266Y-24244D01*
X31297Y-24241D01*
X31327Y-24243D01*
X31357Y-24251D01*
X31385Y-24265D01*
X31410Y-24285D01*
X31430Y-24308D01*
X31446Y-24335D01*
X31456Y-24365D01*
X31459Y-24396D01*
X31460Y-24400D01*
X32460Y-24400D02*
X32456Y-24431D01*
X32447Y-24460D01*
X32433Y-24488D01*
X32413Y-24512D01*
X32389Y-24532D01*
X32362Y-24547D01*
X32332Y-24556D01*
X32301Y-24559D01*
X32271Y-24557D01*
X32241Y-24548D01*
X32213Y-24533D01*
X32189Y-24514D01*
X32168Y-24490D01*
X32153Y-24463D01*
X32144Y-24433D01*
X32141Y-24402D01*
X32143Y-24372D01*
X32152Y-24342D01*
X32166Y-24314D01*
X32185Y-24289D01*
X32209Y-24269D01*
X32236Y-24254D01*
X32266Y-24244D01*
X32297Y-24241D01*
X32327Y-24243D01*
X32357Y-24251D01*
X32385Y-24265D01*
X32410Y-24285D01*
X32430Y-24308D01*
X32446Y-24335D01*
X32456Y-24365D01*
X32459Y-24396D01*
X32460Y-24400D01*
X33460Y-24400D02*
X33456Y-24431D01*
X33447Y-24460D01*
X33433Y-24488D01*
X33413Y-24512D01*
X33389Y-24532D01*
X33362Y-24547D01*
X33332Y-24556D01*
X33301Y-24559D01*
X33271Y-24557D01*
X33241Y-24548D01*
X33213Y-24533D01*
X33189Y-24514D01*
X33168Y-24490D01*
X33153Y-24463D01*
X33144Y-24433D01*
X33141Y-24402D01*
X33143Y-24372D01*
X33152Y-24342D01*
X33166Y-24314D01*
X33185Y-24289D01*
X33209Y-24269D01*
X33236Y-24254D01*
X33266Y-24244D01*
X33297Y-24241D01*
X33327Y-24243D01*
X33357Y-24251D01*
X33385Y-24265D01*
X33410Y-24285D01*
X33430Y-24308D01*
X33446Y-24335D01*
X33456Y-24365D01*
X33459Y-24396D01*
X33460Y-24400D01*
X34460Y-24400D02*
X34456Y-24431D01*
X34447Y-24460D01*
X34433Y-24488D01*
X34413Y-24512D01*
X34389Y-24532D01*
X34362Y-24547D01*
X34332Y-24556D01*
X34301Y-24559D01*
X34271Y-24557D01*
X34241Y-24548D01*
X34213Y-24533D01*
X34189Y-24514D01*
X34168Y-24490D01*
X34153Y-24463D01*
X34144Y-24433D01*
X34141Y-24402D01*
X34143Y-24372D01*
X34152Y-24342D01*
X34166Y-24314D01*
X34185Y-24289D01*
X34209Y-24269D01*
X34236Y-24254D01*
X34266Y-24244D01*
X34297Y-24241D01*
X34327Y-24243D01*
X34357Y-24251D01*
X34385Y-24265D01*
X34410Y-24285D01*
X34430Y-24308D01*
X34446Y-24335D01*
X34456Y-24365D01*
X34459Y-24396D01*
X34460Y-24400D01*
X35460Y-24400D02*
X35456Y-24431D01*
X35447Y-24460D01*
X35433Y-24488D01*
X35413Y-24512D01*
X35389Y-24532D01*
X35362Y-24547D01*
X35332Y-24556D01*
X35301Y-24559D01*
X35271Y-24557D01*
X35241Y-24548D01*
X35213Y-24533D01*
X35189Y-24514D01*
X35168Y-24490D01*
X35153Y-24463D01*
X35144Y-24433D01*
X35141Y-24402D01*
X35143Y-24372D01*
X35152Y-24342D01*
X35166Y-24314D01*
X35185Y-24289D01*
X35209Y-24269D01*
X35236Y-24254D01*
X35266Y-24244D01*
X35297Y-24241D01*
X35327Y-24243D01*
X35357Y-24251D01*
X35385Y-24265D01*
X35410Y-24285D01*
X35430Y-24308D01*
X35446Y-24335D01*
X35456Y-24365D01*
X35459Y-24396D01*
X35460Y-24400D01*
X36460Y-25400D02*
X36456Y-25431D01*
X36447Y-25460D01*
X36433Y-25488D01*
X36413Y-25512D01*
X36389Y-25532D01*
X36362Y-25547D01*
X36332Y-25556D01*
X36301Y-25559D01*
X36271Y-25557D01*
X36241Y-25548D01*
X36213Y-25533D01*
X36189Y-25514D01*
X36168Y-25490D01*
X36153Y-25463D01*
X36144Y-25433D01*
X36141Y-25402D01*
X36143Y-25372D01*
X36152Y-25342D01*
X36166Y-25314D01*
X36185Y-25289D01*
X36209Y-25269D01*
X36236Y-25254D01*
X36266Y-25244D01*
X36297Y-25241D01*
X36327Y-25243D01*
X36357Y-25251D01*
X36385Y-25265D01*
X36410Y-25285D01*
X36430Y-25308D01*
X36446Y-25335D01*
X36456Y-25365D01*
X36459Y-25396D01*
X36460Y-25400D01*
X36460Y-26400D02*
X36456Y-26431D01*
X36447Y-26460D01*
X36433Y-26488D01*
X36413Y-26512D01*
X36389Y-26532D01*
X36362Y-26547D01*
X36332Y-26556D01*
X36301Y-26559D01*
X36271Y-26557D01*
X36241Y-26548D01*
X36213Y-26533D01*
X36189Y-26514D01*
X36168Y-26490D01*
X36153Y-26463D01*
X36144Y-26433D01*
X36141Y-26402D01*
X36143Y-26372D01*
X36152Y-26342D01*
X36166Y-26314D01*
X36185Y-26289D01*
X36209Y-26269D01*
X36236Y-26254D01*
X36266Y-26244D01*
X36297Y-26241D01*
X36327Y-26243D01*
X36357Y-26251D01*
X36385Y-26265D01*
X36410Y-26285D01*
X36430Y-26308D01*
X36446Y-26335D01*
X36456Y-26365D01*
X36459Y-26396D01*
X36460Y-26400D01*
X36460Y-27400D02*
X36456Y-27431D01*
X36447Y-27460D01*
X36433Y-27488D01*
X36413Y-27512D01*
X36389Y-27532D01*
X36362Y-27547D01*
X36332Y-27556D01*
X36301Y-27559D01*
X36271Y-27557D01*
X36241Y-27548D01*
X36213Y-27533D01*
X36189Y-27514D01*
X36168Y-27490D01*
X36153Y-27463D01*
X36144Y-27433D01*
X36141Y-27402D01*
X36143Y-27372D01*
X36152Y-27342D01*
X36166Y-27314D01*
X36185Y-27289D01*
X36209Y-27269D01*
X36236Y-27254D01*
X36266Y-27244D01*
X36297Y-27241D01*
X36327Y-27243D01*
X36357Y-27251D01*
X36385Y-27265D01*
X36410Y-27285D01*
X36430Y-27308D01*
X36446Y-27335D01*
X36456Y-27365D01*
X36459Y-27396D01*
X36460Y-27400D01*
X36460Y-28400D02*
X36456Y-28431D01*
X36447Y-28460D01*
X36433Y-28488D01*
X36413Y-28512D01*
X36389Y-28532D01*
X36362Y-28547D01*
X36332Y-28556D01*
X36301Y-28559D01*
X36271Y-28557D01*
X36241Y-28548D01*
X36213Y-28533D01*
X36189Y-28514D01*
X36168Y-28490D01*
X36153Y-28463D01*
X36144Y-28433D01*
X36141Y-28402D01*
X36143Y-28372D01*
X36152Y-28342D01*
X36166Y-28314D01*
X36185Y-28289D01*
X36209Y-28269D01*
X36236Y-28254D01*
X36266Y-28244D01*
X36297Y-28241D01*
X36327Y-28243D01*
X36357Y-28251D01*
X36385Y-28265D01*
X36410Y-28285D01*
X36430Y-28308D01*
X36446Y-28335D01*
X36456Y-28365D01*
X36459Y-28396D01*
X36460Y-28400D01*
X36460Y-29400D02*
X36456Y-29431D01*
X36447Y-29460D01*
X36433Y-29488D01*
X36413Y-29512D01*
X36389Y-29532D01*
X36362Y-29547D01*
X36332Y-29556D01*
X36301Y-29559D01*
X36271Y-29557D01*
X36241Y-29548D01*
X36213Y-29533D01*
X36189Y-29514D01*
X36168Y-29490D01*
X36153Y-29463D01*
X36144Y-29433D01*
X36141Y-29402D01*
X36143Y-29372D01*
X36152Y-29342D01*
X36166Y-29314D01*
X36185Y-29289D01*
X36209Y-29269D01*
X36236Y-29254D01*
X36266Y-29244D01*
X36297Y-29241D01*
X36327Y-29243D01*
X36357Y-29251D01*
X36385Y-29265D01*
X36410Y-29285D01*
X36430Y-29308D01*
X36446Y-29335D01*
X36456Y-29365D01*
X36459Y-29396D01*
X36460Y-29400D01*
X36460Y-30400D02*
X36456Y-30431D01*
X36447Y-30460D01*
X36433Y-30488D01*
X36413Y-30512D01*
X36389Y-30532D01*
X36362Y-30547D01*
X36332Y-30556D01*
X36301Y-30559D01*
X36271Y-30557D01*
X36241Y-30548D01*
X36213Y-30533D01*
X36189Y-30514D01*
X36168Y-30490D01*
X36153Y-30463D01*
X36144Y-30433D01*
X36141Y-30402D01*
X36143Y-30372D01*
X36152Y-30342D01*
X36166Y-30314D01*
X36185Y-30289D01*
X36209Y-30269D01*
X36236Y-30254D01*
X36266Y-30244D01*
X36297Y-30241D01*
X36327Y-30243D01*
X36357Y-30251D01*
X36385Y-30265D01*
X36410Y-30285D01*
X36430Y-30308D01*
X36446Y-30335D01*
X36456Y-30365D01*
X36459Y-30396D01*
X36460Y-30400D01*
X36460Y-31400D02*
X36456Y-31431D01*
X36447Y-31460D01*
X36433Y-31488D01*
X36413Y-31512D01*
X36389Y-31532D01*
X36362Y-31547D01*
X36332Y-31556D01*
X36301Y-31559D01*
X36271Y-31557D01*
X36241Y-31548D01*
X36213Y-31533D01*
X36189Y-31514D01*
X36168Y-31490D01*
X36153Y-31463D01*
X36144Y-31433D01*
X36141Y-31402D01*
X36143Y-31372D01*
X36152Y-31342D01*
X36166Y-31314D01*
X36185Y-31289D01*
X36209Y-31269D01*
X36236Y-31254D01*
X36266Y-31244D01*
X36297Y-31241D01*
X36327Y-31243D01*
X36357Y-31251D01*
X36385Y-31265D01*
X36410Y-31285D01*
X36430Y-31308D01*
X36446Y-31335D01*
X36456Y-31365D01*
X36459Y-31396D01*
X36460Y-31400D01*
X36460Y-32400D02*
X36456Y-32431D01*
X36447Y-32460D01*
X36433Y-32488D01*
X36413Y-32512D01*
X36389Y-32532D01*
X36362Y-32547D01*
X36332Y-32556D01*
X36301Y-32559D01*
X36271Y-32557D01*
X36241Y-32548D01*
X36213Y-32533D01*
X36189Y-32514D01*
X36168Y-32490D01*
X36153Y-32463D01*
X36144Y-32433D01*
X36141Y-32402D01*
X36143Y-32372D01*
X36152Y-32342D01*
X36166Y-32314D01*
X36185Y-32289D01*
X36209Y-32269D01*
X36236Y-32254D01*
X36266Y-32244D01*
X36297Y-32241D01*
X36327Y-32243D01*
X36357Y-32251D01*
X36385Y-32265D01*
X36410Y-32285D01*
X36430Y-32308D01*
X36446Y-32335D01*
X36456Y-32365D01*
X36459Y-32396D01*
X36460Y-32400D01*
X32300Y-31200D02*
X32300Y-31600D01*
X32500Y-31400D02*
X32100Y-31400D01*
X32300Y-32200D02*
X32300Y-32600D01*
X32500Y-32400D02*
X32100Y-32400D01*
X32300Y-33200D02*
X32300Y-33600D01*
X32500Y-33400D02*
X32100Y-33400D01*
X33300Y-31200D02*
X33300Y-31600D01*
X33500Y-31400D02*
X33100Y-31400D01*
X33300Y-32200D02*
X33300Y-32600D01*
X33500Y-32400D02*
X33100Y-32400D01*
X33300Y-33200D02*
X33300Y-33600D01*
X33500Y-33400D02*
X33100Y-33400D01*
G54D12*
X24664Y-37830D02*
X24664Y-37030D01*
X24855Y-37030D01*
X24969Y-37068D01*
X25045Y-37144D01*
X25084Y-37220D01*
X25122Y-37373D01*
X25122Y-37487D01*
X25084Y-37639D01*
X25045Y-37716D01*
X24969Y-37792D01*
X24855Y-37830D01*
X24664Y-37830D01*
X25464Y-37830D02*
X25464Y-37296D01*
X25464Y-37449D02*
X25503Y-37373D01*
X25541Y-37335D01*
X25617Y-37296D01*
X25693Y-37296D01*
X25959Y-37830D02*
X25959Y-37296D01*
X25959Y-37030D02*
X25921Y-37068D01*
X25959Y-37106D01*
X25998Y-37068D01*
X25959Y-37030D01*
X25959Y-37106D01*
X26455Y-37830D02*
X26379Y-37792D01*
X26340Y-37716D01*
X26340Y-37030D01*
X26874Y-37830D02*
X26798Y-37792D01*
X26759Y-37716D01*
X26759Y-37030D01*
X27788Y-37830D02*
X27788Y-37030D01*
X28055Y-37601D01*
X28322Y-37030D01*
X28322Y-37830D01*
X29045Y-37830D02*
X29045Y-37411D01*
X29007Y-37335D01*
X28931Y-37296D01*
X28779Y-37296D01*
X28702Y-37335D01*
X29045Y-37792D02*
X28969Y-37830D01*
X28779Y-37830D01*
X28702Y-37792D01*
X28664Y-37716D01*
X28664Y-37639D01*
X28702Y-37563D01*
X28779Y-37525D01*
X28969Y-37525D01*
X29045Y-37487D01*
X29426Y-37296D02*
X29426Y-38096D01*
X29426Y-37335D02*
X29503Y-37296D01*
X29655Y-37296D01*
X29731Y-37335D01*
X29769Y-37373D01*
X29807Y-37449D01*
X29807Y-37677D01*
X29769Y-37754D01*
X29731Y-37792D01*
X29655Y-37830D01*
X29503Y-37830D01*
X29426Y-37792D01*
X30150Y-37754D02*
X30189Y-37792D01*
X30150Y-37830D01*
X30112Y-37792D01*
X30150Y-37754D01*
X30150Y-37830D01*
X30150Y-37335D02*
X30189Y-37373D01*
X30150Y-37411D01*
X30112Y-37373D01*
X30150Y-37335D01*
X30150Y-37411D01*
X24024Y-39061D02*
X24274Y-39311D01*
X24274Y-39061D02*
X24024Y-39311D01*
X24817Y-38710D02*
X24893Y-38710D01*
X24969Y-38748D01*
X25007Y-38786D01*
X25045Y-38862D01*
X25084Y-39015D01*
X25084Y-39205D01*
X25045Y-39357D01*
X25007Y-39434D01*
X24969Y-39472D01*
X24893Y-39510D01*
X24817Y-39510D01*
X24741Y-39472D01*
X24703Y-39434D01*
X24664Y-39357D01*
X24626Y-39205D01*
X24626Y-39015D01*
X24664Y-38862D01*
X24703Y-38786D01*
X24741Y-38748D01*
X24817Y-38710D01*
X25426Y-39434D02*
X25465Y-39472D01*
X25426Y-39510D01*
X25388Y-39472D01*
X25426Y-39434D01*
X25426Y-39510D01*
X25960Y-38710D02*
X26036Y-38710D01*
X26112Y-38748D01*
X26150Y-38786D01*
X26188Y-38862D01*
X26227Y-39015D01*
X26227Y-39205D01*
X26188Y-39357D01*
X26150Y-39434D01*
X26112Y-39472D01*
X26036Y-39510D01*
X25960Y-39510D01*
X25884Y-39472D01*
X25846Y-39434D01*
X25807Y-39357D01*
X25769Y-39205D01*
X25769Y-39015D01*
X25807Y-38862D01*
X25846Y-38786D01*
X25884Y-38748D01*
X25960Y-38710D01*
X26531Y-38786D02*
X26569Y-38748D01*
X26646Y-38710D01*
X26836Y-38710D01*
X26912Y-38748D01*
X26950Y-38786D01*
X26989Y-38862D01*
X26989Y-38938D01*
X26950Y-39053D01*
X26493Y-39510D01*
X26989Y-39510D01*
X27712Y-38710D02*
X27331Y-38710D01*
X27293Y-39091D01*
X27331Y-39053D01*
X27408Y-39015D01*
X27598Y-39015D01*
X27674Y-39053D01*
X27712Y-39091D01*
X27751Y-39167D01*
X27751Y-39357D01*
X27712Y-39434D01*
X27674Y-39472D01*
X27598Y-39510D01*
X27408Y-39510D01*
X27331Y-39472D01*
X27293Y-39434D01*
X28055Y-38710D02*
X28055Y-38862D01*
X28360Y-38710D02*
X28360Y-38862D01*
X29885Y-38672D02*
X29199Y-39700D01*
X30914Y-38710D02*
X30990Y-38710D01*
X31066Y-38748D01*
X31104Y-38786D01*
X31142Y-38862D01*
X31181Y-39015D01*
X31181Y-39205D01*
X31142Y-39357D01*
X31104Y-39434D01*
X31066Y-39472D01*
X30990Y-39510D01*
X30914Y-39510D01*
X30838Y-39472D01*
X30800Y-39434D01*
X30761Y-39357D01*
X30723Y-39205D01*
X30723Y-39015D01*
X30761Y-38862D01*
X30800Y-38786D01*
X30838Y-38748D01*
X30914Y-38710D01*
X31523Y-39434D02*
X31562Y-39472D01*
X31523Y-39510D01*
X31485Y-39472D01*
X31523Y-39434D01*
X31523Y-39510D01*
X32247Y-38710D02*
X32095Y-38710D01*
X32019Y-38748D01*
X31981Y-38786D01*
X31904Y-38900D01*
X31866Y-39053D01*
X31866Y-39357D01*
X31904Y-39434D01*
X31943Y-39472D01*
X32019Y-39510D01*
X32171Y-39510D01*
X32247Y-39472D01*
X32285Y-39434D01*
X32324Y-39357D01*
X32324Y-39167D01*
X32285Y-39091D01*
X32247Y-39053D01*
X32171Y-39015D01*
X32019Y-39015D01*
X31943Y-39053D01*
X31904Y-39091D01*
X31866Y-39167D01*
X33009Y-38976D02*
X33009Y-39510D01*
X32819Y-38672D02*
X32628Y-39243D01*
X33124Y-39243D01*
X33428Y-39510D02*
X33428Y-38976D01*
X33428Y-39053D02*
X33467Y-39015D01*
X33543Y-38976D01*
X33657Y-38976D01*
X33733Y-39015D01*
X33771Y-39091D01*
X33771Y-39510D01*
X33771Y-39091D02*
X33809Y-39015D01*
X33886Y-38976D01*
X34000Y-38976D01*
X34076Y-39015D01*
X34114Y-39091D01*
X34114Y-39510D01*
X34495Y-39510D02*
X34495Y-38976D01*
X34495Y-39053D02*
X34534Y-39015D01*
X34610Y-38976D01*
X34724Y-38976D01*
X34800Y-39015D01*
X34838Y-39091D01*
X34838Y-39510D01*
X34838Y-39091D02*
X34876Y-39015D01*
X34953Y-38976D01*
X35067Y-38976D01*
X35143Y-39015D01*
X35181Y-39091D01*
X35181Y-39510D01*
X36401Y-39815D02*
X36363Y-39776D01*
X36287Y-39662D01*
X36249Y-39586D01*
X36211Y-39472D01*
X36172Y-39281D01*
X36172Y-39129D01*
X36211Y-38938D01*
X36249Y-38824D01*
X36287Y-38748D01*
X36363Y-38634D01*
X36401Y-38596D01*
X37048Y-38976D02*
X37048Y-39510D01*
X36858Y-38672D02*
X36667Y-39243D01*
X37163Y-39243D01*
X37506Y-39510D02*
X37658Y-39510D01*
X37734Y-39472D01*
X37772Y-39434D01*
X37848Y-39319D01*
X37887Y-39167D01*
X37887Y-38862D01*
X37848Y-38786D01*
X37810Y-38748D01*
X37734Y-38710D01*
X37582Y-38710D01*
X37506Y-38748D01*
X37467Y-38786D01*
X37429Y-38862D01*
X37429Y-39053D01*
X37467Y-39129D01*
X37506Y-39167D01*
X37582Y-39205D01*
X37734Y-39205D01*
X37810Y-39167D01*
X37848Y-39129D01*
X37887Y-39053D01*
X38839Y-39510D02*
X38839Y-38710D01*
X39182Y-39510D02*
X39182Y-39091D01*
X39144Y-39015D01*
X39068Y-38976D01*
X38954Y-38976D01*
X38878Y-39015D01*
X38839Y-39053D01*
X39678Y-39510D02*
X39602Y-39472D01*
X39563Y-39434D01*
X39525Y-39357D01*
X39525Y-39129D01*
X39563Y-39053D01*
X39602Y-39015D01*
X39678Y-38976D01*
X39792Y-38976D01*
X39868Y-39015D01*
X39906Y-39053D01*
X39944Y-39129D01*
X39944Y-39357D01*
X39906Y-39434D01*
X39868Y-39472D01*
X39792Y-39510D01*
X39678Y-39510D01*
X40402Y-39510D02*
X40326Y-39472D01*
X40287Y-39396D01*
X40287Y-38710D01*
X41011Y-39472D02*
X40935Y-39510D01*
X40783Y-39510D01*
X40706Y-39472D01*
X40668Y-39396D01*
X40668Y-39091D01*
X40706Y-39015D01*
X40783Y-38976D01*
X40935Y-38976D01*
X41011Y-39015D01*
X41049Y-39091D01*
X41049Y-39167D01*
X40668Y-39243D01*
X41354Y-39472D02*
X41431Y-39510D01*
X41583Y-39510D01*
X41659Y-39472D01*
X41697Y-39396D01*
X41697Y-39357D01*
X41659Y-39281D01*
X41583Y-39243D01*
X41469Y-39243D01*
X41392Y-39205D01*
X41354Y-39129D01*
X41354Y-39091D01*
X41392Y-39015D01*
X41469Y-38976D01*
X41583Y-38976D01*
X41659Y-39015D01*
X41964Y-39815D02*
X42002Y-39776D01*
X42079Y-39662D01*
X42117Y-39586D01*
X42155Y-39472D01*
X42193Y-39281D01*
X42193Y-39129D01*
X42155Y-38938D01*
X42117Y-38824D01*
X42079Y-38748D01*
X42002Y-38634D01*
X41964Y-38596D01*
G54D10*
X24274Y-40241D02*
X24270Y-40272D01*
X24261Y-40301D01*
X24247Y-40329D01*
X24227Y-40353D01*
X24203Y-40373D01*
X24176Y-40388D01*
X24146Y-40397D01*
X24115Y-40400D01*
X24085Y-40398D01*
X24055Y-40389D01*
X24027Y-40374D01*
X24003Y-40355D01*
X23982Y-40331D01*
X23967Y-40304D01*
X23958Y-40274D01*
X23955Y-40243D01*
X23957Y-40213D01*
X23966Y-40183D01*
X23980Y-40155D01*
X23999Y-40130D01*
X24023Y-40110D01*
X24050Y-40095D01*
X24080Y-40085D01*
X24111Y-40082D01*
X24141Y-40084D01*
X24171Y-40092D01*
X24199Y-40106D01*
X24224Y-40126D01*
X24244Y-40149D01*
X24260Y-40176D01*
X24270Y-40206D01*
X24273Y-40237D01*
X24274Y-40241D01*
G54D12*
X24817Y-39765D02*
X24893Y-39765D01*
X24969Y-39803D01*
X25007Y-39841D01*
X25045Y-39917D01*
X25084Y-40070D01*
X25084Y-40260D01*
X25045Y-40412D01*
X25007Y-40489D01*
X24969Y-40527D01*
X24893Y-40565D01*
X24817Y-40565D01*
X24741Y-40527D01*
X24703Y-40489D01*
X24664Y-40412D01*
X24626Y-40260D01*
X24626Y-40070D01*
X24664Y-39917D01*
X24703Y-39841D01*
X24741Y-39803D01*
X24817Y-39765D01*
X25426Y-40489D02*
X25465Y-40527D01*
X25426Y-40565D01*
X25388Y-40527D01*
X25426Y-40489D01*
X25426Y-40565D01*
X25960Y-39765D02*
X26036Y-39765D01*
X26112Y-39803D01*
X26150Y-39841D01*
X26188Y-39917D01*
X26227Y-40070D01*
X26227Y-40260D01*
X26188Y-40412D01*
X26150Y-40489D01*
X26112Y-40527D01*
X26036Y-40565D01*
X25960Y-40565D01*
X25884Y-40527D01*
X25846Y-40489D01*
X25807Y-40412D01*
X25769Y-40260D01*
X25769Y-40070D01*
X25807Y-39917D01*
X25846Y-39841D01*
X25884Y-39803D01*
X25960Y-39765D01*
X26493Y-39765D02*
X26989Y-39765D01*
X26722Y-40070D01*
X26836Y-40070D01*
X26912Y-40108D01*
X26950Y-40146D01*
X26989Y-40222D01*
X26989Y-40412D01*
X26950Y-40489D01*
X26912Y-40527D01*
X26836Y-40565D01*
X26608Y-40565D01*
X26531Y-40527D01*
X26493Y-40489D01*
X27293Y-39841D02*
X27331Y-39803D01*
X27408Y-39765D01*
X27598Y-39765D01*
X27674Y-39803D01*
X27712Y-39841D01*
X27751Y-39917D01*
X27751Y-39993D01*
X27712Y-40108D01*
X27255Y-40565D01*
X27751Y-40565D01*
X28055Y-39765D02*
X28055Y-39917D01*
X28360Y-39765D02*
X28360Y-39917D01*
X29885Y-39727D02*
X29199Y-40755D01*
X30914Y-39765D02*
X30990Y-39765D01*
X31066Y-39803D01*
X31104Y-39841D01*
X31142Y-39917D01*
X31181Y-40070D01*
X31181Y-40260D01*
X31142Y-40412D01*
X31104Y-40489D01*
X31066Y-40527D01*
X30990Y-40565D01*
X30914Y-40565D01*
X30838Y-40527D01*
X30800Y-40489D01*
X30761Y-40412D01*
X30723Y-40260D01*
X30723Y-40070D01*
X30761Y-39917D01*
X30800Y-39841D01*
X30838Y-39803D01*
X30914Y-39765D01*
X31523Y-40489D02*
X31562Y-40527D01*
X31523Y-40565D01*
X31485Y-40527D01*
X31523Y-40489D01*
X31523Y-40565D01*
X32019Y-40108D02*
X31943Y-40070D01*
X31904Y-40031D01*
X31866Y-39955D01*
X31866Y-39917D01*
X31904Y-39841D01*
X31943Y-39803D01*
X32019Y-39765D01*
X32171Y-39765D01*
X32247Y-39803D01*
X32285Y-39841D01*
X32324Y-39917D01*
X32324Y-39955D01*
X32285Y-40031D01*
X32247Y-40070D01*
X32171Y-40108D01*
X32019Y-40108D01*
X31943Y-40146D01*
X31904Y-40184D01*
X31866Y-40260D01*
X31866Y-40412D01*
X31904Y-40489D01*
X31943Y-40527D01*
X32019Y-40565D01*
X32171Y-40565D01*
X32247Y-40527D01*
X32285Y-40489D01*
X32324Y-40412D01*
X32324Y-40260D01*
X32285Y-40184D01*
X32247Y-40146D01*
X32171Y-40108D01*
X33086Y-40565D02*
X32628Y-40565D01*
X32857Y-40565D02*
X32857Y-39765D01*
X32781Y-39879D01*
X32705Y-39955D01*
X32628Y-39993D01*
X33428Y-40565D02*
X33428Y-40031D01*
X33428Y-40108D02*
X33467Y-40070D01*
X33543Y-40031D01*
X33657Y-40031D01*
X33733Y-40070D01*
X33771Y-40146D01*
X33771Y-40565D01*
X33771Y-40146D02*
X33809Y-40070D01*
X33886Y-40031D01*
X34000Y-40031D01*
X34076Y-40070D01*
X34114Y-40146D01*
X34114Y-40565D01*
X34495Y-40565D02*
X34495Y-40031D01*
X34495Y-40108D02*
X34534Y-40070D01*
X34610Y-40031D01*
X34724Y-40031D01*
X34800Y-40070D01*
X34838Y-40146D01*
X34838Y-40565D01*
X34838Y-40146D02*
X34876Y-40070D01*
X34953Y-40031D01*
X35067Y-40031D01*
X35143Y-40070D01*
X35181Y-40146D01*
X35181Y-40565D01*
X36401Y-40870D02*
X36363Y-40831D01*
X36287Y-40717D01*
X36249Y-40641D01*
X36211Y-40527D01*
X36172Y-40336D01*
X36172Y-40184D01*
X36211Y-39993D01*
X36249Y-39879D01*
X36287Y-39803D01*
X36363Y-39689D01*
X36401Y-39651D01*
X36667Y-39841D02*
X36705Y-39803D01*
X36782Y-39765D01*
X36972Y-39765D01*
X37048Y-39803D01*
X37086Y-39841D01*
X37125Y-39917D01*
X37125Y-39993D01*
X37086Y-40108D01*
X36629Y-40565D01*
X37125Y-40565D01*
X37429Y-39841D02*
X37467Y-39803D01*
X37544Y-39765D01*
X37734Y-39765D01*
X37810Y-39803D01*
X37848Y-39841D01*
X37887Y-39917D01*
X37887Y-39993D01*
X37848Y-40108D01*
X37391Y-40565D01*
X37887Y-40565D01*
X38839Y-40565D02*
X38839Y-39765D01*
X39182Y-40565D02*
X39182Y-40146D01*
X39144Y-40070D01*
X39068Y-40031D01*
X38954Y-40031D01*
X38878Y-40070D01*
X38839Y-40108D01*
X39678Y-40565D02*
X39602Y-40527D01*
X39563Y-40489D01*
X39525Y-40412D01*
X39525Y-40184D01*
X39563Y-40108D01*
X39602Y-40070D01*
X39678Y-40031D01*
X39792Y-40031D01*
X39868Y-40070D01*
X39906Y-40108D01*
X39944Y-40184D01*
X39944Y-40412D01*
X39906Y-40489D01*
X39868Y-40527D01*
X39792Y-40565D01*
X39678Y-40565D01*
X40402Y-40565D02*
X40326Y-40527D01*
X40287Y-40451D01*
X40287Y-39765D01*
X41011Y-40527D02*
X40935Y-40565D01*
X40783Y-40565D01*
X40706Y-40527D01*
X40668Y-40451D01*
X40668Y-40146D01*
X40706Y-40070D01*
X40783Y-40031D01*
X40935Y-40031D01*
X41011Y-40070D01*
X41049Y-40146D01*
X41049Y-40222D01*
X40668Y-40298D01*
X41354Y-40527D02*
X41431Y-40565D01*
X41583Y-40565D01*
X41659Y-40527D01*
X41697Y-40451D01*
X41697Y-40412D01*
X41659Y-40336D01*
X41583Y-40298D01*
X41469Y-40298D01*
X41392Y-40260D01*
X41354Y-40184D01*
X41354Y-40146D01*
X41392Y-40070D01*
X41469Y-40031D01*
X41583Y-40031D01*
X41659Y-40070D01*
X41964Y-40870D02*
X42002Y-40831D01*
X42079Y-40717D01*
X42117Y-40641D01*
X42155Y-40527D01*
X42193Y-40336D01*
X42193Y-40184D01*
X42155Y-39993D01*
X42117Y-39879D01*
X42079Y-39803D01*
X42002Y-39689D01*
X41964Y-39651D01*
X24074Y-41096D02*
X24074Y-41496D01*
X24274Y-41296D02*
X23874Y-41296D01*
X24817Y-40820D02*
X24893Y-40820D01*
X24969Y-40858D01*
X25007Y-40896D01*
X25045Y-40972D01*
X25084Y-41125D01*
X25084Y-41315D01*
X25045Y-41467D01*
X25007Y-41544D01*
X24969Y-41582D01*
X24893Y-41620D01*
X24817Y-41620D01*
X24741Y-41582D01*
X24703Y-41544D01*
X24664Y-41467D01*
X24626Y-41315D01*
X24626Y-41125D01*
X24664Y-40972D01*
X24703Y-40896D01*
X24741Y-40858D01*
X24817Y-40820D01*
X25426Y-41544D02*
X25465Y-41582D01*
X25426Y-41620D01*
X25388Y-41582D01*
X25426Y-41544D01*
X25426Y-41620D01*
X25960Y-40820D02*
X26036Y-40820D01*
X26112Y-40858D01*
X26150Y-40896D01*
X26188Y-40972D01*
X26227Y-41125D01*
X26227Y-41315D01*
X26188Y-41467D01*
X26150Y-41544D01*
X26112Y-41582D01*
X26036Y-41620D01*
X25960Y-41620D01*
X25884Y-41582D01*
X25846Y-41544D01*
X25807Y-41467D01*
X25769Y-41315D01*
X25769Y-41125D01*
X25807Y-40972D01*
X25846Y-40896D01*
X25884Y-40858D01*
X25960Y-40820D01*
X26912Y-41086D02*
X26912Y-41620D01*
X26722Y-40782D02*
X26531Y-41353D01*
X27027Y-41353D01*
X27484Y-40820D02*
X27560Y-40820D01*
X27636Y-40858D01*
X27674Y-40896D01*
X27712Y-40972D01*
X27751Y-41125D01*
X27751Y-41315D01*
X27712Y-41467D01*
X27674Y-41544D01*
X27636Y-41582D01*
X27560Y-41620D01*
X27484Y-41620D01*
X27408Y-41582D01*
X27370Y-41544D01*
X27331Y-41467D01*
X27293Y-41315D01*
X27293Y-41125D01*
X27331Y-40972D01*
X27370Y-40896D01*
X27408Y-40858D01*
X27484Y-40820D01*
X28055Y-40820D02*
X28055Y-40972D01*
X28360Y-40820D02*
X28360Y-40972D01*
X29885Y-40782D02*
X29199Y-41810D01*
X31181Y-41620D02*
X30723Y-41620D01*
X30952Y-41620D02*
X30952Y-40820D01*
X30876Y-40934D01*
X30800Y-41010D01*
X30723Y-41048D01*
X31523Y-41544D02*
X31562Y-41582D01*
X31523Y-41620D01*
X31485Y-41582D01*
X31523Y-41544D01*
X31523Y-41620D01*
X32057Y-40820D02*
X32133Y-40820D01*
X32209Y-40858D01*
X32247Y-40896D01*
X32285Y-40972D01*
X32324Y-41125D01*
X32324Y-41315D01*
X32285Y-41467D01*
X32247Y-41544D01*
X32209Y-41582D01*
X32133Y-41620D01*
X32057Y-41620D01*
X31981Y-41582D01*
X31943Y-41544D01*
X31904Y-41467D01*
X31866Y-41315D01*
X31866Y-41125D01*
X31904Y-40972D01*
X31943Y-40896D01*
X31981Y-40858D01*
X32057Y-40820D01*
X32628Y-40896D02*
X32666Y-40858D01*
X32743Y-40820D01*
X32933Y-40820D01*
X33009Y-40858D01*
X33047Y-40896D01*
X33086Y-40972D01*
X33086Y-41048D01*
X33047Y-41163D01*
X32590Y-41620D01*
X33086Y-41620D01*
X33428Y-41620D02*
X33428Y-41086D01*
X33428Y-41163D02*
X33467Y-41125D01*
X33543Y-41086D01*
X33657Y-41086D01*
X33733Y-41125D01*
X33771Y-41201D01*
X33771Y-41620D01*
X33771Y-41201D02*
X33809Y-41125D01*
X33886Y-41086D01*
X34000Y-41086D01*
X34076Y-41125D01*
X34114Y-41201D01*
X34114Y-41620D01*
X34495Y-41620D02*
X34495Y-41086D01*
X34495Y-41163D02*
X34534Y-41125D01*
X34610Y-41086D01*
X34724Y-41086D01*
X34800Y-41125D01*
X34838Y-41201D01*
X34838Y-41620D01*
X34838Y-41201D02*
X34876Y-41125D01*
X34953Y-41086D01*
X35067Y-41086D01*
X35143Y-41125D01*
X35181Y-41201D01*
X35181Y-41620D01*
X36401Y-41925D02*
X36363Y-41886D01*
X36287Y-41772D01*
X36249Y-41696D01*
X36211Y-41582D01*
X36172Y-41391D01*
X36172Y-41239D01*
X36211Y-41048D01*
X36249Y-40934D01*
X36287Y-40858D01*
X36363Y-40744D01*
X36401Y-40706D01*
X37048Y-40820D02*
X36896Y-40820D01*
X36820Y-40858D01*
X36782Y-40896D01*
X36705Y-41010D01*
X36667Y-41163D01*
X36667Y-41467D01*
X36705Y-41544D01*
X36744Y-41582D01*
X36820Y-41620D01*
X36972Y-41620D01*
X37048Y-41582D01*
X37086Y-41544D01*
X37125Y-41467D01*
X37125Y-41277D01*
X37086Y-41201D01*
X37048Y-41163D01*
X36972Y-41125D01*
X36820Y-41125D01*
X36744Y-41163D01*
X36705Y-41201D01*
X36667Y-41277D01*
X38077Y-41620D02*
X38077Y-40820D01*
X38420Y-41620D02*
X38420Y-41201D01*
X38382Y-41125D01*
X38306Y-41086D01*
X38192Y-41086D01*
X38116Y-41125D01*
X38077Y-41163D01*
X38916Y-41620D02*
X38840Y-41582D01*
X38801Y-41544D01*
X38763Y-41467D01*
X38763Y-41239D01*
X38801Y-41163D01*
X38840Y-41125D01*
X38916Y-41086D01*
X39030Y-41086D01*
X39106Y-41125D01*
X39144Y-41163D01*
X39182Y-41239D01*
X39182Y-41467D01*
X39144Y-41544D01*
X39106Y-41582D01*
X39030Y-41620D01*
X38916Y-41620D01*
X39640Y-41620D02*
X39564Y-41582D01*
X39525Y-41506D01*
X39525Y-40820D01*
X40249Y-41582D02*
X40173Y-41620D01*
X40021Y-41620D01*
X39944Y-41582D01*
X39906Y-41506D01*
X39906Y-41201D01*
X39944Y-41125D01*
X40021Y-41086D01*
X40173Y-41086D01*
X40249Y-41125D01*
X40287Y-41201D01*
X40287Y-41277D01*
X39906Y-41353D01*
X40592Y-41582D02*
X40669Y-41620D01*
X40821Y-41620D01*
X40897Y-41582D01*
X40935Y-41506D01*
X40935Y-41467D01*
X40897Y-41391D01*
X40821Y-41353D01*
X40707Y-41353D01*
X40630Y-41315D01*
X40592Y-41239D01*
X40592Y-41201D01*
X40630Y-41125D01*
X40707Y-41086D01*
X40821Y-41086D01*
X40897Y-41125D01*
X41202Y-41925D02*
X41240Y-41886D01*
X41317Y-41772D01*
X41355Y-41696D01*
X41393Y-41582D01*
X41431Y-41391D01*
X41431Y-41239D01*
X41393Y-41048D01*
X41355Y-40934D01*
X41317Y-40858D01*
X41240Y-40744D01*
X41202Y-40706D01*
M02*
