M48
INCH,TZ
T1C0.025
T2C0.032
T3C0.040
%
G05
T1
X26150Y-29561
X26395Y-24031
X27460Y-29908
X28351Y-32485
X28663Y-28698
X28680Y-27578
X28869Y-31267
X28997Y-31801
X29036Y-34109
X29206Y-23917
X29459Y-21506
X30866Y-35612
X30893Y-30552
X30987Y-34037
X31303Y-35167
X31935Y-26880
X32017Y-29005
X32058Y-28459
X32832Y-26676
X33009Y-35923
X33304Y-33524
X33528Y-26716
X33683Y-28868
X33694Y-28275
X34096Y-22758
X34690Y-34013
X36312Y-22161
X36322Y-33894
X36441Y-31353
X36988Y-29882
X37481Y-32216
X39018Y-27797
T2
X29295Y-25400
X29295Y-26400
X29295Y-27400
X29295Y-28400
X29295Y-29400
X29295Y-30400
X30300Y-24400
X31300Y-24400
X32300Y-24400
X32800Y-31200
X32800Y-32200
X32800Y-33200
X33300Y-24400
X34300Y-24400
X35300Y-24400
X36300Y-25400
X36300Y-26400
X36300Y-27400
X36300Y-28400
X36300Y-29400
X36300Y-30400
T3
X30600Y-31200
X30600Y-32200
X30600Y-33200
X31600Y-31200
X31600Y-32200
X31600Y-33200
X34000Y-31200
X34000Y-32200
X34000Y-33200
X35000Y-31200
X35000Y-32200
X35000Y-33200
T0
M30
