G04 (created by PCBNEW (2013-09-20 BZR 4325)-product) date Sun 22 Sep 2013 01:26:36 AM CEST*
%MOIN*%
G04 Gerber Fmt 3.4, Leading zero omitted, Abs format*
%FSLAX34Y34*%
G01*
G70*
G90*
G04 APERTURE LIST*
%ADD10C,0.005906*%
%ADD11C,0.007874*%
%ADD12C,0.008000*%
%ADD13C,0.012000*%
%ADD14C,0.000100*%
%ADD15R,0.060000X0.060000*%
%ADD16C,0.060000*%
%ADD17R,0.051100X0.059000*%
%ADD18R,0.059000X0.051100*%
%ADD19R,0.059055X0.039370*%
%ADD20O,0.059055X0.039370*%
%ADD21R,0.039370X0.059055*%
%ADD22O,0.039370X0.059055*%
%ADD23C,0.098425*%
G04 APERTURE END LIST*
G54D10*
G54D11*
X34005Y-28257D02*
X34399Y-28257D01*
X34024Y-28088D02*
X34005Y-28032D01*
X34005Y-27938D01*
X34024Y-27900D01*
X34043Y-27882D01*
X34080Y-27863D01*
X34118Y-27863D01*
X34155Y-27882D01*
X34174Y-27900D01*
X34193Y-27938D01*
X34211Y-28013D01*
X34230Y-28050D01*
X34249Y-28069D01*
X34286Y-28088D01*
X34324Y-28088D01*
X34361Y-28069D01*
X34380Y-28050D01*
X34399Y-28013D01*
X34399Y-27919D01*
X34380Y-27863D01*
X34005Y-27694D02*
X34399Y-27694D01*
X34399Y-27544D01*
X34380Y-27507D01*
X34361Y-27488D01*
X34324Y-27469D01*
X34268Y-27469D01*
X34230Y-27488D01*
X34211Y-27507D01*
X34193Y-27544D01*
X34193Y-27694D01*
X36259Y-23178D02*
X36259Y-23309D01*
X36052Y-23309D02*
X36446Y-23309D01*
X36446Y-23122D01*
X36446Y-23028D02*
X36446Y-22803D01*
X36052Y-22915D02*
X36446Y-22915D01*
X36052Y-22672D02*
X36446Y-22672D01*
X36446Y-22578D01*
X36427Y-22522D01*
X36390Y-22484D01*
X36352Y-22466D01*
X36277Y-22447D01*
X36221Y-22447D01*
X36146Y-22466D01*
X36109Y-22484D01*
X36071Y-22522D01*
X36052Y-22578D01*
X36052Y-22672D01*
X36052Y-22278D02*
X36446Y-22278D01*
X34183Y-27046D02*
X33868Y-26849D01*
X34183Y-26652D02*
X34183Y-27046D01*
X33868Y-26849D02*
X34183Y-26652D01*
G54D12*
X29765Y-32967D02*
X29765Y-33367D01*
X29765Y-33215D02*
X29803Y-33234D01*
X29879Y-33234D01*
X29917Y-33215D01*
X29936Y-33196D01*
X29955Y-33157D01*
X29955Y-33043D01*
X29936Y-33005D01*
X29917Y-32986D01*
X29879Y-32967D01*
X29803Y-32967D01*
X29765Y-32986D01*
X30184Y-32967D02*
X30146Y-32986D01*
X30127Y-33024D01*
X30127Y-33367D01*
X30393Y-32967D02*
X30355Y-32986D01*
X30336Y-33005D01*
X30317Y-33043D01*
X30317Y-33157D01*
X30336Y-33196D01*
X30355Y-33215D01*
X30393Y-33234D01*
X30450Y-33234D01*
X30489Y-33215D01*
X30508Y-33196D01*
X30527Y-33157D01*
X30527Y-33043D01*
X30508Y-33005D01*
X30489Y-32986D01*
X30450Y-32967D01*
X30393Y-32967D01*
X30870Y-33234D02*
X30870Y-32910D01*
X30850Y-32872D01*
X30831Y-32853D01*
X30793Y-32834D01*
X30736Y-32834D01*
X30698Y-32853D01*
X30870Y-32986D02*
X30831Y-32967D01*
X30755Y-32967D01*
X30717Y-32986D01*
X30698Y-33005D01*
X30679Y-33043D01*
X30679Y-33157D01*
X30698Y-33196D01*
X30717Y-33215D01*
X30755Y-33234D01*
X30831Y-33234D01*
X30870Y-33215D01*
X31060Y-33005D02*
X31079Y-32986D01*
X31060Y-32967D01*
X31041Y-32986D01*
X31060Y-33005D01*
X31060Y-32967D01*
X31231Y-32986D02*
X31270Y-32967D01*
X31346Y-32967D01*
X31384Y-32986D01*
X31403Y-33024D01*
X31403Y-33043D01*
X31384Y-33081D01*
X31346Y-33100D01*
X31289Y-33100D01*
X31250Y-33119D01*
X31231Y-33157D01*
X31231Y-33176D01*
X31250Y-33215D01*
X31289Y-33234D01*
X31346Y-33234D01*
X31384Y-33215D01*
X31574Y-33234D02*
X31574Y-32834D01*
X31574Y-33215D02*
X31612Y-33234D01*
X31689Y-33234D01*
X31727Y-33215D01*
X31746Y-33196D01*
X31765Y-33157D01*
X31765Y-33043D01*
X31746Y-33005D01*
X31727Y-32986D01*
X31689Y-32967D01*
X31612Y-32967D01*
X31574Y-32986D01*
X31936Y-32967D02*
X31936Y-33234D01*
X31936Y-33367D02*
X31917Y-33348D01*
X31936Y-33329D01*
X31955Y-33348D01*
X31936Y-33367D01*
X31936Y-33329D01*
X32070Y-33234D02*
X32222Y-33234D01*
X32127Y-33367D02*
X32127Y-33024D01*
X32146Y-32986D01*
X32184Y-32967D01*
X32222Y-32967D01*
X32317Y-33234D02*
X32527Y-33234D01*
X32317Y-32967D01*
X32527Y-32967D01*
X32831Y-32986D02*
X32793Y-32967D01*
X32717Y-32967D01*
X32679Y-32986D01*
X32660Y-33024D01*
X32660Y-33176D01*
X32679Y-33215D01*
X32717Y-33234D01*
X32793Y-33234D01*
X32831Y-33215D01*
X32850Y-33176D01*
X32850Y-33138D01*
X32660Y-33100D01*
X33022Y-33234D02*
X33022Y-32967D01*
X33022Y-33196D02*
X33041Y-33215D01*
X33079Y-33234D01*
X33136Y-33234D01*
X33174Y-33215D01*
X33193Y-33176D01*
X33193Y-32967D01*
X33384Y-33234D02*
X33384Y-32834D01*
X33384Y-33215D02*
X33422Y-33234D01*
X33498Y-33234D01*
X33536Y-33215D01*
X33555Y-33196D01*
X33574Y-33157D01*
X33574Y-33043D01*
X33555Y-33005D01*
X33536Y-32986D01*
X33498Y-32967D01*
X33422Y-32967D01*
X33384Y-32986D01*
X33689Y-33234D02*
X33841Y-33234D01*
X33746Y-32967D02*
X33746Y-33310D01*
X33765Y-33348D01*
X33803Y-33367D01*
X33841Y-33367D01*
X34127Y-32986D02*
X34089Y-32967D01*
X34012Y-32967D01*
X33974Y-32986D01*
X33955Y-33024D01*
X33955Y-33176D01*
X33974Y-33215D01*
X34012Y-33234D01*
X34089Y-33234D01*
X34127Y-33215D01*
X34146Y-33176D01*
X34146Y-33138D01*
X33955Y-33100D01*
X34317Y-32967D02*
X34317Y-33234D01*
X34317Y-33367D02*
X34298Y-33348D01*
X34317Y-33329D01*
X34336Y-33348D01*
X34317Y-33367D01*
X34317Y-33329D01*
X34565Y-32967D02*
X34527Y-32986D01*
X34508Y-33024D01*
X34508Y-33367D01*
X34717Y-33005D02*
X34736Y-32986D01*
X34717Y-32967D01*
X34698Y-32986D01*
X34717Y-33005D01*
X34717Y-32967D01*
X34965Y-32967D02*
X34927Y-32986D01*
X34908Y-33005D01*
X34889Y-33043D01*
X34889Y-33157D01*
X34908Y-33196D01*
X34927Y-33215D01*
X34965Y-33234D01*
X35022Y-33234D01*
X35060Y-33215D01*
X35079Y-33196D01*
X35098Y-33157D01*
X35098Y-33043D01*
X35079Y-33005D01*
X35060Y-32986D01*
X35022Y-32967D01*
X34965Y-32967D01*
X35270Y-32967D02*
X35270Y-33234D01*
X35270Y-33157D02*
X35289Y-33196D01*
X35308Y-33215D01*
X35346Y-33234D01*
X35384Y-33234D01*
X35689Y-33234D02*
X35689Y-32910D01*
X35670Y-32872D01*
X35650Y-32853D01*
X35612Y-32834D01*
X35555Y-32834D01*
X35517Y-32853D01*
X35689Y-32986D02*
X35650Y-32967D01*
X35574Y-32967D01*
X35536Y-32986D01*
X35517Y-33005D01*
X35498Y-33043D01*
X35498Y-33157D01*
X35517Y-33196D01*
X35536Y-33215D01*
X35574Y-33234D01*
X35650Y-33234D01*
X35689Y-33215D01*
X32080Y-31164D02*
X32099Y-31183D01*
X32137Y-31202D01*
X32233Y-31202D01*
X32271Y-31183D01*
X32290Y-31164D01*
X32309Y-31125D01*
X32309Y-31087D01*
X32290Y-31030D01*
X32061Y-30802D01*
X32309Y-30802D01*
X32557Y-31202D02*
X32595Y-31202D01*
X32633Y-31183D01*
X32652Y-31164D01*
X32671Y-31125D01*
X32690Y-31049D01*
X32690Y-30954D01*
X32671Y-30878D01*
X32652Y-30840D01*
X32633Y-30821D01*
X32595Y-30802D01*
X32557Y-30802D01*
X32518Y-30821D01*
X32499Y-30840D01*
X32480Y-30878D01*
X32461Y-30954D01*
X32461Y-31049D01*
X32480Y-31125D01*
X32499Y-31164D01*
X32518Y-31183D01*
X32557Y-31202D01*
X33071Y-30802D02*
X32842Y-30802D01*
X32957Y-30802D02*
X32957Y-31202D01*
X32918Y-31144D01*
X32880Y-31106D01*
X32842Y-31087D01*
X33204Y-31202D02*
X33452Y-31202D01*
X33318Y-31049D01*
X33376Y-31049D01*
X33414Y-31030D01*
X33433Y-31011D01*
X33452Y-30973D01*
X33452Y-30878D01*
X33433Y-30840D01*
X33414Y-30821D01*
X33376Y-30802D01*
X33261Y-30802D01*
X33223Y-30821D01*
X33204Y-30840D01*
X31880Y-30562D02*
X32014Y-30162D01*
X32147Y-30562D01*
X32242Y-30562D02*
X32490Y-30562D01*
X32357Y-30409D01*
X32414Y-30409D01*
X32452Y-30390D01*
X32471Y-30371D01*
X32490Y-30333D01*
X32490Y-30238D01*
X32471Y-30200D01*
X32452Y-30181D01*
X32414Y-30162D01*
X32299Y-30162D01*
X32261Y-30181D01*
X32242Y-30200D01*
X32661Y-30200D02*
X32680Y-30181D01*
X32661Y-30162D01*
X32642Y-30181D01*
X32661Y-30200D01*
X32661Y-30162D01*
X32928Y-30562D02*
X32966Y-30562D01*
X33004Y-30543D01*
X33023Y-30524D01*
X33042Y-30485D01*
X33061Y-30409D01*
X33061Y-30314D01*
X33042Y-30238D01*
X33023Y-30200D01*
X33004Y-30181D01*
X32966Y-30162D01*
X32928Y-30162D01*
X32890Y-30181D01*
X32871Y-30200D01*
X32852Y-30238D01*
X32833Y-30314D01*
X32833Y-30409D01*
X32852Y-30485D01*
X32871Y-30524D01*
X32890Y-30543D01*
X32928Y-30562D01*
X33233Y-30200D02*
X33252Y-30181D01*
X33233Y-30162D01*
X33214Y-30181D01*
X33233Y-30200D01*
X33233Y-30162D01*
X33423Y-30162D02*
X33423Y-30562D01*
X33423Y-30409D02*
X33461Y-30428D01*
X33537Y-30428D01*
X33576Y-30409D01*
X33595Y-30390D01*
X33614Y-30352D01*
X33614Y-30238D01*
X33595Y-30200D01*
X33576Y-30181D01*
X33537Y-30162D01*
X33461Y-30162D01*
X33423Y-30181D01*
X33750Y-29350D02*
X33750Y-26350D01*
X31750Y-26350D02*
X31750Y-29350D01*
X31750Y-29350D02*
X33750Y-29350D01*
X33750Y-26350D02*
X31750Y-26350D01*
G54D13*
X35716Y-23295D02*
X35716Y-22295D01*
X35716Y-22295D02*
X29716Y-22295D01*
X29716Y-22295D02*
X29716Y-23295D01*
X29716Y-23295D02*
X35716Y-23295D01*
X34716Y-23295D02*
X34716Y-22295D01*
G54D11*
X26259Y-28307D02*
X24685Y-28307D01*
X26259Y-28307D02*
X26259Y-27440D01*
X26259Y-27440D02*
X24685Y-27440D01*
X24685Y-27440D02*
X24685Y-28307D01*
X28540Y-32780D02*
X27426Y-33894D01*
X28540Y-32780D02*
X27927Y-32168D01*
X27927Y-32168D02*
X26814Y-33282D01*
X26814Y-33282D02*
X27426Y-33894D01*
X37662Y-32129D02*
X38776Y-33242D01*
X37662Y-32129D02*
X37050Y-32741D01*
X37050Y-32741D02*
X38163Y-33855D01*
X38163Y-33855D02*
X38776Y-33242D01*
X27362Y-28661D02*
X27362Y-27086D01*
X27362Y-28661D02*
X28228Y-28661D01*
X28228Y-28661D02*
X28228Y-27086D01*
X28228Y-27086D02*
X27362Y-27086D01*
X26377Y-28661D02*
X26377Y-27086D01*
X26377Y-28661D02*
X27244Y-28661D01*
X27244Y-28661D02*
X27244Y-27086D01*
X27244Y-27086D02*
X26377Y-27086D01*
X33503Y-26299D02*
X31929Y-26299D01*
X33503Y-26299D02*
X33503Y-25433D01*
X33503Y-25433D02*
X31929Y-25433D01*
X31929Y-25433D02*
X31929Y-26299D01*
X33188Y-34330D02*
X33188Y-35905D01*
X33188Y-34330D02*
X32322Y-34330D01*
X32322Y-34330D02*
X32322Y-35905D01*
X32322Y-35905D02*
X33188Y-35905D01*
X39212Y-27440D02*
X40787Y-27440D01*
X39212Y-27440D02*
X39212Y-28307D01*
X39212Y-28307D02*
X40787Y-28307D01*
X40787Y-28307D02*
X40787Y-27440D01*
X37011Y-22967D02*
X38124Y-21853D01*
X37011Y-22967D02*
X37623Y-23579D01*
X37623Y-23579D02*
X38737Y-22465D01*
X38737Y-22465D02*
X38124Y-21853D01*
X32322Y-21377D02*
X32322Y-19803D01*
X32322Y-21377D02*
X33188Y-21377D01*
X33188Y-21377D02*
X33188Y-19803D01*
X33188Y-19803D02*
X32322Y-19803D01*
X27848Y-23618D02*
X26735Y-22505D01*
X27848Y-23618D02*
X28461Y-23006D01*
X28461Y-23006D02*
X27347Y-21892D01*
X27347Y-21892D02*
X26735Y-22505D01*
X32876Y-24685D02*
X33131Y-24685D01*
X33131Y-24685D02*
X33131Y-25236D01*
X32876Y-25236D02*
X33131Y-25236D01*
X32876Y-24685D02*
X32876Y-25236D01*
X32296Y-24685D02*
X32552Y-24685D01*
X32552Y-24685D02*
X32552Y-25236D01*
X32296Y-25236D02*
X32552Y-25236D01*
X32296Y-24685D02*
X32296Y-25236D01*
X32638Y-24764D02*
X32794Y-24764D01*
X32794Y-24764D02*
X32794Y-25156D01*
X32638Y-25156D02*
X32794Y-25156D01*
X32638Y-24764D02*
X32638Y-25156D01*
X32555Y-25210D02*
X32877Y-25210D01*
X32555Y-24710D02*
X32877Y-24710D01*
X31940Y-25347D02*
X33492Y-25347D01*
X33492Y-25347D02*
X33492Y-24573D01*
X33492Y-24573D02*
X31940Y-24573D01*
X31940Y-24573D02*
X31940Y-25347D01*
G54D14*
G36*
X27801Y-25666D02*
X27809Y-25662D01*
X27828Y-25650D01*
X27854Y-25633D01*
X27885Y-25612D01*
X27916Y-25591D01*
X27942Y-25574D01*
X27960Y-25562D01*
X27967Y-25558D01*
X27971Y-25559D01*
X27986Y-25567D01*
X28008Y-25578D01*
X28020Y-25584D01*
X28040Y-25593D01*
X28050Y-25595D01*
X28051Y-25592D01*
X28059Y-25577D01*
X28070Y-25551D01*
X28085Y-25517D01*
X28102Y-25477D01*
X28120Y-25434D01*
X28138Y-25390D01*
X28156Y-25348D01*
X28171Y-25310D01*
X28184Y-25280D01*
X28192Y-25258D01*
X28195Y-25249D01*
X28194Y-25247D01*
X28184Y-25238D01*
X28167Y-25225D01*
X28129Y-25194D01*
X28093Y-25148D01*
X28070Y-25096D01*
X28063Y-25038D01*
X28069Y-24985D01*
X28090Y-24934D01*
X28126Y-24887D01*
X28170Y-24853D01*
X28221Y-24831D01*
X28278Y-24824D01*
X28333Y-24830D01*
X28385Y-24851D01*
X28432Y-24886D01*
X28451Y-24909D01*
X28478Y-24956D01*
X28494Y-25006D01*
X28495Y-25018D01*
X28493Y-25074D01*
X28477Y-25127D01*
X28448Y-25174D01*
X28407Y-25213D01*
X28402Y-25217D01*
X28383Y-25231D01*
X28371Y-25240D01*
X28361Y-25248D01*
X28431Y-25418D01*
X28442Y-25445D01*
X28462Y-25491D01*
X28479Y-25531D01*
X28492Y-25563D01*
X28502Y-25584D01*
X28506Y-25593D01*
X28506Y-25593D01*
X28512Y-25594D01*
X28525Y-25589D01*
X28549Y-25578D01*
X28565Y-25570D01*
X28583Y-25561D01*
X28591Y-25558D01*
X28598Y-25562D01*
X28615Y-25573D01*
X28640Y-25590D01*
X28670Y-25610D01*
X28699Y-25630D01*
X28726Y-25648D01*
X28745Y-25660D01*
X28755Y-25665D01*
X28756Y-25665D01*
X28764Y-25660D01*
X28780Y-25648D01*
X28803Y-25626D01*
X28835Y-25594D01*
X28840Y-25589D01*
X28867Y-25561D01*
X28889Y-25538D01*
X28904Y-25522D01*
X28909Y-25515D01*
X28909Y-25515D01*
X28904Y-25505D01*
X28892Y-25486D01*
X28874Y-25459D01*
X28853Y-25428D01*
X28797Y-25346D01*
X28828Y-25269D01*
X28837Y-25246D01*
X28849Y-25217D01*
X28858Y-25197D01*
X28863Y-25188D01*
X28871Y-25185D01*
X28892Y-25180D01*
X28923Y-25173D01*
X28959Y-25167D01*
X28994Y-25160D01*
X29025Y-25154D01*
X29048Y-25150D01*
X29058Y-25148D01*
X29060Y-25146D01*
X29062Y-25141D01*
X29064Y-25131D01*
X29064Y-25112D01*
X29065Y-25082D01*
X29065Y-25038D01*
X29065Y-25034D01*
X29064Y-24992D01*
X29064Y-24959D01*
X29063Y-24938D01*
X29061Y-24930D01*
X29061Y-24930D01*
X29051Y-24927D01*
X29029Y-24923D01*
X28998Y-24916D01*
X28960Y-24909D01*
X28958Y-24909D01*
X28921Y-24902D01*
X28890Y-24895D01*
X28868Y-24890D01*
X28859Y-24887D01*
X28857Y-24885D01*
X28849Y-24870D01*
X28838Y-24847D01*
X28826Y-24819D01*
X28814Y-24790D01*
X28803Y-24763D01*
X28796Y-24744D01*
X28794Y-24735D01*
X28794Y-24735D01*
X28800Y-24726D01*
X28813Y-24706D01*
X28831Y-24680D01*
X28853Y-24648D01*
X28854Y-24645D01*
X28876Y-24614D01*
X28893Y-24587D01*
X28905Y-24568D01*
X28909Y-24560D01*
X28909Y-24559D01*
X28902Y-24550D01*
X28886Y-24532D01*
X28863Y-24508D01*
X28835Y-24480D01*
X28826Y-24472D01*
X28796Y-24442D01*
X28775Y-24422D01*
X28761Y-24412D01*
X28755Y-24409D01*
X28755Y-24410D01*
X28745Y-24415D01*
X28725Y-24428D01*
X28698Y-24447D01*
X28666Y-24468D01*
X28664Y-24470D01*
X28633Y-24491D01*
X28607Y-24509D01*
X28588Y-24521D01*
X28580Y-24526D01*
X28578Y-24526D01*
X28566Y-24522D01*
X28543Y-24515D01*
X28516Y-24504D01*
X28487Y-24492D01*
X28460Y-24481D01*
X28440Y-24472D01*
X28431Y-24467D01*
X28431Y-24466D01*
X28427Y-24455D01*
X28422Y-24431D01*
X28415Y-24399D01*
X28408Y-24360D01*
X28407Y-24354D01*
X28400Y-24317D01*
X28394Y-24286D01*
X28389Y-24264D01*
X28387Y-24255D01*
X28382Y-24254D01*
X28363Y-24253D01*
X28335Y-24252D01*
X28301Y-24252D01*
X28266Y-24252D01*
X28232Y-24253D01*
X28202Y-24254D01*
X28181Y-24255D01*
X28172Y-24257D01*
X28171Y-24258D01*
X28168Y-24269D01*
X28163Y-24293D01*
X28156Y-24325D01*
X28149Y-24364D01*
X28148Y-24371D01*
X28141Y-24408D01*
X28134Y-24439D01*
X28130Y-24460D01*
X28127Y-24468D01*
X28124Y-24470D01*
X28109Y-24477D01*
X28084Y-24487D01*
X28052Y-24500D01*
X27980Y-24529D01*
X27892Y-24468D01*
X27884Y-24463D01*
X27852Y-24441D01*
X27826Y-24424D01*
X27808Y-24412D01*
X27800Y-24408D01*
X27800Y-24408D01*
X27791Y-24416D01*
X27773Y-24432D01*
X27749Y-24456D01*
X27722Y-24483D01*
X27701Y-24504D01*
X27677Y-24529D01*
X27661Y-24545D01*
X27653Y-24556D01*
X27650Y-24563D01*
X27651Y-24567D01*
X27656Y-24576D01*
X27669Y-24595D01*
X27687Y-24622D01*
X27709Y-24653D01*
X27727Y-24680D01*
X27746Y-24709D01*
X27758Y-24730D01*
X27763Y-24741D01*
X27762Y-24745D01*
X27755Y-24762D01*
X27745Y-24789D01*
X27732Y-24820D01*
X27701Y-24890D01*
X27655Y-24898D01*
X27627Y-24904D01*
X27588Y-24911D01*
X27551Y-24918D01*
X27493Y-24930D01*
X27491Y-25142D01*
X27500Y-25146D01*
X27509Y-25149D01*
X27530Y-25153D01*
X27561Y-25159D01*
X27597Y-25166D01*
X27628Y-25172D01*
X27659Y-25178D01*
X27681Y-25182D01*
X27691Y-25184D01*
X27694Y-25188D01*
X27702Y-25203D01*
X27713Y-25227D01*
X27725Y-25256D01*
X27737Y-25285D01*
X27748Y-25313D01*
X27756Y-25334D01*
X27759Y-25345D01*
X27755Y-25353D01*
X27743Y-25371D01*
X27726Y-25397D01*
X27705Y-25428D01*
X27683Y-25459D01*
X27666Y-25486D01*
X27653Y-25505D01*
X27648Y-25513D01*
X27651Y-25519D01*
X27663Y-25534D01*
X27686Y-25558D01*
X27721Y-25593D01*
X27727Y-25598D01*
X27754Y-25625D01*
X27778Y-25646D01*
X27794Y-25661D01*
X27801Y-25666D01*
X27801Y-25666D01*
G37*
G36*
X37551Y-25686D02*
X37571Y-25684D01*
X37589Y-25678D01*
X37597Y-25674D01*
X37614Y-25662D01*
X37627Y-25648D01*
X37637Y-25631D01*
X37644Y-25613D01*
X37647Y-25594D01*
X37646Y-25574D01*
X37642Y-25555D01*
X37633Y-25537D01*
X37627Y-25529D01*
X37619Y-25520D01*
X37610Y-25511D01*
X37602Y-25505D01*
X37599Y-25503D01*
X37582Y-25495D01*
X37564Y-25491D01*
X37545Y-25490D01*
X37538Y-25491D01*
X37527Y-25492D01*
X37518Y-25495D01*
X37507Y-25499D01*
X37496Y-25505D01*
X37480Y-25518D01*
X37467Y-25534D01*
X37457Y-25552D01*
X37454Y-25560D01*
X37452Y-25570D01*
X37451Y-25577D01*
X37451Y-25578D01*
X37450Y-25579D01*
X37450Y-25575D01*
X37450Y-25574D01*
X37447Y-25561D01*
X37442Y-25548D01*
X37436Y-25537D01*
X37425Y-25522D01*
X37410Y-25509D01*
X37393Y-25498D01*
X37373Y-25492D01*
X37353Y-25490D01*
X37347Y-25490D01*
X37332Y-25492D01*
X37317Y-25496D01*
X37314Y-25497D01*
X37297Y-25506D01*
X37282Y-25519D01*
X37270Y-25534D01*
X37261Y-25550D01*
X37256Y-25568D01*
X37255Y-25568D01*
X37254Y-25573D01*
X37254Y-25575D01*
X37254Y-25575D01*
X37254Y-25573D01*
X37252Y-25568D01*
X37252Y-25566D01*
X37246Y-25549D01*
X37237Y-25532D01*
X37224Y-25517D01*
X37212Y-25507D01*
X37195Y-25498D01*
X37176Y-25492D01*
X37155Y-25490D01*
X37141Y-25491D01*
X37121Y-25496D01*
X37103Y-25505D01*
X37087Y-25517D01*
X37075Y-25533D01*
X37073Y-25535D01*
X37069Y-25543D01*
X37066Y-25549D01*
X37064Y-25553D01*
X37061Y-25562D01*
X37059Y-25571D01*
X37058Y-25577D01*
X37058Y-25578D01*
X37058Y-25578D01*
X37057Y-25574D01*
X37055Y-25563D01*
X37050Y-25550D01*
X37044Y-25538D01*
X37032Y-25522D01*
X37017Y-25509D01*
X37000Y-25498D01*
X36980Y-25492D01*
X36960Y-25490D01*
X36941Y-25491D01*
X36922Y-25497D01*
X36905Y-25506D01*
X36889Y-25520D01*
X36881Y-25528D01*
X36874Y-25539D01*
X36868Y-25552D01*
X36864Y-25562D01*
X36861Y-25582D01*
X36862Y-25601D01*
X36866Y-25619D01*
X36873Y-25637D01*
X36884Y-25652D01*
X36898Y-25665D01*
X36914Y-25676D01*
X36932Y-25683D01*
X36952Y-25686D01*
X36953Y-25686D01*
X36974Y-25686D01*
X36992Y-25681D01*
X37010Y-25672D01*
X37017Y-25668D01*
X37030Y-25656D01*
X37041Y-25643D01*
X37050Y-25628D01*
X37052Y-25622D01*
X37054Y-25614D01*
X37056Y-25605D01*
X37057Y-25599D01*
X37057Y-25595D01*
X37058Y-25599D01*
X37058Y-25602D01*
X37060Y-25611D01*
X37063Y-25621D01*
X37066Y-25629D01*
X37071Y-25638D01*
X37083Y-25654D01*
X37098Y-25667D01*
X37115Y-25678D01*
X37135Y-25684D01*
X37138Y-25685D01*
X37152Y-25686D01*
X37166Y-25686D01*
X37179Y-25684D01*
X37192Y-25680D01*
X37210Y-25670D01*
X37227Y-25657D01*
X37228Y-25656D01*
X37239Y-25642D01*
X37247Y-25625D01*
X37252Y-25608D01*
X37253Y-25608D01*
X37254Y-25603D01*
X37254Y-25601D01*
X37254Y-25602D01*
X37255Y-25607D01*
X37255Y-25608D01*
X37258Y-25618D01*
X37263Y-25629D01*
X37268Y-25640D01*
X37277Y-25652D01*
X37292Y-25666D01*
X37309Y-25677D01*
X37329Y-25684D01*
X37332Y-25685D01*
X37345Y-25686D01*
X37360Y-25686D01*
X37372Y-25685D01*
X37383Y-25681D01*
X37402Y-25673D01*
X37418Y-25661D01*
X37432Y-25646D01*
X37442Y-25629D01*
X37444Y-25623D01*
X37447Y-25614D01*
X37449Y-25605D01*
X37450Y-25599D01*
X37450Y-25598D01*
X37450Y-25598D01*
X37451Y-25602D01*
X37451Y-25602D01*
X37454Y-25615D01*
X37459Y-25628D01*
X37465Y-25639D01*
X37467Y-25643D01*
X37480Y-25658D01*
X37496Y-25671D01*
X37513Y-25680D01*
X37531Y-25685D01*
X37551Y-25686D01*
X37551Y-25686D01*
G37*
G36*
X36756Y-25490D02*
X36768Y-25489D01*
X36779Y-25488D01*
X36793Y-25485D01*
X36811Y-25477D01*
X36827Y-25465D01*
X36841Y-25450D01*
X36851Y-25433D01*
X36858Y-25415D01*
X36861Y-25395D01*
X36859Y-25375D01*
X36854Y-25356D01*
X36845Y-25338D01*
X36833Y-25323D01*
X36817Y-25309D01*
X36812Y-25306D01*
X36793Y-25298D01*
X36773Y-25293D01*
X36753Y-25293D01*
X36733Y-25297D01*
X36717Y-25304D01*
X36700Y-25315D01*
X36685Y-25330D01*
X36674Y-25347D01*
X36667Y-25367D01*
X36665Y-25377D01*
X36664Y-25390D01*
X36664Y-25402D01*
X36666Y-25413D01*
X36667Y-25417D01*
X36675Y-25437D01*
X36686Y-25454D01*
X36701Y-25468D01*
X36719Y-25480D01*
X36728Y-25483D01*
X36739Y-25487D01*
X36749Y-25489D01*
X36756Y-25490D01*
X36756Y-25490D01*
G37*
G36*
X37748Y-25490D02*
X37768Y-25487D01*
X37788Y-25480D01*
X37806Y-25469D01*
X37810Y-25466D01*
X37823Y-25452D01*
X37834Y-25435D01*
X37841Y-25415D01*
X37843Y-25405D01*
X37844Y-25393D01*
X37844Y-25380D01*
X37842Y-25370D01*
X37841Y-25365D01*
X37833Y-25345D01*
X37822Y-25329D01*
X37807Y-25314D01*
X37790Y-25304D01*
X37772Y-25296D01*
X37751Y-25293D01*
X37744Y-25293D01*
X37724Y-25295D01*
X37705Y-25301D01*
X37689Y-25311D01*
X37674Y-25324D01*
X37662Y-25339D01*
X37654Y-25356D01*
X37649Y-25375D01*
X37648Y-25396D01*
X37649Y-25408D01*
X37651Y-25418D01*
X37655Y-25430D01*
X37663Y-25445D01*
X37676Y-25460D01*
X37691Y-25473D01*
X37709Y-25483D01*
X37728Y-25488D01*
X37748Y-25490D01*
X37748Y-25490D01*
G37*
G36*
X36560Y-25292D02*
X36574Y-25292D01*
X36586Y-25291D01*
X36600Y-25287D01*
X36618Y-25277D01*
X36635Y-25264D01*
X36645Y-25252D01*
X36655Y-25235D01*
X36662Y-25215D01*
X36663Y-25208D01*
X36664Y-25196D01*
X36663Y-25184D01*
X36662Y-25174D01*
X36660Y-25168D01*
X36653Y-25149D01*
X36641Y-25132D01*
X36627Y-25117D01*
X36609Y-25106D01*
X36602Y-25103D01*
X36590Y-25099D01*
X36577Y-25097D01*
X36562Y-25097D01*
X36553Y-25097D01*
X36542Y-25099D01*
X36532Y-25101D01*
X36522Y-25106D01*
X36515Y-25110D01*
X36499Y-25122D01*
X36485Y-25137D01*
X36475Y-25155D01*
X36469Y-25175D01*
X36468Y-25180D01*
X36467Y-25191D01*
X36467Y-25203D01*
X36469Y-25214D01*
X36470Y-25221D01*
X36478Y-25240D01*
X36489Y-25257D01*
X36504Y-25271D01*
X36521Y-25282D01*
X36541Y-25290D01*
X36547Y-25291D01*
X36560Y-25292D01*
X36560Y-25292D01*
G37*
G36*
X37350Y-25293D02*
X37369Y-25291D01*
X37388Y-25286D01*
X37399Y-25281D01*
X37416Y-25269D01*
X37430Y-25255D01*
X37440Y-25237D01*
X37447Y-25218D01*
X37448Y-25214D01*
X37451Y-25198D01*
X37450Y-25183D01*
X37446Y-25166D01*
X37438Y-25147D01*
X37427Y-25130D01*
X37412Y-25116D01*
X37394Y-25106D01*
X37374Y-25098D01*
X37362Y-25095D01*
X37368Y-25095D01*
X37370Y-25094D01*
X37384Y-25091D01*
X37399Y-25084D01*
X37412Y-25075D01*
X37415Y-25073D01*
X37429Y-25059D01*
X37440Y-25042D01*
X37447Y-25024D01*
X37450Y-25005D01*
X37450Y-24986D01*
X37445Y-24967D01*
X37437Y-24948D01*
X37436Y-24948D01*
X37424Y-24931D01*
X37409Y-24918D01*
X37393Y-24909D01*
X37375Y-24903D01*
X37356Y-24900D01*
X37337Y-24901D01*
X37318Y-24906D01*
X37300Y-24915D01*
X37284Y-24927D01*
X37276Y-24936D01*
X37266Y-24951D01*
X37259Y-24966D01*
X37255Y-24981D01*
X37254Y-24984D01*
X37254Y-24986D01*
X37254Y-24985D01*
X37253Y-24981D01*
X37250Y-24967D01*
X37244Y-24953D01*
X37235Y-24940D01*
X37230Y-24934D01*
X37216Y-24920D01*
X37198Y-24910D01*
X37180Y-24903D01*
X37160Y-24900D01*
X37140Y-24901D01*
X37127Y-24904D01*
X37108Y-24912D01*
X37092Y-24924D01*
X37078Y-24938D01*
X37067Y-24955D01*
X37060Y-24975D01*
X37059Y-24985D01*
X37058Y-25004D01*
X37061Y-25024D01*
X37068Y-25042D01*
X37079Y-25059D01*
X37094Y-25073D01*
X37111Y-25085D01*
X37119Y-25088D01*
X37128Y-25092D01*
X37136Y-25094D01*
X37143Y-25095D01*
X37144Y-25095D01*
X37143Y-25096D01*
X37139Y-25097D01*
X37129Y-25100D01*
X37116Y-25104D01*
X37105Y-25110D01*
X37099Y-25114D01*
X37086Y-25126D01*
X37074Y-25140D01*
X37066Y-25155D01*
X37060Y-25171D01*
X37058Y-25189D01*
X37058Y-25206D01*
X37059Y-25209D01*
X37064Y-25230D01*
X37073Y-25248D01*
X37087Y-25264D01*
X37098Y-25274D01*
X37115Y-25284D01*
X37135Y-25291D01*
X37142Y-25292D01*
X37153Y-25292D01*
X37164Y-25292D01*
X37175Y-25291D01*
X37183Y-25289D01*
X37189Y-25287D01*
X37208Y-25278D01*
X37225Y-25265D01*
X37238Y-25249D01*
X37243Y-25241D01*
X37249Y-25228D01*
X37252Y-25215D01*
X37253Y-25214D01*
X37254Y-25209D01*
X37254Y-25207D01*
X37254Y-25207D01*
X37254Y-25181D01*
X37254Y-25181D01*
X37254Y-25179D01*
X37252Y-25174D01*
X37252Y-25173D01*
X37246Y-25155D01*
X37237Y-25139D01*
X37224Y-25124D01*
X37209Y-25112D01*
X37193Y-25103D01*
X37192Y-25103D01*
X37183Y-25100D01*
X37175Y-25098D01*
X37166Y-25096D01*
X37174Y-25094D01*
X37186Y-25091D01*
X37204Y-25084D01*
X37220Y-25072D01*
X37233Y-25058D01*
X37244Y-25042D01*
X37248Y-25034D01*
X37251Y-25024D01*
X37253Y-25015D01*
X37254Y-25012D01*
X37254Y-25010D01*
X37254Y-25011D01*
X37255Y-25015D01*
X37257Y-25023D01*
X37260Y-25033D01*
X37264Y-25042D01*
X37270Y-25053D01*
X37283Y-25068D01*
X37298Y-25080D01*
X37316Y-25089D01*
X37334Y-25094D01*
X37343Y-25096D01*
X37334Y-25098D01*
X37332Y-25098D01*
X37324Y-25100D01*
X37315Y-25103D01*
X37314Y-25104D01*
X37297Y-25113D01*
X37282Y-25125D01*
X37270Y-25140D01*
X37261Y-25156D01*
X37256Y-25174D01*
X37255Y-25175D01*
X37254Y-25179D01*
X37254Y-25181D01*
X37254Y-25207D01*
X37254Y-25207D01*
X37254Y-25210D01*
X37256Y-25215D01*
X37259Y-25228D01*
X37267Y-25245D01*
X37279Y-25261D01*
X37294Y-25274D01*
X37311Y-25284D01*
X37311Y-25284D01*
X37330Y-25290D01*
X37350Y-25293D01*
X37350Y-25293D01*
G37*
G36*
X37935Y-25292D02*
X37951Y-25292D01*
X37966Y-25290D01*
X37975Y-25287D01*
X37994Y-25279D01*
X38010Y-25266D01*
X38023Y-25252D01*
X38033Y-25234D01*
X38039Y-25215D01*
X38041Y-25194D01*
X38041Y-25186D01*
X38037Y-25166D01*
X38029Y-25147D01*
X38017Y-25129D01*
X38013Y-25126D01*
X37999Y-25114D01*
X37983Y-25105D01*
X37966Y-25099D01*
X37965Y-25098D01*
X37950Y-25096D01*
X37934Y-25096D01*
X37920Y-25098D01*
X37914Y-25100D01*
X37896Y-25108D01*
X37879Y-25119D01*
X37866Y-25133D01*
X37855Y-25149D01*
X37848Y-25167D01*
X37844Y-25186D01*
X37845Y-25206D01*
X37849Y-25226D01*
X37856Y-25241D01*
X37867Y-25257D01*
X37882Y-25272D01*
X37899Y-25282D01*
X37918Y-25290D01*
X37920Y-25290D01*
X37935Y-25292D01*
X37935Y-25292D01*
G37*
G36*
X36962Y-24703D02*
X36982Y-24701D01*
X37001Y-24694D01*
X37010Y-24689D01*
X37018Y-24683D01*
X37028Y-24675D01*
X37038Y-24664D01*
X37048Y-24647D01*
X37055Y-24628D01*
X37056Y-24623D01*
X37057Y-24610D01*
X37057Y-24596D01*
X37056Y-24584D01*
X37050Y-24568D01*
X37041Y-24550D01*
X37029Y-24536D01*
X37027Y-24533D01*
X37018Y-24526D01*
X37008Y-24519D01*
X36998Y-24514D01*
X36994Y-24513D01*
X36986Y-24510D01*
X36978Y-24508D01*
X36972Y-24507D01*
X36969Y-24507D01*
X36973Y-24506D01*
X36977Y-24505D01*
X36984Y-24503D01*
X36991Y-24501D01*
X37006Y-24494D01*
X37020Y-24485D01*
X37032Y-24475D01*
X37034Y-24472D01*
X37045Y-24455D01*
X37053Y-24437D01*
X37057Y-24417D01*
X37057Y-24397D01*
X37057Y-24393D01*
X37051Y-24373D01*
X37042Y-24355D01*
X37028Y-24338D01*
X37016Y-24328D01*
X36999Y-24318D01*
X36980Y-24311D01*
X36976Y-24311D01*
X36963Y-24310D01*
X36949Y-24310D01*
X36937Y-24312D01*
X36925Y-24315D01*
X36907Y-24324D01*
X36892Y-24336D01*
X36879Y-24351D01*
X36869Y-24368D01*
X36863Y-24387D01*
X36862Y-24389D01*
X36861Y-24394D01*
X36860Y-24396D01*
X36860Y-24394D01*
X36859Y-24390D01*
X36857Y-24382D01*
X36854Y-24373D01*
X36851Y-24365D01*
X36848Y-24359D01*
X36836Y-24342D01*
X36821Y-24328D01*
X36803Y-24318D01*
X36784Y-24312D01*
X36763Y-24310D01*
X36747Y-24311D01*
X36728Y-24315D01*
X36711Y-24324D01*
X36701Y-24331D01*
X36686Y-24345D01*
X36675Y-24362D01*
X36668Y-24380D01*
X36664Y-24399D01*
X36664Y-24419D01*
X36669Y-24438D01*
X36677Y-24457D01*
X36689Y-24473D01*
X36704Y-24487D01*
X36721Y-24497D01*
X36741Y-24504D01*
X36753Y-24507D01*
X36746Y-24508D01*
X36742Y-24508D01*
X36726Y-24513D01*
X36711Y-24521D01*
X36696Y-24532D01*
X36685Y-24544D01*
X36678Y-24554D01*
X36671Y-24568D01*
X36667Y-24581D01*
X36665Y-24591D01*
X36664Y-24603D01*
X36664Y-24616D01*
X36666Y-24626D01*
X36669Y-24638D01*
X36679Y-24657D01*
X36691Y-24673D01*
X36707Y-24686D01*
X36725Y-24696D01*
X36746Y-24702D01*
X36751Y-24703D01*
X36763Y-24703D01*
X36776Y-24702D01*
X36787Y-24700D01*
X36795Y-24698D01*
X36813Y-24689D01*
X36830Y-24677D01*
X36843Y-24662D01*
X36853Y-24644D01*
X36859Y-24624D01*
X36859Y-24623D01*
X36860Y-24618D01*
X36861Y-24619D01*
X36861Y-24592D01*
X36860Y-24591D01*
X36859Y-24587D01*
X36859Y-24586D01*
X36856Y-24573D01*
X36849Y-24559D01*
X36841Y-24546D01*
X36835Y-24539D01*
X36820Y-24525D01*
X36802Y-24515D01*
X36782Y-24508D01*
X36773Y-24506D01*
X36779Y-24505D01*
X36785Y-24504D01*
X36792Y-24502D01*
X36796Y-24501D01*
X36814Y-24492D01*
X36829Y-24480D01*
X36843Y-24465D01*
X36852Y-24448D01*
X36859Y-24429D01*
X36860Y-24424D01*
X36861Y-24421D01*
X36862Y-24423D01*
X36863Y-24429D01*
X36863Y-24429D01*
X36866Y-24440D01*
X36871Y-24452D01*
X36877Y-24462D01*
X36882Y-24469D01*
X36891Y-24478D01*
X36901Y-24487D01*
X36910Y-24493D01*
X36911Y-24494D01*
X36926Y-24500D01*
X36942Y-24505D01*
X36949Y-24506D01*
X36941Y-24508D01*
X36924Y-24513D01*
X36906Y-24522D01*
X36890Y-24534D01*
X36878Y-24549D01*
X36875Y-24554D01*
X36870Y-24564D01*
X36866Y-24574D01*
X36863Y-24583D01*
X36862Y-24589D01*
X36862Y-24589D01*
X36861Y-24592D01*
X36861Y-24619D01*
X36861Y-24619D01*
X36862Y-24623D01*
X36864Y-24629D01*
X36865Y-24635D01*
X36869Y-24645D01*
X36879Y-24662D01*
X36892Y-24677D01*
X36907Y-24688D01*
X36925Y-24697D01*
X36943Y-24702D01*
X36962Y-24703D01*
X36962Y-24703D01*
G37*
G36*
X37554Y-24703D02*
X37573Y-24700D01*
X37592Y-24693D01*
X37608Y-24683D01*
X37623Y-24670D01*
X37634Y-24654D01*
X37643Y-24635D01*
X37644Y-24629D01*
X37646Y-24623D01*
X37646Y-24622D01*
X37647Y-24618D01*
X37647Y-24618D01*
X37647Y-24591D01*
X37646Y-24588D01*
X37644Y-24581D01*
X37641Y-24570D01*
X37632Y-24552D01*
X37620Y-24537D01*
X37605Y-24524D01*
X37588Y-24514D01*
X37569Y-24508D01*
X37559Y-24506D01*
X37566Y-24505D01*
X37567Y-24505D01*
X37583Y-24500D01*
X37598Y-24493D01*
X37604Y-24489D01*
X37614Y-24481D01*
X37624Y-24472D01*
X37631Y-24462D01*
X37636Y-24453D01*
X37642Y-24441D01*
X37645Y-24429D01*
X37646Y-24424D01*
X37647Y-24421D01*
X37648Y-24423D01*
X37649Y-24429D01*
X37653Y-24442D01*
X37662Y-24460D01*
X37675Y-24476D01*
X37690Y-24489D01*
X37708Y-24499D01*
X37729Y-24505D01*
X37735Y-24506D01*
X37726Y-24508D01*
X37717Y-24511D01*
X37698Y-24519D01*
X37681Y-24531D01*
X37667Y-24546D01*
X37663Y-24552D01*
X37658Y-24561D01*
X37653Y-24571D01*
X37651Y-24578D01*
X37649Y-24586D01*
X37649Y-24586D01*
X37648Y-24590D01*
X37647Y-24591D01*
X37647Y-24618D01*
X37648Y-24619D01*
X37649Y-24624D01*
X37651Y-24631D01*
X37656Y-24646D01*
X37664Y-24660D01*
X37670Y-24667D01*
X37684Y-24682D01*
X37702Y-24693D01*
X37722Y-24700D01*
X37730Y-24702D01*
X37744Y-24703D01*
X37758Y-24702D01*
X37770Y-24700D01*
X37771Y-24700D01*
X37791Y-24692D01*
X37808Y-24681D01*
X37823Y-24666D01*
X37834Y-24649D01*
X37841Y-24629D01*
X37843Y-24620D01*
X37844Y-24606D01*
X37843Y-24593D01*
X37841Y-24581D01*
X37838Y-24570D01*
X37831Y-24556D01*
X37823Y-24544D01*
X37814Y-24534D01*
X37802Y-24524D01*
X37789Y-24516D01*
X37785Y-24514D01*
X37775Y-24511D01*
X37766Y-24508D01*
X37759Y-24507D01*
X37758Y-24507D01*
X37761Y-24506D01*
X37766Y-24504D01*
X37778Y-24501D01*
X37791Y-24495D01*
X37801Y-24489D01*
X37804Y-24488D01*
X37816Y-24476D01*
X37828Y-24462D01*
X37836Y-24448D01*
X37839Y-24440D01*
X37843Y-24421D01*
X37844Y-24400D01*
X37840Y-24381D01*
X37839Y-24376D01*
X37831Y-24358D01*
X37819Y-24342D01*
X37804Y-24328D01*
X37786Y-24318D01*
X37767Y-24311D01*
X37764Y-24311D01*
X37750Y-24310D01*
X37736Y-24310D01*
X37723Y-24312D01*
X37720Y-24313D01*
X37700Y-24320D01*
X37683Y-24332D01*
X37669Y-24347D01*
X37657Y-24365D01*
X37655Y-24370D01*
X37652Y-24379D01*
X37649Y-24388D01*
X37648Y-24394D01*
X37648Y-24395D01*
X37648Y-24396D01*
X37646Y-24393D01*
X37645Y-24388D01*
X37642Y-24374D01*
X37633Y-24357D01*
X37621Y-24341D01*
X37607Y-24328D01*
X37589Y-24318D01*
X37589Y-24318D01*
X37571Y-24312D01*
X37551Y-24310D01*
X37531Y-24311D01*
X37513Y-24316D01*
X37502Y-24321D01*
X37485Y-24333D01*
X37471Y-24348D01*
X37460Y-24365D01*
X37453Y-24384D01*
X37452Y-24388D01*
X37450Y-24404D01*
X37451Y-24419D01*
X37455Y-24437D01*
X37463Y-24456D01*
X37475Y-24473D01*
X37490Y-24487D01*
X37508Y-24497D01*
X37528Y-24504D01*
X37532Y-24505D01*
X37536Y-24507D01*
X37536Y-24507D01*
X37530Y-24508D01*
X37518Y-24511D01*
X37506Y-24516D01*
X37495Y-24523D01*
X37484Y-24531D01*
X37470Y-24546D01*
X37459Y-24564D01*
X37458Y-24567D01*
X37452Y-24586D01*
X37450Y-24606D01*
X37453Y-24627D01*
X37459Y-24646D01*
X37464Y-24655D01*
X37470Y-24664D01*
X37478Y-24673D01*
X37479Y-24674D01*
X37495Y-24687D01*
X37512Y-24696D01*
X37532Y-24702D01*
X37534Y-24702D01*
X37554Y-24703D01*
X37554Y-24703D01*
G37*
G54D11*
X27935Y-26509D02*
X27954Y-26490D01*
X27973Y-26434D01*
X27973Y-26396D01*
X27954Y-26340D01*
X27917Y-26302D01*
X27879Y-26284D01*
X27804Y-26265D01*
X27748Y-26265D01*
X27673Y-26284D01*
X27635Y-26302D01*
X27598Y-26340D01*
X27579Y-26396D01*
X27579Y-26434D01*
X27598Y-26490D01*
X27617Y-26509D01*
X27973Y-26884D02*
X27973Y-26659D01*
X27973Y-26771D02*
X27579Y-26771D01*
X27635Y-26734D01*
X27673Y-26696D01*
X27692Y-26659D01*
X26991Y-26509D02*
X27009Y-26490D01*
X27028Y-26434D01*
X27028Y-26396D01*
X27009Y-26340D01*
X26972Y-26302D01*
X26934Y-26284D01*
X26859Y-26265D01*
X26803Y-26265D01*
X26728Y-26284D01*
X26691Y-26302D01*
X26653Y-26340D01*
X26634Y-26396D01*
X26634Y-26434D01*
X26653Y-26490D01*
X26672Y-26509D01*
X26672Y-26659D02*
X26653Y-26677D01*
X26634Y-26715D01*
X26634Y-26809D01*
X26653Y-26846D01*
X26672Y-26865D01*
X26709Y-26884D01*
X26747Y-26884D01*
X26803Y-26865D01*
X27028Y-26640D01*
X27028Y-26884D01*
X34081Y-26006D02*
X34100Y-26025D01*
X34156Y-26044D01*
X34193Y-26044D01*
X34250Y-26025D01*
X34287Y-25988D01*
X34306Y-25950D01*
X34325Y-25875D01*
X34325Y-25819D01*
X34306Y-25744D01*
X34287Y-25706D01*
X34250Y-25669D01*
X34193Y-25650D01*
X34156Y-25650D01*
X34100Y-25669D01*
X34081Y-25688D01*
X33950Y-25650D02*
X33706Y-25650D01*
X33837Y-25800D01*
X33781Y-25800D01*
X33743Y-25819D01*
X33725Y-25838D01*
X33706Y-25875D01*
X33706Y-25969D01*
X33725Y-26006D01*
X33743Y-26025D01*
X33781Y-26044D01*
X33893Y-26044D01*
X33931Y-26025D01*
X33950Y-26006D01*
X34047Y-25139D02*
X34179Y-24952D01*
X34272Y-25139D02*
X34272Y-24746D01*
X34122Y-24746D01*
X34085Y-24764D01*
X34066Y-24783D01*
X34047Y-24821D01*
X34047Y-24877D01*
X34066Y-24914D01*
X34085Y-24933D01*
X34122Y-24952D01*
X34272Y-24952D01*
X33672Y-25139D02*
X33897Y-25139D01*
X33785Y-25139D02*
X33785Y-24746D01*
X33822Y-24802D01*
X33860Y-24839D01*
X33897Y-24858D01*
%LPC*%
G54D15*
X33250Y-26850D03*
G54D16*
X32250Y-26850D03*
X33250Y-27850D03*
X32250Y-27850D03*
X33250Y-28850D03*
X32250Y-28850D03*
G54D15*
X35216Y-22795D03*
G54D16*
X34216Y-22795D03*
X33216Y-22795D03*
X32216Y-22795D03*
X31216Y-22795D03*
X30216Y-22795D03*
G54D17*
X25098Y-27874D03*
X25846Y-27874D03*
G54D10*
G36*
X27440Y-33685D02*
X27023Y-33268D01*
X27384Y-32906D01*
X27801Y-33323D01*
X27440Y-33685D01*
X27440Y-33685D01*
G37*
G36*
X27969Y-33156D02*
X27552Y-32739D01*
X27913Y-32377D01*
X28330Y-32794D01*
X27969Y-33156D01*
X27969Y-33156D01*
G37*
G36*
X38567Y-33228D02*
X38149Y-33645D01*
X37788Y-33284D01*
X38205Y-32867D01*
X38567Y-33228D01*
X38567Y-33228D01*
G37*
G36*
X38038Y-32699D02*
X37620Y-33116D01*
X37259Y-32755D01*
X37676Y-32338D01*
X38038Y-32699D01*
X38038Y-32699D01*
G37*
G54D18*
X27795Y-27500D03*
X27795Y-28248D03*
X26811Y-27500D03*
X26811Y-28248D03*
G54D17*
X32342Y-25866D03*
X33090Y-25866D03*
G54D18*
X32755Y-35492D03*
X32755Y-34744D03*
G54D17*
X40374Y-27874D03*
X39626Y-27874D03*
G54D10*
G36*
X38110Y-22062D02*
X38527Y-22480D01*
X38166Y-22841D01*
X37749Y-22424D01*
X38110Y-22062D01*
X38110Y-22062D01*
G37*
G36*
X37581Y-22591D02*
X37998Y-23008D01*
X37637Y-23370D01*
X37220Y-22953D01*
X37581Y-22591D01*
X37581Y-22591D01*
G37*
G54D18*
X32755Y-20216D03*
X32755Y-20964D03*
G54D10*
G36*
X26944Y-22519D02*
X27361Y-22102D01*
X27723Y-22463D01*
X27306Y-22880D01*
X26944Y-22519D01*
X26944Y-22519D01*
G37*
G36*
X27473Y-23048D02*
X27890Y-22631D01*
X28252Y-22992D01*
X27834Y-23409D01*
X27473Y-23048D01*
X27473Y-23048D01*
G37*
G54D17*
X32342Y-24960D03*
X33090Y-24960D03*
G54D19*
X36746Y-29603D03*
G54D20*
X36746Y-29103D03*
X36746Y-28603D03*
X36746Y-28103D03*
X36746Y-27603D03*
X36746Y-27103D03*
X36746Y-26603D03*
X36746Y-26103D03*
G54D21*
X30996Y-31853D03*
G54D22*
X31496Y-31853D03*
X31996Y-31853D03*
X32496Y-31853D03*
X32996Y-31853D03*
X33496Y-31853D03*
X33996Y-31853D03*
X34496Y-31853D03*
G54D21*
X34496Y-23853D03*
G54D22*
X33996Y-23853D03*
X33496Y-23853D03*
X32996Y-23853D03*
X32496Y-23853D03*
X31996Y-23853D03*
X31496Y-23853D03*
X30996Y-23853D03*
G54D19*
X28746Y-26103D03*
G54D20*
X28746Y-26603D03*
X28746Y-27103D03*
X28746Y-27603D03*
X28746Y-28103D03*
X28746Y-28603D03*
X28746Y-29103D03*
X28746Y-29603D03*
G54D23*
X30050Y-25156D03*
X35443Y-25156D03*
X35443Y-30550D03*
X30050Y-30550D03*
M02*
